<svg
      xmlns="http://www.w3.org/2000/svg"
      viewBox="0 0 640 490"
      style="background-color: #292b3e"
    >
      <style>
        text {
          font-size: 12px;
          font-family: Open Sans, Helvetica Neue, Helvetica, Arial, sans-serif;
        }
        #labels text {
          dominant-baseline: hanging;
          font-size: 10px;
          fill: rgba(0,0,0,0.5);
        }
        #legend {
          font-weight: 600;
        }
        #legend tspan {
          font-size: 15px;
        }
        #branding-text {
          font-size: 9px;
          dominant-baseline: hanging;
          opacity: 0.5;
        }
        #branding-logo {
          opacity: 0.5;
        }
      </style>

      
      
      <polygon
        fill="#4B6C4B"
        fillRule="evenodd"
        points="0 313.61354940740637 6.4 304.26911002051014 12.8 297.26804417859756 19.2 285.93881218415953 25.6 278.82798527678574 32 274.984207176607 38.4 267.0907362135742 44.800000000000004 257.07880537740334 51.2 246.22211600626775 57.599999999999994 230.99230475081222 64 221.54626376363012 70.4 206.62807792246377 76.8 198.27727202347745 83.2 192.17035436857043 89.60000000000001 182.12949743393412 96 170.61720857826967 102.4 156.95190696617064 108.80000000000001 154.80416174145824 115.19999999999999 149.88790028167955 121.6 142.5256695648418 128 138.28616287087044 134.4 123.78680473481887 140.8 127.17477728334933 147.20000000000002 110.7724397113551 153.6 93.05724000357517 160 88.01875837203778 166.4 78.1062824738687 172.8 68.78368183410623 179.20000000000002 65.97380672006773 185.6 62.1333942695112 192 59.18908170133341 198.4 46.68377119956 204.8 33.293931656429606 211.20000000000002 31.646455144065726 217.60000000000002 27.41454267955521 224 27.528833051454683 230.39999999999998 25.251008225608757 236.8 13.936054782239921 243.2 9.64311935085101 249.60000000000002 9.883805686003655 256 12.937913212269393 262.4 8.246865942761303 268.8 10.71025390352139 275.2 10.15900224269376 281.6 11.455498949931552 288 14.195518316895061 294.40000000000003 17.693034781747315 300.79999999999995 18.067827001789624 307.2 12.038731657324263 313.6 13.322722026420763 320 11.292713208608177 326.4 7.029470109214685 332.8 1.9717265648064313 339.20000000000005 4.695408856508266 345.6 0.06654324964023317 352 0 358.40000000000003 3.1342126533328383 364.79999999999995 11.121684480443378 371.2 13.499722972944312 377.59999999999997 18.047928868265217 384 21.314713222858984 390.4 21.568403202761942 396.8 27.06644584485707 403.2 30.68093604208775 409.6 36.74775495122515 416 42.80356982047641 422.40000000000003 46.960348480312234 428.8 38.51482595398534 435.20000000000005 42.63111673785011 441.59999999999997 50.61532865838126 448 58.06896730991514 454.4 55.5420774581965 460.79999999999995 58.40776364544922 467.2 64.84915360625666 473.6 68.96510616349059 480 76.40568775011033 486.4 74.31949767392018 492.8 74.99065515447964 499.20000000000005 75.05192534086626 505.6 74.49031068324828 512 78.43680123461445 518.4000000000001 85.33604255132954 524.8 88.56510585506996 531.1999999999999 82.0254092820191 537.6 83.08746138003363 544 90.29405580256974 550.4 88.15314585333059 556.8 86.74195413579002 563.2 87.76610185780041 569.6 85.89992447298278 576 86.43107252578756 582.4 86.68134465022308 588.8000000000001 89.27119136319169 595.2 85.2166585872161 601.5999999999999 69.72114856929221 608 69.36907782838097 614.4 67.00830090304746 620.8 64.1004985845048 627.2 60.6555456769014 633.6 56.62913495356827 640 56.84297011525291 640 320 0 320"
      />
      
      <polygon
        fill="#2c3e50"
        fillRule="evenodd"
        points="0 313.61354940740637 6.4 304.26911002051014 12.8 297.26804417859756 19.2 285.93881218415953 25.6 278.82798527678574 32 274.984207176607 38.4 267.0907362135742 44.800000000000004 257.07880537740334 51.2 246.22211600626775 57.599999999999994 230.99230475081222 64 221.54626376363012 70.4 206.62807792246377 76.8 198.27727202347745 83.2 192.17035436857043 89.60000000000001 182.12949743393412 96 170.61720857826967 102.4 156.95190696617064 108.80000000000001 154.80416174145824 115.19999999999999 149.88790028167955 121.6 142.5256695648418 128 138.28616287087044 134.4 123.78680473481887 140.8 127.17477728334933 147.20000000000002 110.7724397113551 153.6 93.05724000357517 160 88.01875837203778 166.4 78.1062824738687 172.8 68.78368183410623 179.20000000000002 65.97380672006773 185.6 62.1333942695112 192 59.18908170133341 198.4 46.68377119956 204.8 33.293931656429606 211.20000000000002 31.646455144065726 217.60000000000002 27.41454267955521 224 27.528833051454683 230.39999999999998 25.251008225608757 236.8 13.936054782239921 243.2 9.64311935085101 249.60000000000002 9.883805686003655 256 12.937913212269393 262.4 8.246865942761303 268.8 10.71025390352139 275.2 10.15900224269376 281.6 11.455498949931552 288 14.195518316895061 294.40000000000003 17.693034781747315 300.79999999999995 18.067827001789624 307.2 12.038731657324263 313.6 13.322722026420763 320 11.292713208608177 326.4 7.029470109214685 332.8 1.9717265648064313 339.20000000000005 4.695408856508266 345.6 0.06654324964023317 352 0 358.40000000000003 3.1342126533328383 364.79999999999995 11.121684480443378 371.2 13.499722972944312 377.59999999999997 18.047928868265217 384 21.314713222858984 390.4 21.568403202761942 396.8 27.06644584485707 403.2 30.68093604208775 409.6 36.74775495122515 416 42.80356982047641 422.40000000000003 46.960348480312234 428.8 38.51482595398534 435.20000000000005 42.63111673785011 441.59999999999997 50.61532865838126 448 58.06896730991514 454.4 56.6426647043607 460.79999999999995 59.474756141929845 467.2 65.88357671161535 473.6 69.96895747225554 480 77.37889708291522 486.4 75.26394425541008 492.8 75.90627312085678 499.20000000000005 75.93959455437769 505.6 75.35346983009757 512 79.27361301282329 518.4000000000001 86.14812281255325 524.8 89.35239781875532 531.1999999999999 82.78943324080129 537.6 83.8281639749888 544 91.01214888674718 550.4 88.85001607031441 556.8 87.41755278130543 563.2 88.4217335282512 569.6 86.5355433719655 576 87.04728953232018 582.4 87.28054686973027 588.8000000000001 89.85210331908286 595.2 85.78040197798546 601.5999999999999 70.26768405133882 608 69.89946070209297 614.4 67.52249415728596 620.8 64.59899639298129 627.2 61.13931064775426 633.6 57.09813328150966 640 57.310456309038955 640 320 0 320"
      />
      
      <polygon
        fill="#2b7489"
        fillRule="evenodd"
        points="0 313.61354940740637 6.4 304.26911002051014 12.8 297.26804417859756 19.2 285.93881218415953 25.6 278.82798527678574 32 274.984207176607 38.4 267.0907362135742 44.800000000000004 257.07880537740334 51.2 246.22211600626775 57.599999999999994 230.99230475081222 64 221.54626376363012 70.4 206.62807792246377 76.8 198.27727202347745 83.2 192.17035436857043 89.60000000000001 182.12949743393412 96 170.61720857826967 102.4 156.95190696617064 108.80000000000001 154.80416174145824 115.19999999999999 149.88790028167955 121.6 142.5256695648418 128 138.28616287087044 134.4 123.78680473481887 140.8 127.17477728334933 147.20000000000002 110.7724397113551 153.6 93.05724000357517 160 88.01875837203778 166.4 78.1062824738687 172.8 68.78368183410623 179.20000000000002 65.97380672006773 185.6 62.1333942695112 192 59.18908170133341 198.4 46.68377119956 204.8 33.293931656429606 211.20000000000002 31.646455144065726 217.60000000000002 27.41454267955521 224 27.528833051454683 230.39999999999998 25.251008225608757 236.8 13.936054782239921 243.2 9.64311935085101 249.60000000000002 9.883805686003655 256 12.937913212269393 262.4 8.246865942761303 268.8 10.71025390352139 275.2 10.15900224269376 281.6 11.455498949931552 288 14.195518316895061 294.40000000000003 17.693034781747315 300.79999999999995 18.067827001789624 307.2 12.038731657324263 313.6 13.322722026420763 320 11.292713208608177 326.4 7.029470109214685 332.8 1.9717265648064313 339.20000000000005 4.695408856508266 345.6 0.06654324964023317 352 0 358.40000000000003 3.1342126533328383 364.79999999999995 11.121684480443378 371.2 13.499722972944312 377.59999999999997 18.047928868265217 384 21.314713222858984 390.4 21.568403202761942 396.8 27.06644584485707 403.2 30.68093604208775 409.6 36.74775495122515 416 42.80356982047641 422.40000000000003 46.960348480312234 428.8 38.51482595398534 435.20000000000005 42.63111673785011 441.59999999999997 50.61532865838126 448 58.06896730991514 454.4 56.6426647043607 460.79999999999995 59.474756141929845 467.2 65.88357671161535 473.6 69.96895747225554 480 77.37889708291522 486.4 75.26394425541008 492.8 75.90627312085678 499.20000000000005 75.93959455437769 505.6 75.35346983009757 512 79.27361301282329 518.4000000000001 86.14812281255325 524.8 89.35239781875532 531.1999999999999 84.9995390079606 537.6 87.49743512166197 544 94.56941766915907 550.4 94.67088260709943 556.8 95.57903908124877 563.2 99.33774711664614 569.6 99.23012867306932 576 100.29079564329197 582.4 100.92500629916671 588.8000000000001 103.11091531354447 595.2 98.64735417364446 601.5999999999999 83.41149333380886 608 83.1281942105586 614.4 80.36992970746934 620.8 77.05427313710533 627.2 73.22647966092944 633.6 68.81634583523422 640 68.99089325181973 640 320 0 320"
      />
      
      <polygon
        fill="#2770da"
        fillRule="evenodd"
        points="0 313.61354940740637 6.4 304.26911002051014 12.8 297.26804417859756 19.2 285.93881218415953 25.6 278.82798527678574 32 274.984207176607 38.4 267.0907362135742 44.800000000000004 257.07880537740334 51.2 246.22211600626775 57.599999999999994 230.99230475081222 64 221.54626376363012 70.4 206.62807792246377 76.8 198.27727202347745 83.2 192.17035436857043 89.60000000000001 182.12949743393412 96 170.61720857826967 102.4 156.95190696617064 108.80000000000001 154.80416174145824 115.19999999999999 149.88790028167955 121.6 142.5256695648418 128 138.28616287087044 134.4 123.78680473481887 140.8 127.17477728334933 147.20000000000002 110.7724397113551 153.6 93.05724000357517 160 88.01875837203778 166.4 78.1062824738687 172.8 68.78368183410623 179.20000000000002 65.97380672006773 185.6 62.1333942695112 192 59.18908170133341 198.4 46.68377119956 204.8 33.293931656429606 211.20000000000002 31.646455144065726 217.60000000000002 27.41454267955521 224 27.528833051454683 230.39999999999998 25.251008225608757 236.8 14.574263947179247 243.2 11.080130039422556 249.60000000000002 11.276952421026635 256 14.289886237040776 262.4 9.557570725777282 268.8 11.980950077070531 275.2 11.394612534837961 281.6 12.653392918825205 288 15.3580092100878 294.40000000000003 18.820041322696227 300.79999999999995 19.16152547011552 307.2 13.09904560581083 313.6 14.350670545780133 320 12.290281152165846 326.4 7.996587914114002 332.8 2.9102616392545997 339.20000000000005 5.605295747714081 345.6 0.9486563740140923 352 0.8577564659020709 358.40000000000003 3.965786564216387 364.79999999999995 11.928681741605487 371.2 14.282087070985995 377.59999999999997 18.80717066322154 384 22.05077954075915 390.4 22.28200156053623 396.8 27.758954213851553 403.2 31.352305974906756 409.6 37.39928288579273 416 43.43521026864397 422.40000000000003 47.57270845763628 428.8 40.23036796450208 435.20000000000005 44.294292610813386 441.59999999999997 52.22935040988864 448 59.63372191316847 454.4 58.161173673927124 460.79999999999995 60.94691354087399 467.2 67.310797327194 473.6 71.3539974115636 480 78.72165955391281 486.4 76.56702209284472 492.8 77.16957518402859 499.20000000000005 77.16433495660101 505.6 76.54439323085165 512 80.4281841182761 518.4000000000001 87.2685712304239 524.8 90.43864525229824 531.1999999999999 86.05368302904452 537.6 88.51940195461322 544 95.56018941410113 550.4 95.6323727049718 556.8 96.5111802297308 563.2 100.24233942162437 569.6 100.10710873678516 576 101.14100638877986 582.4 101.75174143007371 588.8000000000001 103.9124147457457 595.2 99.4251656961126 601.5999999999999 84.17665981884167 608 84.13442904899136 614.4 81.54079208458771 620.8 78.21142310308329 627.2 74.34943080036396 633.6 69.92168632063914 640 70.0926698481544 640 320 0 320"
      />
      
      <polygon
        fill="#509e5b"
        fillRule="evenodd"
        points="0 313.61354940740637 6.4 304.90983982689846 12.8 298.33447493189186 19.2 288.076812402746 25.6 281.2713300618691 32 277.35297050973014 38.4 269.9999331742992 44.800000000000004 260.07172344523445 51.2 250.17316501553293 57.599999999999994 235.1815778763056 64 226.7874838747564 70.4 213.3278595417474 76.8 205.8136430664326 83.2 200.42204735604406 89.60000000000001 190.45084678201835 96 178.68455383059393 102.4 164.7808273255727 108.80000000000001 162.39410851420934 115.19999999999999 158.35636366609032 121.6 150.82947263279547 128 146.47027302571962 134.4 132.58686572836638 140.8 135.70621878863162 147.20000000000002 119.05174206304531 153.6 102.4344055528448 160 97.17046422963881 166.4 87.08397997955183 172.8 77.51839895314728 179.20000000000002 74.5963334393561 185.6 71.29265298876504 192 68.12741762459274 198.4 55.436637339820095 204.8 42.60279768042352 211.20000000000002 40.81634701347434 217.60000000000002 36.30453087618696 224 36.65721428800191 230.39999999999998 34.26561154964878 236.8 23.330542469224383 243.2 19.768558574593328 249.60000000000002 20.331796778730904 256 23.771702682122736 262.4 19.357833598283776 268.8 21.657277524231574 275.2 22.197647104684734 281.6 24.03331359441887 288 26.401601796791 294.40000000000003 29.526537135530532 300.79999999999995 29.7946694598009 307.2 23.469438869592693 313.6 24.701168421561192 320 22.40423510644763 326.4 17.8018173896304 332.8 12.431353458138915 339.20000000000005 14.835762171757665 345.6 10.202226092090598 352 9.855817804288108 358.40000000000003 12.717339127579862 364.79999999999995 20.455466542807756 371.2 22.802213566266232 377.59999999999997 27.11131938767403 384 30.808747299677066 390.4 30.77263628165406 396.8 35.998656085567575 403.2 39.34049445048544 409.6 45.23223470557821 416 51.02906735760138 422.40000000000003 55.06955813937583 428.8 47.53776007230374 435.20000000000005 51.37863352526148 441.59999999999997 59.104314318515435 448 66.29883410342222 454.4 64.91772351629368 460.79999999999995 67.49722441233999 467.2 73.6611622516204 473.6 78.63267506131851 480 85.77815734417553 486.4 83.41496951418657 492.8 83.8469363966428 499.20000000000005 83.63787062870813 505.6 82.83918647498001 512 87.04901960166501 518.4000000000001 93.69373163846535 524.8 96.66768053283263 531.1999999999999 92.09862385720882 537.6 94.37982334964673 544 101.24172493987399 550.4 101.14599459203293 556.8 101.8565005906596 563.2 105.4296813021424 569.6 105.1361107593936 576 106.01650055184729 582.4 106.4926151280655 588.8000000000001 108.50857879566058 595.2 104.55189993596932 601.5999999999999 89.14690403846637 608 88.95777984004908 614.4 86.21691334648173 620.8 82.74480826754612 627.2 78.74883482042162 633.6 74.18680186615248 640 74.34403208737675 640 320 0 320"
      />
      
      <polygon
        fill="#89e051"
        fillRule="evenodd"
        points="0 313.61354940740637 6.4 304.90983982689846 12.8 298.33447493189186 19.2 288.076812402746 25.6 281.2713300618691 32 277.35297050973014 38.4 269.9999331742992 44.800000000000004 260.07172344523445 51.2 250.17316501553293 57.599999999999994 235.1815778763056 64 226.7874838747564 70.4 213.3278595417474 76.8 205.8136430664326 83.2 200.42204735604406 89.60000000000001 190.45084678201835 96 178.68455383059393 102.4 164.7808273255727 108.80000000000001 162.39410851420934 115.19999999999999 158.35636366609032 121.6 150.82947263279547 128 146.47027302571962 134.4 132.58686572836638 140.8 135.70621878863162 147.20000000000002 119.05174206304531 153.6 102.4344055528448 160 97.17046422963881 166.4 87.08397997955183 172.8 77.51839895314728 179.20000000000002 74.5963334393561 185.6 71.29265298876504 192 68.12741762459274 198.4 55.436637339820095 204.8 42.60279768042352 211.20000000000002 40.81634701347434 217.60000000000002 36.30453087618696 224 36.65721428800191 230.39999999999998 34.26561154964878 236.8 23.330542469224383 243.2 19.768558574593328 249.60000000000002 20.331796778730904 256 23.771702682122736 262.4 19.357833598283776 268.8 21.657277524231574 275.2 22.197647104684734 281.6 24.03331359441887 288 26.401601796791 294.40000000000003 29.526537135530532 300.79999999999995 29.7946694598009 307.2 23.469438869592693 313.6 24.701168421561192 320 22.40423510644763 326.4 17.8018173896304 332.8 12.431353458138915 339.20000000000005 14.835762171757665 345.6 10.202226092090598 352 9.855817804288108 358.40000000000003 12.717339127579862 364.79999999999995 20.455466542807756 371.2 22.802213566266232 377.59999999999997 27.11131938767403 384 30.808747299677066 390.4 30.77263628165406 396.8 35.998656085567575 403.2 39.34049445048544 409.6 45.23223470557821 416 51.02906735760138 422.40000000000003 55.06955813937583 428.8 47.53776007230374 435.20000000000005 51.37863352526148 441.59999999999997 59.104314318515435 448 66.29883410342222 454.4 64.91772351629368 460.79999999999995 67.49722441233999 467.2 73.6611622516204 473.6 78.63267506131851 480 85.77815734417553 486.4 83.41496951418657 492.8 83.8469363966428 499.20000000000005 83.63787062870813 505.6 82.83918647498001 512 87.04901960166501 518.4000000000001 93.69373163846535 524.8 96.66768053283263 531.1999999999999 92.09862385720882 537.6 94.37982334964673 544 101.24172493987399 550.4 101.14599459203293 556.8 101.8565005906596 563.2 105.4296813021424 569.6 105.1361107593936 576 106.01650055184729 582.4 106.4926151280655 588.8000000000001 108.50857879566058 595.2 104.55189993596932 601.5999999999999 89.14690403846637 608 88.95777984004908 614.4 86.21691334648173 620.8 82.74480826754612 627.2 78.74883482042162 633.6 75.29811443068769 640 75.45176159966189 640 320 0 320"
      />
      
      <polygon
        fill="#0141ae"
        fillRule="evenodd"
        points="0 313.6957875546287 6.4 304.9895677075043 12.8 298.41184649146277 19.2 288.15458482213137 25.6 281.34680396006905 32 277.42614060633815 38.4 270.0708697997266 44.800000000000004 260.1686541956228 51.2 250.62552035296358 57.599999999999994 236.59142432074162 64 228.16532226025032 70.4 215.56289706827735 76.8 209.34785612881842 83.2 203.84838034699703 89.60000000000001 193.8095254252092 96 182.16681453625878 102.4 169.20013855006906 108.80000000000001 166.68962652162259 115.19999999999999 162.52076380614804 121.6 154.8748396279945 128 151.50323304129276 134.4 138.33041340689388 140.8 141.27444803190008 147.20000000000002 124.45540511035401 153.6 107.98203864196452 160 102.61879053546167 166.4 92.5250718510375 172.8 83.01575833900046 179.20000000000002 79.93122194058233 185.6 76.4646972059241 192 73.61541489801115 198.4 61.01114912628282 204.8 50.21098492334852 211.20000000000002 49.306785478970085 217.60000000000002 44.535804442323354 224 46.72637613321979 230.39999999999998 45.53571292220977 236.8 38.061675443232446 243.2 34.37982354671152 249.60000000000002 35.18779148407032 256 40.45918259568191 262.4 36.76691255371907 268.8 38.5349486583998 275.2 38.690039682246265 281.6 40.02228275839627 288 41.960108400363424 294.40000000000003 45.107448733027184 300.79999999999995 44.91786876339711 307.2 38.14218939233825 313.6 38.926038954321086 320 36.368644630729364 326.4 33.69975785300073 332.8 28.41720205497353 339.20000000000005 30.372655996508684 345.6 26.29381331354142 352 25.53669132950381 358.40000000000003 28.08388409987913 364.79999999999995 35.3678605928618 371.2 37.58865466262961 377.59999999999997 41.46075058947582 384 45.3744357567528 390.4 45.021762365277255 396.8 49.82665973237084 403.2 53.20068299179394 409.6 58.857782696666845 416 64.62528797714288 422.40000000000003 68.63071887367602 428.8 63.21842398418488 435.20000000000005 66.93870400871245 441.59999999999997 74.20452294387024 448 80.93811533623006 454.4 80.26627051227678 460.79999999999995 82.74317081862748 467.2 88.44173314709909 473.6 93.40755659878951 480 100.1020434620998 486.4 98.34487655284161 492.8 99.94030327640488 499.20000000000005 99.86316033213112 505.6 98.67424088294337 512 102.40071388021585 518.4000000000001 108.59171682679968 524.8 111.11091061931029 531.1999999999999 106.1149918005579 537.6 107.96834889927317 544 114.41546371846982 550.4 113.93039982351439 556.8 114.39436498860852 563.2 117.59699761782076 569.6 116.93203088080935 576 117.45235161369536 582.4 117.64294611278956 588.8000000000001 119.31855372466626 595.2 115.05068177818842 601.5999999999999 99.80060554768588 608 99.38363473712829 614.4 97.92045245302745 620.8 95.72560413675845 627.2 92.85889375923023 633.6 90.30672716641243 640 90.41198345307251 640 320 0 320"
      />
      
      <polygon
        fill="#26c0b0"
        fillRule="evenodd"
        points="0 313.6957875546287 6.4 305.07506884282753 12.8 298.522419590762 19.2 288.39202499476335 25.6 281.7296532008795 32 277.8556692571362 38.4 270.545398528897 44.800000000000004 260.8000605858419 51.2 251.72751930383552 57.599999999999994 237.79090919319376 64 230.20547939257477 70.4 218.21678950855488 76.8 212.4284935753611 83.2 207.47606071453384 89.60000000000001 198.30979887542264 96 186.52971983993578 102.4 173.80644747437108 108.80000000000001 171.1553312394081 115.19999999999999 166.87825677022423 121.6 159.35254727797567 128 156.04887925005733 134.4 143.1235456614777 140.8 145.92409554064304 147.20000000000002 128.96763587103734 153.6 112.62422227197024 160 107.34708219304522 166.4 97.39180674551028 172.8 88.07438632940608 179.20000000000002 84.9035107122323 185.6 81.47880024151573 192 78.54011106479624 198.4 65.83885658664755 204.8 55.257775308938676 211.20000000000002 54.27459715639736 217.60000000000002 49.44577486134756 224 52.03134233093459 230.39999999999998 50.75671798500014 236.8 43.28749544762002 243.2 39.62424786481114 249.60000000000002 40.27213163251139 256 46.01544281479414 262.4 42.22608840463914 268.8 45.29494273555815 275.2 46.226242212520674 281.6 47.34220337300445 288 49.12221277939193 294.40000000000003 52.196351820051405 300.79999999999995 51.847905493135954 307.2 44.89911941575281 313.6 45.54049458871776 320 42.90203333549334 326.4 40.529809022144605 332.8 35.111610791283965 339.20000000000005 37.186535085883065 345.6 32.91345132938079 352 31.97355031939918 358.40000000000003 34.32989538897209 364.79999999999995 41.451217174653436 371.2 43.65059317994735 377.59999999999997 47.72230470732791 384 51.45043121144175 390.4 51.049133177683416 396.8 55.675895584461955 403.2 59.0776932272268 409.6 64.6494712627815 416 70.24018834861721 422.40000000000003 74.11920298433921 428.8 68.67691550921859 435.20000000000005 72.31795295938568 441.59999999999997 79.4356898350674 448 86.08170125516745 454.4 85.88887900312375 460.79999999999995 88.95208732910748 467.2 94.47228638313206 473.6 100.00811918467218 480 106.58862725602967 486.4 104.6397566221012 492.8 106.09850569011252 499.20000000000005 105.83338993302073 505.6 104.49621477409443 512 108.04497419550535 518.4000000000001 114.08025940314292 524.8 116.43192004624473 531.1999999999999 111.27874334429507 537.6 112.97447840801999 544 119.26878243476477 550.4 118.64028229274001 556.8 118.96048014499814 563.2 122.02816596994325 569.6 121.47111054086164 576 121.85287901737408 582.4 121.92196549573862 588.8000000000001 123.46978377671098 595.2 119.66079929457848 601.5999999999999 104.26999956291166 608 103.72094049856145 614.4 102.12536376079692 620.8 99.8021638566791 627.2 96.81497348852537 633.6 94.1420490646621 640 94.2349405278695 640 320 0 320"
      />
      
      <polygon
        fill="#dea584"
        fillRule="evenodd"
        points="0 313.6957875546287 6.4 305.07506884282753 12.8 298.522419590762 19.2 288.39202499476335 25.6 281.7296532008795 32 277.8556692571362 38.4 270.545398528897 44.800000000000004 260.8000605858419 51.2 251.72751930383552 57.599999999999994 237.79090919319376 64 230.20547939257477 70.4 218.605184090682 76.8 212.80503264306276 83.2 207.8411061590671 89.60000000000001 198.66405558327602 96 187.99616209021193 102.4 176.33190139891693 108.80000000000001 173.60369718861938 115.19999999999999 169.25188755102997 121.6 162.75989063658682 128 159.35221514359202 134.4 148.55724465560564 140.8 151.1919344902284 147.20000000000002 136.32703366365826 153.6 123.07432347226563 160 117.47819916386055 166.4 107.22350545310582 172.8 98.7221600968256 179.20000000000002 95.2365926997071 185.6 91.49647118760362 192 88.25199725638467 198.4 76.38140754265649 204.8 66.58263200006081 211.20000000000002 65.26475170049497 217.60000000000002 60.10045816243564 224 62.371133486390534 230.39999999999998 60.78089310955812 236.8 53.00568956205643 243.2 49.055225472636266 249.60000000000002 49.41523409574751 256 54.88832543305614 262.4 51.9310897229513 268.8 54.70370605649288 275.2 55.37521333536688 281.6 56.21190736945016 288 57.72977886068276 294.40000000000003 60.541174779059645 300.79999999999995 61.06413321216672 307.2 54.08984623410896 313.6 54.45067861912986 320 51.548881366691205 326.4 48.912718929549385 332.8 43.2467663683517 339.20000000000005 45.07337037661023 345.6 41.66881371785183 352 40.48716133352957 358.40000000000003 42.58363416149058 364.79999999999995 49.46102151160255 371.2 51.47777189914291 377.59999999999997 55.318156102761236 384 58.814423543403734 390.4 58.188342951248785 396.8 62.6041105277194 403.2 65.79442835246098 409.6 71.1676948537951 416 76.55944778445973 422.40000000000003 80.24557242789007 428.8 74.62817202077957 435.20000000000005 78.08754971855842 441.59999999999997 85.03477005112077 448 91.50987118383767 454.4 91.15662301019879 460.79999999999995 94.05903612521246 467.2 99.42334851660345 473.6 104.81285682537734 480 111.2467016318293 486.4 109.16016476887239 492.8 110.48092969429786 499.20000000000005 110.08204405016158 505.6 108.62755693900777 512 112.05020897102114 518.4000000000001 117.96712224056861 524.8 120.20013896200356 531.1999999999999 116.05395910460885 537.6 117.60393583707415 544 123.75692718478189 550.4 123.35395824956336 556.8 123.53027278239006 563.2 126.46290144781244 569.6 125.77047803551349 576 126.02101068579387 582.4 125.99996651283772 588.8000000000001 127.42330642882752 595.2 123.4974771033983 601.5999999999999 107.98956527143321 608 107.33057695980133 614.4 105.6248172809693 620.8 103.19479944906547 627.2 100.10734095332157 633.6 97.33391926572298 640 97.41651963896715 640 320 0 320"
      />
      
      <polygon
        fill="#701516"
        fillRule="evenodd"
        points="0 313.6957875546287 6.4 305.07506884282753 12.8 298.522419590762 19.2 288.39202499476335 25.6 281.7296532008795 32 277.8556692571362 38.4 270.545398528897 44.800000000000004 260.8000605858419 51.2 251.72751930383552 57.599999999999994 237.79090919319376 64 230.20547939257477 70.4 218.605184090682 76.8 212.80503264306276 83.2 207.8411061590671 89.60000000000001 198.66405558327602 96 187.99616209021193 102.4 176.33190139891693 108.80000000000001 173.60369718861938 115.19999999999999 169.25188755102997 121.6 162.75989063658682 128 159.35221514359202 134.4 148.55724465560564 140.8 151.1919344902284 147.20000000000002 136.32703366365826 153.6 123.07432347226563 160 117.47819916386055 166.4 107.22350545310582 172.8 98.7221600968256 179.20000000000002 95.2365926997071 185.6 91.49647118760362 192 88.25199725638467 198.4 76.38140754265649 204.8 66.58263200006081 211.20000000000002 65.26475170049497 217.60000000000002 60.10045816243564 224 62.371133486390534 230.39999999999998 60.78089310955812 236.8 53.00568956205643 243.2 49.055225472636266 249.60000000000002 49.41523409574751 256 54.88832543305614 262.4 51.9310897229513 268.8 54.70370605649288 275.2 55.37521333536688 281.6 56.21190736945016 288 57.72977886068276 294.40000000000003 60.541174779059645 300.79999999999995 61.06413321216672 307.2 54.08984623410896 313.6 54.45067861912986 320 51.548881366691205 326.4 48.912718929549385 332.8 43.2467663683517 339.20000000000005 45.07337037661023 345.6 41.66881371785183 352 40.48716133352957 358.40000000000003 42.58363416149058 364.79999999999995 49.46102151160255 371.2 51.47777189914291 377.59999999999997 55.318156102761236 384 58.814423543403734 390.4 58.188342951248785 396.8 62.6041105277194 403.2 65.79442835246098 409.6 71.1676948537951 416 76.55944778445973 422.40000000000003 80.24557242789007 428.8 74.62817202077957 435.20000000000005 78.08754971855842 441.59999999999997 85.03477005112077 448 91.50987118383767 454.4 91.15662301019879 460.79999999999995 94.05903612521246 467.2 99.42334851660345 473.6 104.81285682537734 480 111.2467016318293 486.4 109.16016476887239 492.8 110.48092969429786 499.20000000000005 110.08204405016158 505.6 108.62755693900777 512 112.05020897102114 518.4000000000001 117.96712224056861 524.8 120.20013896200356 531.1999999999999 116.05395910460885 537.6 117.60393583707415 544 123.75692718478189 550.4 123.35395824956336 556.8 123.53027278239006 563.2 126.46290144781244 569.6 125.77047803551349 576 126.02101068579387 582.4 125.99996651283772 588.8000000000001 127.42330642882752 595.2 123.4974771033983 601.5999999999999 108.00912150916866 608 107.34955522267478 614.4 105.64321624451208 620.8 103.21263679375136 627.2 100.12465112458105 633.6 97.35070105314179 640 97.43324732148525 640 320 0 320"
      />
      
      <polygon
        fill="#3572A5"
        fillRule="evenodd"
        points="0 313.6957875546287 6.4 305.07506884282753 12.8 298.522419590762 19.2 288.39202499476335 25.6 281.7296532008795 32 277.8556692571362 38.4 270.545398528897 44.800000000000004 260.8000605858419 51.2 251.72751930383552 57.599999999999994 237.79090919319376 64 230.20547939257477 70.4 218.605184090682 76.8 212.80503264306276 83.2 207.8411061590671 89.60000000000001 198.66405558327602 96 187.99616209021193 102.4 176.33190139891693 108.80000000000001 173.60369718861938 115.19999999999999 169.25188755102997 121.6 163.42151868692955 128 159.9936473601544 134.4 149.21613886513273 140.8 151.83071633112797 147.20000000000002 137.94817959699884 153.6 125.43989328458548 160 119.77156129248272 166.4 109.44908839072983 172.8 100.87980858573158 179.20000000000002 97.33047301042313 185.6 93.52643679629878 192 90.21999951935157 198.4 78.29507011742422 204.8 68.47375179096235 211.20000000000002 67.09998045901813 217.60000000000002 61.87966765454041 224 64.09775952123468 230.39999999999998 62.4548147484677 236.8 54.62851589562922 243.2 50.630089911969435 249.60000000000002 50.94202649108871 256 56.36999455081502 262.4 53.403365389026874 268.8 56.131041137392515 275.2 56.763137410306456 281.6 57.557465917928425 288 59.03557006053222 294.40000000000003 61.80710738682876 300.79999999999995 62.29265199749756 307.2 55.280865193883244 313.6 55.60534240655704 320 52.669419692242116 326.4 49.999053496478496 332.8 44.30099474852756 339.20000000000005 46.09541910261419 345.6 42.65966494118322 352 41.450653547002105 358.40000000000003 43.51771639110177 364.79999999999995 50.36749735679456 371.2 52.37890969416594 377.59999999999997 56.19266118785447 384 59.66223478134464 390.4 59.01027536800302 396.8 63.40175118393432 403.2 66.56772143344864 409.6 71.91813371071214 416 77.28697991122084 422.40000000000003 80.95089711101963 428.8 75.3133359495369 435.20000000000005 78.75179947685791 441.59999999999997 85.67938818486556 448 92.13481268781169 454.4 91.76309466124985 460.79999999999995 94.64699567186838 467.2 99.9933608462506 473.6 105.36602292178048 480 111.78298255211885 486.4 109.68059621869966 492.8 110.98547528930902 499.20000000000005 110.57118858284383 505.6 109.10319544748285 512 112.51132892013135 518.4000000000001 118.41461399377812 524.8 120.63397132391611 531.1999999999999 116.4749697476503 537.6 118.01209535372675 544 124.1526279218871 550.4 123.73796422717547 556.8 123.9025572645337 563.2 126.824183202722 569.6 126.12073181711227 576 126.36057322146371 582.4 126.33015318790402 588.8000000000001 127.74341435018354 595.2 123.80812439405224 601.5999999999999 108.32970270455365 608 107.66066183368571 614.4 105.94482645697698 620.8 103.50504057278303 627.2 100.40841304931095 633.6 97.62580131305481 640 97.70746062928839 640 320 0 320"
      />
      
      <polygon
        fill="#0298c3"
        fillRule="evenodd"
        points="0 313.6957875546287 6.4 305.07506884282753 12.8 298.522419590762 19.2 288.39202499476335 25.6 281.7296532008795 32 277.8556692571362 38.4 270.545398528897 44.800000000000004 260.8000605858419 51.2 251.72751930383552 57.599999999999994 237.79090919319376 64 230.20547939257477 70.4 218.605184090682 76.8 212.80503264306276 83.2 207.8411061590671 89.60000000000001 198.66405558327602 96 187.99616209021193 102.4 176.33190139891693 108.80000000000001 173.60369718861938 115.19999999999999 169.25188755102997 121.6 163.42151868692955 128 159.9936473601544 134.4 149.21613886513273 140.8 151.83071633112797 147.20000000000002 137.94817959699884 153.6 126.07800480464641 160 120.39019482223296 166.4 110.04943855149875 172.8 101.46183340347636 179.20000000000002 97.89529641334855 185.6 94.07401926612621 192 90.75086738077886 198.4 78.81127984166625 204.8 68.97420444928707 211.20000000000002 67.69011675795241 217.60000000000002 62.45179040001062 224 64.65297345771535 230.39999999999998 62.993081107767125 236.8 55.15035199112691 243.2 51.13650347004659 249.60000000000002 51.43298202133076 256 56.84644017337985 262.4 53.86526779183458 268.8 56.57884420750452 275.2 57.19857590356975 281.6 57.97961292212244 288 59.445240704374214 294.40000000000003 62.204273074538776 300.79999999999995 62.67807966727628 307.2 55.65452791452731 313.6 55.96759930530442 320 53.0209702713957 326.4 50.33987318812245 332.8 44.631741676881575 339.20000000000005 46.41607018966107 345.6 42.9705283287999 352 41.75293348434616 358.40000000000003 43.81076941661178 364.79999999999995 50.65188934427272 371.2 52.65462079199631 377.59999999999997 56.46022377280633 384 59.92163019372106 390.4 59.26175286271922 396.8 63.645796406316094 403.2 66.80431731644947 409.6 72.1477371292001 416 77.50957482566582 422.40000000000003 81.1666974297745 428.8 75.5229679438145 435.20000000000005 78.95503257199024 441.59999999999997 85.87661484072098 448 92.32601910484573 454.4 91.94865007746131 460.79999999999995 94.82688710972587 467.2 100.16776121620484 473.6 105.53526897176351 480 111.94706245541755 486.4 109.83982683052966 492.8 111.13984549194339 499.20000000000005 110.7208467085423 505.6 109.24872127234366 512 112.6524126479762 518.4000000000001 118.55152807056615 524.8 120.76670618347009 531.1999999999999 116.60378169364762 537.6 118.13697538512417 544 124.27369607314421 550.4 123.85545425826095 556.8 124.01646099641744 563.2 126.93472056500269 569.6 126.22789508286704 576 126.46446538893102 582.4 126.43117672804402 588.8000000000001 127.84135420793501 595.2 126.40237608655002 601.5999999999999 115.17757614471861 608 114.40678855023862 614.4 112.69055244215494 620.8 110.04485577578134 627.2 107.1946755818544 633.6 104.20491757776409 640 104.26536659332899 640 320 0 320"
      />
      
      <polygon
        fill="#fd2fdb"
        fillRule="evenodd"
        points="0 313.6957875546287 6.4 305.07506884282753 12.8 298.522419590762 19.2 288.39202499476335 25.6 281.7296532008795 32 277.8556692571362 38.4 270.545398528897 44.800000000000004 260.8000605858419 51.2 251.72751930383552 57.599999999999994 237.79090919319376 64 230.20547939257477 70.4 218.605184090682 76.8 212.80503264306276 83.2 207.8411061590671 89.60000000000001 198.66405558327602 96 187.99616209021193 102.4 176.33190139891693 108.80000000000001 173.60369718861938 115.19999999999999 169.25188755102997 121.6 163.42151868692955 128 159.9936473601544 134.4 149.21613886513273 140.8 151.83071633112797 147.20000000000002 137.94817959699884 153.6 126.07800480464641 160 120.39019482223296 166.4 110.04943855149875 172.8 101.46183340347636 179.20000000000002 97.89529641334855 185.6 94.07401926612621 192 90.75086738077886 198.4 78.81127984166625 204.8 68.97420444928707 211.20000000000002 67.69011675795241 217.60000000000002 62.45179040001062 224 64.65297345771535 230.39999999999998 62.993081107767125 236.8 55.15035199112691 243.2 51.13650347004659 249.60000000000002 51.43298202133076 256 56.84644017337985 262.4 53.86526779183458 268.8 56.57884420750452 275.2 58.32817969758639 281.6 59.074736247365195 288 60.50799818948326 294.40000000000003 63.23459053283386 300.79999999999995 64.55870769427221 307.2 57.477750863809035 313.6 57.73516929774519 320 54.73630061354521 326.4 52.002844277078 332.8 46.24556450122435 339.20000000000005 47.98063192809627 345.6 44.487332751499935 352 43.22785644353547 358.40000000000003 45.240671233343676 364.79999999999995 52.03953105772041 371.2 53.99990561012004 377.59999999999997 57.765749462431984 384 61.1873054086455 390.4 60.48879397679286 396.8 64.83657297498439 403.2 67.95874621363996 409.6 73.26804750024965 416 78.59568837382886 422.40000000000003 82.2196579575311 428.8 76.54583118202595 435.20000000000005 79.94667339025773 441.59999999999997 86.83894832401018 448 93.25897784808421 454.4 92.85403572781024 460.79999999999995 95.70463647492997 467.2 101.01871768168084 473.6 106.36107584440353 480 112.74766209155467 486.4 110.61676523125794 492.8 111.89306827082271 499.20000000000005 111.45107781248939 505.6 109.95878948468444 512 113.34080644078998 518.4000000000001 119.2195767623 524.8 121.41436306323098 531.1999999999999 117.23229741323115 537.6 118.74630603875698 544 124.8644272423918 550.4 124.42872665067 556.8 124.57223462105176 563.2 127.47406855993401 569.6 126.75077979989649 576 126.97138934520271 582.4 126.92410370252327 588.8000000000001 128.31923487010383 595.2 126.8661332591139 601.5999999999999 115.62717735816096 608 114.84310205587181 614.4 114.22083150871293 620.8 111.52842405200255 627.2 109.75412272692279 633.6 106.68623875048522 640 106.73868793478681 640 320 0 320"
      />
      
      <polygon
        fill="#4F5D95"
        fillRule="evenodd"
        points="0 313.6957875546287 6.4 305.07506884282753 12.8 298.522419590762 19.2 288.39202499476335 25.6 281.7296532008795 32 277.8556692571362 38.4 270.545398528897 44.800000000000004 260.8000605858419 51.2 251.72751930383552 57.599999999999994 237.79090919319376 64 230.20547939257477 70.4 218.605184090682 76.8 212.80503264306276 83.2 207.8411061590671 89.60000000000001 198.66405558327602 96 187.99616209021193 102.4 176.33190139891693 108.80000000000001 173.60369718861938 115.19999999999999 169.25188755102997 121.6 163.42151868692955 128 159.9936473601544 134.4 149.21613886513273 140.8 151.83071633112797 147.20000000000002 137.94817959699884 153.6 126.07800480464641 160 120.39019482223296 166.4 110.04943855149875 172.8 101.46183340347636 179.20000000000002 97.89529641334855 185.6 94.07401926612621 192 90.75086738077886 198.4 78.81127984166625 204.8 68.97420444928707 211.20000000000002 67.69011675795241 217.60000000000002 62.45179040001062 224 64.67260053448271 230.39999999999998 63.0121090787988 236.8 55.16879914415881 243.2 51.15440542701538 249.60000000000002 51.45033753277653 256 56.86328275174827 262.4 53.881596259591845 268.8 56.59467425790791 275.2 58.34357265486631 281.6 59.089659342998004 288 60.522480241192284 294.40000000000003 63.24863052851555 300.79999999999995 64.57233274597291 307.2 57.49096001799353 313.6 57.74797525040543 320 54.74872809288962 326.4 52.01489241485524 332.8 46.25725656245953 339.20000000000005 47.991967095913935 345.6 44.498321920142075 352 43.23854218300437 358.40000000000003 45.25103079699613 364.79999999999995 52.04958444924472 371.2 54.009652128236326 377.59999999999997 57.7752079271296 384 61.196475159745205 390.4 60.497683826274795 396.8 64.84520008956417 403.2 67.96710999067926 409.6 73.2761640902504 416 78.60355720908825 422.40000000000003 82.22728660159697 428.8 76.55324177273798 435.20000000000005 79.95385777632873 441.59999999999997 86.84592037896581 448 93.2657370854983 454.4 92.86059519940096 460.79999999999995 95.71099572252768 467.2 101.02488281715836 473.6 106.36705877256517 480 112.75346239430405 486.4 110.62239410924252 492.8 111.8985253305037 499.20000000000005 111.45636829831022 505.6 109.96393389179445 512 113.34579381750888 518.4000000000001 119.22441673984682 524.8 121.41905530345008 531.1999999999999 117.2368509766589 537.6 118.75072060717156 544 124.86870705861367 550.4 124.43287997921868 556.8 124.57626117196213 563.2 127.47797610801126 569.6 126.75456807223227 576 126.97506198290395 582.4 126.92767493268403 588.8000000000001 128.32269709054168 595.2 126.86949315536393 601.5999999999999 115.63043469564124 608 114.84626312442089 614.4 114.22389608731206 620.8 111.53139508612995 627.2 109.75700595371615 633.6 106.68903396855126 640 106.74147414071246 640 320 0 320"
      />
      
      <polygon
        fill="#755462"
        fillRule="evenodd"
        points="0 318.021223447233 6.4 313.52736179149497 12.8 310.89612242868816 19.2 304.606349043742 25.6 301.5123504014211 32 299.63474543406846 38.4 295.6873199278031 44.800000000000004 289.60723143244303 51.2 284.8540277335276 57.599999999999994 274.4470873162446 64 270.1967680163886 70.4 262.952378576824 76.8 259.7806139422325 83.2 257.2939831301693 89.60000000000001 251.48858872901883 96 243.11575985641053 102.4 233.69076142785366 108.80000000000001 232.4422475443359 115.19999999999999 230.48709409584615 121.6 226.74321739167922 128 225.02610632260152 134.4 216.76213502855154 140.8 218.75146263291725 147.20000000000002 208.35856766537276 153.6 198.35250789032324 160 194.347502528382 166.4 186.11868280485695 172.8 178.69897328600717 179.20000000000002 176.47505080452314 185.6 173.87225391618622 192 171.3869121439294 198.4 162.65596120110166 204.8 154.1286177392621 211.20000000000002 153.54793794041422 217.60000000000002 149.77109534711775 224 151.99178217962833 230.39999999999998 150.24031956425273 236.8 143.4642343447875 243.2 140.6979893935034 249.60000000000002 142.92924442686055 256 147.05373038620365 262.4 144.44710893817475 268.8 147.14069906147284 275.2 149.53419339782295 281.6 150.7908693985357 288 152.3821466749933 294.40000000000003 155.0353813198565 300.79999999999995 154.49042176017997 307.2 148.88679221550476 313.6 148.96297484618688 320 145.90467632426734 326.4 141.78902227892453 332.8 137.45857991567595 339.20000000000005 139.37107132731254 345.6 135.06401646911823 352 134.18773357524316 358.40000000000003 137.09702818084654 364.79999999999995 142.45234675875446 371.2 144.3992170177982 377.59999999999997 146.97582337758968 384 149.82614395994474 390.4 149.06452719453176 396.8 151.71929247911976 403.2 154.19225388160157 409.6 158.3028437407071 416 162.42149745561937 422.40000000000003 164.48550841074132 428.8 158.2233060328266 435.20000000000005 161.34772769764942 441.59999999999997 165.8745514509817 448 170.07072414323505 454.4 168.56364290221381 460.79999999999995 169.2137671878018 467.2 173.47276284595847 473.6 177.15375312481254 480 181.4936791556796 486.4 177.55144377062373 492.8 179.11018822526617 499.20000000000005 179.843400976146 505.6 178.85207498888693 512 181.1912904454552 518.4000000000001 185.21839775592466 524.8 189.19428008849448 531.1999999999999 186.26900568225548 537.6 186.9421614384838 544 190.98330719103026 550.4 193.06114472463383 556.8 195.38483134721554 563.2 199.02880456879308 569.6 200.4561680605197 576 202.54862618586122 582.4 204.681474694368 588.8000000000001 208.147352268406 595.2 207.1113641529007 601.5999999999999 197.53792407524736 608 198.09251382637333 614.4 198.37920077572022 620.8 197.54827168888474 627.2 197.6442602859026 633.6 195.98822933724503 640 195.8046490047337 640 320 0 320"
      />
      
      <polygon
        fill="#2415b9"
        fillRule="evenodd"
        points="0 318.021223447233 6.4 313.52736179149497 12.8 310.89612242868816 19.2 304.606349043742 25.6 301.5123504014211 32 299.63474543406846 38.4 295.6873199278031 44.800000000000004 289.60723143244303 51.2 284.8540277335276 57.599999999999994 274.4470873162446 64 270.1967680163886 70.4 262.952378576824 76.8 259.7806139422325 83.2 257.2939831301693 89.60000000000001 251.48858872901883 96 243.11575985641053 102.4 233.69076142785366 108.80000000000001 232.4422475443359 115.19999999999999 230.48709409584615 121.6 226.74321739167922 128 225.02610632260152 134.4 216.76213502855154 140.8 218.75146263291725 147.20000000000002 208.35856766537276 153.6 198.35250789032324 160 194.347502528382 166.4 186.11868280485695 172.8 178.69897328600717 179.20000000000002 176.47505080452314 185.6 173.87225391618622 192 171.3869121439294 198.4 162.65596120110166 204.8 154.1286177392621 211.20000000000002 153.54793794041422 217.60000000000002 149.77109534711775 224 151.99178217962833 230.39999999999998 150.24031956425273 236.8 143.4642343447875 243.2 140.6979893935034 249.60000000000002 142.92924442686055 256 147.05373038620365 262.4 144.44710893817475 268.8 147.14069906147284 275.2 149.53419339782295 281.6 150.7908693985357 288 152.3821466749933 294.40000000000003 155.0353813198565 300.79999999999995 154.49042176017997 307.2 148.88679221550476 313.6 148.96297484618688 320 145.90467632426734 326.4 142.148653000019 332.8 137.81821063677046 339.20000000000005 139.730702048407 345.6 135.4236471902127 352 134.54736429633766 358.40000000000003 137.456658901941 364.79999999999995 142.81197747984893 371.2 144.7588477388927 377.59999999999997 147.33545409868415 384 150.18577468103922 390.4 149.42415791562624 396.8 152.0789232002142 403.2 154.55188460269608 409.6 158.66247446180154 416 162.78112817671388 422.40000000000003 164.84513913183582 428.8 158.58293675392105 435.20000000000005 161.7073584187439 441.59999999999997 166.2341821720762 448 170.43035486432953 454.4 168.92327362330832 460.79999999999995 169.57339790889628 467.2 173.83239356705295 473.6 177.51338384590701 480 181.85330987677406 486.4 177.9110744917182 492.8 179.46981894636065 499.20000000000005 180.20303169724048 505.6 179.2117057099814 512 181.55092116654967 518.4000000000001 185.57802847701913 524.8 189.55391080958896 531.1999999999999 186.62863640334996 537.6 187.3017921595783 544 191.34293791212474 550.4 193.4207754457283 556.8 195.74446206830999 563.2 199.38843528988758 569.6 200.81579878161418 576 202.90825690695573 582.4 205.0411054154625 588.8000000000001 208.5069829895005 595.2 207.4709948739952 601.5999999999999 197.89755479634184 608 198.4521445474678 614.4 198.73883149681473 620.8 197.90790240997922 627.2 198.00389100699707 633.6 196.3478600583395 640 195.8046490047337 640 320 0 320"
      />
      
      <polygon
        fill="#f1e05a"
        fillRule="evenodd"
        points="0 318.021223447233 6.4 313.52736179149497 12.8 310.89612242868816 19.2 304.606349043742 25.6 301.5123504014211 32 299.63474543406846 38.4 295.6873199278031 44.800000000000004 289.60723143244303 51.2 284.8540277335276 57.599999999999994 275.5585923345914 64 271.27434495874917 70.4 264.38153934876715 76.8 261.6232678421266 83.2 259.09164106175643 89.60000000000001 253.23311800317214 96 246.00810606281962 102.4 237.6110712581124 108.80000000000001 236.28993149174414 115.19999999999999 234.2173298423593 121.6 230.51363621993482 128 228.68143509997608 134.4 222.6032936773985 140.8 224.4143240766182 147.20000000000002 213.85406570536526 153.6 203.6802592630102 160 199.51262816972866 166.4 191.1311551720075 172.8 184.67462385763494 179.20000000000002 182.27409464089726 185.6 179.49428494284678 192 176.83733458309808 198.4 169.27897553290228 204.8 161.9143172675965 211.20000000000002 161.10353484171904 217.60000000000002 157.6519073370247 224 159.7498316540988 230.39999999999998 157.7615573464642 236.8 151.885664812487 243.2 148.87052971429685 249.60000000000002 150.85232432917593 256 154.74264650588364 262.4 153.0042845903422 268.8 155.4477114739816 275.2 157.61183744648298 281.6 159.39919892447162 288 161.38428417072384 294.40000000000003 163.76273217421314 300.79999999999995 164.08004480927602 307.2 158.18369846298953 313.6 157.97609751917236 320 154.6514209331446 326.4 150.6284063230329 332.8 146.04735066796607 339.20000000000005 147.7086509125914 345.6 144.26949585341185 352 143.1489666727564 358.40000000000003 145.79570310901946 364.79999999999995 150.90456264369595 371.2 152.60441283558336 377.59999999999997 154.9491478017073 384 157.56706473692765 390.4 156.58013829723268 396.8 159.0234119473594 403.2 161.2843987826974 409.6 165.1960115399259 416 169.11523234671017 422.40000000000003 170.98589801704748 428.8 165.6690578404385 435.20000000000005 168.57717858054272 441.59999999999997 172.90096972773208 448 176.89364126638873 454.4 175.19554165409997 460.79999999999995 175.65420912719563 467.2 179.72759022529996 473.6 183.23435133897337 480 187.3996474732848 486.4 183.29349333031877 492.8 184.6879425450619 499.20000000000005 185.2618740275559 505.6 184.13086654345904 512 186.3199266180683 518.4000000000001 190.2060892031042 524.8 194.0407013958137 531.1999999999999 190.9828235390862 537.6 191.5230701587131 544 195.43536361469535 550.4 197.39225250746802 556.8 199.5947110047727 563.2 203.1248926478757 569.6 204.43820285271437 576 206.42008891654822 582.4 208.45597070748445 588.8000000000001 211.81761137204586 595.2 210.68377955376877 601.5999999999999 201.0122707472638 608 201.4748066447243 614.4 201.66922899680318 620.8 200.74885060473602 627.2 200.7608761145483 633.6 199.0206905496383 640 198.46886171643865 640 320 0 320"
      />
      
      <polygon
        fill="#22e8e8"
        fillRule="evenodd"
        points="0 319.92567423520734 6.4 319.85646894399747 12.8 319.82723285700257 19.2 318.66030250751083 25.6 318.5475295162652 32 318.40759751474405 38.4 318.2695439814105 44.800000000000004 316.01153475363304 51.2 316.0194975840327 57.599999999999994 310.2711976013044 64 309.3798677683339 70.4 306.93693028045493 76.8 307.02226299557384 83.2 306.2791003415335 89.60000000000001 304.5841105074658 96 300.1562960406228 102.4 294.75363909621944 108.80000000000001 293.4787735284926 115.19999999999999 293.7809522452013 121.6 290.88385278927643 128 291.25492003445595 134.4 286.97853468965985 140.8 287.2959097874415 147.20000000000002 280.089618896933 153.6 272.35651313184826 160 270.68734968480817 166.4 264.6410308852977 172.8 259.71602912487623 179.20000000000002 258.48211114187865 185.6 256.49759293052193 192 254.7095586862058 198.4 249.7580075782557 204.8 243.8432868764154 211.20000000000002 243.32680054477305 217.60000000000002 241.83023866674642 224 242.76851831090613 230.39999999999998 241.70742337807042 236.8 237.21781787999038 243.2 234.04436614576002 249.60000000000002 235.73028126371483 256 237.40439453442295 262.4 235.56050052505083 268.8 237.0050643835301 275.2 238.39933811903165 281.6 240.81755969789884 288 242.54147083932878 294.40000000000003 244.5916787460934 300.79999999999995 243.76034113314398 307.2 239.79404039050047 313.6 239.82806608053954 320 237.43528516933878 326.4 235.7225424216034 332.8 231.99172571734823 339.20000000000005 232.20069325790556 345.6 229.58694927206955 352 229.00004323792317 358.40000000000003 230.6153484909238 364.79999999999995 233.24731822262447 371.2 234.38584650986414 377.59999999999997 235.4497412500649 384 235.9807930369181 390.4 235.0238865147874 396.8 236.27272789859012 403.2 237.10993157153328 409.6 239.17606845797508 416 241.04012813324755 422.40000000000003 242.01070489724788 428.8 236.84729346142123 435.20000000000005 238.1858357172826 441.59999999999997 240.60228526200984 448 242.6985212567007 454.4 240.2079188370812 460.79999999999995 240.05519353398927 467.2 242.49388140948935 473.6 244.4775550435103 480 246.78129364870404 486.4 243.48878654443638 492.8 244.04371894143827 499.20000000000005 246.20495048259434 505.6 246.89557226992662 512 247.99727858414323 518.4000000000001 250.11821432501375 524.8 252.2328155303629 531.1999999999999 249.58176633056632 537.6 249.44271778379766 544 251.5948829317233 550.4 252.51200748366756 556.8 253.35342091163056 563.2 255.30236792506184 569.6 256.1532690587826 576 257.94402269703454 582.4 258.99695563597726 588.8000000000001 260.82646256697615 595.2 259.2205815192231 601.5999999999999 252.11867839814118 608 252.09481374532135 614.4 251.32925840083755 620.8 250.03620805021262 627.2 248.84023602290122 633.6 247.38031992658728 640 246.724800308849 640 320 0 320"
      />
      
      <polygon
        fill="#22e4e8"
        fillRule="evenodd"
        points="0 319.92567423520734 6.4 319.85646894399747 12.8 319.82723285700257 19.2 318.66030250751083 25.6 318.5475295162652 32 318.40759751474405 38.4 318.2695439814105 44.800000000000004 316.01153475363304 51.2 316.0194975840327 57.599999999999994 310.2711976013044 64 309.3798677683339 70.4 306.93693028045493 76.8 307.02226299557384 83.2 306.2791003415335 89.60000000000001 304.5841105074658 96 300.1562960406228 102.4 294.75363909621944 108.80000000000001 293.4787735284926 115.19999999999999 293.7809522452013 121.6 290.88385278927643 128 291.25492003445595 134.4 286.97853468965985 140.8 287.2959097874415 147.20000000000002 280.089618896933 153.6 272.35651313184826 160 270.68734968480817 166.4 264.6410308852977 172.8 259.71602912487623 179.20000000000002 258.48211114187865 185.6 256.49759293052193 192 254.7095586862058 198.4 249.7580075782557 204.8 243.8432868764154 211.20000000000002 243.32680054477305 217.60000000000002 241.83023866674642 224 242.76851831090613 230.39999999999998 241.70742337807042 236.8 237.21781787999038 243.2 234.04436614576002 249.60000000000002 235.73028126371483 256 237.40439453442295 262.4 235.56050052505083 268.8 237.0050643835301 275.2 238.39933811903165 281.6 240.81755969789884 288 242.54147083932878 294.40000000000003 244.5916787460934 300.79999999999995 243.76034113314398 307.2 239.79404039050047 313.6 239.82806608053954 320 237.43528516933878 326.4 235.77391823890264 332.8 232.04310153464746 339.20000000000005 232.25206907520476 345.6 229.63832508936878 352 229.0514190552224 358.40000000000003 230.666724308223 364.79999999999995 233.29869403992367 371.2 234.43722232716334 377.59999999999997 235.50111706736408 384 236.0321688542173 390.4 235.0752623320866 396.8 236.32410371588932 403.2 237.16130738883248 409.6 239.22744427527425 416 241.09150395054678 422.40000000000003 242.06208071454708 428.8 236.89866927872046 435.20000000000005 238.23721153458183 441.59999999999997 240.65366107930907 448 242.7498970739999 454.4 240.2592946543804 460.79999999999995 240.1065693512885 467.2 242.54525722678858 473.6 244.5289308608095 480 246.83266946600324 486.4 243.5401623617356 492.8 244.0950947587375 499.20000000000005 246.25632629989354 505.6 246.94694808722582 512 248.04865440144243 518.4000000000001 250.16959014231296 524.8 252.2841913476621 531.1999999999999 249.63314214786556 537.6 249.49409360109684 544 251.6462587490225 550.4 252.5633833009668 556.8 253.40479672892977 563.2 255.35374374236105 569.6 256.20464487608183 576 257.9953985143338 582.4 259.04833145327643 588.8000000000001 260.8778383842754 595.2 259.27195733652235 601.5999999999999 252.1700542154404 608 252.14618956262058 614.4 251.38063421813675 620.8 250.08758386751185 627.2 248.89161184020043 633.6 247.43169574388648 640 246.724800308849 640 320 0 320"
      />
      
      <polygon
        fill="#e34c26"
        fillRule="evenodd"
        points="0 319.92567423520734 6.4 319.85646894399747 12.8 319.82723285700257 19.2 318.66030250751083 25.6 318.6387619117127 32 318.51260251323953 38.4 318.3713437628841 44.800000000000004 316.1105236747483 51.2 316.2070738371922 57.599999999999994 311.64862035643637 64 310.7510432240823 70.4 308.2675814162824 76.8 308.31229661574787 83.2 307.5297566582836 89.60000000000001 305.7978039787019 96 302.0857628443081 102.4 297.72660022782065 108.80000000000001 296.3609863686975 115.19999999999999 296.57518728633374 121.6 294.70439725569304 128 294.9752857672045 134.4 291.7197355488562 140.8 292.19421584090605 147.20000000000002 288.11678312254753 153.6 282.4760335531828 160 280.50908867646206 166.4 276.09419251502663 172.8 271.3320844622085 179.20000000000002 270.33208263040694 185.6 269.0819760760026 192 268.32411225239235 198.4 264.11124059053765 204.8 258.73411746843266 211.20000000000002 258.87802411248515 217.60000000000002 257.3390330019838 224 258.03725502974754 230.39999999999998 256.52379808062494 236.8 252.72246515925534 243.2 250.19334940278117 249.60000000000002 252.1900522523241 256 254.18865313006137 262.4 252.86779987635097 268.8 253.80097706956465 275.2 254.90771987845307 281.6 256.8330521413151 288 258.58290807048115 294.40000000000003 260.45208198231217 300.79999999999995 259.972070703349 307.2 257.86438057294293 313.6 257.54204612641684 320 255.72564845446323 326.4 254.32299986478245 332.8 252.44397311926008 339.20000000000005 252.30167494929557 345.6 249.89596603293293 352 249.6072904531104 358.40000000000003 250.6398521406822 364.79999999999995 252.689752357677 371.2 254.04378575822534 377.59999999999997 254.88132275747114 384 255.76534593198053 390.4 254.2060969976377 396.8 254.90083580663958 403.2 255.17100355653497 409.6 256.704869507979 416 258.1050918644127 422.40000000000003 258.556342344342 428.8 255.16941727680006 435.20000000000005 257.1206963002295 441.59999999999997 258.97905650673346 448 260.51592082280126 454.4 258.60051588856567 460.79999999999995 258.0205677841077 467.2 259.91244845086345 473.6 261.38284376202586 480 263.17212137304676 486.4 261.82040358333575 492.8 263.5575757377002 499.20000000000005 265.2078542254887 505.6 265.57694354280284 512 267.2215062654135 518.4000000000001 268.7758057870949 524.8 270.339404434459 531.1999999999999 268.4386240376242 537.6 268.963596626768 544 270.5214668705033 550.4 271.98377412784896 556.8 273.44944278161853 563.2 274.8252134343184 569.6 276.2041541907242 576 277.5409901529414 582.4 278.71335850939226 588.8000000000001 279.97361932968323 595.2 278.92973012723553 601.5999999999999 275.72390800097395 608 277.0324690047112 614.4 278.286279204794 620.8 278.4158663358382 627.2 279.6448554904092 633.6 279.5824972567915 640 279.7127974800697 640 320 0 320"
      />
      
      <polygon
        fill="#00ADD8"
        fillRule="evenodd"
        points="0 319.92567423520734 6.4 319.85646894399747 12.8 319.82723285700257 19.2 318.66030250751083 25.6 318.6387619117127 32 318.5153622847659 38.4 318.37401929399664 44.800000000000004 316.6121796574658 51.2 316.6934170520604 57.599999999999994 313.1394411512824 64 312.19635758050066 70.4 310.88202770954086 76.8 310.86396145476346 83.2 310.00353329223435 89.60000000000001 308.6617026758109 96 305.8714431673473 102.4 303.79315486232275 108.80000000000001 303.0244380925362 115.19999999999999 303.3152876195174 121.6 302.4901799100998 128 302.91323588607895 134.4 300.9756870498227 140.8 301.5563837615897 147.20000000000002 299.6311514349675 153.6 295.82118158109944 160 294.07844590865415 166.4 290.71612824439785 172.8 287.7123801440049 179.20000000000002 287.3468038948025 185.6 286.11581736456424 192 284.9373027341369 198.4 282.3765211741403 204.8 277.9438314813159 211.20000000000002 278.0796556817909 217.60000000000002 276.0327848193128 224 276.2116661777767 230.39999999999998 274.14899865917647 236.8 270.3047114444794 243.2 268.08696396632877 249.60000000000002 269.66605334737335 256 271.14816388615446 262.4 270.41253873239754 268.8 270.81017132353514 275.2 272.162879967809 281.6 273.5614981040723 288 274.9228696256323 294.40000000000003 276.29328607560626 300.79999999999995 276.4643276487529 307.2 274.6332562213656 313.6 273.79905834198934 320 272.04436097157947 326.4 270.14359711775774 332.8 268.249455606786 339.20000000000005 268.7285818550949 345.6 266.9323144613788 352 266.17323984333194 358.40000000000003 266.7001340216199 364.79999999999995 268.2753802552017 371.2 269.77299365235615 377.59999999999997 270.14566478890083 384 271.63099258411285 390.4 270.87587691462096 396.8 271.2113703211581 403.2 272.6978461603835 409.6 274.09582513010383 416 275.4691224482074 422.40000000000003 275.7089624674667 428.8 272.95245361374185 435.20000000000005 274.3609173294311 441.59999999999997 275.70975889538647 448 277.06171958996174 454.4 276.49359922616236 460.79999999999995 276.69946068755746 467.2 278.021185891639 473.6 279.0984555038605 480 280.3469656472188 486.4 279.2673434335715 492.8 280.4774901238845 499.20000000000005 281.6112947129784 505.6 281.5274599625644 512 282.68514433979396 518.4000000000001 283.78241692097765 524.8 284.88794980881835 531.1999999999999 282.61006988549093 537.6 282.841771841713 544 283.97601250874413 550.4 285.0406775162985 556.8 286.10778758119943 563.2 287.10945186252263 569.6 288.1134215925465 576 289.08673306047615 582.4 289.9403062504546 588.8000000000001 290.8578703327911 595.2 291.7191408018448 601.5999999999999 290.34722060224885 608 291.22359281811987 614.4 292.10198553596854 620.8 292.9283900696563 627.2 293.72847129605395 633.6 293.55462137379885 640 293.63987219792006 640 320 0 320"
      />
      
      <polygon
        fill="#244776"
        fillRule="evenodd"
        points="0 319.92567423520734 6.4 319.85646894399747 12.8 319.82723285700257 19.2 318.66030250751083 25.6 318.6387619117127 32 318.5153622847659 38.4 318.37401929399664 44.800000000000004 316.6121796574658 51.2 316.6934170520604 57.599999999999994 313.1394411512824 64 312.19635758050066 70.4 310.88202770954086 76.8 310.86396145476346 83.2 310.00353329223435 89.60000000000001 308.6617026758109 96 305.8714431673473 102.4 303.79315486232275 108.80000000000001 303.0244380925362 115.19999999999999 303.3152876195174 121.6 302.4901799100998 128 302.91323588607895 134.4 300.9756870498227 140.8 301.5563837615897 147.20000000000002 299.6311514349675 153.6 295.82118158109944 160 294.07844590865415 166.4 290.71612824439785 172.8 287.7123801440049 179.20000000000002 287.3468038948025 185.6 286.11581736456424 192 284.9373027341369 198.4 282.3765211741403 204.8 277.9438314813159 211.20000000000002 278.0796556817909 217.60000000000002 276.0327848193128 224 276.2116661777767 230.39999999999998 274.14899865917647 236.8 270.3047114444794 243.2 268.08696396632877 249.60000000000002 269.66605334737335 256 271.14816388615446 262.4 270.41253873239754 268.8 270.81017132353514 275.2 272.162879967809 281.6 273.5614981040723 288 274.9228696256323 294.40000000000003 276.29328607560626 300.79999999999995 276.4643276487529 307.2 274.6332562213656 313.6 273.79905834198934 320 272.04436097157947 326.4 270.14359711775774 332.8 268.249455606786 339.20000000000005 268.7285818550949 345.6 266.9323144613788 352 266.17323984333194 358.40000000000003 266.7001340216199 364.79999999999995 268.2753802552017 371.2 269.77299365235615 377.59999999999997 270.14566478890083 384 271.63099258411285 390.4 270.87587691462096 396.8 271.2113703211581 403.2 272.6978461603835 409.6 274.09582513010383 416 275.4691224482074 422.40000000000003 275.7089624674667 428.8 272.95245361374185 435.20000000000005 274.3609173294311 441.59999999999997 275.70975889538647 448 277.06171958996174 454.4 276.49359922616236 460.79999999999995 276.69946068755746 467.2 278.021185891639 473.6 279.0984555038605 480 280.3469656472188 486.4 279.2673434335715 492.8 280.4774901238845 499.20000000000005 281.6112947129784 505.6 281.5274599625644 512 282.68514433979396 518.4000000000001 283.78241692097765 524.8 284.88794980881835 531.1999999999999 282.61006988549093 537.6 282.841771841713 544 283.97601250874413 550.4 285.0406775162985 556.8 286.10778758119943 563.2 287.10945186252263 569.6 288.1134215925465 576 289.08673306047615 582.4 289.9403062504546 588.8000000000001 290.8578703327911 595.2 291.7191408018448 601.5999999999999 290.4027818327056 608 291.277511964429 614.4 292.1542588333101 620.8 292.97906775124943 627.2 293.7776512256379 633.6 293.60230011535907 640 293.6873972209799 640 320 0 320"
      />
      
      <polygon
        fill="#563d7c"
        fillRule="evenodd"
        points="0 319.92567423520734 6.4 319.85646894399747 12.8 319.82723285700257 19.2 318.66030250751083 25.6 318.6387619117127 32 318.5153622847659 38.4 318.37401929399664 44.800000000000004 316.6121796574658 51.2 316.6934170520604 57.599999999999994 314.24960166449057 64 313.2726311183764 70.4 311.92649252664563 76.8 311.8765445974366 83.2 310.98520792120723 89.60000000000001 309.6143644559902 96 306.7950254129222 102.4 305.7914190229534 108.80000000000001 304.96170641683 115.19999999999999 305.19342176159 121.6 304.31463033040853 128 304.6819961534549 134.4 303.81183232492344 140.8 304.3059573937373 147.20000000000002 302.2994629093766 153.6 298.4080444035532 160 296.586346360455 166.4 293.1499088045812 172.8 290.0718710668703 179.20000000000002 289.6365613933313 185.6 288.33568135170975 192 287.089406436585 198.4 284.46920185952234 204.8 279.972634352514 211.20000000000002 280.04849824762556 217.60000000000002 277.94152959809696 224 278.06399917889837 230.39999999999998 275.9447903128244 236.8 273.1750743496726 243.2 271.62232157917236 249.60000000000002 273.0934964669865 256 274.47431064257 262.4 273.63715659866637 268.8 273.9363596999633 275.2 275.20274916205017 281.6 276.50857692093126 288 277.78284916989446 294.40000000000003 279.0659662898391 300.79999999999995 279.1550631261386 307.2 277.2418585154063 313.6 276.32803428431436 320 274.49859455288447 326.4 272.52291674281304 332.8 270.558455403926 339.20000000000005 270.96710070975666 345.6 269.1025040955424 352 268.2835068819821 358.40000000000003 268.7459864715468 364.79999999999995 270.2607685057492 371.2 271.69777909156915 377.59999999999997 272.01356435440925 384 273.4418754730859 390.4 272.63148353424543 396.8 272.9150907561143 403.2 274.34956173253346 409.6 275.69872504468225 416 277.0230948086841 422.40000000000003 277.21550076885075 428.8 275.3902583389426 435.20000000000005 276.72430962911056 441.59999999999997 278.0033023806437 448 279.2852539682467 454.4 278.65141807727855 460.79999999999995 278.79141348036006 467.2 280.0492830646106 473.6 281.06661333280226 480 282.2550466504435 486.4 281.11903197644097 492.8 282.2726569448424 499.20000000000005 283.3516650119697 505.6 283.21977599359656 512 284.32580332230293 518.4000000000001 285.37458709886477 524.8 286.4315199020633 531.1999999999999 284.10802071901344 537.6 284.29399850609406 544 285.38391067943655 550.4 286.40696600155377 556.8 287.43237092474897 563.2 288.39488786080653 569.6 289.3596203892603 576 290.2948923286727 582.4 291.1151062757141 588.8000000000001 291.9968103458306 595.2 292.8244199958997 601.5999999999999 291.4743230412983 608 292.3173842972253 614.4 293.16238964490447 620.8 293.9564259895561 627.2 294.7261242326812 633.6 294.52182151358295 640 294.6039539262907 640 320 0 320"
      />
      
      <polygon
        fill="#178600"
        fillRule="evenodd"
        points="0 320 6.4 320 12.8 320 19.2 320 25.6 320 32 320 38.4 320 44.800000000000004 320 51.2 320 57.599999999999994 318.7303281574962 64 318.76908423481245 70.4 318.8054633380152 76.8 318.8419258344446 83.2 318.8772753251681 89.60000000000001 318.910456910529 96 318.943714501274 102.4 318.9749325645486 108.80000000000001 319.00622214296095 115.19999999999999 319.03655661410426 121.6 319.0640952235453 128 319.09266321941203 134.4 319.1194790327546 140.8 319.1463564559773 147.20000000000002 319.17158545527644 153.6 319.1856774617806 160 319.21053418163245 166.4 319.23386643713275 172.8 319.257252185134 179.20000000000002 319.2792037258195 185.6 318.19414013495947 192 318.2492629652921 198.4 318.29760362260726 204.8 316.13887315898893 211.20000000000002 316.24748400004705 217.60000000000002 316.3620272683797 224 316.4695454588307 230.39999999999998 316.57731078751317 236.8 316.24155910446734 243.2 315.6381769792902 249.60000000000002 315.77131905384726 256 315.89629555875445 262.4 316.02155853521884 268.8 316.1429982261115 275.2 316.249496411361 281.6 316.36397856302136 288 316.47143921255696 294.40000000000003 316.57914647629076 300.79999999999995 316.6802477860604 307.2 315.97581032219495 313.6 316.0986463050502 320 314.31084256347594 326.4 314.48450084057475 332.8 313.5209092662716 339.20000000000005 313.71867944744855 345.6 313.9104132783478 352 312.9761215381536 358.40000000000003 313.19052066369295 364.79999999999995 313.3917710119083 371.2 313.5934839788081 377.59999999999997 313.78282513514404 384 313.9726009308944 390.4 314.1565838258148 396.8 314.32928298833076 403.2 314.50237798096873 409.6 314.6648575275586 416 314.82770945634735 422.40000000000003 314.98559086728886 428.8 313.2129007608961 435.20000000000005 313.42007281939044 441.59999999999997 313.61453953551506 448 313.8094517827273 454.4 313.198723706864 460.79999999999995 313.40632865799495 467.2 313.6075970185718 473.6 313.79652100327127 480 313.9858785998688 486.4 314.1636226929658 492.8 314.3417750183071 499.20000000000005 314.5144890078839 505.6 314.66595303466113 512 314.82877173357133 518.4000000000001 314.9816044121214 524.8 315.1347882957585 531.1999999999999 315.2785767754312 537.6 315.4226956016091 544 315.56241511655173 550.4 315.6935657000277 556.8 315.8250170169878 563.2 315.9484065639992 569.6 316.07207894516006 576 316.19197659089645 582.4 316.2971223899568 588.8000000000001 316.4101507292896 595.2 316.51624662133935 601.5999999999999 316.6225862710918 608 316.7224038533146 614.4 316.822450602508 620.8 316.9194434909199 627.2 317.0104877378493 633.6 317.10174084802634 640 317.1110850303009 640 320 0 320"
      />
      
      <polygon
        fill="#555555"
        fillRule="evenodd"
        points="0 320 6.4 320 12.8 320 19.2 320 25.6 320 32 320 38.4 320 44.800000000000004 320 51.2 320 57.599999999999994 318.7303281574962 64 318.76908423481245 70.4 318.8054633380152 76.8 318.8419258344446 83.2 318.8772753251681 89.60000000000001 318.910456910529 96 318.943714501274 102.4 318.9749325645486 108.80000000000001 319.00622214296095 115.19999999999999 319.03655661410426 121.6 319.0640952235453 128 319.09266321941203 134.4 319.1194790327546 140.8 319.1463564559773 147.20000000000002 319.17158545527644 153.6 319.1856774617806 160 319.21053418163245 166.4 319.23386643713275 172.8 319.257252185134 179.20000000000002 319.2792037258195 185.6 318.19414013495947 192 318.2492629652921 198.4 318.29760362260726 204.8 317.24284822929746 211.20000000000002 317.3188316245601 217.60000000000002 317.4006726439073 224 317.4774942972802 230.39999999999998 317.5544924985116 236.8 317.18891283795494 243.2 316.557532228121 249.60000000000002 316.66261149549797 256 316.7612462831046 262.4 316.8601072270589 268.8 316.95595066376 275.2 317.04000191186805 281.6 317.13035430121624 288 317.21516514078303 294.40000000000003 317.3001705919458 300.79999999999995 317.37996247654485 307.2 317.45993777281166 313.6 317.53747158748877 320 316.50570851644653 326.4 316.6123697479898 332.8 315.585890063247 339.20000000000005 315.720627973441 345.6 315.8512534549635 352 314.8633718052478 358.40000000000003 315.02016384335934 364.79999999999995 315.1673401163509 371.2 315.31485488405235 377.59999999999997 315.45332175381753 384 315.59210653714024 390.4 315.7266549013939 396.8 315.85295152847686 403.2 315.9795374322367 409.6 316.0983602753249 416 316.2174553177683 422.40000000000003 316.3329156136143 428.8 315.5852531058641 435.20000000000005 315.7200106416204 441.59999999999997 315.84650365790253 448 315.97328674204925 454.4 316.092293993496 460.79999999999995 316.2115744615392 467.2 316.32721423366536 473.6 316.43576116320673 480 316.54455767646857 486.4 316.64668129307637 492.8 316.74903969716917 499.20000000000005 316.8482733213022 505.6 316.93529768795736 512 317.0288458586448 518.4000000000001 317.11665668631116 524.8 317.20466911268466 531.1999999999999 317.2872835846861 537.6 317.37008773620505 544 317.4503643002645 550.4 317.52571745810116 556.8 317.6012434236369 563.2 317.6721374687869 569.6 317.74319412867385 576 317.8120818556818 582.4 317.8724938058551 588.8000000000001 317.93743479120235 595.2 317.9983926094344 601.5999999999999 318.0594906117215 608 318.11684135437133 614.4 318.17432375269055 620.8 318.23005148189606 627.2 318.28236134237926 633.6 318.3347911859462 640 318.3401600102298 640 320 0 320"
      />
      
      <polygon
        fill="#C1F12E"
        fillRule="evenodd"
        points="0 320 6.4 320 12.8 320 19.2 320 25.6 320 32 320 38.4 320 44.800000000000004 320 51.2 320 57.599999999999994 319.00777421667675 64 319.0380613912426 70.4 319.0664910217582 76.8 319.09498579681014 83.2 319.1226107792752 89.60000000000001 319.148541592789 96 319.1745317967476 102.4 319.1989281687261 108.80000000000001 319.22338040676834 115.19999999999999 319.24708626721207 121.6 319.26860718607213 128 319.29093257830505 134.4 319.31188864060425 140.8 319.33289287286976 147.20000000000002 319.35260887706687 153.6 319.3611752500178 160 319.38067500312474 166.4 319.3989788402317 172.8 319.41732463083105 179.20000000000002 319.43454532185706 185.6 319.44084457246714 192 319.4579124615373 198.4 319.47288041545124 204.8 319.48621059051095 211.20000000000002 319.50139532982354 217.60000000000002 319.5166149635912 224 319.5309011501344 230.39999999999998 319.5452201349994 236.8 319.3091072257818 243.2 318.61506548386905 249.60000000000002 318.6573397668788 256 318.69702131789273 262.4 318.73679400960657 268.8 318.775352588006 275.2 318.8091672261876 281.6 318.84551664444314 288 318.87963681461025 294.40000000000003 318.9138351787713 300.79999999999995 318.94593622794275 307.2 318.9781109500362 313.6 319.00930346925446 320 319.0385830612915 326.4 319.0679297501459 332.8 319.09547664136863 339.20000000000005 319.123086622095 345.6 319.1498539366661 352 319.173327855845 358.40000000000003 319.1985615303435 364.79999999999995 319.2222476008224 371.2 319.24598805774144 377.59999999999997 319.2682725239983 384 319.29060805781745 390.4 319.3122618653666 396.8 319.3325875463876 403.2 319.35295990747613 409.6 319.37208283951344 416 319.39124965677394 422.40000000000003 319.40983149870345 428.8 318.57422006509006 435.20000000000005 318.61774103368236 441.59999999999997 318.6585931313177 448 318.6995387329404 454.4 318.73797318736524 460.79999999999995 318.7764958026925 467.2 318.8138426310651 473.6 318.8488988172476 480 318.88403566346324 486.4 318.91701719139155 492.8 318.95007475552944 499.20000000000005 318.98212319586395 505.6 319.0102283367175 512 319.04044060534176 518.4000000000001 319.068799748236 524.8 319.09722413841826 531.1999999999999 319.12390514161626 537.6 319.1506474875401 544 319.17657347172707 550.4 319.20090941546925 556.8 319.2253012355504 563.2 319.2481970123821 569.6 319.27114545970164 576 319.2933932950007 582.4 319.31290382675405 588.8000000000001 319.3338769766501 595.2 319.3535638815843 601.5999999999999 319.3732960280632 608 319.39181795551457 614.4 319.41038235021654 620.8 319.42838009020403 627.2 319.44527403103206 633.6 319.4622066784008 640 319.4639405608588 640 320 0 320"
      />
      

      
        <g id="labels">
        
          
          <text x="0" y="330">
            Jul 2014
          </text>
          
        
          
        
          
        
          
        
          
        
          
        
          
        
          
        
          
        
          
        
          
        
          
        
          
        
          
          <text x="82.37623762376238" y="330">
            Aug 2015
          </text>
          
        
          
        
          
        
          
        
          
        
          
        
          
        
          
        
          
        
          
        
          
        
          
        
          
        
          
          <text x="164.75247524752476" y="330">
            Sep 2016
          </text>
          
        
          
        
          
        
          
        
          
        
          
        
          
        
          
        
          
        
          
        
          
        
          
        
          
        
          
          <text x="247.12871287128712" y="330">
            Oct 2017
          </text>
          
        
          
        
          
        
          
        
          
        
          
        
          
        
          
        
          
        
          
        
          
        
          
        
          
        
          
          <text x="329.5049504950495" y="330">
            Nov 2018
          </text>
          
        
          
        
          
        
          
        
          
        
          
        
          
        
          
        
          
        
          
        
          
        
          
        
          
        
          
          <text x="411.8811881188119" y="330">
            Dec 2019
          </text>
          
        
          
        
          
        
          
        
          
        
          
        
          
        
          
        
          
        
          
        
          
        
          
        
          
        
          
          <text x="494.25742574257424" y="330">
            Jan 2021
          </text>
          
        
          
        
          
        
          
        
          
        
          
        
          
        
          
        
          
        
          
        
          
        
          
        
          
        
          
          <text x="576.6336633663366" y="330">
            Feb 2022
          </text>
          
        
          
        
          
        
          
        
          
        
          
        
          
        
          
        
          
        
          
        
        </g>
      

      
        <text text-anchor="middle" y="370" x="320" id="legend">
          
          <tspan xml:space="preserve" fill="#C1F12E">   </tspan> Batchfile
          
          <tspan xml:space="preserve" fill="#555555">   </tspan> C
          
          <tspan xml:space="preserve" fill="#178600">   </tspan> C#
          
          <tspan xml:space="preserve" fill="#563d7c">   </tspan> CSS
          
          <tspan xml:space="preserve" fill="#244776">   </tspan> CoffeeScript
          
          <tspan xml:space="preserve" fill="#00ADD8">   </tspan> Go
          
          <tspan xml:space="preserve" fill="#e34c26">   </tspan> HTML
          
          <tspan xml:space="preserve" fill="#22e4e8">   </tspan> JSON
          
        </text>
      
        <text text-anchor="middle" y="400" x="320" id="legend">
          
          <tspan xml:space="preserve" fill="#22e8e8">   </tspan> JSon
          
          <tspan xml:space="preserve" fill="#f1e05a">   </tspan> JavaScript
          
          <tspan xml:space="preserve" fill="#2415b9">   </tspan> Less
          
          <tspan xml:space="preserve" fill="#755462">   </tspan> MySQL
          
          <tspan xml:space="preserve" fill="#4F5D95">   </tspan> PHP
          
          <tspan xml:space="preserve" fill="#fd2fdb">   </tspan> PLpgSQL
          
          <tspan xml:space="preserve" fill="#0298c3">   </tspan> Perl
          
          <tspan xml:space="preserve" fill="#3572A5">   </tspan> Python
          
        </text>
      
        <text text-anchor="middle" y="430" x="320" id="legend">
          
          <tspan xml:space="preserve" fill="#701516">   </tspan> Ruby
          
          <tspan xml:space="preserve" fill="#dea584">   </tspan> Rust
          
          <tspan xml:space="preserve" fill="#26c0b0">   </tspan> SCSS
          
          <tspan xml:space="preserve" fill="#0141ae">   </tspan> SQL
          
          <tspan xml:space="preserve" fill="#89e051">   </tspan> Shell
          
          <tspan xml:space="preserve" fill="#509e5b">   </tspan> Svelte
          
          <tspan xml:space="preserve" fill="#2770da">   </tspan> TSQL
          
          <tspan xml:space="preserve" fill="#2b7489">   </tspan> TypeScript
          
        </text>
      
        <text text-anchor="middle" y="460" x="320" id="legend">
          
          <tspan xml:space="preserve" fill="#2c3e50">   </tspan> Vue
          
          <tspan xml:space="preserve" fill="#4B6C4B">   </tspan> Yacc
          
        </text>
      

    </svg>