<svg
      xmlns="http://www.w3.org/2000/svg"
      viewBox="0 0 640 490"
      style="background-color: #292b3e"
    >
      <style>
        text {
          font-size: 12px;
          font-family: Open Sans, Helvetica Neue, Helvetica, Arial, sans-serif;
        }
        #labels text {
          dominant-baseline: hanging;
          font-size: 10px;
          fill: rgba(0,0,0,0.5);
        }
        #legend {
          font-weight: 600;
        }
        #legend tspan {
          font-size: 15px;
        }
        #branding-text {
          font-size: 9px;
          dominant-baseline: hanging;
          opacity: 0.5;
        }
        #branding-logo {
          opacity: 0.5;
        }
      </style>

      
      
      <polygon
        fill="#4B6C4B"
        fillRule="evenodd"
        points="0 313.6135491334534 6.530612244897958 304.2691131421331 13.061224489795917 297.26804322311955 19.591836734693878 285.9388189432294 26.122448979591834 278.8279991804615 32.6530612244898 274.9842178973764 39.183673469387756 267.09073928389677 45.71428571428571 257.0788339954292 52.24489795918367 246.22212816009227 58.775510204081634 230.9923321748185 65.3061224489796 221.54625956507363 71.83673469387755 206.62808829519037 78.36734693877551 198.27728877990435 84.89795918367348 192.1703432581415 91.42857142857142 182.12952078551336 97.9591836734694 170.61730490744725 104.48979591836734 156.95189637110542 111.0204081632653 154.80424281602293 117.55102040816327 149.88798972993877 124.08163265306122 142.52560932643064 130.6122448979592 138.2861563908242 137.14285714285714 123.78688621034814 143.6734693877551 127.17490761285066 150.20408163265307 110.77251205575868 156.73469387755102 93.05722482543604 163.26530612244898 88.01891198711618 169.79591836734696 78.10635534092 176.32653061224488 68.78378676010016 182.85714285714283 65.97377636601666 189.3877551020408 62.13345068064905 195.9183673469388 59.189141471031405 202.44897959183675 46.68389756780732 208.97959183673467 33.29407249817967 215.51020408163265 31.64636666288169 222.0408163265306 27.414637627766297 228.57142857142858 27.528913900015027 235.10204081632654 25.25112250944676 241.63265306122446 13.936174219277234 248.16326530612244 9.643107162118042 254.69387755102042 9.883780502805905 261.2244897959184 12.937830806877912 267.7551020408163 8.247018639185512 274.2857142857143 10.710272225760036 280.81632653061223 10.159062699732317 287.3469387755102 11.45570033041247 293.8775510204082 14.195614552505901 300.40816326530614 17.69310740970434 306.9387755102041 18.06783533561429 313.46938775510205 12.038818970528894 320 13.322685885646138 326.53061224489795 11.292765220545107 333.0612244897959 7.02950847916793 339.5918367346939 1.9717990244333805 346.12244897959187 4.695466082169389 352.65306122448976 0.06665919163214085 359.1836734693877 0 365.71428571428567 3.1342579613541943 372.2448979591837 11.121692240373477 378.7755102040816 13.49972607898792 385.3061224489796 18.048034100810696 391.8367346938776 21.314562674888805 398.36734693877554 21.56854083300277 404.8979591836735 27.06657151295076 411.42857142857144 30.680963502193833 417.95918367346934 36.748035127226444 424.48979591836735 42.803639726058066 431.0204081632653 46.96049228200059 437.55102040816325 38.51489324789202 444.0816326530612 42.631080391383534 450.61224489795916 50.61557929516846 457.14285714285717 58.069024835848836 463.6734693877551 55.54203716254432 470.2040816326531 58.407815452813736 476.7346938775511 64.84925811082081 483.2653061224489 68.96513877799745 489.7959183673469 76.40582764042367 496.3265306122449 74.31942692639961 502.85714285714283 74.9906531790077 509.38775510204084 75.05207232252613 515.9183673469388 74.49025928078612 522.4489795918367 78.43680519249637 528.9795918367347 85.33601010183207 535.5102040816327 88.56508396472628 542.0408163265306 82.02547875119649 548.5714285714286 83.08750508413198 555.1020408163265 90.29408097872957 561.6326530612245 89.48594203025516 568.1632653061224 88.46142377193789 574.6938775510204 89.43499583648651 581.2244897959183 87.51990249807511 587.7551020408164 88.00642997132513 594.2857142857143 88.21714753477804 600.8163265306123 90.76516146581781 607.3469387755102 86.66766908561993 613.8775510204082 71.26734740537796 620.4081632653061 70.87678201343653 626.9387755102041 73.10662834794203 633.469387755102 72.47938858329462 640 74.85851646591968 640 320 0 320"
      />
      
      <polygon
        fill="#2c3e50"
        fillRule="evenodd"
        points="0 313.6135491334534 6.530612244897958 304.2691131421331 13.061224489795917 297.26804322311955 19.591836734693878 285.9388189432294 26.122448979591834 278.8279991804615 32.6530612244898 274.9842178973764 39.183673469387756 267.09073928389677 45.71428571428571 257.0788339954292 52.24489795918367 246.22212816009227 58.775510204081634 230.9923321748185 65.3061224489796 221.54625956507363 71.83673469387755 206.62808829519037 78.36734693877551 198.27728877990435 84.89795918367348 192.1703432581415 91.42857142857142 182.12952078551336 97.9591836734694 170.61730490744725 104.48979591836734 156.95189637110542 111.0204081632653 154.80424281602293 117.55102040816327 149.88798972993877 124.08163265306122 142.52560932643064 130.6122448979592 138.2861563908242 137.14285714285714 123.78688621034814 143.6734693877551 127.17490761285066 150.20408163265307 110.77251205575868 156.73469387755102 93.05722482543604 163.26530612244898 88.01891198711618 169.79591836734696 78.10635534092 176.32653061224488 68.78378676010016 182.85714285714283 65.97377636601666 189.3877551020408 62.13345068064905 195.9183673469388 59.189141471031405 202.44897959183675 46.68389756780732 208.97959183673467 33.29407249817967 215.51020408163265 31.64636666288169 222.0408163265306 27.414637627766297 228.57142857142858 27.528913900015027 235.10204081632654 25.25112250944676 241.63265306122446 13.936174219277234 248.16326530612244 9.643107162118042 254.69387755102042 9.883780502805905 261.2244897959184 12.937830806877912 267.7551020408163 8.247018639185512 274.2857142857143 10.710272225760036 280.81632653061223 10.159062699732317 287.3469387755102 11.45570033041247 293.8775510204082 14.195614552505901 300.40816326530614 17.69310740970434 306.9387755102041 18.06783533561429 313.46938775510205 12.038818970528894 320 13.322685885646138 326.53061224489795 11.292765220545107 333.0612244897959 7.02950847916793 339.5918367346939 1.9717990244333805 346.12244897959187 4.695466082169389 352.65306122448976 0.06665919163214085 359.1836734693877 0 365.71428571428567 3.1342579613541943 372.2448979591837 11.121692240373477 378.7755102040816 13.49972607898792 385.3061224489796 18.048034100810696 391.8367346938776 21.314562674888805 398.36734693877554 21.56854083300277 404.8979591836735 27.06657151295076 411.42857142857144 30.680963502193833 417.95918367346934 36.748035127226444 424.48979591836735 42.803639726058066 431.0204081632653 46.96049228200059 437.55102040816325 38.51489324789202 444.0816326530612 42.631080391383534 450.61224489795916 50.61557929516846 457.14285714285717 58.069024835848836 463.6734693877551 56.64262419030905 470.2040816326531 59.47480773756138 476.7346938775511 65.88368101090958 483.2653061224489 69.96898988755913 489.7959183673469 77.37903678010582 496.3265306122449 75.26387332047437 502.85714285714283 75.90627096369047 509.38775510204084 75.93974135988933 515.9183673469388 75.35341825635095 522.4489795918367 79.2736168046491 528.9795918367347 86.14809020190737 535.5102040816327 89.35237577218217 542.0408163265306 82.78950255836645 548.5714285714286 83.8282075321028 555.1020408163265 91.01217392040928 561.6326530612245 90.1828121089527 568.1632653061224 89.13702228338815 574.6938775510204 90.09062737683439 581.2244897959183 88.15552127092622 587.7551020408164 88.62264685557622 594.2857142857143 88.81634963538008 600.8163265306123 91.34607330643325 607.3469387755102 87.23141236452057 613.8775510204082 71.8138827789706 620.4081632653061 71.40716478189987 626.9387755102041 73.62082150014453 633.469387755102 72.97788629284963 640 75.34761908162955 640 320 0 320"
      />
      
      <polygon
        fill="#2b7489"
        fillRule="evenodd"
        points="0 313.6135491334534 6.530612244897958 304.2691131421331 13.061224489795917 297.26804322311955 19.591836734693878 285.9388189432294 26.122448979591834 278.8279991804615 32.6530612244898 274.9842178973764 39.183673469387756 267.09073928389677 45.71428571428571 257.0788339954292 52.24489795918367 246.22212816009227 58.775510204081634 230.9923321748185 65.3061224489796 221.54625956507363 71.83673469387755 206.62808829519037 78.36734693877551 198.27728877990435 84.89795918367348 192.1703432581415 91.42857142857142 182.12952078551336 97.9591836734694 170.61730490744725 104.48979591836734 156.95189637110542 111.0204081632653 154.80424281602293 117.55102040816327 149.88798972993877 124.08163265306122 142.52560932643064 130.6122448979592 138.2861563908242 137.14285714285714 123.78688621034814 143.6734693877551 127.17490761285066 150.20408163265307 110.77251205575868 156.73469387755102 93.05722482543604 163.26530612244898 88.01891198711618 169.79591836734696 78.10635534092 176.32653061224488 68.78378676010016 182.85714285714283 65.97377636601666 189.3877551020408 62.13345068064905 195.9183673469388 59.189141471031405 202.44897959183675 46.68389756780732 208.97959183673467 33.29407249817967 215.51020408163265 31.64636666288169 222.0408163265306 27.414637627766297 228.57142857142858 27.528913900015027 235.10204081632654 25.25112250944676 241.63265306122446 13.936174219277234 248.16326530612244 9.643107162118042 254.69387755102042 9.883780502805905 261.2244897959184 12.937830806877912 267.7551020408163 8.247018639185512 274.2857142857143 10.710272225760036 280.81632653061223 10.159062699732317 287.3469387755102 11.45570033041247 293.8775510204082 14.195614552505901 300.40816326530614 17.69310740970434 306.9387755102041 18.06783533561429 313.46938775510205 12.038818970528894 320 13.322685885646138 326.53061224489795 11.292765220545107 333.0612244897959 7.02950847916793 339.5918367346939 1.9717990244333805 346.12244897959187 4.695466082169389 352.65306122448976 0.06665919163214085 359.1836734693877 0 365.71428571428567 3.1342579613541943 372.2448979591837 11.121692240373477 378.7755102040816 13.49972607898792 385.3061224489796 18.048034100810696 391.8367346938776 21.314562674888805 398.36734693877554 21.56854083300277 404.8979591836735 27.06657151295076 411.42857142857144 30.680963502193833 417.95918367346934 36.748035127226444 424.48979591836735 42.803639726058066 431.0204081632653 46.96049228200059 437.55102040816325 38.51489324789202 444.0816326530612 42.631080391383534 450.61224489795916 50.61557929516846 457.14285714285717 58.069024835848836 463.6734693877551 56.64262419030905 470.2040816326531 59.47480773756138 476.7346938775511 65.88368101090958 483.2653061224489 69.96898988755913 489.7959183673469 77.37903678010582 496.3265306122449 75.26387332047437 502.85714285714283 75.90627096369047 509.38775510204084 75.93974135988933 515.9183673469388 75.35341825635095 522.4489795918367 79.2736168046491 528.9795918367347 86.14809020190737 535.5102040816327 89.35237577218217 542.0408163265306 84.9996078869545 548.5714285714286 87.49747815615254 555.1020408163265 94.56944179141692 561.6326530612245 96.00367707964404 568.1632653061224 96.8707201408235 574.6938775510204 100.59149299345361 581.2244897959183 100.44763214517073 587.7551020408164 101.47596033120777 594.2857142857143 102.08139602175805 600.8163265306123 104.23704730370451 607.3469387755102 99.74140289911344 613.8775510204082 84.61161996150906 620.4081632653061 84.30006228938907 626.9387755102041 86.12016748126342 633.469387755102 85.0956985763961 640 87.23704905133292 640 320 0 320"
      />
      
      <polygon
        fill="#2770da"
        fillRule="evenodd"
        points="0 313.6135491334534 6.530612244897958 304.2691131421331 13.061224489795917 297.26804322311955 19.591836734693878 285.9388189432294 26.122448979591834 278.8279991804615 32.6530612244898 274.9842178973764 39.183673469387756 267.09073928389677 45.71428571428571 257.0788339954292 52.24489795918367 246.22212816009227 58.775510204081634 230.9923321748185 65.3061224489796 221.54625956507363 71.83673469387755 206.62808829519037 78.36734693877551 198.27728877990435 84.89795918367348 192.1703432581415 91.42857142857142 182.12952078551336 97.9591836734694 170.61730490744725 104.48979591836734 156.95189637110542 111.0204081632653 154.80424281602293 117.55102040816327 149.88798972993877 124.08163265306122 142.52560932643064 130.6122448979592 138.2861563908242 137.14285714285714 123.78688621034814 143.6734693877551 127.17490761285066 150.20408163265307 110.77251205575868 156.73469387755102 93.05722482543604 163.26530612244898 88.01891198711618 169.79591836734696 78.10635534092 176.32653061224488 68.78378676010016 182.85714285714283 65.97377636601666 189.3877551020408 62.13345068064905 195.9183673469388 59.189141471031405 202.44897959183675 46.68389756780732 208.97959183673467 33.29407249817967 215.51020408163265 31.64636666288169 222.0408163265306 27.414637627766297 228.57142857142858 27.528913900015027 235.10204081632654 25.25112250944676 241.63265306122446 14.5743832575709 248.16326530612244 11.080117565530543 254.69387755102042 11.276926961374159 261.2244897959184 14.289803563365012 267.7551020408163 9.55772316210647 274.2857142857143 11.980968147153362 280.81632653061223 11.39467274668317 287.3469387755102 12.653594061597175 293.8775510204082 15.358105215015087 300.40816326530614 18.82011372701112 306.9387755102041 19.161533586907694 313.46938775510205 13.09913270860784 320 14.350634201020341 326.53061224489795 12.290332966146366 333.0612244897959 7.996626092153349 339.5918367346939 2.910333912639544 346.12244897959187 5.60535279281811 352.65306122448976 0.9487721409602727 359.1836734693877 0.8577562956896827 365.71428571428567 3.965831707221014 372.2448979591837 11.928689341395739 378.7755102040816 14.282090021778004 385.3061224489796 18.807275745103823 391.8367346938776 22.050628846724635 398.36734693877554 22.282139049171292 404.8979591836735 27.75907974452457 411.42857142857144 31.352333301786814 417.95918367346934 37.39956293250549 424.48979591836735 43.43528004888344 431.0204081632653 47.57285213780847 437.55102040816325 40.23043471247496 444.0816326530612 44.29425593430773 450.61224489795916 52.22960072639091 457.14285714285717 59.6337791285938 463.6734693877551 58.161132858543965 470.2040816326531 60.94696484437202 476.7346938775511 67.31090134327192 483.2653061224489 71.35402955202113 489.7959183673469 78.72179888189532 496.3265306122449 76.56695089932751 502.85714285714283 77.1695727761738 509.38775510204084 77.16448162182797 515.9183673469388 76.54434142077932 522.4489795918367 80.42818778374146 528.9795918367347 87.26853839743728 535.5102040816327 90.4386228874196 542.0408163265306 86.05375169885505 548.5714285714286 88.51944478630566 555.1020408163265 95.56021333975116 561.6326530612245 96.96516698671917 568.1632653061224 97.8028611043323 574.6938775510204 101.49608501617371 581.2244897959183 101.32461203485948 587.7551020408164 102.32617090798061 594.2857142857143 102.90813098860852 600.8163265306123 105.03854657685702 607.3469387755102 100.5192142672334 613.8775510204082 85.37678626387742 620.4081632653061 85.30629692814554 626.9387755102041 87.09568729924592 633.469387755102 86.0414412848358 640 88.16496754000747 640 320 0 320"
      />
      
      <polygon
        fill="#89e051"
        fillRule="evenodd"
        points="0 313.6135491334534 6.530612244897958 304.90984282137555 13.061224489795917 298.3344736620407 19.591836734693878 288.07681873755314 26.122448979591834 281.2713438916963 32.6530612244898 277.35298076044444 39.183673469387756 269.99993587282677 45.71428571428571 260.07175146934844 52.24489795918367 250.17317669356987 58.775510204081634 235.18160446899645 65.3061224489796 226.78747863613714 71.83673469387755 213.32786858497568 78.36734693877551 205.813657299833 84.89795918367348 200.42203512191503 91.42857142857142 190.4508705373492 97.9591836734694 178.68464855889513 104.48979591836734 164.7808151769439 111.0204081632653 162.39418654135795 117.55102040816327 158.35645205038531 124.08163265306122 150.82940910255962 130.6122448979592 146.47026389411022 137.14285714285714 132.5869454576199 143.6734693877551 135.7063463976456 150.20408163265307 119.05180968196356 156.73469387755102 102.43439303498081 163.26530612244898 97.17061962496786 169.79591836734696 87.08404952380312 176.32653061224488 77.51850111831601 182.85714285714283 74.59630034674285 189.3877551020408 71.29270799335472 195.9183673469388 68.1274776756081 202.44897959183675 55.43676094364082 208.97959183673467 42.60293616117286 215.51020408163265 40.816258356651474 222.0408163265306 36.304623032761015 228.57142857142858 36.6572933251349 235.10204081632654 34.26572404463735 241.63265306122446 23.330660042028455 248.16326530612244 19.768545404093913 254.69387755102042 20.331769111237293 261.2244897959184 23.771618743393958 267.7551020408163 19.357983062341987 274.2857142857143 21.65729367415321 280.81632653061223 22.19770455627628 287.3469387755102 24.033512478970124 293.8775510204082 26.401696637754355 300.40816326530614 29.526604229958537 306.9387755102041 29.794677007836242 313.46938775510205 23.46952391449861 320 24.701131564132652 326.53061224489795 22.40428224188281 333.0612244897959 17.801855060451942 339.5918367346939 12.431422814651228 346.12244897959187 14.835816974170257 352.65306122448976 10.202335912702608 359.1836734693877 9.855812354954026 365.71428571428567 12.717383972457242 372.2448979591837 20.455471423034737 378.7755102040816 22.802213798816297 385.3061224489796 27.111421280414618 391.8367346938776 30.80859384020357 398.36734693877554 30.772775167964028 404.8979591836735 35.998777926129605 411.42857142857144 39.3405187536743 417.95918367346934 45.23251473920163 424.48979591836735 51.02913809696179 431.0204081632653 55.06970033188031 437.55102040816325 47.53782742523691 444.0816326530612 51.37859338791361 450.61224489795916 59.10456327075633 457.14285714285717 66.29888896871282 463.6734693877551 64.91768136014716 470.2040816326531 67.49727359398761 476.7346938775511 73.66126346626368 483.2653061224489 78.63270524364401 489.7959183673469 85.77829681314745 496.3265306122449 83.41489593425297 502.85714285714283 83.84693060870654 509.38775510204084 83.6380182698683 515.9183673469388 82.83913290201679 522.4489795918367 87.04902092578197 528.9795918367347 93.69369701671789 535.5102040816327 96.66765693187011 542.0408163265306 92.09869132746701 548.5714285714286 94.37986584041556 555.1020408163265 101.24174722432741 561.6326530612245 102.47878644389141 568.1632653061224 103.1481812265537 574.6938775510204 106.68342658658187 581.2244897959183 106.35361182649814 587.7551020408164 107.20166307604345 594.2857142857143 107.64900456783869 600.8163265306123 109.63470694041985 607.3469387755102 105.64594851726196 613.8775510204082 90.34702949721157 620.4081632653061 90.12964727582016 626.9387755102041 91.77180742771154 633.469387755102 90.57482606345599 640 92.61291178262294 640 320 0 320"
      />
      
      <polygon
        fill="#0141ae"
        fillRule="evenodd"
        points="0 313.6957872643564 6.530612244897958 304.9895706861603 13.061224489795917 298.4118452062581 19.591836734693878 288.1545911415054 26.122448979591834 281.34681777491926 32.6530612244898 277.42615084253265 39.183673469387756 270.0708724841775 45.71428571428571 260.16868220050196 52.24489795918367 250.62553194123552 58.775510204081634 236.59145083916715 65.3061224489796 228.1653167482141 71.83673469387755 215.56290546248366 78.36734693877551 209.3478696608929 84.89795918367348 203.84836681644 91.42857142857142 193.80954820579217 97.9591836734694 182.16690857354348 104.48979591836734 169.20012552447633 111.0204081632653 166.68970441563397 117.55102040816327 162.52085136406345 124.08163265306122 154.87477570600632 130.6122448979592 151.50322249994107 137.14285714285714 138.33049251016132 143.6734693877551 141.27457422770505 150.20408163265307 124.45547186247768 156.73469387755102 107.98202533148833 163.26530612244898 102.61894484963 169.79591836734696 92.52514000730886 176.32653061224488 83.01585910502365 182.85714285714283 79.93118778931884 189.3877551020408 76.46475118417823 195.9183673469388 73.61547509301292 202.44897959183675 61.01127131564783 208.97959183673467 50.21112189433643 215.51020408163265 49.30669719234493 222.0408163265306 44.53589558200105 228.57142857142858 46.726453172237825 235.10204081632654 45.535824208286215 241.63265306122446 38.061789065288224 248.16326530612244 34.37981055931493 254.69387755102042 35.18776086856701 261.2244897959184 40.45909123544084 267.7551020408163 36.76705650810379 274.2857142857143 38.53496865174526 280.81632653061223 38.69009077855469 287.3469387755102 40.022476415079325 293.8775510204082 41.96020220894371 300.40816326530614 45.10750759801306 306.9387755102041 44.917876392947505 313.46938775510205 38.14226947056517 320 38.92599824660647 326.53061224489795 36.36868488501568 333.0612244897959 33.69978414892074 339.5918367346939 28.417272349333757 346.12244897959187 30.37270566076245 352.65306122448976 26.29391377585722 359.1836734693877 25.536684823504288 365.71428571428567 28.08392692295007 372.2448979591837 35.36786559643588 378.7755102040816 37.58865196097224 385.3061224489796 41.460854772309574 391.8367346938776 45.374282489426264 398.36734693877554 45.021891231391066 404.8979591836735 49.826779856433006 411.42857142857144 53.200704544580105 417.95918367346934 58.85805797141711 424.48979591836735 64.6253580735144 431.0204081632653 68.63085940263267 437.55102040816325 63.21848617042963 444.0816326530612 66.93865975612283 450.61224489795916 74.20476273454318 457.14285714285717 80.93817140658007 463.6734693877551 80.26622839292747 470.2040816326531 82.74322108494852 476.7346938775511 88.44182937366756 483.2653061224489 93.40757973913696 489.7959183673469 100.1021739235565 496.3265306122449 98.34480309277978 502.85714285714283 99.94030354256137 509.38775510204084 99.8633068085924 515.9183673469388 98.67418314017073 522.4489795918367 102.40071318547322 528.9795918367347 108.59167616616176 535.5102040816327 111.11088928982753 542.0408163265306 106.11505546190514 548.5714285714286 107.96838663851554 555.1020408163265 114.41548647128744 561.6326530612245 115.26319057697015 568.1632653061224 115.68604210898451 574.6938775510204 118.85074100154748 581.2244897959183 118.14952642184264 587.7551020408164 118.63751741715919 594.2857142857143 118.79933333990158 600.8163265306123 120.44468126557854 607.3469387755102 116.14472416604812 613.8775510204082 101.00072991983677 620.4081632653061 100.55550010400256 626.9387755102041 102.30519855405035 633.469387755102 102.3774683207408 640 104.60017403025296 640 320 0 320"
      />
      
      <polygon
        fill="#26c0b0"
        fillRule="evenodd"
        points="0 313.6957872643564 6.530612244897958 305.07507180451677 13.061224489795917 298.52241830416557 19.591836734693878 288.39203126702006 26.122448979591834 281.7296669603078 32.6530612244898 277.8556794697464 39.183673469387756 270.5454011500084 45.71428571428571 260.80008846542535 52.24489795918367 251.72753077617946 58.775510204081634 237.79093547359463 65.3061224489796 230.20547388669814 71.83673469387755 218.21679778713175 78.36734693877551 212.42850649611682 84.89795918367348 207.47604646410335 91.42857142857142 198.30982148223694 97.9591836734694 186.52981373071097 104.48979591836734 173.80643353470677 111.0204081632653 171.1554070142299 117.55102040816327 166.87834151116218 124.08163265306122 159.3524830839451 130.6122448979592 156.04886760116867 137.14285714285714 143.123623402594 143.6734693877551 145.9242219440441 150.20408163265307 128.96770111124852 156.73469387755102 112.62420557426478 163.26530612244898 107.34723474692288 169.79591836734696 97.39187516905076 176.32653061224488 88.07448609159991 182.85714285714283 84.90347670454028 189.3877551020408 81.47885271101791 195.9183673469388 78.54016987153949 202.44897959183675 65.83897637948425 208.97959183673467 55.257911072943045 215.51020408163265 54.27450860322563 222.0408163265306 49.445862971663075 228.57142857142858 52.03141934475627 235.10204081632654 50.75682792677037 241.63265306122446 43.2876064913948 248.16326530612244 39.6242327064482 254.69387755102042 40.27210083008936 261.2244897959184 46.01534881069989 267.7551020408163 42.22623189221986 274.2857142857143 45.29496292873097 280.81632653061223 46.22628975831992 287.3469387755102 47.3423966046455 293.8775510204082 49.12230619424713 300.40816326530614 52.196410305838185 306.9387755102041 51.8479111309868 313.46938775510205 44.899194659586044 320 45.5404515409208 326.53061224489795 42.90207404007765 333.0612244897959 40.52983293519958 339.5918367346939 35.11167975721207 346.12244897959187 37.186582370481005 352.65306122448976 32.913550478101854 359.1836734693877 31.97354171406255 365.71428571428567 34.32993584232264 372.2448979591837 41.451222204071314 378.7755102040816 43.650587939593606 385.3061224489796 47.72240785312806 391.8367346938776 51.45027797141984 398.36734693877554 51.04925879269916 404.8979591836735 55.67601454780731 411.42857142857144 59.077713202778114 417.95918367346934 64.64974723776362 424.48979591836735 70.24025774177969 431.0204081632653 74.11934201315975 437.55102040816325 68.67697661228539 444.0816326530612 72.31790959162365 450.61224489795916 79.4359281766661 457.14285714285717 86.08175743509693 463.6734693877551 85.88883525427124 470.2040816326531 88.9521369798467 476.7346938775511 94.47238141300323 483.2653061224489 100.00814101521024 489.7959183673469 106.58875961559485 496.3265306122449 104.63967996060865 502.85714285714283 106.09850730303145 509.38775510204084 105.83353563576173 515.9183673469388 104.49615741728906 522.4489795918367 108.04497423025015 528.9795918367347 114.0802183726251 535.5102040816327 116.43189807187235 542.0408163265306 111.27880423417486 548.5714285714286 112.97451309881848 555.1020408163265 119.26880586852019 561.6326530612245 119.97307139230986 568.1632653061224 120.25215553726565 574.6938775510204 123.28190713858208 581.2244897959183 122.6886059004255 587.7551020408164 123.03804271458202 594.2857142857143 123.07835187372606 600.8163265306123 124.5959104938571 607.3469387755102 120.7548412813689 613.8775510204082 105.47012510319252 620.4081632653061 104.89280500474484 626.9387755102041 106.5101107741786 633.469387755102 106.4540268207063 640 108.5999039152554 640 320 0 320"
      />
      
      <polygon
        fill="#dea584"
        fillRule="evenodd"
        points="0 313.6957872643564 6.530612244897958 305.07507180451677 13.061224489795917 298.52241830416557 19.591836734693878 288.39203126702006 26.122448979591834 281.7296669603078 32.6530612244898 277.8556794697464 39.183673469387756 270.5454011500084 45.71428571428571 260.80008846542535 52.24489795918367 251.72753077617946 58.775510204081634 237.79093547359463 65.3061224489796 230.20547388669814 71.83673469387755 218.60519229218622 78.36734693877551 212.8050454890984 84.89795918367348 207.84109183619734 91.42857142857142 198.66407811979195 97.9591836734694 187.99625568998772 104.48979591836734 176.33188695810392 111.0204081632653 173.60377247758976 117.55102040816327 169.25197182094686 124.08163265306122 162.7598252526482 130.6122448979592 159.3522028391925 137.14285714285714 148.5573213184639 143.6734693877551 151.1920593345264 150.20408163265307 136.3270974434775 156.73469387755102 123.0743057283681 163.26530612244898 117.47835011833541 169.79591836734696 107.22357192565329 176.32653061224488 98.72225620481103 182.85714285714283 95.23655664152807 189.3877551020408 91.49652166920868 195.9183673469388 88.25205619094262 202.44897959183675 76.38152524343937 208.97959183673467 66.5827614067068 215.51020408163265 65.2646604526893 222.0408163265306 60.100543644687775 228.57142857142858 62.37120742087768 235.10204081632654 60.78100106214055 241.63265306122446 53.00579713608772 248.16326530612244 49.05520690152491 254.69387755102042 49.41519942394456 261.2244897959184 54.8882291544773 267.7551020408163 51.931231284680734 274.2857142857143 54.70372273857379 280.81632653061223 55.37525957941102 287.3469387755102 56.212099354753605 293.8775510204082 57.729868512428425 300.40816326530614 60.54123263642384 306.9387755102041 61.064136404648366 313.46938775510205 54.08991759911072 320 54.4506317481721 326.53061224489795 51.548920355403084 333.0612244897959 48.91273912407536 339.5918367346939 43.24683330894072 346.12244897959187 45.07341404111969 352.65306122448976 41.66890866312832 359.1836734693877 40.4871500112439 365.71428571428567 42.583671949460836 372.2448979591837 49.46102289653015 378.7755102040816 51.477766133087414 385.3061224489796 55.31825774124775 391.8367346938776 58.814269355836245 398.36734693877554 58.18846869084075 404.8979591836735 62.6042281162363 411.42857142857144 65.79444699514977 417.95918367346934 71.1679712820845 424.48979591836735 76.55951767041185 431.0204081632653 80.24571075475774 437.55102040816325 74.62823153187824 444.0816326530612 78.08750500037979 450.61224489795916 85.03500604862393 457.14285714285717 91.50992690311594 463.6734693877551 91.15657862702659 470.2040816326531 94.05908537904327 476.7346938775511 99.42344297499699 483.2653061224489 104.8128777024678 489.7959183673469 111.24683265604415 496.3265306122449 109.16008782686404 502.85714285714283 110.48093084857913 509.38775510204084 110.08218890980373 515.9183673469388 108.62749876238271 522.4489795918367 112.05020821097091 528.9795918367347 117.9670797194841 535.5102040816327 120.20011469859514 542.0408163265306 116.05402069092517 548.5714285714286 117.60396827343646 555.1020408163265 123.75694941965924 561.6326530612245 124.68674518073644 568.1632653061224 124.82194798709355 574.6938775510204 127.71664245568786 581.2244897959183 126.98797336392784 587.7551020408164 127.20617427514304 594.2857142857143 127.15635321185829 600.8163265306123 128.54943153942742 607.3469387755102 124.59151873984842 613.8775510204082 109.18968976535217 620.4081632653061 108.50244074969194 626.9387755102041 110.00956431918405 633.469387755102 109.84666215086776 640 111.92859855992077 640 320 0 320"
      />
      
      <polygon
        fill="#701516"
        fillRule="evenodd"
        points="0 313.6957872643564 6.530612244897958 305.07507180451677 13.061224489795917 298.52241830416557 19.591836734693878 288.39203126702006 26.122448979591834 281.7296669603078 32.6530612244898 277.8556794697464 39.183673469387756 270.5454011500084 45.71428571428571 260.80008846542535 52.24489795918367 251.72753077617946 58.775510204081634 237.79093547359463 65.3061224489796 230.20547388669814 71.83673469387755 218.60519229218622 78.36734693877551 212.8050454890984 84.89795918367348 207.84109183619734 91.42857142857142 198.66407811979195 97.9591836734694 187.99625568998772 104.48979591836734 176.33188695810392 111.0204081632653 173.60377247758976 117.55102040816327 169.25197182094686 124.08163265306122 162.7598252526482 130.6122448979592 159.3522028391925 137.14285714285714 148.5573213184639 143.6734693877551 151.1920593345264 150.20408163265307 136.3270974434775 156.73469387755102 123.0743057283681 163.26530612244898 117.47835011833541 169.79591836734696 107.22357192565329 176.32653061224488 98.72225620481103 182.85714285714283 95.23655664152807 189.3877551020408 91.49652166920868 195.9183673469388 88.25205619094262 202.44897959183675 76.38152524343937 208.97959183673467 66.5827614067068 215.51020408163265 65.2646604526893 222.0408163265306 60.100543644687775 228.57142857142858 62.37120742087768 235.10204081632654 60.78100106214055 241.63265306122446 53.00579713608772 248.16326530612244 49.05520690152491 254.69387755102042 49.41519942394456 261.2244897959184 54.8882291544773 267.7551020408163 51.931231284680734 274.2857142857143 54.70372273857379 280.81632653061223 55.37525957941102 287.3469387755102 56.212099354753605 293.8775510204082 57.729868512428425 300.40816326530614 60.54123263642384 306.9387755102041 61.064136404648366 313.46938775510205 54.08991759911072 320 54.4506317481721 326.53061224489795 51.548920355403084 333.0612244897959 48.91273912407536 339.5918367346939 43.24683330894072 346.12244897959187 45.07341404111969 352.65306122448976 41.66890866312832 359.1836734693877 40.4871500112439 365.71428571428567 42.583671949460836 372.2448979591837 49.46102289653015 378.7755102040816 51.477766133087414 385.3061224489796 55.31825774124775 391.8367346938776 58.814269355836245 398.36734693877554 58.18846869084075 404.8979591836735 62.6042281162363 411.42857142857144 65.79444699514977 417.95918367346934 71.1679712820845 424.48979591836735 76.55951767041185 431.0204081632653 80.24571075475774 437.55102040816325 74.62823153187824 444.0816326530612 78.08750500037979 450.61224489795916 85.03500604862393 457.14285714285717 91.50992690311594 463.6734693877551 91.15657862702659 470.2040816326531 94.05908537904327 476.7346938775511 99.42344297499699 483.2653061224489 104.8128777024678 489.7959183673469 111.24683265604415 496.3265306122449 109.16008782686404 502.85714285714283 110.48093084857913 509.38775510204084 110.08218890980373 515.9183673469388 108.62749876238271 522.4489795918367 112.05020821097091 528.9795918367347 117.9670797194841 535.5102040816327 120.20011469859514 542.0408163265306 116.05402069092517 548.5714285714286 117.60396827343646 555.1020408163265 123.75694941965924 561.6326530612245 124.68674518073644 568.1632653061224 124.82194798709355 574.6938775510204 127.71664245568786 581.2244897959183 126.98797336392784 587.7551020408164 127.20617427514304 594.2857142857143 127.15635321185829 600.8163265306123 128.54943153942742 607.3469387755102 124.59151873984842 613.8775510204082 109.20924599920687 620.4081632653061 108.52141900879931 626.9387755102041 110.02796327907575 633.469387755102 109.86449949201403 640 111.94609972552826 640 320 0 320"
      />
      
      <polygon
        fill="#3572A5"
        fillRule="evenodd"
        points="0 313.6957872643564 6.530612244897958 305.07507180451677 13.061224489795917 298.52241830416557 19.591836734693878 288.39203126702006 26.122448979591834 281.7296669603078 32.6530612244898 277.8556794697464 39.183673469387756 270.5454011500084 45.71428571428571 260.80008846542535 52.24489795918367 251.72753077617946 58.775510204081634 237.79093547359463 65.3061224489796 230.20547388669814 71.83673469387755 218.60519229218622 78.36734693877551 212.8050454890984 84.89795918367348 207.84109183619734 91.42857142857142 198.66407811979195 97.9591836734694 187.99625568998772 104.48979591836734 176.33188695810392 111.0204081632653 173.60377247758976 117.55102040816327 169.25197182094686 124.08163265306122 163.42145317169806 130.6122448979592 159.99363492846967 137.14285714285714 149.21621539724066 143.6734693877551 151.83084104866668 150.20408163265307 137.9482429523678 156.73469387755102 125.4398750712665 163.26530612244898 119.77171179186496 169.79591836734696 109.44915462713794 176.32653061224488 100.87990426555533 182.85714285714283 97.33043653673647 189.3877551020408 93.52648687507937 195.9183673469388 90.22005806338103 202.44897959183675 78.29518743846171 208.97959183673467 68.4738810278395 215.51020408163265 67.09988884703137 222.0408163265306 61.87975278372795 228.57142857142858 64.09783290758855 235.10204081632654 62.45492236887873 241.63265306122446 54.628623044876804 248.16326530612244 50.63007092559184 254.69387755102042 50.941991619062094 261.2244897959184 56.36989787546361 267.7551020408163 53.4035064530961 274.2857142857143 56.131057638985965 280.81632653061223 56.76318337893224 287.3469387755102 57.557657533468955 293.8775510204082 59.035659453157905 300.40816326530614 61.80716499298245 306.9387755102041 62.29265484344148 313.46938775510205 55.280936219788714 320 55.60529510096569 326.53061224489795 52.66945845859544 333.0612244897959 49.999073372681664 339.5918367346939 44.301061582668126 346.12244897959187 46.095462564309344 352.65306122448976 42.659759741211985 359.1836734693877 41.45064223902517 365.71428571428567 43.517753993713654 372.2448979591837 50.36749866459354 378.7755102040816 52.37890374928952 385.3061224489796 56.19276265280507 391.8367346938776 59.66208052828989 398.36734693877554 59.01040090339086 404.8979591836735 63.401868614168166 411.42857142857144 66.56773987131007 417.95918367346934 71.91840999008514 424.48979591836735 77.28704965280212 431.0204081632653 80.95103523627239 437.55102040816325 75.31339529384678 444.0816326530612 78.75175456521521 450.61224489795916 85.67962405445127 457.14285714285717 92.1348682830772 463.6734693877551 91.76305025020642 470.2040816326531 94.64704480902503 476.7346938775511 99.99345526345758 483.2653061224489 105.36604362745021 489.7959183673469 111.78311357266622 496.3265306122449 109.6805191734174 502.85714285714283 110.98547638456938 509.38775510204084 110.57133340707156 515.9183673469388 109.10313711482158 522.4489795918367 112.51132806857697 528.9795918367347 118.41457138389376 535.5102040816327 120.6339469744184 542.0408163265306 116.47503130179751 548.5714285714286 118.01212772964462 555.1020408163265 124.15265003714137 561.6326530612245 125.07075106159644 568.1632653061224 125.1942323645359 574.6938775510204 128.077924138905 581.2244897959183 127.33822712739845 587.7551020408164 127.54573674343038 594.2857142857143 127.48653979057718 600.8163265306123 128.86953936643604 607.3469387755102 124.90216599968332 613.8775510204082 109.52982715152638 620.4081632653061 108.83252555807456 626.9387755102041 110.32957346251487 633.469387755102 110.15690319247102 640 112.23299261031138 640 320 0 320"
      />
      
      <polygon
        fill="#0298c3"
        fillRule="evenodd"
        points="0 313.6957872643564 6.530612244897958 305.07507180451677 13.061224489795917 298.52241830416557 19.591836734693878 288.39203126702006 26.122448979591834 281.7296669603078 32.6530612244898 277.8556794697464 39.183673469387756 270.5454011500084 45.71428571428571 260.80008846542535 52.24489795918367 251.72753077617946 58.775510204081634 237.79093547359463 65.3061224489796 230.20547388669814 71.83673469387755 218.60519229218622 78.36734693877551 212.8050454890984 84.89795918367348 207.84109183619734 91.42857142857142 198.66407811979195 97.9591836734694 187.99625568998772 104.48979591836734 176.33188695810392 111.0204081632653 173.60377247758976 117.55102040816327 169.25197182094686 124.08163265306122 163.42145317169806 130.6122448979592 159.99363492846967 137.14285714285714 149.21621539724066 143.6734693877551 151.83084104866668 150.20408163265307 137.9482429523678 156.73469387755102 126.07798646470118 163.26530612244898 120.39034519885416 169.79591836734696 110.04950466877398 176.32653061224488 101.46192896780366 182.85714285714283 97.89525982757883 189.3877551020408 94.07406923624504 195.9183673469388 90.75092581946339 202.44897959183675 78.81139706026755 208.97959183673467 68.97433358685487 215.51020408163265 67.69002502885957 222.0408163265306 62.45187541566662 228.57142857142858 64.65304673389309 235.10204081632654 62.99318862136505 241.63265306122446 55.150459036821815 248.16326530612244 51.136484383176764 254.69387755102042 51.43294705187935 261.2244897959184 56.84634340348299 267.7551020408163 53.86540876424431 274.2857142857143 56.57886062023641 280.81632653061223 57.19862178578751 287.3469387755102 57.979804453892484 293.8775510204082 59.445330015705224 300.40816326530614 62.20433060187929 306.9387755102041 62.678082436736304 313.46938775510205 55.65459886628349 320 55.96755192782712 326.53061224489795 53.02100896798771 333.0612244897959 50.33989299669366 339.5918367346939 44.63180844538903 346.12244897959187 46.41611358772644 352.65306122448976 42.97062306714122 359.1836734693877 41.75292211638504 365.71428571428567 43.81080696107051 372.2448979591837 50.65189059563721 378.7755102040816 52.65461479240804 385.3061224489796 56.460325184662 391.8367346938776 59.92147588919215 398.36734693877554 59.261878348204164 404.8979591836735 63.6459137881219 411.42857142857144 66.80433570736108 417.95918367346934 72.14801336301088 424.48979591836735 77.5096445230756 431.0204081632653 81.16683551220405 437.55102040816325 75.5230272465252 444.0816326530612 78.95498762001819 450.61224489795916 85.87685067116922 457.14285714285717 92.32607466216834 463.6734693877551 91.94860562959647 470.2040816326531 94.82693621118506 476.7346938775511 100.16785559880395 483.2653061224489 105.53528964384822 489.7959183673469 111.94719344340507 496.3265306122449 109.83974975364981 502.85714285714283 111.13984655657066 509.38775510204084 110.72099150307201 515.9183673469388 109.2486629108044 522.4489795918367 112.65241176842528 528.9795918367347 118.55148543351271 535.5102040816327 120.76668180763261 542.0408163265306 116.60384322223348 548.5714285714286 118.13700773626095 555.1020408163265 124.27371816437383 561.6326530612245 125.18824106936731 568.1632653061224 125.30813607381671 574.6938775510204 128.1884614792508 581.2244897959183 127.44539037188781 587.7551020408164 127.64962889028143 594.2857142857143 127.58756331067013 600.8163265306123 128.9674792047524 607.3469387755102 127.49641728013188 613.8775510204082 116.37770026032194 620.4081632653061 115.57864990841631 626.9387755102041 117.07529913659346 633.469387755102 116.69671946100169 640 118.6495526662602 640 320 0 320"
      />
      
      <polygon
        fill="#fd2fdb"
        fillRule="evenodd"
        points="0 313.6957872643564 6.530612244897958 305.07507180451677 13.061224489795917 298.52241830416557 19.591836734693878 288.39203126702006 26.122448979591834 281.7296669603078 32.6530612244898 277.8556794697464 39.183673469387756 270.5454011500084 45.71428571428571 260.80008846542535 52.24489795918367 251.72753077617946 58.775510204081634 237.79093547359463 65.3061224489796 230.20547388669814 71.83673469387755 218.60519229218622 78.36734693877551 212.8050454890984 84.89795918367348 207.84109183619734 91.42857142857142 198.66407811979195 97.9591836734694 187.99625568998772 104.48979591836734 176.33188695810392 111.0204081632653 173.60377247758976 117.55102040816327 169.25197182094686 124.08163265306122 163.42145317169806 130.6122448979592 159.99363492846967 137.14285714285714 149.21621539724066 143.6734693877551 151.83084104866668 150.20408163265307 137.9482429523678 156.73469387755102 126.07798646470118 163.26530612244898 120.39034519885416 169.79591836734696 110.04950466877398 176.32653061224488 101.46192896780366 182.85714285714283 97.89525982757883 189.3877551020408 94.07406923624504 195.9183673469388 90.75092581946339 202.44897959183675 78.81139706026755 208.97959183673467 68.97433358685487 215.51020408163265 67.69002502885957 222.0408163265306 62.45187541566662 228.57142857142858 64.65304673389309 235.10204081632654 62.99318862136505 241.63265306122446 55.150459036821815 248.16326530612244 51.136484383176764 254.69387755102042 51.43294705187935 261.2244897959184 56.84634340348299 267.7551020408163 53.86540876424431 274.2857142857143 56.57886062023641 280.81632653061223 58.32822535564662 287.3469387755102 59.074927561820004 293.8775510204082 60.50808728992166 300.40816326530614 63.23464785571912 306.9387755102041 64.5587100905422 313.46938775510205 57.47782145376664 320 57.73512156951301 326.53061224489795 54.73633896974866 333.0612244897959 52.00286375565082 339.5918367346939 46.245630949486326 346.12244897959187 47.98067501569153 352.65306122448976 44.48742718884802 359.1836734693877 43.22784478289208 365.71428571428567 45.24070849405399 372.2448979591837 52.039532033722594 378.7755102040816 53.999899343574725 385.3061224489796 57.765850615220415 391.8367346938776 61.18715085295719 398.36734693877554 60.48891921878487 404.8979591836735 64.83669012049359 411.42857142857144 67.95876437546778 417.95918367346934 73.2683235117471 424.48979591836735 78.59575785571127 431.0204081632653 82.21979583101216 437.55102040816325 76.54589028176065 444.0816326530612 79.94662824150541 450.61224489795916 86.83918396349384 457.14285714285717 93.25903322027142 463.6734693877551 92.85399110028152 470.2040816326531 95.70468540220935 476.7346938775511 101.01881189541697 483.2653061224489 106.3610963526159 489.7959183673469 112.74779292067191 496.3265306122449 110.61668800020317 502.85714285714283 111.8930691859812 509.38775510204084 111.45122246211272 515.9183673469388 109.95873098223993 522.4489795918367 113.34080542463482 528.9795918367347 119.2195339926796 535.5102040816327 121.41433855887306 542.0408163265306 117.23235881709496 548.5714285714286 118.74633826897877 555.1020408163265 124.8644492163973 561.6326530612245 125.7615133480167 568.1632653061224 125.86390958816384 574.6938775510204 128.7278093671544 581.2244897959183 127.96827498515651 587.7551020408164 128.15655274595966 594.2857142857143 128.08049018733342 600.8163265306123 129.44535977209102 607.3469387755102 127.96017436066819 613.8775510204082 116.82730138454585 620.4081632653061 116.01496332746788 626.9387755102041 117.49829434351841 633.469387755102 117.10680298228652 640 119.05190743717779 640 320 0 320"
      />
      
      <polygon
        fill="#4F5D95"
        fillRule="evenodd"
        points="0 313.6957872643564 6.530612244897958 305.07507180451677 13.061224489795917 298.52241830416557 19.591836734693878 288.39203126702006 26.122448979591834 281.7296669603078 32.6530612244898 277.8556794697464 39.183673469387756 270.5454011500084 45.71428571428571 260.80008846542535 52.24489795918367 251.72753077617946 58.775510204081634 237.79093547359463 65.3061224489796 230.20547388669814 71.83673469387755 218.60519229218622 78.36734693877551 212.8050454890984 84.89795918367348 207.84109183619734 91.42857142857142 198.66407811979195 97.9591836734694 187.99625568998772 104.48979591836734 176.33188695810392 111.0204081632653 173.60377247758976 117.55102040816327 169.25197182094686 124.08163265306122 163.42145317169806 130.6122448979592 159.99363492846967 137.14285714285714 149.21621539724066 143.6734693877551 151.83084104866668 150.20408163265307 137.9482429523678 156.73469387755102 126.07798646470118 163.26530612244898 120.39034519885416 169.79591836734696 110.04950466877398 176.32653061224488 101.46192896780366 182.85714285714283 97.89525982757883 189.3877551020408 94.07406923624504 195.9183673469388 90.75092581946339 202.44897959183675 78.81139706026755 208.97959183673467 68.97433358685487 215.51020408163265 67.69002502885957 222.0408163265306 62.45187541566662 228.57142857142858 64.67267380676572 235.10204081632654 63.012216588620845 241.63265306122446 55.168906186193055 248.16326530612244 51.15438633659306 254.69387755102042 51.45030255988115 261.2244897959184 56.86318597850919 267.7551020408163 53.88173722876138 274.2857142857143 56.59469066749847 280.81632653061223 58.343618309872056 287.3469387755102 59.08985065449144 293.8775510204082 60.52256933875691 300.40816326530614 63.248687848614736 306.9387755102041 64.57233513953912 313.46938775510205 57.49103060532991 320 57.74792751963207 326.53061224489795 54.74876644662697 333.0612244897959 52.014911891037286 339.5918367346939 46.257323008401386 346.12244897959187 47.9920101812599 352.65306122448976 44.49841635530947 359.1836734693877 43.23853052024049 365.71428571428567 45.25106805565076 372.2448979591837 52.049585423251926 378.7755102040816 54.009645859756915 385.3061224489796 57.77530907804112 391.8367346938776 61.19632060223722 398.36734693877554 60.49780906650267 404.8979591836735 64.84531723336141 411.42857142857144 67.96712815084734 417.95918367346934 73.27644010013714 424.48979591836735 78.60362668940917 431.0204081632653 82.22742447356416 437.55102040816325 76.55330087100211 444.0816326530612 79.95381262615072 450.61224489795916 86.846156017066 457.14285714285717 93.2657924563442 463.6734693877551 92.86055057057058 470.2040816326531 95.71104464854523 476.7346938775511 101.0249770296711 483.2653061224489 106.36707927959031 489.7959183673469 112.75359322227033 496.3265306122449 110.62231687707077 502.85714285714283 111.8985262445793 509.38775510204084 111.45651294688375 515.9183673469388 109.96387538832909 522.4489795918367 113.34579280036408 528.9795918367347 119.22437396926597 535.5102040816327 121.41903079816103 542.0408163265306 117.23691237961907 548.5714285714286 118.75075283651728 555.1020408163265 124.8687290317699 561.6326530612245 125.76566667574122 568.1632653061224 125.86793613827521 574.6938775510204 128.73171691445629 581.2244897959183 127.97206325674054 587.7551020408164 128.16022538293208 594.2857142857143 128.08406141678552 600.8163265306123 129.44882199184184 607.3469387755102 127.96353425625153 613.8775510204082 116.83055872137973 620.4081632653061 116.01812439538963 626.9387755102041 117.50135892150936 633.469387755102 117.1097740158244 640 119.05482247642902 640 320 0 320"
      />
      
      <polygon
        fill="#755462"
        fillRule="evenodd"
        points="0 318.02122363439634 6.530612244897958 313.52736410343533 13.061224489795917 310.89612218022074 19.591836734693878 304.6063541534758 26.122448979591834 301.51235715264124 32.6530612244898 299.63474618727867 39.183673469387756 295.68732577990454 45.71428571428571 289.6072474304619 52.24489795918367 284.8540449624722 58.775510204081634 274.4471063226281 65.3061224489796 270.19675457467844 71.83673469387755 262.95236051033845 78.36734693877551 259.7806205490266 84.89795918367348 257.29398159927246 91.42857142857142 251.48860078308434 97.9591836734694 243.11579217001446 104.48979591836734 233.69073046722195 111.0204081632653 232.44227930443955 117.55102040816327 230.48712511366082 124.08163265306122 226.74326569543518 130.6122448979592 225.02608715103395 137.14285714285714 216.7621981568958 143.6734693877551 218.75154221776597 150.20408163265307 208.35863657137753 156.73469387755102 198.35247520829392 163.26530612244898 194.34756322030663 169.79591836734696 186.11870300153893 176.32653061224488 178.699043248308 182.85714285714283 176.47501917578407 189.3877551020408 173.87226750089593 195.9183673469388 171.38700184701602 202.44897959183675 162.65603609374008 208.97959183673467 154.12866113528705 215.51020408163265 153.54792267774542 222.0408163265306 149.77117331037482 228.57142857142858 151.9917867485683 235.10204081632654 150.24039126930052 241.63265306122446 143.4642416642677 248.16326530612244 140.697952534137 254.69387755102042 142.92923548417147 261.2244897959184 147.0536825042066 267.7551020408163 144.4472154953513 274.2857142857143 147.14074374142223 280.81632653061223 149.5342271221449 287.3469387755102 150.79097572437854 293.8775510204082 152.38219904872196 300.40816326530614 155.0354718016867 306.9387755102041 154.4904679614541 313.46938775510205 148.8868138408543 320 148.9629912160865 326.53061224489795 145.90470686426588 333.0612244897959 141.789038325639 339.5918367346939 137.45869402474642 346.12244897959187 139.37109627947535 352.65306122448976 135.06412478551513 359.1836734693877 134.1877552404148 365.71428571428567 137.0970677639911 372.2448979591837 142.45242843487262 378.7755102040816 144.39923391314463 385.3061224489796 146.97575783777478 391.8367346938776 149.826159850303 398.36734693877554 149.06458348383185 404.8979591836735 151.71944375951128 411.42857142857144 154.19232685746357 417.95918367346934 158.30294875055856 424.48979591836735 162.4216016789946 431.0204081632653 164.48560427156121 437.55102040816325 158.22327391588192 444.0816326530612 161.34782874329923 450.61224489795916 165.8746933154882 457.14285714285717 170.0707539978105 463.6734693877551 168.56358016839377 470.2040816326531 169.21376967499836 476.7346938775511 173.47276048069097 483.2653061224489 177.1537729427028 489.7959183673469 181.49373982951437 496.3265306122449 177.55140360540554 502.85714285714283 179.1101758019229 509.38775510204084 179.84346629302826 515.9183673469388 178.8520511085826 522.4489795918367 181.19125541479127 528.9795918367347 185.21847341162677 535.5102040816327 189.1942688493736 542.0408163265306 186.26902256105586 548.5714285714286 186.9421904111459 555.1020408163265 190.9833304296937 561.6326530612245 194.30443553187877 568.1632653061224 196.5901151453746 574.6938775510204 200.1984957690789 581.2244897959183 201.5901454654333 587.7551020408164 203.64800370669832 594.2857142857143 205.75048221661433 600.8163265306123 209.18374272991474 607.3469387755102 208.11708870348104 613.8775510204082 198.6392361702796 620.4081632653061 199.16125144324113 626.9387755102041 200.6240240129074 633.469387755102 202.12370278611823 640 203.59906231549832 640 320 0 320"
      />
      
      <polygon
        fill="#2415b9"
        fillRule="evenodd"
        points="0 318.02122363439634 6.530612244897958 313.52736410343533 13.061224489795917 310.89612218022074 19.591836734693878 304.6063541534758 26.122448979591834 301.51235715264124 32.6530612244898 299.63474618727867 39.183673469387756 295.68732577990454 45.71428571428571 289.6072474304619 52.24489795918367 284.8540449624722 58.775510204081634 274.4471063226281 65.3061224489796 270.19675457467844 71.83673469387755 262.95236051033845 78.36734693877551 259.7806205490266 84.89795918367348 257.29398159927246 91.42857142857142 251.48860078308434 97.9591836734694 243.11579217001446 104.48979591836734 233.69073046722195 111.0204081632653 232.44227930443955 117.55102040816327 230.48712511366082 124.08163265306122 226.74326569543518 130.6122448979592 225.02608715103395 137.14285714285714 216.7621981568958 143.6734693877551 218.75154221776597 150.20408163265307 208.35863657137753 156.73469387755102 198.35247520829392 163.26530612244898 194.34756322030663 169.79591836734696 186.11870300153893 176.32653061224488 178.699043248308 182.85714285714283 176.47501917578407 189.3877551020408 173.87226750089593 195.9183673469388 171.38700184701602 202.44897959183675 162.65603609374008 208.97959183673467 154.12866113528705 215.51020408163265 153.54792267774542 222.0408163265306 149.77117331037482 228.57142857142858 151.9917867485683 235.10204081632654 150.24039126930052 241.63265306122446 143.4642416642677 248.16326530612244 140.697952534137 254.69387755102042 142.92923548417147 261.2244897959184 147.0536825042066 267.7551020408163 144.4472154953513 274.2857142857143 147.14074374142223 280.81632653061223 149.5342271221449 287.3469387755102 150.79097572437854 293.8775510204082 152.38219904872196 300.40816326530614 155.0354718016867 306.9387755102041 154.4904679614541 313.46938775510205 148.8868138408543 320 148.9629912160865 326.53061224489795 145.90470686426588 333.0612244897959 142.1486689753687 339.5918367346939 137.81832467447614 346.12244897959187 139.73072692920508 352.65306122448976 135.42375543524486 359.1836734693877 134.5473858901445 365.71428571428567 137.45669841372077 372.2448979591837 142.81205908460234 378.7755102040816 144.75886456287435 385.3061224489796 147.33538848750445 391.8367346938776 150.1857905000327 398.36734693877554 149.42421413356158 404.8979591836735 152.079074409241 411.42857142857144 154.5519575071933 417.95918367346934 158.66257940028828 424.48979591836735 162.7812323287243 431.0204081632653 164.8452349212909 437.55102040816325 158.58290456561164 444.0816326530612 161.70745939302893 450.61224489795916 166.23432396521792 457.14285714285717 170.4303846475402 463.6734693877551 168.9232108181235 470.2040816326531 169.57340032472808 476.7346938775511 173.8323911304207 483.2653061224489 177.5134035924325 489.7959183673469 181.8533704792441 496.3265306122449 177.91103425513526 502.85714285714283 179.4698064516526 509.38775510204084 180.20309694275798 515.9183673469388 179.2116817583123 522.4489795918367 181.550886064521 528.9795918367347 185.5781040613565 535.5102040816327 189.5538994991033 542.0408163265306 186.6286532107856 548.5714285714286 187.30182106087562 555.1020408163265 191.3429610794234 561.6326530612245 194.66406618160846 568.1632653061224 196.94974579510432 574.6938775510204 200.55812641880863 581.2244897959183 201.949776115163 587.7551020408164 204.007634356428 594.2857142857143 206.11011286634408 600.8163265306123 209.54337337964444 607.3469387755102 208.47671935321077 613.8775510204082 198.9988668200093 620.4081632653061 199.52088209297085 626.9387755102041 200.98365466263712 633.469387755102 202.48333343584792 640 203.59906231549832 640 320 0 320"
      />
      
      <polygon
        fill="#f1e05a"
        fillRule="evenodd"
        points="0 318.02122363439634 6.530612244897958 313.52736410343533 13.061224489795917 310.89612218022074 19.591836734693878 304.6063541534758 26.122448979591834 301.51235715264124 32.6530612244898 299.63474618727867 39.183673469387756 295.68732577990454 45.71428571428571 289.6072474304619 52.24489795918367 284.8540449624722 58.775510204081634 275.55861112040895 65.3061224489796 271.2743313032057 71.83673469387755 264.3815209986803 78.36734693877551 261.6232740832662 84.89795918367348 259.09163917413406 91.42857142857142 253.23312950555166 97.9591836734694 246.0081378024691 104.48979591836734 237.6110395195381 111.0204081632653 236.28996248831697 117.55102040816327 234.21736011994955 124.08163265306122 230.51368326173431 130.6122448979592 228.68141520304852 137.14285714285714 222.60335616038685 143.6734693877551 224.41440202397592 150.20408163265307 213.8541342401099 156.73469387755102 203.6802242907276 163.26530612244898 199.51268701467768 169.79591836734696 191.13117355200632 176.32653061224488 184.67469283963652 182.85714285714283 182.27406134764334 189.3877551020408 179.49429741192597 195.9183673469388 176.83742258809835 202.44897959183675 169.27904962503405 208.97959183673467 161.9143591186346 215.51020408163265 161.10351807972475 222.0408163265306 157.6519837364209 228.57142857142858 159.74983365602264 235.10204081632654 157.76162653148856 241.63265306122446 151.8856714883426 248.16326530612244 148.87049071942116 254.69387755102042 150.85231278672222 261.2244897959184 154.74259607058914 267.7551020408163 153.00438944944085 274.2857142857143 155.4477555330114 280.81632653061223 157.6118695678849 287.3469387755102 159.39930354208568 293.8775510204082 161.38433578559298 300.40816326530614 163.7628194856735 306.9387755102041 164.08008910759443 313.46938775510205 158.1837182434698 320 157.97611107300028 326.53061224489795 154.65144973744745 333.0612244897959 150.6284216431845 339.5918367346939 146.047463072689 346.12244897959187 147.70867462125926 352.65306122448976 144.26960388435631 359.1836734693877 143.14898604591133 365.71428571428567 145.795739938491 372.2448979591837 150.90464469759667 378.7755102040816 152.60442810269848 385.3061224489796 154.94908067967344 391.8367346938776 157.56707909118492 398.36734693877554 156.58019206762586 404.8979591836735 159.02356177832837 411.42857142857144 161.28446932368468 417.95918367346934 165.19611518190368 424.48979591836735 169.11533524178694 431.0204081632653 170.98599227968134 437.55102040816325 165.6690227046917 444.0816326530612 168.57727819158714 450.61224489795916 172.90110968416474 457.14285714285717 176.8936707945471 463.6734693877551 175.19547791250704 470.2040816326531 175.65421002810214 476.7346938775511 179.72758620782398 483.2653061224489 183.23436933372574 489.7959183673469 187.39970779715773 496.3265306122449 183.2934525394118 502.85714285714283 184.68792901487433 509.38775510204084 185.26193950222088 515.9183673469388 184.13084130738144 522.4489795918367 186.31989159719882 528.9795918367347 190.20616417730844 535.5102040816327 194.04069032524131 542.0408163265306 190.98284020174233 548.5714285714286 191.52309781133755 555.1020408163265 195.43538525063565 561.6326530612245 198.63554091397782 568.1632653061224 200.79999396752726 574.6938775510204 204.29458282983444 581.2244897959183 205.5721797756916 587.7551020408164 207.51946628564556 594.2857142857143 209.52497748072335 600.8163265306123 212.85400059147383 607.3469387755102 211.68950308718757 613.8775510204082 202.11358215285 620.4081632653061 202.54354359041312 626.9387755102041 203.91405137561702 633.469387755102 205.32428045033993 640 206.38646772436175 640 320 0 320"
      />
      
      <polygon
        fill="#22e8e8"
        fillRule="evenodd"
        points="0 319.9256742499565 6.530612244897958 319.8564689724796 13.061224489795917 319.8272328912863 19.591836734693878 318.66030277335915 26.122448979591834 318.54752980449206 32.6530612244898 318.40759762523567 39.183673469387756 318.26954432480056 45.71428571428571 316.0115352368455 52.24489795918367 316.01949835336956 58.775510204081634 310.2711992236239 65.3061224489796 309.3798701840377 71.83673469387755 306.93693431120073 78.36734693877551 307.02226639287665 84.89795918367348 306.27910142027 91.42857142857142 304.5841138748352 97.9591836734694 300.15630059489837 104.48979591836734 294.7536473941351 111.0204081632653 293.47877776382353 117.55102040816327 293.7809604278812 124.08163265306122 290.88385291571836 130.6122448979592 291.2549288211509 137.14285714285714 286.97854021489206 143.6734693877551 287.29591360566826 150.20408163265307 280.0896280497307 156.73469387755102 272.3565261824832 163.26530612244898 270.68735330526704 169.79591836734696 264.64103467806626 176.32653061224488 259.71605136273183 182.85714285714283 258.4821284870111 189.3877551020408 256.49761375200876 195.9183673469388 254.709562394734 202.44897959183675 249.75802254452643 208.97959183673467 243.84331246954622 215.51020408163265 243.32679829195587 222.0408163265306 241.83027164645438 228.57142857142858 242.76853466416452 235.10204081632654 241.7074450794722 241.63265306122446 237.21785180580827 248.16326530612244 234.04436573494036 254.69387755102042 235.73030425396666 261.2244897959184 237.40442017226212 267.7551020408163 235.56052324073895 274.2857142857143 237.00507170807302 280.81632653061223 238.39936037413509 287.3469387755102 240.81754540731612 293.8775510204082 242.54147860650664 300.40816326530614 244.59170891728832 306.9387755102041 243.76035317952142 313.46938775510205 239.79405014139843 320 239.82808188703075 326.53061224489795 237.43532220647722 333.0612244897959 235.72256140607797 339.5918367346939 231.99175941638202 346.12244897959187 232.20071766782678 352.65306122448976 229.58697666669843 359.1836734693877 229.00006098761372 365.71428571428567 230.61537876402647 372.2448979591837 233.24732228553805 378.7755102040816 234.38587020873626 385.3061224489796 235.4497506300221 391.8367346938776 235.98080210599068 398.36734693877554 235.0238877282962 404.8979591836735 236.2727442359215 411.42857142857144 237.1099305523857 417.95918367346934 239.17608549329032 424.48979591836735 241.04012941674392 431.0204081632653 242.01074396514048 437.55102040816325 236.84731201719802 444.0816326530612 238.1858660293792 450.61224489795916 240.6023131423078 457.14285714285717 242.69850998366496 463.6734693877551 240.20793467094637 470.2040816326531 240.05521248070954 476.7346938775511 242.4938967897303 483.2653061224489 244.4775989033165 489.7959183673469 246.78130417084196 496.3265306122449 243.48881498220754 502.85714285714283 244.04376247632803 509.38775510204084 246.20494940541727 515.9183673469388 246.89559006475181 522.4489795918367 247.99729811262756 528.9795918367347 250.11822603450537 535.5102040816327 252.23283401284806 542.0408163265306 249.58177136490363 548.5714285714286 249.44272880532122 555.1020408163265 251.59489650597007 561.6326530612245 253.61505263174197 568.1632653061224 254.42277337128252 574.6938775510204 256.340121872941 581.2244897959183 257.1593387302334 587.7551020408164 258.91939638635733 594.2857142857143 259.9453898008955 600.8163265306123 261.7459364120683 607.3469387755102 260.11289668457204 613.8775510204082 252.98376911389693 620.4081632653061 252.93433262020892 626.9387755102041 253.2423116507864 633.469387755102 253.15471194990164 640 253.37170862863854 640 320 0 320"
      />
      
      <polygon
        fill="#22e4e8"
        fillRule="evenodd"
        points="0 319.9256742499565 6.530612244897958 319.8564689724796 13.061224489795917 319.8272328912863 19.591836734693878 318.66030277335915 26.122448979591834 318.54752980449206 32.6530612244898 318.40759762523567 39.183673469387756 318.26954432480056 45.71428571428571 316.0115352368455 52.24489795918367 316.01949835336956 58.775510204081634 310.2711992236239 65.3061224489796 309.3798701840377 71.83673469387755 306.93693431120073 78.36734693877551 307.02226639287665 84.89795918367348 306.27910142027 91.42857142857142 304.5841138748352 97.9591836734694 300.15630059489837 104.48979591836734 294.7536473941351 111.0204081632653 293.47877776382353 117.55102040816327 293.7809604278812 124.08163265306122 290.88385291571836 130.6122448979592 291.2549288211509 137.14285714285714 286.97854021489206 143.6734693877551 287.29591360566826 150.20408163265307 280.0896280497307 156.73469387755102 272.3565261824832 163.26530612244898 270.68735330526704 169.79591836734696 264.64103467806626 176.32653061224488 259.71605136273183 182.85714285714283 258.4821284870111 189.3877551020408 256.49761375200876 195.9183673469388 254.709562394734 202.44897959183675 249.75802254452643 208.97959183673467 243.84331246954622 215.51020408163265 243.32679829195587 222.0408163265306 241.83027164645438 228.57142857142858 242.76853466416452 235.10204081632654 241.7074450794722 241.63265306122446 237.21785180580827 248.16326530612244 234.04436573494036 254.69387755102042 235.73030425396666 261.2244897959184 237.40442017226212 267.7551020408163 235.56052324073895 274.2857142857143 237.00507170807302 280.81632653061223 238.39936037413509 287.3469387755102 240.81754540731612 293.8775510204082 242.54147860650664 300.40816326530614 244.59170891728832 306.9387755102041 243.76035317952142 313.46938775510205 239.79405014139843 320 239.82808188703075 326.53061224489795 237.43532220647722 333.0612244897959 235.7739372131822 339.5918367346939 232.04313522348627 346.12244897959187 232.25209347493103 352.65306122448976 229.63835247380266 359.1836734693877 229.05143679471797 365.71428571428567 230.66675457113072 372.2448979591837 233.29869809264227 378.7755102040816 234.43724601584051 385.3061224489796 235.50112643712635 391.8367346938776 236.03217791309493 398.36734693877554 235.07526353540044 404.8979591836735 236.32412004302574 411.42857142857144 237.16130635948994 417.95918367346934 239.22746130039457 424.48979591836735 241.09150522384817 431.0204081632653 242.06211977224473 437.55102040816325 236.89868782430227 444.0816326530612 238.23724183648346 450.61224489795916 240.65368894941204 457.14285714285717 242.7498857907692 463.6734693877551 240.25931047805062 470.2040816326531 240.1065882878138 476.7346938775511 242.54527259683454 483.2653061224489 244.52897471042075 489.7959183673469 246.8326799779462 496.3265306122449 243.5401907893118 502.85714285714283 244.09513828343228 509.38775510204084 246.25632521252152 515.9183673469388 246.94696587185607 522.4489795918367 248.04867391973178 528.9795918367347 250.1696018416096 535.5102040816327 252.2842098199523 542.0408163265306 249.63314717200785 548.5714285714286 249.49410461242547 555.1020408163265 251.64627231307432 561.6326530612245 253.6664284388462 568.1632653061224 254.47414917838674 574.6938775510204 256.39149768004523 581.2244897959183 257.21071453733765 587.7551020408164 258.9707721934616 594.2857142857143 259.99676560799975 600.8163265306123 261.79731221917257 607.3469387755102 260.1642724916763 613.8775510204082 253.03514492100118 620.4081632653061 252.98570842731317 626.9387755102041 253.29368745789066 633.469387755102 253.2060877570059 640 253.37170862863854 640 320 0 320"
      />
      
      <polygon
        fill="#e34c26"
        fillRule="evenodd"
        points="0 319.9256742499565 6.530612244897958 319.8564689724796 13.061224489795917 319.8272328912863 19.591836734693878 318.66030277335915 26.122448979591834 318.6387621818355 32.6530612244898 318.51260260289405 39.183673469387756 318.3713440860731 45.71428571428571 316.1105241383175 52.24489795918367 316.20707458985686 58.775510204081634 311.6486217054214 65.3061224489796 310.751045470443 71.83673469387755 308.26758518297504 78.36734693877551 308.3122997570576 84.89795918367348 307.52975728333786 91.42857142857142 305.7978071052271 97.9591836734694 302.08576701570206 104.48979591836734 297.7266079357847 111.0204081632653 296.36099003208494 117.55102040816327 296.57519501727984 124.08163265306122 294.7043966239898 130.6122448979592 294.97529381563356 137.14285714285714 291.7197411607651 143.6734693877551 292.1942193036273 150.20408163265307 288.1167890384165 156.73469387755102 282.47604408195167 163.26530612244898 280.5090913754205 169.79591836734696 276.0941950625567 176.32653061224488 271.3321043949851 182.85714285714283 270.33209762404226 189.3877551020408 269.0819902901917 195.9183673469388 268.3241132592614 202.44897959183675 264.1112527085664 208.97959183673467 258.7341421616734 215.51020408163265 258.87802082873014 222.0408163265306 257.33906701420585 228.57142857142858 258.03726835309226 235.10204081632654 256.5238106767825 241.63265306122446 252.72249600834567 248.16326530612244 250.1933457873725 254.69387755102042 252.19006992128223 261.2244897959184 254.1886774922804 267.7551020408163 252.86781915759497 274.2857142857143 253.80098106114255 280.81632653061223 254.90773577510043 287.3469387755102 256.83302953505245 293.8775510204082 258.5829064893145 300.40816326530614 260.4521079786675 306.9387755102041 259.9720764501377 313.46938775510205 257.86438673797966 320 257.5420584177625 326.53061224489795 255.72568186207928 333.0612244897959 254.3230182407482 339.5918367346939 252.4440017322531 346.12244897959187 252.30169331536473 352.65306122448976 249.8959873424274 359.1836734693877 249.60730205848603 365.71428571428567 250.63987535759287 372.2448979591837 252.68975975506532 378.7755102040816 254.04380144613 385.3061224489796 254.88132314386297 391.8367346938776 255.76535826763813 398.36734693877554 254.20609748719522 404.8979591836735 254.90085152997526 411.42857142857144 255.1709927882685 417.95918367346934 256.7048768997987 424.48979591836735 258.1050990091991 431.0204081632653 258.5563771014178 437.55102040816325 255.16942500413887 444.0816326530612 257.12071977236184 450.61224489795916 258.9790776578139 457.14285714285717 260.51589779396846 463.6734693877551 258.60052704510514 470.2040816326531 258.0205800832477 476.7346938775511 259.9124603745804 483.2653061224489 261.3828811846141 489.7959183673469 263.1721399452819 496.3265306122449 261.82042632836584 502.85714285714283 263.5576010150527 509.38775510204084 265.2078586250386 515.9183673469388 265.5769607130628 522.4489795918367 267.22152711664097 528.9795918367347 268.77580968412707 535.5102040816327 270.33941829637365 542.0408163265306 268.43862738505675 548.5714285714286 268.9635996645223 555.1020408163265 270.52147360642823 561.6326530612245 271.9837901911461 568.1632653061224 273.44944390168956 574.6938775510204 274.8252102226941 581.2244897959183 276.2041551957097 587.7551020408164 277.54099744819945 594.2857142857143 278.7133625922098 600.8163265306123 279.97361039039015 607.3469387755102 278.92973814360397 613.8775510204082 275.72393230257353 620.4081632653061 277.0324816925878 626.9387755102041 278.286286249406 633.469387755102 279.55956900022795 640 280.3217308084063 640 320 0 320"
      />
      
      <polygon
        fill="#00ADD8"
        fillRule="evenodd"
        points="0 319.9256742499565 6.530612244897958 319.8564689724796 13.061224489795917 319.8272328912863 19.591836734693878 318.66030277335915 26.122448979591834 318.6387621818355 32.6530612244898 318.5153623738728 39.183673469387756 318.3740196166547 45.71428571428571 316.61218002148684 52.24489795918367 316.6934177082156 58.775510204081634 313.1394422044304 65.3061224489796 312.19635943730293 71.83673469387755 310.8820311629285 78.36734693877551 310.8639642952264 84.89795918367348 310.00353363189794 91.42857142857142 308.6617049257719 97.9591836734694 305.87144658751447 104.48979591836734 303.79316013342606 111.0204081632653 303.0244424886668 117.55102040816327 303.3152940129644 124.08163265306122 302.49018030218355 130.6122448979592 302.9132433868249 137.14285714285714 300.9756908249894 143.6734693877551 301.5563863940073 150.20408163265307 299.6311554769425 156.73469387755102 295.8211863791213 163.26530612244898 294.07844591492216 169.79591836734696 290.7161309729133 176.32653061224488 287.7123968262911 182.85714285714283 287.3468134570203 189.3877551020408 286.1158240885094 195.9183673469388 284.93730352684855 202.44897959183675 282.37653377768856 208.97959183673467 277.9438431149539 215.51020408163265 278.0796547527791 222.0408163265306 276.03281614948054 228.57142857142858 276.21167486709226 235.10204081632654 274.14900775780586 241.63265306122446 270.3047388045653 248.16326530612244 268.0869526900636 254.69387755102042 269.666072685991 261.2244897959184 271.14818282791197 267.7551020408163 270.41255042201556 274.2857142857143 270.8101811874699 280.81632653061223 272.16289244035863 287.3469387755102 273.5614855359425 293.8775510204082 274.92287199459213 300.40816326530614 276.29330173583503 306.9387755102041 276.4643311503499 313.46938775510205 274.63326214135094 320 273.79906740730894 326.53061224489795 272.04438805837714 333.0612244897959 270.1436123542992 339.5918367346939 268.2494851934186 346.12244897959187 268.7285979889403 352.65306122448976 266.93233239019634 359.1836734693877 266.1732502164085 365.71428571428567 266.70015405154345 372.2448979591837 268.2753876423412 378.7755102040816 269.7730082740039 385.3061224489796 270.1456713938963 391.8367346938776 271.63100177140655 398.36734693877554 270.87586587611395 404.8979591836735 271.21138589039515 411.42857142857144 272.69783294162306 417.95918367346934 274.09583420845945 424.48979591836735 275.4691312848726 431.0204081632653 275.70898662817984 437.55102040816325 272.95245986726405 444.0816326530612 274.3609373804303 450.61224489795916 275.70977467140983 457.14285714285717 277.0616901952478 463.6734693877551 276.49360477698303 470.2040816326531 276.6994754451724 476.7346938775511 278.0211839467138 483.2653061224489 279.09848530091494 489.7959183673469 280.3469808112941 496.3265306122449 279.2673575788666 502.85714285714283 280.4775069060844 509.38775510204084 281.61129688496123 515.9183673469388 281.52747088507056 522.4489795918367 282.6851590398832 528.9795918367347 283.78242092266055 535.5102040816327 284.8879566736688 542.0408163265306 282.6100683657229 548.5714285714286 282.8417608228177 555.1020408163265 283.97601657476173 561.6326530612245 285.04069160510574 568.1632653061224 286.10779029942506 574.6938775510204 287.1094462132256 581.2244897959183 288.11342074802633 587.7551020408164 289.08673806460786 594.2857142857143 289.94030707789113 600.8163265306123 290.8578597473956 607.3469387755102 291.71914833532696 613.8775510204082 290.34723686443135 620.4081632653061 291.2236057724717 626.9387755102041 292.10199086652096 633.469387755102 292.95355633224386 640 293.4632877360381 640 320 0 320"
      />
      
      <polygon
        fill="#244776"
        fillRule="evenodd"
        points="0 319.9256742499565 6.530612244897958 319.8564689724796 13.061224489795917 319.8272328912863 19.591836734693878 318.66030277335915 26.122448979591834 318.6387621818355 32.6530612244898 318.5153623738728 39.183673469387756 318.3740196166547 45.71428571428571 316.61218002148684 52.24489795918367 316.6934177082156 58.775510204081634 313.1394422044304 65.3061224489796 312.19635943730293 71.83673469387755 310.8820311629285 78.36734693877551 310.8639642952264 84.89795918367348 310.00353363189794 91.42857142857142 308.6617049257719 97.9591836734694 305.87144658751447 104.48979591836734 303.79316013342606 111.0204081632653 303.0244424886668 117.55102040816327 303.3152940129644 124.08163265306122 302.49018030218355 130.6122448979592 302.9132433868249 137.14285714285714 300.9756908249894 143.6734693877551 301.5563863940073 150.20408163265307 299.6311554769425 156.73469387755102 295.8211863791213 163.26530612244898 294.07844591492216 169.79591836734696 290.7161309729133 176.32653061224488 287.7123968262911 182.85714285714283 287.3468134570203 189.3877551020408 286.1158240885094 195.9183673469388 284.93730352684855 202.44897959183675 282.37653377768856 208.97959183673467 277.9438431149539 215.51020408163265 278.0796547527791 222.0408163265306 276.03281614948054 228.57142857142858 276.21167486709226 235.10204081632654 274.14900775780586 241.63265306122446 270.3047388045653 248.16326530612244 268.0869526900636 254.69387755102042 269.666072685991 261.2244897959184 271.14818282791197 267.7551020408163 270.41255042201556 274.2857142857143 270.8101811874699 280.81632653061223 272.16289244035863 287.3469387755102 273.5614855359425 293.8775510204082 274.92287199459213 300.40816326530614 276.29330173583503 306.9387755102041 276.4643311503499 313.46938775510205 274.63326214135094 320 273.79906740730894 326.53061224489795 272.04438805837714 333.0612244897959 270.1436123542992 339.5918367346939 268.2494851934186 346.12244897959187 268.7285979889403 352.65306122448976 266.93233239019634 359.1836734693877 266.1732502164085 365.71428571428567 266.70015405154345 372.2448979591837 268.2753876423412 378.7755102040816 269.7730082740039 385.3061224489796 270.1456713938963 391.8367346938776 271.63100177140655 398.36734693877554 270.87586587611395 404.8979591836735 271.21138589039515 411.42857142857144 272.69783294162306 417.95918367346934 274.09583420845945 424.48979591836735 275.4691312848726 431.0204081632653 275.70898662817984 437.55102040816325 272.95245986726405 444.0816326530612 274.3609373804303 450.61224489795916 275.70977467140983 457.14285714285717 277.0616901952478 463.6734693877551 276.49360477698303 470.2040816326531 276.6994754451724 476.7346938775511 278.0211839467138 483.2653061224489 279.09848530091494 489.7959183673469 280.3469808112941 496.3265306122449 279.2673575788666 502.85714285714283 280.4775069060844 509.38775510204084 281.61129688496123 515.9183673469388 281.52747088507056 522.4489795918367 282.6851590398832 528.9795918367347 283.78242092266055 535.5102040816327 284.8879566736688 542.0408163265306 282.6100683657229 548.5714285714286 282.8417608228177 555.1020408163265 283.97601657476173 561.6326530612245 285.04069160510574 568.1632653061224 286.10779029942506 574.6938775510204 287.1094462132256 581.2244897959183 288.11342074802633 587.7551020408164 289.08673806460786 594.2857142857143 289.94030707789113 600.8163265306123 290.8578597473956 607.3469387755102 291.71914833532696 613.8775510204082 290.40279808386265 620.4081632653061 291.27752490808115 626.9387755102041 292.1542641534894 633.469387755102 293.00423400378054 640 293.5130102963852 640 320 0 320"
      />
      
      <polygon
        fill="#563d7c"
        fillRule="evenodd"
        points="0 319.9256742499565 6.530612244897958 319.8564689724796 13.061224489795917 319.8272328912863 19.591836734693878 318.66030277335915 26.122448979591834 318.6387621818355 32.6530612244898 318.5153623738728 39.183673469387756 318.3740196166547 45.71428571428571 316.61218002148684 52.24489795918367 316.6934177082156 58.775510204081634 314.2496024973393 65.3061224489796 313.272632761604 71.83673469387755 311.92649577277064 78.36734693877551 311.8765472369636 84.89795918367348 310.9852080660682 91.42857142857142 309.61436651690593 97.9591836734694 306.7950286498145 104.48979591836734 305.7914238975231 111.0204081632653 304.9617104285309 117.55102040816327 305.19342778234187 124.08163265306122 304.31463036045 130.6122448979592 304.6820033032097 137.14285714285714 303.8118355372881 143.6734693877551 304.3059594805321 150.20408163265307 302.29946642185445 156.73469387755102 298.40804868824046 163.26530612244898 296.5863458690576 169.79591836734696 293.14991105013945 176.32653061224488 290.0718872809413 182.85714285714283 289.6365705011718 189.3877551020408 288.3356876351472 195.9183673469388 287.08940680223526 202.44897959183675 284.4692140478011 208.97959183673467 279.972645378055 215.51020408163265 280.04849692791856 222.0408163265306 277.94156054949525 228.57142857142858 278.06400750063875 235.10204081632654 275.9447990550986 241.63265306122446 273.1751010374149 248.16326530612244 271.6223096013542 254.69387755102042 273.0935151254656 261.2244897959184 274.47432892429003 267.7551020408163 273.6371678538975 274.2857142857143 273.9363688407886 280.81632653061223 275.20276103137115 287.3469387755102 276.5085639734892 293.8775510204082 277.78285117682594 300.40816326530614 279.06598160536305 306.9387755102041 279.15506609378855 313.46938775510205 277.24186391774305 320 276.32804295053796 326.53061224489795 274.49862094716315 333.0612244897959 272.5229313017013 339.5918367346939 270.55848453236285 346.12244897959187 270.9671166048957 352.65306122448976 269.102521490958 359.1836734693877 268.28351683629927 365.71428571428567 268.7460058899901 372.2448979591837 270.2607754989101 378.7755102040816 271.69779333126434 385.3061224489796 272.01357038323727 391.8367346938776 273.4418843010297 398.36734693877554 272.6314723528607 404.8979591836735 272.9151062955215 411.42857142857144 274.3495481860082 417.95918367346934 275.6987339077115 424.48979591836735 277.02310333698057 431.0204081632653 277.21552463060783 437.55102040816325 275.3902641087091 444.0816326530612 276.72432900561716 450.61224489795916 278.00331770153844 457.14285714285717 279.2852241322968 463.6734693877551 278.65142319990366 470.2040816326531 278.79142782284987 476.7346938775511 280.04928071723174 483.2653061224489 281.06664253379404 489.7959183673469 282.255061435881 496.3265306122449 281.1190457542888 502.85714285714283 282.27267337081116 509.38775510204084 283.35166704409835 515.9183673469388 283.21978637477787 522.4489795918367 284.32581769682145 528.9795918367347 285.37459088735056 535.5102040816327 286.4315264606091 542.0408163265306 284.1080187992418 548.5714285714286 284.2939871990203 555.1020408163265 285.3839144660722 561.6326530612245 286.40697992198767 568.1632653061224 287.43237338012557 574.6938775510204 288.39488185367725 581.2244897959183 289.35961924606977 587.7551020408164 290.29489719581005 594.2857142857143 291.1151068700244 600.8163265306123 291.9967994316733 607.3469387755102 292.8244273100513 613.8775510204082 291.4743389770681 620.4081632653061 292.3173970345262 626.9387755102041 293.1623948677829 633.469387755102 293.98159194538954 640 294.47194826436987 640 320 0 320"
      />
      
      <polygon
        fill="#178600"
        fillRule="evenodd"
        points="0 320 6.530612244897958 320 13.061224489795917 320 19.591836734693878 320 26.122448979591834 320 32.6530612244898 320 39.183673469387756 320 45.71428571428571 320 52.24489795918367 320 58.775510204081634 318.7303284094487 65.3061224489796 318.7690844790742 71.83673469387755 318.80546357505796 78.36734693877551 318.84192606425177 84.89795918367348 318.8772755479605 91.42857142857142 318.91045712673684 97.9591836734694 318.94371471088226 104.48979591836734 318.97493276796206 111.0204081632653 319.0062223401653 117.55102040816327 319.036556805289 124.08163265306122 319.0640954092653 130.6122448979592 319.09266339946305 137.14285714285714 319.11947920748435 143.6734693877551 319.1463566253735 150.20408163265307 319.17158561966625 156.73469387755102 319.185677623374 163.26530612244898 319.2105343382933 169.79591836734696 319.23386658916354 176.32653061224488 319.25725233252416 182.85714285714283 319.27920386885364 189.3877551020408 318.1941404933126 195.9183673469388 318.2492633127067 202.44897959183675 318.29760396042917 208.97959183673467 316.1388739251873 215.51020408163265 316.24748474469277 222.0408163265306 316.3620279902956 228.57142857142858 316.46954615941075 235.10204081632654 316.5773114667084 241.63265306122446 316.24155977836267 248.16326530612244 315.63817784484627 254.69387755102042 315.77131999573436 261.2244897959184 315.8962963730897 267.7551020408163 316.021559324697 274.2857142857143 316.1429989914913 280.81632653061223 316.24949705285576 287.3469387755102 316.36397928455006 293.8775510204082 316.471439707258 300.40816326530614 316.57914715512175 306.9387755102041 316.6802484448289 313.46938775510205 315.97581112075136 320 316.0986470792311 326.53061224489795 314.31084358967536 333.0612244897959 314.4845019350652 339.5918367346939 313.520910346473 346.12244897959187 313.71868069390786 352.65306122448976 313.9104145895112 359.1836734693877 312.9761226237106 365.71428571428567 313.1905220149596 372.2448979591837 313.39177252874225 378.7755102040816 313.5934847671785 385.3061224489796 313.7828259578679 391.8367346938776 313.9726017159593 398.36734693877554 314.15658495455125 404.8979591836735 314.32928414444797 411.42857142857144 314.50237907191166 417.95918367346934 314.6648586581853 424.48979591836735 314.8277104827318 431.0204081632653 314.98559182124285 437.55102040816325 313.2129021077216 444.0816326530612 313.42007463886307 450.61224489795916 313.61454059713657 457.14285714285717 313.8094531139255 463.6734693877551 313.19872505650284 470.2040816326531 313.40632996643683 476.7346938775511 313.6075982870742 483.2653061224489 313.7965221315322 489.7959183673469 313.985879896057 496.3265306122449 314.1636237483794 502.85714285714283 314.34177583286504 509.38775510204084 314.51448999367193 515.9183673469388 314.6659540931444 522.4489795918367 314.8287728624966 528.9795918367347 314.98160540796704 535.5102040816327 315.1347891584549 542.0408163265306 315.2785779178492 548.5714285714286 315.4226966126767 555.1020408163265 315.5624159971419 561.6326530612245 315.6935666162434 568.1632653061224 315.82501794821906 574.6938775510204 315.9484074193694 581.2244897959183 316.0720796937875 587.7551020408164 316.191977346557 594.2857142857143 316.2971231247524 600.8163265306123 316.41015141083045 607.3469387755102 316.516247179075 613.8775510204082 316.6225869413026 620.4081632653061 316.7224045550935 626.9387755102041 316.8224511303063 633.469387755102 316.9194441022226 640 316.9775028023888 640 320 0 320"
      />
      
      <polygon
        fill="#555555"
        fillRule="evenodd"
        points="0 320 6.530612244897958 320 13.061224489795917 320 19.591836734693878 320 26.122448979591834 320 32.6530612244898 320 39.183673469387756 320 45.71428571428571 320 52.24489795918367 320 58.775510204081634 318.7303284094487 65.3061224489796 318.7690844790742 71.83673469387755 318.80546357505796 78.36734693877551 318.84192606425177 84.89795918367348 318.8772755479605 91.42857142857142 318.91045712673684 97.9591836734694 318.94371471088226 104.48979591836734 318.97493276796206 111.0204081632653 319.0062223401653 117.55102040816327 319.036556805289 124.08163265306122 319.0640954092653 130.6122448979592 319.09266339946305 137.14285714285714 319.11947920748435 143.6734693877551 319.1463566253735 150.20408163265307 319.17158561966625 156.73469387755102 319.185677623374 163.26530612244898 319.2105343382933 169.79591836734696 319.23386658916354 176.32653061224488 319.25725233252416 182.85714285714283 319.27920386885364 189.3877551020408 318.1941404933126 195.9183673469388 318.2492633127067 202.44897959183675 318.29760396042917 208.97959183673467 317.24284877642407 215.51020408163265 317.31883215660866 222.0408163265306 317.4006731597154 228.57142857142858 317.4774947978438 235.10204081632654 317.5544929837958 241.63265306122446 317.1889133238583 248.16326530612244 316.557532911241 254.69387755102042 316.6626122605178 261.2244897959184 316.7612469257998 267.7551020408163 316.8601078501363 274.2857142857143 316.9559512678183 280.81632653061223 317.04000239649565 287.3469387755102 317.130354870666 293.8775510204082 317.2151654878998 300.40816326530614 317.3001711276974 306.9387755102041 317.3799629964626 313.46938775510205 317.4599382768592 320 317.53747207615055 326.53061224489795 316.5057091070988 333.0612244897959 316.61237042022793 339.5918367346939 315.58589073367557 346.12244897959187 315.72062882263555 352.65306122448976 315.85125438098845 359.1836734693877 314.8633725163006 365.71428571428567 315.0201648315533 372.2448979591837 315.1673412808426 378.7755102040816 315.3148553308355 385.3061224489796 315.4533222450496 391.8367346938776 315.59210700083196 398.36734693877554 315.726655718567 404.8979591836735 315.85295238223875 411.42857142857144 315.97953823005355 417.95918367346934 316.0983611214888 424.48979591836735 316.21745606837294 431.0204081632653 316.3329163002064 437.55102040816325 315.58525398192234 444.0816326530612 315.72001179919226 450.61224489795916 315.84650427661524 457.14285714285717 315.97328764385804 463.6734693877551 316.0922947689375 470.2040816326531 316.2115752133108 476.7346938775511 316.32721496248945 483.2653061224489 316.43576176773934 489.7959183673469 316.5445582594117 496.3265306122449 316.64668206125737 502.85714285714283 316.7490400340318 509.38775510204084 316.84827384397624 515.9183673469388 316.935298296114 522.4489795918367 317.02884655098944 528.9795918367347 317.1166572584791 535.5102040816327 317.20466966738746 542.0408163265306 317.287284122995 548.5714285714286 317.37008836083396 555.1020408163265 317.4503648062118 561.6326530612245 317.5257180107464 568.1632653061224 317.6012440023955 574.6938775510204 317.67213798210156 581.2244897959183 317.7431945456868 587.7551020408164 317.81208228985025 594.2857142857143 317.8724942280354 600.8163265306123 317.93743527242196 607.3469387755102 317.9983930785576 613.8775510204082 318.0594909967944 620.4081632653061 318.11684177943937 626.9387755102041 318.1743240122244 633.469387755102 318.23005183312296 640 318.2634096617432 640 320 0 320"
      />
      
      <polygon
        fill="#C1F12E"
        fillRule="evenodd"
        points="0 320 6.530612244897958 320 13.061224489795917 320 19.591836734693878 320 26.122448979591834 320 32.6530612244898 320 39.183673469387756 320 45.71428571428571 320 52.24489795918367 320 58.775510204081634 319.0077744135731 65.3061224489796 319.0380615821288 71.83673469387755 319.06649120700285 78.36734693877551 319.0949859764003 84.89795918367348 319.1226109533835 91.42857142857142 319.1485417617516 97.9591836734694 319.1745319605527 104.48979591836734 319.19892832769006 111.0204081632653 319.22338056088 117.55102040816327 319.24708641661954 124.08163265306122 319.26860733120907 130.6122448979592 319.29093271901166 137.14285714285714 319.31188877715243 143.6734693877551 319.3328930052499 150.20408163265307 319.35260900553453 156.73469387755102 319.3611753767856 163.26530612244898 319.380675126023 169.79591836734696 319.39897895949775 176.32653061224488 319.41732474645664 182.85714285714283 319.4345454340654 189.3877551020408 319.4408446834254 195.9183673469388 319.45791256910866 202.44897959183675 319.47288052005234 208.97959183673467 319.48621069246684 215.51020408163265 319.50139542876616 222.0408163265306 319.5166150595137 228.57142857142858 319.530901243222 235.10204081632654 319.5452202252455 241.63265306122446 319.3091072909558 248.16326530612244 318.6150657586942 254.69387755102042 318.65734013606664 261.2244897959184 318.69702157645463 267.7551020408163 318.736794260276 274.2857142857143 318.77535283102384 280.81632653061223 318.8091673597437 287.3469387755102 318.84551687353775 293.8775510204082 318.87963703693407 300.40816326530614 318.9138353943088 306.9387755102041 318.94593643711016 313.46938775510205 318.9781111528189 320 319.00930366584737 326.53061224489795 319.0385831493225 333.0612244897959 319.067929935105 339.5918367346939 319.095476923613 346.12244897959187 319.1230867961089 352.65306122448976 319.1498542081199 359.1836734693877 319.173328019889 365.71428571428567 319.19856168938026 372.2448979591837 319.22224775515883 378.7755102040816 319.24598823819235 385.3061224489796 319.26827266920156 391.8367346938776 319.29060819858853 398.36734693877554 319.31226197101523 404.8979591836735 319.33258770965375 411.42857142857144 319.35296003587416 417.95918367346934 319.37208303604285 424.48979591836735 319.39124977757376 431.0204081632653 319.4098315747153 437.55102040816325 318.57422034802045 444.0816326530612 318.6177414107282 450.61224489795916 318.6585933975052 457.14285714285717 318.6995390937543 463.6734693877551 318.73797343780063 470.2040816326531 318.77649604548355 476.7346938775511 318.81384286644504 483.2653061224489 318.8488989429194 489.7959183673469 318.8840357821625 496.3265306122449 318.91701750904923 502.85714285714283 318.950074861124 509.38775510204084 318.98212329509886 515.9183673469388 319.01022843037526 522.4489795918367 319.0404406930042 528.9795918367347 319.0687999330225 535.5102040816327 319.0972243175642 542.0408163265306 319.12390531546765 548.5714285714286 319.15064775883644 555.1020408163265 319.17657363512706 561.6326530612245 319.200909635691 568.1632653061224 319.2253013892809 574.6938775510204 319.24819721294494 581.2244897959183 319.2711455735094 587.7551020408164 319.29339343521906 594.2857142857143 319.3129039631008 600.8163265306123 319.3338771807611 607.3469387755102 319.3535640817886 613.8775510204082 319.3732961524257 620.4081632653061 319.39181802482585 626.9387755102041 319.41038246721973 633.469387755102 319.42838020363575 640 319.4391534329562 640 320 0 320"
      />
      

      
        <g id="labels">
        
          
          <text x="0" y="330">
            Jul 2014
          </text>
          
        
          
        
          
        
          
        
          
        
          
        
          
        
          
        
          
        
          
        
          
        
          
        
          
        
          
          <text x="84.04040404040404" y="330">
            Aug 2015
          </text>
          
        
          
        
          
        
          
        
          
        
          
        
          
        
          
        
          
        
          
        
          
        
          
        
          
        
          
          <text x="168.08080808080808" y="330">
            Sep 2016
          </text>
          
        
          
        
          
        
          
        
          
        
          
        
          
        
          
        
          
        
          
        
          
        
          
        
          
        
          
          <text x="252.12121212121212" y="330">
            Oct 2017
          </text>
          
        
          
        
          
        
          
        
          
        
          
        
          
        
          
        
          
        
          
        
          
        
          
        
          
        
          
          <text x="336.16161616161617" y="330">
            Nov 2018
          </text>
          
        
          
        
          
        
          
        
          
        
          
        
          
        
          
        
          
        
          
        
          
        
          
        
          
        
          
          <text x="420.2020202020202" y="330">
            Dec 2019
          </text>
          
        
          
        
          
        
          
        
          
        
          
        
          
        
          
        
          
        
          
        
          
        
          
        
          
        
          
          <text x="504.24242424242425" y="330">
            Jan 2021
          </text>
          
        
          
        
          
        
          
        
          
        
          
        
          
        
          
        
          
        
          
        
          
        
          
        
          
        
          
          <text x="588.2828282828283" y="330">
            Feb 2022
          </text>
          
        
          
        
          
        
          
        
          
        
          
        
          
        
          
        
        </g>
      

      
        <text text-anchor="middle" y="370" x="320" id="legend">
          
          <tspan xml:space="preserve" fill="#C1F12E">   </tspan> Batchfile
          
          <tspan xml:space="preserve" fill="#555555">   </tspan> C
          
          <tspan xml:space="preserve" fill="#178600">   </tspan> C#
          
          <tspan xml:space="preserve" fill="#563d7c">   </tspan> CSS
          
          <tspan xml:space="preserve" fill="#244776">   </tspan> CoffeeScript
          
          <tspan xml:space="preserve" fill="#00ADD8">   </tspan> Go
          
          <tspan xml:space="preserve" fill="#e34c26">   </tspan> HTML
          
          <tspan xml:space="preserve" fill="#22e4e8">   </tspan> JSON
          
        </text>
      
        <text text-anchor="middle" y="400" x="320" id="legend">
          
          <tspan xml:space="preserve" fill="#22e8e8">   </tspan> JSon
          
          <tspan xml:space="preserve" fill="#f1e05a">   </tspan> JavaScript
          
          <tspan xml:space="preserve" fill="#2415b9">   </tspan> Less
          
          <tspan xml:space="preserve" fill="#755462">   </tspan> MySQL
          
          <tspan xml:space="preserve" fill="#4F5D95">   </tspan> PHP
          
          <tspan xml:space="preserve" fill="#fd2fdb">   </tspan> PLpgSQL
          
          <tspan xml:space="preserve" fill="#0298c3">   </tspan> Perl
          
          <tspan xml:space="preserve" fill="#3572A5">   </tspan> Python
          
        </text>
      
        <text text-anchor="middle" y="430" x="320" id="legend">
          
          <tspan xml:space="preserve" fill="#701516">   </tspan> Ruby
          
          <tspan xml:space="preserve" fill="#dea584">   </tspan> Rust
          
          <tspan xml:space="preserve" fill="#26c0b0">   </tspan> SCSS
          
          <tspan xml:space="preserve" fill="#0141ae">   </tspan> SQL
          
          <tspan xml:space="preserve" fill="#89e051">   </tspan> Shell
          
          <tspan xml:space="preserve" fill="#2770da">   </tspan> TSQL
          
          <tspan xml:space="preserve" fill="#2b7489">   </tspan> TypeScript
          
          <tspan xml:space="preserve" fill="#2c3e50">   </tspan> Vue
          
        </text>
      
        <text text-anchor="middle" y="460" x="320" id="legend">
          
          <tspan xml:space="preserve" fill="#4B6C4B">   </tspan> Yacc
          
        </text>
      

    </svg>