<svg
      xmlns="http://www.w3.org/2000/svg"
      viewBox="0 0 640 490"
      style="background-color: #292b3e"
    >
      <style>
        text {
          font-size: 12px;
          font-family: Open Sans, Helvetica Neue, Helvetica, Arial, sans-serif;
        }
        #labels text {
          dominant-baseline: hanging;
          font-size: 10px;
          fill: rgba(0,0,0,0.5);
        }
        #legend {
          font-weight: 600;
        }
        #legend tspan {
          font-size: 15px;
        }
        #branding-text {
          font-size: 9px;
          dominant-baseline: hanging;
          opacity: 0.5;
        }
        #branding-logo {
          opacity: 0.5;
        }
      </style>

      
      
      <polygon
        fill="#4B6C4B"
        fillRule="evenodd"
        points="0 313.61354902392884 6.464646464646465 304.2691101034576 12.92929292929293 297.26804021402967 19.393939393939394 285.9388101389388 25.85858585858586 278.82800513252346 32.323232323232325 274.9841879305975 38.78787878787879 267.0907424897625 45.25252525252525 257.0787941600506 51.71717171717172 246.2221364935114 58.18181818181819 230.99231461354435 64.64646464646465 221.5462166485193 71.11111111111111 206.62804789312037 77.57575757575758 198.2772357386139 84.04040404040404 192.17030836661473 90.5050505050505 182.12944045115444 96.96969696969697 170.6172106029323 103.43434343434345 156.95181476905213 109.8989898989899 154.80415490474235 116.36363636363637 149.88788462137822 122.82828282828282 142.52562551402536 129.2929292929293 138.2861913136524 135.75757575757575 123.78685912515803 142.22222222222223 127.17483526792518 148.68686868686868 110.77245468562339 155.15151515151516 93.05719061911492 161.61616161616163 88.01883650808054 168.08080808080808 78.10616530035276 174.54545454545453 68.78369911646601 181.010101010101 65.97372570589033 187.47474747474746 62.13348996305979 193.93939393939394 59.18907467195186 200.40404040404042 46.6838369894657 206.8686868686869 33.293899233780394 213.33333333333331 31.646364773319135 219.7979797979798 27.414509081862036 226.26262626262627 27.528852891477356 232.72727272727275 25.251078174410736 239.1919191919192 13.93611329353314 245.65656565656565 9.6430818090181 252.12121212121212 9.883813883103073 258.5858585858586 12.93795529529234 265.0505050505051 8.246964874020307 271.5151515151515 10.710178818664588 277.979797979798 10.158958052980552 284.44444444444446 11.455537655889657 290.9090909090909 14.195539514096765 297.37373737373736 17.693023102930738 303.83838383838383 18.067749378924304 310.3030303030303 12.03874707368044 316.7676767676768 13.322614217905823 323.23232323232327 11.292725497620097 329.6969696969697 7.0295086521613825 336.16161616161617 1.9717264776965067 342.62626262626264 4.695444176755927 349.09090909090907 0.06660377435224518 355.55555555555554 0 362.020202020202 3.134132767174549 368.4848484848485 11.12178492009366 374.9494949494949 13.499730256895134 381.4141414141414 18.047923416957588 387.8787878787879 21.314667206131105 394.3434343434343 21.568357129340882 400.80808080808083 27.066501507163025 407.27272727272725 30.680896269925086 413.7373737373738 36.747872455378285 420.2020202020202 42.80357156862459 426.66666666666663 46.96033409944471 433.13131313131316 38.514673347978146 439.5959595959596 42.63109521267182 446.0606060606061 50.61545623259195 452.52525252525254 58.068900678974956 458.98989898989896 55.542071751103435 465.4545454545455 58.40773759092491 471.9191919191919 64.84919883714093 478.3838383838384 68.96522801681382 484.8484848484849 76.40566027941534 491.3131313131313 74.31936780925088 497.77777777777777 74.99069955579247 504.24242424242425 75.05195763143962 510.7070707070707 74.49017685234702 517.1717171717172 78.43675659277756 523.6363636363636 85.3359545823875 530.1010101010102 88.56498063732064 536.5656565656566 82.02537290111539 543.030303030303 83.08760968704959 549.4949494949494 90.2939912915538 555.959595959596 88.15307922038096 562.4242424242424 86.74190720807064 568.8888888888889 87.76607794629308 575.3535353535353 85.89992050654021 581.8181818181818 86.43105454508867 588.2828282828283 86.68124829532516 594.7474747474747 89.27122738461375 601.2121212121212 85.2165631102358 607.6767676767677 69.72110283898564 614.1414141414141 69.36915669412411 620.6060606060606 67.00814516834274 627.070707070707 64.10036234186367 633.5353535353536 60.65550379693394 640 61.416048986762064 640 320 0 320"
      />
      
      <polygon
        fill="#2c3e50"
        fillRule="evenodd"
        points="0 313.61354902392884 6.464646464646465 304.2691101034576 12.92929292929293 297.26804021402967 19.393939393939394 285.9388101389388 25.85858585858586 278.82800513252346 32.323232323232325 274.9841879305975 38.78787878787879 267.0907424897625 45.25252525252525 257.0787941600506 51.71717171717172 246.2221364935114 58.18181818181819 230.99231461354435 64.64646464646465 221.5462166485193 71.11111111111111 206.62804789312037 77.57575757575758 198.2772357386139 84.04040404040404 192.17030836661473 90.5050505050505 182.12944045115444 96.96969696969697 170.6172106029323 103.43434343434345 156.95181476905213 109.8989898989899 154.80415490474235 116.36363636363637 149.88788462137822 122.82828282828282 142.52562551402536 129.2929292929293 138.2861913136524 135.75757575757575 123.78685912515803 142.22222222222223 127.17483526792518 148.68686868686868 110.77245468562339 155.15151515151516 93.05719061911492 161.61616161616163 88.01883650808054 168.08080808080808 78.10616530035276 174.54545454545453 68.78369911646601 181.010101010101 65.97372570589033 187.47474747474746 62.13348996305979 193.93939393939394 59.18907467195186 200.40404040404042 46.6838369894657 206.8686868686869 33.293899233780394 213.33333333333331 31.646364773319135 219.7979797979798 27.414509081862036 226.26262626262627 27.528852891477356 232.72727272727275 25.251078174410736 239.1919191919192 13.93611329353314 245.65656565656565 9.6430818090181 252.12121212121212 9.883813883103073 258.5858585858586 12.93795529529234 265.0505050505051 8.246964874020307 271.5151515151515 10.710178818664588 277.979797979798 10.158958052980552 284.44444444444446 11.455537655889657 290.9090909090909 14.195539514096765 297.37373737373736 17.693023102930738 303.83838383838383 18.067749378924304 310.3030303030303 12.03874707368044 316.7676767676768 13.322614217905823 323.23232323232327 11.292725497620097 329.6969696969697 7.0295086521613825 336.16161616161617 1.9717264776965067 342.62626262626264 4.695444176755927 349.09090909090907 0.06660377435224518 355.55555555555554 0 362.020202020202 3.134132767174549 368.4848484848485 11.12178492009366 374.9494949494949 13.499730256895134 381.4141414141414 18.047923416957588 387.8787878787879 21.314667206131105 394.3434343434343 21.568357129340882 400.80808080808083 27.066501507163025 407.27272727272725 30.680896269925086 413.7373737373738 36.747872455378285 420.2020202020202 42.80357156862459 426.66666666666663 46.96033409944471 433.13131313131316 38.514673347978146 439.5959595959596 42.63109521267182 446.0606060606061 50.61545623259195 452.52525252525254 58.068900678974956 458.98989898989896 56.642659063352994 465.4545454545455 59.474730151473636 471.9191919191919 65.88362200461205 478.3838383838384 69.96907938585554 484.8484848484849 77.37886967065702 491.3131313131313 75.2638144474505 497.77777777777777 75.90631757714834 504.24242424242425 75.93962689825162 510.7070707070707 75.35333605102511 517.1717171717172 79.27356842123316 523.6363636363636 86.148034892373 530.1010101010102 89.35227264827938 536.5656565656566 82.78939690577374 543.030303030303 83.82831232648059 549.4949494949494 91.0120844188495 555.959595959596 88.84994947920865 562.4242424242424 87.41750589415273 568.8888888888889 88.4217096561116 575.3535353535353 86.53553944368898 581.8181818181818 87.04727158862232 588.2828282828283 87.28045055081174 594.7474747474747 89.852139375386 601.2121212121212 85.78030653485538 607.6767676767677 70.26763835384929 614.1414141414141 69.89953959968321 620.6060606060606 67.52233845345626 627.070707070707 64.59886018027271 633.5353535353536 61.1392687968347 640 61.89893299409482 640 320 0 320"
      />
      
      <polygon
        fill="#2b7489"
        fillRule="evenodd"
        points="0 313.61354902392884 6.464646464646465 304.2691101034576 12.92929292929293 297.26804021402967 19.393939393939394 285.9388101389388 25.85858585858586 278.82800513252346 32.323232323232325 274.9841879305975 38.78787878787879 267.0907424897625 45.25252525252525 257.0787941600506 51.71717171717172 246.2221364935114 58.18181818181819 230.99231461354435 64.64646464646465 221.5462166485193 71.11111111111111 206.62804789312037 77.57575757575758 198.2772357386139 84.04040404040404 192.17030836661473 90.5050505050505 182.12944045115444 96.96969696969697 170.6172106029323 103.43434343434345 156.95181476905213 109.8989898989899 154.80415490474235 116.36363636363637 149.88788462137822 122.82828282828282 142.52562551402536 129.2929292929293 138.2861913136524 135.75757575757575 123.78685912515803 142.22222222222223 127.17483526792518 148.68686868686868 110.77245468562339 155.15151515151516 93.05719061911492 161.61616161616163 88.01883650808054 168.08080808080808 78.10616530035276 174.54545454545453 68.78369911646601 181.010101010101 65.97372570589033 187.47474747474746 62.13348996305979 193.93939393939394 59.18907467195186 200.40404040404042 46.6838369894657 206.8686868686869 33.293899233780394 213.33333333333331 31.646364773319135 219.7979797979798 27.414509081862036 226.26262626262627 27.528852891477356 232.72727272727275 25.251078174410736 239.1919191919192 13.93611329353314 245.65656565656565 9.6430818090181 252.12121212121212 9.883813883103073 258.5858585858586 12.93795529529234 265.0505050505051 8.246964874020307 271.5151515151515 10.710178818664588 277.979797979798 10.158958052980552 284.44444444444446 11.455537655889657 290.9090909090909 14.195539514096765 297.37373737373736 17.693023102930738 303.83838383838383 18.067749378924304 310.3030303030303 12.03874707368044 316.7676767676768 13.322614217905823 323.23232323232327 11.292725497620097 329.6969696969697 7.0295086521613825 336.16161616161617 1.9717264776965067 342.62626262626264 4.695444176755927 349.09090909090907 0.06660377435224518 355.55555555555554 0 362.020202020202 3.134132767174549 368.4848484848485 11.12178492009366 374.9494949494949 13.499730256895134 381.4141414141414 18.047923416957588 387.8787878787879 21.314667206131105 394.3434343434343 21.568357129340882 400.80808080808083 27.066501507163025 407.27272727272725 30.680896269925086 413.7373737373738 36.747872455378285 420.2020202020202 42.80357156862459 426.66666666666663 46.96033409944471 433.13131313131316 38.514673347978146 439.5959595959596 42.63109521267182 446.0606060606061 50.61545623259195 452.52525252525254 58.068900678974956 458.98989898989896 56.642659063352994 465.4545454545455 59.474730151473636 471.9191919191919 65.88362200461205 478.3838383838384 69.96907938585554 484.8484848484849 77.37886967065702 491.3131313131313 75.2638144474505 497.77777777777777 75.90631757714834 504.24242424242425 75.93962689825162 510.7070707070707 75.35333605102511 517.1717171717172 79.27356842123316 523.6363636363636 86.148034892373 530.1010101010102 89.35227264827938 536.5656565656566 84.99950260013668 543.030303030303 87.49758369347694 549.4949494949494 94.56935341485934 555.959595959596 94.67081636551046 562.4242424242424 95.57899165664011 568.8888888888889 99.33772338620571 575.3535353535353 99.23012653456175 581.8181818181818 100.290778494807 588.2828282828283 100.92491388208569 594.7474747474747 103.11094908343023 601.2121212121212 98.64726053063325 607.6767676767677 83.4114473980294 614.1414141414141 83.12827698502386 620.6060606060606 80.36977580258662 627.070707070707 77.05413767227995 633.5353535353536 73.22643545324067 640 73.96408922153188 640 320 0 320"
      />
      
      <polygon
        fill="#2770da"
        fillRule="evenodd"
        points="0 313.61354902392884 6.464646464646465 304.2691101034576 12.92929292929293 297.26804021402967 19.393939393939394 285.9388101389388 25.85858585858586 278.82800513252346 32.323232323232325 274.9841879305975 38.78787878787879 267.0907424897625 45.25252525252525 257.0787941600506 51.71717171717172 246.2221364935114 58.18181818181819 230.99231461354435 64.64646464646465 221.5462166485193 71.11111111111111 206.62804789312037 77.57575757575758 198.2772357386139 84.04040404040404 192.17030836661473 90.5050505050505 182.12944045115444 96.96969696969697 170.6172106029323 103.43434343434345 156.95181476905213 109.8989898989899 154.80415490474235 116.36363636363637 149.88788462137822 122.82828282828282 142.52562551402536 129.2929292929293 138.2861913136524 135.75757575757575 123.78685912515803 142.22222222222223 127.17483526792518 148.68686868686868 110.77245468562339 155.15151515151516 93.05719061911492 161.61616161616163 88.01883650808054 168.08080808080808 78.10616530035276 174.54545454545453 68.78369911646601 181.010101010101 65.97372570589033 187.47474747474746 62.13348996305979 193.93939393939394 59.18907467195186 200.40404040404042 46.6838369894657 206.8686868686869 33.293899233780394 213.33333333333331 31.646364773319135 219.7979797979798 27.414509081862036 226.26262626262627 27.528852891477356 232.72727272727275 25.251078174410736 239.1919191919192 14.574322496794082 245.65656565656565 11.080092583875683 252.12121212121212 11.276960701778194 258.5858585858586 14.289928401243571 265.0505050505051 9.557669735738216 271.5151515151515 11.980875068513285 277.979797979798 11.394568419317636 284.44444444444446 12.653431696711436 290.9090909090909 15.358030477091859 297.37373737373736 18.820029711551342 303.83838383838383 19.1614479129218 310.3030303030303 13.099061085834137 316.7676767676768 14.350562798988847 323.23232323232327 12.290293501077258 329.6969696969697 7.996626515131766 336.16161616161617 2.910261608499411 342.62626262626264 5.60533112259634 349.09090909090907 0.9487169516929725 355.55555555555554 0.8577565174065285 362.020202020202 3.965706727990323 368.4848484848485 11.928782229712226 374.9494949494949 14.282094401914264 381.4141414141414 18.80716525750296 387.8787878787879 22.05073356822868 394.3434343434343 22.28195552996351 400.80808080808083 27.75900991773949 407.27272727272725 31.352266243056818 413.7373737373738 37.399400429067214 420.2020202020202 43.43521205471927 426.66666666666663 47.572694113538205 433.13131313131316 40.230215256002225 439.5959595959596 44.294271185501316 446.0606060606061 52.229478081014065 452.52525252525254 59.63365537618478 458.98989898989896 58.16116812409899 465.4545454545455 60.94688763881419 471.9191919191919 67.31084270588889 478.3838383838384 71.35411940832896 484.8484848484849 78.72163211952983 491.3131313131313 76.56689236312911 497.77777777777777 77.1696197161757 504.24242424242425 77.1643674767667 510.7070707070707 76.54425952328879 517.1717171717172 80.42813969876437 523.6363636363636 87.26848337752153 530.1010101010102 90.43852014704652 536.5656565656566 86.05364658176555 543.030303030303 88.51955058779271 549.4949494949494 95.56012532204443 555.959595959596 95.63230652111599 562.4242424242424 96.51113286109302 568.8888888888889 100.2423156427489 575.3535353535353 100.10710665093629 581.8181818181818 101.14098929134616 588.2828282828283 101.75164906263439 594.7474747474747 103.91244859458342 601.2121212121212 99.42507209980545 607.6767676767677 84.17661392900698 614.1414141414141 84.13451188387648 620.6060606060606 81.5406381472583 627.070707070707 78.21128770773953 633.5353535353536 74.34938666010333 640 75.08499536248837 640 320 0 320"
      />
      
      <polygon
        fill="#89e051"
        fillRule="evenodd"
        points="0 313.61354902392884 6.464646464646465 304.9098399483188 12.92929292929293 298.3344709286066 19.393939393939394 288.0768104859025 25.85858585858586 281.27135026982194 32.323232323232325 277.3529514059542 38.78787878787879 269.99993941966835 45.25252525252525 260.07171240759294 51.71717171717172 250.17318574001928 58.18181818181819 235.1815879905847 64.64646464646465 226.78743738261215 71.11111111111111 213.32782991469566 77.57575757575758 205.81360415154492 84.04040404040404 200.4220008220489 90.5050505050505 190.4507913264146 96.96969696969697 178.68455839469706 103.43434343434345 164.78073662606192 109.8989898989899 162.39410213323555 116.36363636363637 158.35634810327545 122.82828282828282 150.82942640904233 129.2929292929293 146.47030247367871 135.75757575757575 132.58692116086775 142.22222222222223 135.70627728548203 148.68686868686868 119.05175794545497 155.15151515151516 102.43436125251321 161.61616161616163 97.17054332620683 168.08080808080808 87.08386334510618 174.54545454545453 77.51841675998742 181.010101010101 74.59625088788977 187.47474747474746 71.29274923228579 193.93939393939394 68.12741113191794 200.40404040404042 55.436702627779596 206.8686868686869 42.60276735800426 213.33333333333331 40.8162571933384 219.7979797979798 36.304496784781065 226.26262626262627 36.657236114665636 232.72727272727275 34.265682039737044 239.1919191919192 23.33060051709782 245.65656565656565 19.768521640747394 252.12121212121212 20.331804164662117 258.5858585858586 23.771748600966703 265.0505050505051 19.357932169189894 271.5151515151515 21.657206179243474 277.979797979798 22.197607747903533 284.44444444444446 24.033353055618022 290.9090909090909 26.401623726912987 297.37373737373736 29.526521543438605 303.83838383838383 29.79459048604673 310.3030303030303 23.469454355801417 316.7676767676768 24.701063351303446 323.23232323232327 22.40424744614654 329.6969696969697 17.801856990414592 336.16161616161617 12.431355026598794 342.62626262626264 14.83579419632548 349.09090909090907 10.202285170371852 355.55555555555554 9.855815313536255 362.020202020202 12.717262899394257 368.4848484848485 20.45556651539306 374.9494949494949 22.802220381273287 381.4141414141414 27.111314480582166 387.8787878787879 30.808704935572337 394.3434343434343 30.772590760905643 400.80808080808083 35.998711256696026 407.27272727272725 39.340454170773796 413.7373737373738 45.23235323294432 420.2020202020202 51.02907001066012 426.66666666666663 55.06954219039699 433.13131313131316 47.53760728882156 439.5959595959596 51.378611497815655 446.0606060606061 59.10444137493505 452.52525252525254 66.29876796664848 458.98989898989896 64.91771878317246 465.4545454545455 67.4971973623222 471.9191919191919 73.66120718961292 478.3838383838384 78.63279595386103 484.8484848484849 85.77813187477804 491.3131313131313 83.41483916814286 497.77777777777777 83.84697824718617 504.24242424242425 83.63790425684192 510.7070707070707 82.83905263163291 517.1717171717172 87.04897557970463 523.6363636363636 93.69364252733862 530.1010101010102 96.66755610986132 536.5656565656566 92.09858623162665 543.030303030303 94.3799729512279 549.4949494949494 101.24166262749083 555.959595959596 101.1459274034739 562.4242424242424 101.85645282372269 568.8888888888889 105.42965783474352 575.3535353535353 105.13610846175541 581.8181818181818 106.01648271964865 588.2828282828283 106.49252427831391 594.7474747474747 108.50861065994113 601.2121212121212 104.55180685300269 607.6767676767677 89.14685844707242 614.1414141414141 88.95786265629971 620.6060606060606 86.2167584569126 627.070707070707 82.74467396642481 633.5353535353536 78.74879166358681 640 79.47638707376328 640 320 0 320"
      />
      
      <polygon
        fill="#0141ae"
        fillRule="evenodd"
        points="0 313.69578717608914 6.464646464646465 304.98956783371193 12.92929292929293 298.4118424928234 19.393939393939394 288.1545829099578 25.85858585858586 281.3468241725538 32.323232323232325 277.4261215069557 38.78787878787879 270.0708760493552 45.25252525252525 260.16864316380156 51.71717171717172 250.6255411354373 58.18181818181819 236.59143451967566 64.64646464646465 228.16527574808742 71.11111111111111 215.5628675754295 77.57575757575758 209.34781742614427 84.04040404040404 203.84833340222784 90.5050505050505 193.80946986302402 96.96969696969697 182.16681930945595 103.43434343434345 169.20004873242783 109.8989898989899 166.68962111783674 116.36363636363637 162.52074808238007 122.82828282828282 154.8747924141277 129.2929292929293 151.5032619694453 135.75757575757575 138.3304699035309 142.22222222222223 141.2745072741041 148.68686868686868 124.45542090622268 155.15151515151516 107.98199529125316 161.61616161616163 102.61886923991563 168.08080808080808 92.52495554330488 174.54545454545453 83.01577616767736 181.010101010101 79.93113868193552 187.47474747474746 76.46479252698305 193.93939393939394 73.6154091458724 200.40404040404042 61.01121474896661 206.8686868686869 50.210955057766625 213.33333333333331 49.30669616864668 219.7979797979798 44.53577146167822 226.26262626262627 46.72639856449132 232.72727272727275 45.53578614404961 239.1919191919192 38.06173334812752 245.65656565656565 34.379788517722545 252.12121212121212 35.187800789553364 258.5858585858586 40.45921821385332 265.0505050505051 36.767009087412646 271.5151515151515 38.534881409388845 277.979797979798 38.68999823320968 284.44444444444446 40.02231804207889 290.9090909090909 41.960129209670754 297.37373737373736 45.10743202146591 303.83838383838383 44.917792752755645 310.3030303030303 38.1422057595795 316.7676767676768 38.92593473820261 323.23232323232327 36.36865267134601 329.6969696969697 33.69979327080239 336.16161616161617 28.417212803442794 342.62626262626264 30.372688953996885 349.09090909090907 26.293868220467857 355.55555555555554 25.536689780317715 362.020202020202 28.083805711836135 368.4848484848485 35.36797070851685 374.9494949494949 37.5886572279137 381.4141414141414 41.460746544002575 387.8787878787879 45.37439323973558 394.3434343434343 45.02171770012461 400.80808080808083 49.82671676132492 407.27272727272725 53.200641489291286 413.7373737373738 58.85790204218563 420.2020202020202 64.62529350162615 426.66666666666663 68.63070784904932 433.13131313131316 63.21826803219017 439.5959595959596 66.93868497061158 446.0606060606061 74.20464782444012 452.52525252525254 80.93804494089707 458.98989898989896 80.2662605356681 465.4545454545455 82.74314776660924 471.9191919191919 88.44177897259826 478.3838383838384 93.40768043352983 484.8484848484849 100.10201268768864 491.3131313131313 98.34474813078788 497.77777777777777 99.94034917583153 504.24242424242425 99.86319185197115 510.7070707070707 98.67411312800186 517.1717171717172 102.40067694515392 523.6363636363636 108.59162655519697 530.1010101010102 111.11078603607342 536.5656565656566 106.11496015417748 543.030303030303 107.96849520671839 549.4949494949494 114.4154073346923 555.959595959596 113.93033278609138 562.4242424242424 114.3943200295466 568.8888888888889 117.5969738534979 575.3535353535353 116.93202661992032 581.8181818181818 117.45234001675658 588.2828282828283 117.6428549050487 594.7474747474747 119.31858623803706 601.2121212121212 115.05058829810991 607.6767676767677 99.80056162351508 614.1414141414141 99.3837181794045 620.6060606060606 97.92029826620308 627.070707070707 95.72546609400317 633.5353535353536 92.85885247715726 640 93.56075483955962 640 320 0 320"
      />
      
      <polygon
        fill="#26c0b0"
        fillRule="evenodd"
        points="0 313.69578717608914 6.464646464646465 305.07506897416914 12.92929292929293 298.5224156193123 19.393939393939394 288.392023096847 25.85858585858586 281.7296734569029 32.323232323232325 277.85565018354504 38.78787878787879 270.54540480701894 45.25252525252525 260.80004953028276 51.71717171717172 251.72754025523096 58.18181818181819 237.79091946415144 64.64646464646465 230.20543361942393 71.11111111111111 218.21675976405479 77.57575757575758 212.42845526316864 84.04040404040404 207.47601398759048 90.5050505050505 198.30974471372667 96.96969696969697 186.52972590262218 103.43434343434345 173.80635793331794 109.8989898989899 171.1553245624931 116.36363636363637 166.8782396640778 122.82828282828282 159.35250094948486 129.2929292929293 156.04890773189393 135.75757575757575 143.12360244592065 142.22222222222223 145.92415619230547 148.68686868686868 128.96765193784515 155.15151515151516 112.62417673396172 161.61616161616163 107.34716190067326 168.08080808080808 97.39169114100972 174.54545454545453 88.0744032288111 181.010101010101 84.90342929342364 187.47474747474746 81.478895863649 193.93939393939394 78.54010478635018 200.40404040404042 65.83892301297158 206.8686868686869 55.25774708216511 213.33333333333331 54.274508555375235 219.7979797979798 49.44574114800764 226.26262626262627 52.03136477249052 232.72727272727275 50.75679152033774 239.1919191919192 43.28755233053073 245.65656565656565 39.62421202045812 252.12121212121212 40.27214206529925 258.5858585858586 46.01547517028655 265.0505050505051 42.22618660190295 271.5151515151515 45.29487589245434 277.979797979798 46.226198133449884 284.44444444444446 47.3422401237317 290.9090909090909 49.12223504626769 297.37373737373736 52.196337589179564 303.83838383838383 51.84782928210217 310.3030303030303 44.899131051135214 316.7676767676768 45.54038974225119 323.23232323232327 42.90204197391381 329.6969696969697 40.52984279502721 336.16161616161617 35.11162296923868 342.62626262626264 37.18656639748116 349.09090909090907 32.9135060172768 355.55555555555554 31.973547820946123 362.020202020202 34.32981542369271 368.4848484848485 41.451326936325074 374.9494949494949 43.65059816425634 381.4141414141414 47.72230278461063 387.8787878787879 51.450389573018924 394.3434343434343 51.049089901963555 400.80808080808083 55.675951012355085 407.27272727272725 59.07765166660556 413.7373737373738 64.64959177807816 420.2020202020202 70.2401946212565 426.66666666666663 74.11919085074823 433.13131313131316 68.67676122075301 439.5959595959596 72.31793475804264 446.0606060606061 79.43581574900674 452.52525252525254 86.08163034667047 458.98989898989896 85.88886772010108 465.4545454545455 88.9520649581616 471.9191919191919 94.47233442026823 478.3838383838384 100.00824444326298 484.8484848484849 106.58859810412827 491.3131313131313 104.63962806426846 497.77777777777777 106.09855452810245 504.24242424242425 105.8334207838297 510.7070707070707 104.49608808799769 517.1717171717172 108.04493903787883 523.6363636363636 114.08017254365163 530.1010101010102 116.43179383022931 536.5656565656566 111.27871098045824 543.030303030303 112.97462583807379 549.4949494949494 119.26872634240715 555.959595959596 118.64021594913078 562.4242424242424 118.96043546011089 568.8888888888889 122.02814185518218 575.3535353535353 121.47110573051071 581.8181818181818 121.8528676846671 588.2828282828283 121.92187505869174 594.7474747474747 123.46981725860593 601.2121212121212 119.66070588581346 607.6767676767677 104.26996001717345 614.1414141414141 103.72102358476349 620.6060606060606 102.12521085397486 627.070707070707 99.8020264697094 633.5353535353536 96.81493172473563 640 97.50963058061032 640 320 0 320"
      />
      
      <polygon
        fill="#dea584"
        fillRule="evenodd"
        points="0 313.69578717608914 6.464646464646465 305.07506897416914 12.92929292929293 298.5224156193123 19.393939393939394 288.392023096847 25.85858585858586 281.7296734569029 32.323232323232325 277.85565018354504 38.78787878787879 270.54540480701894 45.25252525252525 260.80004953028276 51.71717171717172 251.72754025523096 58.18181818181819 237.79091946415144 64.64646464646465 230.20543361942393 71.11111111111111 218.60515436950323 77.57575757575758 212.80499435347974 84.04040404040404 207.8410594540431 90.5050505050505 198.66400144285154 96.96969696969697 187.99616824095156 103.43434343434345 176.33181200950594 109.8989898989899 173.6036903504628 116.36363636363637 169.25187058740934 122.82828282828282 162.75984451269164 129.2929292929293 159.35224382377902 135.75757575757575 148.5573021773243 142.22222222222223 151.19199545820078 148.68686868686868 136.3270501723647 155.15151515151516 123.07427958925499 161.61616161616163 117.47828153484929 168.08080808080808 107.22338992519622 174.54545454545453 98.72217660806501 181.010101010101 95.23651344262802 187.47474747474746 91.49656843876929 193.93939393939394 88.25199361612636 200.40404040404042 76.38147460201316 206.8686868686869 66.58260342577739 213.33333333333331 65.2646632456239 219.7979797979798 60.10042508886136 226.26262626262627 62.37115706256242 232.72727272727275 60.78096827431858 239.1919191919192 53.00574548722625 245.65656565656565 49.05518865329634 252.12121212121212 49.415244461027555 258.5858585858586 54.888358835083295 265.0505050505051 51.93118901671488 271.5151515151515 54.703639778342904 277.979797979798 55.3751698056505 284.44444444444446 56.211945680279484 290.9090909090909 57.729800616887644 297.37373737373736 60.54116310428964 303.83838383838383 61.064060637075045 310.3030303030303 54.08985842135303 316.7676767676768 54.45057225264685 323.23232323232327 51.54889052431588 329.6969696969697 48.912750123238766 336.16161616161617 43.24677862377922 342.62626262626264 45.0734015452673 349.09090909090907 41.66886749294497 355.55555555555554 40.487159346280464 362.020202020202 42.58355366429453 368.4848484848485 49.46112969919403 374.9494949494949 51.47777940847158 381.4141414141414 55.318154636140605 387.8787878787879 58.81438183339719 394.3434343434343 58.188301645480976 400.80808080808083 62.60416637162058 407.27272727272725 65.7943871951494 413.7373737373738 71.16781750725954 420.2020202020202 76.55945577231347 426.66666666666663 80.24555984014683 433.13131313131316 74.62801726764701 439.5959595959596 78.08753052788228 446.0606060606061 85.03489506823996 452.52525252525254 91.5098012177877 458.98989898989896 91.15661204348032 465.4545454545455 94.0590146774257 471.9191919191919 99.42339757029004 478.3838383838384 104.81298206421602 484.8484848484849 111.24667275962426 491.3131313131313 109.16003627696654 497.77777777777777 110.48097961744571 504.24242424242425 110.08207474507654 510.7070707070707 108.62743050097947 517.1717171717172 112.05017364288432 523.6363636363636 117.96703489520442 530.1010101010102 120.20001143097807 536.5656565656566 116.05392754126035 543.030303030303 117.60408303134781 549.4949494949494 123.75687218393026 555.959595959596 123.3538919834858 562.4242424242424 123.53022734438181 568.8888888888889 126.46287759933728 575.3535353535353 125.77047379157509 581.8181818181818 126.02100032262592 588.2828282828283 125.99987632065643 594.7474747474747 127.42334055912022 601.2121212121212 123.49738433601505 607.6767676767677 107.98952594903818 614.1414141414141 107.33065995449084 620.6060606060606 105.62466499528026 627.070707070707 103.19466226580826 633.5353535353536 100.10729938722366 640 100.79600247935622 640 320 0 320"
      />
      
      <polygon
        fill="#701516"
        fillRule="evenodd"
        points="0 313.69578717608914 6.464646464646465 305.07506897416914 12.92929292929293 298.5224156193123 19.393939393939394 288.392023096847 25.85858585858586 281.7296734569029 32.323232323232325 277.85565018354504 38.78787878787879 270.54540480701894 45.25252525252525 260.80004953028276 51.71717171717172 251.72754025523096 58.18181818181819 237.79091946415144 64.64646464646465 230.20543361942393 71.11111111111111 218.60515436950323 77.57575757575758 212.80499435347974 84.04040404040404 207.8410594540431 90.5050505050505 198.66400144285154 96.96969696969697 187.99616824095156 103.43434343434345 176.33181200950594 109.8989898989899 173.6036903504628 116.36363636363637 169.25187058740934 122.82828282828282 162.75984451269164 129.2929292929293 159.35224382377902 135.75757575757575 148.5573021773243 142.22222222222223 151.19199545820078 148.68686868686868 136.3270501723647 155.15151515151516 123.07427958925499 161.61616161616163 117.47828153484929 168.08080808080808 107.22338992519622 174.54545454545453 98.72217660806501 181.010101010101 95.23651344262802 187.47474747474746 91.49656843876929 193.93939393939394 88.25199361612636 200.40404040404042 76.38147460201316 206.8686868686869 66.58260342577739 213.33333333333331 65.2646632456239 219.7979797979798 60.10042508886136 226.26262626262627 62.37115706256242 232.72727272727275 60.78096827431858 239.1919191919192 53.00574548722625 245.65656565656565 49.05518865329634 252.12121212121212 49.415244461027555 258.5858585858586 54.888358835083295 265.0505050505051 51.93118901671488 271.5151515151515 54.703639778342904 277.979797979798 55.3751698056505 284.44444444444446 56.211945680279484 290.9090909090909 57.729800616887644 297.37373737373736 60.54116310428964 303.83838383838383 61.064060637075045 310.3030303030303 54.08985842135303 316.7676767676768 54.45057225264685 323.23232323232327 51.54889052431588 329.6969696969697 48.912750123238766 336.16161616161617 43.24677862377922 342.62626262626264 45.0734015452673 349.09090909090907 41.66886749294497 355.55555555555554 40.487159346280464 362.020202020202 42.58355366429453 368.4848484848485 49.46112969919403 374.9494949494949 51.47777940847158 381.4141414141414 55.318154636140605 387.8787878787879 58.81438183339719 394.3434343434343 58.188301645480976 400.80808080808083 62.60416637162058 407.27272727272725 65.7943871951494 413.7373737373738 71.16781750725954 420.2020202020202 76.55945577231347 426.66666666666663 80.24555984014683 433.13131313131316 74.62801726764701 439.5959595959596 78.08753052788228 446.0606060606061 85.03489506823996 452.52525252525254 91.5098012177877 458.98989898989896 91.15661204348032 465.4545454545455 94.0590146774257 471.9191919191919 99.42339757029004 478.3838383838384 104.81298206421602 484.8484848484849 111.24667275962426 491.3131313131313 109.16003627696654 497.77777777777777 110.48097961744571 504.24242424242425 110.08207474507654 510.7070707070707 108.62743050097947 517.1717171717172 112.05017364288432 523.6363636363636 117.96703489520442 530.1010101010102 120.20001143097807 536.5656565656566 116.05392754126035 543.030303030303 117.60408303134781 549.4949494949494 123.75687218393026 555.959595959596 123.3538919834858 562.4242424242424 123.53022734438181 568.8888888888889 126.46287759933728 575.3535353535353 125.77047379157509 581.8181818181818 126.02100032262592 588.2828282828283 125.99987632065643 594.7474747474747 127.42334055912022 601.2121212121212 123.49738433601505 607.6767676767677 108.00908218794788 614.1414141414141 107.34963821850383 620.6060606060606 105.64306395992782 627.070707070707 103.21249961156519 633.5353535353536 100.12460955952253 640 100.81328112745172 640 320 0 320"
      />
      
      <polygon
        fill="#3572A5"
        fillRule="evenodd"
        points="0 313.69578717608914 6.464646464646465 305.07506897416914 12.92929292929293 298.5224156193123 19.393939393939394 288.392023096847 25.85858585858586 281.7296734569029 32.323232323232325 277.85565018354504 38.78787878787879 270.54540480701894 45.25252525252525 260.80004953028276 51.71717171717172 251.72754025523096 58.18181818181819 237.79091946415144 64.64646464646465 230.20543361942393 71.11111111111111 218.60515436950323 77.57575757575758 212.80499435347974 84.04040404040404 207.8410594540431 90.5050505050505 198.66400144285154 96.96969696969697 187.99616824095156 103.43434343434345 176.33181200950594 109.8989898989899 173.6036903504628 116.36363636363637 169.25187058740934 122.82828282828282 163.42147260276215 129.2929292929293 159.99367607885654 135.75757575757575 149.21619642641502 142.22222222222223 151.8307773374563 148.68686868686868 137.9481959975445 155.15151515151516 125.43984944086498 161.61616161616163 119.7716438011775 168.08080808080808 109.44897320195969 174.54545454545453 100.87982522652806 181.010101010101 97.33039387907212 187.47474747474746 93.52653437485802 193.93939393939394 90.21999599726291 200.40404040404042 78.2951372916877 206.8686868686869 68.47372333023216 213.33333333333331 67.09989231984753 219.7979797979798 61.87963468779964 226.26262626262627 64.0977832010827 232.72727272727275 62.45489001373966 239.1919191919192 54.62857181549077 245.65656565656565 50.630053084441386 252.12121212121212 50.94203705079741 258.5858585858586 56.370028041809746 265.0505050505051 53.403464462938985 271.5151515151515 56.13097484219594 277.979797979798 56.76309396392861 284.44444444444446 57.557504309552485 290.9090909090909 59.03559179239238 297.37373737373736 61.80709568532063 303.83838383838383 62.29257939342125 310.3030303030303 55.2808772471393 316.7676767676768 55.60523600665471 323.23232323232327 52.66942881439837 329.6969696969697 49.99908475539735 336.16161616161617 44.301007170008404 342.62626262626264 46.09545033264078 349.09090909090907 42.65971877577249 355.55555555555554 41.450651720357996 362.020202020202 43.51763594999318 368.4848484848485 50.36760570156741 374.9494949494949 52.3789172576038 381.4141414141414 56.192659876495554 387.8787878787879 59.662193224997 394.3434343434343 59.0102340088369 400.80808080808083 63.40180701407928 407.27272727272725 66.5676803225698 413.7373737373738 71.91825634758604 420.2020202020202 77.28698794275957 426.66666666666663 80.95088456562794 433.13131313131316 75.31318120671983 439.5959595959596 78.75178026441597 446.0606060606061 85.67951324069114 452.52525252525254 92.13474280038736 458.98989898989896 91.7630837309473 465.4545454545455 94.64697422856045 471.9191919191919 99.99341000609004 478.3838383838384 105.36614813218333 484.8484848484849 111.7829537121151 491.3131313131313 109.6804676861172 497.77777777777777 110.98552521192704 504.24242424242425 110.5712193687807 510.7070707070707 109.10306903801452 517.1717171717172 112.51129354775657 523.6363636363636 118.41452667528381 530.1010101010102 120.63384386004094 536.5656565656566 116.47493820958164 543.030303030303 118.01224259305886 549.4949494949494 124.15257290369487 555.959595959596 123.73789798415575 562.4242424242424 123.90251178722849 568.8888888888889 126.82415937594016 575.3535353535353 126.12072759420505 581.8181818181818 126.36056287868496 588.2828282828283 126.33006298472344 594.7474747474747 127.74344849969725 601.2121212121212 123.80803164532196 607.6767676767677 108.32966345395812 614.1414141414141 107.66074484819535 620.6060606060606 105.94467422132851 627.070707070707 103.50490344925504 633.5353535353536 100.40837150129107 640 101.09652634149398 640 320 0 320"
      />
      
      <polygon
        fill="#0298c3"
        fillRule="evenodd"
        points="0 313.69578717608914 6.464646464646465 305.07506897416914 12.92929292929293 298.5224156193123 19.393939393939394 288.392023096847 25.85858585858586 281.7296734569029 32.323232323232325 277.85565018354504 38.78787878787879 270.54540480701894 45.25252525252525 260.80004953028276 51.71717171717172 251.72754025523096 58.18181818181819 237.79091946415144 64.64646464646465 230.20543361942393 71.11111111111111 218.60515436950323 77.57575757575758 212.80499435347974 84.04040404040404 207.8410594540431 90.5050505050505 198.66400144285154 96.96969696969697 187.99616824095156 103.43434343434345 176.33181200950594 109.8989898989899 173.6036903504628 116.36363636363637 169.25187058740934 122.82828282828282 163.42147260276215 129.2929292929293 159.99367607885654 135.75757575757575 149.21619642641502 142.22222222222223 151.8307773374563 148.68686868686868 137.9481959975445 155.15151515151516 126.07796099924161 161.61616161616163 120.39027736807387 168.08080808080808 110.04932339877689 174.54545454545453 101.46185007922082 181.010101010101 97.89521731591265 187.47474747474746 94.0741168775653 193.93939393939394 90.7508638905664 200.40404040404042 78.81134704692579 206.8686868686869 68.97417601860681 213.33333333333331 67.69002865421683 219.7979797979798 62.451757467623224 226.26262626262627 64.65299717090147 232.72727272727275 62.99315640535957 239.1919191919192 55.15040794232243 245.65656565656565 51.13646667292636 252.12121212121212 51.43299261051908 258.5858585858586 56.846473692982954 265.0505050505051 53.86536689348185 271.5151515151515 56.57877793919653 277.979797979798 57.198532483338 284.44444444444446 57.97965133909452 290.9090909090909 59.44526246083319 297.37373737373736 62.20426139687868 303.83838383838383 62.6780070863432 310.3030303030303 55.65453999022009 316.7676767676768 55.96749292715401 323.23232323232327 53.02097941466104 329.6969696969697 50.33990446750602 336.16161616161617 44.63175411822226 342.62626262626264 46.41610143894121 349.09090909090907 42.970582182055125 355.55555555555554 41.75293167585255 362.020202020202 43.81068899309969 368.4848484848485 50.65199770612202 374.9494949494949 52.65462837198936 381.4141414141414 56.4602224775133 387.8787878787879 59.92158865294891 394.3434343434343 59.261711518653215 400.80808080808083 63.64585225111489 407.27272727272725 66.80427621977714 413.7373737373738 72.14785977986068 420.2020202020202 77.50958287057034 426.66666666666663 81.16668489734067 433.13131313131316 75.52281321358493 439.5959595959596 78.95501337175153 446.0606060606061 85.87673990838911 452.52525252525254 92.32594922890243 458.98989898989896 91.94863915830052 465.4545454545455 94.82686567721959 471.9191919191919 100.16781038651624 478.3838383838384 105.5353941923288 484.8484848484849 111.94703362526607 491.3131313131313 109.83969830750826 497.77777777777777 111.13989542383064 504.24242424242425 110.72087750346543 510.7070707070707 109.24859487161353 517.1717171717172 112.65237728407286 523.6363636363636 118.55144076029288 530.1010101010102 120.7665787275651 536.5656565656566 116.60375016331352 543.030303030303 118.13712263195475 549.4949494949494 124.27364106222157 555.959595959596 123.85538802229598 562.4242424242424 124.01641552595163 568.8888888888889 126.93469674485812 575.3535353535353 126.22789086639449 581.8181818181818 126.46445505239052 588.2828282828283 126.43108653092946 594.7474747474747 127.8413883633296 601.2121212121212 126.40228349359285 607.6767676767677 115.17753833282339 614.1414141414141 114.40687155881614 620.6060606060606 112.6904006115569 627.070707070707 110.04472099722094 633.5353535353536 107.19463444131893 640 107.87043031417025 640 320 0 320"
      />
      
      <polygon
        fill="#fd2fdb"
        fillRule="evenodd"
        points="0 313.69578717608914 6.464646464646465 305.07506897416914 12.92929292929293 298.5224156193123 19.393939393939394 288.392023096847 25.85858585858586 281.7296734569029 32.323232323232325 277.85565018354504 38.78787878787879 270.54540480701894 45.25252525252525 260.80004953028276 51.71717171717172 251.72754025523096 58.18181818181819 237.79091946415144 64.64646464646465 230.20543361942393 71.11111111111111 218.60515436950323 77.57575757575758 212.80499435347974 84.04040404040404 207.8410594540431 90.5050505050505 198.66400144285154 96.96969696969697 187.99616824095156 103.43434343434345 176.33181200950594 109.8989898989899 173.6036903504628 116.36363636363637 169.25187058740934 122.82828282828282 163.42147260276215 129.2929292929293 159.99367607885654 135.75757575757575 149.21619642641502 142.22222222222223 151.8307773374563 148.68686868686868 137.9481959975445 155.15151515151516 126.07796099924161 161.61616161616163 120.39027736807387 168.08080808080808 110.04932339877689 174.54545454545453 101.46185007922082 181.010101010101 97.89521731591265 187.47474747474746 94.0741168775653 193.93939393939394 90.7508638905664 200.40404040404042 78.81134704692579 206.8686868686869 68.97417601860681 213.33333333333331 67.69002865421683 219.7979797979798 62.451757467623224 226.26262626262627 64.65299717090147 232.72727272727275 62.99315640535957 239.1919191919192 55.15040794232243 245.65656565656565 51.13646667292636 252.12121212121212 51.43299261051908 258.5858585858586 56.846473692982954 265.0505050505051 53.86536689348185 271.5151515151515 56.57877793919653 277.979797979798 58.32813634518226 284.44444444444446 59.07477473009453 290.9090909090909 60.508020009756024 297.37373737373736 63.2345789170397 303.83838383838383 64.55863522626237 310.3030303030303 57.477763048978204 316.7676767676768 57.735063025729346 323.23232323232327 54.73630985980839 329.6969696969697 52.00287565631544 336.16161616161617 46.24557703946783 342.62626262626264 47.980663271321305 349.09090909090907 44.48738669583241 355.55555555555554 43.22785472360442 362.020202020202 45.24059089569073 368.4848484848485 52.039639502891305 374.9494949494949 53.9999132708914 381.4141414141414 57.76574824552989 387.8787878787879 61.18726394387147 394.3434343434343 60.48875270640514 400.80808080808083 64.83662889128391 407.27272727272725 67.9587051862859 413.7373737373738 73.26817021817985 420.2020202020202 78.59569648394964 426.66666666666663 82.21964548832278 433.13131313131316 76.54567651321469 439.5959595959596 79.94665424956258 446.0606060606061 86.83907344946206 452.52525252525254 93.2589080281609 458.98989898989896 92.85402486301379 465.4545454545455 95.70461509512856 471.9191919191919 101.0187669030883 478.3838383838384 106.3612011145548 484.8484848484849 112.74763330947553 491.3131313131313 110.61663675488825 497.77777777777777 111.89311824793762 504.24242424242425 111.4511086512596 510.7070707070707 109.95866312659072 517.1717171717172 113.34077111822154 523.6363636363636 119.21948949214004 530.1010101010102 121.41423564621482 536.5656565656566 117.23226592063662 543.030303030303 118.74645332217514 549.4949494949494 124.86437226693994 555.959595959596 124.42866044912745 562.4242424242424 124.57218918395765 568.8888888888889 127.47404477217486 575.3535353535353 126.75077561482081 581.8181818181818 126.97137903910073 588.2828282828283 126.92401353500674 594.7474747474747 128.31926905419297 601.2121212121212 126.8660406940032 607.6767676767677 115.62713957326224 614.1414141414141 114.84318509064798 620.6060606060606 114.22067977000125 627.070707070707 111.52828936252371 633.5353535353536 109.75408174007066 640 110.4252162847385 640 320 0 320"
      />
      
      <polygon
        fill="#4F5D95"
        fillRule="evenodd"
        points="0 313.69578717608914 6.464646464646465 305.07506897416914 12.92929292929293 298.5224156193123 19.393939393939394 288.392023096847 25.85858585858586 281.7296734569029 32.323232323232325 277.85565018354504 38.78787878787879 270.54540480701894 45.25252525252525 260.80004953028276 51.71717171717172 251.72754025523096 58.18181818181819 237.79091946415144 64.64646464646465 230.20543361942393 71.11111111111111 218.60515436950323 77.57575757575758 212.80499435347974 84.04040404040404 207.8410594540431 90.5050505050505 198.66400144285154 96.96969696969697 187.99616824095156 103.43434343434345 176.33181200950594 109.8989898989899 173.6036903504628 116.36363636363637 169.25187058740934 122.82828282828282 163.42147260276215 129.2929292929293 159.99367607885654 135.75757575757575 149.21619642641502 142.22222222222223 151.8307773374563 148.68686868686868 137.9481959975445 155.15151515151516 126.07796099924161 161.61616161616163 120.39027736807387 168.08080808080808 110.04932339877689 174.54545454545453 101.46185007922082 181.010101010101 97.89521731591265 187.47474747474746 94.0741168775653 193.93939393939394 90.7508638905664 200.40404040404042 78.81134704692579 206.8686868686869 68.97417601860681 213.33333333333331 67.69002865421683 219.7979797979798 62.451757467623224 226.26262626262627 64.67262424884737 232.72727272727275 63.0121843775338 239.1919191919192 55.16885509646198 245.65656565656565 51.15436863097011 252.12121212121212 51.45034812300702 258.5858585858586 56.86331627236268 265.0505050505051 53.8816953622196 271.5151515151515 56.59460799055046 277.979797979798 58.343529303386504 284.44444444444446 59.089697826623365 290.9090909090909 60.52250206233464 297.37373737373736 63.24861891356443 303.83838383838383 64.57226027878119 310.3030303030303 57.49097220395589 316.7676767676768 57.74786897915857 323.23232323232327 54.74873733989898 329.6969696969697 52.014923794816184 336.16161616161617 46.257269101405086 342.62626262626264 47.99199843981961 349.09090909090907 44.49837586513439 355.55555555555554 43.23854046371491 362.020202020202 45.25095045996528 368.4848484848485 52.04969289501935 374.9494949494949 54.00965978959289 381.4141414141414 57.77520671079549 387.8787878787879 61.19643369552176 394.3434343434343 60.49764255642083 400.80808080808083 64.84525600638167 407.27272727272725 67.96706896382739 413.7373737373738 73.27628680866792 420.2020202020202 78.60356531968148 426.66666666666663 82.22727413284673 433.13131313131316 76.55308710437168 439.5959595959596 79.95383863606497 446.0606060606061 86.84604550483641 452.52525252525254 93.26566726598085 458.98989898989896 92.8605843349984 465.4545454545455 95.71097434310815 471.9191919191919 101.02493203893602 478.3838383838384 106.3671840430757 484.8484848484849 112.75343361257325 491.3131313131313 110.62226563321079 497.77777777777777 111.89857530794629 504.24242424242425 111.45639913739814 510.7070707070707 109.96380753400962 517.1717171717172 113.34575849523992 523.6363636363636 119.22432946997748 530.1010101010102 121.41892788671566 536.5656565656566 117.23681948433776 543.030303030303 118.75086789085475 549.4949494949494 124.8686520834188 555.959595959596 124.4328137779255 562.4242424242424 124.5762157351098 568.8888888888889 127.47795232048674 575.3535353535353 126.75456388738408 581.8181818181818 126.97505167702246 588.2828282828283 126.92758476538194 594.7474747474747 128.32273127483873 601.2121212121212 126.86940059045503 607.6767676767677 115.63039691093815 614.1414141414141 114.84634615938685 620.6060606060606 114.22374434878435 627.070707070707 111.53126039682951 633.5353535353536 109.75696496703708 640 110.42809426089062 640 320 0 320"
      />
      
      <polygon
        fill="#755462"
        fillRule="evenodd"
        points="0 318.0212233284164 6.464646464646465 313.52736191660046 12.92929292929293 310.89611920022355 19.393939393939394 304.6063470919063 25.85858585858586 301.51235437752734 32.323232323232325 299.6347410259259 38.78787878787879 295.68731949545275 45.25252525252525 289.60723443682144 51.71717171717172 284.85403834382356 58.18181818181819 274.44711520098656 64.64646464646465 270.19675958009213 71.11111111111111 262.9523494634614 77.57575757575758 259.7805846384197 84.04040404040404 257.2939527522808 90.5050505050505 251.4885552282483 96.96969696969697 243.1157343812756 103.43434343434345 233.69073713356795 109.8989898989899 232.44225656936584 116.36363636363637 230.4870705339594 122.82828282828282 226.7432439532936 129.2929292929293 225.0261759368002 135.75757575757575 216.76215554500996 142.22222222222223 218.751523547469 148.68686868686868 208.3586139816549 155.15151515151516 198.35245198441388 161.61616161616163 194.34756485463197 168.08080808080808 186.11860304524237 174.54545454545453 178.698917535763 181.010101010101 176.474966150283 187.47474747474746 173.87226384267274 193.93939393939394 171.3868991103181 200.40404040404042 162.65601802811003 206.8686868686869 154.1285913391711 213.33333333333331 153.5479228081365 219.7979797979798 149.7711293088453 226.26262626262627 151.9917946968535 232.72727272727275 150.240364137574 239.1919191919192 143.46421339752072 245.65656565656565 140.69795797414656 252.12121212121212 142.92932216097128 258.5858585858586 147.0536614331249 265.0505050505051 144.4471148372779 271.5151515151515 147.1406793316521 277.979797979798 149.53419251251938 284.44444444444446 150.79087228774887 290.9090909090909 152.382150379017 297.37373737373736 155.0354676927625 303.83838383838383 154.49036496732805 310.3030303030303 148.8868201645387 316.7676767676768 148.9629870787942 323.23232323232327 145.9047218702725 329.6969696969697 141.78897684810443 336.16161616161617 137.45865958183413 342.62626262626264 139.37094992059454 349.09090909090907 135.06402139380242 355.55555555555554 134.18774759220653 362.020202020202 137.09697390908173 368.4848484848485 142.45247296300408 374.9494949494949 144.39921366637802 381.4141414141414 146.9757720314642 387.8787878787879 149.82608932223783 394.3434343434343 149.06456316886587 400.80808080808083 151.7193433371707 407.27272727272725 154.1923464717317 413.7373737373738 158.302940739101 420.2020202020202 162.4215167642004 426.66666666666663 164.48552554162012 433.13131313131316 158.22321483681452 439.5959595959596 161.3477391326307 446.0606060606061 165.87463816647607 452.52525252525254 170.07069387106858 458.98989898989896 168.56364685860189 465.4545454545455 169.21371836888358 471.9191919191919 173.47268900587008 478.3838383838384 177.1537706464564 484.8484848484849 181.49367505181692 491.3131313131313 177.55138199188045 497.77777777777777 179.11020113780967 504.24242424242425 179.84342153633708 510.7070707070707 178.8519969507298 517.1717171717172 181.19130440772426 523.6363636363636 185.21839973255808 530.1010101010102 189.19425949299745 536.5656565656566 186.26902971082427 543.030303030303 186.94218951478658 549.4949494949494 190.98328701121116 555.959595959596 193.0611278548804 562.4242424242424 195.38481687752505 568.8888888888889 199.02875425208092 575.3535353535353 200.45616830112016 581.8181818181818 202.54858856482284 588.2828282828283 204.68148372734044 594.7474747474747 208.1473224022143 601.2121212121212 207.11126407595742 607.6767676767677 197.53789737381803 614.1414141414141 198.09249910826045 620.6060606060606 198.37915067688138 627.070707070707 197.54825519131467 633.5353535353536 197.64428006234283 640 198.22548317522882 640 320 0 320"
      />
      
      <polygon
        fill="#2415b9"
        fillRule="evenodd"
        points="0 318.0212233284164 6.464646464646465 313.52736191660046 12.92929292929293 310.89611920022355 19.393939393939394 304.6063470919063 25.85858585858586 301.51235437752734 32.323232323232325 299.6347410259259 38.78787878787879 295.68731949545275 45.25252525252525 289.60723443682144 51.71717171717172 284.85403834382356 58.18181818181819 274.44711520098656 64.64646464646465 270.19675958009213 71.11111111111111 262.9523494634614 77.57575757575758 259.7805846384197 84.04040404040404 257.2939527522808 90.5050505050505 251.4885552282483 96.96969696969697 243.1157343812756 103.43434343434345 233.69073713356795 109.8989898989899 232.44225656936584 116.36363636363637 230.4870705339594 122.82828282828282 226.7432439532936 129.2929292929293 225.0261759368002 135.75757575757575 216.76215554500996 142.22222222222223 218.751523547469 148.68686868686868 208.3586139816549 155.15151515151516 198.35245198441388 161.61616161616163 194.34756485463197 168.08080808080808 186.11860304524237 174.54545454545453 178.698917535763 181.010101010101 176.474966150283 187.47474747474746 173.87226384267274 193.93939393939394 171.3868991103181 200.40404040404042 162.65601802811003 206.8686868686869 154.1285913391711 213.33333333333331 153.5479228081365 219.7979797979798 149.7711293088453 226.26262626262627 151.9917946968535 232.72727272727275 150.240364137574 239.1919191919192 143.46421339752072 245.65656565656565 140.69795797414656 252.12121212121212 142.92932216097128 258.5858585858586 147.0536614331249 265.0505050505051 144.4471148372779 271.5151515151515 147.1406793316521 277.979797979798 149.53419251251938 284.44444444444446 150.79087228774887 290.9090909090909 152.382150379017 297.37373737373736 155.0354676927625 303.83838383838383 154.49036496732805 310.3030303030303 148.8868201645387 316.7676767676768 148.9629870787942 323.23232323232327 145.9047218702725 329.6969696969697 142.14860759079312 336.16161616161617 137.8182903245228 342.62626262626264 139.73058066328323 349.09090909090907 135.4236521364911 355.55555555555554 134.5473783348952 362.020202020202 137.4566046517704 368.4848484848485 142.8121037056928 374.9494949494949 144.75884440906668 381.4141414141414 147.3354027741529 387.8787878787879 150.18572006492656 394.3434343434343 149.42419391155457 400.80808080808083 152.07897407985936 407.27272727272725 154.55197721442036 413.7373737373738 158.6625714817897 420.2020202020202 162.78114750688908 426.66666666666663 164.8451562843088 433.13131313131316 158.58284557950324 439.5959595959596 161.7073698753194 446.0606060606061 166.23426890916474 452.52525252525254 170.43032461375728 458.98989898989896 168.92327760129058 465.4545454545455 169.57334911157227 471.9191919191919 173.83231974855877 478.3838383838384 177.5134013891451 484.8484848484849 181.85330579450564 491.3131313131313 177.91101273456914 497.77777777777777 179.46983188049836 504.24242424242425 180.20305227902577 510.7070707070707 179.2116276934185 517.1717171717172 181.55093515041295 523.6363636363636 185.57803047524678 530.1010101010102 189.55389023568614 536.5656565656566 186.62866045351296 543.030303030303 187.30182025747527 549.4949494949494 191.34291775389985 555.959595959596 193.4207585975691 562.4242424242424 195.74444762021375 568.8888888888889 199.38838499476958 575.3535353535353 200.81579904380885 581.8181818181818 202.9082193075115 588.2828282828283 205.04111447002913 594.7474747474747 208.50695314490298 601.2121212121212 207.47089481864612 607.6767676767677 197.89752811650672 614.1414141414141 198.45212985094915 620.6060606060606 198.73878141957007 627.070707070707 197.90788593400336 633.5353535353536 198.00391080503152 640 198.22548317522882 640 320 0 320"
      />
      
      <polygon
        fill="#f1e05a"
        fillRule="evenodd"
        points="0 318.0212233284164 6.464646464646465 313.52736191660046 12.92929292929293 310.89611920022355 19.393939393939394 304.6063470919063 25.85858585858586 301.51235437752734 32.323232323232325 299.6347410259259 38.78787878787879 295.68731949545275 45.25252525252525 289.60723443682144 51.71717171717172 284.85403834382356 58.18181818181819 275.5586202860743 64.64646464646465 271.2743365871564 71.11111111111111 264.38151032121925 77.57575757575758 261.6232388544602 84.04040404040404 259.0916107918092 90.5050505050505 253.23308440164942 96.96969696969697 246.008080761357 103.43434343434345 237.6110471992236 109.8989898989899 236.28994105606503 116.36363636363637 234.2173061962015 122.82828282828282 230.5136632134491 129.2929292929293 228.68150493366076 135.75757575757575 222.60331536660527 142.22222222222223 224.4143843036828 148.68686868686868 213.85411235162724 155.15151515151516 203.68020398526323 161.61616161616163 199.5126908061211 168.08080808080808 191.13107530236275 174.54545454545453 184.67456846620163 181.010101010101 182.27400982110535 187.47474747474746 179.49429520691086 193.93939393939394 176.83732084924367 200.40404040404042 169.279033271351 206.8686868686869 161.91429133500162 213.33333333333331 161.10352016312086 219.7979797979798 157.65194279947588 226.26262626262627 159.74984360964345 232.72727272727275 157.7616013438855 239.1919191919192 151.88564334337272 245.65656565656565 148.87049878566415 252.12121212121212 150.85240048399908 258.5858585858586 154.742579042006 265.0505050505051 153.00429100326514 271.5151515151515 155.44769224295948 277.979797979798 157.6118380737219 284.44444444444446 159.39920233057617 290.9090909090909 161.38428677125904 297.37373737373736 163.76282009867364 303.83838383838383 164.07998920874758 310.3030303030303 158.18372491522794 316.7676767676768 157.97611029297707 323.23232323232327 154.65146556582943 329.6969696969697 150.62836142297795 336.16161616161617 146.0474313635994 342.62626262626264 147.70853144503042 349.09090909090907 144.26950389963457 355.55555555555554 143.1489771177358 362.020202020202 145.79564730453802 368.4848484848485 150.90469038297948 374.9494949494949 152.60441100436455 381.4141414141414 154.94909693434403 387.8787878787879 157.56700953651173 394.3434343434343 156.5801747228453 400.80808080808083 159.02346427150616 407.27272727272725 161.2844917986788 413.7373737373738 165.19610895222345 420.2020202020202 169.11525205721975 426.66666666666663 170.98591553824537 433.13131313131316 165.6689665777521 439.5959595959596 168.57719044961993 446.0606060606061 172.90105840640578 452.52525252525254 176.89361243142406 458.98989898989896 175.19554600870367 465.4545454545455 175.65416038674195 471.9191919191919 179.72751758279887 478.3838383838384 183.2343690202264 484.8484848484849 187.39964372404893 491.3131313131313 183.2934318963597 497.77777777777777 184.68795682004077 504.24242424242425 185.26189573511496 510.7070707070707 184.13078851401463 517.1717171717172 186.31994212130854 523.6363636363636 190.20609106821945 530.1010101010102 194.04068345461016 536.5656565656566 190.98284785069853 543.030303030303 191.5230985100788 549.4949494949494 195.43534370220215 555.959595959596 197.39223487026166 562.4242424242424 199.59469709612145 568.8888888888889 203.12484257711512 575.3535353535353 204.438203640673 581.8181818181818 206.42005214448352 588.2828282828283 208.45597945334015 594.7474747474747 211.81758172623665 601.2121212121212 210.68367938307802 607.6767676767677 201.01224425445335 614.1414141414141 201.47479233520613 620.6060606060606 201.66917868450912 627.070707070707 200.74883429934627 633.5353535353536 200.76089659188546 640 200.9774487224181 640 320 0 320"
      />
      
      <polygon
        fill="#22e8e8"
        fillRule="evenodd"
        points="0 319.9256742307444 6.464646464646465 319.85646893537904 12.92929292929293 319.8272328363535 19.393939393939394 318.660302427068 25.85858585858586 318.54752937767506 32.323232323232325 318.4075973163758 38.78787878787879 318.2695438775044 45.25252525252525 316.0115342058888 51.71717171717172 316.01949670796137 58.18181818181819 310.27119681163043 64.64646464646465 309.3798678499043 71.11111111111111 306.9369294960765 77.57575757575758 307.02226139430616 84.04040404040404 306.279099620407 90.5050505050505 304.58411081483086 96.96969696969697 300.15629454084296 103.43434343434345 294.7536390188123 109.8989898989899 293.4787711139994 116.36363636363637 293.7809527258986 122.82828282828282 290.8838515547413 129.2929292929293 291.2549145066329 135.75757575757575 286.9785294188173 142.22222222222223 287.2959121392772 148.68686868686868 280.0896181445209 155.15151515151516 272.3565133536209 161.61616161616163 270.687334393609 168.08080808080808 264.64101708057393 174.54545454545453 259.71601317489876 181.010101010101 258.4821120718307 187.47474747474746 256.4976078182874 193.93939393939394 254.70954962822722 200.40404040404042 249.75800233302442 206.8686868686869 243.84328435858103 213.33333333333331 243.3268082710901 219.7979797979798 241.83024835823448 226.26262626262627 242.76850956343833 232.72727272727275 241.70744159057017 239.1919191919192 237.21782927763005 245.65656565656565 234.04434033143207 252.12121212121212 235.73027003859983 258.5858585858586 237.40440396015904 265.0505050505051 235.5604975098725 271.5151515151515 237.0050603248233 277.979797979798 238.3993251019003 284.44444444444446 240.81755463509546 290.9090909090909 242.5414577626589 297.37373737373736 244.591689322655 303.83838383838383 243.7603242250994 310.3030303030303 239.79404091757962 316.7676767676768 239.82807760408735 323.23232323232327 237.43527723190246 329.6969696969697 235.7225437317239 336.16161616161617 231.99174992256917 342.62626262626264 232.20068161535144 349.09090909090907 229.5869490835073 355.55555555555554 229.00004856270843 362.020202020202 230.6153491552999 368.4848484848485 233.2473173290861 374.9494949494949 234.38582903892342 381.4141414141414 235.44973631705545 387.8787878787879 235.9808041958774 394.3434343434343 235.02387010967453 400.80808080808083 236.2727334853895 407.27272727272725 237.1099109761091 413.7373737373738 239.1760613957022 420.2020202020202 241.04012647461258 426.66666666666663 242.01072360061585 433.13131313131316 236.84730614175842 439.5959595959596 238.18583738081605 446.0606060606061 240.602291694464 452.52525252525254 242.6985004830879 458.98989898989896 240.2079342879998 465.4545454545455 240.05516921085245 471.9191919191919 242.49390192974846 478.3838383838384 244.47756304442825 484.8484848484849 246.78128627245334 491.3131313131313 243.48877496317152 497.77777777777777 244.04376144085762 504.24242424242425 246.20493166630473 510.7070707070707 246.89556582530258 517.1717171717172 247.99728237808418 523.6363636363636 250.1182197875819 530.1010101010102 252.2328113584975 536.5656565656566 249.58174381247693 543.030303030303 249.4427393378129 549.4949494949494 251.59486639135596 555.959595959596 252.51199623870315 562.4242424242424 253.3534205061115 568.8888888888889 255.30237236314372 575.3535353535353 256.153253429186 581.8181818181818 257.9440167616927 588.2828282828283 258.99693967364817 594.7474747474747 260.8264615518376 601.2121212121212 259.22056851929386 607.6767676767677 252.11867757940095 614.1414141414141 252.0948106954376 620.6060606060606 251.32924600596212 627.070707070707 250.03618648417518 633.5353535353536 248.84023575430976 640 249.02110943261846 640 320 0 320"
      />
      
      <polygon
        fill="#22e4e8"
        fillRule="evenodd"
        points="0 319.9256742307444 6.464646464646465 319.85646893537904 12.92929292929293 319.8272328363535 19.393939393939394 318.660302427068 25.85858585858586 318.54752937767506 32.323232323232325 318.4075973163758 38.78787878787879 318.2695438775044 45.25252525252525 316.0115342058888 51.71717171717172 316.01949670796137 58.18181818181819 310.27119681163043 64.64646464646465 309.3798678499043 71.11111111111111 306.9369294960765 77.57575757575758 307.02226139430616 84.04040404040404 306.279099620407 90.5050505050505 304.58411081483086 96.96969696969697 300.15629454084296 103.43434343434345 294.7536390188123 109.8989898989899 293.4787711139994 116.36363636363637 293.7809527258986 122.82828282828282 290.8838515547413 129.2929292929293 291.2549145066329 135.75757575757575 286.9785294188173 142.22222222222223 287.2959121392772 148.68686868686868 280.0896181445209 155.15151515151516 272.3565133536209 161.61616161616163 270.687334393609 168.08080808080808 264.64101708057393 174.54545454545453 259.71601317489876 181.010101010101 258.4821120718307 187.47474747474746 256.4976078182874 193.93939393939394 254.70954962822722 200.40404040404042 249.75800233302442 206.8686868686869 243.84328435858103 213.33333333333331 243.3268082710901 219.7979797979798 241.83024835823448 226.26262626262627 242.76850956343833 232.72727272727275 241.70744159057017 239.1919191919192 237.21782927763005 245.65656565656565 234.04434033143207 252.12121212121212 235.73027003859983 258.5858585858586 237.40440396015904 265.0505050505051 235.5604975098725 271.5151515151515 237.0050603248233 277.979797979798 238.3993251019003 284.44444444444446 240.81755463509546 290.9090909090909 242.5414577626589 297.37373737373736 244.591689322655 303.83838383838383 243.7603242250994 310.3030303030303 239.79404091757962 316.7676767676768 239.82807760408735 323.23232323232327 237.43527723190246 329.6969696969697 235.773919552108 336.16161616161617 232.04312574295326 342.62626262626264 232.25205743573554 349.09090909090907 229.63832490389137 355.55555555555554 229.05142438309252 362.020202020202 230.666724975684 368.4848484848485 233.29869314947018 374.9494949494949 234.43720485930754 381.4141414141414 235.50111213743955 387.8787878787879 236.03218001626146 394.3434343434343 235.07524593005863 400.80808080808083 236.32410930577362 407.27272727272725 237.1612867964932 413.7373737373738 239.2274372160863 420.2020202020202 241.0915022949967 426.66666666666663 242.06209942099997 433.13131313131316 236.89868196214252 439.5959595959596 238.23721320120015 446.0606060606061 240.65366751484808 452.52525252525254 242.749876303472 458.98989898989896 240.2593101083839 465.4545454545455 240.10654503123655 471.9191919191919 242.54527775013258 478.3838383838384 244.52893886481235 484.8484848484849 246.83266209283744 491.3131313131313 243.54015078355562 497.77777777777777 244.09513726124172 504.24242424242425 246.25630748668885 510.7070707070707 246.9469416456867 517.1717171717172 248.04865819846827 523.6363636363636 250.16959560796602 530.1010101010102 252.28418717888155 536.5656565656566 249.633119632861 543.030303030303 249.49411515819696 549.4949494949494 251.64624221174006 555.959595959596 252.56337205908721 562.4242424242424 253.40479632649559 568.8888888888889 255.35374818352784 575.3535353535353 256.2046292495701 581.8181818181818 257.9953925820768 588.2828282828283 259.04831549403224 594.7474747474747 260.87783737222173 601.2121212121212 259.27194433967793 607.6767676767677 252.17005339978505 614.1414141414141 252.14618651582168 620.6060606060606 251.38062182634621 627.070707070707 250.08756230455927 633.5353535353536 248.89161157469385 640 249.02110943261846 640 320 0 320"
      />
      
      <polygon
        fill="#e34c26"
        fillRule="evenodd"
        points="0 319.9256742307444 6.464646464646465 319.85646893537904 12.92929292929293 319.8272328363535 19.393939393939394 318.660302427068 25.85858585858586 318.63876177860067 32.323232323232325 318.51260232117636 38.78787878787879 318.37134366509065 45.25252525252525 316.1105231329479 51.71717171717172 316.20707299293423 58.18181818181819 311.64861954671875 64.64646464646465 310.75104338798565 71.11111111111111 308.2675807118036 77.57575757575758 308.3122950919409 84.04040404040404 307.5297559095017 90.5050505050505 305.79780446169536 96.96969696969697 302.0857613576324 103.43434343434345 297.72660012342317 109.8989898989899 296.36098392176496 116.36363636363637 296.57518793481216 122.82828282828282 294.7043962505644 129.2929292929293 294.97528015451763 135.75757575757575 291.7197318984727 142.22222222222223 292.1942182813597 148.68686868686868 288.1167828521304 155.15151515151516 282.4760333550707 161.61616161616163 280.509073975014 168.08080808080808 276.0941793980135 174.54545454545453 271.33206920972276 181.010101010101 270.3320827306217 187.47474747474746 269.0819876093379 193.93939393939394 268.32410401190634 200.40404040404042 264.1112362071533 206.8686868686869 258.7341137896927 213.33333333333331 258.8780286625174 219.7979797979798 257.339043624705 226.26262626262627 258.0372492541313 232.72727272727275 256.5238120451992 239.1919191919192 252.7224774878792 245.65656565656565 250.19332661315963 252.12121212121212 252.19003482292925 258.5858585858586 254.18866767368212 265.0505050505051 252.86779790039793 271.5151515151515 253.8009709368274 277.979797979798 254.90771196264123 284.44444444444446 256.8330449576206 290.9090909090909 258.5828897919288 297.37373737373736 260.4520955662523 303.83838383838383 259.9720547687457 310.3030303030303 257.86438321258095 316.7676767676768 257.54205357602723 323.23232323232327 255.72564161528072 329.6969696969697 254.32299920922728 336.16161616161617 252.44398930489857 342.62626262626264 252.30166451371474 349.09090909090907 249.8959650088027 355.55555555555554 249.60730009781713 362.020202020202 250.63985400743942 368.4848484848485 252.6897618792168 374.9494949494949 254.04376946765524 381.4141414141414 254.88131385365853 387.8787878787879 255.765358278913 394.3434343434343 254.2060848268793 400.80808080808083 254.90084764955486 407.27272727272725 255.17097788049827 413.7373737373738 256.7048583606496 420.2020202020202 258.1050943130011 426.66666666666663 258.55635793113527 433.13131313131316 255.16942900226533 439.5959595959596 257.12069807319955 446.0606060606061 258.97906096008063 452.52525252525254 260.51589906401017 458.98989898989896 258.6005396364916 465.4545454545455 258.02055070480907 471.9191919191919 259.91245768683206 478.3838383838384 261.38285277803016 484.8484848484849 263.17212320112264 491.3131313131313 261.8203972128674 497.77777777777777 263.55761016119095 504.24242424242425 265.20784271533614 510.7070707070707 265.5769351373617 517.1717171717172 267.2215194338139 523.6363636363636 268.7758082599016 530.1010101010102 270.3394064873946 536.5656565656566 268.4385995692548 543.030303030303 268.9636183254076 549.4949494949494 270.5214535216248 555.959595959596 271.98376096952705 562.4242424242424 273.44943741767645 568.8888888888889 274.8252169896263 575.3535353535353 276.2041459301912 581.8181818181818 277.54098436679266 588.2828282828283 278.71335195107554 594.7474747474747 279.9736132991466 601.2121212121212 278.92972447585015 607.6767676767677 275.7239055170721 614.1414141414141 277.03245820457346 620.6060606060606 278.28626842856613 627.070707070707 278.4158588040681 633.5353535353536 279.64485707149623 640 279.71835014762013 640 320 0 320"
      />
      
      <polygon
        fill="#00ADD8"
        fillRule="evenodd"
        points="0 319.9256742307444 6.464646464646465 319.85646893537904 12.92929292929293 319.8272328363535 19.393939393939394 318.660302427068 25.85858585858586 318.63876177860067 32.323232323232325 318.5153620928685 38.78787878787879 318.3740191963638 45.25252525252525 316.61217914578754 51.71717171717172 316.6934162370051 58.18181818181819 313.1394404310819 64.64646464646465 312.1963578311886 71.11111111111111 310.8820271620478 77.57575757575758 310.8639598786691 84.04040404040404 310.0035326919916 90.5050505050505 308.66170343352024 96.96969696969697 305.8714419079846 103.43434343434345 303.7931538891748 109.8989898989899 303.02443810074664 116.36363636363637 303.3152886727085 122.82828282828282 302.49018091374694 129.2929292929293 302.91323280506305 135.75757575757575 300.97568138642634 142.22222222222223 301.5563857366829 148.68686868686868 299.6311522669428 155.15151515151516 295.821179101754 161.61616161616163 294.0784351045341 168.08080808080808 290.71611908791533 174.54545454545453 287.71236587508207 181.010101010101 287.3468019341253 187.47474747474746 286.11582786567203 193.93939393939394 284.9372975462308 200.40404040404042 282.37651891502003 206.8686868686869 277.9438320385819 213.33333333333331 278.07965932976174 219.7979797979798 276.03279759202593 226.26262626262627 276.21166663103395 232.72727272727275 274.1490095719989 239.1919191919192 270.3047217462885 245.65656565656565 268.0869443061709 252.12121212121212 269.6660400498828 258.5858585858586 271.1481794481174 265.0505050505051 270.4125460300582 271.5151515151515 270.81016518460694 277.979797979798 272.1628710330588 284.44444444444446 273.561498089944 290.9090909090909 274.9228636309014 297.37373737373736 276.2932954731572 303.83838383838383 276.4643168145009 310.3030303030303 274.6332608954154 316.7676767676768 273.79906882279283 323.23232323232327 272.0443520297128 329.6969696969697 270.1435943296089 336.16161616161617 268.249471713956 342.62626262626264 268.7285693233265 349.09090909090907 266.93231446020445 355.55555555555554 266.17324842771643 362.020202020202 266.7001337701754 368.4848484848485 268.27539071258815 374.9494949494949 269.7729865263853 381.4141414141414 270.1456619392251 387.8787878787879 271.63100382867304 394.3434343434343 270.87586368977486 400.80808080808083 271.2113893085459 407.27272727272725 272.6978246193039 413.7373737373738 274.0958150270228 420.2020202020202 275.4691228568782 426.66666666666663 275.70897702916466 433.13131313131316 272.95246332444907 439.5959595959596 274.36092013759867 446.0606060606061 275.70975921575484 452.52525252525254 277.06169471460555 458.98989898989896 276.4936219934545 465.4545454545455 276.6994539774897 471.9191919191919 278.02119415992286 478.3838383838384 279.0984563359598 484.8484848484849 280.3469633689846 491.3131313131313 279.26733811071324 497.77777777777777 280.4775152881757 504.24242424242425 281.6112821327457 510.7070707070707 281.52744840481427 517.1717171717172 282.6851522716176 523.6363636363636 283.78242234989654 530.1010101010102 284.88795787291053 536.5656565656566 282.6100493506022 543.030303030303 282.8417830709939 549.4949494949494 283.9759979127176 555.959595959596 285.0406651419848 562.4242424242424 286.1077815388109 568.8888888888889 287.10945718296006 575.3535353535353 288.1134166159024 581.8181818181818 289.0867269400808 588.2828282828283 289.94030139378185 594.7474747474747 290.8578634145301 601.2121212121212 291.71913591840587 607.6767676767677 290.3472138588289 614.1414141414141 291.22359109022636 620.6060606060606 292.1019755893115 627.070707070707 292.92838340929785 633.5353535353536 293.72847475031494 640 293.7763189618703 640 320 0 320"
      />
      
      <polygon
        fill="#244776"
        fillRule="evenodd"
        points="0 319.9256742307444 6.464646464646465 319.85646893537904 12.92929292929293 319.8272328363535 19.393939393939394 318.660302427068 25.85858585858586 318.63876177860067 32.323232323232325 318.5153620928685 38.78787878787879 318.3740191963638 45.25252525252525 316.61217914578754 51.71717171717172 316.6934162370051 58.18181818181819 313.1394404310819 64.64646464646465 312.1963578311886 71.11111111111111 310.8820271620478 77.57575757575758 310.8639598786691 84.04040404040404 310.0035326919916 90.5050505050505 308.66170343352024 96.96969696969697 305.8714419079846 103.43434343434345 303.7931538891748 109.8989898989899 303.02443810074664 116.36363636363637 303.3152886727085 122.82828282828282 302.49018091374694 129.2929292929293 302.91323280506305 135.75757575757575 300.97568138642634 142.22222222222223 301.5563857366829 148.68686868686868 299.6311522669428 155.15151515151516 295.821179101754 161.61616161616163 294.0784351045341 168.08080808080808 290.71611908791533 174.54545454545453 287.71236587508207 181.010101010101 287.3468019341253 187.47474747474746 286.11582786567203 193.93939393939394 284.9372975462308 200.40404040404042 282.37651891502003 206.8686868686869 277.9438320385819 213.33333333333331 278.07965932976174 219.7979797979798 276.03279759202593 226.26262626262627 276.21166663103395 232.72727272727275 274.1490095719989 239.1919191919192 270.3047217462885 245.65656565656565 268.0869443061709 252.12121212121212 269.6660400498828 258.5858585858586 271.1481794481174 265.0505050505051 270.4125460300582 271.5151515151515 270.81016518460694 277.979797979798 272.1628710330588 284.44444444444446 273.561498089944 290.9090909090909 274.9228636309014 297.37373737373736 276.2932954731572 303.83838383838383 276.4643168145009 310.3030303030303 274.6332608954154 316.7676767676768 273.79906882279283 323.23232323232327 272.0443520297128 329.6969696969697 270.1435943296089 336.16161616161617 268.249471713956 342.62626262626264 268.7285693233265 349.09090909090907 266.93231446020445 355.55555555555554 266.17324842771643 362.020202020202 266.7001337701754 368.4848484848485 268.27539071258815 374.9494949494949 269.7729865263853 381.4141414141414 270.1456619392251 387.8787878787879 271.63100382867304 394.3434343434343 270.87586368977486 400.80808080808083 271.2113893085459 407.27272727272725 272.6978246193039 413.7373737373738 274.0958150270228 420.2020202020202 275.4691228568782 426.66666666666663 275.70897702916466 433.13131313131316 272.95246332444907 439.5959595959596 274.36092013759867 446.0606060606061 275.70975921575484 452.52525252525254 277.06169471460555 458.98989898989896 276.4936219934545 465.4545454545455 276.6994539774897 471.9191919191919 278.02119415992286 478.3838383838384 279.0984563359598 484.8484848484849 280.3469633689846 491.3131313131313 279.26733811071324 497.77777777777777 280.4775152881757 504.24242424242425 281.6112821327457 510.7070707070707 281.52744840481427 517.1717171717172 282.6851522716176 523.6363636363636 283.78242234989654 530.1010101010102 284.88795787291053 536.5656565656566 282.6100493506022 543.030303030303 282.8417830709939 549.4949494949494 283.9759979127176 555.959595959596 285.0406651419848 562.4242424242424 286.1077815388109 568.8888888888889 287.10945718296006 575.3535353535353 288.1134166159024 581.8181818181818 289.0867269400808 588.2828282828283 289.94030139378185 594.7474747474747 290.8578634145301 601.2121212121212 291.71913591840587 607.6767676767677 290.40277509262194 614.1414141414141 291.2775102397731 620.6060606060606 292.15424888979186 627.070707070707 292.9790610939339 633.5353535353536 293.7776546859345 640 293.8254093329947 640 320 0 320"
      />
      
      <polygon
        fill="#563d7c"
        fillRule="evenodd"
        points="0 319.9256742307444 6.464646464646465 319.85646893537904 12.92929292929293 319.8272328363535 19.393939393939394 318.660302427068 25.85858585858586 318.63876177860067 32.323232323232325 318.5153620928685 38.78787878787879 318.3740191963638 45.25252525252525 316.61217914578754 51.71717171717172 316.6934162370051 58.18181818181819 314.24960101095013 64.64646464646465 313.2726314336897 71.11111111111111 311.9264920418679 77.57575757575758 311.8765430821433 84.04040404040404 310.98520737990964 90.5050505050505 309.6143652709026 96.96969696969697 306.79502420901645 103.43434343434345 305.7914181697922 109.8989898989899 304.9617065413647 116.36363636363637 305.1934229275546 122.82828282828282 304.3146314436056 129.2929292929293 304.68199317864503 135.75757575757575 303.8118272428313 142.22222222222223 304.30595953393004 148.68686868686868 302.299463901572 155.15151515151516 298.40804207953727 161.61616161616163 296.5863357069231 168.08080808080808 293.14989999973943 174.54545454545453 290.07185693962424 181.010101010101 289.63655957014373 187.47474747474746 288.3356917806071 193.93939393939394 287.08940137790313 200.40404040404042 284.46919972605815 206.8686868686869 279.97263503160036 213.33333333333331 280.0485020138165 219.7979797979798 277.9415424854216 226.26262626262627 278.0639997433799 232.72727272727275 275.94480102522107 239.1919191919192 273.17508482383414 245.65656565656565 271.6223021312968 252.12121212121212 273.0934833752984 258.5858585858586 274.474326404253 265.0505050505051 273.6371640899508 271.5151515151515 273.9363537487486 277.979797979798 275.20274040983054 284.44444444444446 276.50857708376174 290.9090909090909 277.7828435523957 297.37373737373736 279.0659760593802 303.83838383838383 279.1550524534531 310.3030303030303 277.2418631405876 316.7676767676768 276.32804501972305 323.23232323232327 274.4985855528802 329.6969696969697 272.5229138920283 336.16161616161617 270.5584716497411 342.62626262626264 270.96708851790453 349.09090909090907 269.10250422467817 355.55555555555554 268.2835157985819 362.020202020202 268.74598613744325 368.4848484848485 270.26077908234925 374.9494949494949 271.69777208117296 381.4141414141414 272.0135614113892 387.8787878787879 273.44188662087817 394.3434343434343 272.63147041481557 400.80808080808083 272.91511015405774 407.27272727272725 274.3495404961352 413.7373737373738 275.69871498647234 420.2020202020202 277.023095310664 426.66666666666663 277.2155154210095 433.13131313131316 275.3902679905257 439.5959595959596 276.72431237368585 446.0606060606061 278.003302838729 452.52525252525254 279.28522922640377 458.98989898989896 278.6514411796412 465.4545454545455 278.79140689590463 471.9191919191919 280.04929124916924 478.3838383838384 281.0666140775772 484.8484848484849 282.2550442812776 491.3131313131313 281.11902655926497 497.77777777777777 282.2726822169253 504.24242424242425 283.35165253623836 510.7070707070707 283.2197645374623 517.1717171717172 284.32581135264076 523.6363636363636 285.3745925206346 530.1010101010102 286.4315280588399 536.5656565656566 284.1080000685666 543.030303030303 284.294009719823 549.4949494949494 285.38389627069967 555.959595959596 286.4069537092795 562.4242424242424 287.43236496189576 568.8888888888889 288.39489325842857 575.3535353535353 289.35961543606896 581.8181818181818 290.2948863835735 588.2828282828283 291.1151014895828 594.7474747474747 291.99680339320616 601.2121212121212 292.8244151788278 607.6767676767677 291.47431626280417 614.1414141414141 292.3173826350091 620.6060606060606 293.16237981329573 627.070707070707 293.95641939092656 633.5353535353536 294.72612774992933 640 294.7721549877807 640 320 0 320"
      />
      
      <polygon
        fill="#178600"
        fillRule="evenodd"
        points="0 320 6.464646464646465 320 12.92929292929293 320 19.393939393939394 320 25.85858585858586 320 32.323232323232325 320 38.78787878787879 320 45.25252525252525 320 51.71717171717172 320 58.18181818181819 318.7303280812581 64.64646464646465 318.7690841609015 71.11111111111111 318.8054632662887 77.57575757575758 318.8419257649075 84.04040404040404 318.8772752577535 90.5050505050505 318.9104568451068 96.96969696969697 318.94371443784877 103.43434343434345 318.97493250299794 109.8989898989899 319.0062220832891 116.36363636363637 319.0365565562538 122.82828282828282 319.0640951673484 129.2929292929293 319.0926631649305 135.75757575757575 319.1194789798833 142.22222222222223 319.1463564047199 148.68686868686868 319.1715854055339 155.15151515151516 319.1856774128842 161.61616161616163 319.21053413422857 168.08080808080808 319.2338663911299 174.54545454545453 319.25725214053534 181.010101010101 319.279203682539 187.47474747474746 318.19414002652576 193.93939393939394 318.24926286016824 200.40404040404042 318.297603520386 206.8686868686869 316.13887292714566 213.33333333333331 316.24748377472537 219.7979797979798 316.3620270499358 226.26262626262627 316.4695452468428 232.72727272727275 316.57731058199613 239.1919191919192 316.2415588068638 245.65656565656565 315.63817661463077 252.12121212121212 315.7713187999341 258.5858585858586 315.8962953123455 265.0505050505051 316.02155829633136 271.5151515151515 316.1429978917643 277.979797979798 316.2494962889118 284.44444444444446 316.3639780364398 290.9090909090909 316.47143900068284 297.37373737373736 316.5791461681323 303.83838383838383 316.6802475867243 310.3030303030303 315.9758100805605 316.7676767676768 316.09864607079146 323.23232323232327 314.31084211911605 329.6969696969697 314.4845005093939 336.16161616161617 313.5209085689765 342.62626262626264 313.7186790702836 349.09090909090907 313.9104130154472 355.55555555555554 312.97612080814645 362.020202020202 313.190519915734 368.4848484848485 313.39177082061724 374.9494949494949 313.5934835941257 381.4141414141414 313.78282470017973 387.8787878787879 313.9726001271442 394.3434343434343 314.15658347494394 400.80808080808083 314.3292822676487 407.27272727272725 314.5023776508613 413.7373737373738 314.66485700170404 420.2020202020202 314.82770914577463 426.66666666666663 314.9855903195923 433.13131313131316 313.21290035336136 439.5959595959596 313.42007262979877 446.0606060606061 313.61453904934535 452.52525252525254 313.80945171926777 458.98989898989896 313.1987231957264 465.4545454545455 313.4063282620747 471.9191919191919 313.60759694299173 478.3838383838384 313.7965206307804 484.8484848484849 313.9858781359963 491.3131313131313 314.16362234251767 497.77777777777777 314.3417744730529 504.24242424242425 314.51448867850377 510.7070707070707 314.6659527143757 517.1717171717172 314.82877132031075 523.6363636363636 314.9816044190443 530.1010101010102 315.1347879008728 536.5656565656566 315.278576491931 543.030303030303 315.42269532676266 549.4949494949494 315.5624148500948 555.959595959596 315.69356544144574 562.4242424242424 315.8250168690505 568.8888888888889 315.94840642347094 575.3535353535353 316.0720786784806 581.8181818181818 316.191976310866 588.2828282828283 316.29712219844123 594.7474747474747 316.41015038015826 601.2121212121212 316.516246309404 607.6767676767677 316.6225861402195 614.1414141414141 316.7224036565097 620.6060606060606 316.8224504117105 627.070707070707 316.919443408698 633.5353535353536 317.0104874555909 640 317.0159319054045 640 320 0 320"
      />
      
      <polygon
        fill="#555555"
        fillRule="evenodd"
        points="0 320 6.464646464646465 320 12.92929292929293 320 19.393939393939394 320 25.85858585858586 320 32.323232323232325 320 38.78787878787879 320 45.25252525252525 320 51.71717171717172 320 58.18181818181819 318.7303280812581 64.64646464646465 318.7690841609015 71.11111111111111 318.8054632662887 77.57575757575758 318.8419257649075 84.04040404040404 318.8772752577535 90.5050505050505 318.9104568451068 96.96969696969697 318.94371443784877 103.43434343434345 318.97493250299794 109.8989898989899 319.0062220832891 116.36363636363637 319.0365565562538 122.82828282828282 319.0640951673484 129.2929292929293 319.0926631649305 135.75757575757575 319.1194789798833 142.22222222222223 319.1463564047199 148.68686868686868 319.1715854055339 155.15151515151516 319.1856774128842 161.61616161616163 319.21053413422857 168.08080808080808 319.2338663911299 174.54545454545453 319.25725214053534 181.010101010101 319.279203682539 187.47474747474746 318.19414002652576 193.93939393939394 318.24926286016824 200.40404040404042 318.297603520386 206.8686868686869 317.24284806374294 213.33333333333331 317.3188314635681 219.7979797979798 317.4006724878294 226.26262626262627 317.4774941458151 232.72727272727275 317.5544923516699 239.1919191919192 317.1889125972357 245.65656565656565 316.55753191866467 252.12121212121212 316.6626112951028 258.5858585858586 316.761246088632 265.0505050505051 316.86010703852253 271.5151515151515 316.95595037822693 277.979797979798 317.04000183688515 284.44444444444446 317.13035382065203 290.9090909090909 317.2151649735663 297.37373737373736 317.30017032708156 303.83838383838383 317.3799623192234 310.3030303030303 317.45993762029235 316.7676767676768 317.53747143962505 323.23232323232327 316.50570820387844 329.6969696969697 316.61236954457786 336.16161616161617 315.5858894899447 342.62626262626264 315.72062771648405 349.09090909090907 315.8512533086016 355.55555555555554 314.86337118856153 362.020202020202 315.02016320526224 368.4848484848485 315.16734003167477 374.9494949494949 315.31485460273046 381.4141414141414 315.45332141915907 387.8787878787879 315.59210583063407 394.3434343434343 315.72665464479877 400.80808080808083 315.8529508992842 407.27272727272725 315.97953719082614 413.7373737373738 316.0983598355458 420.2020202020202 316.21745509064357 426.66666666666663 316.3329151468185 433.13131313131316 315.5852528407785 439.5959595959596 315.72001059012956 446.0606060606061 315.8465033057522 452.52525252525254 315.9732866030149 458.98989898989896 316.0922936561043 465.4545454545455 316.21157423406135 471.9191919191919 316.3272140131311 478.3838383838384 316.4357609491903 484.8484848484849 316.5445573662332 491.3131313131313 316.6466810917247 497.77777777777777 316.7490392964604 504.24242424242425 316.8482731320552 510.7070707070707 316.93529750393583 517.1717171717172 317.02884557748877 523.6363636363636 317.11665682143433 530.1010101010102 317.20466894483764 536.5656565656566 317.2872834217997 543.030303030303 317.3700875782907 549.4949494949494 317.4503641471704 555.959595959596 317.5257173095317 562.4242424242424 317.601243382354 568.8888888888889 317.6721373290093 575.3535353535353 317.74319396233733 581.8181818181818 317.8120816729314 588.2828282828283 317.8724937089334 594.7474747474747 317.93743463652913 601.2121212121212 317.9983924892469 607.6767676767677 318.0594905671289 614.1414141414141 318.1168412412962 620.6060606060606 318.17432364306694 627.070707070707 318.23005137561864 633.5353535353536 318.2823612392428 640 318.28548935881855 640 320 0 320"
      />
      
      <polygon
        fill="#C1F12E"
        fillRule="evenodd"
        points="0 320 6.464646464646465 320 12.92929292929293 320 19.393939393939394 320 25.85858585858586 320 32.323232323232325 320 38.78787878787879 320 45.25252525252525 320 51.71717171717172 320 58.18181818181819 319.0077741570981 64.64646464646465 319.0380613334825 71.11111111111111 319.0664909657052 77.57575757575758 319.0949857424681 84.04040404040404 319.1226107265919 90.5050505050505 319.1485415416628 96.96969696969697 319.17453174718196 103.43434343434345 319.19892812062534 109.8989898989899 319.2233803601359 116.36363636363637 319.24708622200296 122.82828282828282 319.2686071421553 129.2929292929293 319.2909325357287 135.75757575757575 319.31188859928625 142.22222222222223 319.332892832813 148.68686868686868 319.35260883819393 155.15151515151516 319.36117521165926 161.61616161616163 319.38067496593703 168.08080808080808 319.3989788041431 174.54545454545453 319.41732459584404 181.010101010101 319.4345452879041 187.47474747474746 319.44084453889235 193.93939393939394 319.4579124289874 200.40404040404042 319.4728803838001 206.8686868686869 319.4862105596602 213.33333333333331 319.50139529988456 219.7979797979798 319.5166149345662 226.26262626262627 319.5309011219672 232.72727272727275 319.54522010769193 239.1919191919192 319.30910711237067 245.65656565656565 318.6150652979584 252.12121212121212 318.6573396862581 258.5858585858586 318.69702123965476 265.0505050505051 318.73679393375676 271.5151515151515 318.7753524117198 277.979797979798 318.8091670519318 284.44444444444446 318.84551647237 290.9090909090909 318.8796367473375 297.37373737373736 318.913835113552 303.83838383838383 318.94593616465096 310.3030303030303 318.9781108886763 316.7676767676768 319.0093034097676 323.23232323232327 319.0385829008111 329.6969696969697 319.06792969417927 336.16161616161617 319.09547658705605 342.62626262626264 319.1230865694403 349.09090909090907 319.1498539883703 355.55555555555554 319.17332780620706 362.020202020202 319.1985615541469 368.4848484848485 319.2222475541219 374.9494949494949 319.24598801246646 381.4141414141414 319.26827241841033 387.8787878787879 319.2906079843962 394.3434343434343 319.312261824071 400.80808080808083 319.33258753713795 407.27272727272725 319.3529598686243 413.7373737373738 319.3720828018099 420.2020202020202 319.39124962022123 426.66666666666663 319.40983142216584 433.13131313131316 318.57421997947836 439.5959595959596 318.617740950684 446.0606060606061 318.65859294802056 452.52525252525254 318.69953875760524 458.98989898989896 318.73797300883456 465.4545454545455 318.7764957292266 471.9191919191919 318.8138425598417 478.3838383838384 318.84889874812916 484.8484848484849 318.884035493703 491.3131313131313 318.9170171263633 497.77777777777777 318.95007469248617 504.24242424242425 318.98212313474505 510.7070707070707 319.01022827728616 517.1717171717172 319.0404404449729 523.6363636363636 319.0687997950733 530.1010101010102 319.0972240842106 536.5656565656566 319.1239050890107 543.030303030303 319.1506474365403 549.4949494949494 319.17657342228404 555.959595959596 319.2009093674875 562.4242424242424 319.2253011890332 568.8888888888889 319.24819696723966 575.3535353535353 319.2711453851117 581.8181818181818 319.29339320119635 588.2828282828283 319.3129037135709 594.7474747474747 319.3338770085786 601.2121212121212 319.3535638427687 607.6767676767677 319.3732960623586 614.1414141414141 319.39181791899597 620.6060606060606 319.4103823148127 627.070707070707 319.42838005588084 633.5353535353536 319.44527399772323 640 319.44628420047945 640 320 0 320"
      />
      

      
        <g id="labels">
        
          
          <text x="0" y="330">
            Jul 2014
          </text>
          
        
          
        
          
        
          
        
          
        
          
        
          
        
          
        
          
        
          
        
          
        
          
        
          
        
          
          <text x="83.2" y="330">
            Aug 2015
          </text>
          
        
          
        
          
        
          
        
          
        
          
        
          
        
          
        
          
        
          
        
          
        
          
        
          
        
          
          <text x="166.4" y="330">
            Sep 2016
          </text>
          
        
          
        
          
        
          
        
          
        
          
        
          
        
          
        
          
        
          
        
          
        
          
        
          
        
          
          <text x="249.6" y="330">
            Oct 2017
          </text>
          
        
          
        
          
        
          
        
          
        
          
        
          
        
          
        
          
        
          
        
          
        
          
        
          
        
          
          <text x="332.8" y="330">
            Nov 2018
          </text>
          
        
          
        
          
        
          
        
          
        
          
        
          
        
          
        
          
        
          
        
          
        
          
        
          
        
          
          <text x="416" y="330">
            Dec 2019
          </text>
          
        
          
        
          
        
          
        
          
        
          
        
          
        
          
        
          
        
          
        
          
        
          
        
          
        
          
          <text x="499.2" y="330">
            Jan 2021
          </text>
          
        
          
        
          
        
          
        
          
        
          
        
          
        
          
        
          
        
          
        
          
        
          
        
          
        
          
          <text x="582.4" y="330">
            Feb 2022
          </text>
          
        
          
        
          
        
          
        
          
        
          
        
          
        
          
        
          
        
        </g>
      

      
        <text text-anchor="middle" y="370" x="320" id="legend">
          
          <tspan xml:space="preserve" fill="#C1F12E">   </tspan> Batchfile
          
          <tspan xml:space="preserve" fill="#555555">   </tspan> C
          
          <tspan xml:space="preserve" fill="#178600">   </tspan> C#
          
          <tspan xml:space="preserve" fill="#563d7c">   </tspan> CSS
          
          <tspan xml:space="preserve" fill="#244776">   </tspan> CoffeeScript
          
          <tspan xml:space="preserve" fill="#00ADD8">   </tspan> Go
          
          <tspan xml:space="preserve" fill="#e34c26">   </tspan> HTML
          
          <tspan xml:space="preserve" fill="#22e4e8">   </tspan> JSON
          
        </text>
      
        <text text-anchor="middle" y="400" x="320" id="legend">
          
          <tspan xml:space="preserve" fill="#22e8e8">   </tspan> JSon
          
          <tspan xml:space="preserve" fill="#f1e05a">   </tspan> JavaScript
          
          <tspan xml:space="preserve" fill="#2415b9">   </tspan> Less
          
          <tspan xml:space="preserve" fill="#755462">   </tspan> MySQL
          
          <tspan xml:space="preserve" fill="#4F5D95">   </tspan> PHP
          
          <tspan xml:space="preserve" fill="#fd2fdb">   </tspan> PLpgSQL
          
          <tspan xml:space="preserve" fill="#0298c3">   </tspan> Perl
          
          <tspan xml:space="preserve" fill="#3572A5">   </tspan> Python
          
        </text>
      
        <text text-anchor="middle" y="430" x="320" id="legend">
          
          <tspan xml:space="preserve" fill="#701516">   </tspan> Ruby
          
          <tspan xml:space="preserve" fill="#dea584">   </tspan> Rust
          
          <tspan xml:space="preserve" fill="#26c0b0">   </tspan> SCSS
          
          <tspan xml:space="preserve" fill="#0141ae">   </tspan> SQL
          
          <tspan xml:space="preserve" fill="#89e051">   </tspan> Shell
          
          <tspan xml:space="preserve" fill="#2770da">   </tspan> TSQL
          
          <tspan xml:space="preserve" fill="#2b7489">   </tspan> TypeScript
          
          <tspan xml:space="preserve" fill="#2c3e50">   </tspan> Vue
          
        </text>
      
        <text text-anchor="middle" y="460" x="320" id="legend">
          
          <tspan xml:space="preserve" fill="#4B6C4B">   </tspan> Yacc
          
        </text>
      

    </svg>