<svg
      xmlns="http://www.w3.org/2000/svg"
      viewBox="0 0 640 490"
      style="background-color: #292b3e"
    >
      <style>
        text {
          font-size: 12px;
          font-family: Open Sans, Helvetica Neue, Helvetica, Arial, sans-serif;
        }
        #labels text {
          dominant-baseline: hanging;
          font-size: 10px;
          fill: rgba(0,0,0,0.5);
        }
        #legend {
          font-weight: 600;
        }
        #legend tspan {
          font-size: 15px;
        }
        #branding-text {
          font-size: 9px;
          dominant-baseline: hanging;
          opacity: 0.5;
        }
        #branding-logo {
          opacity: 0.5;
        }
      </style>

      
      
      <polygon
        fill="#4B6C4B"
        fillRule="evenodd"
        points="0 313.61354851787604 6.530612244897958 304.2691124078557 13.061224489795917 297.26804404489286 19.591836734693878 285.938824085768 26.122448979591834 278.8279956393879 32.6530612244898 274.9842001856897 39.183673469387756 267.09073728164583 45.71428571428571 257.07880337737504 52.24489795918367 246.22213310599977 58.775510204081634 230.99230738022285 65.3061224489796 221.54621645003726 71.83673469387755 206.6280427139107 78.36734693877551 198.2772844784381 84.89795918367348 192.17033082928506 91.42857142857142 182.12951471332528 97.9591836734694 170.61727528386226 104.48979591836734 156.9518955962391 111.0204081632653 154.8041974445356 117.55102040816327 149.887869049608 124.08163265306122 142.52563595444687 130.6122448979592 138.28603238820386 137.14285714285714 123.78690272959662 143.6734693877551 127.17482135680623 150.20408163265307 110.77246493868344 156.73469387755102 93.05722456928905 163.26530612244898 88.01880414045758 169.79591836734696 78.10626568592153 176.32653061224488 68.7836210561108 182.85714285714283 65.97371660348128 189.3877551020408 62.13343875860858 195.9183673469388 59.18910867550767 202.44897959183675 46.683707911128806 208.97959183673467 33.29404859525437 215.51020408163265 31.646484421607113 222.0408163265306 27.414571259941397 228.57142857142858 27.528875086157313 235.10204081632654 25.25113155660904 241.63265306122446 13.936179677394364 248.16326530612244 9.642980374384763 254.69387755102042 9.883776435332209 261.2244897959184 12.938025389080508 267.7551020408163 8.24697672784987 274.2857142857143 10.710155559305463 280.81632653061223 10.159019215454009 287.3469387755102 11.455544931672136 293.8775510204082 14.195659093771553 300.40816326530614 17.693013844952247 306.9387755102041 18.06790160385185 313.46938775510205 12.038758290389865 320 13.322583571311952 326.53061224489795 11.292801327272002 333.0612244897959 7.02949875847645 339.5918367346939 1.9716859232413526 346.12244897959187 4.695474005382096 352.65306122448976 0.06659898882008974 359.1836734693877 0 365.71428571428567 3.1341329036254137 372.2448979591837 11.12183189599574 378.7755102040816 13.499724897866543 385.3061224489796 18.047956411151517 391.8367346938776 21.31469062192707 398.36734693877554 21.5684661494671 404.8979591836735 27.066494984016003 411.42857142857144 30.681088262507046 417.95918367346934 36.747855880538395 424.48979591836735 42.8035283699561 431.0204081632653 46.960282217758675 437.55102040816325 38.514816566585864 444.0816326530612 42.6311122974667 450.61224489795916 50.61552306508395 457.14285714285717 58.068979095991835 463.6734693877551 55.54213217623328 470.2040816326531 58.40771472819205 476.7346938775511 64.8491698775444 483.2653061224489 68.9651401127395 489.7959183673469 76.40579268073125 496.3265306122449 74.3194110849567 502.85714285714283 74.99062312135919 509.38775510204084 75.05188337864297 515.9183673469388 74.4902863834105 522.4489795918367 78.43685912932497 528.9795918367347 85.33596033275526 535.5102040816327 88.56506483062941 542.0408163265306 82.0254415013157 548.5714285714286 83.08745572960925 555.1020408163265 90.29397955435726 561.6326530612245 89.48575137249352 568.1632653061224 88.46145141593797 574.6938775510204 89.43499659764026 581.2244897959183 87.51998562533629 587.7551020408164 88.00634547830626 594.2857142857143 88.21703793919204 600.8163265306123 90.76510556691031 607.3469387755102 86.66766980609674 613.8775510204082 71.26739102663612 620.4081632653061 70.87684703273763 626.9387755102041 73.10674927843297 633.469387755102 72.47936191897861 640 72.77272510301464 640 320 0 320"
      />
      
      <polygon
        fill="#2c3e50"
        fillRule="evenodd"
        points="0 313.61354851787604 6.530612244897958 304.2691124078557 13.061224489795917 297.26804404489286 19.591836734693878 285.938824085768 26.122448979591834 278.8279956393879 32.6530612244898 274.9842001856897 39.183673469387756 267.09073728164583 45.71428571428571 257.07880337737504 52.24489795918367 246.22213310599977 58.775510204081634 230.99230738022285 65.3061224489796 221.54621645003726 71.83673469387755 206.6280427139107 78.36734693877551 198.2772844784381 84.89795918367348 192.17033082928506 91.42857142857142 182.12951471332528 97.9591836734694 170.61727528386226 104.48979591836734 156.9518955962391 111.0204081632653 154.8041974445356 117.55102040816327 149.887869049608 124.08163265306122 142.52563595444687 130.6122448979592 138.28603238820386 137.14285714285714 123.78690272959662 143.6734693877551 127.17482135680623 150.20408163265307 110.77246493868344 156.73469387755102 93.05722456928905 163.26530612244898 88.01880414045758 169.79591836734696 78.10626568592153 176.32653061224488 68.7836210561108 182.85714285714283 65.97371660348128 189.3877551020408 62.13343875860858 195.9183673469388 59.18910867550767 202.44897959183675 46.683707911128806 208.97959183673467 33.29404859525437 215.51020408163265 31.646484421607113 222.0408163265306 27.414571259941397 228.57142857142858 27.528875086157313 235.10204081632654 25.25113155660904 241.63265306122446 13.936179677394364 248.16326530612244 9.642980374384763 254.69387755102042 9.883776435332209 261.2244897959184 12.938025389080508 267.7551020408163 8.24697672784987 274.2857142857143 10.710155559305463 280.81632653061223 10.159019215454009 287.3469387755102 11.455544931672136 293.8775510204082 14.195659093771553 300.40816326530614 17.693013844952247 306.9387755102041 18.06790160385185 313.46938775510205 12.038758290389865 320 13.322583571311952 326.53061224489795 11.292801327272002 333.0612244897959 7.02949875847645 339.5918367346939 1.9716859232413526 346.12244897959187 4.695474005382096 352.65306122448976 0.06659898882008974 359.1836734693877 0 365.71428571428567 3.1341329036254137 372.2448979591837 11.12183189599574 378.7755102040816 13.499724897866543 385.3061224489796 18.047956411151517 391.8367346938776 21.31469062192707 398.36734693877554 21.5684661494671 404.8979591836735 27.066494984016003 411.42857142857144 30.681088262507046 417.95918367346934 36.747855880538395 424.48979591836735 42.8035283699561 431.0204081632653 46.960282217758675 437.55102040816325 38.514816566585864 444.0816326530612 42.6311122974667 450.61224489795916 50.61552306508395 457.14285714285717 58.068979095991835 463.6734693877551 56.64271936320347 470.2040816326531 59.47470716728549 476.7346938775511 65.88359292726761 483.2653061224489 69.9689913675133 489.7959183673469 77.37900196119298 496.3265306122449 75.26385761565041 502.85714285714283 75.90624103849069 509.38775510204084 75.93955254441198 515.9183673469388 75.3534454838356 522.4489795918367 79.27367086252667 528.9795918367347 86.14804055030203 535.5102040816327 89.35235675197103 542.0408163265306 82.78946541900555 548.5714285714286 83.82815828472638 555.1020408163265 91.01207259991276 561.6326530612245 90.18262155199687 568.1632653061224 89.13705002511693 574.6938775510204 90.09062823282852 581.2244897959183 88.15560449013287 587.7551020408164 88.62256245169621 594.2857142857143 88.81624012647171 600.8163265306123 91.3460174915576 607.3469387755102 87.23141316654568 613.8775510204082 71.81392647928789 620.4081632653061 71.40722987792344 626.9387755102041 73.6209425050161 633.469387755102 72.97785970064382 640 73.26599800544221 640 320 0 320"
      />
      
      <polygon
        fill="#2b7489"
        fillRule="evenodd"
        points="0 313.61354851787604 6.530612244897958 304.2691124078557 13.061224489795917 297.26804404489286 19.591836734693878 285.938824085768 26.122448979591834 278.8279956393879 32.6530612244898 274.9842001856897 39.183673469387756 267.09073728164583 45.71428571428571 257.07880337737504 52.24489795918367 246.22213310599977 58.775510204081634 230.99230738022285 65.3061224489796 221.54621645003726 71.83673469387755 206.6280427139107 78.36734693877551 198.2772844784381 84.89795918367348 192.17033082928506 91.42857142857142 182.12951471332528 97.9591836734694 170.61727528386226 104.48979591836734 156.9518955962391 111.0204081632653 154.8041974445356 117.55102040816327 149.887869049608 124.08163265306122 142.52563595444687 130.6122448979592 138.28603238820386 137.14285714285714 123.78690272959662 143.6734693877551 127.17482135680623 150.20408163265307 110.77246493868344 156.73469387755102 93.05722456928905 163.26530612244898 88.01880414045758 169.79591836734696 78.10626568592153 176.32653061224488 68.7836210561108 182.85714285714283 65.97371660348128 189.3877551020408 62.13343875860858 195.9183673469388 59.18910867550767 202.44897959183675 46.683707911128806 208.97959183673467 33.29404859525437 215.51020408163265 31.646484421607113 222.0408163265306 27.414571259941397 228.57142857142858 27.528875086157313 235.10204081632654 25.25113155660904 241.63265306122446 13.936179677394364 248.16326530612244 9.642980374384763 254.69387755102042 9.883776435332209 261.2244897959184 12.938025389080508 267.7551020408163 8.24697672784987 274.2857142857143 10.710155559305463 280.81632653061223 10.159019215454009 287.3469387755102 11.455544931672136 293.8775510204082 14.195659093771553 300.40816326530614 17.693013844952247 306.9387755102041 18.06790160385185 313.46938775510205 12.038758290389865 320 13.322583571311952 326.53061224489795 11.292801327272002 333.0612244897959 7.02949875847645 339.5918367346939 1.9716859232413526 346.12244897959187 4.695474005382096 352.65306122448976 0.06659898882008974 359.1836734693877 0 365.71428571428567 3.1341329036254137 372.2448979591837 11.12183189599574 378.7755102040816 13.499724897866543 385.3061224489796 18.047956411151517 391.8367346938776 21.31469062192707 398.36734693877554 21.5684661494671 404.8979591836735 27.066494984016003 411.42857142857144 30.681088262507046 417.95918367346934 36.747855880538395 424.48979591836735 42.8035283699561 431.0204081632653 46.960282217758675 437.55102040816325 38.514816566585864 444.0816326530612 42.6311122974667 450.61224489795916 50.61552306508395 457.14285714285717 58.068979095991835 463.6734693877551 56.64271936320347 470.2040816326531 59.47470716728549 476.7346938775511 65.88359292726761 483.2653061224489 69.9689913675133 489.7959183673469 77.37900196119298 496.3265306122449 75.26385761565041 502.85714285714283 75.90624103849069 509.38775510204084 75.93955254441198 515.9183673469388 75.3534454838356 522.4489795918367 79.27367086252667 528.9795918367347 86.14804055030203 535.5102040816327 89.35235675197103 542.0408163265306 84.99957086179319 548.5714285714286 87.49742943955457 555.1020408163265 94.56934119100032 561.6326530612245 96.00348798121533 568.1632653061224 96.87074848751246 574.6938775510204 100.5914974234833 581.2244897959183 100.44771611497669 587.7551020408164 101.47588189668937 594.2857142857143 102.08128329412386 600.8163265306123 104.23698924350788 607.3469387755102 99.74140448325528 613.8775510204082 84.61166654059969 620.4081632653061 84.30012616788628 626.9387755102041 86.12029080798641 633.469387755102 85.0956747646091 640 85.25680280822786 640 320 0 320"
      />
      
      <polygon
        fill="#2770da"
        fillRule="evenodd"
        points="0 313.61354851787604 6.530612244897958 304.2691124078557 13.061224489795917 297.26804404489286 19.591836734693878 285.938824085768 26.122448979591834 278.8279956393879 32.6530612244898 274.9842001856897 39.183673469387756 267.09073728164583 45.71428571428571 257.07880337737504 52.24489795918367 246.22213310599977 58.775510204081634 230.99230738022285 65.3061224489796 221.54621645003726 71.83673469387755 206.6280427139107 78.36734693877551 198.2772844784381 84.89795918367348 192.17033082928506 91.42857142857142 182.12951471332528 97.9591836734694 170.61727528386226 104.48979591836734 156.9518955962391 111.0204081632653 154.8041974445356 117.55102040816327 149.887869049608 124.08163265306122 142.52563595444687 130.6122448979592 138.28603238820386 137.14285714285714 123.78690272959662 143.6734693877551 127.17482135680623 150.20408163265307 110.77246493868344 156.73469387755102 93.05722456928905 163.26530612244898 88.01880414045758 169.79591836734696 78.10626568592153 176.32653061224488 68.7836210561108 182.85714285714283 65.97371660348128 189.3877551020408 62.13343875860858 195.9183673469388 59.18910867550767 202.44897959183675 46.683707911128806 208.97959183673467 33.29404859525437 215.51020408163265 31.646484421607113 222.0408163265306 27.414571259941397 228.57142857142858 27.528875086157313 235.10204081632654 25.25113155660904 241.63265306122446 14.574388808008166 248.16326530612244 11.079990985668019 254.69387755102042 11.276923095426127 261.2244897959184 14.28999834113722 267.7551020408163 9.557681440370857 274.2857142857143 11.98085166451142 280.81632653061223 11.394629441142115 287.3469387755102 12.653438836138207 293.8775510204082 15.358149924440795 300.40816326530614 18.820020325286123 306.9387755102041 19.16160001335419 313.46938775510205 13.099072181848499 320 14.350532035384106 326.53061224489795 12.29036921717642 333.0612244897959 7.99661651136023 339.5918367346939 2.9102209472113145 346.12244897959187 5.605360847650445 352.65306122448976 0.9487120657502714 359.1836734693877 0.8577564197684637 365.71428571428567 3.9657067697835373 372.2448979591837 11.928829113754205 378.7755102040816 14.282088953829486 385.3061224489796 18.807198165272723 391.8367346938776 22.050756900238582 398.36734693877554 22.28206446886111 404.8979591836735 27.759003315764573 411.42857142857144 31.352458159217065 417.95918367346934 37.39938378006411 424.48979591836735 43.435168784151415 431.0204081632653 47.57264216214753 437.55102040816325 40.23035827933052 444.0816326530612 44.29428808097765 450.61224489795916 52.229544729782674 457.14285714285717 59.633733615086385 463.6734693877551 58.16122825109824 470.2040816326531 60.946864487051016 476.7346938775511 67.31081346608454 483.2653061224489 71.35403123232823 489.7959183673469 78.72176435997136 496.3265306122449 76.56693538300027 502.85714285714283 77.16954303371696 509.38775510204084 77.16429298351545 515.9183673469388 76.54436882053699 522.4489795918367 80.42824200863353 528.9795918367347 87.26848890791041 535.5102040816327 90.43860412709114 542.0408163265306 86.05371472342932 548.5714285714286 88.51939621754028 555.1020408163265 95.56011288265464 561.6326530612245 96.96497802737485 568.1632653061224 97.80288958586016 574.6938775510204 101.4960896798089 581.2244897959183 101.32469613152497 587.7551020408164 102.32609259644946 594.2857142857143 102.9080183805657 600.8163265306123 105.03848866342679 607.3469387755102 100.51921596388954 613.8775510204082 85.37683298447871 620.4081632653061 85.30636095219964 626.9387755102041 87.09581076708272 633.469387755102 86.04141760985522 640 86.19263310106575 640 320 0 320"
      />
      
      <polygon
        fill="#89e051"
        fillRule="evenodd"
        points="0 313.61354851787604 6.530612244897958 304.9098421797829 13.061224489795917 298.3344746380785 19.591836734693878 288.07682439486734 26.122448979591834 281.27134029305824 32.6530612244898 277.35296339141115 39.183673469387756 269.99993388039917 45.71428571428571 260.07172128423485 52.24489795918367 250.1731822110164 58.775510204081634 235.1815802804001 65.3061224489796 226.78743627926949 71.83673469387755 213.3278229453366 78.36734693877551 205.81365408854037 84.89795918367348 200.42202070140678 91.42857142857142 190.4508625863373 97.9591836734694 178.68462010229194 104.48979591836734 164.78081553457005 111.0204081632653 162.3941427815523 117.55102040816327 158.35633259506022 124.08163265306122 150.829435904246 130.6122448979592 146.47014107536216 137.14285714285714 132.58696324984118 143.6734693877551 135.70626548578184 150.20408163265307 119.05176684507919 156.73469387755102 102.43439269676549 163.26530612244898 97.17050991684928 169.79591836734696 87.08396013995693 176.32653061224488 77.518336677847 182.85714285714283 74.596244297538 189.3877551020408 71.29269739624687 195.9183673469388 68.12744514554333 202.44897959183675 55.43657358062433 208.97959183673467 42.60291257730523 215.51020408163265 40.81637682533807 222.0408163265306 36.30455589588462 228.57142857142858 36.65725788677571 235.10204081632654 34.26573696459786 241.63265306122446 23.330665831588874 248.16326530612244 19.7684190535399 254.69387755102042 20.331766555117667 261.2244897959184 23.771816947791024 267.7551020408163 19.357943785779412 274.2857142857143 21.657179104998534 280.81632653061223 22.19766445747416 287.3469387755102 24.0333588996736 293.8775510204082 26.40174499972369 300.40816326530614 29.526512993490996 306.9387755102041 29.79473870457099 313.46938775510205 23.46946427135873 320 24.701030895747863 326.53061224489795 22.404320983462696 333.0612244897959 17.801848953067065 339.5918367346939 12.431312665019163 346.12244897959187 14.835823281686771 352.65306122448976 10.202278203583433 359.1836734693877 9.855817274202252 365.71428571428567 12.717260300975795 372.2448979591837 20.45561448386769 378.7755102040816 22.802213963346503 385.3061224489796 27.111347470610667 391.8367346938776 30.808725215633842 398.36734693877554 30.772700171840995 404.8979591836735 35.998706799348554 411.42857142857144 39.34064415012597 417.95918367346934 45.23233774735252 424.48979591836735 51.02902793071951 431.0204081632653 55.06948938564352 437.55102040816325 47.53774896659468 444.0816326530612 51.37862861440112 450.61224489795916 59.104510837436806 457.14285714285717 66.29884441934706 463.6734693877551 64.91777773007018 470.2040816326531 67.49717418420173 476.7346938775511 73.66117804896254 483.2653061224489 78.63270849060638 489.7959183673469 85.77826433949778 496.3265306122449 83.41488140851541 502.85714285714283 83.84690388719565 509.38775510204084 83.6378309789919 515.9183673469388 82.83916193160906 522.4489795918367 87.04907816344343 528.9795918367347 93.69364794286437 535.5102040816327 96.66763938085765 542.0408163265306 92.09865440445913 548.5714285714286 94.37981729737655 555.1020408163265 101.24164913036776 561.6326530612245 102.47859961789106 568.1632653061224 103.14820965929599 574.6938775510204 106.6834324115986 581.2244897959183 106.35369685613705 587.7551020408164 107.20158577803161 594.2857142857143 107.64889223458056 600.8163265306123 109.63465051386035 607.3469387755102 105.64595198304227 613.8775510204082 90.34707775879664 620.4081632653061 90.1297107645766 626.9387755102041 91.77193301049545 633.469387755102 90.57480170848117 640 90.67850309963106 640 320 0 320"
      />
      
      <polygon
        fill="#0141ae"
        fillRule="evenodd"
        points="0 313.69578666067525 6.530612244897958 304.98957005610066 13.061224489795917 298.4118461934881 19.591836734693878 288.15459681006985 26.122448979591834 281.3468141871989 32.6530612244898 277.4261334840838 39.183673469387756 270.0708705020113 45.71428571428571 260.1686520294099 52.24489795918367 250.62553752411753 58.775510204081634 236.59142675176054 65.3061224489796 228.16527448790606 71.83673469387755 215.56286035165715 78.36734693877551 209.34786654983537 84.89795918367348 203.84835350807765 91.42857142857142 193.809540432375 97.9591836734694 182.1668806206667 104.48979591836734 169.20012682963284 111.0204081632653 166.68966096894167 117.55102040816327 162.52073251113964 124.08163265306122 154.8748026818688 130.6122448979592 151.5031004092358 137.14285714285714 138.33051113321557 143.6734693877551 141.27449442956834 150.20408163265307 124.45543032101838 156.73469387755102 107.98202579576594 163.26530612244898 102.61883562138419 169.79591836734696 92.52505212980512 176.32653061224488 83.0156961790365 182.85714285714283 79.93113220357736 189.3877551020408 76.46474133523239 195.9183673469388 73.61544356231786 202.44897959183675 61.01108424525415 208.97959183673467 50.21110043854736 215.51020408163265 49.30681483418357 222.0408163265306 44.53582963581954 228.57142857142858 46.72641816291696 235.10204081632654 45.535836703490816 241.63265306122446 38.06179801329688 248.16326530612244 34.37968118477244 254.69387755102042 35.18775840640876 261.2244897959184 40.459290826248434 267.7551020408163 36.76701974985127 274.2857142857143 38.53485652403111 280.81632653061223 38.690048955393934 287.3469387755102 40.02232412115046 293.8775510204082 41.96024562891512 300.40816326530614 45.10742067043407 306.9387755102041 44.91793616726392 313.46938775510205 38.14221194991171 320 38.925900663436494 326.53061224489795 36.36872256406781 333.0612244897959 33.69978445131642 339.5918367346939 28.417166567167783 346.12244897959187 30.372712160735432 352.65306122448976 26.293858394465644 359.1836734693877 25.536696121134696 365.71428571428567 28.08380239176745 372.2448979591837 35.36800978690536 378.7755102040816 37.588656319467646 385.3061224489796 41.46077995567447 391.8367346938776 45.37442110943806 398.36734693877554 45.021828571637286 404.8979591836735 49.82670970242572 411.42857142857144 53.20083297349362 417.95918367346934 58.85788500560386 424.48979591836735 64.62524781900115 431.0204081632653 68.63065041808582 437.55102040816325 63.21840792504088 444.0816326530612 66.93869723345216 450.61224489795916 74.20471556809224 457.14285714285717 80.93812486479499 463.6734693877551 80.26631979048094 470.2040816326531 82.74311977050036 476.7346938775511 88.44174917699854 483.2653061224489 93.40758204081027 489.7959183673469 100.10214454944392 496.3265306122449 98.34478250659805 502.85714285714283 99.94027606648888 509.38775510204084 99.86312289230187 515.9183673469388 98.67421548789895 522.4489795918367 102.40076647873636 528.9795918367347 108.59162616482689 535.5102040816327 111.11087382810129 542.0408163265306 106.11501851140224 548.5714285714286 107.96834828125472 555.1020408163265 114.41539028297538 561.6326530612245 115.26300662781443 568.1632653061224 115.68607543794025 574.6938775510204 118.85074499032041 581.2244897959183 118.14961572661059 587.7551020408164 118.6374417734012 594.2857142857143 118.79922508563368 600.8163265306123 120.44463154031769 607.3469387755102 116.14473326059425 613.8775510204082 101.00077972253314 620.4081632653061 100.55556407339478 626.9387755102041 102.30532884584275 633.469387755102 102.37744731710353 640 102.76797166067769 640 320 0 320"
      />
      
      <polygon
        fill="#26c0b0"
        fillRule="evenodd"
        points="0 313.69578666067525 6.530612244897958 305.07507118682526 13.061224489795917 298.52241928684026 19.591836734693878 288.3920369699314 26.122448979591834 281.7296634279685 32.6530612244898 277.85566217343097 39.183673469387756 270.54539923648514 45.71428571428571 260.80005832401844 52.24489795918367 251.72753631296789 58.775510204081634 237.7909115596995 65.3061224489796 230.20543212701233 71.83673469387755 218.21675244369433 78.36734693877551 212.4285036251856 84.89795918367348 207.4760319337254 91.42857142857142 198.30981364054554 97.9591836734694 186.52978599794386 104.48979591836734 173.8064367392084 111.0204081632653 171.15536544654347 117.55102040816327 166.87822411058426 124.08163265306122 159.35251029652392 130.6122448979592 156.04874483224262 137.14285714285714 143.12364271899872 143.6734693877551 145.92414230474418 150.20408163265307 128.96766022250588 156.73469387755102 112.62420722381523 163.26530612244898 107.34712620264798 169.79591836734696 97.3917871735317 176.32653061224488 88.07432328085883 182.85714285714283 84.90342296833333 189.3877551020408 81.47884553966804 195.9183673469388 78.54013905322628 202.44897959183675 65.83878959643587 208.97959183673467 55.25789188847182 215.51020408163265 54.274626963683204 222.0408163265306 49.44579937975908 228.57142857142858 52.03138407530912 235.10204081632654 50.75684117721937 241.63265306122446 43.28761640084747 248.16326530612244 39.624103782282816 254.69387755102042 40.27209828139337 261.2244897959184 46.01554961625453 267.7551020408163 42.22619530715474 274.2857142857143 45.29485023760952 280.81632653061223 46.22625416288969 287.3469387755102 47.34224434206362 293.8775510204082 49.12235065025288 300.40816326530614 52.196325944979094 306.9387755102041 51.84797252427728 313.46938775510205 44.899137499846006 320 45.540355942080964 326.53061224489795 42.90211225321076 333.0612244897959 40.52983586962222 339.5918367346939 35.111575970942056 346.12244897959187 37.186592938664376 352.65306122448976 32.91349646528056 359.1836734693877 31.973553120803672 365.71428571428567 34.32981139264359 372.2448979591837 41.45136686352237 378.7755102040816 43.650593996991574 385.3061224489796 47.72233270923846 391.8367346938776 51.45041623733539 398.36734693877554 51.04920029288655 404.8979591836735 55.67594452065981 411.42857142857144 59.077843920353416 417.95918367346934 64.64957480149246 424.48979591836735 70.24014963526105 431.0204081632653 74.11913546657559 437.55102040816325 68.67689895099147 444.0816326530612 72.31794640856566 450.61224489795916 79.43588289719744 457.14285714285717 86.08171245937044 463.6734693877551 85.88892551288214 470.2040816326531 88.95203543328151 476.7346938775511 94.47230332170341 483.2653061224489 100.00814427168794 489.7959183673469 106.58873159080602 496.3265306122449 104.63966172353534 502.85714285714283 106.09847876549316 509.38775510204084 105.83335258309486 515.9183673469388 104.49619019618862 522.4489795918367 108.04502679870961 528.9795918367347 114.08016885698058 535.5102040816327 116.43188132482422 542.0408163265306 111.27876720862116 548.5714285714286 112.97447752075158 555.1020408163265 119.26870914924564 561.6326530612245 119.9728888437235 568.1632653061224 120.25218798545822 574.6938775510204 123.2819110490841 581.2244897959183 122.68869360125831 587.7551020408164 123.0379672963756 594.2857142857143 123.0782453687076 600.8163265306123 124.59586178009891 607.3469387755102 120.75485032353026 613.8775510204082 105.47017555240939 620.4081632653061 104.89286960155005 626.9387755102041 106.51024126322619 633.469387755102 106.45400753703166 640 106.80180405417903 640 320 0 320"
      />
      
      <polygon
        fill="#dea584"
        fillRule="evenodd"
        points="0 313.69578666067525 6.530612244897958 305.07507118682526 13.061224489795917 298.52241928684026 19.591836734693878 288.3920369699314 26.122448979591834 281.7296634279685 32.6530612244898 277.85566217343097 39.183673469387756 270.54539923648514 45.71428571428571 260.80005832401844 52.24489795918367 251.72753631296789 58.775510204081634 237.7909115596995 65.3061224489796 230.20543212701233 71.83673469387755 218.605147004932 78.36734693877551 212.80504267263547 84.89795918367348 207.84107735862506 91.42857142857142 198.66407032934552 97.9591836734694 187.9962281693488 104.48979591836734 176.33189052792514 111.0204081632653 173.6037312640717 117.55102040816327 169.2518547637265 124.08163265306122 162.75985347187435 130.6122448979592 159.3520805481105 137.14285714285714 148.55734142088036 143.6734693877551 151.1919799434875 150.20408163265307 136.3270576193085 156.73469387755102 123.0743078620618 163.26530612244898 117.47824303957731 169.79591836734696 107.22348483858045 176.32653061224488 98.72209493432348 182.85714285714283 95.23650491381125 189.3877551020408 91.49651594696496 195.9183673469388 88.25202513347654 202.44897959183675 76.3813399854237 208.97959183673467 66.5827459154647 215.51020408163265 65.26478040292758 222.0408163265306 60.100482107795074 228.57142857142858 62.37117364713288 235.10204081632654 60.78101627639472 241.63265306122446 53.0058079375674 248.16326530612244 49.05507985535547 254.69387755102042 49.415199225360084 261.2244897959184 54.88843124353872 267.7551020408163 51.9311986722833 274.2857142857143 54.703613463509384 280.81632653061223 55.375223252392686 287.3469387755102 56.21194837521875 293.8775510204082 57.729916268593854 300.40816326530614 60.54114948268523 306.9387755102041 61.064199747621956 313.46938775510205 54.08986279637128 320 54.45053990427374 326.53061224489795 51.54896187437862 333.0612244897959 48.91274224361132 339.5918367346939 43.24673069946152 346.12244897959187 45.07342986023809 352.65306122448976 41.668857971846194 359.1836734693877 40.487164704553834 365.71428571428567 42.58355074875885 372.2448979591837 49.4611687146392 378.7755102040816 51.477774350242385 385.3061224489796 55.31818369613609 391.8367346938776 58.814408686990134 398.36734693877554 58.18841019623443 404.8979591836735 62.604159091289716 411.42857142857144 65.79457868433428 417.95918367346934 71.1677993777007 424.48979591836735 76.5594097587445 431.0204081632653 80.24550345035752 437.55102040816325 74.62815473146327 444.0816326530612 78.08754347393585 450.61224489795916 85.03496240110309 457.14285714285717 91.50988209609164 463.6734693877551 91.15666964764301 470.2040816326531 94.05898395471408 476.7346938775511 99.42336488063171 483.2653061224489 104.8128827842427 489.7959183673469 111.24680530506902 496.3265306122449 109.1600694216774 502.85714285714283 110.48090294498047 509.38775510204084 110.08200647172589 515.9183673469388 108.62753172789508 522.4489795918367 112.05026135880757 528.9795918367347 117.96703117710013 535.5102040816327 120.20009901039663 542.0408163265306 116.05398322586262 548.5714285714286 117.60393223477564 555.1020408163265 123.75685365787211 561.6326530612245 124.68656434152294 568.1632653061224 124.82198037706812 574.6938775510204 127.71664567192545 581.2244897959183 126.98806086467272 587.7551020408164 127.2060987406164 594.2857142857143 127.15624647473021 600.8163265306123 128.54938463058548 607.3469387755102 124.59152761774308 613.8775510204082 109.18974075262273 620.4081632653061 108.50250556039416 626.9387755102041 110.00969459518382 633.469387755102 109.84664335795483 640 110.1588803105744 640 320 0 320"
      />
      
      <polygon
        fill="#701516"
        fillRule="evenodd"
        points="0 313.69578666067525 6.530612244897958 305.07507118682526 13.061224489795917 298.52241928684026 19.591836734693878 288.3920369699314 26.122448979591834 281.7296634279685 32.6530612244898 277.85566217343097 39.183673469387756 270.54539923648514 45.71428571428571 260.80005832401844 52.24489795918367 251.72753631296789 58.775510204081634 237.7909115596995 65.3061224489796 230.20543212701233 71.83673469387755 218.605147004932 78.36734693877551 212.80504267263547 84.89795918367348 207.84107735862506 91.42857142857142 198.66407032934552 97.9591836734694 187.9962281693488 104.48979591836734 176.33189052792514 111.0204081632653 173.6037312640717 117.55102040816327 169.2518547637265 124.08163265306122 162.75985347187435 130.6122448979592 159.3520805481105 137.14285714285714 148.55734142088036 143.6734693877551 151.1919799434875 150.20408163265307 136.3270576193085 156.73469387755102 123.0743078620618 163.26530612244898 117.47824303957731 169.79591836734696 107.22348483858045 176.32653061224488 98.72209493432348 182.85714285714283 95.23650491381125 189.3877551020408 91.49651594696496 195.9183673469388 88.25202513347654 202.44897959183675 76.3813399854237 208.97959183673467 66.5827459154647 215.51020408163265 65.26478040292758 222.0408163265306 60.100482107795074 228.57142857142858 62.37117364713288 235.10204081632654 60.78101627639472 241.63265306122446 53.0058079375674 248.16326530612244 49.05507985535547 254.69387755102042 49.415199225360084 261.2244897959184 54.88843124353872 267.7551020408163 51.9311986722833 274.2857142857143 54.703613463509384 280.81632653061223 55.375223252392686 287.3469387755102 56.21194837521875 293.8775510204082 57.729916268593854 300.40816326530614 60.54114948268523 306.9387755102041 61.064199747621956 313.46938775510205 54.08986279637128 320 54.45053990427374 326.53061224489795 51.54896187437862 333.0612244897959 48.91274224361132 339.5918367346939 43.24673069946152 346.12244897959187 45.07342986023809 352.65306122448976 41.668857971846194 359.1836734693877 40.487164704553834 365.71428571428567 42.58355074875885 372.2448979591837 49.4611687146392 378.7755102040816 51.477774350242385 385.3061224489796 55.31818369613609 391.8367346938776 58.814408686990134 398.36734693877554 58.18841019623443 404.8979591836735 62.604159091289716 411.42857142857144 65.79457868433428 417.95918367346934 71.1677993777007 424.48979591836735 76.5594097587445 431.0204081632653 80.24550345035752 437.55102040816325 74.62815473146327 444.0816326530612 78.08754347393585 450.61224489795916 85.03496240110309 457.14285714285717 91.50988209609164 463.6734693877551 91.15666964764301 470.2040816326531 94.05898395471408 476.7346938775511 99.42336488063171 483.2653061224489 104.8128827842427 489.7959183673469 111.24680530506902 496.3265306122449 109.1600694216774 502.85714285714283 110.48090294498047 509.38775510204084 110.08200647172589 515.9183673469388 108.62753172789508 522.4489795918367 112.05026135880757 528.9795918367347 117.96703117710013 535.5102040816327 120.20009901039663 542.0408163265306 116.05398322586262 548.5714285714286 117.60393223477564 555.1020408163265 123.75685365787211 561.6326530612245 124.68656434152294 568.1632653061224 124.82198037706812 574.6938775510204 127.71664567192545 581.2244897959183 126.98806086467272 587.7551020408164 127.2060987406164 594.2857142857143 127.15624647473021 600.8163265306123 128.54938463058548 607.3469387755102 124.59152761774308 613.8775510204082 109.20929698930638 620.4081632653061 108.52148382224684 626.9387755102041 110.02809355773701 633.469387755102 109.86448070168134 640 110.17653069771183 640 320 0 320"
      />
      
      <polygon
        fill="#3572A5"
        fillRule="evenodd"
        points="0 313.69578666067525 6.530612244897958 305.07507118682526 13.061224489795917 298.52241928684026 19.591836734693878 288.3920369699314 26.122448979591834 281.7296634279685 32.6530612244898 277.85566217343097 39.183673469387756 270.54539923648514 45.71428571428571 260.80005832401844 52.24489795918367 251.72753631296789 58.775510204081634 237.7909115596995 65.3061224489796 230.20543212701233 71.83673469387755 218.605147004932 78.36734693877551 212.80504267263547 84.89795918367348 207.84107735862506 91.42857142857142 198.66407032934552 97.9591836734694 187.9962281693488 104.48979591836734 176.33189052792514 111.0204081632653 173.6037312640717 117.55102040816327 169.2518547637265 124.08163265306122 163.42148148663202 130.6122448979592 159.99351273017402 137.14285714285714 149.21623559496942 143.6734693877551 151.8307617500308 150.20408163265307 137.94820336270567 156.73469387755102 125.43987754715172 163.26530612244898 119.7716052503564 169.79591836734696 109.44906786200681 176.32653061224488 100.87974330718237 182.85714285714283 97.33038480365505 189.3877551020408 93.52648144648037 195.9183673469388 90.22002708509305 202.44897959183675 78.29500245726689 208.97959183673467 68.47386560465412 215.51020408163265 67.10000926824793 222.0408163265306 61.879691298703506 228.57142857142858 64.09779958911207 235.10204081632654 62.454937825274044 241.63265306122446 54.62863397835474 248.16326530612244 50.629944107234394 254.69387755102042 50.94199153858415 261.2244897959184 56.370100281607506 267.7551020408163 53.40347415642225 274.2857142857143 56.130948467641076 280.81632653061223 56.763147355435706 287.3469387755102 57.557506954079145 293.8775510204082 59.035707398212594 300.40816326530614 61.807082022367354 306.9387755102041 62.292718466878 313.46938775510205 55.280881692087746 320 55.60520362959841 326.53061224489795 52.66950013966249 333.0612244897959 49.99907675211284 339.5918367346939 44.300959125688394 346.12244897959187 46.095478428520494 352.65306122448976 42.65970914188563 359.1836734693877 41.45065691758157 365.71428571428567 43.51763282537968 372.2448979591837 50.36764451107723 378.7755102040816 52.37891230230173 385.3061224489796 56.19268873419492 391.8367346938776 59.66221998208391 398.36734693877554 59.01034252768119 404.8979591836735 63.401799642953335 411.42857142857144 66.56787172373112 417.95918367346934 71.91823819425605 424.48979591836735 77.28694179500013 431.0204081632653 80.9508280339009 437.55102040816325 75.31331859254422 444.0816326530612 78.7517931348583 450.61224489795916 85.67958050017768 457.14285714285717 92.1348236075545 463.6734693877551 91.76314135855205 470.2040816326531 94.64694346974713 476.7346938775511 99.99337720017161 483.2653061224489 105.3660487481427 489.7959183673469 111.78308622734073 496.3265306122449 109.68050077158765 502.85714285714283 110.9854485128551 509.38775510204084 110.57115103975093 515.9183673469388 109.10317021078839 522.4489795918367 112.51138118036525 528.9795918367347 118.41452290624173 535.5102040816327 120.63393139007658 542.0408163265306 116.47499384626042 548.5714285714286 118.01209172947577 555.1020408163265 124.15255430176884 561.6326530612245 125.07057027793132 568.1632653061224 125.19426480836333 574.6938775510204 128.07792740740382 581.2244897959183 127.33831462743348 587.7551020408164 127.54566122719768 594.2857142857143 127.48643313203775 600.8163265306123 128.8694925347248 607.3469387755102 124.90217492251463 613.8775510204082 109.52987818799951 620.4081632653061 108.83259041652522 626.9387755102041 110.32970378480553 633.469387755102 110.156884444436 640 110.46586974982748 640 320 0 320"
      />
      
      <polygon
        fill="#0298c3"
        fillRule="evenodd"
        points="0 313.69578666067525 6.530612244897958 305.07507118682526 13.061224489795917 298.52241928684026 19.591836734693878 288.3920369699314 26.122448979591834 281.7296634279685 32.6530612244898 277.85566217343097 39.183673469387756 270.54539923648514 45.71428571428571 260.80005832401844 52.24489795918367 251.72753631296789 58.775510204081634 237.7909115596995 65.3061224489796 230.20543212701233 71.83673469387755 218.605147004932 78.36734693877551 212.80504267263547 84.89795918367348 207.84107735862506 91.42857142857142 198.66407032934552 97.9591836734694 187.9962281693488 104.48979591836734 176.33189052792514 111.0204081632653 173.6037312640717 117.55102040816327 169.2518547637265 124.08163265306122 163.42148148663202 130.6122448979592 159.99351273017402 137.14285714285714 149.21623559496942 143.6734693877551 151.8307617500308 150.20408163265307 137.94820336270567 156.73469387755102 126.07798903289239 163.26530612244898 120.39023874683403 169.79591836734696 110.04941799048649 176.32653061224488 101.4617680936235 182.85714285714283 97.89520817620198 189.3877551020408 94.07406388685655 195.9183673469388 90.75089491796808 202.44897959183675 78.81121215374503 208.97959183673467 68.97431823606246 215.51020408163265 67.6901455354423 222.0408163265306 62.45181401340267 228.57142857142858 64.6530134957311 235.10204081632654 62.99320415562329 241.63265306122446 55.150470045785994 248.16326530612244 51.13635763807457 254.69387755102042 51.43294704242061 261.2244897959184 56.84654587854715 267.7551020408163 53.865376534386996 274.2857142857143 56.578751513668465 280.81632653061223 57.198585825279395 287.3469387755102 57.97965393556831 293.8775510204082 59.445378020020826 300.40816326530614 62.20424768871624 306.9387755102041 62.67814611592689 313.46938775510205 55.654544392634705 320 55.96746050886213 326.53061224489795 53.021050699908244 333.0612244897959 50.33989642542616 339.5918367346939 44.63170603625349 346.12244897959187 46.416129498321425 352.65306122448976 42.970572512782724 359.1836734693877 41.75293683866778 365.71428571428567 43.81068583512808 372.2448979591837 50.65203648325962 378.7755102040816 52.65462338530324 385.3061224489796 56.46025130475613 391.8367346938776 59.921615380509024 398.36734693877554 59.261820008871894 404.8979591836735 63.64584485220939 411.42857142857144 66.8044675940069 417.95918367346934 72.14784160039503 424.48979591836735 77.50953669747307 431.0204081632653 81.16662834104915 437.55102040816325 75.52295057554699 444.0816326530612 78.95502621905993 450.61224489795916 85.87680714542543 457.14285714285717 92.32603001430462 463.6734693877551 91.94869676478359 470.2040816326531 94.82683489792933 476.7346938775511 100.16777756074586 483.2653061224489 105.535294789023 489.7959183673469 111.94716612181452 496.3265306122449 109.83973137485353 502.85714285714283 111.1398187071868 509.38775510204084 110.72080915740017 515.9183673469388 109.24869602782226 522.4489795918367 112.65246490062208 528.9795918367347 118.55143697566592 535.5102040816327 120.76666624249157 542.0408163265306 116.60380578532968 548.5714285714286 118.13697175415666 555.1020408163265 124.27362244651442 561.6326530612245 125.18806030269772 568.1632653061224 125.30816853412085 574.6938775510204 128.18846476373935 581.2244897959183 127.44547788742454 587.7551020408164 127.64955338907725 594.2857142857143 127.58745666674426 600.8163265306123 128.96743238720865 607.3469387755102 127.49642657823469 613.8775510204082 116.37775228737434 620.4081632653061 115.57871574272778 626.9387755102041 117.07542992092914 633.469387755102 116.69670165898398 640 116.93714166087642 640 320 0 320"
      />
      
      <polygon
        fill="#fd2fdb"
        fillRule="evenodd"
        points="0 313.69578666067525 6.530612244897958 305.07507118682526 13.061224489795917 298.52241928684026 19.591836734693878 288.3920369699314 26.122448979591834 281.7296634279685 32.6530612244898 277.85566217343097 39.183673469387756 270.54539923648514 45.71428571428571 260.80005832401844 52.24489795918367 251.72753631296789 58.775510204081634 237.7909115596995 65.3061224489796 230.20543212701233 71.83673469387755 218.605147004932 78.36734693877551 212.80504267263547 84.89795918367348 207.84107735862506 91.42857142857142 198.66407032934552 97.9591836734694 187.9962281693488 104.48979591836734 176.33189052792514 111.0204081632653 173.6037312640717 117.55102040816327 169.2518547637265 124.08163265306122 163.42148148663202 130.6122448979592 159.99351273017402 137.14285714285714 149.21623559496942 143.6734693877551 151.8307617500308 150.20408163265307 137.94820336270567 156.73469387755102 126.07798903289239 163.26530612244898 120.39023874683403 169.79591836734696 110.04941799048649 176.32653061224488 101.4617680936235 182.85714285714283 97.89520817620198 189.3877551020408 94.07406388685655 195.9183673469388 90.75089491796808 202.44897959183675 78.81121215374503 208.97959183673467 68.97431823606246 215.51020408163265 67.6901455354423 222.0408163265306 62.45181401340267 228.57142857142858 64.6530134957311 235.10204081632654 62.99320415562329 241.63265306122446 55.150470045785994 248.16326530612244 51.13635763807457 254.69387755102042 51.43294704242061 261.2244897959184 56.84654587854715 267.7551020408163 53.865376534386996 274.2857142857143 56.578751513668465 280.81632653061223 58.32818955854134 287.3469387755102 59.07477720191093 293.8775510204082 60.50813544797046 300.40816326530614 63.23456509159661 306.9387755102041 64.55877404177502 313.46938775510205 57.47776724385619 320 57.73503040623581 326.53061224489795 54.73638094980032 333.0612244897959 52.002867424940405 339.5918367346939 46.2455287737983 346.12244897959187 47.98069115260819 352.65306122448976 44.4873768539029 359.1836734693877 43.22785971852977 365.71428571428567 45.24058757495408 372.2448979591837 52.03967812207429 378.7755102040816 53.99990813107212 385.3061224489796 57.76577692416532 391.8367346938776 61.18729052736035 398.36734693877554 60.48886105695027 404.8979591836735 64.83662135683286 411.42857142857144 67.95889642910751 417.95918367346934 73.26815191118979 424.48979591836735 78.59565018722051 431.0204081632653 82.2195888121733 437.55102040816325 76.54581375874469 444.0816326530612 79.946666983993 450.61224489795916 86.83914057695642 457.14285714285717 93.25898870736484 463.6734693877551 92.85408236643721 470.2040816326531 95.70458421592448 476.7346938775511 101.01873398045399 483.2653061224489 106.36110161724775 489.7959183673469 112.74776571489213 496.3265306122449 110.61666973379494 502.85714285714283 111.89304144555479 509.38775510204084 111.45104022207246 515.9183673469388 109.95876420197271 522.4489795918367 113.34085865641123 528.9795918367347 119.21948563146944 535.5102040816327 121.41432308741884 542.0408163265306 117.23232147110912 548.5714285714286 118.7463023750172 555.1020408163265 124.8643535839901 561.6326530612245 125.76133266427382 568.1632653061224 125.86394212886344 574.6938775510204 128.72781272966236 581.2244897959183 127.96836257633112 587.7551020408164 128.15647731808454 594.2857142857143 128.0803836147119 600.8163265306123 129.4453130236751 607.3469387755102 127.96018372585579 613.8775510204082 116.82735347663532 620.4081632653061 116.01502922489428 626.9387755102041 117.49842518904248 633.469387755102 117.10678523958944 640 117.34292708946197 640 320 0 320"
      />
      
      <polygon
        fill="#4F5D95"
        fillRule="evenodd"
        points="0 313.69578666067525 6.530612244897958 305.07507118682526 13.061224489795917 298.52241928684026 19.591836734693878 288.3920369699314 26.122448979591834 281.7296634279685 32.6530612244898 277.85566217343097 39.183673469387756 270.54539923648514 45.71428571428571 260.80005832401844 52.24489795918367 251.72753631296789 58.775510204081634 237.7909115596995 65.3061224489796 230.20543212701233 71.83673469387755 218.605147004932 78.36734693877551 212.80504267263547 84.89795918367348 207.84107735862506 91.42857142857142 198.66407032934552 97.9591836734694 187.9962281693488 104.48979591836734 176.33189052792514 111.0204081632653 173.6037312640717 117.55102040816327 169.2518547637265 124.08163265306122 163.42148148663202 130.6122448979592 159.99351273017402 137.14285714285714 149.21623559496942 143.6734693877551 151.8307617500308 150.20408163265307 137.94820336270567 156.73469387755102 126.07798903289239 163.26530612244898 120.39023874683403 169.79591836734696 110.04941799048649 176.32653061224488 101.4617680936235 182.85714285714283 97.89520817620198 189.3877551020408 94.07406388685655 195.9183673469388 90.75089491796808 202.44897959183675 78.81121215374503 208.97959183673467 68.97431823606246 215.51020408163265 67.6901455354423 222.0408163265306 62.45181401340267 228.57142857142858 64.67264057144286 235.10204081632654 63.01223212563161 241.63265306122446 55.16891719782575 248.16326530612244 51.154259594080486 254.69387755102042 51.45030255293295 261.2244897959184 56.86338845600966 267.7551020408163 53.88170500126603 274.2857142857143 56.59458156322046 280.81632653061223 58.343582514993386 287.3469387755102 59.08970029674106 293.8775510204082 60.522617498900615 300.40816326530614 63.248605086523185 306.9387755102041 64.57239909274293 313.46938775510205 57.4909763973302 320 57.74783635820728 326.53061224489795 54.74880842847631 333.0612244897959 52.01491556206969 339.5918367346939 46.25722083440468 346.12244897959187 47.992026319816205 352.65306122448976 44.498366021953984 359.1836734693877 43.23854545742398 365.71428571428567 45.25094713804941 372.2448979591837 52.049731513057964 378.7755102040816 54.009654648664196 385.3061224489796 57.77523538835425 391.8367346938776 61.19646027796682 398.36734693877554 60.49775090595409 404.8979591836735 64.84524847094863 411.42857142857144 67.96726020569693 417.95918367346934 73.27626850075393 424.48979591836735 78.60351902205667 431.0204081632653 82.2272174558288 437.55102040816325 76.55322434905813 444.0816326530612 79.95385136967755 450.61224489795916 86.8461126315371 457.14285714285717 93.26574794441541 463.6734693877551 92.86064183767513 470.2040816326531 95.71094346318023 476.7346938775511 101.02489911559991 483.2653061224489 106.36708454508764 489.7959183673469 112.75356601732955 496.3265306122449 110.62229861147677 502.85714285714283 111.8984985049423 509.38775510204084 111.45633070760877 515.9183673469388 109.96390860880604 522.4489795918367 113.34584603286189 528.9795918367347 119.22432560875592 535.5102040816327 121.41901532738552 542.0408163265306 117.23687503429193 548.5714285714286 118.7507169431943 555.1020408163265 124.8686333999818 561.6326530612245 125.76548599259911 568.1632653061224 125.86796867955724 574.6938775510204 128.73172027752946 581.2244897959183 127.97215084846314 587.7551020408164 128.16014995558822 594.2857142857143 128.0839548446806 600.8163265306123 129.44877524392678 607.3469387755102 127.96354362192514 613.8775510204082 116.83061081394038 620.4081632653061 116.0181902932733 626.9387755102041 117.50148976747676 633.469387755102 117.10975627355708 640 117.34586698352089 640 320 0 320"
      />
      
      <polygon
        fill="#755462"
        fillRule="evenodd"
        points="0 318.0212233481564 6.530612244897958 313.527363167136 13.061224489795917 310.8961228977813 19.591836734693878 304.60635398174014 26.122448979591834 301.5123564819675 32.6530612244898 299.63474026154506 39.183673469387756 295.6873213381893 45.71428571428571 289.6072481715789 52.24489795918367 284.8540552911775 58.775510204081634 274.4471000414279 65.3061224489796 270.19674326032344 71.83673469387755 262.9523524636138 78.36734693877551 259.78061733520275 84.89795918367348 257.2939547524998 91.42857142857142 251.488569808482 97.9591836734694 243.1157674851122 104.48979591836734 233.69075774703265 111.0204081632653 232.44224660220738 117.55102040816327 230.48705287748342 124.08163265306122 226.74322610646587 130.6122448979592 225.02603601098696 137.14285714285714 216.7622281254906 143.6734693877551 218.75150445255093 150.20408163265307 208.35862360719352 156.73469387755102 198.35250261658138 163.26530612244898 194.34753220009623 169.79591836734696 186.11866123508105 176.32653061224488 178.69890382202766 182.85714285714283 176.47501999201612 189.3877551020408 173.87230452020677 195.9183673469388 171.38692095895706 202.44897959183675 162.6559763425581 208.97959183673467 154.12864166223562 215.51020408163265 153.54796826522002 222.0408163265306 149.77113481444923 228.57142857142858 151.99177025445934 235.10204081632654 150.24045333234287 241.63265306122446 143.4641873570265 248.16326530612244 140.69794766127825 254.69387755102042 142.92924871011087 261.2244897959184 147.05376856116322 267.7551020408163 144.44708745188086 274.2857142857143 147.14072993638925 280.81632653061223 149.53427952713554 287.3469387755102 150.79090542021584 293.8775510204082 152.3821978183292 300.40816326530614 155.03542286734074 306.9387755102041 154.4904791607253 313.46938775510205 148.88679340404 320 148.96293379970518 326.53061224489795 145.90477230744324 333.0612244897959 141.78899024942388 339.5918367346939 137.45861737368216 346.12244897959187 139.37104960027042 352.65306122448976 135.06401768183702 359.1836734693877 134.18773195804636 365.71428571428567 137.09696013237533 372.2448979591837 142.45248896034045 378.7755102040816 144.39915302573124 385.3061224489796 146.97581007817325 391.8367346938776 149.82610067842856 398.36734693877554 149.06456279530346 404.8979591836735 151.71940811420356 411.42857142857144 154.1923521933319 417.95918367346934 158.30287165199059 424.48979591836735 162.4214855860078 431.0204081632653 164.48545950118339 437.55102040816325 158.22326058372477 444.0816326530612 161.34776623408777 450.61224489795916 165.87467677457894 457.14285714285717 170.0706897706168 463.6734693877551 168.56360326756777 470.2040816326531 169.21376646105688 476.7346938775511 173.47269304655597 483.2653061224489 177.15374426465078 489.7959183673469 181.49372770576292 496.3265306122449 177.55137549863096 502.85714285714283 179.110147509626 509.38775510204084 179.84343779855064 515.9183673469388 178.85202750552165 522.4489795918367 181.1912876359877 528.9795918367347 185.21841610220181 535.5102040816327 189.19428784301803 542.0408163265306 186.26904657738504 548.5714285714286 186.94217054715494 555.1020408163265 190.98331628785547 561.6326530612245 194.30437779000619 568.1632653061224 196.59011989887264 574.6938775510204 200.1984827547574 581.2244897959183 201.59015842252953 587.7551020408164 203.64793919904116 594.2857142857143 205.75044853032512 600.8163265306123 209.1837311489315 607.3469387755102 208.11705109534074 613.8775510204082 198.63922817073643 620.4081632653061 199.1612471668929 626.9387755102041 200.62398193005384 633.469387755102 202.12370042409205 640 202.60925098879113 640 320 0 320"
      />
      
      <polygon
        fill="#2415b9"
        fillRule="evenodd"
        points="0 318.0212233481564 6.530612244897958 313.527363167136 13.061224489795917 310.8961228977813 19.591836734693878 304.60635398174014 26.122448979591834 301.5123564819675 32.6530612244898 299.63474026154506 39.183673469387756 295.6873213381893 45.71428571428571 289.6072481715789 52.24489795918367 284.8540552911775 58.775510204081634 274.4471000414279 65.3061224489796 270.19674326032344 71.83673469387755 262.9523524636138 78.36734693877551 259.78061733520275 84.89795918367348 257.2939547524998 91.42857142857142 251.488569808482 97.9591836734694 243.1157674851122 104.48979591836734 233.69075774703265 111.0204081632653 232.44224660220738 117.55102040816327 230.48705287748342 124.08163265306122 226.74322610646587 130.6122448979592 225.02603601098696 137.14285714285714 216.7622281254906 143.6734693877551 218.75150445255093 150.20408163265307 208.35862360719352 156.73469387755102 198.35250261658138 163.26530612244898 194.34753220009623 169.79591836734696 186.11866123508105 176.32653061224488 178.69890382202766 182.85714285714283 176.47501999201612 189.3877551020408 173.87230452020677 195.9183673469388 171.38692095895706 202.44897959183675 162.6559763425581 208.97959183673467 154.12864166223562 215.51020408163265 153.54796826522002 222.0408163265306 149.77113481444923 228.57142857142858 151.99177025445934 235.10204081632654 150.24045333234287 241.63265306122446 143.4641873570265 248.16326530612244 140.69794766127825 254.69387755102042 142.92924871011087 261.2244897959184 147.05376856116322 267.7551020408163 144.44708745188086 274.2857142857143 147.14072993638925 280.81632653061223 149.53427952713554 287.3469387755102 150.79090542021584 293.8775510204082 152.3821978183292 300.40816326530614 155.03542286734074 306.9387755102041 154.4904791607253 313.46938775510205 148.88679340404 320 148.96293379970518 326.53061224489795 145.90477230744324 333.0612244897959 142.14862095117599 339.5918367346939 137.8182480754342 346.12244897959187 139.73068030202253 352.65306122448976 135.4236483835891 359.1836734693877 134.54736265979844 365.71428571428567 137.45659083412744 372.2448979591837 142.81211966209253 378.7755102040816 144.75878372748332 385.3061224489796 147.33544077992536 391.8367346938776 150.18573138018067 398.36734693877554 149.42419349705557 404.8979591836735 152.07903881595564 411.42857142857144 154.55198289508402 417.95918367346934 158.66250235374267 424.48979591836735 162.78111628775991 431.0204081632653 164.84509020293547 437.55102040816325 158.58289128547685 444.0816326530612 161.70739693583985 450.61224489795916 166.23430747633103 457.14285714285717 170.4303204723689 463.6734693877551 168.92323396931988 470.2040816326531 169.57339716280896 476.7346938775511 173.83232374830806 483.2653061224489 177.51337496640286 489.7959183673469 181.853358407515 496.3265306122449 177.91100620038304 502.85714285714283 179.4697782113781 509.38775510204084 180.20306850030272 515.9183673469388 179.21165820727373 522.4489795918367 181.55091833773977 528.9795918367347 185.5780468039539 535.5102040816327 189.5539185447701 542.0408163265306 186.62867727913715 548.5714285714286 187.30180124890705 555.1020408163265 191.34294698960755 561.6326530612245 194.6640084917583 568.1632653061224 196.94975060062472 574.6938775510204 200.5581134565095 581.2244897959183 201.9497891242816 587.7551020408164 204.00756990079324 594.2857142857143 206.1100792320772 600.8163265306123 209.54336185068362 607.3469387755102 208.47668179709285 613.8775510204082 198.99885887248848 620.4081632653061 199.52087786864502 626.9387755102041 200.98361263180595 633.469387755102 202.48333112584416 640 202.60925098879113 640 320 0 320"
      />
      
      <polygon
        fill="#f1e05a"
        fillRule="evenodd"
        points="0 318.0212233481564 6.530612244897958 313.527363167136 13.061224489795917 310.8961228977813 19.591836734693878 304.60635398174014 26.122448979591834 301.5123564819675 32.6530612244898 299.63474026154506 39.183673469387756 295.6873213381893 45.71428571428571 289.6072481715789 52.24489795918367 284.8540552911775 58.775510204081634 275.55860499999346 65.3061224489796 271.2743201447276 71.83673469387755 264.3815131586909 78.36734693877551 261.6232711359915 84.89795918367348 259.09161258740164 91.42857142857142 253.23309878330417 97.9591836734694 246.0081137414624 104.48979591836734 237.61106685268305 111.0204081632653 236.28993106193292 117.55102040816327 234.2172881151145 124.08163265306122 230.51364473193303 130.6122448979592 228.68136459176313 137.14285714285714 222.60338728218937 143.6734693877551 224.41436435866063 150.20408163265307 213.85412186537397 156.73469387755102 203.68025370272028 163.26530612244898 199.51265725538659 169.79591836734696 191.13113333264053 176.32653061224488 184.6745540722607 182.85714285714283 182.27406351649412 189.3877551020408 179.49433483348517 195.9183673469388 176.8373433104832 202.44897959183675 169.278989804388 208.97959183673467 161.91433912779746 215.51020408163265 161.10356373263792 222.0408163265306 157.65194689425232 228.57142857142858 159.7498176676444 235.10204081632654 157.7616907100317 241.63265306122446 151.88561839930355 248.16326530612244 148.870486515003 254.69387755102042 150.8523281862909 261.2244897959184 154.7426852948184 267.7551020408163 153.00426264380872 274.2857142857143 155.44774292962944 280.81632653061223 157.61192314134715 287.3469387755102 159.39923612718695 293.8775510204082 161.38433585740455 300.40816326530614 163.76277427982137 306.9387755102041 164.08010169405253 313.46938775510205 158.18369812398316 320 157.97605598792836 326.53061224489795 154.65151500736232 333.0612244897959 150.62837330435622 339.5918367346939 146.04738817779148 346.12244897959187 147.70862914812696 352.65306122448976 144.26949708478077 359.1836734693877 143.14896251855558 365.71428571428567 145.79563562021457 372.2448979591837 150.9047054182038 378.7755102040816 152.60434942972395 385.3061224489796 154.94913304593692 391.8367346938776 157.56702001155708 398.36734693877554 156.5801734937843 404.8979591836735 159.023527189598 411.42857142857144 161.2844956854671 417.95918367346934 165.19603825845385 424.48979591836735 169.11521991157912 431.0204081632653 170.98584844961732 437.55102040816325 165.66901147711582 444.0816326530612 168.57721672815188 450.61224489795916 172.90109467342003 457.14285714285717 176.89360704056446 463.6734693877551 175.19550238202493 470.2040816326531 175.65420671828642 476.7346938775511 179.72751967848095 483.2653061224489 183.23434153526256 489.7959183673469 187.39969611672774 496.3265306122449 183.2934247494953 502.85714285714283 184.68790152942748 509.38775510204084 185.26191209980755 515.9183673469388 184.13081846792403 522.4489795918367 186.31992456027825 528.9795918367347 190.206107589378 535.5102040816327 194.04071022544824 542.0408163265306 190.98286459169407 548.5714285714286 191.52307902100438 555.1020408163265 195.43537329408394 561.6326530612245 198.63548431237953 568.1632653061224 200.79999933000542 574.6938775510204 204.29457123004556 581.2244897959183 205.5721930005542 587.7551020408164 207.51940274902145 594.2857142857143 209.5249438266757 600.8163265306123 212.85399005517002 607.3469387755102 211.68946599581494 613.8775510204082 202.11357445038516 620.4081632653061 202.54354000883373 626.9387755102041 203.91400997418575 633.469387755102 205.3242791678032 640 205.42042253340975 640 320 0 320"
      />
      
      <polygon
        fill="#22e8e8"
        fillRule="evenodd"
        points="0 319.9256742392049 6.530612244897958 319.85646895171715 13.061224489795917 319.82723284574433 19.591836734693878 318.6603025795652 26.122448979591834 318.54752954300915 32.6530612244898 318.4075974976383 39.183673469387756 318.2695441772331 45.71428571428571 316.011534659894 52.24489795918367 316.01949777757 58.775510204081634 310.27119812455885 65.3061224489796 309.3798686477826 71.83673469387755 306.93693057203325 78.36734693877551 307.02226384769665 84.89795918367348 306.27910015473446 91.42857142857142 304.58410907605906 97.9591836734694 300.15629669689116 104.48979591836734 294.7536418925939 111.0204081632653 293.47877516041495 117.55102040816327 293.78095355261644 124.08163265306122 290.8838539442544 130.6122448979592 291.25491808692755 137.14285714285714 286.9785364656882 143.6734693877551 287.29590969687075 150.20408163265307 280.0896201187105 156.73469387755102 272.3565244281967 163.26530612244898 270.6873441169122 169.79591836734696 264.64103078017877 176.32653061224488 259.71602414706234 182.85714285714283 258.48212626699757 189.3877551020408 256.4976119641866 195.9183673469388 254.7095663078557 202.44897959183675 249.75800519105718 208.97959183673467 243.8433043301441 215.51020408163265 243.3267941879025 222.0408163265306 241.83024287103322 228.57142857142858 242.76852040969587 235.10204081632654 241.70744536499456 241.63265306122446 237.2178048954004 248.16326530612244 234.04435021847684 254.69387755102042 235.73028466581417 261.2244897959184 237.40440832714785 267.7551020408163 235.56048030340696 274.2857142857143 237.00507090236695 280.81632653061223 238.39935062522488 287.3469387755102 240.81756169611577 293.8775510204082 242.54145342752054 300.40816326530614 244.59168567890438 306.9387755102041 243.76035263173935 313.46938775510205 239.7940356621589 320 239.82807049526292 326.53061224489795 237.43529669986646 333.0612244897959 235.72254592687062 339.5918367346939 231.99173805441072 346.12244897959187 232.20070291218659 352.65306122448976 229.58694899726868 359.1836734693877 229.00005501662906 365.71428571428567 230.61534836631466 372.2448979591837 233.24732299128715 378.7755102040816 234.385840356445 385.3061224489796 235.44974271497185 391.8367346938776 235.98079958001892 398.36734693877554 235.02387433663188 404.8979591836735 236.27272595925524 411.42857142857144 237.1099267820507 417.95918367346934 239.1760603720668 424.48979591836735 241.04013135251344 431.0204081632653 242.01070288563005 437.55102040816325 236.8472946456589 444.0816326530612 238.18585162576267 450.61224489795916 240.6023243651432 457.14285714285717 242.698493766786 463.6734693877551 240.20792744419134 470.2040816326531 240.05519793649682 476.7346938775511 242.49387633043614 483.2653061224489 244.47758612909215 489.7959183673469 246.7813113554213 496.3265306122449 243.48880823004833 502.85714285714283 244.0437466595498 509.38775510204084 246.20496678178688 515.9183673469388 246.8955721944657 522.4489795918367 247.99729889700228 528.9795918367347 250.11821921380755 535.5102040816327 252.23282123018953 542.0408163265306 249.58177237848037 548.5714285714286 249.44273380609832 555.1020408163265 251.59489267317403 561.6326530612245 253.6150502214396 568.1632653061224 254.42276594023954 574.6938775510204 256.34012807696394 581.2244897959183 257.15931831678625 587.7551020408164 258.9193813856432 594.2857142857143 259.9453767981257 600.8163265306123 261.74593603077767 607.3469387755102 260.1128871482126 613.8775510204082 252.9837615774464 620.4081632653061 252.93433324536164 626.9387755102041 253.24228971513148 633.469387755102 253.15468984333745 640 252.80361701857092 640 320 0 320"
      />
      
      <polygon
        fill="#22e4e8"
        fillRule="evenodd"
        points="0 319.9256742392049 6.530612244897958 319.85646895171715 13.061224489795917 319.82723284574433 19.591836734693878 318.6603025795652 26.122448979591834 318.54752954300915 32.6530612244898 318.4075974976383 39.183673469387756 318.2695441772331 45.71428571428571 316.011534659894 52.24489795918367 316.01949777757 58.775510204081634 310.27119812455885 65.3061224489796 309.3798686477826 71.83673469387755 306.93693057203325 78.36734693877551 307.02226384769665 84.89795918367348 306.27910015473446 91.42857142857142 304.58410907605906 97.9591836734694 300.15629669689116 104.48979591836734 294.7536418925939 111.0204081632653 293.47877516041495 117.55102040816327 293.78095355261644 124.08163265306122 290.8838539442544 130.6122448979592 291.25491808692755 137.14285714285714 286.9785364656882 143.6734693877551 287.29590969687075 150.20408163265307 280.0896201187105 156.73469387755102 272.3565244281967 163.26530612244898 270.6873441169122 169.79591836734696 264.64103078017877 176.32653061224488 259.71602414706234 182.85714285714283 258.48212626699757 189.3877551020408 256.4976119641866 195.9183673469388 254.7095663078557 202.44897959183675 249.75800519105718 208.97959183673467 243.8433043301441 215.51020408163265 243.3267941879025 222.0408163265306 241.83024287103322 228.57142857142858 242.76852040969587 235.10204081632654 241.70744536499456 241.63265306122446 237.2178048954004 248.16326530612244 234.04435021847684 254.69387755102042 235.73028466581417 261.2244897959184 237.40440832714785 267.7551020408163 235.56048030340696 274.2857142857143 237.00507090236695 280.81632653061223 238.39935062522488 287.3469387755102 240.81756169611577 293.8775510204082 242.54145342752054 300.40816326530614 244.59168567890438 306.9387755102041 243.76035263173935 313.46938775510205 239.7940356621589 320 239.82807049526292 326.53061224489795 237.43529669986646 333.0612244897959 235.77392174140664 339.5918367346939 232.04311386894673 346.12244897959187 232.25207872672257 352.65306122448976 229.6383248118047 359.1836734693877 229.05143083116508 365.71428571428567 230.66672418085068 372.2448979591837 233.29869880582316 378.7755102040816 234.437216170981 385.3061224489796 235.50111852950786 391.8367346938776 236.03217539455494 398.36734693877554 235.0752501511679 404.8979591836735 236.32410177379126 411.42857142857144 237.16130259658672 417.95918367346934 239.2274361866028 424.48979591836735 241.09150716704943 431.0204081632653 242.06207870016607 437.55102040816325 236.89867046019492 444.0816326530612 238.23722744029868 450.61224489795916 240.65370017967922 457.14285714285717 242.749869581322 463.6734693877551 240.25930325872736 470.2040816326531 240.10657375103284 476.7346938775511 242.54525214497215 483.2653061224489 244.52896194362816 489.7959183673469 246.83268716995732 496.3265306122449 243.54018404458435 502.85714285714283 244.09512247408583 509.38775510204084 246.2563425963229 515.9183673469388 246.94694800900172 522.4489795918367 248.0486747115383 528.9795918367347 250.16959502834356 535.5102040816327 252.28419704472554 542.0408163265306 249.63314819301638 548.5714285714286 249.49410962063433 555.1020408163265 251.64626848771005 561.6326530612245 253.6664260359756 568.1632653061224 254.47414175477556 574.6938775510204 256.39150389149995 581.2244897959183 257.21069413132227 587.7551020408164 258.9707572001792 594.2857142857143 259.9967526126618 600.8163265306123 261.7973118453137 607.3469387755102 260.1642629627486 613.8775510204082 253.0351373919824 620.4081632653061 252.98570905989766 626.9387755102041 253.2936655296675 633.469387755102 253.20606565787347 640 252.80361701857092 640 320 0 320"
      />
      
      <polygon
        fill="#e34c26"
        fillRule="evenodd"
        points="0 319.9256742392049 6.530612244897958 319.85646895171715 13.061224489795917 319.82723284574433 19.591836734693878 318.6603025795652 26.122448979591834 318.6387619335498 32.6530612244898 318.5126024904862 39.183673469387756 318.3713439532315 45.71428571428571 316.11052357568525 52.24489795918367 316.2070740411911 58.775510204081634 311.64862080560744 65.3061224489796 310.7510441325352 71.83673469387755 308.26758163629296 78.36734693877551 308.3122974498632 84.89795918367348 307.52975630146756 91.42857142857142 305.7978025847694 97.9591836734694 302.0857633968019 104.48979591836734 297.726602658794 111.0204081632653 296.36098764009955 117.55102040816327 296.57518854621514 124.08163265306122 294.70439861619315 130.6122448979592 294.9752840305863 137.14285714285714 291.7197380973998 143.6734693877551 292.19421610339435 150.20408163265307 288.11678545386604 156.73469387755102 282.47604379150425 163.26530612244898 280.5090805252805 169.79591836734696 276.09419076639387 176.32653061224488 271.33207885963606 182.85714285714283 270.33209763194446 189.3877551020408 269.08199032276286 195.9183673469388 268.32411914179636 202.44897959183675 264.11123948639664 208.97959183673467 258.7341361763047 215.51020408163265 258.87801589169044 222.0408163265306 257.3390425372425 228.57142857142858 258.03725938987156 235.10204081632654 256.5238141330829 241.63265306122446 252.72245442331146 248.16326530612244 250.19333260694015 254.69387755102042 252.19005065908505 261.2244897959184 254.18866807509335 267.7551020408163 252.86778180639925 274.2857142857143 253.80098474008176 280.81632653061223 254.90773046924232 287.3469387755102 256.8330471130561 293.8775510204082 258.58288876838304 300.40816326530614 260.4520880620863 306.9387755102041 259.97207824746295 313.46938775510205 257.86437281767263 320 257.54204445082905 326.53061224489795 255.72565900126096 333.0612244897959 254.32300236964159 339.5918367346939 252.44398127376888 346.12244897959187 252.30168352246426 352.65306122448976 249.895958500733 359.1836734693877 249.60729906844236 365.71428571428567 250.63985093907405 372.2448979591837 252.68976841084225 378.7755102040816 254.04377032739217 385.3061224489796 254.88131803968741 391.8367346938776 255.7653586036019 398.36734693877554 254.20609200791546 404.8979591836735 254.90083286540948 411.42857142857144 255.17099163055695 417.95918367346934 256.70486047930075 424.48979591836735 258.10510135846965 431.0204081632653 258.5563394428327 437.55102040816325 255.16941850311588 444.0816326530612 257.12071016279964 450.61224489795916 258.9790915389407 457.14285714285717 260.5158872370131 463.6734693877551 258.6005317265777 470.2040816326531 258.0205712203646 476.7346938775511 259.9124475725505 483.2653061224489 261.3828729108564 489.7959183673469 263.17214333578033 496.3265306122449 261.82042531051525 502.85714285714283 263.557594186147 509.38775510204084 265.2078674475954 515.9183673469388 265.5769455451309 522.4489795918367 267.2215286268645 528.9795918367347 268.77580658985886 535.5102040816327 270.33940813292355 542.0408163265306 268.43861982369333 548.5714285714286 268.96361159915665 555.1020408163265 270.52147764903816 561.6326530612245 271.9837873554251 568.1632653061224 273.4494371679176 574.6938775510204 274.82522423825947 581.2244897959183 276.204137537191 587.7551020408164 277.5409964438727 594.2857142857143 278.71336052445207 600.8163265306123 279.9736105907916 607.3469387755102 278.9297323567115 613.8775510204082 275.7239167529228 620.4081632653061 277.0324775835286 626.9387755102041 278.2862792391671 633.469387755102 279.5595507132591 640 279.9834162897257 640 320 0 320"
      />
      
      <polygon
        fill="#00ADD8"
        fillRule="evenodd"
        points="0 319.9256742392049 6.530612244897958 319.85646895171715 13.061224489795917 319.82723284574433 19.591836734693878 318.6603025795652 26.122448979591834 318.6387619335498 32.6530612244898 318.51536226186414 39.183673469387756 318.3740194842001 45.71428571428571 316.61217953142165 52.24489795918367 316.6934172299018 58.775510204081634 313.13944152027113 65.3061224489796 312.1963583084671 71.83673469387755 310.8820277889359 78.36734693877551 310.86396194613667 84.89795918367348 310.00353280236857 91.42857142857142 308.66170123059794 97.9591836734694 305.87144351623186 104.48979591836734 303.7931557339926 111.0204081632653 303.02444003306704 117.55102040816327 303.3152885168889 124.08163265306122 302.490180851849 130.6122448979592 302.91323372252555 137.14285714285714 300.9756880730274 143.6734693877551 301.5563835205426 150.20408163265307 299.63115458551937 156.73469387755102 295.82118904663207 163.26530612244898 294.0784380551739 169.79591836734696 290.71613084691955 176.32653061224488 287.71237366043374 182.85714285714283 287.3468179812193 189.3877551020408 286.1158245300777 195.9183673469388 284.9373107850487 202.44897959183675 282.37652011513467 208.97959183673467 277.9438429909138 215.51020408163265 278.07964334570573 222.0408163265306 276.0327964316946 228.57142857142858 276.2116685328909 235.10204081632654 274.14900759858193 241.63265306122446 270.3047007904072 248.16326530612244 268.08694826312916 254.69387755102042 269.6660559517855 261.2244897959184 271.1481758640026 267.7551020408163 270.412517663786 274.2857142857143 270.8101832168103 280.81632653061223 272.1628896305457 287.3469387755102 273.56149731367117 293.8775510204082 274.92285663731883 300.40816326530614 276.2932882208273 306.9387755102041 276.4643373883952 313.46938775510205 274.63324550916457 320 273.79905168196836 326.53061224489795 272.04436653062544 333.0612244897959 270.1435967166885 339.5918367346939 268.24946496624443 346.12244897959187 268.72859365482304 352.65306122448976 266.93230395786236 359.1836734693877 266.1732455126474 365.71428571428567 266.7001299011921 372.2448979591837 268.27539341507605 378.7755102040816 269.77298867822157 385.3061224489796 270.1456613051714 391.8367346938776 271.6310044024154 398.36734693877554 270.87586897329777 404.8979591836735 271.21136958523016 411.42857142857144 272.69783329174084 417.95918367346934 274.095817221102 424.48979591836735 275.46913717345404 431.0204081632653 275.70895556087106 437.55102040816325 272.9524621037442 444.0816326530612 274.36093231978487 450.61224489795916 275.7097868626509 457.14285714285717 277.06168408675705 463.6734693877551 276.4936048541652 470.2040816326531 276.6994631191877 476.7346938775511 278.02118095681584 483.2653061224489 279.09847958980845 489.7959183673469 280.34698565870326 496.3265306122449 279.26736011231867 502.85714285714283 280.4775045797608 509.38775510204084 281.61130705284154 515.9183673469388 281.52745699694384 522.4489795918367 282.68515970445003 528.9795918367347 283.7824158891089 535.5102040816327 284.88795786238455 542.0408163265306 282.61006285432967 548.5714285714286 282.84178093009564 555.1020408163265 283.97602050860644 561.6326530612245 285.0406896306149 568.1632653061224 286.1077853967465 574.6938775510204 287.1094609782512 581.2244897959183 288.1134058397591 587.7551020408164 289.0867397579468 594.2857142857143 289.94030252410215 600.8163265306123 290.8578625497748 607.3469387755102 291.719144398487 613.8775510204082 290.3472254851477 620.4081632653061 291.22360371623 626.9387755102041 292.1019837997606 633.469387755102 292.9535430653315 640 293.2370221735459 640 320 0 320"
      />
      
      <polygon
        fill="#244776"
        fillRule="evenodd"
        points="0 319.9256742392049 6.530612244897958 319.85646895171715 13.061224489795917 319.82723284574433 19.591836734693878 318.6603025795652 26.122448979591834 318.6387619335498 32.6530612244898 318.51536226186414 39.183673469387756 318.3740194842001 45.71428571428571 316.61217953142165 52.24489795918367 316.6934172299018 58.775510204081634 313.13944152027113 65.3061224489796 312.1963583084671 71.83673469387755 310.8820277889359 78.36734693877551 310.86396194613667 84.89795918367348 310.00353280236857 91.42857142857142 308.66170123059794 97.9591836734694 305.87144351623186 104.48979591836734 303.7931557339926 111.0204081632653 303.02444003306704 117.55102040816327 303.3152885168889 124.08163265306122 302.490180851849 130.6122448979592 302.91323372252555 137.14285714285714 300.9756880730274 143.6734693877551 301.5563835205426 150.20408163265307 299.63115458551937 156.73469387755102 295.82118904663207 163.26530612244898 294.0784380551739 169.79591836734696 290.71613084691955 176.32653061224488 287.71237366043374 182.85714285714283 287.3468179812193 189.3877551020408 286.1158245300777 195.9183673469388 284.9373107850487 202.44897959183675 282.37652011513467 208.97959183673467 277.9438429909138 215.51020408163265 278.07964334570573 222.0408163265306 276.0327964316946 228.57142857142858 276.2116685328909 235.10204081632654 274.14900759858193 241.63265306122446 270.3047007904072 248.16326530612244 268.08694826312916 254.69387755102042 269.6660559517855 261.2244897959184 271.1481758640026 267.7551020408163 270.412517663786 274.2857142857143 270.8101832168103 280.81632653061223 272.1628896305457 287.3469387755102 273.56149731367117 293.8775510204082 274.92285663731883 300.40816326530614 276.2932882208273 306.9387755102041 276.4643373883952 313.46938775510205 274.63324550916457 320 273.79905168196836 326.53061224489795 272.04436653062544 333.0612244897959 270.1435967166885 339.5918367346939 268.24946496624443 346.12244897959187 268.72859365482304 352.65306122448976 266.93230395786236 359.1836734693877 266.1732455126474 365.71428571428567 266.7001299011921 372.2448979591837 268.27539341507605 378.7755102040816 269.77298867822157 385.3061224489796 270.1456613051714 391.8367346938776 271.6310044024154 398.36734693877554 270.87586897329777 404.8979591836735 271.21136958523016 411.42857142857144 272.69783329174084 417.95918367346934 274.095817221102 424.48979591836735 275.46913717345404 431.0204081632653 275.70895556087106 437.55102040816325 272.9524621037442 444.0816326530612 274.36093231978487 450.61224489795916 275.7097868626509 457.14285714285717 277.06168408675705 463.6734693877551 276.4936048541652 470.2040816326531 276.6994631191877 476.7346938775511 278.02118095681584 483.2653061224489 279.09847958980845 489.7959183673469 280.34698565870326 496.3265306122449 279.26736011231867 502.85714285714283 280.4775045797608 509.38775510204084 281.61130705284154 515.9183673469388 281.52745699694384 522.4489795918367 282.68515970445003 528.9795918367347 283.7824158891089 535.5102040816327 284.88795786238455 542.0408163265306 282.61006285432967 548.5714285714286 282.84178093009564 555.1020408163265 283.97602050860644 561.6326530612245 285.0406896306149 568.1632653061224 286.1077853967465 574.6938775510204 287.1094609782512 581.2244897959183 288.1134058397591 587.7551020408164 289.0867397579468 594.2857142857143 289.94030252410215 600.8163265306123 290.8578625497748 607.3469387755102 291.719144398487 613.8775510204082 290.4027867126162 620.4081632653061 291.27752285963913 626.9387755102041 292.1542570942907 633.469387755102 293.004220748309 640 293.287168690197 640 320 0 320"
      />
      
      <polygon
        fill="#563d7c"
        fillRule="evenodd"
        points="0 319.9256742392049 6.530612244897958 319.85646895171715 13.061224489795917 319.82723284574433 19.591836734693878 318.6603025795652 26.122448979591834 318.6387619335498 32.6530612244898 318.51536226186414 39.183673469387756 318.3740194842001 45.71428571428571 316.61217953142165 52.24489795918367 316.6934172299018 58.775510204081634 314.24960197377027 65.3061224489796 313.27263178845647 71.83673469387755 311.9264925498651 78.36734693877551 311.87654503434896 84.89795918367348 310.985207378543 91.42857142857142 309.6143629595392 97.9591836734694 306.79502571213277 104.48979591836734 305.7914197871485 111.0204081632653 304.9617082531667 117.55102040816327 305.1934225579479 124.08163265306122 304.3146311740313 130.6122448979592 304.6819938947704 137.14285714285714 303.81183319558875 143.6734693877551 304.3059572103103 150.20408163265307 302.29946591641584 156.73469387755102 298.4080517299539 163.26530612244898 296.5863383720897 169.79591836734696 293.14991127620425 176.32653061224488 290.0718644563961 182.85714285714283 289.6365753565957 189.3877551020408 288.3356881923267 195.9183673469388 287.089414371748 202.44897959183675 284.4692006879639 208.97959183673467 279.97264575299465 215.51020408163265 280.0484860111513 222.0408163265306 277.9415411078187 228.57142857142858 278.06400143438657 235.10204081632654 275.94479884739 241.63265306122446 273.1750634384691 248.16326530612244 271.6223056858269 254.69387755102042 273.09349888705685 261.2244897959184 274.47432244152446 267.7551020408163 273.6371355621251 274.2857142857143 273.9363713223477 280.81632653061223 275.20275866129043 287.3469387755102 276.50857597202423 293.8775510204082 277.7828360277597 300.40816326530614 279.06596849143745 306.9387755102041 279.1550726183106 313.46938775510205 277.2418474574008 320 276.3280274882748 326.53061224489795 274.49859997993184 333.0612244897959 272.52291621377424 339.5918367346939 270.55846494745197 346.12244897959187 270.96711259459147 352.65306122448976 269.10249347530436 359.1836734693877 268.28351243779883 365.71428571428567 268.7459820355815 372.2448979591837 270.2607814560897 378.7755102040816 271.6977740139118 385.3061224489796 272.0135607702166 391.8367346938776 273.44188719399176 398.36734693877554 272.63147549849856 404.8979591836735 272.9150902368083 411.42857142857144 274.3495487750548 417.95918367346934 275.6987171522216 424.48979591836735 277.02310945035185 431.0204081632653 277.2154937812274 437.55102040816325 275.39026690333316 444.0816326530612 276.72432449235146 450.61224489795916 278.0033302245521 457.14285714285717 279.2852180371965 463.6734693877551 278.65142358922515 470.2040816326531 278.7914157994766 476.7346938775511 280.0492780207082 483.2653061224489 281.0666371073914 489.7959183673469 282.2550663538004 496.3265306122449 281.1190485555968 502.85714285714283 282.27267130416743 509.38775510204084 283.3516772582287 515.9183673469388 283.2197727314531 522.4489795918367 284.3258184959661 528.9795918367347 285.37458598136266 535.5102040816327 286.43152787261005 542.0408163265306 284.108013401783 548.5714285714286 284.2940075163701 555.1020408163265 285.383918706328 561.6326530612245 286.40697814513726 568.1632653061224 287.43236866905465 574.6938775510204 288.39489690739913 581.2244897959183 289.35960456944724 587.7551020408164 290.2948990639153 594.2857142857143 291.11510258892775 600.8163265306123 291.9968023988058 607.3469387755102 292.8244234817197 613.8775510204082 291.474327863577 620.4081632653061 292.31739513650695 626.9387755102041 293.16238790303953 633.469387755102 293.98157893404937 640 294.2542829495254 640 320 0 320"
      />
      
      <polygon
        fill="#178600"
        fillRule="evenodd"
        points="0 320 6.530612244897958 320 13.061224489795917 320 19.591836734693878 320 26.122448979591834 320 32.6530612244898 320 39.183673469387756 320 45.71428571428571 320 52.24489795918367 320 58.775510204081634 318.7303282257843 65.3061224489796 318.7690843010161 71.83673469387755 318.80546340226226 78.36734693877551 318.8419258967306 84.89795918367348 318.87727538555276 91.42857142857142 318.91045696912903 97.9591836734694 318.9437145580853 104.48979591836734 318.9749326196809 111.0204081632653 319.00622219641036 117.55102040816327 319.03655666592215 124.08163265306122 319.064095273882 130.6122448979592 319.0926632682123 137.14285714285714 319.11947908011257 143.6734693877551 319.1463565018897 150.20408163265307 319.17158549983196 156.73469387755102 319.18567750557816 163.26530612244898 319.2105342240931 169.79591836734696 319.2338664783385 176.32653061224488 319.25725222508197 182.85714285714283 319.2792037645869 189.3877551020408 318.19414023208594 195.9183673469388 318.2492630594538 202.44897959183675 318.297603714169 208.97959183673467 316.13887336665596 215.51020408163265 316.24748420187257 222.0408163265306 316.3620274640446 228.57142857142858 316.4695456487128 235.10204081632654 316.5773109715993 241.63265306122446 316.2415592346854 248.16326530612244 315.63817721388676 254.69387755102042 315.77131917853126 261.2244897959184 315.89629588221993 267.7551020408163 316.0215588519472 274.2857142857143 316.1429983308051 280.81632653061223 316.24949651032665 287.3469387755102 316.3639785530781 293.8775510204082 316.4714394023373 300.40816326530614 316.5791466602781 306.9387755102041 316.6802480673618 313.46938775510205 315.97581053863223 320 316.0986466176324 326.53061224489795 314.31084276671027 333.0612244897959 314.48450113722066 339.5918367346939 313.5209093064885 346.12244897959187 313.7186797852835 352.65306122448976 313.9104136058705 359.1836734693877 312.9761216076714 365.71428571428567 313.19052102993436 372.2448979591837 313.39177136732565 378.7755102040816 313.5934838404438 385.3061224489796 313.7828254695289 391.8367346938776 313.97260122424683 398.36734693877554 314.1565838318425 404.8979591836735 314.3292833241504 411.42857142857144 314.50237827665313 417.95918367346934 314.66485781450416 424.48979591836735 314.8277097345341 431.0204081632653 314.9855910958835 437.55102040816325 313.2129011259338 444.0816326530612 313.42007337878886 450.61224489795916 313.6145397761994 457.14285714285717 313.8094520129285 463.6734693877551 313.1987242781675 470.2040816326531 313.4063291153809 476.7346938775511 313.60759736238117 483.2653061224489 313.7965214396712 489.7959183673469 313.9858791288359 496.3265306122449 314.1636231096215 502.85714285714283 314.34177532262936 509.38775510204084 314.51448930291696 515.9183673469388 314.66595321879623 522.4489795918367 314.8287719089493 528.9795918367347 314.9816047847827 535.5102040816327 315.1347885574293 542.0408163265306 315.2785770293685 548.5714285714286 315.4226957450435 555.1020408163265 315.56241535522304 561.6326530612245 315.69356599329615 568.1632653061224 315.8250173442869 574.6938775510204 315.94840693603777 581.2244897959183 316.0720791564196 587.7551020408164 316.1919767957074 594.2857142857143 316.297122486361 600.8163265306123 316.41015071686303 607.3469387755102 316.51624677788425 613.8775510204082 316.62258665824606 620.4081632653061 316.72240413234863 626.9387755102041 316.8224506706579 633.469387755102 316.9194436566047 640 316.9517314654106 640 320 0 320"
      />
      
      <polygon
        fill="#555555"
        fillRule="evenodd"
        points="0 320 6.530612244897958 320 13.061224489795917 320 19.591836734693878 320 26.122448979591834 320 32.6530612244898 320 39.183673469387756 320 45.71428571428571 320 52.24489795918367 320 58.775510204081634 318.7303282257843 65.3061224489796 318.7690843010161 71.83673469387755 318.80546340226226 78.36734693877551 318.8419258967306 84.89795918367348 318.87727538555276 91.42857142857142 318.91045696912903 97.9591836734694 318.9437145580853 104.48979591836734 318.9749326196809 111.0204081632653 319.00622219641036 117.55102040816327 319.03655666592215 124.08163265306122 319.064095273882 130.6122448979592 319.0926632682123 137.14285714285714 319.11947908011257 143.6734693877551 319.1463565018897 150.20408163265307 319.17158549983196 156.73469387755102 319.18567750557816 163.26530612244898 319.2105342240931 169.79591836734696 319.2338664783385 176.32653061224488 319.25725222508197 182.85714285714283 319.2792037645869 189.3877551020408 318.19414023208594 195.9183673469388 318.2492630594538 202.44897959183675 318.297603714169 208.97959183673467 317.2428483775883 215.51020408163265 317.31883176876426 222.0408163265306 317.4006727837097 228.57142857142858 317.4774944329508 235.10204081632654 317.5544926300409 241.63265306122446 317.1889129172205 248.16326530612244 316.55753241327085 254.69387755102042 316.6626115722446 261.2244897959184 316.76124656004947 267.7551020408163 316.8601074986867 274.2857142857143 316.9559507247297 280.81632653061223 317.04000196831714 287.3469387755102 317.13035425005415 293.8775510204082 317.21516529056277 300.40816326530614 317.30017073715356 306.9387755102041 317.3799627202127 313.46938775510205 317.4599379094265 320 317.5374718226851 326.53061224489795 316.5057086016321 333.0612244897959 316.6123699301903 339.5918367346939 315.58588999240084 346.12244897959187 315.720628203603 352.65306122448976 315.8512536780999 359.1836734693877 314.86337177326163 365.71428571428567 315.02016411119513 372.2448979591837 315.16734037627094 378.7755102040816 315.3148546531058 385.3061224489796 315.45332199835633 391.8367346938776 315.59210674338914 398.36734693877554 315.72665482297685 404.8979591836735 315.8529517823475 411.42857142857144 315.9795376484735 417.95918367346934 316.09836048517093 424.48979591836735 316.21745552120893 431.0204081632653 316.3329157697443 437.55102040816325 315.58525334330716 444.0816326530612 315.72001087181553 450.61224489795916 315.8465037785428 457.14285714285717 315.9732866503673 463.6734693877551 316.0922944091716 470.2040816326531 316.21157476804774 476.7346938775511 316.32721443120266 483.2653061224489 316.4357614576576 489.7959183673469 316.5445578623163 496.3265306122449 316.6466815761831 502.85714285714283 316.749039872019 509.38775510204084 316.84827349081485 515.9183673469388 316.9352977500379 522.4489795918367 317.0288459156939 528.9795918367347 317.1166569441407 535.5102040816327 317.20466926302885 542.0408163265306 317.287283730587 548.5714285714286 317.3700878776524 555.1020408163265 317.4503644373942 561.6326530612245 317.5257176528291 568.1632653061224 317.6012436554034 574.6938775510204 317.6721376453646 581.2244897959183 317.743194250054 587.7551020408164 317.81208197335695 594.2857142857143 317.872493920281 600.8163265306123 317.9374347993838 607.3469387755102 317.9983927890151 613.8775510204082 318.05949092159324 620.4081632653061 318.11684155840686 626.9387755102041 318.1743237481312 633.469387755102 318.23005157709105 640 318.24860262335795 640 320 0 320"
      />
      
      <polygon
        fill="#C1F12E"
        fillRule="evenodd"
        points="0 320 6.530612244897958 320 13.061224489795917 320 19.591836734693878 320 26.122448979591834 320 32.6530612244898 320 39.183673469387756 320 45.71428571428571 320 52.24489795918367 320 58.775510204081634 319.00777427004266 65.3061224489796 319.0380614429796 71.83673469387755 319.0664910719661 78.36734693877551 319.0949858454855 84.89795918367348 319.1226108264647 91.42857142857142 319.1485416385839 97.9591836734694 319.17453184114464 104.48979591836734 319.198928211811 111.0204081632653 319.22338044853814 117.55102040816327 319.2470863077068 124.08163265306122 319.2686072254094 130.6122448979592 319.2909326164415 137.14285714285714 319.31188867761364 143.6734693877551 319.3328929087495 150.20408163265307 319.35260891188614 156.73469387755102 319.36117528437643 163.26530612244898 319.3806750364345 169.79591836734696 319.39897887255705 176.32653061224488 319.41732466216973 182.85714285714283 319.43454535226954 189.3877551020408 319.4408446025408 195.9183673469388 319.457912490693 202.44897959183675 319.47288044380184 208.97959183673467 319.48621061814464 215.51020408163265 319.5013953566405 222.0408163265306 319.51661498958964 228.57142857142858 319.5309011753645 235.10204081632654 319.5452201594593 241.63265306122446 319.3091071910147 248.16326530612244 318.61506555835643 254.69387755102042 318.65733973634093 261.2244897959184 318.69702149072384 267.7551020408163 318.7367940775469 274.2857142857143 318.7753525511209 280.81632653061223 318.8091671874838 287.3469387755102 318.84551670653593 293.8775510204082 318.8796368748679 300.40816326530614 318.91383523718963 306.9387755102041 318.94593628463457 313.46938775510205 318.9781110049975 320 319.00930362528976 326.53061224489795 319.0385830102488 333.0612244897959 319.0679298002764 339.5918367346939 319.09547669001756 346.12244897959187 319.123086669259 352.65306122448976 319.14985398239037 359.1836734693877 319.1733279003068 365.71428571428567 319.19856157344816 372.2448979591837 319.2222476426531 378.7755102040816 319.2459881291208 385.3061224489796 319.26827256335355 391.8367346938776 319.29060806514593 398.36734693877554 319.31226190235594 404.8979591836735 319.3325876131092 411.42857142857144 319.3529599422766 417.95918367346934 319.37208287328536 424.48979591836735 319.391249689515 431.0204081632653 319.40983148934447 437.55102040816325 318.5742201417743 444.0816326530612 318.6177411080259 450.61224489795916 318.6585931007123 457.14285714285717 318.69953890563613 463.6734693877551 318.73797325524214 470.2040816326531 318.77649586849753 476.7346938775511 318.8138426948615 483.2653061224489 318.84889887915847 489.7959183673469 318.8840357234843 496.3265306122449 318.91701735239036 502.85714285714283 318.95007481199866 509.38775510204084 318.9821232506095 515.9183673469388 319.0102282871998 522.4489795918367 319.0404405541991 528.9795918367347 319.0687999010714 535.5102040816327 319.09722418697316 542.0408163265306 319.12390518873616 548.5714285714286 319.15064753322173 555.1020408163265 319.1765735160143 561.6326530612245 319.2009095200986 568.1632653061224 319.22530127721683 574.6938775510204 319.2481971041929 581.2244897959183 319.2711454989024 587.7551020408164 319.2933933330049 594.2857142857143 319.3129038637089 600.8163265306123 319.33387701247693 607.3469387755102 319.3535639882784 613.8775510204082 319.37329606176985 620.4081632653061 319.39181798822506 626.9387755102041 319.41038238192857 633.469387755102 319.4283801209481 640 319.43437142458697 640 320 0 320"
      />
      

      
        <g id="labels">
        
          
          <text x="0" y="330">
            Jul 2014
          </text>
          
        
          
        
          
        
          
        
          
        
          
        
          
        
          
        
          
        
          
        
          
        
          
        
          
        
          
          <text x="84.04040404040404" y="330">
            Aug 2015
          </text>
          
        
          
        
          
        
          
        
          
        
          
        
          
        
          
        
          
        
          
        
          
        
          
        
          
        
          
          <text x="168.08080808080808" y="330">
            Sep 2016
          </text>
          
        
          
        
          
        
          
        
          
        
          
        
          
        
          
        
          
        
          
        
          
        
          
        
          
        
          
          <text x="252.12121212121212" y="330">
            Oct 2017
          </text>
          
        
          
        
          
        
          
        
          
        
          
        
          
        
          
        
          
        
          
        
          
        
          
        
          
        
          
          <text x="336.16161616161617" y="330">
            Nov 2018
          </text>
          
        
          
        
          
        
          
        
          
        
          
        
          
        
          
        
          
        
          
        
          
        
          
        
          
        
          
          <text x="420.2020202020202" y="330">
            Dec 2019
          </text>
          
        
          
        
          
        
          
        
          
        
          
        
          
        
          
        
          
        
          
        
          
        
          
        
          
        
          
          <text x="504.24242424242425" y="330">
            Jan 2021
          </text>
          
        
          
        
          
        
          
        
          
        
          
        
          
        
          
        
          
        
          
        
          
        
          
        
          
        
          
          <text x="588.2828282828283" y="330">
            Feb 2022
          </text>
          
        
          
        
          
        
          
        
          
        
          
        
          
        
          
        
        </g>
      

      
        <text text-anchor="middle" y="370" x="320" id="legend">
          
          <tspan xml:space="preserve" fill="#C1F12E">   </tspan> Batchfile
          
          <tspan xml:space="preserve" fill="#555555">   </tspan> C
          
          <tspan xml:space="preserve" fill="#178600">   </tspan> C#
          
          <tspan xml:space="preserve" fill="#563d7c">   </tspan> CSS
          
          <tspan xml:space="preserve" fill="#244776">   </tspan> CoffeeScript
          
          <tspan xml:space="preserve" fill="#00ADD8">   </tspan> Go
          
          <tspan xml:space="preserve" fill="#e34c26">   </tspan> HTML
          
          <tspan xml:space="preserve" fill="#22e4e8">   </tspan> JSON
          
        </text>
      
        <text text-anchor="middle" y="400" x="320" id="legend">
          
          <tspan xml:space="preserve" fill="#22e8e8">   </tspan> JSon
          
          <tspan xml:space="preserve" fill="#f1e05a">   </tspan> JavaScript
          
          <tspan xml:space="preserve" fill="#2415b9">   </tspan> Less
          
          <tspan xml:space="preserve" fill="#755462">   </tspan> MySQL
          
          <tspan xml:space="preserve" fill="#4F5D95">   </tspan> PHP
          
          <tspan xml:space="preserve" fill="#fd2fdb">   </tspan> PLpgSQL
          
          <tspan xml:space="preserve" fill="#0298c3">   </tspan> Perl
          
          <tspan xml:space="preserve" fill="#3572A5">   </tspan> Python
          
        </text>
      
        <text text-anchor="middle" y="430" x="320" id="legend">
          
          <tspan xml:space="preserve" fill="#701516">   </tspan> Ruby
          
          <tspan xml:space="preserve" fill="#dea584">   </tspan> Rust
          
          <tspan xml:space="preserve" fill="#26c0b0">   </tspan> SCSS
          
          <tspan xml:space="preserve" fill="#0141ae">   </tspan> SQL
          
          <tspan xml:space="preserve" fill="#89e051">   </tspan> Shell
          
          <tspan xml:space="preserve" fill="#2770da">   </tspan> TSQL
          
          <tspan xml:space="preserve" fill="#2b7489">   </tspan> TypeScript
          
          <tspan xml:space="preserve" fill="#2c3e50">   </tspan> Vue
          
        </text>
      
        <text text-anchor="middle" y="460" x="320" id="legend">
          
          <tspan xml:space="preserve" fill="#4B6C4B">   </tspan> Yacc
          
        </text>
      

    </svg>