<svg
      xmlns="http://www.w3.org/2000/svg"
      viewBox="0 0 640 490"
      style="background-color: #292b3e"
    >
      <style>
        text {
          font-size: 12px;
          font-family: Open Sans, Helvetica Neue, Helvetica, Arial, sans-serif;
        }
        #labels text {
          dominant-baseline: hanging;
          font-size: 10px;
          fill: rgba(0,0,0,0.5);
        }
        #legend {
          font-weight: 600;
        }
        #legend tspan {
          font-size: 15px;
        }
        #branding-text {
          font-size: 9px;
          dominant-baseline: hanging;
          opacity: 0.5;
        }
        #branding-logo {
          opacity: 0.5;
        }
      </style>

      
      
      <polygon
        fill="#4B6C4B"
        fillRule="evenodd"
        points="0 313.6135496527109 6.530612244897958 304.269114942478 13.061224489795917 297.26804853216333 19.591836734693878 285.9388208220942 26.122448979591834 278.8280003400507 32.6530612244898 274.9842088062399 39.183673469387756 267.0907410612161 45.71428571428571 257.0788008050341 52.24489795918367 246.22215911658793 58.775510204081634 230.99231342848526 65.3061224489796 221.54622227376035 71.83673469387755 206.6281144152603 78.36734693877551 198.2773301578408 84.89795918367348 192.17034655837466 91.42857142857142 182.12953156614265 97.9591836734694 170.61727196770642 104.48979591836734 156.95189759974485 111.0204081632653 154.80419349362927 117.55102040816327 149.88795986362226 124.08163265306122 142.52570178797401 130.6122448979592 138.28610058456874 137.14285714285714 123.78696078894521 143.6734693877551 127.17485081119574 150.20408163265307 110.77252983557787 156.73469387755102 93.05726084059583 163.26530612244898 88.01884662845734 169.79591836734696 78.10625460893479 176.32653061224488 68.78368792463763 182.85714285714283 65.97376901478515 189.3877551020408 62.13345821156565 195.9183673469388 59.18918017758239 202.44897959183675 46.68388273861922 208.97959183673467 33.29412213555776 215.51020408163265 31.64643631502065 222.0408163265306 27.414608949008823 228.57142857142858 27.528963615121256 235.10204081632654 25.251165246595463 241.63265306122446 13.936233613485172 248.16326530612244 9.64312877996639 254.69387755102042 9.88390814849106 261.2244897959184 12.93788689015497 267.7551020408163 8.247049265011071 274.2857142857143 10.710246936446765 280.81632653061223 10.159099499470926 287.3469387755102 11.455566807033392 293.8775510204082 14.195631220124142 300.40816326530614 17.693095135046747 306.9387755102041 18.068059062993427 313.46938775510205 12.038799472788412 320 13.322656255174024 326.53061224489795 11.292801245325848 333.0612244897959 7.029470423980911 339.5918367346939 1.9717181647978919 346.12244897959187 4.695585968121236 352.65306122448976 0.0666106382220164 359.1836734693877 0 365.71428571428567 3.1341219697467864 372.2448979591837 11.121785300701617 378.7755102040816 13.499782103834661 385.3061224489796 18.048071067837668 391.8367346938776 21.31467267140863 398.36734693877554 21.56858624793398 404.8979591836735 27.066571518992134 411.42857142857144 30.680980438809854 417.95918367346934 36.747954799085164 424.48979591836735 42.80373172311977 431.0204081632653 46.96037452321218 437.55102040816325 38.51488406036373 444.0816326530612 42.63113162508421 450.61224489795916 50.61542485944102 457.14285714285717 58.069001946463516 463.6734693877551 55.542214814318754 470.2040816326531 58.40783333917307 476.7346938775511 64.84930013560717 483.2653061224489 68.96515953649845 489.7959183673469 76.4057630269715 496.3265306122449 74.3194269434589 502.85714285714283 74.99074111846838 509.38775510204084 75.0519725626049 515.9183673469388 74.49041225577326 522.4489795918367 78.43678633730931 528.9795918367347 85.33609252904148 535.5102040816327 88.56512174185056 542.0408163265306 82.0255256348619 548.5714285714286 83.08744733503417 555.1020408163265 90.2941465782487 561.6326530612245 88.15317392568824 568.1632653061224 86.74190358262558 574.6938775510204 87.76618942668279 581.2244897959183 85.90004343210364 587.7551020408164 86.43108477944452 594.2857142857143 86.6813187724498 600.8163265306123 89.2712885571948 607.3469387755102 85.21667364866144 613.8775510204082 69.72120395401322 620.4081632653061 69.36932385312235 626.9387755102041 67.00830870722498 633.469387755102 64.1005279219246 640 61.83153225560159 640 320 0 320"
      />
      
      <polygon
        fill="#2c3e50"
        fillRule="evenodd"
        points="0 313.6135496527109 6.530612244897958 304.269114942478 13.061224489795917 297.26804853216333 19.591836734693878 285.9388208220942 26.122448979591834 278.8280003400507 32.6530612244898 274.9842088062399 39.183673469387756 267.0907410612161 45.71428571428571 257.0788008050341 52.24489795918367 246.22215911658793 58.775510204081634 230.99231342848526 65.3061224489796 221.54622227376035 71.83673469387755 206.6281144152603 78.36734693877551 198.2773301578408 84.89795918367348 192.17034655837466 91.42857142857142 182.12953156614265 97.9591836734694 170.61727196770642 104.48979591836734 156.95189759974485 111.0204081632653 154.80419349362927 117.55102040816327 149.88795986362226 124.08163265306122 142.52570178797401 130.6122448979592 138.28610058456874 137.14285714285714 123.78696078894521 143.6734693877551 127.17485081119574 150.20408163265307 110.77252983557787 156.73469387755102 93.05726084059583 163.26530612244898 88.01884662845734 169.79591836734696 78.10625460893479 176.32653061224488 68.78368792463763 182.85714285714283 65.97376901478515 189.3877551020408 62.13345821156565 195.9183673469388 59.18918017758239 202.44897959183675 46.68388273861922 208.97959183673467 33.29412213555776 215.51020408163265 31.64643631502065 222.0408163265306 27.414608949008823 228.57142857142858 27.528963615121256 235.10204081632654 25.251165246595463 241.63265306122446 13.936233613485172 248.16326530612244 9.64312877996639 254.69387755102042 9.88390814849106 261.2244897959184 12.93788689015497 267.7551020408163 8.247049265011071 274.2857142857143 10.710246936446765 280.81632653061223 10.159099499470926 287.3469387755102 11.455566807033392 293.8775510204082 14.195631220124142 300.40816326530614 17.693095135046747 306.9387755102041 18.068059062993427 313.46938775510205 12.038799472788412 320 13.322656255174024 326.53061224489795 11.292801245325848 333.0612244897959 7.029470423980911 339.5918367346939 1.9717181647978919 346.12244897959187 4.695585968121236 352.65306122448976 0.0666106382220164 359.1836734693877 0 365.71428571428567 3.1341219697467864 372.2448979591837 11.121785300701617 378.7755102040816 13.499782103834661 385.3061224489796 18.048071067837668 391.8367346938776 21.31467267140863 398.36734693877554 21.56858624793398 404.8979591836735 27.066571518992134 411.42857142857144 30.680980438809854 417.95918367346934 36.747954799085164 424.48979591836735 42.80373172311977 431.0204081632653 46.96037452321218 437.55102040816325 38.51488406036373 444.0816326530612 42.63113162508421 450.61224489795916 50.61542485944102 457.14285714285717 58.069001946463516 463.6734693877551 56.64280178801374 470.2040816326531 59.47482557150141 476.7346938775511 65.8837229848767 483.2653061224489 69.96901059674283 489.7959183673469 77.37897211884166 496.3265306122449 75.26387329113479 502.85714285714283 75.90635885816857 509.38775510204084 75.9396415563586 515.9183673469388 75.35357118893268 522.4489795918367 79.27359790835101 528.9795918367347 86.14817258922079 535.5102040816327 89.35241351062831 542.0408163265306 82.7895494044968 548.5714285714286 83.82814974661568 555.1020408163265 91.01223948464988 561.6326530612245 88.85004397014984 568.1632653061224 87.41750206088494 574.6938775510204 88.42182093482069 581.2244897959183 86.53566217372801 587.7551020408164 87.04730163342202 594.2857142857143 87.2805208436142 600.8163265306123 89.85220036927117 607.3469387755102 85.7804168998664 613.8775510204082 70.26773930075566 620.4081632653061 69.89970659552895 626.9387755102041 67.52250183416612 633.469387755102 64.59902560698939 640 62.31795883574961 640 320 0 320"
      />
      
      <polygon
        fill="#2b7489"
        fillRule="evenodd"
        points="0 313.6135496527109 6.530612244897958 304.269114942478 13.061224489795917 297.26804853216333 19.591836734693878 285.9388208220942 26.122448979591834 278.8280003400507 32.6530612244898 274.9842088062399 39.183673469387756 267.0907410612161 45.71428571428571 257.0788008050341 52.24489795918367 246.22215911658793 58.775510204081634 230.99231342848526 65.3061224489796 221.54622227376035 71.83673469387755 206.6281144152603 78.36734693877551 198.2773301578408 84.89795918367348 192.17034655837466 91.42857142857142 182.12953156614265 97.9591836734694 170.61727196770642 104.48979591836734 156.95189759974485 111.0204081632653 154.80419349362927 117.55102040816327 149.88795986362226 124.08163265306122 142.52570178797401 130.6122448979592 138.28610058456874 137.14285714285714 123.78696078894521 143.6734693877551 127.17485081119574 150.20408163265307 110.77252983557787 156.73469387755102 93.05726084059583 163.26530612244898 88.01884662845734 169.79591836734696 78.10625460893479 176.32653061224488 68.78368792463763 182.85714285714283 65.97376901478515 189.3877551020408 62.13345821156565 195.9183673469388 59.18918017758239 202.44897959183675 46.68388273861922 208.97959183673467 33.29412213555776 215.51020408163265 31.64643631502065 222.0408163265306 27.414608949008823 228.57142857142858 27.528963615121256 235.10204081632654 25.251165246595463 241.63265306122446 13.936233613485172 248.16326530612244 9.64312877996639 254.69387755102042 9.88390814849106 261.2244897959184 12.93788689015497 267.7551020408163 8.247049265011071 274.2857142857143 10.710246936446765 280.81632653061223 10.159099499470926 287.3469387755102 11.455566807033392 293.8775510204082 14.195631220124142 300.40816326530614 17.693095135046747 306.9387755102041 18.068059062993427 313.46938775510205 12.038799472788412 320 13.322656255174024 326.53061224489795 11.292801245325848 333.0612244897959 7.029470423980911 339.5918367346939 1.9717181647978919 346.12244897959187 4.695585968121236 352.65306122448976 0.0666106382220164 359.1836734693877 0 365.71428571428567 3.1341219697467864 372.2448979591837 11.121785300701617 378.7755102040816 13.499782103834661 385.3061224489796 18.048071067837668 391.8367346938776 21.31467267140863 398.36734693877554 21.56858624793398 404.8979591836735 27.066571518992134 411.42857142857144 30.680980438809854 417.95918367346934 36.747954799085164 424.48979591836735 42.80373172311977 431.0204081632653 46.96037452321218 437.55102040816325 38.51488406036373 444.0816326530612 42.63113162508421 450.61224489795916 50.61542485944102 457.14285714285717 58.069001946463516 463.6734693877551 56.64280178801374 470.2040816326531 59.47482557150141 476.7346938775511 65.8837229848767 483.2653061224489 69.96901059674283 489.7959183673469 77.37897211884166 496.3265306122449 75.26387329113479 502.85714285714283 75.90635885816857 509.38775510204084 75.9396415563586 515.9183673469388 75.35357118893268 522.4489795918367 79.27359790835101 528.9795918367347 86.14817258922079 535.5102040816327 89.35241351062831 542.0408163265306 84.99965441900332 548.5714285714286 87.4974201904011 555.1020408163265 94.56950738639881 561.6326530612245 94.67090927138273 568.1632653061224 95.5789873678284 574.6938775510204 99.33782925197897 581.2244897959183 99.23024279079527 587.7551020408164 100.29080549325278 594.2857142857143 100.92497997767882 600.8163265306123 103.11100599873811 607.3469387755102 98.6473669376067 613.8775510204082 83.41154738428236 620.4081632653061 83.12844196657508 626.9387755102041 80.36993677253662 633.469387755102 77.05429824007985 640 74.47163083556785 640 320 0 320"
      />
      
      <polygon
        fill="#2770da"
        fillRule="evenodd"
        points="0 313.6135496527109 6.530612244897958 304.269114942478 13.061224489795917 297.26804853216333 19.591836734693878 285.9388208220942 26.122448979591834 278.8280003400507 32.6530612244898 274.9842088062399 39.183673469387756 267.0907410612161 45.71428571428571 257.0788008050341 52.24489795918367 246.22215911658793 58.775510204081634 230.99231342848526 65.3061224489796 221.54622227376035 71.83673469387755 206.6281144152603 78.36734693877551 198.2773301578408 84.89795918367348 192.17034655837466 91.42857142857142 182.12953156614265 97.9591836734694 170.61727196770642 104.48979591836734 156.95189759974485 111.0204081632653 154.80419349362927 117.55102040816327 149.88795986362226 124.08163265306122 142.52570178797401 130.6122448979592 138.28610058456874 137.14285714285714 123.78696078894521 143.6734693877551 127.17485081119574 150.20408163265307 110.77252983557787 156.73469387755102 93.05726084059583 163.26530612244898 88.01884662845734 169.79591836734696 78.10625460893479 176.32653061224488 68.78368792463763 182.85714285714283 65.97376901478515 189.3877551020408 62.13345821156565 195.9183673469388 59.18918017758239 202.44897959183675 46.68388273861922 208.97959183673467 33.29412213555776 215.51020408163265 31.64643631502065 222.0408163265306 27.414608949008823 228.57142857142858 27.528963615121256 235.10204081632654 25.251165246595463 241.63265306122446 14.574442620424861 248.16326530612244 11.080139112781296 254.69387755102042 11.277054538616653 261.2244897959184 14.289859580222185 267.7551020408163 9.557753723539633 274.2857142857143 11.980942795413284 280.81632653061223 11.394709485718636 287.3469387755102 12.653460479367823 293.8775510204082 15.35812182552229 300.40816326530614 18.820101396985876 306.9387755102041 19.161757260555476 313.46938775510205 13.099113158776106 320 14.350604520047114 326.53061224489795 12.290368941918416 333.0612244897959 7.996587989453644 339.5918367346939 2.91025300689563 346.12244897959187 5.605472634068917 352.65306122448976 0.9487235442136353 359.1836734693877 0.8577562535497805 365.71428571428567 3.9656956747598997 372.2448979591837 11.928782362077698 378.7755102040816 14.282146008188647 385.3061224489796 18.807312674830655 391.8367346938776 22.050738807082894 398.36734693877554 22.28218442904472 404.8979591836735 27.759079716544306 411.42857142857144 31.352350205419725 417.95918367346934 37.399482572355794 424.48979591836735 43.43537201491387 431.0204081632653 47.572734348936024 437.55102040816325 40.230425440665385 444.0816326530612 44.29430708629974 450.61224489795916 52.229446211369634 457.14285714285717 59.63375616233503 463.6734693877551 58.16131048439877 470.2040816326531 60.94698260598773 476.7346938775511 67.3109432471224 483.2653061224489 71.35405019316042 489.7959183673469 78.7217341546638 496.3265306122449 76.56695070321854 502.85714285714283 77.16966060858826 509.38775510204084 77.16438175812806 515.9183673469388 76.54449429485325 522.4489795918367 80.42816883072152 528.9795918367347 87.26862072970522 535.5102040816327 90.43866067525204 542.0408163265306 86.05379807636416 548.5714285714286 88.5193867703469 555.1020408163265 95.56027898880996 561.6326530612245 95.63239913122172 568.1632653061224 96.51112838829448 574.6938775510204 100.24242123025817 581.2244897959183 100.10722263739964 587.7551020408164 101.14101602825642 594.2857142857143 101.75171480116177 600.8163265306123 103.91250523251443 607.3469387755102 99.42517826751424 613.8775510204082 84.17671367988504 620.4081632653061 84.13467655589713 626.9387755102041 81.54079865428471 633.469387755102 78.21144802233707 640 75.60076025400701 640 320 0 320"
      />
      
      <polygon
        fill="#89e051"
        fillRule="evenodd"
        points="0 313.6135496527109 6.530612244897958 304.90984459024264 13.061224489795917 298.33447881594117 19.591836734693878 288.0768203058788 26.122448979591834 281.2713447257454 32.6530612244898 277.35297155293506 39.183673469387756 269.99993730171946 45.71428571428571 260.07171813191707 52.24489795918367 250.17320786696442 58.775510204081634 235.1815849003425 65.3061224489796 226.7874410873327 71.83673469387755 213.32789334838196 78.36734693877551 205.813699335038 84.89795918367348 200.42203544796791 91.42857142857142 190.45087988165017 97.9591836734694 178.6846172778531 104.48979591836734 164.78081807599554 111.0204081632653 162.3941394148749 117.55102040816327 158.35642074051316 124.08163265306122 150.82950115615304 130.6122448979592 146.47020768578497 137.14285714285714 132.58701693234482 143.6734693877551 135.7062917456474 150.20408163265307 119.05183116510085 156.73469387755102 102.43442817845158 163.26530612244898 97.17055063140299 169.79591836734696 87.08394732324462 176.32653061224488 77.5184008262174 182.85714285714283 74.59629503794162 189.3877551020408 71.29271507429425 195.9183673469388 68.12751388800334 202.44897959183675 55.43674568444101 208.97959183673467 42.60298585498214 215.51020408163265 40.81632447574265 222.0408163265306 36.30459556128113 228.57142857142858 36.657344030303534 235.10204081632654 34.265768393947894 241.63265306122446 23.33071856369662 248.16326530612244 19.7685675520147 254.69387755102042 20.331896243632457 261.2244897959184 23.771673266911364 267.7551020408163 19.358014169822923 274.2857142857143 21.657268360791534 280.81632653061223 22.197741381088804 287.3469387755102 24.033378337666818 293.8775510204082 26.401714760742948 300.40816326530614 29.526591373943518 306.9387755102041 29.79489553527526 313.46938775510205 23.469503238679465 320 24.701097778352676 326.53061224489795 22.404317720775623 333.0612244897959 17.801815448523712 339.5918367346939 12.431344523702478 346.12244897959187 14.8359343069136 352.65306122448976 10.202289430136034 359.1836734693877 9.855815364311297 365.71428571428567 12.717249154074693 372.2448979591837 20.455561969779808 378.7755102040816 22.802266900610732 385.3061224489796 27.111459343448644 391.8367346938776 30.808705425331766 398.36734693877554 30.772819103192376 404.8979591836735 35.99877852086456 411.42857142857144 39.340535264862694 417.95918367346934 45.23243296671774 424.48979591836735 51.02922763488806 431.0204081632653 55.06958217470179 437.55102040816325 47.53781522563867 444.0816326530612 51.378642136833264 450.61224489795916 59.10441047301333 457.14285714285717 66.29886567500984 463.6734693877551 64.91785865406547 470.2040816326531 67.49729144480543 476.7346938775511 73.66130772967469 483.2653061224489 78.6327255271957 489.7959183673469 85.77823173924355 496.3265306122449 83.41489488795932 502.85714285714283 83.84701914059107 509.38775510204084 83.63791706061963 515.9183673469388 82.83928464482665 522.4489795918367 87.04900267500904 528.9795918367347 93.6937774920558 535.5102040816327 96.66769338616578 542.0408163265306 92.09873689424157 548.5714285714286 94.3798063035261 555.1020408163265 101.24181341627602 561.6326530612245 101.14601913953308 568.1632653061224 101.8564474258975 574.6938775510204 105.429762545822 581.2244897959183 105.1362229012343 587.7551020408164 106.01650980632445 594.2857142857143 106.49258814748177 600.8163265306123 108.50866691155068 607.3469387755102 104.55191226567604 613.8775510204082 89.14695492226318 620.4081632653061 88.95802471432916 626.9387755102041 86.21691875852463 633.469387755102 82.74483124246973 640 80.02436910074789 640 320 0 320"
      />
      
      <polygon
        fill="#0141ae"
        fillRule="evenodd"
        points="0 313.6957877795737 6.530612244897958 304.98957245111046 13.061224489795917 298.41185035635743 19.591836734693878 288.1545927060103 26.122448979591834 281.34681860526047 32.6530612244898 277.42614163142855 39.183673469387756 270.07087390958526 45.71428571428571 260.16864885830853 52.24489795918367 250.6255630924067 58.775510204081634 236.5914309957469 65.3061224489796 228.16527902896746 71.83673469387755 215.5629299105836 78.36734693877551 209.34791183072355 84.89795918367348 203.8483680016798 91.42857142857142 193.80955769334247 97.9591836734694 182.1668765049149 104.48979591836734 169.20012820641557 111.0204081632653 166.6896567698654 117.55102040816327 162.5208198496022 124.08163265306122 154.87486643059077 130.6122448979592 151.50316604435605 137.14285714285714 138.33056390821983 143.6734693877551 141.27451930215034 150.20408163265307 124.45549287464002 156.73469387755102 107.98206020241437 163.26530612244898 102.61887486913793 169.79591836734696 92.52503825870107 176.32653061224488 83.01575813184374 182.85714285714283 79.93118221842465 189.3877551020408 76.46475842203145 195.9183673469388 73.61551185780601 202.44897959183675 61.01125609083772 208.97959183673467 50.21117224188595 215.51020408163265 49.306762894316876 222.0408163265306 44.535867706134184 228.57142857142858 46.726503896485724 235.10204081632654 45.53586749016 241.63265306122446 38.061848918275984 248.16326530612244 34.3798299343797 254.69387755102042 35.18789035366365 261.2244897959184 40.459144939134205 267.7551020408163 36.76708676030978 274.2857142857143 38.53493839915086 280.81632653061223 38.690124738095165 287.3469387755102 40.02234970839709 293.8775510204082 41.960219567572324 300.40816326530614 45.10750014163426 306.9387755102041 44.91809006734792 313.46938775510205 38.14225012893388 320 38.925963761985656 326.53061224489795 36.36871967786374 333.0612244897959 33.69974992105381 339.5918367346939 28.417197383094674 346.12244897959187 30.37282223020776 352.65306122448976 26.293863420193475 359.1836734693877 25.536690145038165 365.71428571428567 28.08379032212207 372.2448979591837 35.36795643807926 378.7755102040816 37.58870228130468 385.3061224489796 41.46089007535079 391.8367346938776 45.37439541400187 398.36734693877554 45.02194165919991 404.8979591836735 49.826778744308285 411.42857142857144 53.20072037484374 417.95918367346934 58.85797450201994 424.48979591836735 64.62544488845191 431.0204081632653 68.63074057922003 437.55102040816325 63.218473200470214 444.0816326530612 66.93870774060576 450.61224489795916 74.20461227750411 457.14285714285717 80.93814431112844 463.6734693877551 80.26639876770412 470.2040816326531 82.74323202166511 476.7346938775511 88.44187804851774 483.2653061224489 93.40759929682693 489.7959183673469 100.10210403588314 496.3265306122449 98.34479514791144 502.85714285714283 99.94038306368009 509.38775510204084 99.86320274719372 515.9183673469388 98.67434129764706 522.4489795918367 102.40068904292016 528.9795918367347 108.59176207468659 535.5102040816327 111.1109250345545 542.0408163265306 106.1151013675983 548.5714285714286 107.96833054411206 555.1020408163265 114.41554790597067 561.6326530612245 113.93041956198994 568.1632653061224 114.39431077491517 574.6938775510204 117.5970763630304 581.2244897959183 116.93214051337407 587.7551020408164 117.45236317461183 594.2857142857143 117.6429188377887 600.8163265306123 119.31864276066793 607.3469387755102 115.05068996746735 613.8775510204082 99.80064762887952 620.4081632653061 99.3838780578252 626.9387755102041 97.92045239886824 633.469387755102 95.72561937699251 640 94.21206468976709 640 320 0 320"
      />
      
      <polygon
        fill="#26c0b0"
        fillRule="evenodd"
        points="0 313.6957877795737 6.530612244897958 305.0750735652664 13.061224489795917 298.52242345910787 19.591836734693878 288.39203281985993 26.122448979591834 281.729667812941 32.6530612244898 277.8556702375404 39.183673469387756 270.5454025521035 45.71428571428571 260.80005499973566 52.24489795918367 251.72756187321153 58.775510204081634 237.79091546849432 65.3061224489796 230.20543606722242 71.83673469387755 218.2168216938445 78.36734693877551 212.42854810359515 84.89795918367348 207.47604644360598 91.42857142857142 198.30983054319407 97.9591836734694 186.52978226975398 104.48979591836734 173.80643660685644 111.0204081632653 171.15535884081496 117.55102040816327 166.8783113238998 124.08163265306122 159.35257194452248 130.6122448979592 156.04880917548735 137.14285714285714 143.1236949761815 143.6734693877551 145.92416761207386 150.20408163265307 128.9677225182432 156.73469387755102 112.62424073088735 163.26530612244898 107.34716586990976 169.79591836734696 97.39177164007529 176.32653061224488 88.07438363687993 182.85714285714283 84.90347130037335 189.3877551020408 81.47886052455073 195.9183673469388 78.54020680539807 202.44897959183675 65.83896173951098 208.97959183673467 55.257961891814546 215.51020408163265 54.27457251986419 222.0408163265306 49.445833827062756 228.57142857142858 52.03146980838119 235.10204081632654 50.756871260400885 241.63265306122446 43.287668348183445 248.16326530612244 39.62425213211918 254.69387755102042 40.272230065401914 261.2244897959184 46.01540265243119 267.7551020408163 42.226261876226886 274.2857142857143 45.29493080275665 280.81632653061223 46.22632334762113 287.3469387755102 47.342267483317244 293.8775510204082 49.12232463953757 300.40816326530614 52.19640250119494 306.9387755102041 51.84812302640512 313.46938775510205 44.899176424522295 320 45.54041775886037 326.53061224489795 42.902105737659156 333.0612244897959 40.52980145433355 339.5918367346939 35.11160446208936 346.12244897959187 37.186701687721666 352.65306122448976 32.91349918071825 359.1836734693877 31.973546719365743 365.71428571428567 34.32979729061435 372.2448979591837 41.4513099725574 378.7755102040816 43.65064001714677 385.3061224489796 47.722442848551 391.8367346938776 51.45038885071585 398.36734693877554 51.049308924394836 404.8979591836735 55.67601170979816 411.42857142857144 59.07772812780581 417.95918367346934 64.64966245631555 424.48979591836735 70.24034561663859 431.0204081632653 74.11922333111477 437.55102040816325 68.67696470993155 444.0816326530612 72.3179561815665 450.61224489795916 79.43577941491029 457.14285714285717 86.08173060070865 463.6734693877551 85.88900535281982 470.2040816326531 88.95214802253744 476.7346938775511 94.47243143560951 483.2653061224489 100.00815922111104 489.7959183673469 106.5886874569672 496.3265306122449 104.63967293950418 502.85714285714283 106.09858569959638 509.38775510204084 105.83343128105699 515.9183673469388 104.49631374746866 522.4489795918367 108.04494826913103 528.9795918367347 114.08030503902427 535.5102040816327 116.43193150015603 542.0408163265306 111.27885101645049 548.5714285714286 112.97445809424431 555.1020408163265 119.26886542074328 561.6326530612245 118.64029973493561 568.1632653061224 118.96042480088465 574.6938775510204 122.02824259062504 581.2244897959183 121.4712190496993 587.7551020408164 121.85288948886449 594.2857142857143 121.921936647635 600.8163265306123 123.46987147674963 607.3469387755102 119.66080685630178 613.8775510204082 104.2700446476945 620.4081632653061 103.72118377299998 626.9387755102041 102.1253636931558 633.469387755102 99.80217767668444 640 98.18991034055136 640 320 0 320"
      />
      
      <polygon
        fill="#dea584"
        fillRule="evenodd"
        points="0 313.6957877795737 6.530612244897958 305.0750735652664 13.061224489795917 298.52242345910787 19.591836734693878 288.39203281985993 26.122448979591834 281.729667812941 32.6530612244898 277.8556702375404 39.183673469387756 270.5454025521035 45.71428571428571 260.80005499973566 52.24489795918367 251.72756187321153 58.775510204081634 237.79091546849432 65.3061224489796 230.20543606722242 71.83673469387755 218.6052161798179 78.36734693877551 212.8050870780781 84.89795918367348 207.84109179776598 91.42857142857142 198.66408716334513 97.9591836734694 187.99622415698718 104.48979591836734 176.33188990618288 111.0204081632653 173.6037238756364 117.55102040816327 169.2519415170725 124.08163265306122 162.7599139458293 130.6122448979592 159.35214425122453 137.14285714285714 148.55739303611045 143.6734693877551 151.19200525751526 150.20408163265307 136.3271184889189 156.73469387755102 123.07433831656479 163.26530612244898 117.47828136010938 169.79591836734696 107.22346791366516 176.32653061224488 98.72215322698617 182.85714285714283 95.23655329850666 189.3877551020408 91.49652899059225 195.9183673469388 88.2520916201585 202.44897959183675 76.38150946902095 208.97959183673467 66.58281269672585 215.51020408163265 65.26472434316048 222.0408163265306 60.10051397664313 228.57142857142858 62.371258917802436 235.10204081632654 60.781042875786284 241.63265306122446 53.00585851543997 248.16326530612244 49.05522586386985 254.69387755102042 49.415329648596526 261.2244897959184 54.88828307405885 267.7551020408163 51.93126079189943 274.2857142857143 54.7036891228488 280.81632653061223 55.37529374675671 287.3469387755102 56.21196979767359 293.8775510204082 57.729886945852 300.40816326530614 60.54122544933131 306.9387755102041 61.064349491316705 313.46938775510205 54.08989891252412 320 54.45059855588744 326.53061224489795 51.548951628181385 333.0612244897959 48.91270723137302 339.5918367346939 43.24675658663716 346.12244897959187 45.073534409417675 352.65306122448976 41.668857963126584 359.1836734693877 40.487154598289635 365.71428571428567 42.583535561052315 372.2448979591837 49.461110271509824 378.7755102040816 51.477817826106104 385.3061224489796 55.31829236350097 391.8367346938776 58.814378845837155 398.36734693877554 58.1885174442844 404.8979591836735 62.604223910341034 411.42857142857144 65.79446107643892 417.95918367346934 71.1678861804084 424.48979591836735 76.55960482381104 431.0204081632653 80.24559125797776 437.55102040816325 74.62821892614403 444.0816326530612 78.08755130687331 450.61224489795916 85.03485783380884 457.14285714285717 91.50989980205193 463.6734693877551 91.15674723376151 470.2040816326531 94.05909617083927 476.7346938775511 99.42349275436695 483.2653061224489 104.81289485030806 489.7959183673469 111.24676026857415 496.3265306122449 109.16007996717082 502.85714285714283 110.48100902984388 509.38775510204084 110.08208352435781 515.9183673469388 108.62765447859087 522.4489795918367 112.05018205308221 528.9795918367347 117.96716691419036 535.5102040816327 120.20014876376632 542.0408163265306 116.05406610833569 548.5714285714286 117.60391304142593 555.1020408163265 123.75700875138833 561.6326530612245 123.35397431930437 568.1632653061224 123.53021630694596 574.6938775510204 126.46297810086708 581.2244897959183 125.77058578822374 587.7551020408164 126.02102053639825 594.2857142857143 125.99993696340985 600.8163265306123 127.42339315010378 607.3469387755102 123.4974837152862 613.8775510204082 107.9896107711447 620.4081632653061 107.3308190323576 626.9387755102041 105.6248170662397 633.469387755102 103.19481242916564 640 101.50039250996696 640 320 0 320"
      />
      
      <polygon
        fill="#701516"
        fillRule="evenodd"
        points="0 313.6957877795737 6.530612244897958 305.0750735652664 13.061224489795917 298.52242345910787 19.591836734693878 288.39203281985993 26.122448979591834 281.729667812941 32.6530612244898 277.8556702375404 39.183673469387756 270.5454025521035 45.71428571428571 260.80005499973566 52.24489795918367 251.72756187321153 58.775510204081634 237.79091546849432 65.3061224489796 230.20543606722242 71.83673469387755 218.6052161798179 78.36734693877551 212.8050870780781 84.89795918367348 207.84109179776598 91.42857142857142 198.66408716334513 97.9591836734694 187.99622415698718 104.48979591836734 176.33188990618288 111.0204081632653 173.6037238756364 117.55102040816327 169.2519415170725 124.08163265306122 162.7599139458293 130.6122448979592 159.35214425122453 137.14285714285714 148.55739303611045 143.6734693877551 151.19200525751526 150.20408163265307 136.3271184889189 156.73469387755102 123.07433831656479 163.26530612244898 117.47828136010938 169.79591836734696 107.22346791366516 176.32653061224488 98.72215322698617 182.85714285714283 95.23655329850666 189.3877551020408 91.49652899059225 195.9183673469388 88.2520916201585 202.44897959183675 76.38150946902095 208.97959183673467 66.58281269672585 215.51020408163265 65.26472434316048 222.0408163265306 60.10051397664313 228.57142857142858 62.371258917802436 235.10204081632654 60.781042875786284 241.63265306122446 53.00585851543997 248.16326530612244 49.05522586386985 254.69387755102042 49.415329648596526 261.2244897959184 54.88828307405885 267.7551020408163 51.93126079189943 274.2857142857143 54.7036891228488 280.81632653061223 55.37529374675671 287.3469387755102 56.21196979767359 293.8775510204082 57.729886945852 300.40816326530614 60.54122544933131 306.9387755102041 61.064349491316705 313.46938775510205 54.08989891252412 320 54.45059855588744 326.53061224489795 51.548951628181385 333.0612244897959 48.91270723137302 339.5918367346939 43.24675658663716 346.12244897959187 45.073534409417675 352.65306122448976 41.668857963126584 359.1836734693877 40.487154598289635 365.71428571428567 42.583535561052315 372.2448979591837 49.461110271509824 378.7755102040816 51.477817826106104 385.3061224489796 55.31829236350097 391.8367346938776 58.814378845837155 398.36734693877554 58.1885174442844 404.8979591836735 62.604223910341034 411.42857142857144 65.79446107643892 417.95918367346934 71.1678861804084 424.48979591836735 76.55960482381104 431.0204081632653 80.24559125797776 437.55102040816325 74.62821892614403 444.0816326530612 78.08755130687331 450.61224489795916 85.03485783380884 457.14285714285717 91.50989980205193 463.6734693877551 91.15674723376151 470.2040816326531 94.05909617083927 476.7346938775511 99.42349275436695 483.2653061224489 104.81289485030806 489.7959183673469 111.24676026857415 496.3265306122449 109.16007996717082 502.85714285714283 110.48100902984388 509.38775510204084 110.08208352435781 515.9183673469388 108.62765447859087 522.4489795918367 112.05018205308221 528.9795918367347 117.96716691419036 535.5102040816327 120.20014876376632 542.0408163265306 116.05406610833569 548.5714285714286 117.60391304142593 555.1020408163265 123.75700875138833 561.6326530612245 123.35397431930437 568.1632653061224 123.53021630694596 574.6938775510204 126.46297810086708 581.2244897959183 125.77058578822374 587.7551020408164 126.02102053639825 594.2857142857143 125.99993696340985 600.8163265306123 127.42339315010378 607.3469387755102 123.4974837152862 613.8775510204082 108.00916700403866 620.4081632653061 107.34979729053262 626.9387755102041 105.6432160252275 633.469387755102 103.21264976943556 640 101.5177979215176 640 320 0 320"
      />
      
      <polygon
        fill="#3572A5"
        fillRule="evenodd"
        points="0 313.6957877795737 6.530612244897958 305.0750735652664 13.061224489795917 298.52242345910787 19.591836734693878 288.39203281985993 26.122448979591834 281.729667812941 32.6530612244898 277.8556702375404 39.183673469387756 270.5454025521035 45.71428571428571 260.80005499973566 52.24489795918367 251.72756187321153 58.775510204081634 237.79091546849432 65.3061224489796 230.20543606722242 71.83673469387755 218.6052161798179 78.36734693877551 212.8050870780781 84.89795918367348 207.84109179776598 91.42857142857142 198.66408716334513 97.9591836734694 187.99622415698718 104.48979591836734 176.33188990618288 111.0204081632653 173.6037238756364 117.55102040816327 169.2519415170725 124.08163265306122 163.42154183237466 130.6122448979592 159.9935763089894 137.14285714285714 149.216287082517 143.6734693877551 151.83078694027344 150.20408163265307 137.94826391816542 156.73469387755102 125.43990754324724 163.26530612244898 119.7716431264736 169.79591836734696 109.44905050581113 176.32653061224488 100.87980118172925 182.85714285714283 97.33043309084673 189.3877551020408 93.52649409673461 195.9183673469388 90.22009339591264 202.44897959183675 78.29517157002866 208.97959183673467 68.47393201944826 215.51020408163265 67.0999526473413 222.0408163265306 61.87972282277087 228.57142857142858 64.0978843196875 235.10204081632654 62.45496410028784 241.63265306122446 54.62868444725427 248.16326530612244 50.630089707815046 254.69387755102042 50.94212156320236 261.2244897959184 56.3699519277568 267.7551020408163 53.403535990736316 274.2857142857143 56.13102395313871 280.81632653061223 56.76321747809186 287.3469387755102 57.55752791028419 293.8775510204082 59.03567782243044 300.40816326530614 61.807157743697076 306.9387755102041 62.2928679725066 313.46938775510205 55.280917577441244 320 55.60526195470618 326.53061224489795 52.66948957357221 333.0612244897959 49.99904142660972 339.5918367346939 44.300984705820724 346.12244897959187 46.095582882396 352.65306122448976 42.65970894115577 359.1836734693877 41.45064667598473 365.71428571428567 43.51761755941544 372.2448979591837 50.36758589228822 378.7755102040816 52.378955398036965 385.3061224489796 56.19279733484706 391.8367346938776 59.66218997663941 398.36734693877554 59.01044961645454 404.8979591836735 63.401864369086354 411.42857142857144 66.56775396598462 417.95918367346934 71.91832485154137 424.48979591836735 77.28713671908324 431.0204081632653 80.95091570484115 437.55102040816325 75.3133826544518 444.0816326530612 78.75180083907537 450.61224489795916 85.679475787417 457.14285714285717 92.13484115131098 463.6734693877551 91.76321877577078 470.2040816326531 94.64705557193571 476.7346938775511 99.99350501482388 483.2653061224489 105.36606074811448 489.7959183673469 111.78304108692367 496.3265306122449 109.6805112162302 502.85714285714283 110.98555446912064 509.38775510204084 110.57122799759486 515.9183673469388 109.10329286931346 522.4489795918367 112.5113018880343 528.9795918367347 118.41465855661565 535.5102040816327 120.63398101827624 542.0408163265306 116.47507664714877 548.5714285714286 118.01207250840744 555.1020408163265 124.15270939053104 561.6326530612245 123.73798020184924 568.1632653061224 123.90250063527321 574.6938775510204 126.82425979716061 581.2244897959183 126.12083953448703 587.7551020408164 126.36058298800353 594.2857142857143 126.33012355673281 600.8163265306123 127.74350096138608 607.3469387755102 123.80813090848375 613.8775510204082 108.3297481200583 620.4081632653061 107.66090382452379 626.9387755102041 105.94482624522485 633.469387755102 103.50505347607768 640 101.80312112779922 640 320 0 320"
      />
      
      <polygon
        fill="#0298c3"
        fillRule="evenodd"
        points="0 313.6957877795737 6.530612244897958 305.0750735652664 13.061224489795917 298.52242345910787 19.591836734693878 288.39203281985993 26.122448979591834 281.729667812941 32.6530612244898 277.8556702375404 39.183673469387756 270.5454025521035 45.71428571428571 260.80005499973566 52.24489795918367 251.72756187321153 58.775510204081634 237.79091546849432 65.3061224489796 230.20543606722242 71.83673469387755 218.6052161798179 78.36734693877551 212.8050870780781 84.89795918367348 207.84109179776598 91.42857142857142 198.66408716334513 97.9591836734694 187.99622415698718 104.48979591836734 176.33188990618288 111.0204081632653 173.6037238756364 117.55102040816327 169.2519415170725 124.08163265306122 163.42154183237466 130.6122448979592 159.9935763089894 137.14285714285714 149.216287082517 143.6734693877551 151.83078694027344 150.20408163265307 137.94826391816542 156.73469387755102 126.0780189053327 163.26530612244898 120.39027650307051 169.79591836734696 110.04940051795305 176.32653061224488 101.46182585538384 182.85714285714283 97.8952563539404 189.3877551020408 94.07407643099859 195.9183673469388 90.7509611259145 202.44897959183675 78.81138116647406 208.97959183673467 68.97438455387731 215.51020408163265 67.6900888001772 222.0408163265306 62.45184542660229 228.57142857142858 64.65309811871543 235.10204081632654 62.993230326330206 241.63265306122446 55.15052041356245 248.16326530612244 51.13650314052086 254.69387755102042 51.433076971899936 261.2244897959184 56.846397432369315 267.7551020408163 53.86543827919212 274.2857142857143 56.57882691238939 280.81632653061223 57.19865586355485 287.3469387755102 57.9796748099684 293.8775510204082 59.445348364851384 300.40816326530614 62.20432333308196 306.9387755102041 62.67829554686608 313.46938775510205 55.65458020557867 320 55.96751876377061 326.53061224489795 53.0210400656934 333.0612244897959 50.33986103387792 339.5918367346939 44.63173155229265 346.12244897959187 46.4162338900602 352.65306122448976 42.97057225181288 359.1836734693877 41.752926538494194 365.71428571428567 43.81067051237511 372.2448979591837 50.65197780936023 378.7755102040816 52.65466642761032 385.3061224489796 56.46035985355917 391.8367346938776 59.92158532479806 398.36734693877554 59.26192704891315 404.8979591836735 63.64590953105056 411.42857142857144 66.80434979041209 417.95918367346934 72.1479282131871 424.48979591836735 77.50973157842105 431.0204081632653 81.16671597017097 437.55102040816325 75.52301459683139 444.0816326530612 78.95503388389389 450.61224489795916 85.8767023944456 457.14285714285717 92.32604752100855 463.6734693877551 91.9487741460448 470.2040816326531 94.826946965258 476.7346938775511 100.16790534160234 483.2653061224489 105.53530675619777 489.7959183673469 111.94712094960155 496.3265306122449 109.83974178863991 502.85714285714283 111.13992463353804 509.38775510204084 110.7208860862429 515.9183673469388 109.24881865814689 522.4489795918367 112.65238558095146 528.9795918367347 118.55157259950823 535.5102040816327 120.76671584496944 542.0408163265306 116.60388856125647 548.5714285714286 118.1369525088887 555.1020408163265 124.27377751181564 561.6326530612245 123.85547020384806 568.1632653061224 124.01640433895813 574.6938775510204 126.93479713207591 581.2244897959183 126.2280027737117 587.7551020408164 126.46447512975055 594.2857142857143 126.43114707186265 600.8163265306123 127.8414407948909 607.3469387755102 126.40238195872999 613.8775510204082 115.17762089243075 620.4081632653061 114.40702845995082 626.9387755102041 112.69055107414064 633.469387755102 110.04486942331951 640 108.62672294257192 640 320 0 320"
      />
      
      <polygon
        fill="#fd2fdb"
        fillRule="evenodd"
        points="0 313.6957877795737 6.530612244897958 305.0750735652664 13.061224489795917 298.52242345910787 19.591836734693878 288.39203281985993 26.122448979591834 281.729667812941 32.6530612244898 277.8556702375404 39.183673469387756 270.5454025521035 45.71428571428571 260.80005499973566 52.24489795918367 251.72756187321153 58.775510204081634 237.79091546849432 65.3061224489796 230.20543606722242 71.83673469387755 218.6052161798179 78.36734693877551 212.8050870780781 84.89795918367348 207.84109179776598 91.42857142857142 198.66408716334513 97.9591836734694 187.99622415698718 104.48979591836734 176.33188990618288 111.0204081632653 173.6037238756364 117.55102040816327 169.2519415170725 124.08163265306122 163.42154183237466 130.6122448979592 159.9935763089894 137.14285714285714 149.216287082517 143.6734693877551 151.83078694027344 150.20408163265307 137.94826391816542 156.73469387755102 126.0780189053327 163.26530612244898 120.39027650307051 169.79591836734696 110.04940051795305 176.32653061224488 101.46182585538384 182.85714285714283 97.8952563539404 189.3877551020408 94.07407643099859 195.9183673469388 90.7509611259145 202.44897959183675 78.81138116647406 208.97959183673467 68.97438455387731 215.51020408163265 67.6900888001772 222.0408163265306 62.45184542660229 228.57142857142858 64.65309811871543 235.10204081632654 62.993230326330206 241.63265306122446 55.15052041356245 248.16326530612244 51.13650314052086 254.69387755102042 51.433076971899936 261.2244897959184 56.846397432369315 267.7551020408163 53.86543827919212 274.2857142857143 56.57882691238939 280.81632653061223 58.3282593779187 287.3469387755102 59.07479786409465 293.8775510204082 60.50810558685657 300.40816326530614 63.234640536304255 306.9387755102041 64.55892310828031 313.46938775510205 57.47780270349034 320 57.73508831861909 326.53061224489795 54.736369983183465 333.0612244897959 52.00283171113642 339.5918367346939 46.245553977105885 346.12244897959187 47.980795241161275 352.65306122448976 44.487376299001994 359.1836734693877 43.22784913254105 365.71428571428567 45.2405719751103 372.2448979591837 52.039619179273416 378.7755102040816 53.99995091268573 385.3061224489796 57.765885219979566 391.8367346938776 61.18726022638293 398.36734693877554 60.4889678592117 404.8979591836735 64.83668580492164 411.42857142857144 67.95877840180393 417.95918367346934 73.2682383068846 424.48979591836735 78.59584485769801 431.0204081632653 82.2196762372491 437.55102040816325 76.54587758181549 444.0816326530612 79.94667445666369 450.61224489795916 86.83903563949258 457.14285714285717 93.2590060332771 463.6734693877551 92.85415957224998 470.2040816326531 95.70469611316014 476.7346938775511 101.01886159640944 483.2653061224489 106.36111342439511 489.7959183673469 112.7477203875365 496.3265306122449 110.6166799970238 502.85714285714283 111.89314722594415 509.38775510204084 111.45111700940873 515.9183673469388 109.95888669469815 522.4489795918367 113.34077920334153 528.9795918367347 119.21962112585516 535.5102040816327 121.41437256439173 542.0408163265306 117.23240412524018 548.5714285714286 118.74628301167124 555.1020408163265 124.86450853481759 561.6326530612245 124.4287424543337 568.1632653061224 124.57217782600117 574.6938775510204 127.47414499348238 581.2244897959183 126.75088736129203 587.7551020408164 126.97139896052454 594.2857142857143 126.92407392430937 600.8163265306123 128.31932133875213 607.3469387755102 126.8661390164828 613.8775510204082 115.62722199456658 620.4081632653061 114.84334185756717 626.9387755102041 114.2208297618518 633.469387755102 111.52843733225791 640 111.20025187029557 640 320 0 320"
      />
      
      <polygon
        fill="#4F5D95"
        fillRule="evenodd"
        points="0 313.6957877795737 6.530612244897958 305.0750735652664 13.061224489795917 298.52242345910787 19.591836734693878 288.39203281985993 26.122448979591834 281.729667812941 32.6530612244898 277.8556702375404 39.183673469387756 270.5454025521035 45.71428571428571 260.80005499973566 52.24489795918367 251.72756187321153 58.775510204081634 237.79091546849432 65.3061224489796 230.20543606722242 71.83673469387755 218.6052161798179 78.36734693877551 212.8050870780781 84.89795918367348 207.84109179776598 91.42857142857142 198.66408716334513 97.9591836734694 187.99622415698718 104.48979591836734 176.33188990618288 111.0204081632653 173.6037238756364 117.55102040816327 169.2519415170725 124.08163265306122 163.42154183237466 130.6122448979592 159.9935763089894 137.14285714285714 149.216287082517 143.6734693877551 151.83078694027344 150.20408163265307 137.94826391816542 156.73469387755102 126.0780189053327 163.26530612244898 120.39027650307051 169.79591836734696 110.04940051795305 176.32653061224488 101.46182585538384 182.85714285714283 97.8952563539404 189.3877551020408 94.07407643099859 195.9183673469388 90.7509611259145 202.44897959183675 78.81138116647406 208.97959183673467 68.97438455387731 215.51020408163265 67.6900888001772 222.0408163265306 62.45184542660229 228.57142857142858 64.67272519062377 235.10204081632654 63.012258292651154 241.63265306122446 55.16896756202743 248.16326530612244 51.154405093057676 254.69387755102042 51.450432479049084 261.2244897959184 56.86324000656805 267.7551020408163 53.88176674290702 274.2857142857143 56.59465695887377 280.81632653061223 58.34365233138789 287.3469387755102 59.08972095603292 293.8775510204082 60.52258763498037 300.40816326530614 63.24868052851008 306.9387755102041 64.5725481566079 313.46938775510205 57.49101185440463 320 57.747894268109064 326.53061224489795 54.748797459451225 333.0612244897959 52.01487984593098 339.5918367346939 46.25724603544654 346.12244897959187 47.99213040617275 352.65306122448976 44.49836546492355 359.1836734693877 43.23853486936446 365.71428571428567 45.250931536198095 372.2448979591837 52.049672568308836 378.7755102040816 54.00969742838913 385.3061224489796 57.775343682335574 391.8367346938776 61.19642997521248 398.36734693877554 60.49785770649282 404.8979591836735 64.84531291736562 411.42857142857144 67.9671421767726 417.95918367346934 73.27635489487594 424.48979591836735 78.60371369100932 431.0204081632653 82.22730487942636 437.55102040816325 76.5532881706929 444.0816326530612 79.95385884095606 450.61224489795916 86.84600769272222 457.14285714285717 93.26576526901786 463.6734693877551 92.86071904221677 470.2040816326531 95.71105535918355 476.7346938775511 101.02502673036071 483.2653061224489 106.36709635107562 489.7959183673469 112.7535206888499 496.3265306122449 110.62230887361483 502.85714285714283 111.89860428427414 509.38775510204084 111.45640749391984 515.9183673469388 109.96403110053456 522.4489795918367 113.34576657882576 528.9795918367347 119.22446110220375 535.5102040816327 121.41906480344915 542.0408163265306 117.23695768754055 548.5714285714286 118.75069757899286 555.1020408163265 124.86878834997995 561.6326530612245 124.43289578185411 568.1632653061224 124.57620437591473 574.6938775510204 127.47805254059222 581.2244897959183 126.75467563268998 587.7551020408164 126.97507159731654 594.2857142857143 126.92764515358601 600.8163265306123 128.32278355833284 607.3469387755102 126.86949891190108 613.8775510204082 115.63047933124045 620.4081632653061 114.8465029253336 626.9387755102041 114.22389433969221 633.469387755102 111.53140836564984 640 111.2031509605043 640 320 0 320"
      />
      
      <polygon
        fill="#755462"
        fillRule="evenodd"
        points="0 318.0212239371131 6.530612244897958 313.5273633939076 13.061224489795917 310.89612158968583 19.591836734693878 304.6063528547044 26.122448979591834 301.51235806090426 32.6530612244898 299.634745132753 39.183673469387756 295.68732697434035 45.71428571428571 289.60724645756187 52.24489795918367 284.8540466891267 58.775510204081634 274.44710403948505 65.3061224489796 270.1967589736985 71.83673469387755 262.9523791367291 78.36734693877551 259.7806403073792 84.89795918367348 257.2939616635404 91.42857142857142 251.48860723146836 97.9591836734694 243.11579389215836 104.48979591836734 233.69077683559328 111.0204081632653 232.44226480244072 117.55102040816327 230.48711235174073 124.08163265306122 226.74326904394326 130.6122448979592 225.02606335472734 137.14285714285714 216.76225008350798 143.6734693877551 218.75151667468373 150.20408163265307 208.35863969282008 156.73469387755102 198.35256574918165 163.26530612244898 194.34758645014088 169.79591836734696 186.11867731486916 176.32653061224488 178.69890551589168 182.85714285714283 176.47506321747488 189.3877551020408 173.87228413302375 195.9183673469388 171.38695510074584 202.44897959183675 162.65605718146134 208.97959183673467 154.12870175374152 215.51020408163265 153.54795140554373 222.0408163265306 149.77113903147807 228.57142857142858 151.9918338426031 235.10204081632654 150.24044204568438 241.63265306122446 143.4642678768361 248.16326530612244 140.6980172397836 254.69387755102042 142.9293167259601 261.2244897959184 147.0536848356363 267.7551020408163 144.44716349647894 274.2857142857143 147.1407107220212 280.81632653061223 149.53424638847724 287.3469387755102 150.7909041992983 293.8775510204082 152.3821943367655 300.40816326530614 155.03545997227053 306.9387755102041 154.49048133295722 313.46938775510205 148.88681115014847 320 148.96298841888665 326.53061224489795 145.9047436739317 333.0612244897959 141.78897104461655 339.5918367346939 137.4586249014334 346.12244897959187 139.37101062195217 352.65306122448976 135.06403451025972 359.1836734693877 134.1877140207313 365.71428571428567 137.09703564902338 372.2448979591837 142.45248031312565 378.7755102040816 144.39919883981958 385.3061224489796 146.9758342980436 391.8367346938776 149.826125126873 398.36734693877554 149.0645969472207 404.8979591836735 151.71940435007087 411.42857142857144 154.19226472118106 417.95918367346934 158.30293129423183 424.48979591836735 162.42162702187466 431.0204081632653 164.48554742478015 437.55102040816325 158.2232983039247 444.0816326530612 161.34777540037362 450.61224489795916 165.87460686965136 457.14285714285717 170.07078468816678 463.6734693877551 168.56368635247574 470.2040816326531 169.2137921873279 476.7346938775511 173.47282306241513 483.2653061224489 177.1537865365714 489.7959183673469 181.49369474450305 496.3265306122449 177.55137279104414 502.85714285714283 179.11019916383162 509.38775510204084 179.84343968162972 515.9183673469388 178.85212123515467 522.4489795918367 181.19126696077703 528.9795918367347 185.21850078901392 535.5102040816327 189.19428719479902 542.0408163265306 186.26908091781746 548.5714285714286 186.9422191423726 555.1020408163265 190.9833659494963 561.6326530612245 193.06115792239007 568.1632653061224 195.3848659379973 574.6938775510204 199.02883246225602 581.2244897959183 200.45621627423805 587.7551020408164 202.5486540813206 594.2857142857143 204.68150786727006 600.8163265306123 208.14736451588126 607.3469387755102 207.1114055300548 613.8775510204082 197.5379587084031 620.4081632653061 198.09253779019093 626.9387755102041 198.37918846917165 633.469387755102 197.54833559957729 640 198.50805214748505 640 320 0 320"
      />
      
      <polygon
        fill="#2415b9"
        fillRule="evenodd"
        points="0 318.0212239371131 6.530612244897958 313.5273633939076 13.061224489795917 310.89612158968583 19.591836734693878 304.6063528547044 26.122448979591834 301.51235806090426 32.6530612244898 299.634745132753 39.183673469387756 295.68732697434035 45.71428571428571 289.60724645756187 52.24489795918367 284.8540466891267 58.775510204081634 274.44710403948505 65.3061224489796 270.1967589736985 71.83673469387755 262.9523791367291 78.36734693877551 259.7806403073792 84.89795918367348 257.2939616635404 91.42857142857142 251.48860723146836 97.9591836734694 243.11579389215836 104.48979591836734 233.69077683559328 111.0204081632653 232.44226480244072 117.55102040816327 230.48711235174073 124.08163265306122 226.74326904394326 130.6122448979592 225.02606335472734 137.14285714285714 216.76225008350798 143.6734693877551 218.75151667468373 150.20408163265307 208.35863969282008 156.73469387755102 198.35256574918165 163.26530612244898 194.34758645014088 169.79591836734696 186.11867731486916 176.32653061224488 178.69890551589168 182.85714285714283 176.47506321747488 189.3877551020408 173.87228413302375 195.9183673469388 171.38695510074584 202.44897959183675 162.65605718146134 208.97959183673467 154.12870175374152 215.51020408163265 153.54795140554373 222.0408163265306 149.77113903147807 228.57142857142858 151.9918338426031 235.10204081632654 150.24044204568438 241.63265306122446 143.4642678768361 248.16326530612244 140.6980172397836 254.69387755102042 142.9293167259601 261.2244897959184 147.0536848356363 267.7551020408163 144.44716349647894 274.2857142857143 147.1407107220212 280.81632653061223 149.53424638847724 287.3469387755102 150.7909041992983 293.8775510204082 152.3821943367655 300.40816326530614 155.03545997227053 306.9387755102041 154.49048133295722 313.46938775510205 148.88681115014847 320 148.96298841888665 326.53061224489795 145.9047436739317 333.0612244897959 142.1486016766783 339.5918367346939 137.81825553349518 346.12244897959187 139.7306412540139 352.65306122448976 135.42366514232143 359.1836734693877 134.54734465279304 365.71428571428567 137.45666628108512 372.2448979591837 142.81211094518738 378.7755102040816 144.7588294718813 385.3061224489796 147.33546493010536 391.8367346938776 150.1857557589347 398.36734693877554 149.42422757928244 404.8979591836735 152.07903498213258 411.42857142857144 154.5518953532428 417.95918367346934 158.66256192629353 424.48979591836735 162.78125765393636 431.0204081632653 164.8451780568419 437.55102040816325 158.58292893598642 444.0816326530612 161.70740603243536 450.61224489795916 166.2342375017131 457.14285714285717 170.43041532022852 463.6734693877551 168.92331698453748 470.2040816326531 169.57342281938963 476.7346938775511 173.83245369447687 483.2653061224489 177.51341716863314 489.7959183673469 181.85332537656475 496.3265306122449 177.91100342310588 502.85714285714283 179.46982979589333 509.38775510204084 180.20307031369146 515.9183673469388 179.2117518672164 522.4489795918367 181.55089759283877 528.9795918367347 185.57813142107565 535.5102040816327 189.55391782686075 542.0408163265306 186.6287115498792 548.5714285714286 187.30184977443434 555.1020408163265 191.342996581558 561.6326530612245 193.4207885544518 568.1632653061224 195.74449657005903 574.6938775510204 199.38846309431776 581.2244897959183 200.81584690629978 587.7551020408164 202.90828471338233 594.2857142857143 205.0411384993318 600.8163265306123 208.506995147943 607.3469387755102 207.47103616211655 613.8775510204082 197.89758934046483 620.4081632653061 198.45216842225267 626.9387755102041 198.7388191012334 633.469387755102 197.90796623163902 640 198.50805214748505 640 320 0 320"
      />
      
      <polygon
        fill="#f1e05a"
        fillRule="evenodd"
        points="0 318.0212239371131 6.530612244897958 313.5273633939076 13.061224489795917 310.89612158968583 19.591836734693878 304.6063528547044 26.122448979591834 301.51235806090426 32.6530612244898 299.634745132753 39.183673469387756 295.68732697434035 45.71428571428571 289.60724645756187 52.24489795918367 284.8540466891267 58.775510204081634 275.55860878265975 65.3061224489796 271.27433564928646 71.83673469387755 264.38153955485905 78.36734693877551 261.6232937510927 84.89795918367348 259.09161915008644 91.42857142857142 253.2331358682303 97.9591836734694 246.00813938251747 104.48979591836734 237.61108569531206 111.0204081632653 236.28994810554357 117.55102040816327 234.21734686651521 124.08163265306122 230.51368693876697 130.6122448979592 228.6813915354174 137.14285714285714 222.6034072862759 143.6734693877551 224.41437568893005 150.20408163265307 213.85413585854968 156.73469387755102 203.68031580289238 163.26530612244898 199.51270999075916 169.79591836734696 191.13114803008975 176.32653061224488 184.6745546081446 182.85714285714283 182.2741056181962 189.3877551020408 179.49431376785407 195.9183673469388 176.83737619056893 202.44897959183675 169.27907038737916 208.97959183673467 161.91439873808272 215.51020408163265 161.10354643633093 222.0408163265306 157.65194958411286 228.57142857142858 159.7498797524096 235.10204081632654 157.76167796588442 241.63265306122446 151.88569625966593 248.16326530612244 148.8705545098084 254.69387755102042 150.85239302275536 261.2244897959184 154.74259905179315 267.7551020408163 153.0043380576868 274.2857142857143 155.44772210550258 280.81632653061223 157.61188987590043 287.3469387755102 159.39923323812027 293.8775510204082 161.38432960386245 300.40816326530614 163.76280866602173 306.9387755102041 164.08010098046148 313.46938775510205 158.1837140685085 320 157.97610886051893 326.53061224489795 154.65148570639587 333.0612244897959 150.6283539278998 339.5918367346939 146.04739455494206 346.12244897959187 147.70858958164268 352.65306122448976 144.2695146981272 359.1836734693877 143.1489443859795 365.71428571428567 145.79570636865787 372.2448979591837 150.90469513309216 378.7755102040816 152.60439262626772 385.3061224489796 154.949156748228 391.8367346938776 157.5670445012162 398.36734693877554 156.5802072168192 404.8979591836735 159.02352303756652 411.42857142857144 161.28440622246893 417.95918367346934 165.19609615390937 424.48979591836735 169.1153602558165 431.0204081632653 170.98593583280976 437.55102040816325 165.66904775445497 444.0816326530612 168.57722500725035 450.61224489795916 172.90102340689134 457.14285714285717 176.89370135520954 463.6734693877551 175.1955824350055 470.2040816326531 175.65423099100568 476.7346938775511 179.72764889326677 483.2653061224489 183.2343832453758 489.7959183673469 187.39966273025215 496.3265306122449 183.29342041543828 502.85714285714283 184.68795313027465 509.38775510204084 185.26191139160366 515.9183673469388 184.13091014710042 522.4489795918367 186.3199030967276 528.9795918367347 190.20619130965972 535.5102040816327 194.04070802156474 542.0408163265306 190.98289801866815 548.5714285714286 191.52312672851934 555.1020408163265 195.4354212709784 561.6326530612245 197.39226381097131 568.1632653061224 199.59474486158135 574.6938775510204 203.12491952728175 581.2244897959183 204.43825038886652 587.7551020408164 206.42011585356056 594.2857142857143 208.4560024321872 600.8163265306123 211.81762271088553 607.3469387755102 210.68382004651016 613.8775510204082 201.0123035955209 620.4081632653061 201.47482977119728 626.9387755102041 201.6692160812549 633.469387755102 200.74891392857356 640 201.28020661457052 640 320 0 320"
      />
      
      <polygon
        fill="#22e8e8"
        fillRule="evenodd"
        points="0 319.92567425360795 6.530612244897958 319.85646897953103 13.061224489795917 319.8272328894989 19.591836734693878 318.6603028391759 26.122448979591834 318.5475298758492 32.6530612244898 318.4075977034674 39.183673469387756 318.2695444098146 45.71428571428571 316.0115350217848 52.24489795918367 316.0194985489241 58.775510204081634 310.2711992905751 65.3061224489796 309.37987060303305 71.83673469387755 306.93693330893876 78.36734693877551 307.0222673900788 84.89795918367348 306.2791037383776 91.42857142857142 304.5841156597047 97.9591836734694 300.15629951474966 104.48979591836734 294.75364966195684 111.0204081632653 293.47877598421286 117.55102040816327 293.78095452336055 124.08163265306122 290.8838639020394 130.6122448979592 291.2549267397873 137.14285714285714 286.978533719797 143.6734693877551 287.29591500685507 150.20408163265307 280.0896315517261 156.73469387755102 272.3565218442626 163.26530612244898 270.6873522343496 169.79591836734696 264.6410466453926 176.32653061224488 259.71604815927196 182.85714285714283 258.4821176378008 189.3877551020408 256.4976129672 195.9183673469388 254.70956354729782 202.44897959183675 249.75803524302708 208.97959183673467 243.84332237607714 215.51020408163265 243.32679692118512 222.0408163265306 241.83026418410864 228.57142857142858 242.76854585651654 235.10204081632654 241.70745128912472 241.63265306122446 237.2178353943433 248.16326530612244 234.04436985502687 254.69387755102042 235.73028784365596 261.2244897959184 237.4044252575432 267.7551020408163 235.56050272870493 274.2857142857143 237.00506818183817 280.81632653061223 238.39937054811713 287.3469387755102 240.8175471396169 293.8775510204082 242.5414859054524 300.40816326530614 244.59171467698755 306.9387755102041 243.76036730294396 313.46938775510205 239.79406045236516 320 239.8281023687349 326.53061224489795 237.4352924574447 333.0612244897959 235.72256554646953 339.5918367346939 231.9917586024804 346.12244897959187 232.2007034859502 352.65306122448976 229.58698090301647 359.1836734693877 229.00007778846214 365.71428571428567 230.61536568755074 372.2448979591837 233.24732243746902 378.7755102040816 234.38586770511682 385.3061224489796 235.44976109276513 391.8367346938776 235.98082531466918 398.36734693877554 235.0238990236988 404.8979591836735 236.27275821343807 411.42857142857144 237.10993256958625 417.95918367346934 239.17609365628238 424.48979591836735 241.04015089724405 431.0204081632653 242.0107405423419 437.55102040816325 236.8473171298488 444.0816326530612 238.18586080110842 450.61224489795916 240.60231807048243 457.14285714285717 242.69853422891157 463.6734693877551 240.20795071566985 470.2040816326531 240.05520972939155 476.7346938775511 242.49390090571373 483.2653061224489 244.47758514581602 489.7959183673469 246.7812972872742 496.3265306122449 243.4888066163678 502.85714285714283 244.0437662079147 509.38775510204084 246.20495940142862 515.9183673469388 246.8956054726686 522.4489795918367 247.99730247199733 528.9795918367347 250.1182399483292 535.5102040816327 252.23282829997945 542.0408163265306 249.5817810922665 548.5714285714286 249.4427497394404 555.1020408163265 251.59489894181928 561.6326530612245 252.51201849903896 568.1632653061224 253.35343118438726 574.6938775510204 255.3023798320064 581.2244897959183 256.15328426917705 587.7551020408164 257.94403379586475 594.2857142857143 258.9969563531023 600.8163265306123 260.82647204799474 607.3469387755102 259.22060383074984 613.8775510204082 252.1186934565497 620.4081632653061 252.0948294775235 626.9387755102041 251.32928970448188 633.469387755102 250.03622834663642 640 249.56110190142124 640 320 0 320"
      />
      
      <polygon
        fill="#22e4e8"
        fillRule="evenodd"
        points="0 319.92567425360795 6.530612244897958 319.85646897953103 13.061224489795917 319.8272328894989 19.591836734693878 318.6603028391759 26.122448979591834 318.5475298758492 32.6530612244898 318.4075977034674 39.183673469387756 318.2695444098146 45.71428571428571 316.0115350217848 52.24489795918367 316.0194985489241 58.775510204081634 310.2711992905751 65.3061224489796 309.37987060303305 71.83673469387755 306.93693330893876 78.36734693877551 307.0222673900788 84.89795918367348 306.2791037383776 91.42857142857142 304.5841156597047 97.9591836734694 300.15629951474966 104.48979591836734 294.75364966195684 111.0204081632653 293.47877598421286 117.55102040816327 293.78095452336055 124.08163265306122 290.8838639020394 130.6122448979592 291.2549267397873 137.14285714285714 286.978533719797 143.6734693877551 287.29591500685507 150.20408163265307 280.0896315517261 156.73469387755102 272.3565218442626 163.26530612244898 270.6873522343496 169.79591836734696 264.6410466453926 176.32653061224488 259.71604815927196 182.85714285714283 258.4821176378008 189.3877551020408 256.4976129672 195.9183673469388 254.70956354729782 202.44897959183675 249.75803524302708 208.97959183673467 243.84332237607714 215.51020408163265 243.32679692118512 222.0408163265306 241.83026418410864 228.57142857142858 242.76854585651654 235.10204081632654 241.70745128912472 241.63265306122446 237.2178353943433 248.16326530612244 234.04436985502687 254.69387755102042 235.73028784365596 261.2244897959184 237.4044252575432 267.7551020408163 235.56050272870493 274.2857142857143 237.00506818183817 280.81632653061223 238.39937054811713 287.3469387755102 240.8175471396169 293.8775510204082 242.5414859054524 300.40816326530614 244.59171467698755 306.9387755102041 243.76036730294396 313.46938775510205 239.79406045236516 320 239.8281023687349 326.53061224489795 237.4352924574447 333.0612244897959 235.77394135104976 339.5918367346939 232.04313440706065 346.12244897959187 232.25207929053047 352.65306122448976 229.6383567075967 359.1836734693877 229.05145359304242 365.71428571428567 230.666741492131 372.2448979591837 233.29869824204928 378.7755102040816 234.43724350969708 385.3061224489796 235.50113689734536 391.8367346938776 236.0322011192494 398.36734693877554 235.07527482827902 404.8979591836735 236.32413401801833 411.42857142857144 237.16130837416648 417.95918367346934 239.22746946086264 424.48979591836735 241.0915267018243 431.0204081632653 242.06211634692212 437.55102040816325 236.89869293442905 444.0816326530612 238.23723660568868 450.61224489795916 240.6536938750627 457.14285714285717 242.74991003349183 463.6734693877551 240.2593265202501 470.2040816326531 240.10658553397178 476.7346938775511 242.545276710294 483.2653061224489 244.52896095039625 489.7959183673469 246.83267309185445 496.3265306122449 243.54018242094804 502.85714285714283 244.09514201249493 509.38775510204084 246.25633520600888 515.9183673469388 246.94698127724885 522.4489795918367 248.04867827657756 528.9795918367347 250.16961575290946 535.5102040816327 252.2842041045597 542.0408163265306 249.63315689684674 548.5714285714286 249.49412554402065 555.1020408163265 251.6462747463995 561.6326530612245 252.5633943036192 568.1632653061224 253.4048069889675 574.6938775510204 255.35375563658667 581.2244897959183 256.2046600737573 587.7551020408164 257.995409600445 594.2857142857143 259.0483321576826 600.8163265306123 260.877847852575 607.3469387755102 259.27197963533007 613.8775510204082 252.17006926112995 620.4081632653061 252.14620528210372 626.9387755102041 251.38066550906214 633.469387755102 250.08760415121665 640 249.56110190142124 640 320 0 320"
      />
      
      <polygon
        fill="#e34c26"
        fillRule="evenodd"
        points="0 319.92567425360795 6.530612244897958 319.85646897953103 13.061224489795917 319.8272328894989 19.591836734693878 318.6603028391759 26.122448979591834 318.6387622487105 32.6530612244898 318.51260267596706 39.183673469387756 318.3713441660859 45.71428571428571 316.11052391839365 52.24489795918367 316.2070747761961 58.775510204081634 311.64862170470246 65.3061224489796 310.75104571932343 71.83673469387755 308.2675841153407 78.36734693877551 308.3123007422587 84.89795918367348 307.5297595400031 91.42857142857142 305.7978088304701 97.9591836734694 302.08576584076235 104.48979591836734 297.7266096465441 111.0204081632653 296.3609881108766 117.55102040816327 296.5751889754837 124.08163265306122 294.70440711435987 130.6122448979592 294.9752919625019 137.14285714285714 291.719735152005 143.6734693877551 292.19422046416963 150.20408163265307 288.1167948175945 156.73469387755102 282.47604078785236 163.26530612244898 280.50909126050215 169.79591836734696 276.0942044121787 176.32653061224488 271.33210062085044 182.85714285714283 270.3320877339395 189.3877551020408 269.08199299720064 195.9183673469388 268.32411374296805 202.44897959183675 264.1112698395004 208.97959183673467 258.734151336646 215.51020408163265 258.8780186939572 222.0408163265306 257.3390608449744 228.57142857142858 258.0372818778685 235.10204081632654 256.52381410350273 241.63265306122446 252.72248191771507 248.16326530612244 250.19334705905794 254.69387755102042 252.19004961978604 261.2244897959184 254.18867969795042 267.7551020408163 252.8678008778344 274.2857142857143 253.80097670975636 280.81632653061223 254.9077471930893 287.3469387755102 256.83303253557494 293.8775510204082 258.5829150552073 300.40816326530614 260.45211398669136 306.9387755102041 259.9720949146893 313.46938775510205 257.8643930786366 320 257.54207597418025 326.53061224489795 255.72564915944366 333.0612244897959 254.32301838478614 339.5918367346939 252.4439968310231 346.12244897959187 252.30168431106168 352.65306122448976 249.89599058100205 359.1836734693877 249.60731579190735 365.71428571428567 250.6398582148031 372.2448979591837 252.68975895182604 378.7755102040816 254.04379694923742 385.3061224489796 254.88133367948564 391.8367346938776 255.76537844930652 398.36734693877554 254.20611606034078 404.8979591836735 254.9008604822637 411.42857142857144 255.17099597319532 417.95918367346934 256.70488214660213 424.48979591836735 258.10511759629725 431.0204081632653 258.5563728657635 437.55102040816325 255.1694405193358 444.0816326530612 257.12071977895397 450.61224489795916 258.97908373820496 457.14285714285717 260.515927328977 463.6734693877551 258.60055143388007 470.2040816326531 258.0205826144216 476.7346938775511 259.9124605522744 483.2653061224489 261.3828655690729 489.7959183673469 263.1721209537863 496.3265306122449 261.8204221995091 502.85714285714283 263.55761200808996 509.38775510204084 265.20786152237633 515.9183673469388 265.57696287300604 522.4489795918367 267.22153258659284 528.9795918367347 268.77582370885517 535.5102040816327 270.33941272147877 542.0408163265306 268.43863310346956 548.5714285714286 268.963620667134 555.1020408163265 270.5214689473538 561.6326530612245 271.9837731300378 568.1632653061224 273.4494470517441 574.6938775510204 274.8252184530154 581.2244897959183 276.2041582720814 587.7551020408164 277.54099640020604 594.2857142857143 278.7133635930283 600.8163265306123 279.97362407049457 607.3469387755102 278.9297455043921 613.8775510204082 275.7239131054385 620.4081632653061 277.032480618201 626.9387755102041 278.28629458712055 633.469387755102 278.4158857714871 640 279.4228238764167 640 320 0 320"
      />
      
      <polygon
        fill="#00ADD8"
        fillRule="evenodd"
        points="0 319.92567425360795 6.530612244897958 319.85646897953103 13.061224489795917 319.8272328894989 19.591836734693878 318.6603028391759 26.122448979591834 318.6387622487105 32.6530612244898 318.51536244681023 39.183673469387756 318.37401969653604 45.71428571428571 316.61217977691757 52.24489795918367 316.69341787066173 58.775510204081634 313.13944213047023 65.3061224489796 312.1963598206811 71.83673469387755 310.8820299668514 78.36734693877551 310.8639647440626 84.89795918367348 310.0035357670312 91.42857142857142 308.6617069213235 97.9591836734694 305.87144522659145 104.48979591836734 303.79316195715364 111.0204081632653 303.0244402400956 117.55102040816327 303.315288667556 124.08163265306122 302.4901893825367 130.6122448979592 302.9132401162006 137.14285714285714 300.975684361502 143.6734693877551 301.556387094604 150.20408163265307 299.63115863540924 156.73469387755102 295.8211865394647 163.26530612244898 294.0784461608831 169.79591836734696 290.7161416592193 176.32653061224488 287.7123901923914 182.85714285714283 287.3468058135649 189.3877551020408 286.1158259586782 195.9183673469388 284.9372990843161 202.44897959183675 282.37655001128377 208.97959183673467 277.9438513461901 215.51020408163265 278.07965167466614 222.0408163265306 276.03281111689273 228.57142857142858 276.2116864714781 235.10204081632654 274.14901031863343 241.63265306122446 270.3047269327006 248.16326530612244 268.08696438534685 254.69387755102042 269.66605563599614 261.2244897959184 271.14818214536126 267.7551020408163 270.41253025279934 274.2857142857143 270.81016983535727 280.81632653061223 272.162900955602 287.3469387755102 273.56148052201485 293.8775510204082 274.9228838677976 300.40816326530614 276.29331210319134 306.9387755102041 276.46435188721637 313.46938775510205 274.63325430047547 320 273.79908313753435 326.53061224489795 272.04436380167914 333.0612244897959 270.1436065835207 339.5918367346939 268.24948054321106 346.12244897959187 268.7285881776144 352.65306122448976 266.93233479180753 359.1836734693877 266.1732590259117 365.71428571428567 266.70013714725854 372.2448979591837 268.2753840183772 378.7755102040816 269.77300608691337 385.3061224489796 270.14566884941723 391.8367346938776 271.6310191185936 398.36734693877554 270.8758887678857 404.8979591836735 271.21140020647437 411.42857142857144 272.69783218294106 417.95918367346934 274.095838600878 424.48979591836735 275.46914285381206 431.0204081632653 275.7089887424628 437.55102040816325 272.9524714262658 444.0816326530612 274.3609416776235 450.61224489795916 275.709776847305 457.14285714285717 277.06172097242495 463.6734693877551 276.49362725918877 470.2040816326531 276.6994678110426 476.7346938775511 278.02118631730866 483.2653061224489 279.09846881503955 489.7959183673469 280.34696200354705 496.3265306122449 279.2673536203912 502.85714285714283 280.4775139853304 509.38775510204084 281.61129589388077 515.9183673469388 281.5274743164275 522.4489795918367 282.68516375013604 528.9795918367347 283.78243318262605 535.5102040816327 284.8879616867087 542.0408163265306 282.61007647046785 548.5714285714286 282.8417842261698 555.1020408163265 283.97601125469106 561.6326530612245 285.04067081998824 568.1632653061224 286.10778974505064 574.6938775510204 287.1094538400456 581.2244897959183 288.1134222118022 587.7551020408164 289.08673644939404 594.2857142857143 289.9403023895706 600.8163265306123 290.85787546156763 607.3469387755102 291.71915301276334 613.8775510204082 290.34722003142923 620.4081632653061 291.2236029733857 626.9387755102041 292.10199852549596 633.469387755102 292.9283997473845 640 293.5839263214691 640 320 0 320"
      />
      
      <polygon
        fill="#244776"
        fillRule="evenodd"
        points="0 319.92567425360795 6.530612244897958 319.85646897953103 13.061224489795917 319.8272328894989 19.591836734693878 318.6603028391759 26.122448979591834 318.6387622487105 32.6530612244898 318.51536244681023 39.183673469387756 318.37401969653604 45.71428571428571 316.61217977691757 52.24489795918367 316.69341787066173 58.775510204081634 313.13944213047023 65.3061224489796 312.1963598206811 71.83673469387755 310.8820299668514 78.36734693877551 310.8639647440626 84.89795918367348 310.0035357670312 91.42857142857142 308.6617069213235 97.9591836734694 305.87144522659145 104.48979591836734 303.79316195715364 111.0204081632653 303.0244402400956 117.55102040816327 303.315288667556 124.08163265306122 302.4901893825367 130.6122448979592 302.9132401162006 137.14285714285714 300.975684361502 143.6734693877551 301.556387094604 150.20408163265307 299.63115863540924 156.73469387755102 295.8211865394647 163.26530612244898 294.0784461608831 169.79591836734696 290.7161416592193 176.32653061224488 287.7123901923914 182.85714285714283 287.3468058135649 189.3877551020408 286.1158259586782 195.9183673469388 284.9372990843161 202.44897959183675 282.37655001128377 208.97959183673467 277.9438513461901 215.51020408163265 278.07965167466614 222.0408163265306 276.03281111689273 228.57142857142858 276.2116864714781 235.10204081632654 274.14901031863343 241.63265306122446 270.3047269327006 248.16326530612244 268.08696438534685 254.69387755102042 269.66605563599614 261.2244897959184 271.14818214536126 267.7551020408163 270.41253025279934 274.2857142857143 270.81016983535727 280.81632653061223 272.162900955602 287.3469387755102 273.56148052201485 293.8775510204082 274.9228838677976 300.40816326530614 276.29331210319134 306.9387755102041 276.46435188721637 313.46938775510205 274.63325430047547 320 273.79908313753435 326.53061224489795 272.04436380167914 333.0612244897959 270.1436065835207 339.5918367346939 268.24948054321106 346.12244897959187 268.7285881776144 352.65306122448976 266.93233479180753 359.1836734693877 266.1732590259117 365.71428571428567 266.70013714725854 372.2448979591837 268.2753840183772 378.7755102040816 269.77300608691337 385.3061224489796 270.14566884941723 391.8367346938776 271.6310191185936 398.36734693877554 270.8758887678857 404.8979591836735 271.21140020647437 411.42857142857144 272.69783218294106 417.95918367346934 274.095838600878 424.48979591836735 275.46914285381206 431.0204081632653 275.7089887424628 437.55102040816325 272.9524714262658 444.0816326530612 274.3609416776235 450.61224489795916 275.709776847305 457.14285714285717 277.06172097242495 463.6734693877551 276.49362725918877 470.2040816326531 276.6994678110426 476.7346938775511 278.02118631730866 483.2653061224489 279.09846881503955 489.7959183673469 280.34696200354705 496.3265306122449 279.2673536203912 502.85714285714283 280.4775139853304 509.38775510204084 281.61129589388077 515.9183673469388 281.5274743164275 522.4489795918367 282.68516375013604 528.9795918367347 283.78243318262605 535.5102040816327 284.8879616867087 542.0408163265306 282.61007647046785 548.5714285714286 282.8417842261698 555.1020408163265 283.97601125469106 561.6326530612245 285.04067081998824 568.1632653061224 286.10778974505064 574.6938775510204 287.1094538400456 581.2244897959183 288.1134222118022 587.7551020408164 289.08673644939404 594.2857142857143 289.9403023895706 600.8163265306123 290.85787546156763 607.3469387755102 291.71915301276334 613.8775510204082 290.4027812481309 620.4081632653061 291.2775221063462 626.9387755102041 292.1542718098964 633.469387755102 292.9790774205415 640 293.633376836268 640 320 0 320"
      />
      
      <polygon
        fill="#563d7c"
        fillRule="evenodd"
        points="0 319.92567425360795 6.530612244897958 319.85646897953103 13.061224489795917 319.8272328894989 19.591836734693878 318.6603028391759 26.122448979591834 318.6387622487105 32.6530612244898 318.51536244681023 39.183673469387756 318.37401969653604 45.71428571428571 316.61217977691757 52.24489795918367 316.69341787066173 58.775510204081634 314.2496023688391 65.3061224489796 313.2726330921068 71.83673469387755 311.9264945253809 78.36734693877551 311.8765476360535 84.89795918367348 310.9852101529737 91.42857142857142 309.61436846565505 97.9591836734694 306.79502724351767 104.48979591836734 305.7914256230797 111.0204081632653 304.9617080847854 117.55102040816327 305.19342234466427 124.08163265306122 304.31463935117137 130.6122448979592 304.6819999456896 137.14285714285714 303.81182913996946 143.6734693877551 304.30596025155074 150.20408163265307 302.29946934648046 156.73469387755102 298.40804872149624 163.26530612244898 296.58634599181016 169.79591836734696 293.1499216168785 176.32653061224488 290.0718805311243 182.85714285714283 289.636562745225 189.3877551020408 288.33568919075515 195.9183673469388 287.0894022539741 202.44897959183675 284.4692301785868 208.97959183673467 279.97265350961993 215.51020408163265 280.04849375308004 222.0408163265306 277.9415554231344 228.57142857142858 278.0640188085198 235.10204081632654 275.94480121944747 241.63265306122446 273.17508902453466 248.16326530612244 271.62232112295203 254.69387755102042 273.09349790708694 261.2244897959184 274.4743280783321 267.7551020408163 273.6371475262619 274.2857142857143 273.9363577460987 280.81632653061223 275.2027693972715 287.3469387755102 276.50855881477713 293.8775510204082 277.7828627040228 300.40816326530614 279.06599183650286 306.9387755102041 279.15508669846434 313.46938775510205 277.2418557432087 320 276.328058453768 326.53061224489795 274.49859656989327 333.0612244897959 272.52292541403136 339.5918367346939 270.558479665967 346.12244897959187 270.96710668359566 352.65306122448976 269.10252388870344 359.1836734693877 268.28352554212904 365.71428571428567 268.7459888851964 372.2448979591837 270.2607717774078 378.7755102040816 271.6977910496127 385.3061224489796 272.01356795249507 391.8367346938776 273.4419013537483 398.36734693877554 272.6314949528796 404.8979591836735 272.91512052790017 411.42857142857144 274.3495473461805 417.95918367346934 275.6987380672552 424.48979591836735 277.0231149323279 431.0204081632653 277.215526773629 437.55102040816325 275.3902755479461 444.0816326530612 276.7243331867014 450.61224489795916 278.0033197647562 457.14285714285717 279.28525480023586 463.6734693877551 278.65144578160306 470.2040816326531 278.7914200859464 476.7346938775511 280.04928298819 483.2653061224489 281.06662615673 489.7959183673469 282.2550425343935 496.3265306122449 281.11904170484337 502.85714285714283 282.272680361864 509.38775510204084 283.3516657620135 515.9183673469388 283.21978992849773 522.4489795918367 284.3258223264718 528.9795918367347 285.37460296634407 535.5102040816327 286.4315312950648 542.0408163265306 284.1080267276437 548.5714285714286 284.29401042827567 555.1020408163265 285.38390907683413 561.6326530612245 286.4069589669953 568.1632653061224 287.43237276067686 574.6938775510204 288.3948894173462 581.2244897959183 289.3596207513739 587.7551020408164 290.29489552124164 594.2857142857143 291.11510212398815 600.8163265306123 291.9968150898914 607.3469387755102 292.8244319331874 613.8775510204082 291.47432208869355 620.4081632653061 292.3173941817043 626.9387755102041 293.1624024232865 633.469387755102 293.9564354168864 640 294.58706815722655 640 320 0 320"
      />
      
      <polygon
        fill="#178600"
        fillRule="evenodd"
        points="0 320 6.530612244897958 320 13.061224489795917 320 19.591836734693878 320 26.122448979591834 320 32.6530612244898 320 39.183673469387756 320 45.71428571428571 320 52.24489795918367 320 58.775510204081634 318.73032847182526 65.3061224489796 318.7690845395468 71.83673469387755 318.8054636337433 78.36734693877551 318.8419261211458 84.89795918367348 318.8772756031179 91.42857142857142 318.9104571802641 97.9591836734694 318.9437147627755 104.48979591836734 318.97493281832163 111.0204081632653 319.00622238898774 117.55102040816327 319.0365568526212 124.08163265306122 319.06409545524457 130.6122448979592 319.0926634440388 137.14285714285714 319.1194792507427 143.6734693877551 319.1463566673114 150.20408163265307 319.1715856603647 156.73469387755102 319.1856776633801 163.26530612244898 319.21053437707826 169.79591836734696 319.23386662680224 176.32653061224488 319.25725236901394 182.85714285714283 319.27920390426505 189.3877551020408 318.1941405820311 195.9183673469388 318.24926339871706 202.44897959183675 318.29760404406466 208.97959183673467 316.1388741148771 215.51020408163265 316.2474849290468 222.0408163265306 316.36202816902227 228.57142857142858 316.46954633285526 235.10204081632654 316.57731163485863 241.63265306122446 316.24156003493385 248.16326530612244 315.6381779563827 254.69387755102042 315.7713202034814 261.2244897959184 315.89629657469686 267.7551020408163 316.0215595201503 274.2857142857143 316.14299918097845 280.81632653061223 316.2494972371109 287.3469387755102 316.36397936042925 293.8775510204082 316.47144008611275 300.40816326530614 316.57914732318176 306.9387755102041 316.68024871067365 313.46938775510205 315.97581131845214 320 316.09864727089723 326.53061224489795 314.31084397192444 333.0612244897959 314.4845022060312 339.5918367346939 313.52091056202687 346.12244897959187 313.71868100249725 352.65306122448976 313.91041478592945 359.1836734693877 312.97612296878043 365.71428571428567 313.1905223494964 372.2448979591837 313.39177285339196 378.7755102040816 313.59348556485105 385.3061224489796 313.7828266126614 391.8367346938776 313.97260239225494 398.36734693877554 314.15658496419786 404.8979591836735 314.3292840120331 411.42857142857144 314.5023793419994 417.95918367346934 314.66485884836464 424.48979591836735 314.8277109731653 431.0204081632653 314.9855921086919 437.55102040816325 313.212902441159 444.0816326530612 313.4200749621224 450.61224489795916 313.61454091084215 457.14285714285717 313.80945331530376 463.6734693877551 313.19872539063664 470.2040816326531 313.4063308041294 476.7346938775511 313.60759890937567 483.2653061224489 313.79652264180055 489.7959183673469 313.98587998601613 496.3265306122449 314.16362424061276 502.85714285714283 314.34177611084294 509.38775510204084 314.5144902631647 515.9183673469388 314.6659540469412 522.4489795918367 314.828772911046 528.9795918367347 314.9816057572629 535.5102040816327 315.1347895002251 542.0408163265306 315.27857814980376 548.5714285714286 315.4226967347994 555.1020408163265 315.5624163179036 561.6326530612245 315.69356682781034 568.1632653061224 315.8250179889255 574.6938775510204 315.94840746428906 581.2244897959183 316.0720798867588 587.7551020408164 316.1919774822622 594.2857142857143 316.29712330666774 600.8163265306123 316.4101514844413 607.3469387755102 316.5162475557284 613.8775510204082 316.6225873127317 620.4081632653061 316.72240461336395 626.9387755102041 316.82245135833944 633.469387755102 316.91944415081286 640 316.9940396407293 640 320 0 320"
      />
      
      <polygon
        fill="#555555"
        fillRule="evenodd"
        points="0 320 6.530612244897958 320 13.061224489795917 320 19.591836734693878 320 26.122448979591834 320 32.6530612244898 320 39.183673469387756 320 45.71428571428571 320 52.24489795918367 320 58.775510204081634 318.73032847182526 65.3061224489796 318.7690845395468 71.83673469387755 318.8054636337433 78.36734693877551 318.8419261211458 84.89795918367348 318.8772756031179 91.42857142857142 318.9104571802641 97.9591836734694 318.9437147627755 104.48979591836734 318.97493281832163 111.0204081632653 319.00622238898774 117.55102040816327 319.0365568526212 124.08163265306122 319.06409545524457 130.6122448979592 319.0926634440388 137.14285714285714 319.1194792507427 143.6734693877551 319.1463566673114 150.20408163265307 319.1715856603647 156.73469387755102 319.1856776633801 163.26530612244898 319.21053437707826 169.79591836734696 319.23386662680224 176.32653061224488 319.25725236901394 182.85714285714283 319.27920390426505 189.3877551020408 318.1941405820311 195.9183673469388 318.24926339871706 202.44897959183675 318.29760404406466 208.97959183673467 317.24284891187773 215.51020408163265 317.31883228832936 222.0408163265306 317.4006732874154 228.57142857142858 317.47749492176973 235.10204081632654 317.55449310393897 241.63265306122446 317.1889135338878 248.16326530612244 316.55753297761134 254.69387755102042 316.66261242447735 261.2244897959184 316.76124708491363 267.7551020408163 316.8601080043932 274.2857142857143 316.9559514173667 280.81632653061223 317.04000254191476 287.3469387755102 317.1303549088947 293.8775510204082 317.21516583021673 300.40816326530614 317.3001712603349 306.9387755102041 317.3799632279317 313.46938775510205 317.4599384016476 320 317.5374721971299 326.53061224489795 316.50570938151833 333.0612244897959 316.6123705866558 339.5918367346939 315.58589084778083 346.12244897959187 315.720629032873 352.65306122448976 315.8512544820569 359.1836734693877 314.86337276865345 365.71428571428567 315.0201650762032 372.2448979591837 315.167341518262 378.7755102040816 315.3148560439404 385.3061224489796 315.4533228177748 391.8367346938776 315.5921075975644 398.36734693877554 315.72665565107894 404.8979591836735 315.85295217496895 411.42857142857144 315.97953842757124 417.95918367346934 316.0983612412428 424.48979591836735 316.2174564905309 431.0204081632653 316.33291652146397 437.55102040816325 315.5852541988105 444.0816326530612 315.72001200946 450.61224489795916 315.8465044806686 457.14285714285717 315.97328773893116 463.6734693877551 316.0922949609157 470.2040816326531 316.21157550218055 476.7346938775511 316.3272151429265 483.2653061224489 316.43576214834684 489.7959183673469 316.54455842917105 496.3265306122449 316.64668222599954 502.85714285714283 316.7490401937454 509.38775510204084 316.84827399881465 515.9183673469388 316.9352981384222 522.4489795918367 317.0288464914534 528.9795918367347 317.1166575028839 535.5102040816327 317.2046698047168 542.0408163265306 317.2872842562656 548.5714285714286 317.3700883872849 555.1020408163265 317.45036503422216 561.6326530612245 317.5257181323032 568.1632653061224 317.60124395583927 574.6938775510204 317.6721379423376 581.2244897959183 317.74319465655935 587.7551020408164 317.8120823459627 594.2857142857143 317.8724944353074 600.8163265306123 317.93743527100025 607.3469387755102 317.99839317689276 613.8775510204082 318.05949129763115 620.4081632653061 318.1168417692038 626.9387755102041 318.17432417384254 633.469387755102 318.2300518173256 640 318.2729110342302 640 320 0 320"
      />
      
      <polygon
        fill="#C1F12E"
        fillRule="evenodd"
        points="0 320 6.530612244897958 320 13.061224489795917 320 19.591836734693878 320 26.122448979591834 320 32.6530612244898 320 39.183673469387756 320 45.71428571428571 320 52.24489795918367 320 58.775510204081634 319.0077744623193 65.3061224489796 319.038061629387 71.83673469387755 319.06649125286435 78.36734693877551 319.09498602086194 84.89795918367348 319.12261099648794 91.42857142857142 319.14854180358213 97.9591836734694 319.1745320011064 104.48979591836734 319.1989283670452 111.0204081632653 319.2233805990339 117.55102040816327 319.24708645360874 124.08163265306122 319.268607367141 130.6122448979592 319.29093275384685 137.14285714285714 319.311888810958 143.6734693877551 319.3328930380236 150.20408163265307 319.3526090373396 156.73469387755102 319.36117540816986 163.26530612244898 319.38067515644923 169.79591836734696 319.3989789890248 176.32653061224488 319.41732477508236 182.85714285714283 319.43454546184506 189.3877551020408 319.44084471089565 195.9183673469388 319.45791259574037 202.44897959183675 319.4728805459487 208.97959183673467 319.48621071770833 215.51020408163265 319.5013954532617 222.0408163265306 319.5166150832615 228.57142857142858 319.5309012662679 235.10204081632654 319.54522024758796 241.63265306122446 319.3091073968242 248.16326530612244 318.6150657239818 254.69387755102042 318.657340202029 261.2244897959184 318.6970216404675 267.7551020408163 318.7367943223349 274.2857142857143 318.77535289118845 280.81632653061223 318.80916741824706 287.3469387755102 318.8455168275037 293.8775510204082 318.8796370919754 300.40816326530614 318.91383544767 306.9387755102041 318.9459364888943 313.46938775510205 318.9781112030223 320 319.0093037145184 326.53061224489795 319.0385832993067 333.0612244897959 319.0679299808958 339.5918367346939 319.0954768652989 346.12244897959187 319.12308683918997 352.65306122448976 319.1498541471343 359.1836734693877 319.1733280605019 365.71428571428567 319.19856172875336 372.2448979591837 319.22224779336835 378.7755102040816 319.24598824441006 385.3061224489796 319.268272643499 391.8367346938776 319.2906082026141 398.36734693877554 319.31226203562795 404.8979591836735 319.33258774244246 411.42857142857144 319.352960067662 417.95918367346934 319.3720829949651 424.48979591836735 319.391249838306 431.0204081632653 319.4098316448098 437.55102040816325 318.5742204180663 444.0816326530612 318.61774147863593 450.61224489795916 318.65859346340596 457.14285714285717 318.6995390548919 463.6734693877551 318.7379734998016 470.2040816326531 318.776496105592 476.7346938775511 318.8138429247187 483.2653061224489 318.84889910222245 489.7959183673469 318.8840358369877 496.3265306122449 318.9170175622541 502.85714285714283 318.95007491270485 509.38775510204084 318.9821233451052 515.9183673469388 319.01022847900083 522.4489795918367 319.0404407401455 528.9795918367347 319.0688000815222 535.5102040816327 319.0972243619159 542.0408163265306 319.1239053585085 548.5714285714286 319.1506476978119 555.1020408163265 319.17657377833206 561.6326530612245 319.20090967494883 568.1632653061224 319.2253013656894 574.6938775510204 319.2481971985038 581.2244897959183 319.2711456093166 587.7551020408164 319.2933934185575 594.2857142857143 319.3129039968565 600.8163265306123 319.33387721348646 607.3469387755102 319.3535641135468 613.8775510204082 319.3732961832145 620.4081632653061 319.3918180547047 626.9387755102041 319.410382465361 633.469387755102 319.4283802317184 640 319.44222198318965 640 320 0 320"
      />
      

      
        <g id="labels">
        
          
          <text x="0" y="330">
            Jul 2014
          </text>
          
        
          
        
          
        
          
        
          
        
          
        
          
        
          
        
          
        
          
        
          
        
          
        
          
        
          
          <text x="84.04040404040404" y="330">
            Aug 2015
          </text>
          
        
          
        
          
        
          
        
          
        
          
        
          
        
          
        
          
        
          
        
          
        
          
        
          
        
          
          <text x="168.08080808080808" y="330">
            Sep 2016
          </text>
          
        
          
        
          
        
          
        
          
        
          
        
          
        
          
        
          
        
          
        
          
        
          
        
          
        
          
          <text x="252.12121212121212" y="330">
            Oct 2017
          </text>
          
        
          
        
          
        
          
        
          
        
          
        
          
        
          
        
          
        
          
        
          
        
          
        
          
        
          
          <text x="336.16161616161617" y="330">
            Nov 2018
          </text>
          
        
          
        
          
        
          
        
          
        
          
        
          
        
          
        
          
        
          
        
          
        
          
        
          
        
          
          <text x="420.2020202020202" y="330">
            Dec 2019
          </text>
          
        
          
        
          
        
          
        
          
        
          
        
          
        
          
        
          
        
          
        
          
        
          
        
          
        
          
          <text x="504.24242424242425" y="330">
            Jan 2021
          </text>
          
        
          
        
          
        
          
        
          
        
          
        
          
        
          
        
          
        
          
        
          
        
          
        
          
        
          
          <text x="588.2828282828283" y="330">
            Feb 2022
          </text>
          
        
          
        
          
        
          
        
          
        
          
        
          
        
          
        
        </g>
      

      
        <text text-anchor="middle" y="370" x="320" id="legend">
          
          <tspan xml:space="preserve" fill="#C1F12E">   </tspan> Batchfile
          
          <tspan xml:space="preserve" fill="#555555">   </tspan> C
          
          <tspan xml:space="preserve" fill="#178600">   </tspan> C#
          
          <tspan xml:space="preserve" fill="#563d7c">   </tspan> CSS
          
          <tspan xml:space="preserve" fill="#244776">   </tspan> CoffeeScript
          
          <tspan xml:space="preserve" fill="#00ADD8">   </tspan> Go
          
          <tspan xml:space="preserve" fill="#e34c26">   </tspan> HTML
          
          <tspan xml:space="preserve" fill="#22e4e8">   </tspan> JSON
          
        </text>
      
        <text text-anchor="middle" y="400" x="320" id="legend">
          
          <tspan xml:space="preserve" fill="#22e8e8">   </tspan> JSon
          
          <tspan xml:space="preserve" fill="#f1e05a">   </tspan> JavaScript
          
          <tspan xml:space="preserve" fill="#2415b9">   </tspan> Less
          
          <tspan xml:space="preserve" fill="#755462">   </tspan> MySQL
          
          <tspan xml:space="preserve" fill="#4F5D95">   </tspan> PHP
          
          <tspan xml:space="preserve" fill="#fd2fdb">   </tspan> PLpgSQL
          
          <tspan xml:space="preserve" fill="#0298c3">   </tspan> Perl
          
          <tspan xml:space="preserve" fill="#3572A5">   </tspan> Python
          
        </text>
      
        <text text-anchor="middle" y="430" x="320" id="legend">
          
          <tspan xml:space="preserve" fill="#701516">   </tspan> Ruby
          
          <tspan xml:space="preserve" fill="#dea584">   </tspan> Rust
          
          <tspan xml:space="preserve" fill="#26c0b0">   </tspan> SCSS
          
          <tspan xml:space="preserve" fill="#0141ae">   </tspan> SQL
          
          <tspan xml:space="preserve" fill="#89e051">   </tspan> Shell
          
          <tspan xml:space="preserve" fill="#2770da">   </tspan> TSQL
          
          <tspan xml:space="preserve" fill="#2b7489">   </tspan> TypeScript
          
          <tspan xml:space="preserve" fill="#2c3e50">   </tspan> Vue
          
        </text>
      
        <text text-anchor="middle" y="460" x="320" id="legend">
          
          <tspan xml:space="preserve" fill="#4B6C4B">   </tspan> Yacc
          
        </text>
      

    </svg>