<svg
      xmlns="http://www.w3.org/2000/svg"
      viewBox="0 0 640 490"
      style="background-color: #292b3e"
    >
      <style>
        text {
          font-size: 12px;
          font-family: Open Sans, Helvetica Neue, Helvetica, Arial, sans-serif;
        }
        #labels text {
          dominant-baseline: hanging;
          font-size: 10px;
          fill: rgba(0,0,0,0.5);
        }
        #legend {
          font-weight: 600;
        }
        #legend tspan {
          font-size: 15px;
        }
        #branding-text {
          font-size: 9px;
          dominant-baseline: hanging;
          opacity: 0.5;
        }
        #branding-logo {
          opacity: 0.5;
        }
      </style>

      
      
      <polygon
        fill="#4B6C4B"
        fillRule="evenodd"
        points="0 313.61355115210114 6.4 304.26911215263044 12.8 297.26804656824345 19.2 285.9388238182707 25.6 278.8280029663046 32 274.98421352473554 38.4 267.09073983451174 44.800000000000004 257.07881982365456 51.2 246.22213468226033 57.599999999999994 230.99230357119757 64 221.54623823933014 70.4 206.62809528000247 76.8 198.27733421334403 83.2 192.17035949523097 89.60000000000001 182.1295012084012 96 170.6173256068982 102.4 156.95191246939768 108.80000000000001 154.80424208718884 115.19999999999999 149.8879764773258 121.6 142.52564659282262 128 138.2861990426005 134.4 123.78687821465729 140.8 127.17493511520212 147.20000000000002 110.77248397655632 153.6 93.05727775919092 160 88.0189574449721 166.4 78.10633137108496 172.8 68.78381752617759 179.20000000000002 65.97373006059956 185.6 62.13352459423163 192 59.18922689936164 198.4 46.68400484249179 204.8 33.29420107674332 211.20000000000002 31.646453597725042 217.60000000000002 27.41467425579907 224 27.52891023720025 230.39999999999998 25.25123982332053 236.8 13.936299627369408 243.2 9.6430824981515 249.60000000000002 9.883870586645912 256 12.937958068496073 262.4 8.247042006744095 268.8 10.710392532949697 275.2 10.1590427071705 281.6 11.455641872858564 288 14.195667903983406 294.40000000000003 17.69311702603261 300.79999999999995 18.068056580177256 307.2 12.038859503169988 313.6 13.322784438416136 320 11.292687052105407 326.4 7.029616130472959 332.8 1.9718460793344548 339.20000000000005 4.695476985530547 345.6 0.06664320663020362 352 0 358.40000000000003 3.134154360859668 364.79999999999995 11.121801098143635 371.2 13.499913770393789 377.59999999999997 18.048034431543897 384 21.31468955457558 390.4 21.568662784281173 396.8 27.066543711845043 403.2 30.681045412958838 409.6 36.74792269221723 416 42.80368107920759 422.40000000000003 46.96048646952096 428.8 38.514868651258325 435.20000000000005 42.631248455710875 441.59999999999997 50.61547534426518 448 58.06901622237933 454.4 55.542230037739785 460.79999999999995 58.407903050545485 467.2 64.84940304362595 473.6 68.96526173397231 480 76.40572308965889 486.4 74.31957454565628 492.8 74.99073397905147 499.20000000000005 75.05200213279679 505.6 74.49023436183461 512 78.43681858891128 518.4000000000001 85.3359848041012 524.8 88.56511960277993 531.1999999999999 82.0254463990565 537.6 83.08741851971473 544 90.29401026895226 550.4 88.15327509633877 556.8 86.74201748356683 563.2 87.76618872093522 569.6 85.9000582264054 576 86.43118155938299 582.4 86.68139093919149 588.8000000000001 89.2713594336991 595.2 85.21675246588373 601.5999999999999 69.72126974399703 608 69.36931979235393 614.4 67.0081490217625 620.8 64.10065424921041 627.2 60.65574290236685 633.6 56.629234955054585 640 57.80312702087281 640 320 0 320"
      />
      
      <polygon
        fill="#2c3e50"
        fillRule="evenodd"
        points="0 313.61355115210114 6.4 304.26911215263044 12.8 297.26804656824345 19.2 285.9388238182707 25.6 278.8280029663046 32 274.98421352473554 38.4 267.09073983451174 44.800000000000004 257.07881982365456 51.2 246.22213468226033 57.599999999999994 230.99230357119757 64 221.54623823933014 70.4 206.62809528000247 76.8 198.27733421334403 83.2 192.17035949523097 89.60000000000001 182.1295012084012 96 170.6173256068982 102.4 156.95191246939768 108.80000000000001 154.80424208718884 115.19999999999999 149.8879764773258 121.6 142.52564659282262 128 138.2861990426005 134.4 123.78687821465729 140.8 127.17493511520212 147.20000000000002 110.77248397655632 153.6 93.05727775919092 160 88.0189574449721 166.4 78.10633137108496 172.8 68.78381752617759 179.20000000000002 65.97373006059956 185.6 62.13352459423163 192 59.18922689936164 198.4 46.68400484249179 204.8 33.29420107674332 211.20000000000002 31.646453597725042 217.60000000000002 27.41467425579907 224 27.52891023720025 230.39999999999998 25.25123982332053 236.8 13.936299627369408 243.2 9.6430824981515 249.60000000000002 9.883870586645912 256 12.937958068496073 262.4 8.247042006744095 268.8 10.710392532949697 275.2 10.1590427071705 281.6 11.455641872858564 288 14.195667903983406 294.40000000000003 17.69311702603261 300.79999999999995 18.068056580177256 307.2 12.038859503169988 313.6 13.322784438416136 320 11.292687052105407 326.4 7.029616130472959 332.8 1.9718460793344548 339.20000000000005 4.695476985530547 345.6 0.06664320663020362 352 0 358.40000000000003 3.134154360859668 364.79999999999995 11.121801098143635 371.2 13.499913770393789 377.59999999999997 18.048034431543897 384 21.31468955457558 390.4 21.568662784281173 396.8 27.066543711845043 403.2 30.681045412958838 409.6 36.74792269221723 416 42.80368107920759 422.40000000000003 46.96048646952096 428.8 38.514868651258325 435.20000000000005 42.631248455710875 441.59999999999997 50.61547534426518 448 58.06901622237933 454.4 56.64281694782329 460.79999999999995 59.474895221204065 467.2 65.88382583310812 473.6 69.96911273619634 480 77.37893212527979 486.4 75.26402083874527 492.8 75.90635166583098 499.20000000000005 75.9396710752452 505.6 75.35339324510534 512 79.27363011158715 518.4000000000001 86.1480648173441 524.8 89.35241132605395 531.1999999999999 82.78947012453256 537.6 83.82812088848527 544 91.01210313384925 550.4 88.85014510052287 556.8 87.41761592277811 563.2 88.42182019117914 569.6 86.53567693129244 576 87.04739837774454 582.4 87.28059297572332 588.8000000000001 89.8522712122001 595.2 85.78049568450558 601.5999999999999 70.26780505915096 608 69.89970250410556 614.4 67.52234211898445 620.8 64.59915190546312 627.2 61.13950772549481 633.6 57.098233139780405 640 58.26364107764675 640 320 0 320"
      />
      
      <polygon
        fill="#2b7489"
        fillRule="evenodd"
        points="0 313.61355115210114 6.4 304.26911215263044 12.8 297.26804656824345 19.2 285.9388238182707 25.6 278.8280029663046 32 274.98421352473554 38.4 267.09073983451174 44.800000000000004 257.07881982365456 51.2 246.22213468226033 57.599999999999994 230.99230357119757 64 221.54623823933014 70.4 206.62809528000247 76.8 198.27733421334403 83.2 192.17035949523097 89.60000000000001 182.1295012084012 96 170.6173256068982 102.4 156.95191246939768 108.80000000000001 154.80424208718884 115.19999999999999 149.8879764773258 121.6 142.52564659282262 128 138.2861990426005 134.4 123.78687821465729 140.8 127.17493511520212 147.20000000000002 110.77248397655632 153.6 93.05727775919092 160 88.0189574449721 166.4 78.10633137108496 172.8 68.78381752617759 179.20000000000002 65.97373006059956 185.6 62.13352459423163 192 59.18922689936164 198.4 46.68400484249179 204.8 33.29420107674332 211.20000000000002 31.646453597725042 217.60000000000002 27.41467425579907 224 27.52891023720025 230.39999999999998 25.25123982332053 236.8 13.936299627369408 243.2 9.6430824981515 249.60000000000002 9.883870586645912 256 12.937958068496073 262.4 8.247042006744095 268.8 10.710392532949697 275.2 10.1590427071705 281.6 11.455641872858564 288 14.195667903983406 294.40000000000003 17.69311702603261 300.79999999999995 18.068056580177256 307.2 12.038859503169988 313.6 13.322784438416136 320 11.292687052105407 326.4 7.029616130472959 332.8 1.9718460793344548 339.20000000000005 4.695476985530547 345.6 0.06664320663020362 352 0 358.40000000000003 3.134154360859668 364.79999999999995 11.121801098143635 371.2 13.499913770393789 377.59999999999997 18.048034431543897 384 21.31468955457558 390.4 21.568662784281173 396.8 27.066543711845043 403.2 30.681045412958838 409.6 36.74792269221723 416 42.80368107920759 422.40000000000003 46.96048646952096 428.8 38.514868651258325 435.20000000000005 42.631248455710875 441.59999999999997 50.61547534426518 448 58.06901622237933 454.4 56.64281694782329 460.79999999999995 59.474895221204065 467.2 65.88382583310812 473.6 69.96911273619634 480 77.37893212527979 486.4 75.26402083874527 492.8 75.90635166583098 499.20000000000005 75.9396710752452 505.6 75.35339324510534 512 79.27363011158715 518.4000000000001 86.1480648173441 524.8 89.35241132605395 531.1999999999999 84.99957521680315 537.6 87.49739153120143 544 94.56937062449288 550.4 94.67101006532266 556.8 95.57910137451543 563.2 99.33782993244841 569.6 99.23025732839915 576 100.29089838958211 582.4 100.92504823862046 588.8000000000001 103.11107607533754 595.2 98.64744497856478 601.5999999999999 83.41161032796268 608 83.12843402801207 614.4 80.36977477352775 620.8 77.05442546269222 627.2 73.22667202015654 633.6 68.81644468396394 640 69.76986835801381 640 320 0 320"
      />
      
      <polygon
        fill="#2770da"
        fillRule="evenodd"
        points="0 313.61355115210114 6.4 304.26911215263044 12.8 297.26804656824345 19.2 285.9388238182707 25.6 278.8280029663046 32 274.98421352473554 38.4 267.09073983451174 44.800000000000004 257.07881982365456 51.2 246.22213468226033 57.599999999999994 230.99230357119757 64 221.54623823933014 70.4 206.62809528000247 76.8 198.27733421334403 83.2 192.17035949523097 89.60000000000001 182.1295012084012 96 170.6173256068982 102.4 156.95191246939768 108.80000000000001 154.80424208718884 115.19999999999999 149.8879764773258 121.6 142.52564659282262 128 138.2861990426005 134.4 123.78687821465729 140.8 127.17493511520212 147.20000000000002 110.77248397655632 153.6 93.05727775919092 160 88.0189574449721 166.4 78.10633137108496 172.8 68.78381752617759 179.20000000000002 65.97373006059956 185.6 62.13352459423163 192 59.18922689936164 198.4 46.68400484249179 204.8 33.29420107674332 211.20000000000002 31.646453597725042 217.60000000000002 27.41467425579907 224 27.52891023720025 230.39999999999998 25.25123982332053 236.8 14.574508597421982 243.2 11.080092747910442 249.60000000000002 11.277016896250757 256 14.289930680422344 262.4 9.557746389516865 268.8 11.981088318472757 275.2 11.394652622002639 281.6 12.653535475957426 288 15.358158442192178 294.40000000000003 18.820123222833274 300.79999999999995 19.161754714525955 307.2 13.099173127873883 313.6 14.350732643876086 320 12.290254691040786 326.4 7.996733640048433 332.8 2.910380867186973 339.20000000000005 5.6053635988888 345.6 0.9487560616376527 352 0.857756203973338 358.40000000000003 3.965728017809738 364.79999999999995 11.928798112877075 371.2 14.282277629528835 377.59999999999997 18.807275994654447 384 22.050755647706865 390.4 22.282260924147522 396.8 27.759051869371774 403.2 31.352415140765004 409.6 37.39945042783103 416 43.43532133449423 422.40000000000003 47.5728462598517 428.8 40.23041013790879 435.20000000000005 44.294423820798556 441.59999999999997 52.22949660290692 448 59.63377034781155 454.4 58.161325453690324 460.79999999999995 60.947052170603 467.2 67.31104601286364 473.6 71.35415225256173 480 78.72169418624483 486.4 76.56709817551402 492.8 77.16965334323461 499.20000000000005 77.16441120622738 505.6 76.54431628219322 512 80.42820096722605 518.4000000000001 87.2685128930691 524.8 90.438658427895 531.1999999999999 86.05371881323686 537.6 88.51935805207984 544 95.560142066888 550.4 95.63249986958968 556.8 96.51124223835424 563.2 100.24242185844426 569.6 100.10723712431604 576 101.14110887544544 582.4 101.75178311707157 588.8000000000001 103.91257529361445 595.2 99.42525626351656 601.5999999999999 84.176776548515 608 84.1346686619276 614.4 81.5406366903542 620.8 78.21157502394135 627.2 74.3496228166812 633.6 69.92178467770927 640 70.85521288977216 640 320 0 320"
      />
      
      <polygon
        fill="#509e5b"
        fillRule="evenodd"
        points="0 313.61355115210114 6.4 304.90984176336235 12.8 298.3344769958872 19.2 288.07682317848366 25.6 281.2713470052762 32 277.3529761345215 38.4 269.9999361123733 44.800000000000004 260.0717367720503 51.2 250.17318320427498 57.599999999999994 235.18157510917905 64 226.78745674997168 70.4 213.32787485340782 76.8 205.8137019274398 83.2 200.42204790789498 89.60000000000001 190.45084852919527 96 178.68467045077026 102.4 164.78083146563813 108.80000000000001 162.3941875697525 115.19999999999999 158.35643480972638 121.6 150.82944393978642 128 146.47030464327747 134.4 132.58693652097492 140.8 135.70637555655549 147.20000000000002 119.05178380003801 153.6 102.4344435275512 160 97.17066091896959 166.4 87.08402253898811 172.8 77.51852889539433 179.20000000000002 74.59625414687079 185.6 71.29278092757559 192 68.12756009316675 198.4 55.43687036496573 204.8 42.603063744378005 211.20000000000002 40.8163426669704 217.60000000000002 36.30465871022432 224 36.657290124782435 230.39999999999998 34.26584296340701 236.8 23.330785473122887 243.2 19.768519657455954 249.60000000000002 20.331856022884722 256 23.771745874115766 262.4 19.358006269366797 268.8 21.657416407129006 275.2 22.197683892981615 281.6 24.033454320548174 288 26.401745087779545 294.40000000000003 29.52661525252131 300.79999999999995 29.794892374674077 307.2 23.46956322490138 313.6 24.701231469042284 320 22.404202474327803 326.4 17.801960121391744 332.8 12.431471833695866 339.20000000000005 14.835826793265369 345.6 10.202318843934506 352 9.855812739634985 358.40000000000003 12.717280991304108 364.79999999999995 20.45558031029833 371.2 22.802401523061405 377.59999999999997 27.111423827336864 384 30.80872073224873 390.4 30.77289449104586 396.8 35.99875173872982 403.2 39.34059809448297 409.6 45.23240139698191 416 51.02917610455404 422.40000000000003 55.06969467983242 428.8 47.53780001428913 435.20000000000005 51.378760516905345 441.59999999999997 59.10445779565134 448 66.29888050277384 454.4 64.91787364384999 460.79999999999995 67.49736206934983 467.2 73.66140899811137 473.6 78.6328281934218 480 85.77819239049077 486.4 83.4150414507009 492.8 83.84701354433301 499.20000000000005 83.63794407953097 505.6 82.83910585733526 512 87.04903340132805 518.4000000000001 93.69367031157591 524.8 96.66769180630052 531.1999999999999 92.0986572817302 537.6 94.37977930157186 544 101.24167657698041 550.4 101.14611873721321 556.8 101.85656250828376 563.2 105.42976256593647 569.6 105.13623658372765 576 106.01660196071438 582.4 106.49265731964726 588.8000000000001 108.50873516572878 595.2 104.55198893784848 601.5999999999999 89.14701925040148 608 88.95801767184838 614.4 86.2167573463376 620.8 82.74495798205453 627.2 78.74902518506036 633.6 74.18689686577386 640 75.04316972099045 640 320 0 320"
      />
      
      <polygon
        fill="#89e051"
        fillRule="evenodd"
        points="0 313.61355115210114 6.4 304.90984176336235 12.8 298.3344769958872 19.2 288.07682317848366 25.6 281.2713470052762 32 277.3529761345215 38.4 269.9999361123733 44.800000000000004 260.0717367720503 51.2 250.17318320427498 57.599999999999994 235.18157510917905 64 226.78745674997168 70.4 213.32787485340782 76.8 205.8137019274398 83.2 200.42204790789498 89.60000000000001 190.45084852919527 96 178.68467045077026 102.4 164.78083146563813 108.80000000000001 162.3941875697525 115.19999999999999 158.35643480972638 121.6 150.82944393978642 128 146.47030464327747 134.4 132.58693652097492 140.8 135.70637555655549 147.20000000000002 119.05178380003801 153.6 102.4344435275512 160 97.17066091896959 166.4 87.08402253898811 172.8 77.51852889539433 179.20000000000002 74.59625414687079 185.6 71.29278092757559 192 68.12756009316675 198.4 55.43687036496573 204.8 42.603063744378005 211.20000000000002 40.8163426669704 217.60000000000002 36.30465871022432 224 36.657290124782435 230.39999999999998 34.26584296340701 236.8 23.330785473122887 243.2 19.768519657455954 249.60000000000002 20.331856022884722 256 23.771745874115766 262.4 19.358006269366797 268.8 21.657416407129006 275.2 22.197683892981615 281.6 24.033454320548174 288 26.401745087779545 294.40000000000003 29.52661525252131 300.79999999999995 29.794892374674077 307.2 23.46956322490138 313.6 24.701231469042284 320 22.404202474327803 326.4 17.801960121391744 332.8 12.431471833695866 339.20000000000005 14.835826793265369 345.6 10.202318843934506 352 9.855812739634985 358.40000000000003 12.717280991304108 364.79999999999995 20.45558031029833 371.2 22.802401523061405 377.59999999999997 27.111423827336864 384 30.80872073224873 390.4 30.77289449104586 396.8 35.99875173872982 403.2 39.34059809448297 409.6 45.23240139698191 416 51.02917610455404 422.40000000000003 55.06969467983242 428.8 47.53780001428913 435.20000000000005 51.378760516905345 441.59999999999997 59.10445779565134 448 66.29888050277384 454.4 64.91787364384999 460.79999999999995 67.49736206934983 467.2 73.66140899811137 473.6 78.6328281934218 480 85.77819239049077 486.4 83.4150414507009 492.8 83.84701354433301 499.20000000000005 83.63794407953097 505.6 82.83910585733526 512 87.04903340132805 518.4000000000001 93.69367031157591 524.8 96.66769180630052 531.1999999999999 92.0986572817302 537.6 94.37977930157186 544 101.24167657698041 550.4 101.14611873721321 556.8 101.85656250828376 563.2 105.42976256593647 569.6 105.13623658372765 576 106.01660196071438 582.4 106.49265731964726 588.8000000000001 108.50873516572878 595.2 104.55198893784848 601.5999999999999 89.14701925040148 608 88.95801767184838 614.4 86.2167573463376 620.8 82.74495798205453 627.2 78.74902518506036 633.6 75.29820909095324 640 76.13437849224783 640 320 0 320"
      />
      
      <polygon
        fill="#0141ae"
        fillRule="evenodd"
        points="0 313.6957892742108 6.4 304.9895696196221 12.8 298.41184853183154 19.2 288.1545955741201 25.6 281.34682088042905 32 277.4261462087859 38.4 270.0708727161391 44.800000000000004 260.1686674928394 51.2 250.62553843439764 57.599999999999994 236.59142112309746 64 228.16529471472208 70.4 215.56291169743568 76.8 209.3479139106009 83.2 203.84838026357244 89.60000000000001 193.80952614676346 96 182.16692947656523 102.4 169.20014164888667 108.80000000000001 166.68970539573283 115.19999999999999 162.520833267116 121.6 154.8748096996723 128 151.50326271095477 134.4 138.33048316488566 140.8 141.27460309948205 147.20000000000002 124.45544519725755 153.6 107.98207553912803 160 102.6189848418035 166.4 92.52511244070041 172.8 83.0158870135532 179.20000000000002 79.93114029974794 185.6 76.4648229488642 192 73.61555692376257 198.4 61.0113807574229 204.8 50.21124969154556 211.20000000000002 49.30678059481613 217.60000000000002 44.53592976281851 224 46.72644940898954 230.39999999999998 45.53594140823242 236.8 38.06191497627566 243.2 34.379783250354535 249.60000000000002 35.187847219240496 256 40.45921247177574 262.4 36.76707374358392 268.8 38.535085469996545 275.2 38.6900673242809 281.6 40.02241860205527 288 41.96024488529781 294.40000000000003 45.10752311967019 300.79999999999995 44.91808706017571 307.2 38.142304129523495 313.6 38.9260976580257 320 36.36860054175651 326.4 33.699891620024516 332.8 28.417324796657397 339.20000000000005 30.37271587359396 345.6 26.293901151579064 352 25.536687641558217 358.40000000000003 28.08381921616757 364.79999999999995 35.367975971726594 371.2 37.58884015919642 377.59999999999997 41.46085064732574 384 45.37441090657035 390.4 45.022012113421624 396.8 49.82675219046189 403.2 53.20078343089216 409.6 58.85794522730612 416 64.62539462731883 422.40000000000003 68.6308512730298 428.8 63.21845708281353 435.20000000000005 66.93882522134064 441.59999999999997 74.20465564483601 448 80.93815829277472 454.4 80.26641492540918 460.79999999999995 82.74330073751202 467.2 88.44197024254203 473.6 93.40770110909818 480 100.10207105185461 486.4 98.34494495780206 492.8 99.94038167484155 499.20000000000005 99.86323704844784 505.6 98.67414926473225 512 102.4007188819458 518.4000000000001 108.59165095058816 524.8 111.11091748232238 531.1999999999999 106.11501786242411 537.6 107.96830070173928 544 114.41541441532667 550.4 113.9305184207602 556.8 114.39442718767282 563.2 117.59707516614321 569.6 116.93215248657356 576 117.45245199649318 582.4 117.64298181690324 588.8000000000001 119.31870833502143 595.2 115.0507686016239 601.5999999999999 99.80071647883824 608 99.3838714402693 614.4 97.9202944203071 620.8 95.72575245617725 627.2 92.85908289770009 633.6 90.30681313350999 640 90.8771322842731 640 320 0 320"
      />
      
      <polygon
        fill="#26c0b0"
        fillRule="evenodd"
        points="0 313.6957892742108 6.4 305.07507072883624 12.8 298.52242161791594 19.2 288.3920356742462 25.6 281.7296700248811 32 277.855674728421 38.4 270.5454013004051 44.800000000000004 260.8000735258465 51.2 251.72753704875777 57.599999999999994 237.79090552651738 64 230.2054514295573 70.4 218.21680312180436 76.8 212.42854959441217 83.2 207.4760590095849 89.60000000000001 198.3097989420125 96 186.5298337562188 102.4 173.80645039960277 108.80000000000001 171.15540926360683 115.19999999999999 166.87832377029903 121.6 159.3525159823186 128 156.04890599036437 134.4 143.1236135448086 140.8 145.9242498048954 147.20000000000002 128.96767334704464 153.6 112.62425528553524 160 107.34727556929062 166.4 97.39184626004953 172.8 88.07451263721848 179.20000000000002 84.90342868330302 185.6 81.4789254808407 192 78.54025045645056 198.4 65.83908653807191 204.8 55.258040591054964 211.20000000000002 54.27459075524797 217.60000000000002 49.44589631922315 224 52.0314145005118 230.39999999999998 50.75694354094014 236.8 43.287733076626296 243.2 39.624204528468454 249.60000000000002 40.272185815102375 256 46.015468425410916 262.4 42.22624689994723 268.8 45.29507748288984 275.2 46.226267553263426 281.6 47.34233595390043 288 49.12234646076121 294.40000000000003 52.19642661078217 300.79999999999995 51.848121673724506 307.2 44.89923003457659 313.6 45.54055127259966 320 42.90198899822997 326.4 40.529938648478264 332.8 35.11173251624632 339.20000000000005 37.18659226573914 345.6 32.913534474471476 352 31.973543330091786 358.40000000000003 34.32982715942529 364.79999999999995 41.45133388117421 371.2 43.650778263933205 377.59999999999997 47.722401106341636 384 51.45040378660218 390.4 51.04938231829942 396.8 55.675984817879055 403.2 59.077790330418225 409.6 64.64963356611628 416 70.24029564748642 422.40000000000003 74.11933298844122 428.8 68.67694591349931 435.20000000000005 72.31807252937995 441.59999999999997 79.43582319915356 448 86.08174264104139 454.4 85.88901964427666 460.79999999999995 88.9522167905292 467.2 94.47252451410043 473.6 100.00826167940059 480 106.58865543379943 486.4 104.63982238556486 492.8 106.0985822080502 499.20000000000005 105.8334652372452 505.6 104.49612333033718 512 108.04497932320515 518.4000000000001 114.08019298119069 524.8 116.43192364038154 531.1999999999999 111.27876649356182 537.6 112.97442796252852 544 119.26873226609791 550.4 118.64039945175293 556.8 118.96054094973107 563.2 122.0282408293715 569.6 121.4712299385373 576 121.85297641237952 582.4 121.92199907117703 588.8000000000001 123.4699368111713 595.2 119.6608847102458 601.5999999999999 104.27011180080953 608 103.72117587724145 614.4 102.12520444404413 620.8 99.80231031474989 627.2 96.81516069968603 633.6 94.14213437434489 640 94.6430741013387 640 320 0 320"
      />
      
      <polygon
        fill="#dea584"
        fillRule="evenodd"
        points="0 313.6957892742108 6.4 305.07507072883624 12.8 298.52242161791594 19.2 288.3920356742462 25.6 281.7296700248811 32 277.855674728421 38.4 270.5454013004051 44.800000000000004 260.8000735258465 51.2 251.72753704875777 57.599999999999994 237.79090552651738 64 230.2054514295573 70.4 218.6051975853294 76.8 212.805088547132 83.2 207.8411043426461 89.60000000000001 198.6640555416883 96 187.99627555869495 102.4 176.3319035529636 108.80000000000001 173.60377446517302 115.19999999999999 169.2519540317844 121.6 162.75985830044664 128 159.35224087517616 134.4 148.55731087967547 140.8 151.1920871458675 147.20000000000002 136.3270678648476 153.6 123.07435329473631 160 117.47838944641828 166.4 107.22354145163112 172.8 98.7222831531814 179.20000000000002 95.23650802917507 185.6 91.49659336788329 192 88.25213409337604 198.4 76.38163365824607 204.8 66.58289125517308 211.20000000000002 65.2647409158219 217.60000000000002 60.10057688050273 224 62.371201471042184 230.39999999999998 60.7811161182247 236.8 53.00592319595114 243.2 49.05517925640385 249.60000000000002 49.4152834313237 256 54.88834782044779 262.4 51.931245768450424 268.8 54.70383731420873 275.2 55.37523639609282 281.6 56.21203775560764 288 57.72990826957761 294.40000000000003 60.54124804909026 300.79999999999995 61.06434657844261 307.2 54.08995301889115 313.6 54.4507325821541 320 51.54883541649974 326.4 48.91284394100438 332.8 43.246885198116445 339.20000000000005 45.07342453159379 345.6 41.66889418936199 352 40.48715277198011 358.40000000000003 42.58356341154149 364.79999999999995 49.46113268966201 371.2 51.47795664801504 377.59999999999997 55.31824966851036 384 58.8143938698592 390.4 58.18859042555863 396.8 62.60419764550272 403.2 65.79452340459713 409.6 71.16785650246385 416 76.55955377015846 422.40000000000003 80.24569973920094 428.8 74.62820019674894 435.20000000000005 78.087667321217 441.59999999999997 85.03490170544427 448 91.50991204240657 454.4 91.15676245377384 460.79999999999995 94.05916402715116 467.2 99.42358554669755 473.6 104.81299703089462 480 111.24672920919937 486.4 109.1602289464588 492.8 110.48100590151296 499.20000000000005 110.08211805699617 505.6 108.62746423368353 512 112.05021246465631 518.4000000000001 117.96705432344999 524.8 120.20014068619727 531.1999999999999 116.05398130945022 537.6 117.60388264213793 544 123.75687502908346 550.4 123.35407314717216 556.8 123.5303321916686 563.2 126.46297567228925 569.6 125.77059570930672 576 126.02110721900459 582.4 125.99999884299768 588.8000000000001 127.42345702300145 595.2 123.49756216949163 601.5999999999999 107.98967668176104 608 107.33081154447979 614.4 105.62465761486737 620.8 103.19494487114437 627.2 100.10752757011511 633.6 97.33400380622379 640 97.77720216703557 640 320 0 320"
      />
      
      <polygon
        fill="#701516"
        fillRule="evenodd"
        points="0 313.6957892742108 6.4 305.07507072883624 12.8 298.52242161791594 19.2 288.3920356742462 25.6 281.7296700248811 32 277.855674728421 38.4 270.5454013004051 44.800000000000004 260.8000735258465 51.2 251.72753704875777 57.599999999999994 237.79090552651738 64 230.2054514295573 70.4 218.6051975853294 76.8 212.805088547132 83.2 207.8411043426461 89.60000000000001 198.6640555416883 96 187.99627555869495 102.4 176.3319035529636 108.80000000000001 173.60377446517302 115.19999999999999 169.2519540317844 121.6 162.75985830044664 128 159.35224087517616 134.4 148.55731087967547 140.8 151.1920871458675 147.20000000000002 136.3270678648476 153.6 123.07435329473631 160 117.47838944641828 166.4 107.22354145163112 172.8 98.7222831531814 179.20000000000002 95.23650802917507 185.6 91.49659336788329 192 88.25213409337604 198.4 76.38163365824607 204.8 66.58289125517308 211.20000000000002 65.2647409158219 217.60000000000002 60.10057688050273 224 62.371201471042184 230.39999999999998 60.7811161182247 236.8 53.00592319595114 243.2 49.05517925640385 249.60000000000002 49.4152834313237 256 54.88834782044779 262.4 51.931245768450424 268.8 54.70383731420873 275.2 55.37523639609282 281.6 56.21203775560764 288 57.72990826957761 294.40000000000003 60.54124804909026 300.79999999999995 61.06434657844261 307.2 54.08995301889115 313.6 54.4507325821541 320 51.54883541649974 326.4 48.91284394100438 332.8 43.246885198116445 339.20000000000005 45.07342453159379 345.6 41.66889418936199 352 40.48715277198011 358.40000000000003 42.58356341154149 364.79999999999995 49.46113268966201 371.2 51.47795664801504 377.59999999999997 55.31824966851036 384 58.8143938698592 390.4 58.18859042555863 396.8 62.60419764550272 403.2 65.79452340459713 409.6 71.16785650246385 416 76.55955377015846 422.40000000000003 80.24569973920094 428.8 74.62820019674894 435.20000000000005 78.087667321217 441.59999999999997 85.03490170544427 448 91.50991204240657 454.4 91.15676245377384 460.79999999999995 94.05916402715116 467.2 99.42358554669755 473.6 104.81299703089462 480 111.24672920919937 486.4 109.1602289464588 492.8 110.48100590151296 499.20000000000005 110.08211805699617 505.6 108.62746423368353 512 112.05021246465631 518.4000000000001 117.96705432344999 524.8 120.20014068619727 531.1999999999999 116.05398130945022 537.6 117.60388264213793 544 123.75687502908346 550.4 123.35407314717216 556.8 123.5303321916686 563.2 126.46297567228925 569.6 125.77059570930672 576 126.02110721900459 582.4 125.99999884299768 588.8000000000001 127.42345702300145 595.2 123.49756216949163 601.5999999999999 108.00923291352467 608 107.3497898015579 614.4 105.64305657279175 620.8 103.21278221038338 627.2 100.12483773608866 633.6 97.35078558851802 640 97.79368036971815 640 320 0 320"
      />
      
      <polygon
        fill="#3572A5"
        fillRule="evenodd"
        points="0 313.6957892742108 6.4 305.07507072883624 12.8 298.52242161791594 19.2 288.3920356742462 25.6 281.7296700248811 32 277.855674728421 38.4 270.5454013004051 44.800000000000004 260.8000735258465 51.2 251.72753704875777 57.599999999999994 237.79090552651738 64 230.2054514295573 70.4 218.6051975853294 76.8 212.805088547132 83.2 207.8411043426461 89.60000000000001 198.6640555416883 96 187.99627555869495 102.4 176.3319035529636 108.80000000000001 173.60377446517302 115.19999999999999 169.2519540317844 121.6 163.42148614875137 128 159.99367289586763 134.4 149.21620488799942 140.8 151.83086879170554 147.20000000000002 137.9482133031471 153.6 125.43992238469414 160 119.77175087472807 166.4 109.44912391514339 172.8 100.8799309832172 179.20000000000002 97.33038739223875 185.6 93.52655835669816 192 90.22013575538409 198.4 78.29529544314514 204.8 68.47401067409612 211.20000000000002 67.09996911393057 217.60000000000002 61.87978603480252 224 64.09782697863531 230.39999999999998 62.45503724597734 236.8 54.62874903396971 243.2 50.630043214828675 249.60000000000002 50.94207525768445 256 56.370016485756935 262.4 53.40352077944141 268.8 56.13117206200184 275.2 56.7631601499607 281.6 57.55759589319962 288 59.035699070684245 294.40000000000003 61.80718027028797 300.79999999999995 62.29286488587525 307.2 55.28097171772163 313.6 55.60539591423594 320 52.6693733998776 326.4 49.999178073453436 332.8 44.301113256367955 339.20000000000005 46.09547294549998 345.6 42.65974511012223 352 41.45064479398752 358.40000000000003 43.51764525316514 364.79999999999995 50.36760825804811 371.2 52.379094167862206 377.59999999999997 56.19275438380885 384 59.66220495165993 390.4 59.0105225502229 396.8 63.40183809924679 403.2 66.56781629054888 409.6 71.91829513022316 416 77.28708567475675 422.40000000000003 80.95102411447266 428.8 75.3133638135296 435.20000000000005 78.75191681502696 441.59999999999997 85.67951964234527 448 92.13485339664606 454.4 91.76323391962973 460.79999999999995 94.64712346619098 467.2 99.99359777420906 473.6 105.36616295838024 480 111.78300996572759 486.4 109.68066023736458 492.8 110.98555134245359 499.20000000000005 110.57126250196177 505.6 109.10310263801591 512 112.51133227295668 518.4000000000001 118.41454598111187 524.8 120.63397291563263 531.1999999999999 116.4749918239298 537.6 118.01204205470327 544 124.15257562480522 550.4 123.73807898697197 556.8 123.90261652930417 563.2 126.82425734770149 569.6 126.12084945587642 576 126.36066965098391 582.4 126.33018543778692 588.8000000000001 127.74356481578224 595.2 123.8082093961103 601.5999999999999 108.32981406239122 608 107.66089631756785 614.4 105.94466669315548 620.8 103.50518590012518 627.2 100.40859960499313 633.6 97.62588576442505 640 98.06380401832695 640 320 0 320"
      />
      
      <polygon
        fill="#0298c3"
        fillRule="evenodd"
        points="0 313.6957892742108 6.4 305.07507072883624 12.8 298.52242161791594 19.2 288.3920356742462 25.6 281.7296700248811 32 277.855674728421 38.4 270.5454013004051 44.800000000000004 260.8000735258465 51.2 251.72753704875777 57.599999999999994 237.79090552651738 64 230.2054514295573 70.4 218.6051975853294 76.8 212.805088547132 83.2 207.8411043426461 89.60000000000001 198.6640555416883 96 187.99627555869495 102.4 176.3319035529636 108.80000000000001 173.60377446517302 115.19999999999999 169.2519540317844 121.6 163.42148614875137 128 159.99367289586763 134.4 149.21620488799942 140.8 151.83086879170554 147.20000000000002 137.9482133031471 153.6 126.07803370989816 160 120.39038421556936 166.4 110.04947389258643 172.8 101.46195562323209 179.20000000000002 97.8952106226869 185.6 94.07414065931309 192 90.75100345470292 198.4 78.8115050097548 204.8 68.97446317960015 211.20000000000002 67.69010523265791 217.60000000000002 62.45190860556653 224 64.65304074557312 230.39999999999998 62.993303440909074 236.8 55.15058497011694 243.2 51.136456618264845 249.60000000000002 51.4330306380059 256 56.846461962831995 262.4 53.8654230412003 268.8 56.578974995370515 275.2 57.198598510256375 281.6 57.9797427684847 288 59.44536958942717 294.40000000000003 62.20434583671755 300.79999999999995 62.67829243795791 307.2 55.65463432426219 313.6 55.96765270236273 320 53.02092387167994 326.4 50.339997661023006 332.8 44.631860083723495 339.20000000000005 46.41612393463123 345.6 42.970608402812104 352 41.75292463902588 358.40000000000003 43.810698189187065 364.79999999999995 50.65200015868288 371.2 52.65480518150008 377.59999999999997 56.46031688705642 384 59.92160028482607 390.4 59.26199996814671 396.8 63.64588324710576 403.2 66.80441210130164 409.6 72.14789847859834 416 77.50968052122909 422.40000000000003 81.1668243673297 428.8 75.52299574379299 435.20000000000005 78.95514984809898 441.59999999999997 85.87674623797457 448 92.32605975529236 454.4 91.9487892791791 460.79999999999995 94.82701484911593 467.2 100.16799809090756 473.6 105.53540895668147 480 111.94708981892202 486.4 109.83989080057111 492.8 111.1399214979487 499.20000000000005 110.72092058195992 505.6 109.2486284184383 512 112.65241595771951 518.4000000000001 118.55146001609114 524.8 120.76670773465406 531.1999999999999 116.60380373059246 537.6 118.13692204796669 544 124.27364373909239 550.4 123.85556898218013 556.8 124.0165202264057 563.2 126.93479467622797 569.6 126.22801268890728 576 126.4645617867262 582.4 126.43120894707783 588.8000000000001 127.84150464362631 595.2 126.4024602964146 601.5999999999999 115.17768541145585 608 114.40702097409027 614.4 112.69039113218338 620.8 110.0450010583738 627.2 107.19485965424354 633.6 104.20500002010303 640 104.52390417454137 640 320 0 320"
      />
      
      <polygon
        fill="#fd2fdb"
        fillRule="evenodd"
        points="0 313.6957892742108 6.4 305.07507072883624 12.8 298.52242161791594 19.2 288.3920356742462 25.6 281.7296700248811 32 277.855674728421 38.4 270.5454013004051 44.800000000000004 260.8000735258465 51.2 251.72753704875777 57.599999999999994 237.79090552651738 64 230.2054514295573 70.4 218.6051975853294 76.8 212.805088547132 83.2 207.8411043426461 89.60000000000001 198.6640555416883 96 187.99627555869495 102.4 176.3319035529636 108.80000000000001 173.60377446517302 115.19999999999999 169.2519540317844 121.6 163.42148614875137 128 159.99367289586763 134.4 149.21620488799942 140.8 151.83086879170554 147.20000000000002 137.9482133031471 153.6 126.07803370989816 160 120.39038421556936 166.4 110.04947389258643 172.8 101.46195562323209 179.20000000000002 97.8952106226869 185.6 94.07414065931309 192 90.75100345470292 198.4 78.8115050097548 204.8 68.97446317960015 211.20000000000002 67.69010523265791 217.60000000000002 62.45190860556653 224 64.65304074557312 230.39999999999998 62.993303440909074 236.8 55.15058497011694 243.2 51.136456618264845 249.60000000000002 51.4330306380059 256 56.846461962831995 262.4 53.8654230412003 268.8 56.578974995370515 275.2 58.32820195933158 281.6 59.07486575931523 288 60.508126750007364 294.40000000000003 63.23466298038977 300.79999999999995 64.55891989067607 307.2 57.47785671679566 313.6 57.7352221550496 320 54.73625369002775 326.4 52.00296824216548 332.8 46.2456824152614 339.20000000000005 47.980685195304204 345.6 44.48741236233326 352 43.22784714782546 358.40000000000003 45.240599569277094 364.79999999999995 52.03964144839347 371.2 54.00008958882103 377.59999999999997 57.765842178020364 384 61.187275113257726 390.4 60.48904070752502 396.8 64.83665945215262 403.2 67.95884064597004 409.6 73.26820850754441 416 78.59579373773113 422.40000000000003 82.21978457354908 428.8 76.54585866965786 435.20000000000005 79.94679036355421 441.59999999999997 86.83907942740086 448 93.25901821363797 454.4 92.85417465305503 460.79999999999995 95.70476394628614 467.2 101.01895429653129 473.6 106.36121557714901 480 112.74768921058407 486.4 110.61682896404966 492.8 111.89314404682023 499.20000000000005 111.45115146292002 505.6 109.95869641394916 512 113.34080954032197 518.4000000000001 119.21950850382638 524.8 121.41436441664325 531.1999999999999 117.23231925824936 537.6 118.7462525155313 544 124.86437472795143 550.4 124.42884119953189 556.8 124.57229368132627 563.2 127.47414250646133 569.6 126.75089724626605 576 126.97148558820112 582.4 126.92413577103451 588.8000000000001 128.31938515986712 595.2 126.86621732736327 601.5999999999999 115.62728648760572 608 114.84333434648863 614.4 114.22066973144783 620.8 111.52856888156526 627.2 109.75430601774661 633.6 106.68632043511568 640 106.96033806544466 640 320 0 320"
      />
      
      <polygon
        fill="#4F5D95"
        fillRule="evenodd"
        points="0 313.6957892742108 6.4 305.07507072883624 12.8 298.52242161791594 19.2 288.3920356742462 25.6 281.7296700248811 32 277.855674728421 38.4 270.5454013004051 44.800000000000004 260.8000735258465 51.2 251.72753704875777 57.599999999999994 237.79090552651738 64 230.2054514295573 70.4 218.6051975853294 76.8 212.805088547132 83.2 207.8411043426461 89.60000000000001 198.6640555416883 96 187.99627555869495 102.4 176.3319035529636 108.80000000000001 173.60377446517302 115.19999999999999 169.2519540317844 121.6 163.42148614875137 128 159.99367289586763 134.4 149.21620488799942 140.8 151.83086879170554 147.20000000000002 137.9482133031471 153.6 126.07803370989816 160 120.39038421556936 166.4 110.04947389258643 172.8 101.46195562323209 179.20000000000002 97.8952106226869 185.6 94.07414065931309 192 90.75100345470292 198.4 78.8115050097548 204.8 68.97446317960015 211.20000000000002 67.69010523265791 217.60000000000002 62.45190860556653 224 64.67266781634709 230.39999999999998 63.01233140613027 236.8 55.16903211751571 243.2 51.154358569767 249.60000000000002 51.45038614415188 256 56.863304536057285 262.4 53.881751503971486 268.8 56.594805040939946 275.2 58.343594911911055 281.6 59.08978885039102 288 60.52260879729414 294.40000000000003 63.248702971784155 300.79999999999995 64.57254493821611 307.2 57.49106586694654 313.6 57.748028103799356 320 54.74868116557724 326.4 52.0150163762637 332.8 46.257374472926244 339.20000000000005 47.9920203596605 345.6 44.498401527619706 352 43.238532884031315 358.40000000000003 45.25095912976616 364.79999999999995 52.049694836847834 371.2 54.00983610396105 377.59999999999997 57.77530063982971 384 61.19644486155727 390.4 60.49793055429228 396.8 64.84528656409796 403.2 67.96720442045535 409.6 73.2763250950666 416 78.60366257058763 422.40000000000003 82.22741321528542 428.8 76.55326925810695 435.20000000000005 79.95397474743132 441.59999999999997 86.84605148022752 448 93.26577744898802 454.4 92.8607341226427 460.79999999999995 95.711123191942 467.2 101.02511943012618 473.6 106.3671985034837 480 112.7534895115623 486.4 110.6224578403154 492.8 111.89860110483488 499.20000000000005 111.45644194712534 505.6 109.96384081948827 512 113.34579691551792 518.4000000000001 119.22434847989521 524.8 121.41905665542947 531.1999999999999 117.2368728202866 537.6 118.7506670825978 544 124.86865454286635 550.4 124.43299452681228 556.8 124.57632023100703 563.2 127.47805005334533 569.6 126.75468551744504 576 126.97515822478084 582.4 126.92770700010473 588.8000000000001 128.32284737924778 595.2 126.86957722258737 601.5999999999999 115.63054382409135 608 114.8464954140724 614.4 114.22373430911111 620.8 111.53153991478547 627.2 109.7571892436595 633.6 106.68911565232816 640 106.9630827174629 640 320 0 320"
      />
      
      <polygon
        fill="#755462"
        fillRule="evenodd"
        points="0 318.02122384597874 6.4 313.5273637680116 12.8 310.8961241709018 19.2 304.606353744423 25.6 301.51235912944884 32 299.6347514473996 38.4 295.68733146210684 44.800000000000004 289.60724585090855 51.2 284.8540230325838 57.599999999999994 274.4470981439581 64 270.19676585952766 70.4 262.95236106162133 76.8 259.78064830899484 83.2 257.293985735379 89.60000000000001 251.48857255667173 96 243.11579381482397 102.4 233.69074606651657 108.80000000000001 232.44230171608012 115.19999999999999 230.48708022655467 121.6 226.7432651863307 128 225.0261438526801 134.4 216.76220816817332 140.8 218.7515751354418 147.20000000000002 208.35859528339893 153.6 198.35249417515644 160 194.3476282371097 166.4 186.11874218280332 172.8 178.6990452048329 179.20000000000002 176.474971843842 185.6 173.87230984115018 192 171.38696810856834 198.4 162.65610425258393 204.8 154.1287138067722 211.20000000000002 153.5479885635317 217.60000000000002 149.77119202600113 224 151.99179197179677 230.39999999999998 150.2404998424081 236.8 143.46428622841103 243.2 140.69798300884378 249.60000000000002 142.92939868087092 256 147.05369894161294 262.4 144.44719234383433 268.8 147.14079191976484 275.2 149.53419397354725 281.6 150.7908845922493 288 152.38224718037532 294.40000000000003 155.03552334869426 300.79999999999995 154.4905859442724 307.2 148.88683932989574 313.6 148.96301731349223 320 145.9047145878896 326.4 141.78904073524447 332.8 137.45874190258004 339.20000000000005 139.37105558644487 345.6 135.06413109948764 352 134.18774376931492 358.40000000000003 137.09700039319304 364.79999999999995 142.45247680626272 371.2 144.3992192643158 377.59999999999997 146.975796375108 384 149.82614927584294 390.4 149.06465440089926 396.8 151.71940380115484 403.2 154.19238363220532 409.6 158.30291713039605 416 162.42152584625853 422.40000000000003 164.48553386946801 428.8 158.22330857902284 435.20000000000005 161.34787632730112 441.59999999999997 165.87468308005654 448 170.07081297929827 454.4 168.5636929473743 460.79999999999995 169.2138146711503 467.2 173.4728643091216 473.6 177.15379006619122 480 181.49370994247172 486.4 177.55150555920122 492.8 179.11013455881377 499.20000000000005 179.84348045737713 505.6 178.85206054961407 512 181.1912831009898 518.4000000000001 185.2184665536792 524.8 189.19427512952217 531.1999999999999 186.26908864716728 537.6 186.9421692919187 544 190.98333415525846 550.4 193.06117563708483 556.8 195.3848492610024 563.2 199.02882583953314 569.6 200.4562270367881 576 202.54864900193712 582.4 204.6815148715028 588.8000000000001 208.147428860693 595.2 207.11139700165472 601.5999999999999 197.53801435711966 608 198.0925768432956 614.4 198.3792290778081 620.8 197.54830804972096 627.2 197.64432837178273 633.6 195.98826731192372 640 196.75315687686688 640 320 0 320"
      />
      
      <polygon
        fill="#2415b9"
        fillRule="evenodd"
        points="0 318.02122384597874 6.4 313.5273637680116 12.8 310.8961241709018 19.2 304.606353744423 25.6 301.51235912944884 32 299.6347514473996 38.4 295.68733146210684 44.800000000000004 289.60724585090855 51.2 284.8540230325838 57.599999999999994 274.4470981439581 64 270.19676585952766 70.4 262.95236106162133 76.8 259.78064830899484 83.2 257.293985735379 89.60000000000001 251.48857255667173 96 243.11579381482397 102.4 233.69074606651657 108.80000000000001 232.44230171608012 115.19999999999999 230.48708022655467 121.6 226.7432651863307 128 225.0261438526801 134.4 216.76220816817332 140.8 218.7515751354418 147.20000000000002 208.35859528339893 153.6 198.35249417515644 160 194.3476282371097 166.4 186.11874218280332 172.8 178.6990452048329 179.20000000000002 176.474971843842 185.6 173.87230984115018 192 171.38696810856834 198.4 162.65610425258393 204.8 154.1287138067722 211.20000000000002 153.5479885635317 217.60000000000002 149.77119202600113 224 151.99179197179677 230.39999999999998 150.2404998424081 236.8 143.46428622841103 243.2 140.69798300884378 249.60000000000002 142.92939868087092 256 147.05369894161294 262.4 144.44719234383433 268.8 147.14079191976484 275.2 149.53419397354725 281.6 150.7908845922493 288 152.38224718037532 294.40000000000003 155.03552334869426 300.79999999999995 154.4905859442724 307.2 148.88683932989574 313.6 148.96301731349223 320 145.9047145878896 326.4 142.14867134652036 332.8 137.81837251385588 339.20000000000005 139.73068619772073 345.6 135.42376171076353 352 134.5473743805908 358.40000000000003 137.4566310044689 364.79999999999995 142.81210741753858 371.2 144.7588498755917 377.59999999999997 147.33542698638385 384 150.18577988711883 390.4 149.42428501217512 396.8 152.07903441243073 403.2 154.5520142434812 409.6 158.66254774167197 416 162.78115645753442 422.40000000000003 164.8451644807439 428.8 158.58293919029873 435.20000000000005 161.707506938577 441.59999999999997 166.2343136913324 448 170.43044359057413 454.4 168.9233235586502 460.79999999999995 169.57344528242618 467.2 173.8324949203975 473.6 177.51342067746708 480 181.8533405537476 486.4 177.9111361704771 492.8 179.46976517008966 499.20000000000005 180.20311106865302 505.6 179.21169116088996 512 181.5509137122657 518.4000000000001 185.5780971649551 524.8 189.55390574079806 531.1999999999999 186.62871925844317 537.6 187.3017999031946 544 191.34296476653435 550.4 193.42080624836072 556.8 195.7444798722783 563.2 199.38845645080903 569.6 200.81585764806397 576 202.90827961321298 582.4 205.0411454827787 588.8000000000001 208.5070594719689 595.2 207.4710276129306 601.5999999999999 197.89764496839553 608 198.45220745457146 614.4 198.738859689084 620.8 197.90793866099685 627.2 198.00395898305862 633.6 196.3478979231996 640 196.75315687686688 640 320 0 320"
      />
      
      <polygon
        fill="#f1e05a"
        fillRule="evenodd"
        points="0 318.02122384597874 6.4 313.5273637680116 12.8 310.8961241709018 19.2 304.606353744423 25.6 301.51235912944884 32 299.6347514473996 38.4 295.68733146210684 44.800000000000004 289.60724585090855 51.2 284.8540230325838 57.599999999999994 275.5586028228903 64 271.27434247283406 70.4 264.3815213971489 76.8 261.6233016462071 83.2 259.0916433235277 89.60000000000001 253.2331010926038 96 246.00813893250876 102.4 237.61105418589216 108.80000000000001 236.28998479679544 115.19999999999999 234.21731452572988 121.6 230.5136828632326 128 228.6814718221003 134.4 222.6033645195773 140.8 224.4144348499035 147.20000000000002 213.85409164525907 153.6 203.68024340717702 160 199.51275147919534 166.4 191.13121301932068 172.8 184.67469395170662 179.20000000000002 182.27401390939156 185.6 179.4943391510397 192 176.83738754759838 198.4 169.27911707570632 204.8 161.91441095762707 211.20000000000002 161.10358315762232 217.60000000000002 157.6520021231426 224 159.7498374332054 230.39999999999998 157.7617353278974 236.8 151.88571412450105 243.2 148.8705208340301 249.60000000000002 150.85247616375565 256 154.74261374088368 262.4 153.0043653829405 268.8 155.44780179560343 275.2 157.6118345280621 281.6 159.39921148950336 288 161.38438089965285 294.40000000000003 163.7628731820498 300.79999999999995 164.0802066815436 307.2 158.18374068339938 313.6 157.97613569291215 320 154.6514561148115 326.4 150.62842310763105 332.8 146.04751054591884 339.20000000000005 147.70863406424183 345.6 144.2696092140248 352 143.1489731028659 358.40000000000003 145.79567163757974 364.79999999999995 150.90469062395198 371.2 152.60441360403803 377.59999999999997 154.9491199057261 384 157.5670676890202 390.4 156.58026320859616 396.8 159.02352206648862 403.2 161.2845253400928 409.6 165.19608323568966 416 169.11525787130466 422.40000000000003 170.9859219017896 428.8 165.66905554417326 435.20000000000005 168.57732551633174 441.59999999999997 172.90109869742724 448 176.89372925199163 454.4 175.19558998236607 460.79999999999995 175.65425330808824 467.2 179.72768977845823 473.6 183.23438693730867 480 187.3996768676078 486.4 183.29355254346294 492.8 184.68788717535898 499.20000000000005 185.26195308719468 505.6 184.1308501839736 512 186.3199182212554 518.4000000000001 190.2061567860476 524.8 194.04069567617557 531.1999999999999 190.98290619483103 537.6 191.52307661329917 544 195.4353892194217 550.4 197.39228168634423 556.8 199.59472835227126 563.2 203.12491205130448 569.6 204.43826122951864 576 206.4201111669248 582.4 208.45600973202056 588.8000000000001 211.81768684356453 595.2 210.68381100337763 601.5999999999999 201.0123595571861 608 201.474868628813 614.4 201.66925588322542 620.8 200.7488859882277 627.2 200.7609434542265 633.6 199.0207275983097 640 199.37763524380694 640 320 0 320"
      />
      
      <polygon
        fill="#22e8e8"
        fillRule="evenodd"
        points="0 319.92567425790384 6.4 319.8564689878268 12.8 319.8272328994844 19.2 318.66030291660746 25.6 318.54752995979874 32 318.40759779550467 38.4 318.26954450983106 44.800000000000004 316.0115359715704 51.2 316.01949877898824 57.599999999999994 310.2712005721394 64 309.37987214161734 70.4 306.93693426945816 76.8 307.02226855116936 83.2 306.2791046341665 89.60000000000001 304.5841149066829 96 300.1563021001939 102.4 294.753651840401 108.80000000000001 293.47878368217687 115.19999999999999 293.7809598405724 121.6 290.8838666124034 128 291.2549273736726 134.4 286.9785416907089 140.8 287.29591915761375 147.20000000000002 280.0896348859727 153.6 272.356532818078 160 270.687369058729 166.4 264.64104573495285 172.8 259.71603931335795 179.20000000000002 258.48213455110607 185.6 256.49761026689737 192 254.70956012832767 198.4 249.7580310416276 204.8 243.84331958515156 211.20000000000002 243.32682889015547 217.60000000000002 241.83028719743416 224 242.76853572959521 230.39999999999998 241.70746269861735 236.8 237.2178586023308 243.2 234.04438674225716 249.60000000000002 235.73029415278043 256 237.40441872870747 262.4 235.56052528239587 268.8 237.00508869975602 275.2 238.39935779667954 281.6 240.81756795093995 288 242.54148113473798 294.40000000000003 244.5917097877745 300.79999999999995 243.76037592224094 307.2 239.79404741481443 313.6 239.8280936447839 320 237.43532589719848 326.4 235.72256404691845 332.8 231.9917771496211 339.20000000000005 232.20073691999687 345.6 229.58698828647158 352 229.00008510308737 358.40000000000003 230.61538359498263 364.79999999999995 233.24731830668821 371.2 234.38587368093937 377.59999999999997 235.44976480821268 384 235.98080800726984 390.4 235.02392479370394 396.8 236.27273222720555 403.2 237.1099579107685 409.6 239.1760764621833 416 241.04015121730657 422.40000000000003 242.01073791898642 428.8 236.84732080562134 435.20000000000005 238.1858853608432 441.59999999999997 240.60232676955604 448 242.698537772 454.4 240.2079678631685 460.79999999999995 240.05519749875975 467.2 242.4939073376744 473.6 244.47759968325244 480 246.78130799250346 486.4 243.48883251362975 492.8 244.04375847332693 499.20000000000005 246.20498729948665 505.6 246.89559223016752 512 247.99729759145208 518.4000000000001 250.1182327874148 524.8 252.23284341669606 531.1999999999999 249.58179923925263 537.6 249.44275176246055 544 251.59489138730245 550.4 252.51202291345226 556.8 253.35343211826523 563.2 255.30238475302843 569.6 256.1532921208152 576 257.94403537890537 582.4 258.9969668968771 588.8000000000001 260.82647169710924 595.2 259.2206043124915 601.5999999999999 252.11870125367375 608 252.09483972151494 614.4 251.32928348053724 620.8 250.03621297033385 627.2 248.84025271776835 633.6 247.38033296028 640 246.92969315070536 640 320 0 320"
      />
      
      <polygon
        fill="#22e4e8"
        fillRule="evenodd"
        points="0 319.92567425790384 6.4 319.8564689878268 12.8 319.8272328994844 19.2 318.66030291660746 25.6 318.54752995979874 32 318.40759779550467 38.4 318.26954450983106 44.800000000000004 316.0115359715704 51.2 316.01949877898824 57.599999999999994 310.2712005721394 64 309.37987214161734 70.4 306.93693426945816 76.8 307.02226855116936 83.2 306.2791046341665 89.60000000000001 304.5841149066829 96 300.1563021001939 102.4 294.753651840401 108.80000000000001 293.47878368217687 115.19999999999999 293.7809598405724 121.6 290.8838666124034 128 291.2549273736726 134.4 286.9785416907089 140.8 287.29591915761375 147.20000000000002 280.0896348859727 153.6 272.356532818078 160 270.687369058729 166.4 264.64104573495285 172.8 259.71603931335795 179.20000000000002 258.48213455110607 185.6 256.49761026689737 192 254.70956012832767 198.4 249.7580310416276 204.8 243.84331958515156 211.20000000000002 243.32682889015547 217.60000000000002 241.83028719743416 224 242.76853572959521 230.39999999999998 241.70746269861735 236.8 237.2178586023308 243.2 234.04438674225716 249.60000000000002 235.73029415278043 256 237.40441872870747 262.4 235.56052528239587 268.8 237.00508869975602 275.2 238.39935779667954 281.6 240.81756795093995 288 242.54148113473798 294.40000000000003 244.5917097877745 300.79999999999995 243.76037592224094 307.2 239.79404741481443 313.6 239.8280936447839 320 237.43532589719848 326.4 235.7739398485293 332.8 232.04315295123195 339.20000000000005 232.25211272160772 345.6 229.63836408808243 352 229.05146090469825 358.40000000000003 230.66675939659348 364.79999999999995 233.29869410829906 371.2 234.43724948255021 377.59999999999997 235.50114060982352 384 236.0321838088807 390.4 235.0753005953148 396.8 236.32410802881637 403.2 237.1613337123793 409.6 239.22745226379413 416 241.0915270189174 422.40000000000003 242.06211372059727 428.8 236.89869660723218 435.20000000000005 238.23726116245405 441.59999999999997 240.6537025711669 448 242.74991357361083 454.4 240.25934366477935 460.79999999999995 240.10657330037057 467.2 242.54528313928523 473.6 244.52897548486328 480 246.8326837941143 486.4 243.5402083152406 492.8 244.09513427493778 499.20000000000005 246.2563631010975 505.6 246.94696803177837 512 248.04867339306293 518.4000000000001 250.16960858902564 524.8 252.28421921830687 531.1999999999999 249.63317504086348 537.6 249.49412756407136 544 251.64626718891327 550.4 252.5633987150631 556.8 253.40480791987608 563.2 255.35376055463928 569.6 256.204667922426 576 257.99541118051616 582.4 259.04834269848794 588.8000000000001 260.8778474987201 595.2 259.27198011410235 601.5999999999999 252.1700770552846 608 252.1462155231258 614.4 251.3806592821481 620.8 250.0875887719447 627.2 248.8916285193792 633.6 247.43170876189083 640 246.92969315070536 640 320 0 320"
      />
      
      <polygon
        fill="#e34c26"
        fillRule="evenodd"
        points="0 319.92567425790384 6.4 319.8564689878268 12.8 319.8272328994844 19.2 318.66030291660746 25.6 318.63876232738704 32 318.51260276193534 38.4 318.3713442602186 44.800000000000004 316.11052486245796 51.2 316.2070749954188 57.599999999999994 311.6486229066548 64 310.7510471786569 70.4 308.26758499895146 76.8 308.3123018287881 83.2 307.5297604662585 89.60000000000001 305.79780821280275 96 302.0857683146877 102.4 297.72661165315776 108.80000000000001 296.36099564225515 115.19999999999999 296.5751944394498 121.6 294.70440960390494 128 294.9752923813584 134.4 291.7197421296248 140.8 292.1942243318171 147.20000000000002 288.11679563285685 153.6 282.47605014926603 160 280.50910402365236 166.4 276.094203867288 172.8 271.33209110355443 179.20000000000002 270.3321039623428 185.6 269.08198854203283 192 268.32410645455906 198.4 264.11126275348374 204.8 258.7341456300315 211.20000000000002 258.87804668155337 217.60000000000002 257.3390798793779 224 258.0372677859001 230.39999999999998 256.52382465664255 236.8 252.72250217453643 243.2 250.19336712297738 249.60000000000002 252.19005497757286 256 254.18867219902205 262.4 252.86782037616996 268.8 253.800995229392 275.2 254.90773348750423 281.6 256.8330524212385 288 258.582909357334 294.40000000000003 260.4521102358146 300.79999999999995 259.97209848692034 307.2 257.86438618927303 313.6 257.54206211633687 320 255.72568154205553 326.4 254.32301581017026 332.8 252.444017278618 339.20000000000005 252.30171041822013 345.6 249.89599884567366 352 249.60732397051214 358.40000000000003 250.63987701989595 364.79999999999995 252.68975677986373 371.2 254.04380178887538 377.59999999999997 254.88133216176735 384 255.7653620534361 390.4 254.20613455656024 396.8 254.90083958446445 403.2 255.17101718794015 409.6 256.7048731870224 416 258.1051138474945 422.40000000000003 258.55636723107517 428.8 255.16943902606624 435.20000000000005 257.1207391342319 441.59999999999997 258.97908109998207 448 260.5159267597116 454.4 258.60056238074714 460.79999999999995 258.0205724279793 467.2 259.9124680325131 473.6 261.3828770743896 480 263.17213482172656 486.4 261.82043778960013 492.8 263.55760417316134 499.20000000000005 265.2078893496249 505.6 265.57695060579607 512 267.2215224848657 518.4000000000001 268.77581752460594 524.8 270.3394226816109 531.1999999999999 268.4386481055395 537.6 268.9636184793431 544 270.52146954656763 550.4 271.9837836116391 556.8 273.4494499066651 563.2 274.8252201906287 569.6 276.2041752399839 576 277.54100301568195 582.4 278.7133719697226 588.8000000000001 279.9736205579142 595.2 278.92974176444113 601.5999999999999 275.72391953823336 608 277.03248531078754 614.4 278.2862929702171 620.8 278.4158687549035 627.2 279.64486277862613 633.6 279.5825055946491 640 280.3136602669805 640 320 0 320"
      />
      
      <polygon
        fill="#00ADD8"
        fillRule="evenodd"
        points="0 319.92567425790384 6.4 319.8564689878268 12.8 319.8272328994844 19.2 318.66030291660746 25.6 318.63876232738704 32 318.51536253261895 38.4 318.3740197905141 44.800000000000004 316.6121806919873 51.2 316.6934180617748 57.599999999999994 313.13944324625646 64 312.19636099097534 70.4 310.88203049384975 76.8 310.8639656831116 83.2 310.0035363448046 89.60000000000001 308.66170613812915 96 305.87144748171295 102.4 303.7931628938728 108.80000000000001 303.0244463588254 115.19999999999999 303.3152927144433 121.6 302.49019244959686 128 302.91324110377735 134.4 300.9756897766324 140.8 301.5563893936231 147.20000000000002 299.6311577576509 153.6 295.82119410204257 160 294.0784550572067 166.4 290.716135131633 172.8 287.71238178338314 179.20000000000002 287.34682003103933 185.6 286.1158225740248 192 284.937291863218 198.4 282.3765377595104 204.8 277.9438476118458 211.20000000000002 278.0796806074827 217.60000000000002 276.0328239332588 224 276.2116733841016 230.39999999999998 274.1490126604639 236.8 270.30474000821107 243.2 268.0869762224428 249.60000000000002 269.66605895619267 256 271.14817880379155 262.4 270.4125559297008 268.8 270.8101832618352 275.2 272.16288830773954 281.6 273.56149944081136 288 274.9228731154463 294.40000000000003 276.29330229914837 300.79999999999995 276.4643452585874 307.2 274.63325466203725 313.6 273.79906628504006 320 272.0443931860735 326.4 270.1436092596062 332.8 268.249493912188 339.20000000000005 268.7286153903664 345.6 266.93234618188046 352 266.17326213697766 358.40000000000003 266.70015399658695 364.79999999999995 268.2753871106966 371.2 269.77301104495405 377.59999999999997 270.1456715870345 384 271.6310038607565 390.4 270.8759073281454 396.8 271.211372200866 403.2 272.69785752225386 409.6 274.09583171868763 416 275.46914529401954 422.40000000000003 275.7089851989395 428.8 272.9524699326926 435.20000000000005 274.36095181632663 441.59999999999997 275.70977529711735 448 277.06172047436553 454.4 276.49363511684373 460.79999999999995 276.69945962755037 467.2 278.02118864083917 473.6 279.0984741588536 480 280.34697076875545 486.4 279.26736820208833 492.8 280.4775061999851 499.20000000000005 281.61131969049916 505.6 281.5274621548295 512 282.6851506996133 518.4000000000001 283.7824312686083 524.8 284.8879574482587 531.1999999999999 282.61008654339577 537.6 282.841783291284 544 283.97601107626224 550.4 285.04068301296843 556.8 286.1077939233797 563.2 287.10945178510934 569.6 288.1134405464078 576 289.08674239755186 582.4 289.9403162824689 588.8000000000001 290.8578666960796 595.2 291.7191516161611 601.5999999999999 290.3472276740615 608 291.22360479072483 614.4 292.1019940550435 620.8 292.92838702958994 627.2 293.7284773661768 633.6 293.5546244175438 640 294.03302144862624 640 320 0 320"
      />
      
      <polygon
        fill="#244776"
        fillRule="evenodd"
        points="0 319.92567425790384 6.4 319.8564689878268 12.8 319.8272328994844 19.2 318.66030291660746 25.6 318.63876232738704 32 318.51536253261895 38.4 318.3740197905141 44.800000000000004 316.6121806919873 51.2 316.6934180617748 57.599999999999994 313.13944324625646 64 312.19636099097534 70.4 310.88203049384975 76.8 310.8639656831116 83.2 310.0035363448046 89.60000000000001 308.66170613812915 96 305.87144748171295 102.4 303.7931628938728 108.80000000000001 303.0244463588254 115.19999999999999 303.3152927144433 121.6 302.49019244959686 128 302.91324110377735 134.4 300.9756897766324 140.8 301.5563893936231 147.20000000000002 299.6311577576509 153.6 295.82119410204257 160 294.0784550572067 166.4 290.716135131633 172.8 287.71238178338314 179.20000000000002 287.34682003103933 185.6 286.1158225740248 192 284.937291863218 198.4 282.3765377595104 204.8 277.9438476118458 211.20000000000002 278.0796806074827 217.60000000000002 276.0328239332588 224 276.2116733841016 230.39999999999998 274.1490126604639 236.8 270.30474000821107 243.2 268.0869762224428 249.60000000000002 269.66605895619267 256 271.14817880379155 262.4 270.4125559297008 268.8 270.8101832618352 275.2 272.16288830773954 281.6 273.56149944081136 288 274.9228731154463 294.40000000000003 276.29330229914837 300.79999999999995 276.4643452585874 307.2 274.63325466203725 313.6 273.79906628504006 320 272.0443931860735 326.4 270.1436092596062 332.8 268.249493912188 339.20000000000005 268.7286153903664 345.6 266.93234618188046 352 266.17326213697766 358.40000000000003 266.70015399658695 364.79999999999995 268.2753871106966 371.2 269.77301104495405 377.59999999999997 270.1456715870345 384 271.6310038607565 390.4 270.8759073281454 396.8 271.211372200866 403.2 272.69785752225386 409.6 274.09583171868763 416 275.46914529401954 422.40000000000003 275.7089851989395 428.8 272.9524699326926 435.20000000000005 274.36095181632663 441.59999999999997 275.70977529711735 448 277.06172047436553 454.4 276.49363511684373 460.79999999999995 276.69945962755037 467.2 278.02118864083917 473.6 279.0984741588536 480 280.34697076875545 486.4 279.26736820208833 492.8 280.4775061999851 499.20000000000005 281.61131969049916 505.6 281.5274621548295 512 282.6851506996133 518.4000000000001 283.7824312686083 524.8 284.8879574482587 531.1999999999999 282.61008654339577 537.6 282.841783291284 544 283.97601107626224 550.4 285.04068301296843 556.8 286.1077939233797 563.2 287.10945178510934 569.6 288.1134405464078 576 289.08674239755186 582.4 289.9403162824689 588.8000000000001 290.8578666960796 595.2 291.7191516161611 601.5999999999999 290.4027888875519 608 291.27752392056897 614.4 292.15426733642266 620.8 292.9790646998179 627.2 293.7776572807429 633.6 293.6023031414621 640 294.0798376725045 640 320 0 320"
      />
      
      <polygon
        fill="#563d7c"
        fillRule="evenodd"
        points="0 319.92567425790384 6.4 319.8564689878268 12.8 319.8272328994844 19.2 318.66030291660746 25.6 318.63876232738704 32 318.51536253261895 38.4 318.3740197905141 44.800000000000004 316.6121806919873 51.2 316.6934180617748 57.599999999999994 314.24960342046046 64 313.2726342001949 70.4 311.9264949920116 76.8 311.8765485165774 83.2 310.9852106740085 89.60000000000001 309.61436762739896 96 306.7950294452582 102.4 305.79142644430374 108.80000000000001 304.96171409154545 115.19999999999999 305.1934262829996 121.6 304.3146423127824 128 304.68200083103596 134.4 303.8118341856739 140.8 304.3059621861474 147.20000000000002 302.29946831449973 153.6 298.40805613455916 160 296.58635453767954 166.4 293.1499149486251 172.8 290.07187198574275 179.20000000000002 289.63657683035655 185.6 288.3356858833017 192 287.08939490848917 198.4 284.46921780586126 204.8 279.97264965801537 211.20000000000002 280.0485227776051 217.60000000000002 277.94156812917925 224 278.06400581958576 230.39999999999998 275.94480376574006 236.8 273.1751019341446 243.2 271.6223331667186 249.60000000000002 273.09350051542685 256 274.47432454451854 262.4 273.6371728112844 268.8 273.9363706836351 275.2 275.20275677921455 281.6 276.50857756323904 288 277.7828517863711 294.40000000000003 279.06598187220516 300.79999999999995 279.15507981156526 307.2 277.2418561595023 313.6 276.3280414551045 320 274.4986258124385 326.4 272.52292815810074 332.8 270.5584929014889 339.20000000000005 270.96713376696624 345.6 269.1025350505927 352 268.2835285312263 358.40000000000003 268.74600561627915 364.79999999999995 270.2607746522246 371.2 271.69779589640507 377.59999999999997 272.01357037664866 384 273.4418861967494 390.4 272.6315134116692 396.8 272.91509242382057 403.2 274.34957259002783 409.6 275.6987312465483 416 277.0231171799677 422.40000000000003 277.2155230402796 428.8 275.39027391347327 435.20000000000005 276.72434339430896 441.59999999999997 278.00331808200684 448 279.28525417366114 454.4 278.6514533090377 460.79999999999995 278.79141178154396 467.2 280.0492849889978 473.6 281.06663138678897 480 282.255050983816 486.4 281.1190561795171 492.8 282.27267247276205 499.20000000000005 283.3516894580424 505.6 283.21977766908765 512 284.3258091811226 518.4000000000001 285.37460096030253 524.8 286.43152707015145 531.1999999999999 284.10803681674497 537.6 284.29400940945436 544 285.38390891978355 550.4 286.40697118375874 556.8 287.43237686244794 563.2 288.3948873908662 569.6 289.3596389625762 576 290.29490139957056 582.4 291.1151159489857 588.8000000000001 291.9968063613268 595.2 292.8244304213267 601.5999999999999 291.47432976893344 608 292.3173959358248 614.4 293.1623978401692 620.8 293.9564227424253 627.2 294.7261299981558 633.6 294.5218242588964 640 294.98272474389967 640 320 0 320"
      />
      
      <polygon
        fill="#178600"
        fillRule="evenodd"
        points="0 320 6.4 320 12.8 320 19.2 320 25.6 320 32 320 38.4 320 44.800000000000004 320 51.2 320 57.599999999999994 318.73032854520943 64 318.769084610691 70.4 318.80546370278483 76.8 318.84192618807987 83.2 318.87727566800885 89.60000000000001 318.9104572432372 96 318.9437148238265 102.4 318.9749328775683 108.80000000000001 319.00622244642585 115.19999999999999 319.03655690830607 121.6 319.06409550933773 128 319.09266349648084 134.4 319.11947930163484 140.8 319.1463567166501 147.20000000000002 319.1715857082452 153.6 319.1856777104461 160 319.2105344227076 166.4 319.23386667108304 172.8 319.2572524119431 179.20000000000002 319.2792039459254 185.6 318.1941406864057 192 318.2492634999058 198.4 318.29760410135873 204.8 316.1388743380416 211.20000000000002 316.2474851459338 217.60000000000002 316.362028379289 224 316.46954653690767 230.39999999999998 316.5773118326824 236.8 316.24156018023723 243.2 315.63817820848635 249.60000000000002 315.7713203451381 256 315.8962968118818 262.4 316.0215597500953 268.8 316.1429994039045 275.2 316.2494976593848 281.6 316.36397936507996 288 316.4714402900557 294.40000000000003 316.5791475208994 300.79999999999995 316.68024890254793 307.2 315.9758115510413 313.6 316.0986474963867 320 314.31084419799345 326.4 314.48450252481473 332.8 313.5209110392554 339.20000000000005 313.7186809545371 345.6 313.91041513789395 352 312.97612337474493 358.40000000000003 313.1905231540755 364.79999999999995 313.39177323533283 371.2 313.59348593513334 377.59999999999997 313.78282662264473 384 313.97260236044417 390.4 314.1565856101891 396.8 314.3292843397879 403.2 314.50237965974964 409.6 314.66485902314685 416 314.8277110357834 422.40000000000003 314.9855923574129 428.8 313.2129027306865 435.20000000000005 313.4200748286694 441.59999999999997 313.6145412799075 448 313.8094537758552 454.4 313.1987257837352 460.79999999999995 313.40633077422245 467.2 313.60759897058745 473.6 313.79652289759616 480 313.9858804363705 486.4 314.1636244751907 492.8 314.34177664337886 499.20000000000005 314.51449058021495 505.6 314.6659543552372 512 314.8287734154346 518.4000000000001 314.98160615006657 524.8 315.1347897814235 531.1999999999999 315.2785782171882 537.6 315.42269699935736 544 315.5624164716345 550.4 315.6935670767126 556.8 315.8250183946327 563.2 315.9484079553411 569.6 316.07208011378384 576 316.1919777537332 582.4 316.29712334600805 588.8000000000001 316.4101516200005 595.2 316.51624775708154 601.5999999999999 316.62258737436156 608 316.72240495692904 614.4 316.8224515728201 620.8 316.91944453436537 627.2 317.01048875349306 633.6 317.1017418358046 640 317.1541707899727 640 320 0 320"
      />
      
      <polygon
        fill="#555555"
        fillRule="evenodd"
        points="0 320 6.4 320 12.8 320 19.2 320 25.6 320 32 320 38.4 320 44.800000000000004 320 51.2 320 57.599999999999994 318.73032854520943 64 318.769084610691 70.4 318.80546370278483 76.8 318.84192618807987 83.2 318.87727566800885 89.60000000000001 318.9104572432372 96 318.9437148238265 102.4 318.9749328775683 108.80000000000001 319.00622244642585 115.19999999999999 319.03655690830607 121.6 319.06409550933773 128 319.09266349648084 134.4 319.11947930163484 140.8 319.1463567166501 147.20000000000002 319.1715857082452 153.6 319.1856777104461 160 319.2105344227076 166.4 319.23386667108304 172.8 319.2572524119431 179.20000000000002 319.2792039459254 185.6 318.1941406864057 192 318.2492634999058 198.4 318.29760410135873 204.8 317.2428490712349 211.20000000000002 317.31883244329487 217.60000000000002 317.4006734376507 224 317.4774950675649 230.39999999999998 317.5544932452838 236.8 317.1889136244362 243.2 316.55753317657826 249.60000000000002 316.66261251461935 256 316.76124727210635 262.4 316.86010818587204 268.8 316.9559515933059 275.2 317.0400029184992 281.6 317.13035486925054 288 317.21516599117393 294.40000000000003 317.300171416379 300.79999999999995 317.37996337936397 307.2 317.45993854845756 313.6 317.53747233945853 320 316.50570948072897 326.4 316.61237078245324 332.8 315.58589120565813 339.20000000000005 315.7206288692047 345.6 315.8512547218452 352 314.86337306553907 358.40000000000003 315.02016577503304 364.79999999999995 315.1673417975789 371.2 315.3148563147313 377.59999999999997 315.45332273120715 384 315.59210747214985 390.4 315.7266562063236 396.8 315.85295241465906 403.2 315.979538659945 409.6 316.09836133317174 416 316.2174564728248 422.40000000000003 316.3329166923126 428.8 315.58525435122135 435.20000000000005 315.720011948579 441.59999999999997 315.84650472073145 448 315.9732880744178 454.4 316.0922951867724 460.79999999999995 316.2115757211431 467.2 316.3272153552053 473.6 316.43576225160024 480 316.5445587316395 486.4 316.64668231706224 492.8 316.7490405871468 499.20000000000005 316.8482741809774 505.6 316.93529831555514 512 317.02884686868265 518.4000000000001 317.1166575667831 524.8 317.2046699662806 531.1999999999999 317.2872844130545 537.6 317.37008853928796 544 317.4503650788338 550.4 317.5257182753112 556.8 317.6012442588846 563.2 317.67213823101025 569.6 317.7431947869977 576 317.8120825237953 582.4 317.8724943835947 588.8000000000001 317.9374353182858 595.2 317.9983932925812 601.5999999999999 318.05949127621113 608 318.11684203217357 614.4 318.17432431018807 620.8 318.23005202237624 627.2 318.28236196963746 633.6 318.33479179719416 640 318.36491507370425 640 320 0 320"
      />
      
      <polygon
        fill="#C1F12E"
        fillRule="evenodd"
        points="0 320 6.4 320 12.8 320 19.2 320 25.6 320 32 320 38.4 320 44.800000000000004 320 51.2 320 57.599999999999994 319.0077745196677 64 319.03806168498494 70.4 319.0664913068191 76.8 319.0949860731697 83.2 319.1226110471991 89.60000000000001 319.14854185279455 96 319.1745320488166 102.4 319.19892841334536 108.80000000000001 319.22338064392073 115.19999999999999 319.2470864971255 121.6 319.26860740941385 128 319.29093279482936 134.4 319.3118888507293 140.8 319.3328930765809 147.20000000000002 319.35260907475737 153.6 319.3611754450925 160 319.38067519224484 166.4 319.3989790237625 172.8 319.4173248087597 179.20000000000002 319.43454549452713 185.6 319.4408447432136 192 319.45791262707183 198.4 319.4728805353144 204.8 319.48621074740424 211.20000000000002 319.50139548207994 217.60000000000002 319.51661511120005 224 319.5309012933808 230.39999999999998 319.5452202738732 236.8 319.3091073648301 243.2 318.6150658040279 249.60000000000002 318.65734017688015 256 318.6970217157767 262.4 318.7367943953454 268.8 318.7753529619703 275.2 318.80916748707455 281.6 318.8455168942303 288 318.87963715672987 294.40000000000003 318.91383551044794 300.79999999999995 318.94593654981685 307.2 318.97811126208524 313.6 319.00930377177843 320 319.03858325212286 326.4 319.0679300347674 332.8 319.09547702032995 339.20000000000005 319.1230868898736 345.6 319.1498541962709 352 319.1733281082817 358.40000000000003 319.1985617750747 364.79999999999995 319.2222478383207 371.2 319.24598828799026 377.59999999999997 319.26827274744215 384 319.2906082744409 390.4 319.3122620753777 396.8 319.33258778101737 403.2 319.3529601050595 409.6 319.37208310318346 416 319.39124984266493 422.40000000000003 319.4098316378196 428.8 318.5742205004732 435.20000000000005 318.6177414557758 441.59999999999997 318.65859354093624 448 318.69953923280724 454.4 318.73797357274395 460.79999999999995 318.7764961763078 467.2 318.81384299327595 473.6 318.8488991687535 480 318.8840360042396 486.4 318.9170175220965 492.8 318.95007497338815 499.20000000000005 318.9821234039362 505.6 319.0102285362074 512 319.0404407956059 518.4000000000001 319.06880003259187 524.8 319.09722441409434 531.1999999999999 319.12390540914487 537.6 319.15064774690256 544 319.1765737231726 550.4 319.20090972113445 556.8 319.2253014721162 563.2 319.2481972933321 569.6 319.2711456514428 576 319.2933935107736 582.4 319.312903964643 588.8000000000001 319.33387718006077 595.2 319.35356415090934 601.5999999999999 319.3732962913627 608 319.391818141232 614.4 319.4103825302651 620.8 319.4283802647567 627.2 319.4452742004259 633.6 319.46220684262397 640 319.47193546716863 640 320 0 320"
      />
      

      
        <g id="labels">
        
          
          <text x="0" y="330">
            Jul 2014
          </text>
          
        
          
        
          
        
          
        
          
        
          
        
          
        
          
        
          
        
          
        
          
        
          
        
          
        
          
          <text x="82.37623762376238" y="330">
            Aug 2015
          </text>
          
        
          
        
          
        
          
        
          
        
          
        
          
        
          
        
          
        
          
        
          
        
          
        
          
        
          
          <text x="164.75247524752476" y="330">
            Sep 2016
          </text>
          
        
          
        
          
        
          
        
          
        
          
        
          
        
          
        
          
        
          
        
          
        
          
        
          
        
          
          <text x="247.12871287128712" y="330">
            Oct 2017
          </text>
          
        
          
        
          
        
          
        
          
        
          
        
          
        
          
        
          
        
          
        
          
        
          
        
          
        
          
          <text x="329.5049504950495" y="330">
            Nov 2018
          </text>
          
        
          
        
          
        
          
        
          
        
          
        
          
        
          
        
          
        
          
        
          
        
          
        
          
        
          
          <text x="411.8811881188119" y="330">
            Dec 2019
          </text>
          
        
          
        
          
        
          
        
          
        
          
        
          
        
          
        
          
        
          
        
          
        
          
        
          
        
          
          <text x="494.25742574257424" y="330">
            Jan 2021
          </text>
          
        
          
        
          
        
          
        
          
        
          
        
          
        
          
        
          
        
          
        
          
        
          
        
          
        
          
          <text x="576.6336633663366" y="330">
            Feb 2022
          </text>
          
        
          
        
          
        
          
        
          
        
          
        
          
        
          
        
          
        
          
        
        </g>
      

      
        <text text-anchor="middle" y="370" x="320" id="legend">
          
          <tspan xml:space="preserve" fill="#C1F12E">   </tspan> Batchfile
          
          <tspan xml:space="preserve" fill="#555555">   </tspan> C
          
          <tspan xml:space="preserve" fill="#178600">   </tspan> C#
          
          <tspan xml:space="preserve" fill="#563d7c">   </tspan> CSS
          
          <tspan xml:space="preserve" fill="#244776">   </tspan> CoffeeScript
          
          <tspan xml:space="preserve" fill="#00ADD8">   </tspan> Go
          
          <tspan xml:space="preserve" fill="#e34c26">   </tspan> HTML
          
          <tspan xml:space="preserve" fill="#22e4e8">   </tspan> JSON
          
        </text>
      
        <text text-anchor="middle" y="400" x="320" id="legend">
          
          <tspan xml:space="preserve" fill="#22e8e8">   </tspan> JSon
          
          <tspan xml:space="preserve" fill="#f1e05a">   </tspan> JavaScript
          
          <tspan xml:space="preserve" fill="#2415b9">   </tspan> Less
          
          <tspan xml:space="preserve" fill="#755462">   </tspan> MySQL
          
          <tspan xml:space="preserve" fill="#4F5D95">   </tspan> PHP
          
          <tspan xml:space="preserve" fill="#fd2fdb">   </tspan> PLpgSQL
          
          <tspan xml:space="preserve" fill="#0298c3">   </tspan> Perl
          
          <tspan xml:space="preserve" fill="#3572A5">   </tspan> Python
          
        </text>
      
        <text text-anchor="middle" y="430" x="320" id="legend">
          
          <tspan xml:space="preserve" fill="#701516">   </tspan> Ruby
          
          <tspan xml:space="preserve" fill="#dea584">   </tspan> Rust
          
          <tspan xml:space="preserve" fill="#26c0b0">   </tspan> SCSS
          
          <tspan xml:space="preserve" fill="#0141ae">   </tspan> SQL
          
          <tspan xml:space="preserve" fill="#89e051">   </tspan> Shell
          
          <tspan xml:space="preserve" fill="#509e5b">   </tspan> Svelte
          
          <tspan xml:space="preserve" fill="#2770da">   </tspan> TSQL
          
          <tspan xml:space="preserve" fill="#2b7489">   </tspan> TypeScript
          
        </text>
      
        <text text-anchor="middle" y="460" x="320" id="legend">
          
          <tspan xml:space="preserve" fill="#2c3e50">   </tspan> Vue
          
          <tspan xml:space="preserve" fill="#4B6C4B">   </tspan> Yacc
          
        </text>
      

    </svg>