<svg
      xmlns="http://www.w3.org/2000/svg"
      viewBox="0 0 640 490"
      style="background-color: #292b3e"
    >
      <style>
        text {
          font-size: 12px;
          font-family: Open Sans, Helvetica Neue, Helvetica, Arial, sans-serif;
        }
        #labels text {
          dominant-baseline: hanging;
          font-size: 10px;
          fill: rgba(0,0,0,0.5);
        }
        #legend {
          font-weight: 600;
        }
        #legend tspan {
          font-size: 15px;
        }
        #branding-text {
          font-size: 9px;
          dominant-baseline: hanging;
          opacity: 0.5;
        }
        #branding-logo {
          opacity: 0.5;
        }
      </style>

      
      
      <polygon
        fill="#4B6C4B"
        fillRule="evenodd"
        points="0 313.6135518063308 6.4 304.2691151660671 12.8 297.2680502843639 19.2 285.93882854394224 25.6 278.8280108179018 32 274.98420814427044 38.4 267.09075874346644 44.800000000000004 257.0788280303289 51.2 246.22213026322987 57.599999999999994 230.99233193610684 64 221.54625633134484 70.4 206.62811287813287 76.8 198.27730164686713 83.2 192.1703688829802 89.60000000000001 182.12949982258044 96 170.6172527536733 102.4 156.95191944648633 108.80000000000001 154.8042923699401 115.19999999999999 149.88794949625606 121.6 142.52564576984437 128 138.28618536616827 134.4 123.78691458891632 140.8 127.17490976397931 147.20000000000002 110.77250584083981 153.6 93.05738920151472 160 88.01889051858421 166.4 78.1062838772774 172.8 68.78378225935833 179.20000000000002 65.97380130624768 185.6 62.13345392163353 192 59.189232430460436 198.4 46.68390317047158 204.8 33.294065585703834 211.20000000000002 31.646477921667838 217.60000000000002 27.414707098452254 224 27.528893551069075 230.39999999999998 25.251137286948904 236.8 13.936255086272581 243.2 9.64310432626769 249.60000000000002 9.88386302250808 256 12.938050311738891 262.4 8.24704835007492 268.8 10.7102969952619 275.2 10.159057228574454 281.6 11.455762713650472 288 14.195698674105188 294.40000000000003 17.693167961292545 300.79999999999995 18.067960366897694 307.2 12.038844904523785 313.6 13.322706105536952 320 11.292858655772363 326.4 7.029650551768327 332.8 1.9717732364539415 339.20000000000005 4.695540639620731 345.6 0.06673090365580947 352 0 358.40000000000003 3.1342603521256365 364.79999999999995 11.121781793094726 371.2 13.499813650279293 377.59999999999997 18.048074056321184 384 21.314742978967956 390.4 21.568486419682188 396.8 27.066473194044704 403.2 30.681047163058906 409.6 36.74792953893126 416 42.80378687609232 422.40000000000003 46.96047333247401 428.8 38.5147781841672 435.20000000000005 42.63115385994098 441.59999999999997 50.61553079572087 448 58.06891793734951 454.4 55.542196202715616 460.79999999999995 58.40788260267465 467.2 64.84918270496027 473.6 68.9652036523068 480 76.40582911332302 486.4 74.3195368657158 492.8 74.9907174820041 499.20000000000005 75.0520310095088 505.6 74.4904344761706 512 78.4368739421871 518.4000000000001 85.33606754305706 524.8 88.56504084794497 531.1999999999999 82.02549237437952 537.6 83.0876175201891 544 90.29405794276039 550.4 88.15324203392422 556.8 86.74204850754131 563.2 87.76620896429009 569.6 85.90001541104817 576 86.43119481416736 582.4 86.6814712749927 588.8000000000001 89.27124973509834 595.2 85.21675154710863 601.5999999999999 69.7211687982853 608 69.36916773546184 614.4 67.00830544628582 620.8 64.1005720909265 627.2 60.655594065221976 633.6 56.62916024927739 640 58.18419355981354 640 320 0 320"
      />
      
      <polygon
        fill="#2c3e50"
        fillRule="evenodd"
        points="0 313.6135518063308 6.4 304.2691151660671 12.8 297.2680502843639 19.2 285.93882854394224 25.6 278.8280108179018 32 274.98420814427044 38.4 267.09075874346644 44.800000000000004 257.0788280303289 51.2 246.22213026322987 57.599999999999994 230.99233193610684 64 221.54625633134484 70.4 206.62811287813287 76.8 198.27730164686713 83.2 192.1703688829802 89.60000000000001 182.12949982258044 96 170.6172527536733 102.4 156.95191944648633 108.80000000000001 154.8042923699401 115.19999999999999 149.88794949625606 121.6 142.52564576984437 128 138.28618536616827 134.4 123.78691458891632 140.8 127.17490976397931 147.20000000000002 110.77250584083981 153.6 93.05738920151472 160 88.01889051858421 166.4 78.1062838772774 172.8 68.78378225935833 179.20000000000002 65.97380130624768 185.6 62.13345392163353 192 59.189232430460436 198.4 46.68390317047158 204.8 33.294065585703834 211.20000000000002 31.646477921667838 217.60000000000002 27.414707098452254 224 27.528893551069075 230.39999999999998 25.251137286948904 236.8 13.936255086272581 243.2 9.64310432626769 249.60000000000002 9.88386302250808 256 12.938050311738891 262.4 8.24704835007492 268.8 10.7102969952619 275.2 10.159057228574454 281.6 11.455762713650472 288 14.195698674105188 294.40000000000003 17.693167961292545 300.79999999999995 18.067960366897694 307.2 12.038844904523785 313.6 13.322706105536952 320 11.292858655772363 326.4 7.029650551768327 332.8 1.9717732364539415 339.20000000000005 4.695540639620731 345.6 0.06673090365580947 352 0 358.40000000000003 3.1342603521256365 364.79999999999995 11.121781793094726 371.2 13.499813650279293 377.59999999999997 18.048074056321184 384 21.314742978967956 390.4 21.568486419682188 396.8 27.066473194044704 403.2 30.681047163058906 409.6 36.74792953893126 416 42.80378687609232 422.40000000000003 46.96047333247401 428.8 38.5147781841672 435.20000000000005 42.63115385994098 441.59999999999997 50.61553079572087 448 58.06891793734951 454.4 56.64278308859144 460.79999999999995 59.474874749864455 467.2 65.88360547169003 473.6 69.96905463245082 480 77.37903812753788 486.4 75.2639831380315 492.8 75.90633514864436 499.20000000000005 75.93969993243269 505.6 75.35359334045594 512 79.27368544645708 518.4000000000001 86.14814753843802 524.8 89.3523325539023 531.1999999999999 82.78951608305064 537.6 83.82831987266769 544 91.01215079186275 550.4 88.85011202278051 556.8 87.41764693189259 563.2 88.42184042011323 569.6 86.5356341019546 576 87.04741161897505 582.4 87.28067329834494 588.8000000000001 89.85216150082198 595.2 85.78049475333086 601.5999999999999 70.26770410141796 608 69.89955043554758 614.4 67.52249853219794 620.8 64.5990697362146 627.2 61.13935887770941 633.6 57.09815842368744 640 58.64743955574954 640 320 0 320"
      />
      
      <polygon
        fill="#2b7489"
        fillRule="evenodd"
        points="0 313.6135518063308 6.4 304.2691151660671 12.8 297.2680502843639 19.2 285.93882854394224 25.6 278.8280108179018 32 274.98420814427044 38.4 267.09075874346644 44.800000000000004 257.0788280303289 51.2 246.22213026322987 57.599999999999994 230.99233193610684 64 221.54625633134484 70.4 206.62811287813287 76.8 198.27730164686713 83.2 192.1703688829802 89.60000000000001 182.12949982258044 96 170.6172527536733 102.4 156.95191944648633 108.80000000000001 154.8042923699401 115.19999999999999 149.88794949625606 121.6 142.52564576984437 128 138.28618536616827 134.4 123.78691458891632 140.8 127.17490976397931 147.20000000000002 110.77250584083981 153.6 93.05738920151472 160 88.01889051858421 166.4 78.1062838772774 172.8 68.78378225935833 179.20000000000002 65.97380130624768 185.6 62.13345392163353 192 59.189232430460436 198.4 46.68390317047158 204.8 33.294065585703834 211.20000000000002 31.646477921667838 217.60000000000002 27.414707098452254 224 27.528893551069075 230.39999999999998 25.251137286948904 236.8 13.936255086272581 243.2 9.64310432626769 249.60000000000002 9.88386302250808 256 12.938050311738891 262.4 8.24704835007492 268.8 10.7102969952619 275.2 10.159057228574454 281.6 11.455762713650472 288 14.195698674105188 294.40000000000003 17.693167961292545 300.79999999999995 18.067960366897694 307.2 12.038844904523785 313.6 13.322706105536952 320 11.292858655772363 326.4 7.029650551768327 332.8 1.9717732364539415 339.20000000000005 4.695540639620731 345.6 0.06673090365580947 352 0 358.40000000000003 3.1342603521256365 364.79999999999995 11.121781793094726 371.2 13.499813650279293 377.59999999999997 18.048074056321184 384 21.314742978967956 390.4 21.568486419682188 396.8 27.066473194044704 403.2 30.681047163058906 409.6 36.74792953893126 416 42.80378687609232 422.40000000000003 46.96047333247401 428.8 38.5147781841672 435.20000000000005 42.63115385994098 441.59999999999997 50.61553079572087 448 58.06891793734951 454.4 56.64278308859144 460.79999999999995 59.474874749864455 467.2 65.88360547169003 473.6 69.96905463245082 480 77.37903812753788 486.4 75.2639831380315 492.8 75.90633514864436 499.20000000000005 75.93969993243269 505.6 75.35359334045594 512 79.27368544645708 518.4000000000001 86.14814753843802 524.8 89.3523325539023 531.1999999999999 84.9996211267094 537.6 87.49758981816765 544 94.56941840976651 550.4 94.6709762430392 556.8 95.57913056009028 563.2 99.33784992128199 569.6 99.23021524735671 576 100.29091339455036 582.4 100.92513031616073 588.8000000000001 103.11096709984454 595.2 98.64744376437807 601.5999999999999 83.4115111361603 608 83.12828269600067 614.4 80.36993244543251 620.8 77.05434301948668 627.2 73.22652290651078 633.6 68.81636652482624 640 70.22192960913287 640 320 0 320"
      />
      
      <polygon
        fill="#2770da"
        fillRule="evenodd"
        points="0 313.6135518063308 6.4 304.2691151660671 12.8 297.2680502843639 19.2 285.93882854394224 25.6 278.8280108179018 32 274.98420814427044 38.4 267.09075874346644 44.800000000000004 257.0788280303289 51.2 246.22213026322987 57.599999999999994 230.99233193610684 64 221.54625633134484 70.4 206.62811287813287 76.8 198.27730164686713 83.2 192.1703688829802 89.60000000000001 182.12949982258044 96 170.6172527536733 102.4 156.95191944648633 108.80000000000001 154.8042923699401 115.19999999999999 149.88794949625606 121.6 142.52564576984437 128 138.28618536616827 134.4 123.78691458891632 140.8 127.17490976397931 147.20000000000002 110.77250584083981 153.6 93.05738920151472 160 88.01889051858421 166.4 78.1062838772774 172.8 68.78378225935833 179.20000000000002 65.97380130624768 185.6 62.13345392163353 192 59.189232430460436 198.4 46.68390317047158 204.8 33.294065585703834 211.20000000000002 31.646477921667838 217.60000000000002 27.414707098452254 224 27.528893551069075 230.39999999999998 25.251137286948904 236.8 14.574464042287673 243.2 11.080114544419189 249.60000000000002 11.277009301470287 256 14.290022893928153 262.4 9.557752704018355 268.8 11.980992752835675 275.2 11.394667116229073 281.6 12.653656290401386 288 15.35818918674471 294.40000000000003 18.820174133304363 300.79999999999995 19.1616584771902 307.2 13.099158505905848 313.6 14.35065428838692 320 12.290426272766013 326.4 7.9967680400717995 332.8 2.91030800366309 339.20000000000005 5.605427232965781 345.6 0.9488437392609512 352 0.8577561851067799 358.40000000000003 3.9658339907849722 364.79999999999995 11.928778790078013 371.2 14.282177492206074 377.59999999999997 18.80731560273199 384 22.05080905590927 390.4 22.28208454385276 396.8 27.758981336339502 403.2 31.35241687609812 409.6 37.39945726021455 416 43.435427117485915 422.40000000000003 47.57283310933576 428.8 40.23031963308381 435.20000000000005 44.29432918844674 441.59999999999997 52.229552018861796 448 59.633672028364515 454.4 58.16129156105842 460.79999999999995 60.94703166688288 467.2 67.31082562005352 473.6 71.3540941183519 480 78.72180005621698 486.4 76.56706054889037 492.8 77.16963679826137 499.20000000000005 77.16444003647638 505.6 76.54451635134916 512 80.42825617394928 518.4000000000001 87.26859558951847 524.8 90.43857963185107 531.1999999999999 86.05376480270851 537.6 88.51955631656764 544 95.56018983036932 550.4 95.632466026158 556.8 96.51127150617799 563.2 100.24244193013271 569.6 100.10719502398419 576 101.14112386171311 582.4 101.75186517642757 588.8000000000001 103.9124662696668 595.2 99.42525503222168 601.5999999999999 84.17667737070803 608 84.13451710228063 614.4 81.54079433650554 620.8 78.211492555284 627.2 74.34947367833584 633.6 69.92170659701088 640 71.31371294334144 640 320 0 320"
      />
      
      <polygon
        fill="#509e5b"
        fillRule="evenodd"
        points="0 313.6135518063308 6.4 304.9098447627059 12.8 298.3344805857996 19.2 288.0768280626325 25.6 281.2713550086346 32 277.35297090745803 38.4 269.999954546333 44.800000000000004 260.0717451183978 51.2 250.17317828733374 57.599999999999994 235.1816033819442 64 226.78747421294634 70.4 213.32789127665876 76.8 205.81366714016647 83.2 200.42205814166212 89.60000000000001 190.4508485016183 96 178.684597420102 102.4 164.78083827052762 108.80000000000001 162.39423768556088 115.19999999999999 158.35640969742272 121.6 150.82944344792196 128 146.4702907868337 134.4 132.58697321543235 140.8 135.70635001768142 147.20000000000002 119.05180445470012 153.6 102.43455373610576 160 97.17059379128759 166.4 87.08397587522981 172.8 77.51849651900079 179.20000000000002 74.59632623038019 185.6 71.29271108103319 192 68.12756501665808 198.4 55.43676644539187 204.8 42.602930103619656 211.20000000000002 40.81636678921899 217.60000000000002 36.30468930230785 224 36.65727323787013 230.39999999999998 34.26573704345719 236.8 23.330739697875913 243.2 19.76854126286048 249.60000000000002 20.33185233900474 256 23.771836851550518 262.4 19.35801277931546 268.8 21.657319601142547 275.2 22.19770071838252 281.6 24.033571802139704 288 26.401777130699486 294.40000000000003 29.526662844952284 300.79999999999995 29.79479693097568 307.2 23.46954878584029 313.6 24.70115083085915 320 22.404376299632474 326.4 17.801995744268993 332.8 12.431394650689072 339.20000000000005 14.835886730761445 345.6 10.2024073455392 352 9.855813550369817 358.40000000000003 12.717382045212958 364.79999999999995 20.455559361428072 371.2 22.802301609342635 377.59999999999997 27.111463663768916 384 30.80877394781737 390.4 30.772717923997334 396.8 35.998681024463224 403.2 39.340603764177956 409.6 45.23240805707752 416 51.0292790489753 422.40000000000003 55.069679309389244 428.8 47.53770934873626 435.20000000000005 51.37866675624764 441.59999999999997 59.10451367689916 448 66.29878100920996 454.4 64.91783960260605 460.79999999999995 67.49734121605073 467.2 73.6611891848845 473.6 78.63276784408359 480 85.77829872176292 486.4 83.4150057284869 492.8 83.84699582497348 499.20000000000005 83.6379748224249 505.6 82.83930815132243 512 87.04908846242435 518.4000000000001 93.69375225019266 524.8 96.66761441452138 531.1999999999999 92.09870159696791 537.6 94.3799757931325 544 101.24172421549488 550.4 101.14608631378206 556.8 101.8565906310198 563.2 105.42978324278923 569.6 105.13619437278163 576 106.01661540122191 582.4 106.49273855546528 588.8000000000001 108.50862727370657 595.2 104.55198553875772 601.5999999999999 89.14692078528557 608 88.95786734188141 614.4 86.2169138621204 620.8 82.74487705770986 627.2 78.74887625820378 633.6 74.18681920502124 640 75.52651522506025 640 320 0 320"
      />
      
      <polygon
        fill="#89e051"
        fillRule="evenodd"
        points="0 313.6135518063308 6.4 304.9098447627059 12.8 298.3344805857996 19.2 288.0768280626325 25.6 281.2713550086346 32 277.35297090745803 38.4 269.999954546333 44.800000000000004 260.0717451183978 51.2 250.17317828733374 57.599999999999994 235.1816033819442 64 226.78747421294634 70.4 213.32789127665876 76.8 205.81366714016647 83.2 200.42205814166212 89.60000000000001 190.4508485016183 96 178.684597420102 102.4 164.78083827052762 108.80000000000001 162.39423768556088 115.19999999999999 158.35640969742272 121.6 150.82944344792196 128 146.4702907868337 134.4 132.58697321543235 140.8 135.70635001768142 147.20000000000002 119.05180445470012 153.6 102.43455373610576 160 97.17059379128759 166.4 87.08397587522981 172.8 77.51849651900079 179.20000000000002 74.59632623038019 185.6 71.29271108103319 192 68.12756501665808 198.4 55.43676644539187 204.8 42.602930103619656 211.20000000000002 40.81636678921899 217.60000000000002 36.30468930230785 224 36.65727323787013 230.39999999999998 34.26573704345719 236.8 23.330739697875913 243.2 19.76854126286048 249.60000000000002 20.33185233900474 256 23.771836851550518 262.4 19.35801277931546 268.8 21.657319601142547 275.2 22.19770071838252 281.6 24.033571802139704 288 26.401777130699486 294.40000000000003 29.526662844952284 300.79999999999995 29.79479693097568 307.2 23.46954878584029 313.6 24.70115083085915 320 22.404376299632474 326.4 17.801995744268993 332.8 12.431394650689072 339.20000000000005 14.835886730761445 345.6 10.2024073455392 352 9.855813550369817 358.40000000000003 12.717382045212958 364.79999999999995 20.455559361428072 371.2 22.802301609342635 377.59999999999997 27.111463663768916 384 30.80877394781737 390.4 30.772717923997334 396.8 35.998681024463224 403.2 39.340603764177956 409.6 45.23240805707752 416 51.0292790489753 422.40000000000003 55.069679309389244 428.8 47.53770934873626 435.20000000000005 51.37866675624764 441.59999999999997 59.10451367689916 448 66.29878100920996 454.4 64.91783960260605 460.79999999999995 67.49734121605073 467.2 73.6611891848845 473.6 78.63276784408359 480 85.77829872176292 486.4 83.4150057284869 492.8 83.84699582497348 499.20000000000005 83.6379748224249 505.6 82.83930815132243 512 87.04908846242435 518.4000000000001 93.69375225019266 524.8 96.66761441452138 531.1999999999999 92.09870159696791 537.6 94.3799757931325 544 101.24172421549488 550.4 101.14608631378206 556.8 101.8565906310198 563.2 105.42978324278923 569.6 105.13619437278163 576 106.01661540122191 582.4 106.49273855546528 588.8000000000001 108.50862727370657 595.2 104.55198553875772 601.5999999999999 89.14692078528557 608 88.95786734188141 614.4 86.2169138621204 620.8 82.74487705770986 627.2 78.74887625820378 633.6 75.29813150850862 640 76.62419742592843 640 320 0 320"
      />
      
      <polygon
        fill="#0141ae"
        fillRule="evenodd"
        points="0 313.69578992663156 6.4 304.98957261721205 12.8 298.41185212004217 19.2 288.15460045655834 25.6 281.34682888212734 32 277.426140980113 38.4 270.0708911485386 44.800000000000004 260.16867583705493 51.2 250.62553350750673 57.599999999999994 236.59144936485268 64 228.16531214739086 70.4 215.5629278660232 76.8 209.34787935384648 83.2 203.8483900109701 89.60000000000001 193.80952604531151 96 182.16685698581335 102.4 169.2001480483175 108.80000000000001 166.68975500605376 115.19999999999999 162.5208092962345 121.6 154.87480891332575 128 151.50324833280334 134.4 138.33051952750907 140.8 141.27457784913975 147.20000000000002 124.45546645232594 153.6 107.98218531740613 160 102.6189175942842 166.4 92.52506565726392 172.8 83.01585513275353 179.20000000000002 79.93121267692152 185.6 76.46475401607731 192 73.61556131553758 198.4 61.01127671523625 204.8 50.211115883443085 211.20000000000002 49.30680453031533 217.60000000000002 44.53596017385303 224 46.72643075932939 230.39999999999998 45.535833699119735 236.8 38.06186887701364 243.2 34.37980145183241 249.60000000000002 35.187839098534994 256 40.45930308216526 262.4 36.7670839806795 268.8 38.53498829278129 275.2 38.69008481444348 281.6 40.02253059438527 288 41.96027555848838 294.40000000000003 45.10757036939492 300.79999999999995 44.91799128383866 307.2 38.14229245027957 313.6 38.92601362441485 320 36.368779197490596 326.4 33.69992894825464 332.8 28.417247262037563 339.20000000000005 30.372771359288038 345.6 26.293983134149073 352 25.536678859743972 358.40000000000003 28.083923014633456 364.79999999999995 35.36795263982225 371.2 37.588735810182015 377.59999999999997 41.46089222317033 384 45.37446380176283 390.4 45.02183934302411 396.8 49.826681172044744 403.2 53.20078776821265 409.6 58.85794850515629 416 64.62549419013956 422.40000000000003 68.63083868685348 428.8 63.218371209940415 435.20000000000005 66.93873009091917 441.59999999999997 74.20470297382283 448 80.938051284604 454.4 80.26638362911802 460.79999999999995 82.7432846864545 467.2 88.44176140688893 473.6 93.4076404347827 480 100.10217090297317 486.4 98.34491096223292 492.8 99.94036257398807 499.20000000000005 99.86326126936615 505.6 98.67434915539147 512 102.40077257786172 518.4000000000001 108.59173050648789 524.8 111.11083977286063 531.1999999999999 106.11506392440023 537.6 107.96849483938476 544 114.41546587414533 550.4 113.9304816060687 556.8 114.39444989705515 563.2 117.59709352034068 569.6 116.93210693362522 576 117.45246518546611 582.4 117.64306691753097 588.8000000000001 119.31860226026299 595.2 115.0507629165777 601.5999999999999 99.80061675187542 608 99.38371779843493 614.4 97.92044554108745 620.8 95.72566456746247 627.2 92.85893366048901 633.6 90.30673213839916 640 91.44872781034027 640 320 0 320"
      />
      
      <polygon
        fill="#26c0b0"
        fillRule="evenodd"
        points="0 313.69578992663156 6.4 305.07507372865564 12.8 298.52242518314415 19.2 288.39204058228734 25.6 281.7296780592592 32 277.8556694903005 38.4 270.5454197531927 44.800000000000004 260.80008202057667 51.2 251.7275320976281 57.599999999999994 237.7909337418896 64 230.20546902285548 70.4 218.21681964302525 76.8 212.42851538090474 83.2 207.47606785517803 89.60000000000001 198.30979915258226 96 186.52976158051013 102.4 173.8064554646974 108.80000000000001 171.1554582619454 115.19999999999999 166.8782997035734 121.6 159.3525153029869 128 156.04889284800112 134.4 143.12364980200581 140.8 145.9242254797989 147.20000000000002 128.967696146891 153.6 112.62436598922338 160 107.34720842327451 166.4 97.39179895856151 172.8 88.07448187817218 179.20000000000002 84.90350095110978 185.6 81.47885602676092 192 78.54025587017321 198.4 65.83898197869217 204.8 55.25790595268586 211.20000000000002 54.27461581449808 217.60000000000002 49.44592662226165 224 52.03139573416752 230.39999999999998 50.75683571699011 236.8 43.28768912295624 243.2 39.62422292284873 249.60000000000002 40.27217758256552 256 46.01556066036642 262.4 42.22625783897962 268.8 45.29498118450272 275.2 46.22628487766531 281.6 47.34244881274287 288 49.12237964796111 294.40000000000003 52.196473704584605 300.79999999999995 51.8480257449595 307.2 44.89921676818989 313.6 45.54046760726021 320 42.902165763483254 326.4 40.52997788151174 332.8 35.11165534813915 339.20000000000005 37.18664821806976 345.6 32.91361836647292 352 31.97353409844243 358.40000000000003 34.32992917648295 364.79999999999995 41.45130651090392 371.2 43.65067234306241 377.59999999999997 47.722445729761375 384 51.45045850043198 390.4 51.04920787405422 396.8 55.67591469832257 403.2 59.07779710726243 409.6 64.64963599731558 416 70.24039344278034 422.40000000000003 74.11931987053791 428.8 68.67686094808138 435.20000000000005 72.3179788219145 441.59999999999997 79.43586815254429 448 86.08163551973618 454.4 85.88898781330846 460.79999999999995 88.9521991643825 467.2 94.47231390177808 473.6 100.00820188742009 480 106.58875493674063 486.4 104.63978897079949 492.8 106.09856471852268 499.20000000000005 105.83348973785317 505.6 104.49632340119538 512 108.04503135370001 518.4000000000001 114.08027406039406 524.8 116.43184478636687 531.1999999999999 111.27881244195999 537.6 112.9746219900629 544 119.26878413192458 550.4 118.64036222521156 556.8 118.96056458619654 563.2 122.02825939435908 569.6 121.47118274447675 576 121.85298919630696 582.4 121.92208438594147 588.8000000000001 123.46983167262152 595.2 119.66088025956964 601.5999999999999 104.27001115352837 608 103.72102193450371 614.4 102.12535598609438 620.8 99.80222367214097 627.2 96.81501312223719 633.6 94.14205329487518 640 95.237008770138 640 320 0 320"
      />
      
      <polygon
        fill="#dea584"
        fillRule="evenodd"
        points="0 313.69578992663156 6.4 305.07507372865564 12.8 298.52242518314415 19.2 288.39204058228734 25.6 281.7296780592592 32 277.8556694903005 38.4 270.5454197531927 44.800000000000004 260.80008202057667 51.2 251.7275320976281 57.599999999999994 237.7909337418896 64 230.20546902285548 70.4 218.60521409800742 76.8 212.8050543253425 83.2 207.84111318020993 89.60000000000001 198.66405574446608 96 187.99620335073146 102.4 176.33190856251022 108.80000000000001 173.60382340965916 115.19999999999999 169.25192991285013 121.6 162.75985703241156 128 159.35222766015517 134.4 148.5573470173571 140.8 151.19206270490352 147.20000000000002 136.32709050282213 153.6 123.07446479608782 160 117.47832248857202 166.4 107.2234939338924 172.8 98.72225113241856 179.20000000000002 95.23657955594501 185.6 91.4965247209783 192 88.25214093750884 198.4 76.3815288669802 204.8 66.58275585395288 211.20000000000002 65.26476624709875 217.60000000000002 60.100606949188716 224 62.37118247727159 230.39999999999998 60.78100807379036 236.8 53.00588005604288 243.2 49.055195902073365 249.60000000000002 49.41527643620441 256 54.88843986024193 262.4 51.93125649401884 268.8 54.70374142538304 275.2 55.375252491744675 281.6 56.21214990560071 288 57.72994126745198 294.40000000000003 60.54129598686217 300.79999999999995 61.06425147448033 307.2 54.089938522836064 313.6 54.45064872083287 320 51.54900993653138 326.4 48.91288298965367 332.8 43.24680990610648 339.20000000000005 45.07348031045143 345.6 41.66897542274859 352 40.48714335307159 358.40000000000003 42.583664219540026 364.79999999999995 49.461108225762075 371.2 51.47785055498343 377.59999999999997 55.31829309734144 384 58.81444790795814 390.4 58.188415310526636 396.8 62.60412840107438 403.2 65.79453003370503 409.6 71.1678592012995 416 76.55965142645863 422.40000000000003 80.24568730855935 428.8 74.62811510043161 435.20000000000005 78.08757307584142 441.59999999999997 85.03494612467534 448 91.50980367143973 454.4 91.1567294794242 460.79999999999995 94.05914690518543 467.2 99.42337616124607 473.6 104.81293795524547 480 111.24682778767223 486.4 109.16019543226585 492.8 110.48098811008967 499.20000000000005 110.08214164214104 505.6 108.62766421367178 512 112.05026481806141 518.4000000000001 117.96713562541566 524.8 120.20006174929966 531.1999999999999 116.05402633080345 537.6 117.60407810912028 544 123.75692628243422 550.4 123.35403581695232 556.8 123.53035603587512 563.2 126.46299383147888 569.6 125.77054811242564 576 126.02112073326569 582.4 126.00008437632027 588.8000000000001 127.42335303051217 595.2 123.49755650415915 601.5999999999999 107.98957533615746 608 107.3306575223472 614.4 105.62480907994623 620.8 103.19485856491994 627.2 100.10737950924337 633.6 97.33392245104486 640 98.38973100486373 640 320 0 320"
      />
      
      <polygon
        fill="#701516"
        fillRule="evenodd"
        points="0 313.69578992663156 6.4 305.07507372865564 12.8 298.52242518314415 19.2 288.39204058228734 25.6 281.7296780592592 32 277.8556694903005 38.4 270.5454197531927 44.800000000000004 260.80008202057667 51.2 251.7275320976281 57.599999999999994 237.7909337418896 64 230.20546902285548 70.4 218.60521409800742 76.8 212.8050543253425 83.2 207.84111318020993 89.60000000000001 198.66405574446608 96 187.99620335073146 102.4 176.33190856251022 108.80000000000001 173.60382340965916 115.19999999999999 169.25192991285013 121.6 162.75985703241156 128 159.35222766015517 134.4 148.5573470173571 140.8 151.19206270490352 147.20000000000002 136.32709050282213 153.6 123.07446479608782 160 117.47832248857202 166.4 107.2234939338924 172.8 98.72225113241856 179.20000000000002 95.23657955594501 185.6 91.4965247209783 192 88.25214093750884 198.4 76.3815288669802 204.8 66.58275585395288 211.20000000000002 65.26476624709875 217.60000000000002 60.100606949188716 224 62.37118247727159 230.39999999999998 60.78100807379036 236.8 53.00588005604288 243.2 49.055195902073365 249.60000000000002 49.41527643620441 256 54.88843986024193 262.4 51.93125649401884 268.8 54.70374142538304 275.2 55.375252491744675 281.6 56.21214990560071 288 57.72994126745198 294.40000000000003 60.54129598686217 300.79999999999995 61.06425147448033 307.2 54.089938522836064 313.6 54.45064872083287 320 51.54900993653138 326.4 48.91288298965367 332.8 43.24680990610648 339.20000000000005 45.07348031045143 345.6 41.66897542274859 352 40.48714335307159 358.40000000000003 42.583664219540026 364.79999999999995 49.461108225762075 371.2 51.47785055498343 377.59999999999997 55.31829309734144 384 58.81444790795814 390.4 58.188415310526636 396.8 62.60412840107438 403.2 65.79453003370503 409.6 71.1678592012995 416 76.55965142645863 422.40000000000003 80.24568730855935 428.8 74.62811510043161 435.20000000000005 78.08757307584142 441.59999999999997 85.03494612467534 448 91.50980367143973 454.4 91.1567294794242 460.79999999999995 94.05914690518543 467.2 99.42337616124607 473.6 104.81293795524547 480 111.24682778767223 486.4 109.16019543226585 492.8 110.48098811008967 499.20000000000005 110.08214164214104 505.6 108.62766421367178 512 112.05026481806141 518.4000000000001 117.96713562541566 524.8 120.20006174929966 531.1999999999999 116.05402633080345 537.6 117.60407810912028 544 123.75692628243422 550.4 123.35403581695232 556.8 123.53035603587512 563.2 126.46299383147888 569.6 125.77054811242564 576 126.02112073326569 582.4 126.00008437632027 588.8000000000001 127.42335303051217 595.2 123.49755650415915 601.5999999999999 108.00913156749095 608 107.34963577900788 614.4 105.64320803746591 620.8 103.21269590376659 627.2 100.12468967483619 633.6 97.35070423297 640 98.40630696402945 640 320 0 320"
      />
      
      <polygon
        fill="#3572A5"
        fillRule="evenodd"
        points="0 313.69578992663156 6.4 305.07507372865564 12.8 298.52242518314415 19.2 288.39204058228734 25.6 281.7296780592592 32 277.8556694903005 38.4 270.5454197531927 44.800000000000004 260.80008202057667 51.2 251.7275320976281 57.599999999999994 237.7909337418896 64 230.20546902285548 70.4 218.60521409800742 76.8 212.8050543253425 83.2 207.84111318020993 89.60000000000001 198.66405574446608 96 187.99620335073146 102.4 176.33190856251022 108.80000000000001 173.60382340965916 115.19999999999999 169.25192991285013 121.6 163.4214848661636 128 159.9936596667382 134.4 149.2162410111885 140.8 151.83084433669137 147.20000000000002 137.94823580271247 153.6 125.44003403951749 160 119.7716838664387 166.4 109.44907634845237 172.8 100.87989891499635 179.20000000000002 97.33045887295322 185.6 93.52648966514354 192 90.2201425562302 198.4 78.295190815291 204.8 68.47387502577709 211.20000000000002 67.09999440484108 217.60000000000002 61.8798158588512 224 64.09780794688712 230.39999999999998 62.45492916472466 236.8 54.62870555011216 243.2 50.63005982585855 249.60000000000002 50.942068331734504 256 56.37010859571296 262.4 53.40353157537834 268.8 56.13107614178159 275.2 56.7631762150848 281.6 57.557708013596766 288 59.035732142588984 294.40000000000003 61.80722807746372 300.79999999999995 62.29276965213978 307.2 55.28095698996657 313.6 55.60531202751753 320 52.669547792511025 326.4 49.999217098208476 332.8 44.30103804392155 339.20000000000005 46.09552870187741 345.6 42.659826321714775 352 41.45063530251093 358.40000000000003 43.517746143369834 364.79999999999995 50.367583774210004 371.2 52.37898805500981 377.59999999999997 56.19279789615655 384 59.66225897111099 390.4 59.010347417112314 396.8 63.401768734522534 403.2 66.56782275879573 409.6 71.91829770980115 416 77.28718331505465 422.40000000000003 80.95101169914275 428.8 75.31327877406807 435.20000000000005 78.751822555041 441.59999999999997 85.67956404739783 448 92.1347449708328 454.4 91.76320102441707 460.79999999999995 94.64710633129289 467.2 99.99338837622003 473.6 105.36610376781243 480 111.78310856323023 486.4 109.6806266397985 492.8 110.98553343718109 499.20000000000005 110.57128601469685 505.6 109.10330250479078 512 112.51138461621935 518.4000000000001 118.41462717048324 524.8 120.63389396919277 531.1999999999999 116.4750368873986 537.6 118.012237512708 544 124.15262689000275 550.4 123.73804162775548 556.8 123.90264036532216 563.2 126.82427546811914 569.6 126.12080183074113 576 126.36068315777624 582.4 126.33027094329663 588.8000000000001 127.74346084707759 595.2 123.80820367256922 601.5999999999999 108.32971270930625 608 107.6607422881749 614.4 105.94481818202112 620.8 103.50509962817753 627.2 100.40845153749925 633.6 97.62580440282608 640 98.67803311039034 640 320 0 320"
      />
      
      <polygon
        fill="#0298c3"
        fillRule="evenodd"
        points="0 313.69578992663156 6.4 305.07507372865564 12.8 298.52242518314415 19.2 288.39204058228734 25.6 281.7296780592592 32 277.8556694903005 38.4 270.5454197531927 44.800000000000004 260.80008202057667 51.2 251.7275320976281 57.599999999999994 237.7909337418896 64 230.20546902285548 70.4 218.60521409800742 76.8 212.8050543253425 83.2 207.84111318020993 89.60000000000001 198.66405574446608 96 187.99620335073146 102.4 176.33190856251022 108.80000000000001 173.60382340965916 115.19999999999999 169.25192991285013 121.6 163.4214848661636 128 159.9936596667382 134.4 149.2162410111885 140.8 151.83084433669137 147.20000000000002 137.94823580271247 153.6 126.07814535068613 160 120.39031719367301 166.4 110.04942631269051 172.8 101.4619235422094 179.20000000000002 97.89528209097796 185.6 94.07407195571426 192 90.75101024387243 198.4 78.8114003705465 204.8 68.97432752027353 211.20000000000002 67.6901305105882 217.60000000000002 62.45193841703116 224 64.65302170161283 230.39999999999998 62.99319534781711 236.8 55.15054147478145 243.2 51.136473218156084 249.60000000000002 51.4330237012573 256 56.846554062308485 262.4 53.86543382697761 268.8 56.578879065300725 275.2 57.19861456580287 281.6 57.97985487959659 288 59.44540265232109 294.40000000000003 62.204393635157544 300.79999999999995 62.67819719574487 307.2 55.65461958828831 313.6 55.96756880767646 320 53.021098256580956 326.4 50.34003667828165 332.8 44.63178486400221 339.20000000000005 46.416179683955875 345.6 42.970689607567124 352 41.75291514090054 358.40000000000003 43.810799072946 364.79999999999995 50.6519756685895 371.2 52.65469906258335 377.59999999999997 56.46036039351901 384 59.921654298571696 390.4 59.2618248295048 396.8 63.645813877013666 403.2 66.80441856434447 409.6 72.14790105312608 416 77.50977815663092 422.40000000000003 81.1668119472532 428.8 75.52291069972051 435.20000000000005 78.95505558364292 441.59999999999997 85.87679063868907 448 92.32595132527342 454.4 91.94875637988505 460.79999999999995 94.82699771026108 467.2 100.16778868908256 473.6 105.53534976239106 480 111.9471884128157 486.4 109.83985719950269 492.8 111.1399035892808 499.20000000000005 110.7209440914032 505.6 109.24882828201225 512 112.65246829787898 518.4000000000001 118.551541202451 524.8 120.76662878529464 531.1999999999999 116.60384879122799 537.6 118.13711750322469 544 124.27369500162698 550.4 123.85553162037945 556.8 124.01654405991835 563.2 126.93481279421434 569.6 126.22796506141492 576 126.46457529123342 582.4 126.4312944503655 588.8000000000001 127.84140067276746 595.2 126.40245451581228 601.5999999999999 115.17758390775012 608 114.40686638530815 614.4 112.69054247267502 620.8 110.04491433432636 627.2 107.19471287600652 633.6 104.20491954131077 640 105.1764569028818 640 320 0 320"
      />
      
      <polygon
        fill="#fd2fdb"
        fillRule="evenodd"
        points="0 313.69578992663156 6.4 305.07507372865564 12.8 298.52242518314415 19.2 288.39204058228734 25.6 281.7296780592592 32 277.8556694903005 38.4 270.5454197531927 44.800000000000004 260.80008202057667 51.2 251.7275320976281 57.599999999999994 237.7909337418896 64 230.20546902285548 70.4 218.60521409800742 76.8 212.8050543253425 83.2 207.84111318020993 89.60000000000001 198.66405574446608 96 187.99620335073146 102.4 176.33190856251022 108.80000000000001 173.60382340965916 115.19999999999999 169.25192991285013 121.6 163.4214848661636 128 159.9936596667382 134.4 149.2162410111885 140.8 151.83084433669137 147.20000000000002 137.94823580271247 153.6 126.07814535068613 160 120.39031719367301 166.4 110.04942631269051 172.8 101.4619235422094 179.20000000000002 97.89528209097796 185.6 94.07407195571426 192 90.75101024387243 198.4 78.8114003705465 204.8 68.97432752027353 211.20000000000002 67.6901305105882 217.60000000000002 62.45193841703116 224 64.65302170161283 230.39999999999998 62.99319534781711 236.8 55.15054147478145 243.2 51.136473218156084 249.60000000000002 51.4330237012573 256 56.846554062308485 262.4 53.86543382697761 268.8 56.578879065300725 275.2 58.328217990032215 281.6 59.07497784633961 288 60.50815978952562 294.40000000000003 63.234710756167715 300.79999999999995 64.55882460709807 307.2 57.477841940719486 313.6 57.73513822148516 320 54.73642803719963 326.4 52.00300722284669 332.8 46.24560716004362 339.20000000000005 47.98074091021584 345.6 44.4874935337258 352 43.22783761725884 358.40000000000003 45.24070042158496 364.79999999999995 52.03961692777858 371.2 53.999983440314395 377.59999999999997 57.76588565576759 384 61.187329099164515 390.4 60.48886554189403 396.8 64.83659005586907 403.2 67.95884708362095 409.6 73.26821105743065 416 78.59589134924363 422.40000000000003 82.21977213031249 428.8 76.54577360308724 435.20000000000005 79.9466960772867 441.59999999999997 86.8391238069486 448 93.25890976309839 454.4 92.8541417338468 460.79999999999995 95.704746788125 467.2 101.01874487598928 473.6 106.3611563646948 480 112.74778778686837 486.4 110.61679534589231 492.8 111.893126121585 499.20000000000005 111.45117495630171 505.6 109.95889626190501 512 113.34086186534006 518.4000000000001 119.21958967549233 524.8 121.41428545303847 531.1999999999999 117.23236430506057 537.6 118.74644795738689 544 124.86442597749271 550.4 124.42880382512192 556.8 124.57231750261454 563.2 127.47416061258463 569.6 126.75084960727273 576 126.97149908155839 582.4 126.92422126348009 588.8000000000001 128.31928117849716 595.2 126.86621153656051 601.5999999999999 115.62718497401093 608 114.84317974810966 614.4 114.2208210382806 620.8 111.52848212488635 627.2 109.75415918321389 633.6 106.68623990174612 640 107.6273446023992 640 320 0 320"
      />
      
      <polygon
        fill="#4F5D95"
        fillRule="evenodd"
        points="0 313.69578992663156 6.4 305.07507372865564 12.8 298.52242518314415 19.2 288.39204058228734 25.6 281.7296780592592 32 277.8556694903005 38.4 270.5454197531927 44.800000000000004 260.80008202057667 51.2 251.7275320976281 57.599999999999994 237.7909337418896 64 230.20546902285548 70.4 218.60521409800742 76.8 212.8050543253425 83.2 207.84111318020993 89.60000000000001 198.66405574446608 96 187.99620335073146 102.4 176.33190856251022 108.80000000000001 173.60382340965916 115.19999999999999 169.25192991285013 121.6 163.4214848661636 128 159.9936596667382 134.4 149.2162410111885 140.8 151.83084433669137 147.20000000000002 137.94823580271247 153.6 126.07814535068613 160 120.39031719367301 166.4 110.04942631269051 172.8 101.4619235422094 179.20000000000002 97.89528209097796 185.6 94.07407195571426 192 90.75101024387243 198.4 78.8114003705465 204.8 68.97432752027353 211.20000000000002 67.6901305105882 217.60000000000002 62.45193841703116 224 64.6726487719551 230.39999999999998 63.01222331261977 236.8 55.168988621774474 243.2 51.15437516926448 249.60000000000002 51.45037920702157 256 56.863396635163326 262.4 53.8817622893896 268.8 56.59470911052199 275.2 58.34361094227313 281.6 59.08990093708718 288 60.52264183649385 294.40000000000003 63.248750747253325 300.79999999999995 64.57244965433847 307.2 57.491051090579845 313.6 57.74794416995326 320 54.74885551247576 326.4 52.01505535667985 332.8 46.25729921745136 339.20000000000005 47.992076074322824 345.6 44.498482698770545 352 43.23852335322965 358.40000000000003 45.2510599818462 364.79999999999995 52.04967031601183 371.2 54.00972995524006 377.59999999999997 57.77534411736889 384 61.196498847262376 390.4 60.497755388465805 396.8 64.8452171676247 403.2 67.96721085792225 409.6 73.27632764477437 416 78.60376018192707 422.40000000000003 82.22740077188098 428.8 76.55318419137333 435.20000000000005 79.95388046100578 441.59999999999997 86.8460958596219 448 93.26566899829982 454.4 92.8607012032902 460.79999999999995 95.71110603364099 467.2 101.0249100094486 473.6 106.36713929089785 480 112.75358808771898 486.4 110.62242422203423 492.8 111.8985831794796 499.20000000000005 111.45646544039067 505.6 109.96404066733095 512 113.3458492404263 518.4000000000001 119.22442965145476 524.8 121.4189776917215 531.1999999999999 117.2369178669976 537.6 118.75086252435631 544 124.86870579231353 550.4 124.43295715231096 556.8 124.57634405220676 563.2 127.4780681593827 569.6 126.75463787836836 576 126.97517171805737 582.4 126.92779249247178 588.8000000000001 128.32274339780162 595.2 126.86957143171068 601.5999999999999 115.63044231042488 608 114.84634081562393 614.4 114.22388561587644 620.8 111.53145315804122 627.2 109.75704240906336 633.6 106.6890351188971 640 107.63010553668403 640 320 0 320"
      />
      
      <polygon
        fill="#755462"
        fillRule="evenodd"
        points="0 318.02122409500566 6.4 313.52736391037894 12.8 310.89612335390314 19.2 304.60635932334196 25.6 301.51235850857336 32 299.63474573024257 38.4 295.6873288115708 44.800000000000004 289.60724651940524 51.2 284.8540358481165 57.599999999999994 274.4471224705196 64 270.19676613295013 70.4 262.95237659887175 76.8 259.78061305396545 83.2 257.2939708798615 89.60000000000001 251.48859214788047 96 243.11576457768055 102.4 233.6907755023405 108.80000000000001 232.44229079798475 115.19999999999999 230.48709586137792 121.6 226.74326867605964 128 225.02615488104448 134.4 216.76222944796203 140.8 218.7515543460691 147.20000000000002 208.35862034433336 153.6 198.35255285044803 160 194.34759452404853 166.4 186.11869703980778 172.8 178.69897648941574 179.20000000000002 176.47502719852628 185.6 173.87229075817 192 171.3869833992886 198.4 162.65603578728388 204.8 154.1287098515366 211.20000000000002 153.5479862650949 217.60000000000002 149.77127026513952 224 151.9918326577581 230.39999999999998 150.24041038061114 236.8 143.46429730397284 243.2 140.6979801710334 249.60000000000002 142.92930753035478 256 147.05373357109283 262.4 144.4471672292133 268.8 147.14075051114446 275.2 149.53423368604808 281.6 150.79099877201963 288 152.3821929152692 294.40000000000003 155.035569105288 300.79999999999995 154.4905195081039 307.2 148.88686364389517 313.6 148.9629447310564 320 145.9047091695174 326.4 141.78909829137737 332.8 137.4587160169074 339.20000000000005 139.3710620254647 345.6 135.0640469035758 352 134.187808274246 358.40000000000003 137.09701702381435 364.79999999999995 142.45246057215365 371.2 144.39920360389723 377.59999999999997 146.97584816581872 384 149.82615610140982 390.4 149.06458003862522 396.8 151.71933249386234 403.2 154.19236043019438 409.6 158.30291369985733 416 162.42162161400188 422.40000000000003 164.48556996505894 428.8 158.22330083466784 435.20000000000005 161.34787272703608 441.59999999999997 165.87468873061886 448 170.07066173862256 454.4 168.56369329845955 460.79999999999995 169.2138472719386 467.2 173.47274166131353 473.6 177.15380636033632 480 181.4937515208046 486.4 177.55148279899007 492.8 179.1102086590799 499.20000000000005 179.84347162097117 505.6 178.85215921318922 512 181.19128255781828 518.4000000000001 185.21850517304023 524.8 189.19424194081677 531.1999999999999 186.26909107485605 537.6 186.94226561976618 544 190.98338086794774 550.4 193.06118710137298 556.8 195.38484583684954 563.2 199.0288475093723 569.6 200.45623429000705 576 202.54864542021457 582.4 204.6815359751777 588.8000000000001 208.14738991202475 595.2 207.11135348277764 601.5999999999999 197.5379870780614 608 198.09250980772038 614.4 198.3792274886977 620.8 197.5483221526161 627.2 197.64432345632707 633.6 195.98824749281079 640 196.9170545070229 640 320 0 320"
      />
      
      <polygon
        fill="#2415b9"
        fillRule="evenodd"
        points="0 318.02122409500566 6.4 313.52736391037894 12.8 310.89612335390314 19.2 304.60635932334196 25.6 301.51235850857336 32 299.63474573024257 38.4 295.6873288115708 44.800000000000004 289.60724651940524 51.2 284.8540358481165 57.599999999999994 274.4471224705196 64 270.19676613295013 70.4 262.95237659887175 76.8 259.78061305396545 83.2 257.2939708798615 89.60000000000001 251.48859214788047 96 243.11576457768055 102.4 233.6907755023405 108.80000000000001 232.44229079798475 115.19999999999999 230.48709586137792 121.6 226.74326867605964 128 225.02615488104448 134.4 216.76222944796203 140.8 218.7515543460691 147.20000000000002 208.35862034433336 153.6 198.35255285044803 160 194.34759452404853 166.4 186.11869703980778 172.8 178.69897648941574 179.20000000000002 176.47502719852628 185.6 173.87229075817 192 171.3869833992886 198.4 162.65603578728388 204.8 154.1287098515366 211.20000000000002 153.5479862650949 217.60000000000002 149.77127026513952 224 151.9918326577581 230.39999999999998 150.24041038061114 236.8 143.46429730397284 243.2 140.6979801710334 249.60000000000002 142.92930753035478 256 147.05373357109283 262.4 144.4471672292133 268.8 147.14075051114446 275.2 149.53423368604808 281.6 150.79099877201963 288 152.3821929152692 294.40000000000003 155.035569105288 300.79999999999995 154.4905195081039 307.2 148.88686364389517 313.6 148.9629447310564 320 145.9047091695174 326.4 142.1487288947431 332.8 137.8183466202731 339.20000000000005 139.7306926288304 345.6 135.4236775069415 352 134.5474388776117 358.40000000000003 137.45664762718008 364.79999999999995 142.81209117551938 371.2 144.75883420726294 377.59999999999997 147.33547876918448 384 150.18578670477552 390.4 149.42421064199092 396.8 152.07896309722804 403.2 154.55199103356009 409.6 158.66254430322303 416 162.7812522173676 422.40000000000003 164.84520056842467 428.8 158.58293143803354 435.20000000000005 161.7075033304018 441.59999999999997 166.2343193339846 448 170.43029234198826 454.4 168.92332390182526 460.79999999999995 169.57347787530432 467.2 173.83237226467924 473.6 177.51343696370202 480 181.8533821241703 486.4 177.91111340235577 492.8 179.4698392624456 499.20000000000005 180.20310222433687 505.6 179.21178981655493 512 181.55091316118398 518.4000000000001 185.57813577640596 524.8 189.55387254418247 531.1999999999999 186.62872167822178 537.6 187.30189622313188 544 191.34301147131345 550.4 193.42081770473868 556.8 195.74447644021527 563.2 199.388478112738 569.6 200.81586489337275 576 202.9082760235803 582.4 205.04116657854343 588.8000000000001 208.50702051539045 595.2 207.47098408614335 601.5999999999999 197.8976176814271 608 198.45214041108608 614.4 198.73885809206342 620.8 197.9079527559818 627.2 198.00395405969277 633.6 196.3478780961765 640 196.9170545070229 640 320 0 320"
      />
      
      <polygon
        fill="#f1e05a"
        fillRule="evenodd"
        points="0 318.02122409500566 6.4 313.52736391037894 12.8 310.89612335390314 19.2 304.60635932334196 25.6 301.51235850857336 32 299.63474573024257 38.4 295.6873288115708 44.800000000000004 289.60724651940524 51.2 284.8540358481165 57.599999999999994 275.55862712500397 64 271.27434272255493 70.4 264.3815369029646 76.8 261.62326635064807 83.2 259.09162822296696 89.60000000000001 253.23312064544118 96 246.00810983725063 102.4 237.6110840492459 108.80000000000001 236.28997348581447 115.19999999999999 234.21733007850565 121.6 230.51368627003023 128 228.68148205080357 134.4 222.60338567088826 140.8 224.41441342221665 147.20000000000002 213.85411658531865 153.6 203.68030247904136 160 199.5127171387679 166.4 191.1311673550681 172.8 184.67462510485345 179.20000000000002 182.27406831451157 185.6 179.49431912238867 192 176.83740405420602 198.4 169.27904846473135 204.8 161.91440621463337 211.20000000000002 161.1035796654822 217.60000000000002 157.65207967518248 224 159.74987794852652 230.39999999999998 157.7616457006689 236.8 151.88572398731532 243.2 148.8705167889466 249.60000000000002 150.85238381145328 256 154.7426482012439 262.4 153.00433905258618 268.8 155.44776020426812 275.2 157.61187611792514 281.6 159.39932547993124 288 161.3843258200328 294.40000000000003 163.7629156641351 300.79999999999995 164.08014003444887 307.2 158.18376376539504 313.6 157.97606445350442 320 154.6514505040524 326.4 150.62848149685544 332.8 146.047484471334 339.20000000000005 147.70864031987443 345.6 144.26952276060402 352 143.1490379244504 358.40000000000003 145.7956880768715 364.79999999999995 150.90467471769227 371.2 152.60439776314402 377.59999999999997 154.9491699797875 384 157.56707434432354 390.4 156.5801886810143 396.8 159.02345059854014 403.2 161.28450300960435 409.6 165.1960796535339 416 169.1153547248368 422.40000000000003 170.98595785440278 428.8 165.66904969107912 435.20000000000005 168.57732124329507 441.59999999999997 172.90110316592572 448 176.89357662822488 454.4 175.19558885181013 460.79999999999995 175.65428628097538 467.2 179.72756760958322 473.6 183.23440237844818 480 187.3997187270438 486.4 183.29352996520876 492.8 184.687962180457 499.20000000000005 185.26194372060155 505.6 184.1309490396952 512 186.31991807903614 518.4000000000001 190.20619457644185 524.8 194.04066238087185 531.1999999999999 190.98290810783172 537.6 191.52317284038836 544 195.43543511492564 550.4 197.39229305536853 556.8 199.594724835521 563.2 203.12493404205554 569.6 204.4382683951517 576 206.4201075000484 582.4 208.45603075267445 588.8000000000001 211.81764781416797 595.2 210.68376802243398 601.5999999999999 201.0123326127151 608 201.4748022381046 614.4 201.6692544272532 620.8 200.74890002072527 627.2 200.76093877847484 633.6 199.02070771249697 640 199.55710225257258 640 320 0 320"
      />
      
      <polygon
        fill="#22e8e8"
        fillRule="evenodd"
        points="0 319.92567425953865 6.4 319.8564689909838 12.8 319.8272329135596 19.2 318.66030304882605 25.6 318.54752999174616 32 318.40759783053 38.4 318.2695444451413 44.800000000000004 316.0115360592978 51.2 316.0194985788359 57.599999999999994 310.27120047787207 64 309.37987155319706 70.4 306.93693445403215 76.8 307.02226822010834 83.2 306.27910596347726 89.60000000000001 304.584116889785 96 300.1563026394129 102.4 294.75364859389185 108.80000000000001 293.4787813884732 115.19999999999999 293.78096072552194 121.6 290.88386869134285 128 291.2549300609601 134.4 286.9785429307826 140.8 287.29592203473226 147.20000000000002 280.08963370877973 153.6 272.3565277009126 160 270.68736397827735 166.4 264.64103955447246 172.8 259.71603663200716 179.20000000000002 258.4821359042078 185.6 256.4976327277275 192 254.7095749221163 198.4 249.75804183426237 204.8 243.84333050788197 211.20000000000002 243.32680406668914 217.60000000000002 241.83027555908956 224 242.76855797864192 230.39999999999998 241.70745856384116 236.8 237.21785631308188 243.2 234.04435719088372 249.60000000000002 235.7303170703931 256 237.4044308205792 262.4 235.56053412677332 268.8 237.0050966903471 275.2 238.39936267405528 281.6 240.81757739894857 288 242.54146537068644 294.40000000000003 244.59172274907593 300.79999999999995 243.76037533861643 307.2 239.79404815144957 313.6 239.8280873935613 320 237.4353123004902 326.4 235.72256918867419 332.8 231.99176973498956 339.20000000000005 232.2007413172033 345.6 229.58698524030126 352 229.00008227532936 358.40000000000003 230.61537761832219 364.79999999999995 233.24734168992103 371.2 234.3858611788206 377.59999999999997 235.44977817609677 384 235.9808324606464 390.4 235.02389888901746 396.8 236.2727618117412 403.2 237.10995446279978 409.6 239.1760815279781 416 241.04016017748688 422.40000000000003 242.0107414839097 428.8 236.84732366210255 435.20000000000005 238.18587955674784 441.59999999999997 240.60231433620794 448 242.6985172779203 454.4 240.20796530264812 460.79999999999995 240.05521261487493 467.2 242.49390092506493 473.6 244.4775932270111 480 246.78130744518432 486.4 243.48881580397654 492.8 244.0437756594963 499.20000000000005 246.2049817300154 505.6 246.8956033940172 512 247.99731253287868 518.4000000000001 250.11824254461084 524.8 252.23282528169682 531.1999999999999 249.58178650564707 537.6 249.44273985392613 544 251.5948877543109 550.4 252.51202998755525 556.8 253.35344180430218 563.2 255.30239018338204 569.6 256.1532827362223 576 257.94405215658287 582.4 258.9969775582252 588.8000000000001 260.8264798830039 595.2 259.2206003370926 601.5999999999999 252.11869270790947 608 252.09483386836746 614.4 251.32929017992365 620.8 250.03621256103548 627.2 248.8402562321437 633.6 247.3803274235251 640 247.38942746288186 640 320 0 320"
      />
      
      <polygon
        fill="#22e4e8"
        fillRule="evenodd"
        points="0 319.92567425953865 6.4 319.8564689909838 12.8 319.8272329135596 19.2 318.66030304882605 25.6 318.54752999174616 32 318.40759783053 38.4 318.2695444451413 44.800000000000004 316.0115360592978 51.2 316.0194985788359 57.599999999999994 310.27120047787207 64 309.37987155319706 70.4 306.93693445403215 76.8 307.02226822010834 83.2 306.27910596347726 89.60000000000001 304.584116889785 96 300.1563026394129 102.4 294.75364859389185 108.80000000000001 293.4787813884732 115.19999999999999 293.78096072552194 121.6 290.88386869134285 128 291.2549300609601 134.4 286.9785429307826 140.8 287.29592203473226 147.20000000000002 280.08963370877973 153.6 272.3565277009126 160 270.68736397827735 166.4 264.64103955447246 172.8 259.71603663200716 179.20000000000002 258.4821359042078 185.6 256.4976327277275 192 254.7095749221163 198.4 249.75804183426237 204.8 243.84333050788197 211.20000000000002 243.32680406668914 217.60000000000002 241.83027555908956 224 242.76855797864192 230.39999999999998 241.70745856384116 236.8 237.21785631308188 243.2 234.04435719088372 249.60000000000002 235.7303170703931 256 237.4044308205792 262.4 235.56053412677332 268.8 237.0050966903471 275.2 238.39936267405528 281.6 240.81757739894857 288 242.54146537068644 294.40000000000003 244.59172274907593 300.79999999999995 243.76037533861643 307.2 239.79404815144957 313.6 239.8280873935613 320 237.4353123004902 326.4 235.773944989155 332.8 232.0431455354704 339.20000000000005 232.25211711768412 345.6 229.6383610407821 352 229.05145807581016 358.40000000000003 230.666753418803 364.79999999999995 233.29871749040183 371.2 234.43723697930142 377.59999999999997 235.5011539765776 384 236.03220826112724 390.4 235.0752746894983 396.8 236.32413761222202 403.2 237.16133026328058 409.6 239.22745732845894 416 241.09153597796768 422.40000000000003 242.06211728439052 428.8 236.89869946258335 435.20000000000005 238.23725535722866 441.59999999999997 240.65369013668877 448 242.7498930784011 454.4 240.25934110312895 460.79999999999995 240.10658841535576 467.2 242.54527672554576 473.6 244.52896902749194 480 246.83268324566515 486.4 243.54019160445736 492.8 244.09515145997713 499.20000000000005 246.25635753049622 505.6 246.946979194498 512 248.0486883333595 518.4000000000001 250.16961834509166 524.8 252.28420108217762 531.1999999999999 249.63316230612787 537.6 249.49411565440698 544 251.6462635547917 550.4 252.56340578803608 556.8 253.404817604783 563.2 255.35376598386287 569.6 256.2046585367031 576 257.99542795706367 582.4 259.048353358706 588.8000000000001 260.87785568348477 595.2 259.27197613757346 601.5999999999999 252.17006850839027 608 252.14620966884826 614.4 251.38066598040447 620.8 250.0875883615163 627.2 248.8916320326245 633.6 247.43170322400593 640 247.38942746288186 640 320 0 320"
      />
      
      <polygon
        fill="#e34c26"
        fillRule="evenodd"
        points="0 319.92567425953865 6.4 319.8564689909838 12.8 319.8272329135596 19.2 318.66030304882605 25.6 318.63876235732783 32 318.51260279465106 38.4 318.3713441932897 44.800000000000004 316.110524948008 51.2 316.20707477059034 57.599999999999994 311.6486227820907 64 310.7510465600772 70.4 308.2675850515058 76.8 308.3123014693525 83.2 307.5297617680607 89.60000000000001 305.7978100664577 96 302.085768708716 102.4 297.7266083412576 108.80000000000001 296.36099307965327 115.19999999999999 296.5751949546846 121.6 294.70441118780417 128 294.97529498681547 134.4 291.7197435736694 140.8 292.19422751220253 147.20000000000002 288.1167936625947 153.6 282.47604583703514 160 280.50909975468505 166.4 276.09419640737633 172.8 271.3320881667055 179.20000000000002 270.33210197225327 185.6 269.08201021230815 192 268.32412300392417 198.4 264.1112691203514 204.8 258.7341593077823 211.20000000000002 258.8780194610019 217.60000000000002 257.33906584488125 224 258.03728969910696 230.39999999999998 256.5238232785246 236.8 252.72249748922673 243.2 250.19333824391884 249.60000000000002 252.1900806156968 256 254.18868597675174 262.4 252.86782883986888 268.8 253.8010059331007 275.2 254.9077380017739 281.6 256.83305946195026 288 258.58289632299505 294.40000000000003 260.45211976571426 300.79999999999995 259.9720965191987 307.2 257.8643865284463 313.6 257.5420585580389 320 255.72567062559406 326.4 254.32302054280413 332.8 252.44401044165005 339.20000000000005 252.30171334578432 345.6 249.89599227025326 352 249.6073186344604 358.40000000000003 250.63987676788753 364.79999999999995 252.68977870793893 371.2 254.04379399195528 377.59999999999997 254.88135126734502 384 255.76538093406612 390.4 254.206108229956 396.8 254.90086362168995 403.2 255.17101745277768 409.6 256.7048706746546 416 258.1051193497784 422.40000000000003 258.55637659716905 428.8 255.1694383969996 435.20000000000005 257.12073291365937 441.59999999999997 258.97907853759244 448 260.5159027911857 454.4 258.6005635257408 460.79999999999995 258.0205830388773 467.2 259.91245507168173 473.6 261.3828733288603 480 263.1721318588548 486.4 261.8204237592864 492.8 263.55761476502244 499.20000000000005 265.20788541721186 505.6 265.5769644412924 512 267.22153905848245 518.4000000000001 268.77582378887547 524.8 270.3394082584167 531.1999999999999 268.4386308471085 537.6 268.96361538908616 544 270.52147063486103 550.4 271.9837861473916 556.8 273.4494499030408 563.2 274.8252303291525 569.6 276.2041592492705 576 277.5410121697069 582.4 278.71337603230705 588.8000000000001 279.9736242125983 595.2 278.9297466031786 601.5999999999999 275.7239176658781 608 277.0324758265819 614.4 278.286295994129 620.8 278.4158708039351 627.2 279.64486561544595 633.6 279.5824993495989 640 280.0782155583698 640 320 0 320"
      />
      
      <polygon
        fill="#00ADD8"
        fillRule="evenodd"
        points="0 319.92567425953865 6.4 319.8564689909838 12.8 319.8272329135596 19.2 318.66030304882605 25.6 318.63876235732783 32 318.51536256527396 38.4 318.3740197235264 44.800000000000004 316.6121807665033 51.2 316.6934178262492 57.599999999999994 313.13944308890143 64 312.19636044335726 70.4 310.8820306944019 76.8 310.86396547305463 83.2 310.00353759219547 89.60000000000001 308.66170782604036 96 305.8714477924742 102.4 303.7931601677985 108.80000000000001 303.02444467717515 115.19999999999999 303.31529308142785 121.6 302.49019077969774 128 302.91324250712114 134.4 300.97568998957394 140.8 301.5563908268112 147.20000000000002 299.631158205669 153.6 295.8211894962817 160 294.0784556273579 166.4 290.71613557023613 172.8 287.71238259630945 179.20000000000002 287.3468207492547 185.6 286.11583770454035 192 284.93731626729976 198.4 282.37654372462845 204.8 277.94386394962214 211.20000000000002 278.0796478270061 217.60000000000002 276.0328115426203 224 276.21169695258965 230.39999999999998 274.14901397722326 236.8 270.30473493617546 243.2 268.0869500323576 249.60000000000002 269.66607598979914 256 271.1481891259444 262.4 270.41256297998257 268.8 270.8101997565184 275.2 272.16289552502553 281.6 273.56150816860855 288 274.9228597217055 294.40000000000003 276.29331559068083 300.79999999999995 276.46435217575845 307.2 274.6332577149228 313.6 273.79906442419696 320 272.0443798556456 326.4 270.1436136442619 332.8 268.24948467254234 339.20000000000005 268.7286128190364 345.6 266.932339231741 352 266.1732605466178 358.40000000000003 266.7001544188445 364.79999999999995 268.2754076684458 371.2 269.77299981951785 377.59999999999997 270.14569035686895 384 271.6310223924175 390.4 270.8758826899171 396.8 271.211397934369 403.2 272.69786151164794 409.6 274.09582985131715 416 275.469152469409 422.40000000000003 275.7089890501769 428.8 272.9524750775795 435.20000000000005 274.3609482990991 441.59999999999997 275.7097703116997 448 277.0616961419105 454.4 276.4936358682745 460.79999999999995 276.69947496518137 467.2 278.0211865843778 473.6 279.0984751612451 480 280.34697873079483 486.4 279.2673609806369 492.8 280.4775215572685 499.20000000000005 281.61132053486836 505.6 281.52747255694203 512 282.68516693310346 518.4000000000001 283.78243206522336 524.8 284.88795092519365 531.1999999999999 282.61007308332427 537.6 282.84177784074114 544 283.9760118686194 550.4 285.0406838230085 556.8 286.1077926138157 563.2 287.10946268095415 569.6 288.11342275247296 576 289.0867492425932 582.4 289.94031701556577 588.8000000000001 290.85787165263577 595.2 291.71915411856014 601.5999999999999 290.3472285626108 608 291.22360321450986 614.4 292.10199780259137 620.8 292.92838875941493 627.2 293.7284798932237 633.6 293.5546188926892 640 293.87896803640825 640 320 0 320"
      />
      
      <polygon
        fill="#244776"
        fillRule="evenodd"
        points="0 319.92567425953865 6.4 319.8564689909838 12.8 319.8272329135596 19.2 318.66030304882605 25.6 318.63876235732783 32 318.51536256527396 38.4 318.3740197235264 44.800000000000004 316.6121807665033 51.2 316.6934178262492 57.599999999999994 313.13944308890143 64 312.19636044335726 70.4 310.8820306944019 76.8 310.86396547305463 83.2 310.00353759219547 89.60000000000001 308.66170782604036 96 305.8714477924742 102.4 303.7931601677985 108.80000000000001 303.02444467717515 115.19999999999999 303.31529308142785 121.6 302.49019077969774 128 302.91324250712114 134.4 300.97568998957394 140.8 301.5563908268112 147.20000000000002 299.631158205669 153.6 295.8211894962817 160 294.0784556273579 166.4 290.71613557023613 172.8 287.71238259630945 179.20000000000002 287.3468207492547 185.6 286.11583770454035 192 284.93731626729976 198.4 282.37654372462845 204.8 277.94386394962214 211.20000000000002 278.0796478270061 217.60000000000002 276.0328115426203 224 276.21169695258965 230.39999999999998 274.14901397722326 236.8 270.30473493617546 243.2 268.0869500323576 249.60000000000002 269.66607598979914 256 271.1481891259444 262.4 270.41256297998257 268.8 270.8101997565184 275.2 272.16289552502553 281.6 273.56150816860855 288 274.9228597217055 294.40000000000003 276.29331559068083 300.79999999999995 276.46435217575845 307.2 274.6332577149228 313.6 273.79906442419696 320 272.0443798556456 326.4 270.1436136442619 332.8 268.24948467254234 339.20000000000005 268.7286128190364 345.6 266.932339231741 352 266.1732605466178 358.40000000000003 266.7001544188445 364.79999999999995 268.2754076684458 371.2 269.77299981951785 377.59999999999997 270.14569035686895 384 271.6310223924175 390.4 270.8758826899171 396.8 271.211397934369 403.2 272.69786151164794 409.6 274.09582985131715 416 275.469152469409 422.40000000000003 275.7089890501769 428.8 272.9524750775795 435.20000000000005 274.3609482990991 441.59999999999997 275.7097703116997 448 277.0616961419105 454.4 276.4936358682745 460.79999999999995 276.69947496518137 467.2 278.0211865843778 473.6 279.0984751612451 480 280.34697873079483 486.4 279.2673609806369 492.8 280.4775215572685 499.20000000000005 281.61132053486836 505.6 281.52747255694203 512 282.68516693310346 518.4000000000001 283.78243206522336 524.8 284.88795092519365 531.1999999999999 282.61007308332427 537.6 282.84177784074114 544 283.9760118686194 550.4 285.0406838230085 556.8 286.1077926138157 563.2 287.10946268095415 569.6 288.11342275247296 576 289.0867492425932 582.4 289.94031701556577 588.8000000000001 290.85787165263577 595.2 291.71915411856014 601.5999999999999 290.40278977487907 608 291.277522343168 614.4 292.15427108282074 620.8 292.97906642441814 627.2 293.7776598097907 633.6 293.6022976186413 640 293.92606199477916 640 320 0 320"
      />
      
      <polygon
        fill="#563d7c"
        fillRule="evenodd"
        points="0 319.92567425953865 6.4 319.8564689909838 12.8 319.8272329135596 19.2 318.66030304882605 25.6 318.63876235732783 32 318.51536256527396 38.4 318.3740197235264 44.800000000000004 316.6121807665033 51.2 316.6934178262492 57.599999999999994 314.2496032386872 64 313.27263362890386 70.4 311.92649516959045 76.8 311.87654828424843 83.2 310.98521189980715 89.60000000000001 309.61436929435615 96 306.79502973570504 102.4 305.79142367427704 108.80000000000001 304.96171236728446 115.19999999999999 305.19342660867414 121.6 304.31464060275397 128 304.68200219547543 134.4 303.81183454173686 140.8 304.3059635588579 147.20000000000002 302.2994687038276 153.6 298.4080514718997 160 296.58635505266886 166.4 293.1499155391998 172.8 290.07187264401983 179.20000000000002 289.63657749820806 185.6 288.33570096499085 192 287.0894192652349 198.4 284.46922372495027 204.8 279.9726659511677 211.20000000000002 280.0484897483201 217.60000000000002 277.9415556965575 224 278.06402934733126 230.39999999999998 275.94480473474573 236.8 273.1750967989746 243.2 271.6223064878659 249.60000000000002 273.0935179874039 256 274.4743347935119 262.4 273.6371799961431 268.8 273.93638710955696 275.2 275.2027637241346 281.6 276.5085860207113 288 277.7828383297243 294.40000000000003 279.0659951027518 300.79999999999995 279.1550867723045 307.2 277.241859155011 313.6 276.32803953863595 320 274.4986124280291 326.4 272.52293228491953 332.8 270.55848371380785 339.20000000000005 270.9671311463995 345.6 269.10252805271944 352 268.2835268944506 358.40000000000003 268.7460059935376 364.79999999999995 270.2607952690562 371.2 271.6977846286327 377.59999999999997 272.01358931090147 384 273.4419046885796 390.4 272.6314887348259 396.8 272.9151181198498 403.2 274.34957674859527 409.6 275.69872934392157 416 277.02312432117714 422.40000000000003 277.2155268583803 428.8 275.39027900474 435.20000000000005 276.72433961959484 441.59999999999997 278.0033128406389 448 279.2852294840441 454.4 278.6514542185099 460.79999999999995 278.7914270731619 467.2 280.04928309343114 473.6 281.0666323458903 480 282.25505890388655 486.4 281.1190489173373 492.8 282.2726877905603 499.20000000000005 283.3516902641317 505.6 283.21978803397724 512 284.32582527577443 518.4000000000001 285.3746016191457 524.8 286.43152051313524 531.1999999999999 284.10802332372566 537.6 284.294004029721 544 285.38390968117363 550.4 286.4069718609953 556.8 287.4323755237494 563.2 288.3948981556859 569.6 289.3596211412309 576 290.29490821803813 582.4 291.1151166562425 588.8000000000001 291.9968111900801 595.2 292.82443289941483 601.5999999999999 291.4743305299402 608 292.31739433555157 614.4 293.162401615769 620.8 293.95642424002506 627.2 294.7261325063417 633.6 294.5218186130989 640 294.83430528177 640 320 0 320"
      />
      
      <polygon
        fill="#178600"
        fillRule="evenodd"
        points="0 320 6.4 320 12.8 320 19.2 320 25.6 320 32 320 38.4 320 44.800000000000004 320 51.2 320 57.599999999999994 318.7303285731362 64 318.7690846377653 70.4 318.805463729059 76.8 318.84192621355203 83.2 318.87727569270345 89.60000000000001 318.910457267202 96 318.94371484705977 102.4 318.9749329001149 108.80000000000001 319.00622246828425 115.19999999999999 319.03655692949724 121.6 319.06409552992324 128 319.09266351643794 134.4 319.1194793210021 140.8 319.1463567354262 147.20000000000002 319.1715857264664 153.6 319.18567772835735 160 319.2105344400721 166.4 319.2338666879343 172.8 319.25725242828 179.20000000000002 319.27920396177956 185.6 318.1941407261261 192 318.2492635384137 198.4 318.29760413880337 204.8 316.1388744229681 211.20000000000002 316.24748522847136 217.60000000000002 316.3620284593071 224 316.4695466145609 230.39999999999998 316.57731190796534 236.8 316.2415602629051 243.2 315.63817830442576 249.60000000000002 315.771320438149 256 315.89629690214383 262.4 316.0215598376022 268.8 316.1429994887403 275.2 316.2494975363749 281.6 316.36397975331 288 316.47144036766724 294.40000000000003 316.579147596142 300.79999999999995 316.6802488728151 307.2 315.9758116395544 313.6 316.0986477877012 320 314.3108443231279 326.4 314.48450264612956 332.8 313.5209111817647 339.20000000000005 313.7186815037028 345.6 313.91041537458756 352 312.97612383749174 358.40000000000003 313.19052255376505 364.79999999999995 313.39177338068254 371.2 313.5934860760463 377.59999999999997 313.7828271703995 384 313.97260249301837 390.4 314.15658570789105 396.8 314.3292844645168 403.2 314.50237985259736 409.6 314.66485934599785 416 314.82771118037476 422.40000000000003 314.9855922622029 428.8 313.2129028799705 435.20000000000005 313.420075384403 441.59999999999997 313.61454142035734 448 313.8094540147695 454.4 313.19872593333105 460.79999999999995 313.40633091925196 467.2 313.6075994194448 473.6 313.79652313679486 480 313.98588046590106 486.4 314.1636247063149 492.8 314.3417768705846 499.20000000000005 314.5144907008702 505.6 314.6659547808157 512 314.8287734264255 518.4000000000001 314.98160615769586 524.8 315.13478978568344 531.1999999999999 315.27857842378876 537.6 315.4226971000363 544 315.5624165692403 550.4 315.6935671097828 556.8 315.8250184864625 563.2 315.94840783895376 569.6 316.07208020017947 576 316.19197783749166 582.4 316.2971234993799 588.8000000000001 316.4101518017117 595.2 316.51624765902983 601.5999999999999 316.6225875822257 608 316.72240487489324 614.4 316.82245174546273 620.8 316.9194444993714 627.2 317.0104887164966 633.6 317.10174185845193 640 317.1372883021472 640 320 0 320"
      />
      
      <polygon
        fill="#555555"
        fillRule="evenodd"
        points="0 320 6.4 320 12.8 320 19.2 320 25.6 320 32 320 38.4 320 44.800000000000004 320 51.2 320 57.599999999999994 318.7303285731362 64 318.7690846377653 70.4 318.805463729059 76.8 318.84192621355203 83.2 318.87727569270345 89.60000000000001 318.910457267202 96 318.94371484705977 102.4 318.9749329001149 108.80000000000001 319.00622246828425 115.19999999999999 319.03655692949724 121.6 319.06409552992324 128 319.09266351643794 134.4 319.1194793210021 140.8 319.1463567354262 147.20000000000002 319.1715857264664 153.6 319.18567772835735 160 319.2105344400721 166.4 319.2338666879343 172.8 319.25725242828 179.20000000000002 319.27920396177956 185.6 318.1941407261261 192 318.2492635384137 198.4 318.29760413880337 204.8 317.24284913187915 211.20000000000002 317.31883250226787 217.60000000000002 317.4006734948236 224 317.4774951230481 230.39999999999998 317.5544932990734 236.8 317.1889136862668 243.2 316.55753325229625 249.60000000000002 316.66261258802604 256 316.76124734334354 262.4 316.8601082549348 268.8 316.95595166026055 275.2 317.04000277810195 281.6 317.13035524062394 288 317.2151660524271 294.40000000000003 317.30017147576245 300.79999999999995 317.3799633342408 307.2 317.45993860432685 313.6 317.5374725991257 320 316.50570955758684 326.4 316.6123708569651 332.8 315.58589130274765 339.20000000000005 315.720629374337 345.6 315.8512549158495 352 314.86337348677534 358.40000000000003 315.0201651344791 364.79999999999995 315.1673419038745 371.2 315.31485641778227 377.59999999999997 315.45332324221897 384 315.5921075691026 390.4 315.7266562694914 396.8 315.8529525058745 403.2 315.9795388203022 409.6 316.09836162449255 416 316.2174565868483 422.40000000000003 316.33291656746786 428.8 315.58525444832486 435.20000000000005 315.7200122482216 441.59999999999997 315.84650481208865 448 315.9732880602348 454.4 316.0922952727234 460.79999999999995 316.2115758044705 467.2 316.32721543598916 473.6 316.4357624327482 480 316.5445587048912 486.4 316.64668249357095 492.8 316.74904055590093 499.20000000000005 316.84827425030045 505.6 316.93529869121886 512 317.02884683128235 518.4000000000001 317.1166577329546 524.8 317.2046700277647 531.1999999999999 317.28728457547305 537.6 317.3700885971336 544 317.4503651349137 550.4 317.5257182680827 556.8 317.60124431164587 563.2 317.6721381794606 569.6 317.74319483663675 576 317.8120825719191 582.4 317.8724945023159 588.8000000000001 317.93743536365247 595.2 317.99839326468094 601.5999999999999 318.05949145247024 608 318.1168419194667 614.4 318.1743244530959 620.8 318.2300520613067 627.2 318.2823619046658 633.6 318.3347918954718 640 318.3552151530344 640 320 0 320"
      />
      
      <polygon
        fill="#C1F12E"
        fillRule="evenodd"
        points="0 320 6.4 320 12.8 320 19.2 320 25.6 320 32 320 38.4 320 44.800000000000004 320 51.2 320 57.599999999999994 319.007774541492 64 319.038061706143 70.4 319.06649132735186 76.8 319.09498609307576 83.2 319.1226110664975 89.60000000000001 319.1485418715226 96 319.17453206697303 102.4 319.1989284309651 108.80000000000001 319.2233806610027 115.19999999999999 319.24708651368604 121.6 319.26860742550105 128 319.2909328104255 134.4 319.3118888658645 140.8 319.33289309125405 147.20000000000002 319.3526090889969 153.6 319.3611754591436 160 319.3806752058671 166.4 319.3989790369821 172.8 319.4173248215758 179.20000000000002 319.4345455069644 185.6 319.44084475551233 192 319.4579126389952 198.4 319.4728805469085 204.8 319.48621075870517 211.20000000000002 319.50139549304686 217.60000000000002 319.5166151218323 224 319.5309013036987 230.39999999999998 319.54522028387623 236.8 319.3091073800265 243.2 318.6150658344899 249.60000000000002 318.6573402064123 256 318.69702184718767 262.4 318.73679442312994 268.8 318.7753529889068 275.2 318.80916751326725 281.6 318.845517022375 288 318.8796371813726 294.40000000000003 318.9138355343384 300.79999999999995 318.94593657300123 307.2 318.9781112845619 313.6 319.00930389632066 320 319.03858327326947 326.4 319.06793005526856 332.8 319.09547704022515 339.20000000000005 319.12308690916154 345.6 319.14985431772163 352 319.1733281264645 358.40000000000003 319.1985618646287 364.79999999999995 319.22224785542755 371.2 319.24598830457495 377.59999999999997 319.2682727635367 384 319.29060829004413 390.4 319.3122620596792 396.8 319.3325877956973 403.2 319.3529601912174 409.6 319.37208311699465 416 319.39124988688 422.40000000000003 319.40983165080047 428.8 318.5742205318336 435.20000000000005 318.61774148617894 441.59999999999997 318.6585935704408 448 318.69953915865966 454.4 318.7379736005025 460.79999999999995 318.7764962032191 467.2 318.8138430193658 473.6 318.84889919407226 480 318.8840359260339 486.4 318.9170176486686 492.8 318.9500750992332 499.20000000000005 318.9821234263247 505.6 319.01022866072935 512 319.04044091946326 518.4000000000001 319.0688001558255 524.8 319.0972244339511 531.1999999999999 319.12390553116643 537.6 319.15064776558427 544 319.17657374128413 550.4 319.2009096770597 556.8 319.2253014891559 563.2 319.2481973098682 569.6 319.2711456674741 576 319.2933935263156 582.4 319.312904051682 588.8000000000001 319.3338771947123 595.2 319.3535640932017 601.5999999999999 319.3732962332211 608 319.39181810323333 614.4 319.4103825432339 620.8 319.42838027732967 627.2 319.4452742126272 633.6 319.46220691610387 640 319.4688027879734 640 320 0 320"
      />
      

      
        <g id="labels">
        
          
          <text x="0" y="330">
            Jul 2014
          </text>
          
        
          
        
          
        
          
        
          
        
          
        
          
        
          
        
          
        
          
        
          
        
          
        
          
        
          
          <text x="82.37623762376238" y="330">
            Aug 2015
          </text>
          
        
          
        
          
        
          
        
          
        
          
        
          
        
          
        
          
        
          
        
          
        
          
        
          
        
          
          <text x="164.75247524752476" y="330">
            Sep 2016
          </text>
          
        
          
        
          
        
          
        
          
        
          
        
          
        
          
        
          
        
          
        
          
        
          
        
          
        
          
          <text x="247.12871287128712" y="330">
            Oct 2017
          </text>
          
        
          
        
          
        
          
        
          
        
          
        
          
        
          
        
          
        
          
        
          
        
          
        
          
        
          
          <text x="329.5049504950495" y="330">
            Nov 2018
          </text>
          
        
          
        
          
        
          
        
          
        
          
        
          
        
          
        
          
        
          
        
          
        
          
        
          
        
          
          <text x="411.8811881188119" y="330">
            Dec 2019
          </text>
          
        
          
        
          
        
          
        
          
        
          
        
          
        
          
        
          
        
          
        
          
        
          
        
          
        
          
          <text x="494.25742574257424" y="330">
            Jan 2021
          </text>
          
        
          
        
          
        
          
        
          
        
          
        
          
        
          
        
          
        
          
        
          
        
          
        
          
        
          
          <text x="576.6336633663366" y="330">
            Feb 2022
          </text>
          
        
          
        
          
        
          
        
          
        
          
        
          
        
          
        
          
        
          
        
        </g>
      

      
        <text text-anchor="middle" y="370" x="320" id="legend">
          
          <tspan xml:space="preserve" fill="#C1F12E">   </tspan> Batchfile
          
          <tspan xml:space="preserve" fill="#555555">   </tspan> C
          
          <tspan xml:space="preserve" fill="#178600">   </tspan> C#
          
          <tspan xml:space="preserve" fill="#563d7c">   </tspan> CSS
          
          <tspan xml:space="preserve" fill="#244776">   </tspan> CoffeeScript
          
          <tspan xml:space="preserve" fill="#00ADD8">   </tspan> Go
          
          <tspan xml:space="preserve" fill="#e34c26">   </tspan> HTML
          
          <tspan xml:space="preserve" fill="#22e4e8">   </tspan> JSON
          
        </text>
      
        <text text-anchor="middle" y="400" x="320" id="legend">
          
          <tspan xml:space="preserve" fill="#22e8e8">   </tspan> JSon
          
          <tspan xml:space="preserve" fill="#f1e05a">   </tspan> JavaScript
          
          <tspan xml:space="preserve" fill="#2415b9">   </tspan> Less
          
          <tspan xml:space="preserve" fill="#755462">   </tspan> MySQL
          
          <tspan xml:space="preserve" fill="#4F5D95">   </tspan> PHP
          
          <tspan xml:space="preserve" fill="#fd2fdb">   </tspan> PLpgSQL
          
          <tspan xml:space="preserve" fill="#0298c3">   </tspan> Perl
          
          <tspan xml:space="preserve" fill="#3572A5">   </tspan> Python
          
        </text>
      
        <text text-anchor="middle" y="430" x="320" id="legend">
          
          <tspan xml:space="preserve" fill="#701516">   </tspan> Ruby
          
          <tspan xml:space="preserve" fill="#dea584">   </tspan> Rust
          
          <tspan xml:space="preserve" fill="#26c0b0">   </tspan> SCSS
          
          <tspan xml:space="preserve" fill="#0141ae">   </tspan> SQL
          
          <tspan xml:space="preserve" fill="#89e051">   </tspan> Shell
          
          <tspan xml:space="preserve" fill="#509e5b">   </tspan> Svelte
          
          <tspan xml:space="preserve" fill="#2770da">   </tspan> TSQL
          
          <tspan xml:space="preserve" fill="#2b7489">   </tspan> TypeScript
          
        </text>
      
        <text text-anchor="middle" y="460" x="320" id="legend">
          
          <tspan xml:space="preserve" fill="#2c3e50">   </tspan> Vue
          
          <tspan xml:space="preserve" fill="#4B6C4B">   </tspan> Yacc
          
        </text>
      

    </svg>