<svg
      xmlns="http://www.w3.org/2000/svg"
      viewBox="0 0 640 490"
      style="background-color: #292b3e"
    >
      <style>
        text {
          font-size: 12px;
          font-family: Open Sans, Helvetica Neue, Helvetica, Arial, sans-serif;
        }
        #labels text {
          dominant-baseline: hanging;
          font-size: 10px;
          fill: rgba(0,0,0,0.5);
        }
        #legend {
          font-weight: 600;
        }
        #legend tspan {
          font-size: 15px;
        }
        #branding-text {
          font-size: 9px;
          dominant-baseline: hanging;
          opacity: 0.5;
        }
        #branding-logo {
          opacity: 0.5;
        }
      </style>

      
      
      <polygon
        fill="#4B6C4B"
        fillRule="evenodd"
        points="0 313.61354967651124 6.464646464646465 304.2691147069074 12.92929292929293 297.26804506584415 19.393939393939394 285.93881810965865 25.85858585858586 278.82800701340756 32.323232323232325 274.98421286328835 38.78787878787879 267.0907495520291 45.25252525252525 257.07882869488253 51.71717171717172 246.2221362054041 58.18181818181819 230.99231037586463 64.64646464646465 221.5462502381023 71.11111111111111 206.62810582111 77.57575757575758 198.27732099807332 84.04040404040404 192.170361521115 90.5050505050505 182.12949728948558 96.96969696969697 170.6172666274371 103.43434343434345 156.9518779108178 109.8989898989899 154.80418826612865 116.36363636363637 149.88788326572808 122.82828282828282 142.5257503532785 129.2929292929293 138.28619399991572 135.75757575757575 123.7869026719273 142.22222222222223 127.17483178167188 148.68686868686868 110.7724824493423 155.15151515151516 93.057269337738 161.61616161616163 88.01892287937596 168.08080808080808 78.10642835134092 174.54545454545453 68.7838147998126 181.010101010101 65.97380738608646 187.47474747474746 62.133525100339625 193.93939393939394 59.1891773643664 200.40404040404042 46.68381339326862 206.8686868686869 33.29409321156504 213.33333333333331 31.64643562735148 219.7979797979798 27.414707980838443 226.26262626262627 27.528863926749864 232.72727272727275 25.251159342285575 239.1919191919192 13.936143549304802 245.65656565656565 9.643067710593641 252.12121212121212 9.88384995913998 258.5858585858586 12.938025302388837 265.0505050505051 8.24691841003613 271.5151515151515 10.710205300320467 277.979797979798 10.159037100705802 284.44444444444446 11.455592071419346 290.9090909090909 14.195617986529612 297.37373737373736 17.693234119823956 303.83838383838383 18.06795894940859 310.3030303030303 12.038873654150962 316.7676767676768 13.322680515125342 323.23232323232327 11.292755609088374 329.6969696969697 7.029633731814556 336.16161616161617 1.971748552273766 342.62626262626264 4.695515281685573 349.09090909090907 0.06661300233241718 355.55555555555554 0 362.020202020202 3.1342613910512114 368.4848484848485 11.121728873430868 374.9494949494949 13.499806807807602 381.4141414141414 18.047961768011817 387.8787878787879 21.31480522760546 394.3434343434343 21.568474022108205 400.80808080808083 27.06648631288158 407.27272727272725 30.6809340455643 413.7373737373738 36.747943231436125 420.2020202020202 42.80365782928101 426.66666666666663 46.960369503787774 433.13131313131316 38.514936580187054 439.5959595959596 42.6312046433643 446.0606060606061 50.615517293728146 452.52525252525254 58.06908573900711 458.98989898989896 55.542181849796066 465.4545454545455 58.40787377472577 471.9191919191919 64.84938961193367 478.3838383838384 68.965113832312 484.8484848484849 76.40574254781185 491.3131313131313 74.319558716394 497.77777777777777 74.99054190593984 504.24242424242425 75.05197606948556 510.7070707070707 74.49021892472683 517.1717171717172 78.43673461594278 523.6363636363636 85.33618843400373 530.1010101010102 88.56503468611282 536.5656565656566 82.02548375008891 543.030303030303 83.08745851404547 549.4949494949494 90.29403913741584 555.959595959596 88.15317243639902 562.4242424242424 86.74195635956556 568.8888888888889 87.76628319362757 575.3535353535353 85.9000634311478 581.8181818181818 86.43108662884404 588.2828282828283 86.68140118220532 594.7474747474747 89.27126690131178 601.2121212121212 85.21663011821192 607.6767676767677 69.72115693367752 614.1414141414141 69.36927503028335 620.6060606060606 67.00824630226091 627.070707070707 64.10057100075247 633.5353535353536 60.655533719251025 640 62.20314315849458 640 320 0 320"
      />
      
      <polygon
        fill="#2c3e50"
        fillRule="evenodd"
        points="0 313.61354967651124 6.464646464646465 304.2691147069074 12.92929292929293 297.26804506584415 19.393939393939394 285.93881810965865 25.85858585858586 278.82800701340756 32.323232323232325 274.98421286328835 38.78787878787879 267.0907495520291 45.25252525252525 257.07882869488253 51.71717171717172 246.2221362054041 58.18181818181819 230.99231037586463 64.64646464646465 221.5462502381023 71.11111111111111 206.62810582111 77.57575757575758 198.27732099807332 84.04040404040404 192.170361521115 90.5050505050505 182.12949728948558 96.96969696969697 170.6172666274371 103.43434343434345 156.9518779108178 109.8989898989899 154.80418826612865 116.36363636363637 149.88788326572808 122.82828282828282 142.5257503532785 129.2929292929293 138.28619399991572 135.75757575757575 123.7869026719273 142.22222222222223 127.17483178167188 148.68686868686868 110.7724824493423 155.15151515151516 93.057269337738 161.61616161616163 88.01892287937596 168.08080808080808 78.10642835134092 174.54545454545453 68.7838147998126 181.010101010101 65.97380738608646 187.47474747474746 62.133525100339625 193.93939393939394 59.1891773643664 200.40404040404042 46.68381339326862 206.8686868686869 33.29409321156504 213.33333333333331 31.64643562735148 219.7979797979798 27.414707980838443 226.26262626262627 27.528863926749864 232.72727272727275 25.251159342285575 239.1919191919192 13.936143549304802 245.65656565656565 9.643067710593641 252.12121212121212 9.88384995913998 258.5858585858586 12.938025302388837 265.0505050505051 8.24691841003613 271.5151515151515 10.710205300320467 277.979797979798 10.159037100705802 284.44444444444446 11.455592071419346 290.9090909090909 14.195617986529612 297.37373737373736 17.693234119823956 303.83838383838383 18.06795894940859 310.3030303030303 12.038873654150962 316.7676767676768 13.322680515125342 323.23232323232327 11.292755609088374 329.6969696969697 7.029633731814556 336.16161616161617 1.971748552273766 342.62626262626264 4.695515281685573 349.09090909090907 0.06661300233241718 355.55555555555554 0 362.020202020202 3.1342613910512114 368.4848484848485 11.121728873430868 374.9494949494949 13.499806807807602 381.4141414141414 18.047961768011817 387.8787878787879 21.31480522760546 394.3434343434343 21.568474022108205 400.80808080808083 27.06648631288158 407.27272727272725 30.6809340455643 413.7373737373738 36.747943231436125 420.2020202020202 42.80365782928101 426.66666666666663 46.960369503787774 433.13131313131316 38.514936580187054 439.5959595959596 42.6312046433643 446.0606060606061 50.615517293728146 452.52525252525254 58.06908573900711 458.98989898989896 56.64276883709681 465.4545454545455 59.47486602024463 471.9191919191919 65.88381247399101 478.3838383838384 69.96896490496627 484.8484848484849 77.37895165171318 491.3131313131313 75.26400507574547 497.77777777777777 75.90615965695918 504.24242424242425 75.9396450742129 510.7070707070707 75.35337786855689 517.1717171717172 79.27354619732941 523.6363636363636 86.14826850422222 530.1010101010102 89.35232646462327 536.5656565656566 82.78950752916893 543.030303030303 83.82816093478374 549.4949494949494 91.01213205269428 555.959595959596 88.85004248947558 562.4242424242424 87.41755484617693 568.8888888888889 88.4219147098706 575.3535353535353 86.53568218062986 581.8181818181818 87.04730349043942 588.2828282828283 87.28060326077724 594.7474747474747 89.85217872056955 601.2121212121212 85.78037337638614 607.6767676767677 70.26769228717632 614.1414141414141 69.8996577792467 620.6060606060606 67.52243943555868 627.070707070707 64.5990686919798 633.5353535353536 61.139298576320016 640 62.68455438717507 640 320 0 320"
      />
      
      <polygon
        fill="#2b7489"
        fillRule="evenodd"
        points="0 313.61354967651124 6.464646464646465 304.2691147069074 12.92929292929293 297.26804506584415 19.393939393939394 285.93881810965865 25.85858585858586 278.82800701340756 32.323232323232325 274.98421286328835 38.78787878787879 267.0907495520291 45.25252525252525 257.07882869488253 51.71717171717172 246.2221362054041 58.18181818181819 230.99231037586463 64.64646464646465 221.5462502381023 71.11111111111111 206.62810582111 77.57575757575758 198.27732099807332 84.04040404040404 192.170361521115 90.5050505050505 182.12949728948558 96.96969696969697 170.6172666274371 103.43434343434345 156.9518779108178 109.8989898989899 154.80418826612865 116.36363636363637 149.88788326572808 122.82828282828282 142.5257503532785 129.2929292929293 138.28619399991572 135.75757575757575 123.7869026719273 142.22222222222223 127.17483178167188 148.68686868686868 110.7724824493423 155.15151515151516 93.057269337738 161.61616161616163 88.01892287937596 168.08080808080808 78.10642835134092 174.54545454545453 68.7838147998126 181.010101010101 65.97380738608646 187.47474747474746 62.133525100339625 193.93939393939394 59.1891773643664 200.40404040404042 46.68381339326862 206.8686868686869 33.29409321156504 213.33333333333331 31.64643562735148 219.7979797979798 27.414707980838443 226.26262626262627 27.528863926749864 232.72727272727275 25.251159342285575 239.1919191919192 13.936143549304802 245.65656565656565 9.643067710593641 252.12121212121212 9.88384995913998 258.5858585858586 12.938025302388837 265.0505050505051 8.24691841003613 271.5151515151515 10.710205300320467 277.979797979798 10.159037100705802 284.44444444444446 11.455592071419346 290.9090909090909 14.195617986529612 297.37373737373736 17.693234119823956 303.83838383838383 18.06795894940859 310.3030303030303 12.038873654150962 316.7676767676768 13.322680515125342 323.23232323232327 11.292755609088374 329.6969696969697 7.029633731814556 336.16161616161617 1.971748552273766 342.62626262626264 4.695515281685573 349.09090909090907 0.06661300233241718 355.55555555555554 0 362.020202020202 3.1342613910512114 368.4848484848485 11.121728873430868 374.9494949494949 13.499806807807602 381.4141414141414 18.047961768011817 387.8787878787879 21.31480522760546 394.3434343434343 21.568474022108205 400.80808080808083 27.06648631288158 407.27272727272725 30.6809340455643 413.7373737373738 36.747943231436125 420.2020202020202 42.80365782928101 426.66666666666663 46.960369503787774 433.13131313131316 38.514936580187054 439.5959595959596 42.6312046433643 446.0606060606061 50.615517293728146 452.52525252525254 58.06908573900711 458.98989898989896 56.64276883709681 465.4545454545455 59.47486602024463 471.9191919191919 65.88381247399101 478.3838383838384 69.96896490496627 484.8484848484849 77.37895165171318 491.3131313131313 75.26400507574547 497.77777777777777 75.90615965695918 504.24242424242425 75.9396450742129 510.7070707070707 75.35337786855689 517.1717171717172 79.27354619732941 523.6363636363636 86.14826850422222 530.1010101010102 89.35232646462327 536.5656565656566 84.99961257099744 543.030303030303 87.49743183493624 549.4949494949494 94.56939938190965 555.959595959596 94.67090765716455 562.4242424242424 95.57904025401513 568.8888888888889 99.33792573076607 575.3535353535353 99.23026449590552 581.8181818181818 100.29080648647425 588.2828282828283 100.92506153600272 594.7474747474747 103.11098245891367 601.2121212121212 98.64732254567545 607.6767676767677 83.41149745064246 614.1414141414141 83.12839023128214 620.6060606060606 80.3698745327531 627.070707070707 77.05434250656225 633.5353535353536 73.22646269150212 640 74.71291478322377 640 320 0 320"
      />
      
      <polygon
        fill="#2770da"
        fillRule="evenodd"
        points="0 313.61354967651124 6.464646464646465 304.2691147069074 12.92929292929293 297.26804506584415 19.393939393939394 285.93881810965865 25.85858585858586 278.82800701340756 32.323232323232325 274.98421286328835 38.78787878787879 267.0907495520291 45.25252525252525 257.07882869488253 51.71717171717172 246.2221362054041 58.18181818181819 230.99231037586463 64.64646464646465 221.5462502381023 71.11111111111111 206.62810582111 77.57575757575758 198.27732099807332 84.04040404040404 192.170361521115 90.5050505050505 182.12949728948558 96.96969696969697 170.6172666274371 103.43434343434345 156.9518779108178 109.8989898989899 154.80418826612865 116.36363636363637 149.88788326572808 122.82828282828282 142.5257503532785 129.2929292929293 138.28619399991572 135.75757575757575 123.7869026719273 142.22222222222223 127.17483178167188 148.68686868686868 110.7724824493423 155.15151515151516 93.057269337738 161.61616161616163 88.01892287937596 168.08080808080808 78.10642835134092 174.54545454545453 68.7838147998126 181.010101010101 65.97380738608646 187.47474747474746 62.133525100339625 193.93939393939394 59.1891773643664 200.40404040404042 46.68381339326862 206.8686868686869 33.29409321156504 213.33333333333331 31.64643562735148 219.7979797979798 27.414707980838443 226.26262626262627 27.528863926749864 232.72727272727275 25.251159342285575 239.1919191919192 14.574352564134244 245.65656565656565 11.080078061173367 252.12121212121212 11.27699636648805 258.5858585858586 14.289998009169608 265.0505050505051 9.557622884767966 271.5151515151515 11.980901174995665 277.979797979798 11.394647102228475 284.44444444444446 12.65348575856251 290.9090909090909 15.358108606298856 297.37373737373736 18.820240395695464 303.83838383838383 19.161657160491245 310.3030303030303 13.099187353246577 316.7676767676768 14.350628792706232 323.23232323232327 12.290323318013236 329.6969696969697 7.996751309243052 336.16161616161617 2.910283405973871 342.62626262626264 5.605401958881544 349.09090909090907 0.9487259192289912 355.55555555555554 0.8577562641535792 362.020202020202 3.965835106344514 368.4848484848485 11.92872594478331 374.9494949494949 14.282170721833438 381.4141414141414 18.807203384390732 387.8787878787879 22.05087137237922 394.3434343434343 22.282072212040646 400.80808080808083 27.75899451899477 407.27272727272725 31.352303820473878 413.7373737373738 37.39947101276118 420.2020202020202 43.43529812888363 426.66666666666663 47.57272933708174 433.13131313131316 40.23047818719999 439.5959595959596 44.29438012514055 446.0606060606061 52.229538665609766 452.52525252525254 59.63383997422255 458.98989898989896 58.16127755225409 465.4545454545455 60.947023072930165 471.9191919191919 67.31103275388048 478.3838383838384 71.35400451850614 484.8484848484849 78.72171380688653 491.3131313131313 76.56708250393822 497.77777777777777 77.16946142299616 504.24242424242425 77.16438529112295 510.7070707070707 76.5443009892 517.1717171717172 80.4281171339731 523.6363636363636 87.26871665855796 530.1010101010102 90.43857364267552 536.5656565656566 86.0537563441415 543.030303030303 88.51939842751591 549.4949494949494 95.56017089381737 555.959595959596 95.63239752888975 562.4242424242424 96.511181183253 568.8888888888889 100.24251772022814 575.3535353535353 100.1072443533514 581.8181818181818 101.14101703198844 588.2828282828283 101.751796369706 594.7474747474747 103.9124817025984 601.2121212121212 99.42513388519853 607.6767676767677 84.17666375570437 614.1414141414141 84.13462483304357 620.6060606060606 81.5407365317273 627.070707070707 78.2114922003729 633.5353535353536 74.3494133613099 640 75.83040225265651 640 320 0 320"
      />
      
      <polygon
        fill="#89e051"
        fillRule="evenodd"
        points="0 313.61354967651124 6.464646464646465 304.90984440369357 12.92929292929293 298.3344754655571 19.393939393939394 288.0768178253771 25.85858585858586 281.2713514293076 32.323232323232325 277.35297533101203 38.78787878787879 269.99994603400006 45.25252525252525 260.0717458532615 51.71717171717172 250.17318428536336 58.18181818181819 235.18158189951095 64.64646464646465 226.78746911646812 71.11111111111111 213.32788483705633 77.57575757575758 205.81368924092126 84.04040404040404 200.42205154023426 90.5050505050505 190.45084673538025 96.96969696969697 178.68461100979863 103.43434343434345 164.78079642881977 109.8989898989899 162.39413530871963 116.36363636363637 158.35634527482478 122.82828282828282 150.8295467415633 129.2929292929293 146.47030274358053 135.75757575757575 132.58696159565773 142.22222222222223 135.70627025280152 148.68686868686868 119.05178182618428 155.15151515151516 102.43443679151713 161.61616161616163 97.17062699545778 168.08080808080808 87.08412014911966 174.54545454545453 77.51852986440576 181.010101010101 74.59633207731468 187.47474747474746 71.29278310381383 193.93939393939394 68.1275111852857 200.40404040404042 55.43667696105405 206.8686868686869 42.602956532310316 213.33333333333331 40.81632390143443 219.7979797979798 36.30469100395345 226.26262626262627 36.65724404377352 232.72727272727275 34.265760546047034 239.1919191919192 23.330627999143985 245.65656565656565 19.768504552783497 252.12121212121212 20.331834073378104 258.5858585858586 23.771813868107984 265.0505050505051 19.357883452205044 271.5151515151515 21.657226346237508 277.979797979798 22.197680158665094 284.44444444444446 24.033407456601537 290.9090909090909 26.40169756797934 297.37373737373736 29.526730505009994 303.83838383838383 29.794797107935324 310.3030303030303 23.469578177861536 316.7676767676768 24.701122178967694 323.23232323232327 22.404271810895636 329.6969696969697 17.80198299959278 336.16161616161617 12.431372985451105 342.62626262626264 14.835863745835923 349.09090909090907 10.20229191954678 355.55555555555554 9.855813431119657 362.020202020202 12.717388693848648 368.4848484848485 20.455507301921784 374.9494949494949 22.80229171958382 381.4141414141414 27.111347073118793 387.8787878787879 30.80884015392894 394.3434343434343 30.772706374642496 400.80808080808083 35.99869445269286 407.27272727272725 39.34048938967567 413.7373737373738 45.232425614020826 420.2020202020202 51.02915589776762 426.66666666666663 55.06957417297758 433.13131313131316 47.537872686331866 439.5959595959596 51.378718345801076 446.0606060606061 59.104500957211656 452.52525252525254 66.29894956929348 458.98989898989896 64.91782786047952 465.4545454545455 67.49733034869905 471.9191919191919 73.6613956709121 478.3838383838384 78.63267994252266 484.8484848484849 85.77821312272658 491.3131313131313 83.4150293421257 497.77777777777777 83.84682003754651 504.24242424242425 83.63792067364233 510.7070707070707 82.83909172524628 517.1717171717172 87.04895106010935 523.6363636363636 93.69387504161242 530.1010101010102 96.66760776636539 536.5656565656566 92.09869575050641 543.030303030303 94.3798184441498 549.4949494949494 101.24170385024613 555.959595959596 101.14601760536218 562.4242424242424 101.85650080069456 568.8888888888889 105.42985776414855 575.3535353535353 105.13624313808191 581.8181818181818 106.0165096373095 588.2828282828283 106.49267018564058 594.7474747474747 108.50864241093771 601.2121212121212 104.55186630271282 607.6767676767677 89.14690639529707 614.1414141414141 88.95797448962577 620.6060606060606 86.21685648827162 627.070707070707 82.74487712057442 633.5353535353536 78.74881675761281 640 80.20840074172929 640 320 0 320"
      />
      
      <polygon
        fill="#0141ae"
        fillRule="evenodd"
        points="0 313.69578780439076 6.464646464646465 304.989572265547 12.92929292929293 298.41184700692986 19.393939393939394 288.15459022647 25.85858585858586 281.3468253097557 32.323232323232325 277.4261454104101 38.78787878787879 270.07088264274284 45.25252525252525 260.1686765808513 51.71717171717172 250.6255395472233 58.18181818181819 236.59142801234424 64.64646464646465 228.16530717788777 71.11111111111111 215.56292183789458 77.57575757575758 209.34790106103657 84.04040404040404 203.84838372529703 90.5050505050505 193.80952428033874 96.96969696969697 182.16687089641886 103.43434343434345 169.2001062028662 109.8989898989899 166.6896523058062 116.36363636363637 162.52074443539536 122.82828282828282 154.87491278527233 129.2929292929293 151.50326054786092 135.75757575757575 138.33050905354267 142.22222222222223 141.27449818639545 148.68686868686868 124.4554438080284 155.15151515151516 107.98206857580664 161.61616161616163 102.61895201980781 168.08080808080808 92.52521074083407 174.54545454545453 83.0158876489985 181.010101010101 79.93121901549438 187.47474747474746 76.46482569347651 193.93939393939394 73.61550840091982 200.40404040404042 61.011186614351686 206.8686868686869 50.21114198575276 213.33333333333331 49.30676036993782 219.7979797979798 44.53596263405433 226.26262626262627 46.72640454819174 232.72727272727275 45.535859781583554 239.1919191919192 38.06175853583409 245.65656565656565 34.37976711577733 252.12121212121212 35.187823229483115 258.5858585858586 40.459284719110315 265.0505050505051 36.76696139548869 271.5151515151515 38.534899675792076 277.979797979798 38.690061664523114 284.44444444444446 40.022375942443944 290.9090909090909 41.960198457083266 297.37373737373736 45.10763638276836 303.83838383838383 44.91799285448161 310.3030303030303 38.1423221669566 316.7676767676768 38.92598628342063 323.23232323232327 36.368672913099886 329.6969696969697 33.69992280623853 336.16161616161617 28.417226042465302 342.62626262626264 30.372753916234046 349.09090909090907 26.29387227362986 355.55555555555554 25.536683268117713 362.020202020202 28.0839300518619 368.4848484848485 35.36789989954059 374.9494949494949 37.58872728307216 381.4141414141414 41.46077798241299 387.8787878787879 45.37453135018063 394.3434343434343 45.021824996737564 400.80808080808083 49.826695874598556 407.27272727272725 53.2006777535488 413.7373737373738 58.85796834528213 420.2020202020202 64.62537537444419 426.66666666666663 68.63073274514295 433.13131313131316 63.218532910044644 439.5959595959596 66.93878311441568 446.0606060606061 74.20469678327908 452.52525252525254 80.93822530383903 458.98989898989896 80.26636816386144 465.4545454545455 82.74327522409806 471.9191919191919 88.44196411744488 478.3838383838384 93.40755389480532 484.8484848484849 100.10208559644224 491.3131313131313 98.34493595174237 497.77777777777777 99.94018415958658 504.24242424242425 99.86320656079837 510.7070707070707 98.67414138121177 517.1717171717172 102.40063967283487 523.6363636363636 108.59185672586824 530.1010101010102 111.11083445572521 536.5656565656566 106.11506039713763 543.030303030303 107.96833771514073 549.4949494949494 114.41544466789512 555.959595959596 113.93041982988939 562.4242424242424 114.39436327719295 568.8888888888889 117.59717224553103 575.3535353535353 116.93215575846591 581.8181818181818 117.45236109193814 588.2828282828283 117.643002657817 594.7474747474747 119.31861633865893 601.2121212121212 115.05064721684158 607.6767676767677 99.80060950877859 614.1414141414141 99.3838310445577 620.6060606060606 97.92039130081392 627.070707070707 95.72566890912438 633.5353535353536 92.85887854276365 640 94.24981212091916 640 320 0 320"
      />
      
      <polygon
        fill="#26c0b0"
        fillRule="evenodd"
        points="0 313.69578780439076 6.464646464646465 305.07507338075993 12.92929292929293 298.5224201007721 19.393939393939394 288.39203037408043 25.85858585858586 281.72967448106846 32.323232323232325 277.8556739293554 38.78787878787879 270.54541129112727 45.25252525252525 260.8000827300841 51.71717171717172 251.72753813614815 58.18181818181819 237.79091239716848 64.64646464646465 230.2054646523702 71.11111111111111 218.21681385946695 77.57575757575758 212.42853737199192 84.04040404040404 207.47606272582777 90.5050505050505 198.30979893260147 96.96969696969697 186.5297758931806 103.43434343434345 173.80641445474845 109.8989898989899 171.15535545947822 116.36363636363637 166.87823524430033 122.82828282828282 159.35261958757815 129.2929292929293 156.0489054819642 135.75757575757575 143.12363976975203 142.22222222222223 145.92414573178644 148.68686868686868 128.96767289090346 155.15151515151516 112.6242499836805 161.61616161616163 107.3472432845355 168.08080808080808 97.3919444906272 174.54545454545453 88.07451383308063 181.010101010101 84.90350774790559 187.47474747474746 81.4789278579816 193.93939393939394 78.54020299838601 200.40404040404042 65.83889293921607 206.8686868686869 55.257931184313236 213.33333333333331 54.27457211193098 219.7979797979798 49.44593025420386 226.26262626262627 52.031369498152685 232.72727272727275 50.75686248610032 239.1919191919192 43.28757803034466 245.65656565656565 39.62418937834997 252.12121212121212 40.27216300407554 258.5858585858586 46.01554280935028 265.0505050505051 42.22613575688092 271.5151515151515 45.29489319048304 277.979797979798 46.226262422246066 284.44444444444446 47.34229689040342 290.9090909090909 49.12230320658216 297.37373737373736 52.19654037123837 303.83838383838383 51.848027954242184 310.3030303030303 44.89924751856006 316.7676767676768 45.54044241709744 323.23232323232327 42.902061108695136 329.6969696969697 40.529970313888896 336.16161616161617 35.111634231734456 342.62626262626264 37.1866303754349 349.09090909090907 32.913508732498144 355.55555555555554 31.973538380745538 362.020202020202 34.329940282869075 368.4848484848485 41.451255050497195 374.9494949494949 43.650665093853775 381.4141414141414 47.722331244026805 387.8787878787879 51.4505261977788 394.3434343434343 51.049194391476874 400.80808080808083 55.6759296316597 407.27272727272725 59.07768742869325 413.7373737373738 64.64965534366027 420.2020202020202 70.24027555553442 426.66666666666663 74.11921618139763 433.13131313131316 68.67702315121463 439.5959595959596 72.31803203288277 446.0606060606061 79.43586203307393 452.52525252525254 86.08181114324776 458.98989898989896 85.88897122217918 465.4545454545455 88.95219171273334 471.9191919191919 94.47251572955918 478.3838383838384 100.00811595571975 484.8484848484849 106.58866909771541 491.3131313131313 104.63981454041559 497.77777777777777 106.09838717988725 504.24242424242425 105.83343444920612 510.7070707070707 104.49611503327404 517.1717171717172 108.04489866056696 523.6363636363636 114.08040078557309 530.1010101010102 116.43184263113238 536.5656565656566 111.27880897955794 543.030303030303 112.97446532716026 549.4949494949494 119.26876388669169 555.959595959596 118.64030293810515 562.4242424242424 118.96047633209403 568.8888888888889 122.02833780864381 575.3535353535353 121.47123198761756 581.8181818181818 121.85288787159783 588.2828282828283 121.92202052056186 594.7474747474747 123.46984510605935 601.2121212121212 119.66076498468053 607.6767676767677 104.27000432231017 614.1414141414141 103.72113629959352 620.6060606060606 102.12530213332582 627.070707070707 99.80222767021837 633.5353535353536 96.81495590304706 640 98.1866443100721 640 320 0 320"
      />
      
      <polygon
        fill="#dea584"
        fillRule="evenodd"
        points="0 313.69578780439076 6.464646464646465 305.07507338075993 12.92929292929293 298.5224201007721 19.393939393939394 288.39203037408043 25.85858585858586 281.72967448106846 32.323232323232325 277.8556739293554 38.78787878787879 270.54541129112727 45.25252525252525 260.8000827300841 51.71717171717172 251.72753813614815 58.18181818181819 237.79091239716848 64.64646464646465 230.2054646523702 71.11111111111111 218.60520835024175 77.57575757575758 212.80507635112974 84.04040404040404 207.84110808450055 90.5050505050505 198.66405555713192 96.96969696969697 187.99621779854243 103.43434343434345 176.3318677852953 109.8989898989899 173.60372083282192 116.36363636363637 169.25186546681655 122.82828282828282 162.7599616310075 129.2929292929293 159.35224059853823 135.75757575757575 148.55733789685402 142.22222222222223 151.1919829285924 148.68686868686868 136.32706792504217 155.15151515151516 123.07434872606134 161.61616161616163 117.47835828346936 168.08080808080808 107.22364037200134 174.54545454545453 98.72228355481784 181.010101010101 95.23658679123128 187.47474747474746 91.49659747538072 193.93939393939394 88.2520889607238 200.40404040404042 76.38144038804978 206.8686868686869 66.58278264298383 213.33333333333331 65.26472407109085 219.7979797979798 60.100611049258646 226.26262626262627 62.37115873539756 232.72727272727275 60.781035766681725 239.1919191919192 53.00576883149853 245.65656565656565 49.05516271293112 252.12121212121212 49.41526270029988 258.5858585858586 54.88842179939303 265.0505050505051 51.93113427877154 271.5151515151515 54.70365368192131 277.979797979798 55.37523087945175 284.44444444444446 56.211999314409695 290.9090909090909 57.72986726333164 297.37373737373736 60.54136239501986 303.83838383838383 61.06425288906178 310.3030303030303 54.089973202728686 316.7676767676768 54.45062435179091 323.23232323232327 51.548907106112324 329.6969696969697 48.9128761945604 336.16161616161617 43.24678789537404 342.62626262626264 45.07346483865615 349.09090909090907 41.66886659562681 355.55555555555554 40.48714636491718 362.020202020202 42.58367711406811 368.4848484848485 49.46105442095313 374.9494949494949 51.47784197205897 381.4141414141414 55.31818136663708 387.8787878787879 58.81451679769401 394.3434343434343 58.18840299962346 400.80808080808083 62.60414294536736 407.27272727272725 65.79442097411868 413.7373737373738 71.16787914833336 420.2020202020202 76.55953350505644 426.66666666666663 80.24558418399667 433.13131313131316 74.62827744099829 439.5959595959596 78.08762681850862 446.0606060606061 85.03494052119004 452.52525252525254 91.50998092545376 458.98989898989896 91.1567133737455 465.4545454545455 94.05913992416879 471.9191919191919 99.42357710952311 478.3838383838384 104.81285215807245 484.8484848484849 111.24674196690688 491.3131313131313 109.16022141846162 497.77777777777777 110.48081118082126 504.24242424242425 110.08208797804934 510.7070707070707 108.62745653473044 517.1717171717172 112.05013280228687 523.6363636363636 117.96726240053493 530.1010101010102 120.20005994132651 536.5656565656566 116.05402484973712 543.030303030303 117.60391961231139 549.4949494949494 123.75690562879473 555.959595959596 123.35397819725546 562.4242424242424 123.53026820290336 568.8888888888889 126.4630722434417 575.3535353535353 125.770597751776 581.8181818181818 126.02101825139806 588.2828282828283 126.0000212977566 594.7474747474747 127.42336723929458 601.2121212121212 123.49744158284025 607.6767676767677 107.98956843671056 614.1414141414141 107.33077191182934 620.6060606060606 105.62475554967102 627.070707070707 103.19486287564678 633.5353535353536 100.10732259346241 640 101.4629927436826 640 320 0 320"
      />
      
      <polygon
        fill="#701516"
        fillRule="evenodd"
        points="0 313.69578780439076 6.464646464646465 305.07507338075993 12.92929292929293 298.5224201007721 19.393939393939394 288.39203037408043 25.85858585858586 281.72967448106846 32.323232323232325 277.8556739293554 38.78787878787879 270.54541129112727 45.25252525252525 260.8000827300841 51.71717171717172 251.72753813614815 58.18181818181819 237.79091239716848 64.64646464646465 230.2054646523702 71.11111111111111 218.60520835024175 77.57575757575758 212.80507635112974 84.04040404040404 207.84110808450055 90.5050505050505 198.66405555713192 96.96969696969697 187.99621779854243 103.43434343434345 176.3318677852953 109.8989898989899 173.60372083282192 116.36363636363637 169.25186546681655 122.82828282828282 162.7599616310075 129.2929292929293 159.35224059853823 135.75757575757575 148.55733789685402 142.22222222222223 151.1919829285924 148.68686868686868 136.32706792504217 155.15151515151516 123.07434872606134 161.61616161616163 117.47835828346936 168.08080808080808 107.22364037200134 174.54545454545453 98.72228355481784 181.010101010101 95.23658679123128 187.47474747474746 91.49659747538072 193.93939393939394 88.2520889607238 200.40404040404042 76.38144038804978 206.8686868686869 66.58278264298383 213.33333333333331 65.26472407109085 219.7979797979798 60.100611049258646 226.26262626262627 62.37115873539756 232.72727272727275 60.781035766681725 239.1919191919192 53.00576883149853 245.65656565656565 49.05516271293112 252.12121212121212 49.41526270029988 258.5858585858586 54.88842179939303 265.0505050505051 51.93113427877154 271.5151515151515 54.70365368192131 277.979797979798 55.37523087945175 284.44444444444446 56.211999314409695 290.9090909090909 57.72986726333164 297.37373737373736 60.54136239501986 303.83838383838383 61.06425288906178 310.3030303030303 54.089973202728686 316.7676767676768 54.45062435179091 323.23232323232327 51.548907106112324 329.6969696969697 48.9128761945604 336.16161616161617 43.24678789537404 342.62626262626264 45.07346483865615 349.09090909090907 41.66886659562681 355.55555555555554 40.48714636491718 362.020202020202 42.58367711406811 368.4848484848485 49.46105442095313 374.9494949494949 51.47784197205897 381.4141414141414 55.31818136663708 387.8787878787879 58.81451679769401 394.3434343434343 58.18840299962346 400.80808080808083 62.60414294536736 407.27272727272725 65.79442097411868 413.7373737373738 71.16787914833336 420.2020202020202 76.55953350505644 426.66666666666663 80.24558418399667 433.13131313131316 74.62827744099829 439.5959595959596 78.08762681850862 446.0606060606061 85.03494052119004 452.52525252525254 91.50998092545376 458.98989898989896 91.1567133737455 465.4545454545455 94.05913992416879 471.9191919191919 99.42357710952311 478.3838383838384 104.81285215807245 484.8484848484849 111.24674196690688 491.3131313131313 109.16022141846162 497.77777777777777 110.48081118082126 504.24242424242425 110.08208797804934 510.7070707070707 108.62745653473044 517.1717171717172 112.05013280228687 523.6363636363636 117.96726240053493 530.1010101010102 120.20005994132651 536.5656565656566 116.05402484973712 543.030303030303 117.60391961231139 549.4949494949494 123.75690562879473 555.959595959596 123.35397819725546 562.4242424242424 123.53026820290336 568.8888888888889 126.4630722434417 575.3535353535353 125.770597751776 581.8181818181818 126.02101825139806 588.2828282828283 126.0000212977566 594.7474747474747 127.42336723929458 601.2121212121212 123.49744158284025 607.6767676767677 108.0091246698463 614.1414141414141 107.34975017023902 620.6060606060606 105.64315450888625 627.070707070707 103.21270021613728 633.5353535353536 100.12463276065048 640 101.48021869462323 640 320 0 320"
      />
      
      <polygon
        fill="#3572A5"
        fillRule="evenodd"
        points="0 313.69578780439076 6.464646464646465 305.07507338075993 12.92929292929293 298.5224201007721 19.393939393939394 288.39203037408043 25.85858585858586 281.72967448106846 32.323232323232325 277.8556739293554 38.78787878787879 270.54541129112727 45.25252525252525 260.8000827300841 51.71717171717172 251.72753813614815 58.18181818181819 237.79091239716848 64.64646464646465 230.2054646523702 71.11111111111111 218.60520835024175 77.57575757575758 212.80507635112974 84.04040404040404 207.84110808450055 90.5050505050505 198.66405555713192 96.96969696969697 187.99621779854243 103.43434343434345 176.3318677852953 109.8989898989899 173.60372083282192 116.36363636363637 169.25186546681655 122.82828282828282 163.42158952573212 129.2929292929293 159.99367266423263 135.75757575757575 149.21623195140597 142.22222222222223 151.8307646192474 148.68686868686868 137.94821327157814 155.15151515151516 125.43991798198766 161.61616161616163 119.77171987268162 168.08080808080808 109.44922299166063 174.54545454545453 100.87993153623441 181.010101010101 97.33046630120168 187.47474747474746 93.52656260661814 193.93939393939394 90.22009055530378 200.40404040404042 78.29510230721152 206.8686868686869 68.47390198908477 213.33333333333331 67.0999523979593 219.7979797979798 61.87982032838795 226.26262626262627 64.09778436413089 232.72727272727275 62.454957011876786 239.1919191919192 54.62859468062311 245.65656565656565 50.63002678184853 252.12121212121212 50.9420547365321 258.5858585858586 56.370090465904525 265.0505050505051 53.40340949580906 271.5151515151515 56.13098852985638 277.979797979798 56.76315473069644 284.44444444444446 57.55755734090286 290.9090909090909 59.035658156052705 297.37373737373736 61.807294705035474 303.83838383838383 62.2927712826874 310.3030303030303 55.28099188236956 316.7676767676768 55.605287764884 323.23232323232327 52.6694450653556 329.6969696969697 49.99921050597828 336.16161616161617 44.30101613034185 342.62626262626264 46.095513324269405 349.09090909090907 42.65971753452936 355.55555555555554 41.45063840314742 362.020202020202 43.51775902122699 368.4848484848485 50.36753005293758 374.9494949494949 52.37897965788153 381.4141414141414 56.192686246042456 387.8787878787879 59.66232793897723 394.3434343434343 59.01033518195459 400.80808080808083 63.40178351672489 407.27272727272725 66.56771391432468 413.7373737373738 71.91831782874348 420.2020202020202 77.28706546069844 426.66666666666663 80.95090870123045 433.13131313131316 75.31344117777624 439.5959595959596 78.75187635892235 446.0606060606061 85.67955848276713 452.52525252525254 92.13492228243851 458.98989898989896 91.76318492325211 465.4545454545455 94.64709933253377 471.9191919191919 99.9935893256509 478.3838383838384 105.36601802161664 484.8484848484849 111.78302279188603 491.3131313131313 109.68065267395474 497.77777777777777 110.98535665716085 504.24242424242425 110.57123239568242 510.7070707070707 109.10309493133303 517.1717171717172 112.51125257101333 523.6363636363636 118.41475408959286 530.1010101010102 120.63389224230025 536.5656565656566 116.47503539375481 543.030303030303 118.01207905351319 549.4949494949494 124.15260627282922 555.959595959596 123.73798408454749 562.4242424242424 123.90255256665839 568.8888888888889 126.8243539442015 575.3535353535353 126.12085150236922 581.8181818181818 126.36058074830177 588.2828282828283 126.33020791571172 594.7474747474747 127.74347505453417 601.2121212121212 123.80808880042846 607.6767676767677 108.32970581037932 614.1414141414141 107.66085670807621 620.6060606060606 105.94476465041097 627.070707070707 103.50510392639416 633.5353535353536 100.40839461863823 640 101.76260000252356 640 320 0 320"
      />
      
      <polygon
        fill="#0298c3"
        fillRule="evenodd"
        points="0 313.69578780439076 6.464646464646465 305.07507338075993 12.92929292929293 298.5224201007721 19.393939393939394 288.39203037408043 25.85858585858586 281.72967448106846 32.323232323232325 277.8556739293554 38.78787878787879 270.54541129112727 45.25252525252525 260.8000827300841 51.71717171717172 251.72753813614815 58.18181818181819 237.79091239716848 64.64646464646465 230.2054646523702 71.11111111111111 218.60520835024175 77.57575757575758 212.80507635112974 84.04040404040404 207.84110808450055 90.5050505050505 198.66405555713192 96.96969696969697 187.99621779854243 103.43434343434345 176.3318677852953 109.8989898989899 173.60372083282192 116.36363636363637 169.25186546681655 122.82828282828282 163.42158952573212 129.2929292929293 159.99367266423263 135.75757575757575 149.21623195140597 142.22222222222223 151.8307646192474 148.68686868686868 137.94821327157814 155.15151515151516 126.07802935196165 161.61616161616163 120.39035325692623 168.08080808080808 110.04957301122425 174.54545454545453 101.46195621708415 181.010101010101 97.89528957127789 187.47474747474746 94.07414494765149 193.93939393939394 90.75095829186836 200.40404040404042 78.81131191003848 206.8686868686869 68.9743545297006 213.33333333333331 67.69008855809062 219.7979797979798 62.45194293929211 226.26262626262627 64.65299817002256 232.72727272727275 62.99322324457336 239.1919191919192 55.15043065338239 245.65656565656565 51.136440220814734 252.12121212121212 51.433010151299015 258.5858585858586 56.84653597640704 265.0505050505051 53.86531178997507 271.5151515151515 56.57879149464293 277.979797979798 57.1985931215425 284.44444444444446 57.979704245805806 290.9090909090909 59.445328703538166 297.37373737373736 62.20446029933021 303.83838383838383 62.678198861811666 310.3030303030303 55.65465451512631 316.7676767676768 55.96754457842678 323.23232323232327 53.02099556182276 329.6969696969697 50.34003011745983 336.16161616161617 44.63176298090258 342.62626262626264 46.41616433589752 349.09090909090907 42.97058084902949 355.55555555555554 41.752918269393774 362.020202020202 43.81081197780952 368.4848484848485 50.65192197352536 374.9494949494949 52.65469069086333 381.4141414141414 56.460248768062286 387.8787878787879 59.921723290342584 394.3434343434343 59.26181261752208 400.80808080808083 63.645828681706064 407.27272727272725 66.80430974167703 413.7373737373738 72.14792119322766 420.2020202020202 77.50966032278802 426.66666666666663 81.16670896922807 433.13131313131316 75.5230731227474 439.5959595959596 78.95510940625329 446.0606060606061 85.87678509223389 452.52525252525254 92.32612865449983 458.98989898989896 91.94874029582007 465.4545454545455 94.82699072807992 471.9191919191919 100.16798965458534 478.3838383838384 105.53526403179217 484.8484848484849 111.94710265659236 491.3131313131313 109.83988324833291 497.77777777777777 111.1397268234866 504.24242424242425 110.72089048618056 510.7070707070707 109.2486207219655 517.1717171717172 112.65233626567462 523.6363636363636 118.55166813417804 530.1010101010102 120.76662707063437 536.5656565656566 116.60384730945495 543.030303030303 118.13695905553823 549.4949494949494 124.2736743956105 555.959595959596 123.85547408799877 562.4242424242424 124.01645627175142 568.8888888888889 126.93489128048327 575.3535353535353 126.22801474291865 581.8181818181818 126.46447289133312 588.2828282828283 126.43123143209044 594.7474747474747 127.84141488924973 601.2121212121212 126.4023398827456 607.6767676767677 115.17757763989121 614.1414141414141 114.40698142690084 620.6060606060606 112.69048904896138 627.070707070707 110.04492067374446 633.5353535353536 107.19465514401321 640 108.51584479144145 640 320 0 320"
      />
      
      <polygon
        fill="#fd2fdb"
        fillRule="evenodd"
        points="0 313.69578780439076 6.464646464646465 305.07507338075993 12.92929292929293 298.5224201007721 19.393939393939394 288.39203037408043 25.85858585858586 281.72967448106846 32.323232323232325 277.8556739293554 38.78787878787879 270.54541129112727 45.25252525252525 260.8000827300841 51.71717171717172 251.72753813614815 58.18181818181819 237.79091239716848 64.64646464646465 230.2054646523702 71.11111111111111 218.60520835024175 77.57575757575758 212.80507635112974 84.04040404040404 207.84110808450055 90.5050505050505 198.66405555713192 96.96969696969697 187.99621779854243 103.43434343434345 176.3318677852953 109.8989898989899 173.60372083282192 116.36363636363637 169.25186546681655 122.82828282828282 163.42158952573212 129.2929292929293 159.99367266423263 135.75757575757575 149.21623195140597 142.22222222222223 151.8307646192474 148.68686868686868 137.94821327157814 155.15151515151516 126.07802935196165 161.61616161616163 120.39035325692623 168.08080808080808 110.04957301122425 174.54545454545453 101.46195621708415 181.010101010101 97.89528957127789 187.47474747474746 94.07414494765149 193.93939393939394 90.75095829186836 200.40404040404042 78.81131191003848 206.8686868686869 68.9743545297006 213.33333333333331 67.69008855809062 219.7979797979798 62.45194293929211 226.26262626262627 64.65299817002256 232.72727272727275 62.99322324457336 239.1919191919192 55.15043065338239 245.65656565656565 51.136440220814734 252.12121212121212 51.433010151299015 258.5858585858586 56.84653597640704 265.0505050505051 53.86531178997507 271.5151515151515 56.57879149464293 277.979797979798 58.32819664987085 284.44444444444446 59.07482731347028 290.9090909090909 60.50808593868146 297.37373737373736 63.234777515289636 303.83838383838383 64.55882644647474 310.3030303030303 57.477877035577194 316.7676767676768 57.735114155126496 323.23232323232327 54.736325500518205 329.6969696969697 52.00300081527649 336.16161616161617 46.24558542566638 342.62626262626264 47.980725706340195 349.09090909090907 44.487384914969766 355.55555555555554 43.22784088167407 362.020202020202 45.24071345822159 368.4848484848485 52.03956336059298 374.9494949494949 53.999975192569536 381.4141414141414 57.76577415062195 387.8787878787879 61.18739820757406 394.3434343434343 60.488853442989694 400.80808080808083 64.83660497029791 407.27272727272725 67.95873836734023 413.7373737373738 73.26823130077474 420.2020202020202 78.59577361549188 426.66666666666663 82.2196692493232 433.13131313131316 76.54593612037647 439.5959595959596 79.94674999128205 446.0606060606061 86.83911834917754 452.52525252525254 93.25908717830191 458.98989898989896 92.8541257332179 465.4545454545455 95.70473988683307 471.9191919191919 101.01894591991226 478.3838383838384 106.36107071019839 484.8484848484849 112.74770210442452 491.3131313131313 110.61682146632151 497.77777777777777 111.89294942520428 504.24242424242425 111.45112141837376 510.7070707070707 109.9586887672948 517.1717171717172 113.34072989657477 523.6363636363636 119.2197166687836 530.1010101010102 121.4142837980632 536.5656565656566 117.23236288120856 543.030303030303 118.74628956585352 549.4949494949494 124.86440542591527 555.959595959596 124.42874634557137 562.4242424242424 124.5722297656651 568.8888888888889 127.47423914855733 575.3535353535353 126.75089933696307 581.8181818181818 126.97139672837386 588.2828282828283 126.92415829063091 594.7474747474747 128.31929543901867 601.2121212121212 126.8660969462315 607.6767676767677 115.6271787475851 614.1414141414141 114.843294829911 620.6060606060606 114.22076775559034 627.070707070707 111.52848860102318 633.5353535353536 109.75410168708723 640 111.06283896959897 640 320 0 320"
      />
      
      <polygon
        fill="#4F5D95"
        fillRule="evenodd"
        points="0 313.69578780439076 6.464646464646465 305.07507338075993 12.92929292929293 298.5224201007721 19.393939393939394 288.39203037408043 25.85858585858586 281.72967448106846 32.323232323232325 277.8556739293554 38.78787878787879 270.54541129112727 45.25252525252525 260.8000827300841 51.71717171717172 251.72753813614815 58.18181818181819 237.79091239716848 64.64646464646465 230.2054646523702 71.11111111111111 218.60520835024175 77.57575757575758 212.80507635112974 84.04040404040404 207.84110808450055 90.5050505050505 198.66405555713192 96.96969696969697 187.99621779854243 103.43434343434345 176.3318677852953 109.8989898989899 173.60372083282192 116.36363636363637 169.25186546681655 122.82828282828282 163.42158952573212 129.2929292929293 159.99367266423263 135.75757575757575 149.21623195140597 142.22222222222223 151.8307646192474 148.68686868686868 137.94821327157814 155.15151515151516 126.07802935196165 161.61616161616163 120.39035325692623 168.08080808080808 110.04957301122425 174.54545454545453 101.46195621708415 181.010101010101 97.89528957127789 187.47474747474746 94.07414494765149 193.93939393939394 90.75095829186836 200.40404040404042 78.81131191003848 206.8686868686869 68.9743545297006 213.33333333333331 67.69008855809062 219.7979797979798 62.45194293929211 226.26262626262627 64.67262524217352 232.72727272727275 63.01225121112958 239.1919191919192 55.16887780207543 245.65656565656565 51.15434217357284 252.12121212121212 51.45036565866269 258.5858585858586 56.86337855081399 265.0505050505051 53.88164025389182 271.5151515151515 56.59462154132302 277.979797979798 58.34358960353029 284.44444444444446 59.089750405593065 290.9090909090909 60.52256798698426 297.37373737373736 63.24881750766906 303.83838383838383 64.57245149497078 310.3030303030303 57.491086186654854 316.7676767676768 57.74792010477472 323.23232323232327 54.74875297693961 329.6969696969697 52.01504895021998 336.16161616161617 46.25727748415159 342.62626262626264 47.99206087149179 349.09090909090907 44.49837408102718 355.55555555555554 43.238526618629635 362.020202020202 45.251073019437456 368.4848484848485 52.049616749752715 374.9494949494949 54.009721708393386 381.4141414141414 57.775232613094886 387.8787878787879 61.19656795651696 394.3434343434343 60.49774329038064 400.80808080808083 64.84523208284855 407.27272727272725 67.96710214241233 413.7373737373738 73.27634788886641 420.2020202020202 78.60364244890047 426.66666666666663 82.22729789159476 433.13131313131316 76.55334670934548 439.5959595959596 79.95393437566321 446.0606060606061 86.84609040249336 452.52525252525254 93.2658464141262 458.98989898989896 92.8606852032658 465.4545454545455 95.71109913293512 471.9191919191919 101.0251110539397 478.3838383838384 106.36705363695282 484.8484848484849 112.75350240580966 491.3131313131313 110.62245034298215 497.77777777777777 111.89840648360175 504.24242424242425 111.45641190295026 510.7070707070707 109.96383317319484 517.1717171717172 113.34571727212065 523.6363636363636 119.22455664519202 530.1010101010102 121.41897603717862 536.5656565656566 117.23691644356524 543.030303030303 118.7507041332297 549.4949494949494 124.86868524113052 555.959595959596 124.43289967314314 562.4242424242424 124.57625631562843 568.8888888888889 127.47814669571554 575.3535353535353 126.75468760840783 581.8181818181818 126.97506936521125 588.2828282828283 126.9277295199517 594.7474747474747 128.32275765864222 601.2121212121212 126.86945684169132 607.6767676767677 115.63043608429925 614.1414141414141 114.84645589771651 620.6060606060606 114.22383233346861 627.070707070707 111.5314596344518 633.5353535353536 109.75698491320244 640 111.06570816837257 640 320 0 320"
      />
      
      <polygon
        fill="#755462"
        fillRule="evenodd"
        points="0 318.02122370714767 6.464646464646465 313.527364341407 12.92929292929293 310.89612249438187 19.393939393939394 304.60635266440346 25.85858585858586 301.5123567534625 32.323232323232325 299.63474498374313 38.78787878787879 295.6873349966601 45.25252525252525 289.6072468010987 51.71717171717172 284.8540356917762 58.18181818181819 274.44711786157177 64.64646464646465 270.19676133781246 71.11111111111111 262.9523749379344 77.57575757575758 259.78063324370515 84.04040404040404 257.2939682864653 90.5050505050505 251.48859682860999 96.96969696969697 243.1157573896353 103.43434343434345 233.6907656989547 109.8989898989899 232.44225734942557 116.36363636363637 230.4870524712341 122.82828282828282 226.74331032749038 129.2929292929293 225.02612866092272 135.75757575757575 216.76217626461465 142.22222222222223 218.75152600643514 148.68686868686868 208.3585847790867 155.15151515151516 198.35251543832422 161.61616161616163 194.34761890757073 168.08080808080808 186.11875210698582 174.54545454545453 178.69900086935658 181.010101010101 176.47502548011244 187.47474747474746 173.87227246239405 193.93939393939394 171.38701080444815 200.40404040404042 162.6559930716035 206.8686868686869 154.1286933325904 213.33333333333331 153.54794708727758 219.7979797979798 149.77118624783031 226.26262626262627 151.9917657991013 232.72727272727275 150.24038466669882 239.1919191919192 143.4642408593836 245.65656565656565 140.6979831701989 252.12121212121212 142.92931268742961 258.5858585858586 147.05376900897423 265.0505050505051 144.4471768417347 271.5151515151515 147.14068669898924 277.979797979798 149.53425157649224 284.44444444444446 150.79093478249627 290.9090909090909 152.38211725594772 297.37373737373736 155.0355508203847 303.83838383838383 154.490515249942 310.3030303030303 148.8869174377444 316.7676767676768 148.96298455769784 323.23232323232327 145.90473114380072 329.6969696969697 141.78905905743176 336.16161616161617 137.45867597288742 342.62626262626264 139.37103058330965 349.09090909090907 135.064126447252 355.55555555555554 134.18777471040067 362.020202020202 137.09707962614615 368.4848484848485 142.4523947866733 374.9494949494949 144.39921396208524 381.4141414141414 146.97577159726723 387.8787878787879 149.8261974152979 394.3434343434343 149.06458329505955 400.80808080808083 151.71927937880906 407.27272727272725 154.19237268756484 413.7373737373738 158.30290478902455 420.2020202020202 162.42156298104484 426.66666666666663 164.48555172901092 433.13131313131316 158.22331675156252 439.5959595959596 161.34786632652254 446.0606060606061 165.87465562085046 452.52525252525254 170.07076916873214 458.98989898989896 168.56368427487092 465.4545454545455 169.21379576909843 471.9191919191919 173.47285690581054 478.3838383838384 177.1537375049224 484.8484848484849 181.49367217366913 491.3131313131313 177.55142158384336 497.77777777777777 179.11012035840133 504.24242424242425 179.84344493608137 510.7070707070707 178.8520710942333 517.1717171717172 181.1912595934428 523.6363636363636 185.21855604719636 530.1010101010102 189.19424344957886 536.5656565656566 186.26900970175507 543.030303030303 186.94217002622796 549.4949494949494 190.98333250155432 555.959595959596 193.06120376272665 562.4242424242424 195.38485710210287 568.8888888888889 199.0287949523343 575.3535353535353 200.45620244565796 581.8181818181818 202.5486157928991 588.2828282828283 204.68157880962713 594.7474747474747 208.14738070365047 601.2121212121212 207.11135931423934 607.6767676767677 197.53796271225167 614.1414141414141 198.09253802991125 620.6060606060606 198.3792138146541 627.070707070707 197.54832936332866 633.5353535353536 197.64430591274856 640 198.59597245925238 640 320 0 320"
      />
      
      <polygon
        fill="#2415b9"
        fillRule="evenodd"
        points="0 318.02122370714767 6.464646464646465 313.527364341407 12.92929292929293 310.89612249438187 19.393939393939394 304.60635266440346 25.85858585858586 301.5123567534625 32.323232323232325 299.63474498374313 38.78787878787879 295.6873349966601 45.25252525252525 289.6072468010987 51.71717171717172 284.8540356917762 58.18181818181819 274.44711786157177 64.64646464646465 270.19676133781246 71.11111111111111 262.9523749379344 77.57575757575758 259.78063324370515 84.04040404040404 257.2939682864653 90.5050505050505 251.48859682860999 96.96969696969697 243.1157573896353 103.43434343434345 233.6907656989547 109.8989898989899 232.44225734942557 116.36363636363637 230.4870524712341 122.82828282828282 226.74331032749038 129.2929292929293 225.02612866092272 135.75757575757575 216.76217626461465 142.22222222222223 218.75152600643514 148.68686868686868 208.3585847790867 155.15151515151516 198.35251543832422 161.61616161616163 194.34761890757073 168.08080808080808 186.11875210698582 174.54545454545453 178.69900086935658 181.010101010101 176.47502548011244 187.47474747474746 173.87227246239405 193.93939393939394 171.38701080444815 200.40404040404042 162.6559930716035 206.8686868686869 154.1286933325904 213.33333333333331 153.54794708727758 219.7979797979798 149.77118624783031 226.26262626262627 151.9917657991013 232.72727272727275 150.24038466669882 239.1919191919192 143.4642408593836 245.65656565656565 140.6979831701989 252.12121212121212 142.92931268742961 258.5858585858586 147.05376900897423 265.0505050505051 144.4471768417347 271.5151515151515 147.14068669898924 277.979797979798 149.53425157649224 284.44444444444446 150.79093478249627 290.9090909090909 152.38211725594772 297.37373737373736 155.0355508203847 303.83838383838383 154.490515249942 310.3030303030303 148.8869174377444 316.7676767676768 148.96298455769784 323.23232323232327 145.90473114380072 329.6969696969697 142.14868969393933 336.16161616161617 137.81830660939502 342.62626262626264 139.73066121981725 349.09090909090907 135.4237570837596 355.55555555555554 134.54740534690828 362.020202020202 137.45671026265373 368.4848484848485 142.8120254231809 374.9494949494949 144.75884459859287 381.4141414141414 147.33540223377486 387.8787878787879 150.18582805180552 394.3434343434343 149.42421393156718 400.80808080808083 152.07891001531664 407.27272727272725 154.55200332407244 413.7373737373738 158.66253542553213 420.2020202020202 162.78119361755245 426.66666666666663 164.84518236551853 433.13131313131316 158.58294738807012 439.5959595959596 161.70749696303014 446.0606060606061 166.23428625735804 452.52525252525254 170.43039980523974 458.98989898989896 168.9233149113785 465.4545454545455 169.57342640560603 471.9191919191919 173.83248754231815 478.3838383838384 177.51336814143 484.8484848484849 181.85330281017673 491.3131313131313 177.91105222035094 497.77777777777777 179.4697509949089 504.24242424242425 180.20307557258894 510.7070707070707 179.21170173074088 517.1717171717172 181.5508902299504 523.6363636363636 185.57818668370396 530.1010101010102 189.55387408608644 536.5656565656566 186.62864033826264 543.030303030303 187.30180066273556 549.4949494949494 191.34296313806192 555.959595959596 193.42083439923425 562.4242424242424 195.74448773861047 568.8888888888889 199.3884255888419 575.3535353535353 200.81583308216557 581.8181818181818 202.90824642940672 588.2828282828283 205.0412094461347 594.7474747474747 208.50701134015804 601.2121212121212 207.4709899507469 607.6767676767677 197.89759334875927 614.1414141414141 198.45216866641886 620.6060606060606 198.7388444511617 627.070707070707 197.90795999983627 633.5353535353536 198.00393654925614 640 198.59597245925238 640 320 0 320"
      />
      
      <polygon
        fill="#f1e05a"
        fillRule="evenodd"
        points="0 318.02122370714767 6.464646464646465 313.527364341407 12.92929292929293 310.89612249438187 19.393939393939394 304.60635266440346 25.85858585858586 301.5123567534625 32.323232323232325 299.63474498374313 38.78787878787879 295.6873349966601 45.25252525252525 289.6072468010987 51.71717171717172 284.8540356917762 58.18181818181819 275.5586226184872 64.64646464646465 271.2743380267217 71.11111111111111 264.381535373732 77.57575757575758 261.62328671019816 84.04040404040404 259.09162579523456 90.5050505050505 253.23312548693832 96.96969696969697 246.00810291575047 103.43434343434345 237.61107409337944 109.8989898989899 236.28993987808178 116.36363636363637 234.2172873403777 122.82828282828282 230.51372847442835 129.2929292929293 228.68145688680102 135.75757575757575 222.6033340533508 142.22222222222223 224.4143856044455 148.68686868686868 213.8540820402694 155.15151515151516 203.68026504414016 161.61616161616163 199.51274199828376 168.08080808080808 191.13122247316565 174.54545454545453 184.67465003548227 181.010101010101 182.27406743876523 187.47474747474746 179.49430175571914 193.93939393939394 176.837431961651 200.40404040404042 169.27900584563895 206.8686868686869 161.91439041318074 213.33333333333331 161.10354221146937 219.7979797979798 157.65199689789006 226.26262626262627 159.7498118048151 232.72727272727275 157.76162119363673 239.1919191919192 151.88566934632172 245.65656565656565 148.87051951373894 252.12121212121212 150.8523907261981 258.5858585858586 154.74268434769994 265.0505050505051 153.00435150872897 271.5151515151515 155.44769880167408 277.979797979798 157.6118951637737 284.44444444444446 159.39926228371124 290.9090909090909 161.3842526343318 297.37373737373736 163.7629012660518 303.83838383838383 164.08013604351214 310.3030303030303 158.18381995727748 316.7676767676768 157.97610408323695 323.23232323232327 154.65147328439474 329.6969696969697 150.62844307750623 336.16161616161617 146.04744573257304 342.62626262626264 147.70860861855573 349.09090909090907 144.26960418013016 355.55555555555554 143.14900518643032 362.020202020202 145.79575045331626 368.4848484848485 150.90460971112864 374.9494949494949 152.6044068224524 381.4141414141414 154.94909311850415 387.8787878787879 157.56711688533673 394.3434343434343 156.58019263005224 400.80808080808083 159.02339815660042 407.27272727272725 161.2845142765279 413.7373737373738 165.19607055593036 420.2020202020202 169.11529547572377 426.66666666666663 170.9859402174003 433.13131313131316 165.66906629413944 439.5959595959596 168.57731602277192 446.0606060606061 172.9010722449531 452.52525252525254 176.89368520086063 458.98989898989896 175.1955809531442 465.4545454545455 175.65423588541418 471.9191919191919 179.72768281398626 478.3838383838384 183.23433428889697 484.8484848484849 187.39963951316835 491.3131313131313 183.29346927922242 497.77777777777777 184.68787439379827 504.24242424242425 185.2619179460594 510.7070707070707 184.13086058519508 517.1717171717172 186.31989558729188 523.6363636363636 190.20624714325953 530.1010101010102 194.04066433625752 536.5656565656566 190.9828271691342 543.030303030303 191.52307766900526 549.4949494949494 195.43538870008697 555.959595959596 197.39230949934714 562.4242424242424 199.5947357694759 568.8888888888889 203.12488206799708 575.3535353535353 204.43823660951355 581.8181818181818 206.42007740749602 588.2828282828283 208.45607393496374 594.7474747474747 211.81763843026954 601.2121212121212 210.6837733610999 607.6767676767677 201.01230938909782 614.1414141414141 201.47483036098538 620.6060606060606 201.66924126190642 627.070707070707 200.74890752638822 633.5353535353536 200.76092152210913 640 201.33954464788616 640 320 0 320"
      />
      
      <polygon
        fill="#22e8e8"
        fillRule="evenodd"
        points="0 319.92567425268913 6.464646464646465 319.85646897775666 12.92929292929293 319.8272328770879 19.393939393939394 318.6603028226142 25.85858585858586 318.5475298065175 32.323232323232325 318.40759778653324 38.78787878787879 318.2695444911738 45.25252525252525 316.0115356917395 51.71717171717172 316.0194982120114 58.18181818181819 310.2711991703047 64.64646464646465 309.3798703689922 71.11111111111111 306.9369327364427 77.57575757575758 307.02226502048455 84.04040404040404 306.2791048017751 90.5050505050505 304.58411413335796 96.96969696969697 300.1563007079584 103.43434343434345 294.753649041599 109.8989898989899 293.47878079393 116.36363636363637 293.7809614945971 122.82828282828282 290.8838620008228 129.2929292929293 291.25492710369326 135.75757575757575 286.978533208824 142.22222222222223 287.29591953463455 148.68686868686868 280.0896299280743 155.15151515151516 272.35653358547273 161.61616161616163 270.6873604613702 168.08080808080808 264.6410397959318 174.54545454545453 259.71603765262046 181.010101010101 258.4821317762816 187.47474747474746 256.49761218216423 193.93939393939394 254.70956274015765 200.40404040404042 249.75804362231958 206.8686868686869 243.8433047888443 213.33333333333331 243.32680604298557 219.7979797979798 241.83025705265408 226.26262626262627 242.76854058619026 232.72727272727275 241.70745720560637 239.1919191919192 237.2178465264806 245.65656565656565 234.0443862601911 252.12121212121212 235.73028659638504 258.5858585858586 237.4044334841166 265.0505050505051 235.56052336542803 271.5151515151515 237.00506335402008 277.979797979798 238.39935217432324 284.44444444444446 240.8175628065003 290.9090909090909 242.54148186533843 297.37373737373736 244.59173018502514 303.83838383838383 243.76036225038206 310.3030303030303 239.7940543232545 316.7676767676768 239.82808421810662 323.23232323232327 237.4353118843252 329.6969696969697 235.72255916152255 336.16161616161617 231.99175946677644 342.62626262626264 232.20071740228383 349.09090909090907 229.5869789632904 355.55555555555554 229.00007697174834 362.020202020202 230.61539643555 368.4848484848485 233.2473150971579 374.9494949494949 234.38587263714788 381.4141414141414 235.44974983401937 387.8787878787879 235.98081338432794 394.3434343434343 235.0239059569986 400.80808080808083 236.27273703906087 407.27272727272725 237.10994189196126 413.7373737373738 239.17607924802758 420.2020202020202 241.04014865727365 426.66666666666663 242.01072730967272 433.13131313131316 236.8473159991385 439.5959595959596 238.18584992554264 446.0606060606061 240.60231020458633 452.52525252525254 242.69851888806193 458.98989898989896 240.2079377073179 465.4545454545455 240.05520514478343 471.9191919191919 242.49390888694992 478.3838383838384 244.47759243231388 484.8484848484849 246.7813159049284 491.3131313131313 243.48881101359697 497.77777777777777 244.04376013134015 504.24242424242425 246.20496157170027 510.7070707070707 246.89558853967867 517.1717171717172 247.99729572503634 523.6363636363636 250.1182451467747 530.1010101010102 252.23281615954397 536.5656565656566 249.581782893277 543.030303030303 249.44272194626836 549.4949494949494 251.59489480812312 555.959595959596 252.51203918091932 562.4242424242424 253.35344330718507 568.8888888888889 255.30238411839952 575.3535353535353 256.15328654188255 581.8181818181818 257.9440268122376 588.2828282828283 258.9969565545542 594.7474747474747 260.8264811806282 601.2121212121212 259.22060090104236 607.6767676767677 252.11869988191927 614.1414141414141 252.09483583067188 620.6060606060606 251.3292815910149 627.070707070707 250.03621022356256 633.5353535353536 248.84024648909264 640 249.23758803113498 640 320 0 320"
      />
      
      <polygon
        fill="#22e4e8"
        fillRule="evenodd"
        points="0 319.92567425268913 6.464646464646465 319.85646897775666 12.92929292929293 319.8272328770879 19.393939393939394 318.6603028226142 25.85858585858586 318.5475298065175 32.323232323232325 318.40759778653324 38.78787878787879 318.2695444911738 45.25252525252525 316.0115356917395 51.71717171717172 316.0194982120114 58.18181818181819 310.2711991703047 64.64646464646465 309.3798703689922 71.11111111111111 306.9369327364427 77.57575757575758 307.02226502048455 84.04040404040404 306.2791048017751 90.5050505050505 304.58411413335796 96.96969696969697 300.1563007079584 103.43434343434345 294.753649041599 109.8989898989899 293.47878079393 116.36363636363637 293.7809614945971 122.82828282828282 290.8838620008228 129.2929292929293 291.25492710369326 135.75757575757575 286.978533208824 142.22222222222223 287.29591953463455 148.68686868686868 280.0896299280743 155.15151515151516 272.35653358547273 161.61616161616163 270.6873604613702 168.08080808080808 264.6410397959318 174.54545454545453 259.71603765262046 181.010101010101 258.4821317762816 187.47474747474746 256.49761218216423 193.93939393939394 254.70956274015765 200.40404040404042 249.75804362231958 206.8686868686869 243.8433047888443 213.33333333333331 243.32680604298557 219.7979797979798 241.83025705265408 226.26262626262627 242.76854058619026 232.72727272727275 241.70745720560637 239.1919191919192 237.2178465264806 245.65656565656565 234.0443862601911 252.12121212121212 235.73028659638504 258.5858585858586 237.4044334841166 265.0505050505051 235.56052336542803 271.5151515151515 237.00506335402008 277.979797979798 238.39935217432324 284.44444444444446 240.8175628065003 290.9090909090909 242.54148186533843 297.37373737373736 244.59173018502514 303.83838383838383 243.76036225038206 310.3030303030303 239.7940543232545 316.7676767676768 239.82808421810662 323.23232323232327 237.4353118843252 329.6969696969697 235.77393496673795 336.16161616161617 232.04313527199184 342.62626262626264 232.25209320749917 349.09090909090907 229.6383547685058 355.55555555555554 229.0514527769637 362.020202020202 230.66677224076537 368.4848484848485 233.29869090237327 374.9494949494949 234.43724844236323 381.4141414141414 235.50112563923474 387.8787878787879 236.03218918954332 394.3434343434343 235.07528176221396 400.80808080808083 236.32411284427627 407.27272727272725 237.16131769717663 413.7373737373738 239.22745505324295 420.2020202020202 241.09152446248902 426.66666666666663 242.0621031148881 433.13131313131316 236.89869180435386 439.5959595959596 238.23722573075798 446.0606060606061 240.65368600980167 452.52525252525254 242.74989469327733 458.98989898989896 240.2593135125333 465.4545454545455 240.1065809499988 471.9191919191919 242.5452846921653 478.3838383838384 244.52896823752923 484.8484848484849 246.83269171014376 491.3131313131313 243.54018681881234 497.77777777777777 244.09513593655552 504.24242424242425 246.25633737691564 510.7070707070707 246.94696434489404 517.1717171717172 248.0486715302517 523.6363636363636 250.16962095199005 530.1010101010102 252.28419196475934 536.5656565656566 249.63315869849237 543.030303030303 249.4940977514837 549.4949494949494 251.64627061333852 555.959595959596 252.56341498613466 562.4242424242424 253.40481911240045 568.8888888888889 255.35375992361492 575.3535353535353 256.20466234709795 581.8181818181818 257.995402617453 588.2828282828283 259.0483323597695 594.7474747474747 260.8778569858436 601.2121212121212 259.2719767062577 607.6767676767677 252.17007568713464 614.1414141414141 252.14621163588725 620.6060606060606 251.38065739623028 627.070707070707 250.08758602877793 633.5353535353536 248.891622294308 640 249.23758803113498 640 320 0 320"
      />
      
      <polygon
        fill="#e34c26"
        fillRule="evenodd"
        points="0 319.92567425268913 6.464646464646465 319.85646897775666 12.92929292929293 319.8272328770879 19.393939393939394 318.6603028226142 25.85858585858586 318.6387621805067 32.323232323232325 318.51260276033105 38.78787878787879 318.3713442487036 45.25252525252525 316.11052458957204 51.71717171717172 316.207074421052 58.18181818181819 311.64862160146015 64.64646464646465 310.75104550223347 71.11111111111111 308.2675835592946 77.57575757575758 308.31229833723637 84.04040404040404 307.52976061886153 90.5050505050505 305.7978073191274 96.96969696969697 302.0857670578237 103.43434343434345 297.72660906293885 109.8989898989899 296.3609929562245 116.36363636363637 296.5751958785118 122.82828282828282 294.7044052603739 129.2929292929293 294.97529165313887 135.75757575757575 291.71973500789903 142.22222222222223 292.1942254635099 148.68686868686868 288.1167922656608 155.15151515151516 282.47605162664695 161.61616161616163 280.50909817041946 168.08080808080808 276.09420181436974 174.54545454545453 271.33208871652596 181.010101010101 270.3321004776391 187.47474747474746 269.0819882576724 193.93939393939394 268.3241131041351 200.40404040404042 264.1112722311353 206.8686868686869 258.7341308509498 213.33333333333331 258.8780259529743 219.7979797979798 257.339050822696 226.26262626262627 258.03727679629895 232.72727272727275 256.52382328569706 239.1919191919192 252.72249015897722 245.65656565656565 250.1933657188929 252.12121212121212 252.19004857599566 258.5858585858586 254.18869224208026 265.0505050505051 252.8678196734834 271.5151515151515 253.80097414460658 277.979797979798 254.907729023377 284.44444444444446 256.83304531789827 290.9090909090909 258.5829142959507 297.37373737373736 260.45213380086443 303.83838383838383 259.9720859524773 310.3030303030303 257.8643933380135 316.7676767676768 257.54205701502144 323.23232323232327 255.72567086746733 329.6969696969697 254.32301222978361 336.16161616161617 252.4439958931237 342.62626262626264 252.30169436582528 349.09090909090907 249.89598889234213 355.55555555555554 249.6073152299465 362.020202020202 250.63989229289956 368.4848484848485 252.6897508243521 374.9494949494949 254.04379904173743 381.4141414141414 254.88132266095886 387.8787878787879 255.76537292864458 394.3434343434343 254.206113983132 400.80808080808083 254.9008457032694 407.27272727272725 255.171008601395 413.7373737373738 256.7048741201402 420.2020202020202 258.10511248474086 426.66666666666663 258.5563577826042 433.13131313131316 255.16943242251645 439.5959595959596 257.12070810995056 446.0606060606061 258.97907404445573 452.52525252525254 260.51590604329476 458.98989898989896 258.6005386529031 465.4545454545455 258.0205813344552 471.9191919191919 259.9124656662958 478.3838383838384 261.38287306455896 484.8484848484849 263.17214491164935 491.3131313131313 261.8204206582626 497.77777777777777 263.55760925529984 504.24242424242425 265.2078649550837 510.7070707070707 265.5769513085412 517.1717171717172 267.2215240222554 523.6363636363636 268.7758322204997 530.1010101010102 270.33939772233407 536.5656565656566 268.4386351375942 543.030303030303 268.9635951703171 549.4949494949494 270.5214742952786 555.959595959596 271.98380330027874 562.4242424242424 273.4494512028461 568.8888888888889 274.825225035788 575.3535353535353 276.2041638752102 581.8181818181818 277.54099479642304 588.2828282828283 278.7133671207687 594.7474747474747 279.9736293297666 601.2121212121212 278.9297469283994 607.6767676767677 275.723919822623 614.1414141414141 277.0324770044752 620.6060606060606 278.2862929720008 627.070707070707 278.4158618341546 633.5353535353536 279.64486076623666 640 279.8411996079544 640 320 0 320"
      />
      
      <polygon
        fill="#00ADD8"
        fillRule="evenodd"
        points="0 319.92567425268913 6.464646464646465 319.85646897775666 12.92929292929293 319.8272328770879 19.393939393939394 318.6603028226142 25.85858585858586 318.6387621805067 32.323232323232325 318.5153625312083 38.78787878787879 318.3740197791868 45.25252525252525 316.6121804542976 51.71717171717172 316.6934175215299 58.18181818181819 313.1394420456579 64.64646464646465 312.19635941595527 71.11111111111111 310.8820294431258 77.57575757575758 310.863962576088 84.04040404040404 310.003536670968 90.5050505050505 308.6617053426335 96.96969696969697 305.8714464904525 103.43434343434345 303.79316072928367 109.8989898989899 303.0244451678191 116.36363636363637 303.31529359887503 122.82828282828282 302.4901860835268 129.2929292929293 302.913240932485 135.75757575757575 300.97568494833047 142.22222222222223 301.5563911821661 148.68686868686868 299.6311582808518 155.15151515151516 295.8211965157199 161.61616161616163 294.0784522110328 168.08080808080808 290.71613615962286 174.54545454545453 287.71238157311336 181.010101010101 287.3468177400895 187.47474747474746 286.11582862234013 193.93939393939394 284.9372986508604 200.40404040404042 282.3765454361068 206.8686868686869 277.94383109797 213.33333333333331 278.0796591710597 219.7979797979798 276.03280235322813 226.26262626262627 276.2116826421022 232.72727272727275 274.1490156086514 239.1919191919192 270.30473333628754 245.65656565656565 268.0869760737754 252.12121212121212 269.66605480824944 258.5858585858586 271.14820209176236 265.0505050505051 270.41255543043826 271.5151515151515 270.81016439793194 277.979797979798 272.16288505423535 284.44444444444446 273.56149659368873 290.9090909090909 274.9228802279923 297.37373737373736 276.29332389306927 303.83838383838383 276.46434210137056 310.3030303030303 274.6332609322507 316.7676767676768 273.7990654068657 323.23232323232327 272.0443816013753 329.6969696969697 270.1436037066454 336.16161616161617 268.24947466312335 342.62626262626264 268.72859740793626 349.09090909090907 266.93233947885267 355.55555555555554 266.17325866874404 362.020202020202 266.70017039638094 368.4848484848485 268.27537916612584 374.9494949494949 269.7730011812499 381.4141414141414 270.1456641846894 387.8787878787879 271.6310127665514 394.3434343434343 270.8758879242698 400.80808080808083 271.21137843650314 407.27272727272725 272.6978450278128 413.7373737373738 274.095828734376 420.2020202020202 275.4691359018828 426.66666666666663 275.7089820914782 433.13131313131316 272.95247074189837 439.5959595959596 274.36093330429725 446.0606060606061 275.70976941541795 452.52525252525254 277.06170091880296 458.98989898989896 276.49360956183085 465.4545454545455 276.6994708720547 471.9191919191919 278.02119884780836 478.3838383838384 279.09847344698295 484.8484848484849 280.34698411869846 491.3131313131313 279.2673574324095 497.77777777777777 280.47751760680586 504.24242424242425 281.6112954193079 510.7070707070707 281.52745986659943 517.1717171717172 282.685158459513 523.6363636363636 283.78244290730294 530.1010101010102 284.8879396748049 536.5656565656566 282.6100786797841 543.030303030303 282.841758900919 549.4949494949494 283.9760147139128 555.959595959596 285.04070217915864 562.4242424242424 286.1077954911615 568.8888888888889 287.10945749213136 575.3535353535353 288.11342590712474 581.8181818181818 289.0867390984074 588.2828282828283 289.9403111936823 594.7474747474747 290.8578772590877 601.2121212121212 291.7191545948772 607.6767676767677 290.3472289844237 614.1414141414141 291.22360570019146 620.6060606060606 292.1019960536541 627.070707070707 292.92838626462105 633.5353535353536 293.72847736941094 640 293.856287052068 640 320 0 320"
      />
      
      <polygon
        fill="#244776"
        fillRule="evenodd"
        points="0 319.92567425268913 6.464646464646465 319.85646897775666 12.92929292929293 319.8272328770879 19.393939393939394 318.6603028226142 25.85858585858586 318.6387621805067 32.323232323232325 318.5153625312083 38.78787878787879 318.3740197791868 45.25252525252525 316.6121804542976 51.71717171717172 316.6934175215299 58.18181818181819 313.1394420456579 64.64646464646465 312.19635941595527 71.11111111111111 310.8820294431258 77.57575757575758 310.863962576088 84.04040404040404 310.003536670968 90.5050505050505 308.6617053426335 96.96969696969697 305.8714464904525 103.43434343434345 303.79316072928367 109.8989898989899 303.0244451678191 116.36363636363637 303.31529359887503 122.82828282828282 302.4901860835268 129.2929292929293 302.913240932485 135.75757575757575 300.97568494833047 142.22222222222223 301.5563911821661 148.68686868686868 299.6311582808518 155.15151515151516 295.8211965157199 161.61616161616163 294.0784522110328 168.08080808080808 290.71613615962286 174.54545454545453 287.71238157311336 181.010101010101 287.3468177400895 187.47474747474746 286.11582862234013 193.93939393939394 284.9372986508604 200.40404040404042 282.3765454361068 206.8686868686869 277.94383109797 213.33333333333331 278.0796591710597 219.7979797979798 276.03280235322813 226.26262626262627 276.2116826421022 232.72727272727275 274.1490156086514 239.1919191919192 270.30473333628754 245.65656565656565 268.0869760737754 252.12121212121212 269.66605480824944 258.5858585858586 271.14820209176236 265.0505050505051 270.41255543043826 271.5151515151515 270.81016439793194 277.979797979798 272.16288505423535 284.44444444444446 273.56149659368873 290.9090909090909 274.9228802279923 297.37373737373736 276.29332389306927 303.83838383838383 276.46434210137056 310.3030303030303 274.6332609322507 316.7676767676768 273.7990654068657 323.23232323232327 272.0443816013753 329.6969696969697 270.1436037066454 336.16161616161617 268.24947466312335 342.62626262626264 268.72859740793626 349.09090909090907 266.93233947885267 355.55555555555554 266.17325866874404 362.020202020202 266.70017039638094 368.4848484848485 268.27537916612584 374.9494949494949 269.7730011812499 381.4141414141414 270.1456641846894 387.8787878787879 271.6310127665514 394.3434343434343 270.8758879242698 400.80808080808083 271.21137843650314 407.27272727272725 272.6978450278128 413.7373737373738 274.095828734376 420.2020202020202 275.4691359018828 426.66666666666663 275.7089820914782 433.13131313131316 272.95247074189837 439.5959595959596 274.36093330429725 446.0606060606061 275.70976941541795 452.52525252525254 277.06170091880296 458.98989898989896 276.49360956183085 465.4545454545455 276.6994708720547 471.9191919191919 278.02119884780836 478.3838383838384 279.09847344698295 484.8484848484849 280.34698411869846 491.3131313131313 279.2673574324095 497.77777777777777 280.47751760680586 504.24242424242425 281.6112954193079 510.7070707070707 281.52745986659943 517.1717171717172 282.685158459513 523.6363636363636 283.78244290730294 530.1010101010102 284.8879396748049 536.5656565656566 282.6100786797841 543.030303030303 282.841758900919 549.4949494949494 283.9760147139128 555.959595959596 285.04070217915864 562.4242424242424 286.1077954911615 568.8888888888889 287.10945749213136 575.3535353535353 288.11342590712474 581.8181818181818 289.0867390984074 588.2828282828283 289.9403111936823 594.7474747474747 290.8578772590877 601.2121212121212 291.7191545948772 607.6767676767677 290.4027902018122 614.1414141414141 291.2775248338185 620.6060606060606 292.1542693387007 627.070707070707 292.9790639342945 633.5353535353536 293.77765729051015 640 293.90522769960205 640 320 0 320"
      />
      
      <polygon
        fill="#563d7c"
        fillRule="evenodd"
        points="0 319.92567425268913 6.464646464646465 319.85646897775666 12.92929292929293 319.8272328770879 19.393939393939394 318.6603028226142 25.85858585858586 318.6387621805067 32.323232323232325 318.5153625312083 38.78787878787879 318.3740197791868 45.25252525252525 316.6121804542976 51.71717171717172 316.6934175215299 58.18181818181819 314.2496022977509 64.64646464646465 313.27263270068624 71.11111111111111 311.92649401456737 77.57575757575758 311.8765454805967 84.04040404040404 310.9852110690462 90.5050505050505 309.61436689874216 96.96969696969697 306.79502851879636 103.43434343434345 305.7914244199129 109.8989898989899 304.96171303645804 116.36363636363637 305.19342729920135 122.82828282828282 304.31463607471585 129.2929292929293 304.68200078383995 135.75757575757575 303.8118299673625 142.22222222222223 304.3059641676007 148.68686868686868 302.29946912766115 155.15151515151516 298.408058729731 161.61616161616163 296.5863518674601 168.08080808080808 293.14991614736914 174.54545454545453 290.071871941015 181.010101010101 289.6365747000562 187.47474747474746 288.33569188185965 193.93939393939394 287.0894018471233 200.40404040404042 284.4692256292803 206.8686868686869 279.97263349198374 213.33333333333331 280.04850147931626 219.7979797979798 277.9415466830663 226.26262626262627 278.06401520754616 232.72727272727275 275.9448068399204 239.1919191919192 273.1750955663575 245.65656565656565 271.62233285508574 252.12121212121212 273.0934971217113 258.5858585858586 274.47434806585204 265.0505050505051 273.6371727437645 271.5151515151515 273.9363520390654 277.979797979798 275.20275373898784 284.44444444444446 276.5085747173804 290.9090909090909 277.78285909957344 297.37373737373736 279.0660036606575 303.83838383838383 279.1550768431306 310.3030303030303 277.24186240723225 316.7676767676768 276.32804044610845 323.23232323232327 274.4986143999294 329.6969696969697 272.5229227720732 336.16161616161617 270.55847391717543 342.62626262626264 270.9671159415908 349.09090909090907 269.10252849982555 355.55555555555554 268.28352521104915 362.020202020202 268.7460221596102 368.4848484848485 270.26076684694874 374.9494949494949 271.69778637324725 381.4141414141414 272.0135633108588 387.8787878787879 273.441895229596 394.3434343434343 272.6314943364703 400.80808080808083 272.91509877899085 407.27272727272725 274.3495602114712 413.7373737373738 275.6987282719446 420.2020202020202 277.02310799960935 426.66666666666663 277.2155200385171 433.13131313131316 275.39027489371557 439.5959595959596 276.72432484259207 446.0606060606061 278.0033121557194 452.52525252525254 279.28523477410187 458.98989898989896 278.6514279054175 465.4545454545455 278.7914231728198 471.9191919191919 280.0492955437617 478.3838383838384 281.0666308130044 484.8484848484849 282.25506467313323 491.3131313131313 281.11904533424956 497.77777777777777 282.2726840055318 504.24242424242425 283.3516653089557 510.7070707070707 283.2197752940874 517.1717171717172 284.32581685062786 523.6363636363636 285.37461271070384 530.1010101010102 286.431509302243 536.5656565656566 284.10802916098135 543.030303030303 284.2939852237293 549.4949494949494 285.3839126562124 555.959595959596 286.40699034305624 562.4242424242424 287.4323785231626 568.8888888888889 288.3948932908261 575.3535353535353 289.3596244107265 581.8181818181818 290.2948981851906 588.2828282828283 291.1151109426231 594.7474747474747 291.9968169014914 601.2121212121212 292.82443347758925 607.6767676767677 291.4743310556215 614.1414141414141 292.31739692203183 620.6060606060606 293.16239996455363 627.070707070707 293.9564219427218 633.5353535353536 294.72613007446796 640 294.8490859087354 640 320 0 320"
      />
      
      <polygon
        fill="#178600"
        fillRule="evenodd"
        points="0 320 6.464646464646465 320 12.92929292929293 320 19.393939393939394 320 25.85858585858586 320 32.323232323232325 320 38.78787878787879 320 45.25252525252525 320 51.71717171717172 320 58.18181818181819 318.7303284561292 64.64646464646465 318.76908452432986 71.11111111111111 318.80546361897603 77.57575757575758 318.8419261068293 84.04040404040404 318.87727558923837 90.5050505050505 318.9104571667948 96.96969696969697 318.9437147497174 103.43434343434345 318.9749328056495 109.8989898989899 319.00622237670234 116.36363636363637 319.03655684071083 122.82828282828282 319.0640954436746 129.2929292929293 319.092663432822 135.75757575757575 319.1194792398574 142.22222222222223 319.1463566567584 148.68686868686868 319.1715856501236 155.15151515151516 319.1856776533132 161.61616161616163 319.21053436731864 168.08080808080808 319.23386661733105 174.54545454545453 319.2572523598319 181.010101010101 319.2792038953543 187.47474747474746 318.1941405597065 193.93939393939394 318.24926337707393 200.40404040404042 318.2976040230191 206.8686868686869 316.1388740671447 213.33333333333331 316.24748488265703 219.7979797979798 316.36202812404855 226.26262626262627 316.4695462892107 232.72727272727275 316.5773115925463 239.1919191919192 316.24155991654476 245.65656565656565 315.63817790246054 252.12121212121212 315.771319945702 258.5858585858586 315.89629652396565 265.0505050505051 316.02155957371923 271.5151515151515 316.14299913329705 277.979797979798 316.2494974990009 284.44444444444446 316.3639793154797 290.9090909090909 316.4714400424916 297.37373737373736 316.57914728089213 303.83838383838383 316.68024856688226 310.3030303030303 315.9758112687039 316.7676767676768 316.0986472226675 323.23232323232327 314.3108437988418 329.6969696969697 314.48450213784696 336.16161616161617 313.5209104819304 342.62626262626264 313.7186805138392 349.09090909090907 313.91041481339977 355.55555555555554 312.97612319020396 362.020202020202 313.19052226531556 368.4848484848485 313.39177256619587 374.9494949494949 313.59348551647724 381.4141414141414 313.7828265974538 387.8787878787879 313.972601906736 394.3434343434343 314.1565848611343 400.80808080808083 314.32928435293644 407.27272727272725 314.50237934596225 413.7373737373738 314.66485878240996 420.2020202020202 314.8277106728952 426.66666666666663 314.98559200560163 433.13131313131316 313.2129022545032 439.5959595959596 313.42007426426966 446.0606060606061 313.61454093465477 452.52525252525254 313.8094532387743 458.98989898989896 313.19872540930885 465.4545454545455 313.40633020885844 471.9191919191919 313.60759852209605 478.3838383838384 313.7965225651113 484.8484848484849 313.9858799116677 491.3131313131313 314.1636241684617 497.77777777777777 314.3417760408942 504.24242424242425 314.5144901953512 510.7070707070707 314.6659541865033 517.1717171717172 314.8287729498693 523.6363636363636 314.98160559247236 530.1010101010102 315.13478944007994 536.5656565656566 315.27857788593286 543.030303030303 315.42269657546177 549.4949494949494 315.56241616029325 555.959595959596 315.69356671292195 562.4242424242424 315.8250179373131 568.8888888888889 315.94840756832946 575.3535353535353 316.07207976627456 581.8181818181818 316.19197738381047 588.2828282828283 316.2971231889655 594.7474747474747 316.4101515428141 601.2121212121212 316.51624733798343 607.6767676767677 316.62258734290526 614.1414141414141 316.72240457284533 620.6060606060606 316.8224512471315 627.070707070707 316.91944431823333 633.5353535353536 317.01048833824547 640 317.0250330033797 640 320 0 320"
      />
      
      <polygon
        fill="#555555"
        fillRule="evenodd"
        points="0 320 6.464646464646465 320 12.92929292929293 320 19.393939393939394 320 25.85858585858586 320 32.323232323232325 320 38.78787878787879 320 45.25252525252525 320 51.71717171717172 320 58.18181818181819 318.7303284561292 64.64646464646465 318.76908452432986 71.11111111111111 318.80546361897603 77.57575757575758 318.8419261068293 84.04040404040404 318.87727558923837 90.5050505050505 318.9104571667948 96.96969696969697 318.9437147497174 103.43434343434345 318.9749328056495 109.8989898989899 319.00622237670234 116.36363636363637 319.03655684071083 122.82828282828282 319.0640954436746 129.2929292929293 319.092663432822 135.75757575757575 319.1194792398574 142.22222222222223 319.1463566567584 148.68686868686868 319.1715856501236 155.15151515151516 319.1856776533132 161.61616161616163 319.21053436731864 168.08080808080808 319.23386661733105 174.54545454545453 319.2572523598319 181.010101010101 319.2792038953543 187.47474747474746 318.1941405597065 193.93939393939394 318.24926337707393 200.40404040404042 318.2976040230191 206.8686868686869 317.24284887779294 213.33333333333331 317.31883225518396 219.7979797979798 317.40067325528173 226.26262626262627 317.4774948905858 232.72727272727275 317.55449307370685 239.1919191919192 317.18891342721014 245.65656565656565 316.5575329350545 252.12121212121212 316.6626121777163 258.5858585858586 316.7612470448752 265.0505050505051 316.86010806832854 271.5151515151515 316.9559513797352 277.979797979798 317.04000281357725 284.44444444444446 317.1303548734192 290.9090909090909 317.21516579578974 297.37373737373736 317.3001712269588 303.83838383838383 317.3799630927904 310.3030303030303 317.4599383702466 316.7676767676768 317.5374721666874 323.23232323232327 316.50570923556927 329.6969696969697 316.6123705447769 336.16161616161617 315.5858907932123 342.62626262626264 315.72062856896366 349.09090909090907 315.85125453352043 355.55555555555554 314.8633730134077 362.020202020202 315.020165014641 368.4848484848485 315.167341253016 374.9494949494949 315.3148560168467 381.4141414141414 315.45332282321834 387.8787878787879 315.59210713206625 394.3434343434343 315.7266555674251 400.80808080808083 315.8529525347083 407.27272727272725 315.9795384497952 413.7373737373738 316.09836119300957 420.2020202020202 316.2174562074412 426.66666666666663 316.3329164350297 433.13131313131316 315.5852540414825 439.5959595959596 315.72001134003983 446.0606060606061 315.8465045320735 452.52525252525254 315.97328768915173 458.98989898989896 316.09229501535907 465.4545454545455 316.21157535259533 471.9191919191919 316.3272150975224 478.3838383838384 316.43576210428466 484.8484848484849 316.5445583864538 491.3131313131313 316.64668218454483 497.77777777777777 316.749040153556 504.24242424242425 316.848273959852 510.7070707070707 316.93529830603865 517.1717171717172 317.0288465574747 523.6363636363636 317.11665736448754 530.1010101010102 317.20466977016 536.5656565656566 317.2872842227302 543.030303030303 317.37008835477315 549.4949494949494 317.4503648999512 555.959595959596 317.5257180400644 562.4242424242424 317.60124392618513 568.8888888888889 317.6721380676873 575.3535353535353 317.74319455673395 581.8181818181818 317.8120822675392 588.2828282828283 317.87249433708035 594.7474747474747 317.93743524550223 601.2121212121212 317.9983930802222 607.6767676767677 318.0594913455681 614.1414141414141 318.1168417459236 620.6060606060606 318.1743240793469 627.070707070707 318.23005200094815 633.5353535353536 318.28236174637624 640 318.29071840127546 640 320 0 320"
      />
      
      <polygon
        fill="#C1F12E"
        fillRule="evenodd"
        points="0 320 6.464646464646465 320 12.92929292929293 320 19.393939393939394 320 25.85858585858586 320 32.323232323232325 320 38.78787878787879 320 45.25252525252525 320 51.71717171717172 320 58.18181818181819 319.0077744500531 64.64646464646465 319.03806161749526 71.11111111111111 319.06649124132406 77.57575757575758 319.0949860096739 84.04040404040404 319.1226109856414 90.5050505050505 319.14854179305615 96.96969696969697 319.1745319909017 103.43434343434345 319.1989283571421 109.8989898989899 319.2233805894331 116.36363636363637 319.24708644430103 122.82828282828282 319.2686073580993 129.2929292929293 319.29093274508114 135.75757575757575 319.3118888024514 142.22222222222223 319.3328930297766 148.68686868686868 319.3526090293364 155.15151515151516 319.3611754002725 161.61616161616163 319.380675148793 168.08080808080808 319.3989789815948 174.54545454545453 319.41732476787917 181.010101010101 319.43454545485474 187.47474747474746 319.4408447039832 193.93939393939394 319.4579125890389 200.40404040404042 319.4728805394323 206.8686868686869 319.4862107113567 213.33333333333331 319.50139544709776 219.7979797979798 319.51661507728573 226.26262626262627 319.53090126046874 232.72727272727275 319.5452202419658 239.1919191919192 319.30910731635703 245.65656565656565 318.6150657068608 252.12121212121212 318.65733997992743 258.5858585858586 318.6970217271113 265.0505050505051 318.73679440947035 271.5151515151515 318.775352876049 277.979797979798 318.8091675062773 284.44444444444446 318.8455170187348 290.9090909090909 318.87963707812514 297.37373737373736 318.9138354342425 303.83838383838383 318.9459364758636 310.3030303030303 318.9781111903894 316.7676767676768 319.0093037022711 323.23232323232327 319.0385831846698 329.6969696969697 319.0679299693733 336.16161616161617 319.0954768541169 342.62626262626264 319.1230868283493 349.09090909090907 319.14985423937617 355.55555555555554 319.1733280502823 362.020202020202 319.1985617188458 368.4848484848485 319.2222477837536 374.9494949494949 319.2459882659142 381.4141414141414 319.26827269610413 387.8787878787879 319.29060819384443 394.3434343434343 319.3122619963005 400.80808080808083 319.3325877341917 407.27272727272725 319.3529601315892 413.7373737373738 319.37208298720265 420.2020202020202 319.39124979995495 426.66666666666663 319.4098315964133 433.13131313131316 318.5742204004404 439.5959595959596 318.6177413587964 446.0606060606061 318.65859334407145 452.52525252525254 318.6995390388152 458.98989898989896 318.7379735869517 465.4545454545455 318.77649609046665 471.9191919191919 318.8138429100551 478.3838383838384 318.84889908799215 484.8484848484849 318.8840358231919 491.3131313131313 318.91701754886594 497.77777777777777 318.95007489972534 504.24242424242425 318.9821233325219 510.7070707070707 319.010228466765 517.1717171717172 319.0404408310348 523.6363636363636 319.0687999672588 530.1010101010102 319.0972243507555 536.5656565656566 319.123905347678 543.030303030303 319.1506476873119 549.4949494949494 319.176573665401 555.959595959596 319.2009096034193 562.4242424242424 319.2253013561123 568.8888888888889 319.24819724058557 575.3535353535353 319.27114552838015 581.8181818181818 319.29339346119804 588.2828282828283 319.3129039164363 594.7474747474747 319.3338772052516 601.2121212121212 319.3535640336292 607.6767676767677 319.3732962473931 614.1414141414141 319.3918180471861 620.6060606060606 319.4103824888975 627.070707070707 319.42838022465185 633.5353535353536 319.4452741615063 640 319.4479730044804 640 320 0 320"
      />
      

      
        <g id="labels">
        
          
          <text x="0" y="330">
            Jul 2014
          </text>
          
        
          
        
          
        
          
        
          
        
          
        
          
        
          
        
          
        
          
        
          
        
          
        
          
        
          
          <text x="83.2" y="330">
            Aug 2015
          </text>
          
        
          
        
          
        
          
        
          
        
          
        
          
        
          
        
          
        
          
        
          
        
          
        
          
        
          
          <text x="166.4" y="330">
            Sep 2016
          </text>
          
        
          
        
          
        
          
        
          
        
          
        
          
        
          
        
          
        
          
        
          
        
          
        
          
        
          
          <text x="249.6" y="330">
            Oct 2017
          </text>
          
        
          
        
          
        
          
        
          
        
          
        
          
        
          
        
          
        
          
        
          
        
          
        
          
        
          
          <text x="332.8" y="330">
            Nov 2018
          </text>
          
        
          
        
          
        
          
        
          
        
          
        
          
        
          
        
          
        
          
        
          
        
          
        
          
        
          
          <text x="416" y="330">
            Dec 2019
          </text>
          
        
          
        
          
        
          
        
          
        
          
        
          
        
          
        
          
        
          
        
          
        
          
        
          
        
          
          <text x="499.2" y="330">
            Jan 2021
          </text>
          
        
          
        
          
        
          
        
          
        
          
        
          
        
          
        
          
        
          
        
          
        
          
        
          
        
          
          <text x="582.4" y="330">
            Feb 2022
          </text>
          
        
          
        
          
        
          
        
          
        
          
        
          
        
          
        
          
        
        </g>
      

      
        <text text-anchor="middle" y="370" x="320" id="legend">
          
          <tspan xml:space="preserve" fill="#C1F12E">   </tspan> Batchfile
          
          <tspan xml:space="preserve" fill="#555555">   </tspan> C
          
          <tspan xml:space="preserve" fill="#178600">   </tspan> C#
          
          <tspan xml:space="preserve" fill="#563d7c">   </tspan> CSS
          
          <tspan xml:space="preserve" fill="#244776">   </tspan> CoffeeScript
          
          <tspan xml:space="preserve" fill="#00ADD8">   </tspan> Go
          
          <tspan xml:space="preserve" fill="#e34c26">   </tspan> HTML
          
          <tspan xml:space="preserve" fill="#22e4e8">   </tspan> JSON
          
        </text>
      
        <text text-anchor="middle" y="400" x="320" id="legend">
          
          <tspan xml:space="preserve" fill="#22e8e8">   </tspan> JSon
          
          <tspan xml:space="preserve" fill="#f1e05a">   </tspan> JavaScript
          
          <tspan xml:space="preserve" fill="#2415b9">   </tspan> Less
          
          <tspan xml:space="preserve" fill="#755462">   </tspan> MySQL
          
          <tspan xml:space="preserve" fill="#4F5D95">   </tspan> PHP
          
          <tspan xml:space="preserve" fill="#fd2fdb">   </tspan> PLpgSQL
          
          <tspan xml:space="preserve" fill="#0298c3">   </tspan> Perl
          
          <tspan xml:space="preserve" fill="#3572A5">   </tspan> Python
          
        </text>
      
        <text text-anchor="middle" y="430" x="320" id="legend">
          
          <tspan xml:space="preserve" fill="#701516">   </tspan> Ruby
          
          <tspan xml:space="preserve" fill="#dea584">   </tspan> Rust
          
          <tspan xml:space="preserve" fill="#26c0b0">   </tspan> SCSS
          
          <tspan xml:space="preserve" fill="#0141ae">   </tspan> SQL
          
          <tspan xml:space="preserve" fill="#89e051">   </tspan> Shell
          
          <tspan xml:space="preserve" fill="#2770da">   </tspan> TSQL
          
          <tspan xml:space="preserve" fill="#2b7489">   </tspan> TypeScript
          
          <tspan xml:space="preserve" fill="#2c3e50">   </tspan> Vue
          
        </text>
      
        <text text-anchor="middle" y="460" x="320" id="legend">
          
          <tspan xml:space="preserve" fill="#4B6C4B">   </tspan> Yacc
          
        </text>
      

    </svg>