<svg xmlns="http://www.w3.org/2000/svg" xmlns:xlink="http://www.w3.org/1999/xlink" width="336" height="24"><path fill="red" stroke="black" d="M1.68 19.90L1.68 3.09L10.13 3.09L10.13 4.97L3.64 4.97L3.64 10.27L9.26 10.27L9.26 12.09L3.64 12.09L3.64 19.90L1.68 19.90ZM15.59 11.82L13.66 11.82Q14.13 8.03 18.01 8.03L18.01 8.03Q21.91 8.03 21.91 12.21L21.91 12.21L21.91 17.94Q21.91 18.62 22.54 18.62L22.54 18.62Q22.75 18.62 23.11 18.54L23.11 18.54L23.11 20.23Q22.63 20.34 21.96 20.34L21.96 20.34Q20.38 20.34 20.17 18.57L20.17 18.57Q18.54 20.34 16.59 20.34L16.59 20.34Q15.32 20.34 14.50 19.68L14.50 19.68Q13.42 18.81 13.42 17.11L13.42 17.11Q13.42 13.16 20.19 12.69L20.19 12.69L20.19 12.21Q20.19 9.63 18.01 9.63L18.01 9.63Q15.76 9.63 15.59 11.82L15.59 11.82ZM20.19 15.79L20.19 14.20Q15.18 14.45 15.18 17.02L15.18 17.02Q15.18 18.74 16.88 18.74L16.88 18.74Q18.04 18.74 19.14 17.85L19.14 17.85Q20.19 17.02 20.19 15.79L20.19 15.79ZM28.95 5.25L28.95 3.09L31.05 3.09L31.05 5.25L28.95 5.25ZM29.06 19.90L29.06 8.50L30.94 8.50L30.94 19.90L29.06 19.90ZM42.94 3.09L42.94 17.27Q42.94 18.30 43.92 18.30L43.92 18.30Q44.73 18.30 45.69 18.12L45.69 18.12L45.69 19.91Q44.27 20.11 43.61 20.11L43.61 20.11Q41.06 20.11 41.06 17.61L41.06 17.61L41.06 3.09L42.94 3.09ZM56.68 16.36L58.56 16.36Q57.52 20.37 54.02 20.37L54.02 20.37Q51.86 20.37 50.59 18.56L50.59 18.56Q49.44 16.91 49.44 14.20L49.44 14.20Q49.44 11.61 50.52 9.96L50.52 9.96Q51.79 8.04 54 8.04L54 8.04Q58.32 8.04 58.61 14.57L58.61 14.57L51.25 14.57Q51.39 18.76 54.05 18.76L54.05 18.76Q56.16 18.76 56.68 16.36L56.68 16.36ZM51.32 13.03L56.68 13.03Q56.30 9.64 54 9.64L54 9.64Q51.79 9.64 51.32 13.03L51.32 13.03ZM68.44 9.79L68.44 3.09L70.22 3.09L70.22 19.90L68.92 19.90L68.46 18.41Q67.24 20.38 65.27 20.38L65.27 20.38Q63.46 20.38 62.34 18.62L62.34 18.62Q61.22 16.91 61.22 14.06L61.22 14.06Q61.22 11.73 62.06 10.13L62.06 10.13Q63.18 8.04 65.25 8.04L65.25 8.04Q66.97 8.04 68.44 9.79L68.44 9.79ZM65.68 9.74L65.68 9.74Q64.44 9.74 63.71 11.09L63.71 11.09Q63.09 12.30 63.09 14.09L63.09 14.09Q63.09 16.02 63.67 17.21L63.67 17.21Q64.35 18.68 65.68 18.68L65.68 18.68Q66.89 18.68 67.69 17.47L67.69 17.47Q68.51 16.27 68.51 14.09L68.51 14.09Q68.51 12.32 67.89 11.18L67.89 11.18Q67.13 9.74 65.68 9.74ZM90.02 8.04L90.02 8.04Q92.23 8.04 93.48 9.98L93.48 9.98Q94.56 11.60 94.56 14.20L94.56 14.20Q94.56 16.16 93.91 17.64L93.91 17.64Q92.72 20.38 89.98 20.38L89.98 20.38Q87.86 20.38 86.59 18.57L86.59 18.57Q85.44 16.92 85.44 14.20L85.44 14.20Q85.44 11.27 86.77 9.60L86.77 9.60Q88.03 8.04 90.02 8.04ZM89.98 9.71L89.98 9.71Q88.69 9.71 87.96 11.06L87.96 11.06Q87.32 12.25 87.32 14.20L87.32 14.20Q87.32 16.01 87.84 17.14L87.84 17.14Q88.57 18.70 90 18.70L90 18.70Q91.31 18.70 92.04 17.36L92.04 17.36Q92.68 16.17 92.68 14.23L92.68 14.23Q92.68 12.20 92.02 11.04L92.02 11.04Q91.30 9.71 89.98 9.71ZM97.76 8.50L99.18 8.50L99.45 9.96Q101.25 8.04 103.01 8.04L103.01 8.04Q104.96 8.04 105.87 9.76L105.87 9.76Q106.37 10.73 106.37 12.12L106.37 12.12L106.37 19.90L104.59 19.90L104.59 12.64Q104.59 9.74 102.73 9.74L102.73 9.74Q101.46 9.74 100.52 10.65L100.52 10.65Q99.54 11.64 99.54 12.91L99.54 12.91L99.54 19.90L97.76 19.90L97.76 8.50ZM121.85 3.94L121.85 1.01L124.88 1.01L124.88 2.64Q124.88 5.40 122.74 7.54L122.74 7.54L121.28 7.54Q122.99 5.89 123.18 3.94L123.18 3.94L121.85 3.94ZM126.66 3.94L126.66 1.01L129.68 1.01L129.68 2.64Q129.68 5.40 127.55 7.54L127.55 7.54L126.08 7.54Q127.79 5.89 127.98 3.94L127.98 3.94L126.66 3.94ZM140.61 16.08L142.56 16.08Q141.62 20.38 138.02 20.38L138.02 20.38Q135.86 20.38 134.59 18.57L134.59 18.57Q133.44 16.92 133.44 14.20L133.44 14.20Q133.44 11.61 134.52 9.96L134.52 9.96Q135.79 8.04 138 8.04L138 8.04Q141.43 8.04 142.37 11.93L142.37 11.93L140.45 11.93Q139.95 9.71 138.02 9.71L138.02 9.71Q136.80 9.71 136.09 10.84L136.09 10.84Q135.32 12.05 135.32 14.20L135.32 14.20Q135.32 15.98 135.84 17.12L135.84 17.12Q136.56 18.70 138.02 18.70L138.02 18.70Q140.16 18.70 140.61 16.08L140.61 16.08ZM150.02 8.04L150.02 8.04Q152.23 8.04 153.48 9.98L153.48 9.98Q154.56 11.60 154.56 14.20L154.56 14.20Q154.56 16.16 153.91 17.64L153.91 17.64Q152.72 20.38 149.98 20.38L149.98 20.38Q147.86 20.38 146.59 18.57L146.59 18.57Q145.44 16.92 145.44 14.20L145.44 14.20Q145.44 11.27 146.77 9.60L146.77 9.60Q148.03 8.04 150.02 8.04ZM149.98 9.71L149.98 9.71Q148.69 9.71 147.96 11.06L147.96 11.06Q147.32 12.25 147.32 14.20L147.32 14.20Q147.32 16.01 147.84 17.14L147.84 17.14Q148.57 18.70 150 18.70L150 18.70Q151.31 18.70 152.04 17.36L152.04 17.36Q152.68 16.17 152.68 14.23L152.68 14.23Q152.68 12.20 152.02 11.04L152.02 11.04Q151.30 9.71 149.98 9.71ZM164.44 9.79L164.44 3.09L166.22 3.09L166.22 19.90L164.92 19.90L164.46 18.41Q163.24 20.38 161.27 20.38L161.27 20.38Q159.46 20.38 158.34 18.62L158.34 18.62Q157.22 16.91 157.22 14.06L157.22 14.06Q157.22 11.73 158.06 10.13L158.06 10.13Q159.18 8.04 161.25 8.04L161.25 8.04Q162.97 8.04 164.44 9.79L164.44 9.79ZM161.68 9.74L161.68 9.74Q160.44 9.74 159.71 11.09L159.71 11.09Q159.09 12.30 159.09 14.09L159.09 14.09Q159.09 16.02 159.67 17.21L159.67 17.21Q160.35 18.68 161.68 18.68L161.68 18.68Q162.89 18.68 163.69 17.47L163.69 17.47Q164.51 16.27 164.51 14.09L164.51 14.09Q164.51 12.32 163.89 11.18L163.89 11.18Q163.13 9.74 161.68 9.74ZM176.68 16.36L178.56 16.36Q177.52 20.37 174.02 20.37L174.02 20.37Q171.86 20.37 170.59 18.56L170.59 18.56Q169.44 16.91 169.44 14.20L169.44 14.20Q169.44 11.61 170.52 9.96L170.52 9.96Q171.79 8.04 174 8.04L174 8.04Q178.32 8.04 178.61 14.57L178.61 14.57L171.25 14.57Q171.39 18.76 174.05 18.76L174.05 18.76Q176.16 18.76 176.68 16.36L176.68 16.36ZM171.32 13.03L176.68 13.03Q176.30 9.64 174 9.64L174 9.64Q171.79 9.64 171.32 13.03L171.32 13.03ZM183.50 8.50L185.33 8.50L185.33 10.90Q187.41 8.71 189.77 8.04L189.77 8.04L189.77 10.13Q187.05 10.78 185.33 13.08L185.33 13.08L185.33 19.90L183.50 19.90L183.50 8.50ZM193.44 16.36L195.34 16.36Q195.66 18.76 198.14 18.76L198.14 18.76Q200.64 18.76 200.64 17.00L200.64 17.00Q200.64 16.16 200.06 15.69L200.06 15.69Q199.45 15.19 197.88 14.64L197.88 14.64L197.54 14.51Q195.81 13.91 195.02 13.31L195.02 13.31Q193.90 12.43 193.90 11.19L193.90 11.19Q193.90 9.70 195.20 8.80L195.20 8.80Q196.32 8.03 197.93 8.03L197.93 8.03Q201.55 8.03 202.13 11.32L202.13 11.32L200.26 11.32Q199.97 9.56 197.91 9.56L197.91 9.56Q195.70 9.56 195.70 11.12L195.70 11.12Q195.70 12.14 198.66 13.18L198.66 13.18Q200.32 13.77 201.05 14.30L201.05 14.30Q202.46 15.30 202.46 16.96L202.46 16.96Q202.46 18.56 201.20 19.50L201.20 19.50Q200.00 20.37 198.09 20.37L198.09 20.37Q193.91 20.37 193.44 16.36L193.44 16.36ZM207.50 8.50L209.33 8.50L209.33 10.90Q211.41 8.71 213.77 8.04L213.77 8.04L213.77 10.13Q211.05 10.78 209.33 13.08L209.33 13.08L209.33 19.90L207.50 19.90L207.50 8.50ZM219.59 11.82L217.66 11.82Q218.13 8.03 222.01 8.03L222.01 8.03Q225.91 8.03 225.91 12.21L225.91 12.21L225.91 17.94Q225.91 18.62 226.54 18.62L226.54 18.62Q226.75 18.62 227.11 18.54L227.11 18.54L227.11 20.23Q226.63 20.34 225.96 20.34L225.96 20.34Q224.38 20.34 224.17 18.57L224.17 18.57Q222.54 20.34 220.59 20.34L220.59 20.34Q219.32 20.34 218.50 19.68L218.50 19.68Q217.42 18.81 217.42 17.11L217.42 17.11Q217.42 13.16 224.19 12.69L224.19 12.69L224.19 12.21Q224.19 9.63 222.01 9.63L222.01 9.63Q219.76 9.63 219.59 11.82L219.59 11.82ZM224.19 15.79L224.19 14.20Q219.18 14.45 219.18 17.02L219.18 17.02Q219.18 18.74 220.88 18.74L220.88 18.74Q222.04 18.74 223.14 17.85L223.14 17.85Q224.19 17.02 224.19 15.79L224.19 15.79ZM229.76 8.50L231.18 8.50L231.45 9.96Q233.25 8.04 235.01 8.04L235.01 8.04Q236.96 8.04 237.87 9.76L237.87 9.76Q238.37 10.73 238.37 12.12L238.37 12.12L238.37 19.90L236.59 19.90L236.59 12.64Q236.59 9.74 234.73 9.74L234.73 9.74Q233.46 9.74 232.52 10.65L232.52 10.65Q231.54 11.64 231.54 12.91L231.54 12.91L231.54 19.90L229.76 19.90L229.76 8.50ZM241.90 19.90L241.90 3.09L243.68 3.09L243.68 13.39L247.88 8.50L250.11 8.50L246.49 12.55L251.05 19.90L248.81 19.90L245.38 13.82L243.68 15.64L243.68 19.90L241.90 19.90ZM253.17 12.86L253.17 11.13L262.82 11.13L262.82 12.86L253.17 12.86ZM265.44 16.36L267.34 16.36Q267.66 18.76 270.14 18.76L270.14 18.76Q272.64 18.76 272.64 17.00L272.64 17.00Q272.64 16.16 272.06 15.69L272.06 15.69Q271.45 15.19 269.88 14.64L269.88 14.64L269.54 14.51Q267.81 13.91 267.02 13.31L267.02 13.31Q265.90 12.43 265.90 11.19L265.90 11.19Q265.90 9.70 267.20 8.80L267.20 8.80Q268.32 8.03 269.93 8.03L269.93 8.03Q273.55 8.03 274.13 11.32L274.13 11.32L272.26 11.32Q271.97 9.56 269.91 9.56L269.91 9.56Q267.70 9.56 267.70 11.12L267.70 11.12Q267.70 12.14 270.66 13.18L270.66 13.18Q272.32 13.77 273.05 14.30L273.05 14.30Q274.46 15.30 274.46 16.96L274.46 16.96Q274.46 18.56 273.20 19.50L273.20 19.50Q272.00 20.37 270.09 20.37L270.09 20.37Q265.91 20.37 265.44 16.36L265.44 16.36ZM280.66 8.50L280.66 5.40L282.49 5.40L282.49 8.50L285.32 8.50L285.32 10.22L282.49 10.22L282.49 17.48Q282.49 18.30 283.41 18.30L283.41 18.30Q284.52 18.30 285.48 18.12L285.48 18.12L285.48 19.91Q284.06 20.11 283.04 20.11L283.04 20.11Q280.66 20.11 280.66 17.73L280.66 17.73L280.66 10.22L278.40 10.22L278.40 8.50L280.66 8.50ZM291.59 11.82L289.66 11.82Q290.13 8.03 294.01 8.03L294.01 8.03Q297.91 8.03 297.91 12.21L297.91 12.21L297.91 17.94Q297.91 18.62 298.54 18.62L298.54 18.62Q298.75 18.62 299.11 18.54L299.11 18.54L299.11 20.23Q298.63 20.34 297.96 20.34L297.96 20.34Q296.38 20.34 296.17 18.57L296.17 18.57Q294.54 20.34 292.59 20.34L292.59 20.34Q291.32 20.34 290.50 19.68L290.50 19.68Q289.42 18.81 289.42 17.11L289.42 17.11Q289.42 13.16 296.19 12.69L296.19 12.69L296.19 12.21Q296.19 9.63 294.01 9.63L294.01 9.63Q291.76 9.63 291.59 11.82L291.59 11.82ZM296.19 15.79L296.19 14.20Q291.18 14.45 291.18 17.02L291.18 17.02Q291.18 18.74 292.88 18.74L292.88 18.74Q294.04 18.74 295.14 17.85L295.14 17.85Q296.19 17.02 296.19 15.79L296.19 15.79ZM304.66 8.50L304.66 5.40L306.49 5.40L306.49 8.50L309.32 8.50L309.32 10.22L306.49 10.22L306.49 17.48Q306.49 18.30 307.41 18.30L307.41 18.30Q308.52 18.30 309.48 18.12L309.48 18.12L309.48 19.91Q308.06 20.11 307.04 20.11L307.04 20.11Q304.66 20.11 304.66 17.73L304.66 17.73L304.66 10.22L302.40 10.22L302.40 8.50L304.66 8.50ZM313.44 16.36L315.34 16.36Q315.66 18.76 318.14 18.76L318.14 18.76Q320.64 18.76 320.64 17.00L320.64 17.00Q320.64 16.16 320.06 15.69L320.06 15.69Q319.45 15.19 317.88 14.64L317.88 14.64L317.54 14.51Q315.81 13.91 315.02 13.31L315.02 13.31Q313.90 12.43 313.90 11.19L313.90 11.19Q313.90 9.70 315.20 8.80L315.20 8.80Q316.32 8.03 317.93 8.03L317.93 8.03Q321.55 8.03 322.13 11.32L322.13 11.32L320.26 11.32Q319.97 9.56 317.91 9.56L317.91 9.56Q315.70 9.56 315.70 11.12L315.70 11.12Q315.70 12.14 318.66 13.18L318.66 13.18Q320.32 13.77 321.05 14.30L321.05 14.30Q322.46 15.30 322.46 16.96L322.46 16.96Q322.46 18.56 321.20 19.50L321.20 19.50Q320.00 20.37 318.09 20.37L318.09 20.37Q313.91 20.37 313.44 16.36L313.44 16.36ZM325.85 3.94L325.85 1.01L328.88 1.01L328.88 2.64Q328.88 5.40 326.74 7.54L326.74 7.54L325.28 7.54Q326.99 5.89 327.18 3.94L327.18 3.94L325.85 3.94ZM330.66 3.94L330.66 1.01L333.68 1.01L333.68 2.64Q333.68 5.40 331.55 7.54L331.55 7.54L330.08 7.54Q331.79 5.89 331.98 3.94L331.98 3.94L330.66 3.94Z"/></svg>