<svg
      xmlns="http://www.w3.org/2000/svg"
      viewBox="0 0 640 490"
      style="background-color: #292b3e"
    >
      <style>
        text {
          font-size: 12px;
          font-family: Open Sans, Helvetica Neue, Helvetica, Arial, sans-serif;
        }
        #labels text {
          dominant-baseline: hanging;
          font-size: 10px;
          fill: rgba(0,0,0,0.5);
        }
        #legend {
          font-weight: 600;
        }
        #legend tspan {
          font-size: 15px;
        }
        #branding-text {
          font-size: 9px;
          dominant-baseline: hanging;
          opacity: 0.5;
        }
        #branding-logo {
          opacity: 0.5;
        }
      </style>

      
      
      <polygon
        fill="#4B6C4B"
        fillRule="evenodd"
        points="0 313.613550760266 6.530612244897958 304.2691107874973 13.061224489795917 297.2680462793959 19.591836734693878 285.9388226909087 26.122448979591834 278.82800576409085 32.6530612244898 274.9842016287698 39.183673469387756 267.0907479075857 45.71428571428571 257.0788145853637 52.24489795918367 246.22214051211915 58.775510204081634 230.99231365160853 65.3061224489796 221.54625463314252 71.83673469387755 206.6281122644912 78.36734693877551 198.277295021815 84.89795918367348 192.17036757237364 91.42857142857142 182.12948747298248 97.9591836734694 170.6172779547711 104.48979591836734 156.95181675841016 111.0204081632653 154.80424824132373 117.55102040816327 149.88788943422992 124.08163265306122 142.52570309297926 130.6122448979592 138.28621473118187 137.14285714285714 123.78696678095136 143.6734693877551 127.17479825935715 150.20408163265307 110.77255313077893 156.73469387755102 93.05720299195312 163.26530612244898 88.0188645765914 169.79591836734696 78.10631288177586 176.32653061224488 68.78369542157219 182.85714285714283 65.97380057027277 189.3877551020408 62.13352022898175 195.9183673469388 59.18903423127762 202.44897959183675 46.68390081829307 208.97959183673467 33.294039986188636 215.51020408163265 31.646473964889253 222.0408163265306 27.414582297227128 228.57142857142858 27.528943341705826 235.10204081632654 25.25116670458351 241.63265306122446 13.936121307096812 248.16326530612244 9.64313873387573 254.69387755102042 9.88388719051568 261.2244897959184 12.937833567320354 267.7551020408163 8.247031381172917 274.2857142857143 10.710217608957521 280.81632653061223 10.158945496841568 287.3469387755102 11.455612436088757 293.8775510204082 14.19575851729553 300.40816326530614 17.693126391475005 306.9387755102041 18.067926045052104 313.46938775510205 12.038750815468973 320 13.322645908645484 326.53061224489795 11.292770210621825 333.0612244897959 7.02960360508132 339.5918367346939 1.9717459902625478 346.12244897959187 4.695597435559989 352.65306122448976 0.06651811491536819 359.1836734693877 0 365.71428571428567 3.134078770034648 372.2448979591837 11.121720140846946 378.7755102040816 13.49982324789488 385.3061224489796 18.048012337957402 391.8367346938776 21.314666186514387 398.36734693877554 21.568544330975897 404.8979591836735 27.066539459389617 411.42857142857144 30.680849715964882 417.95918367346934 36.74799394622829 424.48979591836735 42.80366585836708 431.0204081632653 46.960292644340655 437.55102040816325 38.5148024402269 444.0816326530612 42.63113091368473 450.61224489795916 50.61549462302389 457.14285714285717 58.06900142037324 463.6734693877551 55.54207647056336 470.2040816326531 58.407819098202594 476.7346938775511 64.8493185652741 483.2653061224489 68.96519263090954 489.7959183673469 76.40571010983098 496.3265306122449 74.3195048210147 502.85714285714283 74.99064731283866 509.38775510204084 75.05191554621223 515.9183673469388 74.49036414063428 522.4489795918367 78.43684452984581 528.9795918367347 85.33616717827798 535.5102040816327 88.56514445365787 542.0408163265306 82.02538853479285 548.5714285714286 83.08750207242394 555.1020408163265 90.29396721284792 561.6326530612245 89.48590422373809 568.1632653061224 88.46147198010414 574.6938775510204 89.43515664788637 581.2244897959183 87.51997881167298 587.7551020408164 88.00647568435551 594.2857142857143 88.2170579998143 600.8163265306123 90.76513416399476 607.3469387755102 86.66769117145651 613.8775510204082 71.26739197168865 620.4081632653061 70.87681601981973 626.9387755102041 73.10658302058795 633.469387755102 72.479447177418 640 72.61085539379104 640 320 0 320"
      />
      
      <polygon
        fill="#2c3e50"
        fillRule="evenodd"
        points="0 313.613550760266 6.530612244897958 304.2691107874973 13.061224489795917 297.2680462793959 19.591836734693878 285.9388226909087 26.122448979591834 278.82800576409085 32.6530612244898 274.9842016287698 39.183673469387756 267.0907479075857 45.71428571428571 257.0788145853637 52.24489795918367 246.22214051211915 58.775510204081634 230.99231365160853 65.3061224489796 221.54625463314252 71.83673469387755 206.6281122644912 78.36734693877551 198.277295021815 84.89795918367348 192.17036757237364 91.42857142857142 182.12948747298248 97.9591836734694 170.6172779547711 104.48979591836734 156.95181675841016 111.0204081632653 154.80424824132373 117.55102040816327 149.88788943422992 124.08163265306122 142.52570309297926 130.6122448979592 138.28621473118187 137.14285714285714 123.78696678095136 143.6734693877551 127.17479825935715 150.20408163265307 110.77255313077893 156.73469387755102 93.05720299195312 163.26530612244898 88.0188645765914 169.79591836734696 78.10631288177586 176.32653061224488 68.78369542157219 182.85714285714283 65.97380057027277 189.3877551020408 62.13352022898175 195.9183673469388 59.18903423127762 202.44897959183675 46.68390081829307 208.97959183673467 33.294039986188636 215.51020408163265 31.646473964889253 222.0408163265306 27.414582297227128 228.57142857142858 27.528943341705826 235.10204081632654 25.25116670458351 241.63265306122446 13.936121307096812 248.16326530612244 9.64313873387573 254.69387755102042 9.88388719051568 261.2244897959184 12.937833567320354 267.7551020408163 8.247031381172917 274.2857142857143 10.710217608957521 280.81632653061223 10.158945496841568 287.3469387755102 11.455612436088757 293.8775510204082 14.19575851729553 300.40816326530614 17.693126391475005 306.9387755102041 18.067926045052104 313.46938775510205 12.038750815468973 320 13.322645908645484 326.53061224489795 11.292770210621825 333.0612244897959 7.02960360508132 339.5918367346939 1.9717459902625478 346.12244897959187 4.695597435559989 352.65306122448976 0.06651811491536819 359.1836734693877 0 365.71428571428567 3.134078770034648 372.2448979591837 11.121720140846946 378.7755102040816 13.49982324789488 385.3061224489796 18.048012337957402 391.8367346938776 21.314666186514387 398.36734693877554 21.568544330975897 404.8979591836735 27.066539459389617 411.42857142857144 30.680849715964882 417.95918367346934 36.74799394622829 424.48979591836735 42.80366585836708 431.0204081632653 46.960292644340655 437.55102040816325 38.5148024402269 444.0816326530612 42.63113091368473 450.61224489795916 50.61549462302389 457.14285714285717 58.06900142037324 463.6734693877551 56.64266351900187 470.2040816326531 59.47481140299294 476.7346938775511 65.88374148479375 483.2653061224489 69.96904375932786 489.7959183673469 77.37891926779412 496.3265306122449 75.26395123283024 502.85714285714283 75.90626511472067 509.38775510204084 75.93958460024967 515.9183673469388 75.3535231324129 522.4489795918367 79.27365615771745 528.9795918367347 86.14824729360762 535.5102040816327 89.35243627590245 542.0408163265306 82.78941235631447 548.5714285714286 83.82820453430833 555.1020408163265 91.01206016801649 561.6326530612245 90.18277431552582 568.1632653061224 89.13707050424503 574.6938775510204 90.09078820054984 581.2244897959183 88.15559759646374 587.7551020408164 88.62269258018176 594.2857142857143 88.81626011167197 600.8163265306123 91.34604601552226 607.3469387755102 87.23143446094667 613.8775510204082 71.8139273555476 620.4081632653061 71.40719879824587 626.9387755102041 73.62077618244916 633.469387755102 72.97794489633696 640 73.10445196337182 640 320 0 320"
      />
      
      <polygon
        fill="#2b7489"
        fillRule="evenodd"
        points="0 313.613550760266 6.530612244897958 304.2691107874973 13.061224489795917 297.2680462793959 19.591836734693878 285.9388226909087 26.122448979591834 278.82800576409085 32.6530612244898 274.9842016287698 39.183673469387756 267.0907479075857 45.71428571428571 257.0788145853637 52.24489795918367 246.22214051211915 58.775510204081634 230.99231365160853 65.3061224489796 221.54625463314252 71.83673469387755 206.6281122644912 78.36734693877551 198.277295021815 84.89795918367348 192.17036757237364 91.42857142857142 182.12948747298248 97.9591836734694 170.6172779547711 104.48979591836734 156.95181675841016 111.0204081632653 154.80424824132373 117.55102040816327 149.88788943422992 124.08163265306122 142.52570309297926 130.6122448979592 138.28621473118187 137.14285714285714 123.78696678095136 143.6734693877551 127.17479825935715 150.20408163265307 110.77255313077893 156.73469387755102 93.05720299195312 163.26530612244898 88.0188645765914 169.79591836734696 78.10631288177586 176.32653061224488 68.78369542157219 182.85714285714283 65.97380057027277 189.3877551020408 62.13352022898175 195.9183673469388 59.18903423127762 202.44897959183675 46.68390081829307 208.97959183673467 33.294039986188636 215.51020408163265 31.646473964889253 222.0408163265306 27.414582297227128 228.57142857142858 27.528943341705826 235.10204081632654 25.25116670458351 241.63265306122446 13.936121307096812 248.16326530612244 9.64313873387573 254.69387755102042 9.88388719051568 261.2244897959184 12.937833567320354 267.7551020408163 8.247031381172917 274.2857142857143 10.710217608957521 280.81632653061223 10.158945496841568 287.3469387755102 11.455612436088757 293.8775510204082 14.19575851729553 300.40816326530614 17.693126391475005 306.9387755102041 18.067926045052104 313.46938775510205 12.038750815468973 320 13.322645908645484 326.53061224489795 11.292770210621825 333.0612244897959 7.02960360508132 339.5918367346939 1.9717459902625478 346.12244897959187 4.695597435559989 352.65306122448976 0.06651811491536819 359.1836734693877 0 365.71428571428567 3.134078770034648 372.2448979591837 11.121720140846946 378.7755102040816 13.49982324789488 385.3061224489796 18.048012337957402 391.8367346938776 21.314666186514387 398.36734693877554 21.568544330975897 404.8979591836735 27.066539459389617 411.42857142857144 30.680849715964882 417.95918367346934 36.74799394622829 424.48979591836735 42.80366585836708 431.0204081632653 46.960292644340655 437.55102040816325 38.5148024402269 444.0816326530612 42.63113091368473 450.61224489795916 50.61549462302389 457.14285714285717 58.06900142037324 463.6734693877551 56.64266351900187 470.2040816326531 59.47481140299294 476.7346938775511 65.88374148479375 483.2653061224489 69.96904375932786 489.7959183673469 77.37891926779412 496.3265306122449 75.26395123283024 502.85714285714283 75.90626511472067 509.38775510204084 75.93958460024967 515.9183673469388 75.3535231324129 522.4489795918367 79.27365615771745 528.9795918367347 86.14824729360762 535.5102040816327 89.35243627590245 542.0408163265306 84.99951710990803 548.5714285714286 87.4974752272827 555.1020408163265 94.56932831134807 561.6326530612245 96.00364062857733 568.1632653061224 96.87076850695232 574.6938775510204 100.59165504193635 581.2244897959183 100.44770808509696 587.7551020408164 101.4760104073182 594.2857142857143 102.08130674722423 600.8163265306123 104.23702025494117 607.3469387755102 99.74142317549843 613.8775510204082 84.61166786103081 620.4081632653061 84.30009757543507 626.9387755102041 86.12011880205273 633.469387755102 85.09575535247546 640 85.10312233160414 640 320 0 320"
      />
      
      <polygon
        fill="#2770da"
        fillRule="evenodd"
        points="0 313.613550760266 6.530612244897958 304.2691107874973 13.061224489795917 297.2680462793959 19.591836734693878 285.9388226909087 26.122448979591834 278.82800576409085 32.6530612244898 274.9842016287698 39.183673469387756 267.0907479075857 45.71428571428571 257.0788145853637 52.24489795918367 246.22214051211915 58.775510204081634 230.99231365160853 65.3061224489796 221.54625463314252 71.83673469387755 206.6281122644912 78.36734693877551 198.277295021815 84.89795918367348 192.17036757237364 91.42857142857142 182.12948747298248 97.9591836734694 170.6172779547711 104.48979591836734 156.95181675841016 111.0204081632653 154.80424824132373 117.55102040816327 149.88788943422992 124.08163265306122 142.52570309297926 130.6122448979592 138.28621473118187 137.14285714285714 123.78696678095136 143.6734693877551 127.17479825935715 150.20408163265307 110.77255313077893 156.73469387755102 93.05720299195312 163.26530612244898 88.0188645765914 169.79591836734696 78.10631288177586 176.32653061224488 68.78369542157219 182.85714285714283 65.97380057027277 189.3877551020408 62.13352022898175 195.9183673469388 59.18903423127762 202.44897959183675 46.68390081829307 208.97959183673467 33.294039986188636 215.51020408163265 31.646473964889253 222.0408163265306 27.414582297227128 228.57142857142858 27.528943341705826 235.10204081632654 25.25116670458351 241.63265306122446 14.574330357378813 248.16326530612244 11.080149164281465 254.69387755102042 11.277033675253165 261.2244897959184 14.289806349203332 267.7551020408163 9.557735928714521 274.2857142857143 11.980913554220024 280.81632653061223 11.394555567002499 287.3469387755102 12.653506189775044 293.8775510204082 15.358249201641229 300.40816326530614 18.82013272995175 306.9387755102041 19.1616243168898 313.46938775510205 13.099064573465114 320 14.350594243328999 326.53061224489795 12.29033797496163 333.0612244897959 7.996721236233327 339.5918367346939 2.9102808960983566 346.12244897959187 5.605484163300275 352.65306122448976 0.9486310808133567 359.1836734693877 0.8577563118020635 365.71428571428567 3.9656525315219824 372.2448979591837 11.928717257028097 378.7755102040816 14.282187205381092 385.3061224489796 18.807253996512372 391.8367346938776 22.050732372176697 398.36734693877554 22.282142560548834 404.8979591836735 27.759047703971703 411.42857142857144 31.352219528169087 417.95918367346934 37.39952176374578 424.48979591836735 43.435306193057386 431.0204081632653 47.57265251165131 437.55102040816325 40.23034414253834 444.0816326530612 44.29430648785052 450.61224489795916 52.22951608456458 457.14285714285717 59.63375574251097 463.6734693877551 58.161172215760814 470.2040816326531 60.94696853745694 476.7346938775511 67.31096184396537 483.2653061224489 71.35408344980681 489.7959183673469 78.72168149755805 496.3265306122449 76.56702883616072 502.85714285714283 77.16956695093418 509.38775510204084 77.16432488519416 515.9183673469388 76.54444631921191 522.4489795918367 80.42822715849763 528.9795918367347 87.26869551018436 535.5102040816327 90.43868341154422 542.0408163265306 86.0536609416099 548.5714285714286 88.5194418766327 555.1020408163265 95.56009987829324 561.6326530612245 96.96513055371338 568.1632653061224 97.80290959072232 574.6938775510204 101.49624718440026 581.2244897959183 101.32468799125914 587.7551020408164 102.32622100006168 594.2857142857143 102.90804172960432 600.8163265306123 105.03851954314922 607.3469387755102 100.51923455822899 613.8775510204082 85.37683417777231 620.4081632653061 85.30633223309295 626.9387755102041 87.09563853560797 633.469387755102 86.04149813005603 640 86.03956665305805 640 320 0 320"
      />
      
      <polygon
        fill="#89e051"
        fillRule="evenodd"
        points="0 313.613550760266 6.530612244897958 304.90984047877544 13.061224489795917 298.33447673834917 19.591836734693878 288.07682231988997 26.122448979591834 281.2713503157189 32.6530612244898 277.35296474183656 39.183673469387756 269.99994414015634 45.71428571428571 260.0717319099995 52.24489795918367 250.17318953082082 58.775510204081634 235.18158602447895 65.3061224489796 226.7874732889005 71.83673469387755 213.32789268012704 78.36734693877551 205.81366265579277 84.89795918367348 200.42205640584916 91.42857142857142 190.4508363536127 97.9591836734694 178.68462175775824 104.48979591836734 164.7807362250674 111.0204081632653 162.39419365050466 117.55102040816327 158.35635129724074 124.08163265306122 150.82950302508917 130.6122448979592 146.47032136068424 137.14285714285714 132.58702670728397 143.6734693877551 135.70623977319943 150.20408163265307 119.05185399505288 156.73469387755102 102.4343678840863 163.26530612244898 97.17056776252858 169.79591836734696 87.08400826081461 176.32653061224488 77.51841199889569 182.85714285714283 74.59632717900561 189.3877551020408 71.292777302731 195.9183673469388 68.12737122026425 202.44897959183675 55.43676641357513 208.97959183673467 42.60290433780028 215.51020408163265 40.816364186882936 222.0408163265306 36.30456632793965 228.57142857142858 36.65732437681834 235.10204081632654 34.26577046413934 241.63265306122446 23.330606278800474 248.16326530612244 19.768573055986053 254.69387755102042 20.33187496768886 261.2244897959184 23.771622734857488 267.7551020408163 19.35799806807313 274.2857142857143 21.657239776740767 280.81632653061223 22.19758922354862 287.3469387755102 24.03342482091159 293.8775510204082 26.40183980431027 300.40816326530614 29.52662405052257 306.9387755102041 29.79476485500578 313.46938775510205 23.46945433013036 320 24.701092314625953 326.53061224489795 22.40428846819742 333.0612244897959 17.801951416232214 339.5918367346939 12.431368949440753 346.12244897959187 14.83594892904648 352.65306122448976 10.202197081409565 359.1836734693877 9.855813978611025 365.71428571428567 12.717210098730618 372.2448979591837 20.455498471320425 378.7755102040816 22.802309087431468 385.3061224489796 27.111402873110706 391.8367346938776 30.808698557683897 398.36734693877554 30.77277883883204 404.8979591836735 35.998748609143945 411.42857142857144 39.34040513010888 417.95918367346934 45.23247269006214 424.48979591836735 51.0291623287485 431.0204081632653 55.069498791513695 437.55102040816325 47.537734937532036 444.0816326530612 51.37864510204673 450.61224489795916 59.10447814156163 457.14285714285717 66.2988661188358 463.6734693877551 64.91772084428092 470.2040816326531 67.49727586884114 476.7346938775511 73.66132716879261 483.2653061224489 78.63275670936403 489.7959183673469 85.77817956136144 496.3265306122449 83.4149750272361 502.85714285714283 83.84692696392858 509.38775510204084 83.63785959980291 515.9183673469388 82.83923668567311 522.4489795918367 87.04905836987336 528.9795918367347 93.69385425015696 535.5102040816327 96.66771675098971 542.0408163265306 92.09859986175877 548.5714285714286 94.37986149955219 555.1020408163265 101.24163438335106 561.6326530612245 102.47875247774215 568.1632653061224 103.14822899133878 574.6938775510204 106.68358813298755 581.2244897959183 106.35368746635746 587.7551020408164 107.2017132597071 594.2857142857143 107.64891426762063 600.8163265306123 109.6346794792895 607.3469387755102 105.64596931556599 613.8775510204082 90.34707832648189 620.4081632653061 90.12968184935778 626.9387755102041 91.77175977942736 633.469387755102 90.5748816580616 640 90.52837971528277 640 320 0 320"
      />
      
      <polygon
        fill="#0141ae"
        fillRule="evenodd"
        points="0 313.6957888927138 6.530612244897958 304.9895683450578 13.061224489795917 298.4118482840199 19.591836734693878 288.1545947253031 26.122448979591834 281.34682420035955 32.6530612244898 277.4261348252992 39.183673469387756 270.0708807528396 45.71428571428571 260.16866264297386 52.24489795918367 250.62554481780913 58.775510204081634 236.59143221562937 65.3061224489796 228.16531132410756 71.83673469387755 215.5629298051218 78.36734693877551 209.34787467223384 84.89795918367348 203.848388781245 91.42857142857142 193.80951408514602 97.9591836734694 182.1668812213086 104.48979591836734 169.2000469638682 111.0204081632653 166.68971160546886 117.55102040816327 162.5207506891441 124.08163265306122 154.87486970452517 130.6122448979592 151.50327965004917 137.14285714285714 138.33057335395569 143.6734693877551 141.2744680161089 150.20408163265307 124.4555160715677 156.73469387755102 107.9820002848021 163.26530612244898 102.61889237027225 169.79591836734696 92.52509956578862 176.32653061224488 83.01577039712203 182.85714285714283 79.9312140025323 189.3877551020408 76.4648199741979 195.9183673469388 73.61536832975065 202.44897959183675 61.01127637653718 208.97959183673467 50.211090213878094 215.51020408163265 49.30680318206322 222.0408163265306 44.535838415288424 228.57142857142858 46.726482358030864 235.10204081632654 45.535870839488894 241.63265306122446 38.06173660629008 248.16326530612244 34.37983643063677 254.69387755102042 35.18786494904538 261.2244897959184 40.459092457817974 267.7551020408163 36.76707184085183 274.2857142857143 38.5349089062708 280.81632653061223 38.68997472810844 287.3469387755102 40.02238905736186 293.8775510204082 41.960343612722625 300.40816326530614 45.107529766285495 306.9387755102041 44.917963496679306 313.46938775510205 38.1421991342977 320 38.92596029181988 326.53061224489795 36.36869034612539 333.0612244897959 33.69988388588075 339.5918367346939 28.417222894470513 346.12244897959187 30.372837907487963 352.65306122448976 26.293776274349 359.1836734693877 25.536692906812164 365.71428571428567 28.083750255324333 372.2448979591837 35.367893952356326 378.7755102040816 37.58874444479153 385.3061224489796 41.460833552000906 391.8367346938776 45.37438953554488 398.36734693877554 45.021898252467054 404.8979591836735 49.82674771664796 411.42857142857144 53.20059426391674 417.95918367346934 58.85801617822358 424.48979591836735 64.62538358821249 431.0204081632653 68.63066017203505 437.55102040816325 63.2183991148554 444.0816326530612 66.93871690012139 450.61224489795916 74.20467583396248 457.14285714285717 80.93814163907831 463.6734693877551 80.26626405530803 470.2040816326531 82.74322159115377 476.7346938775511 88.4418933538388 483.2653061224489 93.40762737232768 489.7959183673469 100.10205488580186 496.3265306122449 98.34487938366198 502.85714285714283 99.94029095244036 509.38775510204084 99.86314536075884 515.9183673469388 98.67428516624477 522.4489795918367 102.40075297296744 528.9795918367347 108.59183676199706 535.5102040816327 111.11094116012356 542.0408163265306 106.1149622044519 548.5714285714286 107.96838666296742 555.1020408163265 114.41537285025407 561.6326530612245 115.26315541244406 568.1632653061224 115.68608805425197 574.6938775510204 118.85090226274937 581.2244897959183 118.14960587958623 587.7551020408164 118.63756843214685 594.2857142857143 118.79924324913443 600.8163265306123 120.44465606253817 607.3469387755102 116.14474927162874 613.8775510204082 101.00077586668064 620.4081632653061 100.5555338458662 626.9387755102041 102.30515367241875 633.469387755102 102.37752413705053 640 102.62578061790771 640 320 0 320"
      />
      
      <polygon
        fill="#26c0b0"
        fillRule="evenodd"
        points="0 313.6957888927138 6.530612244897958 305.0750694691304 13.061224489795917 298.5224213840045 19.591836734693878 288.3920348861034 26.122448979591834 281.7296734340403 32.6530612244898 277.8556633681049 39.183673469387756 270.54540946868485 45.71428571428571 260.8000688581068 52.24489795918367 251.7275435707017 58.775510204081634 237.7909168725883 65.3061224489796 230.205468089908 71.83673469387755 218.21682156311164 78.36734693877551 212.4285111543188 84.89795918367348 207.4760684970517 91.42857142857142 198.30978785713165 97.9591836734694 186.5297872824431 104.48979591836734 173.8063554716313 111.0204081632653 171.15541397969494 117.55102040816327 166.87824225386615 124.08163265306122 159.35257798858737 130.6122448979592 156.0489235008924 137.14285714285714 143.12370433642388 143.6734693877551 145.92411705280765 150.20408163265307 128.9677460216072 156.73469387755102 112.624182361556 163.26530612244898 107.34718266463756 169.79591836734696 97.39183327767438 176.32653061224488 88.07439747872095 182.85714285714283 84.90350260014819 189.3877551020408 81.4789241640143 195.9183673469388 78.54006361179057 202.44897959183675 65.83898235307149 208.97959183673467 55.25787948728498 215.51020408163265 54.27461437800582 222.0408163265306 49.445806308187116 228.57142857142858 52.03144729442829 235.10204081632654 50.7568742450394 241.63265306122446 43.287554336063124 248.16326530612244 39.62425734051169 254.69387755102042 40.272205725334686 261.2244897959184 46.01534931543438 267.7551020408163 42.22624537523393 274.2857142857143 45.29490279648002 280.81632653061223 46.226178473258415 287.3469387755102 47.3423089734211 293.8775510204082 49.122449787593325 300.40816326530614 52.19643363478667 306.9387755102041 51.847998981403975 313.46938775510205 44.899126916281375 320 45.54041371038187 326.53061224489795 42.902079212905846 333.0612244897959 40.52993177294093 339.5918367346939 35.111631455614656 346.12244897959187 37.186713717684086 352.65306122448976 32.91341310093878 359.1836734693877 31.97354878801434 365.71428571428567 34.32975970303016 372.2448979591837 41.45125098251805 378.7755102040816 43.65068218130784 385.3061224489796 47.7223871614446 391.8367346938776 51.450385439926436 398.36734693877554 51.04926921504659 404.8979591836735 55.67598179863455 411.42857142857144 59.07760190224241 417.95918367346934 64.64970483410153 424.48979591836735 70.2402860334916 431.0204081632653 74.11914257740449 437.55102040816325 68.67688904273533 444.0816326530612 72.31796642566107 450.61224489795916 79.43584384038783 457.14285714285717 86.08172827797176 463.6734693877551 85.88887050851037 470.2040816326531 88.95213801368843 476.7346938775511 94.47244673947347 483.2653061224489 100.0081877448716 489.7959183673469 106.5886390556602 496.3265306122449 104.63975678074206 502.85714285714283 106.09849554784921 509.38775510204084 105.8333743000747 515.9183673469388 104.4962571894375 522.4489795918367 108.04501371276129 528.9795918367347 114.08037989357166 535.5102040816327 116.43194798708743 542.0408163265306 111.27871148472539 548.5714285714286 112.97451373106486 555.1020408163265 119.26868987261417 561.6326530612245 119.97303744652328 568.1632653061224 120.25220280132368 574.6938775510204 123.28206848302028 581.2244897959183 122.68868544343246 587.7551020408164 123.03809576451107 594.2857142857143 123.07826299360497 600.8163265306123 124.5958853687946 607.3469387755102 120.75486647354722 613.8775510204082 105.47017246976174 620.4081632653061 104.89284016385267 626.9387755102041 106.51006422475578 633.469387755102 106.45408384385902 640 106.66225825503153 640 320 0 320"
      />
      
      <polygon
        fill="#dea584"
        fillRule="evenodd"
        points="0 313.6957888927138 6.530612244897958 305.0750694691304 13.061224489795917 298.5224213840045 19.591836734693878 288.3920348861034 26.122448979591834 281.7296734340403 32.6530612244898 277.8556633681049 39.183673469387756 270.54540946868485 45.71428571428571 260.8000688581068 52.24489795918367 251.7275435707017 58.775510204081634 237.7909168725883 65.3061224489796 230.205468089908 71.83673469387755 218.6052160754618 78.36734693877551 212.80505015437342 84.89795918367348 207.8411138760028 91.42857142857142 198.6640445013411 97.9591836734694 187.99622926926585 104.48979591836734 176.3318089424673 111.0204081632653 173.6037794890456 117.55102040816327 169.25187281374102 124.08163265306122 162.75992073505302 130.6122448979592 159.35225910922185 137.14285714285714 148.55740235436187 143.6734693877551 151.19195454224246 150.20408163265307 136.32714249207712 156.73469387755102 123.07428014316653 163.26530612244898 117.47829822635578 169.79591836734696 107.22352970520018 176.32653061224488 98.72216933321698 182.85714285714283 95.23658324499351 189.3877551020408 91.4965928993733 195.9183673469388 88.25194846959863 202.44897959183675 76.3815314150608 208.97959183673467 66.5827315750521 215.51020408163265 65.2647664339116 222.0408163265306 60.10048769511042 228.57142857142858 62.37123710604942 235.10204081632654 60.78104962373874 241.63265306122446 53.00574567706337 248.16326530612244 49.05523222650049 254.69387755102042 49.415305929459066 261.2244897959184 54.888230339640586 267.7551020408163 51.93124546375424 274.2857142857143 54.70366442708553 280.81632653061223 55.37515052123865 287.3469387755102 56.212011890140104 293.8775510204082 57.730012678467915 300.40816326530614 60.541258177156124 306.9387755102041 61.06422607221157 313.46938775510205 54.08985105596332 320 54.45059655104325 326.53061224489795 51.548925690656176 333.0612244897959 48.912838119283606 339.5918367346939 43.24678516015632 346.12244897959187 45.073545536471215 352.65306122448976 41.66877391646716 359.1836734693877 40.487157245117714 365.71428571428567 42.58349596520884 372.2448979591837 49.461050797919086 378.7755102040816 51.4778605218296 385.3061224489796 55.3182366784888 391.8367346938776 58.814376448912014 398.36734693877554 58.188478219776925 404.8979591836735 62.60419652472126 411.42857142857144 65.79433530702494 417.95918367346934 71.16792900086253 424.48979591836735 76.55954495055869 431.0204081632653 80.24551009831089 437.55102040816325 74.62814407411821 444.0816326530612 78.08756153178845 450.61224489795916 85.03492376980103 457.14285714285717 91.50989764245173 463.6734693877551 91.15661274719702 470.2040816326531 94.0590865088154 476.7346938775511 99.42350870272418 483.2653061224489 104.81292421412786 489.7959183673469 111.24671341662747 496.3265306122449 109.16016411540033 502.85714285714283 110.48092030598539 509.38775510204084 110.08202724291806 515.9183673469388 108.62759820112899 522.4489795918367 112.05024735771102 528.9795918367347 117.967241724449 535.5102040816327 120.20016550660637 542.0408163265306 116.05392741466503 548.5714285714286 117.6039689926439 555.1020408163265 123.7568335080598 561.6326530612245 124.68671101523796 568.1632653061224 124.82199461773047 574.6938775510204 127.71680316416806 581.2244897959183 126.98805144642108 587.7551020408164 127.20622709511261 594.2857142857143 127.15626358632659 600.8163265306123 128.5494073106418 607.3469387755102 124.5915432848347 613.8775510204082 109.18973751004557 620.4081632653061 108.50247597660413 626.9387755102041 110.00951752724109 633.469387755102 109.84671882674218 640 110.02153811103543 640 320 0 320"
      />
      
      <polygon
        fill="#701516"
        fillRule="evenodd"
        points="0 313.6957888927138 6.530612244897958 305.0750694691304 13.061224489795917 298.5224213840045 19.591836734693878 288.3920348861034 26.122448979591834 281.7296734340403 32.6530612244898 277.8556633681049 39.183673469387756 270.54540946868485 45.71428571428571 260.8000688581068 52.24489795918367 251.7275435707017 58.775510204081634 237.7909168725883 65.3061224489796 230.205468089908 71.83673469387755 218.6052160754618 78.36734693877551 212.80505015437342 84.89795918367348 207.8411138760028 91.42857142857142 198.6640445013411 97.9591836734694 187.99622926926585 104.48979591836734 176.3318089424673 111.0204081632653 173.6037794890456 117.55102040816327 169.25187281374102 124.08163265306122 162.75992073505302 130.6122448979592 159.35225910922185 137.14285714285714 148.55740235436187 143.6734693877551 151.19195454224246 150.20408163265307 136.32714249207712 156.73469387755102 123.07428014316653 163.26530612244898 117.47829822635578 169.79591836734696 107.22352970520018 176.32653061224488 98.72216933321698 182.85714285714283 95.23658324499351 189.3877551020408 91.4965928993733 195.9183673469388 88.25194846959863 202.44897959183675 76.3815314150608 208.97959183673467 66.5827315750521 215.51020408163265 65.2647664339116 222.0408163265306 60.10048769511042 228.57142857142858 62.37123710604942 235.10204081632654 60.78104962373874 241.63265306122446 53.00574567706337 248.16326530612244 49.05523222650049 254.69387755102042 49.415305929459066 261.2244897959184 54.888230339640586 267.7551020408163 51.93124546375424 274.2857142857143 54.70366442708553 280.81632653061223 55.37515052123865 287.3469387755102 56.212011890140104 293.8775510204082 57.730012678467915 300.40816326530614 60.541258177156124 306.9387755102041 61.06422607221157 313.46938775510205 54.08985105596332 320 54.45059655104325 326.53061224489795 51.548925690656176 333.0612244897959 48.912838119283606 339.5918367346939 43.24678516015632 346.12244897959187 45.073545536471215 352.65306122448976 41.66877391646716 359.1836734693877 40.487157245117714 365.71428571428567 42.58349596520884 372.2448979591837 49.461050797919086 378.7755102040816 51.4778605218296 385.3061224489796 55.3182366784888 391.8367346938776 58.814376448912014 398.36734693877554 58.188478219776925 404.8979591836735 62.60419652472126 411.42857142857144 65.79433530702494 417.95918367346934 71.16792900086253 424.48979591836735 76.55954495055869 431.0204081632653 80.24551009831089 437.55102040816325 74.62814407411821 444.0816326530612 78.08756153178845 450.61224489795916 85.03492376980103 457.14285714285717 91.50989764245173 463.6734693877551 91.15661274719702 470.2040816326531 94.0590865088154 476.7346938775511 99.42350870272418 483.2653061224489 104.81292421412786 489.7959183673469 111.24671341662747 496.3265306122449 109.16016411540033 502.85714285714283 110.48092030598539 509.38775510204084 110.08202724291806 515.9183673469388 108.62759820112899 522.4489795918367 112.05024735771102 528.9795918367347 117.967241724449 535.5102040816327 120.20016550660637 542.0408163265306 116.05392741466503 548.5714285714286 117.6039689926439 555.1020408163265 123.7568335080598 561.6326530612245 124.68671101523796 568.1632653061224 124.82199461773047 574.6938775510204 127.71680316416806 581.2244897959183 126.98805144642108 587.7551020408164 127.20622709511261 594.2857142857143 127.15626358632659 600.8163265306123 128.5494073106418 607.3469387755102 124.5915432848347 613.8775510204082 109.20929374426763 620.4081632653061 108.521454236068 626.9387755102041 110.02791648747836 633.469387755102 109.86455616822352 640 110.03920007811337 640 320 0 320"
      />
      
      <polygon
        fill="#3572A5"
        fillRule="evenodd"
        points="0 313.6957888927138 6.530612244897958 305.0750694691304 13.061224489795917 298.5224213840045 19.591836734693878 288.3920348861034 26.122448979591834 281.7296734340403 32.6530612244898 277.8556633681049 39.183673469387756 270.54540946868485 45.71428571428571 260.8000688581068 52.24489795918367 251.7275435707017 58.775510204081634 237.7909168725883 65.3061224489796 230.205468089908 71.83673469387755 218.6052160754618 78.36734693877551 212.80505015437342 84.89795918367348 207.8411138760028 91.42857142857142 198.6640445013411 97.9591836734694 187.99622926926585 104.48979591836734 176.3318089424673 111.0204081632653 173.6037794890456 117.55102040816327 169.25187281374102 124.08163265306122 163.4215486665311 130.6122448979592 159.99369121054787 137.14285714285714 149.21629644551547 143.6734693877551 151.83073626838183 150.20408163265307 137.9482880314195 156.73469387755102 125.43984942774887 163.26530612244898 119.77165994296445 169.79591836734696 109.44911244849078 176.32653061224488 100.87981743449114 182.85714285714283 97.33046317953395 189.3877551020408 93.52655814337541 195.9183673469388 90.21995037900453 202.44897959183675 78.2951936460299 208.97959183673467 68.47385102620493 215.51020408163265 67.09999506823038 222.0408163265306 61.879697073074965 228.57142857142858 64.09786262519367 235.10204081632654 62.45497075641708 241.63265306122446 54.62857171908769 248.16326530612244 50.63009617739846 254.69387755102042 50.94209805050468 261.2244897959184 56.369899088458965 267.7551020408163 53.40352065982523 274.2857142857143 56.13099925155757 280.81632653061223 56.76307444958269 287.3469387755102 57.557570094130824 293.8775510204082 59.03580374647737 300.40816326530614 61.80719055749438 306.9387755102041 62.292744534081464 313.46938775510205 55.28086959626211 320 55.60525992552641 326.53061224489795 52.66946371214539 333.0612244897959 49.999172593799074 339.5918367346939 44.30101335093502 346.12244897959187 46.095594078859335 352.65306122448976 42.65962496178736 359.1836734693877 41.450649336870015 365.71428571428567 43.517578027007744 372.2448979591837 50.36752658301003 378.7755102040816 52.37899815495888 385.3061224489796 56.19274160647308 391.8367346938776 59.66218763729114 398.36734693877554 59.01041038611544 404.8979591836735 63.40183707873689 411.42857142857144 66.56762824908682 417.95918367346934 71.9183677229596 424.48979591836735 77.28707694661517 431.0204081632653 80.95083459307455 437.55102040816325 75.31330787978251 444.0816326530612 78.75181117075229 450.61224489795916 85.67954176718672 457.14285714285717 92.1348390341521 463.6734693877551 91.76308428929258 470.2040816326531 94.64704591901608 476.7346938775511 99.99352100189202 483.2653061224489 105.36609004674946 489.7959183673469 111.78299427139709 496.3265306122449 109.680595368978 502.85714285714283 110.98546577952703 509.38775510204084 110.57117174937412 515.9183673469388 109.10323662415334 522.4489795918367 112.51136722397885 528.9795918367347 118.41473333561353 535.5102040816327 120.63399779057886 542.0408163265306 116.47493798206992 548.5714285714286 118.01212845651895 555.1020408163265 124.15253415352515 561.6326530612245 125.07071692386154 568.1632653061224 125.19427905354178 574.6938775510204 128.0780848849971 581.2244897959183 127.33830519592061 587.7551020408164 127.54578953895293 594.2857142857143 127.48645020207329 600.8163265306123 128.86951512311313 607.3469387755102 124.90219051967938 613.8775510204082 109.52987488205866 620.4081632653061 108.83256079118718 626.9387755102041 110.32952664575757 633.469387755102 110.15695987417308 640 110.3287289068702 640 320 0 320"
      />
      
      <polygon
        fill="#0298c3"
        fillRule="evenodd"
        points="0 313.6957888927138 6.530612244897958 305.0750694691304 13.061224489795917 298.5224213840045 19.591836734693878 288.3920348861034 26.122448979591834 281.7296734340403 32.6530612244898 277.8556633681049 39.183673469387756 270.54540946868485 45.71428571428571 260.8000688581068 52.24489795918367 251.7275435707017 58.775510204081634 237.7909168725883 65.3061224489796 230.205468089908 71.83673469387755 218.6052160754618 78.36734693877551 212.80505015437342 84.89795918367348 207.8411138760028 91.42857142857142 198.6640445013411 97.9591836734694 187.99622926926585 104.48979591836734 176.3318089424673 111.0204081632653 173.6037794890456 117.55102040816327 169.25187281374102 124.08163265306122 163.4215486665311 130.6122448979592 159.99369121054787 137.14285714285714 149.21629644551547 143.6734693877551 151.83073626838183 150.20408163265307 137.9482880314195 156.73469387755102 126.07796083317001 163.26530612244898 120.39029336157424 169.79591836734696 110.04946250140392 176.32653061224488 101.46184214767237 182.85714285714283 97.89528648098613 189.3877551020408 94.07414051482701 195.9183673469388 90.75081814505887 202.44897959183675 78.81140327753235 208.97959183673467 68.97430359462092 215.51020408163265 67.69013126114385 222.0408163265306 62.45181971576062 228.57142857142858 64.65307646192753 235.10204081632654 62.99323701901437 241.63265306122446 55.150407720835005 248.16326530612244 51.13650964449596 254.69387755102042 51.43305349254422 261.2244897959184 56.84634462542806 267.7551020408163 53.86542297964996 274.2857142857143 56.57880224121959 280.81632653061223 57.198512864617385 287.3469387755102 57.97971702248401 293.8775510204082 59.44547431672004 300.40816326530614 62.20435617385169 306.9387755102041 62.67817213461632 313.46938775510205 55.654532249775855 320 55.96751675919256 326.53061224489795 53.02101422814121 333.0612244897959 50.33999222421318 339.5918367346939 44.63176021986874 346.12244897959187 46.41624510829962 352.65306122448976 42.970488293555945 359.1836734693877 41.752929219908026 365.71428571428567 43.810630999869375 372.2448979591837 50.651918519395736 378.7755102040816 52.65470920325646 385.3061224489796 56.460304143355984 391.8367346938776 59.92158300306596 398.36734693877554 59.261887835652544 404.8979591836735 63.645882257274764 411.42857142857144 66.80422408958208 417.95918367346934 72.14797110019828 424.48979591836735 77.5096718210699 431.0204081632653 81.16663487305985 437.55102040816325 75.52293983639873 444.0816326530612 78.95504422937282 450.61224489795916 85.87676838760945 457.14285714285717 92.32604541683492 463.6734693877551 91.9486396721681 470.2040816326531 94.82693732455519 476.7346938775511 100.1679213405144 483.2653061224489 105.53533606632664 489.7959183673469 111.94707414521804 496.3265306122449 109.83982595220141 502.85714285714283 111.13983595442807 509.38775510204084 110.72082984818579 515.9183673469388 109.24876242286979 522.4489795918367 112.65245092647734 528.9795918367347 118.55164738780422 535.5102040816327 120.7667326262864 542.0408163265306 116.60374990492554 548.5714285714286 118.13700846548113 555.1020408163265 124.27360228303178 561.6326530612245 125.18820693383941 568.1632653061224 125.30818276496217 574.6938775510204 128.18862222741924 581.2244897959183 127.44546844242296 587.7551020408164 127.64968168775553 594.2857142857143 127.58747372406387 600.8163265306123 128.96745496326926 607.3469387755102 127.49644174610745 613.8775510204082 116.37774709197043 620.4081632653061 115.5786858847597 626.9387755102041 117.0752514190336 633.469387755102 116.6967755462882 640 116.80424631666395 640 320 0 320"
      />
      
      <polygon
        fill="#fd2fdb"
        fillRule="evenodd"
        points="0 313.6957888927138 6.530612244897958 305.0750694691304 13.061224489795917 298.5224213840045 19.591836734693878 288.3920348861034 26.122448979591834 281.7296734340403 32.6530612244898 277.8556633681049 39.183673469387756 270.54540946868485 45.71428571428571 260.8000688581068 52.24489795918367 251.7275435707017 58.775510204081634 237.7909168725883 65.3061224489796 230.205468089908 71.83673469387755 218.6052160754618 78.36734693877551 212.80505015437342 84.89795918367348 207.8411138760028 91.42857142857142 198.6640445013411 97.9591836734694 187.99622926926585 104.48979591836734 176.3318089424673 111.0204081632653 173.6037794890456 117.55102040816327 169.25187281374102 124.08163265306122 163.4215486665311 130.6122448979592 159.99369121054787 137.14285714285714 149.21629644551547 143.6734693877551 151.83073626838183 150.20408163265307 137.9482880314195 156.73469387755102 126.07796083317001 163.26530612244898 120.39029336157424 169.79591836734696 110.04946250140392 176.32653061224488 101.46184214767237 182.85714285714283 97.89528648098613 189.3877551020408 94.07414051482701 195.9183673469388 90.75081814505887 202.44897959183675 78.81140327753235 208.97959183673467 68.97430359462092 215.51020408163265 67.69013126114385 222.0408163265306 62.45181971576062 228.57142857142858 64.65307646192753 235.10204081632654 62.99323701901437 241.63265306122446 55.150407720835005 248.16326530612244 51.13650964449596 254.69387755102042 51.43305349254422 261.2244897959184 56.84634462542806 267.7551020408163 53.86542297964996 274.2857142857143 56.57880224121959 280.81632653061223 58.328116455695294 287.3469387755102 59.07484015098271 293.8775510204082 60.5082316108996 300.40816326530614 63.23467344704534 306.9387755102041 64.55879982374842 313.46938775510205 57.47775487150693 320 57.73508643408098 326.53061224489795 54.73634426212345 333.0612244897959 52.00296301440801 339.5918367346939 46.24558275428052 346.12244897959187 47.980806565653836 352.65306122448976 44.487292443754825 359.1836734693877 43.227851914120436 365.71428571428567 45.24053255971256 372.2448979591837 52.03955998354695 378.7755102040816 53.99999377969334 385.3061224489796 57.76582959843773 391.8367346938776 61.18725799060587 398.36734693877554 60.48892872928241 404.8979591836735 64.83665861201433 411.42857142857144 67.95865277937392 417.95918367346934 73.2682812699787 424.48979591836735 78.59578517410745 431.0204081632653 82.21959521164706 437.55102040816325 76.54580289084794 444.0816326530612 79.94668486948734 450.61224489795916 86.83910169801078 457.14285714285717 93.25900399246294 463.6734693877551 92.85402515986021 470.2040816326531 95.70468653206743 476.7346938775511 101.01887765311201 483.2653061224489 106.3611427906065 489.7959183673469 112.74767363752358 496.3265306122449 110.61676421334903 502.85714285714283 111.89305859798733 509.38775510204084 111.45106082094338 515.9183673469388 109.95883050764343 522.4489795918367 113.34084459561785 528.9795918367347 119.21969595951998 535.5102040816327 121.41438938969262 542.0408163265306 117.23226551159325 548.5714285714286 118.74633900964477 555.1020408163265 124.86433334615171 561.6326530612245 125.76147922325731 568.1632653061224 125.8639562897491 574.6938775510204 128.72797012545414 581.2244897959183 127.96835306551367 587.7551020408164 128.1566055529559 594.2857142857143 128.08040060998647 600.8163265306123 129.4453355395845 607.3469387755102 127.9601988353551 613.8775510204082 116.82734822463976 620.4081632653061 116.01499931200706 626.9387755102041 117.49824663390422 633.469387755102 117.10685907527613 640 117.21029796471103 640 320 0 320"
      />
      
      <polygon
        fill="#4F5D95"
        fillRule="evenodd"
        points="0 313.6957888927138 6.530612244897958 305.0750694691304 13.061224489795917 298.5224213840045 19.591836734693878 288.3920348861034 26.122448979591834 281.7296734340403 32.6530612244898 277.8556633681049 39.183673469387756 270.54540946868485 45.71428571428571 260.8000688581068 52.24489795918367 251.7275435707017 58.775510204081634 237.7909168725883 65.3061224489796 230.205468089908 71.83673469387755 218.6052160754618 78.36734693877551 212.80505015437342 84.89795918367348 207.8411138760028 91.42857142857142 198.6640445013411 97.9591836734694 187.99622926926585 104.48979591836734 176.3318089424673 111.0204081632653 173.6037794890456 117.55102040816327 169.25187281374102 124.08163265306122 163.4215486665311 130.6122448979592 159.99369121054787 137.14285714285714 149.21629644551547 143.6734693877551 151.83073626838183 150.20408163265307 137.9482880314195 156.73469387755102 126.07796083317001 163.26530612244898 120.39029336157424 169.79591836734696 110.04946250140392 176.32653061224488 101.46184214767237 182.85714285714283 97.89528648098613 189.3877551020408 94.07414051482701 195.9183673469388 90.75081814505887 202.44897959183675 78.81140327753235 208.97959183673467 68.97430359462092 215.51020408163265 67.69013126114385 222.0408163265306 62.45181971576062 228.57142857142858 64.67270353516881 235.10204081632654 63.01226498662754 241.63265306122446 55.16885487055282 248.16326530612244 51.1544115982486 254.69387755102042 51.450409000872014 261.2244897959184 56.8631872007706 267.7551020408163 53.881751444473764 274.2857142857143 56.59463228877905 280.81632653061223 58.34350941020983 287.3469387755102 59.08976324393444 293.8775510204082 60.5227136600069 300.40816326530614 63.24871344020471 306.9387755102041 64.57242487300132 313.46938775510205 57.49096402331833 320 57.74789238444055 326.53061224489795 54.74877173923517 333.0612244897959 52.01501115002077 339.5918367346939 46.25727481341522 346.12244897959187 47.99214173143514 352.65306122448976 44.49828161042274 359.1836734693877 43.23853765166956 365.71428571428567 45.250892121503966 372.2448979591837 52.049613373265174 378.7755102040816 54.00974029605857 385.3061224489796 57.77528806143613 391.8367346938776 61.196427740058084 398.36734693877554 60.49781857716721 404.8979591836735 64.84528572504422 411.42857142857144 67.9670165549106 417.95918367346934 73.27639785852125 424.48979591836735 78.60365400795314 431.0204081632653 82.22722385434238 437.55102040816325 76.55321348022858 444.0816326530612 79.95386925426757 450.61224489795916 86.8460737517139 457.14285714285717 93.2657632286627 463.6734693877551 92.86058463027248 470.2040816326531 95.7110457785227 476.7346938775511 101.02504278748194 483.2653061224489 106.36712571769328 489.7959183673469 112.75347393923096 496.3265306122449 110.62239309032236 502.85714285714283 111.89851565668795 509.38775510204084 111.45635130581377 515.9183673469388 109.96397491382922 522.4489795918367 113.34583197144076 528.9795918367347 119.2245359361973 535.5102040816327 121.4190816290687 542.0408163265306 117.23681907420288 548.5714285714286 118.75075357726621 555.1020408163265 124.86861316160471 561.6326530612245 125.76563255105981 568.1632653061224 125.86798283993605 574.6938775510204 128.73187767282934 581.2244897959183 127.97214133716889 587.7551020408164 128.1602781899973 594.2857142857143 128.0839718395056 600.8163265306123 129.44879775940038 607.3469387755102 127.96355873100154 613.8775510204082 116.83060556153487 620.4081632653061 116.01816037998822 626.9387755102041 117.50131121195272 633.469387755102 117.1098301088698 640 117.2132397874588 640 320 0 320"
      />
      
      <polygon
        fill="#755462"
        fillRule="evenodd"
        points="0 318.02122400823293 6.530612244897958 313.5273639818515 13.061224489795917 310.89612199893577 19.591836734693878 304.6063580771335 26.122448979591834 301.5123639979773 32.6530612244898 299.6347428249352 39.183673469387756 295.68732224065997 45.71428571428571 289.6072448045236 52.24489795918367 284.8540337188643 58.775510204081634 274.4471079329886 65.3061224489796 270.1967711069351 71.83673469387755 262.9523656038366 78.36734693877551 259.7806096564454 84.89795918367348 257.2939912103048 91.42857142857142 251.48860411996975 97.9591836734694 243.11578219741585 104.48979591836734 233.690730592742 111.0204081632653 232.44226892584348 117.55102040816327 230.4870786325213 124.08163265306122 226.7432493529451 130.6122448979592 225.02617548018478 137.14285714285714 216.76221368542278 143.6734693877551 218.75148287773317 150.20408163265307 208.35864803748828 156.73469387755102 198.35245093438695 163.26530612244898 194.3475569554547 169.79591836734696 186.1187547395285 176.32653061224488 178.69895376895565 182.85714285714283 176.47507402067575 189.3877551020408 173.87228890262153 195.9183673469388 171.38686486181723 202.44897959183675 162.65601306048123 208.97959183673467 154.12867795332699 215.51020408163265 153.54791235844985 222.0408163265306 149.77117679160398 228.57142857142858 151.99189004332936 235.10204081632654 150.24046493869744 241.63265306122446 143.4641447414483 248.16326530612244 140.6979794778039 254.69387755102042 142.92937549652916 261.2244897959184 147.05364431998507 267.7551020408163 144.44716976130115 274.2857142857143 147.14071891654618 280.81632653061223 149.5341815864023 287.3469387755102 150.79093627458835 293.8775510204082 152.3821858304839 300.40816326530614 155.03549911742522 306.9387755102041 154.49041553170102 313.46938775510205 148.8867952138739 320 148.96295779430434 326.53061224489795 145.90470770407586 333.0612244897959 141.78904679451034 339.5918367346939 137.4587256341406 346.12244897959187 139.37107541871677 352.65306122448976 135.06400818209858 359.1836734693877 134.18773325477468 365.71428571428567 137.09700658188294 372.2448979591837 142.45242211997248 378.7755102040816 144.39924065344366 385.3061224489796 146.9758258356096 391.8367346938776 149.82606725980395 398.36734693877554 149.06464603396753 404.8979591836735 151.71940360790043 411.42857142857144 154.19228880733638 417.95918367346934 158.30290810610438 424.48979591836735 162.42160385657868 431.0204081632653 164.48552336185867 437.55102040816325 158.22324457260893 444.0816326530612 161.3478221668259 450.61224489795916 165.87465980037373 457.14285714285717 170.070771423566 463.6734693877551 168.5636341454134 470.2040816326531 169.21372594744437 476.7346938775511 173.47278238867017 483.2653061224489 177.15379296754648 489.7959183673469 181.4937030114859 496.3265306122449 177.55144614032235 502.85714285714283 179.11020141210344 509.38775510204084 179.84341588078723 515.9183673469388 178.852059451643 522.4489795918367 181.19130613545775 528.9795918367347 185.21850817868955 535.5102040816327 189.19431478829335 542.0408163265306 186.26906001939446 548.5714285714286 186.94213078185217 555.1020408163265 190.98329800273657 561.6326530612245 194.30437186916396 568.1632653061224 196.59011179969264 574.6938775510204 200.19849346731814 581.2244897959183 201.59017458043238 587.7551020408164 203.64798600561585 594.2857142857143 205.75050712501996 600.8163265306123 209.18370663752623 607.3469387755102 208.11707358321144 613.8775510204082 198.63928043708717 620.4081632653061 199.16128487955885 626.9387755102041 200.62397786475012 633.469387755102 202.12372862308808 640 202.53247911425916 640 320 0 320"
      />
      
      <polygon
        fill="#2415b9"
        fillRule="evenodd"
        points="0 318.02122400823293 6.530612244897958 313.5273639818515 13.061224489795917 310.89612199893577 19.591836734693878 304.6063580771335 26.122448979591834 301.5123639979773 32.6530612244898 299.6347428249352 39.183673469387756 295.68732224065997 45.71428571428571 289.6072448045236 52.24489795918367 284.8540337188643 58.775510204081634 274.4471079329886 65.3061224489796 270.1967711069351 71.83673469387755 262.9523656038366 78.36734693877551 259.7806096564454 84.89795918367348 257.2939912103048 91.42857142857142 251.48860411996975 97.9591836734694 243.11578219741585 104.48979591836734 233.690730592742 111.0204081632653 232.44226892584348 117.55102040816327 230.4870786325213 124.08163265306122 226.7432493529451 130.6122448979592 225.02617548018478 137.14285714285714 216.76221368542278 143.6734693877551 218.75148287773317 150.20408163265307 208.35864803748828 156.73469387755102 198.35245093438695 163.26530612244898 194.3475569554547 169.79591836734696 186.1187547395285 176.32653061224488 178.69895376895565 182.85714285714283 176.47507402067575 189.3877551020408 173.87228890262153 195.9183673469388 171.38686486181723 202.44897959183675 162.65601306048123 208.97959183673467 154.12867795332699 215.51020408163265 153.54791235844985 222.0408163265306 149.77117679160398 228.57142857142858 151.99189004332936 235.10204081632654 150.24046493869744 241.63265306122446 143.4641447414483 248.16326530612244 140.6979794778039 254.69387755102042 142.92937549652916 261.2244897959184 147.05364431998507 267.7551020408163 144.44716976130115 274.2857142857143 147.14071891654618 280.81632653061223 149.5341815864023 287.3469387755102 150.79093627458835 293.8775510204082 152.3821858304839 300.40816326530614 155.03549911742522 306.9387755102041 154.49041553170102 313.46938775510205 148.8867952138739 320 148.96295779430434 326.53061224489795 145.90470770407586 333.0612244897959 142.14867745099548 339.5918367346939 137.81835629062573 346.12244897959187 139.73070607520185 352.65306122448976 135.42363883858368 359.1836734693877 134.5473639112598 365.71428571428567 137.45663723836805 372.2448979591837 142.81205277645762 378.7755102040816 144.75887130992874 385.3061224489796 147.33545649209475 391.8367346938776 150.18569791628906 398.36734693877554 149.42427669045261 404.8979591836735 152.07903426438554 411.42857142857144 154.55191946382146 417.95918367346934 158.66253876258952 424.48979591836735 162.7812345130638 431.0204081632653 164.84515401834375 437.55102040816325 158.58287522909404 444.0816326530612 161.707452823311 450.61224489795916 166.23429045685884 457.14285714285717 170.4304020800511 463.6734693877551 168.92326480189854 470.2040816326531 169.57335660392948 476.7346938775511 173.8324130451553 483.2653061224489 177.5134236240316 489.7959183673469 181.85333366797101 496.3265306122449 177.91107679680746 502.85714285714283 179.46983206858854 509.38775510204084 180.20304653727234 515.9183673469388 179.2116901081281 522.4489795918367 181.5509367919429 528.9795918367347 185.57813883517463 535.5102040816327 189.55394544477846 542.0408163265306 186.62869067587957 548.5714285714286 187.30176143833728 555.1020408163265 191.34292865922168 561.6326530612245 194.66400252564907 568.1632653061224 196.94974245617772 574.6938775510204 200.55812412380328 581.2244897959183 201.94980523691748 587.7551020408164 204.00761666210093 594.2857142857143 206.11013778150507 600.8163265306123 209.54333729401134 607.3469387755102 208.47670423969652 613.8775510204082 198.99891109357225 620.4081632653061 199.52091553604396 626.9387755102041 200.98360852123523 633.469387755102 202.4833592795732 640 202.53247911425916 640 320 0 320"
      />
      
      <polygon
        fill="#f1e05a"
        fillRule="evenodd"
        points="0 318.02122400823293 6.530612244897958 313.5273639818515 13.061224489795917 310.89612199893577 19.591836734693878 304.6063580771335 26.122448979591834 301.5123639979773 32.6530612244898 299.6347428249352 39.183673469387756 295.68732224065997 45.71428571428571 289.6072448045236 52.24489795918367 284.8540337188643 58.775510204081634 275.55861275164824 65.3061224489796 271.27434785570387 71.83673469387755 264.38152611902416 78.36734693877551 261.62326322529793 84.89795918367348 259.0916488189341 91.42857142857142 253.23313287520682 97.9591836734694 246.00812767869786 104.48979591836734 237.61103920494023 111.0204081632653 236.28995166823879 117.55102040816327 234.21731298961845 124.08163265306122 230.51366750382692 130.6122448979592 228.6815031898556 137.14285714285714 222.60337077111961 143.6734693877551 224.41434227655782 150.20408163265307 213.8541450901883 156.73469387755102 203.68020206917927 163.26530612244898 199.5126808468489 169.79591836734696 191.13122538415152 176.32653061224488 184.67460347253245 182.85714285714283 182.27411681522392 189.3877551020408 179.49431891925735 195.9183673469388 176.83728632179145 202.44897959183675 169.27902620242568 208.97959183673467 161.9143754664135 215.51020408163265 161.10350687483947 222.0408163265306 157.65198787944345 228.57142857142858 159.74993648000333 235.10204081632654 157.7617018834407 241.63265306122446 151.88557369619753 248.16326530612244 148.87051781660332 254.69387755102042 150.8524523313995 261.2244897959184 154.7425580307984 267.7551020408163 153.00434223210527 274.2857142857143 155.44772983666047 280.81632653061223 157.6118262389073 287.3469387755102 159.39926425399673 293.8775510204082 161.38432273645358 300.40816326530614 163.7628473763554 306.9387755102041 164.08003583045934 313.46938775510205 158.18369979112504 320 157.976077306765 326.53061224489795 154.65145074155868 333.0612244897959 150.62842873682303 339.5918367346939 146.04749535717508 346.12244897959187 147.70865494463223 352.65306122448976 144.26948745385803 359.1836734693877 143.14896422860153 365.71428571428567 145.79567994729734 372.2448979591837 150.90463751394918 378.7755102040816 152.60443499712613 385.3061224489796 154.94914779976526 391.8367346938776 157.56698664609345 398.36734693877554 156.5802547589368 404.8979591836735 159.02352176392012 411.42857142857144 161.28443140677825 417.95918367346934 165.19607425592622 424.48979591836735 169.11533877812738 431.0204081632653 170.9859122113452 437.55102040816325 165.66899504255596 444.0816326530612 168.57727226467188 450.61224489795916 172.90107630103643 457.14285714285717 176.89368834846616 463.6734693877551 175.19553067833112 470.2040816326531 175.65416642152718 476.7346938775511 179.72760926081173 483.2653061224489 183.23438947278908 489.7959183673469 187.39967222033638 496.3265306122449 183.2934941546727 502.85714285714283 184.68795472982896 509.38775510204084 185.26188795874253 515.9183673469388 184.1308497496001 522.4489795918367 186.3199434417192 528.9795918367347 190.20619903806133 535.5102040816327 194.0407363551976 542.0408163265306 190.98287774862658 548.5714285714286 191.52303785708642 555.1020408163265 195.4353539348233 561.6326530612245 198.63547805188097 568.1632653061224 200.79999070092478 574.6938775510204 204.2945806050157 581.2244897959183 205.57220865723548 587.7551020408164 207.51944783527279 594.2857142857143 209.52500194627208 600.8163265306123 212.85396508178653 607.3469387755102 211.68948834227797 613.8775510204082 202.11362627941742 620.4081632653061 202.54357739851963 626.9387755102041 203.9140050837573 633.469387755102 205.32430696394005 640 205.34549490204654 640 320 0 320"
      />
      
      <polygon
        fill="#22e8e8"
        fillRule="evenodd"
        points="0 319.9256742485603 6.530612244897958 319.85646896978346 13.061224489795917 319.8272328777658 19.591836734693878 318.6603028509455 26.122448979591834 318.54752977720847 32.6530612244898 318.4075976980751 39.183673469387756 318.2695442922952 45.71428571428571 316.01153516192505 52.24489795918367 316.0194979703438 58.775510204081634 310.27119945188184 65.3061224489796 309.37986998454625 71.83673469387755 306.9369320107881 78.36734693877551 307.02226666285736 84.89795918367348 306.27910270380704 91.42857142857142 304.58411204398465 97.9591836734694 300.15629765335837 104.48979591836734 294.7536440428553 111.0204081632653 293.47877829315763 117.55102040816327 293.78095243450747 124.08163265306122 290.8838547320797 130.6122448979592 291.2549255069018 137.14285714285714 286.9785375395754 143.6734693877551 287.2959064152421 150.20408163265307 280.0896278138012 156.73469387755102 272.356525801293 163.26530612244898 270.6873587495647 169.79591836734696 264.6410324051686 176.32653061224488 259.71604046893776 182.85714285714283 258.4821340102973 189.3877551020408 256.49761821050106 195.9183673469388 254.70956116830016 202.44897959183675 249.7580273490778 208.97959183673467 243.8433252187207 215.51020408163265 243.3267937691565 222.0408163265306 241.83027737070546 228.57142857142858 242.76852602081394 235.10204081632654 241.70746446738102 241.63265306122446 237.2178182950526 248.16326530612244 234.04435744147062 254.69387755102042 235.7302912655917 261.2244897959184 237.40441451069898 267.7551020408163 235.56052483990428 274.2857142857143 237.00506809404075 280.81632653061223 238.3993493881772 287.3469387755102 240.81756929957993 293.8775510204082 242.54146708184575 300.40816326530614 244.5917126383787 306.9387755102041 243.76035174741457 313.46938775510205 239.79404760727127 320 239.82808664890757 326.53061224489795 237.43530010523602 333.0612244897959 235.72255982298697 339.5918367346939 231.99175221462338 346.12244897959187 232.20072321119363 352.65306122448976 229.58697486560328 359.1836734693877 229.00006647085857 365.71428571428567 230.61535838420662 372.2448979591837 233.24732075870307 378.7755102040816 234.38583342865826 385.3061224489796 235.4497648039045 391.8367346938776 235.98080052775057 398.36734693877554 235.02389537972658 404.8979591836735 236.27272519539056 411.42857142857144 237.10993516045244 417.95918367346934 239.17606650729653 424.48979591836735 241.04015896452768 431.0204081632653 242.01073715708446 437.55102040816325 236.84728980215982 444.0816326530612 238.18586141001114 450.61224489795916 240.60231802147962 457.14285714285717 242.69851541597046 463.6734693877551 240.20794755733615 470.2040816326531 240.05519679928125 476.7346938775511 242.49390149893094 483.2653061224489 244.47759964246654 489.7959183673469 246.78130772755907 496.3265306122449 243.48880224232227 502.85714285714283 244.04377183846452 509.38775510204084 246.20494010735592 515.9183673469388 246.89558119067016 522.4489795918367 247.99729973990554 528.9795918367347 250.11822400256523 535.5102040816327 252.23282976009375 542.0408163265306 249.58177507697712 548.5714285714286 249.44272645243757 555.1020408163265 251.59488165781613 561.6326530612245 253.61503704062292 568.1632653061224 254.4227711119454 574.6938775510204 256.3401278183734 581.2244897959183 257.1593357002877 587.7551020408164 258.9193922592053 594.2857142857143 259.945381305522 600.8163265306123 261.7459357288141 607.3469387755102 260.11289004187415 613.8775510204082 252.98375049002215 620.4081632653061 252.93432627422365 626.9387755102041 253.2422940284589 633.469387755102 253.1547116190256 640 252.75955000853847 640 320 0 320"
      />
      
      <polygon
        fill="#22e4e8"
        fillRule="evenodd"
        points="0 319.9256742485603 6.530612244897958 319.85646896978346 13.061224489795917 319.8272328777658 19.591836734693878 318.6603028509455 26.122448979591834 318.54752977720847 32.6530612244898 318.4075976980751 39.183673469387756 318.2695442922952 45.71428571428571 316.01153516192505 52.24489795918367 316.0194979703438 58.775510204081634 310.27119945188184 65.3061224489796 309.37986998454625 71.83673469387755 306.9369320107881 78.36734693877551 307.02226666285736 84.89795918367348 306.27910270380704 91.42857142857142 304.58411204398465 97.9591836734694 300.15629765335837 104.48979591836734 294.7536440428553 111.0204081632653 293.47877829315763 117.55102040816327 293.78095243450747 124.08163265306122 290.8838547320797 130.6122448979592 291.2549255069018 137.14285714285714 286.9785375395754 143.6734693877551 287.2959064152421 150.20408163265307 280.0896278138012 156.73469387755102 272.356525801293 163.26530612244898 270.6873587495647 169.79591836734696 264.6410324051686 176.32653061224488 259.71604046893776 182.85714285714283 258.4821340102973 189.3877551020408 256.49761821050106 195.9183673469388 254.70956116830016 202.44897959183675 249.7580273490778 208.97959183673467 243.8433252187207 215.51020408163265 243.3267937691565 222.0408163265306 241.83027737070546 228.57142857142858 242.76852602081394 235.10204081632654 241.70746446738102 241.63265306122446 237.2178182950526 248.16326530612244 234.04435744147062 254.69387755102042 235.7302912655917 261.2244897959184 237.40441451069898 267.7551020408163 235.56052483990428 274.2857142857143 237.00506809404075 280.81632653061223 238.3993493881772 287.3469387755102 240.81756929957993 293.8775510204082 242.54146708184575 300.40816326530614 244.5917126383787 306.9387755102041 243.76035174741457 313.46938775510205 239.79404760727127 320 239.82808664890757 326.53061224489795 237.43530010523602 333.0612244897959 235.7739356310563 339.5918367346939 232.04312802269268 346.12244897959187 232.25209901926291 352.65306122448976 229.63835067367256 359.1836734693877 229.05144227892785 365.71428571428567 230.6667341922759 372.2448979591837 233.29869656677238 378.7755102040816 234.4372092367276 385.3061224489796 235.50114061197377 391.8367346938776 236.03217633581986 398.36734693877554 235.07527118779592 404.8979591836735 236.32410100345987 411.42857142857144 237.16131096852172 417.95918367346934 239.22744231536583 424.48979591836735 241.09153477259702 431.0204081632653 242.06211296515374 437.55102040816325 236.89866561022913 444.0816326530612 238.23723721808045 450.61224489795916 240.65369382954893 457.14285714285717 242.74989122403977 463.6734693877551 240.25932336540546 470.2040816326531 240.10657260735056 476.7346938775511 242.54527730700022 483.2653061224489 244.52897545053585 489.7959183673469 246.83268353562838 496.3265306122449 243.54017805039155 502.85714285714283 244.0951476465338 509.38775510204084 246.25631591542523 515.9183673469388 246.94695699873944 522.4489795918367 248.04867554797482 528.9795918367347 250.16959981063457 535.5102040816327 252.28420556816306 542.0408163265306 249.6331508850464 548.5714285714286 249.49410226050685 555.1020408163265 251.64625746588544 561.6326530612245 253.66641284869223 568.1632653061224 254.47414692001468 574.6938775510204 256.39150362644267 581.2244897959183 257.21071150835706 587.7551020408164 258.97076806727466 594.2857142857143 259.9967571135913 600.8163265306123 261.79731153688346 607.3469387755102 260.16426584994343 613.8775510204082 253.03512629809146 620.4081632653061 252.98570208229296 626.9387755102041 253.29366983652818 633.469387755102 253.2060874270949 640 252.75955000853847 640 320 0 320"
      />
      
      <polygon
        fill="#e34c26"
        fillRule="evenodd"
        points="0 319.9256742485603 6.530612244897958 319.85646896978346 13.061224489795917 319.8272328777658 19.591836734693878 318.6603028509455 26.122448979591834 318.6387621562656 32.6530612244898 318.51260267770596 39.183673469387756 318.37134405548 45.71428571428571 316.11052406525647 52.24489795918367 316.2070742103546 58.775510204081634 311.64862185680164 65.3061224489796 310.7510450912048 71.83673469387755 308.26758290755777 78.36734693877551 308.312299948519 84.89795918367348 307.52975869311916 91.42857142857142 305.7978055026781 97.9591836734694 302.0857644186606 104.48979591836734 297.72660443484665 111.0204081632653 296.3609906155593 117.55102040816327 296.57518738464864 124.08163265306122 294.7043982038624 130.6122448979592 294.975290263014 137.14285714285714 291.7197385745085 143.6734693877551 292.1942129244736 150.20408163265307 288.116788542265 156.73469387755102 282.4760433770912 163.26530612244898 280.50909494918005 169.79591836734696 276.0941930047984 176.32653061224488 271.33209217811594 182.85714285714283 270.3321018286473 189.3877551020408 269.08199755386283 195.9183673469388 268.3241122885671 202.44897959183675 264.1112567552167 208.97959183673467 258.7341562180776 215.51020408163265 258.8780114604685 222.0408163265306 257.3390730297785 228.57142857142858 258.03726205158614 235.10204081632654 256.5238262329414 241.63265306122446 252.72246381634977 248.16326530612244 250.19333779724974 254.69387755102042 252.19005210451132 261.2244897959184 254.1886700909651 267.7551020408163 252.8678159442846 274.2857142857143 253.80097981764163 280.81632653061223 254.90772818178894 287.3469387755102 256.8330527006394 293.8775510204082 258.58290143107723 300.40816326530614 260.45211508023255 306.9387755102041 259.9720753225564 313.46938775510205 257.8643845432908 320 257.54206145735134 326.53061224489795 255.72566524199007 333.0612244897959 254.32301392450492 339.5918367346939 252.4439866945458 346.12244897959187 252.3016992363139 352.65306122448976 249.89598489530624 359.1836734693877 249.60730381875837 365.71428571428567 250.63985740895106 372.2448979591837 252.68975551089406 378.7755102040816 254.0437650353121 385.3061224489796 254.88133460020498 391.8367346938776 255.765352950972 398.36734693877554 254.20610755398192 404.8979591836735 254.90083592190837 411.42857142857144 255.1709967080831 417.95918367346934 256.7048644081676 424.48979591836735 258.10511962989057 431.0204081632653 258.5563685491272 437.55102040816325 255.16941032588153 444.0816326530612 257.12072064625215 450.61224489795916 258.9790797996315 457.14285714285717 260.5159097260577 463.6734693877551 258.6005402769865 470.2040816326531 258.02057090438285 476.7346938775511 259.91246232842775 483.2653061224489 261.38288532386616 489.7959183673469 263.1721396998244 496.3265306122449 261.82042009792366 502.85714285714283 263.5576158813234 509.38775510204084 265.20784968393326 515.9183673469388 265.5769511623811 522.4489795918367 267.2215260224838 528.9795918367347 268.7758090301724 535.5102040816327 270.33941130119 542.0408163265306 268.43863247885884 548.5714285714286 268.96360795348573 555.1020408163265 270.5214652788934 561.6326530612245 271.98377494507054 568.1632653061224 273.4494399447224 574.6938775510204 274.82522165293636 581.2244897959183 276.20415046847484 587.7551020408164 277.54100291848624 594.2857142857143 278.7133616419923 600.8163265306123 279.97361210456205 607.3469387755102 278.92973596443153 613.8775510204082 275.72392027095333 620.4081632653061 277.0324675791396 626.9387755102041 278.2862762901246 633.469387755102 279.55956916534814 640 279.9571794290491 640 320 0 320"
      />
      
      <polygon
        fill="#00ADD8"
        fillRule="evenodd"
        points="0 319.9256742485603 6.530612244897958 319.85646896978346 13.061224489795917 319.8272328777658 19.591836734693878 318.6603028509455 26.122448979591834 318.6387621562656 32.6530612244898 318.51536244873654 39.183673469387756 318.37401958611184 45.71428571428571 316.61217995784904 52.24489795918367 316.6934173378489 58.775510204081634 313.13944238381464 65.3061224489796 312.19635929071717 71.83673469387755 310.88202893662174 78.36734693877551 310.86396412361256 84.89795918367348 310.0035350881474 91.42857142857142 308.66170368527406 97.9591836734694 305.87144426708744 104.48979591836734 303.79315674644374 111.0204081632653 303.0244421697932 117.55102040816327 303.31528753445724 124.08163265306122 302.49018202830655 130.6122448979592 302.913239983314 137.14285714285714 300.9756863575668 143.6734693877551 301.55638070447327 150.20408163265307 299.63115211453163 156.73469387755102 295.82118900748816 163.26530612244898 294.07844768854 169.79591836734696 290.7161312448498 176.32653061224488 287.7123859446301 182.85714285714283 287.3468179812345 189.3877551020408 286.1158357822135 195.9183673469388 284.937302868221 202.44897959183675 282.376538167439 208.97959183673467 277.943860614747 215.51020408163265 278.07964882775485 222.0408163265306 276.03281840613715 228.57142857142858 276.2116699344955 235.10204081632654 274.149020562493 241.63265306122446 270.3047069428392 248.16326530612244 268.0869512011563 254.69387755102042 269.66606239010736 261.2244897959184 271.14817882771723 267.7551020408163 270.4125475382703 274.2857142857143 270.8101771809261 280.81632653061223 272.16288517117283 287.3469387755102 273.5615090157615 293.8775510204082 274.92286210570853 300.40816326530614 276.29331632757857 306.9387755102041 276.46433341511215 313.46938775510205 274.6332551240725 320 273.7990666422093 326.53061224489795 272.0443768824039 333.0612244897959 270.14360628020205 339.5918367346939 268.2494663425412 346.12244897959187 268.7286031909409 352.65306122448976 266.93233334563917 359.1836734693877 266.17325537040875 365.71428571428567 266.7001364045824 372.2448979591837 268.27538985603167 378.7755102040816 269.7729762687125 385.3061224489796 270.14568313696805 391.8367346938776 271.6309946977328 398.36734693877554 270.8758793385788 404.8979591836735 271.2113757262907 411.42857142857144 272.6978392456991 417.95918367346934 274.0958199884726 424.48979591836735 275.46914606663796 431.0204081632653 275.70899175579876 437.55102040816325 272.9524434680159 444.0816326530612 274.360946798295 450.61224489795916 275.70977404495306 457.14285714285717 277.0617044931702 463.6734693877551 276.4936173174568 470.2040816326531 276.6994686722095 476.7346938775511 278.0211893232689 483.2653061224489 279.09848771790956 489.7959183673469 280.3469849985182 496.3265306122449 279.2673568137333 502.85714285714283 280.47752209018336 509.38775510204084 281.61129338956346 515.9183673469388 281.52746368904 522.4489795918367 282.6851582361992 528.9795918367347 283.7824205505943 535.5102040816327 284.88795611686595 542.0408163265306 282.61007372572533 548.5714285714286 282.8417755375694 555.1020408163265 283.9760064449285 561.6326530612245 285.0406735217462 568.1632653061224 286.10778452520356 574.6938775510204 287.10945787421844 581.2244897959183 288.1134203545631 587.7551020408164 289.08674477928923 594.2857142857143 289.9403094211122 600.8163265306123 290.8578611522622 607.3469387755102 291.7191458826363 613.8775510204082 290.34722716253174 620.4081632653061 291.2235919255936 626.9387755102041 292.10198116675764 633.469387755102 292.95355674896047 640 293.21947745886973 640 320 0 320"
      />
      
      <polygon
        fill="#244776"
        fillRule="evenodd"
        points="0 319.9256742485603 6.530612244897958 319.85646896978346 13.061224489795917 319.8272328777658 19.591836734693878 318.6603028509455 26.122448979591834 318.6387621562656 32.6530612244898 318.51536244873654 39.183673469387756 318.37401958611184 45.71428571428571 316.61217995784904 52.24489795918367 316.6934173378489 58.775510204081634 313.13944238381464 65.3061224489796 312.19635929071717 71.83673469387755 310.88202893662174 78.36734693877551 310.86396412361256 84.89795918367348 310.0035350881474 91.42857142857142 308.66170368527406 97.9591836734694 305.87144426708744 104.48979591836734 303.79315674644374 111.0204081632653 303.0244421697932 117.55102040816327 303.31528753445724 124.08163265306122 302.49018202830655 130.6122448979592 302.913239983314 137.14285714285714 300.9756863575668 143.6734693877551 301.55638070447327 150.20408163265307 299.63115211453163 156.73469387755102 295.82118900748816 163.26530612244898 294.07844768854 169.79591836734696 290.7161312448498 176.32653061224488 287.7123859446301 182.85714285714283 287.3468179812345 189.3877551020408 286.1158357822135 195.9183673469388 284.937302868221 202.44897959183675 282.376538167439 208.97959183673467 277.943860614747 215.51020408163265 278.07964882775485 222.0408163265306 276.03281840613715 228.57142857142858 276.2116699344955 235.10204081632654 274.149020562493 241.63265306122446 270.3047069428392 248.16326530612244 268.0869512011563 254.69387755102042 269.66606239010736 261.2244897959184 271.14817882771723 267.7551020408163 270.4125475382703 274.2857142857143 270.8101771809261 280.81632653061223 272.16288517117283 287.3469387755102 273.5615090157615 293.8775510204082 274.92286210570853 300.40816326530614 276.29331632757857 306.9387755102041 276.46433341511215 313.46938775510205 274.6332551240725 320 273.7990666422093 326.53061224489795 272.0443768824039 333.0612244897959 270.14360628020205 339.5918367346939 268.2494663425412 346.12244897959187 268.7286031909409 352.65306122448976 266.93233334563917 359.1836734693877 266.17325537040875 365.71428571428567 266.7001364045824 372.2448979591837 268.27538985603167 378.7755102040816 269.7729762687125 385.3061224489796 270.14568313696805 391.8367346938776 271.6309946977328 398.36734693877554 270.8758793385788 404.8979591836735 271.2113757262907 411.42857142857144 272.6978392456991 417.95918367346934 274.0958199884726 424.48979591836735 275.46914606663796 431.0204081632653 275.70899175579876 437.55102040816325 272.9524434680159 444.0816326530612 274.360946798295 450.61224489795916 275.70977404495306 457.14285714285717 277.0617044931702 463.6734693877551 276.4936173174568 470.2040816326531 276.6994686722095 476.7346938775511 278.0211893232689 483.2653061224489 279.09848771790956 489.7959183673469 280.3469849985182 496.3265306122449 279.2673568137333 502.85714285714283 280.47752209018336 509.38775510204084 281.61129338956346 515.9183673469388 281.52746368904 522.4489795918367 282.6851582361992 528.9795918367347 283.7824205505943 535.5102040816327 284.88795611686595 542.0408163265306 282.61007372572533 548.5714285714286 282.8417755375694 555.1020408163265 283.9760064449285 561.6326530612245 285.0406735217462 568.1632653061224 286.10778452520356 574.6938775510204 287.10945787421844 581.2244897959183 288.1134203545631 587.7551020408164 289.08674477928923 594.2857142857143 289.9403094211122 600.8163265306123 290.8578611522622 607.3469387755102 291.7191458826363 613.8775510204082 290.4027883830067 620.4081632653061 291.27751106221586 626.9387755102041 292.154254454708 633.469387755102 293.00423442144904 640 293.2696568784965 640 320 0 320"
      />
      
      <polygon
        fill="#563d7c"
        fillRule="evenodd"
        points="0 319.9256742485603 6.530612244897958 319.85646896978346 13.061224489795917 319.8272328777658 19.591836734693878 318.6603028509455 26.122448979591834 318.6387621562656 32.6530612244898 318.51536244873654 39.183673469387756 318.37401958611184 45.71428571428571 316.61217995784904 52.24489795918367 316.6934173378489 58.775510204081634 314.2496026975771 65.3061224489796 313.2726326352352 71.83673469387755 311.92649356608337 78.36734693877551 311.8765470843704 84.89795918367348 310.9852095407577 91.42857142857142 309.6143652943031 97.9591836734694 306.79502634673634 104.48979591836734 305.79142054807676 111.0204081632653 304.96171014604744 117.55102040816327 305.1934213391141 124.08163265306122 304.31463212084395 130.6122448979592 304.6819999329237 137.14285714285714 303.8118311231405 143.6734693877551 304.30595404815006 150.20408163265307 302.2994630068142 156.73469387755102 298.4080513651997 163.26530612244898 296.5863474842813 169.79591836734696 293.14991157329604 176.32653061224488 290.0718764436017 182.85714285714283 289.63657506839746 189.3877551020408 288.33569937054983 195.9183673469388 287.08940618403346 202.44897959183675 284.469218476861 208.97959183673467 279.97266312146087 215.51020408163265 280.0484910398775 222.0408163265306 277.9415628420062 228.57142857142858 278.0640026028367 235.10204081632654 275.9448115852635 241.63265306122446 273.175069332358 248.16326530612244 271.6223085898625 254.69387755102042 273.093504893964 261.2244897959184 274.47432498657463 267.7551020408163 273.63716503072436 274.2857142857143 273.93636489296796 280.81632653061223 275.2027540247903 287.3469387755102 276.5085875086669 293.8775510204082 277.78284134166495 300.40816326530614 279.0659962491894 306.9387755102041 279.1550684090944 313.46938775510205 277.2418569494653 320 276.32804213019165 326.53061224489795 274.4986098172909 333.0612244897959 272.5229252722979 339.5918367346939 270.5584660331133 346.12244897959187 270.9671218489453 352.65306122448976 269.1025224871662 359.1836734693877 268.2835220299394 365.71428571428567 268.7459884869622 372.2448979591837 270.2607776471431 378.7755102040816 271.69776156763186 385.3061224489796 272.0135821613962 391.8367346938776 273.44187726137204 398.36734693877554 272.6314858483033 404.8979591836735 272.91509616342023 411.42857142857144 274.34955452111046 417.95918367346934 275.698719717834 424.48979591836735 277.0231181479362 431.0204081632653 277.215529786526 437.55102040816325 275.3902477552533 444.0816326530612 276.72433846787646 450.61224489795916 278.00331711816426 457.14285714285717 279.28523847198664 463.6734693877551 278.6514357809105 470.2040816326531 278.7914210891828 476.7346938775511 280.0492861318832 483.2653061224489 281.0666449877591 489.7959183673469 282.25506565894705 496.3265306122449 281.11904502393804 502.85714285714283 282.27268838312773 509.38775510204084 283.35166337588896 515.9183673469388 283.2197794160395 522.4489795918367 284.325816923956 528.9795918367347 285.374590545192 535.5102040816327 286.43152593280115 542.0408163265306 284.10802408463053 548.5714285714286 284.2940018382994 555.1020408163265 285.38390436268526 561.6326530612245 286.40696176154125 568.1632653061224 287.43236763078534 574.6938775510204 288.3948936415676 581.2244897959183 289.35961887601553 587.7551020408164 290.2949039331858 594.2857142857143 291.11510923531324 600.8163265306123 291.9968008579341 607.3469387755102 292.8244248781225 613.8775510204082 291.47432939909186 620.4081632653061 292.3173832081942 626.9387755102041 293.1623850851869 633.469387755102 293.98159248416863 640 294.2374056100748 640 320 0 320"
      />
      
      <polygon
        fill="#178600"
        fillRule="evenodd"
        points="0 320 6.530612244897958 320 13.061224489795917 320 19.591836734693878 320 26.122448979591834 320 32.6530612244898 320 39.183673469387756 320 45.71428571428571 320 52.24489795918367 320 58.775510204081634 318.7303283855988 65.3061224489796 318.76908445595234 71.83673469387755 318.80546355261947 78.36734693877551 318.8419260424982 84.89795918367348 318.87727552687096 91.42857142857142 318.9104571062706 97.9591836734694 318.94371469104067 104.48979591836734 318.97493274870686 111.0204081632653 319.00622232149794 117.55102040816327 319.03655678719144 124.08163265306122 319.06409539168504 130.6122448979592 319.0926633824194 137.14285714285714 319.1194791909444 143.6734693877551 319.14635660933845 150.20408163265307 319.1715856041051 156.73469387755102 319.1856776080775 163.26530612244898 319.2105343234637 169.79591836734696 319.23386657477226 176.32653061224488 319.25725231857217 182.85714285714283 319.27920385531405 189.3877551020408 318.19414045939084 195.9183673469388 318.24926327982035 202.44897959183675 318.29760388735025 208.97959183673467 316.13887385265883 215.51020408163265 316.2474846742045 222.0408163265306 316.3620279219589 228.57142857142858 316.4695460930937 235.10204081632654 316.57731140241566 241.63265306122446 316.2415597077631 248.16326530612244 315.6381776601609 254.69387755102042 315.77131981355 261.2244897959184 315.89629629600455 267.7551020408163 316.0215593527165 274.2857142857143 316.1429989190403 280.81632653061223 316.2494969824053 287.3469387755102 316.36397890799515 293.8775510204082 316.47143984647977 300.40816326530614 316.57914709086344 306.9387755102041 316.68024838246976 313.46938775510205 315.97581104515984 320 316.098647005947 326.53061224489795 314.31084348280865 333.0612244897959 314.48450183146053 339.5918367346939 313.52091012201635 346.12244897959187 313.7186805759178 352.65306122448976 313.9104143723711 359.1836734693877 312.9761224917721 365.71428571428567 313.1905218870485 372.2448979591837 313.39177240461146 378.7755102040816 313.5934846160112 385.3061224489796 313.78282619043824 391.8367346938776 313.9726016027389 398.36734693877554 314.1565848447869 404.8979591836735 314.32928403792766 411.42857142857144 314.5023789686428 417.95918367346934 314.66485855796856 424.48979591836735 314.8277105910773 431.0204081632653 314.9855915215476 437.55102040816325 313.2129018774793 444.0816326530612 313.4200745152639 450.61224489795916 313.6145406826936 457.14285714285717 313.8094526893857 463.6734693877551 313.1987249287458 470.2040816326531 313.40633004808274 476.7346938775511 313.60759816699755 483.2653061224489 313.79652211775596 489.7959183673469 313.9858795775828 496.3265306122449 314.16362363874725 502.85714285714283 314.3417760348342 509.38775510204084 314.5144899933822 515.9183673469388 314.6659538901966 522.4489795918367 314.82877266260715 528.9795918367347 314.98160562195494 535.5102040816327 315.134789169817 542.0408163265306 315.27857762365744 548.5714285714286 315.42269642394376 555.1020408163265 315.56241570828183 561.6326530612245 315.6935664736992 568.1632653061224 315.82501786979503 574.6938775510204 315.94840739463893 581.2244897959183 316.07207982550756 587.7551020408164 316.1919773777777 594.2857142857143 316.29712288051877 600.8163265306123 316.4101512406461 607.3469387755102 316.5162472472123 613.8775510204082 316.62258708336356 620.4081632653061 316.722404544902 626.9387755102041 316.82245103979284 633.469387755102 316.91944404435657 640 316.9497317580648 640 320 0 320"
      />
      
      <polygon
        fill="#555555"
        fillRule="evenodd"
        points="0 320 6.530612244897958 320 13.061224489795917 320 19.591836734693878 320 26.122448979591834 320 32.6530612244898 320 39.183673469387756 320 45.71428571428571 320 52.24489795918367 320 58.775510204081634 318.7303283855988 65.3061224489796 318.76908445595234 71.83673469387755 318.80546355261947 78.36734693877551 318.8419260424982 84.89795918367348 318.87727552687096 91.42857142857142 318.9104571062706 97.9591836734694 318.94371469104067 104.48979591836734 318.97493274870686 111.0204081632653 319.00622232149794 117.55102040816327 319.03655678719144 124.08163265306122 319.06409539168504 130.6122448979592 319.0926633824194 137.14285714285714 319.1194791909444 143.6734693877551 319.14635660933845 150.20408163265307 319.1715856041051 156.73469387755102 319.1856776080775 163.26530612244898 319.2105343234637 169.79591836734696 319.23386657477226 176.32653061224488 319.25725231857217 182.85714285714283 319.27920385531405 189.3877551020408 318.19414045939084 195.9183673469388 318.24926327982035 202.44897959183675 318.29760388735025 208.97959183673467 317.24284872463295 215.51020408163265 317.3188321062448 222.0408163265306 317.4006731108889 228.57142857142858 317.4774947504604 235.10204081632654 317.5544929378587 241.63265306122446 317.18891327105405 248.16326530612244 316.55753274382516 254.69387755102042 316.66261209507576 261.2244897959184 316.7612468649621 267.7551020408163 316.8601078939073 274.2857142857143 316.95595121063803 280.81632653061223 317.04000234089426 287.3469387755102 317.13035450850697 293.8775510204082 317.21516564109197 300.40816326530614 317.3001710769831 306.9387755102041 317.3799629472471 313.46938775510205 317.45993822914596 320 317.53747202989376 326.53061224489795 316.5057090414611 333.0612244897959 316.6123703565938 339.5918367346939 315.58589054800814 346.12244897959187 315.72062874225065 352.65306122448976 315.8512542003057 359.1836734693877 314.8633724198128 365.71428571428567 315.0201647380107 372.2448979591837 315.1673411900646 378.7755102040816 315.31485521200295 385.3061224489796 315.45332250899907 391.8367346938776 315.59210691803287 398.36734693877554 315.72665563829526 404.8979591836735 315.85295230433945 411.42857142857144 315.97953815453207 417.95918367346934 316.0983610481993 424.48979591836735 316.2174562028238 431.0204081632653 316.33291602581966 437.55102040816325 315.5852537962429 444.0816326530612 315.7200117187958 450.61224489795916 315.846504404098 457.14285714285717 315.973287054461 463.6734693877551 316.09229469553406 470.2040816326531 316.2115753476512 476.7346938775511 316.3272148934988 483.2653061224489 316.43576180353926 489.7959183673469 316.5445581945037 496.3265306122449 316.6466819982677 502.85714285714283 316.7490400757165 509.38775510204084 316.84827388752495 515.9183673469388 316.93529813579414 522.4489795918367 317.02884639242683 528.9795918367347 317.11665751257243 535.5102040816327 317.2046696148792 542.0408163265306 317.2872840720386 548.5714285714286 317.37008820868135 555.1020408163265 317.4503645528155 561.6326530612245 317.5257179026178 568.1632653061224 317.6012439573366 574.6938775510204 317.67213788699854 581.2244897959183 317.7431945032943 587.7551020408164 317.8120823515034 594.2857142857143 317.8724941161456 600.8163265306123 317.93743502817495 607.3469387755102 317.99839296903275 613.8775510204082 318.05949116584657 620.4081632653061 318.1168417954414 626.9387755102041 318.17432394710494 633.469387755102 318.23005179987575 640 318.2474538444105 640 320 0 320"
      />
      
      <polygon
        fill="#C1F12E"
        fillRule="evenodd"
        points="0 320 6.530612244897958 320 13.061224489795917 320 19.591836734693878 320 26.122448979591834 320 32.6530612244898 320 39.183673469387756 320 45.71428571428571 320 52.24489795918367 320 58.775510204081634 319.00777439493487 65.3061224489796 319.0380615640595 71.83673469387755 319.06649118946757 78.36734693877551 319.0949859594003 84.89795918367348 319.1226109369024 91.42857142857142 319.14854174575754 97.9591836734694 319.1745319450469 104.48979591836734 319.1989283126425 111.0204081632653 319.22338054629176 117.55102040816327 319.2470864024766 124.08163265306122 319.26860731747036 130.6122448979592 319.2909327056924 137.14285714285714 319.31188876422675 143.6734693877551 319.33289299271877 150.20408163265307 319.35260899337374 156.73469387755102 319.36117536478577 163.26530612244898 319.3806751143894 169.79591836734696 319.398978948208 176.32653061224488 319.4173247355115 182.85714285714283 319.4345454234437 189.3877551020408 319.4408446729221 195.9183673469388 319.45791255892595 202.44897959183675 319.47288046905015 208.97959183673467 319.4862106828157 215.51020408163265 319.50139541940024 222.0408163265306 319.5166150504337 228.57142857142858 319.5309012344103 235.10204081632654 319.5452202167028 241.63265306122446 319.3091072779779 248.16326530612244 318.6150656299275 254.69387755102042 318.65734000809414 261.2244897959184 318.6970215519791 267.7551020408163 318.73679423654755 274.2857142857143 318.77535280801976 280.81632653061223 318.8091673373748 287.3469387755102 318.8455167491 293.8775510204082 318.8796370158889 300.40816326530614 318.913835373906 306.9387755102041 318.9459364173103 313.46938775510205 318.97811113362343 320 319.00930364723786 326.53061224489795 319.038583131263 333.0612244897959 319.06792991759676 339.5918367346939 319.09547680387055 346.12244897959187 319.1230867796367 352.65306122448976 319.1498540893989 359.1836734693877 319.1733280043606 365.71428571428567 319.1985616743258 372.2448979591837 319.22224774054934 378.7755102040816 319.24598819320335 385.3061224489796 319.26827259380565 391.8367346938776 319.2906081852631 398.36734693877554 319.31226195809654 404.8979591836735 319.3325876971169 411.42857142857144 319.35296002371996 417.95918367346934 319.3720830242479 424.48979591836735 319.39124976613886 431.0204081632653 319.40983156362944 437.55102040816325 318.5742203212382 444.0816326530612 318.6177413847634 450.61224489795916 318.6585933723078 457.14285714285717 318.6995389665745 463.6734693877551 318.73797341409437 470.2040816326531 318.7764961252525 476.7346938775511 318.81384284416396 483.2653061224489 318.8488989212968 489.7959183673469 318.8840357611999 496.3265306122449 318.91701748870616 502.85714285714283 318.9500749441535 509.38775510204084 318.9821233787304 515.9183673469388 319.0102284117831 522.4489795918367 319.0404407777312 528.9795918367347 319.0688000182822 535.5102040816327 319.09722430060623 542.0408163265306 319.12390529901086 548.5714285714286 319.15064764013033 555.1020408163265 319.17657361965956 561.6326530612245 319.2009095590297 568.1632653061224 319.2253013747287 574.6938775510204 319.24819714744706 581.2244897959183 319.27114555981836 587.7551020408164 319.293393421946 594.2857142857143 319.31290387826806 600.8163265306123 319.3338771682485 607.3469387755102 319.3535639977196 613.8775510204082 319.3732961406535 620.4081632653061 319.3918180647774 626.9387755102041 319.4103824253187 633.469387755102 319.4283801928983 640 319.4340003261201 640 320 0 320"
      />
      

      
        <g id="labels">
        
          
          <text x="0" y="330">
            Jul 2014
          </text>
          
        
          
        
          
        
          
        
          
        
          
        
          
        
          
        
          
        
          
        
          
        
          
        
          
        
          
          <text x="84.04040404040404" y="330">
            Aug 2015
          </text>
          
        
          
        
          
        
          
        
          
        
          
        
          
        
          
        
          
        
          
        
          
        
          
        
          
        
          
          <text x="168.08080808080808" y="330">
            Sep 2016
          </text>
          
        
          
        
          
        
          
        
          
        
          
        
          
        
          
        
          
        
          
        
          
        
          
        
          
        
          
          <text x="252.12121212121212" y="330">
            Oct 2017
          </text>
          
        
          
        
          
        
          
        
          
        
          
        
          
        
          
        
          
        
          
        
          
        
          
        
          
        
          
          <text x="336.16161616161617" y="330">
            Nov 2018
          </text>
          
        
          
        
          
        
          
        
          
        
          
        
          
        
          
        
          
        
          
        
          
        
          
        
          
        
          
          <text x="420.2020202020202" y="330">
            Dec 2019
          </text>
          
        
          
        
          
        
          
        
          
        
          
        
          
        
          
        
          
        
          
        
          
        
          
        
          
        
          
          <text x="504.24242424242425" y="330">
            Jan 2021
          </text>
          
        
          
        
          
        
          
        
          
        
          
        
          
        
          
        
          
        
          
        
          
        
          
        
          
        
          
          <text x="588.2828282828283" y="330">
            Feb 2022
          </text>
          
        
          
        
          
        
          
        
          
        
          
        
          
        
          
        
        </g>
      

      
        <text text-anchor="middle" y="370" x="320" id="legend">
          
          <tspan xml:space="preserve" fill="#C1F12E">   </tspan> Batchfile
          
          <tspan xml:space="preserve" fill="#555555">   </tspan> C
          
          <tspan xml:space="preserve" fill="#178600">   </tspan> C#
          
          <tspan xml:space="preserve" fill="#563d7c">   </tspan> CSS
          
          <tspan xml:space="preserve" fill="#244776">   </tspan> CoffeeScript
          
          <tspan xml:space="preserve" fill="#00ADD8">   </tspan> Go
          
          <tspan xml:space="preserve" fill="#e34c26">   </tspan> HTML
          
          <tspan xml:space="preserve" fill="#22e4e8">   </tspan> JSON
          
        </text>
      
        <text text-anchor="middle" y="400" x="320" id="legend">
          
          <tspan xml:space="preserve" fill="#22e8e8">   </tspan> JSon
          
          <tspan xml:space="preserve" fill="#f1e05a">   </tspan> JavaScript
          
          <tspan xml:space="preserve" fill="#2415b9">   </tspan> Less
          
          <tspan xml:space="preserve" fill="#755462">   </tspan> MySQL
          
          <tspan xml:space="preserve" fill="#4F5D95">   </tspan> PHP
          
          <tspan xml:space="preserve" fill="#fd2fdb">   </tspan> PLpgSQL
          
          <tspan xml:space="preserve" fill="#0298c3">   </tspan> Perl
          
          <tspan xml:space="preserve" fill="#3572A5">   </tspan> Python
          
        </text>
      
        <text text-anchor="middle" y="430" x="320" id="legend">
          
          <tspan xml:space="preserve" fill="#701516">   </tspan> Ruby
          
          <tspan xml:space="preserve" fill="#dea584">   </tspan> Rust
          
          <tspan xml:space="preserve" fill="#26c0b0">   </tspan> SCSS
          
          <tspan xml:space="preserve" fill="#0141ae">   </tspan> SQL
          
          <tspan xml:space="preserve" fill="#89e051">   </tspan> Shell
          
          <tspan xml:space="preserve" fill="#2770da">   </tspan> TSQL
          
          <tspan xml:space="preserve" fill="#2b7489">   </tspan> TypeScript
          
          <tspan xml:space="preserve" fill="#2c3e50">   </tspan> Vue
          
        </text>
      
        <text text-anchor="middle" y="460" x="320" id="legend">
          
          <tspan xml:space="preserve" fill="#4B6C4B">   </tspan> Yacc
          
        </text>
      

    </svg>