<svg
      xmlns="http://www.w3.org/2000/svg"
      viewBox="0 0 640 490"
      style="background-color: #292b3e"
    >
      <style>
        text {
          font-size: 12px;
          font-family: Open Sans, Helvetica Neue, Helvetica, Arial, sans-serif;
        }
        #labels text {
          dominant-baseline: hanging;
          font-size: 10px;
          fill: rgba(0,0,0,0.5);
        }
        #legend {
          font-weight: 600;
        }
        #legend tspan {
          font-size: 15px;
        }
        #branding-text {
          font-size: 9px;
          dominant-baseline: hanging;
          opacity: 0.5;
        }
        #branding-logo {
          opacity: 0.5;
        }
      </style>

      
      
      <polygon
        fill="#4B6C4B"
        fillRule="evenodd"
        points="0 313.6135509382401 6.530612244897958 304.26911533248244 13.061224489795917 297.2680492986477 19.591836734693878 285.9388223728411 26.122448979591834 278.8280115243342 32.6530612244898 274.98420310902054 39.183673469387756 267.09074776566973 45.71428571428571 257.0788118182184 52.24489795918367 246.2221442742601 58.775510204081634 230.99233923818423 65.3061224489796 221.54627225852767 71.83673469387755 206.62809379506365 78.36734693877551 198.27730510500578 84.89795918367348 192.17034421697804 91.42857142857142 182.12949647074373 97.9591836734694 170.61724500187034 104.48979591836734 156.95194008924435 111.0204081632653 154.80425487252913 117.55102040816327 149.8879136229109 124.08163265306122 142.5256922744207 130.6122448979592 138.28617149217342 137.14285714285714 123.78690828055431 143.6734693877551 127.17492214514715 150.20408163265307 110.77253795100506 156.73469387755102 93.05722689400147 163.26530612244898 88.01890820122344 169.79591836734696 78.10631065788397 176.32653061224488 68.78379147424232 182.85714285714283 65.97376588611337 189.3877551020408 62.13344970959872 195.9183673469388 59.1892279603353 202.44897959183675 46.683913057971836 208.97959183673467 33.29400222947214 215.51020408163265 31.646556423733614 222.0408163265306 27.414642302071684 228.57142857142858 27.528931310804865 235.10204081632654 25.251153063675304 241.63265306122446 13.936189694055543 248.16326530612244 9.643078764418306 254.69387755102042 9.883883103478297 261.2244897959184 12.937907593634122 267.7551020408163 8.246885800702785 274.2857142857143 10.710326190818932 280.81632653061223 10.158983829703061 287.3469387755102 11.455670213897235 293.8775510204082 14.195702179035095 300.40816326530614 17.693104676009284 306.9387755102041 18.067890435613947 313.46938775510205 12.038769718153958 320 13.322576881611894 326.53061224489795 11.292806625873368 333.0612244897959 7.029645105642317 339.5918367346939 1.9718372180493589 346.12244897959187 4.695584823417448 352.65306122448976 0.06662687350035412 359.1836734693877 0 365.71428571428567 3.134086082714987 372.2448979591837 11.121746188456655 378.7755102040816 13.499879495260757 385.3061224489796 18.048145139603776 391.8367346938776 21.31466836939444 398.36734693877554 21.568472476351985 404.8979591836735 27.066587740623504 411.42857142857144 30.681048753116272 417.95918367346934 36.747878229974106 424.48979591836735 42.80363667553377 431.0204081632653 46.96037484126987 437.55102040816325 38.515001315239715 444.0816326530612 42.63109193870781 450.61224489795916 50.61550440719367 457.14285714285717 58.06902012794035 463.6734693877551 55.54212739863834 470.2040816326531 58.407829976302935 476.7346938775511 64.84928769906855 483.2653061224489 68.96505711165358 489.7959183673469 76.40567685431489 496.3265306122449 74.31953485218045 502.85714285714283 74.99068542108259 509.38775510204084 75.05190092892616 515.9183673469388 74.49036213386381 522.4489795918367 78.4368366039431 528.9795918367347 85.33613075608713 535.5102040816327 88.56507251157797 542.0408163265306 82.025451220099 548.5714285714286 83.08745351671308 555.1020408163265 90.29409690947108 561.6326530612245 89.48593534788654 568.1632653061224 88.46147087093414 574.6938775510204 89.43507745067848 581.2244897959183 87.52015843746636 587.7551020408164 88.00644856524809 594.2857142857143 88.217172788586 600.8163265306123 90.76520288007157 607.3469387755102 86.66763039938337 613.8775510204082 71.26738643883482 620.4081632653061 70.87683652712587 626.9387755102041 76.09278039294799 633.469387755102 83.51295369097227 640 84.3457386699476 640 320 0 320"
      />
      
      <polygon
        fill="#2c3e50"
        fillRule="evenodd"
        points="0 313.6135509382401 6.530612244897958 304.26911533248244 13.061224489795917 297.2680492986477 19.591836734693878 285.9388223728411 26.122448979591834 278.8280115243342 32.6530612244898 274.98420310902054 39.183673469387756 267.09074776566973 45.71428571428571 257.0788118182184 52.24489795918367 246.2221442742601 58.775510204081634 230.99233923818423 65.3061224489796 221.54627225852767 71.83673469387755 206.62809379506365 78.36734693877551 198.27730510500578 84.89795918367348 192.17034421697804 91.42857142857142 182.12949647074373 97.9591836734694 170.61724500187034 104.48979591836734 156.95194008924435 111.0204081632653 154.80425487252913 117.55102040816327 149.8879136229109 124.08163265306122 142.5256922744207 130.6122448979592 138.28617149217342 137.14285714285714 123.78690828055431 143.6734693877551 127.17492214514715 150.20408163265307 110.77253795100506 156.73469387755102 93.05722689400147 163.26530612244898 88.01890820122344 169.79591836734696 78.10631065788397 176.32653061224488 68.78379147424232 182.85714285714283 65.97376588611337 189.3877551020408 62.13344970959872 195.9183673469388 59.1892279603353 202.44897959183675 46.683913057971836 208.97959183673467 33.29400222947214 215.51020408163265 31.646556423733614 222.0408163265306 27.414642302071684 228.57142857142858 27.528931310804865 235.10204081632654 25.251153063675304 241.63265306122446 13.936189694055543 248.16326530612244 9.643078764418306 254.69387755102042 9.883883103478297 261.2244897959184 12.937907593634122 267.7551020408163 8.246885800702785 274.2857142857143 10.710326190818932 280.81632653061223 10.158983829703061 287.3469387755102 11.455670213897235 293.8775510204082 14.195702179035095 300.40816326530614 17.693104676009284 306.9387755102041 18.067890435613947 313.46938775510205 12.038769718153958 320 13.322576881611894 326.53061224489795 11.292806625873368 333.0612244897959 7.029645105642317 339.5918367346939 1.9718372180493589 346.12244897959187 4.695584823417448 352.65306122448976 0.06662687350035412 359.1836734693877 0 365.71428571428567 3.134086082714987 372.2448979591837 11.121746188456655 378.7755102040816 13.499879495260757 385.3061224489796 18.048145139603776 391.8367346938776 21.31466836939444 398.36734693877554 21.568472476351985 404.8979591836735 27.066587740623504 411.42857142857144 30.681048753116272 417.95918367346934 36.747878229974106 424.48979591836735 42.80363667553377 431.0204081632653 46.96037484126987 437.55102040816325 38.515001315239715 444.0816326530612 42.63109193870781 450.61224489795916 50.61550440719367 457.14285714285717 58.06902012794035 463.6734693877551 56.64271438099155 470.2040816326531 59.47482221702518 476.7346938775511 65.88371055647576 483.2653061224489 69.96890817979516 489.7959183673469 77.37888595384123 496.3265306122449 75.26398120728626 502.85714285714283 75.90630316798587 509.38775510204084 75.9395699296631 515.9183673469388 75.35352107381368 522.4489795918367 79.27364818156798 528.9795918367347 86.14821082265505 535.5102040816327 89.35236428654929 542.0408163265306 82.78947499574446 548.5714285714286 83.82815593412164 555.1020408163265 91.01218982152145 561.6326530612245 90.18280539783038 568.1632653061224 89.13706935450836 574.6938775510204 90.09070896397421 581.2244897959183 88.15577718409105 587.7551020408164 88.62266542407332 594.2857142857143 88.81637486446425 600.8163265306123 91.34611469671793 607.3469387755102 87.23137365502333 613.8775510204082 71.81392178987679 620.4081632653061 71.40721927370492 626.9387755102041 76.60697352393427 633.469387755102 84.01145137995869 640 84.8431268470496 640 320 0 320"
      />
      
      <polygon
        fill="#2b7489"
        fillRule="evenodd"
        points="0 313.6135509382401 6.530612244897958 304.26911533248244 13.061224489795917 297.2680492986477 19.591836734693878 285.9388223728411 26.122448979591834 278.8280115243342 32.6530612244898 274.98420310902054 39.183673469387756 267.09074776566973 45.71428571428571 257.0788118182184 52.24489795918367 246.2221442742601 58.775510204081634 230.99233923818423 65.3061224489796 221.54627225852767 71.83673469387755 206.62809379506365 78.36734693877551 198.27730510500578 84.89795918367348 192.17034421697804 91.42857142857142 182.12949647074373 97.9591836734694 170.61724500187034 104.48979591836734 156.95194008924435 111.0204081632653 154.80425487252913 117.55102040816327 149.8879136229109 124.08163265306122 142.5256922744207 130.6122448979592 138.28617149217342 137.14285714285714 123.78690828055431 143.6734693877551 127.17492214514715 150.20408163265307 110.77253795100506 156.73469387755102 93.05722689400147 163.26530612244898 88.01890820122344 169.79591836734696 78.10631065788397 176.32653061224488 68.78379147424232 182.85714285714283 65.97376588611337 189.3877551020408 62.13344970959872 195.9183673469388 59.1892279603353 202.44897959183675 46.683913057971836 208.97959183673467 33.29400222947214 215.51020408163265 31.646556423733614 222.0408163265306 27.414642302071684 228.57142857142858 27.528931310804865 235.10204081632654 25.251153063675304 241.63265306122446 13.936189694055543 248.16326530612244 9.643078764418306 254.69387755102042 9.883883103478297 261.2244897959184 12.937907593634122 267.7551020408163 8.246885800702785 274.2857142857143 10.710326190818932 280.81632653061223 10.158983829703061 287.3469387755102 11.455670213897235 293.8775510204082 14.195702179035095 300.40816326530614 17.693104676009284 306.9387755102041 18.067890435613947 313.46938775510205 12.038769718153958 320 13.322576881611894 326.53061224489795 11.292806625873368 333.0612244897959 7.029645105642317 339.5918367346939 1.9718372180493589 346.12244897959187 4.695584823417448 352.65306122448976 0.06662687350035412 359.1836734693877 0 365.71428571428567 3.134086082714987 372.2448979591837 11.121746188456655 378.7755102040816 13.499879495260757 385.3061224489796 18.048145139603776 391.8367346938776 21.31466836939444 398.36734693877554 21.568472476351985 404.8979591836735 27.066587740623504 411.42857142857144 30.681048753116272 417.95918367346934 36.747878229974106 424.48979591836735 42.80363667553377 431.0204081632653 46.96037484126987 437.55102040816325 38.515001315239715 444.0816326530612 42.63109193870781 450.61224489795916 50.61550440719367 457.14285714285717 58.06902012794035 463.6734693877551 56.64271438099155 470.2040816326531 59.47482221702518 476.7346938775511 65.88371055647576 483.2653061224489 69.96890817979516 489.7959183673469 77.37888595384123 496.3265306122449 75.26398120728626 502.85714285714283 75.90630316798587 509.38775510204084 75.9395699296631 515.9183673469388 75.35352107381368 522.4489795918367 79.27364818156798 528.9795918367347 86.14821082265505 535.5102040816327 89.35236428654929 542.0408163265306 84.9995800276377 548.5714285714286 87.49742640677289 555.1020408163265 94.56945775125516 561.6326530612245 96.00367074485553 568.1632653061224 96.87076637908407 574.6938775510204 100.59157414731516 581.2244897959183 100.44788693463872 587.7551020408164 101.47597991063594 594.2857142857143 102.08141864847835 600.8163265306123 104.23709021712438 607.3469387755102 99.74136367343905 613.8775510204082 84.61166255442976 620.4081632653061 84.30011419418562 626.9387755102041 89.10631898931527 633.469387755102 96.12926316350976 640 96.93396736049993 640 320 0 320"
      />
      
      <polygon
        fill="#2770da"
        fillRule="evenodd"
        points="0 313.6135509382401 6.530612244897958 304.26911533248244 13.061224489795917 297.2680492986477 19.591836734693878 285.9388223728411 26.122448979591834 278.8280115243342 32.6530612244898 274.98420310902054 39.183673469387756 267.09074776566973 45.71428571428571 257.0788118182184 52.24489795918367 246.2221442742601 58.775510204081634 230.99233923818423 65.3061224489796 221.54627225852767 71.83673469387755 206.62809379506365 78.36734693877551 198.27730510500578 84.89795918367348 192.17034421697804 91.42857142857142 182.12949647074373 97.9591836734694 170.61724500187034 104.48979591836734 156.95194008924435 111.0204081632653 154.80425487252913 117.55102040816327 149.8879136229109 124.08163265306122 142.5256922744207 130.6122448979592 138.28617149217342 137.14285714285714 123.78690828055431 143.6734693877551 127.17492214514715 150.20408163265307 110.77253795100506 156.73469387755102 93.05722689400147 163.26530612244898 88.01890820122344 169.79591836734696 78.10631065788397 176.32653061224488 68.78379147424232 182.85714285714283 65.97376588611337 189.3877551020408 62.13344970959872 195.9183673469388 59.1892279603353 202.44897959183675 46.683913057971836 208.97959183673467 33.29400222947214 215.51020408163265 31.646556423733614 222.0408163265306 27.414642302071684 228.57142857142858 27.528931310804865 235.10204081632654 25.251153063675304 241.63265306122446 14.574398706015984 248.16326530612244 11.080089108538061 254.69387755102042 11.277029504563643 261.2244897959184 14.289880294337195 267.7551020408163 9.557590269542516 274.2857142857143 11.981022059781878 280.81632653061223 11.394593825671222 287.3469387755102 12.653563895655452 293.8775510204082 15.35819279357844 300.40816326530614 18.820110946814452 306.9387755102041 19.161588641779986 313.46938775510205 13.099083412483026 320 14.350525154571756 326.53061224489795 12.290374330313739 333.0612244897959 7.9967626787232575 339.5918367346939 2.9103720675304317 346.12244897959187 5.605471496523137 352.65306122448976 0.9487397864314175 359.1836734693877 0.8577562602976627 365.71428571428567 3.9656597942700387 372.2448979591837 11.928743256181292 378.7755102040816 14.282243405769577 385.3061224489796 18.8073867525697 391.8367346938776 22.050734510859286 398.36734693877554 22.282070663076524 404.8979591836735 27.75909594362355 411.42857142857144 31.35241852500775 417.95918367346934 37.399406008370306 424.48979591836735 43.43527697229695 431.0204081632653 47.57273467181102 437.55102040816325 40.230542709037366 444.0816326530612 44.29426741300745 450.61224489795916 52.229525771819624 457.14285714285717 59.63377435612165 463.6734693877551 58.16122308932256 470.2040816326531 60.946979263092885 476.7346938775511 67.31093082994931 483.2653061224489 71.35394778710875 489.7959183673469 78.72164810297835 496.3265306122449 76.56705873237286 502.85714285714283 77.16960492834386 509.38775510204084 77.16431003831585 515.9183673469388 76.54444418910313 522.4489795918367 80.4282190102698 528.9795918367347 87.26865897195393 535.5102040816327 90.43861145971843 542.0408163265306 86.05372379604302 548.5714285714286 88.51939299475845 555.1020408163265 95.560229258709 561.6326530612245 96.9651606122585 568.1632653061224 97.80290730413168 574.6938775510204 101.49616613271075 581.2244897959183 101.32486678814223 587.7551020408164 102.32619045232812 594.2857142857143 102.90815358121677 600.8163265306123 105.03858945720606 607.3469387755102 100.51917500946558 613.8775510204082 85.37682882522645 620.4081632653061 85.30634879142366 626.9387755102041 90.0818387670466 633.469387755102 97.0750058843027 640 97.87760495768367 640 320 0 320"
      />
      
      <polygon
        fill="#89e051"
        fillRule="evenodd"
        points="0 313.6135509382401 6.530612244897958 304.90984498528763 13.061224489795917 298.33447969356666 19.591836734693878 288.0768220789484 26.122448979591834 281.2713557237472 32.6530612244898 277.3529660798538 39.183673469387756 269.9999440290595 45.71428571428571 260.0717293741496 52.24489795918367 250.17319305571914 58.775510204081634 235.1816102292401 65.3061224489796 226.78749142158708 71.83673469387755 213.32787380840801 78.36734693877551 205.81367228645877 84.89795918367348 200.42203419900278 91.42857142857142 190.45084587923077 97.9591836734694 178.68458934796607 104.48979591836734 164.7808606270845 111.0204081632653 162.39420085348428 117.55102040816327 158.35637456642246 124.08163265306122 150.82949068040892 130.6122448979592 146.4702770137476 137.14285714285714 132.5869676784832 143.6734693877551 135.70636366047302 150.20408163265307 119.0518362631123 156.73469387755102 102.43439430562665 163.26530612244898 97.17061289267451 169.79591836734696 87.08400447033671 176.32653061224488 77.51850691057601 182.85714285714283 74.59629053858004 189.3877551020408 71.2927076718986 195.9183673469388 68.12756133006695 202.44897959183675 55.43677658640985 208.97959183673467 42.60286602212858 215.51020408163265 40.816444040084775 222.0408163265306 36.30462579898085 228.57142857142858 36.65731035927689 235.10204081632654 34.26575730946104 241.63265306122446 23.330674718172645 248.16326530612244 19.768515561090396 254.69387755102042 20.331867170748808 261.2244897959184 23.77169611065125 267.7551020408163 19.357850792923614 274.2857142857143 21.657348728799093 280.81632653061223 22.197625189518362 287.3469387755102 24.0334793774407 293.8775510204082 26.40178067809768 300.40816326530614 29.526600596992807 306.9387755102041 29.794730082698266 313.46938775510205 23.469471005179173 320 24.7010215768521 326.53061224489795 22.40432586027839 333.0612244897959 17.80199226996251 339.5918367346939 12.431460576690654 346.12244897959187 14.835932214466993 352.65306122448976 10.202303176360715 359.1836734693877 9.855814414330098 365.71428571428567 12.717213342432558 372.2448979591837 20.455524574988658 378.7755102040816 22.802368269779947 385.3061224489796 27.111535130541483 391.8367346938776 30.80870222552244 398.36734693877554 30.77270745905156 404.8979591836735 35.998793785248836 411.42857142857144 39.340607140847965 417.95918367346934 45.23235913589531 424.48979591836735 51.02913224100496 431.0204081632653 55.069581529037805 437.55102040816325 47.537933065255345 444.0816326530612 51.378604574305086 450.61224489795916 59.10448803251592 457.14285714285717 66.29888392123036 463.6734693877551 64.91777028462644 470.2040816326531 67.49728897545421 476.7346938775511 73.66129495145299 483.2653061224489 78.63262420592093 489.7959183673469 85.77814574307101 496.3265306122449 83.41500297098591 502.85714285714283 83.84696299911889 509.38775510204084 83.63784487797616 515.9183673469388 82.83923489685193 522.4489795918367 87.04905187912684 528.9795918367347 93.69381732612482 535.5102040816327 96.66764627466765 542.0408163265306 92.09866389449485 548.5714285714286 94.37981462907328 555.1020408163265 101.24176414187764 561.6326530612245 102.47878015018702 568.1632653061224 103.14822761680523 574.6938775510204 106.68350790008944 581.2244897959183 106.35386709153963 587.7551020408164 107.20168303573195 594.2857142857143 107.64902737583927 600.8163265306123 109.63475045313868 607.3469387755102 105.6459094589654 613.8775510204082 90.34707113422121 620.4081632653061 90.129697398807 626.9387755102041 94.75795890807319 633.469387755102 101.60839078412491 640 102.4008979026296 640 320 0 320"
      />
      
      <polygon
        fill="#0141ae"
        fillRule="evenodd"
        points="0 313.6957890657499 6.530612244897958 304.98957284678266 13.061224489795917 298.4118512345916 19.591836734693878 288.15459447969175 26.122448979591834 281.34682960385607 32.6530612244898 277.4261361589229 39.183673469387756 270.0708806374834 45.71428571428571 260.1686601013036 52.24489795918367 250.62554828472008 58.775510204081634 236.59145633573564 65.3061224489796 228.16532947681281 71.83673469387755 215.5629105936957 78.36734693877551 209.34788409068642 84.89795918367348 203.84836636866288 91.42857142857142 193.8095237173455 97.9591836734694 182.16684962993864 104.48979591836734 169.20017038126446 111.0204081632653 166.6897185505221 117.55102040816327 162.5207737082725 124.08163265306122 154.87485598667126 130.6122448979592 151.50323500090616 137.14285714285714 138.330514494039 143.6734693877551 141.27459156903558 150.20408163265307 124.45549873442297 156.73469387755102 107.98202637323226 163.26530612244898 102.61893686501617 169.79591836734696 92.52509503759137 176.32653061224488 83.01586497871088 182.85714285714283 79.93117827479023 189.3877551020408 76.46475136857867 195.9183673469388 73.61555769901753 202.44897959183675 61.01128703666075 208.97959183673467 50.211052468885384 215.51020408163265 49.30688252545258 222.0408163265306 44.5358969810726 228.57142857142858 46.72646773588201 235.10204081632654 45.53585700809214 241.63265306122446 38.06180107857625 248.16326530612244 34.37978011343324 254.69387755102042 35.18786139765092 261.2244897959184 40.45916174905648 267.7551020408163 36.7669224928502 274.2857142857143 38.535019927449866 280.81632653061223 38.690010731301186 287.3469387755102 40.0224395712778 293.8775510204082 41.960281497260155 300.40816326530614 45.10750332216065 306.9387755102041 44.91792576125994 313.46938775510205 38.14221595583075 320 38.9258856173588 326.53061224489795 36.368726899707326 333.0612244897959 33.69992481252825 339.5918367346939 28.417314589358455 346.12244897959187 30.372822315020812 352.65306122448976 26.29388345810588 359.1836734693877 25.53668931841719 365.71428571428567 28.08376079646399 372.2448979591837 35.36791505053827 378.7755102040816 37.58880890437803 385.3061224489796 41.460965975329486 391.8367346938776 45.37438719119916 398.36734693877554 45.02182601709143 404.8979591836735 49.826794117476254 411.42857142857144 53.20079338738202 417.95918367346934 58.85790077838851 424.48979591836735 64.62535165656132 431.0204081632653 68.63074004024065 437.55102040816325 63.21858088828441 444.0816326530612 66.938676465584 450.61224489795916 74.20468379070223 457.14285714285717 80.93815650741843 463.6734693877551 80.26631360155909 470.2040816326531 82.7432286447364 476.7346938775511 88.44186333154141 483.2653061224489 93.4075022018493 489.7959183673469 100.10202226245977 496.3265306122449 98.34490745845471 502.85714285714283 99.94033115887748 509.38775510204084 99.86314302238651 515.9183673469388 98.67428037156841 522.4489795918367 102.40074042284061 528.9795918367347 108.59179380582805 535.5102040816327 111.11087289909963 542.0408163265306 106.11502745060105 548.5714285714286 107.96833486649464 555.1020408163265 114.41550490030568 561.6326530612245 115.26318231724349 568.1632653061224 115.6860900369411 574.6938775510204 118.85082129925908 581.2244897959183 118.14978376896082 587.7551020408164 118.63753649398427 594.2857142857143 118.7993556878263 600.8163265306123 120.44472535978105 607.3469387755102 116.14468570207566 613.8775510204082 101.00076803471367 620.4081632653061 100.55555082432238 626.9387755102041 104.86556901967703 633.469387755102 111.40747480157191 640 112.17816775328018 640 320 0 320"
      />
      
      <polygon
        fill="#26c0b0"
        fillRule="evenodd"
        points="0 313.6957890657499 6.530612244897958 305.0750739616112 13.061224489795917 298.52242432793673 19.591836734693878 288.39203462623476 26.122448979591834 281.72967881454844 32.6530612244898 277.85566476841376 39.183673469387756 270.54540925290917 45.71428571428571 260.800066247698 52.24489795918367 251.72754697144265 58.775510204081634 237.79094092067095 65.3061224489796 230.20548581185625 71.83673469387755 218.2168026033378 78.36734693877551 212.42852038779313 84.89795918367348 207.47604453087294 91.42857142857142 198.30979721911007 97.9591836734694 186.52975491534232 104.48979591836734 173.80647943445246 111.0204081632653 171.15542137586422 117.55102040816327 166.8782639838308 124.08163265306122 159.35256153582873 130.6122448979592 156.04887816779762 137.14285714285714 143.12364559970786 143.6734693877551 145.92423714124408 150.20408163265307 128.9677275915106 156.73469387755102 112.62420776023774 163.26530612244898 107.34722656721416 169.79591836734696 97.39182948476792 176.32653061224488 88.07449114005252 182.85714285714283 84.90346636833948 189.3877551020408 81.47885381879829 195.9183673469388 78.54025073307116 202.44897959183675 65.8389931343196 208.97959183673467 55.25784369979084 215.51020408163265 54.274693731355455 222.0408163265306 49.44586540116285 228.57142857142858 52.03143389501446 235.10204081632654 50.756858867125686 241.63265306122446 43.28761952207867 248.16326530612244 39.62420173592051 254.69387755102042 40.272200327374435 261.2244897959184 46.01541868405121 267.7551020408163 42.226096829701305 274.2857142857143 45.29501392551009 280.81632653061223 46.22621083863635 287.3469387755102 47.34235843129926 293.8775510204082 49.122387242078844 300.40816326530614 52.19640676500529 306.9387755102041 51.847957747319015 313.46938775510205 44.89914435960759 320 45.54034069378508 326.53061224489795 42.90211465492604 333.0612244897959 40.52997639953941 339.5918367346939 35.11172326229166 346.12244897959187 37.18669874359068 352.65306122448976 32.91351824319065 359.1836734693877 31.97354645714114 365.71428571428567 34.32976781409303 372.2448979591837 41.45127068790589 378.7755102040816 43.65074668790891 385.3061224489796 47.72252033906295 391.8367346938776 51.45038242248984 398.36734693877554 51.04919466547403 404.8979591836735 55.67602610146548 411.42857142857144 59.07780262510062 417.95918367346934 64.6495871342211 424.48979591836735 70.24025037388785 431.0204081632653 74.11922365732573 437.55102040816325 68.67707007740023 444.0816326530612 72.31792669564015 450.61224489795916 79.435849016981 457.14285714285717 86.08174150169188 463.6734693877551 85.88891868963327 470.2040816326531 88.9521451054602 476.7346938775511 94.47241440278802 483.2653061224489 100.00806526060774 489.7959183673469 106.58860645383453 496.3265306122449 104.63978684084293 502.85714285714283 106.09853343223341 509.38775510204084 105.83337160321713 515.9183673469388 104.49625440846512 522.4489795918367 108.04499887144158 528.9795918367347 114.08033742985339 535.5102040816327 116.43187992031915 542.0408163265306 111.27877570155351 548.5714285714286 112.97446317527104 555.1020408163265 119.26882050097834 561.6326530612245 119.97306232173824 568.1632653061224 120.25220450983826 574.6938775510204 123.28198653419724 581.2244897959183 122.6888623409946 587.7551020408164 123.0380622263458 594.2857142857143 123.07837517536109 600.8163265306123 124.59595369751366 607.3469387755102 120.75480211341949 613.8775510204082 105.4701615951343 620.4081632653061 104.89285657361845 626.9387755102041 109.07048106630558 633.469387755102 115.48403395534663 640 116.24565188486244 640 320 0 320"
      />
      
      <polygon
        fill="#dea584"
        fillRule="evenodd"
        points="0 313.6957890657499 6.530612244897958 305.0750739616112 13.061224489795917 298.52242432793673 19.591836734693878 288.39203462623476 26.122448979591834 281.72967881454844 32.6530612244898 277.85566476841376 39.183673469387756 270.54540925290917 45.71428571428571 260.800066247698 52.24489795918367 251.72754697144265 58.775510204081634 237.79094092067095 65.3061224489796 230.20548581185625 71.83673469387755 218.60519709236664 78.36734693877551 212.80505936523826 84.89795918367348 207.84108988790473 91.42857142857142 198.66405384204802 97.9591836734694 187.9961968141119 104.48979591836734 176.3319327536464 111.0204081632653 173.6037867382016 117.55102040816327 169.25189419567667 124.08163265306122 162.75990356394084 130.6122448979592 159.35221326952188 137.14285714285714 148.55734329137687 143.6734693877551 151.19207482812715 150.20408163265307 136.327122592566 156.73469387755102 123.07430491436719 163.26530612244898 117.47834213711442 169.79591836734696 107.2235258357029 176.32653061224488 98.72226132768202 182.85714285714283 95.23654742024618 189.3877551020408 91.49652441868025 195.9183673469388 88.25213500772452 202.44897959183675 76.38154094676693 208.97959183673467 66.58269562130994 215.51020408163265 65.26484358607814 222.0408163265306 60.100546662078784 228.57142857142858 62.37122154450384 235.10204081632654 60.78103158888655 241.63265306122446 53.00581130706155 248.16326530612244 49.05517605562193 254.69387755102042 49.415299982497004 261.2244897959184 54.88829660669086 267.7551020408163 51.931095821722295 274.2857142857143 54.70377499116205 280.81632653061223 55.375180282230076 287.3469387755102 56.21206081543278 293.8775510204082 57.72994961610823 300.40816326530614 60.54122977878967 306.9387755102041 61.06418264070817 313.46938775510205 54.08986794742822 320 54.450522588423894 326.53061224489795 51.54896164098841 333.0612244897959 48.91288121501043 339.5918367346939 43.246876478354125 346.12244897959187 45.073532143841476 352.65306122448976 41.66887606696059 359.1836734693877 40.487156458073 365.71428571428567 42.58350358067224 372.2448979591837 49.461070022354704 378.7755102040816 51.47792353092791 385.3061224489796 55.318369400010795 391.8367346938776 58.81437247554305 398.36734693877554 58.18840426904336 404.8979591836735 62.60424041154431 411.42857142857144 65.79453614033173 417.95918367346934 71.16781049858585 424.48979591836735 76.55950829500242 431.0204081632653 80.24559081037151 437.55102040816325 74.62832434043077 444.0816326530612 78.0875214553295 450.61224489795916 85.03492747992706 457.14285714285717 91.5099105402349 463.6734693877551 91.15666184503522 470.2040816326531 94.05909185541543 476.7346938775511 99.42347658250793 483.2653061224489 104.81280144136127 489.7959183673469 111.24667909658297 496.3265306122449 109.1601939040712 502.85714285714283 110.48095720796354 509.38775510204084 110.08202470195457 515.9183673469388 108.62759517208829 522.4489795918367 112.05023268690155 528.9795918367347 117.96719861633585 535.5102040816327 120.20009721357371 542.0408163265306 116.053991344763 548.5714285714286 117.6039181588722 555.1020408163265 123.75696253116033 561.6326530612245 124.68673632667944 568.1632653061224 124.82199677111109 574.6938775510204 127.71672033254964 581.2244897959183 126.98822962709994 587.7551020408164 127.2061941286828 594.2857142857143 127.1563755232172 600.8163265306123 128.5494758129763 607.3469387755102 124.59147900258671 613.8775510204082 109.18972610382028 620.4081632653061 108.50249288888887 626.9387755102041 112.56993446691939 633.469387755102 118.87666873451747 640 119.63073627022953 640 320 0 320"
      />
      
      <polygon
        fill="#701516"
        fillRule="evenodd"
        points="0 313.6957890657499 6.530612244897958 305.0750739616112 13.061224489795917 298.52242432793673 19.591836734693878 288.39203462623476 26.122448979591834 281.72967881454844 32.6530612244898 277.85566476841376 39.183673469387756 270.54540925290917 45.71428571428571 260.800066247698 52.24489795918367 251.72754697144265 58.775510204081634 237.79094092067095 65.3061224489796 230.20548581185625 71.83673469387755 218.60519709236664 78.36734693877551 212.80505936523826 84.89795918367348 207.84108988790473 91.42857142857142 198.66405384204802 97.9591836734694 187.9961968141119 104.48979591836734 176.3319327536464 111.0204081632653 173.6037867382016 117.55102040816327 169.25189419567667 124.08163265306122 162.75990356394084 130.6122448979592 159.35221326952188 137.14285714285714 148.55734329137687 143.6734693877551 151.19207482812715 150.20408163265307 136.327122592566 156.73469387755102 123.07430491436719 163.26530612244898 117.47834213711442 169.79591836734696 107.2235258357029 176.32653061224488 98.72226132768202 182.85714285714283 95.23654742024618 189.3877551020408 91.49652441868025 195.9183673469388 88.25213500772452 202.44897959183675 76.38154094676693 208.97959183673467 66.58269562130994 215.51020408163265 65.26484358607814 222.0408163265306 60.100546662078784 228.57142857142858 62.37122154450384 235.10204081632654 60.78103158888655 241.63265306122446 53.00581130706155 248.16326530612244 49.05517605562193 254.69387755102042 49.415299982497004 261.2244897959184 54.88829660669086 267.7551020408163 51.931095821722295 274.2857142857143 54.70377499116205 280.81632653061223 55.375180282230076 287.3469387755102 56.21206081543278 293.8775510204082 57.72994961610823 300.40816326530614 60.54122977878967 306.9387755102041 61.06418264070817 313.46938775510205 54.08986794742822 320 54.450522588423894 326.53061224489795 51.54896164098841 333.0612244897959 48.91288121501043 339.5918367346939 43.246876478354125 346.12244897959187 45.073532143841476 352.65306122448976 41.66887606696059 359.1836734693877 40.487156458073 365.71428571428567 42.58350358067224 372.2448979591837 49.461070022354704 378.7755102040816 51.47792353092791 385.3061224489796 55.318369400010795 391.8367346938776 58.81437247554305 398.36734693877554 58.18840426904336 404.8979591836735 62.60424041154431 411.42857142857144 65.79453614033173 417.95918367346934 71.16781049858585 424.48979591836735 76.55950829500242 431.0204081632653 80.24559081037151 437.55102040816325 74.62832434043077 444.0816326530612 78.0875214553295 450.61224489795916 85.03492747992706 457.14285714285717 91.5099105402349 463.6734693877551 91.15666184503522 470.2040816326531 94.05909185541543 476.7346938775511 99.42347658250793 483.2653061224489 104.81280144136127 489.7959183673469 111.24667909658297 496.3265306122449 109.1601939040712 502.85714285714283 110.48095720796354 509.38775510204084 110.08202470195457 515.9183673469388 108.62759517208829 522.4489795918367 112.05023268690155 528.9795918367347 117.96719861633585 535.5102040816327 120.20009721357371 542.0408163265306 116.053991344763 548.5714285714286 117.6039181588722 555.1020408163265 123.75696253116033 561.6326530612245 124.68673632667944 568.1632653061224 124.82199677111109 574.6938775510204 127.71672033254964 581.2244897959183 126.98822962709994 587.7551020408164 127.2061941286828 594.2857142857143 127.1563755232172 600.8163265306123 128.5494758129763 607.3469387755102 124.59147900258671 613.8775510204082 109.20928233686809 620.4081632653061 108.52147114721319 626.9387755102041 112.58833342605189 633.469387755102 118.89450607492773 640 119.64853390947272 640 320 0 320"
      />
      
      <polygon
        fill="#3572A5"
        fillRule="evenodd"
        points="0 313.6957890657499 6.530612244897958 305.0750739616112 13.061224489795917 298.52242432793673 19.591836734693878 288.39203462623476 26.122448979591834 281.72967881454844 32.6530612244898 277.85566476841376 39.183673469387756 270.54540925290917 45.71428571428571 260.800066247698 52.24489795918367 251.72754697144265 58.775510204081634 237.79094092067095 65.3061224489796 230.20548581185625 71.83673469387755 218.60519709236664 78.36734693877551 212.80505936523826 84.89795918367348 207.84108988790473 91.42857142857142 198.66405384204802 97.9591836734694 187.9961968141119 104.48979591836734 176.3319327536464 111.0204081632653 173.6037867382016 117.55102040816327 169.25189419567667 124.08163265306122 163.42153145569117 130.6122448979592 159.99364533233285 137.14285714285714 149.21623734296688 143.6734693877551 151.83085651591054 150.20408163265307 137.9482680345659 156.73469387755102 125.43987415965941 163.26530612244898 119.77170371601713 169.79591836734696 109.44910844535738 176.32653061224488 100.87990929939912 182.85714285714283 97.33042722905861 189.3877551020408 93.52648954079214 195.9183673469388 90.22013679896082 202.44897959183675 78.2952030628293 208.97959183673467 68.4738149589096 215.51020408163265 67.10007190469653 222.0408163265306 61.87975572770665 228.57142857142858 64.09784716547532 235.10204081632654 62.454952826556735 241.63265306122446 54.6286371488909 248.16326530612244 50.63004001470813 254.69387755102042 50.94209201186567 261.2244897959184 56.36996526654167 267.7551020408163 53.403370826638195 274.2857142857143 56.13110983268069 280.81632653061223 56.76310402448388 287.3469387755102 57.557618938628764 293.8775510204082 59.03574050295924 300.40816326530614 61.80716208311446 306.9387755102041 62.29270102881111 313.46938775510205 55.28088651896337 320 55.605185893574685 326.53061224489795 52.66949949244281 333.0612244897959 49.999215418793256 339.5918367346939 44.301104503079614 346.12244897959187 46.095580727611775 352.65306122448976 42.65972700140895 359.1836734693877 41.45064849197206 365.71428571428567 43.51758558638369 372.2448979591837 50.36754565026422 378.7755102040816 52.37906121269958 385.3061224489796 56.19287437823658 391.8367346938776 59.66218361301503 398.36734693877554 59.01033638602854 404.8979591836735 63.40188081491357 411.42857142857144 66.56782903596084 417.95918367346934 71.91824907287088 424.48979591836735 77.28704024737385 431.0204081632653 80.95091532443459 437.55102040816325 75.3134881049541 444.0816326530612 78.75177099275717 450.61224489795916 85.67954545915669 457.14285714285717 92.1348518944103 463.6734693877551 91.7631334431913 470.2040816326531 94.64705123031183 476.7346938775511 99.99348879607334 483.2653061224489 105.3659673024188 489.7959183673469 111.78295991915135 496.3265306122449 109.68062525997641 502.85714285714283 110.98550268203499 509.38775510204084 110.57116911738873 515.9183673469388 109.10323356655269 522.4489795918367 112.5113524535551 528.9795918367347 118.41469026228145 535.5102040816327 120.63392951259718 542.0408163265306 116.47500188688812 548.5714285714286 118.01207759823916 555.1020408163265 124.1526631528657 561.6326530612245 125.07074219169488 568.1632653061224 125.19428113319259 574.6938775510204 128.07800203168537 581.2244897959183 127.33848332474281 587.7551020408164 127.54575655213392 594.2857142857143 127.48656211913769 600.8163265306123 128.86958362677686 607.3469387755102 124.90212621877845 613.8775510204082 109.52986347595996 620.4081632653061 108.83257768365183 626.9387755102041 112.88994359704623 633.469387755102 119.18690978387014 640 119.94028678971759 640 320 0 320"
      />
      
      <polygon
        fill="#0298c3"
        fillRule="evenodd"
        points="0 313.6957890657499 6.530612244897958 305.0750739616112 13.061224489795917 298.52242432793673 19.591836734693878 288.39203462623476 26.122448979591834 281.72967881454844 32.6530612244898 277.85566476841376 39.183673469387756 270.54540925290917 45.71428571428571 260.800066247698 52.24489795918367 251.72754697144265 58.775510204081634 237.79094092067095 65.3061224489796 230.20548581185625 71.83673469387755 218.60519709236664 78.36734693877551 212.80505936523826 84.89795918367348 207.84108988790473 91.42857142857142 198.66405384204802 97.9591836734694 187.9961968141119 104.48979591836734 176.3319327536464 111.0204081632653 173.6037867382016 117.55102040816327 169.25189419567667 124.08163265306122 163.42153145569117 130.6122448979592 159.99364533233285 137.14285714285714 149.21623734296688 143.6734693877551 151.83085651591054 150.20408163265307 137.9482680345659 156.73469387755102 126.07798552676485 163.26530612244898 120.39033709748077 169.79591836734696 110.04945846222222 176.32653061224488 101.46193397763244 182.85714285714283 97.89525049659571 189.3877551020408 94.07407187936388 195.9183673469388 90.75100453313894 202.44897959183675 78.81141266333569 208.97959183673467 68.97426749727569 215.51020408163265 67.69020806217497 222.0408163265306 62.451878336038874 228.57142857142858 64.65306096887107 235.10204081632654 62.99321905683354 241.63265306122446 55.150473119304365 248.16326530612244 51.13645345139781 254.69387755102042 51.43304742442558 261.2244897959184 56.84641077490244 267.7551020408163 53.86527311872777 274.2857142857143 56.57891279545419 280.81632653061223 57.19854241337248 287.3469387755102 57.97976584163405 293.8775510204082 59.44541104860309 300.40816326530614 62.204327675623745 306.9387755102041 62.67812860620273 313.46938775510205 55.65454915004034 320 55.96744270548902 326.53061224489795 53.021049987329604 333.0612244897959 50.34003502874265 339.5918367346939 44.63185135215355 346.12244897959187 46.41623173779851 352.65306122448976 42.97059031451158 359.1836734693877 41.75292835685946 365.71428571428567 43.810638541648814 372.2448979591837 50.65193756957353 378.7755102040816 52.654772244441915 385.3061224489796 56.460436899053605 391.8367346938776 59.9215789632143 398.36734693877554 59.26181382046559 404.8979591836735 63.64592597879772 411.42857142857144 66.80442486224962 417.95918367346934 72.14785243632289 424.48979591836735 77.50963510846279 431.0204081632653 81.16671559146204 437.55102040816325 75.52312004898286 444.0816326530612 78.9550040391745 450.61224489795916 85.87677206773685 457.14285714285717 92.32605826561209 463.6734693877551 91.9486888149251 470.2040816326531 94.8269426250493 476.7346938775511 100.16788912422373 483.2653061224489 105.53521331183347 489.7959183673469 111.94703978312006 496.3265306122449 109.83985583363878 502.85714285714283 111.1398728476668 509.38775510204084 110.72082720721414 515.9183673469388 109.24875935653094 522.4489795918367 112.65243614758216 528.9795918367347 118.55160430625116 535.5102040816327 120.76666434033459 542.0408163265306 116.60381380200917 548.5714285714286 118.13695759970284 555.1020408163265 124.2737312751027 561.6326530612245 125.18823219461797 568.1632653061224 125.30818483777355 574.6938775510204 128.1885393674702 581.2244897959183 127.44564656481054 587.7551020408164 127.64964869469827 594.2857142857143 127.58758563506231 600.8163265306123 128.96752346105214 607.3469387755102 127.49637728943344 613.8775510204082 116.37773732972022 620.4081632653061 115.5787027831565 626.9387755102041 119.63566693775593 633.469387755102 125.72672454954085 640 126.46554668708464 640 320 0 320"
      />
      
      <polygon
        fill="#fd2fdb"
        fillRule="evenodd"
        points="0 313.6957890657499 6.530612244897958 305.0750739616112 13.061224489795917 298.52242432793673 19.591836734693878 288.39203462623476 26.122448979591834 281.72967881454844 32.6530612244898 277.85566476841376 39.183673469387756 270.54540925290917 45.71428571428571 260.800066247698 52.24489795918367 251.72754697144265 58.775510204081634 237.79094092067095 65.3061224489796 230.20548581185625 71.83673469387755 218.60519709236664 78.36734693877551 212.80505936523826 84.89795918367348 207.84108988790473 91.42857142857142 198.66405384204802 97.9591836734694 187.9961968141119 104.48979591836734 176.3319327536464 111.0204081632653 173.6037867382016 117.55102040816327 169.25189419567667 124.08163265306122 163.42153145569117 130.6122448979592 159.99364533233285 137.14285714285714 149.21623734296688 143.6734693877551 151.83085651591054 150.20408163265307 137.9482680345659 156.73469387755102 126.07798552676485 163.26530612244898 120.39033709748077 169.79591836734696 110.04945846222222 176.32653061224488 101.46193397763244 182.85714285714283 97.89525049659571 189.3877551020408 94.07407187936388 195.9183673469388 90.75100453313894 202.44897959183675 78.81141266333569 208.97959183673467 68.97426749727569 215.51020408163265 67.69020806217497 222.0408163265306 62.451878336038874 228.57142857142858 64.65306096887107 235.10204081632654 62.99321905683354 241.63265306122446 55.150473119304365 248.16326530612244 51.13645345139781 254.69387755102042 51.43304742442558 261.2244897959184 56.84641077490244 267.7551020408163 53.86527311872777 274.2857142857143 56.57891279545419 280.81632653061223 58.328145936622775 287.3469387755102 59.07488890437554 293.8775510204082 60.50816827896887 300.40816326530614 63.23464488695146 306.9387755102041 64.55875618241168 313.46938775510205 57.47777166229514 320 57.73501227424282 326.53061224489795 54.736379918314015 333.0612244897959 52.00300571908366 339.5918367346939 46.24567378966259 346.12244897959187 47.980793101207894 352.65306122448976 44.487394373633265 359.1836734693877 43.22785096250948 365.71428571428567 45.24054001563292 372.2448979591837 52.03957895040321 378.7755102040816 54.00005674010055 385.3061224489796 57.765962275744414 391.8367346938776 61.187253874756095 398.36734693877554 60.48885464041712 404.8979591836735 64.83670226203654 411.42857142857144 67.95885348272321 417.95918367346934 73.26816253883379 424.48979591836735 78.59574839628414 431.0204081632653 82.21967586682379 437.55102040816325 76.54598304201375 444.0816326530612 79.94664461974543 450.61224489795916 86.83910532035443 457.14285714285717 93.25901678522015 463.6734693877551 92.85407424825291 470.2040816326531 95.7046917798566 476.7346938775511 101.01884538572529 483.2653061224489 106.36101998652742 489.7959183673469 112.7476392273532 496.3265306122449 110.61679404813475 502.85714285714283 111.89309544599843 509.38775510204084 111.45105813612463 515.9183673469388 109.95882739866826 522.4489795918367 113.34082977538776 528.9795918367347 119.21965283785357 535.5102040816327 121.41432106485198 542.0408163265306 117.23232937093738 548.5714285714286 118.74628810727896 555.1020408163265 124.86446230275192 561.6326530612245 125.76150444961348 568.1632653061224 125.86395832918882 574.6938775510204 128.7278872331197 581.2244897959183 127.96853115650435 587.7551020408164 128.15657252946016 594.2857142857143 128.08051249138686 600.8163265306123 129.44540400867282 607.3469387755102 127.96013435083461 613.8775510204082 116.82733843539302 620.4081632653061 116.01501618420528 626.9387755102041 120.05866212722762 633.469387755102 126.13680805390513 640 126.87471746944789 640 320 0 320"
      />
      
      <polygon
        fill="#4F5D95"
        fillRule="evenodd"
        points="0 313.6957890657499 6.530612244897958 305.0750739616112 13.061224489795917 298.52242432793673 19.591836734693878 288.39203462623476 26.122448979591834 281.72967881454844 32.6530612244898 277.85566476841376 39.183673469387756 270.54540925290917 45.71428571428571 260.800066247698 52.24489795918367 251.72754697144265 58.775510204081634 237.79094092067095 65.3061224489796 230.20548581185625 71.83673469387755 218.60519709236664 78.36734693877551 212.80505936523826 84.89795918367348 207.84108988790473 91.42857142857142 198.66405384204802 97.9591836734694 187.9961968141119 104.48979591836734 176.3319327536464 111.0204081632653 173.6037867382016 117.55102040816327 169.25189419567667 124.08163265306122 163.42153145569117 130.6122448979592 159.99364533233285 137.14285714285714 149.21623734296688 143.6734693877551 151.83085651591054 150.20408163265307 137.9482680345659 156.73469387755102 126.07798552676485 163.26530612244898 120.39033709748077 169.79591836734696 110.04945846222222 176.32653061224488 101.46193397763244 182.85714285714283 97.89525049659571 189.3877551020408 94.07407187936388 195.9183673469388 90.75100453313894 202.44897959183675 78.81141266333569 208.97959183673467 68.97426749727569 215.51020408163265 67.69020806217497 222.0408163265306 62.451878336038874 228.57142857142858 64.67268804093385 235.10204081632654 63.01224702330421 241.63265306122446 55.16892026791447 248.16326530612244 51.15435540407549 254.69387755102042 51.45040293171127 261.2244897959184 56.86325334923362 267.7551020408163 53.881601582571136 274.2857142857143 56.59474284206311 280.81632653061223 58.34353889021304 287.3469387755102 59.089811996431195 293.8775510204082 60.52265032720652 300.40816326530614 63.248684879267785 306.9387755102041 64.57238123084647 313.46938775510205 57.4909808133134 320 57.74781822383346 326.53061224489795 54.748807394679545 333.0612244897959 52.01505385397297 339.5918367346939 46.25736584809522 346.12244897959187 47.9921282663085 352.65306122448976 44.49838353964128 359.1836734693877 43.238536699416954 365.71428571428567 45.250899576802226 372.2448979591837 52.0496323395177 378.7755102040816 54.00980325588057 385.3061224489796 57.77542073817489 391.8367346938776 61.19642362365778 398.36734693877554 60.49774448776816 404.8979591836735 64.84532937454841 411.42857142857144 67.96721725775768 417.95918367346934 73.27627912688897 424.48979591836735 78.60361722965735 431.0204081632653 82.22730450906101 437.55102040816325 76.55339363094947 444.0816326530612 79.9538290040943 450.61224489795916 86.8460773736389 457.14285714285717 93.26577602101409 463.6734693877551 92.86063371827129 470.2040816326531 95.71105102593006 476.7346938775511 101.02501051972499 483.2653061224489 106.36700291325496 489.7959183673469 112.75343952871228 496.3265306122449 110.62242292477009 502.85714285714283 111.89855250437142 509.38775510204084 111.45634862067737 515.9183673469388 109.96397180454511 522.4489795918367 113.34581715091122 528.9795918367347 119.22449281424025 535.5102040816327 121.41901330394631 542.0408163265306 117.23688293327359 548.5714285714286 118.7507026746353 555.1020408163265 124.86874211794793 561.6326530612245 125.76565777716661 568.1632653061224 125.86798487913401 574.6938775510204 128.73179478026032 581.2244897959183 127.97231942793212 587.7551020408164 128.16024516628107 594.2857142857143 128.08408372069155 600.8163265306123 129.4488662282808 607.3469387755102 127.96349424627931 613.8775510204082 116.83059577209252 620.4081632653061 116.01817725199658 626.9387755102041 120.06172670509213 633.469387755102 126.13977908732039 640 126.87768189018055 640 320 0 320"
      />
      
      <polygon
        fill="#755462"
        fillRule="evenodd"
        points="0 318.0212239215462 6.530612244897958 313.5273638567459 13.061224489795917 310.8961235833737 19.591836734693878 304.6063568436682 26.122448979591834 301.51236613559223 32.6530612244898 299.63474497254117 39.183673469387756 295.68733284541946 45.71428571428571 289.60724046437434 52.24489795918367 284.85404129560607 58.775510204081634 274.44712258742027 65.3061224489796 270.1967740973935 71.83673469387755 262.952375810895 78.36734693877551 259.7806294043499 84.89795918367348 257.2939519225921 91.42857142857142 251.48857843580197 97.9591836734694 243.1157567077433 104.48979591836734 233.6907995839726 111.0204081632653 232.44228702724 117.55102040816327 230.48705523691612 124.08163265306122 226.7432961559863 130.6122448979592 225.0261328896762 137.14285714285714 216.76223786591615 143.6734693877551 218.75155492378178 150.20408163265307 208.35863922555288 156.73469387755102 198.3524671781615 163.26530612244898 194.3475757002404 169.79591836734696 186.11872558240827 176.32653061224488 178.6989834202753 182.85714285714283 176.4750374279893 189.3877551020408 173.87222986086636 195.9183673469388 171.38699914232726 202.44897959183675 162.65601124669877 208.97959183673467 154.12866756833006 215.51020408163265 153.54795317862707 222.0408163265306 149.7712240036536 228.57142857142858 151.99186416839214 235.10204081632654 150.24041091223256 241.63265306122446 143.4642315524962 248.16326530612244 140.69792407204153 254.69387755102042 142.92935982440628 261.2244897959184 147.05367422743652 267.7551020408163 144.44708638748224 274.2857142857143 147.1406534652752 280.81632653061223 149.5342466914625 287.3469387755102 150.79094561281357 293.8775510204082 152.38222589864478 300.40816326530614 155.0354609350431 306.9387755102041 154.49045896682696 313.46938775510205 148.88683220386568 320 148.96291309219293 326.53061224489795 145.90477487659857 333.0612244897959 141.78910465826016 339.5918367346939 137.45874954162048 346.12244897959187 139.37106674185992 352.65306122448976 135.06404302228935 359.1836734693877 134.18777821723967 365.71428571428567 137.0969365961109 372.2448979591837 142.45245107068715 378.7755102040816 144.3992231771101 385.3061224489796 146.97586581739154 391.8367346938776 149.82617084836608 398.36734693877554 149.06455635137053 404.8979591836735 151.71937627997679 411.42857142857144 154.1923610308143 417.95918367346934 158.3028911306895 424.48979591836735 162.4215682104911 431.0204081632653 164.48549940827718 437.55102040816325 158.22330679264326 444.0816326530612 161.3478540930218 450.61224489795916 165.87465251189332 457.14285714285717 170.07077960412437 463.6734693877551 168.56367868778693 470.2040816326531 169.21376788199257 476.7346938775511 173.47276015597993 483.2653061224489 177.15372756365525 489.7959183673469 181.49368091368535 496.3265306122449 177.55144113050054 502.85714285714283 179.11014791267712 509.38775510204084 179.84337107122153 515.9183673469388 178.85207275626334 522.4489795918367 181.1912461404707 528.9795918367347 185.2185124698983 535.5102040816327 189.19429376938007 542.0408163265306 186.2690621924901 548.5714285714286 186.94221963689182 555.1020408163265 190.98337161338736 561.6326530612245 194.30442380531275 568.1632653061224 196.5901404178299 574.6938775510204 200.19852444785388 581.2244897959183 201.59019001328667 587.7551020408164 203.64798441226804 594.2857142857143 205.75052186623316 600.8163265306123 209.18376620862202 607.3469387755102 208.1170864869215 613.8775510204082 198.6392801206297 620.4081632653061 199.16128134645754 626.9387755102041 200.67172104689388 633.469387755102 204.2937427966811 640 204.9093814588394 640 320 0 320"
      />
      
      <polygon
        fill="#2415b9"
        fillRule="evenodd"
        points="0 318.0212239215462 6.530612244897958 313.5273638567459 13.061224489795917 310.8961235833737 19.591836734693878 304.6063568436682 26.122448979591834 301.51236613559223 32.6530612244898 299.63474497254117 39.183673469387756 295.68733284541946 45.71428571428571 289.60724046437434 52.24489795918367 284.85404129560607 58.775510204081634 274.44712258742027 65.3061224489796 270.1967740973935 71.83673469387755 262.952375810895 78.36734693877551 259.7806294043499 84.89795918367348 257.2939519225921 91.42857142857142 251.48857843580197 97.9591836734694 243.1157567077433 104.48979591836734 233.6907995839726 111.0204081632653 232.44228702724 117.55102040816327 230.48705523691612 124.08163265306122 226.7432961559863 130.6122448979592 225.0261328896762 137.14285714285714 216.76223786591615 143.6734693877551 218.75155492378178 150.20408163265307 208.35863922555288 156.73469387755102 198.3524671781615 163.26530612244898 194.3475757002404 169.79591836734696 186.11872558240827 176.32653061224488 178.6989834202753 182.85714285714283 176.4750374279893 189.3877551020408 173.87222986086636 195.9183673469388 171.38699914232726 202.44897959183675 162.65601124669877 208.97959183673467 154.12866756833006 215.51020408163265 153.54795317862707 222.0408163265306 149.7712240036536 228.57142857142858 151.99186416839214 235.10204081632654 150.24041091223256 241.63265306122446 143.4642315524962 248.16326530612244 140.69792407204153 254.69387755102042 142.92935982440628 261.2244897959184 147.05367422743652 267.7551020408163 144.44708638748224 274.2857142857143 147.1406534652752 280.81632653061223 149.5342466914625 287.3469387755102 150.79094561281357 293.8775510204082 152.38222589864478 300.40816326530614 155.0354609350431 306.9387755102041 154.49045896682696 313.46938775510205 148.88683220386568 320 148.96291309219293 326.53061224489795 145.90477487659857 333.0612244897959 142.14873529315105 339.5918367346939 137.8183801765114 346.12244897959187 139.7306973767508 352.65306122448976 135.4236736571803 359.1836734693877 134.5474088521306 365.71428571428567 137.45656723100183 372.2448979591837 142.81208170557807 378.7755102040816 144.758853812001 385.3061224489796 147.33549645228243 391.8367346938776 150.185801483257 398.36734693877554 149.42418698626145 404.8979591836735 152.0790069148677 411.42857142857144 154.55199166570523 417.95918367346934 158.66252176558044 424.48979591836735 162.78119884538202 431.0204081632653 164.8451300431681 437.55102040816325 158.58293742753418 444.0816326530612 161.7074847279127 450.61224489795916 166.23428314678424 457.14285714285717 170.43041023901532 463.6734693877551 168.92330932267785 470.2040816326531 169.5733985168835 476.7346938775511 173.83239079087082 483.2653061224489 177.51335819854617 489.7959183673469 181.85331154857627 496.3265306122449 177.91107176539145 502.85714285714283 179.469778547568 509.38775510204084 180.20300170611245 515.9183673469388 179.2117033911543 522.4489795918367 181.55087677536162 528.9795918367347 185.5781431047892 535.5102040816327 189.553924404271 542.0408163265306 186.62869282738103 548.5714285714286 187.3018502717827 555.1020408163265 191.34300224827828 561.6326530612245 194.6640544402037 568.1632653061224 196.94977105272082 574.6938775510204 200.5581550827448 581.2244897959183 201.9498206481776 587.7551020408164 204.00761504715894 594.2857142857143 206.1101525011241 600.8163265306123 209.54339684351294 607.3469387755102 208.4767171218124 613.8775510204082 198.99891075552063 620.4081632653061 199.52091198134843 626.9387755102041 201.0313516817848 633.469387755102 204.65337343157205 640 204.9093814588394 640 320 0 320"
      />
      
      <polygon
        fill="#f1e05a"
        fillRule="evenodd"
        points="0 318.0212239215462 6.530612244897958 313.5273638567459 13.061224489795917 310.8961235833737 19.591836734693878 304.6063568436682 26.122448979591834 301.51236613559223 32.6530612244898 299.63474497254117 39.183673469387756 295.68733284541946 45.71428571428571 289.60724046437434 52.24489795918367 284.85404129560607 58.775510204081634 275.55862733933907 65.3061224489796 271.2743507814587 71.83673469387755 264.38153624026796 78.36734693877551 261.62328286255945 84.89795918367348 259.09160962878343 91.42857142857142 253.23310729179119 97.9591836734694 246.0081022208563 104.48979591836734 237.611107447016 111.0204081632653 236.28997005235743 117.55102040816327 234.21728978103604 124.08163265306122 230.5137142859748 130.6122448979592 228.68146109912243 137.14285714285714 222.603395114636 143.6734693877551 224.41441501009345 150.20408163265307 213.85413594827315 156.73469387755102 203.68021727378522 163.26530612244898 199.51269979525037 169.79591836734696 191.13119633706157 176.32653061224488 184.67463327879946 182.85714285714283 182.2740798743312 189.3877551020408 179.4942595399247 195.9183673469388 176.83742027502836 202.44897959183675 169.27902399096126 208.97959183673467 161.91436461392072 215.51020408163265 161.10354826885353 222.0408163265306 157.65203461828608 228.57142857142858 159.7499101392305 235.10204081632654 157.76164689160157 241.63265306122446 151.88566000157675 248.16326530612244 148.8704644889073 254.69387755102042 150.8524368000414 261.2244897959184 154.74258850408148 267.7551020408163 153.00425998849263 274.2857142857143 155.4476655306168 280.81632653061223 157.61188777639325 287.3469387755102 159.39927307533085 293.8775510204082 161.3843612365608 300.40816326530614 163.76281175248386 306.9387755102041 164.08008033379778 313.46938775510205 158.18373519536368 320 157.97603360473073 326.53061224489795 154.65151697787266 333.0612244897959 150.6284892551079 339.5918367346939 146.04751874893822 346.12244897959187 147.7086457671415 352.65306122448976 144.2695196862693 359.1836734693877 143.14900813922708 365.71428571428567 145.79560738417715 372.2448979591837 150.9046659571466 378.7755102040816 152.60441702810783 385.3061224489796 154.9491883303014 391.8367346938776 157.5670902836065 398.36734693877554 156.58016668009373 404.8979591836735 159.02349296990113 411.42857142857144 161.28450258789547 417.95918367346934 165.196057894124 424.48979591836735 169.1153023191049 431.0204081632653 170.98588827845126 437.55102040816325 165.6690568155067 444.0816326530612 168.57730375677204 450.61224489795916 172.9010685906515 457.14285714285717 176.8936961193393 463.6734693877551 175.19557533624734 470.2040816326531 175.65420694184 476.7346938775511 179.72758603603776 483.2653061224489 183.23432370378555 489.7959183673469 187.39964863764143 496.3265306122449 183.29348931382492 502.85714285714283 184.6879008954838 509.38775510204084 185.26184364583503 515.9183673469388 184.13086304550785 522.4489795918367 186.31988159750654 528.9795918367347 190.206202721527 535.5102040816327 194.04071504527866 542.0408163265306 190.982879330424 548.5714285714286 191.5231276700826 555.1020408163265 195.4354272781483 561.6326530612245 198.63553013897294 568.1632653061224 200.80001937453278 574.6938775510204 204.29461133959995 581.2244897959183 205.5722241592415 587.7551020408164 207.51944621496446 594.2857142857143 209.525016974602 600.8163265306123 212.8540244324999 607.3469387755102 211.68950010671622 613.8775510204082 202.11362595984446 620.4081632653061 202.5435731485689 626.9387755102041 203.9617484793563 633.469387755102 207.49432094535285 640 207.74400615230076 640 320 0 320"
      />
      
      <polygon
        fill="#22e8e8"
        fillRule="evenodd"
        points="0 319.92567425302326 6.530612244897958 319.8564689784019 13.061224489795917 319.8272328984149 19.591836734693878 318.66030282863665 26.122448979591834 318.5475298644227 32.6530612244898 318.40759769094007 39.183673469387756 318.26954429344966 45.71428571428571 316.01153540141433 52.24489795918367 316.0194985381601 58.775510204081634 310.2711996250458 65.3061224489796 309.379870622237 71.83673469387755 306.93693341167585 78.36734693877551 307.02226713385664 84.89795918367348 306.27910486345576 91.42857142857142 304.58411214762606 97.9591836734694 300.1562997696473 104.48979591836734 294.7536461752943 111.0204081632653 293.47877885812085 117.55102040816327 293.78095955742947 124.08163265306122 290.88386089869164 130.6122448979592 291.2549279521746 137.14285714285714 286.97854260491306 143.6734693877551 287.2959137220586 150.20408163265307 280.0896270249384 156.73469387755102 272.3565266070357 163.26530612244898 270.687363149088 169.79591836734696 264.64103387969493 176.32653061224488 259.71605138408086 182.85714285714283 258.48214386926315 189.3877551020408 256.4976209960154 195.9183673469388 254.70956714372758 202.44897959183675 249.75802030521376 208.97959183673467 243.84331458434593 215.51020408163265 243.32680453813197 222.0408163265306 241.83027384431458 228.57142857142858 242.76853579579475 235.10204081632654 241.70744142555856 241.63265306122446 237.2178306330382 248.16326530612244 234.04435654037277 254.69387755102042 235.73029632560616 261.2244897959184 237.40440200241622 267.7551020408163 235.56052395051907 274.2857142857143 237.0050605418142 280.81632653061223 238.39935469893322 287.3469387755102 240.81757323211346 293.8775510204082 242.54146680080265 300.40816326530614 244.59170812416323 306.9387755102041 243.76035755827957 313.46938775510205 239.79405756085603 320 239.82808324273918 326.53061224489795 237.43531410501407 333.0612244897959 235.72257413111058 339.5918367346939 231.99176530824252 346.12244897959187 232.20071923549776 352.65306122448976 229.58698656234424 359.1836734693877 229.00007953861166 365.71428571428567 230.61535573672404 372.2448979591837 233.24731959720881 378.7755102040816 234.38586808993887 385.3061224489796 235.44978303296935 391.8367346938776 235.9808100629684 398.36734693877554 235.02390020472757 404.8979591836735 236.2727349185829 411.42857142857144 237.10995041278647 417.95918367346934 239.17608680397475 424.48979591836735 241.040144902164 431.0204081632653 242.01072950979335 437.55102040816325 236.84731647569328 444.0816326530612 238.1858578969477 450.61224489795916 240.6023165211027 457.14285714285717 242.6985295107227 463.6734693877551 240.2079441283588 470.2040816326531 240.05520673718522 476.7346938775511 242.4938940281312 483.2653061224489 244.47757540679393 489.7959183673469 246.78129393697506 496.3265306122449 243.48882461250176 502.85714285714283 244.04374526555426 509.38775510204084 246.20496406122106 515.9183673469388 246.89559071783998 522.4489795918367 247.99729584321284 528.9795918367347 250.11823128119778 535.5102040816327 252.23283269893778 542.0408163265306 249.58178341533707 548.5714285714286 249.44274086149173 555.1020408163265 251.59488484046926 561.6326530612245 253.6150498633778 568.1632653061224 254.42278629058717 574.6938775510204 256.34013898760054 581.2244897959183 257.15935221478475 587.7551020408164 258.91938960759524 594.2857142857143 259.94539022378814 600.8163265306123 261.74594796059375 607.3469387755102 260.1129019812547 613.8775510204082 252.9837666387345 620.4081632653061 252.9343416038908 626.9387755102041 253.28999644402177 633.469387755102 255.3247155358265 640 255.5199187566206 640 320 0 320"
      />
      
      <polygon
        fill="#22e4e8"
        fillRule="evenodd"
        points="0 319.92567425302326 6.530612244897958 319.8564689784019 13.061224489795917 319.8272328984149 19.591836734693878 318.66030282863665 26.122448979591834 318.5475298644227 32.6530612244898 318.40759769094007 39.183673469387756 318.26954429344966 45.71428571428571 316.01153540141433 52.24489795918367 316.0194985381601 58.775510204081634 310.2711996250458 65.3061224489796 309.379870622237 71.83673469387755 306.93693341167585 78.36734693877551 307.02226713385664 84.89795918367348 306.27910486345576 91.42857142857142 304.58411214762606 97.9591836734694 300.1562997696473 104.48979591836734 294.7536461752943 111.0204081632653 293.47877885812085 117.55102040816327 293.78095955742947 124.08163265306122 290.88386089869164 130.6122448979592 291.2549279521746 137.14285714285714 286.97854260491306 143.6734693877551 287.2959137220586 150.20408163265307 280.0896270249384 156.73469387755102 272.3565266070357 163.26530612244898 270.687363149088 169.79591836734696 264.64103387969493 176.32653061224488 259.71605138408086 182.85714285714283 258.48214386926315 189.3877551020408 256.4976209960154 195.9183673469388 254.70956714372758 202.44897959183675 249.75802030521376 208.97959183673467 243.84331458434593 215.51020408163265 243.32680453813197 222.0408163265306 241.83027384431458 228.57142857142858 242.76853579579475 235.10204081632654 241.70744142555856 241.63265306122446 237.2178306330382 248.16326530612244 234.04435654037277 254.69387755102042 235.73029632560616 261.2244897959184 237.40440200241622 267.7551020408163 235.56052395051907 274.2857142857143 237.0050605418142 280.81632653061223 238.39935469893322 287.3469387755102 240.81757323211346 293.8775510204082 242.54146680080265 300.40816326530614 244.59170812416323 306.9387755102041 243.76035755827957 313.46938775510205 239.79405756085603 320 239.82808324273918 326.53061224489795 237.43531410501407 333.0612244897959 235.773949936095 339.5918367346939 232.04314111322694 346.12244897959187 232.25209504048217 352.65306122448976 229.63836236732868 359.1836734693877 229.05145534359607 365.71428571428567 230.66673154170846 372.2448979591837 233.29869540219323 378.7755102040816 234.4372438949233 385.3061224489796 235.50115883795377 391.8367346938776 236.03218586795282 398.36734693877554 235.07527600971198 404.8979591836735 236.3241107235673 411.42857142857144 237.16132621777092 417.95918367346934 239.22746260895917 424.48979591836735 241.09152070714842 431.0204081632653 242.0621053147778 437.55102040816325 236.8986922806777 444.0816326530612 238.23723370193213 450.61224489795916 240.65369232608714 457.14285714285717 242.7499053157071 463.6734693877551 240.25931993334325 470.2040816326531 240.10658254216963 476.7346938775511 242.54526983311564 483.2653061224489 244.52895121177835 489.7959183673469 246.83266974195948 496.3265306122449 243.54020041748618 502.85714285714283 244.0951210705387 509.38775510204084 246.25633986620545 515.9183673469388 246.9469665228244 522.4489795918367 248.04867164819728 528.9795918367347 250.1696070861822 535.5102040816327 252.28420850392223 542.0408163265306 249.6331592203215 548.5714285714286 249.49411666647615 555.1020408163265 251.6462606454537 561.6326530612245 253.66642566836225 568.1632653061224 254.4741620955716 574.6938775510204 256.391514792585 581.2244897959183 257.21072801976914 587.7551020408164 258.9707654125797 594.2857142857143 259.9967660287726 600.8163265306123 261.7973237655782 607.3469387755102 260.1642777862391 613.8775510204082 253.03514244371888 620.4081632653061 252.98571740887522 626.9387755102041 253.3413722490062 633.469387755102 255.37609134081092 640 255.5199187566206 640 320 0 320"
      />
      
      <polygon
        fill="#e34c26"
        fillRule="evenodd"
        points="0 319.92567425302326 6.530612244897958 319.8564689784019 13.061224489795917 319.8272328984149 19.591836734693878 318.66030282863665 26.122448979591834 318.6387622380018 32.6530612244898 318.51260266426584 39.183673469387756 318.3713440505218 45.71428571428571 316.11052429880186 52.24489795918367 316.2070747463575 58.775510204081634 311.64862205000924 65.3061224489796 310.7510458520659 71.83673469387755 308.26758422854596 78.36734693877551 308.3123004448093 84.89795918367348 307.52976067492006 91.42857142857142 305.79780532793944 97.9591836734694 302.08576611083896 104.48979591836734 297.7266067997793 111.0204081632653 296.36099100745867 117.55102040816327 296.57519392878305 124.08163265306122 294.70440486032925 130.6122448979592 294.97529279315063 137.14285714285714 291.71974335515847 143.6734693877551 292.1942192179077 150.20408163265307 288.11678932643974 156.73469387755102 282.4760446027188 163.26530612244898 280.5090983479462 169.79591836734696 276.09419276409824 176.32653061224488 271.33210342328385 182.85714285714283 270.3321150861407 189.3877551020408 269.08199958374223 195.9183673469388 268.3241164189863 202.44897959183675 264.1112498770223 208.97959183673467 258.7341446895758 215.51020408163265 258.87802437821205 222.0408163265306 257.33906857215464 228.57142857142858 258.03726885471633 235.10204081632654 256.52380641152797 241.63265306122446 252.72247727838382 248.16326530612244 250.19333798151092 254.69387755102042 252.19005925873995 261.2244897959184 254.188658629896 267.7551020408163 252.8678191532554 274.2857142857143 253.80097433944496 280.81632653061223 254.90773250129158 287.3469387755102 256.83305875406404 293.8775510204082 258.58289710427033 300.40816326530614 260.45210755863957 306.9387755102041 259.9720811874969 313.46938775510205 257.8643944393497 320 257.54205904257117 326.53061224489795 255.72567095090182 333.0612244897959 254.32302197817498 339.5918367346939 252.44400678022964 346.12244897959187 252.30169097109712 352.65306122448976 249.89599640009922 359.1836734693877 249.6073218142368 365.71428571428567 250.6398545866041 372.2448979591837 252.68976140209844 378.7755102040816 254.04379851622292 385.3061224489796 254.88135063497595 391.8367346938776 255.76536335324926 398.36734693877554 254.2061153372423 404.8979591836735 254.9008434990509 411.42857142857144 255.1710119034483 417.95918367346934 256.7048805697726 424.48979591836735 258.10511379049814 431.0204081632653 258.55636299089423 437.55102040816325 255.16943281670632 444.0816326530612 257.1207088036235 450.61224489795916 258.97908027836155 457.14285714285717 260.51591966840783 463.6734693877551 258.6005439637461 470.2040816326531 258.02057976354746 476.7346938775511 259.91244661910963 483.2653061224489 261.3828621281399 489.7959183673469 263.1721218424969 496.3265306122449 261.8204403398564 502.85714285714283 263.5575943017917 509.38775510204084 265.20786941421136 515.9183673469388 265.57695340272267 522.4489795918367 267.22151891643114 528.9795918367347 268.7758213535981 535.5102040816327 270.3394172628802 542.0408163265306 268.438630437305 548.5714285714286 268.9636150253028 555.1020408163265 270.5214704076392 561.6326530612245 271.9837804997693 568.1632653061224 273.4494488433184 574.6938775510204 274.82523273973345 581.2244897959183 276.20416789444914 587.7551020408164 277.54099298363616 594.2857142857143 278.71336635077796 600.8163265306123 279.97362529688445 607.3469387755102 278.9297498564939 613.8775510204082 275.72392477906044 620.4081632653061 277.03248557188687 626.9387755102041 278.28628812469105 633.469387755102 279.5595818235632 640 279.64957972594243 640 320 0 320"
      />
      
      <polygon
        fill="#00ADD8"
        fillRule="evenodd"
        points="0 319.92567425302326 6.530612244897958 319.8564689784019 13.061224489795917 319.8272328984149 19.591836734693878 318.66030282863665 26.122448979591834 318.6387622380018 32.6530612244898 318.5153624351307 39.183673469387756 318.374019580993 45.71428571428571 316.6121801612723 52.24489795918367 316.6934178446491 58.775510204081634 313.1394424875052 65.3061224489796 312.19635975929043 71.83673469387755 310.88202989512104 78.36734693877551 310.86396467219015 84.89795918367348 310.0035367159059 91.42857142857142 308.66170333857133 97.9591836734694 305.87144511544324 104.48979591836734 303.79315874710744 111.0204081632653 303.0244431890986 117.55102040816327 303.3152936738792 124.08163265306122 302.4901861622401 130.6122448979592 302.91324100929654 137.14285714285714 300.9756916099551 143.6734693877551 301.5563869495096 150.20408163265307 299.6311563173854 156.73469387755102 295.8211904593163 163.26530612244898 294.0784523275601 169.79591836734696 290.7161301261685 176.32653061224488 287.71239826126777 182.85714285714283 287.3468271345229 189.3877551020408 286.1158347342558 195.9183673469388 284.9373080561256 202.44897959183675 282.37653019249717 208.97959183673467 277.9438479327894 215.51020408163265 278.0796564824626 222.0408163265306 276.03281282603854 228.57142857142858 276.2116797563991 235.10204081632654 274.14900276531466 241.63265306122446 270.304717294107 248.16326530612244 268.08694517340655 254.69387755102042 269.6660582198197 261.2244897959184 271.1481714858869 267.7551020408163 270.412555858856 274.2857142857143 270.8101675988558 280.81632653061223 272.16288537203314 287.3469387755102 273.56150892713754 293.8775510204082 274.9228619353415 300.40816326530614 276.29330579976096 306.9387755102041 276.4643382897672 313.46938775510205 274.6332609306884 320 273.79906941636614 326.53061224489795 272.04437955641873 333.0612244897959 270.14361235640104 339.5918367346939 268.2494875342098 346.12244897959187 268.7285939393629 352.65306122448976 266.93234485499266 359.1836734693877 266.17326517856407 365.71428571428567 266.7001336454045 372.2448979591837 268.2753835087122 378.7755102040816 269.77300777763935 385.3061224489796 270.14568900753915 391.8367346938776 271.63100825741446 398.36734693877554 270.8758820108304 404.8979591836735 271.21138335157525 411.42857142857144 272.69784208597963 417.95918367346934 274.09583202328116 424.48979591836735 275.46914534971097 431.0204081632653 275.7089820850801 437.55102040816325 272.95246694608227 444.0816326530612 274.3609308379205 450.61224489795916 275.7097724915646 457.14285714285717 277.06171446953635 463.6734693877551 276.4936199298181 470.2040816326531 276.69947435475865 476.7346938775511 278.02117971921643 483.2653061224489 279.0984655134738 489.7959183673469 280.3469681649512 496.3265306122449 279.2673718979921 502.85714285714283 280.4775056597846 509.38775510204084 281.61130391476024 515.9183673469388 281.5274659991416 522.4489795918367 282.6851481465933 528.9795918367347 283.7824288903925 535.5102040816327 284.8879581224336 542.0408163265306 282.6100739157889 548.5714285714286 282.8417807485492 555.1020408163265 283.97601076579 561.6326530612245 285.040680758476 568.1632653061224 286.10779163620714 574.6938775510204 287.1094641133384 581.2244897959183 288.11343552416554 587.7551020408164 289.08673620620186 594.2857142857143 289.9403134557705 600.8163265306123 290.8578742047928 607.3469387755102 291.7191590067526 613.8775510204082 290.3472338751238 620.4081632653061 291.2236090662281 626.9387755102041 292.1019901167213 633.469387755102 292.953566547895 640 293.01375312567393 640 320 0 320"
      />
      
      <polygon
        fill="#244776"
        fillRule="evenodd"
        points="0 319.92567425302326 6.530612244897958 319.8564689784019 13.061224489795917 319.8272328984149 19.591836734693878 318.66030282863665 26.122448979591834 318.6387622380018 32.6530612244898 318.5153624351307 39.183673469387756 318.374019580993 45.71428571428571 316.6121801612723 52.24489795918367 316.6934178446491 58.775510204081634 313.1394424875052 65.3061224489796 312.19635975929043 71.83673469387755 310.88202989512104 78.36734693877551 310.86396467219015 84.89795918367348 310.0035367159059 91.42857142857142 308.66170333857133 97.9591836734694 305.87144511544324 104.48979591836734 303.79315874710744 111.0204081632653 303.0244431890986 117.55102040816327 303.3152936738792 124.08163265306122 302.4901861622401 130.6122448979592 302.91324100929654 137.14285714285714 300.9756916099551 143.6734693877551 301.5563869495096 150.20408163265307 299.6311563173854 156.73469387755102 295.8211904593163 163.26530612244898 294.0784523275601 169.79591836734696 290.7161301261685 176.32653061224488 287.71239826126777 182.85714285714283 287.3468271345229 189.3877551020408 286.1158347342558 195.9183673469388 284.9373080561256 202.44897959183675 282.37653019249717 208.97959183673467 277.9438479327894 215.51020408163265 278.0796564824626 222.0408163265306 276.03281282603854 228.57142857142858 276.2116797563991 235.10204081632654 274.14900276531466 241.63265306122446 270.304717294107 248.16326530612244 268.08694517340655 254.69387755102042 269.6660582198197 261.2244897959184 271.1481714858869 267.7551020408163 270.412555858856 274.2857142857143 270.8101675988558 280.81632653061223 272.16288537203314 287.3469387755102 273.56150892713754 293.8775510204082 274.9228619353415 300.40816326530614 276.29330579976096 306.9387755102041 276.4643382897672 313.46938775510205 274.6332609306884 320 273.79906941636614 326.53061224489795 272.04437955641873 333.0612244897959 270.14361235640104 339.5918367346939 268.2494875342098 346.12244897959187 268.7285939393629 352.65306122448976 266.93234485499266 359.1836734693877 266.17326517856407 365.71428571428567 266.7001336454045 372.2448979591837 268.2753835087122 378.7755102040816 269.77300777763935 385.3061224489796 270.14568900753915 391.8367346938776 271.63100825741446 398.36734693877554 270.8758820108304 404.8979591836735 271.21138335157525 411.42857142857144 272.69784208597963 417.95918367346934 274.09583202328116 424.48979591836735 275.46914534971097 431.0204081632653 275.7089820850801 437.55102040816325 272.95246694608227 444.0816326530612 274.3609308379205 450.61224489795916 275.7097724915646 457.14285714285717 277.06171446953635 463.6734693877551 276.4936199298181 470.2040816326531 276.69947435475865 476.7346938775511 278.02117971921643 483.2653061224489 279.0984655134738 489.7959183673469 280.3469681649512 496.3265306122449 279.2673718979921 502.85714285714283 280.4775056597846 509.38775510204084 281.61130391476024 515.9183673469388 281.5274659991416 522.4489795918367 282.6851481465933 528.9795918367347 283.7824288903925 535.5102040816327 284.8879581224336 542.0408163265306 282.6100739157889 548.5714285714286 282.8417807485492 555.1020408163265 283.97601076579 561.6326530612245 285.040680758476 568.1632653061224 286.10779163620714 574.6938775510204 287.1094641133384 581.2244897959183 288.11343552416554 587.7551020408164 289.08673620620186 594.2857142857143 289.9403134557705 600.8163265306123 290.8578742047928 607.3469387755102 291.7191590067526 613.8775510204082 290.4027950922625 620.4081632653061 291.2775281996128 626.9387755102041 292.15426340153294 633.469387755102 293.0042442214507 640 293.06431800159476 640 320 0 320"
      />
      
      <polygon
        fill="#563d7c"
        fillRule="evenodd"
        points="0 319.92567425302326 6.530612244897958 319.8564689784019 13.061224489795917 319.8272328984149 19.591836734693878 318.66030282863665 26.122448979591834 318.6387622380018 32.6530612244898 318.5153624351307 39.183673469387756 318.374019580993 45.71428571428571 316.6121801612723 52.24489795918367 316.6934178446491 58.775510204081634 314.2496027346076 65.3061224489796 313.2726330391832 71.83673469387755 311.9264944618673 78.36734693877551 311.87654757214693 84.89795918367348 310.98521110957114 91.42857142857142 309.6143648903973 97.9591836734694 306.79502713963524 104.48979591836734 305.79142242875366 111.0204081632653 304.9617110490287 117.55102040816327 305.1934273657626 124.08163265306122 304.3146361452276 130.6122448979592 304.68200085270024 137.14285714285714 303.81183620523115 143.6734693877551 304.30596012808695 150.20408163265307 302.2994671521996 156.73469387755102 298.40805266169843 163.26530612244898 296.58635197271343 169.79591836734696 293.149910102974 176.32653061224488 290.071888515811 182.85714285714283 289.63658408419633 189.3877551020408 288.3356981892994 195.9183673469388 287.08941124271394 202.44897959183675 284.4692103762632 208.97959183673467 279.97265011217974 215.51020408163265 280.0484985763652 222.0408163265306 277.9415571472961 228.57142857142858 278.0640123135162 235.10204081632654 275.94479368025605 241.63265306122446 273.1750794085219 248.16326530612244 271.62230234983053 254.69387755102042 273.09350051787396 261.2244897959184 274.47431744502427 267.7551020408163 273.63717295218316 274.2857142857143 273.93635522593587 280.81632653061223 275.2027537348654 287.3469387755102 276.508587037581 293.8775510204082 277.78284079406586 300.40816326530614 279.0659853493817 306.9387755102041 279.15507301943137 313.46938775510205 277.2418625994465 320 276.3280448552466 326.53061224489795 274.49861254944335 333.0612244897959 272.5229312056296 339.5918367346939 270.558486777882 346.12244897959187 270.9671124629544 352.65306122448976 269.1025338662097 359.1836734693877 268.2835317113827 365.71428571428567 268.7459853994369 372.2448979591837 270.26077118061005 378.7755102040816 271.6977927554808 385.3061224489796 272.0135881253116 391.8367346938776 273.44189071231847 398.36734693877554 272.6314884151388 404.8979591836735 272.9151036864041 411.42857142857144 274.349557262213 417.95918367346934 275.6987315536441 424.48979591836735 277.0231174404518 431.0204081632653 277.2155200253465 437.55102040816325 275.3902710869406 444.0816326530612 276.724322365591 450.61224489795916 278.0033154270589 457.14285714285717 279.28524831483963 463.6734693877551 278.6514384692078 470.2040816326531 278.7914266461197 476.7346938775511 280.04927620054946 483.2653061224489 281.06662266514434 489.7959183673469 282.2550487108084 496.3265306122449 281.11905979150816 502.85714285714283 282.2726720504406 509.38775510204084 283.3516737965844 515.9183673469388 283.2197816245252 522.4489795918367 284.32580673583595 528.9795918367347 285.3745987893877 535.5102040816327 286.43152794843604 542.0408163265306 284.10802418474896 548.5714285714286 284.2940069620796 555.1020408163265 285.3839087017605 561.6326530612245 286.40696891623156 568.1632653061224 287.4323746622537 574.6938775510204 288.39489970075135 581.2244897959183 289.359634073541 587.7551020408164 290.29489528755397 594.2857142857143 291.1151131994301 600.8163265306123 291.9968138420765 607.3469387755102 292.824437884496 613.8775510204082 291.4743360440065 620.4081632653061 292.31740028315147 626.9387755102041 293.1623940228539 633.469387755102 293.9816022254844 640 294.0395006512938 640 320 0 320"
      />
      
      <polygon
        fill="#178600"
        fillRule="evenodd"
        points="0 320 6.530612244897958 320 13.061224489795917 320 19.591836734693878 320 26.122448979591834 320 32.6530612244898 320 39.183673469387756 320 45.71428571428571 320 52.24489795918367 320 58.775510204081634 318.73032846183685 65.3061224489796 318.7690845298633 71.83673469387755 318.805463624346 78.36734693877551 318.8419261120353 84.89795918367348 318.8772755942855 91.42857142857142 318.9104571716927 97.9591836734694 318.9437147544658 104.48979591836734 318.97493281025754 111.0204081632653 319.0062223811698 117.55102040816327 319.03655684504184 124.08163265306122 319.06409544788187 130.6122448979592 319.09266343690086 137.14285714285714 319.1194792438157 143.6734693877551 319.14635666059587 150.20408163265307 319.1715856538476 156.73469387755102 319.1856776569739 163.26530612244898 319.2105343708676 169.79591836734696 319.23386662077513 176.32653061224488 319.25725236317083 182.85714285714283 319.2792038985946 189.3877551020408 318.1941405678245 195.9183673469388 318.2492633849442 202.44897959183675 318.29760403067206 208.97959183673467 316.13887408450194 215.51020408163265 316.24748489952606 222.0408163265306 316.36202814040263 228.57142857142858 316.46954630508145 235.10204081632654 316.5773116079326 241.63265306122446 316.2415600053665 248.16326530612244 315.63817802482026 254.69387755102042 315.77132006746314 261.2244897959184 315.8962965424134 267.7551020408163 316.0215595916038 274.2857142857143 316.14299904788413 280.81632653061223 316.2494973103576 287.3469387755102 316.36397912632174 293.8775510204082 316.47144005835383 300.40816326530614 316.5791472962702 306.9387755102041 316.68024868455745 313.46938775510205 315.97581128679417 320 316.0986473429572 326.53061224489795 314.31084382441674 333.0612244897959 314.4845021626412 339.5918367346939 313.5209108193112 346.12244897959187 313.7186809530826 352.65306122448976 313.9104148407748 359.1836734693877 312.9761233245306 365.71428571428567 313.19052229592677 372.2448979591837 313.39177259590235 378.7755102040816 313.59348554527696 385.3061224489796 313.78282656375137 391.8367346938776 313.97260234483787 398.36734693877554 314.1565849182282 404.8979591836735 314.32928393659654 411.42857142857144 314.50237929875004 417.95918367346934 314.6648588063935 424.48979591836735 314.8277106961466 431.0204081632653 314.9855918226401 437.55102040816325 313.2129023877654 444.0816326530612 313.4200747048554 450.61224489795916 313.6145409633599 457.14285714285717 313.8094532666032 463.6734693877551 313.1987255426348 470.2040816326531 313.4063304440028 476.7346938775511 313.60759855083234 483.2653061224489 313.7965224902467 489.7959183673469 313.98588024695835 496.3265306122449 314.1636240919468 502.85714285714283 314.34177627183334 509.38775510204084 314.51449032276224 515.9183673469388 314.6659542104819 522.4489795918367 314.828772973116 528.9795918367347 314.98160592328685 535.5102040816327 315.1347894619509 542.0408163265306 315.27857790715746 548.5714285714286 315.4226965960385 555.1020408163265 315.56241618024194 561.6326530612245 315.693566732281 568.1632653061224 315.8250180588328 574.6938775510204 315.9484076892945 581.2244897959183 316.0720800613614 587.7551020408164 316.1919774523048 594.2857142857143 316.2971232775375 600.8163265306123 316.41015145620025 607.3469387755102 316.51624752832197 613.8775510204082 316.62258708065866 620.4081632653061 316.7224047417068 626.9387755102041 316.82245136416736 633.469387755102 316.91944418822936 640 316.9263007517868 640 320 0 320"
      />
      
      <polygon
        fill="#555555"
        fillRule="evenodd"
        points="0 320 6.530612244897958 320 13.061224489795917 320 19.591836734693878 320 26.122448979591834 320 32.6530612244898 320 39.183673469387756 320 45.71428571428571 320 52.24489795918367 320 58.775510204081634 318.73032846183685 65.3061224489796 318.7690845298633 71.83673469387755 318.805463624346 78.36734693877551 318.8419261120353 84.89795918367348 318.8772755942855 91.42857142857142 318.9104571716927 97.9591836734694 318.9437147544658 104.48979591836734 318.97493281025754 111.0204081632653 319.0062223811698 117.55102040816327 319.03655684504184 124.08163265306122 319.06409544788187 130.6122448979592 319.09266343690086 137.14285714285714 319.1194792438157 143.6734693877551 319.14635666059587 150.20408163265307 319.1715856538476 156.73469387755102 319.1856776569739 163.26530612244898 319.2105343708676 169.79591836734696 319.23386662077513 176.32653061224488 319.25725236317083 182.85714285714283 319.2792038985946 189.3877551020408 318.1941405678245 195.9183673469388 318.2492633849442 202.44897959183675 318.29760403067206 208.97959183673467 317.2428488901874 215.51020408163265 317.3188322672368 222.0408163265306 317.4006732669667 228.57142857142858 317.4774949019254 235.10204081632654 317.55449308470037 241.63265306122446 317.1889135117732 248.16326530612244 316.5575330532813 254.69387755102042 316.6626122954708 261.2244897959184 316.7612470594346 267.7551020408163 316.86010808244356 274.2857142857143 316.95595129066777 280.81632653061223 317.0400026213803 287.3469387755102 317.13035468081614 293.8775510204082 317.21516580830865 300.40816326530614 317.30017123909556 306.9387755102041 317.3799632073201 313.46938775510205 317.45993838166515 320 317.537472280509 326.53061224489795 316.50570925127744 333.0612244897959 316.6123705600056 339.5918367346939 315.5858911213102 346.12244897959187 315.7206289992075 352.65306122448976 315.85125455217064 359.1836734693877 314.8633731392504 365.71428571428567 315.02016503702725 372.2448979591837 315.16734127474064 378.7755102040816 315.3148560379082 385.3061224489796 315.45332278200647 391.8367346938776 315.59210756288786 398.36734693877554 315.7266556174609 404.8979591836735 315.85295211151896 411.42857142857144 315.9795383959426 417.95918367346934 316.09836121054894 424.48979591836735 316.2174562244452 431.0204081632653 316.33291624601145 437.55102040816325 315.58525416408 444.0816326530612 315.7200117702864 450.61224489795916 315.846504550745 457.14285714285717 315.97328770725335 463.6734693877551 316.0922951356773 470.2040816326531 316.21157557512896 476.7346938775511 316.327215114033 483.2653061224489 316.43576201755565 489.7959183673469 316.544558504739 496.3265306122449 316.64668209686766 502.85714285714283 316.7490401681703 509.38775510204084 316.8482740767719 515.9183673469388 316.9352983198156 522.4489795918367 317.02884657083115 528.9795918367347 317.1166574802009 535.5102040816327 317.2046697827261 542.0408163265306 317.28728423492487 548.5714285714286 317.3700883665956 555.1020408163265 317.45036491141275 561.6326530612245 317.52571805118725 568.1632653061224 317.6012440397201 574.6938775510204 317.67213807815193 581.2244897959183 317.7431946388053 587.7551020408164 317.81208232875053 594.2857142857143 317.8724943158188 600.8163265306123 317.93743525477424 607.3469387755102 317.9983931611463 613.8775510204082 318.0594910768621 620.4081632653061 318.1168418057649 626.9387755102041 318.1743241903056 633.469387755102 318.23005186505253 640 318.2339913104029 640 320 0 320"
      />
      
      <polygon
        fill="#C1F12E"
        fillRule="evenodd"
        points="0 320 6.530612244897958 320 13.061224489795917 320 19.591836734693878 320 26.122448979591834 320 32.6530612244898 320 39.183673469387756 320 45.71428571428571 320 52.24489795918367 320 58.775510204081634 319.0077744545135 65.3061224489796 319.0380616218195 71.83673469387755 319.0664912455205 78.36734693877551 319.09498601374224 84.89795918367348 319.1226109895856 91.42857142857142 319.14854179688376 97.9591836734694 319.1745319946125 104.48979591836734 319.1989283607432 111.0204081632653 319.2233805929243 117.55102040816327 319.24708644768566 124.08163265306122 319.2686073613872 130.6122448979592 319.29093274826863 137.14285714285714 319.3118888055447 143.6734693877551 319.33289303277553 150.20408163265307 319.3526090322467 156.73469387755102 319.3611754031443 163.26530612244898 319.38067515157707 169.79591836734696 319.3989789842966 176.32653061224488 319.4173247704985 182.85714285714283 319.4345454573967 189.3877551020408 319.4408447064968 195.9183673469388 319.4579125914758 202.44897959183675 319.47288054180194 208.97959183673467 319.4862107136664 215.51020408163265 319.5013954493392 222.0408163265306 319.51661507945875 228.57142857142858 319.5309012625775 235.10204081632654 319.54522024401024 241.63265306122446 319.309107391389 248.16326530612244 318.6150658158382 254.69387755102042 318.6573400887148 261.2244897959184 318.6970216302171 267.7551020408163 318.73679431239736 274.2857142857143 318.77535277880264 280.81632653061223 318.8091675116305 287.3469387755102 318.84551681842146 293.8775510204082 318.8796370831616 300.40816326530614 318.91383543912525 306.9387755102041 318.9459364806021 313.46938775510205 318.9781111949832 320 319.0093038094763 326.53061224489795 319.0385831889917 333.0612244897959 319.0679299735633 339.5918367346939 319.0954768581831 346.12244897959187 319.1230868322914 352.65306122448976 319.1498542431979 359.1836734693877 319.17332815675013 365.71428571428567 319.1985617224485 372.2448979591837 319.22224778724984 378.7755102040816 319.2459882693038 385.3061224489796 319.26827263774254 391.8367346938776 319.2906081970334 398.36734693877554 319.3122620302176 404.8979591836735 319.3325877063665 411.42857142857144 319.3529600625718 417.95918367346934 319.3720829900254 424.48979591836735 319.3912498026915 431.0204081632653 319.40983159906637 437.55102040816325 318.5742204068498 444.0816326530612 318.6177414677618 450.61224489795916 318.65859335010157 457.14285714285717 318.69953904466126 463.6734693877551 318.73797348987335 470.2040816326531 318.7764961987184 476.7346938775511 318.8138429153873 483.2653061224489 318.8488989904152 489.7959183673469 318.8840359309601 496.3265306122449 318.91701745098277 502.85714285714283 318.95007490444516 509.38775510204084 318.98212343984926 515.9183673469388 319.0102284712144 522.4489795918367 319.04044083534836 528.9795918367347 319.06880007419653 535.5102040816327 319.0972243548138 542.0408163265306 319.1239053516164 548.5714285714286 319.1506476911301 555.1020408163265 319.1765736691026 561.6326530612245 319.20090960701145 568.1632653061224 319.2253013595949 574.6938775510204 319.24819724396525 581.2244897959183 319.2711456035828 587.7551020408164 319.2933934129987 594.2857142857143 319.3129039914512 600.8163265306123 319.3338772082461 607.3469387755102 319.3535641084613 613.8775510204082 319.37329617828425 620.4081632653061 319.39181810129594 626.9387755102041 319.41038249154803 633.469387755102 319.4283801861208 640 319.4296525079313 640 320 0 320"
      />
      

      
        <g id="labels">
        
          
          <text x="0" y="330">
            Jul 2014
          </text>
          
        
          
        
          
        
          
        
          
        
          
        
          
        
          
        
          
        
          
        
          
        
          
        
          
        
          
          <text x="84.04040404040404" y="330">
            Aug 2015
          </text>
          
        
          
        
          
        
          
        
          
        
          
        
          
        
          
        
          
        
          
        
          
        
          
        
          
        
          
          <text x="168.08080808080808" y="330">
            Sep 2016
          </text>
          
        
          
        
          
        
          
        
          
        
          
        
          
        
          
        
          
        
          
        
          
        
          
        
          
        
          
          <text x="252.12121212121212" y="330">
            Oct 2017
          </text>
          
        
          
        
          
        
          
        
          
        
          
        
          
        
          
        
          
        
          
        
          
        
          
        
          
        
          
          <text x="336.16161616161617" y="330">
            Nov 2018
          </text>
          
        
          
        
          
        
          
        
          
        
          
        
          
        
          
        
          
        
          
        
          
        
          
        
          
        
          
          <text x="420.2020202020202" y="330">
            Dec 2019
          </text>
          
        
          
        
          
        
          
        
          
        
          
        
          
        
          
        
          
        
          
        
          
        
          
        
          
        
          
          <text x="504.24242424242425" y="330">
            Jan 2021
          </text>
          
        
          
        
          
        
          
        
          
        
          
        
          
        
          
        
          
        
          
        
          
        
          
        
          
        
          
          <text x="588.2828282828283" y="330">
            Feb 2022
          </text>
          
        
          
        
          
        
          
        
          
        
          
        
          
        
          
        
        </g>
      

      
        <text text-anchor="middle" y="370" x="320" id="legend">
          
          <tspan xml:space="preserve" fill="#C1F12E">   </tspan> Batchfile
          
          <tspan xml:space="preserve" fill="#555555">   </tspan> C
          
          <tspan xml:space="preserve" fill="#178600">   </tspan> C#
          
          <tspan xml:space="preserve" fill="#563d7c">   </tspan> CSS
          
          <tspan xml:space="preserve" fill="#244776">   </tspan> CoffeeScript
          
          <tspan xml:space="preserve" fill="#00ADD8">   </tspan> Go
          
          <tspan xml:space="preserve" fill="#e34c26">   </tspan> HTML
          
          <tspan xml:space="preserve" fill="#22e4e8">   </tspan> JSON
          
        </text>
      
        <text text-anchor="middle" y="400" x="320" id="legend">
          
          <tspan xml:space="preserve" fill="#22e8e8">   </tspan> JSon
          
          <tspan xml:space="preserve" fill="#f1e05a">   </tspan> JavaScript
          
          <tspan xml:space="preserve" fill="#2415b9">   </tspan> Less
          
          <tspan xml:space="preserve" fill="#755462">   </tspan> MySQL
          
          <tspan xml:space="preserve" fill="#4F5D95">   </tspan> PHP
          
          <tspan xml:space="preserve" fill="#fd2fdb">   </tspan> PLpgSQL
          
          <tspan xml:space="preserve" fill="#0298c3">   </tspan> Perl
          
          <tspan xml:space="preserve" fill="#3572A5">   </tspan> Python
          
        </text>
      
        <text text-anchor="middle" y="430" x="320" id="legend">
          
          <tspan xml:space="preserve" fill="#701516">   </tspan> Ruby
          
          <tspan xml:space="preserve" fill="#dea584">   </tspan> Rust
          
          <tspan xml:space="preserve" fill="#26c0b0">   </tspan> SCSS
          
          <tspan xml:space="preserve" fill="#0141ae">   </tspan> SQL
          
          <tspan xml:space="preserve" fill="#89e051">   </tspan> Shell
          
          <tspan xml:space="preserve" fill="#2770da">   </tspan> TSQL
          
          <tspan xml:space="preserve" fill="#2b7489">   </tspan> TypeScript
          
          <tspan xml:space="preserve" fill="#2c3e50">   </tspan> Vue
          
        </text>
      
        <text text-anchor="middle" y="460" x="320" id="legend">
          
          <tspan xml:space="preserve" fill="#4B6C4B">   </tspan> Yacc
          
        </text>
      

    </svg>