<svg
      xmlns="http://www.w3.org/2000/svg"
      viewBox="0 0 640 490"
      style="background-color: #292b3e"
    >
      <style>
        text {
          font-size: 12px;
          font-family: Open Sans, Helvetica Neue, Helvetica, Arial, sans-serif;
        }
        #labels text {
          dominant-baseline: hanging;
          font-size: 10px;
          fill: rgba(0,0,0,0.5);
        }
        #legend {
          font-weight: 600;
        }
        #legend tspan {
          font-size: 15px;
        }
        #branding-text {
          font-size: 9px;
          dominant-baseline: hanging;
          opacity: 0.5;
        }
        #branding-logo {
          opacity: 0.5;
        }
      </style>

      
      
      <polygon
        fill="#4B6C4B"
        fillRule="evenodd"
        points="0 313.61355123353815 6.4 304.2691129773024 12.8 297.2680475651642 19.2 285.93882192356284 25.6 278.82800376940287 32 274.9842076154088 38.4 267.0907520616284 44.800000000000004 257.07882497191736 51.2 246.2221446030688 57.599999999999994 230.9923306125412 64 221.54626633018927 70.4 206.6280922555731 76.8 198.27726814270642 83.2 192.17038773468155 89.60000000000001 182.1294909264446 96 170.61729403722148 102.4 156.95192430368238 108.80000000000001 154.80422675332807 115.19999999999999 149.88794912877313 121.6 142.5256772586544 128 138.28623250311966 134.4 123.78694191073254 140.8 127.1748762944303 147.20000000000002 110.77256755912231 153.6 93.05727437800977 160 88.01888388931934 166.4 78.106307046387 172.8 68.78377329206782 179.20000000000002 65.97377269975777 185.6 62.13342875237589 192 59.18912134165771 198.4 46.68389918570773 204.8 33.29407015010179 211.20000000000002 31.646587018953824 217.60000000000002 27.414664461833297 224 27.528941957102177 230.39999999999998 25.25111819358034 236.8 13.936143047777193 243.2 9.643234295476134 249.60000000000002 9.883947379976291 256 12.937817909766466 262.4 8.247008310301169 268.8 10.710252330946332 275.2 10.159161120246779 281.6 11.455668553939745 288 14.195595380242821 294.40000000000003 17.693110742269027 300.79999999999995 18.068025335057314 307.2 12.03887119384666 313.6 13.322764403788767 320 11.292842169527376 326.4 7.02960203593625 332.8 1.971795923481352 339.20000000000005 4.695601765820015 345.6 0.06662394199895516 352 0 358.40000000000003 3.1341929022213435 364.79999999999995 11.121773417140218 371.2 13.499825440215488 377.59999999999997 18.048061343443692 384 21.314720331744184 390.4 21.568521971202927 396.8 27.06663943701477 403.2 30.68106202795866 409.6 36.748057198965 416 42.80375617959248 422.40000000000003 46.960351503074946 428.8 38.514907366184616 435.20000000000005 42.63119604827904 441.59999999999997 50.615523747411316 448 58.06900476338393 454.4 55.5421869438145 460.79999999999995 58.40779508355075 467.2 64.84928624182683 473.6 68.96516978554192 480 76.40570990102361 486.4 74.31942475961102 492.8 74.99076199714705 499.20000000000005 75.0520590869346 505.6 74.49037009499008 512 78.43678481748583 518.4000000000001 85.33610745189367 524.8 88.56512404620554 531.1999999999999 82.02556471834532 537.6 83.08750382499284 544 90.29400960838387 550.4 88.1533117135665 556.8 86.74203386213802 563.2 87.76615877842846 569.6 85.9000649299694 576 86.4310692663557 582.4 86.68123514599515 588.8000000000001 89.27132388964458 595.2 85.21659218481503 601.5999999999999 69.72119853525203 608 69.36930254191478 614.4 67.00826568272188 620.8 64.1005487602028 627.2 60.65576414500009 633.6 56.62914761377186 640 57.90107277336625 640 320 0 320"
      />
      
      <polygon
        fill="#2c3e50"
        fillRule="evenodd"
        points="0 313.61355123353815 6.4 304.2691129773024 12.8 297.2680475651642 19.2 285.93882192356284 25.6 278.82800376940287 32 274.9842076154088 38.4 267.0907520616284 44.800000000000004 257.07882497191736 51.2 246.2221446030688 57.599999999999994 230.9923306125412 64 221.54626633018927 70.4 206.6280922555731 76.8 198.27726814270642 83.2 192.17038773468155 89.60000000000001 182.1294909264446 96 170.61729403722148 102.4 156.95192430368238 108.80000000000001 154.80422675332807 115.19999999999999 149.88794912877313 121.6 142.5256772586544 128 138.28623250311966 134.4 123.78694191073254 140.8 127.1748762944303 147.20000000000002 110.77256755912231 153.6 93.05727437800977 160 88.01888388931934 166.4 78.106307046387 172.8 68.78377329206782 179.20000000000002 65.97377269975777 185.6 62.13342875237589 192 59.18912134165771 198.4 46.68389918570773 204.8 33.29407015010179 211.20000000000002 31.646587018953824 217.60000000000002 27.414664461833297 224 27.528941957102177 230.39999999999998 25.25111819358034 236.8 13.936143047777193 243.2 9.643234295476134 249.60000000000002 9.883947379976291 256 12.937817909766466 262.4 8.247008310301169 268.8 10.710252330946332 275.2 10.159161120246779 281.6 11.455668553939745 288 14.195595380242821 294.40000000000003 17.693110742269027 300.79999999999995 18.068025335057314 307.2 12.03887119384666 313.6 13.322764403788767 320 11.292842169527376 326.4 7.02960203593625 332.8 1.971795923481352 339.20000000000005 4.695601765820015 345.6 0.06662394199895516 352 0 358.40000000000003 3.1341929022213435 364.79999999999995 11.121773417140218 371.2 13.499825440215488 377.59999999999997 18.048061343443692 384 21.314720331744184 390.4 21.568521971202927 396.8 27.06663943701477 403.2 30.68106202795866 409.6 36.748057198965 416 42.80375617959248 422.40000000000003 46.960351503074946 428.8 38.514907366184616 435.20000000000005 42.63119604827904 441.59999999999997 50.615523747411316 448 58.06900476338393 454.4 56.64277387527852 460.79999999999995 59.47478727493717 467.2 65.8837090514042 473.6 69.96902080726724 480 77.37891895555052 486.4 75.26387107104728 492.8 75.90637970171377 499.20000000000005 75.93972804662735 505.6 75.35352899502897 512 79.27359635641801 518.4000000000001 86.14818748091244 524.8 89.35241578477385 531.1999999999999 82.78958845866367 537.6 83.82820620815261 544 91.01210248723089 550.4 88.8501817312883 556.8 87.41763231447379 563.2 88.42179026140897 569.6 86.53568364720425 576 87.04728609668817 582.4 87.2804371941674 588.8000000000001 89.85223567943063 595.2 85.78033541438845 601.5999999999999 70.26773386102317 608 69.8996852639699 614.4 67.52245878993276 620.8 64.59904642613958 627.2 61.13952897752591 633.6 57.0981458076086 640 58.357366347727464 640 320 0 320"
      />
      
      <polygon
        fill="#2b7489"
        fillRule="evenodd"
        points="0 313.61355123353815 6.4 304.2691129773024 12.8 297.2680475651642 19.2 285.93882192356284 25.6 278.82800376940287 32 274.9842076154088 38.4 267.0907520616284 44.800000000000004 257.07882497191736 51.2 246.2221446030688 57.599999999999994 230.9923306125412 64 221.54626633018927 70.4 206.6280922555731 76.8 198.27726814270642 83.2 192.17038773468155 89.60000000000001 182.1294909264446 96 170.61729403722148 102.4 156.95192430368238 108.80000000000001 154.80422675332807 115.19999999999999 149.88794912877313 121.6 142.5256772586544 128 138.28623250311966 134.4 123.78694191073254 140.8 127.1748762944303 147.20000000000002 110.77256755912231 153.6 93.05727437800977 160 88.01888388931934 166.4 78.106307046387 172.8 68.78377329206782 179.20000000000002 65.97377269975777 185.6 62.13342875237589 192 59.18912134165771 198.4 46.68389918570773 204.8 33.29407015010179 211.20000000000002 31.646587018953824 217.60000000000002 27.414664461833297 224 27.528941957102177 230.39999999999998 25.25111819358034 236.8 13.936143047777193 243.2 9.643234295476134 249.60000000000002 9.883947379976291 256 12.937817909766466 262.4 8.247008310301169 268.8 10.710252330946332 275.2 10.159161120246779 281.6 11.455668553939745 288 14.195595380242821 294.40000000000003 17.693110742269027 300.79999999999995 18.068025335057314 307.2 12.03887119384666 313.6 13.322764403788767 320 11.292842169527376 326.4 7.02960203593625 332.8 1.971795923481352 339.20000000000005 4.695601765820015 345.6 0.06662394199895516 352 0 358.40000000000003 3.1341929022213435 364.79999999999995 11.121773417140218 371.2 13.499825440215488 377.59999999999997 18.048061343443692 384 21.314720331744184 390.4 21.568521971202927 396.8 27.06663943701477 403.2 30.68106202795866 409.6 36.748057198965 416 42.80375617959248 422.40000000000003 46.960351503074946 428.8 38.514907366184616 435.20000000000005 42.63119604827904 441.59999999999997 50.615523747411316 448 58.06900476338393 454.4 56.64277387527852 460.79999999999995 59.47478727493717 467.2 65.8837090514042 473.6 69.96902080726724 480 77.37891895555052 486.4 75.26387107104728 492.8 75.90637970171377 499.20000000000005 75.93972804662735 505.6 75.35352899502897 512 79.27359635641801 518.4000000000001 86.14818748091244 524.8 89.35241578477385 531.1999999999999 84.999693285614 537.6 87.49747630564013 544 94.56937004697971 550.4 94.67104660366377 556.8 95.57911792476003 563.2 99.33780072849586 569.6 99.23026377716388 576 100.29079150338055 582.4 100.92489272212822 588.8000000000001 103.11104182765598 595.2 98.64728701343921 601.5999999999999 83.41153733014062 608 83.12841704486402 614.4 80.3698906665403 620.8 77.05431858130498 627.2 73.22669042445054 633.6 68.81635912070979 640 69.75814296173309 640 320 0 320"
      />
      
      <polygon
        fill="#2770da"
        fillRule="evenodd"
        points="0 313.61355123353815 6.4 304.2691129773024 12.8 297.2680475651642 19.2 285.93882192356284 25.6 278.82800376940287 32 274.9842076154088 38.4 267.0907520616284 44.800000000000004 257.07882497191736 51.2 246.2221446030688 57.599999999999994 230.9923306125412 64 221.54626633018927 70.4 206.6280922555731 76.8 198.27726814270642 83.2 192.17038773468155 89.60000000000001 182.1294909264446 96 170.61729403722148 102.4 156.95192430368238 108.80000000000001 154.80422675332807 115.19999999999999 149.88794912877313 121.6 142.5256772586544 128 138.28623250311966 134.4 123.78694191073254 140.8 127.1748762944303 147.20000000000002 110.77256755912231 153.6 93.05727437800977 160 88.01888388931934 166.4 78.106307046387 172.8 68.78377329206782 179.20000000000002 65.97377269975777 185.6 62.13342875237589 192 59.18912134165771 198.4 46.68389918570773 204.8 33.29407015010179 211.20000000000002 31.646587018953824 217.60000000000002 27.414664461833297 224 27.528941957102177 230.39999999999998 25.25111819358034 236.8 14.574352030227942 243.2 11.080244573151106 249.60000000000002 11.277093716645027 256 14.289790547956727 262.4 9.557712718536266 268.8 11.980948141154556 275.2 11.39477105908253 281.6 12.65356218030945 288 15.358085941034687 294.40000000000003 18.820116960963446 300.79999999999995 19.16172349065272 307.2 13.099184839148734 313.6 14.350712629218151 320 12.29040982784204 326.4 7.996719564299383 332.8 2.910330729566283 339.20000000000005 5.605488396854184 345.6 0.9487368141427623 352 0.8577562206365315 358.40000000000003 3.9657665753259153 364.79999999999995 11.928770447550733 371.2 14.282189314549157 377.59999999999997 18.807302921303574 384 22.050786439174658 390.4 22.282120124931964 396.8 27.759147607994464 403.2 31.35243176880715 409.6 37.399584947235724 416 43.43539644714974 422.40000000000003 47.57271130530171 428.8 40.23044868065875 435.20000000000005 44.29437144567635 441.59999999999997 52.22954503740783 448 59.63375891921379 454.4 58.16128251339637 460.79999999999995 60.94694425293494 467.2 67.31092925888558 473.6 71.35406035053907 480 78.72168093984911 486.4 76.56694853588189 492.8 77.16968140365893 499.20000000000005 77.16446820140189 505.6 76.5444520552523 512 80.42816713173451 518.4000000000001 87.2686355784038 524.8 90.43866290771686 531.1999999999999 86.05383690252597 537.6 88.51944284637173 544 95.560141508622 550.4 95.63253642660914 556.8 96.51125880670705 563.2 100.24239277481638 569.6 100.10724359011746 576 101.14100200576047 582.4 101.75162761663987 588.8000000000001 103.91254106150319 595.2 99.42509831350111 601.5999999999999 84.17670359638288 608 84.13465159557552 614.4 81.54075260611248 620.8 78.21146821640929 627.2 74.34964124279017 633.6 69.92169913592795 640 70.83635192935151 640 320 0 320"
      />
      
      <polygon
        fill="#509e5b"
        fillRule="evenodd"
        points="0 313.61355123353815 6.4 304.9098426004814 12.8 298.3344780135249 19.2 288.07682153081277 25.6 281.2713482668464 32 277.35297027121146 38.4 269.9999483960054 44.800000000000004 260.0717423894613 51.2 250.17319196881914 57.599999999999994 235.18160192365065 64 226.7874849426492 70.4 213.32787093161548 76.8 205.81363600320725 83.2 200.4220773351628 89.60000000000001 190.45083892265112 96 178.6846390378136 102.4 164.7808429382531 108.80000000000001 162.3941703283055 115.19999999999999 158.35641070823416 121.6 150.82947528068973 128 146.470339290301 134.4 132.58700038800427 140.8 135.7063184427936 147.20000000000002 119.05186959847379 153.6 102.43444135605137 160 97.17058815761189 166.4 87.08400044372718 172.8 77.51848832452379 179.20000000000002 74.59629695353425 185.6 71.29268423613584 192 68.12745676413522 198.4 55.4367638507029 204.8 42.602933512332925 211.20000000000002 40.81647626633776 217.60000000000002 36.30464497889534 224 36.65732520731643 230.39999999999998 34.26571832348901 236.8 23.330627637509963 243.2 19.768669185443628 249.60000000000002 20.331931991666636 256 23.771605925848462 262.4 19.35797278877078 268.8 21.657272821481513 275.2 22.197802539926272 281.6 24.033481245971927 288 26.40167639746619 294.40000000000003 29.52660817112485 300.79999999999995 29.79486135736522 307.2 23.469572466094633 313.6 24.701206517877836 320 22.40435780760737 326.4 17.801947674646158 332.8 12.431419826004287 339.20000000000005 14.835948687997927 345.6 10.202302344993768 352 9.855814986130838 358.40000000000003 12.717318074806485 364.79999999999995 20.455551372094874 371.2 22.802313373597656 377.59999999999997 27.111450298796683 384 30.808749638820757 390.4 30.77275344576691 396.8 35.99884609614679 403.2 39.34061796025554 409.6 45.232534013521104 416 51.02925074822173 422.40000000000003 55.069557815887606 428.8 47.5378417815441 435.20000000000005 51.37870827940685 441.59999999999997 59.10450800773418 448 66.2988685871461 454.4 64.91783083481198 460.79999999999995 67.49725171014109 467.2 73.66129288125649 473.6 78.63273540528212 480 85.77817825366185 486.4 83.41489297161615 492.8 83.84703762441066 499.20000000000005 83.63800356375032 505.6 82.83924298569917 512 87.04899969445597 518.4000000000001 93.69379250521916 524.8 96.66769537961449 531.1999999999999 92.09877548845122 537.6 94.37986318219504 544 101.2416737657997 550.4 101.14615673711381 556.8 101.85657763920324 563.2 105.42973358308035 569.6 105.13624294172158 576 106.01649518574305 582.4 106.49250037003995 588.8000000000001 108.50870153666276 595.2 104.55182975165653 601.5999999999999 89.14694567556242 608 88.9580020349679 614.4 86.21687294192998 620.8 82.74485290661579 627.2 78.74904441589547 633.6 74.18681263986795 640 74.98592926784934 640 320 0 320"
      />
      
      <polygon
        fill="#89e051"
        fillRule="evenodd"
        points="0 313.61355123353815 6.4 304.9098426004814 12.8 298.3344780135249 19.2 288.07682153081277 25.6 281.2713482668464 32 277.35297027121146 38.4 269.9999483960054 44.800000000000004 260.0717423894613 51.2 250.17319196881914 57.599999999999994 235.18160192365065 64 226.7874849426492 70.4 213.32787093161548 76.8 205.81363600320725 83.2 200.4220773351628 89.60000000000001 190.45083892265112 96 178.6846390378136 102.4 164.7808429382531 108.80000000000001 162.3941703283055 115.19999999999999 158.35641070823416 121.6 150.82947528068973 128 146.470339290301 134.4 132.58700038800427 140.8 135.7063184427936 147.20000000000002 119.05186959847379 153.6 102.43444135605137 160 97.17058815761189 166.4 87.08400044372718 172.8 77.51848832452379 179.20000000000002 74.59629695353425 185.6 71.29268423613584 192 68.12745676413522 198.4 55.4367638507029 204.8 42.602933512332925 211.20000000000002 40.81647626633776 217.60000000000002 36.30464497889534 224 36.65732520731643 230.39999999999998 34.26571832348901 236.8 23.330627637509963 243.2 19.768669185443628 249.60000000000002 20.331931991666636 256 23.771605925848462 262.4 19.35797278877078 268.8 21.657272821481513 275.2 22.197802539926272 281.6 24.033481245971927 288 26.40167639746619 294.40000000000003 29.52660817112485 300.79999999999995 29.79486135736522 307.2 23.469572466094633 313.6 24.701206517877836 320 22.40435780760737 326.4 17.801947674646158 332.8 12.431419826004287 339.20000000000005 14.835948687997927 345.6 10.202302344993768 352 9.855814986130838 358.40000000000003 12.717318074806485 364.79999999999995 20.455551372094874 371.2 22.802313373597656 377.59999999999997 27.111450298796683 384 30.808749638820757 390.4 30.77275344576691 396.8 35.99884609614679 403.2 39.34061796025554 409.6 45.232534013521104 416 51.02925074822173 422.40000000000003 55.069557815887606 428.8 47.5378417815441 435.20000000000005 51.37870827940685 441.59999999999997 59.10450800773418 448 66.2988685871461 454.4 64.91783083481198 460.79999999999995 67.49725171014109 467.2 73.66129288125649 473.6 78.63273540528212 480 85.77817825366185 486.4 83.41489297161615 492.8 83.84703762441066 499.20000000000005 83.63800356375032 505.6 82.83924298569917 512 87.04899969445597 518.4000000000001 93.69379250521916 524.8 96.66769537961449 531.1999999999999 92.09877548845122 537.6 94.37986318219504 544 101.2416737657997 550.4 101.14615673711381 556.8 101.85657763920324 563.2 105.42973358308035 569.6 105.13624294172158 576 106.01649518574305 582.4 106.49250037003995 588.8000000000001 108.50870153666276 595.2 104.55182975165653 601.5999999999999 89.14694567556242 608 88.9580020349679 614.4 86.21687294192998 620.8 82.74485290661579 627.2 78.74904441589547 633.6 75.29812488663617 640 76.06713745207247 640 320 0 320"
      />
      
      <polygon
        fill="#0141ae"
        fillRule="evenodd"
        points="0 313.6957893572454 6.4 304.98957045828996 12.8 298.4118495509723 19.2 288.15459392796004 25.6 281.3468221434655 32 277.42614034689734 38.4 270.07088500114924 44.800000000000004 260.16867311213343 51.2 250.62554717690398 57.599999999999994 236.5914479649574 64 228.16532283141456 70.4 215.56290781906227 76.8 209.34784805502565 83.2 203.84840934639544 89.60000000000001 193.80951660546657 96 182.16689874776623 102.4 169.20015289909844 108.80000000000001 166.68968751847137 115.19999999999999 162.5208096575298 121.6 154.87484039990161 128 151.50329683924133 134.4 138.3305469379887 140.8 141.27454650489764 147.20000000000002 124.45553068966097 153.6 107.98207398915713 160 102.61891259729393 166.4 92.52509075939545 172.8 83.01584613847055 179.20000000000002 79.93118321004945 185.6 76.46472635789894 192 73.61545329033703 198.4 61.01127373494353 204.8 50.2111196073007 211.20000000000002 49.30691538663888 217.60000000000002 44.53591680790379 224 46.72648417337376 230.39999999999998 45.53581750101074 236.8 38.06175742683672 243.2 34.379936144735666 249.60000000000002 35.18792244910594 256 40.45907695775128 262.4 36.7670447112489 268.8 38.53494837731904 275.2 38.69018320906628 281.6 40.022443783056076 288 41.96017649723126 294.40000000000003 45.10751325840761 300.79999999999995 44.91805839168933 307.2 38.14231982085266 313.6 38.92607606574842 320 36.36875922886327 326.4 33.699881537151896 332.8 28.417273099514603 339.20000000000005 30.372839097669612 345.6 26.293882910208936 352 25.53669224771022 358.40000000000003 28.08386173576787 364.79999999999995 35.36794526818636 371.2 37.588752296981056 377.59999999999997 41.46087945257642 384 45.374440096102376 390.4 45.02187134495284 396.8 49.826843733960004 403.2 53.20080356591927 409.6 58.85807605350948 416 64.6254695351131 422.40000000000003 68.6307126174984 428.8 63.21850223723652 435.20000000000005 66.93876917605519 441.59999999999997 74.2047123153587 448 80.93814357898839 454.4 80.26637241453923 460.79999999999995 82.74319581205833 467.2 88.44186263294984 473.6 93.40761066301428 480 100.10205102819185 486.4 98.34479574123674 492.8 99.94039990246034 499.20000000000005 99.86329068277115 505.6 98.67428978326342 512 102.40068752833503 518.4000000000001 108.59176829606645 524.8 111.11092030870128 531.1999999999999 106.11513839646565 537.6 107.96838690137164 544 114.41541083254918 550.4 113.93055769653259 556.8 114.39443742457854 563.2 117.59704693341308 569.6 116.93215599117238 576 117.45234811522184 582.4 117.64282405639142 588.8000000000001 119.31867388843901 595.2 115.05060550932203 601.5999999999999 99.800643110963 608 99.38385559491996 614.4 97.92040716070977 620.8 95.72563889902315 627.2 92.85910240264383 633.6 90.3067292207572 640 90.89378205106152 640 320 0 320"
      />
      
      <polygon
        fill="#26c0b0"
        fillRule="evenodd"
        points="0 313.6957893572454 6.4 305.0750715691651 12.8 298.52242263920476 19.2 288.3920340326988 25.6 281.72967133645557 32 277.85566887487664 38.4 270.54541359463366 44.800000000000004 260.8000792601582 51.2 251.72754570992046 57.599999999999994 237.79093239167906 64 230.2054795858828 70.4 218.21679970599314 76.8 212.42848441519243 83.2 207.4760873408681 89.60000000000001 198.30978948814007 96 186.52980485895299 102.4 173.8064617392989 108.80000000000001 171.1553904455822 115.19999999999999 166.8782997316055 121.6 159.3525457420179 128 156.04894154272762 134.4 143.12367741102523 140.8 145.9241933006372 147.20000000000002 128.96776016012404 153.6 112.62425433950358 160 107.34720362213832 166.4 97.3918242622816 172.8 88.07447268241992 179.20000000000002 84.90347210120495 185.6 81.47882980929467 192 78.54014722694927 198.4 65.83897960937782 204.8 55.25790793330975 211.20000000000002 54.27472687659707 217.60000000000002 49.445883767946555 224 52.03144885419471 230.39999999999998 50.75681994064729 236.8 43.287574601190556 243.2 39.624356188959325 249.60000000000002 40.27226032172575 256 46.015334766102285 262.4 42.226218384671085 268.8 45.294941549051146 275.2 46.22638255693454 281.6 47.34236435964959 288 49.1222798558548 294.40000000000003 52.19641431844184 300.79999999999995 51.84809416738034 307.2 44.89924441864656 313.6 45.54053032257593 320 42.902148634270304 326.4 40.529931369831104 332.8 35.11168094915229 339.20000000000005 37.18671562218435 345.6 32.9135190332392 352 31.973549088805328 358.40000000000003 34.32987051962476 364.79999999999995 41.45130165178648 371.2 43.650688053441456 377.59999999999997 47.72243178000946 384 51.450432683162944 390.4 51.04923940638582 396.8 55.67607524198792 403.2 59.07781170988255 409.6 64.64976296355763 416 70.24037025335201 422.40000000000003 74.11919402852527 428.8 68.67699199597436 435.20000000000005 72.31801915738436 441.59999999999997 79.4358787382802 448 86.08172679415756 454.4 85.8889772426341 460.79999999999995 88.95211198569288 467.2 94.4724157886414 473.6 100.00817136154234 480 106.58863450863205 486.4 104.63967452430609 492.8 106.09860117181071 499.20000000000005 105.83351785728132 505.6 104.49626272894957 512 108.04494694897474 518.4000000000001 114.0803108442984 524.8 116.43192657012887 531.1999999999999 111.27888743617163 537.6 112.97451395115752 544 119.26872877760329 550.4 118.64043923002811 556.8 118.96055086433387 563.2 122.02821340198452 569.6 121.47123435332728 576 121.8528736441109 582.4 121.92184272956234 588.8000000000001 123.46990141771659 595.2 119.66072170750223 601.5999999999999 104.27003893076531 608 103.72116062990867 614.4 102.12531777989142 620.8 99.80219991933711 627.2 96.81518028148241 633.6 94.14205002234087 640 94.62520967709344 640 320 0 320"
      />
      
      <polygon
        fill="#dea584"
        fillRule="evenodd"
        points="0 313.6957893572454 6.4 305.0750715691651 12.8 298.52242263920476 19.2 288.3920340326988 25.6 281.72967133645557 32 277.85566887487664 38.4 270.54541359463366 44.800000000000004 260.8000792601582 51.2 251.72754570992046 57.599999999999994 237.79093239167906 64 230.2054795858828 70.4 218.60519417706328 76.8 212.80502337522705 83.2 207.8411326810208 89.60000000000001 198.66404609469782 96 187.99624668991692 102.4 176.33191494172036 108.80000000000001 173.60375569471154 115.19999999999999 169.25192983369894 121.6 162.75988761258054 128 159.35227618345678 134.4 148.55737485144974 140.8 151.19203023018682 147.20000000000002 136.32715584841014 153.6 123.07435152419717 160 117.47831872359382 166.4 107.22351964485841 172.8 98.72224340523147 179.20000000000002 95.23655113405428 185.6 91.49649789094525 192 88.25203269656808 198.4 76.38152857838219 204.8 66.58275830367177 211.20000000000002 65.26487776442889 217.60000000000002 60.10056453620899 224 62.37123756686481 230.39999999999998 60.780992198908166 236.8 53.005764909305526 243.2 49.05532904507322 249.60000000000002 49.41535955408767 256 54.888213305991826 262.4 51.931216927950175 268.8 54.70370156314908 275.2 55.37535054998011 281.6 56.21206479238981 288 57.729842448395516 294.40000000000003 60.54123591886042 300.79999999999995 61.06431925113719 307.2 54.089968609020445 313.6 54.45071180522382 320 51.54899419300182 326.4 48.91283888023969 332.8 43.246832761543715 339.20000000000005 45.073548041252366 345.6 41.668878507209115 352 40.487157668566965 358.40000000000003 42.5836059045659 364.79999999999995 49.46110164339245 371.2 51.477865562061766 377.59999999999997 55.318281003496736 384 58.81442290947638 390.4 58.18844765233473 396.8 62.60428923171838 403.2 65.79454491454388 409.6 71.16798602653134 416 76.5596289097914 422.40000000000003 80.24556120655348 428.8 74.62824577832623 435.20000000000005 78.08761426680758 441.59999999999997 85.03495694233482 448 91.50989630097291 454.4 91.15671974345855 460.79999999999995 94.05905993803447 467.2 99.423477739433 473.6 104.8129068063754 480 111.24670693599953 486.4 109.16008035100276 492.8 110.4810249504086 499.20000000000005 110.08216993755579 505.6 108.62760330154686 512 112.05018088749469 518.4000000000001 117.96717257032057 524.8 120.20014338089294 531.1999999999999 116.05410285858369 537.6 117.60397005647181 544 123.75687193603241 550.4 123.35411260601103 556.8 123.53034291430757 563.2 126.46294802279871 569.6 125.7706002076182 576 126.02100453170806 582.4 125.9998432998654 588.8000000000001 127.42342252836252 595.2 123.49739883027473 601.5999999999999 107.98960357572 608 107.33079575075988 614.4 105.62477071044196 620.8 103.19483495264495 627.2 100.10754680486417 633.6 97.33391931072333 640 97.73061451720122 640 320 0 320"
      />
      
      <polygon
        fill="#701516"
        fillRule="evenodd"
        points="0 313.6957893572454 6.4 305.0750715691651 12.8 298.52242263920476 19.2 288.3920340326988 25.6 281.72967133645557 32 277.85566887487664 38.4 270.54541359463366 44.800000000000004 260.8000792601582 51.2 251.72754570992046 57.599999999999994 237.79093239167906 64 230.2054795858828 70.4 218.60519417706328 76.8 212.80502337522705 83.2 207.8411326810208 89.60000000000001 198.66404609469782 96 187.99624668991692 102.4 176.33191494172036 108.80000000000001 173.60375569471154 115.19999999999999 169.25192983369894 121.6 162.75988761258054 128 159.35227618345678 134.4 148.55737485144974 140.8 151.19203023018682 147.20000000000002 136.32715584841014 153.6 123.07435152419717 160 117.47831872359382 166.4 107.22351964485841 172.8 98.72224340523147 179.20000000000002 95.23655113405428 185.6 91.49649789094525 192 88.25203269656808 198.4 76.38152857838219 204.8 66.58275830367177 211.20000000000002 65.26487776442889 217.60000000000002 60.10056453620899 224 62.37123756686481 230.39999999999998 60.780992198908166 236.8 53.005764909305526 243.2 49.05532904507322 249.60000000000002 49.41535955408767 256 54.888213305991826 262.4 51.931216927950175 268.8 54.70370156314908 275.2 55.37535054998011 281.6 56.21206479238981 288 57.729842448395516 294.40000000000003 60.54123591886042 300.79999999999995 61.06431925113719 307.2 54.089968609020445 313.6 54.45071180522382 320 51.54899419300182 326.4 48.91283888023969 332.8 43.246832761543715 339.20000000000005 45.073548041252366 345.6 41.668878507209115 352 40.487157668566965 358.40000000000003 42.5836059045659 364.79999999999995 49.46110164339245 371.2 51.477865562061766 377.59999999999997 55.318281003496736 384 58.81442290947638 390.4 58.18844765233473 396.8 62.60428923171838 403.2 65.79454491454388 409.6 71.16798602653134 416 76.5596289097914 422.40000000000003 80.24556120655348 428.8 74.62824577832623 435.20000000000005 78.08761426680758 441.59999999999997 85.03495694233482 448 91.50989630097291 454.4 91.15671974345855 460.79999999999995 94.05905993803447 467.2 99.423477739433 473.6 104.8129068063754 480 111.24670693599953 486.4 109.16008035100276 492.8 110.4810249504086 499.20000000000005 110.08216993755579 505.6 108.62760330154686 512 112.05018088749469 518.4000000000001 117.96717257032057 524.8 120.20014338089294 531.1999999999999 116.05410285858369 537.6 117.60397005647181 544 123.75687193603241 550.4 123.35411260601103 556.8 123.53034291430757 563.2 126.46294802279871 569.6 125.7706002076182 576 126.02100453170806 582.4 125.9998432998654 588.8000000000001 127.42342252836252 595.2 123.49739883027473 601.5999999999999 108.00915980786357 608 107.34977400820668 614.4 105.64316966872377 620.8 103.21267229223048 627.2 100.12485697117401 633.6 97.35070109334359 640 97.74694170205962 640 320 0 320"
      />
      
      <polygon
        fill="#3572A5"
        fillRule="evenodd"
        points="0 313.6957893572454 6.4 305.0750715691651 12.8 298.52242263920476 19.2 288.3920340326988 25.6 281.72967133645557 32 277.85566887487664 38.4 270.54541359463366 44.800000000000004 260.8000792601582 51.2 251.72754570992046 57.599999999999994 237.79093239167906 64 230.2054795858828 70.4 218.60519417706328 76.8 212.80502337522705 83.2 207.8411326810208 89.60000000000001 198.66404609469782 96 187.99624668991692 102.4 176.33191494172036 108.80000000000001 173.60375569471154 115.19999999999999 169.25192983369894 121.6 163.4215154737384 128 159.99370821660904 134.4 149.21626887257364 140.8 151.83081188843408 147.20000000000002 137.9483011126996 153.6 125.43992066010964 160 119.77168019645552 166.4 109.44910215160587 172.8 100.87989127718282 179.20000000000002 97.33043084604944 185.6 93.52646291919515 192 90.22003439680748 198.4 78.29519060596022 204.8 68.47387775933265 211.20000000000002 67.10010620369277 217.60000000000002 61.8797733140662 224 64.09786310800018 230.39999999999998 62.454913359179216 236.8 54.62859067609833 243.2 50.63019303409209 249.60000000000002 50.942151615611806 256 56.36988189733296 262.4 53.40349186479068 268.8 56.13103633867024 275.2 56.763274228058776 281.6 57.55762295612118 288 59.03563337762063 294.40000000000003 61.80716806189912 300.79999999999995 62.29283768518724 307.2 55.28098712548507 313.6 55.605375262488224 320 52.66953209539611 326.4 49.99917303379232 332.8 44.301060943026755 339.20000000000005 46.09559647501334 345.6 42.65972944721801 352 41.45064965791579 358.40000000000003 43.517687764335506 364.79999999999995 50.367577332139774 371.2 52.379003202166416 377.59999999999997 56.19278594128696 384 59.66223400774703 390.4 59.010379792966205 396.8 63.401929700957794 403.2 66.56783767166573 409.6 71.91842460721804 416 77.28716082852304 422.40000000000003 80.95088568800361 428.8 75.3134095111688 435.20000000000005 78.7518637324209 441.59999999999997 85.67957489175848 448 92.13483766735283 454.4 91.7631912621967 460.79999999999995 94.64701931657018 467.2 99.99348992664204 473.6 105.36607268295612 480 111.78298773377122 486.4 109.68051158009251 492.8 110.98557040115077 499.20000000000005 110.57131433037284 505.6 109.10324167401859 512 112.51130070475298 518.4000000000001 118.4146642366756 524.8 120.63397561875615 531.1999999999999 116.47511343261783 537.6 118.01212947696621 544 124.15257253944128 550.4 123.73811843272037 556.8 123.90262720779953 563.2 126.82422965385359 569.6 126.1208539404418 576 126.36056693945841 582.4 126.33002988051862 588.8000000000001 127.74353035818737 595.2 123.80804606292821 601.5999999999999 108.32974093213238 608 107.66088053026027 614.4 105.94477982577217 620.8 103.5050759671023 627.2 100.40861886614124 633.6 97.62580129514518 640 98.01458980259216 640 320 0 320"
      />
      
      <polygon
        fill="#0298c3"
        fillRule="evenodd"
        points="0 313.6957893572454 6.4 305.0750715691651 12.8 298.52242263920476 19.2 288.3920340326988 25.6 281.72967133645557 32 277.85566887487664 38.4 270.54541359463366 44.800000000000004 260.8000792601582 51.2 251.72754570992046 57.599999999999994 237.79093239167906 64 230.2054795858828 70.4 218.60519417706328 76.8 212.80502337522705 83.2 207.8411326810208 89.60000000000001 198.66404609469782 96 187.99624668991692 102.4 176.33191494172036 108.80000000000001 173.60375569471154 115.19999999999999 169.25192983369894 121.6 163.4215154737384 128 159.99370821660904 134.4 149.21626887257364 140.8 151.83081188843408 147.20000000000002 137.9483011126996 153.6 126.07803199770996 160 120.39031354931467 166.4 110.0494521407116 172.8 101.46191592850431 179.20000000000002 97.89525408747011 185.6 94.0740452324477 192 90.75090210643921 198.4 78.81140018259799 204.8 68.97433027455867 211.20000000000002 67.69024233388438 217.60000000000002 62.45189589594452 224 64.65307688572383 230.39999999999998 62.99317956456758 236.8 55.15042662238295 243.2 51.13660644736615 249.60000000000002 51.43310700547079 256 56.84632738366366 262.4 53.865394135522706 268.8 56.57883928073818 275.2 57.19871259681349 281.6 57.979769839607116 288 59.445303904321975 294.40000000000003 62.204333636044225 300.79999999999995 62.678265244757426 307.2 55.65464973928454 313.6 55.967632057652395 320 53.021082574027844 326.4 50.33999262798284 332.8 44.63180777680748 339.20000000000005 46.41624747037372 345.6 42.97059274594693 352 41.75292950882641 358.40000000000003 43.81074070605041 364.79999999999995 50.65196923829933 371.2 52.65471422116036 377.59999999999997 56.46034844973235 384 59.92162934595234 390.4 59.261857215775365 396.8 63.645974853557675 403.2 66.8044334870147 409.6 72.14802796005361 416 77.5097556793196 422.40000000000003 81.16668594505288 428.8 75.52304144550462 435.20000000000005 78.95509676944107 441.59999999999997 85.87680149121923 448 92.32604402971359 454.4 91.94874662535074 460.79999999999995 94.82691070298978 467.2 100.16789024672849 473.6 105.53531868454519 480 111.94706759015318 486.4 109.83974214639235 492.8 111.13994055964471 499.20000000000005 110.72097241327828 505.6 109.24876745726803 512 112.65238439225658 518.4000000000001 118.55157827431464 524.8 120.76671044035612 531.1999999999999 116.60392534178283 537.6 118.13700947265562 544 124.27364065608035 550.4 123.85560843021096 556.8 124.01653090711378 563.2 126.93476698452741 569.6 126.22801717555444 576 126.46445907721898 582.4 126.43105339177208 588.8000000000001 127.84147018793408 595.2 126.40229701362966 601.5999999999999 115.17761241422699 608 114.40700531783617 614.4 112.6905028545716 620.8 110.04489094414166 627.2 107.19487945823121 633.6 104.20491567863218 640 104.41548358186097 640 320 0 320"
      />
      
      <polygon
        fill="#fd2fdb"
        fillRule="evenodd"
        points="0 313.6957893572454 6.4 305.0750715691651 12.8 298.52242263920476 19.2 288.3920340326988 25.6 281.72967133645557 32 277.85566887487664 38.4 270.54541359463366 44.800000000000004 260.8000792601582 51.2 251.72754570992046 57.599999999999994 237.79093239167906 64 230.2054795858828 70.4 218.60519417706328 76.8 212.80502337522705 83.2 207.8411326810208 89.60000000000001 198.66404609469782 96 187.99624668991692 102.4 176.33191494172036 108.80000000000001 173.60375569471154 115.19999999999999 169.25192983369894 121.6 163.4215154737384 128 159.99370821660904 134.4 149.21626887257364 140.8 151.83081188843408 147.20000000000002 137.9483011126996 153.6 126.07803199770996 160 120.39031354931467 166.4 110.0494521407116 172.8 101.46191592850431 179.20000000000002 97.89525408747011 185.6 94.0740452324477 192 90.75090210643921 198.4 78.81140018259799 204.8 68.97433027455867 211.20000000000002 67.69024233388438 217.60000000000002 62.45189589594452 224 64.65307688572383 230.39999999999998 62.99317956456758 236.8 55.15042662238295 243.2 51.13660644736615 249.60000000000002 51.43310700547079 256 56.84632738366366 262.4 53.865394135522706 268.8 56.57883928073818 275.2 58.32831606783293 281.6 59.074892851712036 288 60.50806108554781 294.40000000000003 63.234650799731924 300.79999999999995 64.55889273400948 307.2 57.47787216723674 313.6 57.735201544676954 320 54.73641242569846 326.4 52.00296324143102 332.8 46.24563013969629 339.20000000000005 47.980808761440585 345.6 44.48739673493424 352 43.22785204627854 358.40000000000003 45.24064211391834 364.79999999999995 52.03961055496683 371.2 53.99999865461547 377.59999999999997 57.76587376605801 384 61.18730419897156 390.4 60.488897978990735 396.8 64.83675108173716 403.2 67.9588620541096 409.6 73.26833801076336 416 78.59586891692103 422.40000000000003 82.21964617172759 428.8 76.5459043912401 435.20000000000005 79.94673730416037 441.59999999999997 86.83913469934024 448 93.2590025061833 454.4 92.8541320168151 460.79999999999995 95.70465981721156 467.2 101.01884646888334 473.6 106.36112532105528 480 112.74766699736804 486.4 110.61668032496411 492.8 111.8931631231487 499.20000000000005 111.4512033084242 505.6 109.95883546657302 512 113.3407779882321 518.4000000000001 119.21962677502768 524.8 121.41436713492698 531.1999999999999 117.23244088164958 537.6 118.74633995205738 544 124.86437165641519 550.4 124.42888065869937 556.8 124.57230437283104 563.2 127.47411482523844 569.6 126.75090174307104 576 126.97138288854163 582.4 126.92398022530458 588.8000000000001 128.31935071345842 595.2 126.86605405358748 601.5999999999999 115.62721349911104 608 114.84331869871053 614.4 114.22078148356402 620.8 111.52845879615364 627.2 109.75432587145531 633.6 106.68623614184813 640 106.8295883632625 640 320 0 320"
      />
      
      <polygon
        fill="#4F5D95"
        fillRule="evenodd"
        points="0 313.6957893572454 6.4 305.0750715691651 12.8 298.52242263920476 19.2 288.3920340326988 25.6 281.72967133645557 32 277.85566887487664 38.4 270.54541359463366 44.800000000000004 260.8000792601582 51.2 251.72754570992046 57.599999999999994 237.79093239167906 64 230.2054795858828 70.4 218.60519417706328 76.8 212.80502337522705 83.2 207.8411326810208 89.60000000000001 198.66404609469782 96 187.99624668991692 102.4 176.33191494172036 108.80000000000001 173.60375569471154 115.19999999999999 169.25192983369894 121.6 163.4215154737384 128 159.99370821660904 134.4 149.21626887257364 140.8 151.83081188843408 147.20000000000002 137.9483011126996 153.6 126.07803199770996 160 120.39031354931467 166.4 110.0494521407116 172.8 101.46191592850431 179.20000000000002 97.89525408747011 185.6 94.0740452324477 192 90.75090210643921 198.4 78.81140018259799 204.8 68.97433027455867 211.20000000000002 67.69024233388438 217.60000000000002 62.45189589594452 224 64.67270395687908 230.39999999999998 63.012207530158435 236.8 55.168873770140124 243.2 51.15450839921607 249.60000000000002 51.45046251195396 256 56.863169957216144 262.4 53.88172259861108 268.8 56.59466932661513 275.2 58.34370902071146 281.6 59.089815943077724 288 60.5225431331159 294.40000000000003 63.24869079139904 300.79999999999995 64.57251778181421 307.2 57.49108131764427 313.6 57.748007493675516 320 54.74883990148936 326.4 52.015011375763265 332.8 46.25732219758828 339.20000000000005 47.99214392601709 345.6 44.49838590043419 352 43.23853778269199 358.40000000000003 45.25100167460869 364.79999999999995 52.049663943616565 371.2 54.009745169944836 377.59999999999997 57.77533222805113 384 61.196473947449306 390.4 60.49778782593074 396.8 64.84537819385011 403.2 67.96722582875734 409.6 73.27645459844322 416 78.60373774993039 422.40000000000003 82.2272748136121 428.8 76.55331497983315 435.20000000000005 79.95392168817702 441.59999999999997 86.84610675230232 448 93.26576174166468 454.4 92.86069148653019 460.79999999999995 95.71101906299094 467.2 101.025011602598 473.6 106.3671082475062 480 112.75346729845893 486.4 110.62230920133916 492.8 111.89862018126934 499.20000000000005 111.45649379273232 505.6 109.96397987221204 512 113.34576536352495 518.4000000000001 119.22446675119059 524.8 121.4190593738044 531.1999999999999 117.23699444377527 537.6 118.75075451920964 544 124.8686514714133 550.4 124.43303398606045 556.8 124.5763309225901 563.2 127.47802237219838 569.6 126.75469001432361 576 126.97505552519272 582.4 126.92755145444414 588.8000000000001 128.32281293290632 595.2 126.86941394887683 601.5999999999999 115.6304708356599 608 114.84647976635571 614.4 114.22384606128679 620.8 111.53142982943154 627.2 109.75720909742421 633.6 106.68903135911492 640 106.83230786143284 640 320 0 320"
      />
      
      <polygon
        fill="#755462"
        fillRule="evenodd"
        points="0 318.0212240130413 6.4 313.52736415602914 12.8 310.8961219390135 19.2 304.6063534453787 25.6 301.5123577427831 32 299.63474601694594 38.4 295.68732985952977 44.800000000000004 289.6072480347778 51.2 284.8540508325663 57.599999999999994 274.44711236351174 64 270.1967639672619 70.4 262.95236570747664 76.8 259.7806117925929 83.2 257.2939903740637 89.60000000000001 251.48857441103593 96 243.1157834845968 102.4 233.690768844714 108.80000000000001 232.44226970341913 115.19999999999999 230.48711886901498 121.6 226.74327724614773 128 225.02614858377552 134.4 216.76222517167386 140.8 218.75155138520148 147.20000000000002 208.35861869974963 153.6 198.35250414216677 160 194.34755900758364 166.4 186.11867772549604 172.8 178.69897207500384 179.20000000000002 176.4750836236964 185.6 173.8722817255093 192 171.38692381264403 198.4 162.6561038058374 204.8 154.12873668338548 211.20000000000002 153.5479732052664 217.60000000000002 149.77119950797396 224 151.99185035895258 230.39999999999998 150.24039821129318 236.8 143.46429399886932 243.2 140.69803182620464 249.60000000000002 142.9293329735405 256 147.05367914161906 262.4 144.44710046433 268.8 147.1407093402321 275.2 149.53430368876323 281.6 150.79096895223185 288 152.38216994299745 294.40000000000003 155.0354050622181 300.79999999999995 154.49055025950057 307.2 148.88683600577014 313.6 148.96305293370486 320 145.90477850813326 326.4 141.78911556995683 332.8 137.4586605734816 339.20000000000005 139.37110180923804 345.6 135.06406688338842 352 134.18778126027976 358.40000000000003 137.09707041018174 364.79999999999995 142.45248157726854 371.2 144.39918557211348 377.59999999999997 146.97583997134114 384 149.82623043178427 390.4 149.06463669500323 396.8 151.7194046421202 403.2 154.19237589007713 409.6 158.30296608425553 416 162.42166019478583 422.40000000000003 164.48552447777053 428.8 158.22323977799616 435.20000000000005 161.34781765663112 441.59999999999997 165.8746474109344 448 170.07077410364076 454.4 168.56368260738506 460.79999999999995 169.213800336478 467.2 173.47277432925458 473.6 177.15378235911578 480 181.4936849546844 486.4 177.55137055061314 492.8 179.11019193150932 499.20000000000005 179.8434411550585 505.6 178.85214545472635 512 181.19126930725233 518.4000000000001 185.21851418088403 524.8 189.19426477930597 531.1999999999999 186.26908830978235 537.6 186.94225805325107 544 190.98330873531137 550.4 193.06124725501826 556.8 195.38483564024426 563.2 199.0287944107853 569.6 200.45620727752652 576 202.54861455901892 582.4 204.6814892758312 588.8000000000001 208.1474113778026 595.2 207.1113174880441 601.5999999999999 197.53797789540744 608 198.0925525375963 614.4 198.3792191629022 620.8 197.54833937755276 627.2 197.6443252724995 633.6 195.9882628446982 640 196.69687867892435 640 320 0 320"
      />
      
      <polygon
        fill="#2415b9"
        fillRule="evenodd"
        points="0 318.0212240130413 6.4 313.52736415602914 12.8 310.8961219390135 19.2 304.6063534453787 25.6 301.5123577427831 32 299.63474601694594 38.4 295.68732985952977 44.800000000000004 289.6072480347778 51.2 284.8540508325663 57.599999999999994 274.44711236351174 64 270.1967639672619 70.4 262.95236570747664 76.8 259.7806117925929 83.2 257.2939903740637 89.60000000000001 251.48857441103593 96 243.1157834845968 102.4 233.690768844714 108.80000000000001 232.44226970341913 115.19999999999999 230.48711886901498 121.6 226.74327724614773 128 225.02614858377552 134.4 216.76222517167386 140.8 218.75155138520148 147.20000000000002 208.35861869974963 153.6 198.35250414216677 160 194.34755900758364 166.4 186.11867772549604 172.8 178.69897207500384 179.20000000000002 176.4750836236964 185.6 173.8722817255093 192 171.38692381264403 198.4 162.6561038058374 204.8 154.12873668338548 211.20000000000002 153.5479732052664 217.60000000000002 149.77119950797396 224 151.99185035895258 230.39999999999998 150.24039821129318 236.8 143.46429399886932 243.2 140.69803182620464 249.60000000000002 142.9293329735405 256 147.05367914161906 262.4 144.44710046433 268.8 147.1407093402321 275.2 149.53430368876323 281.6 150.79096895223185 288 152.38216994299745 294.40000000000003 155.0354050622181 300.79999999999995 154.49055025950057 307.2 148.88683600577014 313.6 148.96305293370486 320 145.90477850813326 326.4 142.14874618821906 332.8 137.8182911917438 339.20000000000005 139.73073242750024 345.6 135.42369750165068 352 134.547411878542 358.40000000000003 137.45670102844397 364.79999999999995 142.8121121955308 371.2 144.75881619037574 377.59999999999997 147.33547058960337 384 150.18586105004653 390.4 149.42426731326546 396.8 152.07903526038245 403.2 154.5520065083394 409.6 158.66259670251776 416 162.78129081304806 422.40000000000003 164.84515509603278 428.8 158.5828703962584 435.20000000000005 161.70744827489335 441.59999999999997 166.23427802919662 448 170.43040472190302 454.4 168.92331322564732 460.79999999999995 169.57343095474022 467.2 173.8324049475168 473.6 177.513412977378 480 181.85331557294663 486.4 177.91100116887537 492.8 179.46982254977155 499.20000000000005 180.20307177332074 505.6 179.21177607298858 512 181.55089992551456 518.4000000000001 185.57814479914626 524.8 189.55389539756823 531.1999999999999 186.62871892804458 537.6 187.3018886715133 544 191.34293935357363 550.4 193.42087787328046 556.8 195.74446625850652 563.2 199.38842502904754 569.6 200.81583789578875 576 202.90824517728115 582.4 205.04111989409344 588.8000000000001 208.50704199606486 595.2 207.47094810630637 601.5999999999999 197.89760851366967 608 198.45218315585856 614.4 198.73884978116445 620.8 197.907969995815 627.2 198.00395589076174 633.6 196.34789346296043 640 196.69687867892435 640 320 0 320"
      />
      
      <polygon
        fill="#f1e05a"
        fillRule="evenodd"
        points="0 318.0212240130413 6.4 313.52736415602914 12.8 310.8961219390135 19.2 304.6063534453787 25.6 301.5123577427831 32 299.63474601694594 38.4 295.68732985952977 44.800000000000004 289.6072480347778 51.2 284.8540508325663 57.599999999999994 275.5586170640365 64 271.2743406015018 70.4 264.3815260707678 76.8 261.6232651656014 83.2 259.0916477916313 89.60000000000001 253.23310318636126 96 246.00812886397287 102.4 237.61107755400542 108.80000000000001 236.28995255062654 115.19999999999999 234.21735324065548 121.6 230.51369520179878 128 228.68147662420589 134.4 222.60338163655092 140.8 224.4144099766533 147.20000000000002 213.85411516836788 153.6 203.68025296392875 160 199.51268235000938 166.4 191.13114783737518 172.8 184.6746209379633 179.20000000000002 182.27412528814287 185.6 179.49431073360861 192 176.83734469332737 198.4 169.27911624386357 204.8 161.9144323414633 211.20000000000002 161.10356691861955 217.60000000000002 157.65200924445372 224 159.74989597107276 230.39999999999998 157.76163281537754 236.8 151.88572411359013 243.2 148.87056929639652 249.60000000000002 150.85241061034267 256 154.74259306274223 262.4 153.0042746971879 268.8 155.44772040496258 275.2 157.61194645523028 281.6 159.39929601671537 288 161.3843038371547 294.40000000000003 163.76275506511524 300.79999999999995 164.08016953903862 307.2 158.1837365123638 313.6 157.97617405700805 320 154.6515175334318 326.4 150.62849914157752 332.8 146.0474288699119 339.20000000000005 147.7086804490048 345.6 144.26954414923955 352 143.14901076791585 358.40000000000003 145.79574285106904 364.79999999999995 150.90469555915456 371.2 152.60437904371767 377.59999999999997 154.94916211557876 384 157.56714796782427 390.4 156.58024564870192 396.8 159.02352304934726 403.2 161.28451711923032 409.6 165.1961319124526 416 169.1153947131545 422.40000000000003 170.98591263637178 428.8 165.66898894282335 435.20000000000005 168.57726647234645 441.59999999999997 172.9010631648036 448 176.8936889676053 454.4 175.1955782299371 460.79999999999995 175.654240126047 467.2 179.72760074211325 473.6 183.23437821809011 480 187.399652405559 486.4 183.29341846843542 492.8 184.687944039901 499.20000000000005 185.26191347913147 505.6 184.13093519163417 512 186.31990524641043 518.4000000000001 190.20620553766167 524.8 194.04068603661784 531.1999999999999 190.9829048187513 537.6 191.5231654636224 544 195.43536316670114 550.4 197.39235277190613 556.8 199.5947148132962 563.2 203.12488111313561 569.6 204.43824123935917 576 206.42007721022188 582.4 208.45598451792893 588.8000000000001 211.8176694319743 595.2 210.68373155916646 601.5999999999999 201.0123233684714 608 201.47484459432295 614.4 201.66924623773636 620.8 200.74891758373866 627.2 200.76094000448168 633.6 199.02072318999416 640 199.297304590093 640 320 0 320"
      />
      
      <polygon
        fill="#22e8e8"
        fillRule="evenodd"
        points="0 319.92567425645996 6.4 319.8564689850385 12.8 319.8272328961282 19.2 318.6603028905819 25.6 318.54752993158235 32 318.4075978673215 38.4 318.26954437346285 44.800000000000004 316.0115355858338 51.2 316.0194984139566 57.599999999999994 310.27120007488827 64 309.37987101054125 70.4 306.9369336046824 76.8 307.0222658330192 83.2 306.27910282634383 89.60000000000001 304.58411491546144 96 300.15629924866226 102.4 294.75364960317614 108.80000000000001 293.4787833724663 115.19999999999999 293.7809586119676 121.6 290.88386265597654 128 291.2549272262636 134.4 286.9785415629764 140.8 287.29592119383045 147.20000000000002 280.0896288703231 153.6 272.356525213679 160 270.68736296317815 166.4 264.6410436320075 172.8 259.7160499586877 179.20000000000002 258.4821241083863 185.6 256.49762033594635 192 254.7095701626411 198.4 249.75804718594722 204.8 243.8433322854172 211.20000000000002 243.32680911088028 217.60000000000002 241.8302548533906 224 242.76855888964536 230.39999999999998 241.70746765102044 236.8 237.21782914848058 243.2 234.04436493312795 249.60000000000002 235.7303288897853 256 237.40441609665035 262.4 235.56049887889765 268.8 237.00507568202923 275.2 238.39935826649878 281.6 240.8175924088605 288 242.54147140986356 294.40000000000003 244.5917093503733 300.79999999999995 243.76036396051003 307.2 239.79406537950044 313.6 239.8281068835575 320 237.43530055763708 326.4 235.7225698078205 332.8 231.9917587941715 339.20000000000005 232.2007191851162 345.6 229.58697317235675 352 229.0000730601193 358.40000000000003 230.61536808983954 364.79999999999995 233.24731456635732 371.2 234.38584070934454 377.59999999999997 235.4497705638152 384 235.9808086356084 390.4 235.02393444559488 396.8 236.27274909596878 403.2 237.10994602534663 409.6 239.17608958553888 416 241.04017231957363 422.40000000000003 242.01071462058962 428.8 236.8473172379774 435.20000000000005 238.18587904490948 441.59999999999997 240.60232337761022 448 242.69850904112963 454.4 240.2079440159922 460.79999999999995 240.0552194758316 467.2 242.49390172194 473.6 244.47758187861314 480 246.78130523435146 486.4 243.48880235958958 492.8 244.04377539030222 499.20000000000005 246.20496942565282 505.6 246.8955921457774 512 247.99729608994173 518.4000000000001 250.11823646468704 524.8 252.23283799015485 531.1999999999999 249.58178564383417 537.6 249.44272871119318 544 251.59488492085205 550.4 252.51203341883334 556.8 253.3534401739534 563.2 255.30238257141735 569.6 256.1532782728767 576 257.94404352377273 582.4 258.99696835251945 588.8000000000001 260.82647270535983 595.2 259.22058951717435 601.5999999999999 252.11870715841724 608 252.09483722071357 614.4 251.32929021250825 620.8 250.03622394548677 627.2 248.84026561477586 633.6 247.3803346290014 640 246.47534963279966 640 320 0 320"
      />
      
      <polygon
        fill="#22e4e8"
        fillRule="evenodd"
        points="0 319.92567425645996 6.4 319.8564689850385 12.8 319.8272328961282 19.2 318.6603028905819 25.6 318.54752993158235 32 318.4075978673215 38.4 318.26954437346285 44.800000000000004 316.0115355858338 51.2 316.0194984139566 57.599999999999994 310.27120007488827 64 309.37987101054125 70.4 306.9369336046824 76.8 307.0222658330192 83.2 306.27910282634383 89.60000000000001 304.58411491546144 96 300.15629924866226 102.4 294.75364960317614 108.80000000000001 293.4787833724663 115.19999999999999 293.7809586119676 121.6 290.88386265597654 128 291.2549272262636 134.4 286.9785415629764 140.8 287.29592119383045 147.20000000000002 280.0896288703231 153.6 272.356525213679 160 270.68736296317815 166.4 264.6410436320075 172.8 259.7160499586877 179.20000000000002 258.4821241083863 185.6 256.49762033594635 192 254.7095701626411 198.4 249.75804718594722 204.8 243.8433322854172 211.20000000000002 243.32680911088028 217.60000000000002 241.8302548533906 224 242.76855888964536 230.39999999999998 241.70746765102044 236.8 237.21782914848058 243.2 234.04436493312795 249.60000000000002 235.7303288897853 256 237.40441609665035 262.4 235.56049887889765 268.8 237.00507568202923 275.2 238.39935826649878 281.6 240.8175924088605 288 242.54147140986356 294.40000000000003 244.5917093503733 300.79999999999995 243.76036396051003 307.2 239.79406537950044 313.6 239.8281068835575 320 237.43530055763708 326.4 235.7739456104294 332.8 232.0431345967804 339.20000000000005 232.25209498772512 345.6 229.63834897496565 352 229.05144886272814 358.40000000000003 230.66674389244838 364.79999999999995 233.2986903689662 371.2 234.43721651195344 377.59999999999997 235.50114636642408 384 236.03218443821729 390.4 235.07531024820378 396.8 236.32412489857768 403.2 237.1613218279555 409.6 239.22746538814778 416 241.09154812218253 422.40000000000003 242.06209042319853 428.8 236.89869304058624 435.20000000000005 238.23725484751836 441.59999999999997 240.65369918021912 448 242.74988484373853 454.4 240.2593198186011 460.79999999999995 240.10659527844047 467.2 242.54527752454888 473.6 244.52895768122204 480 246.83268103696037 486.4 243.5401781621985 492.8 244.09515119291112 499.20000000000005 246.2563452282617 505.6 246.94696794838632 512 248.0486718925506 518.4000000000001 250.16961226729592 524.8 252.28421379276372 531.1999999999999 249.63316144644307 537.6 249.49410451380206 544 251.64626072346093 550.4 252.5634092214422 556.8 253.40481597656228 563.2 255.35375837402626 569.6 256.2046540754856 576 257.99541932638164 582.4 259.04834415512835 588.8000000000001 260.87784850796874 595.2 259.27196531978325 601.5999999999999 252.1700829610261 608 252.14621302332245 614.4 251.38066601511713 620.8 250.08759974809564 627.2 248.89164141738473 633.6 247.4317104316103 640 246.47534963279966 640 320 0 320"
      />
      
      <polygon
        fill="#e34c26"
        fillRule="evenodd"
        points="0 319.92567425645996 6.4 319.8564689850385 12.8 319.8272328961282 19.2 318.6603028905819 25.6 318.63876230094303 32 318.51260283579205 38.4 318.371344125828 44.800000000000004 316.1105244786443 51.2 316.2070746134808 57.599999999999994 311.6486224361621 64 310.75104607421787 70.4 308.2675843600256 76.8 308.3122991356988 83.2 307.52975857998 89.60000000000001 305.7978080396558 96 302.0857655006388 102.4 297.72660988469346 108.80000000000001 296.36099518303257 115.19999999999999 296.57519295687234 121.6 294.7044060299526 128 294.9752918952165 134.4 291.71974240225194 140.8 292.19422687419706 147.20000000000002 288.1167908006627 153.6 282.4760453102437 160 280.5091001739353 166.4 276.09419993180495 172.8 271.33210043326903 179.20000000000002 270.3320937498262 185.6 269.0819937179716 192 268.32411880838725 198.4 264.11127609408794 204.8 258.7341575920574 211.20000000000002 258.8780241218354 217.60000000000002 257.3390478366155 224 258.03728918753575 230.39999999999998 256.5238298968753 236.8 252.7224750769189 243.2 250.19334357253382 249.60000000000002 252.19009106184893 256 254.18867194805597 262.4 252.86779430889146 268.8 253.80098253795046 275.2 254.9077353055391 281.6 256.83307410773534 288 258.58290097160403 294.40000000000003 260.4521080514929 300.79999999999995 259.9720919777063 307.2 257.864403477486 313.6 257.54207878177857 320 255.72565861284338 326.4 254.3230219324135 332.8 252.44399726545123 339.20000000000005 252.301702321475 345.6 249.89598207105922 352 249.60731232787003 358.40000000000003 250.63986190375812 364.79999999999995 252.6897523897148 371.2 254.04377536426108 377.59999999999997 254.88134137740488 384 255.76535895605457 390.4 254.20614560860997 396.8 254.90085476007408 403.2 255.17100873592915 409.6 256.7048774032562 416 258.1051342537576 422.40000000000003 258.5563463091338 428.8 255.1694327318083 435.20000000000005 257.12072188345905 441.59999999999997 258.979082175096 448 260.5159065950987 454.4 258.60054300093833 460.79999999999995 258.0205947540551 467.2 259.91246275515994 473.6 261.3828678182887 480 263.1721334095066 486.4 261.82041107422657 492.8 263.5576183866737 499.20000000000005 265.2078718449505 505.6 265.5769642420276 512 267.22152135681426 518.4000000000001 268.7758195092972 524.8 270.33942171688096 531.1999999999999 268.438631793895 537.6 268.9635988898455 544 270.52147475047053 550.4 271.9837852476434 556.8 273.4494491051036 563.2 274.8252235258578 569.6 276.20415458895104 576 277.54100537615307 582.4 278.71336764328885 588.8000000000001 279.9736270757067 595.2 278.9297365996475 601.5999999999999 275.7239187089306 608 277.0324802118886 614.4 278.2862940607715 620.8 278.41587411627677 627.2 279.6448680539302 633.6 279.5825078889452 640 280.67737944012924 640 320 0 320"
      />
      
      <polygon
        fill="#00ADD8"
        fillRule="evenodd"
        points="0 319.92567425645996 6.4 319.8564689850385 12.8 319.8272328961282 19.2 318.6603028905819 25.6 318.63876230094303 32 318.5153626065293 38.4 318.37401965617545 44.800000000000004 316.61218031791907 51.2 316.6934176892848 57.599999999999994 313.1394428047252 64 312.1963601201169 70.4 310.88202990571335 76.8 310.8639630395921 83.2 310.00353450658287 89.60000000000001 308.6617059178661 96 305.87144474120646 102.4 303.793161551515 108.80000000000001 303.02444602905024 115.19999999999999 303.3152913628022 121.6 302.4901869718628 128 302.9132417993579 134.4 300.9756892015539 140.8 301.5563921178769 147.20000000000002 299.63115623168846 153.6 295.8211905497854 160 294.0784545536425 166.4 290.71613353523463 172.8 287.71239554137327 179.20000000000002 287.3468070665105 185.6 286.1158301359031 192 284.93730453978185 198.4 282.37655145494455 204.8 277.94385994704845 211.20000000000002 278.0796553382366 217.60000000000002 276.03279430868207 224 276.21169513880193 230.39999999999998 274.1490254357043 236.8 270.3047224997989 243.2 268.0869519920929 249.60000000000002 269.66608304977325 256 271.14817374470863 262.4 270.4125291757386 268.8 270.8101719283383 275.2 272.1628904609812 281.6 273.56152350731503 288 274.9228722397566 294.40000000000003 276.2933076151776 300.79999999999995 276.4643442073398 307.2 274.6332722760102 313.6 273.79908840387833 320 272.0443685188443 326.4 270.1436115791236 332.8 268.24948037116224 339.20000000000005 268.7286106952863 345.6 266.93232973822217 352 266.17325492621757 358.40000000000003 266.7001391924437 364.79999999999995 268.2753737756771 371.2 269.77298492590285 377.59999999999997 270.1456852092685 384 271.63100620916873 390.4 270.8759115114177 396.8 271.21138974836384 403.2 272.6978504382437 409.6 274.0958342177344 416 275.46916603760457 422.40000000000003 275.7089615276649 428.8 272.9524670664444 435.20000000000005 274.3609359279864 441.59999999999997 275.7097808073139 448 277.0617026862112 454.4 276.49361916718243 460.79999999999995 276.69948334400715 467.2 278.02118474279064 473.6 279.0984673019364 480 280.3469768827944 486.4 279.2673459357114 492.8 280.4775227972236 499.20000000000005 281.6113055870337 505.6 281.5274761009232 512 282.68515500954595 518.4000000000001 283.78243457234123 524.8 284.8879598487036 531.1999999999999 282.6100715345684 537.6 282.84176397139026 544 283.9760196240876 550.4 285.0406855191319 556.8 286.10779131269305 563.2 287.10945535897775 569.6 288.1134216680041 576 289.08674087225177 582.4 289.9403147429253 588.8000000000001 290.85787548034676 595.2 291.71914464478857 601.5999999999999 290.34722507380604 608 291.2236071601217 614.4 292.1019974690204 620.8 292.92839575543843 627.2 293.7284808600437 633.6 293.5546197906566 640 294.27100477650487 640 320 0 320"
      />
      
      <polygon
        fill="#244776"
        fillRule="evenodd"
        points="0 319.92567425645996 6.4 319.8564689850385 12.8 319.8272328961282 19.2 318.6603028905819 25.6 318.63876230094303 32 318.5153626065293 38.4 318.37401965617545 44.800000000000004 316.61218031791907 51.2 316.6934176892848 57.599999999999994 313.1394428047252 64 312.1963601201169 70.4 310.88202990571335 76.8 310.8639630395921 83.2 310.00353450658287 89.60000000000001 308.6617059178661 96 305.87144474120646 102.4 303.793161551515 108.80000000000001 303.02444602905024 115.19999999999999 303.3152913628022 121.6 302.4901869718628 128 302.9132417993579 134.4 300.9756892015539 140.8 301.5563921178769 147.20000000000002 299.63115623168846 153.6 295.8211905497854 160 294.0784545536425 166.4 290.71613353523463 172.8 287.71239554137327 179.20000000000002 287.3468070665105 185.6 286.1158301359031 192 284.93730453978185 198.4 282.37655145494455 204.8 277.94385994704845 211.20000000000002 278.0796553382366 217.60000000000002 276.03279430868207 224 276.21169513880193 230.39999999999998 274.1490254357043 236.8 270.3047224997989 243.2 268.0869519920929 249.60000000000002 269.66608304977325 256 271.14817374470863 262.4 270.4125291757386 268.8 270.8101719283383 275.2 272.1628904609812 281.6 273.56152350731503 288 274.9228722397566 294.40000000000003 276.2933076151776 300.79999999999995 276.4643442073398 307.2 274.6332722760102 313.6 273.79908840387833 320 272.0443685188443 326.4 270.1436115791236 332.8 268.24948037116224 339.20000000000005 268.7286106952863 345.6 266.93232973822217 352 266.17325492621757 358.40000000000003 266.7001391924437 364.79999999999995 268.2753737756771 371.2 269.77298492590285 377.59999999999997 270.1456852092685 384 271.63100620916873 390.4 270.8759115114177 396.8 271.21138974836384 403.2 272.6978504382437 409.6 274.0958342177344 416 275.46916603760457 422.40000000000003 275.7089615276649 428.8 272.9524670664444 435.20000000000005 274.3609359279864 441.59999999999997 275.7097808073139 448 277.0617026862112 454.4 276.49361916718243 460.79999999999995 276.69948334400715 467.2 278.02118474279064 473.6 279.0984673019364 480 280.3469768827944 486.4 279.2673459357114 492.8 280.4775227972236 499.20000000000005 281.6113055870337 505.6 281.5274761009232 512 282.68515500954595 518.4000000000001 283.78243457234123 524.8 284.8879598487036 531.1999999999999 282.6100715345684 537.6 282.84176397139026 544 283.9760196240876 550.4 285.0406855191319 556.8 286.10779131269305 563.2 287.10945535897775 569.6 288.1134216680041 576 289.08674087225177 582.4 289.9403147429253 588.8000000000001 290.85787548034676 595.2 291.71914464478857 601.5999999999999 290.40278628837575 608 291.27752629101326 614.4 292.154270751415 620.8 292.97907342254086 627.2 293.7776607786478 633.6 293.60229851858367 640 294.3173919444973 640 320 0 320"
      />
      
      <polygon
        fill="#563d7c"
        fillRule="evenodd"
        points="0 319.92567425645996 6.4 319.8564689850385 12.8 319.8272328961282 19.2 318.6603028905819 25.6 318.63876230094303 32 318.5153626065293 38.4 318.37401965617545 44.800000000000004 316.61218031791907 51.2 316.6934176892848 57.599999999999994 314.2496030004957 64 313.27263335024463 70.4 311.9264944241654 76.8 311.8765458927288 83.2 310.9852088548572 89.60000000000001 309.61436742564274 96 306.79502672269365 102.4 305.79142514076517 108.80000000000001 304.96171379940455 115.19999999999999 305.193424967844 121.6 304.3146368704909 128 304.68200156097726 134.4 303.8118338711949 140.8 304.3059649638157 147.20000000000002 302.2994669431247 153.6 298.40805263255567 160 296.58635408283493 166.4 293.14991339950654 172.8 290.0718857895695 179.20000000000002 289.63656391030963 185.6 288.3356934883041 192 287.0894076268608 198.4 284.4692315419488 204.8 279.97266223813375 211.20000000000002 280.0484973411035 217.60000000000002 277.94153854168275 224 278.06402761027033 230.39999999999998 275.94481626761154 236.8 273.17508458424504 243.2 271.62230859404184 249.60000000000002 273.0935251893486 256 274.47431955005095 262.4 273.6371463254684 268.8 273.936359410869 275.2 275.20275878600694 281.6 276.50860168699404 288 277.7828509662407 294.40000000000003 279.0659872420978 300.79999999999995 279.1550789153408 307.2 277.2418738241512 313.6 276.32806331481703 320 274.49860139838955 326.4 272.5229303183367 332.8 270.55847950807043 339.20000000000005 270.9671291153727 345.6 269.10251864909355 352 268.2835213614612 358.40000000000003 268.7459908518796 364.79999999999995 270.26076135577415 371.2 271.6977698147457 377.59999999999997 272.0135842406726 384 273.4418883748375 390.4 272.6315176290467 396.8 272.9151100044157 403.2 274.3495655381046 409.6 275.69873367398213 416 277.0231379537409 422.40000000000003 277.2154993982717 428.8 275.390271094583 435.20000000000005 276.7243271408747 441.59999999999997 278.00332363675886 448 279.28523642870226 454.4 278.6514374012952 460.79999999999995 278.7914357441432 467.2 280.0492811303481 473.6 281.0666243626029 480 282.25505734042537 486.4 281.1190339491119 492.8 282.27268910487436 499.20000000000005 283.35167538838624 505.6 283.21979164805714 512 284.3258135229275 518.4000000000001 285.37460429496565 524.8 286.4315293978309 531.1999999999999 284.1080217342659 537.6 284.2939901177723 544 285.3839174949594 550.4 286.40697361371275 556.8 287.4323742774933 563.2 288.39489088695444 569.6 289.3596201083817 576 290.29489979498913 582.4 291.1151144322643 588.8000000000001 291.9968150649679 595.2 292.8244235228016 601.5999999999999 291.47432708782196 608 292.3173983264701 614.4 293.1624013261218 620.8 293.9564313813832 627.2 294.7261335144862 633.6 294.52181965388104 640 295.21200424116097 640 320 0 320"
      />
      
      <polygon
        fill="#178600"
        fillRule="evenodd"
        points="0 320 6.4 320 12.8 320 19.2 320 25.6 320 32 320 38.4 320 44.800000000000004 320 51.2 320 57.599999999999994 318.7303285205442 64 318.7690845867786 70.4 318.8054636795792 76.8 318.8419261655826 83.2 318.87727564619826 89.60000000000001 318.9104572220712 96 318.9437148033066 102.4 318.97493285765484 108.80000000000001 319.0062224271203 115.19999999999999 319.03655688958975 121.6 319.0640954911564 128 319.0926634788545 134.4 319.1194792845294 140.8 319.1463567000668 147.20000000000002 319.171585692152 153.6 319.1856776946267 160 319.2105344073711 166.4 319.2338666561998 172.8 319.25725239751415 179.20000000000002 319.2792039319229 185.6 318.19414065132423 192 318.2492634658951 198.4 318.2976041093878 204.8 316.13887426303353 211.20000000000002 316.24748507303565 217.60000000000002 316.362028308616 224 316.46954646832336 230.39999999999998 316.57731176619166 236.8 316.24156010722396 243.2 315.6381781237515 249.60000000000002 315.77132016023813 256 315.8962967321613 262.4 316.02155977555987 268.8 316.142999226225 275.2 316.2494973810226 281.6 316.3639796026997 288 316.4714402215082 294.40000000000003 316.57914745444435 300.79999999999995 316.6802487353052 307.2 315.97581147286553 313.6 316.0986475233488 320 314.31084419022477 326.4 314.48450241766807 332.8 313.52091081063793 339.20000000000005 313.71868124351965 345.6 313.9104150195948 352 312.9761232382957 358.40000000000003 313.1905226107849 364.79999999999995 313.3917731069583 371.2 313.5934853277448 377.59999999999997 313.78282691287336 384 313.9726022433531 390.4 314.1565854966721 396.8 314.32928422962584 403.2 314.50237955295023 409.6 314.66485912500707 416 314.8277109661296 422.40000000000003 314.98559205449743 428.8 313.21290270158875 435.20000000000005 313.4200747008446 441.59999999999997 313.61454136136376 448 313.8094531418367 454.4 313.1987259598652 460.79999999999995 313.4063307488823 467.2 313.6075988464056 473.6 313.7965226743329 480 313.98588021678574 486.4 314.1636244645621 492.8 314.34177643070797 499.20000000000005 314.5144904736509 505.6 314.6659545598703 512 314.8287732122243 518.4000000000001 314.9816059498252 524.8 315.134789584158 531.1999999999999 315.2785781254676 537.6 315.4226968076849 544 315.5624163854279 550.4 315.6935669930538 556.8 315.82501841627914 563.2 315.948407876633 569.6 316.07208027380693 576 316.19197767975675 582.4 316.2971233460003 588.8000000000001 316.41015155026236 595.2 316.5162474839013 601.5999999999999 316.62258723682424 608 316.72240473912956 614.4 316.82245140834 620.8 316.91944437176943 627.2 317.0104885926658 633.6 317.1017417795017 640 317.1802522260165 640 320 0 320"
      />
      
      <polygon
        fill="#555555"
        fillRule="evenodd"
        points="0 320 6.4 320 12.8 320 19.2 320 25.6 320 32 320 38.4 320 44.800000000000004 320 51.2 320 57.599999999999994 318.7303285205442 64 318.7690845867786 70.4 318.8054636795792 76.8 318.8419261655826 83.2 318.87727564619826 89.60000000000001 318.9104572220712 96 318.9437148033066 102.4 318.97493285765484 108.80000000000001 319.0062224271203 115.19999999999999 319.03655688958975 121.6 319.0640954911564 128 319.0926634788545 134.4 319.1194792845294 140.8 319.1463567000668 147.20000000000002 319.171585692152 153.6 319.1856776946267 160 319.2105344073711 166.4 319.2338666561998 172.8 319.25725239751415 179.20000000000002 319.2792039319229 185.6 318.19414065132423 192 318.2492634658951 198.4 318.2976041093878 204.8 317.24284901767317 211.20000000000002 317.31883239120924 217.60000000000002 317.40067338715494 224 317.47749501856157 230.39999999999998 317.55449319777625 236.8 317.1889135698267 243.2 316.5575331097033 249.60000000000002 316.66261234703404 256 316.7612472091888 262.4 316.8601082276266 268.8 316.9559514314192 275.2 317.0400026554937 281.6 317.13035512175827 288 317.2151659370744 294.40000000000003 317.3001713639308 300.79999999999995 317.37996322571433 307.2 317.4599384991131 313.6 317.5374723943719 320 316.5057095155988 326.4 316.61237071664357 332.8 315.585891017156 339.20000000000005 315.72062919707804 345.6 315.8512546412497 352 314.8633729657525 358.40000000000003 315.02016526728596 364.79999999999995 315.1673417036974 371.2 315.31485574078295 377.59999999999997 315.4533230538877 384 315.59210738652 390.4 315.7266561233076 396.8 315.8529523340965 403.2 315.9795385818416 409.6 316.0983614628799 416 316.2174564301688 422.40000000000003 316.3329164155709 428.8 315.58525436821003 435.20000000000005 315.72001165993066 441.59999999999997 315.84650484554686 448 315.97328748243496 454.4 316.09229541911424 460.79999999999995 316.21157575029895 467.2 316.327215283856 473.6 316.4357620796081 480 316.5445585617608 486.4 316.6466823546707 492.8 316.7490404212405 499.20000000000005 316.84827411975044 505.6 316.9352985642736 512 317.02884670821203 518.4000000000001 317.1166576135215 524.8 317.20466991197725 531.1999999999999 317.287284360356 537.6 317.37008848819806 544 317.4503650293034 550.4 317.5257182272446 556.8 317.60124431503687 563.2 317.6721381857881 569.6 317.74319477398143 576 317.8120824812918 582.4 317.8724944141909 588.8000000000001 317.93743527821744 595.2 317.99839315094545 601.5999999999999 318.0594911665878 608 318.116841841463 614.4 318.17432417197 620.8 318.2300519879924 627.2 318.2823618335182 633.6 318.334791764845 640 318.37990033604524 640 320 0 320"
      />
      
      <polygon
        fill="#C1F12E"
        fillRule="evenodd"
        points="0 320 6.4 320 12.8 320 19.2 320 25.6 320 32 320 38.4 320 44.800000000000004 320 51.2 320 57.599999999999994 319.00777450039226 64 319.03806166629784 70.4 319.06649128868435 76.8 319.0949860555885 83.2 319.12261103015453 89.60000000000001 319.1485418362537 96 319.1745320327807 102.4 319.19892839778333 108.80000000000001 319.22338062883375 115.19999999999999 319.24708648249907 121.6 319.2686073952055 128 319.29093278105466 134.4 319.3118888373617 140.8 319.3328930636213 147.20000000000002 319.3526090621809 153.6 319.3611754326824 160 319.38067518021353 166.4 319.3989790120867 172.8 319.41732479744036 179.20000000000002 319.4345454835423 185.6 319.44084473235114 192 319.45791261654097 198.4 319.472880566175 204.8 319.4862107374231 211.20000000000002 319.50139547239377 217.60000000000002 319.51661510180963 224 319.5309012842678 230.39999999999998 319.54522026503844 236.8 319.3091073514085 243.2 318.6150657771235 249.60000000000002 318.6573400480454 256 318.69702169046445 262.4 318.73679437080574 268.8 318.7753528354282 275.2 318.80916746394087 281.6 318.8455169745543 288 318.87963713496515 294.40000000000003 318.9138354893476 300.79999999999995 318.9459365293401 307.2 318.9781112422335 313.6 319.0093038552843 320 319.0385833361975 326.4 319.06793001666057 332.8 319.09547690000664 339.20000000000005 319.12308687283826 345.6 319.14985417975555 352 319.17332809222233 358.40000000000003 319.1985617595056 364.79999999999995 319.2222478232117 371.2 319.24598830416795 377.59999999999997 319.2682727332273 384 319.2906082606599 390.4 319.3122620620174 396.8 319.33258776805195 403.2 319.35296009248975 409.6 319.37208309098526 416 319.39124986166456 422.40000000000003 319.4098316263547 428.8 318.5742204727753 435.20000000000005 318.617741531675 441.59999999999997 318.65859351487745 448 318.6995391047923 454.4 318.7379736509788 460.79999999999995 318.776496255291 467.2 318.8138429702331 473.6 318.8488990436401 480 318.8840358798087 486.4 318.91701760380954 492.8 318.95007505574347 499.20000000000005 318.9821233841625 505.6 319.01022861973127 512 319.04044087971664 518.4000000000001 319.06880011725355 524.8 319.09722439655656 531.1999999999999 319.12390539212544 537.6 319.1506477304026 544 319.1765737071764 550.4 319.20090970561097 556.8 319.22530145706656 563.2 319.2481972787273 569.6 319.27114566810917 576 319.29339349704674 582.4 319.3129040232213 588.8000000000001 319.3338771671203 595.2 319.35356403559973 601.5999999999999 319.37329620726194 608 319.3918180780414 614.4 319.4103825188109 620.8 319.42838025365216 627.2 319.4452741896495 633.6 319.46220683217655 640 319.47677505751597 640 320 0 320"
      />
      

      
        <g id="labels">
        
          
          <text x="0" y="330">
            Jul 2014
          </text>
          
        
          
        
          
        
          
        
          
        
          
        
          
        
          
        
          
        
          
        
          
        
          
        
          
        
          
          <text x="82.37623762376238" y="330">
            Aug 2015
          </text>
          
        
          
        
          
        
          
        
          
        
          
        
          
        
          
        
          
        
          
        
          
        
          
        
          
        
          
          <text x="164.75247524752476" y="330">
            Sep 2016
          </text>
          
        
          
        
          
        
          
        
          
        
          
        
          
        
          
        
          
        
          
        
          
        
          
        
          
        
          
          <text x="247.12871287128712" y="330">
            Oct 2017
          </text>
          
        
          
        
          
        
          
        
          
        
          
        
          
        
          
        
          
        
          
        
          
        
          
        
          
        
          
          <text x="329.5049504950495" y="330">
            Nov 2018
          </text>
          
        
          
        
          
        
          
        
          
        
          
        
          
        
          
        
          
        
          
        
          
        
          
        
          
        
          
          <text x="411.8811881188119" y="330">
            Dec 2019
          </text>
          
        
          
        
          
        
          
        
          
        
          
        
          
        
          
        
          
        
          
        
          
        
          
        
          
        
          
          <text x="494.25742574257424" y="330">
            Jan 2021
          </text>
          
        
          
        
          
        
          
        
          
        
          
        
          
        
          
        
          
        
          
        
          
        
          
        
          
        
          
          <text x="576.6336633663366" y="330">
            Feb 2022
          </text>
          
        
          
        
          
        
          
        
          
        
          
        
          
        
          
        
          
        
          
        
        </g>
      

      
        <text text-anchor="middle" y="370" x="320" id="legend">
          
          <tspan xml:space="preserve" fill="#C1F12E">   </tspan> Batchfile
          
          <tspan xml:space="preserve" fill="#555555">   </tspan> C
          
          <tspan xml:space="preserve" fill="#178600">   </tspan> C#
          
          <tspan xml:space="preserve" fill="#563d7c">   </tspan> CSS
          
          <tspan xml:space="preserve" fill="#244776">   </tspan> CoffeeScript
          
          <tspan xml:space="preserve" fill="#00ADD8">   </tspan> Go
          
          <tspan xml:space="preserve" fill="#e34c26">   </tspan> HTML
          
          <tspan xml:space="preserve" fill="#22e4e8">   </tspan> JSON
          
        </text>
      
        <text text-anchor="middle" y="400" x="320" id="legend">
          
          <tspan xml:space="preserve" fill="#22e8e8">   </tspan> JSon
          
          <tspan xml:space="preserve" fill="#f1e05a">   </tspan> JavaScript
          
          <tspan xml:space="preserve" fill="#2415b9">   </tspan> Less
          
          <tspan xml:space="preserve" fill="#755462">   </tspan> MySQL
          
          <tspan xml:space="preserve" fill="#4F5D95">   </tspan> PHP
          
          <tspan xml:space="preserve" fill="#fd2fdb">   </tspan> PLpgSQL
          
          <tspan xml:space="preserve" fill="#0298c3">   </tspan> Perl
          
          <tspan xml:space="preserve" fill="#3572A5">   </tspan> Python
          
        </text>
      
        <text text-anchor="middle" y="430" x="320" id="legend">
          
          <tspan xml:space="preserve" fill="#701516">   </tspan> Ruby
          
          <tspan xml:space="preserve" fill="#dea584">   </tspan> Rust
          
          <tspan xml:space="preserve" fill="#26c0b0">   </tspan> SCSS
          
          <tspan xml:space="preserve" fill="#0141ae">   </tspan> SQL
          
          <tspan xml:space="preserve" fill="#89e051">   </tspan> Shell
          
          <tspan xml:space="preserve" fill="#509e5b">   </tspan> Svelte
          
          <tspan xml:space="preserve" fill="#2770da">   </tspan> TSQL
          
          <tspan xml:space="preserve" fill="#2b7489">   </tspan> TypeScript
          
        </text>
      
        <text text-anchor="middle" y="460" x="320" id="legend">
          
          <tspan xml:space="preserve" fill="#2c3e50">   </tspan> Vue
          
          <tspan xml:space="preserve" fill="#4B6C4B">   </tspan> Yacc
          
        </text>
      

    </svg>