<svg
      xmlns="http://www.w3.org/2000/svg"
      viewBox="0 0 640 490"
      style="background-color: #292b3e"
    >
      <style>
        text {
          font-size: 12px;
          font-family: Open Sans, Helvetica Neue, Helvetica, Arial, sans-serif;
        }
        #labels text {
          dominant-baseline: hanging;
          font-size: 10px;
          fill: rgba(0,0,0,0.5);
        }
        #legend {
          font-weight: 600;
        }
        #legend tspan {
          font-size: 15px;
        }
        #branding-text {
          font-size: 9px;
          dominant-baseline: hanging;
          opacity: 0.5;
        }
        #branding-logo {
          opacity: 0.5;
        }
      </style>

      
      
      <polygon
        fill="#4B6C4B"
        fillRule="evenodd"
        points="0 313.6135521118196 6.530612244897958 304.2691182115241 13.061224489795917 297.2680520701267 19.591836734693878 285.9388307554897 26.122448979591834 278.82801281134994 32.6530612244898 274.98420666458617 39.183673469387756 267.09076553060754 45.71428571428571 257.0788388349821 52.24489795918367 246.2221730497164 58.775510204081634 230.99234859424672 65.3061224489796 221.54628499013396 71.83673469387755 206.62811021046687 78.36734693877551 198.27732645759244 84.89795918367348 192.17036216172195 91.42857142857142 182.12957587136327 97.9591836734694 170.61733038198653 104.48979591836734 156.95189751470838 111.0204081632653 154.80422334517553 117.55102040816327 149.88801385720615 124.08163265306122 142.52573964016435 130.6122448979592 138.28625532544376 137.14285714285714 123.78700377316122 143.6734693877551 127.17494878184738 150.20408163265307 110.77261560085134 156.73469387755102 93.0574629076603 163.26530612244898 88.01899662130367 169.79591836734696 78.10635189771739 176.32653061224488 68.78380379894222 182.85714285714283 65.97379114779753 189.3877551020408 62.133532827687645 195.9183673469388 59.1891907755774 202.44897959183675 46.68398636001331 208.97959183673467 33.29404266536329 215.51020408163265 31.646501759147384 222.0408163265306 27.414729629250246 228.57142857142858 27.528966929255375 235.10204081632654 25.25122267100437 241.63265306122446 13.936249311783001 248.16326530612244 9.643224079255162 254.69387755102042 9.883953357657106 261.2244897959184 12.93813583678184 267.7551020408163 8.247133757613483 274.2857142857143 10.710200422010303 280.81632653061223 10.159163763172728 287.3469387755102 11.455623300110801 293.8775510204082 14.19584003743364 300.40816326530614 17.69311323694626 306.9387755102041 18.067921007211567 313.46938775510205 12.038966302468339 320 13.32281202880256 326.53061224489795 11.292850168652762 333.0612244897959 7.029592366002134 339.5918367346939 1.9719030156513782 346.12244897959187 4.695541629931313 352.65306122448976 0.06672544926146884 359.1836734693877 0 365.71428571428567 3.134310586048514 372.2448979591837 11.12195756151749 378.7755102040816 13.499745623213187 385.3061224489796 18.048082786929115 391.8367346938776 21.31472806867231 398.36734693877554 21.568594912318986 404.8979591836735 27.06671267811572 411.42857142857144 30.681066480011168 417.95918367346934 36.74805762109804 424.48979591836735 42.80379417784087 431.0204081632653 46.96050675476903 437.55102040816325 38.51484625881079 444.0816326530612 42.63131859926716 450.61224489795916 50.61550020756715 457.14285714285717 58.06908038808098 463.6734693877551 55.54209495736745 470.2040816326531 58.40786540014858 476.7346938775511 64.84929712294775 483.2653061224489 68.96525219228567 489.7959183673469 76.40577220046157 496.3265306122449 74.31958999000307 502.85714285714283 74.99072168236319 509.38775510204084 75.0520162957105 515.9183673469388 74.4905017685295 522.4489795918367 78.43693089497401 528.9795918367347 85.33625941759624 535.5102040816327 88.56511909657547 542.0408163265306 82.02551730153445 548.5714285714286 83.08762810055111 555.1020408163265 90.29417076128215 561.6326530612245 89.4860176148884 568.1632653061224 88.46143774307114 574.6938775510204 89.4350451400918 581.2244897959183 87.52008557332715 587.7551020408164 88.00655017104756 594.2857142857143 88.21723591978807 600.8163265306123 90.7652681017706 607.3469387755102 86.66780713854229 613.8775510204082 71.26743323469589 620.4081632653061 70.87685533558806 626.9387755102041 73.10672865455277 633.469387755102 72.47947267262839 640 73.34434270117154 640 320 0 320"
      />
      
      <polygon
        fill="#2c3e50"
        fillRule="evenodd"
        points="0 313.6135521118196 6.530612244897958 304.2691182115241 13.061224489795917 297.2680520701267 19.591836734693878 285.9388307554897 26.122448979591834 278.82801281134994 32.6530612244898 274.98420666458617 39.183673469387756 267.09076553060754 45.71428571428571 257.0788388349821 52.24489795918367 246.2221730497164 58.775510204081634 230.99234859424672 65.3061224489796 221.54628499013396 71.83673469387755 206.62811021046687 78.36734693877551 198.27732645759244 84.89795918367348 192.17036216172195 91.42857142857142 182.12957587136327 97.9591836734694 170.61733038198653 104.48979591836734 156.95189751470838 111.0204081632653 154.80422334517553 117.55102040816327 149.88801385720615 124.08163265306122 142.52573964016435 130.6122448979592 138.28625532544376 137.14285714285714 123.78700377316122 143.6734693877551 127.17494878184738 150.20408163265307 110.77261560085134 156.73469387755102 93.0574629076603 163.26530612244898 88.01899662130367 169.79591836734696 78.10635189771739 176.32653061224488 68.78380379894222 182.85714285714283 65.97379114779753 189.3877551020408 62.133532827687645 195.9183673469388 59.1891907755774 202.44897959183675 46.68398636001331 208.97959183673467 33.29404266536329 215.51020408163265 31.646501759147384 222.0408163265306 27.414729629250246 228.57142857142858 27.528966929255375 235.10204081632654 25.25122267100437 241.63265306122446 13.936249311783001 248.16326530612244 9.643224079255162 254.69387755102042 9.883953357657106 261.2244897959184 12.93813583678184 267.7551020408163 8.247133757613483 274.2857142857143 10.710200422010303 280.81632653061223 10.159163763172728 287.3469387755102 11.455623300110801 293.8775510204082 14.19584003743364 300.40816326530614 17.69311323694626 306.9387755102041 18.067921007211567 313.46938775510205 12.038966302468339 320 13.32281202880256 326.53061224489795 11.292850168652762 333.0612244897959 7.029592366002134 339.5918367346939 1.9719030156513782 346.12244897959187 4.695541629931313 352.65306122448976 0.06672544926146884 359.1836734693877 0 365.71428571428567 3.134310586048514 372.2448979591837 11.12195756151749 378.7755102040816 13.499745623213187 385.3061224489796 18.048082786929115 391.8367346938776 21.31472806867231 398.36734693877554 21.568594912318986 404.8979591836735 27.06671267811572 411.42857142857144 30.681066480011168 417.95918367346934 36.74805762109804 424.48979591836735 42.80379417784087 431.0204081632653 46.96050675476903 437.55102040816325 38.51484625881079 444.0816326530612 42.63131859926716 450.61224489795916 50.61550020756715 457.14285714285717 58.06908038808098 463.6734693877551 56.64268170206117 470.2040816326531 59.4748574104658 476.7346938775511 65.88371975698288 483.2653061224489 69.96910304365679 489.7959183673469 77.37898108983421 496.3265306122449 75.26403614116617 502.85714285714283 75.90633923154897 509.38775510204084 75.93968510476518 515.9183673469388 75.35366052208974 522.4489795918367 79.27374229189869 528.9795918367347 86.14833930880448 535.5102040816327 89.35241070153984 542.0408163265306 82.78954091219745 548.5714285714286 83.82833035801323 555.1020408163265 91.0122635182683 561.6326530612245 90.18288751435091 568.1632653061224 89.13703608075741 574.6938775510204 90.09067651181124 581.2244897959183 88.15570418269704 587.7551020408164 88.6227668968076 594.2857142857143 88.8164378662753 600.8163265306123 91.34617979297553 607.3469387755102 87.23155027244812 613.8775510204082 71.81396846771963 620.4081632653061 71.40723796763689 626.9387755102041 73.62092167450476 633.469387755102 72.97797025396977 640 73.8364726330411 640 320 0 320"
      />
      
      <polygon
        fill="#2b7489"
        fillRule="evenodd"
        points="0 313.6135521118196 6.530612244897958 304.2691182115241 13.061224489795917 297.2680520701267 19.591836734693878 285.9388307554897 26.122448979591834 278.82801281134994 32.6530612244898 274.98420666458617 39.183673469387756 267.09076553060754 45.71428571428571 257.0788388349821 52.24489795918367 246.2221730497164 58.775510204081634 230.99234859424672 65.3061224489796 221.54628499013396 71.83673469387755 206.62811021046687 78.36734693877551 198.27732645759244 84.89795918367348 192.17036216172195 91.42857142857142 182.12957587136327 97.9591836734694 170.61733038198653 104.48979591836734 156.95189751470838 111.0204081632653 154.80422334517553 117.55102040816327 149.88801385720615 124.08163265306122 142.52573964016435 130.6122448979592 138.28625532544376 137.14285714285714 123.78700377316122 143.6734693877551 127.17494878184738 150.20408163265307 110.77261560085134 156.73469387755102 93.0574629076603 163.26530612244898 88.01899662130367 169.79591836734696 78.10635189771739 176.32653061224488 68.78380379894222 182.85714285714283 65.97379114779753 189.3877551020408 62.133532827687645 195.9183673469388 59.1891907755774 202.44897959183675 46.68398636001331 208.97959183673467 33.29404266536329 215.51020408163265 31.646501759147384 222.0408163265306 27.414729629250246 228.57142857142858 27.528966929255375 235.10204081632654 25.25122267100437 241.63265306122446 13.936249311783001 248.16326530612244 9.643224079255162 254.69387755102042 9.883953357657106 261.2244897959184 12.93813583678184 267.7551020408163 8.247133757613483 274.2857142857143 10.710200422010303 280.81632653061223 10.159163763172728 287.3469387755102 11.455623300110801 293.8775510204082 14.19584003743364 300.40816326530614 17.69311323694626 306.9387755102041 18.067921007211567 313.46938775510205 12.038966302468339 320 13.32281202880256 326.53061224489795 11.292850168652762 333.0612244897959 7.029592366002134 339.5918367346939 1.9719030156513782 346.12244897959187 4.695541629931313 352.65306122448976 0.06672544926146884 359.1836734693877 0 365.71428571428567 3.134310586048514 372.2448979591837 11.12195756151749 378.7755102040816 13.499745623213187 385.3061224489796 18.048082786929115 391.8367346938776 21.31472806867231 398.36734693877554 21.568594912318986 404.8979591836735 27.06671267811572 411.42857142857144 30.681066480011168 417.95918367346934 36.74805762109804 424.48979591836735 42.80379417784087 431.0204081632653 46.96050675476903 437.55102040816325 38.51484625881079 444.0816326530612 42.63131859926716 450.61224489795916 50.61550020756715 457.14285714285717 58.06908038808098 463.6734693877551 56.64268170206117 470.2040816326531 59.4748574104658 476.7346938775511 65.88371975698288 483.2653061224489 69.96910304365679 489.7959183673469 77.37898108983421 496.3265306122449 75.26403614116617 502.85714285714283 75.90633923154897 509.38775510204084 75.93968510476518 515.9183673469388 75.35366052208974 522.4489795918367 79.27374229189869 528.9795918367347 86.14833930880448 535.5102040816327 89.35241070153984 542.0408163265306 84.99964567234628 548.5714285714286 87.49759983282314 555.1020408163265 94.56953067984958 561.6326530612245 96.00375160442493 568.1632653061224 96.87073092156925 574.6938775510204 100.59153840009117 581.2244897959183 100.44781127890022 587.7551020408164 101.4760801491137 594.2857142857143 102.08147878585066 600.8163265306123 104.23715047468735 607.3469387755102 99.74153553443884 613.8775510204082 84.6117049274689 620.4081632653061 84.30013010404022 626.9387755102041 86.12026187200141 633.469387755102 85.09577839329825 640 85.79949372550485 640 320 0 320"
      />
      
      <polygon
        fill="#2770da"
        fillRule="evenodd"
        points="0 313.6135521118196 6.530612244897958 304.2691182115241 13.061224489795917 297.2680520701267 19.591836734693878 285.9388307554897 26.122448979591834 278.82801281134994 32.6530612244898 274.98420666458617 39.183673469387756 267.09076553060754 45.71428571428571 257.0788388349821 52.24489795918367 246.2221730497164 58.775510204081634 230.99234859424672 65.3061224489796 221.54628499013396 71.83673469387755 206.62811021046687 78.36734693877551 198.27732645759244 84.89795918367348 192.17036216172195 91.42857142857142 182.12957587136327 97.9591836734694 170.61733038198653 104.48979591836734 156.95189751470838 111.0204081632653 154.80422334517553 117.55102040816327 149.88801385720615 124.08163265306122 142.52573964016435 130.6122448979592 138.28625532544376 137.14285714285714 123.78700377316122 143.6734693877551 127.17494878184738 150.20408163265307 110.77261560085134 156.73469387755102 93.0574629076603 163.26530612244898 88.01899662130367 169.79591836734696 78.10635189771739 176.32653061224488 68.78380379894222 182.85714285714283 65.97379114779753 189.3877551020408 62.133532827687645 195.9183673469388 59.1891907755774 202.44897959183675 46.68398636001331 208.97959183673467 33.29404266536329 215.51020408163265 31.646501759147384 222.0408163265306 27.414729629250246 228.57142857142858 27.528966929255375 235.10204081632654 25.25122267100437 241.63265306122446 14.574458185929245 248.16326530612244 11.08023411306857 254.69387755102042 11.277099457908037 261.2244897959184 14.29010824554149 267.7551020408163 9.557837943421134 274.2857142857143 11.980896016580573 280.81632653061223 11.394773492324646 287.3469387755102 12.653516723197129 293.8775510204082 15.358330400950138 300.40816326530614 18.82011926438696 306.9387755102041 19.16161897720565 313.46938775510205 13.099279767834503 320 14.350760079788472 326.53061224489795 12.290417657679484 333.0612244897959 7.996709730244845 339.5918367346939 2.910437662466279 346.12244897959187 5.605428106557099 352.65306122448976 0.948838171710122 359.1836734693877 0.8577560750746898 365.71428571428567 3.9658841180345235 372.2448979591837 11.9289544549801 378.7755102040816 14.282109364779217 385.3061224489796 18.807324235945202 391.8367346938776 22.050794051191872 398.36734693877554 22.28219294494994 404.8979591836735 27.759220731576363 411.42857142857144 31.35243610692777 417.95918367346934 37.39958525880405 424.48979591836735 43.435434338208324 431.0204081632653 47.57286645307795 437.55102040816325 40.23038728215636 444.0816326530612 44.294493714422515 450.61224489795916 52.22952122366314 457.14285714285717 59.63383427837101 463.6734693877551 58.16119008248711 470.2040816326531 60.947014138637485 476.7346938775511 67.31093972226407 483.2653061224489 71.35414235188648 489.7959183673469 78.72174294901683 496.3265306122449 76.56711338486764 502.85714285714283 77.16964071911096 509.38775510204084 77.16442494894895 515.9183673469388 76.5445833802126 522.4489795918367 80.42831297403538 528.9795918367347 87.26878721615506 535.5102040816327 90.43865753739442 542.0408163265306 86.05378921312095 548.5714285714286 88.51956620012632 555.1020408163265 95.56030207610888 561.6326530612245 96.96524126420482 568.1632653061224 97.80287164533135 574.6938775510204 101.4961302929018 581.2244897959183 101.32479094302971 587.7551020408164 102.32629050721232 594.2857142857143 102.90821354006482 600.8163265306123 105.03864957251966 607.3469387755102 100.51934670250563 613.8775510204082 85.37687103303648 620.4081632653061 85.30636438124151 626.9387755102041 87.09578143908007 633.469387755102 86.04152085849282 640 86.73315558377243 640 320 0 320"
      />
      
      <polygon
        fill="#89e051"
        fillRule="evenodd"
        points="0 313.6135521118196 6.530612244897958 304.90984772597085 13.061224489795917 298.3344823375135 19.591836734693878 288.0768299999197 26.122448979591834 281.27135689415627 32.6530612244898 277.3529691239114 39.183673469387756 269.99996116578876 45.71428571428571 260.071755230868 52.24489795918367 250.17322025872926 58.775510204081634 235.18161950268876 65.3061224489796 226.78750271315556 71.83673469387755 213.32788774955233 78.36734693877551 205.8136930391666 84.89795918367348 200.42205036188597 91.42857142857142 190.45091937288387 97.9591836734694 178.68467298602894 104.48979591836734 164.78081482070638 111.0204081632653 162.3941676871662 117.55102040816327 158.3564739995636 124.08163265306122 150.82953728055548 130.6122448979592 146.47036175129261 137.14285714285714 132.58705972954124 143.6734693877551 135.70638845490328 150.20408163265307 119.0519141801679 156.73469387755102 102.43462829439042 163.26530612244898 97.17069830902994 169.79591836734696 87.0840447990528 176.32653061224488 77.51851344455082 182.85714285714283 74.59631393832584 189.3877551020408 71.29278881214756 195.9183673469388 68.12752365369755 202.44897959183675 55.436848512125664 208.97959183673467 42.60290496163202 215.51020408163265 40.816390477910886 222.0408163265306 36.304713775256005 228.57142857142858 36.657344006555434 235.10204081632654 34.265822915154786 241.63265306122446 23.330731690755954 248.16326530612244 19.768658689451797 254.69387755102042 20.331937223833336 261.2244897959184 23.771923041878665 267.7551020408163 19.358095323029147 274.2857142857143 21.65722162361851 280.81632653061223 22.19780827746615 287.3469387755102 24.03343180264801 293.8775510204082 26.40191898327697 300.40816326530614 29.526607013624243 306.9387755102041 29.794756066983382 313.46938775510205 23.469668306459994 320 24.70125426699417 326.53061224489795 22.404365359623284 333.0612244897959 17.801935149121903 339.5918367346939 12.431524115653303 346.12244897959187 14.835884776253806 352.65306122448976 10.202405214772568 359.1836734693877 9.855813724598761 365.71428571428567 12.717435776396314 372.2448979591837 20.455737426077803 378.7755102040816 22.80222992292522 385.3061224489796 27.11147082072847 391.8367346938776 30.808757819637492 398.36734693877554 30.772826879950514 404.8979591836735 35.99891936272013 411.42857142857144 39.340619915259765 417.95918367346934 45.23253607838035 424.48979591836735 51.02928632308232 431.0204081632653 55.069711691443956 437.55102040816325 47.537777087940526 444.0816326530612 51.37883037345216 450.61224489795916 59.104481999787765 457.14285714285717 66.29894137670746 463.6734693877551 64.9177372573119 470.2040816326531 67.49732161451956 476.7346938775511 73.66130093120336 483.2653061224489 78.63281514391764 489.7959183673469 85.77823906533723 496.3265306122449 83.41505665850121 502.85714285714283 83.84699683422681 509.38775510204084 83.63795921273407 515.9183673469388 82.83937129014907 522.4489795918367 87.04914544071298 528.9795918367347 93.69394305261696 535.5102040816327 96.66769203476872 542.0408163265306 92.09872780073195 548.5714285714286 94.37998379465543 555.1020408163265 101.24183501315215 561.6326530612245 102.47886084454757 568.1632653061224 103.14819039273607 574.6938775510204 106.68347022087059 581.2244897959183 106.35379067422832 587.7551020408164 107.20178203780776 594.2857142857143 107.64908548893567 600.8163265306123 109.63480926770768 607.3469387755102 105.6460786064219 613.8775510204082 90.34711329627851 620.4081632653061 90.12971266633741 626.9387755102041 91.77189985108939 633.469387755102 90.57490447112616 640 91.20863117582542 640 320 0 320"
      />
      
      <polygon
        fill="#0141ae"
        fillRule="evenodd"
        points="0 313.695790221571 6.530612244897958 304.98957557024954 13.061224489795917 298.4118538618309 19.591836734693878 288.1546023838689 26.122448979591834 281.3468307579674 32.6530612244898 277.42613918718024 39.183673469387756 270.07089775889466 45.71428571428571 260.1686859370909 52.24489795918367 250.6255753900491 58.775510204081634 236.59146530474374 65.3061224489796 228.16534036810089 71.83673469387755 215.56292425771187 78.36734693877551 209.34790449122684 84.89795918367348 203.84838179166775 91.42857142857142 193.80959648572946 97.9591836734694 182.16693148853022 104.48979591836734 169.20012433984664 111.0204081632653 166.68968414837994 117.55102040816327 162.5208718311516 124.08163265306122 154.87490243252725 130.6122448979592 151.5033190626462 137.14285714285714 138.33060479108406 143.6734693877551 141.27461485281418 150.20408163265307 124.45557548461773 156.73469387755102 107.9822584447854 163.26530612244898 102.61902141312135 169.79591836734696 92.52513460237077 176.32653061224488 83.01587073659869 182.85714285714283 79.9311992895073 189.3877551020408 76.46483026171481 195.9183673469388 73.6155192485827 202.44897959183675 61.01135775862298 208.97959183673467 50.2110887379697 215.51020408163265 49.306825074831124 222.0408163265306 44.53598359090262 228.57142857142858 46.72649869508001 235.10204081632654 45.53591915261728 241.63265306122446 38.061854870136585 248.16326530612244 34.379920086654465 254.69387755102042 35.187925160201075 261.2244897959184 40.45938713184296 267.7551020408163 36.76716120862841 274.2857142857143 38.534888150207905 280.81632653061223 38.69018923038578 287.3469387755102 40.022391626394494 293.8775510204082 41.96041336020647 300.40816326530614 45.10751151184877 306.9387755102041 44.917951562406756 313.46938775510205 38.14240906117948 320 38.92611729083137 326.53061224489795 36.368763383595024 333.0612244897959 33.699864258705816 339.5918367346939 28.417371593805967 346.12244897959187 30.37276741172542 352.65306122448976 26.293979966688084 359.1836734693877 25.536683187543474 365.71428571428567 28.083978884676696 372.2448979591837 35.36812879152603 378.7755102040816 37.5886611994606 385.3061224489796 41.46090164946406 391.8367346938776 45.37444272256414 398.36734693877554 45.021946471115086 404.8979591836735 49.82691670894462 411.42857142857144 53.200805223872464 417.95918367346934 58.858077861136906 424.48979591836735 64.62550074765448 431.0204081632653 68.63086727426537 437.55102040816325 63.218431800066696 444.0816326530612 66.93889171209534 450.61224489795916 74.20467038719113 457.14285714285717 80.93821285673911 463.6734693877551 80.26627931492902 470.2040816326531 82.74325901912641 476.7346938775511 88.44187022965585 483.2653061224489 93.40768481179595 489.7959183673469 100.10211557419171 496.3265306122449 98.34495792202313 502.85714285714283 99.94036562886504 509.38775510204084 99.86324357831285 515.9183673469388 98.67441848304296 522.4489795918367 102.40083272443204 528.9795918367347 108.59191528775193 535.5102040816327 111.11091554034644 542.0408163265306 106.1150914127079 548.5714285714286 107.96850007027106 555.1020408163265 114.41556984430963 561.6326530612245 115.26325655189731 568.1632653061224 115.68604856418608 574.6938775510204 118.85077996512831 581.2244897959183 118.14970377693658 587.7551020408164 118.63763343762099 594.2857142857143 118.7994093381015 600.8163265306123 120.44477875750852 607.3469387755102 116.14485669250166 613.8775510204082 101.00081097877123 620.4081632653061 100.55556445701512 626.9387755102041 102.30529083702896 633.469387755102 102.37754266525468 640 103.27008212428785 640 320 0 320"
      />
      
      <polygon
        fill="#26c0b0"
        fillRule="evenodd"
        points="0 313.695790221571 6.530612244897958 305.0750766707252 13.061224489795917 298.5224269107487 19.591836734693878 288.3920424791394 26.122448979591834 281.7296798859877 32.6530612244898 277.8556677039192 39.183673469387756 270.54542619992515 45.71428571428571 260.8000919779656 52.24489795918367 251.72757373605572 58.775510204081634 237.79094963066365 65.3061224489796 230.20549677635321 71.83673469387755 218.21681528326914 78.36734693877551 212.42854032860754 84.89795918367348 207.47605875951467 91.42857142857142 198.30986983772272 97.9591836734694 186.5298351125519 104.48979591836734 173.8064315763407 111.0204081632653 171.15538600940323 117.55102040816327 166.87836167951627 124.08163265306122 159.35260865879937 130.6122448979592 156.04896320023673 137.14285714285714 143.12373414246838 143.6734693877551 145.9242606540024 150.20408163265307 128.96780336733968 156.73469387755102 112.62443882936344 163.26530612244898 107.34731163557157 169.79591836734696 97.39186769037534 176.32653061224488 88.07449560008305 182.85714285714283 84.90348579558824 189.3877551020408 81.4789320402011 195.9183673469388 78.54021204121631 202.44897959183675 65.83906301929557 208.97959183673467 55.25787620753539 215.51020408163265 54.274634488729305 222.0408163265306 49.44594971772068 228.57142857142858 52.03146298940294 235.10204081632654 50.75692183651364 241.63265306122446 43.28767013014982 248.16326530612244 39.62434119317675 254.69387755102042 40.272262170005376 261.2244897959184 46.0156432780322 267.7551020408163 42.22633323636404 274.2857142857143 45.294880174764614 280.81632653061223 46.22638832687187 287.3469387755102 47.3423095222704 293.8775510204082 49.1225169419385 300.40816326530614 52.1964134239235 306.9387755102041 51.84798513455013 313.46938775510205 44.89933292332506 320 45.54057042518161 326.53061224489795 42.90214849498233 333.0612244897959 40.529912932321 339.5918367346939 35.11177933491399 346.12244897959187 37.18664031388266 352.65306122448976 32.913614966361706 359.1836734693877 31.97353760052897 365.71428571428567 34.32998537556267 372.2448979591837 41.45148106022884 378.7755102040816 43.650597262977044 385.3061224489796 47.722453941823346 391.8367346938776 51.450437977581885 398.36734693877554 51.0493138179545 404.8979591836735 55.676146813347714 411.42857142857144 59.0778131925162 417.95918367346934 64.64976563786055 424.48979591836735 70.24039897176718 431.0204081632653 74.11934950067021 437.55102040816325 68.67692083799838 444.0816326530612 72.31813903378526 450.61224489795916 79.43583643613809 457.14285714285717 86.08179602105145 463.6734693877551 85.88888236685139 470.2040816326531 88.95217300883621 476.7346938775511 94.47242112893946 483.2653061224489 100.0082454177203 489.7959183673469 106.58869641258059 496.3265306122449 104.6398335818156 502.85714285714283 106.09856698343202 509.38775510204084 105.83347045893262 515.9183673469388 104.49639167375545 522.4489795918367 108.04509118723715 528.9795918367347 114.08045577430704 535.5102040816327 116.43192017953456 542.0408163265306 111.27883926786745 548.5714285714286 112.9746268870233 555.1020408163265 119.26888593823656 561.6326530612245 119.97313656686168 568.1632653061224 120.25216164007529 574.6938775510204 123.28194650374053 581.2244897959183 122.68877818350757 587.7551020408164 123.03815688396728 594.2857142857143 123.07842831263594 600.8163265306123 124.596007329097 607.3469387755102 120.75497108082618 613.8775510204082 105.47020439608869 620.4081632653061 104.89286926971823 626.9387755102041 106.51020125639238 633.469387755102 106.45409991122588 640 107.29456722885831 640 320 0 320"
      />
      
      <polygon
        fill="#dea584"
        fillRule="evenodd"
        points="0 313.695790221571 6.530612244897958 305.0750766707252 13.061224489795917 298.5224269107487 19.591836734693878 288.3920424791394 26.122448979591834 281.7296798859877 32.6530612244898 277.8556677039192 39.183673469387756 270.54542619992515 45.71428571428571 260.8000919779656 52.24489795918367 251.72757373605572 58.775510204081634 237.79094963066365 65.3061224489796 230.20549677635321 71.83673469387755 218.6052096884285 78.36734693877551 212.80507922474328 84.89795918367348 207.84110403771896 91.42857142857142 198.66412638416287 97.9591836734694 187.99627669465966 104.48979591836734 176.3318843501911 111.0204081632653 173.60375053478856 117.55102040816327 169.25199137880307 124.08163265306122 162.75994995113385 130.6122448979592 159.35229728038775 137.14285714285714 148.55743066079074 143.6734693877551 151.1920972033545 150.20408163265307 136.32719780673142 156.73469387755102 123.07453424066858 163.26530612244898 117.47842296273834 169.79591836734696 107.22356089074893 176.32653061224488 98.72226348844492 182.85714285714283 95.23656461618094 189.3877551020408 91.4965994493626 195.9183673469388 88.25209483520575 202.44897959183675 76.38161019922225 208.97959183673467 66.58272568357862 215.51020408163265 65.26478351152517 222.0408163265306 60.10062970539258 228.57142857142858 62.37124840613012 235.10204081632654 60.78109342118165 241.63265306122446 53.005857761565494 248.16326530612244 49.055312962606195 254.69387755102042 49.4153604672868 261.2244897959184 54.88852031218835 267.7551020408163 51.93133064645633 274.2857142857143 54.7036396197056 280.81632653061223 55.375355281089355 287.3469387755102 56.212009991090326 293.8775510204082 57.73007704625411 300.40816326530614 60.54123360822024 306.9387755102041 61.06420803779798 313.46938775510205 54.09005555402695 320 54.45074936824983 326.53061224489795 51.54899361385418 333.0612244897959 48.912815937596974 339.5918367346939 43.246931205286955 346.12244897959187 45.07347139454993 352.65306122448976 41.66897089950953 359.1836734693877 40.48714473552553 365.71428571428567 42.58372141487115 372.2448979591837 49.46127969256645 378.7755102040816 51.47777447083598 385.3061224489796 55.318301362532 391.8367346938776 58.81442644046325 398.36734693877554 58.18852085237489 404.8979591836735 62.60435962735562 411.42857142857144 65.79454525734346 417.95918367346934 71.16798759468742 424.48979591836735 76.55965532280507 431.0204081632653 80.24571533079512 437.55102040816325 74.62817381592171 444.0816326530612 78.0877329586011 450.61224489795916 85.03491410103175 457.14285714285717 91.50996388744173 463.6734693877551 91.15662335722686 470.2040816326531 94.05911947801582 476.7346938775511 99.4234810065135 483.2653061224489 104.81298004718656 489.7959183673469 111.24676866597952 496.3265306122449 109.1602396689122 502.85714285714283 110.48098981282641 509.38775510204084 110.08212150995323 515.9183673469388 108.6277315452615 522.4489795918367 112.05032413781143 528.9795918367347 117.9673157104587 535.5102040816327 120.20013635082975 542.0408163265306 116.05405387992224 548.5714285714286 117.60408087094515 555.1020408163265 123.75702833502481 561.6326530612245 124.68681037595007 568.1632653061224 124.82195219529109 574.6938775510204 127.71667934446143 581.2244897959183 126.98814371919957 587.7551020408164 127.20628706422983 594.2857142857143 127.15642747163844 600.8163265306123 128.5495281798341 607.3469387755102 124.59164755251206 613.8775510204082 109.18976923184346 620.4081632653061 108.5025040862667 626.9387755102041 110.0096542095929 633.469387755102 109.84673354678858 640 110.64386476576493 640 320 0 320"
      />
      
      <polygon
        fill="#701516"
        fillRule="evenodd"
        points="0 313.695790221571 6.530612244897958 305.0750766707252 13.061224489795917 298.5224269107487 19.591836734693878 288.3920424791394 26.122448979591834 281.7296798859877 32.6530612244898 277.8556677039192 39.183673469387756 270.54542619992515 45.71428571428571 260.8000919779656 52.24489795918367 251.72757373605572 58.775510204081634 237.79094963066365 65.3061224489796 230.20549677635321 71.83673469387755 218.6052096884285 78.36734693877551 212.80507922474328 84.89795918367348 207.84110403771896 91.42857142857142 198.66412638416287 97.9591836734694 187.99627669465966 104.48979591836734 176.3318843501911 111.0204081632653 173.60375053478856 117.55102040816327 169.25199137880307 124.08163265306122 162.75994995113385 130.6122448979592 159.35229728038775 137.14285714285714 148.55743066079074 143.6734693877551 151.1920972033545 150.20408163265307 136.32719780673142 156.73469387755102 123.07453424066858 163.26530612244898 117.47842296273834 169.79591836734696 107.22356089074893 176.32653061224488 98.72226348844492 182.85714285714283 95.23656461618094 189.3877551020408 91.4965994493626 195.9183673469388 88.25209483520575 202.44897959183675 76.38161019922225 208.97959183673467 66.58272568357862 215.51020408163265 65.26478351152517 222.0408163265306 60.10062970539258 228.57142857142858 62.37124840613012 235.10204081632654 60.78109342118165 241.63265306122446 53.005857761565494 248.16326530612244 49.055312962606195 254.69387755102042 49.4153604672868 261.2244897959184 54.88852031218835 267.7551020408163 51.93133064645633 274.2857142857143 54.7036396197056 280.81632653061223 55.375355281089355 287.3469387755102 56.212009991090326 293.8775510204082 57.73007704625411 300.40816326530614 60.54123360822024 306.9387755102041 61.06420803779798 313.46938775510205 54.09005555402695 320 54.45074936824983 326.53061224489795 51.54899361385418 333.0612244897959 48.912815937596974 339.5918367346939 43.246931205286955 346.12244897959187 45.07347139454993 352.65306122448976 41.66897089950953 359.1836734693877 40.48714473552553 365.71428571428567 42.58372141487115 372.2448979591837 49.46127969256645 378.7755102040816 51.47777447083598 385.3061224489796 55.318301362532 391.8367346938776 58.81442644046325 398.36734693877554 58.18852085237489 404.8979591836735 62.60435962735562 411.42857142857144 65.79454525734346 417.95918367346934 71.16798759468742 424.48979591836735 76.55965532280507 431.0204081632653 80.24571533079512 437.55102040816325 74.62817381592171 444.0816326530612 78.0877329586011 450.61224489795916 85.03491410103175 457.14285714285717 91.50996388744173 463.6734693877551 91.15662335722686 470.2040816326531 94.05911947801582 476.7346938775511 99.4234810065135 483.2653061224489 104.81298004718656 489.7959183673469 111.24676866597952 496.3265306122449 109.1602396689122 502.85714285714283 110.48098981282641 509.38775510204084 110.08212150995323 515.9183673469388 108.6277315452615 522.4489795918367 112.05032413781143 528.9795918367347 117.9673157104587 535.5102040816327 120.20013635082975 542.0408163265306 116.05405387992224 548.5714285714286 117.60408087094515 555.1020408163265 123.75702833502481 561.6326530612245 124.68681037595007 568.1632653061224 124.82195219529109 574.6938775510204 127.71667934446143 581.2244897959183 126.98814371919957 587.7551020408164 127.20628706422983 594.2857142857143 127.15642747163844 600.8163265306123 128.5495281798341 607.3469387755102 124.59164755251206 613.8775510204082 109.20932546066834 620.4081632653061 108.52148234049292 626.9387755102041 110.02805316475241 633.469387755102 109.86457088334708 640 110.66147425273257 640 320 0 320"
      />
      
      <polygon
        fill="#3572A5"
        fillRule="evenodd"
        points="0 313.695790221571 6.530612244897958 305.0750766707252 13.061224489795917 298.5224269107487 19.591836734693878 288.3920424791394 26.122448979591834 281.7296798859877 32.6530612244898 277.8556677039192 39.183673469387756 270.54542619992515 45.71428571428571 260.8000919779656 52.24489795918367 251.72757373605572 58.775510204081634 237.79094963066365 65.3061224489796 230.20549677635321 71.83673469387755 218.6052096884285 78.36734693877551 212.80507922474328 84.89795918367348 207.84110403771896 91.42857142857142 198.66412638416287 97.9591836734694 187.99627669465966 104.48979591836734 176.3318843501911 111.0204081632653 173.60375053478856 117.55102040816327 169.25199137880307 124.08163265306122 163.42157770001296 130.6122448979592 159.99372920468858 137.14285714285714 149.2163245700999 143.6734693877551 151.8308787532001 150.20408163265307 137.94834279591143 156.73469387755102 125.44010287239078 163.26530612244898 119.77178404641509 169.79591836734696 109.44914301981356 176.32653061224488 100.87991078873881 182.85714285714283 97.33044397284328 189.3877551020408 93.52656413312613 195.9183673469388 90.22009599597072 202.44897959183675 78.29527169654736 208.97959183673467 68.47384461281209 215.51020408163265 67.10001143384636 222.0408163265306 61.87983818131681 228.57142857142858 64.09787365425598 235.10204081632654 62.45501429738715 241.63265306122446 54.628683150212055 248.16326530612244 50.630176581618 254.69387755102042 50.94215216696176 261.2244897959184 56.37018865208927 267.7551020408163 53.40360553895397 274.2857142857143 56.13097405025553 280.81632653061223 56.7632788263881 287.3469387755102 57.55756792647958 293.8775510204082 59.035867753885725 300.40816326530614 61.807165741932636 306.9387755102041 62.292726263367626 313.46938775510205 55.28107386837485 320 55.6054124240639 326.53061224489795 52.66953122334087 333.0612244897959 49.99915000954957 339.5918367346939 44.301159105115175 346.12244897959187 46.09551965486861 352.65306122448976 42.65982172274613 359.1836734693877 41.45063661274497 365.71428571428567 43.5178031161264 372.2448979591837 50.36775512473264 378.7755102040816 52.378911958017 385.3061224489796 56.19280604916662 391.8367346938776 59.66223739485986 398.36734693877554 59.01045285352399 404.8979591836735 63.401999961234935 411.42857142857144 66.56783793461275 417.95918367346934 71.9184260480242 424.48979591836735 77.28718711807406 431.0204081632653 80.9510396925512 437.55102040816325 75.3133374941425 444.0816326530612 78.75198235259148 450.61224489795916 85.67953194106332 457.14285714285717 92.13490510666799 463.6734693877551 91.76309477304639 470.2040816326531 94.64707882870047 476.7346938775511 99.9934931483669 483.2653061224489 105.36614578879406 489.7959183673469 111.78304937274402 496.3265306122449 109.68067088161058 502.85714285714283 110.98553517794693 509.38775510204084 110.57126581976212 515.9183673469388 109.10336983701708 522.4489795918367 112.51144380489131 528.9795918367347 118.41480725977348 535.5102040816327 120.63396845342038 542.0408163265306 116.4750643311348 548.5714285714286 118.01224020162431 555.1020408163265 124.15272887128299 561.6326530612245 125.07081613749341 568.1632653061224 125.19423647698193 574.6938775510204 128.07796096558235 581.2244897959183 127.33839739258488 587.7551020408164 127.54584948628232 594.2857142857143 127.48661396543332 600.8163265306123 128.86963592451096 607.3469387755102 124.90229473244841 613.8775510204082 109.5299065305343 620.4081632653061 108.83258880975151 626.9387755102041 110.32966327061732 633.469387755102 110.15697452914816 640 110.95014281666687 640 320 0 320"
      />
      
      <polygon
        fill="#0298c3"
        fillRule="evenodd"
        points="0 313.695790221571 6.530612244897958 305.0750766707252 13.061224489795917 298.5224269107487 19.591836734693878 288.3920424791394 26.122448979591834 281.7296798859877 32.6530612244898 277.8556677039192 39.183673469387756 270.54542619992515 45.71428571428571 260.8000919779656 52.24489795918367 251.72757373605572 58.775510204081634 237.79094963066365 65.3061224489796 230.20549677635321 71.83673469387755 218.6052096884285 78.36734693877551 212.80507922474328 84.89795918367348 207.84110403771896 91.42857142857142 198.66412638416287 97.9591836734694 187.99627669465966 104.48979591836734 176.3318843501911 111.0204081632653 173.60375053478856 117.55102040816327 169.25199137880307 124.08163265306122 163.42157770001296 130.6122448979592 159.99372920468858 137.14285714285714 149.2163245700999 143.6734693877551 151.8308787532001 150.20408163265307 137.94834279591143 156.73469387755102 126.0782141017032 163.26530612244898 120.39041729429172 169.79591836734696 110.04949290703948 176.32653061224488 101.46193534129037 182.85714285714283 97.89526711841307 189.3877551020408 94.07414635345356 195.9183673469388 90.75096361551385 202.44897959183675 78.81148118558403 208.97959183673467 68.974297043111 215.51020408163265 67.69014746389146 222.0408163265306 62.45196066610555 228.57142857142858 64.65308733775947 235.10204081632654 62.993280411431385 241.63265306122446 55.15051900794083 248.16326530612244 51.13658990895334 254.69387755102042 51.43310747350529 261.2244897959184 56.84663405756692 267.7551020408163 53.86550773130091 274.2857142857143 56.57877691633098 280.81632653061223 57.19871712124859 287.3469387755102 57.97971473832689 293.8775510204082 59.445538211065696 300.40816326530614 62.2043312486785 306.9387755102041 62.67815375753048 313.46938775510205 55.65473641876355 320 55.96766915775288 326.53061224489795 53.02108164231424 333.0612244897959 50.33996954590276 339.5918367346939 44.63190588276797 346.12244897959187 46.416170595814265 352.65306122448976 42.97068496872134 359.1836734693877 41.752916412358445 365.71428571428567 43.81085600811002 372.2448979591837 50.652146982630654 378.7755102040816 52.654622930222615 385.3061224489796 56.4603685122064 391.8367346938776 59.921632689045566 398.36734693877554 59.26193023365721 404.8979591836735 63.64604507242018 411.42857142857144 66.80443370981129 417.95918367346934 72.14802936189591 424.48979591836735 77.50978193109614 431.0204081632653 81.16683991297901 437.55102040816325 75.5229693929036 444.0816326530612 78.95521535512287 450.61224489795916 85.87675850705455 457.14285714285717 92.32611143658087 463.6734693877551 91.94865010471153 470.2040816326531 94.82697018459243 476.7346938775511 100.1678934388575 483.2653061224489 105.53539176166197 489.7959183673469 111.94712920128151 496.3265306122449 109.83990142088885 502.85714285714283 111.13990531024416 509.38775510204084 110.72092387727051 515.9183673469388 109.24889559557067 522.4489795918367 112.65252746845289 528.9795918367347 118.55172127417808 535.5102040816327 120.76670325249518 542.0408163265306 116.60387621844035 548.5714285714286 118.13712017612153 555.1020408163265 124.27379696737671 561.6326530612245 125.18830611504586 568.1632653061224 125.30814015696666 574.6938775510204 128.1884982774979 581.2244897959183 127.44556060951186 587.7551020408164 127.6497416064123 594.2857142857143 127.587637459543 600.8163265306123 128.96757573763722 607.3469387755102 127.49654534565536 613.8775510204082 116.37777685054056 620.4081632653061 115.57871204149916 626.9387755102041 117.07538618217896 633.469387755102 116.6967894238924 640 117.40641964302944 640 320 0 320"
      />
      
      <polygon
        fill="#fd2fdb"
        fillRule="evenodd"
        points="0 313.695790221571 6.530612244897958 305.0750766707252 13.061224489795917 298.5224269107487 19.591836734693878 288.3920424791394 26.122448979591834 281.7296798859877 32.6530612244898 277.8556677039192 39.183673469387756 270.54542619992515 45.71428571428571 260.8000919779656 52.24489795918367 251.72757373605572 58.775510204081634 237.79094963066365 65.3061224489796 230.20549677635321 71.83673469387755 218.6052096884285 78.36734693877551 212.80507922474328 84.89795918367348 207.84110403771896 91.42857142857142 198.66412638416287 97.9591836734694 187.99627669465966 104.48979591836734 176.3318843501911 111.0204081632653 173.60375053478856 117.55102040816327 169.25199137880307 124.08163265306122 163.42157770001296 130.6122448979592 159.99372920468858 137.14285714285714 149.2163245700999 143.6734693877551 151.8308787532001 150.20408163265307 137.94834279591143 156.73469387755102 126.0782141017032 163.26530612244898 120.39041729429172 169.79591836734696 110.04949290703948 176.32653061224488 101.46193534129037 182.85714285714283 97.89526711841307 189.3877551020408 94.07414635345356 195.9183673469388 90.75096361551385 202.44897959183675 78.81148118558403 208.97959183673467 68.974297043111 215.51020408163265 67.69014746389146 222.0408163265306 62.45196066610555 228.57142857142858 64.65308733775947 235.10204081632654 62.993280411431385 241.63265306122446 55.15051900794083 248.16326530612244 51.13658990895334 254.69387755102042 51.43310747350529 261.2244897959184 56.84663405756692 267.7551020408163 53.86550773130091 274.2857142857143 56.57877691633098 280.81632653061223 58.3283204005736 287.3469387755102 59.07483756458868 293.8775510204082 60.50829521194095 300.40816326530614 63.23464823752067 306.9387755102041 64.5587809276388 313.46938775510205 57.477958537313725 320 57.73523834481972 326.53061224489795 54.73641120289227 333.0612244897959 52.00293987714372 339.5918367346939 46.24572797178996 346.12244897959187 47.98073162137405 352.65306122448976 44.48748870030602 359.1836734693877 43.227838699515246 365.71428571428567 45.24075717332278 372.2448979591837 52.03978806381457 378.7755102040816 53.99990713538199 385.3061224489796 57.76589360698364 391.8367346938776 61.18730732727897 398.36734693877554 60.48897078864297 404.8979591836735 64.83682109852413 411.42857142857144 67.95886208099887 417.95918367346934 73.2683392224883 424.48979591836735 78.59589498438339 431.0204081632653 82.21979996096567 437.55102040816325 76.54583216505858 444.0816326530612 79.9468557215601 450.61224489795916 86.83909155186697 457.14285714285717 93.25906975472691 463.6734693877551 92.8540353425314 470.2040816326531 95.70471914985959 476.7346938775511 101.01884951660449 483.2653061224489 106.36119825803209 489.7959183673469 112.7477284726341 496.3265306122449 110.61683946761366 502.85714285714283 111.89312774592577 509.38775510204084 111.45115464849573 515.9183673469388 109.95896348437662 522.4489795918367 113.34092094760757 528.9795918367347 119.21976966152289 535.5102040816327 121.41435983715826 542.0408163265306 117.23239165164759 548.5714285714286 118.74645055211946 555.1020408163265 124.86452786746412 561.6326530612245 125.7615782462496 568.1632653061224 125.86391352836881 574.6938775510204 128.72784602668122 581.2244897959183 127.96844508829463 587.7551020408164 128.15666533170966 594.2857142857143 128.0805642094255 600.8163265306123 129.4454561820649 607.3469387755102 127.96030230691332 613.8775510204082 116.82737785912701 620.4081632653061 116.01502534833088 626.9387755102041 117.4983812803095 633.469387755102 117.1068728397037 640 117.81126477262052 640 320 0 320"
      />
      
      <polygon
        fill="#4F5D95"
        fillRule="evenodd"
        points="0 313.695790221571 6.530612244897958 305.0750766707252 13.061224489795917 298.5224269107487 19.591836734693878 288.3920424791394 26.122448979591834 281.7296798859877 32.6530612244898 277.8556677039192 39.183673469387756 270.54542619992515 45.71428571428571 260.8000919779656 52.24489795918367 251.72757373605572 58.775510204081634 237.79094963066365 65.3061224489796 230.20549677635321 71.83673469387755 218.6052096884285 78.36734693877551 212.80507922474328 84.89795918367348 207.84110403771896 91.42857142857142 198.66412638416287 97.9591836734694 187.99627669465966 104.48979591836734 176.3318843501911 111.0204081632653 173.60375053478856 117.55102040816327 169.25199137880307 124.08163265306122 163.42157770001296 130.6122448979592 159.99372920468858 137.14285714285714 149.2163245700999 143.6734693877551 151.8308787532001 150.20408163265307 137.94834279591143 156.73469387755102 126.0782141017032 163.26530612244898 120.39041729429172 169.79591836734696 110.04949290703948 176.32653061224488 101.46193534129037 182.85714285714283 97.89526711841307 189.3877551020408 94.07414635345356 195.9183673469388 90.75096361551385 202.44897959183675 78.81148118558403 208.97959183673467 68.974297043111 215.51020408163265 67.69014746389146 222.0408163265306 62.45196066610555 228.57142857142858 64.67271440558397 235.10204081632654 63.01230837379319 241.63265306122446 55.16896615256752 248.16326530612244 51.15449185776532 254.69387755102042 51.45046297704317 261.2244897959184 56.86347662826114 267.7551020408163 53.88183619161828 274.2857142857143 56.59460695952157 280.81632653061223 58.34371335083989 287.3469387755102 59.08976065342193 293.8775510204082 60.522777257051416 300.40816326530614 63.2486882268052 306.9387755102041 64.57240597313137 313.46938775510205 57.49116768547964 320 57.7480442916451 326.53061224489795 54.74883867657422 333.0612244897959 52.01498800943136 339.5918367346939 46.25742002769783 346.12244897959187 47.99206678402692 352.65306122448976 44.49847786394105 359.1836734693877 43.238524434115334 365.71428571428567 45.25111673225507 372.2448979591837 52.04984145075821 378.7755102040816 54.009653649057384 385.3061224489796 57.775352067371614 391.8367346938776 61.196477074200516 398.36734693877554 60.49786063407436 404.8979591836735 64.84544820917307 411.42857142857144 67.96722585422728 417.95918367346934 73.27645580879079 424.48979591836735 78.60376381605744 431.0204081632653 82.2274286015556 437.55102040816325 76.55324275239408 444.0816326530612 79.95404010435755 450.61224489795916 86.84606360364594 457.14285714285717 93.26582898906125 463.6734693877551 92.86059481113338 470.2040816326531 95.71107839455979 476.7346938775511 101.02501464927292 483.2653061224489 106.36718118346772 489.7959183673469 112.75352877274065 496.3265306122449 110.62246834303349 502.85714285714283 111.89858480312034 509.38775510204084 111.45644513190607 515.9183673469388 109.96410788914264 522.4489795918367 113.34590832205404 528.9795918367347 119.22460963686439 535.5102040816327 121.41905207523936 542.0408163265306 117.23694521300052 548.5714285714286 118.75086511852257 555.1020408163265 124.86880768173594 561.6326530612245 125.76573157290585 568.1632653061224 125.86794007744453 574.6938775510204 128.73175357297808 581.2244897959183 127.9722333589043 587.7551020408164 128.1603379677375 594.2857142857143 128.08413543795908 600.8163265306123 129.44891840092527 607.3469387755102 127.9636622016325 613.8775510204082 116.83063519512308 620.4081632653061 116.0181864154396 626.9387755102041 117.50144585751227 633.469387755102 117.10984387247743 640 117.8141978544036 640 320 0 320"
      />
      
      <polygon
        fill="#755462"
        fillRule="evenodd"
        points="0 318.02122414333775 6.530612244897958 313.52736525443976 13.061224489795917 310.89612246670697 19.591836734693878 304.6063581127226 26.122448979591834 301.5123608801483 32.6530612244898 299.6347442326122 39.183673469387756 295.687332033126 45.71428571428571 289.6072496988942 52.24489795918367 284.8540588518892 58.775510204081634 274.4471202993704 65.3061224489796 270.1967764262163 71.83673469387755 262.95237574812893 78.36734693877551 259.780645285098 84.89795918367348 257.2939964942456 91.42857142857142 251.48861491066688 97.9591836734694 243.1157989979379 104.48979591836734 233.69076961998394 111.0204081632653 232.44228949410075 117.55102040816327 230.48716488488714 124.08163265306122 226.7432845434942 130.6122448979592 225.0261647009017 137.14285714285714 216.76227351666967 143.6734693877551 218.7515699029016 150.20408163265307 208.35866281950572 156.73469387755102 198.3525671194824 163.26530612244898 194.34765328451428 169.79591836734696 186.11872305059532 176.32653061224488 178.69901948124482 182.85714285714283 176.475047356534 189.3877551020408 173.87225627795453 195.9183673469388 171.38698807798588 202.44897959183675 162.65606782873337 208.97959183673467 154.12863762538421 215.51020408163265 153.54796651674692 222.0408163265306 149.7712494599908 228.57142857142858 151.99187167743688 235.10204081632654 150.24044315161046 241.63265306122446 143.46425837075827 248.16326530612244 140.69800008915803 254.69387755102042 142.9293538776599 261.2244897959184 147.0538019946703 267.7551020408163 144.4471822480779 274.2857142857143 147.14073435900272 280.81632653061223 149.53432953435833 287.3469387755102 150.79089810082908 293.8775510204082 152.38231655218132 300.40816326530614 155.0354763152387 306.9387755102041 154.49046429230253 313.46938775510205 148.8869171388436 320 148.96302287662627 326.53061224489795 145.9047761992166 333.0612244897959 141.78899476762916 339.5918367346939 137.45872237634543 346.12244897959187 139.37107183864612 352.65306122448976 135.06409723962418 359.1836734693877 134.18779768825428 365.71428571428567 137.09706199232158 372.2448979591837 142.45256256923716 378.7755102040816 144.39919173882404 385.3061224489796 146.97582823302173 391.8367346938776 149.82619488514135 398.36734693877554 149.06463282234068 404.8979591836735 151.7194640249262 411.42857142857144 154.1923612830814 417.95918367346934 158.3030145164998 424.48979591836735 162.4216597067648 431.0204081632653 164.48563759102117 437.55102040816325 158.2233139835931 444.0816326530612 161.3478729394509 450.61224489795916 165.87464222687564 457.14285714285717 170.0707194004923 463.6734693877551 168.56362857099737 470.2040816326531 169.21384719457566 476.7346938775511 173.47284728276594 483.2653061224489 177.15372614572127 489.7959183673469 181.4937707267609 496.3265306122449 177.5515337471391 502.85714285714283 179.11018624814673 509.38775510204084 179.84345281503298 515.9183673469388 178.8521528646061 522.4489795918367 181.19133807388545 528.9795918367347 185.2185533908948 535.5102040816327 189.19436928114862 542.0408163265306 186.2690859326201 548.5714285714286 186.94225432883246 555.1020408163265 190.9834085152338 561.6326530612245 194.3044725257086 568.1632653061224 196.59011116995345 574.6938775510204 200.19849349602273 581.2244897959183 201.59021545926694 587.7551020408164 203.64801159222412 594.2857142857143 205.7505198217251 600.8163265306123 209.18377033792484 607.3469387755102 208.11713746495732 613.8775510204082 198.639271052508 620.4081632653061 199.16124173059512 626.9387755102041 200.6240310013501 633.469387755102 202.12374358457186 640 202.88055225206008 640 320 0 320"
      />
      
      <polygon
        fill="#2415b9"
        fillRule="evenodd"
        points="0 318.02122414333775 6.530612244897958 313.52736525443976 13.061224489795917 310.89612246670697 19.591836734693878 304.6063581127226 26.122448979591834 301.5123608801483 32.6530612244898 299.6347442326122 39.183673469387756 295.687332033126 45.71428571428571 289.6072496988942 52.24489795918367 284.8540588518892 58.775510204081634 274.4471202993704 65.3061224489796 270.1967764262163 71.83673469387755 262.95237574812893 78.36734693877551 259.780645285098 84.89795918367348 257.2939964942456 91.42857142857142 251.48861491066688 97.9591836734694 243.1157989979379 104.48979591836734 233.69076961998394 111.0204081632653 232.44228949410075 117.55102040816327 230.48716488488714 124.08163265306122 226.7432845434942 130.6122448979592 225.0261647009017 137.14285714285714 216.76227351666967 143.6734693877551 218.7515699029016 150.20408163265307 208.35866281950572 156.73469387755102 198.3525671194824 163.26530612244898 194.34765328451428 169.79591836734696 186.11872305059532 176.32653061224488 178.69901948124482 182.85714285714283 176.475047356534 189.3877551020408 173.87225627795453 195.9183673469388 171.38698807798588 202.44897959183675 162.65606782873337 208.97959183673467 154.12863762538421 215.51020408163265 153.54796651674692 222.0408163265306 149.7712494599908 228.57142857142858 151.99187167743688 235.10204081632654 150.24044315161046 241.63265306122446 143.46425837075827 248.16326530612244 140.69800008915803 254.69387755102042 142.9293538776599 261.2244897959184 147.0538019946703 267.7551020408163 144.4471822480779 274.2857142857143 147.14073435900272 280.81632653061223 149.53432953435833 287.3469387755102 150.79089810082908 293.8775510204082 152.38231655218132 300.40816326530614 155.0354763152387 306.9387755102041 154.49046429230253 313.46938775510205 148.8869171388436 320 148.96302287662627 326.53061224489795 145.9047761992166 333.0612244897959 142.14862532486183 339.5918367346939 137.81835293357813 346.12244897959187 139.7307023958788 352.65306122448976 135.42372779685684 359.1836734693877 134.5474282454869 365.71428571428567 137.45669254955428 372.2448979591837 142.81219312646985 378.7755102040816 144.75882229605674 385.3061224489796 147.33545879025442 391.8367346938776 150.18582544237404 398.36734693877554 149.42426337957335 404.8979591836735 152.07909458215886 411.42857142857144 154.5519918403141 417.95918367346934 158.66264507373245 424.48979591836735 162.7812902639975 431.0204081632653 164.84526814825387 437.55102040816325 158.5829445408258 444.0816326530612 161.70750349668356 450.61224489795916 166.2342727841083 457.14285714285717 170.43034995772499 463.6734693877551 168.92325912823003 470.2040816326531 169.57347775180833 476.7346938775511 173.8324778399986 483.2653061224489 177.51335670295396 489.7959183673469 181.8534012839936 496.3265306122449 177.9111643043718 502.85714285714283 179.46981680537942 509.38775510204084 180.20308337226567 515.9183673469388 179.2117834218388 522.4489795918367 181.55096863111814 528.9795918367347 185.5781839481275 535.5102040816327 189.5539998383813 542.0408163265306 186.6287164898528 548.5714285714286 187.30188488606512 555.1020408163265 191.3430390724665 561.6326530612245 194.6641030829413 568.1632653061224 196.94974172718617 574.6938775510204 200.55812405325543 581.2244897959183 201.94984601649963 587.7551020408164 204.0076421494568 594.2857142857143 206.1101503789578 600.8163265306123 209.54340089515753 607.3469387755102 208.47676802219002 613.8775510204082 198.9989016097407 620.4081632653061 199.5208722878278 626.9387755102041 200.98366155858278 633.469387755102 202.48337414180455 640 202.88055225206008 640 320 0 320"
      />
      
      <polygon
        fill="#f1e05a"
        fillRule="evenodd"
        points="0 318.02122414333775 6.530612244897958 313.52736525443976 13.061224489795917 310.89612246670697 19.591836734693878 304.6063581127226 26.122448979591834 301.5123608801483 32.6530612244898 299.6347442326122 39.183673469387756 295.687332033126 45.71428571428571 289.6072496988942 52.24489795918367 284.8540588518892 58.775510204081634 275.5586248112721 65.3061224489796 271.27435287759073 71.83673469387755 264.38153586889064 78.36734693877551 261.623298345407 84.89795918367348 259.09165360674956 91.42857142857142 253.2331431844413 97.9591836734694 246.00814388648104 104.48979591836734 237.61107766399635 111.0204081632653 236.28997168835383 117.55102040816327 234.21739862350438 124.08163265306122 230.5137011400417 130.6122448979592 228.68149212102043 137.14285714285714 222.6034289902986 143.6734693877551 224.41442825262365 150.20408163265307 213.85415886929252 156.73469387755102 203.68031637289246 163.26530612244898 199.51277575041513 169.79591836734696 191.1311921063518 176.32653061224488 184.67466753563588 182.85714285714283 182.2740890643951 189.3877551020408 179.49428546225914 195.9183673469388 176.83740803372916 202.44897959183675 169.27907914282986 208.97959183673467 161.91433298974016 215.51020408163265 161.10355894791076 222.0408163265306 157.65205837284984 228.57142857142858 159.74991597301147 235.10204081632654 157.76167750685215 241.63265306122446 151.88568397380908 248.16326530612244 148.87053565870687 254.69387755102042 150.85243016991052 261.2244897959184 154.74271461097968 267.7551020408163 153.00435554253562 274.2857142857143 155.44774401402788 280.81632653061223 157.61196990252813 287.3469387755102 159.39922370447374 293.8775510204082 161.38444891867042 300.40816326530614 163.76282483709875 306.9387755102041 164.08008297199166 313.46938775510205 158.18381760902082 320 157.9761414428809 326.53061224489795 154.65151682273532 333.0612244897959 150.62837683920054 339.5918367346939 146.04748716022425 346.12244897959187 147.7086490635202 352.65306122448976 144.26957397081551 359.1836734693877 143.1490256751637 365.71428571428567 145.79573192952245 372.2448979591837 150.90477563053474 378.7755102040816 152.60438330424347 385.3061224489796 154.94914902418128 391.8367346938776 157.56711213505835 398.36734693877554 156.58024050063548 404.8979591836735 159.02358119263948 411.42857142857144 161.28450192520296 417.95918367346934 165.19617958592838 424.48979591836735 169.11539154792843 431.0204081632653 170.98602423549585 437.55102040816325 165.6690623986296 444.0816326530612 168.5773205283239 450.61224489795916 172.9010573021153 457.14285714285717 176.8936344423742 463.6734693877551 175.19552430113131 470.2040816326531 175.6542853774398 476.7346938775511 179.72767140115732 483.2653061224489 183.23432138382077 489.7959183673469 187.39973676438257 496.3265306122449 183.29358140979315 502.85714285714283 184.68793905401554 509.38775510204084 185.26192319207166 515.9183673469388 184.13094170569974 522.4489795918367 186.31997119043046 528.9795918367347 190.20624287374204 535.5102040816327 194.0407895105164 542.0408163265306 190.9829020526576 548.5714285714286 191.5231605508144 555.1020408163265 195.43546249936168 561.6326530612245 198.63557751310816 568.1632653061224 200.7999896285861 574.6938775510204 204.294579092258 581.2244897959183 205.57224874534575 587.7551020408164 207.51947255892142 594.2857142857143 209.52501411503368 600.8163265306123 212.85402776925127 607.3469387755102 211.68955072433542 613.8775510204082 202.11361573047003 620.4081632653061 202.54353280233818 626.9387755102041 203.91405772336765 633.469387755102 205.3243203228532 640 205.6852097576038 640 320 0 320"
      />
      
      <polygon
        fill="#22e8e8"
        fillRule="evenodd"
        points="0 319.92567426907306 6.530612244897958 319.8564690093958 13.061224489795917 319.827232935722 19.591836734693878 318.66030311792935 26.122448979591834 318.54753017806746 32.6530612244898 318.40759803480165 39.183673469387756 318.2695447698739 45.71428571428571 316.01153585167253 52.24489795918367 316.0194990894504 58.775510204081634 310.2712019313753 65.3061224489796 309.37987373754856 71.83673469387755 306.9369361811241 78.36734693877551 307.0222687032347 84.89795918367348 306.2791078263305 91.42857142857142 304.5841174287958 97.9591836734694 300.15630508218965 104.48979591836734 294.75365440125665 111.0204081632653 293.47878766763137 117.55102040816327 293.7809630613565 124.08163265306122 290.8838655419728 130.6122448979592 291.25493210432165 137.14285714285714 286.97854716674 143.6734693877551 287.2959287987663 150.20408163265307 280.0896356431398 156.73469387755102 272.35654511524115 163.26530612244898 270.68737235908156 169.79591836734696 264.641054875988 176.32653061224488 259.7160571063667 182.85714285714283 258.48213660304276 189.3877551020408 256.49763029033 195.9183673469388 254.70955863712146 202.44897959183675 249.7580375282202 208.97959183673467 243.84331150673387 215.51020408163265 243.3268180123086 222.0408163265306 241.83027942152333 228.57142857142858 242.76855452810267 235.10204081632654 241.70747446396555 241.63265306122446 237.2178423438322 248.16326530612244 234.04438362992025 254.69387755102042 235.73032788041832 261.2244897959184 237.4044414158509 267.7551020408163 235.56050920102558 274.2857142857143 237.00509058833615 280.81632653061223 238.3993885544363 287.3469387755102 240.81758334357033 293.8775510204082 242.54150202239762 300.40816326530614 244.5917304700893 306.9387755102041 243.76036354072087 313.46938775510205 239.7940781684885 320 239.8281035347694 326.53061224489795 237.4353433393664 333.0612244897959 235.72258308224093 339.5918367346939 231.9917716741972 346.12244897959187 232.2007351122288 352.65306122448976 229.58700701079374 359.1836734693877 229.00010936144008 365.71428571428567 230.61540031523492 372.2448979591837 233.24735394872715 378.7755102040816 234.3858619169779 385.3061224489796 235.44979415968862 391.8367346938776 235.98082833955556 398.36734693877554 235.02390982048672 404.8979591836735 236.27275919447578 411.42857142857144 237.1099436515902 417.95918367346934 239.17610620928053 424.48979591836735 241.04016105872816 431.0204081632653 242.0107679285428 437.55102040816325 236.8473272389798 444.0816326530612 238.18589046278245 450.61224489795916 240.6023214387109 457.14285714285717 242.6985358252056 463.6734693877551 240.20794789810827 470.2040816326531 240.05523016546988 476.7346938775511 242.49392062886565 483.2653061224489 244.47760712776017 489.7959183673469 246.78132814027492 496.3265306122449 243.48883178384506 502.85714285714283 244.04376033169248 509.38775510204084 246.20496879651566 515.9183673469388 246.89562910927384 522.4489795918367 247.99731046663211 528.9795918367347 250.11825130346512 535.5102040816327 252.23285041505187 542.0408163265306 249.58180375894753 548.5714285714286 249.44277151028567 555.1020408163265 251.5949182098309 561.6326530612245 253.61506481497938 568.1632653061224 254.422796341194 574.6938775510204 256.34014276733586 581.2244897959183 257.1593656612222 587.7551020408164 258.9194182100122 594.2857142857143 259.9454011368818 600.8163265306123 261.74596026247946 607.3469387755102 260.11291748199744 613.8775510204082 252.98376905738385 620.4081632653061 252.93433764206418 626.9387755102041 253.24232072404328 633.469387755102 253.15472924526586 640 252.95932774886668 640 320 0 320"
      />
      
      <polygon
        fill="#22e4e8"
        fillRule="evenodd"
        points="0 319.92567426907306 6.530612244897958 319.8564690093958 13.061224489795917 319.827232935722 19.591836734693878 318.66030311792935 26.122448979591834 318.54753017806746 32.6530612244898 318.40759803480165 39.183673469387756 318.2695447698739 45.71428571428571 316.01153585167253 52.24489795918367 316.0194990894504 58.775510204081634 310.2712019313753 65.3061224489796 309.37987373754856 71.83673469387755 306.9369361811241 78.36734693877551 307.0222687032347 84.89795918367348 306.2791078263305 91.42857142857142 304.5841174287958 97.9591836734694 300.15630508218965 104.48979591836734 294.75365440125665 111.0204081632653 293.47878766763137 117.55102040816327 293.7809630613565 124.08163265306122 290.8838655419728 130.6122448979592 291.25493210432165 137.14285714285714 286.97854716674 143.6734693877551 287.2959287987663 150.20408163265307 280.0896356431398 156.73469387755102 272.35654511524115 163.26530612244898 270.68737235908156 169.79591836734696 264.641054875988 176.32653061224488 259.7160571063667 182.85714285714283 258.48213660304276 189.3877551020408 256.49763029033 195.9183673469388 254.70955863712146 202.44897959183675 249.7580375282202 208.97959183673467 243.84331150673387 215.51020408163265 243.3268180123086 222.0408163265306 241.83027942152333 228.57142857142858 242.76855452810267 235.10204081632654 241.70747446396555 241.63265306122446 237.2178423438322 248.16326530612244 234.04438362992025 254.69387755102042 235.73032788041832 261.2244897959184 237.4044414158509 267.7551020408163 235.56050920102558 274.2857142857143 237.00509058833615 280.81632653061223 238.3993885544363 287.3469387755102 240.81758334357033 293.8775510204082 242.54150202239762 300.40816326530614 244.5917304700893 306.9387755102041 243.76036354072087 313.46938775510205 239.7940781684885 320 239.8281035347694 326.53061224489795 237.4353433393664 333.0612244897959 235.7739588761313 339.5918367346939 232.04314746808757 346.12244897959187 232.25211090611919 352.65306122448976 229.6383828046841 359.1836734693877 229.05148515533045 365.71428571428567 230.6667761091253 372.2448979591837 233.29872974261752 378.7755102040816 234.43723771086826 385.3061224489796 235.501169953579 391.8367346938776 236.03220413344593 398.36734693877554 235.0752856143771 404.8979591836735 236.32413498836615 411.42857142857144 237.1613194454806 417.95918367346934 239.2274820031709 424.48979591836735 241.09153685261856 431.0204081632653 242.06214372243318 437.55102040816325 236.89870303287017 444.0816326530612 238.23726625667283 450.61224489795916 240.6536972326013 457.14285714285717 242.749911619096 463.6734693877551 240.25932369199865 470.2040816326531 240.10660595936028 476.7346938775511 242.54529642275602 483.2653061224489 244.52898292165054 489.7959183673469 246.8327039341653 496.3265306122449 243.54020757773546 502.85714285714283 244.09513612558288 509.38775510204084 246.25634459040603 515.9183673469388 246.9470049031642 522.4489795918367 248.04868626052252 528.9795918367347 250.1696270973555 535.5102040816327 252.28422620894227 542.0408163265306 249.6331795528379 548.5714285714286 249.49414730417607 555.1020408163265 251.64629400372127 561.6326530612245 253.66644060886975 568.1632653061224 254.47417213508436 574.6938775510204 256.39151856122623 581.2244897959183 257.21074145511255 587.7551020408164 258.9707940039026 594.2857142857143 259.99677693077217 600.8163265306123 261.79733605636983 607.3469387755102 260.16429327588787 613.8775510204082 253.03514485127423 620.4081632653061 252.98571343595455 626.9387755102041 253.29369651793368 633.469387755102 253.20610503915626 640 252.95932774886668 640 320 0 320"
      />
      
      <polygon
        fill="#e34c26"
        fillRule="evenodd"
        points="0 319.92567426907306 6.530612244897958 319.8564690093958 13.061224489795917 319.827232935722 19.591836734693878 318.66030311792935 26.122448979591834 318.638762531946 32.6530612244898 318.51260298545276 39.183673469387756 318.37134450496353 45.71428571428571 316.11052472768455 52.24489795918367 316.2070752571428 58.775510204081634 311.64862395614807 65.3061224489796 310.75104856853585 71.83673469387755 308.2675867620307 78.36734693877551 308.31230173561903 84.89795918367348 307.5297633677296 91.42857142857142 305.7978103470257 97.9591836734694 302.0857710067345 104.48979591836734 297.72661397275743 111.0204081632653 296.3609991945875 117.55102040816327 296.5751969320778 124.08163265306122 294.70440826760006 130.6122448979592 294.9752961419262 137.14285714285714 291.71974720143055 143.6734693877551 292.1942326203713 150.20408163265307 288.11679456723925 156.73469387755102 282.47605989821096 163.26530612244898 280.50910687556745 169.79591836734696 276.0942123147248 176.32653061224488 271.3321056096965 182.85714285714283 270.3321042335349 189.3877551020408 269.0820056468422 195.9183673469388 268.3241080550172 202.44897959183675 264.111267083156 208.97959183673467 258.73413839645457 215.51020408163265 258.87803346675975 222.0408163265306 257.33906977289564 228.57142857142858 258.0372873724587 235.10204081632654 256.52383419547385 241.63265306122446 252.72248358608994 248.16326530612244 250.1933615838654 254.69387755102042 252.19008417670165 261.2244897959184 254.18869133640942 267.7551020408163 252.86780785905506 274.2857142857143 253.80099459398073 280.81632653061223 254.90776176447815 287.3469387755102 256.8330602695754 293.8775510204082 258.5829278343809 300.40816326530614 260.4521285347204 306.9387755102041 259.97208572422846 313.46938775510205 257.86441114489384 320 257.54207550946523 326.53061224489795 255.72569520813906 333.0612244897959 254.32303205032477 339.5918367346939 252.4440087297501 346.12244897959187 252.30170867234204 352.65306122448976 249.89600938049617 359.1836734693877 249.60734204958092 365.71428571428567 250.63989175849943 372.2448979591837 252.68979361026933 378.7755102040816 254.04378398828686 385.3061224489796 254.8813585931801 391.8367346938776 255.76537222000266 398.36734693877554 254.2061177282677 404.8979591836735 254.9008606698632 411.42857142857144 255.1710043247142 417.95918367346934 256.7048961899302 424.48979591836735 258.10512626207196 431.0204081632653 258.55639783679806 437.55102040816325 255.1694375685037 444.0816326530612 257.120742418267 450.61224489795916 258.9790863652913 457.14285714285717 260.515925217971 463.6734693877551 258.6005468443657 470.2040816326531 258.02060239495717 476.7346938775511 259.9124694585013 483.2653061224489 261.38288711604974 489.7959183673469 263.1721555889273 496.3265306122449 261.8204384151117 502.85714285714283 263.55761131922645 509.38775510204084 265.2078762111351 515.9183673469388 265.57698776012387 522.4489795918367 267.2215365812043 528.9795918367347 268.77583426441856 535.5102040816327 270.3394310690786 542.0408163265306 268.438646708989 548.5714285714286 268.9636383762333 555.1020408163265 270.521499690015 561.6326530612245 271.9837945673953 568.1632653061224 273.4494599229083 574.6938775510204 274.82523458285 581.2244897959183 276.2041741458227 587.7551020408164 277.5410206474725 594.2857142857143 278.7133762936834 600.8163265306123 279.9736336627058 607.3469387755102 278.9297571838841 613.8775510204082 275.72392639728895 620.4081632653061 277.03248051639747 626.9387755102041 278.28629607396203 633.469387755102 279.55957950426114 640 280.07614581462667 640 320 0 320"
      />
      
      <polygon
        fill="#00ADD8"
        fillRule="evenodd"
        points="0 319.92567426907306 6.530612244897958 319.8564690093958 13.061224489795917 319.827232935722 19.591836734693878 318.66030311792935 26.122448979591834 318.638762531946 32.6530612244898 318.5153627557217 39.183673469387756 318.374020034857 45.71428571428571 316.612180481828 52.24489795918367 316.69341825041397 58.775510204081634 313.13944396896636 65.3061224489796 312.1963621636609 71.83673469387755 310.8820318640453 78.36734693877551 310.86396561749956 84.89795918367348 310.00353887453105 91.42857142857142 308.6617078419822 97.9591836734694 305.87144960486984 104.48979591836734 303.7931643018264 111.0204081632653 303.0244489098131 117.55102040816327 303.31529419420843 124.08163265306122 302.490187888258 130.6122448979592 302.9132436714763 137.14285714285714 300.9756924299922 143.6734693877551 301.55639730280126 150.20408163265307 299.6311576332631 156.73469387755102 295.8212018455567 163.26530612244898 294.07845895254604 169.79591836734696 290.71614138177085 176.32653061224488 287.7123917729584 182.85714285714283 287.3468187728745 189.3877551020408 286.1158422566678 195.9183673469388 284.93729404969065 202.44897959183675 282.3765434544466 208.97959183673467 277.94384365664155 215.51020408163265 278.0796562870519 222.0408163265306 276.03280793504155 228.57142857142858 276.2116892120001 235.10204081632654 274.1490257157795 241.63265306122446 270.3047311077985 248.16326530612244 268.0869710769307 254.69387755102042 269.6660793640337 261.2244897959184 271.14819539260264 267.7551020408163 270.4125407760648 274.2857142857143 270.8101841804454 280.81632653061223 272.16291090916127 287.3469387755102 273.5615037477785 293.8775510204082 274.9228901645341 300.40816326530614 276.29332335511117 306.9387755102041 276.464333100084 313.46938775510205 274.63328018027744 320 273.7990823727396 326.53061224489795 272.04440028981224 333.0612244897959 270.14361695723846 339.5918367346939 268.249480933133 346.12244897959187 268.72861117594834 352.65306122448976 266.9323541565795 359.1836734693877 266.17327978164514 365.71428571428567 266.70016426671344 372.2448979591837 268.275414406373 378.7755102040816 269.7729939632189 385.3061224489796 270.14569675212675 391.8367346938776 271.6310116431265 398.36734693877554 270.8758838847526 404.8979591836735 271.2114011103713 411.42857142857144 272.69784202519605 417.95918367346934 274.0958459430879 424.48979591836735 275.46915201668344 431.0204081632653 275.7090070619712 437.55102040816325 272.952468885347 444.0816326530612 274.36095867469794 450.61224489795916 275.7097790757508 457.14285714285717 277.06171644621907 463.6734693877551 276.4936189466269 470.2040816326531 276.69948678757345 476.7346938775511 278.0211914556173 483.2653061224489 279.098486675896 489.7959183673469 280.3469930650851 496.3265306122449 279.2673682608082 502.85714285714283 280.47750772087784 509.38775510204084 281.61130716954466 515.9183673469388 281.5274958846911 522.4489795918367 282.6851614446517 528.9795918367347 283.78244061573474 535.5102040816327 284.88796878703636 542.0408163265306 282.61008712730717 548.5714285714286 282.84179802009646 555.1020408163265 283.97603919783916 561.6326530612245 285.0406881020492 568.1632653061224 286.1078030649163 574.6938775510204 287.1094647423339 581.2244897959183 288.11343920386514 587.7551020408164 289.0867582943157 594.2857142857143 289.940316864278 600.8163265306123 290.8578802202816 607.3469387755102 291.7191589485905 613.8775510204082 290.3472302805795 620.4081632653061 291.2236060839027 626.9387755102041 292.1019991927086 633.469387755102 292.9535613363108 640 293.299041115442 640 320 0 320"
      />
      
      <polygon
        fill="#244776"
        fillRule="evenodd"
        points="0 319.92567426907306 6.530612244897958 319.8564690093958 13.061224489795917 319.827232935722 19.591836734693878 318.66030311792935 26.122448979591834 318.638762531946 32.6530612244898 318.5153627557217 39.183673469387756 318.374020034857 45.71428571428571 316.612180481828 52.24489795918367 316.69341825041397 58.775510204081634 313.13944396896636 65.3061224489796 312.1963621636609 71.83673469387755 310.8820318640453 78.36734693877551 310.86396561749956 84.89795918367348 310.00353887453105 91.42857142857142 308.6617078419822 97.9591836734694 305.87144960486984 104.48979591836734 303.7931643018264 111.0204081632653 303.0244489098131 117.55102040816327 303.31529419420843 124.08163265306122 302.490187888258 130.6122448979592 302.9132436714763 137.14285714285714 300.9756924299922 143.6734693877551 301.55639730280126 150.20408163265307 299.6311576332631 156.73469387755102 295.8212018455567 163.26530612244898 294.07845895254604 169.79591836734696 290.71614138177085 176.32653061224488 287.7123917729584 182.85714285714283 287.3468187728745 189.3877551020408 286.1158422566678 195.9183673469388 284.93729404969065 202.44897959183675 282.3765434544466 208.97959183673467 277.94384365664155 215.51020408163265 278.0796562870519 222.0408163265306 276.03280793504155 228.57142857142858 276.2116892120001 235.10204081632654 274.1490257157795 241.63265306122446 270.3047311077985 248.16326530612244 268.0869710769307 254.69387755102042 269.6660793640337 261.2244897959184 271.14819539260264 267.7551020408163 270.4125407760648 274.2857142857143 270.8101841804454 280.81632653061223 272.16291090916127 287.3469387755102 273.5615037477785 293.8775510204082 274.9228901645341 300.40816326530614 276.29332335511117 306.9387755102041 276.464333100084 313.46938775510205 274.63328018027744 320 273.7990823727396 326.53061224489795 272.04440028981224 333.0612244897959 270.14361695723846 339.5918367346939 268.249480933133 346.12244897959187 268.72861117594834 352.65306122448976 266.9323541565795 359.1836734693877 266.17327978164514 365.71428571428567 266.70016426671344 372.2448979591837 268.275414406373 378.7755102040816 269.7729939632189 385.3061224489796 270.14569675212675 391.8367346938776 271.6310116431265 398.36734693877554 270.8758838847526 404.8979591836735 271.2114011103713 411.42857142857144 272.69784202519605 417.95918367346934 274.0958459430879 424.48979591836735 275.46915201668344 431.0204081632653 275.7090070619712 437.55102040816325 272.952468885347 444.0816326530612 274.36095867469794 450.61224489795916 275.7097790757508 457.14285714285717 277.06171644621907 463.6734693877551 276.4936189466269 470.2040816326531 276.69948678757345 476.7346938775511 278.0211914556173 483.2653061224489 279.098486675896 489.7959183673469 280.3469930650851 496.3265306122449 279.2673682608082 502.85714285714283 280.47750772087784 509.38775510204084 281.61130716954466 515.9183673469388 281.5274958846911 522.4489795918367 282.6851614446517 528.9795918367347 283.78244061573474 535.5102040816327 284.88796878703636 542.0408163265306 282.61008712730717 548.5714285714286 282.84179802009646 555.1020408163265 283.97603919783916 561.6326530612245 285.0406881020492 568.1632653061224 286.1078030649163 574.6938775510204 287.1094647423339 581.2244897959183 288.11343920386514 587.7551020408164 289.0867582943157 594.2857142857143 289.940316864278 600.8163265306123 290.8578802202816 607.3469387755102 291.7191589485905 613.8775510204082 290.40279148572046 620.4081632653061 291.27752520564417 626.9387755102041 292.1542724662324 633.469387755102 293.00423899481325 640 293.34907143277627 640 320 0 320"
      />
      
      <polygon
        fill="#563d7c"
        fillRule="evenodd"
        points="0 319.92567426907306 6.530612244897958 319.8564690093958 13.061224489795917 319.827232935722 19.591836734693878 318.66030311792935 26.122448979591834 318.638762531946 32.6530612244898 318.5153627557217 39.183673469387756 318.374020034857 45.71428571428571 316.612180481828 52.24489795918367 316.69341825041397 58.775510204081634 314.249603976342 65.3061224489796 313.2726352111444 71.83673469387755 311.92649620525106 78.36734693877551 311.8765482988003 84.89795918367348 310.9852130562146 91.42857142857142 309.61436918809153 97.9591836734694 306.79503142962454 104.48979591836734 305.79142755196983 111.0204081632653 304.9617163514118 117.55102040816327 305.19342748052975 124.08163265306122 304.3146374772758 130.6122448979592 304.68200313293596 137.14285714285714 303.8118366183375 143.6734693877551 304.3059696821357 150.20408163265307 302.2994678918853 156.73469387755102 298.4080634893347 163.26530612244898 296.5863580561463 169.79591836734696 293.14992103853183 176.32653061224488 290.07188162074755 182.85714285714283 289.6365752281003 189.3877551020408 288.3357050268534 195.9183673469388 287.08939677155627 202.44897959183675 284.46922318632164 208.97959183673467 279.97264539793457 215.51020408163265 280.0484979558049 222.0408163265306 277.94155184412705 228.57142857142858 278.0640213691265 235.10204081632654 275.94481655119455 241.63265306122446 273.17509260239063 248.16326530612244 271.62232707892724 254.69387755102042 273.09352092196985 261.2244897959184 274.4743406334958 267.7551020408163 273.6371571730717 274.2857142857143 273.93637144071477 280.81632653061223 275.20277871831934 287.3469387755102 276.5085812218332 293.8775510204082 277.7828684056779 300.40816326530614 279.06600230600253 306.9387755102041 279.15506735146545 313.46938775510205 277.24188108023384 320 276.3280572655159 326.53061224489795 274.49863275287254 333.0612244897959 272.52293529267956 339.5918367346939 270.5584796782025 346.12244897959187 270.96712921615665 352.65306122448976 269.1025426991684 359.1836734693877 268.2835458587752 365.71428571428567 268.7460155789669 372.2448979591837 270.26080164954845 378.7755102040816 271.69777852542444 385.3061224489796 272.01359546654714 391.8367346938776 273.44189350148736 398.36734693877554 272.63148970445417 404.8979591836735 272.9151210773007 411.42857142857144 274.3495568447599 417.95918367346934 275.69874523007405 424.48979591836735 277.02312366910974 431.0204081632653 277.21554467691755 437.55102040816325 275.3902724997886 444.0816326530612 276.72434989752355 450.61224489795916 278.00332151598 457.14285714285717 279.2852498113749 463.6734693877551 278.65143702005963 470.2040816326531 278.79143862720065 476.7346938775511 280.04928770450863 483.2653061224489 281.0666434025649 489.7959183673469 282.2550734044167 496.3265306122449 281.11905595997604 502.85714285714283 282.27267372388764 509.38775510204084 283.35167667555527 515.9183673469388 283.2198111446379 522.4489795918367 284.32581957686085 528.9795918367347 285.37461006816693 535.5102040816327 286.43153817697043 542.0408163265306 284.1080372783047 548.5714285714286 284.29402402278635 555.1020408163265 285.3839368297898 561.6326530612245 286.40697596477 568.1632653061224 287.4323858049339 574.6938775510204 288.39490015492294 581.2244897959183 289.35963743276204 587.7551020408164 290.29491711477925 594.2857142857143 291.1151164570042 600.8163265306123 291.99681971437553 607.3469387755102 292.82443758766124 613.8775510204082 291.47433220607707 620.4081632653061 292.31739706463406 626.9387755102041 293.16240286985874 633.469387755102 293.9815966850457 640 294.3139447023418 640 320 0 320"
      />
      
      <polygon
        fill="#178600"
        fillRule="evenodd"
        points="0 320 6.530612244897958 320 13.061224489795917 320 19.591836734693878 320 26.122448979591834 320 32.6530612244898 320 39.183673469387756 320 45.71428571428571 320 52.24489795918367 320 58.775510204081634 318.7303287360083 65.3061224489796 318.7690847956658 71.83673469387755 318.8054638822928 78.36734693877551 318.8419263621085 84.89795918367348 318.87727583672535 91.42857142857142 318.91045740696734 97.9591836734694 318.9437149825589 104.48979591836734 318.9749330316094 111.0204081632653 319.006222595765 117.55102040816327 319.0365570530867 124.08163265306122 319.06409564998006 130.6122448979592 319.09266363283007 137.14285714285714 319.1194794339544 143.6734693877551 319.14635684493066 150.20408163265307 319.1715858327345 156.73469387755102 319.18567783281776 163.26530612244898 319.2105345413439 169.79591836734696 319.2338667862131 176.32653061224488 319.2572525235589 182.85714285714283 319.2792040542425 189.3877551020408 318.1941409577798 195.9183673469388 318.2492637629963 202.44897959183675 318.29760439828556 208.97959183673467 316.13887491826915 215.51020408163265 316.24748570983996 222.0408163265306 316.3620289259822 228.57142857142858 316.4695470674437 235.10204081632654 316.57731234702413 241.63265306122446 316.24156081695986 248.16326530612244 315.6381788639556 254.69387755102042 315.7713209805995 261.2244897959184 315.8962974285625 267.7551020408163 316.02156034795223 274.2857142857143 316.1429999835122 280.81632653061223 316.2494980174854 287.3469387755102 316.3639801169832 293.8775510204082 316.4714408203071 300.40816326530614 316.57914793221374 306.9387755102041 316.68024929866925 313.46938775510205 315.97581215577304 320 316.09864808265934 326.53061224489795 314.31084515567835 333.0612244897959 314.4845033536517 339.5918367346939 313.5209119101437 346.12244897959187 313.71868230946365 352.65306122448976 313.9104160530014 359.1836734693877 312.9761247385071 365.71428571428567 313.19052335535144 372.2448979591837 313.3917742283788 378.7755102040816 313.5934869286926 385.3061224489796 313.78282796793184 391.8367346938776 313.9726035744613 398.36734693877554 314.1565864883035 404.8979591836735 314.32928519195013 411.42857142857144 314.5023804859001 417.95918367346934 314.6648599584579 424.48979591836735 314.8277118438705 431.0204081632653 314.9855929054458 437.55102040816325 313.2129038533637 444.0816326530612 313.42007581746236 450.61224489795916 313.6145424449804 457.14285714285717 313.8094545006314 463.6734693877551 313.1987269085428 470.2040816326531 313.40633186783236 476.7346938775511 313.6075997256972 483.2653061224489 313.7965238298187 489.7959183673469 313.98588164839225 496.3265306122449 314.1636254549989 502.85714285714283 314.3417771854091 509.38775510204084 314.51449161004865 515.9183673469388 314.6659553623098 522.4489795918367 314.82877408978493 528.9795918367347 314.9816066986985 535.5102040816327 315.13479040978746 542.0408163265306 315.2785791321993 548.5714285714286 315.42269768720786 555.1020408163265 315.5624172412404 561.6326530612245 315.6935674567042 568.1632653061224 315.82501896037377 574.6938775510204 315.9484083586877 581.2244897959183 316.07208073487436 587.7551020408164 316.19197827460493 594.2857142857143 316.2971241798841 600.8163265306123 316.41015205671044 607.3469387755102 316.5162482805996 613.8775510204082 316.62258808740273 620.4081632653061 316.7224055008428 626.9387755102041 316.8224520194982 633.469387755102 316.9194449972934 640 316.95879480700086 640 320 0 320"
      />
      
      <polygon
        fill="#555555"
        fillRule="evenodd"
        points="0 320 6.530612244897958 320 13.061224489795917 320 19.591836734693878 320 26.122448979591834 320 32.6530612244898 320 39.183673469387756 320 45.71428571428571 320 52.24489795918367 320 58.775510204081634 318.7303287360083 65.3061224489796 318.7690847956658 71.83673469387755 318.8054638822928 78.36734693877551 318.8419263621085 84.89795918367348 318.87727583672535 91.42857142857142 318.91045740696734 97.9591836734694 318.9437149825589 104.48979591836734 318.9749330316094 111.0204081632653 319.006222595765 117.55102040816327 319.0365570530867 124.08163265306122 319.06409564998006 130.6122448979592 319.09266363283007 137.14285714285714 319.1194794339544 143.6734693877551 319.14635684493066 150.20408163265307 319.1715858327345 156.73469387755102 319.18567783281776 163.26530612244898 319.2105345413439 169.79591836734696 319.2338667862131 176.32653061224488 319.2572525235589 182.85714285714283 319.2792040542425 189.3877551020408 318.1941409577798 195.9183673469388 318.2492637629963 202.44897959183675 318.29760439828556 208.97959183673467 317.24284948556357 215.51020408163265 317.31883284620517 222.0408163265306 317.4006738282624 228.57142857142858 317.47749544663236 235.10204081632654 317.5544936127804 241.63265306122446 317.18891411879605 248.16326530612244 316.5575336938922 254.69387755102042 316.66261301614253 261.2244897959184 316.7612477588073 267.7551020408163 316.86010865771675 274.2857142857143 316.95595205074784 280.81632653061223 317.0400031578073 287.3469387755102 317.1303555059873 293.8775510204082 317.21516640966263 300.40816326530614 317.30017171934196 306.9387755102041 317.37996367033634 313.46938775510205 317.4599389301632 320 317.5374727095129 326.53061224489795 316.50571010858226 333.0612244897959 316.61237129152653 339.5918367346939 315.5858917662332 346.12244897959187 315.7206299232901 352.65306122448976 315.85125534529453 359.1836734693877 314.8633741456963 365.71428571428567 315.0201657013609 372.2448979591837 315.16734252380274 378.7755102040816 315.31485704961295 385.3061224489796 315.4533238254618 391.8367346938776 315.5921084427971 398.36734693877554 315.7266568484969 404.8979591836735 315.8529530378533 411.42857142857144 315.97953926411657 417.95918367346934 316.0983620530644 424.48979591836735 316.21745707206895 431.0204081632653 316.3329170378774 437.55102040816325 315.5852551173953 444.0816326530612 315.72001259175073 450.61224489795916 315.84650555039775 457.14285714285717 315.97328847402554 463.6734693877551 316.09229587675117 470.2040816326531 316.2115763931971 476.7346938775511 316.32721570162687 483.2653061224489 316.4357627872132 489.7959183673469 316.5445595591579 496.3265306122449 316.64668292373096 502.85714285714283 316.74904076742735 509.38775510204084 316.84827486010363 515.9183673469388 316.9352989816039 522.4489795918367 317.0288472124187 528.9795918367347 317.11665800007506 535.5102040816327 317.204670283595 542.0408163265306 317.2872848207057 548.5714285714286 317.3700889344958 555.1020408163265 317.4503655647297 561.6326530612245 317.5257183799778 568.1632653061224 317.6012445577048 574.6938775510204 317.67213847807625 581.2244897959183 317.74319515696277 587.7551020408164 317.81208280120705 594.2857142857143 317.87249487798164 600.8163265306123 317.9374355254845 607.3469387755102 317.9983935933711 613.8775510204082 318.05949177332275 620.4081632653061 318.1168422637878 626.9387755102041 318.17432455371454 633.469387755102 318.23005239110535 640 318.2526608846157 640 320 0 320"
      />
      
      <polygon
        fill="#C1F12E"
        fillRule="evenodd"
        points="0 320 6.530612244897958 320 13.061224489795917 320 19.591836734693878 320 26.122448979591834 320 32.6530612244898 320 39.183673469387756 320 45.71428571428571 320 52.24489795918367 320 58.775510204081634 319.0077746687736 65.3061224489796 319.0380618295394 71.83673469387755 319.0664914471014 78.36734693877551 319.09498620917 84.89795918367348 319.122611179048 91.42857142857142 319.1485419807467 97.9591836734694 319.17453217286317 104.48979591836734 319.19892853372573 111.0204081632653 319.2233807606266 117.55102040816327 319.247086610269 124.08163265306122 319.2686075193233 130.6122448979592 319.2909329013838 137.14285714285714 319.31188895413464 143.6734693877551 319.3328931768298 150.20408163265307 319.3526091720435 156.73469387755102 319.3611755410913 163.26530612244898 319.3806752853134 169.79591836734696 319.3989791140804 176.32653061224488 319.41732489632074 182.85714285714283 319.4345455795003 189.3877551020408 319.4408448272402 195.9183673469388 319.45791270853357 202.44897959183675 319.47288065562753 208.97959183673467 319.48621082461347 215.51020408163265 319.5013955570073 222.0408163265306 319.5166151838404 228.57142857142858 319.5309013638742 235.10204081632654 319.54522034221486 241.63265306122446 319.30910754057953 248.16326530612244 318.61506601214774 254.69387755102042 318.6573403786473 261.2244897959184 318.69702191158075 267.7551020408163 318.73679458517256 274.2857142857143 318.77535314600317 280.81632653061223 318.809167666026 287.3469387755102 318.8455170677193 293.8775510204082 318.8796373250915 300.40816326530614 318.9138356736704 306.9387755102041 318.94593670821536 313.46938775510205 318.97811141564875 320 319.00930392065453 326.53061224489795 319.0385834993506 333.0612244897959 319.06793017483346 339.5918367346939 319.0954770535048 346.12244897959187 319.12308702165103 352.65306122448976 319.14985432402585 359.1836734693877 319.1733282325091 365.71428571428567 319.19856189551024 372.2448979591837 319.2222479551968 378.7755102040816 319.24598843212425 385.3061224489796 319.2682728574019 391.8367346938776 319.29060827829255 398.36734693877554 319.31226217872694 404.8979591836735 319.33258788131224 411.42857142857144 319.3529602022929 417.95918367346934 319.37208312561705 424.48979591836735 319.39124996496986 431.0204081632653 319.40983172650664 437.55102040816325 318.5742207147311 444.0816326530612 318.6177416634936 450.61224489795916 318.65859374251505 457.14285714285717 318.6995392227298 463.6734693877551 318.73797386514553 470.2040816326531 318.7764964629204 476.7346938775511 318.81384317152475 483.2653061224489 318.84889934173424 489.7959183673469 318.8840360691886 496.3265306122449 318.9170177875924 502.85714285714283 318.9500750284132 509.38775510204084 318.9821235568968 515.9183673469388 319.01022868494454 522.4489795918367 319.0404410425545 528.9795918367347 319.06880017252723 535.5102040816327 319.0972244470066 542.0408163265306 319.1239055407993 548.5714285714286 319.15064787453827 555.1020408163265 319.176573949664 561.6326530612245 319.2009097795662 568.1632653061224 319.22530152688245 574.6938775510204 319.2481974063087 581.2244897959183 319.27114579179624 587.7551020408164 319.29339356558256 594.2857142857143 319.31290413982197 600.8163265306123 319.3338772801618 607.3469387755102 319.35356424805195 613.8775510204082 319.3732963855401 620.4081632653061 319.39181818125024 626.9387755102041 319.4103825880439 633.469387755102 319.4283803506564 640 319.43568204288664 640 320 0 320"
      />
      

      
        <g id="labels">
        
          
          <text x="0" y="330">
            Jul 2014
          </text>
          
        
          
        
          
        
          
        
          
        
          
        
          
        
          
        
          
        
          
        
          
        
          
        
          
        
          
          <text x="84.04040404040404" y="330">
            Aug 2015
          </text>
          
        
          
        
          
        
          
        
          
        
          
        
          
        
          
        
          
        
          
        
          
        
          
        
          
        
          
          <text x="168.08080808080808" y="330">
            Sep 2016
          </text>
          
        
          
        
          
        
          
        
          
        
          
        
          
        
          
        
          
        
          
        
          
        
          
        
          
        
          
          <text x="252.12121212121212" y="330">
            Oct 2017
          </text>
          
        
          
        
          
        
          
        
          
        
          
        
          
        
          
        
          
        
          
        
          
        
          
        
          
        
          
          <text x="336.16161616161617" y="330">
            Nov 2018
          </text>
          
        
          
        
          
        
          
        
          
        
          
        
          
        
          
        
          
        
          
        
          
        
          
        
          
        
          
          <text x="420.2020202020202" y="330">
            Dec 2019
          </text>
          
        
          
        
          
        
          
        
          
        
          
        
          
        
          
        
          
        
          
        
          
        
          
        
          
        
          
          <text x="504.24242424242425" y="330">
            Jan 2021
          </text>
          
        
          
        
          
        
          
        
          
        
          
        
          
        
          
        
          
        
          
        
          
        
          
        
          
        
          
          <text x="588.2828282828283" y="330">
            Feb 2022
          </text>
          
        
          
        
          
        
          
        
          
        
          
        
          
        
          
        
        </g>
      

      
        <text text-anchor="middle" y="370" x="320" id="legend">
          
          <tspan xml:space="preserve" fill="#C1F12E">   </tspan> Batchfile
          
          <tspan xml:space="preserve" fill="#555555">   </tspan> C
          
          <tspan xml:space="preserve" fill="#178600">   </tspan> C#
          
          <tspan xml:space="preserve" fill="#563d7c">   </tspan> CSS
          
          <tspan xml:space="preserve" fill="#244776">   </tspan> CoffeeScript
          
          <tspan xml:space="preserve" fill="#00ADD8">   </tspan> Go
          
          <tspan xml:space="preserve" fill="#e34c26">   </tspan> HTML
          
          <tspan xml:space="preserve" fill="#22e4e8">   </tspan> JSON
          
        </text>
      
        <text text-anchor="middle" y="400" x="320" id="legend">
          
          <tspan xml:space="preserve" fill="#22e8e8">   </tspan> JSon
          
          <tspan xml:space="preserve" fill="#f1e05a">   </tspan> JavaScript
          
          <tspan xml:space="preserve" fill="#2415b9">   </tspan> Less
          
          <tspan xml:space="preserve" fill="#755462">   </tspan> MySQL
          
          <tspan xml:space="preserve" fill="#4F5D95">   </tspan> PHP
          
          <tspan xml:space="preserve" fill="#fd2fdb">   </tspan> PLpgSQL
          
          <tspan xml:space="preserve" fill="#0298c3">   </tspan> Perl
          
          <tspan xml:space="preserve" fill="#3572A5">   </tspan> Python
          
        </text>
      
        <text text-anchor="middle" y="430" x="320" id="legend">
          
          <tspan xml:space="preserve" fill="#701516">   </tspan> Ruby
          
          <tspan xml:space="preserve" fill="#dea584">   </tspan> Rust
          
          <tspan xml:space="preserve" fill="#26c0b0">   </tspan> SCSS
          
          <tspan xml:space="preserve" fill="#0141ae">   </tspan> SQL
          
          <tspan xml:space="preserve" fill="#89e051">   </tspan> Shell
          
          <tspan xml:space="preserve" fill="#2770da">   </tspan> TSQL
          
          <tspan xml:space="preserve" fill="#2b7489">   </tspan> TypeScript
          
          <tspan xml:space="preserve" fill="#2c3e50">   </tspan> Vue
          
        </text>
      
        <text text-anchor="middle" y="460" x="320" id="legend">
          
          <tspan xml:space="preserve" fill="#4B6C4B">   </tspan> Yacc
          
        </text>
      

    </svg>