<svg
      xmlns="http://www.w3.org/2000/svg"
      viewBox="0 0 640 490"
      style="background-color: #292b3e"
    >
      <style>
        text {
          font-size: 12px;
          font-family: Open Sans, Helvetica Neue, Helvetica, Arial, sans-serif;
        }
        #labels text {
          dominant-baseline: hanging;
          font-size: 10px;
          fill: rgba(0,0,0,0.5);
        }
        #legend {
          font-weight: 600;
        }
        #legend tspan {
          font-size: 15px;
        }
        #branding-text {
          font-size: 9px;
          dominant-baseline: hanging;
          opacity: 0.5;
        }
        #branding-logo {
          opacity: 0.5;
        }
      </style>

      
      
      <polygon
        fill="#4B6C4B"
        fillRule="evenodd"
        points="0 313.61355116608325 6.530612244897958 304.269112917686 13.061224489795917 297.26804965142253 19.591836734693878 285.93882409833986 26.122448979591834 278.82801110802683 32.6530612244898 274.9841958322684 39.183673469387756 267.0907447946919 45.71428571428571 257.0788290490827 52.24489795918367 246.22213451942355 58.775510204081634 230.99230522401996 65.3061224489796 221.5462197285911 71.83673469387755 206.62808712766795 78.36734693877551 198.2772849865891 84.89795918367348 192.17039162323343 91.42857142857142 182.12957243311328 97.9591836734694 170.61723056281238 104.48979591836734 156.95190238773083 111.0204081632653 154.80419491598343 117.55102040816327 149.8879446978347 124.08163265306122 142.5256684186868 130.6122448979592 138.28613898559237 137.14285714285714 123.78696175281178 143.6734693877551 127.17486704534542 150.20408163265307 110.77251964929809 156.73469387755102 93.05733326873047 163.26530612244898 88.01888900942149 169.79591836734696 78.10635649650499 176.32653061224488 68.78379906636246 182.85714285714283 65.97374928389394 189.3877551020408 62.13347202270745 195.9183673469388 59.18910678711626 202.44897959183675 46.68380791234176 208.97959183673467 33.29406692736433 215.51020408163265 31.646506894106267 222.0408163265306 27.41463940181336 228.57142857142858 27.528934059646474 235.10204081632654 25.25115893968001 241.63265306122446 13.936201854031538 248.16326530612244 9.64304292073109 254.69387755102042 9.88392298300954 261.2244897959184 12.937993343314872 267.7551020408163 8.246965888176476 274.2857142857143 10.710241724717037 280.81632653061223 10.159091725410406 287.3469387755102 11.45559035701848 293.8775510204082 14.195739097065598 300.40816326530614 17.693165980418655 306.9387755102041 18.068020679011454 313.46938775510205 12.038893400789505 320 13.32284737114918 326.53061224489795 11.29285654746542 333.0612244897959 7.029570473036756 339.5918367346939 1.9718553664615115 346.12244897959187 4.695536643692378 352.65306122448976 0.06666581505476188 359.1836734693877 0 365.71428571428567 3.134358210336984 372.2448979591837 11.121844817661554 378.7755102040816 13.499670747825633 385.3061224489796 18.04810532947681 391.8367346938776 21.314693773382544 398.36734693877554 21.568502776620505 404.8979591836735 27.066670572848977 411.42857142857144 30.681009003803183 417.95918367346934 36.747834282590986 424.48979591836735 42.80375403231238 431.0204081632653 46.96022458226889 437.55102040816325 38.514814611260476 444.0816326530612 42.631051236067606 450.61224489795916 50.6154740288265 457.14285714285717 58.06902371711493 463.6734693877551 55.54219972675719 470.2040816326531 58.40789970005136 476.7346938775511 64.84924214292093 483.2653061224489 68.96524324141706 489.7959183673469 76.40565830098797 496.3265306122449 74.31952654294949 502.85714285714283 74.99072683048408 509.38775510204084 75.05199310669812 515.9183673469388 74.49039104819451 522.4489795918367 78.43682438143162 528.9795918367347 85.33598395823518 535.5102040816327 88.56507153721364 542.0408163265306 82.02557157962303 548.5714285714286 83.08757025912934 555.1020408163265 90.29394904864208 561.6326530612245 88.15339530865432 568.1632653061224 86.7419538904295 574.6938775510204 87.76617085835426 581.2244897959183 85.90006269823834 587.7551020408164 86.43103519577804 594.2857142857143 86.68134760587765 600.8163265306123 89.27123810795274 607.3469387755102 85.21668965530407 613.8775510204082 69.72125396809389 620.4081632653061 69.36919122006879 626.9387755102041 67.00832269756165 633.469387755102 64.1005824612999 640 62.23646098585061 640 320 0 320"
      />
      
      <polygon
        fill="#2c3e50"
        fillRule="evenodd"
        points="0 313.61355116608325 6.530612244897958 304.269112917686 13.061224489795917 297.26804965142253 19.591836734693878 285.93882409833986 26.122448979591834 278.82801110802683 32.6530612244898 274.9841958322684 39.183673469387756 267.0907447946919 45.71428571428571 257.0788290490827 52.24489795918367 246.22213451942355 58.775510204081634 230.99230522401996 65.3061224489796 221.5462197285911 71.83673469387755 206.62808712766795 78.36734693877551 198.2772849865891 84.89795918367348 192.17039162323343 91.42857142857142 182.12957243311328 97.9591836734694 170.61723056281238 104.48979591836734 156.95190238773083 111.0204081632653 154.80419491598343 117.55102040816327 149.8879446978347 124.08163265306122 142.5256684186868 130.6122448979592 138.28613898559237 137.14285714285714 123.78696175281178 143.6734693877551 127.17486704534542 150.20408163265307 110.77251964929809 156.73469387755102 93.05733326873047 163.26530612244898 88.01888900942149 169.79591836734696 78.10635649650499 176.32653061224488 68.78379906636246 182.85714285714283 65.97374928389394 189.3877551020408 62.13347202270745 195.9183673469388 59.18910678711626 202.44897959183675 46.68380791234176 208.97959183673467 33.29406692736433 215.51020408163265 31.646506894106267 222.0408163265306 27.41463940181336 228.57142857142858 27.528934059646474 235.10204081632654 25.25115893968001 241.63265306122446 13.936201854031538 248.16326530612244 9.64304292073109 254.69387755102042 9.88392298300954 261.2244897959184 12.937993343314872 267.7551020408163 8.246965888176476 274.2857142857143 10.710241724717037 280.81632653061223 10.159091725410406 287.3469387755102 11.45559035701848 293.8775510204082 14.195739097065598 300.40816326530614 17.693165980418655 306.9387755102041 18.068020679011454 313.46938775510205 12.038893400789505 320 13.32284737114918 326.53061224489795 11.29285654746542 333.0612244897959 7.029570473036756 339.5918367346939 1.9718553664615115 346.12244897959187 4.695536643692378 352.65306122448976 0.06666581505476188 359.1836734693877 0 365.71428571428567 3.134358210336984 372.2448979591837 11.121844817661554 378.7755102040816 13.499670747825633 385.3061224489796 18.04810532947681 391.8367346938776 21.314693773382544 398.36734693877554 21.568502776620505 404.8979591836735 27.066670572848977 411.42857142857144 30.681009003803183 417.95918367346934 36.747834282590986 424.48979591836735 42.80375403231238 431.0204081632653 46.96022458226889 437.55102040816325 38.514814611260476 444.0816326530612 42.631051236067606 450.61224489795916 50.6154740288265 457.14285714285717 58.06902371711493 463.6734693877551 56.64278668755321 470.2040816326531 59.47489191987444 476.7346938775511 65.88366498006692 483.2653061224489 69.96909428989619 489.7959183673469 77.37886738145204 496.3265306122449 75.26397287955638 502.85714285714283 75.90634455945315 509.38775510204084 75.93966209004827 515.9183673469388 75.35354997123764 522.4489795918367 79.27363594266583 528.9795918367347 86.14806400889682 535.5102040816327 89.35236329676422 542.0408163265306 82.78959534030352 548.5714285714286 83.82827266202969 555.1020408163265 91.01204194662714 561.6326530612245 88.85026534494858 568.1632653061224 87.4175523607708 574.6938775510204 88.42180235880815 581.2244897959183 86.53568143241318 587.7551020408164 87.04725204253339 594.2857142857143 87.28054967001935 600.8163265306123 89.85214991322073 607.3469387755102 85.78043289990194 613.8775510204082 70.26778930843082 620.4081632653061 69.89957395625925 626.9387755102041 67.52251581847642 633.469387755102 64.5990801405222 640 62.72212249237515 640 320 0 320"
      />
      
      <polygon
        fill="#2b7489"
        fillRule="evenodd"
        points="0 313.61355116608325 6.530612244897958 304.269112917686 13.061224489795917 297.26804965142253 19.591836734693878 285.93882409833986 26.122448979591834 278.82801110802683 32.6530612244898 274.9841958322684 39.183673469387756 267.0907447946919 45.71428571428571 257.0788290490827 52.24489795918367 246.22213451942355 58.775510204081634 230.99230522401996 65.3061224489796 221.5462197285911 71.83673469387755 206.62808712766795 78.36734693877551 198.2772849865891 84.89795918367348 192.17039162323343 91.42857142857142 182.12957243311328 97.9591836734694 170.61723056281238 104.48979591836734 156.95190238773083 111.0204081632653 154.80419491598343 117.55102040816327 149.8879446978347 124.08163265306122 142.5256684186868 130.6122448979592 138.28613898559237 137.14285714285714 123.78696175281178 143.6734693877551 127.17486704534542 150.20408163265307 110.77251964929809 156.73469387755102 93.05733326873047 163.26530612244898 88.01888900942149 169.79591836734696 78.10635649650499 176.32653061224488 68.78379906636246 182.85714285714283 65.97374928389394 189.3877551020408 62.13347202270745 195.9183673469388 59.18910678711626 202.44897959183675 46.68380791234176 208.97959183673467 33.29406692736433 215.51020408163265 31.646506894106267 222.0408163265306 27.41463940181336 228.57142857142858 27.528934059646474 235.10204081632654 25.25115893968001 241.63265306122446 13.936201854031538 248.16326530612244 9.64304292073109 254.69387755102042 9.88392298300954 261.2244897959184 12.937993343314872 267.7551020408163 8.246965888176476 274.2857142857143 10.710241724717037 280.81632653061223 10.159091725410406 287.3469387755102 11.45559035701848 293.8775510204082 14.195739097065598 300.40816326530614 17.693165980418655 306.9387755102041 18.068020679011454 313.46938775510205 12.038893400789505 320 13.32284737114918 326.53061224489795 11.29285654746542 333.0612244897959 7.029570473036756 339.5918367346939 1.9718553664615115 346.12244897959187 4.695536643692378 352.65306122448976 0.06666581505476188 359.1836734693877 0 365.71428571428567 3.134358210336984 372.2448979591837 11.121844817661554 378.7755102040816 13.499670747825633 385.3061224489796 18.04810532947681 391.8367346938776 21.314693773382544 398.36734693877554 21.568502776620505 404.8979591836735 27.066670572848977 411.42857142857144 30.681009003803183 417.95918367346934 36.747834282590986 424.48979591836735 42.80375403231238 431.0204081632653 46.96022458226889 437.55102040816325 38.514814611260476 444.0816326530612 42.631051236067606 450.61224489795916 50.6154740288265 457.14285714285717 58.06902371711493 463.6734693877551 56.64278668755321 470.2040816326531 59.47489191987444 476.7346938775511 65.88366498006692 483.2653061224489 69.96909428989619 489.7959183673469 77.37886738145204 496.3265306122449 75.26397287955638 502.85714285714283 75.90634455945315 509.38775510204084 75.93966209004827 515.9183673469388 75.35354997123764 522.4489795918367 79.27363594266583 528.9795918367347 86.14806400889682 535.5102040816327 89.35236329676422 542.0408163265306 84.99970022615577 548.5714285714286 87.49754306281088 555.1020408163265 94.56930960118137 561.6326530612245 94.67113037245707 568.1632653061224 95.5790381885704 574.6938775510204 99.33781260306176 581.2244897959183 99.23026508599847 587.7551020408164 100.29075574714892 594.2857142857143 100.92500864416951 600.8163265306123 103.11095641480918 607.3469387755102 98.64738381435632 613.8775510204082 83.41159415536248 620.4081632653061 83.12830711723103 626.9387755102041 80.36994598245127 633.469387755102 77.05435262763558 640 74.85667802960049 640 320 0 320"
      />
      
      <polygon
        fill="#2770da"
        fillRule="evenodd"
        points="0 313.61355116608325 6.530612244897958 304.269112917686 13.061224489795917 297.26804965142253 19.591836734693878 285.93882409833986 26.122448979591834 278.82801110802683 32.6530612244898 274.9841958322684 39.183673469387756 267.0907447946919 45.71428571428571 257.0788290490827 52.24489795918367 246.22213451942355 58.775510204081634 230.99230522401996 65.3061224489796 221.5462197285911 71.83673469387755 206.62808712766795 78.36734693877551 198.2772849865891 84.89795918367348 192.17039162323343 91.42857142857142 182.12957243311328 97.9591836734694 170.61723056281238 104.48979591836734 156.95190238773083 111.0204081632653 154.80419491598343 117.55102040816327 149.8879446978347 124.08163265306122 142.5256684186868 130.6122448979592 138.28613898559237 137.14285714285714 123.78696175281178 143.6734693877551 127.17486704534542 150.20408163265307 110.77251964929809 156.73469387755102 93.05733326873047 163.26530612244898 88.01888900942149 169.79591836734696 78.10635649650499 176.32653061224488 68.78379906636246 182.85714285714283 65.97374928389394 189.3877551020408 62.13347202270745 195.9183673469388 59.18910678711626 202.44897959183675 46.68380791234176 208.97959183673467 33.29406692736433 215.51020408163265 31.646506894106267 222.0408163265306 27.41463940181336 228.57142857142858 27.528934059646474 235.10204081632654 25.25115893968001 241.63265306122446 14.574410853491315 248.16326530612244 11.080053236704089 254.69387755102042 11.277069356807317 261.2244897959184 14.289966017536813 267.7551020408163 9.557670331343445 274.2857142857143 11.980937568790807 280.81632653061223 11.394701697176629 287.3469387755102 12.653484015313495 293.8775510204082 15.358229688839288 300.40816326530614 18.820172229149136 306.9387755102041 19.161718863755254 313.46938775510205 13.099207074350204 320 14.35079562397459 326.53061224489795 12.290424232366433 333.0612244897959 7.996688027174741 339.5918367346939 2.9103901975594795 346.12244897959187 5.60542329897612 352.65306122448976 0.9487787107079271 359.1836734693877 0.8577562434967376 365.71428571428567 3.965931905604009 372.2448979591837 11.928841869579514 378.7755102040816 14.282034643010263 385.3061224489796 18.807346927571416 391.8367346938776 22.050759900430023 398.36734693877554 22.282100949367816 404.8979591836735 27.759178762284932 411.42857142857144 31.352378762544504 417.95918367346934 37.399362048225726 424.48979591836735 43.435394316703594 431.0204081632653 47.57258440081574 437.55102040816325 40.23035597145582 444.0816326530612 44.29422667779062 450.61224489795916 52.229495361838644 457.14285714285717 59.633777914647396 463.6734693877551 58.16129526338955 470.2040816326531 60.9470489371069 476.7346938775511 67.31088522558542 483.2653061224489 71.35413387008097 489.7959183673469 78.72162950428844 496.3265306122449 76.56705037911956 502.85714285714283 77.16964629506677 509.38775510204084 77.16440227746361 515.9183673469388 76.54447306320048 522.4489795918367 80.42820685150463 528.9795918367347 87.26851213624946 535.5102040816327 90.43861044865702 542.0408163265306 86.05384397391356 548.5714285714286 88.51950963077914 555.1020408163265 95.56008108922893 561.6326530612245 95.63262022102731 568.1632653061224 96.51117909536009 574.6938775510204 100.2424045707391 581.2244897959183 100.10724492232455 587.7551020408164 101.140966272188 594.2857142857143 101.75174356071466 600.8163265306123 103.91245567001735 607.3469387755102 99.42519513514785 613.8775510204082 84.17676044199735 620.4081632653061 84.1345415920083 626.9387755102041 81.5408079532283 633.469387755102 78.21150239633087 640 75.98403137326261 640 320 0 320"
      />
      
      <polygon
        fill="#89e051"
        fillRule="evenodd"
        points="0 313.61355116608325 6.530612244897958 304.90984250656544 13.061224489795917 298.3344801282049 19.591836734693878 288.0768237625701 26.122448979591834 281.2713554650852 32.6530612244898 277.35295875670465 39.183673469387756 269.9999412066024 45.71428571428571 260.0717460326334 52.24489795918367 250.17318250423205 58.775510204081634 235.18157695503334 65.3061224489796 226.7874384807358 71.83673469387755 213.32786598226747 78.36734693877551 205.81365356170122 84.89795918367348 200.42208349866428 91.42857142857142 190.45091859606157 97.9591836734694 178.68457577840894 104.48979591836734 164.78082174470964 111.0204081632653 162.39414177579022 117.55102040816327 158.35640650299044 124.08163265306122 150.82946768954434 130.6122448979592 146.4702475321641 137.14285714285714 132.58701943709954 143.6734693877551 135.70630839356573 150.20408163265307 119.05181882675461 156.73469387755102 102.43449844165264 163.26530612244898 97.17059249410181 169.79591836734696 87.08405013311142 176.32653061224488 77.51851289308655 182.85714285714283 74.59627376747096 189.3877551020408 71.29272775057248 195.9183673469388 68.12744244781115 202.44897959183675 55.43667178309522 208.97959183673467 42.602930537687826 215.51020408163265 40.81639638587876 222.0408163265306 36.30462221083616 228.57142857142858 36.657314367843185 235.10204081632654 34.26576198138042 241.63265306122446 23.330686694138592 248.16326530612244 19.76847951907598 254.69387755102042 20.33190890066726 261.2244897959184 23.771778565581997 267.7551020408163 19.35792963525057 274.2857142857143 21.65726302076149 280.81632653061223 22.197736034724358 287.3469387755102 24.03340174023873 293.8775510204082 26.401820439595667 300.40816326530614 29.52666372465137 306.9387755102041 29.794859068885728 313.46938775510205 23.469596005195456 320 24.701291843519527 326.53061224489795 22.404374947719248 333.0612244897959 17.801919481390883 339.5918367346939 12.431481602778149 346.12244897959187 14.835883836122662 352.65306122448976 10.202344488177573 359.1836734693877 9.85581422128405 365.71428571428567 12.717482199801339 372.2448979591837 20.455623432379014 378.7755102040816 22.802156874098102 385.3061224489796 27.111495553896134 391.8367346938776 30.80872744355065 398.36734693877554 30.77273552400436 404.8979591836735 35.99887644251902 411.42857142857144 39.340564139371565 417.95918367346934 45.23231337830072 424.48979591836735 51.029248820160944 431.0204081632653 55.06942864516304 437.55102040816325 47.53774515702764 444.0816326530612 51.37856575535932 450.61224489795916 59.104458515391 457.14285714285717 66.29888734920641 463.6734693877551 64.91784376487522 470.2040816326531 67.49735708264467 476.7346938775511 73.66124768143024 483.2653061224489 78.6328091188094 489.7959183673469 85.77812803368141 496.3265306122449 83.41499602487588 502.85714285714283 83.84700423505222 509.38775510204084 83.63793627106537 515.9183673469388 82.83926333939826 522.4489795918367 87.04904020718885 528.9795918367347 93.69366779578041 535.5102040816327 96.66764370307547 542.0408163265306 92.09878200168242 548.5714285714286 94.37992950628 555.1020408163265 101.24161545010679 561.6326530612245 101.14624129498617 568.1632653061224 101.85649930333472 574.6938775510204 105.42974654476797 581.2244897959183 105.13624512721879 587.7551020408164 106.01645762982773 594.2857142857143 106.49261602945825 600.8163265306123 108.50861575391204 607.3469387755102 104.5519270181916 613.8775510204082 89.14700337290105 620.4081632653061 88.95789082417781 626.9387755102041 86.21692800266362 633.469387755102 82.74488720735752 640 80.40068182926751 640 320 0 320"
      />
      
      <polygon
        fill="#0141ae"
        fillRule="evenodd"
        points="0 313.69578929198224 6.530612244897958 304.98957036649887 13.061224489795917 298.41185166771436 19.591836734693878 288.15459616179004 26.122448979591834 281.34682934371574 32.6530612244898 277.42612883434055 39.183673469387756 270.0708778136368 45.71428571428571 260.1686767578889 52.24489795918367 250.6255377243727 58.775510204081634 236.59142303391417 65.3061224489796 228.1652766117254 71.83673469387755 215.56290292928065 78.36734693877551 209.34786570771058 84.89795918367348 203.8484156012127 91.42857142857142 193.8095963683898 97.9591836734694 182.1668349646583 104.48979591836734 169.20013182333489 111.0204081632653 166.6896593886916 117.55102040816327 162.5208055632723 124.08163265306122 154.87483404683772 130.6122448979592 151.50320542074198 137.14285714285714 138.33056614015635 143.6734693877551 141.27453619306328 150.20408163265307 124.45548047296228 156.73469387755102 107.98213009234178 163.26530612244898 102.61891738724304 169.79591836734696 92.52514100479775 176.32653061224488 83.0158712645509 182.85714285714283 79.93116016616733 189.3877551020408 76.46477021567992 195.9183673469388 73.61543973678431 202.44897959183675 61.01118212415804 208.97959183673467 50.2111168354229 215.51020408163265 49.306834704944094 222.0408163265306 44.535894259217855 228.57142857142858 46.72647103346549 235.10204081632654 45.535863514295954 241.63265306122446 38.06181584855153 248.16326530612244 34.37974173019546 254.69387755102042 35.18789769900428 261.2244897959184 40.45924695967767 267.7551020408163 36.76700407673343 274.2857142857143 38.53493286131277 280.81632653061223 38.6901191984382 287.3469387755102 40.02236470344792 293.8775510204082 41.960319926497334 300.40816326530614 45.10757230973218 306.9387755102041 44.918053423712934 313.46938775510205 38.14233964093546 320 38.92615766043559 326.53061224489795 36.36877879617532 333.0612244897959 33.69985171256337 339.5918367346939 28.41733530233057 346.12244897959187 30.372776714903296 352.65306122448976 26.293916234607877 359.1836734693877 25.536685735681203 365.71428571428567 28.084023187751313 372.2448979591837 35.3680177259036 378.7755102040816 37.58859721907385 385.3061224489796 41.46092509010538 391.8367346938776 45.3744141789611 398.36734693877554 45.021857913010706 404.8979591836735 49.82687239383279 411.42857142857144 53.20075011442583 417.95918367346934 58.8578588639744 424.48979591836735 64.62546796940782 431.0204081632653 68.63058689074305 437.55102040816325 63.21840500311242 444.0816326530612 66.93862809421796 450.61224489795916 74.20465500532544 457.14285714285717 80.93816273120297 463.6734693877551 80.26638369862735 470.2040816326531 82.74330159088461 476.7346938775511 88.4418157720113 483.2653061224489 93.40768682534187 489.7959183673469 100.1020053000241 496.3265306122449 98.34489713736406 502.85714285714283 99.94036796952531 509.38775510204084 99.86322690505784 515.9183673469388 98.67430850395328 522.4489795918367 102.40073050524089 528.9795918367347 108.59164706622482 535.5102040816327 111.1108669620593 542.0408163265306 106.115148365798 548.5714285714286 107.9684515325749 555.1020408163265 114.41535595050044 561.6326530612245 113.93064054009238 568.1632653061224 114.39435942285905 574.6938775510204 117.59705559555184 581.2244897959183 116.9321621901027 587.7551020408164 117.4523057265053 594.2857142857143 117.64294412304355 600.8163265306123 119.31859044881915 607.3469387755102 115.0507061382103 613.8775510204082 99.80070561330615 620.4081632653061 99.38374466199136 626.9387755102041 97.92046150584056 633.469387755102 95.72567868329881 640 94.5660606302734 640 320 0 320"
      />
      
      <polygon
        fill="#26c0b0"
        fillRule="evenodd"
        points="0 313.69578929198224 6.530612244897958 305.0750714796527 13.061224489795917 298.5224247383434 19.591836734693878 288.39203627285684 26.122448979591834 281.72967848525826 32.6530612244898 277.8556573737673 39.183673469387756 270.545406419768 45.71428571428571 260.80008281998977 52.24489795918367 251.72753638951036 58.775510204081634 237.79090738985192 65.3061224489796 230.2054336260695 71.83673469387755 218.21679529794733 78.36734693877551 212.42850173897358 84.89795918367348 207.47609502813822 91.42857142857142 198.30987060402026 97.9591836734694 186.5297387260831 104.48979591836734 173.80644016978934 111.0204081632653 171.1553629485768 117.55102040816327 166.87829575348033 124.08163265306122 159.35254002204826 130.6122448979592 156.04885086188483 137.14285714285714 143.123697151942 143.6734693877551 145.92418414023766 150.20408163265307 128.96770924166879 156.73469387755102 112.62431056640787 163.26530612244898 107.34720833259883 169.79591836734696 97.39187463738818 176.32653061224488 88.07449712130588 182.85714285714283 84.90344816232422 189.3877551020408 81.47887256768823 195.9183673469388 78.54013421565199 202.44897959183675 65.83888648323074 208.97959183673467 55.25790848123472 215.51020408163265 54.274646327300445 222.0408163265306 49.44586176112358 228.57142857142858 52.031437910702266 235.10204081632654 50.75686691509128 241.63265306122446 43.2876352172118 248.16326530612244 39.62416386646976 254.69387755102042 40.272237351153535 261.2244897959184 46.015504196848326 267.7551020408163 42.22617851215881 274.2857142857143 45.29492621320679 280.81632653061223 46.22631669212302 287.3469387755102 47.34228444761004 293.8775510204082 49.122423475999426 300.40816326530614 52.196476641242384 306.9387755102041 51.848087740071946 313.46938775510205 44.899264829815934 320 45.540611579788276 326.53061224489795 42.90216601241798 333.0612244897959 40.5298990557298 339.5918367346939 35.11174333038224 346.12244897959187 37.186651982493515 352.65306122448976 32.9135493487596 359.1836734693877 31.973542748326224 365.71428571428567 34.330031727065375 372.2448979591837 41.451373552371194 378.7755102040816 43.6505348838694 385.3061224489796 47.722477070658215 391.8367346938776 51.45041062701205 398.36734693877554 51.04922716259637 404.8979591836735 55.67610529076899 411.42857142857144 59.077756770992664 417.95918367346934 64.64954438710384 424.48979591836735 70.24036883729056 431.0204081632653 74.11906813978965 437.55102040816325 68.67689490732556 444.0816326530612 72.31787688313972 450.61224489795916 79.43582054014766 457.14285714285717 86.08174793298366 463.6734693877551 85.88898867657139 470.2040816326531 88.9522167997265 476.7346938775511 94.4723698076856 483.2653061224489 100.00824872729885 489.7959183673469 106.58858895333958 496.3265306122449 104.63977506068343 502.85714285714283 106.09857053326681 509.38775510204084 105.83345906800727 515.9183673469388 104.496281604802 522.4489795918367 108.04499007630693 528.9795918367347 114.08019130200714 535.5102040816327 116.43187583133667 542.0408163265306 111.27889795413051 548.5714285714286 112.97457820202197 555.1020408163265 119.26867381939809 561.6326530612245 118.64052178810545 568.1632653061224 118.96047298430673 574.6938775510204 122.02822105195145 581.2244897959183 121.47123913195537 587.7551020408164 121.85283116717045 594.2857142857143 121.92196085522326 600.8163265306123 123.46981870524158 607.3469387755102 119.66082245925563 613.8775510204082 104.27009949719107 620.4081632653061 103.72104929881641 626.9387755102041 102.12537377836225 633.469387755102 99.80223734621944 640 98.53764835325757 640 320 0 320"
      />
      
      <polygon
        fill="#dea584"
        fillRule="evenodd"
        points="0 313.69578929198224 6.530612244897958 305.0750714796527 13.061224489795917 298.5224247383434 19.591836734693878 288.39203627285684 26.122448979591834 281.72967848525826 32.6530612244898 277.8556573737673 39.183673469387756 270.545406419768 45.71428571428571 260.80008281998977 52.24489795918367 251.72753638951036 58.775510204081634 237.79090738985192 65.3061224489796 230.2054336260695 71.83673469387755 218.6051897793687 78.36734693877551 212.80504070904345 84.89795918367348 207.84114037801984 91.42857142857142 198.6641272200194 97.9591836734694 187.99618059612945 104.48979591836734 176.3318934395172 111.0204081632653 173.60372795470315 117.55102040816327 169.25192591883385 124.08163265306122 162.75988198342066 130.6122448979592 159.35218589890655 137.14285714285714 148.55739473718103 143.6734693877551 151.19202172393943 150.20408163265307 136.32710512609162 156.73469387755102 123.07440751585102 163.26530612244898 117.47832267654462 169.79591836734696 107.22357028199144 176.32653061224488 98.7222681278933 182.85714285714283 95.23652901183664 189.3877551020408 91.49654194383774 195.9183673469388 88.25201994410418 202.44897959183675 76.38143470569054 208.97959183673467 66.58275915341761 215.51020408163265 65.26479596675881 222.0408163265306 60.10054178582993 228.57142857142858 62.371225357665935 235.10204081632654 60.78103995426642 241.63265306122446 53.0058247568121 248.16326530612244 49.055138001446494 254.69387755102042 49.415338471215705 261.2244897959184 54.88838297321075 267.7551020408163 51.93117782784577 274.2857142857143 54.70368545054339 280.81632653061223 55.37528492899958 287.3469387755102 56.211986658012506 293.8775510204082 57.72998629794199 300.40816326530614 60.541298464060446 306.9387755102041 61.06431245294266 313.46938775510205 54.089989265133624 320 54.450793299903125 326.53061224489795 51.54901282911436 333.0612244897959 48.91280678955292 339.5918367346939 43.24689535958515 346.12244897959187 45.07348625578078 352.65306122448976 41.66890905607028 359.1836734693877 40.48715155498576 365.71428571428567 42.5837668182204 372.2448979591837 49.461173757447966 378.7755102040816 51.4777126010934 385.3061224489796 55.31832649658395 391.8367346938776 58.814400535826564 398.36734693877554 58.18843559881367 404.8979591836735 62.60431946514467 411.42857142857144 65.79449015466304 417.95918367346934 71.1677673155412 424.48979591836735 76.55962797040058 431.0204081632653 80.2454348645833 437.55102040816325 74.62814884828546 444.0816326530612 78.08747276283913 450.61224489795916 85.03489807141159 457.14285714285717 91.50991645419856 463.6734693877551 91.15673172879394 470.2040816326531 94.05916427166471 476.7346938775511 99.4234318904289 483.2653061224489 104.81298430018393 489.7959183673469 111.24666212135986 496.3265306122449 109.16018182986721 502.85714285714283 110.48099422315832 509.38775510204084 110.0821112615134 515.9183673469388 108.6276222875045 522.4489795918367 112.05022381331631 528.9795918367347 117.96705282336399 535.5102040816327 120.20009305078307 542.0408163265306 116.05411370931097 548.5714285714286 117.60403237568468 555.1020408163265 123.75681576167071 561.6326530612245 123.3541965227327 568.1632653061224 123.53026515607093 574.6938775510204 126.46295579095667 581.2244897959183 125.77060551183595 587.7551020408164 126.0209624741081 594.2857142857143 125.99996081494865 600.8163265306123 127.42333992125356 607.3469387755102 123.49749927327377 613.8775510204082 107.98966393302183 620.4081632653061 107.33068513237839 626.9387755102041 105.62482598016453 633.469387755102 103.19487246994504 640 101.84292354614075 640 320 0 320"
      />
      
      <polygon
        fill="#701516"
        fillRule="evenodd"
        points="0 313.69578929198224 6.530612244897958 305.0750714796527 13.061224489795917 298.5224247383434 19.591836734693878 288.39203627285684 26.122448979591834 281.72967848525826 32.6530612244898 277.8556573737673 39.183673469387756 270.545406419768 45.71428571428571 260.80008281998977 52.24489795918367 251.72753638951036 58.775510204081634 237.79090738985192 65.3061224489796 230.2054336260695 71.83673469387755 218.6051897793687 78.36734693877551 212.80504070904345 84.89795918367348 207.84114037801984 91.42857142857142 198.6641272200194 97.9591836734694 187.99618059612945 104.48979591836734 176.3318934395172 111.0204081632653 173.60372795470315 117.55102040816327 169.25192591883385 124.08163265306122 162.75988198342066 130.6122448979592 159.35218589890655 137.14285714285714 148.55739473718103 143.6734693877551 151.19202172393943 150.20408163265307 136.32710512609162 156.73469387755102 123.07440751585102 163.26530612244898 117.47832267654462 169.79591836734696 107.22357028199144 176.32653061224488 98.7222681278933 182.85714285714283 95.23652901183664 189.3877551020408 91.49654194383774 195.9183673469388 88.25201994410418 202.44897959183675 76.38143470569054 208.97959183673467 66.58275915341761 215.51020408163265 65.26479596675881 222.0408163265306 60.10054178582993 228.57142857142858 62.371225357665935 235.10204081632654 60.78103995426642 241.63265306122446 53.0058247568121 248.16326530612244 49.055138001446494 254.69387755102042 49.415338471215705 261.2244897959184 54.88838297321075 267.7551020408163 51.93117782784577 274.2857142857143 54.70368545054339 280.81632653061223 55.37528492899958 287.3469387755102 56.211986658012506 293.8775510204082 57.72998629794199 300.40816326530614 60.541298464060446 306.9387755102041 61.06431245294266 313.46938775510205 54.089989265133624 320 54.450793299903125 326.53061224489795 51.54901282911436 333.0612244897959 48.91280678955292 339.5918367346939 43.24689535958515 346.12244897959187 45.07348625578078 352.65306122448976 41.66890905607028 359.1836734693877 40.48715155498576 365.71428571428567 42.5837668182204 372.2448979591837 49.461173757447966 378.7755102040816 51.4777126010934 385.3061224489796 55.31832649658395 391.8367346938776 58.814400535826564 398.36734693877554 58.18843559881367 404.8979591836735 62.60431946514467 411.42857142857144 65.79449015466304 417.95918367346934 71.1677673155412 424.48979591836735 76.55962797040058 431.0204081632653 80.2454348645833 437.55102040816325 74.62814884828546 444.0816326530612 78.08747276283913 450.61224489795916 85.03489807141159 457.14285714285717 91.50991645419856 463.6734693877551 91.15673172879394 470.2040816326531 94.05916427166471 476.7346938775511 99.4234318904289 483.2653061224489 104.81298430018393 489.7959183673469 111.24666212135986 496.3265306122449 109.16018182986721 502.85714285714283 110.48099422315832 509.38775510204084 110.0821112615134 515.9183673469388 108.6276222875045 522.4489795918367 112.05022381331631 528.9795918367347 117.96705282336399 535.5102040816327 120.20009305078307 542.0408163265306 116.05411370931097 548.5714285714286 117.60403237568468 555.1020408163265 123.75681576167071 561.6326530612245 123.3541965227327 568.1632653061224 123.53026515607093 574.6938775510204 126.46295579095667 581.2244897959183 125.77060551183595 587.7551020408164 126.0209624741081 594.2857142857143 125.99996081494865 600.8163265306123 127.42333992125356 607.3469387755102 123.49749927327377 613.8775510204082 108.0092201656866 620.4081632653061 107.34966339033099 626.9387755102041 105.64322493893667 633.469387755102 103.21270981000595 640 101.86030158034896 640 320 0 320"
      />
      
      <polygon
        fill="#3572A5"
        fillRule="evenodd"
        points="0 313.69578929198224 6.530612244897958 305.0750714796527 13.061224489795917 298.5224247383434 19.591836734693878 288.39203627285684 26.122448979591834 281.72967848525826 32.6530612244898 277.8556573737673 39.183673469387756 270.545406419768 45.71428571428571 260.80008281998977 52.24489795918367 251.72753638951036 58.775510204081634 237.79090738985192 65.3061224489796 230.2054336260695 71.83673469387755 218.6051897793687 78.36734693877551 212.80504070904345 84.89795918367348 207.84114037801984 91.42857142857142 198.6641272200194 97.9591836734694 187.99618059612945 104.48979591836734 176.3318934395172 111.0204081632653 173.60372795470315 117.55102040816327 169.25192591883385 124.08163265306122 163.42150986221165 130.6122448979592 159.99361794915376 137.14285714285714 149.21628877586528 143.6734693877551 151.83080339921102 150.20408163265307 137.94825053633812 156.73469387755102 125.43997661205714 163.26530612244898 119.77168441603041 169.79591836734696 109.44915284805336 176.32653061224488 100.87991605734851 182.85714285714283 97.33040847138136 189.3877551020408 93.52650723169191 195.9183673469388 90.2200216967932 202.44897959183675 78.29509678426999 208.97959183673467 68.47387845397589 215.51020408163265 67.10002424943048 222.0408163265306 61.879751022111634 228.57142857142858 64.09785073931474 235.10204081632654 62.454961159149434 241.63265306122446 54.62865056685513 248.16326530612244 50.630002032437346 254.69387755102042 50.94213036792746 261.2244897959184 56.3700516040401 267.7551020408163 53.40345300942744 274.2857142857143 56.131020161353206 280.81632653061223 56.76320864406807 287.3469387755102 57.55754485760457 293.8775510204082 59.03577726196801 300.40816326530614 61.807230640837815 306.9387755102041 62.292830919734115 313.46938775510205 55.28100791609188 320 55.6054566851891 326.53061224489795 52.669550864124005 333.0612244897959 49.99914097205766 339.5918367346939 44.30112346641306 346.12244897959187 46.095534716780605 352.65306122448976 42.65976007386246 359.1836734693877 41.4506435700128 365.71428571428567 43.51784870288441 372.2448979591837 50.36764947035397 378.7755102040816 52.37885016246287 385.3061224489796 56.1928312521776 391.8367346938776 59.66221165669248 398.36734693877554 59.010367699699714 404.8979591836735 63.40195985289063 411.42857142857144 66.5677830351456 417.95918367346934 71.918205916228 424.48979591836735 77.28715990852183 431.0204081632653 80.9507593031802 437.55102040816325 75.31331256856302 444.0816326530612 78.75172228725617 450.61224489795916 85.67951603801507 457.14285714285717 92.13485779613325 463.6734693877551 91.76320326369523 470.2040816326531 94.64712366587023 476.7346938775511 99.99344409282944 483.2653061224489 105.36615019150716 489.7959183673469 111.78294293342407 496.3265306122449 109.68061314475324 502.85714285714283 110.98553965652172 509.38775510204084 110.57125572901768 515.9183673469388 109.1032607137532 522.4489795918367 112.5113435709379 528.9795918367347 118.41454450164522 535.5102040816327 120.63392530020843 542.0408163265306 116.47512424318975 548.5714285714286 118.01219180705701 555.1020408163265 124.15251635507514 561.6326530612245 123.7382023288508 568.1632653061224 123.90254948003496 574.6938775510204 126.82423745219046 581.2244897959183 126.12085925399424 587.7551020408164 126.36052494228403 594.2857142857143 126.33014740440177 600.8163265306123 127.74344772878422 607.3469387755102 123.80814651420633 613.8775510204082 108.32980132932474 620.4081632653061 107.6607699617766 626.9387755102041 105.94483510402338 633.469387755102 103.50511355432164 640 102.1451759950885 640 320 0 320"
      />
      
      <polygon
        fill="#0298c3"
        fillRule="evenodd"
        points="0 313.69578929198224 6.530612244897958 305.0750714796527 13.061224489795917 298.5224247383434 19.591836734693878 288.39203627285684 26.122448979591834 281.72967848525826 32.6530612244898 277.8556573737673 39.183673469387756 270.545406419768 45.71428571428571 260.80008281998977 52.24489795918367 251.72753638951036 58.775510204081634 237.79090738985192 65.3061224489796 230.2054336260695 71.83673469387755 218.6051897793687 78.36734693877551 212.80504070904345 84.89795918367348 207.84114037801984 91.42857142857142 198.6641272200194 97.9591836734694 187.99618059612945 104.48979591836734 176.3318934395172 111.0204081632653 173.60372795470315 117.55102040816327 169.25192591883385 124.08163265306122 163.42150986221165 130.6122448979592 159.99361794915376 137.14285714285714 149.21628877586528 143.6734693877551 151.83080339921102 150.20408163265307 137.94825053633812 156.73469387755102 126.0780879666639 163.26530612244898 120.39031778537688 169.79591836734696 110.04950285315911 176.32653061224488 101.46194072418169 182.85714285714283 97.89523172785525 189.3877551020408 94.07408955953815 195.9183673469388 90.75088942057317 202.44897959183675 78.81130637466538 208.97959183673467 68.97433098253956 215.51020408163265 67.69016039534995 222.0408163265306 62.45187361923769 228.57142857142858 64.65306453183553 235.10204081632654 62.99322737888326 241.63265306122446 55.15048652704735 248.16326530612244 51.13641545920791 254.69387755102042 51.433085770871 261.2244897959184 56.84649710306866 267.7551020408163 53.8653552924697 274.2857142857143 56.57882311535553 280.81632653061223 57.198647024427714 287.3469387755102 57.97969175234124 293.8775510204082 59.44544779958761 300.40816326530614 62.20439622556785 306.9387755102041 62.67825848957642 313.46938775510205 55.65467053984992 320 55.967713490007895 326.53061224489795 53.02110135212496 333.0612244897959 50.339960575331475 339.5918367346939 44.631870309008605 346.12244897959187 46.41618572068671 352.65306122448976 42.97062338087619 359.1836734693877 41.75292342897944 365.71428571428567 43.81090165240954 372.2448979591837 50.652041384092854 378.7755102040816 52.65456118880485 385.3061224489796 56.460393767753885 391.8367346938776 59.92160700181097 398.36734693877554 59.261845129211 404.8979591836735 63.64600501199459 411.42857142857144 66.80437885680016 417.95918367346934 72.14780927518277 424.48979591836735 77.50975476525082 431.0204081632653 81.1665595659808 437.55102040816325 75.52294450848575 444.0816326530612 78.95495532969275 450.61224489795916 85.87674264273215 457.14285714285717 92.32606416358988 463.6734693877551 91.94875863179453 470.2040816326531 94.82701505708411 476.7346938775511 100.16784441756386 483.2653061224489 105.53539619760684 489.7959183673469 111.94702279417896 496.3265306122449 109.83984371529675 502.85714285714283 111.13990981912988 509.38775510204084 110.72091381591173 515.9183673469388 109.24878650088104 522.4489795918367 112.65242726220151 528.9795918367347 118.55145854293315 535.5102040816327 120.76666012534591 542.0408163265306 116.60393615578778 548.5714285714286 118.13707180607466 555.1020408163265 124.27358447494083 561.6326530612245 123.85569232947262 568.1632653061224 124.01645318238491 574.6938775510204 126.93477478581028 581.2244897959183 126.22802249196292 587.7551020408164 126.46441708281341 594.2857142857143 126.43117091834762 600.8163265306123 127.84138756114115 607.3469387755102 126.40239753404768 613.8775510204082 115.17767402143943 620.4081632653061 114.4068945181383 626.9387755102041 112.69055985387854 633.469387755102 110.0449294249162 640 108.95804378316268 640 320 0 320"
      />
      
      <polygon
        fill="#fd2fdb"
        fillRule="evenodd"
        points="0 313.69578929198224 6.530612244897958 305.0750714796527 13.061224489795917 298.5224247383434 19.591836734693878 288.39203627285684 26.122448979591834 281.72967848525826 32.6530612244898 277.8556573737673 39.183673469387756 270.545406419768 45.71428571428571 260.80008281998977 52.24489795918367 251.72753638951036 58.775510204081634 237.79090738985192 65.3061224489796 230.2054336260695 71.83673469387755 218.6051897793687 78.36734693877551 212.80504070904345 84.89795918367348 207.84114037801984 91.42857142857142 198.6641272200194 97.9591836734694 187.99618059612945 104.48979591836734 176.3318934395172 111.0204081632653 173.60372795470315 117.55102040816327 169.25192591883385 124.08163265306122 163.42150986221165 130.6122448979592 159.99361794915376 137.14285714285714 149.21628877586528 143.6734693877551 151.83080339921102 150.20408163265307 137.94825053633812 156.73469387755102 126.0780879666639 163.26530612244898 120.39031778537688 169.79591836734696 110.04950285315911 176.32653061224488 101.46194072418169 182.85714285714283 97.89523172785525 189.3877551020408 94.07408955953815 195.9183673469388 90.75088942057317 202.44897959183675 78.81130637466538 208.97959183673467 68.97433098253956 215.51020408163265 67.69016039534995 222.0408163265306 62.45187361923769 228.57142857142858 64.65306453183553 235.10204081632654 62.99322737888326 241.63265306122446 55.15048652704735 248.16326530612244 51.13641545920791 254.69387755102042 51.433085770871 261.2244897959184 56.84649710306866 267.7551020408163 53.8653552924697 274.2857142857143 56.57882311535553 280.81632653061223 58.32825052555245 287.3469387755102 59.07481479363247 293.8775510204082 60.50820500913716 300.40816326530614 63.23471341671467 306.9387755102041 64.55888602894947 313.46938775510205 57.47789301639324 320 57.735283024140244 326.53061224489795 54.736431249511156 333.0612244897959 52.00293123309973 339.5918367346939 46.245692714907705 346.12244897959187 47.980747053450955 352.65306122448976 44.48742741028815 359.1836734693877 43.227846005740105 365.71428571428567 45.240803098386095 372.2448979591837 52.03968273774274 378.7755102040816 53.99984565811337 385.3061224489796 57.7659191188734 391.8367346938776 61.187281888561984 398.36734693877554 60.4888859251285 404.8979591836735 64.83678127190962 411.42857142857144 67.95880745466195 417.95918367346934 73.26811935575012 424.48979591836735 78.59586803179843 431.0204081632653 82.21951982071815 437.55102040816325 76.54580748148177 444.0816326530612 79.94659589084046 450.61224489795916 86.83907587650052 457.14285714285717 93.25902266492403 463.6734693877551 92.85414404738856 470.2040816326531 95.70476419469898 476.7346938775511 101.01880066239772 483.2653061224489 106.36120285612566 489.7959183673469 112.74762222273074 496.3265306122449 110.6167819145748 502.85714285714283 111.89313240270815 509.38775510204084 111.45114473051916 515.9183673469388 109.95885452911017 522.4489795918367 113.34082087652354 528.9795918367347 119.21950706145051 535.5102040816327 121.41431683717764 542.0408163265306 117.23245171240521 548.5714285714286 118.74640230171576 555.1020408163265 124.86431549101937 561.6326530612245 124.42896457323943 568.1632653061224 124.5722266629142 574.6938775510204 127.4741226408955 581.2244897959183 126.750907073415 587.7551020408164 126.97134090764621 594.2857142857143 126.9240977650172 600.8163265306123 128.31926809940157 607.3469387755102 126.86615458636521 613.8775510204082 115.6272751183059 620.4081632653061 114.84320791064101 626.9387755102041 114.22083852365466 633.469387755102 111.528497316467 640 111.52752478112885 640 320 0 320"
      />
      
      <polygon
        fill="#4F5D95"
        fillRule="evenodd"
        points="0 313.69578929198224 6.530612244897958 305.0750714796527 13.061224489795917 298.5224247383434 19.591836734693878 288.39203627285684 26.122448979591834 281.72967848525826 32.6530612244898 277.8556573737673 39.183673469387756 270.545406419768 45.71428571428571 260.80008281998977 52.24489795918367 251.72753638951036 58.775510204081634 237.79090738985192 65.3061224489796 230.2054336260695 71.83673469387755 218.6051897793687 78.36734693877551 212.80504070904345 84.89795918367348 207.84114037801984 91.42857142857142 198.6641272200194 97.9591836734694 187.99618059612945 104.48979591836734 176.3318934395172 111.0204081632653 173.60372795470315 117.55102040816327 169.25192591883385 124.08163265306122 163.42150986221165 130.6122448979592 159.99361794915376 137.14285714285714 149.21628877586528 143.6734693877551 151.83080339921102 150.20408163265307 137.94825053633812 156.73469387755102 126.0780879666639 163.26530612244898 120.39031778537688 169.79591836734696 110.04950285315911 176.32653061224488 101.46194072418169 182.85714285714283 97.89523172785525 189.3877551020408 94.07408955953815 195.9183673469388 90.75088942057317 202.44897959183675 78.81130637466538 208.97959183673467 68.97433098253956 215.51020408163265 67.69016039534995 222.0408163265306 62.45187361923769 228.57142857142858 64.67269160351384 235.10204081632654 63.01225534498121 241.63265306122446 55.16893367529616 248.16326530612244 51.15431741153492 254.69387755102042 51.45044127781671 261.2244897959184 56.86333967707003 267.7551020408163 53.881683755993265 274.2857142857143 56.594653161654435 280.81632653061223 58.343643478841216 287.3469387755102 59.08973788539589 293.8775510204082 60.52268705709122 300.40816326530614 63.24875340875599 306.9387755102041 64.57251107711738 313.46938775510205 57.49110216715275 320 57.748088973480094 326.53061224489795 54.74885872563328 333.0612244897959 52.014979367753085 339.5918367346939 46.25738477311131 346.12244897959187 47.992082218329585 352.65306122448976 44.498416576080956 359.1836734693877 43.23853174243828 365.71428571428567 45.251162659352474 372.2448979591837 52.04973612666032 378.7755102040816 54.00959217370246 385.3061224489796 57.77537758111856 391.8367346938776 61.19645163728404 398.36734693877554 60.497775772305374 404.8979591836735 64.84540838425255 411.42857142857144 67.9671712295326 417.95918367346934 73.27623594364633 424.48979591836735 78.60373686501754 431.0204081632653 82.22714846280599 437.55102040816325 76.55321807027235 444.0816326530612 79.95378027504859 450.61224489795916 86.84604792964842 457.14285714285717 93.26578190058555 463.6734693877551 92.86070351727847 470.2040816326531 95.71112344064787 476.7346938775511 101.02496579627669 483.2653061224489 106.36718578273602 489.7959183673469 112.75342252397624 496.3265306122449 110.62241079109992 502.85714285714283 111.8985894609742 509.38775510204084 111.45643521496825 515.9183673469388 109.96399893488632 522.4489795918367 113.34580825194931 528.9795918367347 119.2243470377424 535.5102040816327 121.41900907618006 542.0408163265306 117.23700527465223 548.5714285714286 118.75081686898568 555.1020408163265 124.86859530613151 561.6326530612245 124.43311790071121 568.1632653061224 124.57625321278056 574.6938775510204 127.4780301879596 581.2244897959183 126.75469534476855 587.7551020408164 126.97501354439515 594.2857142857143 126.92766899425197 600.8163265306123 128.32273031894172 607.3469387755102 126.86951448174409 613.8775510204082 115.6305324549416 620.4081632653061 114.84636897837044 626.9387755102041 114.22390310145917 633.469387755102 111.53146834982411 640 111.53041931139273 640 320 0 320"
      />
      
      <polygon
        fill="#755462"
        fillRule="evenodd"
        points="0 318.0212237548014 6.530612244897958 313.52736326426435 13.061224489795917 310.89612066886815 19.591836734693878 304.6063520076035 26.122448979591834 301.51236336378594 32.6530612244898 299.6347402338555 39.183673469387756 295.6873274647906 45.71428571428571 289.6072492798067 52.24489795918367 284.85403314737255 58.775510204081634 274.44711710906597 65.3061224489796 270.1967437336501 71.83673469387755 262.9523768769124 78.36734693877551 259.7806221582363 84.89795918367348 257.2939952789763 91.42857142857142 251.48863228380858 97.9591836734694 243.11576407051857 104.48979591836734 233.69076428393421 111.0204081632653 232.4422753845261 117.55102040816327 230.48709603581943 124.08163265306122 226.7432774322861 130.6122448979592 225.0261175904132 137.14285714285714 216.76222632482455 143.6734693877551 218.7515446794963 150.20408163265307 208.35864603609735 156.73469387755102 198.35256820241847 163.26530612244898 194.34755493953423 169.79591836734696 186.1187068324097 176.32653061224488 178.69896810365887 182.85714285714283 176.4749246436574 189.3877551020408 173.87227269345016 195.9183673469388 171.38695026640346 202.44897959183675 162.65604819552942 208.97959183673467 154.12864101928972 215.51020408163265 153.5479757562298 222.0408163265306 149.77113537523985 228.57142857142858 151.9918608830688 235.10204081632654 150.24040725020856 241.63265306122446 143.46420212979217 248.16326530612244 140.69795625173444 254.69387755102042 142.92936863577697 261.2244897959184 147.05374851355006 267.7551020408163 144.44712876890097 274.2857142857143 147.14068531327098 280.81632653061223 149.53429811813206 287.3469387755102 150.79095498946046 293.8775510204082 152.38216629779427 300.40816326530614 155.03548451102606 306.9387755102041 154.4905223183572 313.46938775510205 148.88687675885842 320 148.9630382029561 326.53061224489795 145.90478743149924 333.0612244897959 141.7890078633121 339.5918367346939 137.4587358547904 346.12244897959187 139.37109083016495 352.65306122448976 135.06400235869162 359.1836734693877 134.18773037819275 365.71428571428567 137.0971403387701 372.2448979591837 142.45247499588547 378.7755102040816 144.3991952773665 385.3061224489796 146.97590825203062 391.8367346938776 149.82614575019522 398.36734693877554 149.06454480050422 404.8979591836735 151.7194032397889 411.42857142857144 154.19236468949916 417.95918367346934 158.30287299744654 424.48979591836735 162.4215988652402 431.0204081632653 164.4854619702101 437.55102040816325 158.22329917244858 444.0816326530612 161.3478356227077 450.61224489795916 165.87465851054702 457.14285714285717 170.07076548402492 463.6734693877551 168.56360828932588 470.2040816326531 169.21386248988063 476.7346938775511 173.47277669197655 483.2653061224489 177.15376211183562 489.7959183673469 181.49363173705007 496.3265306122449 177.55144309863115 502.85714285714283 179.11018355280473 509.38775510204084 179.8434316656282 515.9183673469388 178.85212936277395 522.4489795918367 181.19124618777943 528.9795918367347 185.21851952818582 535.5102040816327 189.1942430033902 542.0408163265306 186.26909070528654 548.5714285714286 186.94222460638485 555.1020408163265 190.98331598302923 561.6326530612245 193.06121997192437 568.1632653061224 195.38483585375616 574.6938775510204 199.0288400965231 581.2244897959183 200.4562207373017 587.7551020408164 202.54861569299047 594.2857142857143 204.68146092555918 600.8163265306123 208.1473463040004 607.3469387755102 207.11136878365028 613.8775510204082 197.5379440835948 620.4081632653061 198.092526169505 626.9387755102041 198.37921371240307 633.469387755102 197.54832264949857 640 198.69860537821683 640 320 0 320"
      />
      
      <polygon
        fill="#2415b9"
        fillRule="evenodd"
        points="0 318.0212237548014 6.530612244897958 313.52736326426435 13.061224489795917 310.89612066886815 19.591836734693878 304.6063520076035 26.122448979591834 301.51236336378594 32.6530612244898 299.6347402338555 39.183673469387756 295.6873274647906 45.71428571428571 289.6072492798067 52.24489795918367 284.85403314737255 58.775510204081634 274.44711710906597 65.3061224489796 270.1967437336501 71.83673469387755 262.9523768769124 78.36734693877551 259.7806221582363 84.89795918367348 257.2939952789763 91.42857142857142 251.48863228380858 97.9591836734694 243.11576407051857 104.48979591836734 233.69076428393421 111.0204081632653 232.4422753845261 117.55102040816327 230.48709603581943 124.08163265306122 226.7432774322861 130.6122448979592 225.0261175904132 137.14285714285714 216.76222632482455 143.6734693877551 218.7515446794963 150.20408163265307 208.35864603609735 156.73469387755102 198.35256820241847 163.26530612244898 194.34755493953423 169.79591836734696 186.1187068324097 176.32653061224488 178.69896810365887 182.85714285714283 176.4749246436574 189.3877551020408 173.87227269345016 195.9183673469388 171.38695026640346 202.44897959183675 162.65604819552942 208.97959183673467 154.12864101928972 215.51020408163265 153.5479757562298 222.0408163265306 149.77113537523985 228.57142857142858 151.9918608830688 235.10204081632654 150.24040725020856 241.63265306122446 143.46420212979217 248.16326530612244 140.69795625173444 254.69387755102042 142.92936863577697 261.2244897959184 147.05374851355006 267.7551020408163 144.44712876890097 274.2857142857143 147.14068531327098 280.81632653061223 149.53429811813206 287.3469387755102 150.79095498946046 293.8775510204082 152.38216629779427 300.40816326530614 155.03548451102606 306.9387755102041 154.4905223183572 313.46938775510205 148.88687675885842 320 148.9630382029561 326.53061224489795 145.90478743149924 333.0612244897959 142.1486384911589 339.5918367346939 137.8183664826372 346.12244897959187 139.7307214580118 352.65306122448976 135.42363298653842 359.1836734693877 134.54736100603955 365.71428571428567 137.45677096661694 372.2448979591837 142.8121056237323 378.7755102040816 144.7588259052133 385.3061224489796 147.33553887987742 391.8367346938776 150.18577637804208 398.36734693877554 149.42417542835105 404.8979591836735 152.07903386763573 411.42857142857144 154.55199531734596 417.95918367346934 158.66250362529337 424.48979591836735 162.78122949308704 431.0204081632653 164.84509259805694 437.55102040816325 158.58292980029543 444.0816326530612 161.70746625055452 450.61224489795916 166.23428913839385 457.14285714285717 170.43039611187172 463.6734693877551 168.9232389171727 470.2040816326531 169.57349311772745 476.7346938775511 173.83240731982337 483.2653061224489 177.51339273968244 489.7959183673469 181.8532623648969 496.3265306122449 177.91107372647798 502.85714285714283 179.46981418065155 509.38775510204084 180.20306229347503 515.9183673469388 179.21175999062078 522.4489795918367 181.55087681562628 528.9795918367347 185.57815015603265 535.5102040816327 189.553873631237 542.0408163265306 186.62872133313337 548.5714285714286 187.30185523423168 555.1020408163265 191.34294661087603 561.6326530612245 193.4208505997712 568.1632653061224 195.74446648160296 574.6938775510204 199.38847072436994 581.2244897959183 200.81585136514852 587.7551020408164 202.9082463208373 594.2857142857143 205.04109155340598 600.8163265306123 208.50697693184722 607.3469387755102 207.47099941149708 613.8775510204082 197.8975747114416 620.4081632653061 198.45215679735182 626.9387755102041 198.7388443402499 633.469387755102 197.90795327734543 640 198.69860537821683 640 320 0 320"
      />
      
      <polygon
        fill="#f1e05a"
        fillRule="evenodd"
        points="0 318.0212237548014 6.530612244897958 313.52736326426435 13.061224489795917 310.89612066886815 19.591836734693878 304.6063520076035 26.122448979591834 301.51236336378594 32.6530612244898 299.6347402338555 39.183673469387756 295.6873274647906 45.71428571428571 289.6072492798067 52.24489795918367 284.85403314737255 58.775510204081634 275.5586218392137 65.3061224489796 271.27432039660874 71.83673469387755 264.3815372782924 78.36734693877551 261.6232755803538 84.89795918367348 259.09165274445365 91.42857142857142 253.23316090012446 97.9591836734694 246.0081095269791 104.48979591836734 237.61107309770654 111.0204081632653 236.2899583342789 117.55102040816327 234.21733009586876 124.08163265306122 230.5136954884233 130.6122448979592 228.68144542000758 137.14285714285714 222.60338397289152 143.6734693877551 224.41440414113134 150.20408163265307 213.8541421374192 156.73469387755102 203.68031819368738 163.26530612244898 199.51267893337476 169.79591836734696 191.13117748888362 176.32653061224488 184.67461733137978 182.85714285714283 182.2739669764133 189.3877551020408 179.49430185138323 195.9183673469388 176.83737067583738 202.44897959183675 169.27906081006677 208.97959183673467 161.91433791238177 215.51020408163265 161.10356967094853 222.0408163265306 157.6519453217526 228.57142857142858 159.74990629094376 235.10204081632654 157.76164359601697 241.63265306122446 151.885630413922 248.16326530612244 148.87049393973425 254.69387755102042 150.85244483971294 261.2244897959184 154.74266263959206 267.7551020408163 153.0043022023018 274.2857142857143 155.44769762690936 280.81632653061223 157.61194109987798 287.3469387755102 159.39928228336618 293.8775510204082 161.38430043186918 300.40816326530614 163.76283515752397 306.9387755102041 164.08014185347008 313.46938775510205 158.1837805957738 320 157.97615699767957 326.53061224489795 154.65152977245708 333.0612244897959 150.62838961548073 339.5918367346939 146.04750540763774 346.12244897959187 147.7086686646221 352.65306122448976 144.26948192491187 359.1836734693877 143.14896012465636 365.71428571428567 145.79581095645526 372.2448979591837 150.90468971679115 378.7755102040816 152.6043884538908 385.3061224489796 154.94922958125073 391.8367346938776 157.56706349253992 398.36734693877554 156.5801539545029 404.8979591836735 159.02352081416342 411.42857142857144 161.28450672417603 417.95918367346934 165.1960394203612 424.48979591836735 169.11533202073082 431.0204081632653 170.98585112406732 437.55102040816325 165.6690485357139 444.0816326530612 168.5772851448545 450.61224489795916 172.90107445167862 457.14285714285717 176.8936824821088 463.6734693877551 175.1955040886259 470.2040816326531 175.65430245109508 476.7346938775511 179.72760244952096 483.2653061224489 183.23435926313283 489.7959183673469 187.39959965358062 496.3265306122449 183.29349188874718 502.85714285714283 184.6879374538759 509.38775510204084 185.26190454511638 515.9183673469388 184.13091995962907 522.4489795918367 186.31988226362185 528.9795918367347 190.2062092711141 535.5102040816327 194.0406641843618 542.0408163265306 190.9829077508908 548.5714285714286 191.52313131683002 555.1020408163265 195.4353701220651 561.6326530612245 197.39232580974462 568.1632653061224 199.59471441974515 574.6938775510204 203.12492711354224 581.2244897959183 204.43825449700546 587.7551020408164 206.42007803636614 594.2857142857143 208.45595544623885 600.8163265306123 211.81760394223085 607.3469387755102 210.68378315548492 613.8775510204082 201.0122896492542 620.4081632653061 201.4748179053673 626.9387755102041 201.6692410804236 633.469387755102 200.74890114648696 640 201.46639995933518 640 320 0 320"
      />
      
      <polygon
        fill="#22e8e8"
        fillRule="evenodd"
        points="0 319.9256742544791 6.530612244897958 319.8564689812132 13.061224489795917 319.8272328915237 19.591836734693878 318.66030285487733 26.122448979591834 318.5475298414965 32.6530612244898 318.4075977221305 39.183673469387756 318.26954463559895 45.71428571428571 316.01153547953646 52.24489795918367 316.01949799961665 58.775510204081634 310.2711996101009 65.3061224489796 309.37987134401175 71.83673469387755 306.9369336161667 78.36734693877551 307.02226512751645 84.89795918367348 306.2791028716719 91.42857142857142 304.584114401858 97.9591836734694 300.1563008775876 104.48979591836734 294.7536466697953 111.0204081632653 293.47878040510875 117.55102040816327 293.7809576049439 124.08163265306122 290.8838614689902 130.6122448979592 291.2549295427212 137.14285714285714 286.97854047741174 143.6734693877551 287.2959221717565 150.20408163265307 280.0896267791478 156.73469387755102 272.35653370532606 163.26530612244898 270.6873614434341 169.79591836734696 264.64104441716034 176.32653061224488 259.71603807688734 182.85714285714283 258.4821270926835 189.3877551020408 256.497620698564 195.9183673469388 254.70956225747645 202.44897959183675 249.75803499765357 208.97959183673467 243.84332224112535 215.51020408163265 243.32679350423564 222.0408163265306 241.8302651002662 228.57142857142858 242.76855087174164 235.10204081632654 241.70745703604717 241.63265306122446 237.21785588736446 248.16326530612244 234.04437713028398 254.69387755102042 235.73030270277292 261.2244897959184 237.40440978531475 267.7551020408163 235.56050906142832 274.2857142857143 237.0050807654792 280.81632653061223 238.3993858897102 287.3469387755102 240.81757057024572 293.8775510204082 242.54148249770677 300.40816326530614 244.59171247823235 306.9387755102041 243.7603702515126 313.46938775510205 239.79403971179795 320 239.82808789561676 326.53061224489795 237.43532219556195 333.0612244897959 235.7225755763514 339.5918367346939 231.99175028354995 346.12244897959187 232.20069937738683 352.65306122448976 229.58698206541814 359.1836734693877 229.0000760806974 365.71428571428567 230.6154035202237 372.2448979591837 233.24734688158617 378.7755102040816 234.38585743667207 385.3061224489796 235.44977133134753 391.8367346938776 235.98080742391232 398.36734693877554 235.02390649297894 404.8979591836735 236.27274891956935 411.42857142857144 237.10995306387207 417.95918367346934 239.17608126638834 424.48979591836735 241.04014647957814 431.0204081632653 242.01071151456566 437.55102040816325 236.8473273520517 444.0816326530612 238.18587902224888 450.61224489795916 240.60232105606377 457.14285714285717 242.69852999731248 463.6734693877551 240.2079466160123 470.2040816326531 240.05520234347262 476.7346938775511 242.49389482698402 483.2653061224489 244.47760976656812 489.7959183673469 246.78130544076927 496.3265306122449 243.4888157332157 502.85714285714283 244.04377038618117 509.38775510204084 246.20496519839145 515.9183673469388 246.89557858652563 522.4489795918367 247.99729530125109 528.9795918367347 250.11823665728645 535.5102040816327 252.2328146062411 542.0408163265306 249.58179013770405 548.5714285714286 249.442727961025 555.1020408163265 251.59489337293456 561.6326530612245 252.51201820083816 568.1632653061224 253.3534350480403 574.6938775510204 255.30238886177375 581.2244897959183 256.1532661933727 587.7551020408164 257.94404264054424 594.2857142857143 258.996964260677 600.8163265306123 260.8264650351441 607.3469387755102 259.22059719635075 613.8775510204082 252.11871281934134 620.4081632653061 252.0948427063238 626.9387755102041 251.32926788340575 633.469387755102 250.03621190434905 640 249.671798963899 640 320 0 320"
      />
      
      <polygon
        fill="#22e4e8"
        fillRule="evenodd"
        points="0 319.9256742544791 6.530612244897958 319.8564689812132 13.061224489795917 319.8272328915237 19.591836734693878 318.66030285487733 26.122448979591834 318.5475298414965 32.6530612244898 318.4075977221305 39.183673469387756 318.26954463559895 45.71428571428571 316.01153547953646 52.24489795918367 316.01949799961665 58.775510204081634 310.2711996101009 65.3061224489796 309.37987134401175 71.83673469387755 306.9369336161667 78.36734693877551 307.02226512751645 84.89795918367348 306.2791028716719 91.42857142857142 304.584114401858 97.9591836734694 300.1563008775876 104.48979591836734 294.7536466697953 111.0204081632653 293.47878040510875 117.55102040816327 293.7809576049439 124.08163265306122 290.8838614689902 130.6122448979592 291.2549295427212 137.14285714285714 286.97854047741174 143.6734693877551 287.2959221717565 150.20408163265307 280.0896267791478 156.73469387755102 272.35653370532606 163.26530612244898 270.6873614434341 169.79591836734696 264.64104441716034 176.32653061224488 259.71603807688734 182.85714285714283 258.4821270926835 189.3877551020408 256.497620698564 195.9183673469388 254.70956225747645 202.44897959183675 249.75803499765357 208.97959183673467 243.84332224112535 215.51020408163265 243.32679350423564 222.0408163265306 241.8302651002662 228.57142857142858 242.76855087174164 235.10204081632654 241.70745703604717 241.63265306122446 237.21785588736446 248.16326530612244 234.04437713028398 254.69387755102042 235.73030270277292 261.2244897959184 237.40440978531475 267.7551020408163 235.56050906142832 274.2857142857143 237.0050807654792 280.81632653061223 238.3993858897102 287.3469387755102 240.81757057024572 293.8775510204082 242.54148249770677 300.40816326530614 244.59171247823235 306.9387755102041 243.7603702515126 313.46938775510205 239.79403971179795 320 239.82808789561676 326.53061224489795 237.43532219556195 333.0612244897959 235.77395138032955 339.5918367346939 232.04312608752804 346.12244897959187 232.25207518136494 352.65306122448976 229.63835786939626 359.1836734693877 229.0514518846755 365.71428571428567 230.6667793242018 372.2448979591837 233.2987226855643 378.7755102040816 234.4372332406502 385.3061224489796 235.50114713532565 391.8367346938776 236.03218322789047 398.36734693877554 235.07528229695706 404.8979591836735 236.32412472354747 411.42857142857144 237.16132886785016 417.95918367346934 239.22745707036648 424.48979591836735 241.0915222835563 431.0204081632653 242.06208731854377 437.55102040816325 236.89870315602982 444.0816326530612 238.237254826227 450.61224489795916 240.6536968600419 457.14285714285717 242.7499058012906 463.6734693877551 240.2593224199904 470.2040816326531 240.10657814745076 476.7346938775511 242.54527063096214 483.2653061224489 244.52898557054624 489.7959183673469 246.8326812447474 496.3265306122449 243.54019153719378 502.85714285714283 244.0951461901593 509.38775510204084 246.25634100236957 515.9183673469388 246.94695439050378 522.4489795918367 248.0486711052292 528.9795918367347 250.1696124612646 535.5102040816327 252.28419041021922 542.0408163265306 249.6331659416822 548.5714285714286 249.49410376500316 555.1020408163265 251.64626917691265 561.6326530612245 252.56339400481627 568.1632653061224 253.4048108520184 574.6938775510204 255.3537646657519 581.2244897959183 256.2046419973508 587.7551020408164 257.99541844452233 594.2857142857143 259.04834006465506 600.8163265306123 260.8778408391222 607.3469387755102 259.2719730003289 613.8775510204082 252.17008862331943 620.4081632653061 252.14621851030188 626.9387755102041 251.3806436873839 633.469387755102 250.08758770832716 640 249.671798963899 640 320 0 320"
      />
      
      <polygon
        fill="#e34c26"
        fillRule="evenodd"
        points="0 319.9256742544791 6.530612244897958 319.8564689812132 13.061224489795917 319.8272328915237 19.591836734693878 318.66030285487733 26.122448979591834 318.6387622132886 32.6530612244898 318.5126026933995 39.183673469387756 318.37134439067717 45.71428571428571 316.1105243749851 52.24489795918367 316.20707420414 58.775510204081634 311.6486219053331 65.3061224489796 310.7510464442318 71.83673469387755 308.26758445834906 78.36734693877551 308.3122984132012 84.89795918367348 307.52975886414276 91.42857142857142 305.79780755839874 97.9591836734694 302.08576707823516 104.48979591836734 297.7266068250423 111.0204081632653 296.36099249799264 117.55102040816327 296.5751923325732 124.08163265306122 294.70440535579473 130.6122448979592 294.97529431082626 137.14285714285714 291.7197418540524 143.6734693877551 292.19422695515277 150.20408163265307 288.1167868683888 156.73469387755102 282.47605047528185 163.26530612244898 280.50909583340405 169.79591836734696 276.09420266622385 176.32653061224488 271.33208886105035 182.85714285714283 270.3320955086652 189.3877551020408 269.08199749852616 195.9183673469388 268.32411229358274 202.44897959183675 264.11126428832506 208.97959183673467 258.7341489721399 215.51020408163265 258.8780150947457 222.0408163265306 257.3390554142708 228.57142857142858 258.037281576562 235.10204081632654 256.52382481435626 241.63265306122446 252.72250222902017 248.16326530612244 250.1933562000795 254.69387755102042 252.19006531350897 261.2244897959184 254.18866402900872 267.7551020408163 252.86780495268232 274.2857142857143 253.80098806903152 280.81632653061223 254.90776336871855 287.3469387755102 256.83305680601666 293.8775510204082 258.5829094044223 300.40816326530614 260.45211160205065 306.9387755102041 259.97209253567445 313.46938775510205 257.8643752088314 320 257.5420612934525 326.53061224489795 255.7256756006478 333.0612244897959 254.32302511412053 339.5918367346939 252.44398827239024 346.12244897959187 252.30167688436444 352.65306122448976 249.89599047786396 359.1836734693877 249.607318980204 365.71428571428567 250.6399009503673 372.2448979591837 252.6897831680758 378.7755102040816 254.0437843953675 385.3061224489796 254.8813395802636 391.8367346938776 255.76536340922087 398.36734693877554 254.20612022225507 404.8979591836735 254.90085199758775 411.42857142857144 255.17101728331966 417.95918367346934 256.70487571636534 424.48979591836735 258.10511195111206 431.0204081632653 258.556347754135 437.55102040816325 255.1694464167372 444.0816326530612 257.12073161307944 450.61224489795916 258.97908445337646 457.14285714285717 260.5159228885562 463.6734693877551 258.6005409535628 470.2040816326531 258.02058118304313 476.7346938775511 259.91245940697775 483.2653061224489 261.3828869091451 489.7959183673469 263.1721330252435 496.3265306122449 261.82042288137984 502.85714285714283 263.5576128751039 509.38775510204084 265.2078681241392 515.9183673469388 265.57695015314073 522.4489795918367 267.2215200529562 528.9795918367347 268.7758191716275 535.5102040816327 270.3394018980776 542.0408163265306 268.4386398728707 548.5714285714286 268.9636017424802 555.1020408163265 270.5214754868407 561.6326530612245 271.98377568617417 568.1632653061224 273.44945376241793 574.6938775510204 274.8252272539731 581.2244897959183 276.2041471538912 587.7551020408164 277.54100398769094 594.2857142857143 278.71336407691206 600.8163265306123 279.97361477820516 607.3469387755102 278.9297448040963 613.8775510204082 275.7239301365423 620.4081632653061 277.03248636211686 626.9387755102041 278.2862755326537 633.469387755102 278.4158628314907 640 279.4866422228141 640 320 0 320"
      />
      
      <polygon
        fill="#00ADD8"
        fillRule="evenodd"
        points="0 319.9256742544791 6.530612244897958 319.8564689812132 13.061224489795917 319.8272328915237 19.591836734693878 318.66030285487733 26.122448979591834 318.6387622132886 32.6530612244898 318.51536246421034 39.183673469387756 318.37401992109596 45.71428571428571 316.6121802276296 52.24489795918367 316.69341729290556 58.775510204081634 313.13944221087667 65.3061224489796 312.19636032314696 71.83673469387755 310.88203007371493 78.36734693877551 310.86396279610574 84.89795918367348 310.0035348566747 91.42857142857142 308.66170561568697 97.9591836734694 305.87144641969564 104.48979591836734 303.7931590645512 111.0204081632653 303.0244435215992 117.55102040816327 303.3152909181347 124.08163265306122 302.49018650520526 130.6122448979592 302.91324339900746 137.14285714285714 300.9756909550686 143.6734693877551 301.5563914208294 150.20408163265307 299.6311526062861 156.73469387755102 295.8211929879394 163.26530612244898 294.07845262978293 169.79591836734696 290.71613974189387 176.32653061224488 287.7123802956448 182.85714285714283 287.3468103063281 189.3877551020408 286.1158312878815 195.9183673469388 284.93730360531896 202.44897959183675 282.3765380809409 208.97959183673467 277.9438518390926 215.51020408163265 278.0796478504095 222.0408163265306 276.0328054670963 228.57142857142858 276.21168390213353 235.10204081632654 274.1490167128535 241.63265306122446 270.3047439553917 248.16326530612244 268.0869712616212 254.69387755102042 269.66606701483414 261.2244897959184 271.14817038771673 267.7551020408163 270.4125372045694 274.2857142857143 270.8101840778311 280.81632653061223 272.1629138464508 287.3469387755102 273.5615097339778 293.8775510204082 274.9228780255065 300.40816326530614 276.29330953289013 306.9387755102041 276.46435239745875 313.46938775510205 274.6332495918465 320 273.79906621124064 326.53061224489795 272.0443808039815 333.0612244897959 270.1436192925326 339.5918367346939 268.2494707718202 346.12244897959187 268.7285826134243 352.65306122448976 266.93234065409814 359.1836734693877 266.17326613011807 365.71428571428567 266.70017558453026 372.2448979591837 268.2754070244457 378.7755102040816 269.7729964312437 385.3061224489796 270.1456838189403 391.8367346938776 271.6310090301414 398.36734693877554 270.87588965188024 404.8979591836735 271.21138433802463 411.42857142857144 272.6978584252294 417.95918367346934 274.09582991178513 424.48979591836735 275.46914111518305 431.0204081632653 275.7089675398682 437.55102040816325 272.952475060216 444.0816326530612 274.36095022714346 450.61224489795916 275.70977942142326 457.14285714285717 277.0617214756661 463.6734693877551 276.4936134866145 470.2040816326531 276.6994723258421 476.7346938775511 278.02119317990446 483.2653061224489 279.0984817273544 489.7959183673469 280.3469790112937 496.3265306122449 279.2673510152338 502.85714285714283 280.4775125990091 509.38775510204084 281.6112992208454 515.9183673469388 281.52746449216875 522.4489795918367 282.685151035264 528.9795918367347 283.78243360709973 535.5102040816327 284.88794350018446 542.0408163265306 282.61007999122995 548.5714285714286 282.84176822141075 555.1020408163265 283.9760186640053 561.6326530612245 285.0406742506125 568.1632653061224 286.1077963073674 574.6938775510204 287.1094604419986 581.2244897959183 288.1134177356403 587.7551020408164 289.08674287404557 594.2857142857143 289.94031096200206 600.8163265306123 290.85786347292344 607.3469387755102 291.71915216257435 613.8775510204082 290.34723586363026 620.4081632653061 291.2236136885605 626.9387755102041 292.1019813641398 633.469387755102 292.9283858849446 640 293.6254741183884 640 320 0 320"
      />
      
      <polygon
        fill="#244776"
        fillRule="evenodd"
        points="0 319.9256742544791 6.530612244897958 319.8564689812132 13.061224489795917 319.8272328915237 19.591836734693878 318.66030285487733 26.122448979591834 318.6387622132886 32.6530612244898 318.51536246421034 39.183673469387756 318.37401992109596 45.71428571428571 316.6121802276296 52.24489795918367 316.69341729290556 58.775510204081634 313.13944221087667 65.3061224489796 312.19636032314696 71.83673469387755 310.88203007371493 78.36734693877551 310.86396279610574 84.89795918367348 310.0035348566747 91.42857142857142 308.66170561568697 97.9591836734694 305.87144641969564 104.48979591836734 303.7931590645512 111.0204081632653 303.0244435215992 117.55102040816327 303.3152909181347 124.08163265306122 302.49018650520526 130.6122448979592 302.91324339900746 137.14285714285714 300.9756909550686 143.6734693877551 301.5563914208294 150.20408163265307 299.6311526062861 156.73469387755102 295.8211929879394 163.26530612244898 294.07845262978293 169.79591836734696 290.71613974189387 176.32653061224488 287.7123802956448 182.85714285714283 287.3468103063281 189.3877551020408 286.1158312878815 195.9183673469388 284.93730360531896 202.44897959183675 282.3765380809409 208.97959183673467 277.9438518390926 215.51020408163265 278.0796478504095 222.0408163265306 276.0328054670963 228.57142857142858 276.21168390213353 235.10204081632654 274.1490167128535 241.63265306122446 270.3047439553917 248.16326530612244 268.0869712616212 254.69387755102042 269.66606701483414 261.2244897959184 271.14817038771673 267.7551020408163 270.4125372045694 274.2857142857143 270.8101840778311 280.81632653061223 272.1629138464508 287.3469387755102 273.5615097339778 293.8775510204082 274.9228780255065 300.40816326530614 276.29330953289013 306.9387755102041 276.46435239745875 313.46938775510205 274.6332495918465 320 273.79906621124064 326.53061224489795 272.0443808039815 333.0612244897959 270.1436192925326 339.5918367346939 268.2494707718202 346.12244897959187 268.7285826134243 352.65306122448976 266.93234065409814 359.1836734693877 266.17326613011807 365.71428571428567 266.70017558453026 372.2448979591837 268.2754070244457 378.7755102040816 269.7729964312437 385.3061224489796 270.1456838189403 391.8367346938776 271.6310090301414 398.36734693877554 270.87588965188024 404.8979591836735 271.21138433802463 411.42857142857144 272.6978584252294 417.95918367346934 274.09582991178513 424.48979591836735 275.46914111518305 431.0204081632653 275.7089675398682 437.55102040816325 272.952475060216 444.0816326530612 274.36095022714346 450.61224489795916 275.70977942142326 457.14285714285717 277.0617214756661 463.6734693877551 276.4936134866145 470.2040816326531 276.6994723258421 476.7346938775511 278.02119317990446 483.2653061224489 279.0984817273544 489.7959183673469 280.3469790112937 496.3265306122449 279.2673510152338 502.85714285714283 280.4775125990091 509.38775510204084 281.6112992208454 515.9183673469388 281.52746449216875 522.4489795918367 282.685151035264 528.9795918367347 283.78243360709973 535.5102040816327 284.88794350018446 542.0408163265306 282.61007999122995 548.5714285714286 282.84176822141075 555.1020408163265 283.9760186640053 561.6326530612245 285.0406742506125 568.1632653061224 286.1077963073674 574.6938775510204 287.1094604419986 581.2244897959183 288.1134177356403 587.7551020408164 289.08674287404557 594.2857142857143 289.94031096200206 600.8163265306123 290.85786347292344 607.3469387755102 291.71915216257435 613.8775510204082 290.40279707968074 620.4081632653061 291.27753282088906 626.9387755102041 292.1542546479276 633.469387755102 292.9790635575077 640 293.6748468516955 640 320 0 320"
      />
      
      <polygon
        fill="#563d7c"
        fillRule="evenodd"
        points="0 319.9256742544791 6.530612244897958 319.8564689812132 13.061224489795917 319.8272328915237 19.591836734693878 318.66030285487733 26.122448979591834 318.6387622132886 32.6530612244898 318.51536246421034 39.183673469387756 318.37401992109596 45.71428571428571 316.6121802276296 52.24489795918367 316.69341729290556 58.775510204081634 314.24960243623434 65.3061224489796 313.2726335819587 71.83673469387755 311.92649462000327 78.36734693877551 311.876545676229 84.89795918367348 310.98520923111187 91.42857142857142 309.6143671488532 97.9591836734694 306.79502842579745 104.48979591836734 305.79142270705745 111.0204081632653 304.961711343584 117.55102040816327 305.1934245732311 124.08163265306122 304.3146364524572 130.6122448979592 304.6820032077664 137.14285714285714 303.811835494793 143.6734693877551 304.30596454555086 150.20408163265307 302.29946338883605 156.73469387755102 298.4080551396526 163.26530612244898 296.58635243131715 169.79591836734696 293.14991987653207 176.32653061224488 290.07187060672425 182.85714285714283 289.63656721115194 189.3877551020408 288.3356946994446 195.9183673469388 287.08940674975406 202.44897959183675 284.4692182237176 208.97959183673467 279.9726539787447 215.51020408163265 280.04849011125157 222.0408163265306 277.9415497509673 228.57142857142858 278.0640162174656 235.10204081632654 275.9448079008755 241.63265306122446 273.1751060135848 248.16326530612244 271.6223279577916 254.69387755102042 273.0935087319969 261.2244897959184 274.47431628170483 267.7551020408163 273.63715423473593 274.2857142857143 273.9363715409268 280.81632653061223 275.2027824579959 287.3469387755102 276.50858819770326 293.8775510204082 277.78285703371563 300.40816326530614 279.0659892337055 306.9387755102041 279.15508707441944 313.46938775510205 277.24185120950983 320 276.32804149783436 326.53061224489795 274.4986135434318 333.0612244897959 272.5229383006606 339.5918367346939 270.55846997026606 346.12244897959187 270.96710109316984 352.65306122448976 269.10252962280765 359.1836734693877 268.2835326216029 365.71428571428567 268.74602750399373 372.2448979591837 270.2607947602073 378.7755102040816 271.6977813713844 385.3061224489796 272.0135829001262 391.8367346938776 273.44189124407234 398.36734693877554 272.6314958162983 404.8979591836735 272.91510463948265 411.42857142857144 274.3495735691106 417.95918367346934 275.69872941075204 424.48979591836735 277.0231131754862 431.0204081632653 277.21550545062604 437.55102040816325 275.390279153325 444.0816326530612 276.7243417085222 450.61224489795916 278.0033223119939 457.14285714285717 279.285255277417 463.6734693877551 278.65143177823575 470.2040816326531 278.791424576228 476.7346938775511 280.0492896215131 483.2653061224489 281.06663884047464 489.7959183673469 282.25505951977726 496.3265306122449 281.11903907798404 502.85714285714283 282.2726789545032 509.38775510204084 283.3516692740841 515.9183673469388 283.2197800844049 522.4489795918367 284.32580959237106 528.9795918367347 285.37460337215737 535.5102040816327 286.43151309044976 542.0408163265306 284.10803023084964 548.5714285714286 284.2939944064963 555.1020408163265 285.3839165723993 561.6326530612245 286.4069623816066 568.1632653061224 287.4323793074693 574.6938775510204 288.3948961069853 581.2244897959183 289.35961620923064 587.7551020408164 290.2949019317334 594.2857142857143 291.1151106826508 600.8163265306123 291.9968031906503 607.3469387755102 292.8244310186686 613.8775510204082 291.4743379076848 620.4081632653061 292.3174048840598 626.9387755102041 293.16238519812646 633.469387755102 293.9564214396462 640 294.62703809075214 640 320 0 320"
      />
      
      <polygon
        fill="#178600"
        fillRule="evenodd"
        points="0 320 6.530612244897958 320 13.061224489795917 320 19.591836734693878 320 26.122448979591834 320 32.6530612244898 320 39.183673469387756 320 45.71428571428571 320 52.24489795918367 320 58.775510204081634 318.73032848670596 65.3061224489796 318.76908455397324 71.83673469387755 318.80546364774335 78.36734693877551 318.8419261347185 84.89795918367348 318.8772756162763 91.42857142857142 318.9104571930336 97.9591836734694 318.94371477515534 104.48979591836734 318.97493283033555 111.0204081632653 319.0062224006349 117.55102040816327 319.03655686391284 124.08163265306122 319.0640954662135 130.6122448979592 319.0926634546729 137.14285714285714 319.11947926106245 143.6734693877551 319.1463566773162 150.20408163265307 319.1715856700738 156.73469387755102 319.18567767292404 163.26530612244898 319.2105343863309 169.79591836734696 319.2338666357814 176.32653061224488 319.25725237771906 182.85714285714283 319.27920391271283 189.3877551020408 318.19414060319593 195.9183673469388 318.2492634192359 202.44897959183675 318.2976040229163 208.97959183673467 316.13887416012994 215.51020408163265 316.24748497302664 222.0408163265306 316.36202821165966 228.57142857142858 316.46954637423255 235.10204081632654 316.5773116749729 241.63265306122446 316.2415600789832 248.16326530612244 315.63817811025535 254.69387755102042 315.771320253042 261.2244897959184 315.8962966227927 267.7551020408163 316.021559566778 274.2857142857143 316.1429991234313 280.81632653061223 316.2494974865704 287.3469387755102 316.36397950579544 293.8775510204082 316.4714401274678 300.40816326530614 316.5791473632745 306.9387755102041 316.6802486468299 313.46938775510205 315.9758114683677 320 316.0986473166215 326.53061224489795 314.31084403860194 333.0612244897959 314.48450227067343 339.5918367346939 313.52091063796246 346.12244897959187 313.718681076115 352.65306122448976 313.91041485730005 359.1836734693877 312.9761233593558 365.71428571428567 313.1905224293042 372.2448979591837 313.3917727253379 378.7755102040816 313.59348567076154 385.3061224489796 313.7828266855273 391.8367346938776 313.9726020827157 398.36734693877554 314.15658534093814 404.8979591836735 314.3292840784945 411.42857142857144 314.5023794064321 417.95918367346934 314.66485898281917 424.48979591836735 314.82771082828185 431.0204081632653 314.9855919208574 437.55102040816325 313.21290252070446 444.0816326530612 313.4200748337366 450.61224489795916 313.61454098568043 457.14285714285717 313.8094533878576 463.6734693877551 313.1987253675967 470.2040816326531 313.40633077865635 476.7346938775511 313.6075989842953 483.2653061224489 313.79652261175437 489.7959183673469 313.98588015925384 496.3265306122449 314.1636243090157 502.85714285714283 314.3417763826611 509.38775510204084 314.51449032745546 515.9183673469388 314.6659541094568 522.4489795918367 314.8287731771565 528.9795918367347 314.981605816079 535.5102040816327 315.1347894544943 542.0408163265306 315.2785782051393 548.5714285714286 315.4226967884459 555.1020408163265 315.562416267161 561.6326530612245 315.69356681663123 568.1632653061224 315.8250180378567 574.6938775510204 315.9484076659016 581.2244897959183 316.0720801691231 587.7551020408164 316.191977424141 594.2857142857143 316.2971233500658 600.8163265306123 316.41015162926635 607.3469387755102 316.5162473910551 613.8775510204082 316.6225874242415 620.4081632653061 316.7224047545293 626.9387755102041 316.8224513236545 633.469387755102 316.91944428966895 640 316.998767565146 640 320 0 320"
      />
      
      <polygon
        fill="#555555"
        fillRule="evenodd"
        points="0 320 6.530612244897958 320 13.061224489795917 320 19.591836734693878 320 26.122448979591834 320 32.6530612244898 320 39.183673469387756 320 45.71428571428571 320 52.24489795918367 320 58.775510204081634 318.73032848670596 65.3061224489796 318.76908455397324 71.83673469387755 318.80546364774335 78.36734693877551 318.8419261347185 84.89795918367348 318.8772756162763 91.42857142857142 318.9104571930336 97.9591836734694 318.94371477515534 104.48979591836734 318.97493283033555 111.0204081632653 319.0062224006349 117.55102040816327 319.03655686391284 124.08163265306122 319.0640954662135 130.6122448979592 319.0926634546729 137.14285714285714 319.11947926106245 143.6734693877551 319.1463566773162 150.20408163265307 319.1715856700738 156.73469387755102 319.18567767292404 163.26530612244898 319.2105343863309 169.79591836734696 319.2338666357814 176.32653061224488 319.25725237771906 182.85714285714283 319.27920391271283 189.3877551020408 318.19414060319593 195.9183673469388 318.2492634192359 202.44897959183675 318.2976040229163 208.97959183673467 317.2428489441918 215.51020408163265 317.3188323197529 222.0408163265306 317.40067331787975 228.57142857142858 317.47749495133377 235.10204081632654 317.55449313260056 241.63265306122446 317.188913566834 248.16326530612244 316.557533120709 254.69387755102042 316.66261246359187 261.2244897959184 316.76124712287213 267.7551020408163 316.8601080411931 274.2857142857143 316.9559513502916 280.81632653061223 317.04000278210947 287.3469387755102 317.1303550452788 293.8775510204082 317.21516586285526 300.40816326530614 317.30017129197716 306.9387755102041 317.3799631558872 313.46938775510205 317.45993853416905 320 317.537472225991 326.53061224489795 316.5057094224718 333.0612244897959 316.61237062635917 339.5918367346939 315.58589089951465 346.12244897959187 315.7206290830277 352.65306122448976 315.85125453068065 359.1836734693877 314.86337313711005 365.71428571428567 315.02016513456743 372.2448979591837 315.16734136939806 378.7755102040816 315.31485612967623 385.3061224489796 315.4533228710623 391.8367346938776 315.5921072690444 398.36734693877554 315.7266560094178 404.8979591836735 315.85295222357274 411.42857142857144 315.9795384746915 417.95918367346934 316.09836135889657 424.48979591836735 316.2174563293595 431.0204081632653 316.3329163178387 437.55102040816325 315.58525425055177 444.0816326530612 315.7200120596219 450.61224489795916 315.846504529348 457.14285714285717 315.9732877861247 463.6734693877551 316.0922949039628 470.2040816326531 316.2115754438297 476.7346938775511 316.3272151859719 483.2653061224489 316.43576208736846 489.7959183673469 316.5445585724208 496.3265306122449 316.6466822653008 502.85714285714283 316.74904023184695 509.38775510204084 316.8482740357532 515.9183673469388 316.9352981743408 522.4489795918367 317.02884673177886 528.9795918367347 317.116657536677 535.5102040816327 317.2046698374783 542.0408163265306 317.2872842880589 548.5714285714286 317.3700884181078 555.1020408163265 317.45036496135253 561.6326530612245 317.5257180996511 568.1632653061224 317.60124398395294 574.6938775510204 317.6721381237478 581.2244897959183 317.74319471383484 587.7551020408164 317.8120822688537 594.2857142857143 317.87249446024197 600.8163265306123 317.93743529517377 607.3469387755102 317.9983932003518 613.8775510204082 318.05949139230023 620.4081632653061 318.11684179127457 626.9387755102041 318.17432412331357 633.469387755102 318.23005194082117 640 318.2756273754295 640 320 0 320"
      />
      
      <polygon
        fill="#C1F12E"
        fillRule="evenodd"
        points="0 320 6.530612244897958 320 13.061224489795917 320 19.591836734693878 320 26.122448979591834 320 32.6530612244898 320 39.183673469387756 320 45.71428571428571 320 52.24489795918367 320 58.775510204081634 319.00777447394825 65.3061224489796 319.03806164066106 71.83673469387755 319.0664912638052 78.36734693877551 319.0949860314688 84.89795918367348 319.122611006771 91.42857142857142 319.14854181356134 97.9591836734694 319.174532010781 104.48979591836734 319.19892837643386 111.0204081632653 319.2233806081359 117.55102040816327 319.247086462433 124.08163265306122 319.268607375713 130.6122448979592 319.2909327621572 137.14285714285714 319.3118888190228 143.6734693877551 319.3328930458421 150.20408163265307 319.35260904492714 156.73469387755102 319.36117541565693 163.26530612244898 319.3806751637078 169.79591836734696 319.3989789960688 176.32653061224488 319.41732478191136 182.85714285714283 319.43454546847227 189.3877551020408 319.440844717449 195.9183673469388 319.4579126020937 202.44897959183675 319.472880511026 208.97959183673467 319.48621072373 215.51020408163265 319.50139545910537 222.0408163265306 319.5166150889268 228.57142857142858 319.5309012717658 235.10204081632654 319.545220252918 241.63265306122446 319.3091074049215 248.16326530612244 318.61506584296495 254.69387755102042 318.6573402177651 261.2244897959184 318.6970216557385 267.7551020408163 318.73679433713977 274.2857142857143 318.7753528027898 280.81632653061223 318.80916743220376 287.3469387755102 318.845516943786 293.8775510204082 318.87963710510616 300.40816326530614 318.9138354604 306.9387755102041 318.945936501248 313.46938775510205 318.9781113177506 320 319.0093037261295 326.53061224489795 319.0385833105746 333.0612244897959 319.0679299918198 339.5918367346939 319.0954768759 346.12244897959187 319.1230868494675 352.65306122448976 319.1498541570981 359.1836734693877 319.17332807019056 365.71428571428567 319.19856173814634 372.2448979591837 319.2222478024837 378.7755102040816 319.24598828407267 385.3061224489796 319.2682726520749 391.8367346938776 319.2906082417538 398.36734693877554 319.31226204368835 404.8979591836735 319.33258775026457 411.42857142857144 319.3529600752454 417.95918367346934 319.3720830742505 424.48979591836735 319.3912498454406 431.0204081632653 319.409831610626 437.55102040816325 318.57422043477663 444.0816326530612 318.61774149483614 450.61224489795916 318.6585934791274 457.14285714285717 318.6995390701334 463.6734693877551 318.7379734118411 470.2040816326531 318.77649611993155 476.7346938775511 318.8138429386206 483.2653061224489 318.84889911571344 489.7959183673469 318.8840359528186 496.3265306122449 318.9170175749468 502.85714285714283 318.9500749250101 509.38775510204084 318.9821233570348 515.9183673469388 319.0102284906011 522.4489795918367 319.04044075139166 528.9795918367347 319.068800092436 535.5102040816327 319.0972243724965 542.0408163265306 319.1239053687765 548.5714285714286 319.1506477077664 555.1020408163265 319.17657368523106 561.6326530612245 319.2009096226633 568.1632653061224 319.22530137476895 574.6938775510204 319.2481972586908 581.2244897959183 319.27114564868435 587.7551020408164 319.29339342683903 594.2857142857143 319.31290400490934 600.8163265306123 319.33387722129345 607.3469387755102 319.35356412112304 613.8775510204082 319.37329626248567 620.4081632653061 319.3918180618326 626.9387755102041 319.4103825030969 633.469387755102 319.4283802384178 640 319.44309926240527 640 320 0 320"
      />
      

      
        <g id="labels">
        
          
          <text x="0" y="330">
            Jul 2014
          </text>
          
        
          
        
          
        
          
        
          
        
          
        
          
        
          
        
          
        
          
        
          
        
          
        
          
        
          
          <text x="84.04040404040404" y="330">
            Aug 2015
          </text>
          
        
          
        
          
        
          
        
          
        
          
        
          
        
          
        
          
        
          
        
          
        
          
        
          
        
          
          <text x="168.08080808080808" y="330">
            Sep 2016
          </text>
          
        
          
        
          
        
          
        
          
        
          
        
          
        
          
        
          
        
          
        
          
        
          
        
          
        
          
          <text x="252.12121212121212" y="330">
            Oct 2017
          </text>
          
        
          
        
          
        
          
        
          
        
          
        
          
        
          
        
          
        
          
        
          
        
          
        
          
        
          
          <text x="336.16161616161617" y="330">
            Nov 2018
          </text>
          
        
          
        
          
        
          
        
          
        
          
        
          
        
          
        
          
        
          
        
          
        
          
        
          
        
          
          <text x="420.2020202020202" y="330">
            Dec 2019
          </text>
          
        
          
        
          
        
          
        
          
        
          
        
          
        
          
        
          
        
          
        
          
        
          
        
          
        
          
          <text x="504.24242424242425" y="330">
            Jan 2021
          </text>
          
        
          
        
          
        
          
        
          
        
          
        
          
        
          
        
          
        
          
        
          
        
          
        
          
        
          
          <text x="588.2828282828283" y="330">
            Feb 2022
          </text>
          
        
          
        
          
        
          
        
          
        
          
        
          
        
          
        
        </g>
      

      
        <text text-anchor="middle" y="370" x="320" id="legend">
          
          <tspan xml:space="preserve" fill="#C1F12E">   </tspan> Batchfile
          
          <tspan xml:space="preserve" fill="#555555">   </tspan> C
          
          <tspan xml:space="preserve" fill="#178600">   </tspan> C#
          
          <tspan xml:space="preserve" fill="#563d7c">   </tspan> CSS
          
          <tspan xml:space="preserve" fill="#244776">   </tspan> CoffeeScript
          
          <tspan xml:space="preserve" fill="#00ADD8">   </tspan> Go
          
          <tspan xml:space="preserve" fill="#e34c26">   </tspan> HTML
          
          <tspan xml:space="preserve" fill="#22e4e8">   </tspan> JSON
          
        </text>
      
        <text text-anchor="middle" y="400" x="320" id="legend">
          
          <tspan xml:space="preserve" fill="#22e8e8">   </tspan> JSon
          
          <tspan xml:space="preserve" fill="#f1e05a">   </tspan> JavaScript
          
          <tspan xml:space="preserve" fill="#2415b9">   </tspan> Less
          
          <tspan xml:space="preserve" fill="#755462">   </tspan> MySQL
          
          <tspan xml:space="preserve" fill="#4F5D95">   </tspan> PHP
          
          <tspan xml:space="preserve" fill="#fd2fdb">   </tspan> PLpgSQL
          
          <tspan xml:space="preserve" fill="#0298c3">   </tspan> Perl
          
          <tspan xml:space="preserve" fill="#3572A5">   </tspan> Python
          
        </text>
      
        <text text-anchor="middle" y="430" x="320" id="legend">
          
          <tspan xml:space="preserve" fill="#701516">   </tspan> Ruby
          
          <tspan xml:space="preserve" fill="#dea584">   </tspan> Rust
          
          <tspan xml:space="preserve" fill="#26c0b0">   </tspan> SCSS
          
          <tspan xml:space="preserve" fill="#0141ae">   </tspan> SQL
          
          <tspan xml:space="preserve" fill="#89e051">   </tspan> Shell
          
          <tspan xml:space="preserve" fill="#2770da">   </tspan> TSQL
          
          <tspan xml:space="preserve" fill="#2b7489">   </tspan> TypeScript
          
          <tspan xml:space="preserve" fill="#2c3e50">   </tspan> Vue
          
        </text>
      
        <text text-anchor="middle" y="460" x="320" id="legend">
          
          <tspan xml:space="preserve" fill="#4B6C4B">   </tspan> Yacc
          
        </text>
      

    </svg>