<svg
      xmlns="http://www.w3.org/2000/svg"
      viewBox="0 0 640 490"
      style="background-color: #292b3e"
    >
      <style>
        text {
          font-size: 12px;
          font-family: Open Sans, Helvetica Neue, Helvetica, Arial, sans-serif;
        }
        #labels text {
          dominant-baseline: hanging;
          font-size: 10px;
          fill: rgba(0,0,0,0.5);
        }
        #legend {
          font-weight: 600;
        }
        #legend tspan {
          font-size: 15px;
        }
        #branding-text {
          font-size: 9px;
          dominant-baseline: hanging;
          opacity: 0.5;
        }
        #branding-logo {
          opacity: 0.5;
        }
      </style>

      
      
      <polygon
        fill="#4B6C4B"
        fillRule="evenodd"
        points="0 313.6135526881233 6.530612244897958 304.26911785593677 13.061224489795917 297.2680527962351 19.591836734693878 285.9388300615522 26.122448979591834 278.8280162971158 32.6530612244898 274.98420860562203 39.183673469387756 267.09076964508023 45.71428571428571 257.0788326695964 52.24489795918367 246.22213993616276 58.775510204081634 230.9923361082378 65.3061224489796 221.54628749561525 71.83673469387755 206.62812308583239 78.36734693877551 198.27736196871467 84.89795918367348 192.17036176959743 91.42857142857142 182.12955482175283 97.9591836734694 170.61730461579683 104.48979591836734 156.9519623037476 111.0204081632653 154.80424345830772 117.55102040816327 149.88800946085604 124.08163265306122 142.5257140463383 130.6122448979592 138.28627806638298 137.14285714285714 123.7869037652012 143.6734693877551 127.17496320597516 150.20408163265307 110.77255301917393 156.73469387755102 93.05731901746807 163.26530612244898 88.0189092938285 169.79591836734696 78.10633402464279 176.32653061224488 68.7838030739315 182.85714285714283 65.97385919111821 189.3877551020408 62.13361745162348 195.9183673469388 59.18925436427338 202.44897959183675 46.68396926733129 208.97959183673467 33.29408677935908 215.51020408163265 31.64654290948232 222.0408163265306 27.41479640617422 228.57142857142858 27.528996508986097 235.10204081632654 25.25120439080274 241.63265306122446 13.936318306565795 248.16326530612244 9.643155192626807 254.69387755102042 9.88405246751563 261.2244897959184 12.937919161102911 267.7551020408163 8.247177192142146 274.2857142857143 10.710292022911005 280.81632653061223 10.159193204760129 287.3469387755102 11.455775208892703 293.8775510204082 14.195786005199295 300.40816326530614 17.693266625914987 306.9387755102041 18.068068843923925 313.46938775510205 12.038953494743566 320 13.322822327611505 326.53061224489795 11.292866138679415 333.0612244897959 7.0297591143587965 339.5918367346939 1.9718597892972412 346.12244897959187 4.695619521024014 352.65306122448976 0.0665790275969016 359.1836734693877 0 365.71428571428567 3.134234981560496 372.2448979591837 11.121879823770712 378.7755102040816 13.499818362428528 385.3061224489796 18.04794994760141 391.8367346938776 21.31465163879932 398.36734693877554 21.568640374167046 404.8979591836735 27.066710758736974 411.42857142857144 30.681094158792803 417.95918367346934 36.747956862630076 424.48979591836735 42.80370551557871 431.0204081632653 46.960475787914675 437.55102040816325 38.51486143820546 444.0816326530612 42.63114339103254 450.61224489795916 50.61562710328093 457.14285714285717 58.06895081476358 463.6734693877551 55.54220363835208 470.2040816326531 58.40783638649134 476.7346938775511 64.84930740006402 483.2653061224489 68.96530684860323 489.7959183673469 76.40581951937315 496.3265306122449 74.31951386303896 502.85714285714283 74.99071209075402 509.38775510204084 75.05202675033564 515.9183673469388 74.49041874526011 522.4489795918367 78.43685098752889 528.9795918367347 85.33622616372901 535.5102040816327 88.56515455189796 542.0408163265306 82.02557460423901 548.5714285714286 83.0876074866008 555.1020408163265 90.29414197992932 561.6326530612245 88.15327624445689 568.1632653061224 86.74203224611341 574.6938775510204 87.7663024748262 581.2244897959183 85.90010057894645 587.7551020408164 86.43113626200608 594.2857142857143 86.6814498535241 600.8163265306123 89.27129348073953 607.3469387755102 85.21681907442286 613.8775510204082 69.72134443282417 620.4081632653061 69.3692814593955 626.9387755102041 67.00838625605101 633.469387755102 64.10063131333001 640 60.39475875335114 640 320 0 320"
      />
      
      <polygon
        fill="#2c3e50"
        fillRule="evenodd"
        points="0 313.6135526881233 6.530612244897958 304.26911785593677 13.061224489795917 297.2680527962351 19.591836734693878 285.9388300615522 26.122448979591834 278.8280162971158 32.6530612244898 274.98420860562203 39.183673469387756 267.09076964508023 45.71428571428571 257.0788326695964 52.24489795918367 246.22213993616276 58.775510204081634 230.9923361082378 65.3061224489796 221.54628749561525 71.83673469387755 206.62812308583239 78.36734693877551 198.27736196871467 84.89795918367348 192.17036176959743 91.42857142857142 182.12955482175283 97.9591836734694 170.61730461579683 104.48979591836734 156.9519623037476 111.0204081632653 154.80424345830772 117.55102040816327 149.88800946085604 124.08163265306122 142.5257140463383 130.6122448979592 138.28627806638298 137.14285714285714 123.7869037652012 143.6734693877551 127.17496320597516 150.20408163265307 110.77255301917393 156.73469387755102 93.05731901746807 163.26530612244898 88.0189092938285 169.79591836734696 78.10633402464279 176.32653061224488 68.7838030739315 182.85714285714283 65.97385919111821 189.3877551020408 62.13361745162348 195.9183673469388 59.18925436427338 202.44897959183675 46.68396926733129 208.97959183673467 33.29408677935908 215.51020408163265 31.64654290948232 222.0408163265306 27.41479640617422 228.57142857142858 27.528996508986097 235.10204081632654 25.25120439080274 241.63265306122446 13.936318306565795 248.16326530612244 9.643155192626807 254.69387755102042 9.88405246751563 261.2244897959184 12.937919161102911 267.7551020408163 8.247177192142146 274.2857142857143 10.710292022911005 280.81632653061223 10.159193204760129 287.3469387755102 11.455775208892703 293.8775510204082 14.195786005199295 300.40816326530614 17.693266625914987 306.9387755102041 18.068068843923925 313.46938775510205 12.038953494743566 320 13.322822327611505 326.53061224489795 11.292866138679415 333.0612244897959 7.0297591143587965 339.5918367346939 1.9718597892972412 346.12244897959187 4.695619521024014 352.65306122448976 0.0665790275969016 359.1836734693877 0 365.71428571428567 3.134234981560496 372.2448979591837 11.121879823770712 378.7755102040816 13.499818362428528 385.3061224489796 18.04794994760141 391.8367346938776 21.31465163879932 398.36734693877554 21.568640374167046 404.8979591836735 27.066710758736974 411.42857142857144 30.681094158792803 417.95918367346934 36.747956862630076 424.48979591836735 42.80370551557871 431.0204081632653 46.960475787914675 437.55102040816325 38.51486143820546 444.0816326530612 42.63114339103254 450.61224489795916 50.61562710328093 457.14285714285717 58.06895081476358 463.6734693877551 56.64279037226714 470.2040816326531 59.47482838635892 476.7346938775511 65.8837300239685 483.2653061224489 69.9691576901431 489.7959183673469 77.37902839921469 496.3265306122449 75.2639600049526 502.85714285714283 75.90632963097275 509.38775510204084 75.93969555069694 515.9183673469388 75.353577490367 522.4489795918367 79.27366237625824 528.9795918367347 86.14830604698415 535.5102040816327 89.35244614915203 542.0408163265306 82.78959820741954 548.5714285714286 83.82830973680882 555.1020408163265 91.01223472988283 561.6326530612245 88.85014613709461 568.1632653061224 87.41763057718319 574.6938775510204 88.42193384012472 581.2244897959183 86.53571918209141 587.7551020408164 87.04735298173122 594.2857142857143 87.28065179414304 600.8163265306123 89.85220516625532 607.3469387755102 85.78056220280769 613.8775510204082 70.2678796604954 620.4081632653061 69.89966408625003 626.9387755102041 67.52257927096721 633.469387755102 64.59912888978934 640 60.87958845758993 640 320 0 320"
      />
      
      <polygon
        fill="#2b7489"
        fillRule="evenodd"
        points="0 313.6135526881233 6.530612244897958 304.26911785593677 13.061224489795917 297.2680527962351 19.591836734693878 285.9388300615522 26.122448979591834 278.8280162971158 32.6530612244898 274.98420860562203 39.183673469387756 267.09076964508023 45.71428571428571 257.0788326695964 52.24489795918367 246.22213993616276 58.775510204081634 230.9923361082378 65.3061224489796 221.54628749561525 71.83673469387755 206.62812308583239 78.36734693877551 198.27736196871467 84.89795918367348 192.17036176959743 91.42857142857142 182.12955482175283 97.9591836734694 170.61730461579683 104.48979591836734 156.9519623037476 111.0204081632653 154.80424345830772 117.55102040816327 149.88800946085604 124.08163265306122 142.5257140463383 130.6122448979592 138.28627806638298 137.14285714285714 123.7869037652012 143.6734693877551 127.17496320597516 150.20408163265307 110.77255301917393 156.73469387755102 93.05731901746807 163.26530612244898 88.0189092938285 169.79591836734696 78.10633402464279 176.32653061224488 68.7838030739315 182.85714285714283 65.97385919111821 189.3877551020408 62.13361745162348 195.9183673469388 59.18925436427338 202.44897959183675 46.68396926733129 208.97959183673467 33.29408677935908 215.51020408163265 31.64654290948232 222.0408163265306 27.41479640617422 228.57142857142858 27.528996508986097 235.10204081632654 25.25120439080274 241.63265306122446 13.936318306565795 248.16326530612244 9.643155192626807 254.69387755102042 9.88405246751563 261.2244897959184 12.937919161102911 267.7551020408163 8.247177192142146 274.2857142857143 10.710292022911005 280.81632653061223 10.159193204760129 287.3469387755102 11.455775208892703 293.8775510204082 14.195786005199295 300.40816326530614 17.693266625914987 306.9387755102041 18.068068843923925 313.46938775510205 12.038953494743566 320 13.322822327611505 326.53061224489795 11.292866138679415 333.0612244897959 7.0297591143587965 339.5918367346939 1.9718597892972412 346.12244897959187 4.695619521024014 352.65306122448976 0.0665790275969016 359.1836734693877 0 365.71428571428567 3.134234981560496 372.2448979591837 11.121879823770712 378.7755102040816 13.499818362428528 385.3061224489796 18.04794994760141 391.8367346938776 21.31465163879932 398.36734693877554 21.568640374167046 404.8979591836735 27.066710758736974 411.42857142857144 30.681094158792803 417.95918367346934 36.747956862630076 424.48979591836735 42.80370551557871 431.0204081632653 46.960475787914675 437.55102040816325 38.51486143820546 444.0816326530612 42.63114339103254 450.61224489795916 50.61562710328093 457.14285714285717 58.06895081476358 463.6734693877551 56.64279037226714 470.2040816326531 59.47482838635892 476.7346938775511 65.8837300239685 483.2653061224489 69.9691576901431 489.7959183673469 77.37902839921469 496.3265306122449 75.2639600049526 502.85714285714283 75.90632963097275 509.38775510204084 75.93969555069694 515.9183673469388 75.353577490367 522.4489795918367 79.27366237625824 528.9795918367347 86.14830604698415 535.5102040816327 89.35244614915203 542.0408163265306 84.99970274042045 548.5714285714286 87.49757917568371 555.1020408163265 94.56950165112283 561.6326530612245 94.6710101701619 568.1632653061224 95.57911410602077 574.6938775510204 99.3379408065775 581.2244897959183 99.23030021874706 587.7551020408164 100.29085601129145 594.2857142857143 100.92510692803529 600.8163265306123 103.11100893460213 607.3469387755102 98.64751190332186 613.8775510204082 83.41168138688616 620.4081632653061 83.12839143763205 626.9387755102041 80.37001141032519 633.469387755102 77.05439983682183 640 72.99335936839813 640 320 0 320"
      />
      
      <polygon
        fill="#2770da"
        fillRule="evenodd"
        points="0 313.6135526881233 6.530612244897958 304.26911785593677 13.061224489795917 297.2680527962351 19.591836734693878 285.9388300615522 26.122448979591834 278.8280162971158 32.6530612244898 274.98420860562203 39.183673469387756 267.09076964508023 45.71428571428571 257.0788326695964 52.24489795918367 246.22213993616276 58.775510204081634 230.9923361082378 65.3061224489796 221.54628749561525 71.83673469387755 206.62812308583239 78.36734693877551 198.27736196871467 84.89795918367348 192.17036176959743 91.42857142857142 182.12955482175283 97.9591836734694 170.61730461579683 104.48979591836734 156.9519623037476 111.0204081632653 154.80424345830772 117.55102040816327 149.88800946085604 124.08163265306122 142.5257140463383 130.6122448979592 138.28627806638298 137.14285714285714 123.7869037652012 143.6734693877551 127.17496320597516 150.20408163265307 110.77255301917393 156.73469387755102 93.05731901746807 163.26530612244898 88.0189092938285 169.79591836734696 78.10633402464279 176.32653061224488 68.7838030739315 182.85714285714283 65.97385919111821 189.3877551020408 62.13361745162348 195.9183673469388 59.18925436427338 202.44897959183675 46.68396926733129 208.97959183673467 33.29408677935908 215.51020408163265 31.64654290948232 222.0408163265306 27.41479640617422 228.57142857142858 27.528996508986097 235.10204081632654 25.25120439080274 241.63265306122446 14.574527174461764 248.16326530612244 11.080165212366751 254.69387755102042 11.27719855412272 261.2244897959184 14.289891556621967 267.7551020408163 9.557881365113417 274.2857142857143 11.980987605036773 280.81632653061223 11.39480292181105 287.3469387755102 12.653668620247458 293.8775510204082 15.358276357330908 300.40816326530614 18.820272642318344 306.9387755102041 19.161766803206888 313.46938775510205 13.099266949725518 320 14.350770368530164 326.53061224489795 12.290433617936458 333.0612244897959 7.9968764691299725 339.5918367346939 2.910394426920618 346.12244897959187 5.605505988738798 352.65306122448976 0.9486917414065488 359.1836734693877 0.8577560666743125 365.71428571428567 3.9658085054024923 372.2448979591837 11.928876709329984 378.7755102040816 14.282182096332463 385.3061224489796 18.807191389181867 391.8367346938776 22.05071761411017 398.36734693877554 22.282238399809387 404.8979591836735 27.759218805415514 411.42857142857144 31.352463779134382 417.95918367346934 37.3994844939553 424.48979591836735 43.43534566976024 431.0204081632653 47.572835480226445 437.55102040816325 40.2304026502531 444.0816326530612 44.29431848989958 450.61224489795916 52.22964810356996 457.14285714285717 59.6337046897292 463.6734693877551 58.161298635069954 470.2040816326531 60.94698510011307 476.7346938775511 67.3109499752722 483.2653061224489 71.35419698480842 489.7959183673469 78.72179024524686 496.3265306122449 76.56703723589237 502.85714285714283 77.1696311061626 509.38775510204084 77.16443538288621 515.9183673469388 76.54450033682653 522.4489795918367 80.42823304708762 528.9795918367347 87.26875394336162 535.5102040816327 90.43869307712 542.0408163265306 86.05384616811983 548.5714285714286 88.51954553297827 555.1020408163265 95.56027293492744 561.6326530612245 95.63249982052542 568.1632653061224 96.51125482065396 574.6938775510204 100.24253258777736 581.2244897959183 100.1072798742878 587.7551020408164 101.14106636106357 594.2857142857143 101.75184167415284 600.8163265306123 103.91250799375945 607.3469387755102 99.42532306377117 613.8775510204082 84.17684748496004 620.4081632653061 84.13462591048193 626.9387755102041 81.54087324248607 633.469387755102 78.21154936697607 640 74.11878198284927 640 320 0 320"
      />
      
      <polygon
        fill="#89e051"
        fillRule="evenodd"
        points="0 313.6135526881233 6.530612244897958 304.90984736410854 13.061224489795917 298.33448295042615 19.591836734693878 288.07682928504374 26.122448979591834 281.27136035599324 32.6530612244898 277.352970733494 39.183673469387756 269.9999654572734 45.71428571428571 260.0717490361712 52.24489795918367 250.17318782574213 58.775510204081634 235.18160697565222 65.3061224489796 226.78750516730696 71.83673469387755 213.32790158681937 78.36734693877551 205.81372642144964 84.89795918367348 200.4220498889485 91.42857142857142 190.45090029680998 97.9591836734694 178.68464857935385 104.48979591836734 164.7808800468309 111.0204081632653 162.39418669845034 117.55102040816327 158.35646890376805 124.08163265306122 150.82951160540614 130.6122448979592 146.47038235704895 137.14285714285714 132.58696066291364 143.6734693877551 135.70640485051007 150.20408163265307 119.05185048989125 156.73469387755102 102.43448225733104 163.26530612244898 97.17061089192748 169.79591836734696 87.08402426926543 176.32653061224488 77.51851653855695 182.85714285714283 74.59638189720178 189.3877551020408 71.29287540141388 195.9183673469388 68.12758818237174 202.44897959183675 55.4368323612382 208.97959183673467 42.60294847070344 215.51020408163265 40.81643051092448 222.0408163265306 36.30478046511587 228.57142857142858 36.65737493540951 235.10204081632654 34.265807629216226 241.63265306122446 23.330801210043262 248.16326530612244 19.76858867614402 254.69387755102042 20.332036231369443 261.2244897959184 23.771706260098938 267.7551020408163 19.358139676258304 274.2857142857143 21.6573110622777 280.81632653061223 22.197831847064094 287.3469387755102 24.033584615764823 293.8775510204082 26.401865859018073 300.40816326530614 29.526760903211084 306.9387755102041 29.794903788848956 313.46938775510205 23.469652715247207 320 24.701264454368243 326.53061224489795 22.404382248345144 333.0612244897959 17.802103847011267 339.5918367346939 12.431480786862721 346.12244897959187 14.83596565058457 352.65306122448976 10.202257152570269 359.1836734693877 9.855817327132854 365.71428571428567 12.71736007805589 372.2448979591837 20.455652918067358 378.7755102040816 22.802304626068292 385.3061224489796 27.111337276128836 391.8367346938776 30.808678625243317 398.36734693877554 30.772870607631432 404.8979591836735 35.99891581458991 411.42857142857144 39.340644426686424 417.95918367346934 45.23243626433543 424.48979591836735 51.02919655274786 431.0204081632653 55.06968167268792 437.55102040816325 47.53779084319842 444.0816326530612 51.37865405203286 450.61224489795916 59.10460881236463 457.14285714285717 66.29881275030675 463.6734693877551 64.91784430520227 470.2040816326531 67.4972933338573 476.7346938775511 73.66131194403184 483.2653061224489 78.6328697055558 489.7959183673469 85.77828793648482 496.3265306122449 83.41497992870262 502.85714285714283 83.8469881833995 509.38775510204084 83.6379680419989 515.9183673469388 82.83929085665619 522.4489795918367 87.04906442140822 528.9795918367347 93.69391084716614 535.5102040816327 96.66772545845842 542.0408163265306 92.09878418277171 548.5714285714286 94.37996378937439 555.1020408163265 101.24180612458329 561.6326530612245 101.14611914136734 568.1632653061224 101.85657269369653 574.6938775510204 105.42987318420501 581.2244897959183 105.13627986448964 587.7551020408164 106.01655784391082 594.2857142857143 106.49271460410972 600.8163265306123 108.50866867145078 607.3469387755102 104.55205553398827 613.8775510204082 89.14708939127121 620.4081632653061 88.95797414834033 626.9387755102041 86.2169938692347 633.469387755102 82.74493242145377 640 78.52786818958282 640 320 0 320"
      />
      
      <polygon
        fill="#0141ae"
        fillRule="evenodd"
        points="0 313.69579079706926 6.530612244897958 304.98957520760644 13.061224489795917 298.41185447398584 19.591836734693878 288.1546016682313 26.122448979591834 281.3468342190652 32.6530612244898 277.42614079604624 39.183673469387756 270.07090204968455 45.71428571428571 260.1686797414448 52.24489795918367 250.6255429834573 58.775510204081634 236.5914527638998 65.3061224489796 228.16534291151 71.83673469387755 215.56293807309004 78.36734693877551 209.34793783889754 84.89795918367348 203.84838169618078 91.42857142857142 193.8095770685076 97.9591836734694 182.16690766426112 104.48979591836734 169.20018952269064 111.0204081632653 166.68970270658954 117.55102040816327 162.52086669457196 124.08163265306122 154.87487651225638 130.6122448979592 151.50333900260267 137.14285714285714 138.3305061819649 143.6734693877551 141.27463150214325 150.20408163265307 124.4555112276623 156.73469387755102 107.98211307265638 163.26530612244898 102.61893322339955 169.79591836734696 92.52511401929604 176.32653061224488 83.01587377676637 182.85714285714283 79.93126719613599 189.3877551020408 76.46491762234137 195.9183673469388 73.6155841345165 202.44897959183675 61.011340731128826 208.97959183673467 50.211133200046106 215.51020408163265 49.30686502469359 222.0408163265306 44.53605020014936 228.57142857142858 46.726533121627256 235.10204081632654 45.53590478382074 241.63265306122446 38.06192732770211 248.16326530612244 34.37984787521941 254.69387755102042 35.18802402224486 261.2244897959184 40.45917018663437 267.7551020408163 36.767207446393456 274.2857142857143 38.534980506123134 280.81632653061223 38.690213665981275 287.3469387755102 40.02254325540747 293.8775510204082 41.96036522115469 300.40816326530614 45.10766319381213 306.9387755102041 44.91809913616311 313.46938775510205 38.142394353784994 320 38.92612528386235 326.53061224489795 36.36878116307224 333.0612244897959 33.70002971835106 339.5918367346939 28.41732605342611 346.12244897959187 30.372852243959017 352.65306122448976 26.293834829440414 359.1836734693877 25.536685608990922 365.71428571428567 28.083897898264524 372.2448979591837 35.368047220018525 378.7755102040816 37.588735757792676 385.3061224489796 41.46075871669029 391.8367346938776 45.374363385520724 398.36734693877554 45.02198594918366 404.8979591836735 49.82690891532633 411.42857142857144 53.20082446197995 417.95918367346934 58.857978941165925 424.48979591836735 64.62541289919713 431.0204081632653 68.6308360951821 437.55102040816325 63.21844231920841 444.0816326530612 66.93871934835192 450.61224489795916 74.20480218946349 457.14285714285717 80.93808716951617 463.6734693877551 80.26638004740803 470.2040816326531 82.74323675424813 476.7346938775511 88.44187287760374 483.2653061224489 93.40774847637906 489.7959183673469 100.10216533257415 496.3265306122449 98.34487693594494 502.85714285714283 99.94034860030015 509.38775510204084 99.86325224867522 515.9183673469388 98.67434303204871 522.4489795918367 102.40075155478036 528.9795918367347 108.59188293639764 535.5102040816327 111.11095087761805 542.0408163265306 106.11514560244655 548.5714285714286 107.96848095942659 555.1020408163265 114.41554082672369 561.6326530612245 113.93051677854473 568.1632653061224 114.3944363936942 574.6938775510204 117.59718280930207 581.2244897959183 116.9321897691269 587.7551020408164 117.45240769320472 594.2857142857143 117.64303937159059 600.8163265306123 119.31864216544753 607.3469387755102 115.05083403100605 613.8775510204082 99.80078080433157 620.4081632653061 99.38382522040285 626.9387755102041 97.92052393226652 633.469387755102 95.72571916643318 640 92.66898647585575 640 320 0 320"
      />
      
      <polygon
        fill="#26c0b0"
        fillRule="evenodd"
        points="0 313.69579079706926 6.530612244897958 305.07507630313467 13.061224489795917 298.5224275218207 19.591836734693878 288.3920417611764 26.122448979591834 281.7296833433361 32.6530612244898 277.8556692469276 39.183673469387756 270.54543058881933 45.71428571428571 260.80008577613586 52.24489795918367 251.72754152417468 58.775510204081634 237.79093687256943 65.3061224489796 230.20549971078836 71.83673469387755 218.21682927815957 78.36734693877551 212.42857364610802 84.89795918367348 207.47605986151905 91.42857142857142 198.30984842414722 97.9591836734694 186.52981247857366 104.48979591836734 173.80649691957592 111.0204081632653 171.1554048321327 117.55102040816327 166.87835721952263 124.08163265306122 159.35258156440858 130.6122448979592 156.04898289017223 137.14285714285714 143.1236377469426 143.6734693877551 145.92427849081417 150.20408163265307 128.9677386551874 156.73469387755102 112.62429310351638 163.26530612244898 107.3472211390083 169.79591836734696 97.39184664863188 176.32653061224488 88.07449859070903 182.85714285714283 84.90355437278191 189.3877551020408 81.479019351722 195.9183673469388 78.54027605690737 202.44897959183675 65.839044505999 208.97959183673467 55.25792175045348 215.51020408163265 54.27467562295851 222.0408163265306 49.44601792290706 228.57142857142858 52.031497363995925 235.10204081632654 50.7569062863177 241.63265306122446 43.287742536536314 248.16326530612244 39.62426893038037 254.69387755102042 40.27236026299454 261.2244897959184 46.015426997669465 267.7551020408163 42.22638075643533 274.2857142857143 45.29497143695994 280.81632653061223 46.22641474369328 287.3469387755102 47.342463545633734 293.8775510204082 49.1224662667064 300.40816326530614 52.19656503646161 306.9387755102041 51.84813058540544 313.46938775510205 44.899319177272446 320 45.54057835343389 326.53061224489795 42.9021670324874 333.0612244897959 40.53007976359834 339.5918367346939 35.11173167394065 346.12244897959187 37.18672816193214 352.65306122448976 32.91346914777506 359.1836734693877 31.973540267191765 365.71428571428567 34.329903814222234 372.2448979591837 41.45140045665988 378.7755102040816 43.650672892208945 385.3061224489796 47.72231135873335 391.8367346938776 51.45035601224345 398.36734693877554 51.04935395625506 404.8979591836735 55.676139578954405 411.42857142857144 59.07783093454492 417.95918367346934 64.64966522264638 424.48979591836735 70.24031034905909 431.0204081632653 74.11931693206483 437.55102040816325 68.6769313036823 444.0816326530612 72.31796630910537 450.61224489795916 79.43596767342103 457.14285714285717 86.08167028345477 463.6734693877551 85.88898345527173 470.2040816326531 88.95215099140569 476.7346938775511 94.47242135454059 483.2653061224489 100.00830953141872 489.7959183673469 106.5887473404556 496.3265306122449 104.63975335610115 502.85714285714283 106.09854876428926 509.38775510204084 105.83347804330958 515.9183673469388 104.4963149327246 522.4489795918367 108.04500872928935 528.9795918367347 114.08042408846183 535.5102040816327 116.431957416975 542.0408163265306 111.27889299602853 548.5714285714286 112.97460711064176 555.1020408163265 119.26885728412597 561.6326530612245 118.64039880241455 568.1632653061224 118.96055045238097 574.6938775510204 122.02834776324383 581.2244897959183 121.4712649532571 587.7551020408164 121.85293181571555 594.2857142857143 121.92205830421841 600.8163265306123 123.4698706963809 607.3469387755102 119.66094940169725 613.8775510204082 104.27017458888432 620.4081632653061 103.72112896311262 626.9387755102041 102.12543379669117 633.469387755102 99.80227698899012 640 96.63377317735112 640 320 0 320"
      />
      
      <polygon
        fill="#dea584"
        fillRule="evenodd"
        points="0 313.69579079706926 6.530612244897958 305.07507630313467 13.061224489795917 298.5224275218207 19.591836734693878 288.3920417611764 26.122448979591834 281.7296833433361 32.6530612244898 277.8556692469276 39.183673469387756 270.54543058881933 45.71428571428571 260.80008577613586 52.24489795918367 251.72754152417468 58.775510204081634 237.79093687256943 65.3061224489796 230.20549971078836 71.83673469387755 218.60522367951518 78.36734693877551 212.8051125385561 84.89795918367348 207.84110513614826 91.42857142857142 198.66410496711796 97.9591836734694 187.99625404631982 104.48979591836734 176.33194966869328 111.0204081632653 173.60376964179468 117.55102040816327 169.25198710106642 124.08163265306122 162.7599228233732 130.6122448979592 159.3523172462268 137.14285714285714 148.55733421205002 143.6734693877551 151.19211498857564 150.20408163265307 136.32713096747307 156.73469387755102 123.07438841247841 163.26530612244898 117.4783344219876 169.79591836734696 107.22353975271864 176.32653061224488 98.72226586103392 182.85714285714283 95.2366330921775 189.3877551020408 91.4966856352595 195.9183673469388 88.2521587557834 202.44897959183675 76.381593123951 208.97959183673467 66.58277214310257 215.51020408163265 65.26482505188014 222.0408163265306 60.1006962649584 228.57142857142858 62.37128422073414 235.10204081632654 60.781077772813944 241.63265306122446 53.00593007277678 248.16326530612244 49.05524060744756 254.69387755102042 49.41545744321701 261.2244897959184 54.88830497244487 267.7551020408163 51.93137909899741 274.2857142857143 54.70372976224024 280.81632653061223 55.37538160831025 287.3469387755102 56.21216341383024 293.8775510204082 57.73002834175554 300.40816326530614 60.54138513903331 306.9387755102041 61.064355042419436 313.46938775510205 54.09004223172286 320 54.45075618172427 326.53061224489795 51.54901103916052 333.0612244897959 48.91298268677622 339.5918367346939 43.24688202611969 346.12244897959187 45.073559781869164 352.65306122448976 41.66882499517715 359.1836734693877 40.48714731881029 365.71428571428567 42.58363720390798 372.2448979591837 49.461199010553344 378.7755102040816 51.47784745462263 385.3061224489796 55.31815921880997 391.8367346938776 58.8143449167635 398.36734693877554 58.188560920757595 404.8979591836735 62.604353352626674 411.42857142857144 65.79456293359175 417.95918367346934 71.16788680738225 424.48979591836735 76.55956684371247 431.0204081632653 80.2456840379617 437.55102040816325 74.62818401781874 444.0816326530612 78.08755976641024 450.61224489795916 85.03504528348006 457.14285714285717 91.50983768567784 463.6734693877551 91.15672542157341 470.2040816326531 94.0590974105703 476.7346938775511 99.42348159463268 483.2653061224489 104.81304462758769 489.7959183673469 111.24681954823569 496.3265306122449 109.16015919342397 502.85714285714283 110.48097155076442 509.38775510204084 110.08213018298844 515.9183673469388 108.62765414726081 522.4489795918367 112.05024122963204 528.9795918367347 117.96728480856015 535.5102040816327 120.20017385962086 542.0408163265306 116.05410756131721 548.5714285714286 117.60406187123772 555.1020408163265 123.75699994521429 561.6326530612245 123.35407174332687 568.1632653061224 123.53034168210365 574.6938775510204 126.46308056053314 581.2244897959183 125.77063044684326 587.7551020408164 126.02106277717016 594.2857142857143 126.0000577315378 600.8163265306123 127.4233919194055 607.3469387755102 123.49762583580858 613.8775510204082 107.9897388744536 620.4081632653061 107.33076343605535 626.9387755102041 105.62488609911026 633.469387755102 103.19491059132702 640 99.93338700120012 640 320 0 320"
      />
      
      <polygon
        fill="#701516"
        fillRule="evenodd"
        points="0 313.69579079706926 6.530612244897958 305.07507630313467 13.061224489795917 298.5224275218207 19.591836734693878 288.3920417611764 26.122448979591834 281.7296833433361 32.6530612244898 277.8556692469276 39.183673469387756 270.54543058881933 45.71428571428571 260.80008577613586 52.24489795918367 251.72754152417468 58.775510204081634 237.79093687256943 65.3061224489796 230.20549971078836 71.83673469387755 218.60522367951518 78.36734693877551 212.8051125385561 84.89795918367348 207.84110513614826 91.42857142857142 198.66410496711796 97.9591836734694 187.99625404631982 104.48979591836734 176.33194966869328 111.0204081632653 173.60376964179468 117.55102040816327 169.25198710106642 124.08163265306122 162.7599228233732 130.6122448979592 159.3523172462268 137.14285714285714 148.55733421205002 143.6734693877551 151.19211498857564 150.20408163265307 136.32713096747307 156.73469387755102 123.07438841247841 163.26530612244898 117.4783344219876 169.79591836734696 107.22353975271864 176.32653061224488 98.72226586103392 182.85714285714283 95.2366330921775 189.3877551020408 91.4966856352595 195.9183673469388 88.2521587557834 202.44897959183675 76.381593123951 208.97959183673467 66.58277214310257 215.51020408163265 65.26482505188014 222.0408163265306 60.1006962649584 228.57142857142858 62.37128422073414 235.10204081632654 60.781077772813944 241.63265306122446 53.00593007277678 248.16326530612244 49.05524060744756 254.69387755102042 49.41545744321701 261.2244897959184 54.88830497244487 267.7551020408163 51.93137909899741 274.2857142857143 54.70372976224024 280.81632653061223 55.37538160831025 287.3469387755102 56.21216341383024 293.8775510204082 57.73002834175554 300.40816326530614 60.54138513903331 306.9387755102041 61.064355042419436 313.46938775510205 54.09004223172286 320 54.45075618172427 326.53061224489795 51.54901103916052 333.0612244897959 48.91298268677622 339.5918367346939 43.24688202611969 346.12244897959187 45.073559781869164 352.65306122448976 41.66882499517715 359.1836734693877 40.48714731881029 365.71428571428567 42.58363720390798 372.2448979591837 49.461199010553344 378.7755102040816 51.47784745462263 385.3061224489796 55.31815921880997 391.8367346938776 58.8143449167635 398.36734693877554 58.188560920757595 404.8979591836735 62.604353352626674 411.42857142857144 65.79456293359175 417.95918367346934 71.16788680738225 424.48979591836735 76.55956684371247 431.0204081632653 80.2456840379617 437.55102040816325 74.62818401781874 444.0816326530612 78.08755976641024 450.61224489795916 85.03504528348006 457.14285714285717 91.50983768567784 463.6734693877551 91.15672542157341 470.2040816326531 94.0590974105703 476.7346938775511 99.42348159463268 483.2653061224489 104.81304462758769 489.7959183673469 111.24681954823569 496.3265306122449 109.16015919342397 502.85714285714283 110.48097155076442 509.38775510204084 110.08213018298844 515.9183673469388 108.62765414726081 522.4489795918367 112.05024122963204 528.9795918367347 117.96728480856015 535.5102040816327 120.20017385962086 542.0408163265306 116.05410756131721 548.5714285714286 117.60406187123772 555.1020408163265 123.75699994521429 561.6326530612245 123.35407174332687 568.1632653061224 123.53034168210365 574.6938775510204 126.46308056053314 581.2244897959183 125.77063044684326 587.7551020408164 126.02106277717016 594.2857142857143 126.0000577315378 600.8163265306123 127.4233919194055 607.3469387755102 123.49762583580858 613.8775510204082 108.00929510308691 620.4081632653061 107.3497416900957 626.9387755102041 105.64328505408955 633.469387755102 103.21274792771081 640 99.95073527188393 640 320 0 320"
      />
      
      <polygon
        fill="#3572A5"
        fillRule="evenodd"
        points="0 313.69579079706926 6.530612244897958 305.07507630313467 13.061224489795917 298.5224275218207 19.591836734693878 288.3920417611764 26.122448979591834 281.7296833433361 32.6530612244898 277.8556692469276 39.183673469387756 270.54543058881933 45.71428571428571 260.80008577613586 52.24489795918367 251.72754152417468 58.775510204081634 237.79093687256943 65.3061224489796 230.20549971078836 71.83673469387755 218.60522367951518 78.36734693877551 212.8051125385561 84.89795918367348 207.84110513614826 91.42857142857142 198.66410496711796 97.9591836734694 187.99625404631982 104.48979591836734 176.33194966869328 111.0204081632653 173.60376964179468 117.55102040816327 169.25198710106642 124.08163265306122 163.4215505657727 130.6122448979592 159.9937491642457 137.14285714285714 149.2162281149063 143.6734693877551 151.83089653216535 150.20408163265307 137.94827604352793 156.73469387755102 125.43995712378495 163.26530612244898 119.77169538045274 169.79591836734696 109.44912185998703 176.32653061224488 100.87991314019686 182.85714285714283 97.3305124283334 189.3877551020408 93.52665009363935 195.9183673469388 90.22015989727475 202.44897959183675 78.29525501354098 208.97959183673467 68.47389105381535 215.51020408163265 67.10005295622804 222.0408163265306 61.87990492896114 228.57142857142858 64.09790945195027 235.10204081632654 62.45499863262586 241.63265306122446 54.62875554828179 248.16326530612244 50.630104313787456 254.69387755102042 50.94224933344242 261.2244897959184 56.36997340058667 267.7551020408163 53.403653977076374 274.2857142857143 56.13106428156317 280.81632653061223 56.76330503726467 287.3469387755102 57.557721336041766 293.8775510204082 59.03581893384728 300.40816326530614 61.80731705484453 306.9387755102041 62.29287315320596 313.46938775510205 55.28106053440655 320 55.6054192262302 326.53061224489795 52.66954874042477 333.0612244897959 49.999316748089825 339.5918367346939 44.30110991562333 346.12244897959187 46.095608032178404 352.65306122448976 42.65967575733407 359.1836734693877 41.4506391352179 365.71428571428567 43.51771889601531 372.2448979591837 50.36767443384201 378.7755102040816 52.37898493297837 385.3061224489796 56.19266389688005 391.8367346938776 59.66215586285705 398.36734693877554 59.01049291385709 404.8979591836735 63.40199363759365 411.42857142857144 66.56785569576428 417.95918367346934 71.91832531502058 424.48979591836735 77.2870986318564 431.0204081632653 80.95100833115924 437.55102040816325 75.31334759685296 444.0816326530612 78.75180921554627 450.61224489795916 85.67966318912465 457.14285714285717 92.13477889878376 463.6734693877551 91.76319688282928 470.2040816326531 94.6470566835707 476.7346938775511 99.99349376172913 483.2653061224489 105.3662103637777 489.7959183673469 111.78310021892264 496.3265306122449 109.68059032909937 502.85714285714283 110.98551688011813 509.38775510204084 110.5712745496578 515.9183673469388 109.10329247545886 522.4489795918367 112.51136096412199 528.9795918367347 118.41477635349241 535.5102040816327 120.63400606071434 542.0408163265306 116.47511800840661 548.5714285714286 118.01222121846988 555.1020408163265 124.1527004775972 561.6326530612245 123.73807752165973 568.1632653061224 123.902625929323 574.6938775510204 126.82436214729037 581.2244897959183 126.12088411679835 587.7551020408164 126.36062517534685 594.2857142857143 126.33024425292444 600.8163265306123 127.74349969177285 607.3469387755102 123.80827296132682 613.8775510204082 108.32987620063875 620.4081632653061 107.66084815630748 626.9387755102041 105.94489515700073 633.469387755102 103.50515157064822 640 100.23512174281359 640 320 0 320"
      />
      
      <polygon
        fill="#0298c3"
        fillRule="evenodd"
        points="0 313.69579079706926 6.530612244897958 305.07507630313467 13.061224489795917 298.5224275218207 19.591836734693878 288.3920417611764 26.122448979591834 281.7296833433361 32.6530612244898 277.8556692469276 39.183673469387756 270.54543058881933 45.71428571428571 260.80008577613586 52.24489795918367 251.72754152417468 58.775510204081634 237.79093687256943 65.3061224489796 230.20549971078836 71.83673469387755 218.60522367951518 78.36734693877551 212.8051125385561 84.89795918367348 207.84110513614826 91.42857142857142 198.66410496711796 97.9591836734694 187.99625404631982 104.48979591836734 176.33194966869328 111.0204081632653 173.60376964179468 117.55102040816327 169.25198710106642 124.08163265306122 163.4215505657727 130.6122448979592 159.9937491642457 137.14285714285714 149.2162281149063 143.6734693877551 151.83089653216535 150.20408163265307 137.94827604352793 156.73469387755102 126.078068346848 163.26530612244898 120.39032862227077 169.79591836734696 110.04947174133338 176.32653061224488 101.46193768704836 182.85714285714283 97.89533556837165 189.3877551020408 94.07423230860405 195.9183673469388 90.75102751161882 202.44897959183675 78.81146449752214 208.97959183673467 68.97434347921308 215.51020408163265 67.69018898049367 222.0408163265306 62.45202740814676 228.57142857142858 64.6531231300163 235.10204081632654 62.99326474139855 241.63265306122446 55.15059140089994 248.16326530612244 51.13651763616326 254.69387755102042 51.43320463517779 261.2244897959184 56.84641880139816 267.7551020408163 53.8655561648996 274.2857142857143 56.578867143253035 280.81632653061223 57.19874332786071 287.3469387755102 57.97986814375474 293.8775510204082 59.445489387015186 300.40816326530614 62.204482557700715 306.9387755102041 62.67830064359413 313.46938775510205 55.654723081135785 320 55.96767595637141 326.53061224489795 53.021099155955255 333.0612244897959 50.340136281105174 339.5918367346939 44.6318566900369 346.12244897959187 46.4162589699838 352.65306122448976 42.97053900026481 359.1836734693877 41.75291893187102 365.71428571428567 43.81077178512891 372.2448979591837 50.65206628895487 378.7755102040816 52.65469590248375 385.3061224489796 56.46022635729952 391.8367346938776 59.92155115450237 398.36734693877554 59.26197029152752 404.8979591836735 63.646038746388854 411.42857142857144 66.80445146864571 417.95918367346934 72.14792862664368 424.48979591836735 77.50969344269845 431.0204081632653 81.16680854947361 437.55102040816325 75.52297949356102 444.0816326530612 78.95504221608729 450.61224489795916 85.87688975318434 457.14285714285717 92.32598522682406 463.6734693877551 91.94875221267719 470.2040816326531 94.82694803770084 476.7346938775511 100.16789405051173 483.2653061224489 105.53545633498811 489.7959183673469 111.94718004585323 496.3265306122449 109.83982086681823 502.85714285714283 111.13988701090358 509.38775510204084 110.72093260570054 515.9183673469388 109.24881823258721 522.4489795918367 112.6524446263019 528.9795918367347 118.55169036655616 535.5102040816327 120.76674085848919 542.0408163265306 116.60392989445063 548.5714285714286 118.13710119174405 555.1020408163265 124.27376857250525 561.6326530612245 123.85556749806153 568.1632653061224 124.01652960819223 574.6938775510204 126.93489945812337 581.2244897959183 126.22804733267583 587.7551020408164 126.4645172944594 594.2857142857143 126.43126774604474 600.8163265306123 127.84143950393997 607.3469387755102 126.40252354912695 613.8775510204082 115.17774645358031 620.4081632653061 114.40697132198687 626.9387755102041 112.69061851625594 633.469387755102 110.04496486007096 640 107.03632160853263 640 320 0 320"
      />
      
      <polygon
        fill="#fd2fdb"
        fillRule="evenodd"
        points="0 313.69579079706926 6.530612244897958 305.07507630313467 13.061224489795917 298.5224275218207 19.591836734693878 288.3920417611764 26.122448979591834 281.7296833433361 32.6530612244898 277.8556692469276 39.183673469387756 270.54543058881933 45.71428571428571 260.80008577613586 52.24489795918367 251.72754152417468 58.775510204081634 237.79093687256943 65.3061224489796 230.20549971078836 71.83673469387755 218.60522367951518 78.36734693877551 212.8051125385561 84.89795918367348 207.84110513614826 91.42857142857142 198.66410496711796 97.9591836734694 187.99625404631982 104.48979591836734 176.33194966869328 111.0204081632653 173.60376964179468 117.55102040816327 169.25198710106642 124.08163265306122 163.4215505657727 130.6122448979592 159.9937491642457 137.14285714285714 149.2162281149063 143.6734693877551 151.83089653216535 150.20408163265307 137.94827604352793 156.73469387755102 126.078068346848 163.26530612244898 120.39032862227077 169.79591836734696 110.04947174133338 176.32653061224488 101.46193768704836 182.85714285714283 97.89533556837165 189.3877551020408 94.07423230860405 195.9183673469388 90.75102751161882 202.44897959183675 78.81146449752214 208.97959183673467 68.97434347921308 215.51020408163265 67.69018898049367 222.0408163265306 62.45202740814676 228.57142857142858 64.6531231300163 235.10204081632654 62.99326474139855 241.63265306122446 55.15059140089994 248.16326530612244 51.13651763616326 254.69387755102042 51.43320463517779 261.2244897959184 56.84641880139816 267.7551020408163 53.8655561648996 274.2857142857143 56.578867143253035 280.81632653061223 58.32834659612297 287.3469387755102 59.07499095929148 293.8775510204082 60.508246377482294 300.40816326530614 63.23479953645244 306.9387755102041 64.55892779528452 313.46938775510205 57.477945181830194 320 57.73524512612755 326.53061224489795 54.73642869973412 333.0612244897959 52.00310659605981 339.5918367346939 46.24567876325398 346.12244897959187 47.980819980220986 352.65306122448976 44.4873427169947 359.1836734693877 43.22784120458317 365.71428571428567 45.24067293633789 372.2448979591837 52.03970735654889 378.7755102040816 53.99998009446813 385.3061224489796 57.76575143929102 391.8367346938776 61.18722578034033 398.36734693877554 60.489010834496185 404.8979591836735 64.83681476083092 411.42857142857144 67.95887982852736 417.95918367346934 73.26823847626429 424.48979591836735 78.59580648534887 431.0204081632653 82.21976858714811 437.55102040816325 76.5458422556986 444.0816326530612 79.94668257281288 450.61224489795916 86.83922278857216 457.14285714285717 93.2589435358332 463.6734693877551 92.85413744163014 470.2040816326531 95.7046969943718 476.7346938775511 101.0188501199249 483.2653061224489 106.36126282327072 489.7959183673469 112.74777930936517 496.3265306122449 110.61675890593409 502.85714285714283 111.89310943920847 509.38775510204084 111.45116336977424 515.9183673469388 109.95888611443917 522.4489795918367 113.34083809871476 528.9795918367347 119.2197387473584 535.5102040816327 121.41439743680948 542.0408163265306 117.2324453215025 548.5714285714286 118.74643156177453 555.1020408163265 124.86449946680733 561.6326530612245 124.42883962365096 568.1632653061224 124.5723029741514 574.6938775510204 127.4742472020246 581.2244897959183 126.75093180633769 587.7551020408164 126.97144101479216 594.2857142857143 126.92419449109977 600.8163265306123 128.3193199436875 607.3469387755102 126.86628050584312 613.8775510204082 115.62734745776362 620.4081632653061 114.84328462454553 626.9387755102041 114.22089687057223 633.469387755102 111.52853244579114 640 109.60140194561177 640 320 0 320"
      />
      
      <polygon
        fill="#4F5D95"
        fillRule="evenodd"
        points="0 313.69579079706926 6.530612244897958 305.07507630313467 13.061224489795917 298.5224275218207 19.591836734693878 288.3920417611764 26.122448979591834 281.7296833433361 32.6530612244898 277.8556692469276 39.183673469387756 270.54543058881933 45.71428571428571 260.80008577613586 52.24489795918367 251.72754152417468 58.775510204081634 237.79093687256943 65.3061224489796 230.20549971078836 71.83673469387755 218.60522367951518 78.36734693877551 212.8051125385561 84.89795918367348 207.84110513614826 91.42857142857142 198.66410496711796 97.9591836734694 187.99625404631982 104.48979591836734 176.33194966869328 111.0204081632653 173.60376964179468 117.55102040816327 169.25198710106642 124.08163265306122 163.4215505657727 130.6122448979592 159.9937491642457 137.14285714285714 149.2162281149063 143.6734693877551 151.83089653216535 150.20408163265307 137.94827604352793 156.73469387755102 126.078068346848 163.26530612244898 120.39032862227077 169.79591836734696 110.04947174133338 176.32653061224488 101.46193768704836 182.85714285714283 97.89533556837165 189.3877551020408 94.07423230860405 195.9183673469388 90.75102751161882 202.44897959183675 78.81146449752214 208.97959183673467 68.97434347921308 215.51020408163265 67.69018898049367 222.0408163265306 62.45202740814676 228.57142857142858 64.67275019764858 235.10204081632654 63.01229270357402 241.63265306122446 55.169038545345984 248.16326530612244 51.15441958479988 254.69387755102042 51.45056013854577 261.2244897959184 56.86326137192748 267.7551020408163 53.88188462505707 274.2857142857143 56.59469718628861 280.81632653061223 58.34373954623851 287.3469387755102 59.08991404797854 293.8775510204082 60.52272842245094 300.40816326530614 63.24883952559952 306.9387755102041 64.57255284064365 313.46938775510205 57.49115432986673 320 57.74805107282748 326.53061224489795 54.74885617329437 333.0612244897959 52.015154728229504 339.5918367346939 46.25737081904737 346.12244897959187 47.9921551427629 352.65306122448976 44.49833188052207 359.1836734693877 43.238526939078554 365.71428571428567 45.251032495168715 372.2448979591837 52.04976074339402 378.7755102040816 54.00972660804803 385.3061224489796 57.77520989958634 391.8367346938776 61.196395527172115 398.36734693877554 60.49790067984054 404.8979591836735 64.84544187139534 411.42857142857144 67.96724360167389 417.95918367346934 73.27635506248728 424.48979591836735 78.60367531694581 431.0204081632653 82.22739722766332 437.55102040816325 76.55325284296151 444.0816326530612 79.95386695554001 450.61224489795916 86.8461948402828 457.14285714285717 93.26570277010131 463.6734693877551 92.86069691016786 470.2040816326531 95.71105623900974 476.7346938775511 101.02501525253297 483.2653061224489 106.36724574864772 489.7959183673469 112.75357960941491 496.3265306122449 110.62238778129881 502.85714285714283 111.89856649634959 509.38775510204084 111.45645385313273 515.9183673469388 109.96403051915479 522.4489795918367 113.3458254731124 528.9795918367347 119.22457872265255 535.5102040816327 121.4190896748446 542.0408163265306 117.23699888281084 548.5714285714286 118.75084612813438 555.1020408163265 124.86877928103723 561.6326530612245 124.43299295026651 568.1632653061224 124.57632952318767 574.6938775510204 127.47815474828315 581.2244897959183 126.75472007691027 587.7551020408164 126.97511365078401 594.2857142857143 126.92776571959837 600.8163265306123 128.32278216251396 607.3469387755102 126.86964040052939 613.8775510204082 115.6306047937278 620.4081632653061 114.84644569162333 626.9387755102041 114.22396144774495 633.469387755102 111.53150347853574 640 109.60429151833694 640 320 0 320"
      />
      
      <polygon
        fill="#755462"
        fillRule="evenodd"
        points="0 318.0212243682201 6.530612244897958 313.5273653178296 13.061224489795917 310.896123984113 19.591836734693878 304.6063603185121 26.122448979591834 301.51236414375484 32.6530612244898 299.6347424797794 39.183673469387756 295.6873341207609 45.71428571428571 289.6072534900999 52.24489795918367 284.8540407008057 58.775510204081634 274.44712670508505 65.3061224489796 270.196782051544 71.83673469387755 262.9523800572584 78.36734693877551 259.7806514234426 84.89795918367348 257.2939724479767 91.42857142857142 251.48860325144344 97.9591836734694 243.1157953325859 104.48979591836734 233.69080868884458 111.0204081632653 232.4422874745537 117.55102040816327 230.48714459470517 124.08163265306122 226.74328453204055 130.6122448979592 225.02620457388036 137.14285714285714 216.76218873015446 143.6734693877551 218.75159216405763 150.20408163265307 208.35863134061336 156.73469387755102 198.35249669298182 163.26530612244898 194.34756388819233 169.79591836734696 186.11870113990443 176.32653061224488 178.69896455720794 182.85714285714283 176.4750636611272 189.3877551020408 173.87234761669652 195.9183673469388 171.38701624884158 202.44897959183675 162.65612224564936 208.97959183673467 154.12871713554995 215.51020408163265 153.54802774281697 222.0408163265306 149.77123417311606 228.57142857142858 151.99188092644366 235.10204081632654 150.24044717743897 241.63265306122446 143.46427852302244 248.16326530612244 140.69799372777868 254.69387755102042 142.92940390504896 261.2244897959184 147.05367216638965 267.7551020408163 144.4472462348179 274.2857142857143 147.14075177289453 280.81632653061223 149.5343342863633 287.3469387755102 150.79099511145273 293.8775510204082 152.38227709311218 300.40816326530614 155.03555170645984 306.9387755102041 154.49051780277327 313.46938775510205 148.8869542639388 320 148.96306267251742 326.53061224489795 145.90477841797798 333.0612244897959 141.7891297817486 339.5918367346939 137.45870309999006 346.12244897959187 139.37110381660398 352.65306122448976 135.0640531208366 359.1836734693877 134.18773765155277 365.71428571428567 137.09703850669314 372.2448979591837 142.45249741676687 378.7755102040816 144.39924531729827 385.3061224489796 146.97576020030905 391.8367346938776 149.82614843317225 398.36734693877554 149.06464425779876 404.8979591836735 151.71946916653735 411.42857142857144 154.19242956187458 417.95918367346934 158.30299513875724 424.48979591836735 162.42165875314637 431.0204081632653 164.48557355854038 437.55102040816325 158.22329655891124 444.0816326530612 161.3478274329854 450.61224489795916 165.87471103859326 457.14285714285717 170.07076710704035 463.6734693877551 168.56369910315738 470.2040816326531 169.21381815408017 476.7346938775511 173.47284717650734 483.2653061224489 177.15381056796988 489.7959183673469 181.49373355137809 496.3265306122449 177.55143711719592 502.85714285714283 179.1102392092492 509.38775510204084 179.84349888459786 515.9183673469388 178.85215188365254 522.4489795918367 181.1913049087764 528.9795918367347 185.21860403163998 535.5102040816327 189.19432401572612 542.0408163265306 186.26907008280025 548.5714285714286 186.9422141202938 555.1020408163265 190.98337330194585 561.6326530612245 193.06121958875627 568.1632653061224 195.3848472190242 574.6938775510204 199.0288317426536 581.2244897959183 200.4562446614373 587.7551020408164 202.5486180189617 594.2857142857143 204.68154573238473 600.8163265306123 208.1474073799943 607.3469387755102 207.11137540936195 613.8775510204082 197.53798720735682 620.4081632653061 198.09257133672583 626.9387755102041 198.37922285746922 633.469387755102 197.54836676164643 640 197.73605988655044 640 320 0 320"
      />
      
      <polygon
        fill="#2415b9"
        fillRule="evenodd"
        points="0 318.0212243682201 6.530612244897958 313.5273653178296 13.061224489795917 310.896123984113 19.591836734693878 304.6063603185121 26.122448979591834 301.51236414375484 32.6530612244898 299.6347424797794 39.183673469387756 295.6873341207609 45.71428571428571 289.6072534900999 52.24489795918367 284.8540407008057 58.775510204081634 274.44712670508505 65.3061224489796 270.196782051544 71.83673469387755 262.9523800572584 78.36734693877551 259.7806514234426 84.89795918367348 257.2939724479767 91.42857142857142 251.48860325144344 97.9591836734694 243.1157953325859 104.48979591836734 233.69080868884458 111.0204081632653 232.4422874745537 117.55102040816327 230.48714459470517 124.08163265306122 226.74328453204055 130.6122448979592 225.02620457388036 137.14285714285714 216.76218873015446 143.6734693877551 218.75159216405763 150.20408163265307 208.35863134061336 156.73469387755102 198.35249669298182 163.26530612244898 194.34756388819233 169.79591836734696 186.11870113990443 176.32653061224488 178.69896455720794 182.85714285714283 176.4750636611272 189.3877551020408 173.87234761669652 195.9183673469388 171.38701624884158 202.44897959183675 162.65612224564936 208.97959183673467 154.12871713554995 215.51020408163265 153.54802774281697 222.0408163265306 149.77123417311606 228.57142857142858 151.99188092644366 235.10204081632654 150.24044717743897 241.63265306122446 143.46427852302244 248.16326530612244 140.69799372777868 254.69387755102042 142.92940390504896 261.2244897959184 147.05367216638965 267.7551020408163 144.4472462348179 274.2857142857143 147.14075177289453 280.81632653061223 149.5343342863633 287.3469387755102 150.79099511145273 293.8775510204082 152.38227709311218 300.40816326530614 155.03555170645984 306.9387755102041 154.49051780277327 313.46938775510205 148.8869542639388 320 148.96306267251742 326.53061224489795 145.90477841797798 333.0612244897959 142.14876033545923 339.5918367346939 137.81833365370068 346.12244897959187 139.7307343703146 352.65306122448976 135.42368367454725 359.1836734693877 134.5473682052634 365.71428571428567 137.45666906040378 372.2448979591837 142.81212797047755 378.7755102040816 144.7588758710089 385.3061224489796 147.33539075401967 391.8367346938776 150.1857789868829 398.36734693877554 149.4242748115094 404.8979591836735 152.07909972024797 411.42857142857144 154.55206011558522 417.95918367346934 158.66262569246786 424.48979591836735 162.78128930685702 431.0204081632653 164.84520411225103 437.55102040816325 158.58292711262186 444.0816326530612 161.70745798669606 450.61224489795916 166.2343415923039 457.14285714285717 170.430397660751 463.6734693877551 168.923329656868 470.2040816326531 169.57344870779082 476.7346938775511 173.832477730218 483.2653061224489 177.51344112168053 489.7959183673469 181.85336410508873 496.3265306122449 177.91106767090656 502.85714285714283 179.46986976295983 509.38775510204084 180.2031294383085 515.9183673469388 179.21178243736318 522.4489795918367 181.55093546248702 528.9795918367347 185.57823458535063 535.5102040816327 189.55395456943677 542.0408163265306 186.62870063651093 548.5714285714286 187.30184467400446 555.1020408163265 191.3430038556565 561.6326530612245 193.42085014246692 568.1632653061224 195.74447777273483 574.6938775510204 199.38846229636425 581.2244897959183 200.8158752151479 587.7551020408164 202.9082485726723 594.2857142857143 205.04117628609535 600.8163265306123 208.50703793370494 607.3469387755102 207.4710059630726 613.8775510204082 197.89761776106744 620.4081632653061 198.45220189043644 626.9387755102041 198.73885341117986 633.469387755102 197.90799731535705 640 197.73605988655044 640 320 0 320"
      />
      
      <polygon
        fill="#f1e05a"
        fillRule="evenodd"
        points="0 318.0212243682201 6.530612244897958 313.5273653178296 13.061224489795917 310.896123984113 19.591836734693878 304.6063603185121 26.122448979591834 301.51236414375484 32.6530612244898 299.6347424797794 39.183673469387756 295.6873341207609 45.71428571428571 289.6072534900999 52.24489795918367 284.8540407008057 58.775510204081634 275.55863120610127 65.3061224489796 271.2743584923652 71.83673469387755 264.38154016402353 78.36734693877551 261.62330446570553 84.89795918367348 259.0916295428753 91.42857142857142 253.23313150813283 97.9591836734694 246.0081401928028 104.48979591836734 237.6111166944634 111.0204081632653 236.28996963112445 117.55102040816327 234.217377885784 124.08163265306122 230.51370181092352 130.6122448979592 228.68153164994584 137.14285714285714 222.60334414657797 143.6734693877551 224.41444994456248 150.20408163265307 213.85412600080934 156.73469387755102 203.68024455844392 163.26530612244898 199.51268630350853 169.79591836734696 191.13117076308075 176.32653061224488 184.67461234757323 182.85714285714283 182.27410479843738 189.3877551020408 179.4943760266807 195.9183673469388 176.83743512369017 202.44897959183675 169.27913400864125 208.97959183673467 161.9144124236566 215.51020408163265 161.1036211275009 222.0408163265306 157.6520424950364 228.57142857142858 159.74992473503346 235.10204081632654 157.76168145902136 241.63265306122446 151.88570609862967 248.16326530612244 148.87052921728977 254.69387755102042 150.8524801197048 261.2244897959184 154.74258470739758 267.7551020408163 153.0044189317129 274.2857142857143 155.44776031904905 280.81632653061223 157.61197560294053 287.3469387755102 159.39932063079166 293.8775510204082 161.38441039895466 300.40816326530614 163.76289706030087 306.9387755102041 164.0801370050559 313.46938775510205 158.18385515682468 320 157.9761801229861 326.53061224489795 154.65151648979736 333.0612244897959 150.62850919796173 339.5918367346939 146.0474703685444 346.12244897959187 147.7086795213017 352.65306122448976 144.26952822060025 359.1836734693877 143.14896349566857 365.71428571428567 145.7957073311876 372.2448979591837 150.90470936777177 378.7755102040816 152.60443731611798 385.3061224489796 154.94908091338175 391.8367346938776 157.5670661210364 398.36734693877554 156.58025289000528 404.8979591836735 159.02358626271769 411.42857142857144 161.28457013453922 417.95918367346934 165.19615931866485 424.48979591836735 169.1153909397612 431.0204081632653 170.98596013935344 437.55102040816325 165.6690433597539 444.0816326530612 168.57727495105678 450.61224489795916 172.9011265587776 457.14285714285717 176.8936826986115 463.6734693877551 175.19559353532276 470.2040816326531 175.65425576011188 476.7346938775511 179.72767226115792 483.2653061224489 183.23440595202217 489.7959183673469 187.39969994216597 496.3265306122449 183.29348400435404 502.85714285714283 184.68799093297636 509.38775510204084 185.26197064709294 515.9183673469388 184.13094098130307 522.4489795918367 186.31994074938692 528.9795918367347 190.20629346564021 535.5102040816327 194.04074337561775 542.0408163265306 190.98288687593404 548.5714285714286 191.52311988640628 555.1020408163265 195.43542765347883 561.6326530612245 197.39232432823593 568.1632653061224 199.59472491716622 574.6938775510204 203.12491894279927 581.2244897959183 204.43827760026323 587.7551020408164 206.42007894774378 594.2857142857143 208.45603947496983 600.8163265306123 211.81766426161812 607.3469387755102 210.6837884282504 613.8775510204082 201.0123324678023 620.4081632653061 201.47486288910227 626.9387755102041 201.6692491362595 633.469387755102 200.748944187844 640 200.49911406915442 640 320 0 320"
      />
      
      <polygon
        fill="#22e8e8"
        fillRule="evenodd"
        points="0 319.925674269801 6.530612244897958 319.8564690108015 13.061224489795917 319.8272329271388 19.591836734693878 318.66030313104966 26.122448979591834 318.54753019229224 32.6530612244898 318.40759815314846 39.183673469387756 318.269544581318 45.71428571428571 316.01153630173997 52.24489795918367 316.0194991284335 58.775510204081634 310.27120182115124 65.3061224489796 309.379872814041 71.83673469387755 306.93693697694266 78.36734693877551 307.02226821382277 84.89795918367348 306.27910693319035 91.42857142857142 304.58411860728734 97.9591836734694 300.15630496827436 104.48979591836734 294.7536579365578 111.0204081632653 293.4787850503227 117.55102040816327 293.780962290617 124.08163265306122 290.8838656216188 130.6122448979592 291.2549360848939 137.14285714285714 286.9785428663145 143.6734693877551 287.2959241869778 150.20408163265307 280.0896380890341 156.73469387755102 272.3565383892268 163.26530612244898 270.6873746915539 169.79591836734696 264.6410533631147 176.32653061224488 259.71605872427403 182.85714285714283 258.48214131558206 189.3877551020408 256.497637899349 195.9183673469388 254.70957468928208 202.44897959183675 249.75803509248738 208.97959183673467 243.84333876248462 215.51020408163265 243.3268341759462 222.0408163265306 241.8302935447856 228.57142857142858 242.76857275223938 235.10204081632654 241.70746423630445 241.63265306122446 237.2178471926975 248.16326530612244 234.04439484963774 254.69387755102042 235.7303204855873 261.2244897959184 237.40442372946575 267.7551020408163 235.56053068105354 274.2857142857143 237.00510095704522 280.81632653061223 238.3993831884976 287.3469387755102 240.81758596857273 293.8775510204082 242.54148736825022 300.40816326530614 244.5917238104867 306.9387755102041 243.76037980286418 313.46938775510205 239.79407689895433 320 239.82812908306613 326.53061224489795 237.43533603058893 333.0612244897959 235.7225954157904 339.5918367346939 231.99176431597976 346.12244897959187 232.20074419221876 352.65306122448976 229.5869912504973 359.1836734693877 229.00008230421687 365.71428571428567 230.61536461105908 372.2448979591837 233.2473546955885 378.7755102040816 234.38586991722644 385.3061224489796 235.44980129667937 391.8367346938776 235.98082985083386 398.36734693877554 235.02390705639544 404.8979591836735 236.2727676180768 411.42857142857144 237.10996693514687 417.95918367346934 239.1761098778746 424.48979591836735 241.04015563610147 431.0204081632653 242.0107545126122 437.55102040816325 236.84733832849503 444.0816326530612 238.18589557959643 450.61224489795916 240.60231810622946 457.14285714285717 242.69853617125196 463.6734693877551 240.20796614732234 470.2040816326531 240.05523074290664 476.7346938775511 242.49392087416433 483.2653061224489 244.477588344588 489.7959183673469 246.78130614924208 496.3265306122449 243.4888365404699 502.85714285714283 244.0437705287167 509.38775510204084 246.20498482921448 515.9183673469388 246.8955969447145 522.4489795918367 247.99731024702695 528.9795918367347 250.1182509603369 535.5102040816327 252.23283556324057 542.0408163265306 249.581788008335 548.5714285714286 249.44275493902205 555.1020408163265 251.5949085018465 561.6326530612245 252.51204131971537 568.1632653061224 253.3534611787625 574.6938775510204 255.3024058979439 581.2244897959183 256.1532950760741 587.7551020408164 257.94404012310616 594.2857142857143 258.99696388947046 600.8163265306123 260.82648648113724 607.3469387755102 259.2206243164686 613.8775510204082 252.118713249545 620.4081632653061 252.09485670465762 626.9387755102041 251.32929652753305 633.469387755102 250.03622218000604 640 248.7350963938446 640 320 0 320"
      />
      
      <polygon
        fill="#22e4e8"
        fillRule="evenodd"
        points="0 319.925674269801 6.530612244897958 319.8564690108015 13.061224489795917 319.8272329271388 19.591836734693878 318.66030313104966 26.122448979591834 318.54753019229224 32.6530612244898 318.40759815314846 39.183673469387756 318.269544581318 45.71428571428571 316.01153630173997 52.24489795918367 316.0194991284335 58.775510204081634 310.27120182115124 65.3061224489796 309.379872814041 71.83673469387755 306.93693697694266 78.36734693877551 307.02226821382277 84.89795918367348 306.27910693319035 91.42857142857142 304.58411860728734 97.9591836734694 300.15630496827436 104.48979591836734 294.7536579365578 111.0204081632653 293.4787850503227 117.55102040816327 293.780962290617 124.08163265306122 290.8838656216188 130.6122448979592 291.2549360848939 137.14285714285714 286.9785428663145 143.6734693877551 287.2959241869778 150.20408163265307 280.0896380890341 156.73469387755102 272.3565383892268 163.26530612244898 270.6873746915539 169.79591836734696 264.6410533631147 176.32653061224488 259.71605872427403 182.85714285714283 258.48214131558206 189.3877551020408 256.497637899349 195.9183673469388 254.70957468928208 202.44897959183675 249.75803509248738 208.97959183673467 243.84333876248462 215.51020408163265 243.3268341759462 222.0408163265306 241.8302935447856 228.57142857142858 242.76857275223938 235.10204081632654 241.70746423630445 241.63265306122446 237.2178471926975 248.16326530612244 234.04439484963774 254.69387755102042 235.7303204855873 261.2244897959184 237.40442372946575 267.7551020408163 235.56053068105354 274.2857142857143 237.00510095704522 280.81632653061223 238.3993831884976 287.3469387755102 240.81758596857273 293.8775510204082 242.54148736825022 300.40816326530614 244.5917238104867 306.9387755102041 243.76037980286418 313.46938775510205 239.79407689895433 320 239.82812908306613 326.53061224489795 237.43533603058893 333.0612244897959 235.77397120917766 339.5918367346939 232.04314010936696 346.12244897959187 232.25211998560602 352.65306122448976 229.63836704388453 359.1836734693877 229.0514580976041 365.71428571428567 230.66674040444633 372.2448979591837 233.29873048897574 378.7755102040816 234.4372457106137 385.3061224489796 235.50117709006662 391.8367346938776 236.03220564422108 398.36734693877554 235.07528284978264 404.8979591836735 236.32414341146404 411.42857142857144 237.16134272853412 417.95918367346934 239.22748567126183 424.48979591836735 241.09153142948873 431.0204081632653 242.06213030599943 437.55102040816325 236.89871412188228 444.0816326530612 238.23727137298366 450.61224489795916 240.65369389961668 457.14285714285717 242.74991196463918 463.6734693877551 240.25934194070956 470.2040816326531 240.1066065362939 476.7346938775511 242.54529666755155 483.2653061224489 244.52896413797527 489.7959183673469 246.8326819426293 496.3265306122449 243.54021233385714 502.85714285714283 244.09514632210391 509.38775510204084 246.25636062260173 515.9183673469388 246.94697273810175 522.4489795918367 248.04868604041417 528.9795918367347 250.16962675372412 535.5102040816327 252.2842113566278 542.0408163265306 249.63316380172222 548.5714285714286 249.4941307324093 555.1020408163265 251.64628429523373 561.6326530612245 252.56341711310262 568.1632653061224 253.40483697214975 574.6938775510204 255.35378169133116 581.2244897959183 256.2046708694613 587.7551020408164 257.99541591649336 594.2857142857143 259.04833968285766 600.8163265306123 260.87786227452443 607.3469387755102 259.27200010985587 613.8775510204082 252.17008904293223 620.4081632653061 252.14623249804484 626.9387755102041 251.38067232092027 633.469387755102 250.08759797339326 640 248.7350963938446 640 320 0 320"
      />
      
      <polygon
        fill="#e34c26"
        fillRule="evenodd"
        points="0 319.925674269801 6.530612244897958 319.8564690108015 13.061224489795917 319.8272329271388 19.591836734693878 318.66030313104966 26.122448979591834 318.63876254527725 32.6530612244898 318.5126031027712 39.183673469387756 318.3713443154106 45.71428571428571 316.1105251767825 52.24489795918367 316.2070752942888 58.775510204081634 311.6486239351858 65.3061224489796 310.75104763159965 71.83673469387755 308.26758749344174 78.36734693877551 308.31230123357307 84.89795918367348 307.5297624623411 91.42857142857142 305.79781151363085 97.9591836734694 302.08577118217767 104.48979591836734 297.7266172734397 111.0204081632653 296.3609963435487 117.55102040816327 296.57519613397295 124.08163265306122 294.7044080015748 130.6122448979592 294.9753004970694 137.14285714285714 291.7197425463174 143.6734693877551 292.194227755108 150.20408163265307 288.1167985785449 156.73469387755102 282.47605410060686 163.26530612244898 280.5091070568187 169.79591836734696 276.09421068968487 176.32653061224488 271.3321091688736 182.85714285714283 270.3321078025055 189.3877551020408 269.08201210510015 195.9183673469388 268.32412089129605 202.44897959183675 264.1112583417595 208.97959183673467 258.7341655063718 215.51020408163265 258.87804742306463 222.0408163265306 257.33907757917723 228.57142857142858 258.0373023645133 235.10204081632654 256.52382382270855 241.63265306122446 252.7224872555945 248.16326530612244 250.19337059039597 254.69387755102042 252.19008175825118 261.2244897959184 254.18867965074273 267.7551020408163 252.86782505952033 274.2857142857143 253.80100479819896 280.81632653061223 254.90775726438034 287.3469387755102 256.8330658202777 293.8775510204082 258.58291610567926 300.40816326530614 260.45211863724126 306.9387755102041 259.97209977257035 313.46938775510205 257.8644055883242 320 257.5420947191848 326.53061224489795 255.72568874775067 333.0612244897959 254.32304831177402 339.5918367346939 252.4440042537811 346.12244897959187 252.30171858298877 352.65306122448976 249.89599239378742 359.1836734693877 249.60731479054056 365.71428571428567 250.63985894076112 372.2448979591837 252.68978389156229 378.7755102040816 254.04379796111056 385.3061224489796 254.88136553986763 391.8367346938776 255.76538484019534 398.36734693877554 254.20611169376767 404.8979591836735 254.9008658284821 411.42857142857144 255.17102126629447 417.95918367346934 256.70490276940353 424.48979591836735 258.10512067231934 431.0204081632653 258.55638323131177 437.55102040816325 255.16944642354946 444.0816326530612 257.1207463221265 450.61224489795916 258.97907463270985 457.14285714285717 260.5159253895226 463.6734693877551 258.6005597758723 470.2040816326531 258.0205966313547 476.7346938775511 259.9124798083699 483.2653061224489 261.3828753599267 489.7959183673469 263.172131382339 496.3265306122449 261.82044196468985 502.85714285714283 263.5576131050146 509.38775510204084 265.20788589263356 515.9183673469388 265.5769595226719 522.4489795918367 267.221532063263 528.9795918367347 268.77583065601954 535.5102040816327 270.33941192987686 542.0408163265306 268.43863693879695 548.5714285714286 268.96362366882363 555.1020408163265 270.52148979667294 561.6326530612245 271.983792736007 568.1632653061224 273.44946753031195 574.6938775510204 274.8252351280211 581.2244897959183 276.2041749857439 587.7551020408164 277.5410046230411 594.2857142857143 278.71336683387204 600.8163265306123 279.97363433213377 607.3469387755102 278.9297586136218 613.8775510204082 275.72393494828253 620.4081632653061 277.03249213712326 626.9387755102041 278.28630478481386 633.469387755102 278.4158795870045 640 279.55602566847 640 320 0 320"
      />
      
      <polygon
        fill="#00ADD8"
        fillRule="evenodd"
        points="0 319.925674269801 6.530612244897958 319.8564690108015 13.061224489795917 319.8272329271388 19.591836734693878 318.66030313104966 26.122448979591834 318.63876254527725 32.6530612244898 318.5153628730131 39.183673469387756 318.37401984527787 45.71428571428571 316.61218092601297 52.24489795918367 316.69341828279704 58.775510204081634 313.1394440361553 65.3061224489796 312.1963612125701 71.83673469387755 310.8820325698518 78.36734693877551 310.8639646794575 84.89795918367348 310.0035379449156 91.42857142857142 308.66170898053974 97.9591836734694 305.8714493322316 104.48979591836734 303.7931675430958 111.0204081632653 303.0244459935157 117.55102040816327 303.31529435761024 124.08163265306122 302.4901901147723 130.6122448979592 302.91324794887913 137.14285714285714 300.9756897392625 143.6734693877551 301.55639234584953 150.20408163265307 299.6311598877773 156.73469387755102 295.82119591725683 163.26530612244898 294.0784559183582 169.79591836734696 290.7161416685626 176.32653061224488 287.71239517171506 182.85714285714283 287.34682217521134 189.3877551020408 286.1158423830095 195.9183673469388 284.9373067232681 202.44897959183675 282.37653864423237 208.97959183673467 277.94386749588074 215.51020408163265 278.07967827543246 222.0408163265306 276.03282069582514 228.57142857142858 276.2117029985477 235.10204081632654 274.14901311536994 241.63265306122446 270.3047253574683 248.16326530612244 268.08698504579934 254.69387755102042 269.6660829395271 261.2244897959184 271.148182513327 267.7551020408163 270.41255780470556 274.2857142857143 270.81019730063156 280.81632653061223 272.1628990474639 287.3469387755102 273.5615101621664 293.8775510204082 274.92288444090207 300.40816326530614 276.29331535752283 306.9387755102041 276.4643552070358 313.46938775510205 274.6332682943865 320 273.799093203119 326.53061224489795 272.04439264209054 333.0612244897959 270.1436361462963 339.5918367346939 268.24948143995226 346.12244897959187 268.72861784317047 352.65306122448976 266.93233905805687 359.1836734693877 266.17326160800894 365.71428571428567 266.700136429268 372.2448979591837 268.2754014524804 378.7755102040816 269.77300367193493 385.3061224489796 270.1457004667752 391.8367346938776 271.63102410793886 398.36734693877554 270.8758838520923 404.8979591836735 271.2113989166417 411.42857142857144 272.69785571257944 417.95918367346934 274.0958564623062 424.48979591836735 275.4691431743285 431.0204081632653 275.7089984535959 437.55102040816325 272.9524775662344 444.0816326530612 274.36095727213586 450.61224489795916 275.7097702618648 457.14285714285717 277.0617205657927 463.6734693877551 276.49362656531815 470.2040816326531 276.6994808410391 476.7346938775511 278.02120882074905 483.2653061224489 279.09847474627503 489.7959183673469 280.34697074532653 496.3265306122449 279.267376777099 502.85714285714283 280.4775124235084 509.38775510204084 281.6113125803325 515.9183673469388 281.5274685185435 522.4489795918367 282.6851619128466 528.9795918367347 283.7824337778207 535.5102040816327 284.8879474503216 542.0408163265306 282.61008235590634 548.5714285714286 282.8417862593185 555.1020408163265 283.9760291727299 561.6326530612245 285.04068860882614 568.1632653061224 286.10780643828684 574.6938775510204 287.10946516719935 581.2244897959183 288.1134363308473 587.7551020408164 289.08674318432685 594.2857142857143 289.94030883578927 600.8163265306123 290.8578787280828 607.3469387755102 291.7191592255592 613.8775510204082 290.3472376608437 620.4081632653061 291.22361242806824 626.9387755102041 292.10200468570855 633.469387755102 292.9283996487689 640 293.6706432929979 640 320 0 320"
      />
      
      <polygon
        fill="#244776"
        fillRule="evenodd"
        points="0 319.925674269801 6.530612244897958 319.8564690108015 13.061224489795917 319.8272329271388 19.591836734693878 318.66030313104966 26.122448979591834 318.63876254527725 32.6530612244898 318.5153628730131 39.183673469387756 318.37401984527787 45.71428571428571 316.61218092601297 52.24489795918367 316.69341828279704 58.775510204081634 313.1394440361553 65.3061224489796 312.1963612125701 71.83673469387755 310.8820325698518 78.36734693877551 310.8639646794575 84.89795918367348 310.0035379449156 91.42857142857142 308.66170898053974 97.9591836734694 305.8714493322316 104.48979591836734 303.7931675430958 111.0204081632653 303.0244459935157 117.55102040816327 303.31529435761024 124.08163265306122 302.4901901147723 130.6122448979592 302.91324794887913 137.14285714285714 300.9756897392625 143.6734693877551 301.55639234584953 150.20408163265307 299.6311598877773 156.73469387755102 295.82119591725683 163.26530612244898 294.0784559183582 169.79591836734696 290.7161416685626 176.32653061224488 287.71239517171506 182.85714285714283 287.34682217521134 189.3877551020408 286.1158423830095 195.9183673469388 284.9373067232681 202.44897959183675 282.37653864423237 208.97959183673467 277.94386749588074 215.51020408163265 278.07967827543246 222.0408163265306 276.03282069582514 228.57142857142858 276.2117029985477 235.10204081632654 274.14901311536994 241.63265306122446 270.3047253574683 248.16326530612244 268.08698504579934 254.69387755102042 269.6660829395271 261.2244897959184 271.148182513327 267.7551020408163 270.41255780470556 274.2857142857143 270.81019730063156 280.81632653061223 272.1628990474639 287.3469387755102 273.5615101621664 293.8775510204082 274.92288444090207 300.40816326530614 276.29331535752283 306.9387755102041 276.4643552070358 313.46938775510205 274.6332682943865 320 273.799093203119 326.53061224489795 272.04439264209054 333.0612244897959 270.1436361462963 339.5918367346939 268.24948143995226 346.12244897959187 268.72861784317047 352.65306122448976 266.93233905805687 359.1836734693877 266.17326160800894 365.71428571428567 266.700136429268 372.2448979591837 268.2754014524804 378.7755102040816 269.77300367193493 385.3061224489796 270.1457004667752 391.8367346938776 271.63102410793886 398.36734693877554 270.8758838520923 404.8979591836735 271.2113989166417 411.42857142857144 272.69785571257944 417.95918367346934 274.0958564623062 424.48979591836735 275.4691431743285 431.0204081632653 275.7089984535959 437.55102040816325 272.9524775662344 444.0816326530612 274.36095727213586 450.61224489795916 275.7097702618648 457.14285714285717 277.0617205657927 463.6734693877551 276.49362656531815 470.2040816326531 276.6994808410391 476.7346938775511 278.02120882074905 483.2653061224489 279.09847474627503 489.7959183673469 280.34697074532653 496.3265306122449 279.267376777099 502.85714285714283 280.4775124235084 509.38775510204084 281.6113125803325 515.9183673469388 281.5274685185435 522.4489795918367 282.6851619128466 528.9795918367347 283.7824337778207 535.5102040816327 284.8879474503216 542.0408163265306 282.61008235590634 548.5714285714286 282.8417862593185 555.1020408163265 283.9760291727299 561.6326530612245 285.04068860882614 568.1632653061224 286.10780643828684 574.6938775510204 287.10946516719935 581.2244897959183 288.1134363308473 587.7551020408164 289.08674318432685 594.2857142857143 289.94030883578927 600.8163265306123 290.8578787280828 607.3469387755102 291.7191592255592 613.8775510204082 290.4027988654405 620.4081632653061 291.27753154928166 626.9387755102041 292.1542779587204 633.469387755102 292.9790773067749 640 293.71993146492883 640 320 0 320"
      />
      
      <polygon
        fill="#563d7c"
        fillRule="evenodd"
        points="0 319.925674269801 6.530612244897958 319.8564690108015 13.061224489795917 319.8272329271388 19.591836734693878 318.66030313104966 26.122448979591834 318.63876254527725 32.6530612244898 318.5153628730131 39.183673469387756 318.37401984527787 45.71428571428571 316.61218092601297 52.24489795918367 316.69341828279704 58.775510204081634 314.2496040326585 65.3061224489796 313.27263424951303 71.83673469387755 311.9264969008285 78.36734693877551 311.8765473508415 84.89795918367348 310.98521211698517 91.42857142857142 309.6143703173192 97.9591836734694 306.7950311479412 104.48979591836734 305.7914307736692 111.0204081632653 304.9617134161417 117.55102040816327 305.19342762553805 124.08163265306122 304.3146396859223 130.6122448979592 304.6820073930164 137.14285714285714 303.81183369432887 143.6734693877551 304.305964698256 150.20408163265307 302.29947012026736 156.73469387755102 298.4080575357004 163.26530612244898 296.58635520290045 169.79591836734696 293.14992130148835 176.32653061224488 290.0718849963965 182.85714285714283 289.6365786080124 189.3877551020408 288.33570533695803 195.9183673469388 287.08940942405707 202.44897959183675 284.4692183556127 208.97959183673467 279.9726694228078 215.51020408163265 280.04851992490364 222.0408163265306 277.94156458621734 228.57142857142858 278.06403513753327 235.10204081632654 275.9448036249432 241.63265306122446 273.1750868239495 248.16326530612244 271.62234101317233 254.69387755102042 273.09352446389653 261.2244897959184 274.4743277216455 267.7551020408163 273.6371741701322 274.2857142857143 273.9363842220298 280.81632653061223 275.20276682685096 287.3469387755102 276.5085876073589 293.8775510204082 277.78286265403665 300.40816326530614 279.06599448676315 306.9387755102041 279.15508932931397 313.46938775510205 277.2418691687955 320 276.3280680711278 326.53061224489795 274.4986248756121 333.0612244897959 272.5229542529323 339.5918367346939 270.5584801624086 346.12244897959187 270.9671358614558 352.65306122448976 269.10252757939196 359.1836734693877 268.28352766447205 365.71428571428567 268.7459877214854 372.2448979591837 270.2607887789635 378.7755102040816 271.6977882152901 385.3061224489796 272.01359895739915 391.8367346938776 273.4419059485648 398.36734693877554 272.6314898601034 404.8979591836735 272.9151188668857 411.42857142857144 274.34957072147034 417.95918367346934 275.6987557335944 424.48979591836735 277.02311481153595 431.0204081632653 277.2155360537879 437.55102040816325 275.3902811568014 444.0816326530612 276.7243484718155 450.61224489795916 278.00331267963213 457.14285714285717 279.2852536009176 463.6734693877551 278.6514444121151 470.2040816326531 278.7914326601787 476.7346938775511 280.049304844275 483.2653061224489 281.0666314536688 489.7959183673469 282.25505086046815 496.3265306122449 281.1190644581323 502.85714285714283 282.2726784089372 509.38775510204084 283.3516820692987 515.9183673469388 283.21978355641346 522.4489795918367 284.3258199262363 528.9795918367347 285.3746033174115 535.5102040816327 286.4315168251387 542.0408163265306 284.1080322867305 548.5714285714286 284.2940120422828 555.1020408163265 285.3839267908923 561.6326530612245 286.4069765609178 568.1632653061224 287.43238916533215 574.6938775510204 288.39490056719944 581.2244897959183 289.3596345475396 587.7551020408164 290.2949019929583 594.2857142857143 291.1151083142585 600.8163265306123 291.996818108271 607.3469387755102 292.8244378538054 613.8775510204082 291.4743394725514 620.4081632653061 292.31740339808755 626.9387755102041 293.16240830109786 633.469387755102 293.95643509018726 640 294.6704919427651 640 320 0 320"
      />
      
      <polygon
        fill="#178600"
        fillRule="evenodd"
        points="0 320 6.530612244897958 320 13.061224489795917 320 19.591836734693878 320 26.122448979591834 320 32.6530612244898 320 39.183673469387756 320 45.71428571428571 320 52.24489795918367 320 58.775510204081634 318.73032874844284 65.3061224489796 318.7690848077208 71.83673469387755 318.8054638939915 78.36734693877551 318.8419263734501 84.89795918367348 318.87727584772074 91.42857142857142 318.9104574176378 97.9591836734694 318.9437149929036 104.48979591836734 318.9749330416484 111.0204081632653 319.00622260549756 117.55102040816327 319.0365570625222 124.08163265306122 319.06409565914583 130.6122448979592 319.0926636417161 137.14285714285714 319.11947944257776 143.6734693877551 319.1463568532908 150.20408163265307 319.17158584084757 156.73469387755102 319.18567784079283 163.26530612244898 319.21053454907553 169.79591836734696 319.23386679371623 176.32653061224488 319.257252530833 182.85714285714283 319.2792040613016 189.3877551020408 318.1941409754655 195.9183673469388 318.24926378014214 202.44897959183675 318.2976043738573 208.97959183673467 316.13887495608316 215.51020408163265 316.24748574659026 222.0408163265306 316.36202896161075 228.57142857142858 316.46954710201925 235.10204081632654 316.57731238054424 241.63265306122446 316.24156078184205 248.16326530612244 315.63817900942473 254.69387755102042 315.7713210220131 261.2244897959184 315.89629746875215 267.7551020408163 316.0215604896667 274.2857142857143 316.1430000212858 280.81632653061223 316.24949805421596 287.3469387755102 316.36397994708943 293.8775510204082 316.4714408548641 300.40816326530614 316.5791479657159 306.9387755102041 316.68024933118124 313.46938775510205 315.97581219518395 320 316.09864822361885 326.53061224489795 314.31084510864355 333.0612244897959 314.4845034076678 339.5918367346939 313.52091197359675 346.12244897959187 313.71868237097976 352.65306122448976 313.91041590713667 359.1836734693877 312.9761246017923 365.71428571428567 313.1905238330465 372.2448979591837 313.39177429309655 378.7755102040816 313.59348696060937 385.3061224489796 313.7828279671688 391.8367346938776 313.9726032944104 398.36734693877554 314.15658623727626 404.8979591836735 314.32928565849267 411.42857142857144 314.5023806116672 417.95918367346934 314.6648598052045 424.48979591836735 314.82771186369985 431.0204081632653 314.9855931600576 437.55102040816325 313.2129039198332 444.0816326530612 313.4200760874061 450.61224489795916 313.61454250751643 457.14285714285717 313.80945486951333 463.6734693877551 313.198726769648 470.2040816326531 313.4063317269044 476.7346938775511 313.607600096556 483.2653061224489 313.79652389057253 489.7959183673469 313.9858813990368 496.3265306122449 314.16362540940594 502.85714285714283 314.34177744632615 509.38775510204084 314.51449156101944 515.9183673469388 314.66595520904565 522.4489795918367 314.8287741404294 528.9795918367347 314.98160685059776 535.5102040816327 315.13479035468333 542.0408163265306 315.2785789729354 548.5714285714286 315.4226977320357 555.1020408163265 315.5624171819483 561.6326530612245 315.6935677660335 568.1632653061224 315.82501896016083 574.6938775510204 315.9484085011186 581.2244897959183 316.0720806705909 587.7551020408164 316.1919783118988 594.2857142857143 316.2971240106451 600.8163265306123 316.41015226654537 607.3469387755102 316.51624831471776 613.8775510204082 316.6225879149763 620.4081632653061 316.7224054301904 626.9387755102041 316.82245208144303 633.469387755102 316.9194449863622 640 317.0039079312334 640 320 0 320"
      />
      
      <polygon
        fill="#555555"
        fillRule="evenodd"
        points="0 320 6.530612244897958 320 13.061224489795917 320 19.591836734693878 320 26.122448979591834 320 32.6530612244898 320 39.183673469387756 320 45.71428571428571 320 52.24489795918367 320 58.775510204081634 318.73032874844284 65.3061224489796 318.7690848077208 71.83673469387755 318.8054638939915 78.36734693877551 318.8419263734501 84.89795918367348 318.87727584772074 91.42857142857142 318.9104574176378 97.9591836734694 318.9437149929036 104.48979591836734 318.9749330416484 111.0204081632653 319.00622260549756 117.55102040816327 319.0365570625222 124.08163265306122 319.06409565914583 130.6122448979592 319.0926636417161 137.14285714285714 319.11947944257776 143.6734693877551 319.1463568532908 150.20408163265307 319.17158584084757 156.73469387755102 319.18567784079283 163.26530612244898 319.21053454907553 169.79591836734696 319.23386679371623 176.32653061224488 319.257252530833 182.85714285714283 319.2792040613016 189.3877551020408 318.1941409754655 195.9183673469388 318.24926378014214 202.44897959183675 318.2976043738573 208.97959183673467 317.2428495125657 215.51020408163265 317.31883287246325 222.0408163265306 317.40067385371896 228.57142857142858 317.4774954713365 235.10204081632654 317.55449363673046 241.63265306122446 317.1889140744004 248.16326530612244 316.5575338303576 254.69387755102042 316.66261304882727 261.2244897959184 316.76124779052606 267.7551020408163 316.86010879121886 274.2857142857143 316.95595208055977 280.81632653061223 317.040003186796 287.3469387755102 317.13035532858805 293.8775510204082 317.21516643693593 300.40816326530614 317.3001717457828 306.9387755102041 317.3799636959957 313.46938775510205 317.4599389550394 320 317.5374728363813 326.53061224489795 316.50571004005207 333.0612244897959 316.6123713247033 339.5918367346939 315.58589180946285 346.12244897959187 315.7206299652002 352.65306122448976 315.85125518042213 359.1836734693877 314.86337399049876 365.71428571428567 315.0201661611373 372.2448979591837 315.1673425711314 378.7755102040816 315.3148570646715 385.3061224489796 315.4533238083388 391.8367346938776 315.5921081468856 398.36734693877554 315.72665658209314 404.8979591836735 315.8529534894738 411.42857142857144 315.9795393754171 417.95918367346934 316.098361885772 424.48979591836735 316.21745707828785 431.0204081632653 316.3329172792942 437.55102040816325 315.58525516063116 444.0816326530612 315.72001283917 450.61224489795916 315.8465055910751 457.14285714285717 315.97328861621276 463.6734693877551 316.0922957095181 470.2040816326531 316.21157622479586 476.7346938775511 316.32721604585106 483.2653061224489 316.4357628221196 489.7959183673469 316.544559284744 496.3265306122449 316.6466828538201 502.85714285714283 316.74904100476886 509.38775510204084 316.8482747882185 515.9183673469388 316.93529880611493 522.4489795918367 317.02884724151676 528.9795918367347 317.1166581310647 535.5102040816327 317.2046702082195 542.0408163265306 317.2872848472727 548.5714285714286 317.37008896025185 555.1020408163265 317.450365486948 561.6326530612245 317.5257186713638 568.1632653061224 317.60124454009633 574.6938775510204 317.67213860362574 581.2244897959183 317.7431950763132 587.7551020408164 317.8120828226344 594.2857142857143 317.8724947960658 600.8163265306123 317.9374357203619 607.3469387755102 317.9983936129738 613.8775510204082 318.0594915868239 620.4081632653061 318.1168421794789 626.9387755102041 318.17432460241974 633.469387755102 318.23005226458713 640 318.27858082178 640 320 0 320"
      />
      
      <polygon
        fill="#C1F12E"
        fillRule="evenodd"
        points="0 320 6.530612244897958 320 13.061224489795917 320 19.591836734693878 320 26.122448979591834 320 32.6530612244898 320 39.183673469387756 320 45.71428571428571 320 52.24489795918367 320 58.775510204081634 319.00777467849093 65.3061224489796 319.0380618389602 71.83673469387755 319.0664914562437 78.36734693877551 319.0949862180332 84.89795918367348 319.1226111876407 91.42857142857142 319.14854198908546 97.9591836734694 319.1745321809474 104.48979591836734 319.19892854157104 111.0204081632653 319.2233807682324 117.55102040816327 319.24708661764265 124.08163265306122 319.2686075264862 130.6122448979592 319.2909329083281 137.14285714285714 319.3118889608737 143.6734693877551 319.3328931833632 150.20408163265307 319.3526091783838 156.73469387755102 319.36117554734767 163.26530612244898 319.38067529137874 169.79591836734696 319.3989791199665 176.32653061224488 319.4173249020272 182.85714285714283 319.4345455850381 189.3877551020408 319.44084483271627 195.9183673469388 319.4579127138425 202.44897959183675 319.47288061968925 208.97959183673467 319.4862108296453 215.51020408163265 319.5013955618904 222.0408163265306 319.5166151885744 228.57142857142858 319.53090136846834 235.10204081632654 319.54522034666877 241.63265306122446 319.3091074754197 248.16326530612244 318.61506612846273 254.69387755102042 318.65734039179665 261.2244897959184 318.69702192434147 267.7551020408163 318.7367947002954 274.2857142857143 318.7753531579968 280.81632653061223 318.8091676776884 287.3469387755102 318.84551707902574 293.8775510204082 318.87963733606375 300.40816326530614 318.9138356843078 306.9387755102041 318.94593671853835 313.46938775510205 318.9781114256566 320 319.0093040331085 326.53061224489795 319.03858340601465 333.0612244897959 319.0679301839617 339.5918367346939 319.0954770623633 346.12244897959187 319.1230870302391 352.65306122448976 319.14985443510335 359.1836734693877 319.17332834335673 365.71428571428567 319.1985619033591 372.2448979591837 319.2222479628137 378.7755102040816 319.2459884086832 385.3061224489796 319.2682728029171 391.8367346938776 319.2906083571661 398.36734693877554 319.3122621854623 404.8979591836735 319.33258788784855 411.42857142857144 319.35296028055575 417.95918367346934 319.37208313176654 424.48979591836735 319.39124994010615 431.0204081632653 319.4098317322865 437.55102040816325 318.57422072869446 444.0816326530612 318.6177416770307 450.61224489795916 318.65859375565213 457.14285714285717 318.69953933821745 463.6734693877551 318.73797367200206 470.2040816326531 318.77649637215126 476.7346938775511 318.813843285893 483.2653061224489 318.8488993530076 489.7959183673469 318.8840361828694 496.3265306122449 318.91701769544704 502.85714285714283 318.95007524419884 509.38775510204084 318.982123669617 515.9183673469388 319.0102286946379 522.4489795918367 319.0404410519519 528.9795918367347 319.06880028439855 535.5102040816327 319.0972245585995 542.0408163265306 319.12390554937934 548.5714285714286 319.15064788285645 555.1020408163265 319.1765738549766 561.6326530612245 319.200909849043 568.1632653061224 319.2253015961204 574.6938775510204 319.24819741367145 581.2244897959183 319.2711456961827 587.7551020408164 319.2933935725027 594.2857142857143 319.31290414655103 600.8163265306123 319.33387735861163 607.3469387755102 319.35356425438283 613.8775510204082 319.37329639167774 620.4081632653061 319.3918181872065 626.9387755102041 319.41038262464383 633.469387755102 319.42838031515396 640 319.4440530249598 640 320 0 320"
      />
      

      
        <g id="labels">
        
          
          <text x="0" y="330">
            Jul 2014
          </text>
          
        
          
        
          
        
          
        
          
        
          
        
          
        
          
        
          
        
          
        
          
        
          
        
          
        
          
          <text x="84.04040404040404" y="330">
            Aug 2015
          </text>
          
        
          
        
          
        
          
        
          
        
          
        
          
        
          
        
          
        
          
        
          
        
          
        
          
        
          
          <text x="168.08080808080808" y="330">
            Sep 2016
          </text>
          
        
          
        
          
        
          
        
          
        
          
        
          
        
          
        
          
        
          
        
          
        
          
        
          
        
          
          <text x="252.12121212121212" y="330">
            Oct 2017
          </text>
          
        
          
        
          
        
          
        
          
        
          
        
          
        
          
        
          
        
          
        
          
        
          
        
          
        
          
          <text x="336.16161616161617" y="330">
            Nov 2018
          </text>
          
        
          
        
          
        
          
        
          
        
          
        
          
        
          
        
          
        
          
        
          
        
          
        
          
        
          
          <text x="420.2020202020202" y="330">
            Dec 2019
          </text>
          
        
          
        
          
        
          
        
          
        
          
        
          
        
          
        
          
        
          
        
          
        
          
        
          
        
          
          <text x="504.24242424242425" y="330">
            Jan 2021
          </text>
          
        
          
        
          
        
          
        
          
        
          
        
          
        
          
        
          
        
          
        
          
        
          
        
          
        
          
          <text x="588.2828282828283" y="330">
            Feb 2022
          </text>
          
        
          
        
          
        
          
        
          
        
          
        
          
        
          
        
        </g>
      

      
        <text text-anchor="middle" y="370" x="320" id="legend">
          
          <tspan xml:space="preserve" fill="#C1F12E">   </tspan> Batchfile
          
          <tspan xml:space="preserve" fill="#555555">   </tspan> C
          
          <tspan xml:space="preserve" fill="#178600">   </tspan> C#
          
          <tspan xml:space="preserve" fill="#563d7c">   </tspan> CSS
          
          <tspan xml:space="preserve" fill="#244776">   </tspan> CoffeeScript
          
          <tspan xml:space="preserve" fill="#00ADD8">   </tspan> Go
          
          <tspan xml:space="preserve" fill="#e34c26">   </tspan> HTML
          
          <tspan xml:space="preserve" fill="#22e4e8">   </tspan> JSON
          
        </text>
      
        <text text-anchor="middle" y="400" x="320" id="legend">
          
          <tspan xml:space="preserve" fill="#22e8e8">   </tspan> JSon
          
          <tspan xml:space="preserve" fill="#f1e05a">   </tspan> JavaScript
          
          <tspan xml:space="preserve" fill="#2415b9">   </tspan> Less
          
          <tspan xml:space="preserve" fill="#755462">   </tspan> MySQL
          
          <tspan xml:space="preserve" fill="#4F5D95">   </tspan> PHP
          
          <tspan xml:space="preserve" fill="#fd2fdb">   </tspan> PLpgSQL
          
          <tspan xml:space="preserve" fill="#0298c3">   </tspan> Perl
          
          <tspan xml:space="preserve" fill="#3572A5">   </tspan> Python
          
        </text>
      
        <text text-anchor="middle" y="430" x="320" id="legend">
          
          <tspan xml:space="preserve" fill="#701516">   </tspan> Ruby
          
          <tspan xml:space="preserve" fill="#dea584">   </tspan> Rust
          
          <tspan xml:space="preserve" fill="#26c0b0">   </tspan> SCSS
          
          <tspan xml:space="preserve" fill="#0141ae">   </tspan> SQL
          
          <tspan xml:space="preserve" fill="#89e051">   </tspan> Shell
          
          <tspan xml:space="preserve" fill="#2770da">   </tspan> TSQL
          
          <tspan xml:space="preserve" fill="#2b7489">   </tspan> TypeScript
          
          <tspan xml:space="preserve" fill="#2c3e50">   </tspan> Vue
          
        </text>
      
        <text text-anchor="middle" y="460" x="320" id="legend">
          
          <tspan xml:space="preserve" fill="#4B6C4B">   </tspan> Yacc
          
        </text>
      

    </svg>