<svg
      xmlns="http://www.w3.org/2000/svg"
      viewBox="0 0 640 490"
      style="background-color: #292b3e"
    >
      <style>
        text {
          font-size: 12px;
          font-family: Open Sans, Helvetica Neue, Helvetica, Arial, sans-serif;
        }
        #labels text {
          dominant-baseline: hanging;
          font-size: 10px;
          fill: rgba(0,0,0,0.5);
        }
        #legend {
          font-weight: 600;
        }
        #legend tspan {
          font-size: 15px;
        }
        #branding-text {
          font-size: 9px;
          dominant-baseline: hanging;
          opacity: 0.5;
        }
        #branding-logo {
          opacity: 0.5;
        }
      </style>

      
      
      <polygon
        fill="#4B6C4B"
        fillRule="evenodd"
        points="0 313.61355181748445 6.4 304.2691167010772 12.8 297.2680512687666 19.2 285.9388298707167 25.6 278.8280103624594 32 274.98422136342185 38.4 267.09076820127797 44.800000000000004 257.0788168501774 51.2 246.22215919566486 57.599999999999994 230.99233839737815 64 221.54627614532495 70.4 206.6281322413031 76.8 198.2773589991238 83.2 192.17039296079366 89.60000000000001 182.1295652982687 96 170.6173112650368 102.4 156.95191565233682 108.80000000000001 154.80428183521371 115.19999999999999 149.88798528005833 121.6 142.52578313932366 128 138.28625108802322 134.4 123.78692451148515 140.8 127.17495818113855 147.20000000000002 110.77256391273619 153.6 93.05731801599816 160 88.01888920157603 166.4 78.10637223052848 172.8 68.7838514757199 179.20000000000002 65.97390386012168 185.6 62.13356049089043 192 59.18923292516229 198.4 46.683914884987985 204.8 33.29417735905554 211.20000000000002 31.646626131535015 217.60000000000002 27.414771432006035 224 27.52891912870473 230.39999999999998 25.251335960443953 236.8 13.936371035426532 243.2 9.643226522230293 249.60000000000002 9.884019446967784 256 12.93803048289152 262.4 8.247054766548501 268.8 10.710248861036348 275.2 10.159233490709084 281.6 11.455791727376436 288 14.195833384604043 294.40000000000003 17.69308981820234 300.79999999999995 18.068078110123622 307.2 12.038962498036483 313.6 13.32287435228119 320 11.292879270362619 326.4 7.029623669218722 332.8 1.9719688116670113 339.20000000000005 4.695723852665935 345.6 0.06679536942198183 352 0 358.40000000000003 3.134265473167261 364.79999999999995 11.121843330638796 371.2 13.499782149965029 377.59999999999997 18.048061205517797 384 21.314761860882584 390.4 21.568580536139393 396.8 27.06666462629289 403.2 30.68109483338793 409.6 36.748005434839115 416 42.80382841338235 422.40000000000003 46.96048547466728 428.8 38.51486873280146 435.20000000000005 42.63118411235797 441.59999999999997 50.61557402178181 448 58.06908846262422 454.4 55.54213569098391 460.79999999999995 58.40781239778545 467.2 64.8492043399128 473.6 68.96533366810053 480 76.40573515356479 486.4 74.31950472153784 492.8 74.99077623574573 499.20000000000005 75.05196891741554 505.6 74.49032525078536 512 78.43687569401271 518.4000000000001 85.3362158987747 524.8 88.56517887601257 531.1999999999999 82.02550919163119 537.6 83.08752665571774 544 90.29410752876748 550.4 88.15330600397255 556.8 86.74206697237096 563.2 87.7662709525276 569.6 85.90008929317554 576 86.43105476330845 582.4 86.68149647990327 588.8000000000001 89.27136213509226 595.2 85.21666046993943 601.5999999999999 69.72117744426217 608 69.36927508020779 614.4 67.00827849438255 620.8 64.10048073457637 627.2 60.65575718270105 633.6 56.629231945906895 640 56.501212266336154 640 320 0 320"
      />
      
      <polygon
        fill="#2c3e50"
        fillRule="evenodd"
        points="0 313.61355181748445 6.4 304.2691167010772 12.8 297.2680512687666 19.2 285.9388298707167 25.6 278.8280103624594 32 274.98422136342185 38.4 267.09076820127797 44.800000000000004 257.0788168501774 51.2 246.22215919566486 57.599999999999994 230.99233839737815 64 221.54627614532495 70.4 206.6281322413031 76.8 198.2773589991238 83.2 192.17039296079366 89.60000000000001 182.1295652982687 96 170.6173112650368 102.4 156.95191565233682 108.80000000000001 154.80428183521371 115.19999999999999 149.88798528005833 121.6 142.52578313932366 128 138.28625108802322 134.4 123.78692451148515 140.8 127.17495818113855 147.20000000000002 110.77256391273619 153.6 93.05731801599816 160 88.01888920157603 166.4 78.10637223052848 172.8 68.7838514757199 179.20000000000002 65.97390386012168 185.6 62.13356049089043 192 59.18923292516229 198.4 46.683914884987985 204.8 33.29417735905554 211.20000000000002 31.646626131535015 217.60000000000002 27.414771432006035 224 27.52891912870473 230.39999999999998 25.251335960443953 236.8 13.936371035426532 243.2 9.643226522230293 249.60000000000002 9.884019446967784 256 12.93803048289152 262.4 8.247054766548501 268.8 10.710248861036348 275.2 10.159233490709084 281.6 11.455791727376436 288 14.195833384604043 294.40000000000003 17.69308981820234 300.79999999999995 18.068078110123622 307.2 12.038962498036483 313.6 13.32287435228119 320 11.292879270362619 326.4 7.029623669218722 332.8 1.9719688116670113 339.20000000000005 4.695723852665935 345.6 0.06679536942198183 352 0 358.40000000000003 3.134265473167261 364.79999999999995 11.121843330638796 371.2 13.499782149965029 377.59999999999997 18.048061205517797 384 21.314761860882584 390.4 21.568580536139393 396.8 27.06666462629289 403.2 30.68109483338793 409.6 36.748005434839115 416 42.80382841338235 422.40000000000003 46.96048547466728 428.8 38.51486873280146 435.20000000000005 42.63118411235797 441.59999999999997 50.61557402178181 448 58.06908846262422 454.4 56.642722397864134 460.79999999999995 59.47480437144338 467.2 65.88362693840767 473.6 69.96918448498178 480 77.37894400950037 486.4 75.26395084025205 492.8 75.90639375347314 499.20000000000005 75.9396376959721 505.6 75.35348397468954 512 79.27368706218661 518.4000000000001 86.14829576208189 524.8 89.35247045392754 531.1999999999999 82.78953277604418 537.6 83.82822888773109 544 91.01220026108177 550.4 88.85017587949227 556.8 87.41766528684533 563.2 88.4219023017211 569.6 86.53570788070715 576 87.04727146789679 582.4 87.28069840580335 588.8000000000001 89.85227380633847 595.2 85.7804035844764 601.5999999999999 70.26771265850826 608 69.89965769403398 614.4 67.52247149666812 620.8 64.59897829879057 627.2 61.139521916510716 633.6 57.09823004404075 640 56.9693068081387 640 320 0 320"
      />
      
      <polygon
        fill="#2b7489"
        fillRule="evenodd"
        points="0 313.61355181748445 6.4 304.2691167010772 12.8 297.2680512687666 19.2 285.9388298707167 25.6 278.8280103624594 32 274.98422136342185 38.4 267.09076820127797 44.800000000000004 257.0788168501774 51.2 246.22215919566486 57.599999999999994 230.99233839737815 64 221.54627614532495 70.4 206.6281322413031 76.8 198.2773589991238 83.2 192.17039296079366 89.60000000000001 182.1295652982687 96 170.6173112650368 102.4 156.95191565233682 108.80000000000001 154.80428183521371 115.19999999999999 149.88798528005833 121.6 142.52578313932366 128 138.28625108802322 134.4 123.78692451148515 140.8 127.17495818113855 147.20000000000002 110.77256391273619 153.6 93.05731801599816 160 88.01888920157603 166.4 78.10637223052848 172.8 68.7838514757199 179.20000000000002 65.97390386012168 185.6 62.13356049089043 192 59.18923292516229 198.4 46.683914884987985 204.8 33.29417735905554 211.20000000000002 31.646626131535015 217.60000000000002 27.414771432006035 224 27.52891912870473 230.39999999999998 25.251335960443953 236.8 13.936371035426532 243.2 9.643226522230293 249.60000000000002 9.884019446967784 256 12.93803048289152 262.4 8.247054766548501 268.8 10.710248861036348 275.2 10.159233490709084 281.6 11.455791727376436 288 14.195833384604043 294.40000000000003 17.69308981820234 300.79999999999995 18.068078110123622 307.2 12.038962498036483 313.6 13.32287435228119 320 11.292879270362619 326.4 7.029623669218722 332.8 1.9719688116670113 339.20000000000005 4.695723852665935 345.6 0.06679536942198183 352 0 358.40000000000003 3.134265473167261 364.79999999999995 11.121843330638796 371.2 13.499782149965029 377.59999999999997 18.048061205517797 384 21.314761860882584 390.4 21.568580536139393 396.8 27.06666462629289 403.2 30.68109483338793 409.6 36.748005434839115 416 42.80382841338235 422.40000000000003 46.96048547466728 428.8 38.51486873280146 435.20000000000005 42.63118411235797 441.59999999999997 50.61557402178181 448 58.06908846262422 454.4 56.642722397864134 460.79999999999995 59.47480437144338 467.2 65.88362693840767 473.6 69.96918448498178 480 77.37894400950037 486.4 75.26395084025205 492.8 75.90639375347314 499.20000000000005 75.9396376959721 505.6 75.35348397468954 512 79.27368706218661 518.4000000000001 86.14829576208189 524.8 89.35247045392754 531.1999999999999 84.99963725475601 537.6 87.49749844197706 544 94.56946709494082 550.4 94.6710397695756 556.8 95.5791492317133 563.2 99.33791054130631 569.6 99.23028696150712 576 100.29077108959544 582.4 100.92515114950086 588.8000000000001 103.1110762214795 595.2 98.64734906436607 601.5999999999999 83.41151652807207 608 83.12838677549661 614.4 80.36989972413568 620.8 77.05424955638068 627.2 73.22668356849178 633.6 68.81643788339662 640 68.66494115195059 640 320 0 320"
      />
      
      <polygon
        fill="#2770da"
        fillRule="evenodd"
        points="0 313.61355181748445 6.4 304.2691167010772 12.8 297.2680512687666 19.2 285.9388298707167 25.6 278.8280103624594 32 274.98422136342185 38.4 267.09076820127797 44.800000000000004 257.0788168501774 51.2 246.22215919566486 57.599999999999994 230.99233839737815 64 221.54627614532495 70.4 206.6281322413031 76.8 198.2773589991238 83.2 192.17039296079366 89.60000000000001 182.1295652982687 96 170.6173112650368 102.4 156.95191565233682 108.80000000000001 154.80428183521371 115.19999999999999 149.88798528005833 121.6 142.52578313932366 128 138.28625108802322 134.4 123.78692451148515 140.8 127.17495818113855 147.20000000000002 110.77256391273619 153.6 93.05731801599816 160 88.01888920157603 166.4 78.10637223052848 172.8 68.7838514757199 179.20000000000002 65.97390386012168 185.6 62.13356049089043 192 59.18923292516229 198.4 46.683914884987985 204.8 33.29417735905554 211.20000000000002 31.646626131535015 217.60000000000002 27.414771432006035 224 27.52891912870473 230.39999999999998 25.251335960443953 236.8 14.574579887645484 243.2 11.08023650667144 249.60000000000002 11.2771654993536 256 14.29000284520066 262.4 9.557758907323603 268.8 11.980944411948656 275.2 11.394843177408404 281.6 12.653685109306082 288 15.358323708180137 294.40000000000003 18.82009580692187 300.79999999999995 19.161776042540907 307.2 13.099275926972837 313.6 14.35082236794932 320 12.290446725115316 326.4 7.996741000233612 332.8 2.9105034262361755 339.20000000000005 5.6056102980302285 345.6 0.9489080615633725 352 0.8577560456043329 358.40000000000003 3.965838976582404 364.79999999999995 11.92884019637495 371.2 14.282145864650886 377.59999999999997 18.80730262844827 384 22.05082781811268 390.4 22.282178544252872 396.8 27.759172655960583 403.2 31.352464437237927 409.6 37.399533050160244 416 43.43546855204818 422.40000000000003 47.57284515193703 428.8 40.2304099027084 435.20000000000005 44.29435917037074 441.59999999999997 52.229594982423976 448 59.633842299153116 454.4 58.16123062336624 460.79999999999995 60.946961049035394 467.2 67.31084685465308 473.6 71.35422374562492 480 78.72170582254893 486.4 76.56702803918296 492.8 77.1696951976312 499.20000000000005 77.16437749807679 505.6 76.54440679189523 512 80.42825770465504 518.4000000000001 87.26874363093657 524.8 90.43871725246132 531.1999999999999 86.05378075931293 537.6 88.519464774168 544 95.56023835440809 550.4 95.63252939632105 556.8 96.51128992344934 563.2 100.24250230028571 569.6 100.1072665955057 576 101.14098141848291 582.4 101.75188587531042 588.8000000000001 103.91257529177426 595.2 99.42516020570918 601.5999999999999 84.17668260735036 608 84.13462112087768 614.4 81.54076142478385 620.8 78.21139905811066 627.2 74.34963415768408 633.6 69.92177777581264 640 69.76815151778305 640 320 0 320"
      />
      
      <polygon
        fill="#509e5b"
        fillRule="evenodd"
        points="0 313.61355181748445 6.4 304.90984619351 12.8 298.3344813967619 19.2 288.07682904169025 25.6 281.2713541558153 32 277.3529839468653 38.4 269.9999637365063 44.800000000000004 260.0717334514888 51.2 250.1732062689294 57.599999999999994 235.18160916188708 64 226.7874936882711 70.4 213.32790955020053 76.8 205.8137253217668 83.2 200.4220829324815 89.60000000000001 190.45091108267783 96 178.68465256438918 102.4 164.78083217559436 108.80000000000001 162.39422591643245 115.19999999999999 158.35644615897598 121.6 150.8295804944166 128 146.47035620517028 134.4 132.5869811930326 140.8 135.70639550604335 147.20000000000002 119.05185912504874 153.6 102.43448102552006 160 97.17059262990381 166.4 87.08406482341223 172.8 77.51856472578544 179.20000000000002 74.59642779292335 185.6 71.29281821569234 192 68.12756446866729 198.4 55.436776736373304 204.8 42.603037280462786 211.20000000000002 40.81651453524353 217.60000000000002 36.304754245057836 224 36.6572979474077 230.39999999999998 34.2659358948747 236.8 23.33085411914385 243.2 19.76865934601949 249.60000000000002 20.33200398169265 256 23.771814644224662 262.4 19.35801697773445 268.8 21.657267117742037 275.2 22.19787348132064 281.6 24.033602880318313 288 26.401910883560333 294.40000000000003 29.526584832335686 300.79999999999995 29.794915849537517 307.2 23.46966410929707 313.6 24.70131671329517 320 22.404392641046456 326.4 17.801968137258825 332.8 12.43159057981768 339.20000000000005 14.836070760654366 345.6 10.202471704148252 352 9.855810919939017 358.40000000000003 12.717390334262234 364.79999999999995 20.45562184699736 371.2 22.802264075034657 377.59999999999997 27.111449338927628 384 30.80879128565607 390.4 30.77281116002007 396.8 35.99886946273466 403.2 39.3406500261471 409.6 45.23248051806797 416 51.02932233104764 422.40000000000003 55.06969157125195 428.8 47.53779842991264 435.20000000000005 51.37869661351567 441.59999999999997 59.10455757737344 448 66.29894814097696 454.4 64.91777756605259 460.79999999999995 67.49726829986486 467.2 73.6612086674221 473.6 78.63289474630488 480 85.7782006689095 486.4 83.41497210505378 492.8 83.84705159708727 499.20000000000005 83.63791153944706 505.6 82.8391964378383 512 87.04908994385701 518.4000000000001 93.69389729436568 524.8 96.66775020005059 531.1999999999999 92.09871811171868 537.6 94.37988391412435 544 101.2417694522224 550.4 101.14614878722927 556.8 101.85660961746933 563.2 105.42984276929127 569.6 105.13626615392013 576 106.0164731925747 582.4 106.49275725029011 588.8000000000001 108.50873554831054 595.2 104.55189193348343 601.5999999999999 89.14692521358495 608 88.95797006226775 614.4 86.21688018989104 620.8 82.74478282324276 627.2 78.74903468627798 633.6 74.18688917640213 640 74.02504587418002 640 320 0 320"
      />
      
      <polygon
        fill="#89e051"
        fillRule="evenodd"
        points="0 313.61355181748445 6.4 304.90984619351 12.8 298.3344813967619 19.2 288.07682904169025 25.6 281.2713541558153 32 277.3529839468653 38.4 269.9999637365063 44.800000000000004 260.0717334514888 51.2 250.1732062689294 57.599999999999994 235.18160916188708 64 226.7874936882711 70.4 213.32790955020053 76.8 205.8137253217668 83.2 200.4220829324815 89.60000000000001 190.45091108267783 96 178.68465256438918 102.4 164.78083217559436 108.80000000000001 162.39422591643245 115.19999999999999 158.35644615897598 121.6 150.8295804944166 128 146.47035620517028 134.4 132.5869811930326 140.8 135.70639550604335 147.20000000000002 119.05185912504874 153.6 102.43448102552006 160 97.17059262990381 166.4 87.08406482341223 172.8 77.51856472578544 179.20000000000002 74.59642779292335 185.6 71.29281821569234 192 68.12756446866729 198.4 55.436776736373304 204.8 42.603037280462786 211.20000000000002 40.81651453524353 217.60000000000002 36.304754245057836 224 36.6572979474077 230.39999999999998 34.2659358948747 236.8 23.33085411914385 243.2 19.76865934601949 249.60000000000002 20.33200398169265 256 23.771814644224662 262.4 19.35801697773445 268.8 21.657267117742037 275.2 22.19787348132064 281.6 24.033602880318313 288 26.401910883560333 294.40000000000003 29.526584832335686 300.79999999999995 29.794915849537517 307.2 23.46966410929707 313.6 24.70131671329517 320 22.404392641046456 326.4 17.801968137258825 332.8 12.43159057981768 339.20000000000005 14.836070760654366 345.6 10.202471704148252 352 9.855810919939017 358.40000000000003 12.717390334262234 364.79999999999995 20.45562184699736 371.2 22.802264075034657 377.59999999999997 27.111449338927628 384 30.80879128565607 390.4 30.77281116002007 396.8 35.99886946273466 403.2 39.3406500261471 409.6 45.23248051806797 416 51.02932233104764 422.40000000000003 55.06969157125195 428.8 47.53779842991264 435.20000000000005 51.37869661351567 441.59999999999997 59.10455757737344 448 66.29894814097696 454.4 64.91777756605259 460.79999999999995 67.49726829986486 467.2 73.6612086674221 473.6 78.63289474630488 480 85.7782006689095 486.4 83.41497210505378 492.8 83.84705159708727 499.20000000000005 83.63791153944706 505.6 82.8391964378383 512 87.04908994385701 518.4000000000001 93.69389729436568 524.8 96.66775020005059 531.1999999999999 92.09871811171868 537.6 94.37988391412435 544 101.2417694522224 550.4 101.14614878722927 556.8 101.85660961746933 563.2 105.42984276929127 569.6 105.13626615392013 576 106.0164731925747 582.4 106.49275725029011 588.8000000000001 108.50873554831054 595.2 104.55189193348343 601.5999999999999 89.14692521358495 608 88.95797006226775 614.4 86.21688018989104 620.8 82.74478282324276 627.2 78.74903468627798 633.6 75.29820119639794 640 75.13421706491798 640 320 0 320"
      />
      
      <polygon
        fill="#0141ae"
        fillRule="evenodd"
        points="0 313.69578992441035 6.4 304.9895740350495 12.8 298.41185291842095 19.2 288.1546014229674 25.6 281.34682801703326 32 277.4261540076202 38.4 270.07090032717497 44.800000000000004 260.1686641543814 51.2 250.6255614155329 57.599999999999994 236.59145491550314 64 228.16533139862887 70.4 215.5629457760665 76.8 209.34793624139382 83.2 203.84841424454288 89.60000000000001 193.80958777187277 96 182.16691156375808 102.4 169.20014123464318 108.80000000000001 166.68974223006273 115.19999999999999 162.52084384748545 121.6 154.8749455073995 128 151.50331375461005 134.4 138.3305271875086 140.8 141.27462243190465 147.20000000000002 124.45551973008395 153.6 107.98211139631832 160 102.61891595781049 166.4 92.52515443978766 172.8 83.01592069869008 179.20000000000002 79.93131368007224 185.6 76.46486030957357 192 73.6155598749983 198.4 61.01128579134411 204.8 50.21122079540186 211.20000000000002 49.30695089548482 217.60000000000002 44.536023366891754 224 46.72645537252828 230.39999999999998 45.536031745124205 236.8 38.06197884743068 243.2 34.37992024121485 249.60000000000002 35.1879914076448 256 40.459282270911785 262.4 36.76708123768486 268.8 38.53493409197182 275.2 38.69025078505473 281.6 40.022561127207325 288 41.96040369842217 294.40000000000003 45.10748571269079 300.79999999999995 44.918109797848956 307.2 38.14240538741285 313.6 38.926179248400786 320 36.368793267783076 326.4 33.6998967006287 332.8 28.417433398672244 339.20000000000005 30.372951834800745 345.6 26.294045903196547 352 25.53667573406392 358.40000000000003 28.083930859554016 364.79999999999995 35.36801475512385 371.2 37.58869792609187 377.59999999999997 41.46087659210423 384 45.374475688141274 390.4 45.02193026161967 396.8 49.82686633386288 403.2 53.20083177601009 409.6 58.85801875013658 416 64.62553937103453 422.40000000000003 68.63084566062923 428.8 63.21845260328979 435.20000000000005 66.93875947258476 441.59999999999997 74.20474544597116 448 80.93821603549142 454.4 80.2663160137837 460.79999999999995 82.74320723569016 467.2 88.44177334798698 473.6 93.40776390655466 480 100.10207463059888 486.4 98.34486977307319 492.8 99.94041161866983 499.20000000000005 99.86319843011219 505.6 98.67424000413098 512 102.40077772764539 518.4000000000001 108.59187210019019 524.8 111.11097629194191 531.1999999999999 106.11507610454737 537.6 107.96840486045096 544 114.41550485827833 550.4 113.93055022043342 556.8 114.39446684439122 563.2 117.5971520955099 569.6 116.93217731007582 576 117.45232378847362 582.4 117.64308071635804 588.8000000000001 119.31870363919134 595.2 115.05066965885075 601.5999999999999 99.8006163649475 608 99.38381882319749 614.4 97.92040893792088 620.8 95.72557438694074 627.2 92.85908979375301 633.6 90.30680246788984 640 90.11391226072851 640 320 0 320"
      />
      
      <polygon
        fill="#26c0b0"
        fillRule="evenodd"
        points="0 313.69578992441035 6.4 305.07507512847747 12.8 298.52242598409003 19.2 288.39204151008005 25.6 281.7296770907992 32 277.85568250960165 38.4 270.54542882382793 44.800000000000004 260.80007007081093 51.2 251.7275599291807 57.599999999999994 237.79093920021174 64 230.20548814779272 70.4 218.21683691594572 76.8 212.42857156192508 83.2 207.47609180701275 89.60000000000001 198.30986055824124 96 186.5298157571421 102.4 173.80644913488842 108.80000000000001 171.15544424591013 115.19999999999999 166.87833303237943 121.6 159.3526504495611 128 156.04895650300432 134.4 143.12365668246747 140.8 145.92426766233604 147.20000000000002 128.9677494100569 153.6 112.62429162140236 160 107.34720581230502 166.4 97.39188694957679 172.8 88.07454621038514 179.20000000000002 84.90360052907548 185.6 81.4789627378002 192 78.54025219017672 198.4 65.83898831735891 204.8 55.25800809157221 211.20000000000002 54.27476054970754 217.60000000000002 49.44598778374154 224 52.03141897082753 230.39999999999998 50.75703311937224 236.8 43.28779670219046 243.2 39.62434240057058 249.60000000000002 40.272329064776386 256 46.0155386372079 262.4 42.22625420812409 268.8 45.29492485675587 275.2 46.226451677647105 281.6 47.342479182595014 288 49.12250559555957 294.40000000000003 52.19638789496611 300.79999999999995 51.848142515383756 307.2 44.89932901740701 313.6 45.54062958670494 320 42.90217938771815 326.4 40.529942057032486 332.8 35.111840396018806 339.20000000000005 37.18682655788166 345.6 32.91368067543567 352 31.97353074790749 358.40000000000003 34.3299394991289 364.79999999999995 41.45136835609128 371.2 43.65063347308029 377.59999999999997 47.722426306045406 384 51.45046816561302 390.4 51.049296065602846 396.8 55.67609736756816 403.2 59.07784067300162 409.6 64.64970365633079 416 70.24043812149412 422.40000000000003 74.11932636269268 428.8 68.67694145368108 435.20000000000005 72.31800732871795 441.59999999999997 79.43591131518801 448 86.08179799556692 454.4 85.88891887252717 460.79999999999995 88.95212214234431 467.2 94.47232650611355 473.6 100.0083242856999 480 106.5886567873984 486.4 104.63974603860174 492.8 106.09861306991078 499.20000000000005 105.83342479735475 505.6 104.49621330306942 512 108.04503671578868 518.4000000000001 114.08041352843992 524.8 116.43198270059341 531.1999999999999 111.27882511806376 537.6 112.97453294372707 544 119.26882232673091 550.4 118.64042925156511 556.8 118.96058017440623 563.2 122.02831622134318 569.6 121.47125474599443 576 121.85284903590878 582.4 121.92209872186311 588.8000000000001 123.46993093788632 595.2 119.66078594381469 601.5999999999999 104.27001086172652 608 103.72112297312341 614.4 102.12531921281382 620.8 99.80213210936088 627.2 96.81516614606025 633.6 94.14212248684478 640 93.94184444077584 640 320 0 320"
      />
      
      <polygon
        fill="#dea584"
        fillRule="evenodd"
        points="0 313.69578992441035 6.4 305.07507512847747 12.8 298.52242598409003 19.2 288.39204151008005 25.6 281.7296770907992 32 277.85568250960165 38.4 270.54542882382793 44.800000000000004 260.80007007081093 51.2 251.7275599291807 57.599999999999994 237.79093920021174 64 230.20548814779272 70.4 218.6052313077608 76.8 212.80511044512386 83.2 207.84113707267494 89.60000000000001 198.66411709251 96 187.9962572888665 102.4 176.33190182197043 108.80000000000001 173.60380899543037 115.19999999999999 169.25196265011414 121.6 162.75999162482765 128 159.35229046966086 134.4 148.55735301410132 140.8 151.19210351694022 147.20000000000002 136.32714256908196 153.6 123.07438872869935 160 117.47831822991361 166.4 107.2235803259153 172.8 98.72231321915777 179.20000000000002 95.23667745337505 185.6 91.49662877526322 192 88.25213403398007 198.4 76.38153308003777 204.8 66.58285666476328 211.20000000000002 65.26490919490868 217.60000000000002 60.10066637782876 224 62.371205059820795 230.39999999999998 60.781203845876234 236.8 53.0059850272288 243.2 49.05531333221694 249.60000000000002 49.41542643141372 256 54.888415366513584 262.4 51.931250771018426 268.8 54.70368192340311 275.2 55.37541883128631 281.6 56.21217934667368 288 57.730066431656326 294.40000000000003 60.541209231077346 300.79999999999995 61.06436510198466 307.2 54.090050304822284 313.6 54.450808223641104 320 51.54902420950549 326.4 48.912845801808146 332.8 43.24699198688779 339.20000000000005 45.07365736757663 345.6 41.669037335286646 352 40.48713759039725 358.40000000000003 42.58367268606952 364.79999999999995 49.46116568571591 371.2 51.47780938450063 377.59999999999997 55.31827346577933 384 58.814456889243615 390.4 58.18850490976928 396.8 62.60430994353959 403.2 65.79457250705829 409.6 71.16792456719477 416 76.55969548843677 422.40000000000003 80.24569229058528 428.8 74.62819504914654 435.20000000000005 78.0876006442983 441.59999999999997 85.03498837670466 448 91.50996567545857 454.4 91.15666070943175 460.79999999999995 94.05906905257115 467.2 99.42338662458758 473.6 104.8130592638451 480 111.24672888075736 486.4 109.16015258689777 492.8 110.48103533772951 499.20000000000005 110.08207601065678 505.6 108.62755375189383 512 112.05026983700773 518.4000000000001 117.96727374205486 524.8 120.20019874242183 531.1999999999999 116.05403956605383 537.6 117.60398676859216 544 123.75696456931752 550.4 123.35410207669054 556.8 123.53036954509935 563.2 126.46305024546808 569.6 125.77062044222546 576 126.02097835370344 582.4 126.00009846001666 588.8000000000001 127.42345165279008 595.2 123.49746228368167 601.5999999999999 107.98957505592821 608 107.33075632988312 614.4 105.62477173752694 620.8 103.19476603936727 627.2 100.10753240861388 633.6 97.33399091839686 640 97.12756339551373 640 320 0 320"
      />
      
      <polygon
        fill="#701516"
        fillRule="evenodd"
        points="0 313.69578992441035 6.4 305.07507512847747 12.8 298.52242598409003 19.2 288.39204151008005 25.6 281.7296770907992 32 277.85568250960165 38.4 270.54542882382793 44.800000000000004 260.80007007081093 51.2 251.7275599291807 57.599999999999994 237.79093920021174 64 230.20548814779272 70.4 218.6052313077608 76.8 212.80511044512386 83.2 207.84113707267494 89.60000000000001 198.66411709251 96 187.9962572888665 102.4 176.33190182197043 108.80000000000001 173.60380899543037 115.19999999999999 169.25196265011414 121.6 162.75999162482765 128 159.35229046966086 134.4 148.55735301410132 140.8 151.19210351694022 147.20000000000002 136.32714256908196 153.6 123.07438872869935 160 117.47831822991361 166.4 107.2235803259153 172.8 98.72231321915777 179.20000000000002 95.23667745337505 185.6 91.49662877526322 192 88.25213403398007 198.4 76.38153308003777 204.8 66.58285666476328 211.20000000000002 65.26490919490868 217.60000000000002 60.10066637782876 224 62.371205059820795 230.39999999999998 60.781203845876234 236.8 53.0059850272288 243.2 49.05531333221694 249.60000000000002 49.41542643141372 256 54.888415366513584 262.4 51.931250771018426 268.8 54.70368192340311 275.2 55.37541883128631 281.6 56.21217934667368 288 57.730066431656326 294.40000000000003 60.541209231077346 300.79999999999995 61.06436510198466 307.2 54.090050304822284 313.6 54.450808223641104 320 51.54902420950549 326.4 48.912845801808146 332.8 43.24699198688779 339.20000000000005 45.07365736757663 345.6 41.669037335286646 352 40.48713759039725 358.40000000000003 42.58367268606952 364.79999999999995 49.46116568571591 371.2 51.47780938450063 377.59999999999997 55.31827346577933 384 58.814456889243615 390.4 58.18850490976928 396.8 62.60430994353959 403.2 65.79457250705829 409.6 71.16792456719477 416 76.55969548843677 422.40000000000003 80.24569229058528 428.8 74.62819504914654 435.20000000000005 78.0876006442983 441.59999999999997 85.03498837670466 448 91.50996567545857 454.4 91.15666070943175 460.79999999999995 94.05906905257115 467.2 99.42338662458758 473.6 104.8130592638451 480 111.24672888075736 486.4 109.16015258689777 492.8 110.48103533772951 499.20000000000005 110.08207601065678 505.6 108.62755375189383 512 112.05026983700773 518.4000000000001 117.96727374205486 524.8 120.20019874242183 531.1999999999999 116.05403956605383 537.6 117.60398676859216 544 123.75696456931752 550.4 123.35410207669054 556.8 123.53036954509935 563.2 126.46305024546808 569.6 125.77062044222546 576 126.02097835370344 582.4 126.00009846001666 588.8000000000001 127.42345165279008 595.2 123.49746228368167 601.5999999999999 108.0091312840812 608 107.3497345834572 614.4 105.64317069205427 620.8 103.21260337531294 627.2 100.12484257139141 633.6 97.35077269759267 640 97.14431284597856 640 320 0 320"
      />
      
      <polygon
        fill="#3572A5"
        fillRule="evenodd"
        points="0 313.69578992441035 6.4 305.07507512847747 12.8 298.52242598409003 19.2 288.39204151008005 25.6 281.7296770907992 32 277.85568250960165 38.4 270.54542882382793 44.800000000000004 260.80007007081093 51.2 251.7275599291807 57.599999999999994 237.79093920021174 64 230.20548814779272 70.4 218.6052313077608 76.8 212.80511044512386 83.2 207.84113707267494 89.60000000000001 198.66411709251 96 187.9962572888665 102.4 176.33190182197043 108.80000000000001 173.60380899543037 115.19999999999999 169.25196265011414 121.6 163.42161935097488 128 159.99372237192364 134.4 149.2162469007725 140.8 151.83088504483885 147.20000000000002 137.94828750256335 153.6 125.43995727914643 160 119.7716792347961 166.4 109.44916217301119 172.8 100.8799606508233 179.20000000000002 97.33055673809679 185.6 93.52659359478525 192 90.22013533263251 198.4 78.29519471711731 204.8 68.47397552902251 211.20000000000002 67.10013725967912 217.60000000000002 61.87987479262381 224 64.09783024862404 230.39999999999998 62.45512466456995 236.8 54.62881036011902 243.2 50.63017679436865 249.60000000000002 50.942217924504405 256 56.37008375825968 262.4 53.4035256129323 268.8 56.13101630491337 275.2 56.7633423288994 281.6 57.55773723583286 288 59.03585699167252 294.40000000000003 61.807141218543734 300.79999999999995 62.29288318259381 307.2 55.2810684754981 313.6 55.605471342535395 320 52.669561985996495 326.4 49.99917983643695 332.8 44.301219953246914 339.20000000000005 46.09570569553182 345.6 42.6598880731043 352 41.45062943451342 358.40000000000003 43.517754457983585 364.79999999999995 50.36764108673776 371.2 52.378946840720744 377.59999999999997 56.192778122368054 384 59.662267814511495 390.4 59.010436923779366 396.8 63.40195020891326 403.2 66.56786520913496 409.6 71.91836305639927 416 77.28722731008543 422.40000000000003 80.95101656645716 428.8 75.31335864217584 435.20000000000005 78.75185007711764 441.59999999999997 85.67960626651484 448 92.13490687321337 454.4 91.76313210441438 460.79999999999995 94.6470283111289 467.2 99.99339877768222 473.6 105.36622498644715 480 111.78300956909655 486.4 109.68058378171537 492.8 110.98558068551506 499.20000000000005 110.57122030365989 505.6 109.10319202730764 512 112.51138948824462 518.4000000000001 118.41476527599494 524.8 120.63403089175802 531.1999999999999 116.47505005417727 537.6 118.01214613662378 544 124.15266511253071 550.4 123.73810786614101 556.8 123.9026537626236 563.2 126.82433185417631 569.6 126.12087405220112 576 126.3605407435391 582.4 126.3302849732926 588.8000000000001 127.74355938646886 595.2 123.80810942211951 601.5999999999999 108.32971237375824 608 107.66084104202702 614.4 105.94478073618086 620.8 103.50500701106773 627.2 100.40860438790443 633.6 97.62587284325778 640 97.41888302979763 640 320 0 320"
      />
      
      <polygon
        fill="#0298c3"
        fillRule="evenodd"
        points="0 313.69578992441035 6.4 305.07507512847747 12.8 298.52242598409003 19.2 288.39204151008005 25.6 281.7296770907992 32 277.85568250960165 38.4 270.54542882382793 44.800000000000004 260.80007007081093 51.2 251.7275599291807 57.599999999999994 237.79093920021174 64 230.20548814779272 70.4 218.6052313077608 76.8 212.80511044512386 83.2 207.84113707267494 89.60000000000001 198.66411709251 96 187.9962572888665 102.4 176.33190182197043 108.80000000000001 173.60380899543037 115.19999999999999 169.25196265011414 121.6 163.42161935097488 128 159.99372237192364 134.4 149.2162469007725 140.8 151.83088504483885 147.20000000000002 137.94828750256335 153.6 126.07806848653485 160 120.39031246141803 166.4 110.04951203961056 172.8 101.46198518337792 179.20000000000002 97.89537986426066 185.6 94.07417579629913 192 90.75100293393632 198.4 78.81140418841827 204.8 68.97442794212711 211.20000000000002 67.69027326944862 217.60000000000002 62.45199725775581 224 64.65304391305176 230.39999999999998 62.99339076012063 236.8 55.15064619991881 243.2 51.136590104304844 249.60000000000002 51.433173214179874 256 56.84652914736773 262.4 53.86542778940941 268.8 56.57881915560341 275.2 57.198780608799325 281.6 57.97988403317623 288 59.44552743477726 294.40000000000003 62.204306711643994 300.79999999999995 62.67831066351431 307.2 55.65473101304866 313.6 55.96772806377811 320 53.02111239289144 326.4 50.33999936108046 332.8 44.63196671953608 339.20000000000005 46.41635662546071 345.6 42.97075130839892 352 41.75290922374131 358.40000000000003 43.81080733989859 364.79999999999995 50.65203293486479 371.2 52.654657803453574 377.59999999999997 56.46034057621506 384 59.921663099785064 390.4 59.261914295272504 396.8 63.64599531171376 403.2 66.80446097620461 409.6 72.14796636238236 416 77.50982211545963 422.40000000000003 81.16681677947065 428.8 75.52299053373449 435.20000000000005 78.95508307266647 441.59999999999997 85.87683282572985 448 92.32611319655689 454.4 91.94868742970431 460.79999999999995 94.82691966084019 467.2 100.16779906218088 473.6 105.53547095350018 480 111.94708939199668 486.4 109.83981431552286 492.8 111.13995081250852 499.20000000000005 110.72087835602639 505.6 109.24871778086131 512 112.65247314695893 518.4000000000001 118.55167928569551 524.8 120.76676568627235 531.1999999999999 116.60386193705716 537.6 118.1370261068304 544 124.27373320446486 550.4 123.85559783965678 556.8 124.01655743869492 563.2 126.93486916229404 569.6 126.22803726544623 576 126.46443286009963 582.4 126.43130846393137 588.8000000000001 127.84149919623013 595.2 126.40235994619434 601.5999999999999 115.17758245848839 608 114.40696404199429 614.4 112.69050392973381 620.8 110.04482096185885 627.2 107.1948635952021 633.6 104.20498691173822 640 103.98532084083226 640 320 0 320"
      />
      
      <polygon
        fill="#fd2fdb"
        fillRule="evenodd"
        points="0 313.69578992441035 6.4 305.07507512847747 12.8 298.52242598409003 19.2 288.39204151008005 25.6 281.7296770907992 32 277.85568250960165 38.4 270.54542882382793 44.800000000000004 260.80007007081093 51.2 251.7275599291807 57.599999999999994 237.79093920021174 64 230.20548814779272 70.4 218.6052313077608 76.8 212.80511044512386 83.2 207.84113707267494 89.60000000000001 198.66411709251 96 187.9962572888665 102.4 176.33190182197043 108.80000000000001 173.60380899543037 115.19999999999999 169.25196265011414 121.6 163.42161935097488 128 159.99372237192364 134.4 149.2162469007725 140.8 151.83088504483885 147.20000000000002 137.94828750256335 153.6 126.07806848653485 160 120.39031246141803 166.4 110.04951203961056 172.8 101.46198518337792 179.20000000000002 97.89537986426066 185.6 94.07417579629913 192 90.75100293393632 198.4 78.81140418841827 204.8 68.97442794212711 211.20000000000002 67.69027326944862 217.60000000000002 62.45199725775581 224 64.65304391305176 230.39999999999998 62.99339076012063 236.8 55.15064619991881 243.2 51.136590104304844 249.60000000000002 51.433173214179874 256 56.84652914736773 262.4 53.86542778940941 268.8 56.57881915560341 275.2 58.328383849313866 281.6 59.07500682181228 288 60.50828439913869 294.40000000000003 63.234623665086986 300.79999999999995 64.5589377690089 307.2 57.47795306895733 313.6 57.735297190115546 320 54.73644189453489 326.4 52.002969635185764 332.8 46.24578875311113 339.20000000000005 47.98091759726594 345.6 44.48755498786994 352 43.2278314602234 358.40000000000003 45.24070845598345 364.79999999999995 52.03967396837277 371.2 53.99994196239231 377.59999999999997 57.76586562613761 384 61.187337694532914 390.4 60.48895480810012 396.8 64.83677129690551 403.2 67.95888930772887 409.6 73.26827618448363 416 78.5959351314307 422.40000000000003 82.21977679128014 428.8 76.54585327074642 435.20000000000005 79.94672340503331 441.59999999999997 86.83916583747887 448 93.25907148264875 454.4 92.85407263641736 460.79999999999995 95.70466859595004 467.2 101.01875511069107 473.6 106.36127742149765 480 112.74768863584262 486.4 110.61675233555403 492.8 111.89317322231125 499.20000000000005 111.45110910216266 505.6 109.95878564527106 512 113.34086660246209 518.4000000000001 119.21972765008775 524.8 121.41442224868356 531.1999999999999 117.23237734867016 537.6 118.74635646189324 544 124.86446408425616 550.4 124.42886995116427 556.8 124.57233079100203 563.2 127.47421689294669 569.6 126.75092172626393 576 126.97135656798028 582.4 126.92423519687807 588.8000000000001 128.319379624239 595.2 126.86611689151874 601.5999999999999 115.62718345162764 608 114.84327733383535 614.4 114.22078224646026 620.8 111.5283885111366 627.2 109.7543094861501 633.6 106.68630686862033 640 106.46186079401505 640 320 0 320"
      />
      
      <polygon
        fill="#4F5D95"
        fillRule="evenodd"
        points="0 313.69578992441035 6.4 305.07507512847747 12.8 298.52242598409003 19.2 288.39204151008005 25.6 281.7296770907992 32 277.85568250960165 38.4 270.54542882382793 44.800000000000004 260.80007007081093 51.2 251.7275599291807 57.599999999999994 237.79093920021174 64 230.20548814779272 70.4 218.6052313077608 76.8 212.80511044512386 83.2 207.84113707267494 89.60000000000001 198.66411709251 96 187.9962572888665 102.4 176.33190182197043 108.80000000000001 173.60380899543037 115.19999999999999 169.25196265011414 121.6 163.42161935097488 128 159.99372237192364 134.4 149.2162469007725 140.8 151.83088504483885 147.20000000000002 137.94828750256335 153.6 126.07806848653485 160 120.39031246141803 166.4 110.04951203961056 172.8 101.46198518337792 179.20000000000002 97.89537986426066 185.6 94.07417579629913 192 90.75100293393632 198.4 78.81140418841827 204.8 68.97442794212711 211.20000000000002 67.69027326944862 217.60000000000002 62.45199725775581 224 64.67267098020193 230.39999999999998 63.01241872182868 236.8 55.16909334391164 243.2 51.15449205250172 249.60000000000002 51.45052871712153 256 56.863371717483346 262.4 53.88175624916579 268.8 56.594649198250124 275.2 58.34377679905134 281.6 59.08992991013281 288 60.52276644375161 294.40000000000003 63.24866365388908 300.79999999999995 64.57256281403335 307.2 57.49116221666941 313.6 57.74810313650096 320 54.748869367789894 326.4 52.01501776705953 332.8 46.25748080861729 339.20000000000005 47.992252759529435 345.6 44.49854415112742 352 43.238517194456335 358.40000000000003 45.25106801455979 364.79999999999995 52.04972735497097 371.2 54.00968847573279 377.59999999999997 57.775324086200555 384 61.19650744113943 390.4 60.49784465322608 396.8 64.84539840725805 403.2 67.96725308066993 409.6 73.27639277050724 416 78.60380396283438 422.40000000000003 82.22740543160796 428.8 76.55326385782729 435.20000000000005 79.95390778758394 441.59999999999997 86.84613788901828 448 93.26583071675086 454.4 92.86063210479395 460.79999999999995 95.71102784043177 467.2 101.0249202431477 473.6 106.36726034672765 480 112.75348893574994 486.4 110.62238121078047 492.8 111.89863027931833 499.20000000000005 111.45639958539121 505.6 109.96393004986032 512 113.34585397673717 518.4000000000001 119.22456762526298 524.8 121.41911448660346 531.1999999999999 117.23693090986666 537.6 118.75077102814464 544 124.86874389838093 550.4 124.43302327767782 556.8 124.57635733993939 563.2 127.47812443910925 569.6 126.75470999674346 576 126.97502920388192 582.4 126.92780642528896 588.8000000000001 128.32284184298038 595.2 126.86947678612245 601.5999999999999 115.63044078751182 608 114.8464384008355 614.4 114.2238468235577 620.8 111.53135954380821 627.2 109.75719271153065 633.6 106.68910208531673 640 106.46465062560367 640 320 0 320"
      />
      
      <polygon
        fill="#755462"
        fillRule="evenodd"
        points="0 318.02122421132367 6.4 313.5273649630658 12.8 310.8961241974659 19.2 304.60636069664224 25.6 301.51235946030687 32 299.63475520747113 38.4 295.68733173818254 44.800000000000004 289.60725146237604 51.2 284.8540397968056 57.599999999999994 274.4471219672078 64 270.1967746437797 70.4 262.9523958438008 76.8 259.7806584512592 83.2 257.2940093348357 89.60000000000001 251.48862435441026 96 243.11578283595162 102.4 233.69078512105187 108.80000000000001 232.44230483256024 115.19999999999999 230.48713918988625 121.6 226.74335176180446 128 225.02615563378092 134.4 216.7622099668816 140.8 218.75161088587896 147.20000000000002 208.3586410700853 153.6 198.35256287336156 160 194.34759009383154 166.4 186.11872929445482 172.8 178.69907694481302 179.20000000000002 176.47509575162144 185.6 173.87230969454353 192 171.38700818569777 198.4 162.65604960182267 204.8 154.12872449807116 211.20000000000002 153.54802052887737 217.60000000000002 149.77124914354044 224 151.99180983924393 230.39999999999998 150.2405505027 236.8 143.46436197817468 243.2 140.69802803287325 249.60000000000002 142.92944216264277 256 147.05377515892445 262.4 144.44716701006658 268.8 147.14076321162872 275.2 149.53432819853208 281.6 150.79097789558176 288 152.38227483988413 294.40000000000003 155.03546708403763 300.79999999999995 154.49059132842748 307.2 148.88687770442306 313.6 148.96308886271643 320 145.90477704312468 326.4 141.78907692669694 332.8 137.45870809770162 339.20000000000005 139.3711786384165 345.6 135.0641439749433 352 134.18781095666446 358.40000000000003 137.09703683443564 364.79999999999995 142.45250290832016 371.2 144.399239900189 377.59999999999997 146.9758855535024 384 149.82617699628224 390.4 149.06464462402937 396.8 151.71944822880224 403.2 154.19243692283078 409.6 158.3029526669745 416 162.42167745096233 422.40000000000003 164.4855663841851 428.8 158.22333228304186 435.20000000000005 161.34778714694417 441.59999999999997 165.87473434733565 448 170.07079041546217 454.4 168.5636940891617 460.79999999999995 169.2137941150718 467.2 173.47277093782674 473.6 177.1538337024035 480 181.49375421591918 486.4 177.55146075562013 492.8 179.11023249766555 499.20000000000005 179.8434254692242 505.6 178.85207541008288 512 181.19128139756515 518.4000000000001 185.21859747826494 524.8 189.194306062017 531.1999999999999 186.26910316573304 537.6 186.94224009683214 544 190.9833743133335 550.4 193.0612174049051 556.8 195.38485480114676 563.2 199.02885516176076 569.6 200.45624304602092 576 202.5485995317138 582.4 204.6815495925889 588.8000000000001 208.14738906347225 595.2 207.11134340095256 601.5999999999999 197.5379722339926 608 198.0925250105056 614.4 198.37923768811575 620.8 197.54831730048554 627.2 197.6443217779924 633.6 195.9882691104445 640 195.64344314226616 640 320 0 320"
      />
      
      <polygon
        fill="#2415b9"
        fillRule="evenodd"
        points="0 318.02122421132367 6.4 313.5273649630658 12.8 310.8961241974659 19.2 304.60636069664224 25.6 301.51235946030687 32 299.63475520747113 38.4 295.68733173818254 44.800000000000004 289.60725146237604 51.2 284.8540397968056 57.599999999999994 274.4471219672078 64 270.1967746437797 70.4 262.9523958438008 76.8 259.7806584512592 83.2 257.2940093348357 89.60000000000001 251.48862435441026 96 243.11578283595162 102.4 233.69078512105187 108.80000000000001 232.44230483256024 115.19999999999999 230.48713918988625 121.6 226.74335176180446 128 225.02615563378092 134.4 216.7622099668816 140.8 218.75161088587896 147.20000000000002 208.3586410700853 153.6 198.35256287336156 160 194.34759009383154 166.4 186.11872929445482 172.8 178.69907694481302 179.20000000000002 176.47509575162144 185.6 173.87230969454353 192 171.38700818569777 198.4 162.65604960182267 204.8 154.12872449807116 211.20000000000002 153.54802052887737 217.60000000000002 149.77124914354044 224 151.99180983924393 230.39999999999998 150.2405505027 236.8 143.46436197817468 243.2 140.69802803287325 249.60000000000002 142.92944216264277 256 147.05377515892445 262.4 144.44716701006658 268.8 147.14076321162872 275.2 149.53432819853208 281.6 150.79097789558176 288 152.38227483988413 294.40000000000003 155.03546708403763 300.79999999999995 154.49059132842748 307.2 148.88687770442306 313.6 148.96308886271643 320 145.90477704312468 326.4 142.1487074715736 332.8 137.81833864257828 339.20000000000005 139.73080918329313 345.6 135.42377451981994 352 134.5474415015411 358.40000000000003 137.45666737931228 364.79999999999995 142.8121334531968 371.2 144.75887044506567 377.59999999999997 147.33551609837906 384 150.1858075411589 390.4 149.42427516890604 396.8 152.0790787736789 403.2 154.55206746770745 409.6 158.66258321185114 416 162.78130799583897 422.40000000000003 164.84519692906173 428.8 158.58296282791852 435.20000000000005 161.7074176918208 441.59999999999997 166.23436489221228 448 170.43042096033884 454.4 168.92332463403832 460.79999999999995 169.57342465994844 467.2 173.8324014827034 473.6 177.51346424728015 480 181.85338476079582 486.4 177.91109130049676 492.8 179.46986304254222 499.20000000000005 180.20305601410084 505.6 179.21170595495954 512 181.5509119424418 518.4000000000001 185.57822802314158 524.8 189.55393660689364 531.1999999999999 186.62873371060968 537.6 187.3018706417088 544 191.34300485821015 550.4 193.42084794978177 556.8 195.7444853460234 563.2 199.38848570663743 569.6 200.81587359089758 576 202.90823007659046 582.4 205.04118013746557 588.8000000000001 208.5070196083489 595.2 207.4709739458292 601.5999999999999 197.89760277886927 608 198.45215555538226 614.4 198.7388682329924 620.8 197.90794784536217 627.2 198.00395232286905 633.6 196.34789965532116 640 195.64344314226616 640 320 0 320"
      />
      
      <polygon
        fill="#f1e05a"
        fillRule="evenodd"
        points="0 318.02122421132367 6.4 313.5273649630658 12.8 310.8961241974659 19.2 304.60636069664224 25.6 301.51235946030687 32 299.63475520747113 38.4 295.68733173818254 44.800000000000004 289.60725146237604 51.2 284.8540397968056 57.599999999999994 275.558626440921 64 271.2743510581313 70.4 264.38155591546 76.8 261.6233114482592 83.2 259.09166638557656 89.60000000000001 253.23315277375013 96 246.00812721411447 102.4 237.61109251661412 108.80000000000001 236.28998689461633 115.19999999999999 234.21737280034176 121.6 230.51376894807072 128 228.68148292831148 134.4 222.60336657559327 140.8 224.41446852728106 147.20000000000002 213.8541364173023 153.6 203.68031112171047 160 199.51271289602934 166.4 191.13119879450454 172.8 184.67472458839217 179.20000000000002 182.274135924471 185.6 179.49433837743425 192 176.83742733766837 198.4 169.2790606883687 204.8 161.91441959492965 211.20000000000002 161.1036137279653 217.60000000000002 157.6520577856341 224 159.7498538682711 230.39999999999998 157.76178511328837 236.8 151.88578831940168 243.2 148.87056383539164 249.60000000000002 150.85251715515994 256 154.74268853857737 262.4 153.0043384692469 268.8 155.44777155372947 275.2 157.61196726165804 281.6 159.39930484749067 288 161.38440689708193 294.40000000000003 163.76281263450605 300.79999999999995 164.08020762360903 307.2 158.18377785518146 313.6 157.9762081468181 320 154.6515173661267 326.4 150.62845766705288 332.8 146.0474746415231 339.20000000000005 147.7087541383096 345.6 144.26961884858318 352 143.14903863568793 358.40000000000003 145.7957064727714 364.79999999999995 150.90471567922032 371.2 152.60443118369807 377.59999999999997 154.9492050432022 384 157.56709398024017 390.4 156.58025204410623 396.8 159.02356411804806 403.2 161.28457732128373 409.6 165.19611708856442 416 169.11540906214566 422.40000000000003 170.98595249706756 428.8 165.6690799285027 435.20000000000005 168.57723448743099 441.59999999999997 172.90114763989106 448 176.89370419540953 454.4 175.19558959143987 460.79999999999995 175.65423156290026 467.2 179.72759525232397 473.6 183.23442873158857 480 187.39972076988732 486.4 183.2935069879724 492.8 184.68798408438056 499.20000000000005 185.26189709861964 505.6 184.1308640698102 512 186.31991505716388 518.4000000000001 190.20628648149255 524.8 194.0407261248736 531.1999999999999 190.9829198430764 537.6 191.52314657243164 544 195.43542886376076 550.4 197.39232265450477 556.8 199.59473311513824 563.2 203.12494185028356 569.6 204.4382761952868 576 206.42006015989398 582.4 208.45604375621508 588.8000000000001 211.81764585493968 595.2 210.68375674309442 601.5999999999999 201.01231679258464 608 201.4748164797993 614.4 201.669264297096 620.8 200.74889464806398 627.2 200.76093649051322 633.6 199.02072842593566 640 198.31112344200022 640 320 0 320"
      />
      
      <polygon
        fill="#22e8e8"
        fillRule="evenodd"
        points="0 319.9256742716267 6.4 319.85646901432716 12.8 319.82723292110757 19.2 318.6603031639581 25.6 318.5475302279708 32 318.4075980895127 38.4 318.26954472657656 44.800000000000004 316.01153670796754 51.2 316.01949951391515 57.599999999999994 310.27120236838465 64 309.3798736914238 70.4 306.93693627030854 76.8 307.02226791609894 83.2 306.2791056262057 89.60000000000001 304.58412011623125 96 300.1563060722254 102.4 294.7536529053731 108.80000000000001 293.47878549628797 115.19999999999999 293.78096190714695 121.6 290.88386962487965 128 291.25493720199546 134.4 286.978539053634 140.8 287.2959206747558 147.20000000000002 280.0896366033562 153.6 272.3565375045115 160 270.6873759028717 166.4 264.64104568081524 172.8 259.7160612326076 179.20000000000002 258.48213974416234 185.6 256.49762918406583 192 254.7095814306586 198.4 249.75804713417358 204.8 243.84333364609296 211.20000000000002 243.32682475667545 217.60000000000002 241.83028929985517 224 242.76855122199487 230.39999999999998 241.70747129706547 236.8 237.2178553912575 243.2 234.04439038495417 249.60000000000002 235.7303400233613 256 237.40444743893192 262.4 235.5605303919425 268.8 237.00511018834703 275.2 238.39937800032834 281.6 240.81759490072128 288 242.5414921479894 294.40000000000003 244.5917401507928 300.79999999999995 243.76038578568142 307.2 239.79407362880588 313.6 239.8281098855857 320 237.43532768080146 326.4 235.72258289525988 332.8 231.99176236775511 339.20000000000005 232.20075508280877 345.6 229.58700271904956 352 229.00008854685524 358.40000000000003 230.61537194428695 364.79999999999995 233.2473384340513 371.2 234.3858812987243 377.59999999999997 235.4497693216997 384 235.98083523356115 390.4 235.02391455876096 396.8 236.2727559060445 403.2 237.1099722593125 409.6 239.17611001370818 416 241.0401822668808 422.40000000000003 242.0107451256697 428.8 236.84732177302448 435.20000000000005 238.1858945067347 441.59999999999997 240.60234779948587 448 242.69854166639448 454.4 240.20797601920987 460.79999999999995 240.05522551406312 467.2 242.49391835970943 473.6 244.47761578486882 480 246.78132551831067 486.4 243.48883338506636 492.8 244.04378277241938 499.20000000000005 246.20497554474787 505.6 246.89560069273483 512 247.99731386523317 518.4000000000001 250.11825586221482 524.8 252.2328477085382 531.1999999999999 249.58180926089253 537.6 249.44276067950557 544 251.59490319504488 550.4 252.5120537047584 556.8 253.35344134079034 563.2 255.30238950565166 569.6 256.15328520815643 576 257.94405295012615 582.4 258.99698234196353 588.8000000000001 260.8264956410472 595.2 259.2205976041464 601.5999999999999 252.11871789678028 608 252.09486042771465 614.4 251.3293043034226 620.8 250.0362217778071 627.2 248.8402677025632 633.6 247.38034438198827 640 246.62942915112075 640 320 0 320"
      />
      
      <polygon
        fill="#22e4e8"
        fillRule="evenodd"
        points="0 319.9256742716267 6.4 319.85646901432716 12.8 319.82723292110757 19.2 318.6603031639581 25.6 318.5475302279708 32 318.4075980895127 38.4 318.26954472657656 44.800000000000004 316.01153670796754 51.2 316.01949951391515 57.599999999999994 310.27120236838465 64 309.3798736914238 70.4 306.93693627030854 76.8 307.02226791609894 83.2 306.2791056262057 89.60000000000001 304.58412011623125 96 300.1563060722254 102.4 294.7536529053731 108.80000000000001 293.47878549628797 115.19999999999999 293.78096190714695 121.6 290.88386962487965 128 291.25493720199546 134.4 286.978539053634 140.8 287.2959206747558 147.20000000000002 280.0896366033562 153.6 272.3565375045115 160 270.6873759028717 166.4 264.64104568081524 172.8 259.7160612326076 179.20000000000002 258.48213974416234 185.6 256.49762918406583 192 254.7095814306586 198.4 249.75804713417358 204.8 243.84333364609296 211.20000000000002 243.32682475667545 217.60000000000002 241.83028929985517 224 242.76855122199487 230.39999999999998 241.70747129706547 236.8 237.2178553912575 243.2 234.04439038495417 249.60000000000002 235.7303400233613 256 237.40444743893192 262.4 235.5605303919425 268.8 237.00511018834703 275.2 238.39937800032834 281.6 240.81759490072128 288 242.5414921479894 294.40000000000003 244.5917401507928 300.79999999999995 243.76038578568142 307.2 239.79407362880588 313.6 239.8281098855857 320 237.43532768080146 326.4 235.77395868738512 332.8 232.04313815988036 339.20000000000005 232.25213087493404 345.6 229.6383785111748 352 229.05146433898045 358.40000000000003 230.6667477364122 364.79999999999995 233.29871422617651 371.2 234.43725709084956 377.59999999999997 235.50114511382495 384 236.03221102568637 390.4 235.07529035088618 396.8 236.3241316981697 403.2 237.16134805143776 409.6 239.22748580583345 416 241.09155805900605 422.40000000000003 242.0621209177949 428.8 236.8986975651497 435.20000000000005 238.23727029885993 441.59999999999997 240.65372359161108 448 242.7499174585197 454.4 240.25935181133508 460.79999999999995 240.10660130618834 467.2 242.5452941518347 473.6 244.5289915769941 480 246.8327013104359 486.4 243.54020917719157 492.8 244.0951585645446 499.20000000000005 246.25635133687314 505.6 246.94697648486007 512 248.0486896573584 518.4000000000001 250.16963165434004 524.8 252.28422350066344 531.1999999999999 249.63318505301777 537.6 249.4941364716308 544 251.64627898717015 550.4 252.56342949688363 556.8 253.40481713291558 563.2 255.3537652977769 569.6 256.2046610002817 576 257.99542874225136 582.4 259.04835813408874 588.8000000000001 260.87787143317246 595.2 259.2719733962716 601.5999999999999 252.17009368890552 608 252.14623621983992 614.4 251.3806800955478 620.8 250.08759756993234 627.2 248.89164349468842 633.6 247.4317201741135 640 246.62942915112075 640 320 0 320"
      />
      
      <polygon
        fill="#e34c26"
        fillRule="evenodd"
        points="0 319.9256742716267 6.4 319.85646901432716 12.8 319.82723292110757 19.2 318.6603031639581 25.6 318.63876257871476 32 318.5126030365561 38.4 318.3713444581686 44.800000000000004 316.11052558057855 51.2 316.2070756957132 57.599999999999994 311.64862444858414 64 310.7510485780525 70.4 308.2675867541215 76.8 308.3123009041608 83.2 307.5297611246353 89.60000000000001 305.7978129927616 96 302.0857722387332 102.4 297.7266123747302 108.80000000000001 296.3609969242184 115.19999999999999 296.5751956818652 121.6 294.70441221924244 128 294.97530111177736 134.4 291.7197381034158 140.8 292.1942253555829 147.20000000000002 288.1167952516621 153.6 282.47605193979945 160 280.5091090543909 166.4 276.0942027260495 172.8 271.33211036435415 179.20000000000002 270.3321049124868 185.6 269.0820041082096 192 268.32412832575994 198.4 264.1112751684516 204.8 258.7341569416536 211.20000000000002 258.87803659427726 217.60000000000002 257.3390791183833 224 258.03728045920695 230.39999999999998 256.5238305195198 236.8 252.72249199075026 243.2 250.1933636739965 249.60000000000002 252.19010089170675 256 254.1886998653721 262.4 252.86782126272453 268.8 253.80101669947285 275.2 254.90775372573023 281.6 256.8330794966004 288 258.5829174088284 294.40000000000003 260.4521356154676 300.79999999999995 259.97210946722544 307.2 257.8644029018111 313.6 257.54207611409345 320 255.72568508625727 326.4 254.32303122427766 332.8 252.44399563807156 339.20000000000005 252.30172795230163 345.6 249.89600336346837 352 249.60732360952935 358.40000000000003 250.639867837138 364.79999999999995 252.6897733175353 371.2 254.04380577718257 377.59999999999997 254.88133617011755 384 255.76538048929126 390.4 254.20612180748807 396.8 254.90085160383654 403.2 255.17102922935499 409.6 256.7049004196273 416 258.1051417463348 422.40000000000003 258.55637754800495 428.8 255.1694366106246 435.20000000000005 257.12074478414814 441.59999999999997 258.9791069571062 448 260.5159304469978 454.4 258.600564058384 460.79999999999995 258.02059096120894 467.2 259.9124789210763 473.6 261.3828921097867 480 263.17214726623496 486.4 261.8204383589879 492.8 263.5576207593149 499.20000000000005 265.2078792239262 505.6 265.57696281180233 512 267.2215434293712 518.4000000000001 268.77583098952834 524.8 270.33942671295114 531.1999999999999 268.43865670063803 537.6 268.96362995731135 544 270.52148402495783 550.4 271.9838015601974 556.8 273.449450281248 563.2 274.8252285313275 569.6 276.2041605152321 576 277.54101696868025 582.4 278.71337760943953 588.8000000000001 279.9736368566172 595.2 278.9297386097743 601.5999999999999 275.72393182306706 608 277.03249833015855 614.4 278.2863026508875 620.8 278.4158784876862 627.2 279.64487413094355 633.6 279.5825110708138 640 279.6603644306145 640 320 0 320"
      />
      
      <polygon
        fill="#00ADD8"
        fillRule="evenodd"
        points="0 319.9256742716267 6.4 319.85646901432716 12.8 319.82723292110757 19.2 318.6603031639581 25.6 318.63876257871476 32 318.5153628067302 38.4 318.3740199879701 44.800000000000004 316.6121813174863 51.2 316.69341867227484 57.599999999999994 313.13944451293304 64 312.19636212352015 70.4 310.88203176631015 76.8 310.86396428736606 83.2 310.00353654644385 89.60000000000001 308.6617102865699 96 305.87145070680185 102.4 303.79316280362207 108.80000000000001 303.02444743801993 115.19999999999999 303.31529271242255 121.6 302.4901925999158 128 302.9132473410831 134.4 300.9756840414816 140.8 301.5563897163517 147.20000000000002 299.63115833308683 153.6 295.82119342863865 160 294.07845963764385 166.4 290.71613745581675 172.8 287.7123980198611 179.20000000000002 287.34681783972644 185.6 286.1158370502466 192 284.9373137496449 198.4 282.37654680212853 204.8 277.943861541842 211.20000000000002 278.0796669749752 217.60000000000002 276.03281869328964 224 276.2116816743203 230.39999999999998 274.1490214342668 236.8 270.3047296607331 243.2 268.08696227712255 249.60000000000002 269.6660965061221 256 271.1482002563306 262.4 270.4125525494242 268.8 270.8102108391224 275.2 272.1629063876319 281.6 273.5615254826024 288 274.9228760950329 294.40000000000003 276.2933298915936 300.79999999999995 276.4643593589951 307.2 274.6332651959622 313.6 273.79907728123743 320 272.0443916622912 326.4 270.1436217527297 332.8 268.24947449102785 339.20000000000005 268.7286247539404 345.6 266.9323434441611 352 266.17326282746006 358.40000000000003 266.70014287610775 364.79999999999995 268.2753904956075 371.2 269.7730141841815 377.59999999999997 270.1456768871663 384 271.63102244985794 390.4 270.87588841875635 396.8 271.21138737389094 403.2 272.6978601625624 409.6 274.0958495752743 416 275.46916587684484 422.40000000000003 275.7089872113722 428.8 272.9524683440021 435.20000000000005 274.36095531066803 441.59999999999997 275.7097877900657 448 277.06171802422534 454.4 276.4936334908512 460.79999999999995 276.6994777946119 467.2 278.02119926850503 473.6 279.09849106096823 480 280.3469779872122 486.4 279.2673696602821 492.8 280.47752377225083 499.20000000000005 281.6113055086905 505.6 281.52747347089655 512 282.6851677615262 518.4000000000001 283.78244196283333 524.8 284.8879639310566 531.1999999999999 282.6100935495126 537.6 282.8417932344182 544 283.97602409803267 550.4 285.04069855080843 556.8 286.10778990579865 563.2 287.1094619678123 569.6 288.1134220815537 576 289.0867531913242 582.4 289.94032087685133 588.8000000000001 290.8578825264789 595.2 291.7191413735903 601.5999999999999 290.3472393139999 608 291.22361724499626 614.4 292.10200221241263 620.8 292.9283981929643 627.2 293.72848406318 633.6 293.55462525898 640 293.6055618137705 640 320 0 320"
      />
      
      <polygon
        fill="#244776"
        fillRule="evenodd"
        points="0 319.9256742716267 6.4 319.85646901432716 12.8 319.82723292110757 19.2 318.6603031639581 25.6 318.63876257871476 32 318.5153628067302 38.4 318.3740199879701 44.800000000000004 316.6121813174863 51.2 316.69341867227484 57.599999999999994 313.13944451293304 64 312.19636212352015 70.4 310.88203176631015 76.8 310.86396428736606 83.2 310.00353654644385 89.60000000000001 308.6617102865699 96 305.87145070680185 102.4 303.79316280362207 108.80000000000001 303.02444743801993 115.19999999999999 303.31529271242255 121.6 302.4901925999158 128 302.9132473410831 134.4 300.9756840414816 140.8 301.5563897163517 147.20000000000002 299.63115833308683 153.6 295.82119342863865 160 294.07845963764385 166.4 290.71613745581675 172.8 287.7123980198611 179.20000000000002 287.34681783972644 185.6 286.1158370502466 192 284.9373137496449 198.4 282.37654680212853 204.8 277.943861541842 211.20000000000002 278.0796669749752 217.60000000000002 276.03281869328964 224 276.2116816743203 230.39999999999998 274.1490214342668 236.8 270.3047296607331 243.2 268.08696227712255 249.60000000000002 269.6660965061221 256 271.1482002563306 262.4 270.4125525494242 268.8 270.8102108391224 275.2 272.1629063876319 281.6 273.5615254826024 288 274.9228760950329 294.40000000000003 276.2933298915936 300.79999999999995 276.4643593589951 307.2 274.6332651959622 313.6 273.79907728123743 320 272.0443916622912 326.4 270.1436217527297 332.8 268.24947449102785 339.20000000000005 268.7286247539404 345.6 266.9323434441611 352 266.17326282746006 358.40000000000003 266.70014287610775 364.79999999999995 268.2753904956075 371.2 269.7730141841815 377.59999999999997 270.1456768871663 384 271.63102244985794 390.4 270.87588841875635 396.8 271.21138737389094 403.2 272.6978601625624 409.6 274.0958495752743 416 275.46916587684484 422.40000000000003 275.7089872113722 428.8 272.9524683440021 435.20000000000005 274.36095531066803 441.59999999999997 275.7097877900657 448 277.06171802422534 454.4 276.4936334908512 460.79999999999995 276.6994777946119 467.2 278.02119926850503 473.6 279.09849106096823 480 280.3469779872122 486.4 279.2673696602821 492.8 280.47752377225083 499.20000000000005 281.6113055086905 505.6 281.52747347089655 512 282.6851677615262 518.4000000000001 283.78244196283333 524.8 284.8879639310566 531.1999999999999 282.6100935495126 537.6 282.8417932344182 544 283.97602409803267 550.4 285.04069855080843 556.8 286.10778990579865 563.2 287.1094619678123 569.6 288.1134220815537 576 289.0867531913242 582.4 289.94032087685133 588.8000000000001 290.8578825264789 595.2 291.7191413735903 601.5999999999999 290.40280051723187 608 291.2775363648852 614.4 292.1542754779753 620.8 292.97907585383564 627.2 293.77766397174855 633.6 293.6023039771778 640 293.65314867718956 640 320 0 320"
      />
      
      <polygon
        fill="#563d7c"
        fillRule="evenodd"
        points="0 319.9256742716267 6.4 319.85646901432716 12.8 319.82723292110757 19.2 318.6603031639581 25.6 318.63876257871476 32 318.5153628067302 38.4 318.3740199879701 44.800000000000004 316.6121813174863 51.2 316.69341867227484 57.599999999999994 314.24960448216626 64 313.27263513402545 70.4 311.92649607163065 76.8 311.8765469338769 83.2 310.9852106943995 89.60000000000001 309.6143715999482 96 306.7950324998246 102.4 305.79142598511004 108.80000000000001 304.96171481305885 115.19999999999999 305.1934259342157 121.6 304.31464212624996 128 304.6820067417725 134.4 303.8118279268807 140.8 304.30596200121755 147.20000000000002 302.2994685000324 153.6 298.4080549835384 160 296.586358860582 166.4 293.14991682345584 172.8 290.07188778658394 179.20000000000002 289.6365742162818 185.6 288.3356999496663 192 287.0894163975695 198.4 284.4692264621042 204.8 279.9726632134303 211.20000000000002 280.0485085760837 217.60000000000002 277.94156253679535 224 278.06401356230185 230.39999999999998 275.94481189972817 236.8 273.1750910567066 243.2 271.62231856865924 249.60000000000002 273.0935379462997 256 274.4743453829455 262.4 273.6371690411444 268.8 273.93639768372884 275.2 275.2027740923475 281.6 276.5086030609059 288 277.78285444341793 294.40000000000003 279.06600895272567 300.79999999999995 279.15509341517793 307.2 277.2418662117966 313.6 276.32805167611804 320 274.4986240410301 326.4 272.52294000642325 332.8 270.55847315676584 339.20000000000005 270.9671428199903 345.6 269.1025319121876 352 268.2835288320865 358.40000000000003 268.74599411807077 364.79999999999995 270.2607776705699 371.2 271.6977986802561 377.59999999999997 272.01357553741025 384 273.44190445150446 390.4 272.6314943836427 396.8 272.9151072822846 403.2 274.34957492537734 409.6 275.6987488071888 416 277.02313747588045 422.40000000000003 277.21552477455754 428.8 275.39027187468673 435.20000000000005 276.7243464522933 441.59999999999997 278.00333015149437 448 279.285251312986 454.4 278.6514514901466 460.79999999999995 278.79142956236467 467.2 280.04929544771585 473.6 281.0666479255192 480 282.25505805548363 486.4 281.11905729583043 492.8 282.2726897135831 499.20000000000005 283.3516749549063 505.6 283.2197886726995 512 284.32582594011785 518.4000000000001 285.3746113605624 524.8 286.43153326795743 531.1999999999999 284.1080434435411 537.6 284.2940190844615 544 285.38392157885977 550.4 286.406986366587 556.8 287.43237260030685 563.2 288.3948972334853 569.6 289.3596202676343 576 290.2949119702784 582.4 291.1151203264627 588.8000000000001 291.99682198144166 595.2 292.8244200260621 601.5999999999999 291.474341200773 608 292.3174081881476 614.4 293.1624058469648 620.8 293.95643361324005 627.2 294.7261365140432 633.6 294.52182482208775 640 294.57089798203543 640 320 0 320"
      />
      
      <polygon
        fill="#178600"
        fillRule="evenodd"
        points="0 320 6.4 320 12.8 320 19.2 320 25.6 320 32 320 38.4 320 44.800000000000004 320 51.2 320 57.599999999999994 318.7303287796311 64 318.769084837957 70.4 318.8054639233342 76.8 318.84192640189707 83.2 318.8772758752994 89.60000000000001 318.9104574444014 96 318.94371501885024 102.4 318.9749330668282 108.80000000000001 319.0062226299088 115.19999999999999 319.0365570861882 121.6 319.0640956821354 128 319.09266366400396 134.4 319.1194794642069 140.8 319.14635687425977 147.20000000000002 319.1715858611968 153.6 319.18567786079586 160 319.210534568468 166.4 319.2338668125356 172.8 319.2572525490779 179.20000000000002 319.2792040790073 185.6 318.1941410198247 192 318.2492638231473 198.4 318.2976044567757 204.8 316.138875050928 211.20000000000002 316.2474858387672 217.60000000000002 316.36202905097406 224 316.46954718874144 230.39999999999998 316.5773124646193 236.8 316.2415608741646 243.2 315.6381791165687 249.60000000000002 315.77132112588663 256 315.8962976723073 262.4 316.0215604846417 268.8 316.1430001160293 275.2 316.24949814634346 281.6 316.3639800364048 288 316.4714409415398 294.40000000000003 316.57914815249745 300.79999999999995 316.6802494127278 307.2 315.9758123967859 313.6 316.09864831945185 320 314.3108453511438 326.4 314.4845035431507 332.8 313.5209121327494 339.20000000000005 313.71868211426806 345.6 313.9104160567215 352 312.9761246715756 358.40000000000003 313.1905240003148 364.79999999999995 313.3917744554213 371.2 313.59348714880474 377.59999999999997 313.78282818153866 384 313.9726038842995 390.4 314.15658665824344 396.8 314.32928538678203 403.2 314.502380746711 409.6 314.6648601417603 416 314.82771202157767 422.40000000000003 314.98559328323176 428.8 313.2129039838002 435.20000000000005 313.4200762490357 441.59999999999997 313.6145426643691 448 313.809454816075 454.4 313.1987268339632 460.79999999999995 313.4063318888716 467.2 313.60760015082764 473.6 313.7965241457066 480 313.9858816495195 486.4 314.16362565552254 492.8 314.3417776880666 499.20000000000005 314.51449190126897 505.6 314.66595544282296 512 314.8287742674557 518.4000000000001 314.9816069738698 524.8 315.13479067969575 531.1999999999999 315.2785790889126 537.6 315.4226978444728 544 315.5624173937049 550.4 315.69356760466275 556.8 315.82501916546687 563.2 315.9484086006421 569.6 316.07208114725734 576 316.1919784054393 582.4 316.2971241016028 588.8000000000001 316.41015245747815 595.2 316.5162484002928 601.5999999999999 316.6225879979392 608 316.7224055107014 614.4 316.822452128671 620.8 316.91944500038215 627.2 317.0104890999486 633.6 317.10174234008963 640 317.1073258920033 640 320 0 320"
      />
      
      <polygon
        fill="#555555"
        fillRule="evenodd"
        points="0 320 6.4 320 12.8 320 19.2 320 25.6 320 32 320 38.4 320 44.800000000000004 320 51.2 320 57.599999999999994 318.7303287796311 64 318.769084837957 70.4 318.8054639233342 76.8 318.84192640189707 83.2 318.8772758752994 89.60000000000001 318.9104574444014 96 318.94371501885024 102.4 318.9749330668282 108.80000000000001 319.0062226299088 115.19999999999999 319.0365570861882 121.6 319.0640956821354 128 319.09266366400396 134.4 319.1194794642069 140.8 319.14635687425977 147.20000000000002 319.1715858611968 153.6 319.18567786079586 160 319.210534568468 166.4 319.2338668125356 172.8 319.2572525490779 179.20000000000002 319.2792040790073 185.6 318.1941410198247 192 318.2492638231473 198.4 318.2976044567757 204.8 317.2428495802925 211.20000000000002 317.31883293832357 217.60000000000002 317.4006739175689 224 317.4774955332994 230.39999999999998 317.554493696802 236.8 317.188914143452 243.2 316.5575339149185 249.60000000000002 316.662613130807 256 316.7612479728345 262.4 316.8601087655957 268.8 316.9559521553339 275.2 317.0400032595055 281.6 317.13035539907816 288 317.2151665053427 294.40000000000003 317.3001719148531 300.79999999999995 317.37996376035437 307.2 317.45993912018514 313.6 317.53747289687095 320 316.50571022863755 326.4 316.6123714079172 332.8 315.5858919178912 339.20000000000005 315.7206296593125 345.6 315.8512552823321 352 314.8633740139235 358.40000000000003 315.02016628346223 364.79999999999995 315.16734268984106 371.2 315.31485721058306 377.59999999999997 315.4533239816745 384 315.5921086969931 390.4 315.72665696449303 396.8 315.85295318033576 403.2 315.9795394741759 409.6 316.0983621871152 416 316.2174572020279 422.40000000000003 316.3329173693726 428.8 315.5852551663236 435.20000000000005 315.7200127388007 441.59999999999997 315.84650569310173 448 315.9732887151251 454.4 316.09229570275556 460.79999999999995 316.2115763178549 467.2 316.32721603331794 473.6 316.4357630124233 480 316.5445594723752 486.4 316.64668303894274 492.8 316.749040981874 499.20000000000005 316.8482750711408 505.6 316.93529898414795 512 317.0288473145003 518.4000000000001 317.11665820189125 524.8 317.2046704823873 531.1999999999999 317.28728491390797 537.6 317.37008902485314 544 317.4503656523289 550.4 317.5257184649881 556.8 317.60124470177107 563.2 317.6721386608075 569.6 317.7431953064272 576 317.81208287637855 582.4 317.8724948483259 588.8000000000001 317.93743577102686 595.2 317.9983936621414 601.5999999999999 318.0594916344907 608 318.11684222573695 614.4 318.1743246164403 620.8 318.23005224641327 627.2 318.2823621840164 633.6 318.33479207381896 640 318.3380002146079 640 320 0 320"
      />
      
      <polygon
        fill="#C1F12E"
        fillRule="evenodd"
        points="0 320 6.4 320 12.8 320 19.2 320 25.6 320 32 320 38.4 320 44.800000000000004 320 51.2 320 57.599999999999994 319.007774702864 64 319.0380618625893 70.4 319.06649147917443 76.8 319.09498624026406 83.2 319.12261120919294 89.60000000000001 319.1485420100007 96 319.1745322012242 102.4 319.1989285612486 108.80000000000001 319.22338078730934 115.19999999999999 319.2470866361372 121.6 319.26860754445215 128 319.29093292574566 134.4 319.3118889777765 140.8 319.33289319975 147.20000000000002 319.3526091942863 153.6 319.3611755630398 160 319.38067530659185 166.4 319.39897913473004 172.8 319.41732491634 179.20000000000002 319.43454559892797 185.6 319.4408448464514 192 319.4579127271584 198.4 319.472880673738 204.8 319.486210842266 211.20000000000002 319.50139557413814 217.60000000000002 319.51661520044826 224 319.5309013799913 230.39999999999998 319.54522035784 236.8 319.3091074923908 243.2 318.6150661624823 249.60000000000002 318.6573404247778 256 318.6970220590995 262.4 318.73679462857325 268.8 318.77535318807907 275.2 318.80916770694006 281.6 318.8455171073845 288 318.87963736358444 294.40000000000003 318.9138357109884 300.79999999999995 318.9459367444304 307.2 318.9781115535099 313.6 319.009304057444 320 319.0385835323825 326.4 319.0679302068571 332.8 319.095477084582 339.20000000000005 319.12308705177963 345.6 319.1498544559864 352 319.17332826091155 358.40000000000003 319.1985619230457 364.79999999999995 319.22224798191843 371.2 319.24598845803024 377.59999999999997 319.26827288254225 384 319.2906084054171 390.4 319.3122621715305 396.8 319.33258790424287 403.2 319.3529602964497 409.6 319.3720831471907 416 319.391249985885 422.40000000000003 319.4098317467834 428.8 318.5742207637174 435.20000000000005 318.6177417109846 441.59999999999997 318.6585937886025 448 318.69953937016203 454.4 318.7379738057541 460.79999999999995 318.77649640220545 467.2 318.8138432122782 473.6 318.8488993812833 480 318.88403631303356 486.4 318.917017824801 492.8 318.9500751672377 499.20000000000005 318.98212369462016 505.6 319.01022882170224 512 319.0404410755226 518.4000000000001 319.06880030727257 524.8 319.09722458077533 531.1999999999999 319.12390557089975 537.6 319.15064790371997 544 319.17657397795483 550.4 319.20090980702093 556.8 319.22530161515016 563.2 319.2481974321388 569.6 319.2711457860124 576 319.2933935898598 582.4 319.31290416342887 588.8000000000001 319.3338773749743 595.2 319.3535642702619 601.5999999999999 319.3732964070721 608 319.39181820214594 614.4 319.41038260830175 620.8 319.4283803702959 627.2 319.44527430284586 633.6 319.4622069110922 640 319.46324308889325 640 320 0 320"
      />
      

      
        <g id="labels">
        
          
          <text x="0" y="330">
            Jul 2014
          </text>
          
        
          
        
          
        
          
        
          
        
          
        
          
        
          
        
          
        
          
        
          
        
          
        
          
        
          
          <text x="82.37623762376238" y="330">
            Aug 2015
          </text>
          
        
          
        
          
        
          
        
          
        
          
        
          
        
          
        
          
        
          
        
          
        
          
        
          
        
          
          <text x="164.75247524752476" y="330">
            Sep 2016
          </text>
          
        
          
        
          
        
          
        
          
        
          
        
          
        
          
        
          
        
          
        
          
        
          
        
          
        
          
          <text x="247.12871287128712" y="330">
            Oct 2017
          </text>
          
        
          
        
          
        
          
        
          
        
          
        
          
        
          
        
          
        
          
        
          
        
          
        
          
        
          
          <text x="329.5049504950495" y="330">
            Nov 2018
          </text>
          
        
          
        
          
        
          
        
          
        
          
        
          
        
          
        
          
        
          
        
          
        
          
        
          
        
          
          <text x="411.8811881188119" y="330">
            Dec 2019
          </text>
          
        
          
        
          
        
          
        
          
        
          
        
          
        
          
        
          
        
          
        
          
        
          
        
          
        
          
          <text x="494.25742574257424" y="330">
            Jan 2021
          </text>
          
        
          
        
          
        
          
        
          
        
          
        
          
        
          
        
          
        
          
        
          
        
          
        
          
        
          
          <text x="576.6336633663366" y="330">
            Feb 2022
          </text>
          
        
          
        
          
        
          
        
          
        
          
        
          
        
          
        
          
        
          
        
        </g>
      

      
        <text text-anchor="middle" y="370" x="320" id="legend">
          
          <tspan xml:space="preserve" fill="#C1F12E">   </tspan> Batchfile
          
          <tspan xml:space="preserve" fill="#555555">   </tspan> C
          
          <tspan xml:space="preserve" fill="#178600">   </tspan> C#
          
          <tspan xml:space="preserve" fill="#563d7c">   </tspan> CSS
          
          <tspan xml:space="preserve" fill="#244776">   </tspan> CoffeeScript
          
          <tspan xml:space="preserve" fill="#00ADD8">   </tspan> Go
          
          <tspan xml:space="preserve" fill="#e34c26">   </tspan> HTML
          
          <tspan xml:space="preserve" fill="#22e4e8">   </tspan> JSON
          
        </text>
      
        <text text-anchor="middle" y="400" x="320" id="legend">
          
          <tspan xml:space="preserve" fill="#22e8e8">   </tspan> JSon
          
          <tspan xml:space="preserve" fill="#f1e05a">   </tspan> JavaScript
          
          <tspan xml:space="preserve" fill="#2415b9">   </tspan> Less
          
          <tspan xml:space="preserve" fill="#755462">   </tspan> MySQL
          
          <tspan xml:space="preserve" fill="#4F5D95">   </tspan> PHP
          
          <tspan xml:space="preserve" fill="#fd2fdb">   </tspan> PLpgSQL
          
          <tspan xml:space="preserve" fill="#0298c3">   </tspan> Perl
          
          <tspan xml:space="preserve" fill="#3572A5">   </tspan> Python
          
        </text>
      
        <text text-anchor="middle" y="430" x="320" id="legend">
          
          <tspan xml:space="preserve" fill="#701516">   </tspan> Ruby
          
          <tspan xml:space="preserve" fill="#dea584">   </tspan> Rust
          
          <tspan xml:space="preserve" fill="#26c0b0">   </tspan> SCSS
          
          <tspan xml:space="preserve" fill="#0141ae">   </tspan> SQL
          
          <tspan xml:space="preserve" fill="#89e051">   </tspan> Shell
          
          <tspan xml:space="preserve" fill="#509e5b">   </tspan> Svelte
          
          <tspan xml:space="preserve" fill="#2770da">   </tspan> TSQL
          
          <tspan xml:space="preserve" fill="#2b7489">   </tspan> TypeScript
          
        </text>
      
        <text text-anchor="middle" y="460" x="320" id="legend">
          
          <tspan xml:space="preserve" fill="#2c3e50">   </tspan> Vue
          
          <tspan xml:space="preserve" fill="#4B6C4B">   </tspan> Yacc
          
        </text>
      

    </svg>