<svg
      xmlns="http://www.w3.org/2000/svg"
      viewBox="0 0 640 490"
      style="background-color: #292b3e"
    >
      <style>
        text {
          font-size: 12px;
          font-family: Open Sans, Helvetica Neue, Helvetica, Arial, sans-serif;
        }
        #labels text {
          dominant-baseline: hanging;
          font-size: 10px;
          fill: rgba(0,0,0,0.5);
        }
        #legend {
          font-weight: 600;
        }
        #legend tspan {
          font-size: 15px;
        }
        #branding-text {
          font-size: 9px;
          dominant-baseline: hanging;
          opacity: 0.5;
        }
        #branding-logo {
          opacity: 0.5;
        }
      </style>

      
      
      <polygon
        fill="#4B6C4B"
        fillRule="evenodd"
        points="0 313.61355185797044 6.597938144329897 304.26911708006287 13.195876288659793 297.26804947951615 19.79381443298969 285.93882851110527 26.391752577319586 278.8280100657871 32.98969072164948 274.9842129415727 39.58762886597938 267.0907572348071 46.18556701030927 257.07884091623487 52.78350515463917 246.22215089190217 59.381443298969074 230.9923190731631 65.97938144329896 221.54623567783494 72.57731958762886 206.62810395697164 79.17525773195877 198.27727994134196 85.77319587628865 192.17037536728026 92.37113402061854 182.1295121130432 98.96907216494846 170.61729507984 105.56701030927834 156.95193777959875 112.16494845360825 154.8042543107 118.76288659793815 149.8879688439527 125.36082474226804 142.5256525857267 131.95876288659792 138.28617248714667 138.55670103092785 123.78688341517295 145.15463917525773 127.17490583398882 151.75257731958763 110.772514548853 158.35051546391753 93.05735359437134 164.9484536082474 88.01888273280198 171.5463917525773 78.10627870513042 178.1443298969072 68.78382426178501 184.74226804123708 65.97379476276859 191.340206185567 62.13366162614159 197.93814432989691 59.1892819606756 204.5360824742268 46.68389991291696 211.1340206185567 33.29403766195975 217.73195876288662 31.646533525065195 224.3298969072165 27.414753589926647 230.9278350515464 27.528983294530406 237.5257731958763 25.25116108949254 244.12371134020617 13.936324326137367 250.72164948453607 9.64300899450501 257.319587628866 9.883961569437986 263.91752577319585 12.93812988301488 270.5154639175258 8.247136816836075 277.1134020618557 10.710354292230306 283.7113402061856 10.159052391891692 290.30927835051546 11.455630083661845 296.9072164948454 14.195746835272587 303.50515463917526 17.693159206487053 310.10309278350513 18.068071399331586 316.70103092783506 12.038826912457068 323.29896907216494 13.322706125401794 329.8969072164948 11.292952910486008 336.49484536082474 7.029690485628805 343.0927835051546 1.9718727430105218 349.6907216494845 4.695547619001161 356.2886597938144 0.06670171844234574 362.8865979381443 0 369.48453608247416 3.134193263662496 376.08247422680415 11.121890545423923 382.680412371134 13.499946620727712 389.2783505154639 18.048076214285516 395.87628865979383 21.314604039308676 402.4742268041237 21.5685669328559 409.0721649484536 27.0666440345733 415.6701030927835 30.6810577026356 422.2680412371134 36.74796759257947 428.86597938144325 42.80369286093088 435.46391752577324 46.96034455853555 442.0618556701031 38.51478397699924 448.659793814433 42.63120124070275 455.2577319587629 50.61554895609379 461.8556701030928 58.06906154840709 468.45360824742266 55.54237293942316 475.0515463917526 58.40791385631155 481.64948453608247 64.84934340170187 488.24742268041234 68.96529424601428 494.8453608247423 76.40575950899972 501.44329896907215 74.31953594510054 508.041237113402 74.99077653049736 514.639175257732 75.05200631199685 521.2371134020618 74.49031072694305 527.8350515463917 78.43686851508181 534.4329896907217 85.3361136475437 541.0309278350516 88.56510224486004 547.6288659793814 82.02553265445823 554.2268041237114 83.08745708709887 560.8247422680413 90.29406184519951 567.4226804123712 89.48602927105114 574.020618556701 88.4614412287142 580.6185567010309 89.43505674121255 587.2164948453608 87.52003809839724 593.8144329896908 88.00649682289043 600.4123711340206 88.2171757846292 607.0103092783505 90.76533278756673 613.6082474226804 86.66765768300411 620.2061855670103 71.26736934243908 626.8041237113401 70.87689177272154 633.4020618556701 76.0927893684244 640 82.6872734079119 640 320 0 320"
      />
      
      <polygon
        fill="#2c3e50"
        fillRule="evenodd"
        points="0 313.61355185797044 6.597938144329897 304.26911708006287 13.195876288659793 297.26804947951615 19.79381443298969 285.93882851110527 26.391752577319586 278.8280100657871 32.98969072164948 274.9842129415727 39.58762886597938 267.0907572348071 46.18556701030927 257.07884091623487 52.78350515463917 246.22215089190217 59.381443298969074 230.9923190731631 65.97938144329896 221.54623567783494 72.57731958762886 206.62810395697164 79.17525773195877 198.27727994134196 85.77319587628865 192.17037536728026 92.37113402061854 182.1295121130432 98.96907216494846 170.61729507984 105.56701030927834 156.95193777959875 112.16494845360825 154.8042543107 118.76288659793815 149.8879688439527 125.36082474226804 142.5256525857267 131.95876288659792 138.28617248714667 138.55670103092785 123.78688341517295 145.15463917525773 127.17490583398882 151.75257731958763 110.772514548853 158.35051546391753 93.05735359437134 164.9484536082474 88.01888273280198 171.5463917525773 78.10627870513042 178.1443298969072 68.78382426178501 184.74226804123708 65.97379476276859 191.340206185567 62.13366162614159 197.93814432989691 59.1892819606756 204.5360824742268 46.68389991291696 211.1340206185567 33.29403766195975 217.73195876288662 31.646533525065195 224.3298969072165 27.414753589926647 230.9278350515464 27.528983294530406 237.5257731958763 25.25116108949254 244.12371134020617 13.936324326137367 250.72164948453607 9.64300899450501 257.319587628866 9.883961569437986 263.91752577319585 12.93812988301488 270.5154639175258 8.247136816836075 277.1134020618557 10.710354292230306 283.7113402061856 10.159052391891692 290.30927835051546 11.455630083661845 296.9072164948454 14.195746835272587 303.50515463917526 17.693159206487053 310.10309278350513 18.068071399331586 316.70103092783506 12.038826912457068 323.29896907216494 13.322706125401794 329.8969072164948 11.292952910486008 336.49484536082474 7.029690485628805 343.0927835051546 1.9718727430105218 349.6907216494845 4.695547619001161 356.2886597938144 0.06670171844234574 362.8865979381443 0 369.48453608247416 3.134193263662496 376.08247422680415 11.121890545423923 382.680412371134 13.499946620727712 389.2783505154639 18.048076214285516 395.87628865979383 21.314604039308676 402.4742268041237 21.5685669328559 409.0721649484536 27.0666440345733 415.6701030927835 30.6810577026356 422.2680412371134 36.74796759257947 428.86597938144325 42.80369286093088 435.46391752577324 46.96034455853555 442.0618556701031 38.51478397699924 448.659793814433 42.63120124070275 455.2577319587629 50.61554895609379 461.8556701030928 58.06906154840709 468.45360824742266 56.64295976327776 475.0515463917526 59.47490594337336 481.64948453608247 65.88376611013902 488.24742268041234 69.9691451695885 494.8453608247423 77.37896846837151 501.44329896907215 75.26398216419398 508.041237113402 75.90639414553999 514.639175257732 75.93967518489814 521.2371134020618 75.35346954258694 527.8350515463917 79.27367997219508 534.4329896907217 86.14819359716168 541.0309278350516 89.35239390645125 547.6288659793814 82.78955632007444 554.2268041237114 83.8281593978368 560.8247422680413 91.0121546538353 567.4226804123712 90.18289922063678 574.020618556701 89.13703961499363 580.6185567010309 90.09068816008897 587.2164948453608 88.15565675348472 593.8144329896908 88.62271359297253 600.4123711340206 88.81637777421471 607.0103092783505 91.34624452055442 613.6082474226804 87.23140085745783 620.2061855670103 71.81390461477295 626.8041237113401 71.40727444291872 633.4020618556701 76.60698242536029 640 83.18816911376251 640 320 0 320"
      />
      
      <polygon
        fill="#2b7489"
        fillRule="evenodd"
        points="0 313.61355185797044 6.597938144329897 304.26911708006287 13.195876288659793 297.26804947951615 19.79381443298969 285.93882851110527 26.391752577319586 278.8280100657871 32.98969072164948 274.9842129415727 39.58762886597938 267.0907572348071 46.18556701030927 257.07884091623487 52.78350515463917 246.22215089190217 59.381443298969074 230.9923190731631 65.97938144329896 221.54623567783494 72.57731958762886 206.62810395697164 79.17525773195877 198.27727994134196 85.77319587628865 192.17037536728026 92.37113402061854 182.1295121130432 98.96907216494846 170.61729507984 105.56701030927834 156.95193777959875 112.16494845360825 154.8042543107 118.76288659793815 149.8879688439527 125.36082474226804 142.5256525857267 131.95876288659792 138.28617248714667 138.55670103092785 123.78688341517295 145.15463917525773 127.17490583398882 151.75257731958763 110.772514548853 158.35051546391753 93.05735359437134 164.9484536082474 88.01888273280198 171.5463917525773 78.10627870513042 178.1443298969072 68.78382426178501 184.74226804123708 65.97379476276859 191.340206185567 62.13366162614159 197.93814432989691 59.1892819606756 204.5360824742268 46.68389991291696 211.1340206185567 33.29403766195975 217.73195876288662 31.646533525065195 224.3298969072165 27.414753589926647 230.9278350515464 27.528983294530406 237.5257731958763 25.25116108949254 244.12371134020617 13.936324326137367 250.72164948453607 9.64300899450501 257.319587628866 9.883961569437986 263.91752577319585 12.93812988301488 270.5154639175258 8.247136816836075 277.1134020618557 10.710354292230306 283.7113402061856 10.159052391891692 290.30927835051546 11.455630083661845 296.9072164948454 14.195746835272587 303.50515463917526 17.693159206487053 310.10309278350513 18.068071399331586 316.70103092783506 12.038826912457068 323.29896907216494 13.322706125401794 329.8969072164948 11.292952910486008 336.49484536082474 7.029690485628805 343.0927835051546 1.9718727430105218 349.6907216494845 4.695547619001161 356.2886597938144 0.06670171844234574 362.8865979381443 0 369.48453608247416 3.134193263662496 376.08247422680415 11.121890545423923 382.680412371134 13.499946620727712 389.2783505154639 18.048076214285516 395.87628865979383 21.314604039308676 402.4742268041237 21.5685669328559 409.0721649484536 27.0666440345733 415.6701030927835 30.6810577026356 422.2680412371134 36.74796759257947 428.86597938144325 42.80369286093088 435.46391752577324 46.96034455853555 442.0618556701031 38.51478397699924 448.659793814433 42.63120124070275 455.2577319587629 50.61554895609379 461.8556701030928 58.06906154840709 468.45360824742266 56.64295976327776 475.0515463917526 59.47490594337336 481.64948453608247 65.88376611013902 488.24742268041234 69.9691451695885 494.8453608247423 77.37896846837151 501.44329896907215 75.26398216419398 508.041237113402 75.90639414553999 514.639175257732 75.93967518489814 521.2371134020618 75.35346954258694 527.8350515463917 79.27367997219508 534.4329896907217 86.14819359716168 541.0309278350516 89.35239390645125 547.6288659793814 84.99966062267791 554.2268041237114 87.49742975307257 560.8247422680413 94.56942207127696 567.4226804123712 96.00376372938297 574.020618556701 96.87073552581808 580.6185567010309 100.59155121466151 587.2164948453608 100.44776637783698 593.8144329896908 101.47602571473561 600.4123711340206 102.08141759286104 607.0103092783505 104.23721612946369 613.6082474226804 99.74138701924318 620.2061855670103 84.61164148125579 626.8041237113401 84.30016750665774 633.4020618556701 89.10632609067576 640 95.36427321468238 640 320 0 320"
      />
      
      <polygon
        fill="#2770da"
        fillRule="evenodd"
        points="0 313.61355185797044 6.597938144329897 304.26911708006287 13.195876288659793 297.26804947951615 19.79381443298969 285.93882851110527 26.391752577319586 278.8280100657871 32.98969072164948 274.9842129415727 39.58762886597938 267.0907572348071 46.18556701030927 257.07884091623487 52.78350515463917 246.22215089190217 59.381443298969074 230.9923190731631 65.97938144329896 221.54623567783494 72.57731958762886 206.62810395697164 79.17525773195877 198.27727994134196 85.77319587628865 192.17037536728026 92.37113402061854 182.1295121130432 98.96907216494846 170.61729507984 105.56701030927834 156.95193777959875 112.16494845360825 154.8042543107 118.76288659793815 149.8879688439527 125.36082474226804 142.5256525857267 131.95876288659792 138.28617248714667 138.55670103092785 123.78688341517295 145.15463917525773 127.17490583398882 151.75257731958763 110.772514548853 158.35051546391753 93.05735359437134 164.9484536082474 88.01888273280198 171.5463917525773 78.10627870513042 178.1443298969072 68.78382426178501 184.74226804123708 65.97379476276859 191.340206185567 62.13366162614159 197.93814432989691 59.1892819606756 204.5360824742268 46.68389991291696 211.1340206185567 33.29403766195975 217.73195876288662 31.646533525065195 224.3298969072165 27.414753589926647 230.9278350515464 27.528983294530406 237.5257731958763 25.25116108949254 244.12371134020617 14.574533246187514 250.72164948453607 11.08001913167692 257.319587628866 11.277107769892439 263.91752577319585 14.290102389016624 270.5154639175258 9.557841096917684 277.1134020618557 11.98104997819678 283.7113402061856 11.394662209916191 290.30927835051546 12.653523592908073 296.9072164948454 15.358237282402456 303.50515463917526 18.82016531498897 310.10309278350513 19.161769447991105 316.70103092783506 13.099140454087433 323.29896907216494 14.350654250323942 329.8969072164948 12.290520471263903 336.49484536082474 7.996807919432456 343.0927835051546 2.910407457330564 349.6907216494845 5.605434161071571 356.2886597938144 0.9488145043379177 362.8865979381443 0.8577561367698081 369.48453608247416 3.965766855460288 376.08247422680415 11.928887496930656 382.680412371134 14.282310418566112 389.2783505154639 18.807317717910962 395.87628865979383 22.050670074770608 402.4742268041237 22.282165016813167 409.0721649484536 27.75915213784333 415.6701030927835 31.352427377841252 422.2680412371134 37.39949527714725 428.86597938144325 43.435333066729754 435.46391752577324 47.57270430088903 442.0618556701031 40.23032512373703 448.659793814433 44.29437647548389 455.2577319587629 52.22957008828007 461.8556701030928 59.6338155512438 468.45360824742266 58.161468252924124 475.0515463917526 60.9470627774316 481.64948453608247 67.31098617807459 488.24742268041234 71.3541845774387 494.8453608247423 78.72173032138215 501.44329896907215 76.56705950162075 508.041237113402 77.16969572396636 514.639175257732 77.16441521992422 521.2371134020618 76.54439248636822 527.8350515463917 80.42825073737555 534.4329896907217 87.2686415851017 541.0309278350516 90.43864092318694 547.6288659793814 86.05380423927303 554.2268041237114 88.51939619388187 560.8247422680413 95.56019343604703 567.4226804123712 96.96525345831907 574.020618556701 97.80287641937704 580.6185567010309 101.4961430697843 587.2164948453608 101.32474610504417 593.8144329896908 102.32623613398658 600.4123711340206 102.90815240653902 607.0103092783505 105.03871525411924 613.6082474226804 100.51919824325492 620.2061855670103 85.37680764185876 626.8041237113401 85.30640195898513 633.4020618556701 90.08184583067137 640 96.31456538303152 640 320 0 320"
      />
      
      <polygon
        fill="#89e051"
        fillRule="evenodd"
        points="0 313.61355185797044 6.597938144329897 304.90984664059476 13.195876288659793 298.3344797208555 19.79381443298969 288.07682770381007 26.391752577319586 281.2713541188306 32.98969072164948 277.3529753657706 39.58762886597938 269.99995328473864 46.18556701030927 260.07175752738965 52.78350515463917 250.17319838509854 59.381443298969074 235.18159059117795 65.97938144329896 226.78745439434658 72.57731958762886 213.327883005462 79.17525773195877 205.81364706497772 85.77319587628865 200.42206313344022 92.37113402061854 190.4508587818756 98.96907216494846 178.684639291651 105.56701030927834 164.78085410742642 112.16494845360825 162.39419817108995 118.76288659793815 158.35642959541363 125.36082474226804 150.82944928210384 131.95876288659792 146.47027683010504 138.55670103092785 132.58694000450686 145.15463917525773 135.7063450931621 151.75257731958763 119.05181372366738 158.35051546391753 102.43451657301665 164.9484536082474 97.17058713380652 171.5463917525773 87.08397122468051 178.1443298969072 77.51853494665374 184.74226804123708 74.59631920099741 191.340206185567 71.29291724187533 197.93814432989691 68.127614043173 204.5360824742268 55.43676166707269 211.1340206185567 42.60290011402083 217.73195876288662 40.816421875867206 224.3298969072165 36.30473734783851 230.9278350515464 36.65736308343111 237.5257731958763 34.26576033800262 244.12371134020617 23.330809435850767 250.72164948453607 19.768444332984814 257.319587628866 20.33194515958121 263.91752577319585 23.771916839827952 270.5154639175258 19.35809815390411 277.1134020618557 21.657375253699286 283.7113402061856 22.197695717046145 290.30927835051546 24.033438463355992 296.9072164948454 26.40182152147196 303.50515463917526 29.52665075175446 310.10309278350513 29.794907302569186 316.70103092783506 23.469528094589123 323.29896907216494 24.701149182000563 329.8969072164948 22.40446890066471 336.49484536082474 17.802036098593305 343.0927835051546 12.431494595332367 349.6907216494845 14.835897043265277 356.2886597938144 10.20237913042564 362.8865979381443 9.855811967450904 369.48453608247416 12.717316060739336 376.08247422680415 20.455671081326727 382.680412371134 22.802431589531295 389.2783505154639 27.11146120092178 395.87628865979383 30.80863344562664 402.4742268041237 30.77279791848656 409.0721649484536 35.99885187539468 415.6701030927835 39.34061278824822 422.2680412371134 45.23244255005352 428.86597938144325 51.029187241825525 435.46391752577324 55.06955110599006 442.0618556701031 47.53771442759739 448.659793814433 51.37871467157828 455.2577319587629 59.104530742384384 461.8556701030928 66.2989241564915 468.45360824742266 64.91801591372112 475.0515463917526 67.49737072445183 481.64948453608247 73.66134979605101 488.24742268041234 78.63285943427047 494.8453608247423 85.77822797276494 501.44329896907215 83.41500275404229 508.041237113402 83.84705540190629 514.639175257732 83.63794799704522 521.2371134020618 82.83918197933195 527.8350515463917 87.04908368026392 534.4329896907217 93.69379983598049 541.0309278350516 96.66767412181434 547.6288659793814 92.09874151489595 554.2268041237114 94.37981462093444 560.8247422680413 101.24172708999566 567.4226804123712 102.47887322973187 574.020618556701 103.14819524299497 580.6185567010309 106.68348172683278 587.2164948453608 106.35374568420127 593.8144329896908 107.20172842626357 600.4123711340206 107.64902469640236 607.0103092783505 109.63487404687203 613.6082474226804 105.64593051591712 620.2061855670103 90.34705077634902 626.8041237113401 90.1297508992605 633.4020618556701 94.75796612028967 640 100.86975660103153 640 320 0 320"
      />
      
      <polygon
        fill="#0141ae"
        fillRule="evenodd"
        points="0 313.69578997363686 6.597938144329897 304.989574490608 13.195876288659793 298.411851250738 19.79381443298969 288.15460009335317 26.391752577319586 281.3468279880702 32.98969072164948 277.42614543430227 39.58762886597938 270.07088988294674 46.18556701030927 260.16868824058446 52.78350515463917 250.62555354895454 59.381443298969074 236.5914365973892 65.97938144329896 228.16529214839443 72.57731958762886 215.56291946887586 79.17525773195877 209.34785907949487 85.77319587628865 203.84839480966468 92.37113402061854 193.80953582804304 98.96907216494846 182.16689804461762 105.56701030927834 169.20016363617566 112.16494845360825 166.68971524951831 118.76288659793815 162.52082813753697 125.36082474226804 154.8748151360494 131.95876288659792 151.5032338869501 138.55670103092785 138.3304859929185 145.15463917525773 141.2745721998287 151.75257731958763 124.45547490302351 158.35051546391753 107.98214814994711 164.9484536082474 102.61891186279377 171.5463917525773 92.52506100834853 178.1443298969072 83.01589222309875 184.74226804123708 79.93120565515764 191.340206185567 76.46495947445379 197.93814432989691 73.61561003278837 204.5360824742268 61.011271314522844 211.1340206185567 50.211084437585555 217.73195876288662 49.30685913850334 224.3298969072165 44.536007755528374 230.9278350515464 46.726519009948845 237.5257731958763 45.53585789983737 244.12371134020617 38.06193675733181 250.72164948453607 34.37970472608686 257.319587628866 35.18793519199835 263.91752577319585 40.459383157572745 270.5154639175258 36.76716837421776 277.1134020618557 38.535044021749684 283.7113402061856 38.69007477365079 290.30927835051546 40.022401492158224 296.9072164948454 41.96031701746358 303.50515463917526 45.10755431562103 310.10309278350513 44.91809977568141 316.70103092783506 38.142272987209765 323.29896907216494 38.92601117394497 329.8969072164948 36.36886895655732 336.49484536082474 33.69996840668546 343.0927835051546 28.417343223284945 349.6907216494845 30.372784906308368 356.2886597938144 26.293957094777568 362.8865979381443 25.5366784481958 369.48453608247416 28.083861301791444 376.08247422680415 35.368063519365364 382.680412371134 37.58886392959727 389.2783505154639 41.46088895169237 395.87628865979383 45.374321451238245 402.4742268041237 45.02191442447116 409.0721649484536 49.8268502162133 415.6701030927835 53.200793956190466 422.2680412371134 58.85798223029451 428.86597938144325 64.62540572686848 435.46391752577324 68.63071280179241 442.0618556701031 63.21836821254027 448.659793814433 66.93877815691224 455.2577319587629 74.2047284360132 461.8556701030928 80.93820285456476 468.45360824742266 80.26655907529926 475.0515463917526 82.74331539073546 481.64948453608247 88.44191604754869 488.24742268041234 93.40773119236371 494.8453608247423 100.10210345684834 501.44329896907215 98.34490406389813 508.041237113402 99.94042329904616 514.639175257732 99.8632376397095 521.2371134020618 98.67422928366327 527.8350515463917 102.40077309568619 534.4329896907217 108.5917731426687 541.0309278350516 111.1109017487849 547.6288659793814 106.11510305246662 554.2268041237114 107.96833495646712 560.8247422680413 114.41546286868879 567.4226804123712 115.26327396667739 574.020618556701 115.68605791255032 580.6185567010309 118.85079388751171 587.2164948453608 118.1496586078278 593.8144329896908 118.63757715505895 600.4123711340206 118.7993472925358 607.0103092783505 120.44484636922388 613.6082474226804 116.14470832961723 620.2061855670103 101.00074922512084 626.8041237113401 100.55560282331976 633.4020618556701 104.86557580378434 640 110.7159785566019 640 320 0 320"
      />
      
      <polygon
        fill="#26c0b0"
        fillRule="evenodd"
        points="0 313.69578997363686 6.597938144329897 305.0750755972334 13.195876288659793 298.52242432815916 19.79381443298969 288.39204020570173 26.391752577319586 281.7296770819764 32.98969072164948 277.85567392028463 39.58762886597938 270.5454184300343 46.18556701030927 260.80009429604826 52.78350515463917 251.7275520769752 59.381443298969074 237.7909209068318 65.97938144329896 230.20544870338725 72.57731958762886 218.21681109632357 79.17525773195877 212.42849493295057 85.77319587628865 207.47607327145548 92.37113402061854 198.3098086817107 98.96907216494846 186.52980198244597 105.56701030927834 173.8064712039835 112.16494845360825 171.15541743174217 118.76288659793815 166.8783174773062 125.36082474226804 159.3525220953919 131.95876288659792 156.04887814598797 138.55670103092785 143.12361671656998 145.15463917525773 145.92421854095107 151.75257731958763 128.96770331579575 158.35051546391753 112.62432927942552 164.9484536082474 107.34720119231241 171.5463917525773 97.39179372713716 178.1443298969072 88.07451899170431 184.74226804123708 84.90349251887582 191.340206185567 81.4790608943238 197.93814432989691 78.540303179636 204.5360824742268 65.83897671693029 211.1340206185567 55.25787268115346 217.73195876288662 54.274667573945976 224.3298969072165 49.445973927246484 230.9278350515464 52.031484405098354 237.5257731958763 50.75685982899262 244.12371134020617 43.28775342073362 250.72164948453607 39.62412590156515 257.319587628866 40.27227338951201 263.91752577319585 46.01563692910878 270.5154639175258 42.22634274689074 277.1134020618557 45.295037046284335 283.7113402061856 46.226272357154585 290.30927835051546 47.34232135304967 296.9072164948454 49.12241864829957 303.50515463917526 52.19645725133097 310.10309278350513 51.84813322976561 316.70103092783506 44.89919733535464 323.29896907216494 45.540464270289135 329.8969072164948 42.90225577088472 336.49484536082474 40.530014900018045 343.0927835051546 35.11174939086379 349.6907216494845 37.18665932607689 356.2886597938144 32.91359298158221 362.8865979381443 31.973536098452314 369.48453608247416 34.32987019420875 376.08247422680415 41.45141622562011 382.680412371134 43.65080042912524 389.2783505154639 47.722440666904845 395.87628865979383 51.45031508824684 402.4742268041237 51.04928189658091 409.0721649484536 55.67608269360909 415.6701030927835 59.07780152553181 422.2680412371134 64.64966662178273 428.86597938144325 70.24030435483897 435.46391752577324 74.11919542296249 442.0618556701031 68.67685815683785 448.659793814433 72.31802627651689 455.2577319587629 79.43589331994372 461.8556701030928 86.0817859778287 468.45360824742266 85.88916335364641 475.0515463917526 88.95223136830231 481.64948453608247 94.47246696958001 488.24742268041234 100.00829021800888 494.8453608247423 106.58868599481085 501.44329896907215 104.63978120397252 508.041237113402 106.09862468554226 514.639175257732 105.83346536075086 521.2371134020618 104.49620166010857 527.8350515463917 108.04503309472847 534.4329896907217 114.08031474325443 541.0309278350516 116.43190677069228 547.6288659793814 111.27885127903451 554.2268041237114 112.97446295530338 560.8247422680413 119.26877931169588 567.4226804123712 119.97315586167906 574.020618556701 120.25217172786864 580.6185567010309 123.28195879256026 587.2164948453608 122.68873570416346 593.8144329896908 123.03810204818535 600.4123711340206 123.07836503356953 607.0103092783505 124.59607523939411 613.6082474226804 120.7548240770453 620.2061855670103 105.47014296390441 626.8041237113401 104.89290630396277 633.4020618556701 109.0704875531066 640 114.81214623772246 640 320 0 320"
      />
      
      <polygon
        fill="#dea584"
        fillRule="evenodd"
        points="0 313.69578997363686 6.597938144329897 305.0750755972334 13.195876288659793 298.52242432815916 19.79381443298969 288.39204020570173 26.391752577319586 281.7296770819764 32.98969072164948 277.85567392028463 39.58762886597938 270.5454184300343 46.18556701030927 260.80009429604826 52.78350515463917 251.7275520769752 59.381443298969074 237.7909209068318 65.97938144329896 230.20544870338725 72.57731958762886 218.60520552941864 79.17525773195877 212.80503385616927 85.77319587628865 207.84111857591606 92.37113402061854 198.66406525363118 98.96907216494846 187.99624367002917 105.56701030927834 176.3319241594799 112.16494845360825 173.60378213322886 118.76288659793815 169.25194734731895 125.36082474226804 162.75986414656117 131.95876288659792 159.35221277198977 138.55670103092785 148.55731362571706 145.15463917525773 151.19205495544023 151.75257731958763 136.3270972570042 158.35051546391753 123.07442544236545 164.9484536082474 117.47831468669295 171.5463917525773 107.22348866218223 178.1443298969072 98.72228867343469 184.74226804123708 95.23657208268679 191.340206185567 91.49673005153315 197.93814432989691 88.25218872719535 204.5360824742268 76.38152465514153 211.1340206185567 66.58272245799114 217.73195876288662 65.26481738722057 224.3298969072165 60.100653139994165 230.9278350515464 62.37127159304214 237.5257731958763 60.78103162090241 244.12371134020617 53.00594226489875 250.72164948453607 49.05509834932781 257.319587628866 49.415371727911406 263.91752577319585 54.88851562897247 270.5154639175258 51.93134085502584 277.1134020618557 54.70379614044481 283.7113402061856 55.37523996942167 290.30927835051546 56.21202194607474 296.9072164948454 57.72997978272997 303.50515463917526 60.54127947436052 310.10309278350513 61.06435741241012 316.70103092783506 54.0899195995936 323.29896907216494 54.450641799200014 329.8969072164948 51.54910212820016 336.49484536082474 48.912919535759556 343.0927835051546 43.24690143536026 349.6907216494845 45.073491590522906 356.2886597938144 41.66894892795915 362.8865979381443 40.48714487331557 369.48453608247416 42.58360579966046 376.08247422680415 49.46121440655543 382.680412371134 51.47797819996265 389.2783505154639 55.31828863395333 395.87628865979383 58.8143045945493 402.4742268041237 58.18848944449678 409.0721649484536 62.60429497842051 415.6701030927835 65.7945340734675 422.2680412371134 71.16788945844635 428.86597938144325 76.55956198240918 435.46391752577324 80.24556251574583 442.0618556701031 74.62811156281165 448.659793814433 78.08762082182042 455.2577319587629 85.03497097655088 461.8556701030928 91.50995444014922 468.45360824742266 91.156905750426 475.0515463917526 94.05917820480468 481.64948453608247 99.42352761427091 488.24742268041234 104.81302570681902 494.8453608247423 111.24675817224048 501.44329896907215 109.16018761620438 508.041237113402 110.48104803565053 514.639175257732 110.08211784762796 521.2371134020618 108.6275422397722 527.8350515463917 112.05026664163842 534.4329896907217 117.96717536997917 541.0309278350516 120.20012321302062 547.6288659793814 116.05406520703596 554.2268041237114 117.60391727220389 560.8247422680413 123.75692120928602 567.4226804123712 124.68682918779098 574.020618556701 124.82196333103292 580.6185567010309 127.716693288025 587.2164948453608 126.9881023711049 593.8144329896908 127.20623252824535 600.4123711340206 127.15636479414147 607.0103092783505 128.549596785499 613.6082474226804 124.59150082468841 620.2061855670103 109.18970652591918 626.8041237113401 108.50254107188348 633.4020618556701 112.56994044975443 640 118.22110046141998 640 320 0 320"
      />
      
      <polygon
        fill="#701516"
        fillRule="evenodd"
        points="0 313.69578997363686 6.597938144329897 305.0750755972334 13.195876288659793 298.52242432815916 19.79381443298969 288.39204020570173 26.391752577319586 281.7296770819764 32.98969072164948 277.85567392028463 39.58762886597938 270.5454184300343 46.18556701030927 260.80009429604826 52.78350515463917 251.7275520769752 59.381443298969074 237.7909209068318 65.97938144329896 230.20544870338725 72.57731958762886 218.60520552941864 79.17525773195877 212.80503385616927 85.77319587628865 207.84111857591606 92.37113402061854 198.66406525363118 98.96907216494846 187.99624367002917 105.56701030927834 176.3319241594799 112.16494845360825 173.60378213322886 118.76288659793815 169.25194734731895 125.36082474226804 162.75986414656117 131.95876288659792 159.35221277198977 138.55670103092785 148.55731362571706 145.15463917525773 151.19205495544023 151.75257731958763 136.3270972570042 158.35051546391753 123.07442544236545 164.9484536082474 117.47831468669295 171.5463917525773 107.22348866218223 178.1443298969072 98.72228867343469 184.74226804123708 95.23657208268679 191.340206185567 91.49673005153315 197.93814432989691 88.25218872719535 204.5360824742268 76.38152465514153 211.1340206185567 66.58272245799114 217.73195876288662 65.26481738722057 224.3298969072165 60.100653139994165 230.9278350515464 62.37127159304214 237.5257731958763 60.78103162090241 244.12371134020617 53.00594226489875 250.72164948453607 49.05509834932781 257.319587628866 49.415371727911406 263.91752577319585 54.88851562897247 270.5154639175258 51.93134085502584 277.1134020618557 54.70379614044481 283.7113402061856 55.37523996942167 290.30927835051546 56.21202194607474 296.9072164948454 57.72997978272997 303.50515463917526 60.54127947436052 310.10309278350513 61.06435741241012 316.70103092783506 54.0899195995936 323.29896907216494 54.450641799200014 329.8969072164948 51.54910212820016 336.49484536082474 48.912919535759556 343.0927835051546 43.24690143536026 349.6907216494845 45.073491590522906 356.2886597938144 41.66894892795915 362.8865979381443 40.48714487331557 369.48453608247416 42.58360579966046 376.08247422680415 49.46121440655543 382.680412371134 51.47797819996265 389.2783505154639 55.31828863395333 395.87628865979383 58.8143045945493 402.4742268041237 58.18848944449678 409.0721649484536 62.60429497842051 415.6701030927835 65.7945340734675 422.2680412371134 71.16788945844635 428.86597938144325 76.55956198240918 435.46391752577324 80.24556251574583 442.0618556701031 74.62811156281165 448.659793814433 78.08762082182042 455.2577319587629 85.03497097655088 461.8556701030928 91.50995444014922 468.45360824742266 91.156905750426 475.0515463917526 94.05917820480468 481.64948453608247 99.42352761427091 488.24742268041234 104.81302570681902 494.8453608247423 111.24675817224048 501.44329896907215 109.16018761620438 508.041237113402 110.48104803565053 514.639175257732 110.08211784762796 521.2371134020618 108.6275422397722 527.8350515463917 112.05026664163842 534.4329896907217 117.96717536997917 541.0309278350516 120.20012321302062 547.6288659793814 116.05406520703596 554.2268041237114 117.60391727220389 560.8247422680413 123.75692120928602 567.4226804123712 124.68682918779098 574.020618556701 124.82196333103292 580.6185567010309 127.716693288025 587.2164948453608 126.9881023711049 593.8144329896908 127.20623252824535 600.4123711340206 127.15636479414147 607.0103092783505 128.549596785499 613.6082474226804 124.59150082468841 620.2061855670103 109.20926275615062 626.8041237113401 108.52151932747466 633.4020618556701 112.58833940623725 640 118.23902360917361 640 320 0 320"
      />
      
      <polygon
        fill="#3572A5"
        fillRule="evenodd"
        points="0 313.69578997363686 6.597938144329897 305.0750755972334 13.195876288659793 298.52242432815916 19.79381443298969 288.39204020570173 26.391752577319586 281.7296770819764 32.98969072164948 277.85567392028463 39.58762886597938 270.5454184300343 46.18556701030927 260.80009429604826 52.78350515463917 251.7275520769752 59.381443298969074 237.7909209068318 65.97938144329896 230.20544870338725 72.57731958762886 218.60520552941864 79.17525773195877 212.80503385616927 85.77319587628865 207.84111857591606 92.37113402061854 198.66406525363118 98.96907216494846 187.99624367002917 105.56701030927834 176.3319241594799 112.16494845360825 173.60378213322886 118.76288659793815 169.25194734731895 125.36082474226804 163.42149194302863 131.95876288659792 159.99364474242628 138.55670103092785 149.2162075824179 145.15463917525773 151.8308365512309 151.75257731958763 137.94824246553844 158.35051546391753 125.43999434698543 164.9484536082474 119.77167593532229 171.5463917525773 109.44907074582116 178.1443298969072 100.87993633442295 184.74226804123708 97.33045158995373 191.340206185567 93.52669488130408 197.93814432989691 90.220190029511 204.5360824742268 78.29518649561206 211.1340206185567 68.4738417287486 217.73195876288662 67.10004564704582 224.3298969072165 61.87986174389005 230.9278350515464 64.09789675985425 237.5257731958763 62.454952617506535 244.12371134020617 54.62876777026884 250.72164948453607 50.62996208161343 257.319587628866 50.94216364015415 263.91752577319585 56.370184075444115 270.5154639175258 53.403615750666916 277.1134020618557 56.13113077640901 283.7113402061856 56.76316351179673 290.30927835051546 57.5575799782448 296.9072164948454 59.03577048153039 303.50515463917526 61.80721169912647 310.10309278350513 62.29287572634229 316.70103092783506 55.28093799960686 323.29896907216494 55.605305143567705 329.8969072164948 52.66964002378597 336.49484536082474 49.99925368584792 343.0927835051546 44.301129513766625 349.6907216494845 46.095539924353545 356.2886597938144 42.65979971971228 362.8865979381443 41.45063681983521 369.48453608247416 43.517687465348956 376.08247422680415 50.367689903920905 382.680412371134 52.37911564920739 389.2783505154639 56.19279338348758 395.87628865979383 59.66211560992565 402.4742268041237 59.01042144311327 409.0721649484536 63.401935266919395 415.6701030927835 66.56782689883323 422.2680412371134 71.91832792465868 428.86597938144325 77.28709383000677 435.46391752577324 80.95088686658218 442.0618556701031 75.31327519783719 448.659793814433 78.75187026358765 455.2577319587629 85.67958886294733 461.8556701030928 92.13489570432506 468.45360824742266 91.76337726124245 475.0515463917526 94.64713752585294 481.64948453608247 99.99353979712308 488.24742268041234 105.36619148821356 494.8453608247423 111.78303891757758 501.44329896907215 109.68061886633535 508.041237113402 110.98559340623552 514.639175257732 110.57126216179364 521.2371134020618 109.10318050408765 527.8350515463917 112.51138634188482 534.4329896907217 118.41466688982933 541.0309278350516 120.63395534681507 547.6288659793814 116.47507568853015 554.2268041237114 118.01207668361616 560.8247422680413 124.1526217945557 567.4226804123712 125.07083499750465 574.020618556701 125.1942476395007 580.6185567010309 128.07797490430605 587.2164948453608 127.33835606968259 593.8144329896908 127.54579495417093 600.4123711340206 127.4865513425109 607.0103092783505 128.86970458402544 613.6082474226804 124.90214802696843 620.2061855670103 109.52984384907472 626.8041237113401 108.83262581911 633.4020618556701 112.88994948242006 640 118.53283394534404 640 320 0 320"
      />
      
      <polygon
        fill="#0298c3"
        fillRule="evenodd"
        points="0 313.69578997363686 6.597938144329897 305.0750755972334 13.195876288659793 298.52242432815916 19.79381443298969 288.39204020570173 26.391752577319586 281.7296770819764 32.98969072164948 277.85567392028463 39.58762886597938 270.5454184300343 46.18556701030927 260.80009429604826 52.78350515463917 251.7275520769752 59.381443298969074 237.7909209068318 65.97938144329896 230.20544870338725 72.57731958762886 218.60520552941864 79.17525773195877 212.80503385616927 85.77319587628865 207.84111857591606 92.37113402061854 198.66406525363118 98.96907216494846 187.99624367002917 105.56701030927834 176.3319241594799 112.16494845360825 173.60378213322886 118.76288659793815 169.25194734731895 125.36082474226804 163.42149194302863 131.95876288659792 159.99364474242628 138.55670103092785 149.2162075824179 145.15463917525773 151.8308365512309 151.75257731958763 137.94824246553844 158.35051546391753 126.07810562219467 164.9484536082474 120.39030922769484 171.5463917525773 110.04942067622792 178.1443298969072 101.46196092883727 184.74226804123708 97.89527477614908 191.340206185567 94.074277141017 197.93814432989691 90.75105768723742 204.5360824742268 78.81139602177768 211.1340206185567 68.97429419504311 217.73195876288662 67.69018171953715 224.3298969072165 62.45198426982927 230.9278350515464 64.65311048329212 237.5257731958763 62.99321877026614 244.12371134020617 55.150603665531264 250.72164948453607 51.13637544537306 257.319587628866 51.43311898201017 263.91752577319585 56.84662951519056 270.5154639175258 53.86551797623662 277.1134020618557 56.57893367469319 283.7113402061856 57.19860183797664 290.30927835051546 57.97972682045548 296.9072164948454 59.4454409681764 303.50515463917526 62.20437723443888 310.10309278350513 62.67830324822745 316.70103092783506 55.654600576871644 323.29896907216494 55.9675619033124 329.8969072164948 53.02119046804506 336.49484536082474 50.34007324671501 343.0927835051546 44.63187631520873 349.6907216494845 46.416190888362394 356.2886597938144 42.97066298804668 362.8865979381443 41.752916641190495 369.48453608247416 43.8107403784108 376.08247422680415 50.65208178227414 382.680412371134 52.6548266412438 389.2783505154639 56.46035586577216 395.87628865979383 59.921510922768675 402.4742268041237 59.2618988413343 409.0721649484536 63.64598039565789 415.6701030927835 66.80442269104913 422.2680412371134 72.14793125504485 428.86597938144325 77.50968865903917 435.46391752577324 81.16668710253168 442.0618556701031 75.52290711167632 448.659793814433 78.95510328073684 455.2577319587629 85.87681544312431 461.8556701030928 92.3261020479907 468.45360824742266 91.94893260625389 475.0515463917526 94.8270288946837 481.64948453608247 100.16794010015761 488.24742268041234 105.53543747325466 494.8453608247423 111.94711875791668 501.44329896907215 109.83984941706643 508.041237113402 111.13996354963604 514.639175257732 110.72092023006635 521.2371134020618 109.24870627310835 527.8350515463917 112.65247001559402 534.4329896907217 118.55158091408163 541.0309278350516 120.76669015543698 547.6288659793814 116.60388758510067 554.2268041237114 118.13695666709549 560.8247422680413 124.27368989935741 567.4226804123712 125.1883249835077 574.020618556701 125.3081513276781 580.6185567010309 128.18851222417211 587.2164948453608 127.44551929431742 593.8144329896908 127.64968708177346 600.4123711340206 127.58757484388681 607.0103092783505 128.96764440419614 613.6082474226804 127.49639872401815 620.2061855670103 116.37771568913766 626.8041237113401 115.57874891957053 633.4020618556701 119.63567287917533 640 125.10410938287492 640 320 0 320"
      />
      
      <polygon
        fill="#fd2fdb"
        fillRule="evenodd"
        points="0 313.69578997363686 6.597938144329897 305.0750755972334 13.195876288659793 298.52242432815916 19.79381443298969 288.39204020570173 26.391752577319586 281.7296770819764 32.98969072164948 277.85567392028463 39.58762886597938 270.5454184300343 46.18556701030927 260.80009429604826 52.78350515463917 251.7275520769752 59.381443298969074 237.7909209068318 65.97938144329896 230.20544870338725 72.57731958762886 218.60520552941864 79.17525773195877 212.80503385616927 85.77319587628865 207.84111857591606 92.37113402061854 198.66406525363118 98.96907216494846 187.99624367002917 105.56701030927834 176.3319241594799 112.16494845360825 173.60378213322886 118.76288659793815 169.25194734731895 125.36082474226804 163.42149194302863 131.95876288659792 159.99364474242628 138.55670103092785 149.2162075824179 145.15463917525773 151.8308365512309 151.75257731958763 137.94824246553844 158.35051546391753 126.07810562219467 164.9484536082474 120.39030922769484 171.5463917525773 110.04942067622792 178.1443298969072 101.46196092883727 184.74226804123708 97.89527477614908 191.340206185567 94.074277141017 197.93814432989691 90.75105768723742 204.5360824742268 78.81139602177768 211.1340206185567 68.97429419504311 217.73195876288662 67.69018171953715 224.3298969072165 62.45198426982927 230.9278350515464 64.65311048329212 237.5257731958763 62.99321877026614 244.12371134020617 55.150603665531264 250.72164948453607 51.13637544537306 257.319587628866 51.43311898201017 263.91752577319585 56.84662951519056 270.5154639175258 53.86551797623662 277.1134020618557 56.57893367469319 283.7113402061856 58.328205198549654 290.30927835051546 59.074849725485194 296.9072164948454 60.50819804549161 303.50515463917526 63.23469429738776 310.10309278350513 64.55893055360201 316.70103092783506 57.47782282655908 323.29896907216494 57.73513121751358 329.8969072164948 54.73652015200008 336.49484536082474 52.00304369756691 343.0927835051546 46.24569852030669 349.6907216494845 47.98075202645498 356.2886597938144 44.48746682872917 362.8865979381443 43.22783903443275 369.48453608247416 45.24064164647075 376.08247422680415 52.03972296326566 382.680412371134 54.00011094316426 389.2783505154639 57.76588105445069 395.87628865979383 61.1871856520371 402.4742268041237 60.48893948457635 409.0721649484536 64.83675650740969 415.6701030927835 67.95885114527027 422.2680412371134 73.26824119621676 428.86597938144325 78.59580179044633 435.46391752577324 82.21964722625364 442.0618556701031 76.54576995740186 448.659793814433 79.94674371849891 455.2577319587629 86.8391485571536 461.8556701030928 93.25906043324079 468.45360824742266 92.8543179091946 475.0515463917526 95.70477792308395 481.64948453608247 101.01889623911057 488.24742268041234 106.36124402902186 494.8453608247423 112.7477180868533 501.44329896907215 110.61678751967344 508.041237113402 111.893186039494 514.639175257732 111.45115105381424 521.2371134020618 109.95877421298675 527.8350515463917 113.3408635442621 534.4329896907217 119.21962934947655 541.0309278350516 121.4143467866835 547.6288659793814 117.23240306351457 554.2268041237114 118.74628708692023 560.8247422680413 124.86442084193379 567.4226804123712 125.76159715594468 574.020618556701 125.86392473905488 580.6185567010309 128.72786001214862 587.2164948453608 127.96840381070919 593.8144329896908 128.1566108435319 600.4123711340206 128.0805016292236 607.0103092783505 129.44552488299593 613.6082474226804 127.96015571863236 620.2061855670103 116.82731673006217 626.8041237113401 116.01506225778454 633.4020618556701 120.05866800773026 640 125.51616557660793 640 320 0 320"
      />
      
      <polygon
        fill="#4F5D95"
        fillRule="evenodd"
        points="0 313.69578997363686 6.597938144329897 305.0750755972334 13.195876288659793 298.52242432815916 19.79381443298969 288.39204020570173 26.391752577319586 281.7296770819764 32.98969072164948 277.85567392028463 39.58762886597938 270.5454184300343 46.18556701030927 260.80009429604826 52.78350515463917 251.7275520769752 59.381443298969074 237.7909209068318 65.97938144329896 230.20544870338725 72.57731958762886 218.60520552941864 79.17525773195877 212.80503385616927 85.77319587628865 207.84111857591606 92.37113402061854 198.66406525363118 98.96907216494846 187.99624367002917 105.56701030927834 176.3319241594799 112.16494845360825 173.60378213322886 118.76288659793815 169.25194734731895 125.36082474226804 163.42149194302863 131.95876288659792 159.99364474242628 138.55670103092785 149.2162075824179 145.15463917525773 151.8308365512309 151.75257731958763 137.94824246553844 158.35051546391753 126.07810562219467 164.9484536082474 120.39030922769484 171.5463917525773 110.04942067622792 178.1443298969072 101.46196092883727 184.74226804123708 97.89527477614908 191.340206185567 94.074277141017 197.93814432989691 90.75105768723742 204.5360824742268 78.81139602177768 211.1340206185567 68.97429419504311 217.73195876288662 67.69018171953715 224.3298969072165 62.45198426982927 230.9278350515464 64.67273755252833 237.5257731958763 63.01224673399656 244.12371134020617 55.16905081148474 250.72164948453607 51.15427739547266 257.319587628866 51.450474486796395 263.91752577319585 56.86347208709623 270.5154639175258 53.881846437728484 277.1134020618557 56.59476371902235 283.7113402061856 58.34359814992308 290.30927835051546 59.089772815391825 296.9072164948454 60.522680091643736 303.50515463917526 63.24873428768217 310.10309278350513 64.57255560007457 316.70103092783506 57.49103197567507 323.29896907216494 57.747937165260055 329.8969072164948 54.7489476265759 336.49484536082474 52.01509183072113 343.0927835051546 46.25739057705556 349.6907216494845 47.992087189923154 356.2886597938144 44.49845599315461 362.8865979381443 43.238524769801415 369.48453608247416 45.251001206148146 376.08247422680415 52.049776350932405 382.680412371134 54.00985745754065 389.2783505154639 57.775339515518965 395.87628865979383 61.196355399618255 402.4742268041237 60.49782933064711 409.0721649484536 64.84538361867916 415.6701030927835 67.96721491910029 422.2680412371134 73.27635778310307 428.86597938144325 78.60367062268634 435.46391752577324 82.22727586739228 442.0618556701031 76.55318054527032 448.659793814433 79.95392810181312 455.2577319587629 86.84612060943402 461.8556701030928 93.26581966806128 468.45360824742266 92.86087737826836 475.0515463917526 95.71113716824158 481.64948453608247 101.02506137222247 488.24742268041234 106.36722695488777 494.8453608247423 112.75351838737706 501.44329896907215 110.6224163954981 508.041237113402 111.89864309708105 514.639175257732 111.45644153760512 521.2371134020618 109.96391861812276 527.8350515463917 113.34585091906732 534.4329896907217 119.22446932516621 541.0309278350516 121.41903902510211 547.6288659793814 117.23695662519503 554.2268041237114 118.75070165364082 560.8247422680413 124.86870065651345 567.4226804123712 125.76575048289965 574.020618556701 125.86795128842022 580.6185567010309 128.73176755872652 587.2164948453608 127.97219208159137 593.8144329896908 128.16028347982385 600.4123711340206 128.084072858014 607.0103092783505 129.44898710210526 613.6082474226804 127.96351561359319 620.2061855670103 116.83057406629257 626.8041237113401 116.01822332512069 633.4020618556701 120.06173258515346 640 125.51915090223952 640 320 0 320"
      />
      
      <polygon
        fill="#755462"
        fillRule="evenodd"
        points="0 318.0212242065153 6.597938144329897 313.5273653026463 13.195876288659793 310.8961238566572 19.79381443298969 304.60636008806557 26.391752577319586 301.51235949902843 32.98969072164948 299.6347479053982 39.58762886597938 295.6873322366905 46.18556701030927 289.60724792386804 52.78350515463917 284.8540354654043 59.381443298969074 274.44711681742547 65.97938144329896 270.19674664240705 72.57731958762886 262.95237477883853 79.17525773195877 259.78061768051737 85.77319587628865 257.29397657130704 92.37113402061854 251.48859559768567 98.96907216494846 243.1157699378406 105.56701030927834 233.69076217907704 112.16494845360825 232.44230477424964 118.76288659793815 230.487109845072 125.36082474226804 226.74323519398882 131.95876288659792 225.02607875107427 138.55670103092785 216.76223947851778 145.15463917525773 218.75150682637903 151.75257731958763 208.3586292044307 158.35051546391753 198.35254501214763 164.9484536082474 194.34761321584716 171.5463917525773 186.11870150184996 178.1443298969072 178.6990444590596 184.74226804123708 176.47506066620838 191.340206185567 173.87232704406517 197.93814432989691 171.38700574826936 204.5360824742268 162.65605034649963 211.1340206185567 154.12865631487665 217.73195876288662 153.54801722297157 224.3298969072165 149.7711940604279 230.9278350515464 151.9918240412127 237.5257731958763 150.2404083361139 244.12371134020617 143.4642918395197 250.72164948453607 140.6979523598707 257.319587628866 142.9293360040762 263.91752577319585 147.0538347660238 270.5154639175258 144.44723086119623 277.1134020618557 147.14074350374202 283.7113402061856 149.5342650756143 290.30927835051546 150.79093740882468 296.9072164948454 152.38218489323555 303.50515463917526 155.03551151021173 310.10309278350513 154.49053818542635 316.70103092783506 148.88686403896074 323.29896907216494 148.9629942370971 329.8969072164948 145.90481977959425 336.49484536082474 141.78907833059992 343.0927835051546 137.45867893513963 349.6907216494845 139.37109470701552 356.2886597938144 135.064081882871 362.8865979381443 134.1877593548665 369.48453608247416 137.09701061323017 376.08247422680415 142.45246903618573 382.680412371134 144.39933937020282 389.2783505154639 146.97587963790627 395.87628865979383 149.82610321821736 402.4742268041237 149.06459350395406 409.0721649484536 151.71944267351716 415.6701030927835 154.19231544915544 422.2680412371134 158.30290719370296 428.86597938144325 162.42161980782325 435.46391752577324 164.48550310356285 442.0618556701031 158.22329258622278 448.659793814433 161.34783357978563 455.2577319587629 165.87471519204203 461.8556701030928 170.07074334670054 468.45360824742266 168.56374807054152 475.0515463917526 169.21383008126594 481.64948453608247 173.47283756564963 488.24742268041234 177.15384893465927 494.8453608247423 181.49373959771714 501.44329896907215 177.55146606323245 508.041237113402 179.11023396363765 514.639175257732 179.84349524018197 521.2371134020618 178.8520610248715 527.8350515463917 181.19131123865583 534.4329896907217 185.21849386206515 541.0309278350516 189.19429637232176 547.6288659793814 186.26914649321432 554.2268041237114 186.9421882451282 560.8247422680413 190.98335145607965 567.4226804123712 194.30445526478985 574.020618556701 196.590111027445 580.6185567010309 200.19850645700058 587.2164948453608 201.59016509178628 593.8144329896908 203.64799952442002 600.4123711340206 205.75049365350003 607.0103092783505 209.18375229768748 613.6082474226804 208.11710658625304 620.2061855670103 198.63923224811015 626.8041237113401 199.16125276743878 633.4020618556701 200.67171942814946 640 204.09991293245295 640 320 0 320"
      />
      
      <polygon
        fill="#2415b9"
        fillRule="evenodd"
        points="0 318.0212242065153 6.597938144329897 313.5273653026463 13.195876288659793 310.8961238566572 19.79381443298969 304.60636008806557 26.391752577319586 301.51235949902843 32.98969072164948 299.6347479053982 39.58762886597938 295.6873322366905 46.18556701030927 289.60724792386804 52.78350515463917 284.8540354654043 59.381443298969074 274.44711681742547 65.97938144329896 270.19674664240705 72.57731958762886 262.95237477883853 79.17525773195877 259.78061768051737 85.77319587628865 257.29397657130704 92.37113402061854 251.48859559768567 98.96907216494846 243.1157699378406 105.56701030927834 233.69076217907704 112.16494845360825 232.44230477424964 118.76288659793815 230.487109845072 125.36082474226804 226.74323519398882 131.95876288659792 225.02607875107427 138.55670103092785 216.76223947851778 145.15463917525773 218.75150682637903 151.75257731958763 208.3586292044307 158.35051546391753 198.35254501214763 164.9484536082474 194.34761321584716 171.5463917525773 186.11870150184996 178.1443298969072 178.6990444590596 184.74226804123708 176.47506066620838 191.340206185567 173.87232704406517 197.93814432989691 171.38700574826936 204.5360824742268 162.65605034649963 211.1340206185567 154.12865631487665 217.73195876288662 153.54801722297157 224.3298969072165 149.7711940604279 230.9278350515464 151.9918240412127 237.5257731958763 150.2404083361139 244.12371134020617 143.4642918395197 250.72164948453607 140.6979523598707 257.319587628866 142.9293360040762 263.91752577319585 147.0538347660238 270.5154639175258 144.44723086119623 277.1134020618557 147.14074350374202 283.7113402061856 149.5342650756143 290.30927835051546 150.79093740882468 296.9072164948454 152.38218489323555 303.50515463917526 155.03551151021173 310.10309278350513 154.49053818542635 316.70103092783506 148.88686403896074 323.29896907216494 148.9629942370971 329.8969072164948 145.90481977959425 336.49484536082474 142.1487089136994 343.0927835051546 137.81830951823912 349.6907216494845 139.730725290115 356.2886597938144 135.42371246597048 362.8865979381443 134.54738993796605 369.48453608247416 137.4566411963297 376.08247422680415 142.81209961928522 382.680412371134 144.7589699533023 389.2783505154639 147.33551022100582 395.87628865979383 150.18573380131684 402.4742268041237 149.42422408705355 409.0721649484536 152.07907325661668 415.6701030927835 154.55194603225493 422.2680412371134 158.66253777680245 428.86597938144325 162.78125039092276 435.46391752577324 164.84513368666234 442.0618556701031 158.58292316932233 448.659793814433 161.70746416288515 455.2577319587629 166.23434577514155 461.8556701030928 170.43037392980006 468.45360824742266 168.92337865364104 475.0515463917526 169.57346066436546 481.64948453608247 173.83246814874914 488.24742268041234 177.51347951775878 494.8453608247423 181.85337018081665 501.44329896907215 177.91109664633194 508.041237113402 179.46986454673717 514.639175257732 180.20312582328148 521.2371134020618 179.21169160797098 527.8350515463917 181.55094182175534 534.4329896907217 185.57812444516463 541.0309278350516 189.55392695542128 547.6288659793814 186.62877707631384 554.2268041237114 187.30181882822768 560.8247422680413 191.34298203917916 567.4226804123712 194.66408584788934 574.020618556701 196.94974161054455 580.6185567010309 200.55813704010006 587.2164948453608 201.94979567488576 593.8144329896908 204.0076301075195 600.4123711340206 206.11012423659955 607.0103092783505 209.543382880787 613.6082474226804 208.47673716935256 620.2061855670103 198.99886283120966 626.8041237113401 199.5208833505383 633.4020618556701 201.03135001124895 640 204.09991293245295 640 320 0 320"
      />
      
      <polygon
        fill="#f1e05a"
        fillRule="evenodd"
        points="0 318.0212242065153 6.597938144329897 313.5273653026463 13.195876288659793 310.8961238566572 19.79381443298969 304.60636008806557 26.391752577319586 301.51235949902843 32.98969072164948 299.6347479053982 39.58762886597938 295.6873322366905 46.18556701030927 289.60724792386804 52.78350515463917 284.8540354654043 59.381443298969074 275.5586214092734 65.97938144329896 271.2743231712874 72.57731958762886 264.3815350023941 79.17525773195877 261.62327087336126 85.77319587628865 259.09163381310947 92.37113402061854 253.23312399693725 98.96907216494846 246.00811503441886 105.56701030927834 237.61107050506197 112.16494845360825 236.28998724525155 118.76288659793815 234.21734416024526 125.36082474226804 230.5136525754857 131.95876288659792 228.6814064341065 138.55670103092785 222.60339670804908 145.15463917525773 224.4143650696505 151.75257731958763 213.85412513572922 158.35051546391753 203.680294648762 164.9484536082474 199.51273605325525 171.5463917525773 191.1311715346434 178.1443298969072 184.6746927377526 184.74226804123708 182.2741017636561 191.340206185567 179.49435632448578 197.93814432989691 176.83742547953057 204.5360824742268 169.27906213696363 211.1340206185567 161.91435121171145 217.73195876288662 161.1036112250958 224.3298969072165 157.6520035401229 230.9278350515464 159.7498684837869 237.5257731958763 157.76164323232874 244.12371134020617 151.88571907580692 250.72164948453607 148.8704905722702 257.319587628866 150.85241183868698 263.91752577319585 154.7427499903987 270.5154639175258 153.0044032298642 277.1134020618557 155.4477527287422 283.7113402061856 157.6119049972615 290.30927835051546 159.39926209035883 296.9072164948454 161.38431729070345 303.50515463917526 163.76286065979605 310.10309278350513 164.08015817136908 316.70103092783506 158.18376466406994 323.29896907216494 157.9761134516303 329.8969072164948 154.65156062122566 336.49484536082474 150.62846103795374 343.0927835051546 146.04744690556484 349.6907216494845 147.70867150406318 356.2886597938144 144.2695582486606 362.8865979381443 143.14898798632228 369.48453608247416 145.7956811760926 376.08247422680415 150.9046853769596 382.680412371134 152.6045310120318 389.2783505154639 154.94919997503985 395.87628865979383 157.5670210249084 402.4742268041237 156.58020275033329 409.0721649484536 159.02355831155535 415.6701030927835 161.28445660138715 422.2680412371134 165.19607193691738 428.86597938144325 169.1153519249378 435.46391752577324 170.98589021558507 442.0618556701031 165.66903896801318 448.659793814433 168.5772822024027 455.2577319587629 172.90113077266443 461.8556701030928 176.89365836557027 468.45360824742266 175.19564325016606 475.0515463917526 175.6542687273658 481.64948453608247 179.72766182567145 488.24742268041234 183.234444199106 494.8453608247423 187.39970564912562 501.44329896907215 183.29351290587053 508.041237113402 184.68798717069257 514.639175257732 185.26196775372733 521.2371134020618 184.13084973188992 527.8350515463917 186.31994595710265 534.4329896907217 190.20618339540272 541.0309278350516 194.04071777228648 547.6288659793814 190.98296254129193 554.2268041237114 191.52309479659692 560.8247422680413 195.43540617143287 567.4226804123712 198.63556035820577 574.020618556701 200.79998978887787 580.6185567010309 204.29459296436096 587.2164948453608 205.5721978422645 593.8144329896908 207.51946138608602 600.4123711340206 209.5249882182933 607.0103092783505 212.85401050675927 613.6082474226804 211.68952030808413 620.2061855670103 202.1135771759683 626.8041237113401 202.54354459621487 633.4020618556701 203.96174659230903 640 206.95452692402313 640 320 0 320"
      />
      
      <polygon
        fill="#22e8e8"
        fillRule="evenodd"
        points="0 319.9256742637271 6.597938144329897 319.8564689990722 13.195876288659793 319.8272329130204 19.79381443298969 318.66030302157014 26.391752577319586 318.54753002222117 32.98969072164948 318.40759792026637 39.58762886597938 318.2695445426574 46.18556701030927 316.0115359758042 52.78350515463917 316.01949849489364 59.381443298969074 310.27120102611747 65.97938144329896 309.37987245992616 72.57731958762886 306.93693529292443 79.17525773195877 307.02226710191155 85.77319587628865 306.27910581192407 92.37113402061854 304.58411734750723 98.96907216494846 300.1563047851773 105.56701030927834 294.7536472423021 112.16494845360825 293.47878164999975 118.76288659793815 293.78095912049105 125.36082474226804 290.8838624202464 131.95876288659792 291.2549331193484 138.55670103092785 286.9785452026415 145.15463917525773 287.29592048689693 151.75257731958763 280.08963852663163 158.35051546391753 272.3565324407889 164.9484536082474 270.68736860671254 171.5463917525773 264.6410498667181 178.1443298969072 259.71604249521727 184.74226804123708 258.4821342333337 191.340206185567 256.497624489832 197.93814432989691 254.70957140880472 204.5360824742268 249.7580324759886 211.1340206185567 243.84332020879918 217.73195876288662 243.32681866260003 224.3298969072165 241.83028818430222 230.9278350515464 242.76855411072447 237.5257731958763 241.70745650249683 244.12371134020617 237.217856868026 250.72164948453607 234.04437549518624 257.319587628866 235.73032181922804 263.91752577319585 237.4044251999136 270.5154639175258 235.56053200081917 277.1134020618557 237.00508770138245 283.7113402061856 238.39939111085204 290.30927835051546 240.81757826479617 296.9072164948454 242.5414769283056 303.50515463917526 244.59172484076208 310.10309278350513 243.76037665513863 316.70103092783506 239.7940650014732 323.29896907216494 239.82810609119545 329.8969072164948 237.4352985607083 336.49484536082474 235.72257989753828 343.0927835051546 231.99175815149542 349.6907216494845 232.20072252932133 356.2886597938144 229.5869789299033 362.8865979381443 229.00008298511347 369.48453608247416 230.6153556625544 376.08247422680415 233.24734770894622 382.680412371134 234.38587165475718 389.2783505154639 235.44978822217288 395.87628865979383 235.98083226328754 402.4742268041237 235.0239085378115 409.0721649484536 236.27274597968884 415.6701030927835 237.1099346070825 422.2680412371134 239.17610457792165 428.86597938144325 241.04015743448548 435.46391752577324 242.01075204392072 442.0618556701031 236.84732947825856 448.659793814433 238.18589413410962 455.2577319587629 240.60233812779197 461.8556701030928 242.69851310569507 468.45360824742266 240.20795849647948 475.0515463917526 240.05521814750577 481.64948453608247 242.49392584307185 488.24742268041234 244.47760590854313 494.8453608247423 246.7813012961052 501.44329896907215 243.48883337055395 508.041237113402 244.04377778206086 514.639175257732 246.20497150335007 521.2371134020618 246.8956033008413 527.8350515463917 247.99730610977105 534.4329896907217 250.1182444276136 541.0309278350516 252.2328404032442 547.6288659793814 249.58179653625666 554.2268041237114 249.4427304723199 560.8247422680413 251.5949039393238 567.4226804123712 253.6150577796337 574.020618556701 254.4227952207862 580.6185567010309 256.340141887587 587.2164948453608 257.15934723904854 593.8144329896908 258.91941073417536 600.4123711340206 259.945401472035 607.0103092783505 261.74596501188137 613.6082474226804 260.11289979629447 620.2061855670103 252.98377526241276 626.8041237113401 252.93433764761653 633.4020618556701 253.29000286581555 640 255.0651922074892 640 320 0 320"
      />
      
      <polygon
        fill="#22e4e8"
        fillRule="evenodd"
        points="0 319.9256742637271 6.597938144329897 319.8564689990722 13.195876288659793 319.8272329130204 19.79381443298969 318.66030302157014 26.391752577319586 318.54753002222117 32.98969072164948 318.40759792026637 39.58762886597938 318.2695445426574 46.18556701030927 316.0115359758042 52.78350515463917 316.01949849489364 59.381443298969074 310.27120102611747 65.97938144329896 309.37987245992616 72.57731958762886 306.93693529292443 79.17525773195877 307.02226710191155 85.77319587628865 306.27910581192407 92.37113402061854 304.58411734750723 98.96907216494846 300.1563047851773 105.56701030927834 294.7536472423021 112.16494845360825 293.47878164999975 118.76288659793815 293.78095912049105 125.36082474226804 290.8838624202464 131.95876288659792 291.2549331193484 138.55670103092785 286.9785452026415 145.15463917525773 287.29592048689693 151.75257731958763 280.08963852663163 158.35051546391753 272.3565324407889 164.9484536082474 270.68736860671254 171.5463917525773 264.6410498667181 178.1443298969072 259.71604249521727 184.74226804123708 258.4821342333337 191.340206185567 256.497624489832 197.93814432989691 254.70957140880472 204.5360824742268 249.7580324759886 211.1340206185567 243.84332020879918 217.73195876288662 243.32681866260003 224.3298969072165 241.83028818430222 230.9278350515464 242.76855411072447 237.5257731958763 241.70745650249683 244.12371134020617 237.217856868026 250.72164948453607 234.04437549518624 257.319587628866 235.73032181922804 263.91752577319585 237.4044251999136 270.5154639175258 235.56053200081917 277.1134020618557 237.00508770138245 283.7113402061856 238.39939111085204 290.30927835051546 240.81757826479617 296.9072164948454 242.5414769283056 303.50515463917526 244.59172484076208 310.10309278350513 243.76037665513863 316.70103092783506 239.7940650014732 323.29896907216494 239.82810609119545 329.8969072164948 237.4352985607083 336.49484536082474 235.7739556951239 343.0927835051546 232.04313394908104 349.6907216494845 232.25209832690695 356.2886597938144 229.63835472748892 362.8865979381443 229.05145878269911 369.48453608247416 230.66673146014006 376.08247422680415 233.29872350653184 382.680412371134 234.4372474523428 389.2783505154639 235.50116401975853 395.87628865979383 236.0322080608732 402.4742268041237 235.07528433539716 409.0721649484536 236.32412177727446 415.6701030927835 237.16131040466814 422.2680412371134 239.22748037550727 428.86597938144325 241.09153323207113 435.46391752577324 242.06212784150634 442.0618556701031 236.8987052758442 448.659793814433 238.23726993169527 455.2577319587629 240.65371392537762 461.8556701030928 242.74988890328072 468.45360824742266 240.2593342940651 475.0515463917526 240.1065939450914 481.64948453608247 242.5453016406575 488.24742268041234 244.52898170612877 494.8453608247423 246.83267709369085 501.44329896907215 243.5402091681396 508.041237113402 244.09515357964648 514.639175257732 246.25634730093572 521.2371134020618 246.94697909842694 527.8350515463917 248.0486819073567 534.4329896907217 250.16962022519925 541.0309278350516 252.28421620082986 547.6288659793814 249.6331723338423 554.2268041237114 249.49410626990556 560.8247422680413 251.64627973690946 567.4226804123712 253.66643357721932 574.020618556701 254.47417101837186 580.6185567010309 256.39151768517263 587.2164948453608 257.2107230366342 593.8144329896908 258.970786531761 600.4123711340206 259.9967772696206 607.0103092783505 261.797340809467 613.6082474226804 260.1642755938801 620.2061855670103 253.0351510599984 626.8041237113401 252.98571344520215 633.4020618556701 253.3413786634012 640 255.0651922074892 640 320 0 320"
      />
      
      <polygon
        fill="#e34c26"
        fillRule="evenodd"
        points="0 319.9256742637271 6.597938144329897 319.8564689990722 13.195876288659793 319.8272329130204 19.79381443298969 318.66030302157014 26.391752577319586 318.63876238266164 32.98969072164948 318.5126028784701 39.58762886597938 318.3713442850691 46.18556701030927 316.1105248589361 52.78350515463917 316.20707467607764 59.381443298969074 311.64862325271446 65.97938144329896 310.7510474922883 72.57731958762886 308.2675859181638 79.17525773195877 308.3123002784587 85.77319587628865 307.52976144327795 92.37113402061854 305.7978104557849 98.96907216494846 302.0857707457495 105.56701030927834 297.72660723313953 112.16494845360825 296.3609933842622 118.76288659793815 296.57519319219074 125.36082474226804 294.70440542067047 131.95876288659792 294.9752974245443 138.55670103092785 291.7197455783482 145.15463917525773 292.19422445531467 151.75257731958763 288.11679802809346 158.35051546391753 282.47605103416396 164.9484536082474 280.5091028021217 171.5463917525773 276.0942081292361 178.1443298969072 271.33209388907625 184.74226804123708 270.33210168863195 191.340206185567 269.08200075148943 197.93814432989691 268.32411975091026 204.5360824742268 264.1112568982008 211.1340206185567 258.7341440594954 217.73195876288662 258.8780352355897 224.3298969072165 257.3390837612254 230.9278350515464 258.0372870257852 237.5257731958763 256.5238224372681 244.12371134020617 252.72249819795644 250.72164948453607 250.19335461066467 257.319587628866 252.1900864920094 263.91752577319585 254.18868454782563 270.5154639175258 252.8678277936316 277.1134020618557 253.80099291509123 283.7113402061856 254.90776653579297 290.30927835051546 256.8330614803121 296.9072164948454 258.5829049216023 303.50515463917526 260.4521189085903 310.10309278350513 259.97209794966057 316.70103092783506 257.8644013326393 323.29896907216494 257.5420762574406 329.8969072164948 255.7256548275828 336.49484536082474 254.3230302034802 343.0927835051546 252.44399359555047 349.6907216494845 252.30170061776738 356.2886597938144 249.89598481538528 362.8865979381443 249.60732229303227 369.48453608247416 250.63985368368256 376.08247422680415 252.68977438368427 382.680412371134 254.04379925004798 389.2783505154639 254.88135713584919 395.87628865979383 255.76538270433983 402.4742268041237 254.20611782529426 409.0721649484536 254.90084982243917 415.6701030927835 255.1709986343003 422.2680412371134 256.70490198444486 428.86597938144325 258.1051187276662 435.46391752577324 258.55637697714315 442.0618556701031 255.16944729071645 448.659793814433 257.1207402588929 455.2577319587629 258.97909615601407 461.8556701030928 260.51590583502804 468.45360824742266 258.60054849048555 475.0515463917526 258.0205978342682 481.64948453608247 259.9124831181677 488.24742268041234 261.3828881402798 494.8453608247423 263.17212786865423 501.44329896907215 261.82043823779395 508.041237113402 263.5576178429589 514.639175257732 265.2078782297429 521.2371134020618 265.57696740543275 527.8350515463917 267.22152949700336 534.4329896907217 268.7758277030186 541.0309278350516 270.33941927705916 547.6288659793814 268.4386408425976 554.2268041237114 268.9636100450032 560.8247422680413 270.52148061572774 567.4226804123712 271.98378988075694 574.020618556701 273.44945503343484 580.6185567010309 274.82523195011413 587.2164948453608 276.2041550384363 593.8144329896908 277.5410114284673 600.4123711340206 278.71337592371225 607.0103092783505 279.9736315030259 613.6082474226804 278.92974187911926 620.2061855670103 275.7239260178015 626.8041237113401 277.0324812277197 633.4020618556701 278.28629813931093 640 279.3650145635626 640 320 0 320"
      />
      
      <polygon
        fill="#00ADD8"
        fillRule="evenodd"
        points="0 319.9256742637271 6.597938144329897 319.8564689990722 13.195876288659793 319.8272329130204 19.79381443298969 318.66030302157014 26.391752577319586 318.63876238266164 32.98969072164948 318.51536264893747 39.58762886597938 318.37401981515495 46.18556701030927 316.6121806491617 52.78350515463917 316.69341770432965 59.381443298969074 313.1394434755132 65.97938144329896 312.1963612941208 72.57731958762886 310.88203120822527 79.17525773195877 310.8639639328641 85.77319587628865 310.0035371280085 92.37113402061854 308.6617080539788 98.96907216494846 305.87144920516766 105.56701030927834 303.79315799855186 112.16494845360825 303.02444460627976 118.76288659793815 303.3152909391104 125.36082474226804 302.4901866288452 131.95876288659792 302.91324552504017 138.55670103092785 300.9756941441955 145.15463917525773 301.55638981112884 151.75257731958763 299.63115925075925 158.35051546391753 295.82119394137396 164.9484536082474 294.07845585509114 171.5463917525773 290.71614338556043 178.1443298969072 287.7123863680883 184.74226804123708 287.3468195068058 191.340206185567 286.115833448913 197.93814432989691 284.93730385795783 204.5360824742268 282.376530473178 211.1340206185567 277.943847618814 217.73195876288662 278.0796594369801 224.3298969072165 276.03282943303503 230.9278350515464 276.2116891450248 237.5257731958763 274.14901625280123 244.12371134020617 270.30474081919203 250.72164948453607 268.0869623082 257.319587628866 269.6660860188698 263.91752577319585 271.1481826312385 270.5154639175258 270.41255991753394 277.1134020618557 270.81018372496084 283.7113402061856 272.1629138390241 290.30927835051546 273.5615102717909 296.9072164948454 274.92286842702555 303.50515463917526 276.2933097307969 310.10309278350513 276.4643516493191 316.70103092783506 274.6332705466266 323.29896907216494 273.7990791524386 329.8969072164948 272.0443662205768 336.49484536082474 270.1436213858869 343.0927835051546 268.24947515588724 349.6907216494845 268.72860122034916 356.2886597938144 266.9323380094384 362.8865979381443 266.173263271652 369.48453608247416 266.70013248462936 376.08247422680415 268.2753942457692 382.680412371134 269.7729990536455 389.2783505154639 270.1456963927004 395.87628865979383 271.6310201860696 402.4742268041237 270.8758831257388 409.0721649484536 271.2113801334257 415.6701030927835 272.69783862293554 422.2680412371134 274.09585093343406 428.86597938144325 275.46913956610894 435.46391752577324 275.7089946286485 442.0618556701031 272.95248091414004 448.659793814433 274.36095981037755 455.2577319587629 275.7097890423314 461.8556701030928 277.0616982533506 468.45360824742266 276.49361571463027 475.0515463917526 276.69948357038413 481.64948453608247 278.0212053902579 488.24742268041234 279.0984900018563 494.8453608247423 280.34696452509945 501.44329896907215 279.2673631732847 508.041237113402 280.4775144340768 514.639175257732 281.61130420289186 521.2371134020618 281.5274715396783 527.8350515463917 282.6851585552371 534.4329896907217 283.7824402712814 541.0309278350516 284.88795290385696 547.6288659793814 282.6100812526965 554.2268041237114 282.84177993471206 560.8247422680413 283.9760159537049 567.4226804123712 285.0406857930648 574.020618556701 286.1078006271822 580.6185567010309 287.10946258214864 587.2164948453608 288.11341838427603 593.8144329896908 289.08674990575054 600.4123711340206 289.940318843091 607.0103092783505 290.8578783297053 613.6082474226804 291.7191476462656 620.2061855670103 290.34722684282565 626.8041237113401 291.22360678842153 633.4020618556701 292.10199608667165 640 292.823440076933 640 320 0 320"
      />
      
      <polygon
        fill="#244776"
        fillRule="evenodd"
        points="0 319.9256742637271 6.597938144329897 319.8564689990722 13.195876288659793 319.8272329130204 19.79381443298969 318.66030302157014 26.391752577319586 318.63876238266164 32.98969072164948 318.51536264893747 39.58762886597938 318.37401981515495 46.18556701030927 316.6121806491617 52.78350515463917 316.69341770432965 59.381443298969074 313.1394434755132 65.97938144329896 312.1963612941208 72.57731958762886 310.88203120822527 79.17525773195877 310.8639639328641 85.77319587628865 310.0035371280085 92.37113402061854 308.6617080539788 98.96907216494846 305.87144920516766 105.56701030927834 303.79315799855186 112.16494845360825 303.02444460627976 118.76288659793815 303.3152909391104 125.36082474226804 302.4901866288452 131.95876288659792 302.91324552504017 138.55670103092785 300.9756941441955 145.15463917525773 301.55638981112884 151.75257731958763 299.63115925075925 158.35051546391753 295.82119394137396 164.9484536082474 294.07845585509114 171.5463917525773 290.71614338556043 178.1443298969072 287.7123863680883 184.74226804123708 287.3468195068058 191.340206185567 286.115833448913 197.93814432989691 284.93730385795783 204.5360824742268 282.376530473178 211.1340206185567 277.943847618814 217.73195876288662 278.0796594369801 224.3298969072165 276.03282943303503 230.9278350515464 276.2116891450248 237.5257731958763 274.14901625280123 244.12371134020617 270.30474081919203 250.72164948453607 268.0869623082 257.319587628866 269.6660860188698 263.91752577319585 271.1481826312385 270.5154639175258 270.41255991753394 277.1134020618557 270.81018372496084 283.7113402061856 272.1629138390241 290.30927835051546 273.5615102717909 296.9072164948454 274.92286842702555 303.50515463917526 276.2933097307969 310.10309278350513 276.4643516493191 316.70103092783506 274.6332705466266 323.29896907216494 273.7990791524386 329.8969072164948 272.0443662205768 336.49484536082474 270.1436213858869 343.0927835051546 268.24947515588724 349.6907216494845 268.72860122034916 356.2886597938144 266.9323380094384 362.8865979381443 266.173263271652 369.48453608247416 266.70013248462936 376.08247422680415 268.2753942457692 382.680412371134 269.7729990536455 389.2783505154639 270.1456963927004 395.87628865979383 271.6310201860696 402.4742268041237 270.8758831257388 409.0721649484536 271.2113801334257 415.6701030927835 272.69783862293554 422.2680412371134 274.09585093343406 428.86597938144325 275.46913956610894 435.46391752577324 275.7089946286485 442.0618556701031 272.95248091414004 448.659793814433 274.36095981037755 455.2577319587629 275.7097890423314 461.8556701030928 277.0616982533506 468.45360824742266 276.49361571463027 475.0515463917526 276.69948357038413 481.64948453608247 278.0212053902579 488.24742268041234 279.0984900018563 494.8453608247423 280.34696452509945 501.44329896907215 279.2673631732847 508.041237113402 280.4775144340768 514.639175257732 281.61130420289186 521.2371134020618 281.5274715396783 527.8350515463917 282.6851585552371 534.4329896907217 283.7824402712814 541.0309278350516 284.88795290385696 547.6288659793814 282.6100812526965 554.2268041237114 282.84177993471206 560.8247422680413 283.9760159537049 567.4226804123712 285.0406857930648 574.020618556701 286.1078006271822 580.6185567010309 287.10946258214864 587.2164948453608 288.11341838427603 593.8144329896908 289.08674990575054 600.4123711340206 289.940318843091 607.0103092783505 290.8578783297053 613.6082474226804 291.7191476462656 620.2061855670103 290.4027880519629 626.8041237113401 291.2775259140412 633.4020618556701 292.1542693639553 640 292.8743615336802 640 320 0 320"
      />
      
      <polygon
        fill="#563d7c"
        fillRule="evenodd"
        points="0 319.9256742637271 6.597938144329897 319.8564689990722 13.195876288659793 319.8272329130204 19.79381443298969 318.66030302157014 26.391752577319586 318.63876238266164 32.98969072164948 318.51536264893747 39.58762886597938 318.37401981515495 46.18556701030927 316.6121806491617 52.78350515463917 316.69341770432965 59.381443298969074 314.2496035627383 65.97938144329896 313.27263441901636 72.57731958762886 311.9264956245553 79.17525773195877 311.876546686996 85.77319587628865 310.98521138030003 92.37113402061854 309.6143694686094 98.96907216494846 306.795031096352 105.56701030927834 305.79142139242265 112.16494845360825 304.96171218721855 118.76288659793815 305.1934243605186 125.36082474226804 304.3146363490886 131.95876288659792 304.6820051137198 138.55670103092785 303.8118385365336 145.15463917525773 304.3059623882293 151.75257731958763 302.2994697013026 158.35051546391753 298.4080557712149 164.9484536082474 296.586355344578 171.5463917525773 293.1499232173737 178.1443298969072 290.0718763855864 184.74226804123708 289.63657612672495 191.340206185567 288.3356965842679 197.93814432989691 287.08940673461586 204.5360824742268 284.46921035557136 211.1340206185567 279.972649711534 217.73195876288662 280.04850124734423 224.3298969072165 277.94157347940904 230.9278350515464 278.0640214353823 237.5257731958763 275.94480721738057 244.12371134020617 273.17510252023817 250.72164948453607 271.6223185644809 257.319587628866 273.0935278233285 263.91752577319585 274.4743281113683 270.5154639175258 273.6371765464751 277.1134020618557 273.9363712100847 283.7113402061856 275.20278186682805 290.30927835051546 276.50858836882384 296.9072164948454 277.78284687387645 303.50515463917526 279.06598908661954 310.10309278350513 279.15508609423466 316.70103092783506 277.2418718397127 323.29896907216494 276.32805412436267 329.8969072164948 274.49859865465737 336.49484536082474 272.5229398924631 343.0927835051546 270.55847406703407 349.6907216494845 270.96711952431696 356.2886597938144 269.10252681087206 362.8865979381443 268.2835295005653 369.48453608247416 268.74598394403296 376.08247422680415 270.26078163174583 382.680412371134 271.6977837542933 389.2783505154639 272.0135950359683 395.87628865979383 273.4419021746802 402.4742268041237 272.6314890717142 409.0721649484536 272.91510022289697 415.6701030927835 274.3495535613008 422.2680412371134 275.6987503357106 428.86597938144325 277.02311133030634 435.46391752577324 277.21553235195427 442.0618556701031 275.39028470392344 448.659793814433 276.7243509976895 455.2577319587629 278.00333164752624 461.8556701030928 279.28523147018177 468.45360824742266 278.6514339432665 475.0515463917526 278.7914355604772 481.64948453608247 280.04930178502224 488.24742268041234 281.0666468700871 494.8453608247423 282.2550447961687 501.44329896907215 281.11905100563723 508.041237113402 282.27268036070274 514.639175257732 283.3516738340805 521.2371134020618 283.2197869213468 527.8350515463917 284.325816908204 534.4329896907217 285.3746097354806 541.0309278350516 286.43152240481396 547.6288659793814 284.1080314086842 554.2268041237114 284.2940060418549 560.8247422680413 285.38391368692015 567.4226804123712 286.40697375405745 574.020618556701 287.4323834624719 580.6185567010309 288.3948979844425 587.2164948453608 289.35961670280716 593.8144329896908 290.2949088131123 600.4123711340206 291.1151184175644 607.0103092783505 291.99681780296714 613.6082474226804 292.8244264162105 620.2061855670103 291.47432884939127 626.8041237113401 292.3173979505766 633.4020618556701 293.1623998400925 640 293.8564211044537 640 320 0 320"
      />
      
      <polygon
        fill="#178600"
        fillRule="evenodd"
        points="0 320 6.597938144329897 320 13.195876288659793 320 19.79381443298969 320 26.391752577319586 320 32.98969072164948 320 39.58762886597938 320 46.18556701030927 320 52.78350515463917 320 59.381443298969074 318.73032864468576 65.97938144329896 318.76908470713084 72.57731958762886 318.80546379637445 79.17525773195877 318.84192627881276 85.77319587628865 318.8772757559721 92.37113402061854 318.9104573286008 98.96907216494846 318.94371490658443 105.56701030927834 318.9749329578803 112.16494845360825 319.00622252428644 118.76288659793815 319.03655698379 125.36082474226804 319.0640955826641 131.95876288659792 319.09266356756893 138.55670103092785 319.11947937062195 145.15463917525773 319.1463567835314 151.75257731958763 319.1715857731499 158.35051546391753 319.1856777742467 164.9484536082474 319.21053448456075 171.5463917525773 319.23386673110815 178.1443298969072 319.257252470136 184.74226804123708 319.27920400239844 191.340206185567 318.1941408278914 197.93814432989691 318.24926363707266 204.5360824742268 318.2976042758388 211.1340206185567 316.1388746405534 217.73195876288662 316.24748543993616 224.3298969072165 316.3620286643171 230.9278350515464 316.46954681351195 237.5257731958763 316.57731210084347 244.12371134020617 316.2415604747038 250.72164948453607 315.63817865297835 257.319587628866 315.7713206764471 263.91752577319585 315.8962971333991 270.5154639175258 316.0215601645501 277.1134020618557 316.1429997060932 283.7113402061856 316.24949795322954 290.30927835051546 316.3639798554584 296.9072164948454 316.4714405665116 303.50515463917526 316.57914768616513 310.10309278350513 316.6802491626441 316.70103092783506 315.9758118663288 323.29896907216494 316.09864780205027 329.8969072164948 314.3108447464795 336.49484536082474 314.48450275144023 343.0927835051546 313.52091144412805 349.6907216494845 313.71868185767283 356.2886597938144 313.91041571775287 362.8865979381443 312.9761239250522 369.48453608247416 313.190523687585 376.08247422680415 313.39177375307474 382.680412371134 313.5934859233135 389.2783505154639 313.7828274591038 395.87628865979383 313.9726028326793 402.4742268041237 314.15658575975465 409.0721649484536 314.32928478407763 415.6701030927835 314.5023800904777 422.2680412371134 314.66485964664815 428.86597938144325 314.82771147184786 435.46391752577324 314.98559254477897 442.0618556701031 313.2129033651942 448.659793814433 313.4200754469456 455.2577319587629 313.614541780196 461.8556701030928 313.8094540553695 468.45360824742266 313.19872631660206 475.0515463917526 313.40633129082386 481.64948453608247 313.6075997796746 488.24742268041234 313.79652348637836 494.8453608247423 313.98588101031686 501.44329896907215 314.1636249324596 508.041237113402 314.3417768811867 514.639175257732 314.5144910099942 521.2371134020618 314.6659549786527 527.8350515463917 314.8287736150872 534.4329896907217 314.98160644049653 541.0309278350516 315.1347900598518 547.6288659793814 315.27857858710263 554.2268041237114 315.42269735798027 560.8247422680413 315.5624168193107 567.4226804123712 315.6935673524625 574.020618556701 315.8250186600836 580.6185567010309 315.94840817002404 587.2164948453608 316.0720804215289 593.8144329896908 316.1919780007087 600.4123711340206 316.29712384162457 607.0103092783505 316.41015190125825 613.6082474226804 316.5162480608523 620.2061855670103 316.6225875670493 626.8041237113401 316.72240505959496 633.4020618556701 316.8224517190234 640 316.9046252522297 640 320 0 320"
      />
      
      <polygon
        fill="#555555"
        fillRule="evenodd"
        points="0 320 6.597938144329897 320 13.195876288659793 320 19.79381443298969 320 26.391752577319586 320 32.98969072164948 320 39.58762886597938 320 46.18556701030927 320 52.78350515463917 320 59.381443298969074 318.73032864468576 65.97938144329896 318.76908470713084 72.57731958762886 318.80546379637445 79.17525773195877 318.84192627881276 85.77319587628865 318.8772757559721 92.37113402061854 318.9104573286008 98.96907216494846 318.94371490658443 105.56701030927834 318.9749329578803 112.16494845360825 319.00622252428644 118.76288659793815 319.03655698379 125.36082474226804 319.0640955826641 131.95876288659792 319.09266356756893 138.55670103092785 319.11947937062195 145.15463917525773 319.1463567835314 151.75257731958763 319.1715857731499 158.35051546391753 319.1856777742467 164.9484536082474 319.21053448456075 171.5463917525773 319.23386673110815 178.1443298969072 319.257252470136 184.74226804123708 319.27920400239844 191.340206185567 318.1941408278914 197.93814432989691 318.24926363707266 204.5360824742268 318.2976042758388 211.1340206185567 317.2428492872524 217.73195876288662 317.31883265335927 224.3298969072165 317.400673641303 230.9278350515464 317.4774952651984 237.5257731958763 317.5544934368846 244.12371134020617 317.18891384467946 250.72164948453607 316.55753354904056 257.319587628866 316.66261277609726 263.91752577319585 316.76124752585645 270.5154639175258 316.8601085346281 277.1134020618557 316.95595183180126 283.7113402061856 317.04000315040935 290.30927835051546 317.13035529958495 296.9072164948454 317.21516620936035 303.50515463917526 317.3001715251538 310.10309278350513 317.37996358463886 316.70103092783506 317.45993874746654 323.29896907216494 317.5374725323929 329.8969072164948 316.5057098572516 336.49484536082474 316.6123708423643 343.0927835051546 315.58589144874355 349.6907216494845 315.72062961549165 356.2886597938144 315.851255149643 362.8865979381443 314.863373467984 369.48453608247416 315.02016616519353 376.08247422680415 315.1673421762085 382.680412371134 315.31485616804537 389.2783505154639 315.4533234367861 395.87628865979383 315.5921078174998 402.4742268041237 315.72665623287713 409.0721649484536 315.85295273957234 415.6701030927835 315.97953897494045 422.2680412371134 316.0983618443609 428.86597938144325 316.2174568000053 435.46391752577324 316.33291677411836 442.0618556701031 315.58525479985985 448.659793814433 315.72001238665945 455.2577319587629 315.84650504614984 461.8556701030928 315.9732881843998 468.45360824742266 316.0922954929336 475.0515463917526 316.2115760179589 481.64948453608247 316.32721564296094 488.24742268041234 316.4357626336031 494.8453608247423 316.5445588996151 501.44329896907215 316.6466825797883 508.041237113402 316.74904063635006 514.639175257732 316.8482744279091 521.2371134020618 316.93529876117185 527.8350515463917 317.0288468959636 534.4329896907217 317.11665789543906 541.0309278350516 317.2046701852894 547.6288659793814 317.28728462559064 554.2268041237114 317.37008874533655 560.8247422680413 317.4503652785928 567.4226804123712 317.5257184075155 574.020618556701 317.6012443851716 580.6185567010309 317.6721383106422 587.2164948453608 317.74319496381406 593.8144329896908 317.81208264383866 600.4123711340206 317.87249465303233 607.0103092783505 317.9374354798838 613.6082474226804 317.9983935829803 620.2061855670103 318.0594913563202 626.8041237113401 318.11684202558797 633.4020618556701 318.17432435047465 640 318.2215375781883 640 320 0 320"
      />
      
      <polygon
        fill="#C1F12E"
        fillRule="evenodd"
        points="0 320 6.597938144329897 320 13.195876288659793 320 19.79381443298969 320 26.391752577319586 320 32.98969072164948 320 39.58762886597938 320 46.18556701030927 320 52.78350515463917 320 59.381443298969074 319.0077745974067 65.97938144329896 319.03806176035096 72.57731958762886 319.0664913799577 79.17525773195877 319.09498614407585 85.77319587628865 319.12261111594086 92.37113402061854 319.1485419195046 98.96907216494846 319.17453211349044 105.56701030927834 319.19892847610777 112.16494845360825 319.2233807047674 118.76288659793815 319.2470865561148 125.36082474226804 319.26860746671707 131.95876288659792 319.2909328503834 138.55670103092785 319.31188890464153 145.15463917525773 319.33289312884745 151.75257731958763 319.3526091254792 158.35051546391753 319.3611754951432 164.9484536082474 319.38067524076774 171.5463917525773 319.39897907085134 178.1443298969072 319.41732485441116 184.74226804123708 319.4345455388294 191.340206185567 319.44084478702234 197.93814432989691 319.45791266954336 204.5360824742268 319.4728806177139 211.1340206185567 319.48621078765865 217.73195876288662 319.5013955211446 224.3298969072165 319.5166151490724 230.9278350515464 319.53090133013376 237.5257731958763 319.5452203095043 244.12371134020617 319.30910741896025 250.72164948453607 318.6150660152864 257.319587628866 318.657340282075 263.91752577319585 318.6970218178626 270.5154639175258 318.7367944943151 277.1134020618557 318.7753530579191 283.7113402061856 318.80916758037404 290.30927835051546 318.8455169846818 296.9072164948454 318.87963724450816 303.50515463917526 318.91383559554686 310.10309278350513 318.9459366324007 316.70103092783506 318.9781113421483 323.29896907216494 319.0093038493976 329.8969072164948 319.03858343019965 336.49484536082474 319.0679301077933 343.0927835051546 319.09547698844597 349.6907216494845 319.1230869585781 356.2886597938144 319.1498543656298 362.8865979381443 319.17332817304987 369.48453608247416 319.1985618378659 376.08247422680415 319.2222478992561 382.680412371134 319.24598834706563 389.2783505154639 319.26827274312063 395.87628865979383 319.29060833002035 402.4742268041237 319.31226212926066 409.0721649484536 319.33258783330785 415.6701030927835 319.3529601557538 422.2680412371134 319.37208315237956 428.86597938144325 319.3912499211848 435.46391752577324 319.40983168405813 442.0618556701031 318.57422061218034 448.659793814433 318.6177416668247 455.2577319587629 318.6585936460329 461.8556701030928 318.6995391291927 468.45360824742266 318.7379736716213 475.0515463917526 318.776496272167 481.64948453608247 318.8138430862091 488.24742268041234 318.84889925894004 494.8453608247423 318.88403598892165 501.44329896907215 318.9170176069461 508.041237113402 318.9500750556478 514.639175257732 318.9821234836849 521.2371134020618 319.0102286137541 527.8350515463917 319.0404408707856 534.4329896907217 319.06880020830124 541.0309278350516 319.09722448482506 547.6288659793814 319.12390547778523 554.2268041237114 319.1506478134477 560.8247422680413 319.1765737876865 567.4226804123712 319.2009097220907 574.020618556701 319.2253014711614 580.6185567010309 319.24819735223446 587.2164948453608 319.2711457085471 593.8144329896908 319.2933935147591 600.4123711340206 319.3129040184757 607.0103092783505 319.3338772322502 613.6082474226804 319.35356412963023 620.2061855670103 319.3732962685376 626.8041237113401 319.3918181375061 633.4020618556701 319.4103825764605 640 319.4256305021775 640 320 0 320"
      />
      

      
        <g id="labels">
        
          
          <text x="0" y="330">
            Jul 2014
          </text>
          
        
          
        
          
        
          
        
          
        
          
        
          
        
          
        
          
        
          
        
          
        
          
        
          
        
          
          <text x="84.89795918367346" y="330">
            Aug 2015
          </text>
          
        
          
        
          
        
          
        
          
        
          
        
          
        
          
        
          
        
          
        
          
        
          
        
          
        
          
          <text x="169.79591836734693" y="330">
            Sep 2016
          </text>
          
        
          
        
          
        
          
        
          
        
          
        
          
        
          
        
          
        
          
        
          
        
          
        
          
        
          
          <text x="254.69387755102042" y="330">
            Oct 2017
          </text>
          
        
          
        
          
        
          
        
          
        
          
        
          
        
          
        
          
        
          
        
          
        
          
        
          
        
          
          <text x="339.59183673469386" y="330">
            Nov 2018
          </text>
          
        
          
        
          
        
          
        
          
        
          
        
          
        
          
        
          
        
          
        
          
        
          
        
          
        
          
          <text x="424.48979591836735" y="330">
            Dec 2019
          </text>
          
        
          
        
          
        
          
        
          
        
          
        
          
        
          
        
          
        
          
        
          
        
          
        
          
        
          
          <text x="509.38775510204084" y="330">
            Jan 2021
          </text>
          
        
          
        
          
        
          
        
          
        
          
        
          
        
          
        
          
        
          
        
          
        
          
        
          
        
          
          <text x="594.2857142857143" y="330">
            Feb 2022
          </text>
          
        
          
        
          
        
          
        
          
        
          
        
          
        
        </g>
      

      
        <text text-anchor="middle" y="370" x="320" id="legend">
          
          <tspan xml:space="preserve" fill="#C1F12E">   </tspan> Batchfile
          
          <tspan xml:space="preserve" fill="#555555">   </tspan> C
          
          <tspan xml:space="preserve" fill="#178600">   </tspan> C#
          
          <tspan xml:space="preserve" fill="#563d7c">   </tspan> CSS
          
          <tspan xml:space="preserve" fill="#244776">   </tspan> CoffeeScript
          
          <tspan xml:space="preserve" fill="#00ADD8">   </tspan> Go
          
          <tspan xml:space="preserve" fill="#e34c26">   </tspan> HTML
          
          <tspan xml:space="preserve" fill="#22e4e8">   </tspan> JSON
          
        </text>
      
        <text text-anchor="middle" y="400" x="320" id="legend">
          
          <tspan xml:space="preserve" fill="#22e8e8">   </tspan> JSon
          
          <tspan xml:space="preserve" fill="#f1e05a">   </tspan> JavaScript
          
          <tspan xml:space="preserve" fill="#2415b9">   </tspan> Less
          
          <tspan xml:space="preserve" fill="#755462">   </tspan> MySQL
          
          <tspan xml:space="preserve" fill="#4F5D95">   </tspan> PHP
          
          <tspan xml:space="preserve" fill="#fd2fdb">   </tspan> PLpgSQL
          
          <tspan xml:space="preserve" fill="#0298c3">   </tspan> Perl
          
          <tspan xml:space="preserve" fill="#3572A5">   </tspan> Python
          
        </text>
      
        <text text-anchor="middle" y="430" x="320" id="legend">
          
          <tspan xml:space="preserve" fill="#701516">   </tspan> Ruby
          
          <tspan xml:space="preserve" fill="#dea584">   </tspan> Rust
          
          <tspan xml:space="preserve" fill="#26c0b0">   </tspan> SCSS
          
          <tspan xml:space="preserve" fill="#0141ae">   </tspan> SQL
          
          <tspan xml:space="preserve" fill="#89e051">   </tspan> Shell
          
          <tspan xml:space="preserve" fill="#2770da">   </tspan> TSQL
          
          <tspan xml:space="preserve" fill="#2b7489">   </tspan> TypeScript
          
          <tspan xml:space="preserve" fill="#2c3e50">   </tspan> Vue
          
        </text>
      
        <text text-anchor="middle" y="460" x="320" id="legend">
          
          <tspan xml:space="preserve" fill="#4B6C4B">   </tspan> Yacc
          
        </text>
      

    </svg>