<svg
      xmlns="http://www.w3.org/2000/svg"
      viewBox="0 0 640 490"
      style="background-color: #292b3e"
    >
      <style>
        text {
          font-size: 12px;
          font-family: Open Sans, Helvetica Neue, Helvetica, Arial, sans-serif;
        }
        #labels text {
          dominant-baseline: hanging;
          font-size: 10px;
          fill: rgba(0,0,0,0.5);
        }
        #legend {
          font-weight: 600;
        }
        #legend tspan {
          font-size: 15px;
        }
        #branding-text {
          font-size: 9px;
          dominant-baseline: hanging;
          opacity: 0.5;
        }
        #branding-logo {
          opacity: 0.5;
        }
      </style>

      
      
      <polygon
        fill="#4B6C4B"
        fillRule="evenodd"
        points="0 313.6135540604004 6.4 304.269121785753 12.8 297.2680552740988 19.2 285.9388340923446 25.6 278.828031487791 32 274.9842261435283 38.4 267.09077349797934 44.800000000000004 257.0788458667167 51.2 246.22218802805298 57.599999999999994 230.9923442197608 64 221.54630805967582 70.4 206.62816175517878 76.8 198.27736291650208 83.2 192.17044822103142 89.60000000000001 182.12955791227242 96 170.61728956883235 102.4 156.95198794599875 108.80000000000001 154.8042722344993 115.19999999999999 149.88804528479443 121.6 142.52578314681915 128 138.28630163322228 134.4 123.78703091917501 140.8 127.17501970010488 147.20000000000002 110.77268945458707 153.6 93.05736835733086 160 88.01900794447832 166.4 78.10650905931084 172.8 68.78383599028876 179.20000000000002 65.97395131252256 185.6 62.13361574386056 192 59.189437562086255 198.4 46.68401646577445 204.8 33.29414249494607 211.20000000000002 31.646565047838294 217.60000000000002 27.414787907841287 224 27.529119605350616 230.39999999999998 25.25150029816035 236.8 13.93634263915851 243.2 9.643290496341251 249.60000000000002 9.884017654008858 256 12.938067880298945 262.4 8.2470690337434 268.8 10.710374231516994 275.2 10.159256035586111 281.6 11.45583954806375 288 14.195798966844052 294.40000000000003 17.6932595554415 300.79999999999995 18.068137710978988 307.2 12.038884822690193 313.6 13.322822366768662 320 11.292908634636206 326.4 7.029827392485231 332.8 1.9720209500006831 339.20000000000005 4.695793322699274 345.6 0.0667374529823519 352 0 358.40000000000003 3.1343990216945485 364.79999999999995 11.121921234453737 371.2 13.500002691309021 377.59999999999997 18.048147629305845 384 21.314948715599712 390.4 21.56874332753705 396.8 27.066763766606755 403.2 30.681163539485567 409.6 36.74809251429173 416 42.80387774593322 422.40000000000003 46.96053175023201 428.8 38.5148602633285 435.20000000000005 42.631202157147015 441.59999999999997 50.6156414449884 448 58.069192670259326 454.4 55.54212269682688 460.79999999999995 58.40795618671126 467.2 64.8494755761082 473.6 68.9652832654927 480 76.40584998823883 486.4 74.319596934836 492.8 74.99082947963032 499.20000000000005 75.05216113873587 505.6 74.49046084613889 512 78.43695716360565 518.4000000000001 85.3362784600867 524.8 88.5652072727137 531.1999999999999 82.0256196543894 537.6 83.08769397442069 544 90.29413799957496 550.4 88.15338679948067 556.8 86.74212079320267 563.2 87.76629253217283 569.6 85.90012608344654 576 86.43106714671018 582.4 86.68151751688777 588.8000000000001 89.27145218892832 595.2 85.21669418658627 601.5999999999999 69.7213965019709 608 69.3693096492454 614.4 67.0083819297696 620.8 64.10073845672659 627.2 60.6557278435256 633.6 56.62931959442619 640 58.62111873707386 640 320 0 320"
      />
      
      <polygon
        fill="#2c3e50"
        fillRule="evenodd"
        points="0 313.6135540604004 6.4 304.269121785753 12.8 297.2680552740988 19.2 285.9388340923446 25.6 278.828031487791 32 274.9842261435283 38.4 267.09077349797934 44.800000000000004 257.0788458667167 51.2 246.22218802805298 57.599999999999994 230.9923442197608 64 221.54630805967582 70.4 206.62816175517878 76.8 198.27736291650208 83.2 192.17044822103142 89.60000000000001 182.12955791227242 96 170.61728956883235 102.4 156.95198794599875 108.80000000000001 154.8042722344993 115.19999999999999 149.88804528479443 121.6 142.52578314681915 128 138.28630163322228 134.4 123.78703091917501 140.8 127.17501970010488 147.20000000000002 110.77268945458707 153.6 93.05736835733086 160 88.01900794447832 166.4 78.10650905931084 172.8 68.78383599028876 179.20000000000002 65.97395131252256 185.6 62.13361574386056 192 59.189437562086255 198.4 46.68401646577445 204.8 33.29414249494607 211.20000000000002 31.646565047838294 217.60000000000002 27.414787907841287 224 27.529119605350616 230.39999999999998 25.25150029816035 236.8 13.93634263915851 243.2 9.643290496341251 249.60000000000002 9.884017654008858 256 12.938067880298945 262.4 8.2470690337434 268.8 10.710374231516994 275.2 10.159256035586111 281.6 11.45583954806375 288 14.195798966844052 294.40000000000003 17.6932595554415 300.79999999999995 18.068137710978988 307.2 12.038884822690193 313.6 13.322822366768662 320 11.292908634636206 326.4 7.029827392485231 332.8 1.9720209500006831 339.20000000000005 4.695793322699274 345.6 0.0667374529823519 352 0 358.40000000000003 3.1343990216945485 364.79999999999995 11.121921234453737 371.2 13.500002691309021 377.59999999999997 18.048147629305845 384 21.314948715599712 390.4 21.56874332753705 396.8 27.066763766606755 403.2 30.681163539485567 409.6 36.74809251429173 416 42.80387774593322 422.40000000000003 46.96053175023201 428.8 38.5148602633285 435.20000000000005 42.631202157147015 441.59999999999997 50.6156414449884 448 58.069192670259326 454.4 56.642709141133196 460.79999999999995 59.47494790581027 467.2 65.88389792781439 473.6 69.96913384287893 480 77.37905861198985 486.4 75.26404282822779 492.8 75.90644677891311 499.20000000000005 75.9398297055157 505.6 75.35361936411391 512 79.27376833213617 518.4000000000001 86.14835812965083 524.8 89.35249866279958 531.1999999999999 82.78964305652448 537.6 83.8283960297201 544 91.01223056056932 550.4 88.85025650874383 556.8 87.41771894649531 563.2 88.42192372494827 569.6 86.53574451933463 576 87.04728370428384 582.4 87.28071929983253 588.8000000000001 89.8523637215828 595.2 85.78043716662751 601.5999999999999 70.26793158582666 608 69.89969213653484 614.4 67.52257480938087 620.8 64.59923590201112 627.2 61.13949246192038 633.6 57.09831758066821 640 59.08544025322851 640 320 0 320"
      />
      
      <polygon
        fill="#2b7489"
        fillRule="evenodd"
        points="0 313.6135540604004 6.4 304.269121785753 12.8 297.2680552740988 19.2 285.9388340923446 25.6 278.828031487791 32 274.9842261435283 38.4 267.09077349797934 44.800000000000004 257.0788458667167 51.2 246.22218802805298 57.599999999999994 230.9923442197608 64 221.54630805967582 70.4 206.62816175517878 76.8 198.27736291650208 83.2 192.17044822103142 89.60000000000001 182.12955791227242 96 170.61728956883235 102.4 156.95198794599875 108.80000000000001 154.8042722344993 115.19999999999999 149.88804528479443 121.6 142.52578314681915 128 138.28630163322228 134.4 123.78703091917501 140.8 127.17501970010488 147.20000000000002 110.77268945458707 153.6 93.05736835733086 160 88.01900794447832 166.4 78.10650905931084 172.8 68.78383599028876 179.20000000000002 65.97395131252256 185.6 62.13361574386056 192 59.189437562086255 198.4 46.68401646577445 204.8 33.29414249494607 211.20000000000002 31.646565047838294 217.60000000000002 27.414787907841287 224 27.529119605350616 230.39999999999998 25.25150029816035 236.8 13.93634263915851 243.2 9.643290496341251 249.60000000000002 9.884017654008858 256 12.938067880298945 262.4 8.2470690337434 268.8 10.710374231516994 275.2 10.159256035586111 281.6 11.45583954806375 288 14.195798966844052 294.40000000000003 17.6932595554415 300.79999999999995 18.068137710978988 307.2 12.038884822690193 313.6 13.322822366768662 320 11.292908634636206 326.4 7.029827392485231 332.8 1.9720209500006831 339.20000000000005 4.695793322699274 345.6 0.0667374529823519 352 0 358.40000000000003 3.1343990216945485 364.79999999999995 11.121921234453737 371.2 13.500002691309021 377.59999999999997 18.048147629305845 384 21.314948715599712 390.4 21.56874332753705 396.8 27.066763766606755 403.2 30.681163539485567 409.6 36.74809251429173 416 42.80387774593322 422.40000000000003 46.96053175023201 428.8 38.5148602633285 435.20000000000005 42.631202157147015 441.59999999999997 50.6156414449884 448 58.069192670259326 454.4 56.642709141133196 460.79999999999995 59.47494790581027 467.2 65.88389792781439 473.6 69.96913384287893 480 77.37905861198985 486.4 75.26404282822779 492.8 75.90644677891311 499.20000000000005 75.9398297055157 505.6 75.35361936411391 512 79.27376833213617 518.4000000000001 86.14835812965083 524.8 89.35249866279958 531.1999999999999 84.99974700795778 537.6 87.49766450306225 544 94.56949675125202 550.4 94.67111901010708 556.8 95.57920094422681 563.2 99.33792884647505 569.6 99.23032057150917 576 100.29078016639761 582.4 100.92516878828724 588.8000000000001 103.11116091845693 595.2 98.6473789602598 601.5999999999999 83.41172666825486 608 83.12842114448333 614.4 80.37000408181925 620.8 77.05450418806896 627.2 73.22664814764468 633.6 68.81652416561107 640 70.68680444329055 640 320 0 320"
      />
      
      <polygon
        fill="#2770da"
        fillRule="evenodd"
        points="0 313.6135540604004 6.4 304.269121785753 12.8 297.2680552740988 19.2 285.9388340923446 25.6 278.828031487791 32 274.9842261435283 38.4 267.09077349797934 44.800000000000004 257.0788458667167 51.2 246.22218802805298 57.599999999999994 230.9923442197608 64 221.54630805967582 70.4 206.62816175517878 76.8 198.27736291650208 83.2 192.17044822103142 89.60000000000001 182.12955791227242 96 170.61728956883235 102.4 156.95198794599875 108.80000000000001 154.8042722344993 115.19999999999999 149.88804528479443 121.6 142.52578314681915 128 138.28630163322228 134.4 123.78703091917501 140.8 127.17501970010488 147.20000000000002 110.77268945458707 153.6 93.05736835733086 160 88.01900794447832 166.4 78.10650905931084 172.8 68.78383599028876 179.20000000000002 65.97395131252256 185.6 62.13361574386056 192 59.189437562086255 198.4 46.68401646577445 204.8 33.29414249494607 211.20000000000002 31.646565047838294 217.60000000000002 27.414787907841287 224 27.529119605350616 230.39999999999998 25.25150029816035 236.8 14.574551339115999 243.2 11.080300137945983 249.60000000000002 11.277163374023019 256 14.290039920059542 262.4 9.557772861815522 268.8 11.981069479271468 275.2 11.394865427498303 281.6 12.653732644204467 288 15.35828901307758 294.40000000000003 18.8202652752841 300.79999999999995 19.161835382465938 307.2 13.09919799866094 313.6 14.35077013719274 320 12.290475851393012 326.4 7.9969444927688755 332.8 2.9105553406577087 339.20000000000005 5.605679550986224 345.6 0.9488499346725803 352 0.857755840964046 358.40000000000003 3.965972326715928 364.79999999999995 11.928917907659581 371.2 14.282366219341498 377.59999999999997 18.807388871099306 384 22.0510144972219 390.4 22.282341165402954 396.8 27.759271631058482 403.2 31.352532983162746 409.6 37.39961997417379 416 43.4355177339047 422.40000000000003 47.57289128140724 428.8 40.230400818444934 435.20000000000005 44.29437681836566 441.59999999999997 52.22966202056347 448 59.63394613347509 454.4 58.16121700435525 460.79999999999995 60.94710423218055 467.2 67.31111750355893 473.6 71.35417277308454 480 78.72182000193575 486.4 76.56711971627541 492.8 77.16974792167741 499.20000000000005 77.16456921542652 505.6 76.54454189719365 512 80.4283385963999 518.4000000000001 87.26880573119328 524.8 90.43874530493218 531.1999999999999 86.0538901582695 537.6 88.51963059143625 544 95.56026777434477 550.4 95.63260840746392 556.8 96.51134141357616 563.2 100.24252038964036 569.6 100.1072999962812 576 101.14099029244511 582.4 101.75190331685755 588.8000000000001 103.912659797533 595.2 99.42518991603563 601.5999999999999 84.17689256498272 608 84.13465524980074 614.4 81.54086540037605 620.8 78.21165331097899 627.2 74.34959836617605 633.6 69.92186379431922 640 71.78112263144669 640 320 0 320"
      />
      
      <polygon
        fill="#509e5b"
        fillRule="evenodd"
        points="0 313.6135540604004 6.4 304.909851125323 12.8 298.3344851476691 19.2 288.0768325477392 25.6 281.271374698223 32 277.3529879563381 38.4 269.99996854464575 44.800000000000004 260.07176175398916 51.2 250.1732344669461 57.599999999999994 235.1816142930638 64 226.7875243521918 70.4 213.32793849318386 76.8 205.81372641363123 83.2 200.42213571030396 89.60000000000001 190.45090479395265 96 178.68462997102404 102.4 164.78090157394695 108.80000000000001 162.39421347742183 115.19999999999999 158.35650568461162 121.6 150.82958057585418 128 146.4704063391094 134.4 132.58708282969712 140.8 135.7064560171267 147.20000000000002 119.05198474668737 153.6 102.43453015719967 160 97.17070754540185 166.4 87.08419951033017 172.8 77.51854571793706 179.20000000000002 74.59647277718827 185.6 71.29286717341847 192 68.12776800063293 198.4 55.43687622893458 204.8 42.60300173675358 211.20000000000002 40.81645188033826 217.60000000000002 36.30476705868068 224 36.65749521872334 230.39999999999998 34.266099623194805 236.8 23.330824509090576 243.2 19.768724397995413 249.60000000000002 20.33199866857683 256 23.771850073457472 262.4 19.35802962163291 268.8 21.657391417797214 275.2 22.19789469533714 281.6 24.03364564520706 288 26.401873553719838 294.40000000000003 29.52674969135245 300.79999999999995 29.794970597616384 307.2 23.469585145378346 313.6 24.70126047188279 320 22.404419765382784 326.4 17.802169290499478 332.8 12.431639195218168 339.20000000000005 14.83613986647265 345.6 10.20241136957668 352 9.855811034613794 358.40000000000003 12.717518513936454 364.79999999999995 20.455696496478538 371.2 22.802484452058366 377.59999999999997 27.11153565543748 384 30.808973203782443 390.4 30.77297113899732 396.8 35.99896852706763 403.2 39.34071255621791 409.6 45.23256762835729 416 51.029367646159585 422.40000000000003 55.06973344611504 428.8 47.5377886297951 435.20000000000005 51.378711543840154 441.59999999999997 59.10462194779433 448 66.29905244019398 454.4 64.91776089656796 460.79999999999995 67.49740930375276 467.2 73.66147975356196 473.6 78.63284203724623 480 85.7783158363246 486.4 83.41506060711578 492.8 83.84710426934805 499.20000000000005 83.63810140411047 505.6 82.83932921933678 512 87.04916822851277 518.4000000000001 93.69396145803776 524.8 96.66777522514855 531.1999999999999 92.09882606849663 537.6 94.38004853873872 544 101.24179987996638 550.4 101.14622576369243 556.8 101.85665736629227 563.2 105.4298584908023 569.6 105.13629732738008 576 106.01648018409924 582.4 106.49277499929957 588.8000000000001 108.50881823827353 595.2 104.55192144820893 601.5999999999999 89.14713244416191 608 88.95800221844172 614.4 86.21698407738785 620.8 82.74503599455326 627.2 78.74899887269297 633.6 74.18697623238546 640 76.00370671269587 640 320 0 320"
      />
      
      <polygon
        fill="#89e051"
        fillRule="evenodd"
        points="0 313.6135540604004 6.4 304.909851125323 12.8 298.3344851476691 19.2 288.0768325477392 25.6 281.271374698223 32 277.3529879563381 38.4 269.99996854464575 44.800000000000004 260.07176175398916 51.2 250.1732344669461 57.599999999999994 235.1816142930638 64 226.7875243521918 70.4 213.32793849318386 76.8 205.81372641363123 83.2 200.42213571030396 89.60000000000001 190.45090479395265 96 178.68462997102404 102.4 164.78090157394695 108.80000000000001 162.39421347742183 115.19999999999999 158.35650568461162 121.6 150.82958057585418 128 146.4704063391094 134.4 132.58708282969712 140.8 135.7064560171267 147.20000000000002 119.05198474668737 153.6 102.43453015719967 160 97.17070754540185 166.4 87.08419951033017 172.8 77.51854571793706 179.20000000000002 74.59647277718827 185.6 71.29286717341847 192 68.12776800063293 198.4 55.43687622893458 204.8 42.60300173675358 211.20000000000002 40.81645188033826 217.60000000000002 36.30476705868068 224 36.65749521872334 230.39999999999998 34.266099623194805 236.8 23.330824509090576 243.2 19.768724397995413 249.60000000000002 20.33199866857683 256 23.771850073457472 262.4 19.35802962163291 268.8 21.657391417797214 275.2 22.19789469533714 281.6 24.03364564520706 288 26.401873553719838 294.40000000000003 29.52674969135245 300.79999999999995 29.794970597616384 307.2 23.469585145378346 313.6 24.70126047188279 320 22.404419765382784 326.4 17.802169290499478 332.8 12.431639195218168 339.20000000000005 14.83613986647265 345.6 10.20241136957668 352 9.855811034613794 358.40000000000003 12.717518513936454 364.79999999999995 20.455696496478538 371.2 22.802484452058366 377.59999999999997 27.11153565543748 384 30.808973203782443 390.4 30.77297113899732 396.8 35.99896852706763 403.2 39.34071255621791 409.6 45.23256762835729 416 51.029367646159585 422.40000000000003 55.06973344611504 428.8 47.5377886297951 435.20000000000005 51.378711543840154 441.59999999999997 59.10462194779433 448 66.29905244019398 454.4 64.91776089656796 460.79999999999995 67.49740930375276 467.2 73.66147975356196 473.6 78.63284203724623 480 85.7783158363246 486.4 83.41506060711578 492.8 83.84710426934805 499.20000000000005 83.63810140411047 505.6 82.83932921933678 512 87.04916822851277 518.4000000000001 93.69396145803776 524.8 96.66777522514855 531.1999999999999 92.09882606849663 537.6 94.38004853873872 544 101.24179987996638 550.4 101.14622576369243 556.8 101.85665736629227 563.2 105.4298584908023 569.6 105.13629732738008 576 106.01648018409924 582.4 106.49277499929957 588.8000000000001 108.50881823827353 595.2 104.55192144820893 601.5999999999999 89.14713244416191 608 88.95800221844172 614.4 86.21698407738785 620.8 82.74503599455326 627.2 78.74899887269297 633.6 75.29828798724861 640 77.10393753385392 640 320 0 320"
      />
      
      <polygon
        fill="#0141ae"
        fillRule="evenodd"
        points="0 313.69579214770624 6.4 304.98957894784127 12.8 298.4118566508692 19.2 288.1546049104617 25.6 281.3468485414347 32 277.42615799963636 38.4 270.07090511839067 44.800000000000004 260.1686924337564 51.2 250.62558947480295 57.599999999999994 236.5914598130757 64 228.1653617338302 70.4 215.56297418582318 76.8 209.34793690108563 83.2 203.8484666159302 89.60000000000001 193.80958068184697 96 182.16688813960855 102.4 169.20020988690817 108.80000000000001 166.68972835523758 115.19999999999999 162.5209027906008 121.6 154.8749450347152 128 151.5033618657924 134.4 138.33062632363212 140.8 141.27468089528023 147.20000000000002 124.45564406253737 153.6 107.98215879345872 160 102.61902988172244 166.4 92.5252874175844 172.8 83.01590079030922 179.20000000000002 79.93135739155997 185.6 76.46490834162779 192 73.61576271416777 198.4 61.011384673220675 204.8 50.211185491591664 211.20000000000002 49.306884159931656 217.60000000000002 44.5360352442446 224 46.72665024158181 230.39999999999998 45.53619175715113 236.8 38.06194983294296 243.2 34.37998283480613 249.60000000000002 35.18798871533642 256 40.45930960884834 262.4 36.76708972819358 268.8 38.535054365416045 275.2 38.690272174443635 281.6 40.0226062426035 288 41.96036573924107 294.40000000000003 45.10764479944305 300.79999999999995 44.9181619654081 307.2 38.142315730316966 313.6 38.92612269582037 320 36.36881397799783 326.4 33.700090978453886 332.8 28.41747922774539 339.20000000000005 30.373022371465765 345.6 26.293980702041495 352 25.536675190203084 358.40000000000003 28.084052290589398 364.79999999999995 35.368082764315034 371.2 37.58890861032961 377.59999999999997 41.46095948518109 384 45.374651048694034 390.4 45.0220827310327 396.8 49.8269631266794 403.2 53.20089408191717 409.6 58.85810569224253 416 64.6255783598649 422.40000000000003 68.63088841018504 428.8 63.218437007108946 435.20000000000005 66.93876349803821 441.59999999999997 74.2048103239078 448 80.93831478709518 454.4 80.26629054492386 460.79999999999995 82.7433446022587 467.2 88.44204296286588 473.6 93.40771075510958 480 100.10218535316181 486.4 98.34495471321577 492.8 99.94046250646787 499.20000000000005 99.86338442380702 505.6 98.67437517285725 512 102.40085440478384 518.4000000000001 108.59193373707444 524.8 111.11099067861954 531.1999999999999 106.11518379990159 537.6 107.96856624316655 544 114.41553111556598 550.4 113.93062168080422 556.8 114.39451365701007 563.2 117.597163886674 569.6 116.93220721058458 576 117.4523280516755 582.4 117.64309786019601 588.8000000000001 119.31878683269917 595.2 115.05069564130139 601.5999999999999 99.80082578037823 608 99.38384797825347 614.4 97.92051465705356 620.8 95.72582137879547 627.2 92.85905061384355 633.6 90.3068856780443 640 91.96288271547155 640 320 0 320"
      />
      
      <polygon
        fill="#26c0b0"
        fillRule="evenodd"
        points="0 313.69579214770624 6.4 305.07508002498076 12.8 298.5224296696079 19.2 288.3920449409267 25.6 281.72969752386194 32 277.8556863991424 38.4 270.54543353265785 44.800000000000004 260.8000982714736 51.2 251.72758752003688 57.599999999999994 237.79094381161576 64 230.20551779075788 70.4 218.21686489805006 76.8 212.42857189765658 83.2 207.47614434043786 89.60000000000001 198.30985157254463 96 186.52979026459153 102.4 173.8065154551789 108.80000000000001 171.1554293056744 115.19999999999999 166.87839196341687 121.6 159.35264942236046 128 156.0490051737291 134.4 143.12375539432495 140.8 145.9243261466837 147.20000000000002 128.96787194673846 153.6 112.62433791102865 160 107.34731860815918 166.4 97.39201999930532 172.8 88.07452427312373 179.20000000000002 84.90364449281532 185.6 81.47900834058987 192 78.54045385443143 198.4 65.8390879997398 204.8 55.25797271398551 211.20000000000002 54.274693450965344 217.60000000000002 49.446001058482466 224 52.03161421826758 230.39999999999998 50.75719342706549 236.8 43.287766029940315 243.2 39.62440292095465 249.60000000000002 40.272325159465595 256 46.015564238547256 262.4 42.2262613962036 268.8 45.29504351742668 275.2 46.22647024156163 281.6 47.34252152411676 288 49.12246736619272 294.40000000000003 52.19654580423219 300.79999999999995 51.84819364611087 307.2 44.89923877578508 313.6 45.54057351110481 320 42.90219997774386 326.4 40.530136143892776 332.8 35.1118841142075 339.20000000000005 37.18689444140216 345.6 32.91361430599903 352 31.97352784635325 358.40000000000003 34.33005861800228 364.79999999999995 41.45143573595112 371.2 43.65084168356839 377.59999999999997 47.722510068550946 384 51.450643309596785 390.4 51.04944884380592 396.8 55.67619327865464 403.2 59.07789921350786 409.6 64.64978808641092 416 70.24047330470535 422.40000000000003 74.11936780282716 428.8 68.67692455523434 435.20000000000005 72.31801007081049 441.59999999999997 79.43597299281294 448 86.08189726681061 454.4 85.88889391177577 460.79999999999995 88.95225720560057 467.2 94.47259159969875 473.6 100.00826955951766 480 106.58876678442914 486.4 104.63982968243931 492.8 106.09866248850804 499.20000000000005 105.83360967494991 505.6 104.49634595254383 512 108.04510855278778 518.4000000000001 114.08047344488213 524.8 116.43199509854423 531.1999999999999 111.27893096496058 537.6 112.97469364585709 544 119.26884793988992 550.4 118.64049958827053 556.8 118.96062445913688 563.2 122.02832901036783 569.6 121.4712842828479 576 121.852851016231 582.4 121.92211484482894 588.8000000000001 123.47001509328942 595.2 119.66080918237594 601.5999999999999 104.27021962187197 608 103.72115109340149 614.4 102.12542495627031 620.8 99.8023785396519 627.2 96.81512746084672 633.6 94.14220457647968 640 95.75996015491359 640 320 0 320"
      />
      
      <polygon
        fill="#dea584"
        fillRule="evenodd"
        points="0 313.69579214770624 6.4 305.07508002498076 12.8 298.5224296696079 19.2 288.3920449409267 25.6 281.72969752386194 32 277.8556863991424 38.4 270.54543353265785 44.800000000000004 260.8000982714736 51.2 251.72758752003688 57.599999999999994 237.79094381161576 64 230.20551779075788 70.4 218.60525919720345 76.8 212.80511069102215 83.2 207.84118951900894 89.60000000000001 198.6641080222962 96 187.99623144645776 102.4 176.33196753974778 108.80000000000001 173.6037934710729 115.19999999999999 169.25202122036293 121.6 162.7599897847162 128 159.35233896879788 134.4 148.55745042960774 140.8 151.19216074450722 147.20000000000002 136.32726334998688 153.6 123.07442995639138 160 117.47842717020293 166.4 107.22371154379286 172.8 98.72228874159168 179.20000000000002 95.23671843813008 185.6 91.49667198807543 192 88.25233502523514 198.4 76.38163127473314 204.8 66.5828190990942 211.20000000000002 65.2648394741777 217.60000000000002 60.10067813813174 224 62.37139784043313 230.39999999999998 60.78136227579796 236.8 53.00594998141821 243.2 49.05537057507945 249.60000000000002 49.41541993377058 256 54.88844039226842 262.4 51.93125615747374 268.8 54.70379936688323 275.2 55.37543418495875 281.6 56.212219572095364 288 57.730025121214 294.40000000000003 60.54136514946708 300.79999999999995 61.06441362293344 307.2 54.089957870512194 313.6 54.45074899476816 320 51.54904170908361 326.4 48.9130368611909 332.8 43.24703335321607 339.20000000000005 45.0737239859958 345.6 41.668968877029556 352 40.48713163018283 358.40000000000003 42.58379137707141 364.79999999999995 49.46123218214365 371.2 51.47801675512585 377.59999999999997 55.31835592985368 384 58.814628735081044 390.4 58.18865392969519 396.8 62.6044031742033 403.2 65.7946299588695 409.6 71.16800744218204 416 76.55972916402311 422.40000000000003 80.24573278287204 428.8 74.62817673087187 435.20000000000005 78.08760262641212 441.59999999999997 85.0350483075164 448 91.51006385717335 454.4 91.15663346440647 460.79999999999995 94.05920228092162 467.2 99.42365084522194 473.6 104.8130023638515 480 111.2468377664826 486.4 109.16023453576423 492.8 110.48108412179101 499.20000000000005 110.08225987462455 505.6 108.62768407995813 512 112.05034041019849 518.4000000000001 117.96733232017823 524.8 120.20020972760793 531.1999999999999 116.05414447920086 537.6 117.60414667449902 544 123.75698880345763 550.4 123.35417211083791 556.8 123.53041520562414 563.2 126.46306043519698 569.6 125.77064946711008 576 126.02098088088229 582.4 126.00011361006847 588.8000000000001 127.42353486497694 595.2 123.4974854289155 601.5999999999999 107.98978292867389 608 107.33078492475852 614.4 105.62487633784235 620.8 103.19501166025631 627.2 100.1074929379198 633.6 97.33407224652768 640 98.92000114584263 640 320 0 320"
      />
      
      <polygon
        fill="#701516"
        fillRule="evenodd"
        points="0 313.69579214770624 6.4 305.07508002498076 12.8 298.5224296696079 19.2 288.3920449409267 25.6 281.72969752386194 32 277.8556863991424 38.4 270.54543353265785 44.800000000000004 260.8000982714736 51.2 251.72758752003688 57.599999999999994 237.79094381161576 64 230.20551779075788 70.4 218.60525919720345 76.8 212.80511069102215 83.2 207.84118951900894 89.60000000000001 198.6641080222962 96 187.99623144645776 102.4 176.33196753974778 108.80000000000001 173.6037934710729 115.19999999999999 169.25202122036293 121.6 162.7599897847162 128 159.35233896879788 134.4 148.55745042960774 140.8 151.19216074450722 147.20000000000002 136.32726334998688 153.6 123.07442995639138 160 117.47842717020293 166.4 107.22371154379286 172.8 98.72228874159168 179.20000000000002 95.23671843813008 185.6 91.49667198807543 192 88.25233502523514 198.4 76.38163127473314 204.8 66.5828190990942 211.20000000000002 65.2648394741777 217.60000000000002 60.10067813813174 224 62.37139784043313 230.39999999999998 60.78136227579796 236.8 53.00594998141821 243.2 49.05537057507945 249.60000000000002 49.41541993377058 256 54.88844039226842 262.4 51.93125615747374 268.8 54.70379936688323 275.2 55.37543418495875 281.6 56.212219572095364 288 57.730025121214 294.40000000000003 60.54136514946708 300.79999999999995 61.06441362293344 307.2 54.089957870512194 313.6 54.45074899476816 320 51.54904170908361 326.4 48.9130368611909 332.8 43.24703335321607 339.20000000000005 45.0737239859958 345.6 41.668968877029556 352 40.48713163018283 358.40000000000003 42.58379137707141 364.79999999999995 49.46123218214365 371.2 51.47801675512585 377.59999999999997 55.31835592985368 384 58.814628735081044 390.4 58.18865392969519 396.8 62.6044031742033 403.2 65.7946299588695 409.6 71.16800744218204 416 76.55972916402311 422.40000000000003 80.24573278287204 428.8 74.62817673087187 435.20000000000005 78.08760262641212 441.59999999999997 85.0350483075164 448 91.51006385717335 454.4 91.15663346440647 460.79999999999995 94.05920228092162 467.2 99.42365084522194 473.6 104.8130023638515 480 111.2468377664826 486.4 109.16023453576423 492.8 110.48108412179101 499.20000000000005 110.08225987462455 505.6 108.62768407995813 512 112.05034041019849 518.4000000000001 117.96733232017823 524.8 120.20020972760793 531.1999999999999 116.05414447920086 537.6 117.60414667449902 544 123.75698880345763 550.4 123.35417211083791 556.8 123.53041520562414 563.2 126.46306043519698 569.6 125.77064946711008 576 126.02098088088229 582.4 126.00011361006847 588.8000000000001 127.42353486497694 595.2 123.4974854289155 601.5999999999999 108.0093391521612 608 107.34976317380489 614.4 105.64327528798017 620.8 103.2128489919464 627.2 100.12480309656758 633.6 97.35085402171975 640 98.93661558909216 640 320 0 320"
      />
      
      <polygon
        fill="#3572A5"
        fillRule="evenodd"
        points="0 313.69579214770624 6.4 305.07508002498076 12.8 298.5224296696079 19.2 288.3920449409267 25.6 281.72969752386194 32 277.8556863991424 38.4 270.54543353265785 44.800000000000004 260.8000982714736 51.2 251.72758752003688 57.599999999999994 237.79094381161576 64 230.20551779075788 70.4 218.60525919720345 76.8 212.80511069102215 83.2 207.84118951900894 89.60000000000001 198.6641080222962 96 187.99623144645776 102.4 176.33196753974778 108.80000000000001 173.6037934710729 115.19999999999999 169.25202122036293 121.6 163.42161735301474 128 159.99377071803022 134.4 149.21634415908244 140.8 151.8309421200077 147.20000000000002 137.94840799945308 153.6 125.43999804522147 160 119.77178762794384 166.4 109.44929265441459 172.8 100.87993565849374 179.20000000000002 97.33059722330194 185.6 93.52663611779289 192 90.22033605987224 198.4 78.29529245525839 204.8 68.47393771768043 211.20000000000002 67.10006689560313 217.60000000000002 61.87988653945604 224 64.09802261730454 230.39999999999998 62.4552826951338 236.8 54.62877502989238 243.2 50.630233764257696 249.60000000000002 50.9422112167324 256 56.370108533275186 262.4 53.4035306481378 268.8 56.13113340786538 275.2 56.76335724869455 281.6 57.55777703748481 288 59.03581547245108 294.40000000000003 61.80729683491211 300.79999999999995 62.29293141044735 307.2 55.28097585979094 313.6 55.605411838187194 320 52.66957911548923 326.4 49.99937063664618 332.8 44.30126096530984 339.20000000000005 46.095772070114435 345.6 42.65981932707797 352 41.450623244432734 358.40000000000003 43.51787282338415 364.79999999999995 50.367707469653624 371.2 52.37915399635591 377.59999999999997 56.19286037780631 384 59.66243945808128 390.4 59.01058570651122 396.8 63.40204324927896 403.2 66.56792251755749 409.6 71.91844569069877 416 77.28726076072408 422.40000000000003 80.95105689047031 428.8 75.31334005768576 435.20000000000005 78.75185183910634 441.59999999999997 85.67966597160995 448 92.13500490583203 454.4 91.76310476607526 460.79999999999995 94.64716139920625 467.2 99.99366283149976 473.6 105.36616799558192 480 111.78311832687797 486.4 109.6806656064193 492.8 110.9856293183785 499.20000000000005 110.5714040509294 505.6 109.10332218024502 512 112.5114599514232 518.4000000000001 118.41482374735745 524.8 120.63404177344205 531.1999999999999 116.47515481550545 537.6 118.01230591432798 544 124.15268923171573 550.4 123.7381778086737 556.8 123.9026993548805 563.2 126.8243418755107 569.6 126.12090304489931 576 126.36054316915613 582.4 126.33030004456973 588.8000000000001 127.74364255311104 595.2 123.80813247268998 601.5999999999999 108.32992011397948 608 107.66086955815206 614.4 105.94488531152552 620.8 103.50525255794065 627.2 100.40856481455631 633.6 97.62595408120217 640 99.2089726134862 640 320 0 320"
      />
      
      <polygon
        fill="#0298c3"
        fillRule="evenodd"
        points="0 313.69579214770624 6.4 305.07508002498076 12.8 298.5224296696079 19.2 288.3920449409267 25.6 281.72969752386194 32 277.8556863991424 38.4 270.54543353265785 44.800000000000004 260.8000982714736 51.2 251.72758752003688 57.599999999999994 237.79094381161576 64 230.20551779075788 70.4 218.60525919720345 76.8 212.80511069102215 83.2 207.84118951900894 89.60000000000001 198.6641080222962 96 187.99623144645776 102.4 176.33196753974778 108.80000000000001 173.6037934710729 115.19999999999999 169.25202122036293 121.6 163.42161735301474 128 159.99377071803022 134.4 149.21634415908244 140.8 151.8309421200077 147.20000000000002 137.94840799945308 153.6 126.0781091003717 160 120.39042070697457 166.4 110.04964237778469 172.8 101.4619600521911 179.20000000000002 97.89542021471237 185.6 94.07421818866658 192 90.75120353452365 198.4 78.81150180340404 204.8 68.97439001138895 211.20000000000002 67.69020276458014 217.60000000000002 62.45200886809317 224 64.65323614927146 230.39999999999998 62.99354866226702 236.8 55.15061074519451 243.2 51.1366469533757 249.60000000000002 51.43316638927763 256 56.8465538087147 262.4 53.86543271441599 268.8 56.57893615172026 275.2 57.19879542470926 281.6 57.97992373411398 288 59.44548581781822 294.40000000000003 62.20446223325803 300.79999999999995 62.67835879941396 307.2 55.654638308194535 313.6 55.96766847300404 320 53.02112943851262 326.4 50.34019007997824 332.8 44.63200765269062 339.20000000000005 46.41642292354362 345.6 42.97068248820807 352 41.75290296154384 358.40000000000003 43.81092563538368 364.79999999999995 50.65209924993144 371.2 52.65486489331073 377.59999999999997 56.46042276781935 384 59.921834681469306 390.4 59.26206301800778 396.8 63.64608829385605 403.2 66.804518228181 409.6 72.14804894190397 416 77.50985551299249 422.40000000000003 81.16685705199896 428.8 75.52297189923124 435.20000000000005 78.95508478616861 441.59999999999997 85.87689248377137 448 92.32621118355823 454.4 91.94866004709607 460.79999999999995 94.82705270599973 467.2 100.1680630743906 473.6 105.53541392225691 480 111.94719811063251 486.4 109.83989610223816 492.8 111.13999940854296 499.20000000000005 110.72106206759105 505.6 109.24884789907966 512 112.65254357647825 518.4000000000001 118.55173772439355 524.8 120.76677653628903 531.1999999999999 116.60396666765388 537.6 118.1371858547412 544 124.27375729476591 550.4 123.85566775415913 556.8 124.01660300377705 563.2 126.93487915725686 569.6 126.22806623257785 576 126.4644352609304 582.4 126.43132351110671 588.8000000000001 127.8415823395062 595.2 126.40238227508658 601.5999999999999 115.17778959248585 608 114.40699033214509 614.4 112.69060689570898 620.8 110.04506535949346 627.2 107.19482199180729 633.6 104.20506555254644 640 105.72248337903238 640 320 0 320"
      />
      
      <polygon
        fill="#fd2fdb"
        fillRule="evenodd"
        points="0 313.69579214770624 6.4 305.07508002498076 12.8 298.5224296696079 19.2 288.3920449409267 25.6 281.72969752386194 32 277.8556863991424 38.4 270.54543353265785 44.800000000000004 260.8000982714736 51.2 251.72758752003688 57.599999999999994 237.79094381161576 64 230.20551779075788 70.4 218.60525919720345 76.8 212.80511069102215 83.2 207.84118951900894 89.60000000000001 198.6641080222962 96 187.99623144645776 102.4 176.33196753974778 108.80000000000001 173.6037934710729 115.19999999999999 169.25202122036293 121.6 163.42161735301474 128 159.99377071803022 134.4 149.21634415908244 140.8 151.8309421200077 147.20000000000002 137.94840799945308 153.6 126.0781091003717 160 120.39042070697457 166.4 110.04964237778469 172.8 101.4619600521911 179.20000000000002 97.89542021471237 185.6 94.07421818866658 192 90.75120353452365 198.4 78.81150180340404 204.8 68.97439001138895 211.20000000000002 67.69020276458014 217.60000000000002 62.45200886809317 224 64.65323614927146 230.39999999999998 62.99354866226702 236.8 55.15061074519451 243.2 51.1366469533757 249.60000000000002 51.43316638927763 256 56.8465538087147 262.4 53.86543271441599 268.8 56.57893615172026 275.2 58.32839839572728 281.6 59.07504626147971 288 60.50824252863106 294.40000000000003 63.234778940891886 300.79999999999995 64.55898545623555 307.2 57.47785992912566 313.6 57.73523717764141 320 54.73645853091915 326.4 52.003159957338255 332.8 46.24582930124603 339.20000000000005 47.98098352208177 345.6 44.48748580580565 352 43.22782484614447 358.40000000000003 45.240826410328054 364.79999999999995 52.03973995238118 371.2 54.00014873129652 377.59999999999997 57.76594750627453 384 61.18750897425724 390.4 60.48910323809264 396.8 64.83686399495693 403.2 67.95894628428607 409.6 73.26835849672588 416 78.59596826984276 422.40000000000003 82.21981681259717 428.8 76.54583439221238 435.20000000000005 79.9467248819536 441.59999999999997 86.83922526593057 448 93.25916924706837 454.4 92.85404503780569 460.79999999999995 95.70480143169954 467.2 101.01901891988291 473.6 106.3612201932365 480 112.7477971634745 486.4 110.6168339369103 492.8 111.89322163864466 499.20000000000005 111.45129263951162 505.6 109.95891559408415 512 113.34093686774708 518.4000000000001 119.21978592940533 524.8 121.41443294418474 531.1999999999999 117.232481929318 537.6 118.74651606443229 544 124.86448803362288 550.4 124.42893972889752 556.8 124.57237622348987 563.2 127.47422675923394 569.6 126.75095056864768 576 126.97135884787113 582.4 126.92425012645282 588.8000000000001 128.31946265350416 595.2 126.86613910976959 601.5999999999999 115.62739047836101 608 114.84330351989215 614.4 114.22088484734732 620.8 111.5286325548272 627.2 109.75426727213218 633.6 106.68638491744449 640 108.17906150411625 640 320 0 320"
      />
      
      <polygon
        fill="#4F5D95"
        fillRule="evenodd"
        points="0 313.69579214770624 6.4 305.07508002498076 12.8 298.5224296696079 19.2 288.3920449409267 25.6 281.72969752386194 32 277.8556863991424 38.4 270.54543353265785 44.800000000000004 260.8000982714736 51.2 251.72758752003688 57.599999999999994 237.79094381161576 64 230.20551779075788 70.4 218.60525919720345 76.8 212.80511069102215 83.2 207.84118951900894 89.60000000000001 198.6641080222962 96 187.99623144645776 102.4 176.33196753974778 108.80000000000001 173.6037934710729 115.19999999999999 169.25202122036293 121.6 163.42161735301474 128 159.99377071803022 134.4 149.21634415908244 140.8 151.8309421200077 147.20000000000002 137.94840799945308 153.6 126.0781091003717 160 120.39042070697457 166.4 110.04964237778469 172.8 101.4619600521911 179.20000000000002 97.89542021471237 185.6 94.07421818866658 192 90.75120353452365 198.4 78.81150180340404 204.8 68.97439001138895 211.20000000000002 67.69020276458014 217.60000000000002 62.45200886809317 224 64.67286321173913 230.39999999999998 63.012576619435436 236.8 55.1690578847863 243.2 51.15454889730165 249.60000000000002 51.45052188807864 256 56.863396374812055 262.4 53.881761170276775 268.8 56.59476619059029 275.2 58.34379134179238 281.6 59.08996934623991 288 60.52272456978886 294.40000000000003 63.24881892634443 300.79999999999995 64.57261049800937 307.2 57.49106907368639 313.6 57.7480431209716 320 54.7488860012092 326.4 52.01520808633762 332.8 46.257521353962716 339.20000000000005 47.99231868164094 345.6 44.49847496644145 352 43.23851057782804 358.40000000000003 45.25118596643284 364.79999999999995 52.049793336580876 371.2 54.00989524231176 377.59999999999997 57.77540596408096 384 61.19667871867608 390.4 60.49799308109766 396.8 64.84549110325122 403.2 67.9673100552317 409.6 73.2764750808131 416 78.60383709936912 422.40000000000003 82.22744545110498 428.8 76.55324497752525 435.20000000000005 79.9539092627902 441.59999999999997 86.84619731580659 448 93.26592847955791 454.4 92.86060450461733 460.79999999999995 95.71116067466409 467.2 101.02518405086869 473.6 106.36720311703914 480 112.75359746199797 486.4 110.62246281079382 492.8 111.89867869434983 499.20000000000005 111.45658312147799 505.6 109.96405999744607 512 113.34592424083235 518.4000000000001 119.22462590342587 524.8 121.41912518098513 531.1999999999999 117.23703548942808 537.6 118.75093062963049 544 124.86876784672657 550.4 124.43309305442017 556.8 124.57640277146663 563.2 127.47813430446428 569.6 126.75473883822346 576 126.97503148289655 582.4 126.92782135401166 588.8000000000001 128.32292487141956 595.2 126.86949900357172 601.5999999999999 115.63064781346807 608 114.84646458613813 614.4 114.22394942371363 620.8 111.53160358679003 627.2 109.75715049682489 633.6 106.689180133474 640 108.18182884868239 640 320 0 320"
      />
      
      <polygon
        fill="#755462"
        fillRule="evenodd"
        points="0 318.02122488891575 6.4 313.52736630177986 12.8 310.896126985944 19.2 304.6063592316214 25.6 301.51236695356613 32 299.6347528735263 38.4 295.68734175142237 44.800000000000004 289.6072584051102 51.2 284.8540635945319 57.599999999999994 274.44713632859697 64 270.196798855835 70.4 262.9524039054216 76.8 259.7806536549997 83.2 257.294033542638 89.60000000000001 251.48862014928733 96 243.11577055873715 102.4 233.69081660404845 108.80000000000001 232.44229582104538 115.19999999999999 230.4871471878286 121.6 226.74335109703065 128 225.02620901500356 134.4 216.76227056001522 140.8 218.75162014236662 147.20000000000002 208.35870880568905 153.6 198.35255541875063 160 194.3476231540626 166.4 186.11879010853835 172.8 178.69900256122042 179.20000000000002 176.47505570388114 185.6 173.87235359928124 192 171.3871648880727 198.4 162.65614776377697 204.8 154.12873817762969 211.20000000000002 153.5479778336202 217.60000000000002 149.77123683902892 224 151.99198123850593 230.39999999999998 150.24061566365194 236.8 143.46429928879922 243.2 140.69804912949124 249.60000000000002 142.92944433436912 256 147.05376596877525 262.4 144.4471914250429 268.8 147.1408216112525 275.2 149.53434153568267 281.6 150.7910303895245 288 152.38226961881085 294.40000000000003 155.0355336698252 300.79999999999995 154.4906237251885 307.2 148.88683776522896 313.6 148.9630430485012 320 145.9047575436885 326.4 141.7891841770783 332.8 137.4588604616254 339.20000000000005 139.3712361173868 345.6 135.06419292557482 352 134.18775900883344 358.40000000000003 137.09716369950718 364.79999999999995 142.45255759712833 371.2 144.39934290071736 377.59999999999997 146.97587422415302 384 149.82624595515003 390.4 149.06471027102768 396.8 151.7195582167851 403.2 154.19242195032933 409.6 158.30302702214732 416 162.42165976507283 422.40000000000003 164.48559705399217 428.8 158.22334940404113 435.20000000000005 161.3478637349366 441.59999999999997 165.87471326883974 448 170.0708626618186 454.4 168.56363096026516 460.79999999999995 169.21385187241424 467.2 173.47289826939988 473.6 177.1538623362775 480 181.49378469143477 486.4 177.55151405775564 492.8 179.11027720779035 499.20000000000005 179.8434971308383 505.6 178.85219508768486 512 181.19136630081866 518.4000000000001 185.21862357156826 524.8 189.19435196262563 531.1999999999999 186.2691399000759 537.6 186.94227554031337 544 190.98340612115544 550.4 193.06126361597916 556.8 195.38489669714895 563.2 199.02884384674638 569.6 200.45625430406346 576 202.54865365172793 582.4 204.68157063148732 588.8000000000001 208.14745304766802 595.2 207.11141840068774 601.5999999999999 197.53802100414921 608 198.09260017881178 614.4 198.37925753234032 620.8 197.54841238241207 627.2 197.64434593432827 633.6 195.98830633114258 640 196.64336954206624 640 320 0 320"
      />
      
      <polygon
        fill="#2415b9"
        fillRule="evenodd"
        points="0 318.02122488891575 6.4 313.52736630177986 12.8 310.896126985944 19.2 304.6063592316214 25.6 301.51236695356613 32 299.6347528735263 38.4 295.68734175142237 44.800000000000004 289.6072584051102 51.2 284.8540635945319 57.599999999999994 274.44713632859697 64 270.196798855835 70.4 262.9524039054216 76.8 259.7806536549997 83.2 257.294033542638 89.60000000000001 251.48862014928733 96 243.11577055873715 102.4 233.69081660404845 108.80000000000001 232.44229582104538 115.19999999999999 230.4871471878286 121.6 226.74335109703065 128 225.02620901500356 134.4 216.76227056001522 140.8 218.75162014236662 147.20000000000002 208.35870880568905 153.6 198.35255541875063 160 194.3476231540626 166.4 186.11879010853835 172.8 178.69900256122042 179.20000000000002 176.47505570388114 185.6 173.87235359928124 192 171.3871648880727 198.4 162.65614776377697 204.8 154.12873817762969 211.20000000000002 153.5479778336202 217.60000000000002 149.77123683902892 224 151.99198123850593 230.39999999999998 150.24061566365194 236.8 143.46429928879922 243.2 140.69804912949124 249.60000000000002 142.92944433436912 256 147.05376596877525 262.4 144.4471914250429 268.8 147.1408216112525 275.2 149.53434153568267 281.6 150.7910303895245 288 152.38226961881085 294.40000000000003 155.0355336698252 300.79999999999995 154.4906237251885 307.2 148.88683776522896 313.6 148.9630430485012 320 145.9047575436885 326.4 142.14881463615563 332.8 137.81849092070271 339.20000000000005 139.73086657646408 345.6 135.42382338465214 352 134.5473894679108 358.40000000000003 137.45679415858456 364.79999999999995 142.81218805620568 371.2 144.75897335979468 377.59999999999997 147.3355046832304 384 150.18587641422732 390.4 149.42434073010503 396.8 152.0791886758624 403.2 154.55205240940668 409.6 158.66265748122464 416 162.78129022415018 422.40000000000003 164.84522751306952 428.8 158.58297986311842 435.20000000000005 161.70749419401395 441.59999999999997 166.2343437279171 448 170.43049312089596 454.4 168.92326141934248 460.79999999999995 169.5734823314916 467.2 173.83252872847723 473.6 177.51349279535484 480 181.8534151505121 486.4 177.91114451683296 492.8 179.46990766686767 499.20000000000005 180.20312758991562 505.6 179.21182554676219 512 181.55099675989598 518.4000000000001 185.57825403064558 524.8 189.55398242170298 531.1999999999999 186.62877035915326 537.6 187.30190599939073 544 191.34303658023276 550.4 193.42089407505648 556.8 195.7445271562263 563.2 199.3884743058237 569.6 200.81588476314082 576 202.90828411080525 582.4 205.04120109056464 588.8000000000001 208.50708350674537 595.2 207.4710488597651 601.5999999999999 197.89765146322654 608 198.4522306378891 614.4 198.73888799141764 620.8 197.90804284148942 627.2 198.0039763934056 633.6 196.3479367902199 640 196.64336954206624 640 320 0 320"
      />
      
      <polygon
        fill="#f1e05a"
        fillRule="evenodd"
        points="0 318.02122488891575 6.4 313.52736630177986 12.8 310.896126985944 19.2 304.6063592316214 25.6 301.51236695356613 32 299.6347528735263 38.4 295.68734175142237 44.800000000000004 289.6072584051102 51.2 284.8540635945319 57.599999999999994 275.5586405371315 64 271.2743750131024 70.4 264.3815636361171 76.8 261.62330621238635 83.2 259.09169037000356 89.60000000000001 253.23314794692098 96 246.00811445235837 102.4 237.61112357807613 108.80000000000001 236.28997727339046 115.19999999999999 234.2173799083389 121.6 230.51376717826173 128 228.6815351292051 134.4 222.603424953153 140.8 224.41447643274523 147.20000000000002 213.85420232805347 153.6 203.68030290978302 160 199.51274472398464 166.4 191.13125913199266 172.8 184.67464898465497 179.20000000000002 182.274094801472 185.6 179.49438011887676 192 176.8375827397026 198.4 169.2791572702296 204.8 161.91443141700597 211.20000000000002 161.10356923012284 217.60000000000002 157.6520430871908 224 159.7500234166478 230.39999999999998 157.76184847985212 236.8 151.88572464838927 243.2 148.87058298223647 249.60000000000002 150.85251743662855 256 154.74267648652022 262.4 153.00436084268512 268.8 155.44782797149816 275.2 157.611981137713 281.6 159.39935364366585 288 161.38440158334467 294.40000000000003 163.76287980969659 300.79999999999995 164.08023670499946 307.2 158.18373621172532 313.6 157.97615812725522 320 154.65149331388832 326.4 150.62856280856766 332.8 146.0476254701287 339.20000000000005 147.70881106665396 345.6 144.26966817179573 352 143.14898249488942 358.40000000000003 145.79583126254676 364.79999999999995 150.9047673240154 371.2 152.60453274042018 377.59999999999997 154.94919386663918 384 157.5671610923088 390.4 156.5803169255745 396.8 159.0236733909577 403.2 161.2845596292502 409.6 165.19618897717925 416 169.11538957378747 422.40000000000003 170.98598161603672 428.8 165.66909424560757 435.20000000000005 168.57730935064882 441.59999999999997 172.90112642633304 448 176.89377450572596 454.4 175.1955238528148 460.79999999999995 175.6542877837071 467.2 179.72772170815378 473.6 183.23445612028 480 187.39974870611223 486.4 183.2935589201919 492.8 184.68802684727675 499.20000000000005 185.26196808402432 505.6 184.13098197426064 512 186.31999925060487 518.4000000000001 190.2063113848516 524.8 194.04077045823513 531.1999999999999 190.98295473355353 537.6 191.5231801010048 544 195.4354596094281 550.4 197.3923674212736 556.8 199.59477297924775 563.2 203.12492955804007 569.6 204.4382865033107 576 206.4201129452632 582.4 208.4560642028634 588.8000000000001 211.81770896349929 595.2 210.68383109603963 601.5999999999999 201.01236473384503 608 201.4748910466741 614.4 201.66928335639824 620.8 200.74898886365708 627.2 200.76095990329873 633.6 199.02076533416712 640 199.2895469002068 640 320 0 320"
      />
      
      <polygon
        fill="#22e8e8"
        fillRule="evenodd"
        points="0 319.92567428935905 6.4 319.85646904857026 12.8 319.8272329623257 19.2 318.66030348357793 25.6 318.5475305744956 32 318.407598469422 38.4 318.26954524217365 44.800000000000004 316.0115373512656 51.2 316.01950046356814 57.599999999999994 310.27120510045125 64 309.37987622513407 70.4 306.936940003355 76.8 307.0222713719084 83.2 306.27911116021994 89.60000000000001 304.58412358859135 96 300.1563112174662 102.4 294.7536600588197 108.80000000000001 293.47879305663935 115.19999999999999 293.78097432748103 121.6 290.8838709199619 128 291.2549395388169 134.4 286.9785512473367 140.8 287.2959341285091 147.20000000000002 280.08964869381117 153.6 272.3565478435958 160 270.6873784200536 166.4 264.6410710128325 172.8 259.71607561492533 179.20000000000002 258.48216264098926 185.6 256.49765563689664 192 254.70959289734128 198.4 249.75805567211248 204.8 243.84332592187388 211.20000000000002 243.32684695363548 217.60000000000002 241.83029870165342 224 242.7685735521457 230.39999999999998 241.70749614089914 236.8 237.21788438875384 243.2 234.04442311935918 249.60000000000002 235.73034060530676 256 237.40445676636392 262.4 235.5605433445877 268.8 237.0051111854235 275.2 238.39942295068784 281.6 240.81761399726787 288 242.54151884787666 294.40000000000003 244.5917315287608 300.79999999999995 243.76040921497435 307.2 239.79408752370773 313.6 239.82811226419258 320 237.43532806148045 326.4 235.72260197433675 332.8 231.991824876063 339.20000000000005 232.2007713030541 345.6 229.58702141240227 352 229.0001054279521 358.40000000000003 230.61541895722877 364.79999999999995 233.24737351639675 371.2 234.38591710613056 377.59999999999997 235.4498047006099 384 235.98085281250331 390.4 235.02393298251104 396.8 236.27278407067806 403.2 237.1099703851532 409.6 239.17612623437458 416 241.04017027935228 422.40000000000003 242.01077065751096 428.8 236.8473396590013 435.20000000000005 238.18590138719762 441.59999999999997 240.60234125949538 448 242.69854079139543 454.4 240.20797388887263 460.79999999999995 240.05522526969662 467.2 242.49395380482926 473.6 244.47764294760697 480 246.7813516176805 486.4 243.48885451585937 492.8 244.04379698921167 499.20000000000005 246.20501349529897 505.6 246.8956316969162 512 247.99734224328603 518.4000000000001 250.11828496727995 524.8 252.232862745906 531.1999999999999 249.5818096207528 537.6 249.4427803898328 544 251.59492567997188 550.4 252.51206477095502 556.8 253.3534683793473 563.2 255.30241819591797 569.6 256.1533181137363 576 257.9440533699846 582.4 258.99698456564926 588.8000000000001 260.82650903918073 595.2 259.22062852436926 601.5999999999999 252.11873823253177 608 252.0948715420679 614.4 251.32930534992374 620.8 250.0362569688957 627.2 248.84028889240122 633.6 247.38036975276253 640 247.22084788229068 640 320 0 320"
      />
      
      <polygon
        fill="#22e4e8"
        fillRule="evenodd"
        points="0 319.92567428935905 6.4 319.85646904857026 12.8 319.8272329623257 19.2 318.66030348357793 25.6 318.5475305744956 32 318.407598469422 38.4 318.26954524217365 44.800000000000004 316.0115373512656 51.2 316.01950046356814 57.599999999999994 310.27120510045125 64 309.37987622513407 70.4 306.936940003355 76.8 307.0222713719084 83.2 306.27911116021994 89.60000000000001 304.58412358859135 96 300.1563112174662 102.4 294.7536600588197 108.80000000000001 293.47879305663935 115.19999999999999 293.78097432748103 121.6 290.8838709199619 128 291.2549395388169 134.4 286.9785512473367 140.8 287.2959341285091 147.20000000000002 280.08964869381117 153.6 272.3565478435958 160 270.6873784200536 166.4 264.6410710128325 172.8 259.71607561492533 179.20000000000002 258.48216264098926 185.6 256.49765563689664 192 254.70959289734128 198.4 249.75805567211248 204.8 243.84332592187388 211.20000000000002 243.32684695363548 217.60000000000002 241.83029870165342 224 242.7685735521457 230.39999999999998 241.70749614089914 236.8 237.21788438875384 243.2 234.04442311935918 249.60000000000002 235.73034060530676 256 237.40445676636392 262.4 235.5605433445877 268.8 237.0051111854235 275.2 238.39942295068784 281.6 240.81761399726787 288 242.54151884787666 294.40000000000003 244.5917315287608 300.79999999999995 243.76040921497435 307.2 239.79408752370773 313.6 239.82811226419258 320 237.43532806148045 326.4 235.77397775420494 332.8 232.0432006559312 339.20000000000005 232.2521470829223 345.6 229.63839719227047 352 229.0514812078203 358.40000000000003 230.66679473709695 364.79999999999995 233.29874929626496 371.2 234.43729288599877 377.59999999999997 235.50118048047807 384 236.0322285923715 390.4 235.07530876237922 396.8 236.32415985054624 403.2 237.16134616502137 409.6 239.22750201424276 416 241.0915460592205 422.40000000000003 242.06214643737917 428.8 236.8987154388695 435.20000000000005 238.23727716706583 441.59999999999997 240.65371703936358 448 242.7499165712636 454.4 240.25934966874084 460.79999999999995 240.1066010495648 467.2 242.54532958469747 473.6 244.52901872747515 480 246.8327273975487 486.4 243.54023029572755 492.8 244.09517276907988 499.20000000000005 246.25638927516718 505.6 246.9470074767844 512 248.0487180231542 518.4000000000001 250.16966074714816 524.8 252.28423852577419 531.1999999999999 249.63318540062102 537.6 249.494156169701 544 251.64630145984006 550.4 252.5634405508232 556.8 253.4048441592155 563.2 255.35379397578617 569.6 256.2046938936045 576 257.99542914985284 582.4 259.04836034551744 588.8000000000001 260.8778848190489 595.2 259.27200430423744 601.5999999999999 252.17011401239995 608 252.1462473219361 614.4 251.38068112979192 620.8 250.0876327487639 627.2 248.89166467226943 633.6 247.4317455326307 640 247.22084788229068 640 320 0 320"
      />
      
      <polygon
        fill="#e34c26"
        fillRule="evenodd"
        points="0 319.92567428935905 6.4 319.85646904857026 12.8 319.8272329623257 19.2 318.66030348357793 25.6 318.6387629034737 32 318.51260339141373 38.4 318.3713449494787 44.800000000000004 316.1105262002602 51.2 316.2070766006149 57.599999999999994 311.6486268520305 64 310.75105068188134 70.4 308.26759016970635 76.8 308.3123041035748 83.2 307.5297665657759 89.60000000000001 305.79781638106647 96 302.085776512643 102.4 297.7266190244024 108.80000000000001 296.3610035914394 115.19999999999999 296.5752074355614 121.6 294.7044126028338 128 294.9753029720145 134.4 291.71974998799345 140.8 292.1942376407169 147.20000000000002 288.11680604353677 153.6 282.4760598646077 160 280.50911025585583 166.4 276.09422532561524 172.8 271.3321219753581 179.20000000000002 270.33212703722427 185.6 269.0820265311915 192 268.3241365443347 198.4 264.1112741169572 204.8 258.73414874738415 211.20000000000002 258.87805610860266 217.60000000000002 257.339082765121 224 258.03730120163243 230.39999999999998 256.5238549110684 236.8 252.72252037175488 243.2 250.19339666570193 249.60000000000002 252.19008932661896 256 254.18871032605756 262.4 252.8678270037139 268.8 253.80101060689768 275.2 254.90779165503614 281.6 256.8330896346543 288 258.58293822658095 294.40000000000003 260.4521221820059 300.79999999999995 259.97212183617654 307.2 257.86441762313905 313.6 257.5420742665682 320 255.72568110329087 326.4 254.32304278318202 332.8 252.44405634950854 339.20000000000005 252.30173629438485 345.6 249.89601721157527 352 249.6073335191976 358.40000000000003 250.63990493513214 364.79999999999995 252.68980067883024 371.2 254.0438338121276 377.59999999999997 254.88136691311684 384 255.76539437562587 390.4 254.20613565481858 396.8 254.90088354437316 403.2 255.1710230462559 409.6 256.70491245834006 416 258.10512877005857 422.40000000000003 258.5563950223885 428.8 255.16944293277027 435.20000000000005 257.12074714720495 441.59999999999997 258.97909295031013 448 260.5159273762237 454.4 258.60056267758955 460.79999999999995 258.02059567837284 467.2 259.9124978803536 473.6 261.3829162668426 480 263.1721715101748 486.4 261.8204592263572 492.8 263.55763648566193 499.20000000000005 265.20790750325733 505.6 265.5769862765071 512 267.22155591830733 518.4000000000001 268.7758535883075 524.8 270.33944051306554 531.1999999999999 268.4386556442487 537.6 268.9636450104222 544 270.52149480184244 550.4 271.9838162010216 556.8 273.449472525374 563.2 274.82524228875155 569.6 276.20418555460196 576 277.541017850746 582.4 278.71338129435463 588.8000000000001 279.973645686697 595.2 278.92976380034804 601.5999999999999 275.72394344462765 608 277.0325065775297 614.4 278.28630343118186 620.8 278.41590074296835 627.2 279.644885916502 633.6 279.582523621337 640 279.9855316048915 640 320 0 320"
      />
      
      <polygon
        fill="#00ADD8"
        fillRule="evenodd"
        points="0 319.92567428935905 6.4 319.85646904857026 12.8 319.8272329623257 19.2 318.66030348357793 25.6 318.6387629034737 32 318.51536316092944 38.4 318.3740204786419 44.800000000000004 316.6121818174848 51.2 316.6934194611467 57.599999999999994 313.1394465607051 64 312.196363985283 70.4 310.8820349691567 76.8 310.86396708351685 83.2 310.00354160290345 89.60000000000001 308.66171299161687 96 305.87145407753854 102.4 303.79316667018895 108.80000000000001 303.0244514879841 115.19999999999999 303.31530285809146 121.6 302.4901895847313 128 302.9132493625458 134.4 300.97569474532565 140.8 301.5563971991064 147.20000000000002 299.6311663779076 153.6 295.82119919712835 160 294.07845862929923 166.4 290.7161524568734 172.8 287.71240366788584 179.20000000000002 287.3468359051571 185.6 286.1158512992977 192 284.93732005973885 198.4 282.37654550303597 204.8 277.94384259949913 211.20000000000002 278.07967677066915 217.60000000000002 276.0328240452381 224 276.21170116331155 230.39999999999998 274.1490385383162 236.8 270.30475487454845 243.2 268.0869981924491 249.60000000000002 269.6660828267075 256 271.1482087259128 262.4 270.41255410465686 268.8 270.81020377110383 275.2 272.1629360902053 281.6 273.56152854709916 288 274.9228960970057 294.40000000000003 276.2933147338299 300.79999999999995 276.4643636832242 307.2 274.6332759166374 313.6 273.79907361020855 320 272.04438070352177 326.4 270.1436285097009 332.8 268.24952629407454 339.20000000000005 268.7286312319869 345.6 266.9323563103482 352 266.17326878488814 358.40000000000003 266.7001730599544 364.79999999999995 268.27541516605953 371.2 269.77303846651046 377.59999999999997 270.1457029609404 384 271.6310315235111 390.4 270.87589726156034 396.8 271.211414395605 403.2 272.6978621281644 409.6 274.0958584924348 416 275.469154923018 422.40000000000003 275.7090036760967 428.8 272.9524693960227 435.20000000000005 274.360952533104 441.59999999999997 275.70977801185086 448 277.06171614359675 454.4 276.4936278411949 460.79999999999995 276.69947805543643 467.2 278.0212200725648 473.6 279.0985007163464 480 280.34700224370715 486.4 279.2673791726183 492.8 280.47753135184803 499.20000000000005 281.61132987455323 505.6 281.52748491006304 512 282.68517656120844 518.4000000000001 283.7824589263598 524.8 284.88797837029756 531.1999999999999 282.61008808463896 537.6 282.84180189398177 544 283.97602858243636 550.4 285.0407100765668 556.8 286.1078081024295 563.2 287.1094697119629 569.6 288.11344479341403 576 289.0867523463668 582.4 289.9403188007373 588.8000000000001 290.85788824607806 595.2 291.71916351291594 601.5999999999999 290.34724230920824 608 291.22362005167196 614.4 292.1020007241245 620.8 292.9284139033568 627.2 293.72849454375444 633.6 293.55463139354146 640 293.8183226473118 640 320 0 320"
      />
      
      <polygon
        fill="#244776"
        fillRule="evenodd"
        points="0 319.92567428935905 6.4 319.85646904857026 12.8 319.8272329623257 19.2 318.66030348357793 25.6 318.6387629034737 32 318.51536316092944 38.4 318.3740204786419 44.800000000000004 316.6121818174848 51.2 316.6934194611467 57.599999999999994 313.1394465607051 64 312.196363985283 70.4 310.8820349691567 76.8 310.86396708351685 83.2 310.00354160290345 89.60000000000001 308.66171299161687 96 305.87145407753854 102.4 303.79316667018895 108.80000000000001 303.0244514879841 115.19999999999999 303.31530285809146 121.6 302.4901895847313 128 302.9132493625458 134.4 300.97569474532565 140.8 301.5563971991064 147.20000000000002 299.6311663779076 153.6 295.82119919712835 160 294.07845862929923 166.4 290.7161524568734 172.8 287.71240366788584 179.20000000000002 287.3468359051571 185.6 286.1158512992977 192 284.93732005973885 198.4 282.37654550303597 204.8 277.94384259949913 211.20000000000002 278.07967677066915 217.60000000000002 276.0328240452381 224 276.21170116331155 230.39999999999998 274.1490385383162 236.8 270.30475487454845 243.2 268.0869981924491 249.60000000000002 269.6660828267075 256 271.1482087259128 262.4 270.41255410465686 268.8 270.81020377110383 275.2 272.1629360902053 281.6 273.56152854709916 288 274.9228960970057 294.40000000000003 276.2933147338299 300.79999999999995 276.4643636832242 307.2 274.6332759166374 313.6 273.79907361020855 320 272.04438070352177 326.4 270.1436285097009 332.8 268.24952629407454 339.20000000000005 268.7286312319869 345.6 266.9323563103482 352 266.17326878488814 358.40000000000003 266.7001730599544 364.79999999999995 268.27541516605953 371.2 269.77303846651046 377.59999999999997 270.1457029609404 384 271.6310315235111 390.4 270.87589726156034 396.8 271.211414395605 403.2 272.6978621281644 409.6 274.0958584924348 416 275.469154923018 422.40000000000003 275.7090036760967 428.8 272.9524693960227 435.20000000000005 274.360952533104 441.59999999999997 275.70977801185086 448 277.06171614359675 454.4 276.4936278411949 460.79999999999995 276.69947805543643 467.2 278.0212200725648 473.6 279.0985007163464 480 280.34700224370715 486.4 279.2673791726183 492.8 280.47753135184803 499.20000000000005 281.61132987455323 505.6 281.52748491006304 512 282.68517656120844 518.4000000000001 283.7824589263598 524.8 284.88797837029756 531.1999999999999 282.61008808463896 537.6 282.84180189398177 544 283.97602858243636 550.4 285.0407100765668 556.8 286.1078081024295 563.2 287.1094697119629 569.6 288.11344479341403 576 289.0867523463668 582.4 289.9403188007373 588.8000000000001 290.85788824607806 595.2 291.71916351291594 601.5999999999999 290.40280349918464 608 291.27753915869704 614.4 292.15427398338113 620.8 292.9790915480275 627.2 293.7776744405898 633.6 293.60231010036426 640 293.865525945273 640 320 0 320"
      />
      
      <polygon
        fill="#563d7c"
        fillRule="evenodd"
        points="0 319.92567428935905 6.4 319.85646904857026 12.8 319.8272329623257 19.2 318.66030348357793 25.6 318.6387629034737 32 318.51536316092944 38.4 318.3740204786419 44.800000000000004 316.6121818174848 51.2 316.6934194611467 57.599999999999994 314.2496062650805 64 313.2726367390151 70.4 311.92649902529274 76.8 311.8765494884495 83.2 310.98521551665493 89.60000000000001 309.61437407771274 96 306.79503565021656 102.4 305.79142937493873 108.80000000000001 304.9617184008369 115.19999999999999 305.19343563180666 121.6 304.3146386757951 128 304.68200834125116 134.4 303.81183795408816 140.8 304.30596882798955 147.20000000000002 302.29947580550606 153.6 298.4080601348643 160 296.5863572539121 166.4 293.1499314493735 172.8 290.07189287169035 179.20000000000002 289.6365917354309 185.6 288.33571366911076 192 287.08942219422283 198.4 284.46922466374787 204.8 279.9726439925666 211.20000000000002 280.0485181075618 217.60000000000002 277.9415674333628 224 278.0640328148738 230.39999999999998 275.9448285753445 236.8 273.17511558572187 243.2 271.62235364053356 249.60000000000002 273.09352344917886 256 274.47435305898836 262.4 273.63716982706 268.8 273.9363901781309 275.2 275.20280327518367 281.6 276.50860521679675 288 277.78287376306776 294.40000000000003 279.0659931334665 300.79999999999995 279.1550970974617 307.2 277.2418763101215 313.6 276.3280477099905 320 274.4986122912359 326.4 272.5229461957455 332.8 270.55852440894023 339.20000000000005 270.9671487639795 345.6 269.1025442606192 352 268.2835342860552 358.40000000000003 268.74602381382584 364.79999999999995 270.2608018673556 371.2 271.6978225033772 377.59999999999997 272.0136009600449 384 273.4419130931242 390.4 272.6315026020976 396.8 272.9151338975316 403.2 274.3495764969194 409.6 275.6987571878082 416 277.0231261513128 422.40000000000003 277.21554098260947 428.8 275.39027234510525 435.20000000000005 276.72434290537706 441.59999999999997 278.0033198260947 448 279.28524890187515 454.4 278.651445120183 460.79999999999995 278.79142932409917 467.2 280.04931556241695 473.6 281.0666571113419 480 282.25508185675596 486.4 281.1190663663979 492.8 282.27269686489626 499.20000000000005 283.3516989055581 505.6 283.21979970811975 512 284.32583434837795 518.4000000000001 285.3746278414836 524.8 286.4315473389393 531.1999999999999 284.1080376212921 537.6 284.29402750031 544 285.3839257273725 550.4 286.40699766913303 556.8 287.43239048092363 563.2 288.3949047737131 569.6 289.35964268218135 576 290.29491083708297 582.4 291.11511797006943 588.8000000000001 291.9968274293169 595.2 292.8244418503187 601.5999999999999 291.47434382433 608 292.3174107338707 614.4 293.1624040604788 620.8 293.95644907425753 627.2 294.7261466538499 633.6 294.5218308286499 640 294.77587794638026 640 320 0 320"
      />
      
      <polygon
        fill="#178600"
        fillRule="evenodd"
        points="0 320 6.4 320 12.8 320 19.2 320 25.6 320 32 320 38.4 320 44.800000000000004 320 51.2 320 57.599999999999994 318.73032908254453 64 318.7690851316242 70.4 318.8054642083221 76.8 318.841926678186 83.2 318.87727614315475 89.60000000000001 318.9104577043404 96 318.9437152708548 102.4 318.97493331138486 108.80000000000001 319.0062228670005 115.19999999999999 319.0365573160429 121.6 319.06409590542 128 319.0926638804729 134.4 319.1194796742782 140.8 319.14635707791876 147.20000000000002 319.17158605883674 153.6 319.1856780550738 160 319.2105347568157 166.4 319.2338669953168 172.8 319.25725272627983 179.20000000000002 319.2792042509721 185.6 318.1941414506598 192 318.24926424083145 198.4 318.2976048629269 204.8 316.13887597210083 211.20000000000002 316.24748673402803 217.60000000000002 316.3620299189076 224 316.46954803102375 230.39999999999998 316.5773132811914 236.8 316.241561770839 243.2 315.63818005444415 249.60000000000002 315.7713221347491 256 315.8962985486018 262.4 316.021561433803 268.8 316.143001036218 275.2 316.24949904112424 281.6 316.3639809038729 288 316.4714417833703 294.40000000000003 316.5791490713831 300.79999999999995 316.68025030749305 307.2 315.97581325411 313.6 316.09864925022185 320 314.31084670844115 326.4 314.4845048590173 332.8 313.5209140895123 339.20000000000005 313.71868402384774 345.6 313.9104177150549 352 312.9761266555603 358.40000000000003 313.19052562489424 364.79999999999995 313.39177603198715 371.2 313.59348864642124 377.59999999999997 313.78282925380216 384 313.97260491128696 390.4 314.15658805234324 396.8 314.32928670885457 403.2 314.50238198638647 409.6 314.6648612810211 416 314.8277132555629 422.40000000000003 314.98559431514775 428.8 313.21290570579185 435.20000000000005 313.4200773050916 441.59999999999997 313.6145443932909 448 313.80945649849536 454.4 313.19872866208874 460.79999999999995 313.4063336674675 467.2 313.60760198415727 473.6 313.7965255229572 480 313.98588349535174 486.4 314.16362684243984 492.8 314.34177924348734 499.20000000000005 314.5144930044779 505.6 314.6659569209026 512 314.8287753984359 518.4000000000001 314.9816081711393 524.8 315.13479173766774 531.1999999999999 315.27858021533166 537.6 315.42269883375695 544 315.56241845240686 550.4 315.6935688375785 556.8 315.82501999711576 563.2 315.9484095672557 569.6 316.0720817761109 576 316.19197931394285 582.4 316.2971249850211 588.8000000000001 316.4101531084275 595.2 316.5162491595072 601.5999999999999 316.6225887317835 608 316.72240634403346 614.4 316.82245291758403 620.8 316.9194457353295 627.2 317.01048981317496 633.6 317.10174295961906 640 317.1306418871707 640 320 0 320"
      />
      
      <polygon
        fill="#555555"
        fillRule="evenodd"
        points="0 320 6.4 320 12.8 320 19.2 320 25.6 320 32 320 38.4 320 44.800000000000004 320 51.2 320 57.599999999999994 318.73032908254453 64 318.7690851316242 70.4 318.8054642083221 76.8 318.841926678186 83.2 318.87727614315475 89.60000000000001 318.9104577043404 96 318.9437152708548 102.4 318.97493331138486 108.80000000000001 319.0062228670005 115.19999999999999 319.0365573160429 121.6 319.06409590542 128 319.0926638804729 134.4 319.1194796742782 140.8 319.14635707791876 147.20000000000002 319.17158605883674 153.6 319.1856780550738 160 319.2105347568157 166.4 319.2338669953168 172.8 319.25725272627983 179.20000000000002 319.2792042509721 185.6 318.1941414506598 192 318.24926424083145 198.4 318.2976048629269 204.8 317.2428502380832 211.20000000000002 317.3188335779864 217.60000000000002 317.40067453770644 224 317.47749613510916 230.39999999999998 317.5544942802418 236.8 317.18891481411043 243.2 316.5575346334577 249.60000000000002 316.66261392702836 256 316.76124864277233 262.4 316.86010951469933 268.8 316.9559528815715 275.2 317.0400039656905 281.6 317.1303560837073 288 317.2151671697379 294.40000000000003 317.30017266171956 300.79999999999995 317.37996448818444 307.2 317.45993962343186 313.6 317.5374734843715 320 316.5057110622922 326.4 316.612372216125 332.8 315.5858933819989 339.20000000000005 315.720631091275 345.6 315.8512564776273 352 314.86337554765527 358.40000000000003 315.0201674715324 364.79999999999995 315.16734384279846 371.2 315.31485829752154 377.59999999999997 315.4533246553973 384 315.59210933760517 390.4 315.72665798401135 396.8 315.85295413889725 403.2 315.97954036143636 409.6 316.0983629843764 416 316.2174581044529 422.40000000000003 316.33291807984904 428.8 315.5852563223286 435.20000000000005 315.72001345164944 441.59999999999997 315.84650688953 448 315.9732896758029 454.4 316.09229684054424 460.79999999999995 316.21157742718606 467.2 316.3272169095571 473.6 316.43576376001414 480 316.54456050226446 486.4 316.64668383896463 492.8 316.74904196297877 499.20000000000005 316.84827561756447 505.6 316.935299920816 512 317.0288479205953 518.4000000000001 317.1166588897882 524.8 317.20467114928664 531.1999999999999 317.28728556109746 537.6 317.3700896522875 544 317.4503662606112 550.4 317.52571926079605 556.8 317.6012451096547 563.2 317.6721391134284 569.6 317.7431957420957 576 317.81208339836365 582.4 317.8724953558982 588.8000000000001 317.9374361603542 595.2 317.99839406775106 601.5999999999999 318.05949202552387 608 318.11684272638945 614.4 318.1743250828286 620.8 318.2300527714324 627.2 318.282362593804 633.6 318.334792399172 640 318.3513964860918 640 320 0 320"
      />
      
      <polygon
        fill="#C1F12E"
        fillRule="evenodd"
        points="0 320 6.4 320 12.8 320 19.2 320 25.6 320 32 320 38.4 320 44.800000000000004 320 51.2 320 57.599999999999994 319.00777493958543 64 319.0380620920849 70.4 319.06649170188746 76.8 319.09498645617884 83.2 319.1226114185171 89.60000000000001 319.1485422131384 96 319.17453239816126 102.4 319.19892875236525 108.80000000000001 319.2233809725923 115.19999999999999 319.24708681576453 121.6 319.2686077189451 128 319.29093309491225 134.4 319.3118891419434 140.8 319.33289335890584 147.20000000000002 319.3526093487384 153.6 319.36117571544816 160 319.3806754543481 166.4 319.3989792781193 172.8 319.4173250553525 179.20000000000002 319.43454573383195 185.6 319.44084497985256 192 319.45791285648755 198.4 319.47288079949624 204.8 319.4862109648439 211.20000000000002 319.50139569309334 217.60000000000002 319.5166153157724 224 319.53090149190706 230.39999999999998 319.54522046633963 236.8 319.3091076572214 243.2 318.6150663901431 249.60000000000002 318.65734074510453 256 318.69702226720756 262.4 318.73679492994404 268.8 318.7753534802507 275.2 318.8091679910444 281.6 318.84551738281675 288 318.87963763087635 294.40000000000003 318.913836072873 300.79999999999995 318.9459369959049 307.2 318.97811169455673 313.6 319.00930429380054 320 319.03858376175367 326.4 319.06793042922686 332.8 319.09547740313127 339.20000000000005 319.12308726099025 345.6 319.1498545560594 352 319.1733284581358 358.40000000000003 319.1985621142498 364.79999999999995 319.2222481674716 371.2 319.24598860709403 377.59999999999997 319.268273057115 384 319.2906085746611 390.4 319.3122623356084 396.8 319.33258803264613 403.2 319.3529603788919 409.6 319.3720833689229 416 319.39125013111834 422.40000000000003 319.4098319286842 428.8 318.5742211038745 435.20000000000005 318.6177420407586 441.59999999999997 318.65859410863015 448 318.6995396804211 454.4 318.7379741068436 460.79999999999995 318.77649679685595 467.2 318.81384349526707 473.6 318.848899553157 480 318.8840363737729 486.4 318.91701808317487 492.8 318.95007541772486 499.20000000000005 318.98212393746127 505.6 319.01022905783816 512 319.040441201699 518.4000000000001 319.0688005294347 524.8 319.0972247961561 531.1999999999999 319.1239057799151 537.6 319.1506481063552 544 319.1765741744048 550.4 319.2009099976649 556.8 319.2253017383239 563.2 319.24819761150104 569.6 319.27114595989974 576 319.2933937584393 582.4 319.31290432735364 588.8000000000001 319.3338775338953 595.2 319.35356435256006 601.5999999999999 319.3732964846626 608 319.3918183986194 614.4 319.4103827797959 620.8 319.42838050667075 627.2 319.4452744351903 633.6 319.46220707022235 640 319.46756951999765 640 320 0 320"
      />
      

      
        <g id="labels">
        
          
          <text x="0" y="330">
            Jul 2014
          </text>
          
        
          
        
          
        
          
        
          
        
          
        
          
        
          
        
          
        
          
        
          
        
          
        
          
        
          
          <text x="82.37623762376238" y="330">
            Aug 2015
          </text>
          
        
          
        
          
        
          
        
          
        
          
        
          
        
          
        
          
        
          
        
          
        
          
        
          
        
          
          <text x="164.75247524752476" y="330">
            Sep 2016
          </text>
          
        
          
        
          
        
          
        
          
        
          
        
          
        
          
        
          
        
          
        
          
        
          
        
          
        
          
          <text x="247.12871287128712" y="330">
            Oct 2017
          </text>
          
        
          
        
          
        
          
        
          
        
          
        
          
        
          
        
          
        
          
        
          
        
          
        
          
        
          
          <text x="329.5049504950495" y="330">
            Nov 2018
          </text>
          
        
          
        
          
        
          
        
          
        
          
        
          
        
          
        
          
        
          
        
          
        
          
        
          
        
          
          <text x="411.8811881188119" y="330">
            Dec 2019
          </text>
          
        
          
        
          
        
          
        
          
        
          
        
          
        
          
        
          
        
          
        
          
        
          
        
          
        
          
          <text x="494.25742574257424" y="330">
            Jan 2021
          </text>
          
        
          
        
          
        
          
        
          
        
          
        
          
        
          
        
          
        
          
        
          
        
          
        
          
        
          
          <text x="576.6336633663366" y="330">
            Feb 2022
          </text>
          
        
          
        
          
        
          
        
          
        
          
        
          
        
          
        
          
        
          
        
        </g>
      

      
        <text text-anchor="middle" y="370" x="320" id="legend">
          
          <tspan xml:space="preserve" fill="#C1F12E">   </tspan> Batchfile
          
          <tspan xml:space="preserve" fill="#555555">   </tspan> C
          
          <tspan xml:space="preserve" fill="#178600">   </tspan> C#
          
          <tspan xml:space="preserve" fill="#563d7c">   </tspan> CSS
          
          <tspan xml:space="preserve" fill="#244776">   </tspan> CoffeeScript
          
          <tspan xml:space="preserve" fill="#00ADD8">   </tspan> Go
          
          <tspan xml:space="preserve" fill="#e34c26">   </tspan> HTML
          
          <tspan xml:space="preserve" fill="#22e4e8">   </tspan> JSON
          
        </text>
      
        <text text-anchor="middle" y="400" x="320" id="legend">
          
          <tspan xml:space="preserve" fill="#22e8e8">   </tspan> JSon
          
          <tspan xml:space="preserve" fill="#f1e05a">   </tspan> JavaScript
          
          <tspan xml:space="preserve" fill="#2415b9">   </tspan> Less
          
          <tspan xml:space="preserve" fill="#755462">   </tspan> MySQL
          
          <tspan xml:space="preserve" fill="#4F5D95">   </tspan> PHP
          
          <tspan xml:space="preserve" fill="#fd2fdb">   </tspan> PLpgSQL
          
          <tspan xml:space="preserve" fill="#0298c3">   </tspan> Perl
          
          <tspan xml:space="preserve" fill="#3572A5">   </tspan> Python
          
        </text>
      
        <text text-anchor="middle" y="430" x="320" id="legend">
          
          <tspan xml:space="preserve" fill="#701516">   </tspan> Ruby
          
          <tspan xml:space="preserve" fill="#dea584">   </tspan> Rust
          
          <tspan xml:space="preserve" fill="#26c0b0">   </tspan> SCSS
          
          <tspan xml:space="preserve" fill="#0141ae">   </tspan> SQL
          
          <tspan xml:space="preserve" fill="#89e051">   </tspan> Shell
          
          <tspan xml:space="preserve" fill="#509e5b">   </tspan> Svelte
          
          <tspan xml:space="preserve" fill="#2770da">   </tspan> TSQL
          
          <tspan xml:space="preserve" fill="#2b7489">   </tspan> TypeScript
          
        </text>
      
        <text text-anchor="middle" y="460" x="320" id="legend">
          
          <tspan xml:space="preserve" fill="#2c3e50">   </tspan> Vue
          
          <tspan xml:space="preserve" fill="#4B6C4B">   </tspan> Yacc
          
        </text>
      

    </svg>