<svg
      xmlns="http://www.w3.org/2000/svg"
      viewBox="0 0 640 490"
      style="background-color: #292b3e"
    >
      <style>
        text {
          font-size: 12px;
          font-family: Open Sans, Helvetica Neue, Helvetica, Arial, sans-serif;
        }
        #labels text {
          dominant-baseline: hanging;
          font-size: 10px;
          fill: rgba(0,0,0,0.5);
        }
        #legend {
          font-weight: 600;
        }
        #legend tspan {
          font-size: 15px;
        }
        #branding-text {
          font-size: 9px;
          dominant-baseline: hanging;
          opacity: 0.5;
        }
        #branding-logo {
          opacity: 0.5;
        }
      </style>

      
      
      <polygon
        fill="#4B6C4B"
        fillRule="evenodd"
        points="0 313.6135504684469 6.4 304.26911539881735 12.8 297.268047050136 19.2 285.93882500487626 25.6 278.8280172400084 32 274.9842141550588 38.4 267.09075890300613 44.800000000000004 257.07882347420525 51.2 246.22214257530413 57.599999999999994 230.99232735319737 64 221.546287954499 70.4 206.62810017748555 76.8 198.27731453249908 83.2 192.17035764885736 89.60000000000001 182.1295113817139 96 170.61733058511345 102.4 156.95189613487804 108.80000000000001 154.80431844839998 115.19999999999999 149.88794647887738 121.6 142.5257473269021 128 138.28619622495552 134.4 123.78701230412841 140.8 127.17490003785397 147.20000000000002 110.77247831698253 153.6 93.05731716692674 160 88.01896068484908 166.4 78.10642912708369 172.8 68.78378645883089 179.20000000000002 65.97378744105583 185.6 62.13354249919092 192 59.189179652196856 198.4 46.68379755222696 204.8 33.29414948659553 211.20000000000002 31.646535958401557 217.60000000000002 27.414916724555155 224 27.529021069501482 230.39999999999998 25.251219366154658 236.8 13.93615959244363 243.2 9.643198444814743 249.60000000000002 9.883933180645727 256 12.938078508046374 262.4 8.247034074783755 268.8 10.710229913814203 275.2 10.159101676766909 281.6 11.45567584417455 288 14.1957026230329 294.40000000000003 17.69319803718298 300.79999999999995 18.068043124328938 307.2 12.038832174984805 313.6 13.322816266799066 320 11.292777758939849 326.4 7.029669871027238 332.8 1.9718157717737768 339.20000000000005 4.695557371581685 345.6 0.0665919267805748 352 0 358.40000000000003 3.13414530694763 364.79999999999995 11.121775610375778 371.2 13.499887526040311 377.59999999999997 18.048101226733934 384 21.314843837995795 390.4 21.568647912646668 396.8 27.066615720430548 403.2 30.681035128624956 409.6 36.74793633575371 416 42.80380273337801 422.40000000000003 46.96053918448058 428.8 38.514949488592436 435.20000000000005 42.631198111046956 441.59999999999997 50.615640949096814 448 58.06903314494144 454.4 55.54223603893723 460.79999999999995 58.40783108920181 467.2 64.84917345093632 473.6 68.96531500715614 480 76.40570254671923 486.4 74.31939502268926 492.8 74.99075265702615 499.20000000000005 75.0520011070351 505.6 74.49046949604448 512 78.43678516930635 518.4000000000001 85.33604312563452 524.8 88.56508647447572 531.1999999999999 82.02553625401038 537.6 83.0875231343868 544 90.29412755684643 550.4 88.15335581775196 556.8 86.74212333826998 563.2 87.76629127548631 569.6 85.90008067113627 576 86.43114242222742 582.4 86.68137039507576 588.8000000000001 89.27130055565826 595.2 85.21666305307659 601.5999999999999 69.72128310319275 608 69.3693695410006 614.4 67.00838520766808 620.8 64.1006419334019 627.2 60.655770442193386 633.6 56.62922526503456 640 56.265954674207194 640 320 0 320"
      />
      
      <polygon
        fill="#2c3e50"
        fillRule="evenodd"
        points="0 313.6135504684469 6.4 304.26911539881735 12.8 297.268047050136 19.2 285.93882500487626 25.6 278.8280172400084 32 274.9842141550588 38.4 267.09075890300613 44.800000000000004 257.07882347420525 51.2 246.22214257530413 57.599999999999994 230.99232735319737 64 221.546287954499 70.4 206.62810017748555 76.8 198.27731453249908 83.2 192.17035764885736 89.60000000000001 182.1295113817139 96 170.61733058511345 102.4 156.95189613487804 108.80000000000001 154.80431844839998 115.19999999999999 149.88794647887738 121.6 142.5257473269021 128 138.28619622495552 134.4 123.78701230412841 140.8 127.17490003785397 147.20000000000002 110.77247831698253 153.6 93.05731716692674 160 88.01896068484908 166.4 78.10642912708369 172.8 68.78378645883089 179.20000000000002 65.97378744105583 185.6 62.13354249919092 192 59.189179652196856 198.4 46.68379755222696 204.8 33.29414948659553 211.20000000000002 31.646535958401557 217.60000000000002 27.414916724555155 224 27.529021069501482 230.39999999999998 25.251219366154658 236.8 13.93615959244363 243.2 9.643198444814743 249.60000000000002 9.883933180645727 256 12.938078508046374 262.4 8.247034074783755 268.8 10.710229913814203 275.2 10.159101676766909 281.6 11.45567584417455 288 14.1957026230329 294.40000000000003 17.69319803718298 300.79999999999995 18.068043124328938 307.2 12.038832174984805 313.6 13.322816266799066 320 11.292777758939849 326.4 7.029669871027238 332.8 1.9718157717737768 339.20000000000005 4.695557371581685 345.6 0.0665919267805748 352 0 358.40000000000003 3.13414530694763 364.79999999999995 11.121775610375778 371.2 13.499887526040311 377.59999999999997 18.048101226733934 384 21.314843837995795 390.4 21.568647912646668 396.8 27.066615720430548 403.2 30.681035128624956 409.6 36.74793633575371 416 42.80380273337801 422.40000000000003 46.96053918448058 428.8 38.514949488592436 435.20000000000005 42.631198111046956 441.59999999999997 50.615640949096814 448 58.06903314494144 454.4 56.64282283664045 460.79999999999995 59.474823150910424 467.2 65.88359613479423 473.6 69.96916590687755 480 77.37891148296629 486.4 75.26384121934143 492.8 75.90637025031253 499.20000000000005 75.93966995884415 505.6 75.35362829117861 512 79.2735966065359 518.4000000000001 86.14812305595643 524.8 89.35237811735988 531.1999999999999 82.78955990147242 537.6 83.82822542752467 544 91.01222034841939 550.4 88.85022575077909 556.8 87.41772170849629 563.2 88.42192267878406 569.6 86.53569931112062 576 87.04735917766743 582.4 87.28057237042347 588.8000000000001 89.85221227484271 595.2 85.78040621413498 601.5999999999999 70.26781836254025 608 69.89975219859517 614.4 67.52257825238604 620.8 64.59913953875332 627.2 61.13953521592441 633.6 57.09822340187122 640 56.721091826687825 640 320 0 320"
      />
      
      <polygon
        fill="#2b7489"
        fillRule="evenodd"
        points="0 313.6135504684469 6.4 304.26911539881735 12.8 297.268047050136 19.2 285.93882500487626 25.6 278.8280172400084 32 274.9842141550588 38.4 267.09075890300613 44.800000000000004 257.07882347420525 51.2 246.22214257530413 57.599999999999994 230.99232735319737 64 221.546287954499 70.4 206.62810017748555 76.8 198.27731453249908 83.2 192.17035764885736 89.60000000000001 182.1295113817139 96 170.61733058511345 102.4 156.95189613487804 108.80000000000001 154.80431844839998 115.19999999999999 149.88794647887738 121.6 142.5257473269021 128 138.28619622495552 134.4 123.78701230412841 140.8 127.17490003785397 147.20000000000002 110.77247831698253 153.6 93.05731716692674 160 88.01896068484908 166.4 78.10642912708369 172.8 68.78378645883089 179.20000000000002 65.97378744105583 185.6 62.13354249919092 192 59.189179652196856 198.4 46.68379755222696 204.8 33.29414948659553 211.20000000000002 31.646535958401557 217.60000000000002 27.414916724555155 224 27.529021069501482 230.39999999999998 25.251219366154658 236.8 13.93615959244363 243.2 9.643198444814743 249.60000000000002 9.883933180645727 256 12.938078508046374 262.4 8.247034074783755 268.8 10.710229913814203 275.2 10.159101676766909 281.6 11.45567584417455 288 14.1957026230329 294.40000000000003 17.69319803718298 300.79999999999995 18.068043124328938 307.2 12.038832174984805 313.6 13.322816266799066 320 11.292777758939849 326.4 7.029669871027238 332.8 1.9718157717737768 339.20000000000005 4.695557371581685 345.6 0.0665919267805748 352 0 358.40000000000003 3.13414530694763 364.79999999999995 11.121775610375778 371.2 13.499887526040311 377.59999999999997 18.048101226733934 384 21.314843837995795 390.4 21.568647912646668 396.8 27.066615720430548 403.2 30.681035128624956 409.6 36.74793633575371 416 42.80380273337801 422.40000000000003 46.96053918448058 428.8 38.514949488592436 435.20000000000005 42.631198111046956 441.59999999999997 50.615640949096814 448 58.06903314494144 454.4 56.64282283664045 460.79999999999995 59.474823150910424 467.2 65.88359613479423 473.6 69.96916590687755 480 77.37891148296629 486.4 75.26384121934143 492.8 75.90637025031253 499.20000000000005 75.93966995884415 505.6 75.35362829117861 512 79.2735966065359 518.4000000000001 86.14812305595643 524.8 89.35237811735988 531.1999999999999 84.99966476807049 537.6 87.49749507906427 544 94.56948768133574 550.4 94.67109073772343 556.8 95.5792063268693 563.2 99.33793233294213 569.6 99.2302784119914 576 100.29085783721925 582.4 100.9250282951254 588.8000000000001 103.11101372909974 595.2 98.64735624938962 601.5999999999999 83.41162023421415 608 83.12848031669205 614.4 80.37000856756978 620.8 77.05441120767239 627.2 73.22670033140503 633.6 68.81643529078923 640 68.09297330721449 640 320 0 320"
      />
      
      <polygon
        fill="#2770da"
        fillRule="evenodd"
        points="0 313.6135504684469 6.4 304.26911539881735 12.8 297.268047050136 19.2 285.93882500487626 25.6 278.8280172400084 32 274.9842141550588 38.4 267.09075890300613 44.800000000000004 257.07882347420525 51.2 246.22214257530413 57.599999999999994 230.99232735319737 64 221.546287954499 70.4 206.62810017748555 76.8 198.27731453249908 83.2 192.17035764885736 89.60000000000001 182.1295113817139 96 170.61733058511345 102.4 156.95189613487804 108.80000000000001 154.80431844839998 115.19999999999999 149.88794647887738 121.6 142.5257473269021 128 138.28619622495552 134.4 123.78701230412841 140.8 127.17490003785397 147.20000000000002 110.77247831698253 153.6 93.05731716692674 160 88.01896068484908 166.4 78.10642912708369 172.8 68.78378645883089 179.20000000000002 65.97378744105583 185.6 62.13354249919092 192 59.189179652196856 198.4 46.68379755222696 204.8 33.29414948659553 211.20000000000002 31.646535958401557 217.60000000000002 27.414916724555155 224 27.529021069501482 230.39999999999998 25.251219366154658 236.8 14.57436849732909 243.2 11.08020854784138 249.60000000000002 11.277079347997244 256 14.290050981923514 262.4 9.557738323721253 268.8 11.98092556958727 275.2 11.394711465431783 281.6 12.653569324957232 288 15.358193042540506 294.40000000000003 18.82020411890568 300.79999999999995 19.161741147000782 307.2 13.099145691420745 313.6 14.35076436729588 320 12.290345296014266 326.4 7.996787281850914 332.8 2.9103504637930655 339.20000000000005 5.605443892031985 345.6 0.9487046917159887 352 0.8577561163883729 358.40000000000003 3.965718878986195 364.79999999999995 11.928772542707236 371.2 14.282251305288696 377.59999999999997 18.807342712318757 384 22.050909855967802 390.4 22.282245979647996 396.8 27.759123807245714 403.2 31.35240478787796 409.6 37.39946400484041 416 43.43544292416834 422.40000000000003 47.57289891228362 428.8 40.23049059456673 435.20000000000005 44.29437330630884 441.59999999999997 52.22966204293181 448 59.63378711059755 454.4 58.16133118745347 460.79999999999995 60.946979949988304 467.2 67.31081616881715 473.6 71.35420528181737 480 78.72167330407115 486.4 76.56691852580536 492.8 77.16967179872117 499.20000000000005 77.16440996476888 505.6 76.54455120666202 512 80.42816724153067 518.4000000000001 87.26857101727316 524.8 90.43862500553331 531.1999999999999 86.05380825686623 537.6 88.51946149559029 544 95.5602590225638 550.4 95.63258044381328 556.8 96.51134709552778 563.2 100.2425242693223 569.6 100.10725811836042 576 101.14106823626813 582.4 101.75176308915911 588.8000000000001 103.91251286553609 595.2 99.42516745491955 601.5999999999999 84.17678637663579 608 84.1347146423584 614.4 81.54087036484026 620.8 78.21156070214153 627.2 74.34965101326586 633.6 69.9217752744205 640 69.1684495679348 640 320 0 320"
      />
      
      <polygon
        fill="#509e5b"
        fillRule="evenodd"
        points="0 313.6135504684469 6.4 304.9098449441247 12.8 298.33447716338395 19.2 288.0768243522826 25.6 281.2713612349948 32 277.3529764202202 38.4 269.99995447280503 44.800000000000004 260.0717405280024 51.2 250.1731902828732 57.599999999999994 235.18159877166966 64 226.7875054162049 70.4 213.32787803926453 76.8 205.81368199081885 83.2 200.42204624646234 89.60000000000001 190.45085939409415 96 178.68467460523382 102.4 164.78081535922823 108.80000000000001 162.39426315595887 115.19999999999999 158.35640805663252 121.6 150.82954536724407 128 146.47030201747438 134.4 132.5870697118774 140.8 135.70633960806708 147.20000000000002 119.05177729506991 153.6 102.43448095027432 160 97.17066178584935 166.4 87.08412297458591 172.8 77.51849796366744 179.20000000000002 74.59630859185444 185.6 71.29279892480469 192 68.12751398834598 198.4 55.436658070887404 204.8 42.603013258739736 211.20000000000002 40.81642409131507 217.60000000000002 36.30489872995548 224 36.657401669015826 230.39999999999998 34.26581901697557 236.8 23.330641396384067 243.2 19.768633542700968 249.60000000000002 20.331920632594915 256 23.77186520743453 262.4 19.357998230388546 268.8 21.657251642683605 275.2 22.19774368835158 281.6 24.03348495251953 288 26.40178318429554 294.40000000000003 29.5266919728125 300.79999999999995 29.7948792626795 307.2 23.469533085508488 313.6 24.70125494296741 320 22.40429245757855 326.4 17.802012761988465 332.8 12.431436348045452 339.20000000000005 14.83590614389152 345.6 10.202271666716797 352 9.855814199302188 358.40000000000003 12.717269314839314 364.79999999999995 20.455552430941623 371.2 22.80237124628877 377.59999999999997 27.111485998012313 384 30.80887404623911 390.4 30.77287929608235 396.8 35.99882129397912 403.2 39.340587953443446 409.6 45.232414174173414 416 51.02929630231466 422.40000000000003 55.0697445117338 428.8 47.537881779825796 435.20000000000005 51.37870825152231 441.59999999999997 59.104624177703556 448 66.29889555747354 454.4 64.91788033173157 460.79999999999995 67.49728712485509 467.2 73.66117922489428 473.6 78.63288047945628 480 85.77816873275049 486.4 83.41486212926878 492.8 83.84702926296652 499.20000000000005 83.63794320457984 505.6 82.8393401390469 512 87.04899899958349 518.4000000000001 93.69372572467915 524.8 96.6676580561508 531.1999999999999 92.09874713563053 537.6 94.37988050265275 544 101.24179171949905 550.4 101.14619874844453 556.8 101.85666681964986 563.2 105.42986547465418 569.6 105.13625840003465 576 106.01655887142311 582.4 106.49263372509924 588.8000000000001 108.50867175458131 595.2 104.55189960576388 601.5999999999999 89.14702785175268 608 88.95806315976995 614.4 86.21699054334783 620.8 82.74494484137918 627.2 78.74905293242472 633.6 74.18688754073503 640 73.30751018760057 640 320 0 320"
      />
      
      <polygon
        fill="#89e051"
        fillRule="evenodd"
        points="0 313.6135504684469 6.4 304.9098449441247 12.8 298.33447716338395 19.2 288.0768243522826 25.6 281.2713612349948 32 277.3529764202202 38.4 269.99995447280503 44.800000000000004 260.0717405280024 51.2 250.1731902828732 57.599999999999994 235.18159877166966 64 226.7875054162049 70.4 213.32787803926453 76.8 205.81368199081885 83.2 200.42204624646234 89.60000000000001 190.45085939409415 96 178.68467460523382 102.4 164.78081535922823 108.80000000000001 162.39426315595887 115.19999999999999 158.35640805663252 121.6 150.82954536724407 128 146.47030201747438 134.4 132.5870697118774 140.8 135.70633960806708 147.20000000000002 119.05177729506991 153.6 102.43448095027432 160 97.17066178584935 166.4 87.08412297458591 172.8 77.51849796366744 179.20000000000002 74.59630859185444 185.6 71.29279892480469 192 68.12751398834598 198.4 55.436658070887404 204.8 42.603013258739736 211.20000000000002 40.81642409131507 217.60000000000002 36.30489872995548 224 36.657401669015826 230.39999999999998 34.26581901697557 236.8 23.330641396384067 243.2 19.768633542700968 249.60000000000002 20.331920632594915 256 23.77186520743453 262.4 19.357998230388546 268.8 21.657251642683605 275.2 22.19774368835158 281.6 24.03348495251953 288 26.40178318429554 294.40000000000003 29.5266919728125 300.79999999999995 29.7948792626795 307.2 23.469533085508488 313.6 24.70125494296741 320 22.40429245757855 326.4 17.802012761988465 332.8 12.431436348045452 339.20000000000005 14.83590614389152 345.6 10.202271666716797 352 9.855814199302188 358.40000000000003 12.717269314839314 364.79999999999995 20.455552430941623 371.2 22.80237124628877 377.59999999999997 27.111485998012313 384 30.80887404623911 390.4 30.77287929608235 396.8 35.99882129397912 403.2 39.340587953443446 409.6 45.232414174173414 416 51.02929630231466 422.40000000000003 55.0697445117338 428.8 47.537881779825796 435.20000000000005 51.37870825152231 441.59999999999997 59.104624177703556 448 66.29889555747354 454.4 64.91788033173157 460.79999999999995 67.49728712485509 467.2 73.66117922489428 473.6 78.63288047945628 480 85.77816873275049 486.4 83.41486212926878 492.8 83.84702926296652 499.20000000000005 83.63794320457984 505.6 82.8393401390469 512 87.04899899958349 518.4000000000001 93.69372572467915 524.8 96.6676580561508 531.1999999999999 92.09874713563053 537.6 94.37988050265275 544 101.24179171949905 550.4 101.14619874844453 556.8 101.85666681964986 563.2 105.42986547465418 569.6 105.13625840003465 576 106.01655887142311 582.4 106.49263372509924 588.8000000000001 108.50867175458131 595.2 104.55189960576388 601.5999999999999 89.14702785175268 608 88.95806315976995 614.4 86.21699054334783 620.8 82.74494484137918 627.2 78.74905293242472 633.6 75.29819975519061 640 74.38597806094324 640 320 0 320"
      />
      
      <polygon
        fill="#0141ae"
        fillRule="evenodd"
        points="0 313.69578858215925 6.4 304.98957279224345 12.8 298.4118486914279 19.2 288.1545967399777 25.6 281.34683510244105 32 277.4261464870133 38.4 270.07089106932756 44.800000000000004 260.168671238894 51.2 250.62554543598065 57.599999999999994 236.59144464162955 64 228.16534324026514 70.4 215.56291444957097 76.8 209.34789361310374 83.2 203.84837825227908 89.60000000000001 193.8095366687098 96 182.16693327545744 102.4 169.20012478296889 108.80000000000001 166.68977982406534 115.19999999999999 162.52080732181705 121.6 154.87491050855687 128 151.50325916023297 134.4 138.33061556381492 140.8 141.27456586316416 147.20000000000002 124.45543834602805 153.6 107.98211208713101 160 102.61898556336459 166.4 92.52521262896659 172.8 83.01585510948809 179.20000000000002 79.93119389173486 185.6 76.46484062348233 192 73.6155098475594 198.4 61.0111678941347 204.8 50.21119842904005 211.20000000000002 49.30686115220732 217.60000000000002 44.53616894205959 224 46.726558383793304 230.39999999999998 45.535916824775995 236.8 38.06176836783425 243.2 34.379896671168126 249.60000000000002 35.18790722946659 256 40.45933010114737 262.4 36.76707009207183 268.8 38.53492206473038 275.2 38.69012543562354 281.6 40.022445546371216 288 41.96028139314484 294.40000000000003 45.10759516645652 300.79999999999995 44.918075486508656 307.2 38.1422745469377 313.6 38.92612173449015 320 36.36869218165879 326.4 33.69994160977717 332.8 28.417286651185236 339.20000000000005 30.372791582725995 345.6 26.29385233125953 352 25.536683389996995 358.40000000000003 28.083809053182677 364.79999999999995 35.36794348712641 371.2 37.58880631755761 377.59999999999997 41.460911352789935 384 45.3745586232032 390.4 45.021999573553046 396.8 49.8268172511946 403.2 53.20077187459742 409.6 58.857954558169695 416 64.62551343677777 422.40000000000003 68.6309007477256 428.8 63.21853519217592 435.20000000000005 66.93876828458104 441.59999999999997 74.20482151253202 448 80.93816774260293 454.4 80.26642107357645 460.79999999999995 82.74322423626373 467.2 88.4417451251864 473.6 93.40775394151115 480 100.10204387647988 486.4 98.34476000182286 492.8 99.94039266764318 499.20000000000005 99.86322526909856 505.6 98.67438706711684 512 102.40069421532513 518.4000000000001 108.59170278743576 524.8 111.1108853399314 531.1999999999999 106.11510936767016 537.6 107.96840359785222 544 114.41552718516698 550.4 113.93059877060963 556.8 114.39453227383697 563.2 117.59717785997992 569.6 116.93217052961694 576 117.4524104110356 582.4 117.64295708380234 588.8000000000001 119.31863868249445 595.2 115.05067511496748 601.5999999999999 99.8007246088564 608 99.38391894616103 614.4 97.92052231221251 620.8 95.7257309001809 627.2 92.85910714926308 633.6 90.30680637529159 640 89.17504665553372 640 320 0 320"
      />
      
      <polygon
        fill="#26c0b0"
        fillRule="evenodd"
        points="0 313.69578858215925 6.4 305.07507389683724 12.8 298.52242174567147 19.2 288.39203684668445 25.6 281.7296842078006 32 277.8556750244404 38.4 270.5454196051397 44.800000000000004 260.8000772074286 51.2 251.72754404056798 57.599999999999994 237.7909290253224 64 230.205499541278 70.4 218.21680601395877 76.8 212.42853031812385 83.2 207.4760573471326 89.60000000000001 198.3098094154451 96 186.52983710961752 102.4 173.80643224132487 108.80000000000001 171.15548148917193 115.19999999999999 166.87829789381735 121.6 159.35261633398733 128 156.04890156448334 134.4 143.12374586532056 140.8 145.92421260756285 147.20000000000002 128.9676672680934 153.6 112.62429238704397 160 107.3472747805329 166.4 97.39194554037005 172.8 88.07448175789403 179.20000000000002 84.903481151063 185.6 81.4789422324655 192 78.54020359665105 198.4 65.83887277082323 204.8 55.25798655268966 211.20000000000002 54.27467255215612 217.60000000000002 49.446136332881224 224 52.031522419870726 230.39999999999998 50.75691945188623 236.8 43.28758665384095 243.2 39.62431741377736 249.60000000000002 40.27224530616974 256 46.01558569293985 262.4 42.226242691002255 268.8 45.29491235984898 275.2 46.226327463879045 281.6 47.34236215078408 288 49.12238490883175 294.40000000000003 52.19649741996682 300.79999999999995 51.848109392435845 307.2 44.899199762045214 313.6 45.54057364615039 320 42.902078840744366 326.4 40.529987940818955 332.8 35.111694200970135 339.20000000000005 37.18666727911034 345.6 32.91348908828894 352 31.973537804757598 358.40000000000003 34.3298166669191 364.79999999999995 41.45129882312574 371.2 43.65074267304607 377.59999999999997 47.722462919219765 384 51.450551602080225 390.4 51.04936638868668 396.8 55.67604928135023 403.2 59.077779715299755 409.6 64.64963953130109 416 70.24041429461758 422.40000000000003 74.1193819027115 428.8 68.67702500677262 435.20000000000005 72.3180155571066 441.59999999999997 79.4359862721632 448 86.08175074364857 454.4 85.88902562932955 460.79999999999995 88.9521400662986 467.2 94.4722967259367 473.6 100.00831537910818 480 106.58862656856755 486.4 104.63963832809344 492.8 106.09859390781236 499.20000000000005 105.83345007398651 505.6 104.49635930522444 512 108.04495253897855 518.4000000000001 114.08024487411615 524.8 116.43189023540472 531.1999999999999 111.27885901281448 537.6 112.97453106673001 544 119.26884392385932 550.4 118.6404786014181 556.8 118.96064556965212 563.2 122.0283444065152 569.6 121.47124834011095 576 121.8529367408737 582.4 121.92197585342853 588.8000000000001 123.4698667347649 595.2 119.66079054735002 601.5999999999999 104.27011947446044 608 103.72122232374406 614.4 102.12543293410465 620.8 99.80228854800191 627.2 96.8151845472963 633.6 94.14212650524297 640 92.89701657146853 640 320 0 320"
      />
      
      <polygon
        fill="#dea584"
        fillRule="evenodd"
        points="0 313.69578858215925 6.4 305.07507389683724 12.8 298.52242174567147 19.2 288.39203684668445 25.6 281.7296842078006 32 277.8556750244404 38.4 270.5454196051397 44.800000000000004 260.8000772074286 51.2 251.72754404056798 57.599999999999994 237.7909290253224 64 230.205499541278 70.4 218.6052004378251 76.8 212.8050692323955 83.2 207.84110264291925 89.60000000000001 198.66406597894795 96 187.99627876235613 102.4 176.3318851368132 108.80000000000001 173.60384644073704 115.19999999999999 169.2519277074296 121.6 162.7599583041937 128 159.35223642024837 134.4 148.55744223434954 140.8 151.19204838312334 147.20000000000002 136.32706103443303 153.6 123.07438830167595 160 117.47838865069454 166.4 107.2236402418012 172.8 98.72224964534564 179.20000000000002 95.23655892807261 185.6 91.49661012412605 192 88.25208891344334 198.4 76.38142045852973 204.8 66.58283657419213 211.20000000000002 65.26482159053248 217.60000000000002 60.10081580621778 224 62.371307307095776 230.39999999999998 60.781088436818834 236.8 53.00577475333125 243.2 49.0552896374478 249.60000000000002 49.41534301631077 256 54.888464181972324 262.4 51.93124005477591 268.8 54.70367123044508 275.2 55.37529537251277 281.6 56.212063046811465 288 57.729946455244885 294.40000000000003 60.54131697867433 300.79999999999995 61.064334383606706 307.2 54.089921807900566 313.6 54.45075199085977 320 51.54892437608987 326.4 48.91289237737169 332.8 43.24684605216481 339.20000000000005 45.073499356154855 345.6 41.668847498168645 352 40.48714534981042 358.40000000000003 42.5835531037672 364.79999999999995 49.46109681373781 371.2 51.477920257899484 377.59999999999997 55.31831121953894 384 58.814540933404714 390.4 58.18857479448161 396.8 62.60426242905419 403.2 65.79451210363712 409.6 71.16786221308325 416 76.55967249129517 422.40000000000003 80.24574833616637 428.8 74.62827868234328 435.20000000000005 78.08760934880746 441.59999999999997 85.03506297371626 448 91.50991846047916 454.4 91.15676790094071 460.79999999999995 94.05908678145326 467.2 99.42335612271646 473.6 104.81304972623562 480 111.24669945732805 486.4 109.1600444274114 492.8 110.48101694828534 499.20000000000005 110.08210163789732 505.6 108.62769937571571 512 112.05018568246408 518.4000000000001 117.96710540848403 524.8 120.20010689645005 531.1999999999999 116.05407406036977 537.6 117.60398486262227 544 123.75698725607924 550.4 123.35415263753973 556.8 123.53043634497106 563.2 126.4630784883501 569.6 125.77061408288108 576 126.02106743014821 582.4 125.99997633911465 588.8000000000001 127.4233877759226 595.2 123.49746679282231 601.5999999999999 107.98968366735463 608 107.33085700589513 614.4 105.62488574760084 620.8 103.19492234697015 627.2 100.10755108154382 633.6 97.33399540569883 640 95.99455118691947 640 320 0 320"
      />
      
      <polygon
        fill="#701516"
        fillRule="evenodd"
        points="0 313.69578858215925 6.4 305.07507389683724 12.8 298.52242174567147 19.2 288.39203684668445 25.6 281.7296842078006 32 277.8556750244404 38.4 270.5454196051397 44.800000000000004 260.8000772074286 51.2 251.72754404056798 57.599999999999994 237.7909290253224 64 230.205499541278 70.4 218.6052004378251 76.8 212.8050692323955 83.2 207.84110264291925 89.60000000000001 198.66406597894795 96 187.99627876235613 102.4 176.3318851368132 108.80000000000001 173.60384644073704 115.19999999999999 169.2519277074296 121.6 162.7599583041937 128 159.35223642024837 134.4 148.55744223434954 140.8 151.19204838312334 147.20000000000002 136.32706103443303 153.6 123.07438830167595 160 117.47838865069454 166.4 107.2236402418012 172.8 98.72224964534564 179.20000000000002 95.23655892807261 185.6 91.49661012412605 192 88.25208891344334 198.4 76.38142045852973 204.8 66.58283657419213 211.20000000000002 65.26482159053248 217.60000000000002 60.10081580621778 224 62.371307307095776 230.39999999999998 60.781088436818834 236.8 53.00577475333125 243.2 49.0552896374478 249.60000000000002 49.41534301631077 256 54.888464181972324 262.4 51.93124005477591 268.8 54.70367123044508 275.2 55.37529537251277 281.6 56.212063046811465 288 57.729946455244885 294.40000000000003 60.54131697867433 300.79999999999995 61.064334383606706 307.2 54.089921807900566 313.6 54.45075199085977 320 51.54892437608987 326.4 48.91289237737169 332.8 43.24684605216481 339.20000000000005 45.073499356154855 345.6 41.668847498168645 352 40.48714534981042 358.40000000000003 42.5835531037672 364.79999999999995 49.46109681373781 371.2 51.477920257899484 377.59999999999997 55.31831121953894 384 58.814540933404714 390.4 58.18857479448161 396.8 62.60426242905419 403.2 65.79451210363712 409.6 71.16786221308325 416 76.55967249129517 422.40000000000003 80.24574833616637 428.8 74.62827868234328 435.20000000000005 78.08760934880746 441.59999999999997 85.03506297371626 448 91.50991846047916 454.4 91.15676790094071 460.79999999999995 94.05908678145326 467.2 99.42335612271646 473.6 104.81304972623562 480 111.24669945732805 486.4 109.1600444274114 492.8 110.48101694828534 499.20000000000005 110.08210163789732 505.6 108.62769937571571 512 112.05018568246408 518.4000000000001 117.96710540848403 524.8 120.20010689645005 531.1999999999999 116.05407406036977 537.6 117.60398486262227 544 123.75698725607924 550.4 123.35415263753973 556.8 123.53043634497106 563.2 126.4630784883501 569.6 125.77061408288108 576 126.02106743014821 582.4 125.99997633911465 588.8000000000001 127.4233877759226 595.2 123.49746679282231 601.5999999999999 108.00923989712143 608 107.34983526103537 614.4 105.64328470364649 620.8 103.2127596843878 627.2 100.12486124574986 633.6 97.35077718627952 640 96.0108369917271 640 320 0 320"
      />
      
      <polygon
        fill="#3572A5"
        fillRule="evenodd"
        points="0 313.69578858215925 6.4 305.07507389683724 12.8 298.52242174567147 19.2 288.39203684668445 25.6 281.7296842078006 32 277.8556750244404 38.4 270.5454196051397 44.800000000000004 260.8000772074286 51.2 251.72754404056798 57.599999999999994 237.7909290253224 64 230.205499541278 70.4 218.6052004378251 76.8 212.8050692323955 83.2 207.84110264291925 89.60000000000001 198.66406597894795 96 187.99627876235613 102.4 176.3318851368132 108.80000000000001 173.60384644073704 115.19999999999999 169.2519277074296 121.6 163.42158608494 128 159.99366837544363 134.4 149.21633617539416 140.8 151.83082996373574 147.20000000000002 137.94820620444676 153.6 125.43995715008691 160 119.77175005033376 166.4 109.44922206705422 172.8 100.87989725506534 179.20000000000002 97.33043838558626 185.6 93.52657490566241 192 90.22009037449993 198.4 78.29508225352919 204.8 68.47395559451093 211.20000000000002 67.1000496012471 217.60000000000002 61.88002457334045 224 64.09793263838424 230.39999999999998 62.45500939364837 236.8 54.62860032289251 243.2 50.63015343506419 249.60000000000002 50.94213468677174 256 56.370132798740826 262.4 53.403514915433846 268.8 56.13100583249394 275.2 56.76321888190893 281.6 57.55762094425768 288 59.035737020266424 294.40000000000003 61.807249276111634 300.79999999999995 62.29285256559615 307.2 55.28094028236529 313.6 55.60541520503955 320 52.66946203954711 326.4 49.999226398895814 332.8 44.301074002769724 339.20000000000005 46.095547562948695 345.6 42.65969831775362 352 41.4506372734362 358.40000000000003 43.517634850012314 364.79999999999995 50.36757228956424 371.2 52.37905778848358 377.59999999999997 56.192815948293855 384 59.66235192863593 390.4 59.01050683521885 396.8 63.40190269860011 403.2 66.56780476677613 409.6 71.91830066146412 416 77.28720427022981 422.40000000000003 80.95107267024332 428.8 75.3134423319139 435.20000000000005 78.75185883644224 441.59999999999997 85.67968084479571 448 92.1348597098056 454.4 91.76323934597079 460.79999999999995 94.6470460885308 467.2 99.99336829202434 473.6 105.36621559723778 480 111.78298015909692 486.4 109.68047569600171 492.8 110.98556230688166 499.20000000000005 110.57124597126577 505.6 109.1033376903803 512 112.5113053717537 518.4000000000001 118.41459697935218 524.8 120.63393901993612 531.1999999999999 116.47508453186023 537.6 118.01214426433614 544 124.15268779084599 550.4 123.7381584175786 556.8 123.90272064459285 563.2 126.82436009604663 569.6 126.12086779368661 576 126.36062982745503 582.4 126.33016284881285 588.8000000000001 127.74349553601738 595.2 123.80811398772096 601.5999999999999 108.32982101325356 608 107.66094178637903 614.4 105.94489482403847 620.8 103.50516334427243 627.2 100.40862305485408 633.6 97.62587733409623 640 96.27780669371558 640 320 0 320"
      />
      
      <polygon
        fill="#0298c3"
        fillRule="evenodd"
        points="0 313.69578858215925 6.4 305.07507389683724 12.8 298.52242174567147 19.2 288.39203684668445 25.6 281.7296842078006 32 277.8556750244404 38.4 270.5454196051397 44.800000000000004 260.8000772074286 51.2 251.72754404056798 57.599999999999994 237.7909290253224 64 230.205499541278 70.4 218.6052004378251 76.8 212.8050692323955 83.2 207.84110264291925 89.60000000000001 198.66406597894795 96 187.99627876235613 102.4 176.3318851368132 108.80000000000001 173.60384644073704 115.19999999999999 169.2519277074296 121.6 163.42158608494 128 159.99366837544363 134.4 149.21633617539416 140.8 151.83082996373574 147.20000000000002 137.94820620444676 153.6 126.07806841013382 160 120.3903833280068 166.4 110.04957198319585 172.8 101.46192183565 179.20000000000002 97.89526155836069 185.6 94.07415715236402 192 90.75095801961223 198.4 78.81129176742894 204.8 68.97440804891406 211.20000000000002 67.69018565971601 217.60000000000002 62.45214708568534 224 64.65314634862949 230.39999999999998 62.99327553361809 236.8 55.1504362057554 243.2 51.13656678679081 249.60000000000002 51.43309001696201 256 56.84657822716633 262.4 53.86541713002816 268.8 56.578808720137715 275.2 57.19865719774225 281.6 57.9797677764376 288 59.44540749717811 294.40000000000003 62.2044148019869 300.79999999999995 62.678280078322985 307.2 55.65460285075136 313.6 55.96767195617656 320 53.021012475452835 326.4 50.34004595166448 332.8 44.63182079635283 339.20000000000005 46.41619851933848 345.6 42.97056157870145 352 41.75291708760892 358.40000000000003 43.81068775611078 364.79999999999995 50.65196416115998 371.2 52.654768773968726 377.59999999999997 56.46037842422078 384 59.921747235315365 390.4 59.261984227464495 396.8 63.64594782153978 403.2 66.80440055337021 409.6 72.14790398639462 416 77.50979909397307 422.40000000000003 81.16687290106512 428.8 75.52307424077188 435.20000000000005 78.95509184876232 441.59999999999997 85.87690742028633 448 92.32606604892791 454.4 91.9487946865732 460.79999999999995 94.82693745308717 467.2 100.16776859091493 473.6 105.53546157825738 480 111.94705999553724 486.4 109.83970624294929 492.8 111.13993244661415 499.20000000000005 110.72090403598241 505.6 109.24886345594314 512 112.65238904211057 518.4000000000001 118.55151100035118 524.8 120.76667382540407 531.1999999999999 116.60389642536998 537.6 118.13702424484816 544 124.27375589277091 550.4 123.85564840078996 556.8 124.01662433006376 563.2 126.93489741328622 569.6 126.22803101577512 576 126.46452195258894 582.4 126.43118634778833 588.8000000000001 127.8414353538609 595.2 126.40236462312785 601.5999999999999 115.17769269060213 608 114.40706534305238 614.4 112.69061857426453 620.8 110.04497824575085 627.2 107.19488282217 633.6 104.20499194550078 640 102.66247860935675 640 320 0 320"
      />
      
      <polygon
        fill="#fd2fdb"
        fillRule="evenodd"
        points="0 313.69578858215925 6.4 305.07507389683724 12.8 298.52242174567147 19.2 288.39203684668445 25.6 281.7296842078006 32 277.8556750244404 38.4 270.5454196051397 44.800000000000004 260.8000772074286 51.2 251.72754404056798 57.599999999999994 237.7909290253224 64 230.205499541278 70.4 218.6052004378251 76.8 212.8050692323955 83.2 207.84110264291925 89.60000000000001 198.66406597894795 96 187.99627876235613 102.4 176.3318851368132 108.80000000000001 173.60384644073704 115.19999999999999 169.2519277074296 121.6 163.42158608494 128 159.99366837544363 134.4 149.21633617539416 140.8 151.83082996373574 147.20000000000002 137.94820620444676 153.6 126.07806841013382 160 120.3903833280068 166.4 110.04957198319585 172.8 101.46192183565 179.20000000000002 97.89526155836069 185.6 94.07415715236402 192 90.75095801961223 198.4 78.81129176742894 204.8 68.97440804891406 211.20000000000002 67.69018565971601 217.60000000000002 62.45214708568534 224 64.65314634862949 230.39999999999998 62.99327553361809 236.8 55.1504362057554 243.2 51.13656678679081 249.60000000000002 51.43309001696201 256 56.84657822716633 262.4 53.86541713002816 268.8 56.578808720137715 275.2 58.32826053147437 281.6 59.074890655445756 288 60.5081645492408 294.40000000000003 63.23473184045406 300.79999999999995 64.5589073390114 307.2 57.47782505711666 313.6 57.735241228378015 320 54.736342118649304 326.4 52.003016363002075 332.8 46.24564296310433 339.20000000000005 47.980759620255014 345.6 44.487365383342706 352 43.22783944580516 358.40000000000003 45.24058899019445 364.79999999999995 52.03960530917931 371.2 54.000053043923515 377.59999999999997 57.76590358187832 384 61.18742193450976 390.4 60.48902484155042 396.8 64.8367239049972 403.2 67.95882898016066 409.6 73.2682139009465 416 78.59591219957278 422.40000000000003 82.21983299976739 428.8 76.54593706219285 435.20000000000005 79.94673226296169 441.59999999999997 86.83924051144939 448 93.2590244120097 454.4 92.85417996800078 460.79999999999995 95.70468646063094 467.2 101.01872470964804 473.6 106.36126811440235 480 112.74765930545058 486.4 110.61664432709517 492.8 111.89315491857457 499.20000000000005 111.4511348423791 505.6 109.95893137894936 512 113.34078255442154 518.4000000000001 119.21955941987244 524.8 121.41433044126143 531.1999999999999 117.23241188884955 537.6 118.74635465019438 544 124.86448682131078 550.4 124.42892055960525 556.8 124.57239772823465 563.2 127.4742451884471 569.6 126.75091551974245 576 126.97144570230219 582.4 126.92411312141252 588.8000000000001 128.31931582130562 595.2 126.86612160672257 601.5999999999999 115.62729372084357 608 114.84337867089906 614.4 114.22089701727319 620.8 111.52854591745611 627.2 109.75432892432957 633.6 106.68631210714733 640 105.07046465101729 640 320 0 320"
      />
      
      <polygon
        fill="#4F5D95"
        fillRule="evenodd"
        points="0 313.69578858215925 6.4 305.07507389683724 12.8 298.52242174567147 19.2 288.39203684668445 25.6 281.7296842078006 32 277.8556750244404 38.4 270.5454196051397 44.800000000000004 260.8000772074286 51.2 251.72754404056798 57.599999999999994 237.7909290253224 64 230.205499541278 70.4 218.6052004378251 76.8 212.8050692323955 83.2 207.84110264291925 89.60000000000001 198.66406597894795 96 187.99627876235613 102.4 176.3318851368132 108.80000000000001 173.60384644073704 115.19999999999999 169.2519277074296 121.6 163.42158608494 128 159.99366837544363 134.4 149.21633617539416 140.8 151.83082996373574 147.20000000000002 137.94820620444676 153.6 126.07806841013382 160 120.3903833280068 166.4 110.04957198319585 172.8 101.46192183565 179.20000000000002 97.89526155836069 185.6 94.07415715236402 192 90.75095801961223 198.4 78.81129176742894 204.8 68.97440804891406 211.20000000000002 67.69018565971601 217.60000000000002 62.45214708568534 224 64.67277341739933 230.39999999999998 63.01230349689638 236.8 55.16888335127055 243.2 51.15446873646499 249.60000000000002 51.450445521335894 256 56.863420798671825 262.4 53.88174559113202 268.8 56.594638764090746 275.2 58.343653482482125 281.6 59.0898137449978 288 60.5226465950488 294.40000000000003 63.24877183041485 300.79999999999995 64.5725323851602 307.2 57.49103420591882 313.6 57.748047175820204 320 54.748769592929875 326.4 52.01506449587009 332.8 46.25733501957535 339.20000000000005 47.99209478345392 345.6 44.49835454750706 352 43.23852518091985 358.40000000000003 45.25094854962566 364.79999999999995 52.04965869660714 371.2 54.00979955806832 377.59999999999997 57.77536204272184 384 61.196591681872974 390.4 60.497914687409946 396.8 64.84535101606161 403.2 67.96719275379189 409.6 73.27633048763994 416 78.60378103162583 422.40000000000003 82.22746164072475 428.8 76.55334764988524 435.20000000000005 79.9539166461052 441.59999999999997 86.84621256356411 448 93.26578364666958 454.4 92.86073943691864 460.79999999999995 95.71104570563747 467.2 101.02488984261342 473.6 106.36725104012612 480 112.75345960583653 486.4 110.62227320278612 492.8 111.89861197603196 499.20000000000005 111.45642532604424 505.6 109.96407578396315 512 113.34576992910826 518.4000000000001 119.22439939544705 524.8 121.41902267956851 531.1999999999999 117.23696545042179 537.6 118.75076921681011 544 124.86876663578872 550.4 124.4330738864615 556.8 124.57642427750429 563.2 127.47815273493214 569.6 126.75470379053462 576 126.97511833850689 582.4 126.92768435011811 588.8000000000001 128.3227780403327 595.2 126.86948150160359 601.5999999999999 115.63055105699652 608 114.84653973816006 614.4 114.22396159462352 620.8 111.53151695037295 627.2 109.75721214994803 633.6 106.68910732407437 640 105.07317725669128 640 320 0 320"
      />
      
      <polygon
        fill="#755462"
        fillRule="evenodd"
        points="0 318.0212240480304 6.4 313.5273644289286 12.8 310.89612303518606 19.2 304.6063594263226 25.6 301.5123630722425 32 299.63474849205477 38.4 295.68733384190716 44.800000000000004 289.6072486460395 51.2 284.8540389720597 57.599999999999994 274.44712098236926 64 270.19677906228156 70.4 262.9523768536257 76.8 259.7806344727716 83.2 257.29397487598465 89.60000000000001 251.48860842552972 96 243.11579139026452 102.4 233.69074748138763 108.80000000000001 232.44235329845475 115.19999999999999 230.48707847499594 121.6 226.74327748301246 128 225.02615837972797 134.4 216.76228426523795 140.8 218.7515448869781 147.20000000000002 208.35859127029633 153.6 198.35253177064988 160 194.3476043850788 166.4 186.11875441481533 172.8 178.6990096957139 179.20000000000002 176.47501886584755 185.6 173.8722976357398 192 171.38696992564812 198.4 162.65599547568883 204.8 154.1287424574705 211.20000000000002 153.54800884789694 217.60000000000002 149.77132397598768 224 151.99188865674608 230.39999999999998 150.24051440215501 236.8 143.46422092282432 243.2 140.69800183102228 249.60000000000002 142.92935932330263 256 147.05375050908074 262.4 144.44719054111957 268.8 147.14070476368946 275.2 149.53427405817916 281.6 150.7909350588542 288 152.38220058973525 294.40000000000003 155.03551604649294 300.79999999999995 154.49046762324252 307.2 148.88683943713795 313.6 148.96300960383488 320 145.90473205639913 326.4 141.78908996323878 332.8 137.45872396219045 339.20000000000005 139.37108574403868 345.6 135.06410158717722 352 134.18772677943457 358.40000000000003 137.09698762732035 364.79999999999995 142.4525136363228 371.2 144.39935433162105 377.59999999999997 146.97584250469592 384 149.82620587247484 390.4 149.06467675625495 396.8 151.71943369455676 403.2 154.19239398661884 409.6 158.30292822617847 416 162.4216254735461 422.40000000000003 164.48566020691825 428.8 158.22329334770077 435.20000000000005 161.34783046521153 441.59999999999997 165.87471279191607 448 170.07086271026046 454.4 168.563746017527 460.79999999999995 169.21378105532676 467.2 173.47274035076543 473.6 177.15389188823355 480 181.49367918281922 486.4 177.55137265599527 492.8 179.11023207103122 499.20000000000005 179.84345685333685 505.6 178.8521446277247 512 181.1912389117593 518.4000000000001 185.218490180293 524.8 189.19427841635954 531.1999999999999 186.2690776419675 537.6 186.94224905039906 544 190.98335832349258 550.4 193.0612428515724 556.8 195.38489983906683 563.2 199.02887497689676 569.6 200.45626347215602 576 202.54865791227576 582.4 204.68152024517934 588.8000000000001 208.14743254469647 595.2 207.1113506281192 601.5999999999999 197.53798240102475 608 198.09259211685765 614.4 198.37925254222768 620.8 197.548379053781 627.2 197.64429195568823 633.6 195.98826630564236 640 195.71831017690442 640 320 0 320"
      />
      
      <polygon
        fill="#2415b9"
        fillRule="evenodd"
        points="0 318.0212240480304 6.4 313.5273644289286 12.8 310.89612303518606 19.2 304.6063594263226 25.6 301.5123630722425 32 299.63474849205477 38.4 295.68733384190716 44.800000000000004 289.6072486460395 51.2 284.8540389720597 57.599999999999994 274.44712098236926 64 270.19677906228156 70.4 262.9523768536257 76.8 259.7806344727716 83.2 257.29397487598465 89.60000000000001 251.48860842552972 96 243.11579139026452 102.4 233.69074748138763 108.80000000000001 232.44235329845475 115.19999999999999 230.48707847499594 121.6 226.74327748301246 128 225.02615837972797 134.4 216.76228426523795 140.8 218.7515448869781 147.20000000000002 208.35859127029633 153.6 198.35253177064988 160 194.3476043850788 166.4 186.11875441481533 172.8 178.6990096957139 179.20000000000002 176.47501886584755 185.6 173.8722976357398 192 171.38696992564812 198.4 162.65599547568883 204.8 154.1287424574705 211.20000000000002 153.54800884789694 217.60000000000002 149.77132397598768 224 151.99188865674608 230.39999999999998 150.24051440215501 236.8 143.46422092282432 243.2 140.69800183102228 249.60000000000002 142.92935932330263 256 147.05375050908074 262.4 144.44719054111957 268.8 147.14070476368946 275.2 149.53427405817916 281.6 150.7909350588542 288 152.38220058973525 294.40000000000003 155.03551604649294 300.79999999999995 154.49046762324252 307.2 148.88683943713795 313.6 148.96300960383488 320 145.90473205639913 326.4 142.14872053779294 332.8 137.81835453674466 339.20000000000005 139.7307163185929 345.6 135.42373216173144 352 134.54735735398882 358.40000000000003 137.45661820187456 364.79999999999995 142.81214421087702 371.2 144.75898490617527 377.59999999999997 147.33547307925016 384 150.1858364470291 390.4 149.4243073308092 396.8 152.07906426911097 403.2 154.55202456117306 409.6 158.66255880073268 416 162.78125604810032 422.40000000000003 164.8452907814725 428.8 158.58292392225502 435.20000000000005 161.70746103976575 441.59999999999997 166.23434336647028 448 170.43049328481467 454.4 168.9233765920812 460.79999999999995 169.57341162988098 467.2 173.83237092531968 473.6 177.51352246278776 480 181.85330975737347 486.4 177.91100323054945 492.8 179.46986264558544 499.20000000000005 180.20308742789106 505.6 179.21177520227894 512 181.55086948631353 518.4000000000001 185.57812075484722 524.8 189.55390899091378 531.1999999999999 186.62870821652174 537.6 187.30187962495327 544 191.3429888980468 550.4 193.4208734261266 556.8 195.74453041362105 563.2 199.38850555145098 569.6 200.81589404671024 576 202.90828848682995 582.4 205.04115081973356 588.8000000000001 208.5070631192507 595.2 207.4709812026734 601.5999999999999 197.89761297557897 608 198.45222269141186 614.4 198.7388831167819 620.8 197.9080096283352 627.2 198.00392253024242 633.6 196.34789688019657 640 196.07794075145867 640 320 0 320"
      />
      
      <polygon
        fill="#f1e05a"
        fillRule="evenodd"
        points="0 318.0212240480304 6.4 313.5273644289286 12.8 310.89612303518606 19.2 304.6063594263226 25.6 301.5123630722425 32 299.63474849205477 38.4 295.68733384190716 44.800000000000004 289.6072486460395 51.2 284.8540389720597 57.599999999999994 275.5586255478064 64 271.2743555655573 70.4 264.38153704322264 76.8 261.62328762183165 83.2 259.0916320750724 89.60000000000001 253.2331369888322 96 246.0081362126137 102.4 237.61105571422092 108.80000000000001 236.29003567803068 115.19999999999999 234.21731239327917 121.6 230.51369477491932 128 228.68148566765007 134.4 222.60344104772093 140.8 224.41440350945066 147.20000000000002 213.85408707101465 153.6 203.68027994489927 160 199.51272761351476 166.4 191.13122391749957 172.8 184.6746580379209 179.20000000000002 182.27405982550243 185.6 179.49432678257364 192 176.8373888081391 198.4 169.2790071087814 204.8 161.914438196823 211.20000000000002 161.10360267049035 217.60000000000002 157.65213480969828 224 159.74993394249495 230.39999999999998 157.76174911965552 236.8 151.88564795900743 243.2 148.8705398492316 249.60000000000002 150.85243435314118 256 154.74266246820918 262.4 153.00436167894205 268.8 155.44771379130424 275.2 157.6119158429229 281.6 159.39926107711722 288 161.38433544484218 294.40000000000003 163.76286231716261 300.79999999999995 164.08008881984563 307.2 158.18374086885655 313.6 157.97612757668873 320 154.65147001865517 326.4 150.62847143304137 332.8 146.04749121477735 339.20000000000005 147.70866337049057 345.6 144.26957773423266 352 143.14895417044394 358.40000000000003 145.79565798349103 364.79999999999995 150.9047271047196 371.2 152.60454680599992 377.59999999999997 154.94916367988893 384 157.5671224677157 390.4 156.58028479653763 396.8 159.02355018655555 403.2 161.28453435382244 409.6 165.19609383311823 416 169.11535743160886 422.40000000000003 170.98604798649555 428.8 165.66904058008643 435.20000000000005 168.57727891604748 441.59999999999997 172.90112820558167 448 176.89377869727633 454.4 175.19564083406584 460.79999999999995 175.65422078141248 467.2 179.72756600343837 473.6 183.23448762470696 480 187.39964591590697 486.4 183.29341864293366 492.8 184.68798514555144 499.20000000000005 185.26192892987746 505.6 184.13093320931225 512 186.3198742276042 518.4000000000001 190.20617918411017 524.8 194.04069887915423 531.1999999999999 190.98289275602593 537.6 191.5231565205354 544 195.43541324131394 550.4 197.39234804757876 556.8 199.59477808946107 563.2 203.12496200343836 569.6 204.43829664177392 576 206.42011968195078 582.4 208.4560147202857 588.8000000000001 211.81768963904221 595.2 210.68376457331985 601.5999999999999 201.0123276573343 608 201.47488376251445 614.4 201.66927921720554 620.8 200.74895687098183 627.2 200.76090733640584 633.6 199.02072648788885 640 198.67177627043097 640 320 0 320"
      />
      
      <polygon
        fill="#22e8e8"
        fillRule="evenodd"
        points="0 319.92567426549317 6.4 319.85646900248264 12.8 319.8272329068504 19.2 318.6603030534031 25.6 318.5475301081095 32 318.4075980608555 38.4 318.26954458377526 44.800000000000004 316.0115360705753 51.2 316.0194992059851 57.599999999999994 310.2712012572864 64 309.37987209576465 70.4 306.93693632258106 76.8 307.0222673589036 83.2 306.2791060351989 89.60000000000001 304.5841167890444 96 300.1563041264219 102.4 294.75364753393364 108.80000000000001 293.4787876232613 115.19999999999999 293.78096190127314 121.6 290.88386208456785 128 291.2549286647891 134.4 286.978542801975 140.8 287.29592660707135 147.20000000000002 280.08963382361634 153.6 272.3565366554077 160 270.6873687509291 166.4 264.6410450170235 172.8 259.71605122300593 179.20000000000002 258.48213158501477 185.6 256.4976239436995 192 254.709581180318 198.4 249.75804129654034 204.8 243.8433281834769 211.20000000000002 243.32682459451865 217.60000000000002 241.83029209674848 224 242.76855594584447 230.39999999999998 241.70747819388725 236.8 237.21785564973842 243.2 234.0443765100882 249.60000000000002 235.7303156014582 256 237.40441791484895 262.4 235.56052547882896 268.8 237.00508484412507 275.2 238.39936510135584 281.6 240.81757531694905 288 242.54149931913977 294.40000000000003 244.59170916479042 300.79999999999995 243.7603629512011 307.2 239.79407009257028 313.6 239.82807717070654 320 237.43531490777642 326.4 235.7225831330989 332.8 231.99178603333593 339.20000000000005 232.2007329384258 345.6 229.58699638822202 352 229.00007795477882 358.40000000000003 230.61538183032297 364.79999999999995 233.24733610434066 371.2 234.38589578065307 377.59999999999997 235.44978083970074 384 235.98082395370795 390.4 235.02390754633274 396.8 236.2727524594023 403.2 237.10995918200905 409.6 239.17609286326655 416 241.04017458983628 422.40000000000003 242.01074372463938 428.8 236.8473468668135 435.20000000000005 238.18588919376288 441.59999999999997 240.60232984197643 448 242.6985496725177 454.4 240.20795042553806 460.79999999999995 240.05522004709815 467.2 242.49391073070456 473.6 244.4776293836399 480 246.78131824311282 486.4 243.48882604366742 492.8 244.04377434654864 499.20000000000005 246.20496205689267 505.6 246.89560308561695 512 247.9972832630184 518.4000000000001 250.11825317795524 524.8 252.23285711796456 531.1999999999999 249.58179728472078 537.6 249.4427569119866 544 251.5949127573297 550.4 252.51204254580628 556.8 253.3534558158678 563.2 255.30238930423099 569.6 256.1532914270021 576 257.94406021068903 582.4 258.9969790546268 588.8000000000001 260.82648387355255 595.2 259.2206032746515 601.5999999999999 252.11871140111697 608 252.09484660389398 614.4 251.32928530350713 620.8 250.03623463720396 627.2 248.8402548462675 633.6 247.3803464346917 640 245.67969284977806 640 320 0 320"
      />
      
      <polygon
        fill="#22e4e8"
        fillRule="evenodd"
        points="0 319.92567426549317 6.4 319.85646900248264 12.8 319.8272329068504 19.2 318.6603030534031 25.6 318.5475301081095 32 318.4075980608555 38.4 318.26954458377526 44.800000000000004 316.0115360705753 51.2 316.0194992059851 57.599999999999994 310.2712012572864 64 309.37987209576465 70.4 306.93693632258106 76.8 307.0222673589036 83.2 306.2791060351989 89.60000000000001 304.5841167890444 96 300.1563041264219 102.4 294.75364753393364 108.80000000000001 293.4787876232613 115.19999999999999 293.78096190127314 121.6 290.88386208456785 128 291.2549286647891 134.4 286.978542801975 140.8 287.29592660707135 147.20000000000002 280.08963382361634 153.6 272.3565366554077 160 270.6873687509291 166.4 264.6410450170235 172.8 259.71605122300593 179.20000000000002 258.48213158501477 185.6 256.4976239436995 192 254.709581180318 198.4 249.75804129654034 204.8 243.8433281834769 211.20000000000002 243.32682459451865 217.60000000000002 241.83029209674848 224 242.76855594584447 230.39999999999998 241.70747819388725 236.8 237.21785564973842 243.2 234.0443765100882 249.60000000000002 235.7303156014582 256 237.40441791484895 262.4 235.56052547882896 268.8 237.00508484412507 275.2 238.39936510135584 281.6 240.81757531694905 288 242.54149931913977 294.40000000000003 244.59170916479042 300.79999999999995 243.7603629512011 307.2 239.79407009257028 313.6 239.82807717070654 320 237.43531490777642 326.4 235.77395892946382 332.8 232.0431618297008 339.20000000000005 232.25210873479068 345.6 229.6383721845869 352 229.05145375114373 358.40000000000003 230.66675762668783 364.79999999999995 233.29871190070554 371.2 234.43727157701798 377.59999999999997 235.50115663606562 384 236.0321997500728 390.4 235.07528334269762 396.8 236.32412825576722 403.2 237.16133497837396 409.6 239.22746865963146 416 241.09155038620116 422.40000000000003 242.06211952100426 428.8 236.89872266317838 435.20000000000005 238.23726499012776 441.59999999999997 240.6537056383413 448 242.74992546888257 454.4 240.25932622190294 460.79999999999995 240.10659584346303 467.2 242.54528652706946 473.6 244.5290051800048 480 246.8326940394777 486.4 243.5402018400323 492.8 244.09515014291352 499.20000000000005 246.25633785325758 505.6 246.94697888198183 512 248.04865905938328 518.4000000000001 250.16962897432015 524.8 252.28423291432944 531.1999999999999 249.63317308108566 537.6 249.49413270835151 544 251.6462885536946 550.4 252.56341834217116 556.8 253.4048316122327 563.2 255.35376510059587 569.6 256.204667223367 576 257.99543600705397 582.4 259.0483548509917 588.8000000000001 260.87785966991737 595.2 259.2719790710164 601.5999999999999 252.17008719748185 608 252.1462224002589 614.4 251.38066109987204 620.8 250.08761043356884 627.2 248.89163064263238 633.6 247.4317222310566 640 245.73106864614294 640 320 0 320"
      />
      
      <polygon
        fill="#e34c26"
        fillRule="evenodd"
        points="0 319.92567426549317 6.4 319.85646900248264 12.8 319.8272329068504 19.2 318.6603030534031 25.6 318.6387624663822 32 318.5126030165642 38.4 318.3713443237681 44.800000000000004 316.1105249513551 51.2 316.20707538271205 57.599999999999994 311.64862345115404 64 310.75104699279433 70.4 308.26758681345086 76.8 308.3123005561737 83.2 307.5297617395871 89.60000000000001 305.79780976573153 96 302.0857701438991 102.4 297.72660745412963 108.80000000000001 296.3609990835355 115.19999999999999 296.5751958038266 121.6 294.7044049942109 128 294.97529288158427 134.4 291.71974378428575 140.8 292.1942312811118 147.20000000000002 288.1167947783679 153.6 282.476051925782 160 280.509103740477 166.4 276.0942030073994 172.8 271.33210028582045 179.20000000000002 270.33209978625825 185.6 269.08200093385165 192 268.3241312539559 198.4 264.11127051528075 204.8 258.73415476289546 211.20000000000002 258.87804079799116 217.60000000000002 257.3390862776465 224 258.0372843880365 230.39999999999998 256.5238365839908 236.8 252.72249763877426 243.2 250.1933562693617 249.60000000000002 252.19007577307036 256 254.18867686394506 262.4 252.86781469530192 268.8 253.8009896587412 275.2 254.9077391065203 281.6 256.8330550693684 288 258.58292898630305 294.40000000000003 260.45210593830274 300.79999999999995 259.97208283299545 307.2 257.86440085678197 313.6 257.5420510261083 320 255.72567074004814 326.4 254.32303402458578 332.8 252.44402099141917 339.20000000000005 252.30170643918268 345.6 249.89600281865145 352 249.60731060794717 358.40000000000003 250.6398762930951 364.79999999999995 252.68976950971276 371.2 254.04382290884587 377.59999999999997 254.8813462091098 384 255.76538111726495 390.4 254.20611637802114 396.8 254.90085894207238 403.2 255.1710207250406 409.6 256.70488677073484 416 258.105138560079 422.40000000000003 258.55637648484355 428.8 255.1694601338502 435.20000000000005 257.12073281359767 441.59999999999997 258.97908743354276 448 260.51593992345425 454.4 258.60054717512367 460.79999999999995 258.0205838942408 467.2 259.9124696469446 473.6 261.38291018616906 480 263.17214648122626 486.4 261.8204356129042 492.8 263.55761497128833 499.20000000000005 265.2078652492039 505.6 265.57697188389443 512 267.2215082484899 518.4000000000001 268.77582984493614 524.8 270.3394345340276 531.1999999999999 268.4386442255462 537.6 268.9636236906371 544 270.52148590146567 550.4 271.98380022822755 556.8 273.4494653871799 563.2 274.8252299409778 569.6 276.2041683887236 576 277.5410196813356 582.4 278.71337594914655 588.8000000000001 279.97362872422184 595.2 278.9297479617564 601.5999999999999 275.7239334404576 608 277.0324937568624 614.4 278.2862951231709 620.8 278.4158875239441 627.2 279.644863816717 633.6 279.5825106433367 640 280.7770270358144 640 320 0 320"
      />
      
      <polygon
        fill="#00ADD8"
        fillRule="evenodd"
        points="0 319.92567426549317 6.4 319.85646900248264 12.8 319.8272329068504 19.2 318.6603030534031 25.6 318.6387624663822 32 318.515362786966 38.4 318.37401985379034 44.800000000000004 316.6121807296607 51.2 316.6934183994079 57.599999999999994 313.139443638529 64 312.1963607602843 70.4 310.88203204138966 76.8 310.8639641499483 83.2 310.00353736553745 89.60000000000001 308.6617072958755 96 305.8714485133645 102.4 303.7931583836476 108.80000000000001 303.02444911970485 115.19999999999999 303.31529339059273 121.6 302.49018704490123 128 302.9132407934641 134.4 300.97569151369004 140.8 301.5563964144686 147.20000000000002 299.63115880998515 153.6 295.8211975984417 160 294.0784533884731 166.4 290.71613791628755 172.8 287.7123872380358 179.20000000000002 287.3468151451084 185.6 286.1158311714973 192 284.9373139387366 198.4 282.37654673879905 204.8 277.94386094831424 211.20000000000002 278.07966659815764 217.60000000000002 276.0328284227205 224 276.2116901854923 230.39999999999998 274.1490238156308 236.8 270.3047347046532 243.2 268.0869666242693 249.60000000000002 269.6660697470985 256 271.1481837920214 262.4 270.41254434728666 268.8 270.81018520202986 275.2 272.1628901098103 281.6 273.5615116834848 288 274.92289107595155 294.40000000000003 276.29330665926125 300.79999999999995 276.4643310031969 307.2 274.6332655622553 313.6 273.79906278246204 320 272.04438071777236 326.4 270.1436227760427 332.8 268.2494960111015 339.20000000000005 268.72860665143986 345.6 266.9323453327393 352 266.17325838554996 358.40000000000003 266.7001485473332 364.79999999999995 268.27539208401083 371.2 269.7730243937289 377.59999999999997 270.1456851032604 384 271.6310213045542 390.4 270.8758843649181 396.8 271.2113898930153 403.2 272.69785618715144 409.6 274.0958301689128 416 275.4691620684777 422.40000000000003 275.70899270126444 428.8 272.95248922466203 435.20000000000005 274.36095195543214 441.59999999999997 275.70977375722146 448 277.0617247560157 454.4 276.49361705665353 460.79999999999995 276.69947226906976 467.2 278.021189433716 473.6 279.09849724157675 480 280.3469786195112 486.4 279.2673642438969 492.8 280.47751527043107 499.20000000000005 281.61129597016566 505.6 281.52748488677855 512 282.68513385673987 518.4000000000001 283.7824348640108 524.8 284.88797603526064 531.1999999999999 282.6100822438814 537.6 282.841787085487 544 283.9760240022933 550.4 285.0406958302865 556.8 286.10780749484906 563.2 287.1094654187026 569.6 288.11343145158366 576 289.0867558292452 582.4 289.94031541645904 588.8000000000001 290.8578758060353 595.2 291.7191565075575 601.5999999999999 290.3472370005608 608 291.2236148703009 614.4 292.10199685231623 620.8 292.928405344282 627.2 293.72847182861864 633.6 293.55462290196726 640 294.3362011935825 640 320 0 320"
      />
      
      <polygon
        fill="#244776"
        fillRule="evenodd"
        points="0 319.92567426549317 6.4 319.85646900248264 12.8 319.8272329068504 19.2 318.6603030534031 25.6 318.6387624663822 32 318.515362786966 38.4 318.37401985379034 44.800000000000004 316.6121807296607 51.2 316.6934183994079 57.599999999999994 313.139443638529 64 312.1963607602843 70.4 310.88203204138966 76.8 310.8639641499483 83.2 310.00353736553745 89.60000000000001 308.6617072958755 96 305.8714485133645 102.4 303.7931583836476 108.80000000000001 303.02444911970485 115.19999999999999 303.31529339059273 121.6 302.49018704490123 128 302.9132407934641 134.4 300.97569151369004 140.8 301.5563964144686 147.20000000000002 299.63115880998515 153.6 295.8211975984417 160 294.0784533884731 166.4 290.71613791628755 172.8 287.7123872380358 179.20000000000002 287.3468151451084 185.6 286.1158311714973 192 284.9373139387366 198.4 282.37654673879905 204.8 277.94386094831424 211.20000000000002 278.07966659815764 217.60000000000002 276.0328284227205 224 276.2116901854923 230.39999999999998 274.1490238156308 236.8 270.3047347046532 243.2 268.0869666242693 249.60000000000002 269.6660697470985 256 271.1481837920214 262.4 270.41254434728666 268.8 270.81018520202986 275.2 272.1628901098103 281.6 273.5615116834848 288 274.92289107595155 294.40000000000003 276.29330665926125 300.79999999999995 276.4643310031969 307.2 274.6332655622553 313.6 273.79906278246204 320 272.04438071777236 326.4 270.1436227760427 332.8 268.2494960111015 339.20000000000005 268.72860665143986 345.6 266.9323453327393 352 266.17325838554996 358.40000000000003 266.7001485473332 364.79999999999995 268.27539208401083 371.2 269.7730243937289 377.59999999999997 270.1456851032604 384 271.6310213045542 390.4 270.8758843649181 396.8 271.2113898930153 403.2 272.69785618715144 409.6 274.0958301689128 416 275.4691620684777 422.40000000000003 275.70899270126444 428.8 272.95248922466203 435.20000000000005 274.36095195543214 441.59999999999997 275.70977375722146 448 277.0617247560157 454.4 276.49361705665353 460.79999999999995 276.69947226906976 467.2 278.021189433716 473.6 279.09849724157675 480 280.3469786195112 486.4 279.2673642438969 492.8 280.47751527043107 499.20000000000005 281.61129597016566 505.6 281.52748488677855 512 282.68513385673987 518.4000000000001 283.7824348640108 524.8 284.88797603526064 531.1999999999999 282.6100822438814 537.6 282.841787085487 544 283.9760240022933 550.4 285.0406958302865 556.8 286.10780749484906 563.2 287.1094654187026 569.6 288.11343145158366 576 289.0867558292452 582.4 289.94031541645904 588.8000000000001 290.8578758060353 595.2 291.7191565075575 601.5999999999999 290.4027982083778 608 291.2775339946393 614.4 292.1542701283578 620.8 292.9790830052253 627.2 293.77765173816306 633.6 293.6023016240996 640 294.38247079372985 640 320 0 320"
      />
      
      <polygon
        fill="#563d7c"
        fillRule="evenodd"
        points="0 319.92567426549317 6.4 319.85646900248264 12.8 319.8272329068504 19.2 318.6603030534031 25.6 318.6387624663822 32 318.515362786966 38.4 318.37401985379034 44.800000000000004 316.6121807296607 51.2 316.6934183994079 57.599999999999994 314.2496036993752 64 313.27263385960623 70.4 311.92649643290184 76.8 311.8765468800199 83.2 310.9852115945032 89.60000000000001 309.6143686878696 96 306.7950303826034 102.4 305.79142173003703 108.80000000000001 304.9617166546116 115.19999999999999 305.193426767374 121.6 304.3146367217933 128 304.68200034011574 134.4 303.8118358386377 140.8 304.3059689262357 147.20000000000002 302.2994690943744 153.6 298.40805936681545 160 296.58635281836905 166.4 293.149917690271 172.8 290.0718770967177 179.20000000000002 289.6365717106199 185.6 288.33569425410536 192 287.08941676425786 198.4 284.4692265714676 204.8 279.9726629928273 211.20000000000002 280.0485083617396 217.60000000000002 277.94157242374035 224 278.0640224318359 230.39999999999998 275.94481442928503 236.8 273.1750964402474 243.2 271.6223227965456 249.60000000000002 273.0935114701167 256 274.47432919311774 262.4 273.63716110510984 268.8 273.9363723046166 275.2 275.202758065383 281.6 276.508589299485 288 277.7828694548456 294.40000000000003 279.0659859492014 300.79999999999995 279.1550653841771 307.2 277.24186679335764 313.6 276.3280376942944 320 274.49861309353713 326.4 272.5229412260832 332.8 270.5584948673835 339.20000000000005 270.967124799466 345.6 269.1025340826065 352 268.2835245643206 358.40000000000003 268.74600016362785 364.79999999999995 270.26077952556363 371.2 271.6978090486413 377.59999999999997 272.0135839076478 384 273.4419032501359 390.4 272.6314904746812 396.8 272.915109942004 403.2 274.3495710862698 409.6 275.6987295331023 416 277.0231338985023 422.40000000000003 277.2155304915245 428.8 275.39029295652 435.20000000000005 276.7243430865868 441.59999999999997 278.0033163079187 448 279.28525822826765 454.4 278.651435028514 460.79999999999995 278.7914242094554 467.2 280.04928578029023 473.6 281.0666540630416 480 282.255058845242 486.4 281.1190520322509 492.8 282.2726813599047 499.20000000000005 283.3516655600008 505.6 283.2198002282354 512 284.32579217072254 518.4000000000001 285.3746042903779 524.8 286.4315456022921 531.1999999999999 284.1080322615242 537.6 284.29401305537147 544 285.38392170205503 550.4 286.40698386156595 556.8 287.4323902986649 563.2 288.3949008932044 569.6 289.3596297918793 576 290.29491470789947 582.4 291.11511496301773 588.8000000000001 291.99681535498604 595.2 292.82443525123955 601.5999999999999 291.474338980345 608 292.3174059037144 614.4 293.1624005805406 620.8 293.956440742532 627.2 294.72612425597634 633.6 294.5218225448906 640 295.27481576777245 640 320 0 320"
      />
      
      <polygon
        fill="#178600"
        fillRule="evenodd"
        points="0 320 6.4 320 12.8 320 19.2 320 25.6 320 32 320 38.4 320 44.800000000000004 320 51.2 320 57.599999999999994 318.73032867485483 64 318.769084736379 70.4 318.8054638247582 76.8 318.8419263063301 83.2 318.8772757826495 89.60000000000001 318.9104573544898 96 318.94371493168313 102.4 318.97493298223725 108.80000000000001 319.0062225478999 115.19999999999999 319.03655700668264 121.6 319.0640956049024 128 319.0926635891284 134.4 319.11947939154425 140.8 319.1463568038151 147.20000000000002 319.1715857928341 153.6 319.1856777935961 160 319.2105345033195 166.4 319.2338667493125 172.8 319.2572524877846 179.20000000000002 319.2792040195255 185.6 318.19414087080094 192 318.24926367867243 198.4 318.2976042751893 204.8 316.1388747322988 211.20000000000002 316.2474855291008 217.60000000000002 316.36202875076003 224 316.4695468974001 230.39999999999998 316.577312182171 236.8 316.24156056400926 243.2 315.6381787566209 249.60000000000002 315.771320776926 256 315.8962972309085 262.4 316.0215601563315 268.8 316.1429997977406 275.2 316.24949783684315 281.6 316.3639798391034 288 316.47144065035474 294.40000000000003 316.579147767449 300.79999999999995 316.6802491387741 307.2 315.9758120647004 313.6 316.0986478947515 320 314.3108448816613 326.4 314.48450308799886 332.8 313.5209117008313 339.20000000000005 313.7186820069252 345.6 313.9104157596978 352 312.9761240919487 358.40000000000003 313.1905234383807 364.79999999999995 313.3917737045917 371.2 313.5934865892986 377.59999999999997 313.7828276684829 384 313.9726029450726 390.4 314.1565861760311 396.8 314.3292852990021 403.2 314.50238022110835 409.6 314.66485949598876 416 314.8277115639227 422.40000000000003 314.985592869431 428.8 313.2129035264645 435.20000000000005 313.42007591154794 441.59999999999997 313.6145420346744 448 313.80945430521655 454.4 313.1987265809608 460.79999999999995 313.406331447498 467.2 313.60759941780844 473.6 313.79652373653266 480 313.985880947717 486.4 314.16362517389103 492.8 314.34177711838504 499.20000000000005 314.5144912430886 505.6 314.66595520814815 512 314.82877384071384 518.4000000000001 314.9816064569885 524.8 315.13478996995235 531.1999999999999 315.27857869928977 537.6 315.422697466743 544 315.5624169247535 550.4 315.6935675164399 556.8 315.825018656535 563.2 315.9484083690467 569.6 316.07208054568684 576 316.1919781425681 582.4 316.29712389878426 588.8000000000001 316.4101519557322 595.2 316.51624811280533 601.5999999999999 316.6225878528042 608 316.7224052402265 614.4 316.8224518972777 620.8 316.9194447769929 627.2 317.01048895599865 633.6 317.10174192624083 640 317.18739848988434 640 320 0 320"
      />
      
      <polygon
        fill="#555555"
        fillRule="evenodd"
        points="0 320 6.4 320 12.8 320 19.2 320 25.6 320 32 320 38.4 320 44.800000000000004 320 51.2 320 57.599999999999994 318.73032867485483 64 318.769084736379 70.4 318.8054638247582 76.8 318.8419263063301 83.2 318.8772757826495 89.60000000000001 318.9104573544898 96 318.94371493168313 102.4 318.97493298223725 108.80000000000001 319.0062225478999 115.19999999999999 319.03655700668264 121.6 319.0640956049024 128 319.0926635891284 134.4 319.11947939154425 140.8 319.1463568038151 147.20000000000002 319.1715857928341 153.6 319.1856777935961 160 319.2105345033195 166.4 319.2338667493125 172.8 319.2572524877846 179.20000000000002 319.2792040195255 185.6 318.19414087080094 192 318.24926367867243 198.4 318.2976042751893 204.8 317.2428493527659 211.20000000000002 317.31883271706727 217.60000000000002 317.4006737030664 224 317.4774953251364 230.39999999999998 317.55449349499304 236.8 317.1889139114745 243.2 316.55753363083807 249.60000000000002 316.6626128553979 256 316.7612476028134 262.4 316.8601085064845 268.8 316.95595190413184 275.2 317.04000301523956 281.6 317.1303552650199 288 317.21516627553166 294.40000000000003 317.30017158930525 300.79999999999995 317.37996354414275 307.2 317.45993891057327 313.6 317.53747259090574 320 316.50570994028044 326.4 316.61237112836204 332.8 315.5858916563801 339.20000000000005 315.7206297171751 345.6 315.85125514547104 352 314.86337359003693 358.40000000000003 315.0201658725145 364.79999999999995 315.16734208553555 371.2 315.31485679312846 377.59999999999997 315.453323606472 384 315.5921078914116 390.4 315.72665661184664 396.8 315.8529532182925 403.2 315.97953907047184 409.6 316.09836165963964 416 316.217456859058 422.40000000000003 316.33291706675624 428.8 315.58525490475995 435.20000000000005 315.72001259110914 441.59999999999997 315.84650524759394 448 315.97328838283136 454.4 316.0922956885373 460.79999999999995 316.2115761079768 467.2 316.3272155247279 473.6 316.4357628210456 480 316.5445589817209 486.4 316.6466827622191 492.8 316.7490406108455 499.20000000000005 316.84827460554976 505.6 316.93529893674474 512 317.0288470693137 518.4000000000001 317.1166578611994 524.8 317.2046700462069 531.1999999999999 317.2872846900483 537.6 317.3700888078267 544 317.45036533917545 550.4 317.5257185279586 556.8 317.6012443394176 563.2 317.6721384687068 569.6 317.74319504826417 576 317.8120827472022 582.4 317.87249477551075 588.8000000000001 317.93743549806754 595.2 317.99839349696407 601.5999999999999 318.0594916079324 608 318.11684207033426 614.4 318.1743244966067 620.8 318.23005223393005 627.2 318.28236204227284 633.6 318.33479186447596 640 318.3840062399871 640 320 0 320"
      />
      
      <polygon
        fill="#C1F12E"
        fillRule="evenodd"
        points="0 320 6.4 320 12.8 320 19.2 320 25.6 320 32 320 38.4 320 44.800000000000004 320 51.2 320 57.599999999999994 319.00777462098324 64 319.03806178320787 70.4 319.0664914021391 76.8 319.09498616558017 83.2 319.12261113678875 89.60000000000001 319.1485419397364 96 319.17453213310466 102.4 319.1989284951423 108.80000000000001 319.2233807232209 115.19999999999999 319.24708657400504 121.6 319.2686074840959 128 319.2909328672318 134.4 319.3118889209919 140.8 319.33289314469874 147.20000000000002 319.35260914086206 153.6 319.3611755103225 160 319.3806752554837 166.4 319.39897908513234 172.8 319.4173248682563 179.20000000000002 319.4345455522653 185.6 319.4408448003086 192 319.457912682424 198.4 319.4728805891383 204.8 319.4862107998669 211.20000000000002 319.50139553299215 217.60000000000002 319.5166151605582 224 319.5309013412801 230.39999999999998 319.5452203203105 236.8 319.30910743537675 243.2 318.61506604819425 249.60000000000002 318.65734031397835 256 318.69702184882306 262.4 318.73679452433055 268.8 318.7753530870183 275.2 318.8091676086697 281.6 318.8455171148654 288 318.87963727112947 294.40000000000003 318.91383562135553 300.79999999999995 318.9459366574466 307.2 318.9781114691813 313.6 319.00930387293783 320 319.03858345304417 326.4 319.0679301299405 332.8 319.0954771126902 339.20000000000005 319.12308697941467 345.6 319.14985428307875 352 319.1733281926926 358.40000000000003 319.1985618569091 364.79999999999995 319.2222479177365 371.2 319.24598836498194 377.59999999999997 319.2682728221584 384 319.29060831605096 390.4 319.31226211477673 396.8 319.332587818341 403.2 319.3529601711283 409.6 319.37208309537357 416 319.39124990482406 422.40000000000003 319.4098316980813 428.8 318.5742206460587 435.20000000000005 318.61774159691737 441.59999999999997 318.65859357515484 448 318.69953926284495 454.4 318.7379738043603 460.79999999999995 318.77649630123904 467.2 318.8138431143937 473.6 318.8488993890433 480 318.8840360154384 486.4 318.91701773543076 492.8 318.95007497784377 499.20000000000005 318.9821236106226 505.6 319.010228740024 512 319.0404409963375 518.4000000000001 319.0688001276762 524.8 319.0972245062762 531.1999999999999 319.12390549860237 537.6 319.1506478336294 544 319.17657380725217 550.4 319.2009098027291 556.8 319.22530148956923 563.2 319.24819737009824 569.6 319.2711457566911 576 319.29339358292475 582.4 319.3129041067281 588.8000000000001 319.33387732000426 595.2 319.3535642169165 601.5999999999999 319.3732962834289 608 319.3918181519573 614.4 319.4103825904706 620.8 319.42838035394993 627.2 319.4452742570686 633.6 319.4622068975377 640 319.4781010893101 640 320 0 320"
      />
      

      
        <g id="labels">
        
          
          <text x="0" y="330">
            Jul 2014
          </text>
          
        
          
        
          
        
          
        
          
        
          
        
          
        
          
        
          
        
          
        
          
        
          
        
          
        
          
          <text x="82.37623762376238" y="330">
            Aug 2015
          </text>
          
        
          
        
          
        
          
        
          
        
          
        
          
        
          
        
          
        
          
        
          
        
          
        
          
        
          
          <text x="164.75247524752476" y="330">
            Sep 2016
          </text>
          
        
          
        
          
        
          
        
          
        
          
        
          
        
          
        
          
        
          
        
          
        
          
        
          
        
          
          <text x="247.12871287128712" y="330">
            Oct 2017
          </text>
          
        
          
        
          
        
          
        
          
        
          
        
          
        
          
        
          
        
          
        
          
        
          
        
          
        
          
          <text x="329.5049504950495" y="330">
            Nov 2018
          </text>
          
        
          
        
          
        
          
        
          
        
          
        
          
        
          
        
          
        
          
        
          
        
          
        
          
        
          
          <text x="411.8811881188119" y="330">
            Dec 2019
          </text>
          
        
          
        
          
        
          
        
          
        
          
        
          
        
          
        
          
        
          
        
          
        
          
        
          
        
          
          <text x="494.25742574257424" y="330">
            Jan 2021
          </text>
          
        
          
        
          
        
          
        
          
        
          
        
          
        
          
        
          
        
          
        
          
        
          
        
          
        
          
          <text x="576.6336633663366" y="330">
            Feb 2022
          </text>
          
        
          
        
          
        
          
        
          
        
          
        
          
        
          
        
          
        
          
        
        </g>
      

      
        <text text-anchor="middle" y="370" x="320" id="legend">
          
          <tspan xml:space="preserve" fill="#C1F12E">   </tspan> Batchfile
          
          <tspan xml:space="preserve" fill="#555555">   </tspan> C
          
          <tspan xml:space="preserve" fill="#178600">   </tspan> C#
          
          <tspan xml:space="preserve" fill="#563d7c">   </tspan> CSS
          
          <tspan xml:space="preserve" fill="#244776">   </tspan> CoffeeScript
          
          <tspan xml:space="preserve" fill="#00ADD8">   </tspan> Go
          
          <tspan xml:space="preserve" fill="#e34c26">   </tspan> HTML
          
          <tspan xml:space="preserve" fill="#22e4e8">   </tspan> JSON
          
        </text>
      
        <text text-anchor="middle" y="400" x="320" id="legend">
          
          <tspan xml:space="preserve" fill="#22e8e8">   </tspan> JSon
          
          <tspan xml:space="preserve" fill="#f1e05a">   </tspan> JavaScript
          
          <tspan xml:space="preserve" fill="#2415b9">   </tspan> Less
          
          <tspan xml:space="preserve" fill="#755462">   </tspan> MySQL
          
          <tspan xml:space="preserve" fill="#4F5D95">   </tspan> PHP
          
          <tspan xml:space="preserve" fill="#fd2fdb">   </tspan> PLpgSQL
          
          <tspan xml:space="preserve" fill="#0298c3">   </tspan> Perl
          
          <tspan xml:space="preserve" fill="#3572A5">   </tspan> Python
          
        </text>
      
        <text text-anchor="middle" y="430" x="320" id="legend">
          
          <tspan xml:space="preserve" fill="#701516">   </tspan> Ruby
          
          <tspan xml:space="preserve" fill="#dea584">   </tspan> Rust
          
          <tspan xml:space="preserve" fill="#26c0b0">   </tspan> SCSS
          
          <tspan xml:space="preserve" fill="#0141ae">   </tspan> SQL
          
          <tspan xml:space="preserve" fill="#89e051">   </tspan> Shell
          
          <tspan xml:space="preserve" fill="#509e5b">   </tspan> Svelte
          
          <tspan xml:space="preserve" fill="#2770da">   </tspan> TSQL
          
          <tspan xml:space="preserve" fill="#2b7489">   </tspan> TypeScript
          
        </text>
      
        <text text-anchor="middle" y="460" x="320" id="legend">
          
          <tspan xml:space="preserve" fill="#2c3e50">   </tspan> Vue
          
          <tspan xml:space="preserve" fill="#4B6C4B">   </tspan> Yacc
          
        </text>
      

    </svg>