<svg
      xmlns="http://www.w3.org/2000/svg"
      viewBox="0 0 640 490"
      style="background-color: #292b3e"
    >
      <style>
        text {
          font-size: 12px;
          font-family: Open Sans, Helvetica Neue, Helvetica, Arial, sans-serif;
        }
        #labels text {
          dominant-baseline: hanging;
          font-size: 10px;
          fill: rgba(0,0,0,0.5);
        }
        #legend {
          font-weight: 600;
        }
        #legend tspan {
          font-size: 15px;
        }
        #branding-text {
          font-size: 9px;
          dominant-baseline: hanging;
          opacity: 0.5;
        }
        #branding-logo {
          opacity: 0.5;
        }
      </style>

      
      
      <polygon
        fill="#4B6C4B"
        fillRule="evenodd"
        points="0 313.61355201748836 6.464646464646465 304.2691154144908 12.92929292929293 297.26805386132145 19.393939393939394 285.93883336576096 25.85858585858586 278.82801244982124 32.323232323232325 274.984222707087 38.78787878787879 267.0907484424323 45.25252525252525 257.07882259561563 51.71717171717172 246.2221302428327 58.18181818181819 230.99233854567046 64.64646464646465 221.54628291940978 71.11111111111111 206.6281326311504 77.57575757575758 198.27729008377284 84.04040404040404 192.17040825860124 90.5050505050505 182.12956201850974 96.96969696969697 170.61731759210997 103.43434343434345 156.95193661804177 109.8989898989899 154.80425316914352 116.36363636363637 149.88801535187204 122.82828282828282 142.5256994116918 129.2929292929293 138.2862015738936 135.75757575757575 123.78694312859591 142.22222222222223 127.17496473725785 148.68686868686868 110.77253503575133 155.15151515151516 93.05738393042651 161.61616161616163 88.01896637665394 168.08080808080808 78.10641706563052 174.54545454545453 68.78390705274751 181.010101010101 65.97381657714433 187.47474747474746 62.1335760790883 193.93939393939394 59.189175620585786 200.40404040404042 46.683838779017606 206.8686868686869 33.294088778840035 213.33333333333331 31.64644283616468 219.7979797979798 27.414803809821763 226.26262626262627 27.528990249477488 232.72727272727275 25.25123938148124 239.1919191919192 13.936281678876412 245.65656565656565 9.643189902660026 252.12121212121212 9.883884968338407 258.5858585858586 12.938043962461109 265.0505050505051 8.247097813620258 271.5151515151515 10.710401665066001 277.979797979798 10.159174188388079 284.44444444444446 11.455714815479496 290.9090909090909 14.195583059885791 297.37373737373736 17.69313271283022 303.83838383838383 18.068055467660088 310.3030303030303 12.038871126815536 316.7676767676768 13.322772974480642 323.23232323232327 11.292927604649321 329.6969696969697 7.029646722672169 336.16161616161617 1.9718152949200771 342.62626262626264 4.695628421628328 349.09090909090907 0.066758998640978 355.55555555555554 0 362.020202020202 3.1342946030960093 368.4848484848485 11.121821579939024 374.9494949494949 13.499854605719179 381.4141414141414 18.048009072364778 387.8787878787879 21.314854459702474 394.3434343434343 21.56861865826113 400.80808080808083 27.06654820270535 407.27272727272725 30.68105763416827 413.7373737373738 36.74811331066462 420.2020202020202 42.80371990416745 426.66666666666663 46.96043404266567 433.13131313131316 38.51507386760761 439.5959595959596 42.63119709841567 446.0606060606061 50.615501191514056 452.52525252525254 58.06906295600976 458.98989898989896 55.542201303636375 465.4545454545455 58.4079691172052 471.9191919191919 64.84936514676929 478.3838383838384 68.96520662336914 484.8484848484849 76.40579644812368 491.3131313131313 74.3196217077172 497.77777777777777 74.99079988453414 504.24242424242425 75.05208731645075 510.7070707070707 74.49043556650349 517.1717171717172 78.43680032599238 523.6363636363636 85.33613264957864 530.1010101010102 88.56515866942206 536.5656565656566 82.0255346450952 543.030303030303 83.0875399852934 549.4949494949494 90.29399924625227 555.959595959596 88.15329311361086 562.4242424242424 86.7419825078469 568.8888888888889 87.76627195571689 575.3535353535353 85.9000757372591 581.8181818181818 86.4311384570311 588.2828282828283 86.6815059787319 594.7474747474747 89.27136614064409 601.2121212121212 85.21664078727815 607.6767676767677 69.72124531532816 614.1414141414141 69.36924509392227 620.6060606060606 67.00822786644807 627.070707070707 64.10054375089743 633.5353535353536 60.655692480131506 640 61.93865055198279 640 320 0 320"
      />
      
      <polygon
        fill="#2c3e50"
        fillRule="evenodd"
        points="0 313.61355201748836 6.464646464646465 304.2691154144908 12.92929292929293 297.26805386132145 19.393939393939394 285.93883336576096 25.85858585858586 278.82801244982124 32.323232323232325 274.984222707087 38.78787878787879 267.0907484424323 45.25252525252525 257.07882259561563 51.71717171717172 246.2221302428327 58.18181818181819 230.99233854567046 64.64646464646465 221.54628291940978 71.11111111111111 206.6281326311504 77.57575757575758 198.27729008377284 84.04040404040404 192.17040825860124 90.5050505050505 182.12956201850974 96.96969696969697 170.61731759210997 103.43434343434345 156.95193661804177 109.8989898989899 154.80425316914352 116.36363636363637 149.88801535187204 122.82828282828282 142.5256994116918 129.2929292929293 138.2862015738936 135.75757575757575 123.78694312859591 142.22222222222223 127.17496473725785 148.68686868686868 110.77253503575133 155.15151515151516 93.05738393042651 161.61616161616163 88.01896637665394 168.08080808080808 78.10641706563052 174.54545454545453 68.78390705274751 181.010101010101 65.97381657714433 187.47474747474746 62.1335760790883 193.93939393939394 59.189175620585786 200.40404040404042 46.683838779017606 206.8686868686869 33.294088778840035 213.33333333333331 31.64644283616468 219.7979797979798 27.414803809821763 226.26262626262627 27.528990249477488 232.72727272727275 25.25123938148124 239.1919191919192 13.936281678876412 245.65656565656565 9.643189902660026 252.12121212121212 9.883884968338407 258.5858585858586 12.938043962461109 265.0505050505051 8.247097813620258 271.5151515151515 10.710401665066001 277.979797979798 10.159174188388079 284.44444444444446 11.455714815479496 290.9090909090909 14.195583059885791 297.37373737373736 17.69313271283022 303.83838383838383 18.068055467660088 310.3030303030303 12.038871126815536 316.7676767676768 13.322772974480642 323.23232323232327 11.292927604649321 329.6969696969697 7.029646722672169 336.16161616161617 1.9718152949200771 342.62626262626264 4.695628421628328 349.09090909090907 0.066758998640978 355.55555555555554 0 362.020202020202 3.1342946030960093 368.4848484848485 11.121821579939024 374.9494949494949 13.499854605719179 381.4141414141414 18.048009072364778 387.8787878787879 21.314854459702474 394.3434343434343 21.56861865826113 400.80808080808083 27.06654820270535 407.27272727272725 30.68105763416827 413.7373737373738 36.74811331066462 420.2020202020202 42.80371990416745 426.66666666666663 46.96043404266567 433.13131313131316 38.51507386760761 439.5959595959596 42.63119709841567 446.0606060606061 50.615501191514056 452.52525252525254 58.06906295600976 458.98989898989896 56.642788064586284 465.4545454545455 59.47496114328243 471.9191919191919 65.88378779608337 478.3838383838384 69.96905748956766 484.8484848484849 77.3790053518712 491.3131313131313 75.26406787283025 497.77777777777777 75.90641744724411 504.24242424242425 75.93975613861681 510.7070707070707 75.35359433281303 517.1717171717172 79.2736117352772 523.6363636363636 86.14821255278173 530.1010101010102 89.35245028601517 536.5656565656566 82.78955826704322 543.030303030303 83.82824225369606 549.4949494949494 91.01209201384506 555.959595959596 88.85016302336655 562.4242424242424 87.41758085551214 568.8888888888889 88.42190333712028 575.3535353535353 86.53569435601747 581.8181818181818 87.04735519189302 588.2828282828283 87.28070793406968 594.7474747474747 89.8522778404294 601.2121212121212 85.78038392951078 607.6767676767677 70.26778055642453 614.1414141414141 69.89962773380512 620.6060606060606 67.52242089399493 627.070707070707 64.59904133960191 633.5353535353536 61.139457237707575 640 62.418164620161804 640 320 0 320"
      />
      
      <polygon
        fill="#2b7489"
        fillRule="evenodd"
        points="0 313.61355201748836 6.464646464646465 304.2691154144908 12.92929292929293 297.26805386132145 19.393939393939394 285.93883336576096 25.85858585858586 278.82801244982124 32.323232323232325 274.984222707087 38.78787878787879 267.0907484424323 45.25252525252525 257.07882259561563 51.71717171717172 246.2221302428327 58.18181818181819 230.99233854567046 64.64646464646465 221.54628291940978 71.11111111111111 206.6281326311504 77.57575757575758 198.27729008377284 84.04040404040404 192.17040825860124 90.5050505050505 182.12956201850974 96.96969696969697 170.61731759210997 103.43434343434345 156.95193661804177 109.8989898989899 154.80425316914352 116.36363636363637 149.88801535187204 122.82828282828282 142.5256994116918 129.2929292929293 138.2862015738936 135.75757575757575 123.78694312859591 142.22222222222223 127.17496473725785 148.68686868686868 110.77253503575133 155.15151515151516 93.05738393042651 161.61616161616163 88.01896637665394 168.08080808080808 78.10641706563052 174.54545454545453 68.78390705274751 181.010101010101 65.97381657714433 187.47474747474746 62.1335760790883 193.93939393939394 59.189175620585786 200.40404040404042 46.683838779017606 206.8686868686869 33.294088778840035 213.33333333333331 31.64644283616468 219.7979797979798 27.414803809821763 226.26262626262627 27.528990249477488 232.72727272727275 25.25123938148124 239.1919191919192 13.936281678876412 245.65656565656565 9.643189902660026 252.12121212121212 9.883884968338407 258.5858585858586 12.938043962461109 265.0505050505051 8.247097813620258 271.5151515151515 10.710401665066001 277.979797979798 10.159174188388079 284.44444444444446 11.455714815479496 290.9090909090909 14.195583059885791 297.37373737373736 17.69313271283022 303.83838383838383 18.068055467660088 310.3030303030303 12.038871126815536 316.7676767676768 13.322772974480642 323.23232323232327 11.292927604649321 329.6969696969697 7.029646722672169 336.16161616161617 1.9718152949200771 342.62626262626264 4.695628421628328 349.09090909090907 0.066758998640978 355.55555555555554 0 362.020202020202 3.1342946030960093 368.4848484848485 11.121821579939024 374.9494949494949 13.499854605719179 381.4141414141414 18.048009072364778 387.8787878787879 21.314854459702474 394.3434343434343 21.56861865826113 400.80808080808083 27.06654820270535 407.27272727272725 30.68105763416827 413.7373737373738 36.74811331066462 420.2020202020202 42.80371990416745 426.66666666666663 46.96043404266567 433.13131313131316 38.51507386760761 439.5959595959596 42.63119709841567 446.0606060606061 50.615501191514056 452.52525252525254 58.06906295600976 458.98989898989896 56.642788064586284 465.4545454545455 59.47496114328243 471.9191919191919 65.88378779608337 478.3838383838384 69.96905748956766 484.8484848484849 77.3790053518712 491.3131313131313 75.26406787283025 497.77777777777777 75.90641744724411 504.24242424242425 75.93975613861681 510.7070707070707 75.35359433281303 517.1717171717172 79.2736117352772 523.6363636363636 86.14821255278173 530.1010101010102 89.35245028601517 536.5656565656566 84.99966275158172 543.030303030303 87.49751178270304 549.4949494949494 94.5693590224659 555.959595959596 94.67102719941784 562.4242424242424 95.57906520133832 568.8888888888889 99.33791211298828 575.3535353535353 99.23027097793027 581.8181818181818 100.29085649173561 588.2828282828283 100.925163403125 594.7474747474747 103.11108193446617 601.2121212121212 98.64733394608942 607.6767676767677 83.41157993413898 614.1414141414141 83.12835541013834 620.6060606060606 80.36985386269589 627.070707070707 77.05431320909585 633.5353535353536 73.22661948350796 640 74.39912117923794 640 320 0 320"
      />
      
      <polygon
        fill="#2770da"
        fillRule="evenodd"
        points="0 313.61355201748836 6.464646464646465 304.2691154144908 12.92929292929293 297.26805386132145 19.393939393939394 285.93883336576096 25.85858585858586 278.82801244982124 32.323232323232325 274.984222707087 38.78787878787879 267.0907484424323 45.25252525252525 257.07882259561563 51.71717171717172 246.2221302428327 58.18181818181819 230.99233854567046 64.64646464646465 221.54628291940978 71.11111111111111 206.6281326311504 77.57575757575758 198.27729008377284 84.04040404040404 192.17040825860124 90.5050505050505 182.12956201850974 96.96969696969697 170.61731759210997 103.43434343434345 156.95193661804177 109.8989898989899 154.80425316914352 116.36363636363637 149.88801535187204 122.82828282828282 142.5256994116918 129.2929292929293 138.2862015738936 135.75757575757575 123.78694312859591 142.22222222222223 127.17496473725785 148.68686868686868 110.77253503575133 155.15151515151516 93.05738393042651 161.61616161616163 88.01896637665394 168.08080808080808 78.10641706563052 174.54545454545453 68.78390705274751 181.010101010101 65.97381657714433 187.47474747474746 62.1335760790883 193.93939393939394 59.189175620585786 200.40404040404042 46.683838779017606 206.8686868686869 33.294088778840035 213.33333333333331 31.64644283616468 219.7979797979798 27.414803809821763 226.26262626262627 27.528990249477488 232.72727272727275 25.25123938148124 239.1919191919192 14.574490562449341 245.65656565656565 11.080199957698824 252.12121212121212 11.277031089166769 258.5858585858586 14.290016391190136 265.0505050505051 9.557802018787754 271.5151515151515 11.981097278405116 277.979797979798 11.3947839357906 284.44444444444446 12.65360825625936 290.9090909090909 15.358073440572866 297.37373737373736 18.82013875691746 303.83838383838383 19.16175345380873 310.3030303030303 13.099184607843085 316.7676767676768 14.350721040649887 323.23232323232327 12.29049510841071 329.6969696969697 7.996764101199631 336.16161616161617 2.910349955597667 342.62626262626264 5.605514911693604 349.09090909090907 0.9488717341188817 355.55555555555554 0.857756087744292 362.020202020202 3.965868147364745 368.4848484848485 11.928818485321358 374.9494949494949 14.282218358841135 381.4141414141414 18.807250532595276 387.8787878787879 22.05092045309408 394.3434343434343 22.282216701432333 400.80808080808083 27.759056266394737 407.27272727272725 31.352427271001375 413.7373737373738 37.39964095799405 420.2020202020202 43.43536007386456 426.66666666666663 47.57279375001946 433.13131313131316 40.230614916292666 439.5959595959596 44.29437223813704 446.0606060606061 52.229522231450005 452.52525252525254 59.633816869412044 458.98989898989896 58.16129636468986 465.4545454545455 60.94711789319865 471.9191919191919 67.31100778244536 478.3838383838384 71.35409681825513 484.8484848484849 78.72176723088705 491.3131313131313 76.56714513577893 497.77777777777777 77.16971895346575 504.24242424242425 77.1644961036422 510.7070707070707 76.54451720852649 517.1717171717172 80.42818243446754 523.6363636363636 87.26866047668193 530.1010101010102 90.43869724066576 536.5656565656566 86.05380630792666 543.030303030303 88.51947816510125 549.4949494949494 95.5601303306079 555.959595959596 95.63251687339948 562.4242424242424 96.51120604162026 568.8888888888889 100.2425039164086 575.3535353535353 100.10725065501322 581.8181818181818 101.14106686239228 588.2828282828283 101.75189816955051 594.7474747474747 103.91258104413706 601.2121212121212 99.42514512564492 607.6767676767677 84.1767460818339 614.1414141414141 84.1345898049538 620.6060606060606 81.5407155181147 627.070707070707 78.21146276767439 633.5353535353536 74.34957012786865 640 75.51220469122993 640 320 0 320"
      />
      
      <polygon
        fill="#89e051"
        fillRule="evenodd"
        points="0 313.61355201748836 6.464646464646465 304.9098449384015 12.92929292929293 298.3344840417084 19.393939393939394 288.07683264177035 25.85858585858586 281.2713563632139 32.323232323232325 277.3529849958969 38.78787878787879 269.99994391508073 45.25252525252525 260.0717393439634 51.71717171717172 250.17317781845944 58.18181818181819 235.18160951599032 64.64646464646465 226.787500719847 71.11111111111111 213.327912324227 77.57575757575758 205.8136572904212 84.04040404040404 200.42209555313127 90.5050505050505 190.45090872548877 96.96969696969697 178.6846592877955 103.43434343434345 164.78085352591916 109.8989898989899 162.39419556821002 116.36363636363637 158.35647664682912 122.82828282828282 150.82949563346065 129.2929292929293 146.47030709311022 135.75757575757575 132.58700024247344 142.22222222222223 135.70640248129595 148.68686868686868 119.05183270984173 155.15151515151516 102.43454842814654 161.61616161616163 97.17066819955579 168.08080808080808 87.08411061332927 174.54545454545453 77.51861929341067 181.010101010101 74.59634052254785 187.47474747474746 71.29282911628766 193.93939393939394 68.1275065756981 200.40404040404042 55.436701060414464 206.8686868686869 42.60295018508975 213.33333333333331 40.816329635340594 219.7979797979798 36.30478551834773 226.26262626262627 36.65736848912445 232.72727272727275 34.265841300056024 239.1919191919192 23.330764196610914 245.65656565656565 19.768624662414766 252.12121212121212 20.331871454875113 258.5858585858586 23.771828245031145 265.0505050505051 19.358058515634923 271.5151515151515 21.657423028367646 277.979797979798 22.197812715403415 284.44444444444446 24.033522476281746 290.9090909090909 26.401661775013167 297.37373737373736 29.526628308320767 303.83838383838383 29.79488802910231 310.3030303030303 23.46957473816707 316.7676767676768 24.7012164082538 323.23232323232327 22.404443987258958 329.6969696969697 17.801990692421157 336.16161616161617 12.43143963196394 342.62626262626264 14.835976855308616 349.09090909090907 10.202434290039946 355.55555555555554 9.855813459168132 362.020202020202 12.717418290966293 368.4848484848485 20.455598088810234 374.9494949494949 22.802341508872132 381.4141414141414 27.111395596009856 387.8787878787879 30.80888794720522 394.3434343434343 30.772849117818737 400.80808080808083 35.99875193669567 407.27272727272725 39.34061016980729 413.7373737373738 45.23259292078319 420.2020202020202 51.02921422593562 426.66666666666663 55.06963807160213 433.13131313131316 47.538003802494984 439.5959595959596 51.37870797429025 446.0606060606061 59.10448310912153 452.52525252525254 66.29892612122751 458.98989898989896 64.91784363931254 465.4545454545455 67.49742628784503 471.9191919191919 73.66137062645677 478.3838383838384 78.63276971779626 484.8484848484849 85.77826447895171 491.3131313131313 83.41508953807619 497.77777777777777 83.84707568096769 504.24242424242425 83.63802964103223 510.7070707070707 82.83930664996265 517.1717171717172 87.04901458793205 523.6363636363636 93.69381640804687 530.1010101010102 96.66773049427562 536.5656565656566 92.09874519032786 543.030303030303 94.37989625719825 549.4949494949494 101.24166283781253 555.959595959596 101.14613694618771 562.4242424242424 101.85652455972345 568.8888888888889 105.4298435099908 575.3535353535353 105.13624881646746 581.8181818181818 106.01655815674658 588.2828282828283 106.49276916093066 594.7474747474747 108.50874152647395 601.2121212121212 104.55187607776992 607.6767676767677 89.14698615795419 614.1414141414141 88.95793775028682 620.6060606060606 86.21683471845392 627.070707070707 82.7448474747842 633.5353535353536 78.7489719001127 640 79.87294926054807 640 320 0 320"
      />
      
      <polygon
        fill="#0141ae"
        fillRule="evenodd"
        points="0 313.6957901284544 6.464646464646465 304.9895727838578 12.92929292929293 298.41185556716863 19.393939393939394 288.15460502686835 25.85858585858586 281.34683022813977 32.323232323232325 277.4261550602465 38.78787878787879 270.0708805092344 45.25252525252525 260.168670051618 51.71717171717172 250.62553295646083 58.18181818181819 236.59145533886942 64.64646464646465 228.16533839514375 71.11111111111111 215.56294886539922 77.57575757575758 209.3478691029384 84.04040404040404 203.84842703352177 90.5050505050505 193.8095855796891 96.96969696969697 182.16691845824118 103.43434343434345 169.200163110335 109.8989898989899 166.68971281213197 116.36363636363637 162.52087453992755 122.82828282828282 154.8748606396815 129.2929292929293 151.50326386229378 135.75757575757575 138.3305461081126 142.22222222222223 141.27462926970736 148.68686868686868 124.45549296383905 155.15151515151516 107.98217937974414 161.61616161616163 102.61899107586711 168.08080808080808 92.52519977775398 174.54545454545453 83.01597666665745 181.010101010101 79.93122636353479 187.47474747474746 76.46487043674563 193.93939393939394 73.61550286815347 200.40404040404042 61.01121110851142 206.8686868686869 50.21113510132028 213.33333333333331 49.3067674402169 219.7979797979798 44.53605545557457 226.26262626262627 46.72652640892363 232.72727272727275 45.53593873149981 239.1919191919192 38.06188964860996 245.65656565656565 34.379883192885984 252.12121212121212 35.18785652812613 258.5858585858586 40.459298746573666 265.0505050505051 36.7671236308596 271.5151515151515 38.535087749217496 277.979797979798 38.69019391192444 284.44444444444446 40.0224856187416 290.9090909090909 41.96015843678185 297.37373737373736 45.10753303668366 303.83838383838383 44.91807963783987 310.3030303030303 38.142313654579084 316.7676767676768 38.926080669715816 323.23232323232327 36.368842217492386 329.6969696969697 33.699920036826086 336.16161616161617 28.417287346236208 342.62626262626264 30.37286177530018 349.09090909090907 26.294003114541397 355.55555555555554 25.536683153727722 362.020202020202 28.083956488639387 368.4848484848485 35.367987619490805 374.9494949494949 37.58877403132698 381.4141414141414 41.46081738905127 387.8787878787879 45.374575120306645 394.3434343434343 45.021964809386986 400.80808080808083 49.826745377103634 407.27272727272725 53.200790545562995 413.7373737373738 58.85813284976456 420.2020202020202 64.62542782381533 426.66666666666663 68.63079385472903 433.13131313131316 63.21865669120115 439.5959595959596 66.9387705702799 446.0606060606061 74.20467171956287 452.52525252525254 80.93820192755271 458.98989898989896 80.26638386860412 465.4545454545455 82.74336289012678 471.9191919191919 88.44194117074215 478.3838383838384 93.40764885155039 484.8484848484849 100.10213606179809 491.3131313131313 98.34499102212081 497.77777777777777 99.94043546567065 504.24242424242425 99.86331424626724 510.7070707070707 98.67434791165334 517.1717171717172 102.4006959333085 523.6363636363636 108.59178989074883 530.1010101010102 111.11095318567166 536.5656565656566 106.11510695430133 543.030303030303 107.96841581607134 549.4949494949494 114.41540300113272 555.959595959596 113.93053654142716 562.4242424242424 114.39438445763827 568.8888888888889 117.59715343396633 575.3535353535353 116.93215901086009 581.8181818181818 117.45240520440365 588.2828282828283 117.6430937913023 594.7474747474747 119.31871117594392 601.2121212121212 115.05065329140643 607.6767676767677 99.80068255928552 614.1414141414141 99.38378907845052 620.6060606060606 97.92036712400363 627.070707070707 95.72563453862432 633.5353535353536 92.85903078333564 640 93.93783032498828 640 320 0 320"
      />
      
      <polygon
        fill="#26c0b0"
        fillRule="evenodd"
        points="0 313.6957901284544 6.464646464646465 305.0750738814863 12.92929292929293 298.52242863826996 19.393939393939394 288.39204509482045 25.85858585858586 281.72967932071435 32.323232323232325 277.8556835216789 38.78787878787879 270.5454090292001 45.25252525252525 260.80007610181895 51.71717171717172 251.7275316269993 58.18181818181819 237.790939785258 64.64646464646465 230.20549524453662 71.11111111111111 218.21684034116225 77.57575757575758 212.42850519132497 84.04040404040404 207.47610528797054 90.5050505050505 198.30985817614106 96.96969696969697 186.52982286596642 103.43434343434345 173.80647000386037 109.8989898989899 171.15541473911608 116.36363636363637 166.87836363064196 122.82828282828282 159.3525663155822 129.2929292929293 156.04890734776478 135.75757575757575 143.12367553029404 142.22222222222223 145.92427534507658 148.68686868686868 128.96772214622817 155.15151515151516 112.62435901087699 161.61616161616163 107.34728219016944 168.08080808080808 97.39193427341351 174.54545454545453 88.07460242687316 181.010101010101 84.90351366232022 187.47474747474746 81.47897270029927 193.93939393939394 78.54019573352747 200.40404040404042 65.83891746800774 206.8686868686869 55.257922645429744 213.33333333333331 54.274577646753414 219.7979797979798 49.44602206592191 226.26262626262627 52.03149232287751 232.72727272727275 50.7569407732521 239.1919191919192 43.287706013327295 245.65656565656565 39.62430519888392 252.12121212121212 40.27219443504157 258.5858585858586 46.01555394731588 265.0505050505051 42.22629707500084 271.5151515151515 45.29507884610712 277.979797979798 46.226394147240114 284.44444444444446 47.34240300622707 290.9090909090909 49.12225904175426 297.37373737373736 52.196435053465336 303.83838383838383 51.84811331234363 310.3030303030303 44.899238644043976 316.7676767676768 45.54053338800719 323.23232323232327 42.902229069406644 329.6969696969697 40.52996716729933 336.16161616161617 35.11169415870836 342.62626262626264 37.186736833133864 349.09090909090907 32.91363656796517 355.55555555555554 31.973538483801747 362.020202020202 34.32996389379497 368.4848484848485 41.451342341334566 374.9494949494949 43.650711314649016 381.4141414141414 47.722368951884334 387.8787878787879 51.450568718293084 394.3434343434343 51.04933224525382 400.80808080808083 55.67597752018321 407.27272727272725 59.07779777900055 413.7373737373738 64.64981804049324 420.2020202020202 70.24032849414965 426.66666666666663 74.11927554569223 433.13131313131316 68.67714560425446 439.5959595959596 72.31801838243058 446.0606060606061 79.4358366127579 452.52525252525254 86.08178588709967 458.98989898989896 85.88898782558815 465.4545454545455 88.95227851281948 471.9191919191919 94.47249102883276 478.3838383838384 100.00820955496863 484.8484848484849 106.58871853727109 491.3131313131313 104.63986759690471 497.77777777777777 106.09863691119756 504.24242424242425 105.83354203708319 510.7070707070707 104.49632077735316 517.1717171717172 108.04495129418311 523.6363636363636 114.08033117763381 530.1010101010102 116.43195862271506 536.5656565656566 111.27885313895521 543.030303030303 112.97454106274134 549.4949494949494 119.26872122177753 555.959595959596 118.6404173452201 562.4242424242424 118.96049718996505 568.8888888888889 122.02831880501014 575.3535353535353 121.47123584776222 581.8181818181818 121.85292984601551 588.2828282828283 121.9221128290402 594.7474747474747 123.46993867858077 601.2121212121212 119.66076774782482 607.6767676767677 104.27007645362468 614.1414141414141 103.72109148917974 620.6060606060606 102.12527760547587 627.070707070707 99.8021920503117 633.5353535353536 96.8151087685197 640 97.85914744751261 640 320 0 320"
      />
      
      <polygon
        fill="#dea584"
        fillRule="evenodd"
        points="0 313.6957901284544 6.464646464646465 305.0750738814863 12.92929292929293 298.52242863826996 19.393939393939394 288.39204509482045 25.85858585858586 281.72967932071435 32.323232323232325 277.8556835216789 38.78787878787879 270.5454090292001 45.25252525252525 260.80007610181895 51.71717171717172 251.7275316269993 58.18181818181819 237.790939785258 64.64646464646465 230.20549524453662 71.11111111111111 218.6052347520584 77.57575757575758 212.8050440930224 84.04040404040404 207.84115057156674 90.5050505050505 198.6641147278138 96.96969696969697 187.9962644697343 103.43434343434345 176.33192281501306 109.8989898989899 173.60377960891984 116.36363636363637 169.25199336498855 122.82828282828282 162.75990765824494 129.2929292929293 159.3522417849626 135.75757575757575 148.55737212887507 142.22222222222223 151.1921122804922 148.68686868686868 136.32711669432214 155.15151515151516 123.07445457653563 161.61616161616163 117.47839572200999 168.08080808080808 107.22363070155421 174.54545454545453 98.72236995875039 181.010101010101 95.2365926355381 187.47474747474746 91.49664025742712 193.93939393939394 88.25207867096668 200.40404040404042 76.38146377613765 206.8686868686869 66.582773316263 213.33333333333331 65.26472529060584 219.7979797979798 60.100701183453225 226.26262626262627 62.371278919844826 232.72727272727275 60.781113533498456 239.1919191919192 53.005893788285846 245.65656565656565 49.055277107613904 252.12121212121212 49.41529389488733 258.5858585858586 54.88843111252919 265.0505050505051 51.93129411468328 271.5151515151515 54.70383740250463 277.979797979798 55.37536072283484 284.44444444444446 56.21210360605721 290.9090909090909 57.7298203007241 297.37373737373736 60.54125638853543 303.83838383838383 61.064337995745404 310.3030303030303 54.089961410497835 316.7676767676768 54.4507124626835 323.23232323232327 51.54907431599713 329.6969696969697 48.912873378943004 336.16161616161617 43.24684573823555 342.62626262626264 45.07356803029387 349.09090909090907 41.66899509647243 355.55555555555554 40.48714677206482 362.020202020202 42.583697999983826 368.4848484848485 49.461141091981176 374.9494949494949 51.47788658308781 381.4141414141414 55.318217512303704 387.8787878787879 58.81455728994462 394.3434343434343 58.188539385124216 400.80808080808083 62.604188381492804 407.27272727272725 65.79452994303756 413.7373737373738 71.16804050460414 420.2020202020202 76.55958576053911 426.66666666666663 80.24564146630689 433.13131313131316 74.628398670081 439.5959595959596 78.08761239246644 446.0606060606061 85.03491394934659 452.52525252525254 91.50995342266057 458.98989898989896 91.15672951028051 465.4545454545455 94.05922567394094 471.9191919191919 99.423551390543 478.3838383838384 104.81294507741612 484.8484848484849 111.24679127047867 491.3131313131313 109.16027375077019 497.77777777777777 110.48105980532273 504.24242424242425 110.08219387011977 510.7070707070707 108.62766112088767 517.1717171717172 112.05018461217165 523.6363636363636 117.96719230146397 530.1010101010102 120.20017433591084 536.5656565656566 116.05406802704567 543.030303030303 117.60399470403638 549.4949494949494 123.75686368485805 555.959595959596 123.354089990913 562.4242424242424 123.53028781267915 568.8888888888889 126.4630527387504 575.3535353535353 125.77060072769706 581.8181818181818 126.02105936858248 588.2828282828283 126.00011204827695 594.7474747474747 127.42345958771352 601.2121212121212 123.49744324866461 607.6767676767677 107.989640214052 614.1414141414141 107.33072605078974 620.6060606060606 105.62472958284934 627.070707070707 103.19482655799811 633.5353535353536 100.10747519282103 640 101.12258518936287 640 320 0 320"
      />
      
      <polygon
        fill="#701516"
        fillRule="evenodd"
        points="0 313.6957901284544 6.464646464646465 305.0750738814863 12.92929292929293 298.52242863826996 19.393939393939394 288.39204509482045 25.85858585858586 281.72967932071435 32.323232323232325 277.8556835216789 38.78787878787879 270.5454090292001 45.25252525252525 260.80007610181895 51.71717171717172 251.7275316269993 58.18181818181819 237.790939785258 64.64646464646465 230.20549524453662 71.11111111111111 218.6052347520584 77.57575757575758 212.8050440930224 84.04040404040404 207.84115057156674 90.5050505050505 198.6641147278138 96.96969696969697 187.9962644697343 103.43434343434345 176.33192281501306 109.8989898989899 173.60377960891984 116.36363636363637 169.25199336498855 122.82828282828282 162.75990765824494 129.2929292929293 159.3522417849626 135.75757575757575 148.55737212887507 142.22222222222223 151.1921122804922 148.68686868686868 136.32711669432214 155.15151515151516 123.07445457653563 161.61616161616163 117.47839572200999 168.08080808080808 107.22363070155421 174.54545454545453 98.72236995875039 181.010101010101 95.2365926355381 187.47474747474746 91.49664025742712 193.93939393939394 88.25207867096668 200.40404040404042 76.38146377613765 206.8686868686869 66.582773316263 213.33333333333331 65.26472529060584 219.7979797979798 60.100701183453225 226.26262626262627 62.371278919844826 232.72727272727275 60.781113533498456 239.1919191919192 53.005893788285846 245.65656565656565 49.055277107613904 252.12121212121212 49.41529389488733 258.5858585858586 54.88843111252919 265.0505050505051 51.93129411468328 271.5151515151515 54.70383740250463 277.979797979798 55.37536072283484 284.44444444444446 56.21210360605721 290.9090909090909 57.7298203007241 297.37373737373736 60.54125638853543 303.83838383838383 61.064337995745404 310.3030303030303 54.089961410497835 316.7676767676768 54.4507124626835 323.23232323232327 51.54907431599713 329.6969696969697 48.912873378943004 336.16161616161617 43.24684573823555 342.62626262626264 45.07356803029387 349.09090909090907 41.66899509647243 355.55555555555554 40.48714677206482 362.020202020202 42.583697999983826 368.4848484848485 49.461141091981176 374.9494949494949 51.47788658308781 381.4141414141414 55.318217512303704 387.8787878787879 58.81455728994462 394.3434343434343 58.188539385124216 400.80808080808083 62.604188381492804 407.27272727272725 65.79452994303756 413.7373737373738 71.16804050460414 420.2020202020202 76.55958576053911 426.66666666666663 80.24564146630689 433.13131313131316 74.628398670081 439.5959595959596 78.08761239246644 446.0606060606061 85.03491394934659 452.52525252525254 91.50995342266057 458.98989898989896 91.15672951028051 465.4545454545455 94.05922567394094 471.9191919191919 99.423551390543 478.3838383838384 104.81294507741612 484.8484848484849 111.24679127047867 491.3131313131313 109.16027375077019 497.77777777777777 110.48105980532273 504.24242424242425 110.08219387011977 510.7070707070707 108.62766112088767 517.1717171717172 112.05018461217165 523.6363636363636 117.96719230146397 530.1010101010102 120.20017433591084 536.5656565656566 116.05406802704567 543.030303030303 117.60399470403638 549.4949494949494 123.75686368485805 555.959595959596 123.354089990913 562.4242424242424 123.53028781267915 568.8888888888889 126.4630527387504 575.3535353535353 125.77060072769706 581.8181818181818 126.02105936858248 588.2828282828283 126.00011204827695 594.7474747474747 127.42345958771352 601.2121212121212 123.49744324866461 607.6767676767677 108.0091964431657 614.1414141414141 107.3497043052962 620.6060606060606 105.64312853828056 627.070707070707 103.21266389482008 633.5353535353536 100.12478535644902 640 101.13974325392326 640 320 0 320"
      />
      
      <polygon
        fill="#3572A5"
        fillRule="evenodd"
        points="0 313.6957901284544 6.464646464646465 305.0750738814863 12.92929292929293 298.52242863826996 19.393939393939394 288.39204509482045 25.85858585858586 281.72967932071435 32.323232323232325 277.8556835216789 38.78787878787879 270.5454090292001 45.25252525252525 260.80007610181895 51.71717171717172 251.7275316269993 58.18181818181819 237.790939785258 64.64646464646465 230.20549524453662 71.11111111111111 218.6052347520584 77.57575757575758 212.8050440930224 84.04040404040404 207.84115057156674 90.5050505050505 198.6641147278138 96.96969696969697 187.9962644697343 103.43434343434345 176.33192281501306 109.8989898989899 173.60377960891984 116.36363636363637 169.25199336498855 122.82828282828282 163.42153541689666 129.2929292929293 159.9936737187377 135.75757575757575 149.21626604791643 142.22222222222223 151.83089383977295 148.68686868686868 137.9482617074473 155.15151515151516 125.44002324319862 161.61616161616163 119.77175683956094 168.08080808080808 109.44921286349188 174.54545454545453 100.88001749641703 181.010101010101 97.33047202312818 187.47474747474746 93.52660517667749 193.93939393939394 90.22007986080013 200.40404040404042 78.29512530172855 206.8686868686869 68.47389227342933 213.33333333333331 67.09995324003438 219.7979797979798 61.87990989116054 226.26262626262627 64.09790419347391 232.72727272727275 62.45503443442868 239.1919191919192 54.62871930365401 245.65656565656565 50.630140852638874 252.12121212121212 50.94208561711383 258.5858585858586 56.370099474315225 265.0505050505051 53.40356902892722 271.5151515151515 56.13117195688869 277.979797979798 56.763284185882355 284.44444444444446 57.557661458569555 290.9090909090909 59.03561092489133 297.37373737373736 61.8071885409463 303.83838383838383 62.29285613670936 310.3030303030303 55.280979845189336 316.7676767676768 55.60537563830417 323.23232323232327 52.669612147537975 329.6969696969697 49.9992074669413 336.16161616161617 44.30107365363534 342.62626262626264 46.095616305708745 349.09090909090907 42.65984588296868 355.55555555555554 41.45063866351552 362.020202020202 43.517779715036 368.4848484848485 50.36761653753649 374.9494949494949 52.379024083579054 381.4141414141414 56.1927222118552 387.8787878787879 59.66236825686383 394.3434343434343 59.01047139841364 400.80808080808083 63.40182868605302 407.27272727272725 66.56782268310462 413.7373737373738 71.9184789690253 420.2020202020202 77.28711756655417 426.66666666666663 80.95096567407847 433.13131313131316 75.31356229677112 439.5959595959596 78.75186185791907 446.0606060606061 85.67953187082563 452.52525252525254 92.13489465111758 458.98989898989896 91.76320093505797 465.4545454545455 94.64718493055852 471.9191919191919 99.99356357164123 478.3838383838384 105.36611086829478 484.8484848484849 111.78307198516433 491.3131313131313 109.68070497115562 497.77777777777777 110.98560514707015 504.24242424242425 110.57133824880452 510.7070707070707 109.10329941966867 517.1717171717172 112.51130428606248 523.6363636363636 118.41468385738847 530.1010101010102 120.63400650656035 536.5656565656566 116.4750784844768 543.030303030303 118.01215409212006 549.4949494949494 124.1525642475113 555.959595959596 123.73809575812828 562.4242424242424 123.90257209986882 568.8888888888889 126.82433433438217 575.3535353535353 126.12085438570548 581.8181818181818 126.36062175454987 588.2828282828283 126.33029857777439 594.7474747474747 127.74356733711855 601.2121212121212 123.80809043318942 607.6767676767677 108.32977749721658 614.1414141414141 107.66081077915007 620.6060606060606 105.94473864860049 627.070707070707 103.50506758604075 633.5353535353536 100.40854715607722 640 101.42101173486134 640 320 0 320"
      />
      
      <polygon
        fill="#0298c3"
        fillRule="evenodd"
        points="0 313.6957901284544 6.464646464646465 305.0750738814863 12.92929292929293 298.52242863826996 19.393939393939394 288.39204509482045 25.85858585858586 281.72967932071435 32.323232323232325 277.8556835216789 38.78787878787879 270.5454090292001 45.25252525252525 260.80007610181895 51.71717171717172 251.7275316269993 58.18181818181819 237.790939785258 64.64646464646465 230.20549524453662 71.11111111111111 218.6052347520584 77.57575757575758 212.8050440930224 84.04040404040404 207.84115057156674 90.5050505050505 198.6641147278138 96.96969696969697 187.9962644697343 103.43434343434345 176.33192281501306 109.8989898989899 173.60377960891984 116.36363636363637 169.25199336498855 122.82828282828282 163.42153541689666 129.2929292929293 159.9936737187377 135.75757575757575 149.21626604791643 142.22222222222223 151.83089383977295 148.68686868686868 137.9482617074473 155.15151515151516 126.07813448193625 161.61616161616163 120.39039009657512 168.08080808080808 110.04956275958531 174.54545454545453 101.46204205756538 181.010101010101 97.89529517704074 187.47474747474746 94.07418740509303 193.93939393939394 90.75094748818444 200.40404040404042 78.81133479838994 206.8686868686869 68.97434471112021 213.33333333333331 67.69008927879611 219.7979797979798 62.45203238439984 226.26262626262627 64.6531178851782 232.72727272727275 62.99330055642338 239.1919191919192 55.15055516909058 245.65656565656565 51.13655418745424 252.12121212121212 51.43304093090899 258.5858585858586 56.846544886830145 265.0505050505051 53.86547122809668 271.5151515151515 56.57897482957844 277.979797979798 57.19872248717451 284.44444444444446 57.97980827665219 290.9090909090909 59.445281388122396 297.37373737373736 62.20435405355852 303.83838383838383 62.67828363656514 310.3030303030303 55.65464240109725 316.7676767676768 55.967632377343875 323.23232323232327 53.02116257170394 329.6969696969697 50.340027008328605 336.16161616161617 44.63182043617343 342.62626262626264 46.41626725139059 349.09090909090907 42.97070913353548 355.55555555555554 41.752918467593815 362.020202020202 43.81083261134813 368.4848484848485 50.65200839963518 374.9494949494949 52.6547350598571 381.4141414141414 56.460284678847074 387.8787878787879 59.921763554880954 394.3434343434343 59.261948782261356 400.80808080808083 63.64587380084299 407.27272727272725 66.80441846179778 413.7373737373738 72.14808228628837 420.2020202020202 77.50971238286408 426.66666666666663 81.16676589769378 433.13131313131316 75.52319419862857 439.5959595959596 78.95509486345233 446.0606060606061 85.87675843973003 452.52525252525254 92.32610098385464 458.98989898989896 91.94875626946387 465.4545454545455 94.82707628910754 471.9191919191919 100.16796386470784 478.3838383838384 105.53535684366256 484.8484848484849 111.94715181612534 491.3131313131313 109.83993551278581 497.77777777777777 111.13997528164757 504.24242424242425 110.72099630852347 510.7070707070707 109.2488251803718 517.1717171717172 112.65238795170796 523.6363636363636 118.55159787381535 530.1010101010102 120.76674130759571 536.5656565656566 116.603890373685 543.030303030303 118.13703406846184 549.4949494949494 124.27363234539325 555.959595959596 123.8555857374161 562.4242424242424 124.01647578153597 568.8888888888889 126.93487164793044 575.3535353535353 126.22801760421532 581.8181818181818 126.4645138762144 588.2828282828283 126.43132207337624 594.7474747474747 127.84150715169145 601.2121212121212 126.40234098196319 607.6767676767677 115.1776474046116 614.1414141414141 114.40693411054156 620.6060606060606 112.69046217355807 627.070707070707 110.04488185812048 633.5353535353536 107.19480669677094 640 108.14764247325343 640 320 0 320"
      />
      
      <polygon
        fill="#fd2fdb"
        fillRule="evenodd"
        points="0 313.6957901284544 6.464646464646465 305.0750738814863 12.92929292929293 298.52242863826996 19.393939393939394 288.39204509482045 25.85858585858586 281.72967932071435 32.323232323232325 277.8556835216789 38.78787878787879 270.5454090292001 45.25252525252525 260.80007610181895 51.71717171717172 251.7275316269993 58.18181818181819 237.790939785258 64.64646464646465 230.20549524453662 71.11111111111111 218.6052347520584 77.57575757575758 212.8050440930224 84.04040404040404 207.84115057156674 90.5050505050505 198.6641147278138 96.96969696969697 187.9962644697343 103.43434343434345 176.33192281501306 109.8989898989899 173.60377960891984 116.36363636363637 169.25199336498855 122.82828282828282 163.42153541689666 129.2929292929293 159.9936737187377 135.75757575757575 149.21626604791643 142.22222222222223 151.83089383977295 148.68686868686868 137.9482617074473 155.15151515151516 126.07813448193625 161.61616161616163 120.39039009657512 168.08080808080808 110.04956275958531 174.54545454545453 101.46204205756538 181.010101010101 97.89529517704074 187.47474747474746 94.07418740509303 193.93939393939394 90.75094748818444 200.40404040404042 78.81133479838994 206.8686868686869 68.97434471112021 213.33333333333331 67.69008927879611 219.7979797979798 62.45203238439984 226.26262626262627 64.6531178851782 232.72727272727275 62.99330055642338 239.1919191919192 55.15055516909058 245.65656565656565 51.13655418745424 252.12121212121212 51.43304093090899 258.5858585858586 56.846544886830145 265.0505050505051 53.86547122809668 271.5151515151515 56.57897482957844 277.979797979798 58.32832578318437 284.44444444444446 59.07493111908957 290.9090909090909 60.50803840469513 297.37373737373736 63.23467105761904 303.83838383838383 64.55891083445141 310.3030303030303 57.47786454657734 316.7676767676768 57.73520159051867 323.23232323232327 54.73649215761833 329.6969696969697 52.00299736413251 336.16161616161617 46.24564254903248 342.62626262626264 47.980828300059784 349.09090909090907 44.48751288752413 355.55555555555554 43.22784077653603 362.020202020202 45.24073379768129 368.4848484848485 52.039649501315296 374.9494949494949 54.00001928488706 381.4141414141414 57.76580979290759 387.8787878787879 61.18743821180897 394.3434343434343 60.48898935537119 400.80808080808083 64.83664984453532 407.27272727272725 67.95884685003693 413.7373737373738 73.26839216342833 420.2020202020202 78.59582545219382 426.66666666666663 82.2197259612332 433.13131313131316 76.5460569858918 439.5959595959596 79.9467352445366 446.0606060606061 86.83909149875663 452.52525252525254 93.25905931578103 458.98989898989896 92.85414152065675 465.4545454545455 95.70482526733954 471.9191919191919 101.01891995502393 478.3838383838384 106.36116335223028 484.8484848484849 112.74775109930323 491.3131313131313 110.6168735709864 497.77777777777777 111.89319772845465 504.24242424242425 111.45122709053459 510.7070707070707 109.95889307966587 517.1717171717172 113.34078144103057 523.6363636363636 119.21964627102756 530.1010101010102 121.41439790182505 536.5656565656566 117.23240581617574 543.030303030303 118.74636445345993 549.4949494949494 124.86436325420607 555.959595959596 124.42885787708741 562.4242424242424 124.57224916114723 568.8888888888889 127.47421940508019 575.3535353535353 126.75090209072135 581.8181818181818 126.97143760899928 588.2828282828283 126.92424883053948 594.7474747474747 128.3193876031777 601.2121212121212 126.86609795007112 607.6767676767677 115.62724841983893 614.1414141414141 114.84324742381787 620.6060606060606 114.22074056546418 627.070707070707 111.52844948028306 633.5353535353536 109.75425271345966 640 110.68459924959234 640 320 0 320"
      />
      
      <polygon
        fill="#4F5D95"
        fillRule="evenodd"
        points="0 313.6957901284544 6.464646464646465 305.0750738814863 12.92929292929293 298.52242863826996 19.393939393939394 288.39204509482045 25.85858585858586 281.72967932071435 32.323232323232325 277.8556835216789 38.78787878787879 270.5454090292001 45.25252525252525 260.80007610181895 51.71717171717172 251.7275316269993 58.18181818181819 237.790939785258 64.64646464646465 230.20549524453662 71.11111111111111 218.6052347520584 77.57575757575758 212.8050440930224 84.04040404040404 207.84115057156674 90.5050505050505 198.6641147278138 96.96969696969697 187.9962644697343 103.43434343434345 176.33192281501306 109.8989898989899 173.60377960891984 116.36363636363637 169.25199336498855 122.82828282828282 163.42153541689666 129.2929292929293 159.9936737187377 135.75757575757575 149.21626604791643 142.22222222222223 151.83089383977295 148.68686868686868 137.9482617074473 155.15151515151516 126.07813448193625 161.61616161616163 120.39039009657512 168.08080808080808 110.04956275958531 174.54545454545453 101.46204205756538 181.010101010101 97.89529517704074 187.47474747474746 94.07418740509303 193.93939393939394 90.75094748818444 200.40404040404042 78.81133479838994 206.8686868686869 68.97434471112021 213.33333333333331 67.69008927879611 219.7979797979798 62.45203238439984 226.26262626262627 64.67274495329264 232.72727272727275 63.012328519066216 239.1919191919192 55.16900231398972 245.65656565656565 51.1544561365306 252.12121212121212 51.45039643470329 258.5858585858586 56.86338745777323 265.0505050505051 53.881799688655235 271.5151515151515 56.59480487300283 277.979797979798 58.34371873367803 284.44444444444446 59.08985420814321 290.9090909090909 60.5225204500195 297.37373737373736 63.24871104711093 303.83838383838383 64.57253588014524 310.3030303030303 57.491073694938336 316.7676767676768 57.74800753753317 323.23232323232327 54.74891963148383 329.6969696969697 52.015045496598134 336.16161616161617 46.257334605113044 342.62626262626264 47.992163462880114 349.09090909090907 44.498502051321566 355.55555555555554 43.23852651129391 362.020202020202 45.251093356766546 368.4848484848485 52.04970288840735 374.9494949494949 54.00976579870638 381.4141414141414 57.77526825343523 387.8787878787879 61.196607958866025 394.3434343434343 60.49787920093388 400.80808080808083 64.84527695531168 407.27272727272725 67.96721062338887 413.7373737373738 73.2765087498507 420.2020202020202 78.60369428398405 426.66666666666663 82.22735460193579 433.13131313131316 76.55346757333672 439.5959595959596 79.95391962744023 446.0606060606061 86.84606355063852 452.52525252525254 93.26581855021519 458.98989898989896 92.86070098935562 465.4545454545455 95.71118451213368 471.9191919191919 101.02508508778342 478.3838383838384 106.36714627775427 484.8484848484849 112.75355139949545 491.3131313131313 110.62250244648939 497.77777777777777 111.89865478572983 504.24242424242425 111.45651757402305 510.7070707070707 109.96403748450786 517.1717171717172 113.34576881555068 523.6363636363636 119.22448624644059 530.1010101010102 121.41909013997548 536.5656565656566 117.23695937759595 543.030303030303 118.75077901992822 549.4949494949494 124.86864306854108 555.959595959596 124.433011203805 562.4242424242424 124.5762757102824 568.8888888888889 127.47812695143472 575.3535353535353 126.75469036138696 581.8181818181818 126.97511024508134 588.2828282828283 126.92782005912579 594.7474747474747 128.32284982208918 601.2121212121212 126.86945784483993 607.6767676767677 115.63050575588312 614.1414141414141 114.84640849097332 620.6060606060606 114.2238051427122 627.070707070707 111.5314205131007 633.5353535353536 109.75713593898189 640 110.68745714109372 640 320 0 320"
      />
      
      <polygon
        fill="#755462"
        fillRule="evenodd"
        points="0 318.02122411411017 6.464646464646465 313.52736515883544 12.92929292929293 310.8961243769944 19.393939393939394 304.6063578853502 25.85858585858586 301.5123606070759 32.323232323232325 299.6347531794494 38.78787878787879 295.68732859146706 45.25252525252525 289.6072465784355 51.71717171717172 284.85403778244677 58.18181818181819 274.4471140779439 64.64646464646465 270.1967837052197 71.11111111111111 262.9523994117587 77.57575757575758 259.7806252324541 84.04040404040404 257.29399649280833 90.5050505050505 251.48861019965943 96.96969696969697 243.11581327505505 103.43434343434345 233.69078838170984 109.8989898989899 232.44230402457075 116.36363636363637 230.48713181249303 122.82828282828282 226.74327504866648 129.2929292929293 225.02616155130974 135.75757575757575 216.76222215727176 142.22222222222223 218.75154487729355 148.68686868686868 208.35864442199372 155.15151515151516 198.35256460342288 161.61616161616163 194.3476446469562 168.08080808080808 186.1187118254534 174.54545454545453 178.6990554122409 181.010101010101 176.47511767646319 187.47474747474746 173.8723354988274 193.93939393939394 171.3869567014399 200.40404040404042 162.65601104633598 206.8686868686869 154.128696826328 213.33333333333331 153.54793015013587 219.7979797979798 149.77125773453693 226.26262626262627 151.9918470015226 232.72727272727275 150.24045431013135 239.1919191919192 143.46430611150865 245.65656565656565 140.69806330453923 252.12121212121212 142.92928868651276 258.5858585858586 147.05369771608798 265.0505050505051 144.4471943485451 271.5151515151515 147.1408000328331 277.979797979798 149.53426433801866 284.44444444444446 150.79098273486682 290.9090909090909 152.38217823877636 297.37373737373736 155.03547274835594 303.83838383838383 154.49051332618336 310.3030303030303 148.88686559890266 316.7676767676768 148.96298438726134 323.23232323232327 145.9047762992773 329.6969696969697 141.78904741571125 336.16161616161617 137.45865885117112 342.62626262626264 139.37105684046838 349.09090909090907 135.0641741405025 355.55555555555554 134.18774973300822 362.020202020202 137.09707079892425 368.4848484848485 142.45248288307351 374.9494949494949 144.39928056319405 381.4141414141414 146.97583410299146 387.8787878787879 149.82623460248536 394.3434343434343 149.06465680744287 400.80808080808083 151.7193875581873 407.27272727272725 154.19230622519916 413.7373737373738 158.30303788797124 420.2020202020202 162.42162840329928 426.66666666666663 164.48555042117715 433.13131313131316 158.22330162715974 439.5959595959596 161.34785127877433 446.0606060606061 165.8746289559406 452.52525252525254 170.07077482959727 458.98989898989896 168.56371531707654 465.4545454545455 169.21385575629944 471.9191919191919 173.4728324800351 478.3838383838384 177.15376010161233 484.8484848484849 181.49371216757484 491.3131313131313 177.55150410567228 497.77777777777777 179.11024694834902 504.24242424242425 179.84350160688163 510.7070707070707 178.85211430296184 517.1717171717172 181.1912766331878 523.6363636363636 185.21853783689014 530.1010101010102 189.19435697116816 536.5656565656566 186.2690569336742 543.030303030303 186.94219389784323 549.4949494949494 190.98331372215222 555.959595959596 193.06122925292317 562.4242424242424 195.38484138367818 568.8888888888889 199.02884680401547 575.3535353535353 200.45626813211672 581.8181818181818 202.54863701996834 588.2828282828283 204.6815228631363 594.7474747474747 208.14742048701163 601.2121212121212 207.11136950243645 607.6767676767677 197.53796519014955 614.1414141414141 198.09256803393063 620.6060606060606 198.37925768255502 627.070707070707 197.54833522989694 633.5353535353536 197.6443258365457 640 199.0025981604426 640 320 0 320"
      />
      
      <polygon
        fill="#2415b9"
        fillRule="evenodd"
        points="0 318.02122411411017 6.464646464646465 313.52736515883544 12.92929292929293 310.8961243769944 19.393939393939394 304.6063578853502 25.85858585858586 301.5123606070759 32.323232323232325 299.6347531794494 38.78787878787879 295.68732859146706 45.25252525252525 289.6072465784355 51.71717171717172 284.85403778244677 58.18181818181819 274.4471140779439 64.64646464646465 270.1967837052197 71.11111111111111 262.9523994117587 77.57575757575758 259.7806252324541 84.04040404040404 257.29399649280833 90.5050505050505 251.48861019965943 96.96969696969697 243.11581327505505 103.43434343434345 233.69078838170984 109.8989898989899 232.44230402457075 116.36363636363637 230.48713181249303 122.82828282828282 226.74327504866648 129.2929292929293 225.02616155130974 135.75757575757575 216.76222215727176 142.22222222222223 218.75154487729355 148.68686868686868 208.35864442199372 155.15151515151516 198.35256460342288 161.61616161616163 194.3476446469562 168.08080808080808 186.1187118254534 174.54545454545453 178.6990554122409 181.010101010101 176.47511767646319 187.47474747474746 173.8723354988274 193.93939393939394 171.3869567014399 200.40404040404042 162.65601104633598 206.8686868686869 154.128696826328 213.33333333333331 153.54793015013587 219.7979797979798 149.77125773453693 226.26262626262627 151.9918470015226 232.72727272727275 150.24045431013135 239.1919191919192 143.46430611150865 245.65656565656565 140.69806330453923 252.12121212121212 142.92928868651276 258.5858585858586 147.05369771608798 265.0505050505051 144.4471943485451 271.5151515151515 147.1408000328331 277.979797979798 149.53426433801866 284.44444444444446 150.79098273486682 290.9090909090909 152.38217823877636 297.37373737373736 155.03547274835594 303.83838383838383 154.49051332618336 310.3030303030303 148.88686559890266 316.7676767676768 148.96298438726134 323.23232323232327 145.9047762992773 329.6969696969697 142.14867797825588 336.16161616161617 137.81828941371572 342.62626262626264 139.730687403013 349.09090909090907 135.4238047030471 355.55555555555554 134.54738029555284 362.020202020202 137.45670136146884 368.4848484848485 142.8121134456181 374.9494949494949 144.75891112573868 381.4141414141414 147.33546466553608 387.8787878787879 150.18586516502995 394.3434343434343 149.4242873699875 400.80808080808083 152.07901812073192 407.27272727272725 154.55193678774376 413.7373737373738 158.66266845051584 420.2020202020202 162.78125896584388 426.66666666666663 164.84518098372175 433.13131313131316 158.58293218970434 439.5959595959596 161.70748184131892 446.0606060606061 166.23425951848523 452.52525252525254 170.43040539214192 458.98989898989896 168.92334587962117 465.4545454545455 169.57348631884406 471.9191919191919 173.83246304257972 478.3838383838384 177.51339066415696 484.8484848484849 181.8533427301195 491.3131313131313 177.91113466821687 497.77777777777777 179.4698775108936 504.24242424242425 180.20313216942625 510.7070707070707 179.21174486550646 517.1717171717172 181.55090719573246 523.6363636363636 185.57816839943476 530.1010101010102 189.55398753371279 536.5656565656566 186.62868749621882 543.030303030303 187.30182446038785 549.4949494949494 191.34294428469684 555.959595959596 193.42085981546776 562.4242424242424 195.7444719462228 568.8888888888889 199.38847736656012 575.3535353535353 200.81589869466134 581.8181818181818 202.90826758251296 588.2828282828283 205.04115342568093 594.7474747474747 208.50705104955625 601.2121212121212 207.47100006498107 607.6767676767677 197.89759575269414 614.1414141414141 198.45219859647528 620.6060606060606 198.73888824509962 627.070707070707 197.90796579244156 633.5353535353536 198.00395639909033 640 199.0025981604426 640 320 0 320"
      />
      
      <polygon
        fill="#f1e05a"
        fillRule="evenodd"
        points="0 318.02122411411017 6.464646464646465 313.52736515883544 12.92929292929293 310.8961243769944 19.393939393939394 304.6063578853502 25.85858585858586 301.5123606070759 32.323232323232325 299.6347531794494 38.78787878787879 295.68732859146706 45.25252525252525 289.6072465784355 51.71717171717172 284.85403778244677 58.18181818181819 275.55861860626317 64.64646464646465 271.2743601725105 71.11111111111111 264.3815595536298 77.57575757575758 261.62327831998016 84.04040404040404 259.0916536318647 90.5050505050505 253.23313849920152 96.96969696969697 246.00815820631965 103.43434343434345 237.6110964836273 109.8989898989899 236.28998627565616 116.36363636363637 234.21736560620786 122.82828282828282 230.5136924201662 129.2929292929293 228.68148871716485 135.75757575757575 222.60337874469363 142.22222222222223 224.41440259139796 148.68686868686868 213.85413921718128 155.15151515151516 203.680312599756 161.61616161616163 199.51276718914875 168.08080808080808 191.13118116074992 174.54545454545453 184.67470406865348 181.010101010101 182.2741584424634 187.47474747474746 179.49436404691136 193.93939393939394 176.83737612117926 200.40404040404042 169.27902245825794 206.8686868686869 161.9143923056829 213.33333333333331 161.10352269289987 219.7979797979798 157.6520672775577 226.26262626262627 159.74989202819725 232.72727272727275 157.76168774894984 239.1919191919192 151.88573389398027 245.65656565656565 148.87059950855877 252.12121212121212 150.8523630407597 258.5858585858586 154.74261044596673 265.0505050505051 153.0043672556389 271.5151515151515 155.44781042706686 277.979797979798 157.6119058530155 284.44444444444446 159.3993084656611 290.9090909090909 161.38431073823182 297.37373737373736 163.76282139912362 303.83838383838383 164.08013214751634 310.3030303030303 158.1837656926422 316.7676767676768 157.97610411416048 323.23232323232327 154.65151664098374 329.6969696969697 150.62842756281327 336.16161616161617 146.04742633070035 342.62626262626264 147.7086352160089 349.09090909090907 144.2696494663899 355.55555555555554 143.1489809348275 362.020202020202 145.7957408646092 368.4848484848485 150.90469606921485 374.9494949494949 152.60447276356655 381.4141414141414 154.9491539844053 387.8787878787879 157.56714991170807 394.3434343434343 156.58026356923142 400.80808080808083 159.02350380627047 407.27272727272725 161.28444697207547 413.7373737373738 165.1962030592156 420.2020202020202 169.1153607543393 426.66666666666663 170.98593798367875 433.13131313131316 165.66904963841603 439.5959595959596 168.5772989744302 446.0606060606061 172.9010436212063 452.52525252525254 176.89368997225733 458.98989898989896 175.19561063140927 465.4545454545455 175.6542935205344 471.9191919191919 179.7276566908136 478.3838383838384 183.23435542952555 484.8484848484849 187.39967829243082 491.3131313131313 183.2935516476363 497.77777777777777 184.68799983660423 504.24242424242425 185.2619735024763 510.7070707070707 184.1309027082681 517.1717171717172 186.3199115722625 523.6363636363636 190.2062266741471 530.1010101010102 194.04077727212018 536.5656565656566 190.98287343159205 543.030303030303 191.52310018748764 549.4949494949494 195.4353681830457 555.959595959596 197.39233471530184 562.4242424242424 199.5947188769771 568.8888888888889 203.12493307726174 575.3535353535353 204.43830147701232 581.8181818181818 206.42009866035875 588.2828282828283 208.4560166984383 594.7474747474747 211.81767797254977 601.2121212121212 210.68378322558738 607.6767676767677 201.0123101249327 614.1414141414141 201.47485895012878 620.6060606060606 201.66928424766485 627.070707070707 200.74891273471366 633.5353535353536 200.76094111318625 640 201.73535774883916 640 320 0 320"
      />
      
      <polygon
        fill="#22e8e8"
        fillRule="evenodd"
        points="0 319.92567426797524 6.464646464646465 319.8564690072758 12.92929292929293 319.827232922895 19.393939393939394 318.6603030981413 25.85858585858586 318.54753015661373 32.323232323232325 318.407598011281 38.78787878787879 318.26954474431415 45.25252525252525 316.01153620376715 51.71717171717172 316.0194990306562 58.18181818181819 310.27120240418526 64.64646464646465 309.37987234766445 71.11111111111111 306.9369358340482 77.57575757575758 307.0222698986931 84.04040404040404 306.2791044383663 90.5050505050505 304.58411863961715 96.96969696969697 300.1563037615717 103.43434343434345 294.7536545421124 109.8989898989899 293.47878768690504 116.36363636363637 293.78096174932284 122.82828282828282 290.88386798895624 129.2929292929293 291.254935789805 135.75757575757575 286.97854719275324 142.22222222222223 287.29592358913635 148.68686868686868 280.08963238210083 155.15151515151516 272.3565361913944 161.61616161616163 270.6873751242614 168.08080808080808 264.6410450161666 174.54545454545453 259.7160495370869 181.010101010101 258.48213518063267 187.47474747474746 256.49763808625073 193.93939393939394 254.70956897542112 200.40404040404042 249.75802313300179 206.8686868686869 243.84332065701733 213.33333333333331 243.32682407241543 219.7979797979798 241.83029984474797 226.26262626262627 242.76855235983655 232.72727272727275 241.70748594598808 239.1919191919192 237.21786680899226 245.65656565656565 234.04439838955722 252.12121212121212 235.7303031055957 258.5858585858586 237.4044391683539 265.0505050505051 235.5605282986233 271.5151515151515 237.0050903899723 277.979797979798 238.39937090889686 284.44444444444446 240.8175881335954 290.9090909090909 242.54150992043355 297.37373737373736 244.59172822600084 303.83838383838383 243.76035840730822 310.3030303030303 239.79407780581636 316.7676767676768 239.82808693784875 323.23232323232327 237.4353176649635 329.6969696969697 235.72255697153327 336.16161616161617 231.99176348991153 342.62626262626264 232.20073278787027 349.09090909090907 229.58700156528133 355.55555555555554 229.00006075159138 362.020202020202 230.61538378774083 368.4848484848485 233.2473536948595 374.9494949494949 234.3858765480816 381.4141414141414 235.44978797876004 387.8787878787879 235.98082309123492 394.3434343434343 235.0239145249361 400.80808080808083 236.27274973765196 407.27272727272725 237.10995146939908 413.7373737373738 239.17611433503703 420.2020202020202 241.04017551069018 426.66666666666663 242.01074437675317 433.13131313131316 236.84732169520305 439.5959595959596 238.18587507462445 446.0606060606061 240.6023293081041 452.52525252525254 242.69852553852968 458.98989898989896 240.2079591524788 465.4545454545455 240.05521870948343 471.9191919191919 242.49392020332004 478.3838383838384 244.47759481233032 484.8484848484849 246.78131164605713 491.3131313131313 243.48883373628138 497.77777777777777 244.0437870554584 504.24242424242425 246.2049860990576 510.7070707070707 246.89559103891054 517.1717171717172 247.99731341042542 523.6363636363636 250.11823598880295 530.1010101010102 252.23284520127925 536.5656565656566 249.58178627857836 543.030303030303 249.44276748832112 549.4949494949494 251.59489664913292 555.959595959596 252.51203353794295 562.4242424242424 253.3534420738833 568.8888888888889 255.30239562619957 575.3535353535353 256.1532914527085 581.8181818181818 257.94405082619943 588.2828282828283 258.9969752349374 594.7474747474747 260.8264829006381 601.2121212121212 259.22061311345567 607.6767676767677 252.11871373988893 614.1414141414141 252.09484887153678 620.6060606060606 251.32929586821822 627.070707070707 250.03622995565902 633.5353535353536 248.8402623570919 640 249.44590764881622 640 320 0 320"
      />
      
      <polygon
        fill="#22e4e8"
        fillRule="evenodd"
        points="0 319.92567426797524 6.464646464646465 319.8564690072758 12.92929292929293 319.827232922895 19.393939393939394 318.6603030981413 25.85858585858586 318.54753015661373 32.323232323232325 318.407598011281 38.78787878787879 318.26954474431415 45.25252525252525 316.01153620376715 51.71717171717172 316.0194990306562 58.18181818181819 310.27120240418526 64.64646464646465 309.37987234766445 71.11111111111111 306.9369358340482 77.57575757575758 307.0222698986931 84.04040404040404 306.2791044383663 90.5050505050505 304.58411863961715 96.96969696969697 300.1563037615717 103.43434343434345 294.7536545421124 109.8989898989899 293.47878768690504 116.36363636363637 293.78096174932284 122.82828282828282 290.88386798895624 129.2929292929293 291.254935789805 135.75757575757575 286.97854719275324 142.22222222222223 287.29592358913635 148.68686868686868 280.08963238210083 155.15151515151516 272.3565361913944 161.61616161616163 270.6873751242614 168.08080808080808 264.6410450161666 174.54545454545453 259.7160495370869 181.010101010101 258.48213518063267 187.47474747474746 256.49763808625073 193.93939393939394 254.70956897542112 200.40404040404042 249.75802313300179 206.8686868686869 243.84332065701733 213.33333333333331 243.32682407241543 219.7979797979798 241.83029984474797 226.26262626262627 242.76855235983655 232.72727272727275 241.70748594598808 239.1919191919192 237.21786680899226 245.65656565656565 234.04439838955722 252.12121212121212 235.7303031055957 258.5858585858586 237.4044391683539 265.0505050505051 235.5605282986233 271.5151515151515 237.0050903899723 277.979797979798 238.39937090889686 284.44444444444446 240.8175881335954 290.9090909090909 242.54150992043355 297.37373737373736 244.59172822600084 303.83838383838383 243.76035840730822 310.3030303030303 239.79407780581636 316.7676767676768 239.82808693784875 323.23232323232327 237.4353176649635 329.6969696969697 235.7739327661825 336.16161616161617 232.04313928456077 342.62626262626264 232.2521085825195 349.09090909090907 229.63837735993053 355.55555555555554 229.0514365462406 362.020202020202 230.66675958239006 368.4848484848485 233.29872948950873 374.9494949494949 234.4372523427308 381.4141414141414 235.50116377340927 387.8787878787879 236.03219888588416 394.3434343434343 235.07529031958532 400.80808080808083 236.32412553230122 407.27272727272725 237.16132726404828 413.7373737373738 239.22749012968626 420.2020202020202 241.0915513053394 426.66666666666663 242.0621201714024 433.13131313131316 236.89869748985228 439.5959595959596 238.23725086927368 446.0606060606061 240.65370510275332 452.52525252525254 242.7499013331789 458.98989898989896 240.25933494712802 465.4545454545455 240.10659450413266 471.9191919191919 242.54529599796928 478.3838383838384 244.52897060697956 484.8484848484849 246.83268744070637 491.3131313131313 243.5402095309306 497.77777777777777 244.09516285010764 504.24242424242425 246.2563618937068 510.7070707070707 246.9469668335598 517.1717171717172 248.04868920507465 523.6363636363636 250.16961178345218 530.1010101010102 252.28422099592848 536.5656565656566 249.6331620732276 543.030303030303 249.49414328297036 549.4949494949494 251.64627244378215 555.959595959596 252.56340933259216 562.4242424242424 253.40481786853252 568.8888888888889 255.3537714208488 575.3535353535353 256.20466724735775 581.8181818181818 257.99542662084866 588.2828282828283 259.0483510295866 594.7474747474747 260.8778586952873 601.2121212121212 259.27198890810496 607.6767676767677 252.17008953453814 614.1414141414141 252.14622466618601 620.6060606060606 251.38067166286746 627.070707070707 250.08760575030826 633.5353535353536 248.89163815174112 640 249.44590764881622 640 320 0 320"
      />
      
      <polygon
        fill="#e34c26"
        fillRule="evenodd"
        points="0 319.92567426797524 6.464646464646465 319.8564690072758 12.92929292929293 319.827232922895 19.393939393939394 318.6603030981413 25.85858585858586 318.63876251183973 32.323232323232325 318.5126029634831 38.78787878787879 318.3713444809074 45.25252525252525 316.1105250812413 51.71717171717172 316.2070752011192 58.18181818181819 311.64862444930327 64.64646464646465 310.75104730165634 71.11111111111111 308.26758638323344 77.57575757575758 308.31230300150764 84.04040404040404 307.5297601009898 90.5050505050505 305.79781157577395 96.96969696969697 302.08576971461576 103.43434343434345 297.72661395202226 109.8989898989899 296.3609988454267 116.36363636363637 296.5751955585649 122.82828282828282 294.7044104627602 129.2929292929293 294.97529988236136 135.75757575757575 291.7197459617032 142.22222222222223 292.19422809960145 148.68686868686868 288.1167910137594 155.15151515151516 282.4760531788667 161.61616161616163 280.50910834729734 168.08080808080808 276.09420262407275 174.54545454545453 271.3320997532659 181.010101010101 270.33210144488135 187.47474747474746 269.0820110598512 193.93939393939394 268.32411653937936 200.40404040404042 264.1112498173949 206.8686868686869 258.7341477666836 213.33333333333331 258.87803975656647 219.7979797979798 257.3390883701618 226.26262626262627 258.0372802921405 232.72727272727275 256.52385103392146 239.1919191919192 252.72250828026193 245.65656565656565 250.1933765820315 252.12121212121212 252.19006478257802 258.5858585858586 254.18869036434074 265.0505050505051 252.86782104719555 271.5151515151515 253.8009977262492 277.979797979798 254.90774436277627 284.44444444444446 256.83306837870543 290.9090909090909 258.58293905190504 297.37373737373736 260.4521244698668 303.83838383838383 259.9720828853035 310.3030303030303 257.86441310416205 316.7676767676768 257.5420591741895 323.23232323232327 255.72567083141044 329.6969696969697 254.32300621435581 336.16161616161617 252.44399262742792 342.62626262626264 252.30170767240165 349.09090909090907 249.8960042349587 355.55555555555554 249.60729682665988 362.020202020202 250.639874499262 368.4848484848485 252.6897854234499 374.9494949494949 254.0438030198123 381.4141414141414 254.88135475429803 387.8787878787879 255.7653754840376 394.3434343434343 254.20612271604864 400.80808080808083 254.90085457073423 407.27272727272725 255.1710124092947 413.7373737373738 256.70489943701693 420.2020202020202 258.1051348009974 426.66666666666663 258.55637350188044 433.13131313131316 255.16943743293393 439.5959595959596 257.1207231997235 446.0606060606061 258.97909142357156 452.52525252525254 260.5159151944676 458.98989898989896 258.6005624804684 465.4545454545455 258.0205901768131 471.9191919191919 259.91247031775293 478.3838383838384 261.38287299528827 484.8484848484849 263.1721372817791 491.3131313131313 261.82044372086347 497.77777777777777 263.5576218909682 504.24242424242425 265.2078855742331 510.7070707070707 265.5769622958851 517.1717171717172 267.22153569888627 523.6363636363636 268.7758212803708 530.1010101010102 270.3394230402023 536.5656565656566 268.43863156217736 543.030303030303 268.9636346426025 549.4949494949494 270.52147532632523 555.959595959596 271.98379057011914 562.4242424242424 273.4494602217469 568.8888888888889 274.8252325284478 575.3535353535353 276.20417185490925 581.8181818181818 277.54100655987224 588.2828282828283 278.7133735260743 594.7474747474747 279.9736343045138 601.2121212121212 278.92975508735634 607.6767676767677 275.7239257433074 614.1414141414141 277.03248491657183 620.6060606060606 278.286298622577 627.070707070707 278.4158798396497 633.5353535353536 279.6448682438123 640 279.99946057740374 640 320 0 320"
      />
      
      <polygon
        fill="#00ADD8"
        fillRule="evenodd"
        points="0 319.92567426797524 6.464646464646465 319.8564690072758 12.92929292929293 319.827232922895 19.393939393939394 318.6603030981413 25.85858585858586 318.63876251183973 32.323232323232325 318.5153627337928 38.78787878787879 318.37402001084035 45.25252525252525 316.61218084279443 51.71717171717172 316.693418201574 58.18181818181819 313.1394445868933 64.64646464646465 312.19636102088106 71.11111111111111 310.882031729368 77.57575757575758 310.8639665100713 84.04040404040404 310.0035356443302 90.5050505050505 308.66170911303175 96.96969696969697 305.87144795766125 103.43434343434345 303.79316508995856 109.8989898989899 303.024448659075 116.36363636363637 303.3152939477663 122.82828282828282 302.4901896846604 129.2929292929293 302.91324752915926 135.75757575757575 300.9756944095278 142.22222222222223 301.5563929203157 148.68686868686868 299.6311542498566 155.15151515151516 295.8211953233274 161.61616161616163 294.078457542155 168.08080808080808 290.71613396212433 174.54545454545453 287.7123882135053 181.010101010101 287.3468162355375 187.47474747474746 286.1158417561805 193.93939393939394 284.9373027794386 200.40404040404042 282.3765285135053 206.8686868686869 277.94385639315595 213.33333333333331 278.0796649155088 219.7979797979798 276.0328268084243 226.26262626262627 276.2116854826754 232.72727272727275 274.14903767698127 239.1919191919192 270.3047509240903 245.65656565656565 268.0869832568474 252.12121212121212 269.6660581730082 258.5858585858586 271.1481885059397 265.0505050505051 270.4125531958346 271.5151515151515 270.81018961898053 277.979797979798 272.16290095493855 284.44444444444446 273.56150902144896 290.9090909090909 274.9229016234084 297.37373737373736 276.29331438666117 303.83838383838383 276.4643325597902 310.3030303030303 274.6332731395879 316.7676767676768 273.79906422255686 323.23232323232327 272.04437615411973 329.6969696969697 270.14359957507526 336.16161616161617 268.2494722568774 342.62626262626264 268.7286083636104 349.09090909090907 266.9323451526145 355.55555555555554 266.17323480341196 362.020202020202 266.70015032724257 368.4848484848485 268.2754105598252 374.9494949494949 269.77301528210506 381.4141414141414 270.1456931387072 387.8787878787879 271.63101822405315 394.3434343434343 270.87589220130275 400.80808080808083 271.21139319712603 407.27272727272725 272.6978483136256 413.7373737373738 274.0958473920166 420.2020202020202 275.46915772953724 426.66666666666663 275.70897887034334 433.13131313131316 272.95246798492633 439.5959595959596 274.3609427933494 446.0606060606061 275.7097812986048 452.52525252525254 277.06170563959006 458.98989898989896 276.4936317644723 465.4545454545455 276.6994758728425 471.9191919191919 278.0211977199241 478.3838383838384 279.09846459667637 484.8484848484849 280.346980149198 491.3131313131313 279.26737587929233 497.77777777777777 280.4775257351469 504.24242424242425 281.6113157474143 510.7070707070707 281.52747168356586 517.1717171717172 282.6851607907398 523.6363636363636 283.78243299092213 530.1010101010102 284.88795891801806 536.5656565656566 282.61007116229956 543.030303030303 282.8417975740013 549.4949494949494 283.9760129778484 555.959595959596 285.0406908737321 562.4242424242424 286.10780252320956 568.8888888888889 287.10946040333835 575.3535353535353 288.1134355475841 581.8181818181818 289.0867433497363 588.2828282828283 289.9403173450445 594.7474747474747 290.8578830778876 601.2121212121212 291.7191584794914 607.6767676767677 290.34723189762383 614.1414141414141 291.22361172120355 620.6060606060606 292.1019978353254 627.070707070707 292.9284002579004 633.5353535353536 293.72848092298165 640 293.95932026993785 640 320 0 320"
      />
      
      <polygon
        fill="#244776"
        fillRule="evenodd"
        points="0 319.92567426797524 6.464646464646465 319.8564690072758 12.92929292929293 319.827232922895 19.393939393939394 318.6603030981413 25.85858585858586 318.63876251183973 32.323232323232325 318.5153627337928 38.78787878787879 318.37402001084035 45.25252525252525 316.61218084279443 51.71717171717172 316.693418201574 58.18181818181819 313.1394445868933 64.64646464646465 312.19636102088106 71.11111111111111 310.882031729368 77.57575757575758 310.8639665100713 84.04040404040404 310.0035356443302 90.5050505050505 308.66170911303175 96.96969696969697 305.87144795766125 103.43434343434345 303.79316508995856 109.8989898989899 303.024448659075 116.36363636363637 303.3152939477663 122.82828282828282 302.4901896846604 129.2929292929293 302.91324752915926 135.75757575757575 300.9756944095278 142.22222222222223 301.5563929203157 148.68686868686868 299.6311542498566 155.15151515151516 295.8211953233274 161.61616161616163 294.078457542155 168.08080808080808 290.71613396212433 174.54545454545453 287.7123882135053 181.010101010101 287.3468162355375 187.47474747474746 286.1158417561805 193.93939393939394 284.9373027794386 200.40404040404042 282.3765285135053 206.8686868686869 277.94385639315595 213.33333333333331 278.0796649155088 219.7979797979798 276.0328268084243 226.26262626262627 276.2116854826754 232.72727272727275 274.14903767698127 239.1919191919192 270.3047509240903 245.65656565656565 268.0869832568474 252.12121212121212 269.6660581730082 258.5858585858586 271.1481885059397 265.0505050505051 270.4125531958346 271.5151515151515 270.81018961898053 277.979797979798 272.16290095493855 284.44444444444446 273.56150902144896 290.9090909090909 274.9229016234084 297.37373737373736 276.29331438666117 303.83838383838383 276.4643325597902 310.3030303030303 274.6332731395879 316.7676767676768 273.79906422255686 323.23232323232327 272.04437615411973 329.6969696969697 270.14359957507526 336.16161616161617 268.2494722568774 342.62626262626264 268.7286083636104 349.09090909090907 266.9323451526145 355.55555555555554 266.17323480341196 362.020202020202 266.70015032724257 368.4848484848485 268.2754105598252 374.9494949494949 269.77301528210506 381.4141414141414 270.1456931387072 387.8787878787879 271.63101822405315 394.3434343434343 270.87589220130275 400.80808080808083 271.21139319712603 407.27272727272725 272.6978483136256 413.7373737373738 274.0958473920166 420.2020202020202 275.46915772953724 426.66666666666663 275.70897887034334 433.13131313131316 272.95246798492633 439.5959595959596 274.3609427933494 446.0606060606061 275.7097812986048 452.52525252525254 277.06170563959006 458.98989898989896 276.4936317644723 465.4545454545455 276.6994758728425 471.9191919191919 278.0211977199241 478.3838383838384 279.09846459667637 484.8484848484849 280.346980149198 491.3131313131313 279.26737587929233 497.77777777777777 280.4775257351469 504.24242424242425 281.6113157474143 510.7070707070707 281.52747168356586 517.1717171717172 282.6851607907398 523.6363636363636 283.78243299092213 530.1010101010102 284.88795891801806 536.5656565656566 282.61007116229956 543.030303030303 282.8417975740013 549.4949494949494 283.9760129778484 555.959595959596 285.0406908737321 562.4242424242424 286.10780252320956 568.8888888888889 287.10946040333835 575.3535353535353 288.1134355475841 581.8181818181818 289.0867433497363 588.2828282828283 289.9403173450445 594.7474747474747 290.8578830778876 601.2121212121212 291.7191584794914 607.6767676767677 290.40279310358545 614.1414141414141 291.27753084374143 620.6060606060606 292.1542711096213 627.070707070707 292.9790779171513 633.5353535353536 293.77766083396625 640 294.00806804883854 640 320 0 320"
      />
      
      <polygon
        fill="#563d7c"
        fillRule="evenodd"
        points="0 319.92567426797524 6.464646464646465 319.8564690072758 12.92929292929293 319.827232922895 19.393939393939394 318.6603030981413 25.85858585858586 318.63876251183973 32.323232323232325 318.5153627337928 38.78787878787879 318.37402001084035 45.25252525252525 316.61218084279443 51.71717171717172 316.693418201574 58.18181818181819 314.2496046106666 64.64646464646465 313.27263408426165 71.11111111111111 311.92649608600107 77.57575757575758 311.8765492063284 84.04040404040404 310.9852098405136 90.5050505050505 309.61437047321243 96.96969696969697 306.79502979605775 103.43434343434345 305.7914283696174 109.8989898989899 304.96171612928816 116.36363636363637 305.1934272618286 122.82828282828282 304.3146393006263 129.2929292929293 304.6820070167444 135.75757575757575 303.81183843426135 142.22222222222223 304.3059653402628 148.68686868686868 302.29946454789115 155.15151515151516 298.4080570053148 161.61616161616163 296.5863566827983 168.08080808080808 293.14991344933037 174.54545454545453 290.0718780961454 181.010101010101 289.6365727245843 187.47474747474746 288.33570455915464 193.93939393939394 287.0894055330919 200.40404040404042 284.4692082762904 206.8686868686869 279.97265816441546 213.33333333333331 280.0485066133427 219.7979797979798 277.94157074570296 226.26262626262627 278.06401766716175 232.72727272727275 275.94482823066636 239.1919191919192 273.17511246107927 245.65656565656565 271.62233972206946 252.12121212121212 273.0934997815695 258.5858585858586 274.4743337959618 265.0505050505051 273.6371698459741 271.5151515151515 273.9363769254254 277.979797979798 275.20276880899706 284.44444444444446 276.50858674453673 290.9090909090909 277.7828799067956 297.37373737373736 279.0659935840097 303.83838383838383 279.1550667481637 310.3030303030303 277.24187428357794 316.7676767676768 276.3280391526875 323.23232323232327 274.49860844792715 329.6969696969697 272.52291815116337 336.16161616161617 270.55847103605214 342.62626262626264 270.96712643688284 349.09090909090907 269.1025337272582 355.55555555555554 268.28350091171177 362.020202020202 268.7460018752176 368.4848484848485 270.2607978323259 374.9494949494949 271.6977998727407 381.4141414141414 272.0135916752143 387.8787878787879 273.44190010916174 394.3434343434343 272.63149825243863 400.80808080808083 272.9151131892203 407.27272727272725 274.3495633630894 413.7373737373738 275.6987467026785 420.2020202020202 277.0231294049165 426.66666666666663 277.215516507542 433.13131313131316 275.39027184087877 439.5959595959596 276.72433384558036 446.0606060606061 278.00332377271087 452.52525252525254 279.28523903758867 458.98989898989896 278.651449664274 465.4545454545455 278.79142774336896 471.9191919191919 280.0492937932683 478.3838383838384 281.06662135241606 484.8484848484849 282.2550601057066 491.3131313131313 281.1190636058106 497.77777777777777 282.2726917646723 504.24242424242425 283.3516852791311 510.7070707070707 283.2197869685091 517.1717171717172 284.3258190499339 523.6363636363636 285.37460246687147 530.1010101010102 286.4315284335031 536.5656565656566 284.10802112991945 543.030303030303 284.29402349538975 549.4949494949494 285.38391063059447 555.959595959596 286.40697875663375 562.4242424242424 287.432385282792 568.8888888888889 288.39489573216235 575.3535353535353 289.35963379488805 581.8181818181818 290.294902188045 588.2828282828283 291.1151169551232 594.7474747474747 291.99682258880426 601.2121212121212 292.8244371862635 607.6767676767677 291.47433383976926 614.1414141414141 292.31740271809076 620.6060606060606 293.1624014767625 627.070707070707 293.9564356218199 633.5353535353536 294.72613332010604 640 294.94820666182505 640 320 0 320"
      />
      
      <polygon
        fill="#178600"
        fillRule="evenodd"
        points="0 320 6.464646464646465 320 12.92929292929293 320 19.393939393939394 320 25.85858585858586 320 32.323232323232325 320 38.78787878787879 320 45.25252525252525 320 51.71717171717172 320 58.18181818181819 318.73032871725457 64.64646464646465 318.7690847774845 71.11111111111111 318.80546386464886 77.57575757575758 318.8419263450031 84.04040404040404 318.8772758201421 90.5050505050505 318.9104573908742 96.96969696969697 318.943714966957 103.43434343434345 318.9749330164686 109.8989898989899 319.0062225810864 116.36363636363637 319.03655703885613 122.82828282828282 319.06409563615625 129.2929292929293 319.09266361942827 135.75757575757575 319.1194794209486 142.22222222222223 319.1463568323219 148.68686868686868 319.17158582049836 155.15151515151516 319.18567782078975 161.61616161616163 319.21053452968306 168.08080808080808 319.2338667748969 174.54545454545453 319.25725251258814 181.010101010101 319.27920404359594 187.47474747474746 318.1941409311063 193.93939393939394 318.24926373713697 200.40404040404042 318.29760437314025 206.8686868686869 316.13887486123826 213.33333333333331 316.2474856544133 219.7979797979798 316.36202887224744 226.26262626262627 316.469547015297 232.72727272727275 316.5773122964692 239.1919191919192 316.24156076144567 245.65656565656565 315.63817879952916 252.12121212121212 315.77132102089126 258.5858585858586 315.8962973679486 265.0505050505051 316.0215602891885 271.5151515151515 316.14299992654225 277.979797979798 316.2494979620884 284.44444444444446 316.36398006327727 290.9090909090909 316.47144056268525 297.37373737373736 316.57914798443744 303.83838383838383 316.68024924963476 310.3030303030303 315.9758120963336 316.7676767676768 316.09864802503427 323.23232323232327 314.31084507164644 329.6969696969697 314.4845032721848 336.16161616161617 313.52091212269886 342.62626262626264 313.7186822166852 349.09090909090907 313.91041596305496 355.55555555555554 312.97612463476065 362.020202020202 313.19052366577813 368.4848484848485 313.3917741307717 374.9494949494949 313.59348628948146 381.4141414141414 313.78282787610084 387.8787878787879 313.97260358818494 394.3434343434343 314.1565864019931 400.80808080808083 314.3292851081906 407.27272727272725 314.5023804046973 413.7373737373738 314.66485995158115 420.2020202020202 314.82771197297615 426.66666666666663 314.9855930368835 433.13131313131316 313.2129037531146 439.5959595959596 313.4200757202733 446.0606060606061 313.6145421451605 452.52525252525254 313.80945451194526 458.98989898989896 313.1987267053327 465.4545454545455 313.4063317704403 471.9191919191919 313.6076001450359 478.3838383838384 313.7965238409416 484.8484848484849 313.9858811485541 491.3131313131313 314.1636253687925 497.77777777777777 314.3417772045857 504.24242424242425 314.51449142627314 510.7070707070707 314.66595528352303 517.1717171717172 314.8287740134032 523.6363636363636 314.9816067273257 530.1010101010102 315.13479033792566 536.5656565656566 315.2785788569582 543.030303030303 315.42269761959864 549.4949494949494 315.5624171756949 555.959595959596 315.6935675985991 562.4242424242424 315.8250188576064 568.8888888888889 315.94840845297085 575.3535353535353 316.07208057410526 581.8181818181818 316.1919781156068 588.2828282828283 316.29712402243905 594.7474747474747 316.4101522091896 601.2121212121212 316.5162482291427 607.6767676767677 316.62258803751655 614.1414141414141 316.7224053496794 620.6060606060606 316.82245200338957 627.070707070707 316.91944505454353 633.5353535353536 317.01048905583116 640 317.03675691395125 640 320 0 320"
      />
      
      <polygon
        fill="#555555"
        fillRule="evenodd"
        points="0 320 6.464646464646465 320 12.92929292929293 320 19.393939393939394 320 25.85858585858586 320 32.323232323232325 320 38.78787878787879 320 45.25252525252525 320 51.71717171717172 320 58.18181818181819 318.73032871725457 64.64646464646465 318.7690847774845 71.11111111111111 318.80546386464886 77.57575757575758 318.8419263450031 84.04040404040404 318.8772758201421 90.5050505050505 318.9104573908742 96.96969696969697 318.943714966957 103.43434343434345 318.9749330164686 109.8989898989899 319.0062225810864 116.36363636363637 319.03655703885613 122.82828282828282 319.06409563615625 129.2929292929293 319.09266361942827 135.75757575757575 319.1194794209486 142.22222222222223 319.1463568323219 148.68686868686868 319.17158582049836 155.15151515151516 319.18567782078975 161.61616161616163 319.21053452968306 168.08080808080808 319.2338667748969 174.54545454545453 319.25725251258814 181.010101010101 319.27920404359594 187.47474747474746 318.1941409311063 193.93939393939394 318.24926373713697 200.40404040404042 318.29760437314025 206.8686868686869 317.24284944483895 213.33333333333331 317.3188328066029 219.7979797979798 317.40067378986896 226.26262626262627 317.4774954093736 232.72727272727275 317.55449357665896 239.1919191919192 317.18891407727483 245.65656565656565 316.55753364304513 252.12121212121212 316.66261306959916 258.5858585858586 316.7612477109692 265.0505050505051 316.86010861133883 271.5151515151515 316.9559520057856 277.979797979798 317.0400031140865 284.44444444444446 317.1303554636011 290.9090909090909 317.21516616302597 297.37373737373736 317.30017178221567 303.83838383838383 317.37996363163694 310.3030303030303 317.45993889264514 316.7676767676768 317.53747267314003 323.23232323232327 316.50571005696975 329.6969696969697 316.6123712414894 336.16161616161617 315.5858920092892 342.62626262626264 315.7206298600815 349.09090909090907 315.85125528401534 355.55555555555554 314.86337406982557 362.020202020202 315.0201660388124 368.4848484848485 315.1673424524218 374.9494949494949 315.31485643582744 381.4141414141414 315.4533237583049 387.8787878787879 315.59210848044177 394.3434343434343 315.7266567853773 400.80808080808083 315.85295297659917 407.27272727272725 315.9795392047322 413.7373737373738 316.0983620673613 420.2020202020202 316.2174572217019 426.66666666666663 316.3329171892158 433.13131313131316 315.58525505218716 439.5959595959596 315.72001232302983 446.0606060606061 315.84650528354524 452.52525252525254 315.97328851730043 458.98989898989896 316.09229571628066 465.4545454545455 316.21157633724005 471.9191919191919 316.327215852881 478.3838383838384 316.4357628373191 484.8484848484849 316.5445590971128 491.3131313131313 316.6466828742007 497.77777777777777 316.7490408221605 504.24242424242425 316.84827471079933 510.7070707070707 316.9352989363366 517.1717171717172 317.0288471685332 523.6363636363636 317.11665806023814 530.1010101010102 317.2046703450581 536.5656565656566 317.28728478063744 543.030303030303 317.3700888956506 549.4949494949494 317.45036552707023 555.959595959596 317.5257185489345 562.4242424242424 317.6012444811732 568.8888888888889 317.6721384950683 575.3535353535353 317.74319502087695 581.8181818181818 317.81208266613874 588.2828282828283 317.87249474380565 594.7474747474747 317.9374357005225 601.2121212121212 317.99839356380625 607.6767676767677 318.05949174466036 614.1414141414141 318.1168422359725 620.6060606060606 318.17432455757375 627.070707070707 318.23005236496226 633.5353535353536 318.2823620996321 640 318.2974543866453 640 320 0 320"
      />
      
      <polygon
        fill="#C1F12E"
        fillRule="evenodd"
        points="0 320 6.464646464646465 320 12.92929292929293 320 19.393939393939394 320 25.85858585858586 320 32.323232323232325 320 38.78787878787879 320 45.25252525252525 320 51.71717171717172 320 58.18181818181819 319.0077746541179 64.64646464646465 319.0380618153311 71.11111111111111 319.06649143331293 77.57575757575758 319.09498619580245 84.04040404040404 319.1226111660885 90.5050505050505 319.1485419681702 96.96969696969697 319.17453216067054 103.43434343434345 319.1989285218935 109.8989898989899 319.2233807491555 116.36363636363637 319.247086599148 122.82828282828282 319.26860750852023 129.2929292929293 319.29093289091054 135.75757575757575 319.31188894397087 142.22222222222223 319.3328931669763 148.68686868686868 319.3526091624812 155.15151515151516 319.36117553165553 161.61616161616163 319.3806752761656 168.08080808080808 319.398979105203 174.54545454545453 319.4173248877143 181.010101010101 319.43454557114825 187.47474747474746 319.44084481898113 193.93939393939394 319.45791270052666 200.40404040404042 319.4728806478417 206.8686868686869 319.4862108170245 213.33333333333331 319.50139554964267 219.7979797979798 319.5166151767005 226.26262626262627 319.5309013569454 232.72727272727275 319.5452203354975 239.1919191919192 319.3091075303747 245.65656565656565 318.61506599169155 252.12121212121212 318.65734046156706 258.5858585858586 318.69702189233504 265.0505050505051 318.73679456651433 271.5151515151515 318.7753531279145 277.979797979798 318.8091676484367 284.44444444444446 318.84551705066696 290.9090909090909 318.8796373085431 297.37373737373736 318.9138356576272 303.83838383838383 318.9459366926463 310.3030303030303 318.9781114005549 316.7676767676768 319.0093039060214 323.23232323232327 319.03858348514996 329.6969696969697 319.06793016106633 336.16161616161617 319.0954770401445 342.62626262626264 319.1230870086985 349.09090909090907 319.14985431146874 355.55555555555554 319.17332822029874 362.020202020202 319.19856188367254 368.4848484848485 319.22224794370896 374.9494949494949 319.2459883901616 381.4141414141414 319.2682728465939 387.8787878787879 319.2906083705661 394.3434343434343 319.3122621685687 400.80808080808083 319.33258787145417 407.27272727272725 319.35296019273574 413.7373737373738 319.3720831882685 420.2020202020202 319.39124995597825 426.66666666666663 319.40983171778953 433.13131313131316 318.5742206936716 439.5959595959596 318.6177417458284 446.0606060606061 318.6585937227017 452.52525252525254 318.69953930627287 458.98989898989896 318.7379737437531 465.4545454545455 318.7764964448486 471.9191919191919 318.8138431540046 478.3838383838384 318.84889932473186 484.8484848484849 318.8840360527052 491.3131313131313 318.9170177715962 497.77777777777777 318.9500751156569 504.24242424242425 318.9821236446138 510.7070707070707 319.0102286703251 517.1717171717172 319.0404410283813 523.6363636363636 319.0688002615245 530.1010101010102 319.0972245364237 536.5656565656566 319.1239055278589 543.030303030303 319.15064786199287 549.4949494949494 319.1765739375015 555.959595959596 319.20090976776316 562.4242424242424 319.2253015770907 568.8888888888889 319.24819734382834 575.3535353535353 319.2711456782791 581.8181818181818 319.2933935551456 588.2828282828283 319.31290412967314 594.7474747474747 319.33387727032283 601.2121212121212 319.35356423850374 607.6767676767677 319.37329637628335 614.1414141414141 319.3918181722671 620.6060606060606 319.4103826101604 627.070707070707 319.4283803422133 633.5353535353536 319.44527427559325 640 319.4501484308087 640 320 0 320"
      />
      

      
        <g id="labels">
        
          
          <text x="0" y="330">
            Jul 2014
          </text>
          
        
          
        
          
        
          
        
          
        
          
        
          
        
          
        
          
        
          
        
          
        
          
        
          
        
          
          <text x="83.2" y="330">
            Aug 2015
          </text>
          
        
          
        
          
        
          
        
          
        
          
        
          
        
          
        
          
        
          
        
          
        
          
        
          
        
          
          <text x="166.4" y="330">
            Sep 2016
          </text>
          
        
          
        
          
        
          
        
          
        
          
        
          
        
          
        
          
        
          
        
          
        
          
        
          
        
          
          <text x="249.6" y="330">
            Oct 2017
          </text>
          
        
          
        
          
        
          
        
          
        
          
        
          
        
          
        
          
        
          
        
          
        
          
        
          
        
          
          <text x="332.8" y="330">
            Nov 2018
          </text>
          
        
          
        
          
        
          
        
          
        
          
        
          
        
          
        
          
        
          
        
          
        
          
        
          
        
          
          <text x="416" y="330">
            Dec 2019
          </text>
          
        
          
        
          
        
          
        
          
        
          
        
          
        
          
        
          
        
          
        
          
        
          
        
          
        
          
          <text x="499.2" y="330">
            Jan 2021
          </text>
          
        
          
        
          
        
          
        
          
        
          
        
          
        
          
        
          
        
          
        
          
        
          
        
          
        
          
          <text x="582.4" y="330">
            Feb 2022
          </text>
          
        
          
        
          
        
          
        
          
        
          
        
          
        
          
        
          
        
        </g>
      

      
        <text text-anchor="middle" y="370" x="320" id="legend">
          
          <tspan xml:space="preserve" fill="#C1F12E">   </tspan> Batchfile
          
          <tspan xml:space="preserve" fill="#555555">   </tspan> C
          
          <tspan xml:space="preserve" fill="#178600">   </tspan> C#
          
          <tspan xml:space="preserve" fill="#563d7c">   </tspan> CSS
          
          <tspan xml:space="preserve" fill="#244776">   </tspan> CoffeeScript
          
          <tspan xml:space="preserve" fill="#00ADD8">   </tspan> Go
          
          <tspan xml:space="preserve" fill="#e34c26">   </tspan> HTML
          
          <tspan xml:space="preserve" fill="#22e4e8">   </tspan> JSON
          
        </text>
      
        <text text-anchor="middle" y="400" x="320" id="legend">
          
          <tspan xml:space="preserve" fill="#22e8e8">   </tspan> JSon
          
          <tspan xml:space="preserve" fill="#f1e05a">   </tspan> JavaScript
          
          <tspan xml:space="preserve" fill="#2415b9">   </tspan> Less
          
          <tspan xml:space="preserve" fill="#755462">   </tspan> MySQL
          
          <tspan xml:space="preserve" fill="#4F5D95">   </tspan> PHP
          
          <tspan xml:space="preserve" fill="#fd2fdb">   </tspan> PLpgSQL
          
          <tspan xml:space="preserve" fill="#0298c3">   </tspan> Perl
          
          <tspan xml:space="preserve" fill="#3572A5">   </tspan> Python
          
        </text>
      
        <text text-anchor="middle" y="430" x="320" id="legend">
          
          <tspan xml:space="preserve" fill="#701516">   </tspan> Ruby
          
          <tspan xml:space="preserve" fill="#dea584">   </tspan> Rust
          
          <tspan xml:space="preserve" fill="#26c0b0">   </tspan> SCSS
          
          <tspan xml:space="preserve" fill="#0141ae">   </tspan> SQL
          
          <tspan xml:space="preserve" fill="#89e051">   </tspan> Shell
          
          <tspan xml:space="preserve" fill="#2770da">   </tspan> TSQL
          
          <tspan xml:space="preserve" fill="#2b7489">   </tspan> TypeScript
          
          <tspan xml:space="preserve" fill="#2c3e50">   </tspan> Vue
          
        </text>
      
        <text text-anchor="middle" y="460" x="320" id="legend">
          
          <tspan xml:space="preserve" fill="#4B6C4B">   </tspan> Yacc
          
        </text>
      

    </svg>