<svg
      xmlns="http://www.w3.org/2000/svg"
      viewBox="0 0 640 490"
      style="background-color: #292b3e"
    >
      <style>
        text {
          font-size: 12px;
          font-family: Open Sans, Helvetica Neue, Helvetica, Arial, sans-serif;
        }
        #labels text {
          dominant-baseline: hanging;
          font-size: 10px;
          fill: rgba(0,0,0,0.5);
        }
        #legend {
          font-weight: 600;
        }
        #legend tspan {
          font-size: 15px;
        }
        #branding-text {
          font-size: 9px;
          dominant-baseline: hanging;
          opacity: 0.5;
        }
        #branding-logo {
          opacity: 0.5;
        }
      </style>

      
      
      <polygon
        fill="#4B6C4B"
        fillRule="evenodd"
        points="0 313.61354839744536 6.530612244897958 304.26910629978835 13.061224489795917 297.26803860063166 19.591836734693878 285.9388111132513 26.122448979591834 278.8279898937972 32.6530612244898 274.98418454225566 39.183673469387756 267.09072260610486 45.71428571428571 257.07879757447887 52.24489795918367 246.22211263100195 58.775510204081634 230.99229149704058 65.3061224489796 221.54619948975437 71.83673469387755 206.6280402653736 78.36734693877551 198.27725811718352 84.89795918367348 192.1702997316322 91.42857142857142 182.12948939964684 97.9591836734694 170.61718444093566 104.48979591836734 156.95184213592017 111.0204081632653 154.804168292213 117.55102040816327 149.8879206457052 124.08163265306122 142.5256085155561 130.6122448979592 138.28615088294296 137.14285714285714 123.78680185937853 143.6734693877551 127.17482015441351 150.20408163265307 110.77251245805539 156.73469387755102 93.05716547995121 163.26530612244898 88.01879587293485 169.79591836734696 78.10623209580811 176.32653061224488 68.78359473794194 182.85714285714283 65.97365763130753 189.3877551020408 62.13340322197246 195.9183673469388 59.18904877926229 202.44897959183675 46.68376435108456 208.97959183673467 33.29401814675242 215.51020408163265 31.64634275491335 222.0408163265306 27.414544086502076 228.57142857142858 27.528736040394165 235.10204081632654 25.2510346700696 241.63265306122446 13.936133895715273 248.16326530612244 9.643079518286129 254.69387755102042 9.88382168564766 261.2244897959184 12.937914590400965 267.7551020408163 8.246852399317163 274.2857142857143 10.710155876776867 280.81632653061223 10.158984377812828 287.3469387755102 11.455517972419557 293.8775510204082 14.195625625354523 300.40816326530614 17.692971150802975 306.9387755102041 18.06776096407583 313.46938775510205 12.038686963270152 320 13.322615884428046 326.53061224489795 11.292633255513351 333.0612244897959 7.029487404248528 339.5918367346939 1.9717118235008684 346.12244897959187 4.695374714860463 352.65306122448976 0.06656828019049499 359.1836734693877 0 365.71428571428567 3.1340649297246728 372.2448979591837 11.121653410087674 378.7755102040816 13.499565072110727 385.3061224489796 18.047851524723114 391.8367346938776 21.31457676914721 398.36734693877554 21.568351528455366 404.8979591836735 27.066527682123706 411.42857142857144 30.680937277150065 417.95918367346934 36.74784000463279 424.48979591836735 42.80350823908668 431.0204081632653 46.96025450107453 437.55102040816325 38.51475328562634 444.0816326530612 42.63105047453871 450.61224489795916 50.61538112339002 457.14285714285717 58.068860188418455 463.6734693877551 55.54210644266254 470.2040816326531 58.40785092200258 476.7346938775511 64.84910275517367 483.2653061224489 68.96517955299498 489.7959183673469 76.4056427236309 496.3265306122449 74.31941597426928 502.85714285714283 74.99063123546807 509.38775510204084 75.05181868563949 515.9183673469388 74.49023312067595 522.4489795918367 78.43672820070765 528.9795918367347 85.3360278411466 535.5102040816327 88.565009556966 542.0408163265306 82.02542569579714 548.5714285714286 83.08736275661502 555.1020408163265 90.29383518123217 561.6326530612245 89.48589877635001 568.1632653061224 88.46140834776276 574.6938775510204 89.43485409750795 581.2244897959183 87.51988666624584 587.7551020408164 88.00636030671424 594.2857142857143 88.21705221629156 600.8163265306123 90.76510705712059 607.3469387755102 86.66773058904826 613.8775510204082 71.26742246751047 620.4081632653061 70.87672642115419 626.9387755102041 73.1065962075181 633.469387755102 72.47934165930045 640 71.59569148843252 640 320 0 320"
      />
      
      <polygon
        fill="#2c3e50"
        fillRule="evenodd"
        points="0 313.61354839744536 6.530612244897958 304.26910629978835 13.061224489795917 297.26803860063166 19.591836734693878 285.9388111132513 26.122448979591834 278.8279898937972 32.6530612244898 274.98418454225566 39.183673469387756 267.09072260610486 45.71428571428571 257.07879757447887 52.24489795918367 246.22211263100195 58.775510204081634 230.99229149704058 65.3061224489796 221.54619948975437 71.83673469387755 206.6280402653736 78.36734693877551 198.27725811718352 84.89795918367348 192.1702997316322 91.42857142857142 182.12948939964684 97.9591836734694 170.61718444093566 104.48979591836734 156.95184213592017 111.0204081632653 154.804168292213 117.55102040816327 149.8879206457052 124.08163265306122 142.5256085155561 130.6122448979592 138.28615088294296 137.14285714285714 123.78680185937853 143.6734693877551 127.17482015441351 150.20408163265307 110.77251245805539 156.73469387755102 93.05716547995121 163.26530612244898 88.01879587293485 169.79591836734696 78.10623209580811 176.32653061224488 68.78359473794194 182.85714285714283 65.97365763130753 189.3877551020408 62.13340322197246 195.9183673469388 59.18904877926229 202.44897959183675 46.68376435108456 208.97959183673467 33.29401814675242 215.51020408163265 31.64634275491335 222.0408163265306 27.414544086502076 228.57142857142858 27.528736040394165 235.10204081632654 25.2510346700696 241.63265306122446 13.936133895715273 248.16326530612244 9.643079518286129 254.69387755102042 9.88382168564766 261.2244897959184 12.937914590400965 267.7551020408163 8.246852399317163 274.2857142857143 10.710155876776867 280.81632653061223 10.158984377812828 287.3469387755102 11.455517972419557 293.8775510204082 14.195625625354523 300.40816326530614 17.692971150802975 306.9387755102041 18.06776096407583 313.46938775510205 12.038686963270152 320 13.322615884428046 326.53061224489795 11.292633255513351 333.0612244897959 7.029487404248528 339.5918367346939 1.9717118235008684 346.12244897959187 4.695374714860463 352.65306122448976 0.06656828019049499 359.1836734693877 0 365.71428571428567 3.1340649297246728 372.2448979591837 11.121653410087674 378.7755102040816 13.499565072110727 385.3061224489796 18.047851524723114 391.8367346938776 21.31457676914721 398.36734693877554 21.568351528455366 404.8979591836735 27.066527682123706 411.42857142857144 30.680937277150065 417.95918367346934 36.74784000463279 424.48979591836735 42.80350823908668 431.0204081632653 46.96025450107453 437.55102040816325 38.51475328562634 444.0816326530612 42.63105047453871 450.61224489795916 50.61538112339002 457.14285714285717 58.068860188418455 463.6734693877551 56.642693862875035 470.2040816326531 59.47484358721874 476.7346938775511 65.88352602411732 483.2653061224489 69.96903102051024 489.7959183673469 77.37885221034023 496.3265306122449 75.26386270511506 502.85714285714283 75.90624934664217 509.38775510204084 75.93948803952802 515.9183673469388 75.35339240402624 522.4489795918367 79.2735401112509 528.9795918367347 86.14810823079367 535.5102040816327 89.35230164515468 542.0408163265306 82.789449775403 548.5714285714286 83.82806546870574 555.1020408163265 91.01192837896974 561.6326530612245 90.18276910353774 568.1632653061224 89.13700710011813 574.6938775510204 90.09048587164116 581.2244897959183 88.15550566574612 587.7551020408164 88.62257741069615 594.2857142857143 88.8162545305573 600.8163265306123 91.34601910487785 607.3469387755102 87.23147406896871 613.8775510204082 71.8139580359869 620.4081632653061 71.40710937874158 626.9387755102041 73.62078954307177 633.469387755102 72.97783954660997 640 72.08296889546949 640 320 0 320"
      />
      
      <polygon
        fill="#2b7489"
        fillRule="evenodd"
        points="0 313.61354839744536 6.530612244897958 304.26910629978835 13.061224489795917 297.26803860063166 19.591836734693878 285.9388111132513 26.122448979591834 278.8279898937972 32.6530612244898 274.98418454225566 39.183673469387756 267.09072260610486 45.71428571428571 257.07879757447887 52.24489795918367 246.22211263100195 58.775510204081634 230.99229149704058 65.3061224489796 221.54619948975437 71.83673469387755 206.6280402653736 78.36734693877551 198.27725811718352 84.89795918367348 192.1702997316322 91.42857142857142 182.12948939964684 97.9591836734694 170.61718444093566 104.48979591836734 156.95184213592017 111.0204081632653 154.804168292213 117.55102040816327 149.8879206457052 124.08163265306122 142.5256085155561 130.6122448979592 138.28615088294296 137.14285714285714 123.78680185937853 143.6734693877551 127.17482015441351 150.20408163265307 110.77251245805539 156.73469387755102 93.05716547995121 163.26530612244898 88.01879587293485 169.79591836734696 78.10623209580811 176.32653061224488 68.78359473794194 182.85714285714283 65.97365763130753 189.3877551020408 62.13340322197246 195.9183673469388 59.18904877926229 202.44897959183675 46.68376435108456 208.97959183673467 33.29401814675242 215.51020408163265 31.64634275491335 222.0408163265306 27.414544086502076 228.57142857142858 27.528736040394165 235.10204081632654 25.2510346700696 241.63265306122446 13.936133895715273 248.16326530612244 9.643079518286129 254.69387755102042 9.88382168564766 261.2244897959184 12.937914590400965 267.7551020408163 8.246852399317163 274.2857142857143 10.710155876776867 280.81632653061223 10.158984377812828 287.3469387755102 11.455517972419557 293.8775510204082 14.195625625354523 300.40816326530614 17.692971150802975 306.9387755102041 18.06776096407583 313.46938775510205 12.038686963270152 320 13.322615884428046 326.53061224489795 11.292633255513351 333.0612244897959 7.029487404248528 339.5918367346939 1.9717118235008684 346.12244897959187 4.695374714860463 352.65306122448976 0.06656828019049499 359.1836734693877 0 365.71428571428567 3.1340649297246728 372.2448979591837 11.121653410087674 378.7755102040816 13.499565072110727 385.3061224489796 18.047851524723114 391.8367346938776 21.31457676914721 398.36734693877554 21.568351528455366 404.8979591836735 27.066527682123706 411.42857142857144 30.680937277150065 417.95918367346934 36.74784000463279 424.48979591836735 42.80350823908668 431.0204081632653 46.96025450107453 437.55102040816325 38.51475328562634 444.0816326530612 42.63105047453871 450.61224489795916 50.61538112339002 457.14285714285717 58.068860188418455 463.6734693877551 56.642693862875035 470.2040816326531 59.47484358721874 476.7346938775511 65.88352602411732 483.2653061224489 69.96903102051024 489.7959183673469 77.37885221034023 496.3265306122449 75.26386270511506 502.85714285714283 75.90624934664217 509.38775510204084 75.93948803952802 515.9183673469388 75.35339240402624 522.4489795918367 79.2735401112509 528.9795918367347 86.14810823079367 535.5102040816327 89.35230164515468 542.0408163265306 84.99955568656782 548.5714285714286 87.49733719564193 555.1020408163265 94.56919772393246 561.6326530612245 96.00363676634498 568.1632653061224 96.87070720147986 574.6938775510204 100.59135626017905 581.2244897959183 100.44762092311566 587.7551020408164 101.47589957963262 594.2857142857143 102.08130564698996 600.8163265306123 104.23700078136648 607.3469387755102 99.74146906437824 613.8775510204082 84.61170491952936 620.4081632653061 84.30000901754494 626.9387755102041 86.12014152248648 633.469387755102 85.09565615113004 640 83.92802713274833 640 320 0 320"
      />
      
      <polygon
        fill="#2770da"
        fillRule="evenodd"
        points="0 313.61354839744536 6.530612244897958 304.26910629978835 13.061224489795917 297.26803860063166 19.591836734693878 285.9388111132513 26.122448979591834 278.8279898937972 32.6530612244898 274.98418454225566 39.183673469387756 267.09072260610486 45.71428571428571 257.07879757447887 52.24489795918367 246.22211263100195 58.775510204081634 230.99229149704058 65.3061224489796 221.54619948975437 71.83673469387755 206.6280402653736 78.36734693877551 198.27725811718352 84.89795918367348 192.1702997316322 91.42857142857142 182.12948939964684 97.9591836734694 170.61718444093566 104.48979591836734 156.95184213592017 111.0204081632653 154.804168292213 117.55102040816327 149.8879206457052 124.08163265306122 142.5256085155561 130.6122448979592 138.28615088294296 137.14285714285714 123.78680185937853 143.6734693877551 127.17482015441351 150.20408163265307 110.77251245805539 156.73469387755102 93.05716547995121 163.26530612244898 88.01879587293485 169.79591836734696 78.10623209580811 176.32653061224488 68.78359473794194 182.85714285714283 65.97365763130753 189.3877551020408 62.13340322197246 195.9183673469388 59.18904877926229 202.44897959183675 46.68376435108456 208.97959183673467 33.29401814675242 215.51020408163265 31.64634275491335 222.0408163265306 27.414544086502076 228.57142857142858 27.528736040394165 235.10204081632654 25.2510346700696 241.63265306122446 14.574343161581737 248.16326530612244 11.080090434108342 254.69387755102042 11.276968640984535 261.2244897959184 14.289887828974997 267.7551020408163 9.557557389609542 274.2857142857143 11.98085225127545 280.81632653061223 11.394594865357988 287.3469387755102 12.653412130749643 293.8775510204082 15.358116702384962 300.40816326530614 18.819977869978118 306.9387755102041 19.16145960536045 313.46938775510205 13.099001079436107 320 14.350564566348453 326.53061224489795 12.290201356827652 333.0612244897959 7.996605362089099 339.5918367346939 2.9102470463701025 346.12244897959187 5.605261749956924 352.65306122448976 0.9486815440627652 359.1836734693877 0.857756601548715 365.71428571428567 3.965638972114334 372.2448979591837 11.928650798869285 378.7755102040816 14.281929293876374 385.3061224489796 18.807093439746836 391.8367346938776 22.050643203449738 398.36734693877554 22.28194999907896 404.8979591836735 27.75903616063232 411.42857142857144 31.352307316140354 417.95918367346934 37.399368042233846 424.48979591836735 43.435148787142566 431.0204081632653 47.57261457523788 437.55102040816325 40.230295567440976 444.0816326530612 44.29422661051865 450.61224489795916 52.229403130140724 457.14285714285717 59.63361503912404 463.6734693877551 58.161203072580236 470.2040816326531 60.94700121897165 476.7346938775511 67.31074686539839 483.2653061224489 71.35407117885012 489.7959183673469 78.72161489368395 496.3265306122449 76.56694074862003 502.85714285714283 77.16955160959404 509.38775510204084 77.1642287381849 515.9183673469388 76.54431599311442 522.4489795918367 80.42811150204062 528.9795918367347 87.26855682585341 535.5102040816327 90.43854925047808 542.0408163265306 86.05369987435529 548.5714285714286 88.51930419020823 555.1020408163265 95.55996972830798 561.6326530612245 96.96512701626855 568.1632653061224 97.80284849737183 574.6938775510204 101.49594860545892 581.2244897959183 101.3246011255182 587.7551020408164 102.32611045957387 594.2857142857143 102.90804090863787 600.8163265306123 105.03850037114333 607.3469387755102 100.51928070985042 613.8775510204082 85.37687152556651 620.4081632653061 85.30624401510491 626.9387755102041 87.09566168832012 633.469387755102 86.04139924817875 640 84.85248270790851 640 320 0 320"
      />
      
      <polygon
        fill="#89e051"
        fillRule="evenodd"
        points="0 313.61354839744536 6.530612244897958 304.9098362075024 13.061224489795917 298.33446941982095 19.591836734693878 288.0768114644404 26.122448979591834 281.2713352707774 32.6530612244898 277.3529482499779 39.183673469387756 269.99992002689385 45.71428571428571 260.0717158073587 52.24489795918367 250.17316257334573 58.775510204081634 235.18156497677575 65.3061224489796 226.78742042973357 71.83673469387755 213.32782191665228 78.36734693877551 205.8136272694 84.89795918367348 200.4219940240386 91.42857142857142 190.45084109119588 97.9591836734694 178.68453343507926 104.48979591836734 164.78076681594675 111.0204081632653 162.394117292764 117.55102040816327 158.35638495832242 124.08163265306122 150.82941125265683 130.6122448979592 146.47026233203724 137.14285714285714 132.58686218954537 143.6734693877551 135.70626403638477 150.20408163265307 119.05181611904453 156.73469387755102 102.43433456717017 163.26530612244898 97.17050112276473 169.79591836734696 87.08393102123517 176.32653061224488 77.51831118326874 182.85714285714283 74.59618776920578 189.3877551020408 71.29266482820569 195.9183673469388 68.12738611604092 202.44897959183675 55.436632903050054 208.97959183673467 42.602888211652896 215.51020408163265 40.81623463593667 222.0408163265306 36.3045311202161 228.57142857142858 36.65711872051469 235.10204081632654 34.26563941968993 241.63265306122446 23.33062265734884 248.16326530612244 19.76852280931729 254.69387755102042 20.33181299210986 261.2244897959184 23.771705773522854 267.7551020408163 19.357822839458038 274.2857142857143 21.657183797453968 280.81632653061223 22.197631143609726 287.3469387755102 24.033335222487665 293.8775510204082 26.401708466744026 300.40816326530614 29.526475375950668 306.9387755102041 29.794604249067618 313.46938775510205 23.469395366694584 320 24.701065106486283 326.53061224489795 22.404153211482992 333.0612244897959 17.80183782673953 339.5918367346939 12.431343967239172 346.12244897959187 14.835726140161569 352.65306122448976 10.202251184235308 359.1836734693877 9.855821417932077 365.71428571428567 12.71719291945891 372.2448979591837 20.45543694850761 378.7755102040816 22.80205816405629 385.3061224489796 27.111244504943954 391.8367346938776 30.808612758369918 398.36734693877554 30.772587501439205 404.8979591836735 35.998739335384755 411.42857142857144 39.34049397243132 417.95918367346934 45.232321614490104 424.48979591836735 51.02900851552488 431.0204081632653 55.069464415021855 437.55102040816325 47.53769139963367 444.0816326530612 51.37856617925331 450.61224489795916 59.10436812598266 457.14285714285717 66.29872828340669 463.6734693877551 64.9177550109523 470.2040816326531 67.49731158503693 476.7346938775511 73.66111351334072 483.2653061224489 78.63274946590568 489.7959183673469 85.77811698517095 496.3265306122449 83.4148892529046 502.85714285714283 83.84691285065776 509.38775510204084 83.63776615328635 515.9183673469388 82.83910889693757 522.4489795918367 87.04894700494003 528.9795918367347 93.69371701695769 535.5102040816327 96.66758469406645 542.0408163265306 92.09864042545408 548.5714285714286 94.37972610100928 555.1020408163265 101.24150646082069 561.6326530612245 102.47875039177043 568.1632653061224 103.14817124489082 574.6938775510204 106.68329130630951 581.2244897959183 106.3536039434191 587.7551020408164 107.20160385238304 594.2857142857143 107.64891679488022 600.8163265306123 109.63466185984834 607.3469387755102 105.6460147329386 613.8775510204082 90.34711581193017 620.4081632653061 90.1295948496716 626.9387755102041 91.7717841007082 633.469387755102 90.57478430754341 640 89.28382797986256 640 320 0 320"
      />
      
      <polygon
        fill="#0141ae"
        fillRule="evenodd"
        points="0 313.6957865576729 6.530612244897958 304.9895641007165 13.061224489795917 298.4118409916275 19.591836734693878 288.1545838961248 26.122448979591834 281.3468091809128 32.6530612244898 277.4261183581571 39.183673469387756 270.07085666353925 45.71428571428571 260.1686465730758 52.24489795918367 250.62551801313788 58.775510204081634 236.5914116441666 65.3061224489796 228.16525893036888 71.83673469387755 215.5628597966338 78.36734693877551 209.34784047968392 84.89795918367348 203.8483279678426 91.42857142857142 193.80952026553223 97.9591836734694 182.16679407492313 104.48979591836734 169.20007935582822 111.0204081632653 166.6896356712207 117.55102040816327 162.52078575694347 124.08163265306122 154.8747788875951 130.6122448979592 151.50322211601232 137.14285714285714 138.33041129012273 143.6734693877551 141.27449416021977 150.20408163265307 124.45548002089504 156.73469387755102 107.98196884185427 163.26530612244898 102.61882798193761 169.79591836734696 92.5250234449268 176.32653061224488 83.01567071921951 182.85714285714283 79.93107711409775 189.3877551020408 76.46470945227148 195.9183673469388 73.61538507935111 202.44897959183675 61.011145879327785 208.97959183673467 50.21107768526241 215.51020408163265 49.306676499153696 222.0408163265306 44.535804549533 228.57142857142858 46.726282671840295 235.10204081632654 45.53574257451845 241.63265306122446 38.06175693343954 248.16326530612244 34.37979009207868 254.69387755102042 35.18781312934374 261.2244897959184 40.459184215994355 267.7551020408163 36.76690249295319 274.2857142857143 38.53486479329308 280.81632653061223 38.69002221923222 287.3469387755102 40.02230691497999 293.8775510204082 41.960214448208035 300.40816326530614 45.10738635488201 306.9387755102041 44.91780183419888 313.46938775510205 38.14214512725721 320 38.92593480623498 326.53061224489795 36.36856083404729 333.0612244897959 33.699778749196355 339.5918367346939 28.41719714712832 346.12244897959187 30.372622421935773 352.65306122448976 26.293831702780665 359.1836734693877 25.536702560522713 365.71428571428567 28.08374134935883 372.2448979591837 35.36783643937531 378.7755102040816 37.58850159876533 385.3061224489796 41.460680031015215 391.8367346938776 45.374305573914285 398.36734693877554 45.02171583843642 404.8979591836735 49.82674516896526 411.42857142857144 53.20068778815636 417.95918367346934 58.85786970530637 424.48979591836735 64.62523128518922 431.0204081632653 68.63062832141694 437.55102040816325 63.21835779127406 444.0816326530612 66.93863398581021 450.61224489795916 74.20457091917072 457.14285714285717 80.93800669370566 463.6734693877551 80.26630443417321 470.2040816326531 82.74325731978738 476.7346938775511 88.44168674623685 483.2653061224489 93.40763333989435 489.7959183673469 100.10200228574246 496.3265306122449 98.3447935150107 502.85714285714283 99.94028330296086 509.38775510204084 99.86306356017889 515.9183673469388 98.67416478155911 522.4489795918367 102.40064473874293 528.9795918367347 108.591701478728 535.5102040816327 111.11081706461405 542.0408163265306 106.11500647530261 548.5714285714286 107.96825174450859 555.1020408163265 114.41525246031011 561.6326530612245 115.26315702848333 568.1632653061224 115.68604173565882 574.6938775510204 118.85061057365851 581.2244897959183 118.14951914864702 587.7551020408164 118.63745528418735 594.2857142857143 118.7992520089708 600.8163265306123 120.4446420946644 607.3469387755102 116.14479720793128 613.8775510204082 101.00082003345545 620.4081632653061 100.55545139550813 626.9387755102041 102.30518155183844 633.469387755102 102.37743282845139 640 102.34453586073789 640 320 0 320"
      />
      
      <polygon
        fill="#26c0b0"
        fillRule="evenodd"
        points="0 313.6957865576729 6.530612244897958 305.075065249561 13.061224489795917 298.5224141289632 19.591836734693878 288.3920241063059 26.122448979591834 281.72965850281787 32.6530612244898 277.8556470768813 39.183673469387756 270.5453854677522 45.71428571428571 260.80005297066975 52.24489795918367 251.72751744653624 58.775510204081634 237.7908966035551 65.3061224489796 230.2054170018361 71.83673469387755 218.21675245109782 78.36734693877551 212.42847779689242 84.89795918367348 207.4760078815487 91.42857142857142 198.30979596869918 97.9591836734694 186.52970212358832 104.48979591836734 173.80638962508743 111.0204081632653 171.15534058145994 117.55102040816327 166.87827879360896 124.08163265306122 159.3524874511897 130.6122448979592 156.0488683243693 137.14285714285714 143.12354512471148 143.6734693877551 145.9241435345318 150.20408163265307 128.96771221440957 156.73469387755102 112.62415176745742 163.26530612244898 107.34712038725888 169.79591836734696 97.39175880077599 176.32653061224488 88.07430063987087 182.85714285714283 84.90336667207148 189.3877551020408 81.47881595234239 195.9183673469388 78.54008089466544 202.44897959183675 65.83885307563551 208.97959183673467 55.25786886895804 215.51020408163265 54.27449070897478 222.0408163265306 49.44577471750938 228.57142857142858 52.03124898922732 235.10204081632654 50.75674733269665 241.63265306122446 43.28757704498304 248.16326530612244 39.624213801014776 254.69387755102042 40.27215408182849 261.2244897959184 46.01544418351216 267.7551020408163 42.22607787142249 274.2857142857143 45.294858911968504 280.81632653061223 46.226225324780955 287.3469387755102 47.34222930367923 293.8775510204082 49.122320987376895 300.40816326530614 52.19629056295395 306.9387755102041 51.847838632345656 313.46938775510205 44.89907621922089 320 45.54039200040796 326.53061224489795 42.901951188519206 333.0612244897959 40.52983161496269 339.5918367346939 35.111605914584175 346.12244897959187 37.18650258886527 352.65306122448976 32.91347014894768 359.1836734693877 31.97356287660574 365.71428571428567 34.32975116016394 372.2448979591837 41.451194805209525 378.7755102040816 43.65043943069895 385.3061224489796 47.72223534458038 391.8367346938776 51.450303941749894 398.36734693877554 51.049084521468785 404.8979591836735 55.67598153505503 411.42857142857144 59.07769977499993 417.95918367346934 64.64955764605091 424.48979591836735 70.24013367487885 431.0204081632653 74.11911412204884 437.55102040816325 68.67684956301025 444.0816326530612 72.31788532843919 450.61224489795916 79.43573863763095 457.14285714285717 86.08159404256583 463.6734693877551 85.8889127866698 470.2040816326531 88.95217429839474 476.7346938775511 94.4722409359488 483.2653061224489 100.00819851087277 489.7959183673469 106.58858833848836 496.3265306122449 104.63967457975025 502.85714285714283 106.098487307044 509.38775510204084 105.83329492722106 515.9183673469388 104.49614154568559 522.4489795918367 108.04490625487759 528.9795918367347 114.08024533404262 535.5102040816327 116.43182774402601 542.0408163265306 111.2787562668504 548.5714285714286 112.97437998989778 555.1020408163265 119.26857235512136 561.6326530612245 119.97304147555528 568.1632653061224 120.25215833340096 574.6938775510204 123.28177859901479 581.2244897959183 122.68860024577637 587.7551020408164 123.03798338377081 594.2857142857143 123.07827258236739 600.8163265306123 124.5958724949347 607.3469387755102 120.7549136038412 613.8775510204082 105.47021742701952 620.4081632653061 104.89275835660632 626.9387755102041 106.51009331907434 633.469387755102 106.45399432331226 640 106.32933941213028 640 320 0 320"
      />
      
      <polygon
        fill="#dea584"
        fillRule="evenodd"
        points="0 313.6957865576729 6.530612244897958 305.075065249561 13.061224489795917 298.5224141289632 19.591836734693878 288.3920241063059 26.122448979591834 281.72965850281787 32.6530612244898 277.8556470768813 39.183673469387756 270.5453854677522 45.71428571428571 260.80005297066975 52.24489795918367 251.72751744653624 58.775510204081634 237.7908966035551 65.3061224489796 230.2054170018361 71.83673469387755 218.6051470946461 78.36734693877551 212.80501692414043 84.89795918367348 207.84105338381067 91.42857142857142 198.6640527325751 97.9591836734694 187.99614460576942 104.48979591836734 176.33184394901167 111.0204081632653 173.60370660960385 117.55102040816327 169.25191015528685 124.08163265306122 162.759830834884 130.6122448979592 159.3522047402975 137.14285714285714 148.5572453891378 143.6734693877551 151.19198280342133 150.20408163265307 136.32711014333805 156.73469387755102 123.074253592828 163.26530612244898 117.47823937122797 169.79591836734696 107.22345700813531 176.32653061224488 98.72207609114218 182.85714285714283 95.23645337618191 189.3877551020408 91.49648951015342 195.9183673469388 88.25196964961978 202.44897959183675 76.3814067263728 208.97959183673467 66.58272529597377 215.51020408163265 65.26464647731052 222.0408163265306 60.100459189783805 228.57142857142858 62.37104075231389 235.10204081632654 60.78092301497338 241.63265306122446 53.00577269626643 248.16326530612244 49.055191872749674 254.69387755102042 49.41525593593292 261.2244897959184 54.888327691184315 267.7551020408163 51.93108072449536 274.2857142857143 54.70362310430659 280.81632653061223 55.375197894456505 287.3469387755102 56.211937785340126 293.8775510204082 57.72988740236218 300.40816326530614 60.54111792417211 306.9387755102041 61.06406678132538 313.46938775510205 54.089805004767925 320 54.450577439887354 326.53061224489795 51.5488016146565 333.0612244897959 48.91274079301803 339.5918367346939 43.246761339632144 346.12244897959187 45.07333809930958 352.65306122448976 41.668833922002364 359.1836734693877 40.48717626460541 365.71428571428567 42.58349226545516 372.2448979591837 49.46099835380579 378.7755102040816 51.47762041521065 385.3061224489796 55.318088454989095 391.8367346938776 58.81429743826254 398.36734693877554 58.188295937795715 404.8979591836735 62.60419860146533 411.42857142857144 65.79443647618504 417.95918367346934 71.16778329538079 424.48979591836735 76.55939585683484 431.0204081632653 80.24548402067293 437.55102040816325 74.62810598819371 444.0816326530612 78.08748238351302 450.61224489795916 85.0348185061099 457.14285714285717 91.5097659599216 463.6734693877551 91.15665803779882 470.2040816326531 94.05912451862872 476.7346938775511 99.42330508540695 483.2653061224489 104.8129355756335 489.7959183673469 111.24666283441161 496.3265306122449 109.16008323588099 502.85714285714283 110.48091282628434 509.38775510204084 110.08194930524266 515.9183673469388 108.62748467218933 522.4489795918367 112.05014166378601 528.9795918367347 117.96710806687994 535.5102040816327 120.20004622817902 542.0408163265306 116.05397401534236 548.5714285714286 117.6038376373017 555.1020408163265 123.75671750664418 561.6326530612245 124.68671817780506 568.1632653061224 124.82195169346542 574.6938775510204 127.71651590846662 581.2244897959183 126.98796842033542 587.7551020408164 127.20611571134407 594.2857142857143 127.15627424436656 600.8163265306123 128.5493949502529 607.3469387755102 124.59159284141111 613.8775510204082 109.1897834155028 620.4081632653061 108.50239508042358 626.9387755102041 110.00954780366118 633.469387755102 109.84663086322072 640 109.64561092512872 640 320 0 320"
      />
      
      <polygon
        fill="#701516"
        fillRule="evenodd"
        points="0 313.6957865576729 6.530612244897958 305.075065249561 13.061224489795917 298.5224141289632 19.591836734693878 288.3920241063059 26.122448979591834 281.72965850281787 32.6530612244898 277.8556470768813 39.183673469387756 270.5453854677522 45.71428571428571 260.80005297066975 52.24489795918367 251.72751744653624 58.775510204081634 237.7908966035551 65.3061224489796 230.2054170018361 71.83673469387755 218.6051470946461 78.36734693877551 212.80501692414043 84.89795918367348 207.84105338381067 91.42857142857142 198.6640527325751 97.9591836734694 187.99614460576942 104.48979591836734 176.33184394901167 111.0204081632653 173.60370660960385 117.55102040816327 169.25191015528685 124.08163265306122 162.759830834884 130.6122448979592 159.3522047402975 137.14285714285714 148.5572453891378 143.6734693877551 151.19198280342133 150.20408163265307 136.32711014333805 156.73469387755102 123.074253592828 163.26530612244898 117.47823937122797 169.79591836734696 107.22345700813531 176.32653061224488 98.72207609114218 182.85714285714283 95.23645337618191 189.3877551020408 91.49648951015342 195.9183673469388 88.25196964961978 202.44897959183675 76.3814067263728 208.97959183673467 66.58272529597377 215.51020408163265 65.26464647731052 222.0408163265306 60.100459189783805 228.57142857142858 62.37104075231389 235.10204081632654 60.78092301497338 241.63265306122446 53.00577269626643 248.16326530612244 49.055191872749674 254.69387755102042 49.41525593593292 261.2244897959184 54.888327691184315 267.7551020408163 51.93108072449536 274.2857142857143 54.70362310430659 280.81632653061223 55.375197894456505 287.3469387755102 56.211937785340126 293.8775510204082 57.72988740236218 300.40816326530614 60.54111792417211 306.9387755102041 61.06406678132538 313.46938775510205 54.089805004767925 320 54.450577439887354 326.53061224489795 51.5488016146565 333.0612244897959 48.91274079301803 339.5918367346939 43.246761339632144 346.12244897959187 45.07333809930958 352.65306122448976 41.668833922002364 359.1836734693877 40.48717626460541 365.71428571428567 42.58349226545516 372.2448979591837 49.46099835380579 378.7755102040816 51.47762041521065 385.3061224489796 55.318088454989095 391.8367346938776 58.81429743826254 398.36734693877554 58.188295937795715 404.8979591836735 62.60419860146533 411.42857142857144 65.79443647618504 417.95918367346934 71.16778329538079 424.48979591836735 76.55939585683484 431.0204081632653 80.24548402067293 437.55102040816325 74.62810598819371 444.0816326530612 78.08748238351302 450.61224489795916 85.0348185061099 457.14285714285717 91.5097659599216 463.6734693877551 91.15665803779882 470.2040816326531 94.05912451862872 476.7346938775511 99.42330508540695 483.2653061224489 104.8129355756335 489.7959183673469 111.24666283441161 496.3265306122449 109.16008323588099 502.85714285714283 110.48091282628434 509.38775510204084 110.08194930524266 515.9183673469388 108.62748467218933 522.4489795918367 112.05014166378601 528.9795918367347 117.96710806687994 535.5102040816327 120.20004622817902 542.0408163265306 116.05397401534236 548.5714285714286 117.6038376373017 555.1020408163265 123.75671750664418 561.6326530612245 124.68671817780506 568.1632653061224 124.82195169346542 574.6938775510204 127.71651590846662 581.2244897959183 126.98796842033542 587.7551020408164 127.20611571134407 594.2857142857143 127.15627424436656 600.8163265306123 128.5493949502529 607.3469387755102 124.59159284141111 613.8775510204082 109.20933965633085 620.4081632653061 108.52137334629822 626.9387755102041 110.0279467701136 633.469387755102 109.86446821072744 640 109.66304677877991 640 320 0 320"
      />
      
      <polygon
        fill="#3572A5"
        fillRule="evenodd"
        points="0 313.6957865576729 6.530612244897958 305.075065249561 13.061224489795917 298.5224141289632 19.591836734693878 288.3920241063059 26.122448979591834 281.72965850281787 32.6530612244898 277.8556470768813 39.183673469387756 270.5453854677522 45.71428571428571 260.80005297066975 52.24489795918367 251.72751744653624 58.775510204081634 237.7908966035551 65.3061224489796 230.2054170018361 71.83673469387755 218.6051470946461 78.36734693877551 212.80501692414043 84.89795918367348 207.84105338381067 91.42857142857142 198.6640527325751 97.9591836734694 187.99614460576942 104.48979591836734 176.33184394901167 111.0204081632653 173.60370660960385 117.55102040816327 169.25191015528685 124.08163265306122 163.4214589898574 130.6122448979592 159.9936370582968 137.14285714285714 149.21613970286325 143.6734693877551 151.83076474533863 150.20408163265307 137.94825623029698 156.73469387755102 125.43982398474523 163.26530612244898 119.77160186252519 169.79591836734696 109.44904050321898 176.32653061224488 100.87972492126136 182.85714285714283 97.33033401802672 189.3877551020408 93.5264554398698 195.9183673469388 90.21997242931224 202.44897959183675 78.29506939826612 208.97959183673467 68.47384538593928 215.51020408163265 67.09987573156229 222.0408163265306 61.87966896325486 228.57142857142858 64.09766685470544 235.10204081632654 62.45484491859895 241.63265306122446 54.62859928647498 248.16326530612244 50.63005656113381 254.69387755102042 50.94204867547455 261.2244897959184 56.36999704325615 267.7551020408163 53.403356520646696 274.2857142857143 56.13095841092667 280.81632653061223 56.76312218888404 287.3469387755102 57.55749644385509 293.8775510204082 59.035678808711054 300.40816326530614 61.807050732137384 306.9387755102041 62.29258565818395 313.46938775510205 55.2808241528914 320 55.60524140991447 326.53061224489795 52.66934001465904 333.0612244897959 49.99907553174137 339.5918367346939 44.300989989276616 346.12244897959187 46.095386986941605 352.65306122448976 42.65968530202821 359.1836734693877 41.45066868182158 365.71428571428567 43.5175745400316 372.2448979591837 50.36747444510064 378.7755102040816 52.378758455492346 385.3061224489796 56.19259378112935 391.8367346938776 59.66210891302899 398.36734693877554 59.01022844343072 404.8979591836735 63.40183938382012 411.42857142857144 66.56772972056288 417.95918367346934 71.9182222709731 424.48979591836735 77.28692809864873 431.0204081632653 80.9508087536924 437.55102040816325 75.31327002530364 444.0816326530612 78.75173224685773 450.61224489795916 85.679436721245 457.14285714285717 92.13470750107365 463.6734693877551 91.76312987723458 470.2040816326531 94.64708415826524 476.7346938775511 99.99331752574687 483.2653061224489 105.366101697864 489.7959183673469 111.7829438703348 496.3265306122449 109.68051476800991 502.85714285714283 110.98545847025946 509.38775510204084 110.57109391527882 515.9183673469388 109.10312325588245 522.4489795918367 112.51126168581831 528.9795918367347 118.41459989085635 535.5102040816327 120.63387865869834 542.0408163265306 116.47498472496298 548.5714285714286 118.01199723905145 555.1020408163265 124.15241826522535 561.6326530612245 125.07072419559398 568.1632653061224 125.19423620365711 574.6938775510204 128.07779775133523 581.2244897959183 127.3382222881493 587.7551020408164 127.54567834181336 594.2857142857143 127.48646097164897 600.8163265306123 128.86950289140566 607.3469387755102 124.9022401606409 613.8775510204082 109.52992092296327 620.4081632653061 108.83248000650795 626.9387755102041 110.32955706110099 633.469387755102 110.15687203600015 640 109.94886902173545 640 320 0 320"
      />
      
      <polygon
        fill="#0298c3"
        fillRule="evenodd"
        points="0 313.6957865576729 6.530612244897958 305.075065249561 13.061224489795917 298.5224141289632 19.591836734693878 288.3920241063059 26.122448979591834 281.72965850281787 32.6530612244898 277.8556470768813 39.183673469387756 270.5453854677522 45.71428571428571 260.80005297066975 52.24489795918367 251.72751744653624 58.775510204081634 237.7908966035551 65.3061224489796 230.2054170018361 71.83673469387755 218.6051470946461 78.36734693877551 212.80501692414043 84.89795918367348 207.84105338381067 91.42857142857142 198.6640527325751 97.9591836734694 187.99614460576942 104.48979591836734 176.33184394901167 111.0204081632653 173.60370660960385 117.55102040816327 169.25191015528685 124.08163265306122 163.4214589898574 130.6122448979592 159.9936370582968 137.14285714285714 149.21613970286325 143.6734693877551 151.83076474533863 150.20408163265307 137.94825623029698 156.73469387755102 126.07793560571787 163.26530612244898 120.3902354901069 169.79591836734696 110.04939075892798 176.32653061224488 101.46174983104825 182.85714285714283 97.89515751027398 189.3877551020408 94.07403799629259 195.9183673469388 90.75084037469162 202.44897959183675 78.81127920414215 208.97959183673467 68.97429812340619 215.51020408163265 67.69001212382142 222.0408163265306 62.45179179920126 228.57142857142858 64.6528808789883 235.10204081632654 62.99311136302043 241.63265306122446 55.15043546449647 248.16326530612244 51.136470199295786 254.69387755102042 51.433004283356865 261.2244897959184 56.8464427411667 267.7551020408163 53.86525899650019 274.2857142857143 56.578761551854825 280.81632653061223 57.19856075100813 287.3469387755102 57.97964351480789 293.8775510204082 59.445349517338855 300.40816326530614 62.20421648265568 306.9387755102041 62.678013388914735 313.46938775510205 55.654486932626924 320 55.96749836594955 326.53061224489795 53.020890649407306 333.0612244897959 50.339895277283006 339.5918367346939 44.63173696993533 346.12244897959187 46.41603812469657 352.65306122448976 42.97054873880518 359.1836734693877 41.75294866696851 365.71428571428567 43.810627611885366 372.2448979591837 50.65186647755286 378.7755102040816 52.654469596923946 385.3061224489796 56.4601564083938 391.8367346938776 59.92150436642652 398.36734693877554 59.26170597791588 404.8979591836735 63.6458846447955 411.42857142857144 66.80432564097927 417.95918367346934 72.1478257257709 424.48979591836735 77.5095230482952 431.0204081632653 81.16660910657424 437.55102040816325 75.52290205273272 444.0816326530612 78.95496537412964 450.61224489795916 85.87666340829006 457.14285714285717 92.32591394834529 463.6734693877551 91.94868532278997 470.2040816326531 94.82697562457102 476.7346938775511 100.16771792328097 483.2653061224489 105.53534777461181 489.7959183673469 111.9470237995813 496.3265306122449 109.83974540502084 502.85714285714283 111.13982869730614 509.38775510204084 110.72075206464439 515.9183673469388 109.24864910375689 522.4489795918367 112.65234543597433 528.9795918367347 118.5515139892961 535.5102040816327 120.7666135392432 542.0408163265306 116.60379669133076 548.5714285714286 118.13687729019756 555.1020408163265 124.27348643562829 561.6326530612245 125.1882142452595 568.1632653061224 125.3081399535537 574.6938775510204 128.1883351310964 581.2244897959183 127.44538557085096 587.7551020408164 127.64957052571032 594.2857142857143 127.58748452776496 600.8163265306123 128.96744276464545 607.3469387755102 127.49649236614843 613.8775510204082 116.37779544605922 620.4081632653061 115.57860676238502 626.9387755102041 117.0752846268145 633.469387755102 116.69668940348092 640 116.78440409908109 640 320 0 320"
      />
      
      <polygon
        fill="#fd2fdb"
        fillRule="evenodd"
        points="0 313.6957865576729 6.530612244897958 305.075065249561 13.061224489795917 298.5224141289632 19.591836734693878 288.3920241063059 26.122448979591834 281.72965850281787 32.6530612244898 277.8556470768813 39.183673469387756 270.5453854677522 45.71428571428571 260.80005297066975 52.24489795918367 251.72751744653624 58.775510204081634 237.7908966035551 65.3061224489796 230.2054170018361 71.83673469387755 218.6051470946461 78.36734693877551 212.80501692414043 84.89795918367348 207.84105338381067 91.42857142857142 198.6640527325751 97.9591836734694 187.99614460576942 104.48979591836734 176.33184394901167 111.0204081632653 173.60370660960385 117.55102040816327 169.25191015528685 124.08163265306122 163.4214589898574 130.6122448979592 159.9936370582968 137.14285714285714 149.21613970286325 143.6734693877551 151.83076474533863 150.20408163265307 137.94825623029698 156.73469387755102 126.07793560571787 163.26530612244898 120.3902354901069 169.79591836734696 110.04939075892798 176.32653061224488 101.46174983104825 182.85714285714283 97.89515751027398 189.3877551020408 94.07403799629259 195.9183673469388 90.75084037469162 202.44897959183675 78.81127920414215 208.97959183673467 68.97429812340619 215.51020408163265 67.69001212382142 222.0408163265306 62.45179179920126 228.57142857142858 64.6528808789883 235.10204081632654 62.99311136302043 241.63265306122446 55.15043546449647 248.16326530612244 51.136470199295786 254.69387755102042 51.433004283356865 261.2244897959184 56.8464427411667 267.7551020408163 53.86525899650019 274.2857142857143 56.578761551854825 280.81632653061223 58.3281647236617 287.3469387755102 59.074767013234805 293.8775510204082 60.508107170513654 300.40816326530614 63.2345341038864 306.9387755102041 64.55864171331547 313.46938775510205 57.47771017023541 320 57.735068637916015 326.53061224489795 54.736221262821175 333.0612244897959 52.00286662922281 339.5918367346939 46.245560049489995 346.12244897959187 47.980600110553496 352.65306122448976 44.48735340137449 359.1836734693877 43.22787185940399 365.71428571428567 45.24052965474368 372.2448979591837 52.03950841044389 378.7755102040816 53.99975462779264 385.3061224489796 57.76568230447691 391.8367346938776 61.187179781506416 398.36734693877554 60.48874728603528 404.8979591836735 64.83666140177462 411.42857142857144 67.95875472073254 417.95918367346934 73.26813627398766 424.48979591836735 78.5956367682175 431.0204081632653 82.21956980084727 437.55102040816325 76.545765452701 444.0816326530612 79.94660634921641 450.61224489795916 86.83899704376384 457.14285714285717 93.258872839123 463.6734693877551 92.8540711163177 470.2040816326531 95.70472512858342 476.7346938775511 101.01867452332826 483.2653061224489 106.36115477784591 489.7959183673469 112.74762356232617 496.3265306122449 110.61668392861509 502.85714285714283 111.89305159530102 509.38775510204084 111.45098328407113 515.9183673469388 109.95871742838872 522.4489795918367 113.34073933765151 528.9795918367347 119.21956278667602 535.5102040816327 121.4142705214253 542.0408163265306 117.23231251030856 548.5714285714286 118.74620804019065 555.1020408163265 124.86421769829488 561.6326530612245 125.76148672832656 568.1632653061224 125.86391366607873 574.6938775510204 128.72768321132094 581.2244897959183 127.96827037057002 587.7551020408164 128.1564945621476 594.2857142857143 128.08041158019626 600.8163265306123 129.44532350238688 607.3469387755102 127.96024961205143 613.8775510204082 116.82739673060206 620.4081632653061 116.01492033701734 626.9387755102041 117.49827998457121 633.469387755102 117.10677307099346 640 118.31311223214615 640 320 0 320"
      />
      
      <polygon
        fill="#4F5D95"
        fillRule="evenodd"
        points="0 313.6957865576729 6.530612244897958 305.075065249561 13.061224489795917 298.5224141289632 19.591836734693878 288.3920241063059 26.122448979591834 281.72965850281787 32.6530612244898 277.8556470768813 39.183673469387756 270.5453854677522 45.71428571428571 260.80005297066975 52.24489795918367 251.72751744653624 58.775510204081634 237.7908966035551 65.3061224489796 230.2054170018361 71.83673469387755 218.6051470946461 78.36734693877551 212.80501692414043 84.89795918367348 207.84105338381067 91.42857142857142 198.6640527325751 97.9591836734694 187.99614460576942 104.48979591836734 176.33184394901167 111.0204081632653 173.60370660960385 117.55102040816327 169.25191015528685 124.08163265306122 163.4214589898574 130.6122448979592 159.9936370582968 137.14285714285714 149.21613970286325 143.6734693877551 151.83076474533863 150.20408163265307 137.94825623029698 156.73469387755102 126.07793560571787 163.26530612244898 120.3902354901069 169.79591836734696 110.04939075892798 176.32653061224488 101.46174983104825 182.85714285714283 97.89515751027398 189.3877551020408 94.07403799629259 195.9183673469388 90.75084037469162 202.44897959183675 78.81127920414215 208.97959183673467 68.97429812340619 215.51020408163265 67.69001212382142 222.0408163265306 62.45179179920126 228.57142857142858 64.67250795885951 235.10204081632654 63.01213933706123 241.63265306122446 55.16888262044563 248.16326530612244 51.1543721590956 254.69387755102042 51.450359797547264 261.2244897959184 56.863285322198635 267.7551020408163 53.88158746683973 274.2857142857143 56.594591604761604 280.81632653061223 58.343557683375934 287.3469387755102 59.089690111227526 293.8775510204082 60.5225892245129 300.40816326530614 63.24857410178839 306.9387755102041 64.57226676717085 313.46938775510205 57.49091932650879 320 57.74787459260142 326.53061224489795 54.748648744130946 333.0612244897959 52.014914768905385 339.5918367346939 46.257252112574236 346.12244897959187 47.991935280163716 352.65306122448976 44.498342571754506 359.1836734693877 43.23855760056273 365.71428571428567 45.25088922003442 372.2448979591837 52.04956180355805 378.7755102040816 54.00950114745024 385.3061224489796 57.775140770670305 391.8367346938776 61.196349534056196 398.36734693877554 60.49763713692306 404.8979591836735 64.8452885177187 411.42857142857144 67.96711849909451 417.95918367346934 73.27625286527197 424.48979591836735 78.60350560472128 431.0204081632653 82.22719844611953 437.55102040816325 76.55317604458497 444.0816326530612 79.95379073642354 450.61224489795916 86.84596909982207 457.14285714285717 93.26563207760603 463.6734693877551 92.86063058894572 470.2040816326531 95.71108437718686 476.7346938775511 101.02483965978075 483.2653061224489 106.36713770695371 489.7959183673469 112.75342386599289 496.3265306122449 110.62231280748983 502.85714285714283 111.898508655845 509.38775510204084 111.45627377072861 515.9183673469388 109.96386183631228 522.4489795918367 113.34572671515915 528.9795918367347 119.22440276498821 535.5102040816327 121.4189627623864 542.0408163265306 117.2368660744564 548.5714285714286 118.75062260930332 555.1020408163265 124.86849751519355 561.6326530612245 125.76564005753201 568.1632653061224 125.86794021762589 574.6938775510204 128.73159076001613 581.2244897959183 127.97205864350488 587.7551020408164 128.1601672004296 594.2857142857143 128.08398281092178 600.8163265306123 129.44878572337228 607.3469387755102 127.9636095088328 613.8775510204082 116.83065406859743 620.4081632653061 116.01808140606633 626.9387755102041 117.5013445636549 633.469387755102 117.10974410559075 640 118.31601639309207 640 320 0 320"
      />
      
      <polygon
        fill="#755462"
        fillRule="evenodd"
        points="0 318.0212231343069 6.530612244897958 313.5273605624008 13.061224489795917 310.89611892368174 19.591836734693878 304.6063507194374 26.122448979591834 301.5123506116871 32.6530612244898 299.6347359456317 39.183673469387756 295.68731392518174 45.71428571428571 289.60723145542136 52.24489795918367 284.8540249497955 58.775510204081634 274.447100046272 65.3061224489796 270.19673661031703 71.83673469387755 262.95234653887417 78.36734693877551 259.78059845947 84.89795918367348 257.293960780814 91.42857142857142 251.4885839568886 97.9591836734694 243.1157325933509 104.48979591836734 233.69073359907821 111.0204081632653 232.44226113253754 117.55102040816327 230.4870852832525 124.08163265306122 226.74320161642203 130.6122448979592 225.02610630505583 137.14285714285714 216.7621259977576 143.6734693877551 218.75148669449462 150.20408163265307 208.35861947037725 156.73469387755102 198.3524336807081 163.26530612244898 194.34756105705333 169.79591836734696 186.11866348223282 176.32653061224488 178.69888137762385 182.85714285714283 176.47492432814624 189.3877551020408 173.8722595778295 195.9183673469388 171.38691432998823 202.44897959183675 162.65598923562476 208.97959183673467 154.12865603619733 215.51020408163265 153.54788387453752 222.0408163265306 149.77113110541936 228.57142857142858 151.99175478859183 235.10204081632654 150.24038930480276 241.63265306122446 143.4641571064151 248.16326530612244 140.6979559008835 254.69387755102042 142.92932534142642 261.2244897959184 147.05361877991717 267.7551020408163 144.44709802729844 274.2857142857143 147.14062661731867 280.81632653061223 149.53423703053772 287.3469387755102 150.79086021013086 293.8775510204082 152.38220134150686 300.40816326530614 155.03538050905775 306.9387755102041 154.49042137695895 313.46938775510205 148.8867813902154 320 148.9629430716084 326.53061224489795 145.9046781795939 333.0612244897959 141.7889961514574 339.5918367346939 137.45857344821434 346.12244897959187 139.37105909994725 352.65306122448976 135.0640329476022 359.1836734693877 134.1877983111782 365.71428571428567 137.09691756878638 372.2448979591837 142.45246376648427 378.7755102040816 144.3991070467568 385.3061224489796 146.9757148415324 391.8367346938776 149.82611146903014 398.36734693877554 149.06449862131407 404.8979591836735 151.7193576550543 411.42857142857144 154.19224520027035 417.95918367346934 158.30286787069625 424.48979591836735 162.42152075731366 431.0204081632653 164.48542607106327 437.55102040816325 158.22318437647044 444.0816326530612 161.34774031804258 450.61224489795916 165.8745376608164 457.14285714285717 170.07067854713594 463.6734693877551 168.56361217227573 470.2040816326531 169.21380992535384 476.7346938775511 173.47273731067554 483.2653061224489 177.15379804276844 489.7959183673469 181.4936576631287 496.3265306122449 177.5513884658597 502.85714285714283 179.11011744600128 509.38775510204084 179.84337480429713 515.9183673469388 178.85204157040465 522.4489795918367 181.1912166044939 528.9795918367347 185.21846306104032 535.5102040816327 189.19422909098233 542.0408163265306 186.2690522472118 548.5714285714286 186.94216670097848 555.1020408163265 190.9832766157606 561.6326530612245 194.30438197742154 568.1632653061224 196.5900725167082 574.6938775510204 200.19848038215713 581.2244897959183 201.59010236941828 587.7551020408164 203.6479364785756 594.2857142857143 205.75046213056447 600.8163265306123 209.18365885712856 607.3469387755102 208.11703429970163 613.8775510204082 198.6391932036723 620.4081632653061 199.16122371589105 626.9387755102041 200.6239468184752 633.469387755102 202.12367544723435 640 204.02112212691029 640 320 0 320"
      />
      
      <polygon
        fill="#2415b9"
        fillRule="evenodd"
        points="0 318.0212231343069 6.530612244897958 313.5273605624008 13.061224489795917 310.89611892368174 19.591836734693878 304.6063507194374 26.122448979591834 301.5123506116871 32.6530612244898 299.6347359456317 39.183673469387756 295.68731392518174 45.71428571428571 289.60723145542136 52.24489795918367 284.8540249497955 58.775510204081634 274.447100046272 65.3061224489796 270.19673661031703 71.83673469387755 262.95234653887417 78.36734693877551 259.78059845947 84.89795918367348 257.293960780814 91.42857142857142 251.4885839568886 97.9591836734694 243.1157325933509 104.48979591836734 233.69073359907821 111.0204081632653 232.44226113253754 117.55102040816327 230.4870852832525 124.08163265306122 226.74320161642203 130.6122448979592 225.02610630505583 137.14285714285714 216.7621259977576 143.6734693877551 218.75148669449462 150.20408163265307 208.35861947037725 156.73469387755102 198.3524336807081 163.26530612244898 194.34756105705333 169.79591836734696 186.11866348223282 176.32653061224488 178.69888137762385 182.85714285714283 176.47492432814624 189.3877551020408 173.8722595778295 195.9183673469388 171.38691432998823 202.44897959183675 162.65598923562476 208.97959183673467 154.12865603619733 215.51020408163265 153.54788387453752 222.0408163265306 149.77113110541936 228.57142857142858 151.99175478859183 235.10204081632654 150.24038930480276 241.63265306122446 143.4641571064151 248.16326530612244 140.6979559008835 254.69387755102042 142.92932534142642 261.2244897959184 147.05361877991717 267.7551020408163 144.44709802729844 274.2857142857143 147.14062661731867 280.81632653061223 149.53423703053772 287.3469387755102 150.79086021013086 293.8775510204082 152.38220134150686 300.40816326530614 155.03538050905775 306.9387755102041 154.49042137695895 313.46938775510205 148.8867813902154 320 148.9629430716084 326.53061224489795 145.9046781795939 333.0612244897959 142.14862692942432 339.5918367346939 137.81820422618128 346.12244897959187 139.73068987791413 352.65306122448976 135.42366372556913 359.1836734693877 134.5474290891451 365.71428571428567 137.45654834675327 372.2448979591837 142.8120945444512 378.7755102040816 144.7587378247237 385.3061224489796 147.33534561949935 391.8367346938776 150.18574224699705 398.36734693877554 149.42412939928101 404.8979591836735 152.07898843302127 411.42857142857144 154.55187597823732 417.95918367346934 158.66249864866316 424.48979591836735 162.7811515352806 431.0204081632653 164.84505684903021 437.55102040816325 158.58281515443738 444.0816326530612 161.70737109600952 450.61224489795916 166.23416843878334 457.14285714285717 170.43030932510285 463.6734693877551 168.92324295024264 470.2040816326531 169.57344070332078 476.7346938775511 173.83236808864245 483.2653061224489 177.51342882073538 489.7959183673469 181.8532884410956 496.3265306122449 177.91101924382664 502.85714285714283 179.46974822396822 509.38775510204084 180.20300558226404 515.9183673469388 179.2116723483716 522.4489795918367 181.5508473824608 528.9795918367347 185.57809383900724 535.5102040816327 189.55385986894927 542.0408163265306 186.6286830251787 548.5714285714286 187.30179747894542 555.1020408163265 191.3429073937275 561.6326530612245 194.66401275538848 568.1632653061224 196.94970329467512 574.6938775510204 200.55811116012407 581.2244897959183 201.9497331473852 587.7551020408164 204.0075672565425 594.2857142857143 206.11009290853139 600.8163265306123 209.5432896350955 607.3469387755102 208.47666507766854 613.8775510204082 198.99882398163925 620.4081632653061 199.520854493858 626.9387755102041 200.98357759644213 633.469387755102 202.4833062252013 640 204.02112212691029 640 320 0 320"
      />
      
      <polygon
        fill="#f1e05a"
        fillRule="evenodd"
        points="0 318.0212231343069 6.530612244897958 313.5273605624008 13.061224489795917 310.89611892368174 19.591836734693878 304.6063507194374 26.122448979591834 301.5123506116871 32.6530612244898 299.6347359456317 39.183673469387756 295.68731392518174 45.71428571428571 289.60723145542136 52.24489795918367 284.8540249497955 58.775510204081634 275.5586052403936 65.3061224489796 271.27431372308695 71.83673469387755 264.3815075368266 78.36734693877551 261.6232526507637 84.89795918367348 259.09161920218827 91.42857142857142 253.23311330142056 97.9591836734694 246.00807925715912 104.48979591836734 237.61104353554123 111.0204081632653 236.2899459966781 117.55102040816327 234.2173213114147 124.08163265306122 230.51362104093621 130.6122448979592 228.6814356604885 137.14285714285714 222.6032860840907 143.6734693877551 224.4143480062108 150.20408163265307 213.85411837943445 156.73469387755102 203.68018589593217 163.26530612244898 199.5126861794477 169.79591836734696 191.13113623105525 176.32653061224488 184.67453309975153 182.85714285714283 182.2739685678299 189.3877551020408 179.49429149356487 195.9183673469388 176.8373366035768 202.44897959183675 169.27900615607166 208.97959183673467 161.91435515174527 215.51020408163265 161.10348094317712 222.0408163265306 157.65194434160748 228.57142857142858 159.74980446241315 235.10204081632654 157.76162724891546 241.63265306122446 151.88558890588976 248.16326530612244 148.87049648657586 254.69387755102042 150.85240546919078 261.2244897959184 154.74253714304814 267.7551020408163 153.00427338868158 274.2857142857143 155.4476403435084 280.81632653061223 157.6118823566062 287.3469387755102 159.39919109739847 293.8775510204082 161.38434026084636 300.40816326530614 163.76273171605175 306.9387755102041 164.08004388753662 313.46938775510205 158.18368756664944 320 157.97606819745653 326.53061224489795 154.65142273316886 333.0612244897959 150.6283836484697 339.5918367346939 146.04734555874307 346.12244897959187 147.70864041474763 352.65306122448976 144.26951532893625 359.1836734693877 143.14903231207347 365.71428571428567 145.79559130378703 372.2448979591837 150.90468304310247 378.7755102040816 152.60430313460503 385.3061224489796 154.94904155407778 391.8367346938776 157.56703347017168 398.36734693877554 156.5801109125428 404.8979591836735 159.02347827837627 411.42857142857144 161.28439019541003 417.95918367346934 165.19603634900236 424.48979591836735 169.1152558849466 431.0204081632653 170.98581670534892 437.55102040816325 165.66893684780436 444.0816326530612 168.57719285796827 450.61224489795916 172.90095653497485 457.14285714285717 176.89359603001247 463.6734693877551 175.19551145918015 470.2040816326531 175.65425206123376 476.7346938775511 179.7275652681564 483.2653061224489 183.2343966020125 489.7959183673469 187.39962773672409 496.3265306122449 183.29343893360945 502.85714285714283 184.68787367538636 509.38775510204084 185.26185056212063 515.9183673469388 184.1308336515163 522.4489795918367 186.31985523218216 528.9795918367347 190.20615611899265 535.5102040816327 194.04065250049194 542.0408163265306 190.982871260498 548.5714285714286 191.52307655664484 555.1020408163265 195.43533333247268 561.6326530612245 198.63548941766587 568.1632653061224 200.79995355928241 574.6938775510204 204.29456910900007 581.2244897959183 205.5721380995917 587.7551020408164 207.51940043801028 594.2857142857143 209.52495822682602 600.8163265306123 212.85391802742942 607.3469387755102 211.68945016276413 613.8775510204082 202.11354001411956 620.4081632653061 202.54351706912192 626.9387755102041 203.91397514884056 633.469387755102 205.32425486922904 640 206.7981255415693 640 320 0 320"
      />
      
      <polygon
        fill="#22e8e8"
        fillRule="evenodd"
        points="0 319.92567422345337 6.530612244897958 319.85646892129927 13.061224489795917 319.82723281940576 19.591836734693878 318.66030229564944 26.122448979591834 318.54752933794555 32.6530612244898 318.40759716016794 39.183673469387756 318.26954360500247 45.71428571428571 316.0115338146374 52.24489795918367 316.0194966462963 58.775510204081634 310.27119544626987 65.3061224489796 309.37986619160495 71.83673469387755 306.93692780363864 78.36734693877551 307.0222611487621 84.89795918367348 306.27909827444546 91.42857142857142 304.58410981635643 97.9591836734694 300.15629321077034 104.48979591836734 294.7536358229909 111.0204081632653 293.4787713894267 117.55102040816327 293.7809490236542 124.08163265306122 290.8838471572971 130.6122448979592 291.25491405015106 137.14285714285714 286.9785311116317 143.6734693877551 287.29590256054394 150.20408163265307 280.08961011941733 156.73469387755102 272.3565071387242 163.26530612244898 270.6873470240284 169.79591836734696 264.64102356928635 176.32653061224488 259.7160190777377 182.85714285714283 258.4821101472554 189.3877551020408 256.4975849432073 195.9183673469388 254.70954116848068 202.44897959183675 249.75800366271739 208.97959183673467 243.84328736860184 215.51020408163265 243.32679047461332 222.0408163265306 241.83024788273224 228.57142857142858 242.7685104129953 235.10204081632654 241.70741818940297 241.63265306122446 237.2178037611992 248.16326530612244 234.0443607727639 254.69387755102042 235.73026793719933 261.2244897959184 237.4043650323896 267.7551020408163 235.56047771853412 274.2857142857143 237.00504725129596 280.81632653061223 238.3993269613821 287.3469387755102 240.8175380309948 293.8775510204082 242.5414627000091 300.40816326530614 244.5916746300555 306.9387755102041 243.76030554638385 313.46938775510205 239.79403212495373 320 239.82806408822438 326.53061224489795 237.43526307030942 333.0612244897959 235.72252909386407 339.5918367346939 231.99171981424178 346.12244897959187 232.2006817365047 352.65306122448976 229.58693394652357 359.1836734693877 229.00004025251292 365.71428571428567 230.6153353830431 372.2448979591837 233.2472872411728 378.7755102040816 234.38581858550697 385.3061224489796 235.4497360993165 391.8367346938776 235.9807947209344 398.36734693877554 235.02388592051813 404.8979591836735 236.2727078043227 411.42857142857144 237.109915452574 417.95918367346934 239.1760433153569 424.48979591836735 241.04011680753132 431.0204081632653 242.0106861933238 437.55102040816325 236.84727106390284 444.0816326530612 238.1858260671443 450.61224489795916 240.6022653078401 457.14285714285717 242.6984864267879 463.6734693877551 240.20789892329748 470.2040816326531 240.05517883638763 476.7346938775511 242.4938663782832 483.2653061224489 244.4775596433151 489.7959183673469 246.78128638537837 496.3265306122449 243.48879201539262 502.85714285714283 244.0437313845128 509.38775510204084 246.20492329705647 515.9183673469388 246.89555444125307 522.4489795918367 247.9972673002972 528.9795918367347 250.11821878932273 535.5102040816327 252.23279330539327 542.0408163265306 249.5817534477634 548.5714285714286 249.44271279088252 555.1020408163265 251.59485433801953 561.6326530612245 253.6150207400429 568.1632653061224 254.42275619393257 574.6938775510204 256.3400989675768 581.2244897959183 257.15930825648456 587.7551020408164 258.91937455483924 594.2857142857143 259.9453823608268 600.8163265306123 261.7459247127854 607.3469387755102 260.1128651370447 613.8775510204082 252.983747169508 620.4081632653061 252.93430865453473 626.9387755102041 253.2422787014104 633.469387755102 253.15468595640155 640 253.6091164000215 640 320 0 320"
      />
      
      <polygon
        fill="#22e4e8"
        fillRule="evenodd"
        points="0 319.92567422345337 6.530612244897958 319.85646892129927 13.061224489795917 319.82723281940576 19.591836734693878 318.66030229564944 26.122448979591834 318.54752933794555 32.6530612244898 318.40759716016794 39.183673469387756 318.26954360500247 45.71428571428571 316.0115338146374 52.24489795918367 316.0194966462963 58.775510204081634 310.27119544626987 65.3061224489796 309.37986619160495 71.83673469387755 306.93692780363864 78.36734693877551 307.0222611487621 84.89795918367348 306.27909827444546 91.42857142857142 304.58410981635643 97.9591836734694 300.15629321077034 104.48979591836734 294.7536358229909 111.0204081632653 293.4787713894267 117.55102040816327 293.7809490236542 124.08163265306122 290.8838471572971 130.6122448979592 291.25491405015106 137.14285714285714 286.9785311116317 143.6734693877551 287.29590256054394 150.20408163265307 280.08961011941733 156.73469387755102 272.3565071387242 163.26530612244898 270.6873470240284 169.79591836734696 264.64102356928635 176.32653061224488 259.7160190777377 182.85714285714283 258.4821101472554 189.3877551020408 256.4975849432073 195.9183673469388 254.70954116848068 202.44897959183675 249.75800366271739 208.97959183673467 243.84328736860184 215.51020408163265 243.32679047461332 222.0408163265306 241.83024788273224 228.57142857142858 242.7685104129953 235.10204081632654 241.70741818940297 241.63265306122446 237.2178037611992 248.16326530612244 234.0443607727639 254.69387755102042 235.73026793719933 261.2244897959184 237.4043650323896 267.7551020408163 235.56047771853412 274.2857142857143 237.00504725129596 280.81632653061223 238.3993269613821 287.3469387755102 240.8175380309948 293.8775510204082 242.5414627000091 300.40816326530614 244.5916746300555 306.9387755102041 243.76030554638385 313.46938775510205 239.79403212495373 320 239.82806408822438 326.53061224489795 237.43526307030942 333.0612244897959 235.77390491928793 339.5918367346939 232.04309563966564 346.12244897959187 232.25205756192855 352.65306122448976 229.63830977194743 359.1836734693877 229.05141607793675 365.71428571428567 230.66671120846695 372.2448979591837 233.29866306659667 378.7755102040816 234.43719441093083 385.3061224489796 235.50111192474037 391.8367346938776 236.0321705463582 398.36734693877554 235.075261745942 404.8979591836735 236.3240836297465 411.42857142857144 237.1612912779978 417.95918367346934 239.22741914078074 424.48979591836735 241.09149263295518 431.0204081632653 242.06206201874767 437.55102040816325 236.89864688932667 444.0816326530612 238.23720189256815 450.61224489795916 240.65364113326393 457.14285714285717 242.74986225221176 463.6734693877551 240.25927474872134 470.2040816326531 240.10655466181146 476.7346938775511 242.54524220370706 483.2653061224489 244.52893546873892 489.7959183673469 246.8326622108022 496.3265306122449 243.54016784081648 502.85714285714283 244.09510720993663 509.38775510204084 246.2562991224803 515.9183673469388 246.94693026667693 522.4489795918367 248.04864312572107 528.9795918367347 250.16959461474656 535.5102040816327 252.28416913081713 542.0408163265306 249.63312927318725 548.5714285714286 249.49408861630639 555.1020408163265 251.64623016344336 561.6326530612245 253.66639656546675 568.1632653061224 254.4741320193564 574.6938775510204 256.39147479300067 581.2244897959183 257.21068408190837 587.7551020408164 258.9707503802631 594.2857142857143 259.9967581862506 600.8163265306123 261.79730053820924 607.3469387755102 260.16424096246857 613.8775510204082 253.03512299493184 620.4081632653061 252.98568447995856 626.9387755102041 253.29365452683425 633.469387755102 253.20606178182538 640 253.6091164000215 640 320 0 320"
      />
      
      <polygon
        fill="#e34c26"
        fillRule="evenodd"
        points="0 319.92567422345337 6.530612244897958 319.85646892129927 13.061224489795917 319.82723281940576 19.591836734693878 318.66030229564944 26.122448979591834 318.6387617478207 32.6530612244898 318.512602175269 39.183673469387756 318.3713434025748 45.71428571428571 316.11052275140685 52.24489795918367 316.2070729291193 58.775510204081634 311.6486183164775 65.3061224489796 310.75104176144106 71.83673469387755 308.2675791498969 78.36734693877551 308.31229497294356 84.89795918367348 307.5297546862242 91.42857142857142 305.7978036850307 97.9591836734694 302.0857606278388 104.48979591836734 297.72659721923645 111.0204081632653 296.36098468542826 117.55102040816327 296.57518460942197 124.08163265306122 294.70439222789923 130.6122448979592 294.97528078224934 137.14285714285714 291.71973374812376 143.6734693877551 292.19421041614913 150.20408163265307 288.11677458694083 156.73469387755102 282.47602864661377 163.26530612244898 280.5090865413875 169.79591836734696 276.0941865992255 176.32653061224488 271.33207573828884 182.85714285714283 270.33208607854385 189.3877551020408 269.081966996248 195.9183673469388 268.32409586017275 202.44897959183675 264.11123894483705 208.97959183673467 258.7341203154731 215.51020408163265 258.87801239154874 222.0408163265306 257.3390487806152 228.57142857142858 258.03724954645327 235.10204081632654 256.5237849598719 241.63265306122446 252.7224545199044 248.16326530612244 250.19334452857183 254.69387755102042 252.1900394737437 261.2244897959184 254.18863039237704 267.7551020408163 252.86777980683155 274.2857142857143 253.80096156594 280.81632653061223 254.90771544152506 287.3469387755102 256.8330278695379 293.8775510204082 258.58290144045725 300.40816326530614 260.4520803744577 306.9387755102041 259.97204076288097 313.46938775510205 257.8643823576773 320 257.5420438528624 326.53061224489795 255.72562924789406 333.0612244897959 254.32299256109152 339.5918367346939 252.44397045049683 346.12244897959187 252.30166763420482 352.65306122448976 249.89595186404648 359.1836734693877 249.60728558897264 365.71428571428567 250.63983808943476 372.2448979591837 252.68973164349103 378.7755102040816 254.04375272246648 385.3061224489796 254.88130937697503 391.8367346938776 255.765352799783 398.36734693877554 254.206104574449 404.8979591836735 254.90082174079322 411.42857142857144 255.1709902937755 417.95918367346934 256.70484713738676 424.48979591836735 258.1050894024696 431.0204081632653 258.5563262569651 437.55102040816325 255.16939777676453 444.0816326530612 257.1206886169565 450.61224489795916 258.9790394586886 457.14285714285717 260.51588881055363 463.6734693877551 258.6005040209921 470.2040816326531 258.0205518175061 476.7346938775511 259.91242898163506 483.2653061224489 261.382850007737 489.7959183673469 263.1721187568195 496.3265306122449 261.82041298079264 502.85714285714283 263.5575861291371 509.38775510204084 265.20784032025813 515.9183673469388 265.57693175097353 522.4489795918367 267.22150521432576 528.9795918367347 268.7758018992564 535.5102040816327 270.33939021046984 542.0408163265306 268.4386110543181 548.5714285714286 268.9635916383588 555.1020408163265 270.521446407455 561.6326530612245 271.98376176682814 568.1632653061224 273.4494252887442 574.6938775510204 274.82519904633153 581.2244897959183 276.20413767806696 587.7551020408164 277.5409894493937 594.2857142857143 278.7133628719477 600.8163265306123 279.97360108067136 607.3469387755102 278.9297143333088 613.8775510204082 275.7239030541321 620.4081632653061 277.0324632372902 626.9387755102041 278.2862653127684 633.469387755102 279.55955242218073 640 280.4698025466757 640 320 0 320"
      />
      
      <polygon
        fill="#00ADD8"
        fillRule="evenodd"
        points="0 319.92567422345337 6.530612244897958 319.85646892129927 13.061224489795917 319.82723281940576 19.591836734693878 318.66030229564944 26.122448979591834 318.6387617478207 32.6530612244898 318.51536194723184 39.183673469387756 318.37401893411044 45.71428571428571 316.6121788134568 52.24489795918367 316.69341622089837 58.775510204081634 313.1394393470838 65.3061224489796 312.19635634642316 71.83673469387755 310.8820258566071 78.36734693877551 310.8639600099792 84.89795918367348 310.00353171138096 91.42857142857142 308.66170293779186 97.9591836734694 305.8714415495501 104.48979591836734 303.7931522993526 111.0204081632653 303.02443849054976 117.55102040816327 303.3152870360098 124.08163265306122 302.49017919610867 130.6122448979592 302.9132342114739 137.14285714285714 300.9756856853212 143.6734693877551 301.55638084489385 150.20408163265307 299.63114821381305 156.73469387755102 295.8211798124648 163.26530612244898 294.0784459194542 169.79591836734696 290.7161266959604 176.32653061224488 287.71237195545206 182.85714285714283 287.34681106118455 189.3877551020408 286.11580686849595 195.9183673469388 284.93728896914735 202.44897959183675 282.3765254994828 208.97959183673467 277.9438342836543 215.51020408163265 278.0796521350063 222.0408163265306 276.0328035541968 228.57142857142858 276.2116625410893 235.10204081632654 274.148984215628 241.63265306122446 270.3047066681557 248.16326530612244 268.0869619218373 254.69387755102042 269.666045387502 261.2244897959184 271.1481438304678 267.7551020408163 270.41251629984185 274.2857142857143 270.81016056479814 280.81632653061223 272.1628751770834 287.3469387755102 273.5614816153344 293.8775510204082 274.92287277224534 300.40816326530614 276.2932880004155 306.9387755102041 276.4643064814894 313.46938775510205 274.63325654788423 320 273.79905761182204 326.53061224489795 272.0443505107703 333.0612244897959 270.1435923159553 339.5918367346939 268.2494574925539 346.12244897959187 268.7285771377751 352.65306122448976 266.93230606919064 359.1836734693877 266.1732375989535 365.71428571428567 266.70012559271447 372.2448979591837 268.2753661158119 378.7755102040816 269.7729692691323 385.3061224489796 270.1456589599088 391.8367346938776 271.63099887837836 398.36734693877554 270.8758789074794 404.8979591836735 271.211368082328 411.42857142857144 272.69783361430717 417.95918367346934 274.09580756477135 424.48979591836735 275.4691227322331 431.0204081632653 275.7089521751755 437.55102040816325 272.95244000848675 444.0816326530612 274.36091031751454 450.61224489795916 275.7097362730231 457.14285714285717 277.0616871117372 463.6734693877551 276.49359224325576 470.2040816326531 276.6994476748586 476.7346938775511 278.02116928614834 483.2653061224489 279.09845222094185 489.7959183673469 280.3469626644927 496.3265306122449 279.2673514800426 502.85714285714283 280.4774898333426 509.38775510204084 281.6112803192583 515.9183673469388 281.52745069316916 522.4489795918367 282.6851457341446 528.9795918367347 283.7824112962368 535.5102040816327 284.8879378855538 542.0408163265306 282.6100591432745 548.5714285714286 282.8417659654657 555.1020408163265 283.97599417341405 561.6326530612245 285.04066680910563 568.1632653061224 286.1077762001971 574.6938775510204 287.1094404446966 581.2244897959183 288.1134095320266 587.7551020408164 289.0867321277532 594.2857142857143 289.94030868939376 600.8163265306123 290.85785740133565 607.3469387755102 291.71912908548404 613.8775510204082 290.34721591292237 620.4081632653061 291.22359443248297 626.9387755102041 292.10197485629203 633.469387755102 292.9535445302292 640 293.5623172010709 640 320 0 320"
      />
      
      <polygon
        fill="#244776"
        fillRule="evenodd"
        points="0 319.92567422345337 6.530612244897958 319.85646892129927 13.061224489795917 319.82723281940576 19.591836734693878 318.66030229564944 26.122448979591834 318.6387617478207 32.6530612244898 318.51536194723184 39.183673469387756 318.37401893411044 45.71428571428571 316.6121788134568 52.24489795918367 316.69341622089837 58.775510204081634 313.1394393470838 65.3061224489796 312.19635634642316 71.83673469387755 310.8820258566071 78.36734693877551 310.8639600099792 84.89795918367348 310.00353171138096 91.42857142857142 308.66170293779186 97.9591836734694 305.8714415495501 104.48979591836734 303.7931522993526 111.0204081632653 303.02443849054976 117.55102040816327 303.3152870360098 124.08163265306122 302.49017919610867 130.6122448979592 302.9132342114739 137.14285714285714 300.9756856853212 143.6734693877551 301.55638084489385 150.20408163265307 299.63114821381305 156.73469387755102 295.8211798124648 163.26530612244898 294.0784459194542 169.79591836734696 290.7161266959604 176.32653061224488 287.71237195545206 182.85714285714283 287.34681106118455 189.3877551020408 286.11580686849595 195.9183673469388 284.93728896914735 202.44897959183675 282.3765254994828 208.97959183673467 277.9438342836543 215.51020408163265 278.0796521350063 222.0408163265306 276.0328035541968 228.57142857142858 276.2116625410893 235.10204081632654 274.148984215628 241.63265306122446 270.3047066681557 248.16326530612244 268.0869619218373 254.69387755102042 269.666045387502 261.2244897959184 271.1481438304678 267.7551020408163 270.41251629984185 274.2857142857143 270.81016056479814 280.81632653061223 272.1628751770834 287.3469387755102 273.5614816153344 293.8775510204082 274.92287277224534 300.40816326530614 276.2932880004155 306.9387755102041 276.4643064814894 313.46938775510205 274.63325654788423 320 273.79905761182204 326.53061224489795 272.0443505107703 333.0612244897959 270.1435923159553 339.5918367346939 268.2494574925539 346.12244897959187 268.7285771377751 352.65306122448976 266.93230606919064 359.1836734693877 266.1732375989535 365.71428571428567 266.70012559271447 372.2448979591837 268.2753661158119 378.7755102040816 269.7729692691323 385.3061224489796 270.1456589599088 391.8367346938776 271.63099887837836 398.36734693877554 270.8758789074794 404.8979591836735 271.211368082328 411.42857142857144 272.69783361430717 417.95918367346934 274.09580756477135 424.48979591836735 275.4691227322331 431.0204081632653 275.7089521751755 437.55102040816325 272.95244000848675 444.0816326530612 274.36091031751454 450.61224489795916 275.7097362730231 457.14285714285717 277.0616871117372 463.6734693877551 276.49359224325576 470.2040816326531 276.6994476748586 476.7346938775511 278.02116928614834 483.2653061224489 279.09845222094185 489.7959183673469 280.3469626644927 496.3265306122449 279.2673514800426 502.85714285714283 280.4774898333426 509.38775510204084 281.6112803192583 515.9183673469388 281.52745069316916 522.4489795918367 282.6851457341446 528.9795918367347 283.7824112962368 535.5102040816327 284.8879378855538 542.0408163265306 282.6100591432745 548.5714285714286 282.8417659654657 555.1020408163265 283.97599417341405 561.6326530612245 285.04066680910563 568.1632653061224 286.1077762001971 574.6938775510204 287.1094404446966 581.2244897959183 288.1134095320266 587.7551020408164 289.0867321277532 594.2857142857143 289.94030868939376 600.8163265306123 290.85785740133565 607.3469387755102 291.71912908548404 613.8775510204082 290.40277715216564 620.4081632653061 291.27751358731894 626.9387755102041 292.1542481619001 633.469387755102 293.0042222198365 640 293.6118542076116 640 320 0 320"
      />
      
      <polygon
        fill="#563d7c"
        fillRule="evenodd"
        points="0 319.92567422345337 6.530612244897958 319.85646892129927 13.061224489795917 319.82723281940576 19.591836734693878 318.66030229564944 26.122448979591834 318.6387617478207 32.6530612244898 318.51536194723184 39.183673469387756 318.37401893411044 45.71428571428571 316.6121788134568 52.24489795918367 316.69341622089837 58.775510204081634 314.24960003585403 65.3061224489796 313.2726300545021 71.83673469387755 311.9264908388848 78.36734693877551 311.8765433127835 84.89795918367348 310.9852064955971 91.42857142857142 309.61436486862624 97.9591836734694 306.7950239411814 104.48979591836734 305.7914167759912 111.0204081632653 304.96170712120556 117.55102040816327 305.1934214750928 124.08163265306122 304.31462990493816 130.6122448979592 304.68199475856375 137.14285714285714 303.81183181994 143.6734693877551 304.3059549118624 150.20408163265307 302.29946011019223 156.73469387755102 298.4080430440082 163.26530612244898 296.5863467678575 169.79591836734696 293.1499076410247 176.32653061224488 290.07186325145017 182.85714285714283 289.6365689218184 189.3877551020408 288.33567120669346 195.9183673469388 287.0893930119318 202.44897959183675 284.46920651580393 208.97959183673467 279.9726372701864 215.51020408163265 280.04849501219616 222.0408163265306 277.9415486348322 228.57142857142858 278.0639956296379 235.10204081632654 275.94477615326457 241.63265306122446 273.1750700272716 248.16326530612244 271.6223200937667 254.69387755102042 273.09348904913514 261.2244897959184 274.4742911128842 267.7551020408163 273.63713488155895 274.2857142857143 273.93634933285387 280.81632653061223 275.2027450575565 287.3469387755102 276.508560898248 293.8775510204082 277.78285276878813 300.40816326530614 279.06596906412994 306.9387755102041 279.15504238439127 313.46938775510205 277.24185904894915 320 276.3280336458274 326.53061224489795 274.4985842746875 333.0612244897959 272.5229121117758 339.5918367346939 270.558457654842 346.12244897959187 270.96709665469393 352.65306122448976 269.1024960465507 359.1836734693877 268.28350497132385 365.71428571428567 268.745978366175 372.2448979591837 270.26075468033105 378.7755102040816 271.69775501273324 385.3061224489796 272.0135588208091 391.8367346938776 273.44188205372666 398.36734693877554 272.6314860102409 404.8979591836735 272.9150890949676 411.42857142857144 274.34954944766145 417.95918367346934 275.698707835586 424.48979591836735 277.02309544120857 431.0204081632653 277.21549071480536 437.55102040816325 275.3902451192049 444.0816326530612 276.7243029909437 450.61224489795916 278.00328032648736 457.14285714285717 279.28522184165473 463.6734693877551 278.6514116411153 470.2040816326531 278.7914007984852 476.7346938775511 280.04926677984565 483.2653061224489 281.06661015562713 489.7959183673469 282.2550439694636 496.3265306122449 281.11904031574034 502.85714285714283 282.2726569381904 509.38775510204084 283.35165089347385 515.9183673469388 283.2197669918262 522.4489795918367 284.32580477060617 528.9795918367347 285.37458172591164 535.5102040816327 286.4315082229008 542.0408163265306 284.1080100081814 548.5714285714286 284.2939928595037 555.1020408163265 285.3838926695048 561.6326530612245 286.4069556131791 568.1632653061224 287.43235965046625 574.6938775510204 288.39487674901255 581.2244897959183 289.35960852581576 587.7551020408164 290.2948915870095 594.2857142857143 291.1151089004375 600.8163265306123 291.99679749173686 607.3469387755102 292.8244084029533 613.8775510204082 291.47431853021317 620.4081632653061 292.317386084562 626.9387755102041 293.1623791329215 633.469387755102 293.9815806127038 640 294.56721357478403 640 320 0 320"
      />
      
      <polygon
        fill="#178600"
        fillRule="evenodd"
        points="0 320 6.530612244897958 320 13.061224489795917 320 19.591836734693878 320 26.122448979591834 320 32.6530612244898 320 39.183673469387756 320 45.71428571428571 320 52.24489795918367 320 58.775510204081634 318.7303279567088 65.3061224489796 318.7690840401539 71.83673469387755 318.80546314910976 78.36734693877551 318.8419256513054 84.89795918367348 318.87727514761906 91.42857142857142 318.9104567382273 97.9591836734694 318.9437143342317 104.48979591836734 318.9749324024432 111.0204081632653 319.00622198580373 117.55102040816327 319.03655646174417 124.08163265306122 319.06409507554014 130.6122448979592 319.0926630759247 137.14285714285714 319.11947889350796 143.6734693877551 319.14635632098106 150.20408163265307 319.17158532427 156.73469387755102 319.1856773330026 163.26530612244898 319.2105340567854 169.79591836734696 319.23386631597543 176.32653061224488 319.2572520676749 182.85714285714283 319.2792036118319 189.3877551020408 318.1941398493786 195.9183673469388 318.2492626884284 202.44897959183675 318.2976033533882 208.97959183673467 316.1388725483856 215.51020408163265 316.2474834066196 222.0408163265306 316.3620266930663 228.57142857142858 316.4695449005203 235.10204081632654 316.57731024624496 241.63265306122446 316.24155851010295 248.16326530612244 315.63817628950625 254.69387755102042 315.77131838511855 261.2244897959184 315.8962949097896 267.7551020408163 316.0215579060633 274.2857142857143 316.1429976161606 280.81632653061223 316.24949571550013 287.3469387755102 316.36397809076817 293.8775510204082 316.4714386545461 300.40816326530614 316.57914593531285 306.9387755102041 316.68024736382245 313.46938775510205 315.9758097885564 320 316.098645790837 326.53061224489795 314.31084166378565 333.0612244897959 314.4844997628437 339.5918367346939 313.52090803615704 346.12244897959187 313.7186780431063 352.65306122448976 313.91041231533313 359.1836734693877 312.97612053014063 365.71428571428567 313.19051958683366 372.2448979591837 313.39177017237824 378.7755102040816 313.59348296567384 385.3061224489796 313.78282415195247 391.8367346938776 313.97259953588207 398.36734693877554 314.15658259347487 404.8979591836735 314.3292817113756 411.42857142857144 314.5023771834943 417.95918367346934 314.6648567557788 424.48979591836735 314.82770887472384 431.0204081632653 314.98558986880084 437.55102040816325 313.212899687576 444.0816326530612 313.42007198433606 450.61224489795916 313.6145385257106 457.14285714285717 313.80945080374653 463.6734693877551 313.19872273405355 470.2040816326531 313.40632761526376 476.7346938775511 313.6075963159244 483.2653061224489 313.79651991949396 489.7959183673469 313.98587785429163 496.3265306122449 314.16362187274564 502.85714285714283 314.34177391800523 509.38775510204084 314.5144880376469 515.9183673469388 314.66595208837686 522.4489795918367 314.82877081303536 528.9795918367347 314.98160372125784 535.5102040816327 315.1347873208647 542.0408163265306 315.2785761315313 548.5714285714286 315.42269487774865 555.1020408163265 315.5624142092834 561.6326530612245 315.6935650806539 568.1632653061224 315.8250163978515 574.6938775510204 315.9484059746511 581.2244897959183 316.07207849867166 587.7551020408164 316.19197583456355 594.2857142857143 316.2971218043793 600.8163265306123 316.4101499560832 607.3469387755102 316.5162459676627 613.8775510204082 316.62258573698347 620.4081632653061 316.72240333499155 626.9387755102041 316.82244999725486 633.469387755102 316.91944300375695 640 316.9887818008558 640 320 0 320"
      />
      
      <polygon
        fill="#555555"
        fillRule="evenodd"
        points="0 320 6.530612244897958 320 13.061224489795917 320 19.591836734693878 320 26.122448979591834 320 32.6530612244898 320 39.183673469387756 320 45.71428571428571 320 52.24489795918367 320 58.775510204081634 318.7303279567088 65.3061224489796 318.7690840401539 71.83673469387755 318.80546314910976 78.36734693877551 318.8419256513054 84.89795918367348 318.87727514761906 91.42857142857142 318.9104567382273 97.9591836734694 318.9437143342317 104.48979591836734 318.9749324024432 111.0204081632653 319.00622198580373 117.55102040816327 319.03655646174417 124.08163265306122 319.06409507554014 130.6122448979592 319.0926630759247 137.14285714285714 319.11947889350796 143.6734693877551 319.14635632098106 150.20408163265307 319.17158532427 156.73469387755102 319.1856773330026 163.26530612244898 319.2105340567854 169.79591836734696 319.23386631597543 176.32653061224488 319.2572520676749 182.85714285714283 319.2792036118319 189.3877551020408 318.1941398493786 195.9183673469388 318.2492626884284 202.44897959183675 318.2976033533882 208.97959183673467 317.24284779327814 215.51020408163265 317.31883120055693 222.0408163265306 317.40067223284655 228.57142857142858 317.47749389836804 235.10204081632654 317.5544921117761 241.63265306122446 317.1889123934062 248.16326530612244 316.55753168372496 254.69387755102042 316.6626109677193 261.2244897959184 316.7612457709241 267.7551020408163 316.8601067305125 274.2857142857143 316.9559501823704 280.81632653061223 317.04000134101875 287.3469387755102 317.1303539501586 293.8775510204082 317.2151647003859 300.40816326530614 317.3001701649915 306.9387755102041 317.3799621649606 313.46938775510205 317.4599374738748 320 317.5374713008132 326.53061224489795 316.50570796385506 333.0612244897959 316.61236900676255 339.5918367346939 315.585889159691 346.12244897959187 315.72062688568934 352.65306122448976 315.8512527988757 359.1836734693877 314.86337109568683 365.71428571428567 315.02016305584203 372.2448979591837 315.1673395576115 378.7755102040816 315.3148541431378 385.3061224489796 315.45332103480035 391.8367346938776 315.5921053982385 398.36734693877554 315.72665391734694 404.8979591836735 315.8529504924765 411.42857142857144 315.97953686836206 417.95918367346934 316.09835973024104 424.48979591836735 316.2174549559209 431.0204081632653 316.3329148281938 437.55102040816325 315.5852524077107 444.0816326530612 315.72001017028094 450.61224489795916 315.8465030010636 457.14285714285717 315.9732861052599 463.6734693877551 316.0922934782783 470.2040816326531 316.211573862433 476.7346938775511 316.3272136528465 483.2653061224489 316.43576049680206 489.7959183673469 316.54455713002073 496.3265306122449 316.64668086553013 502.85714285714283 316.7490389775551 509.38775510204084 316.8482727201327 515.9183673469388 316.93529710055 522.4489795918367 317.02884528603124 528.9795918367347 317.1166563330874 535.5102040816327 317.20466856787596 542.0408163265306 317.2872832584455 548.5714285714286 317.3700873203075 555.1020408163265 317.45036369155866 561.6326530612245 317.5257171284661 568.1632653061224 317.6012430853953 574.6938775510204 317.6721371520317 581.2244897959183 317.7431937409543 587.7551020408164 317.8120813555543 594.2857142857143 317.87249346940865 600.8163265306123 317.93743436227413 607.3469387755102 317.9983922928978 613.8775510204082 318.05949030484703 620.4081632653061 318.11684105656633 626.9387755102041 318.17432336122425 633.469387755102 318.2300512019943 640 318.26989000013475 640 320 0 320"
      />
      
      <polygon
        fill="#C1F12E"
        fillRule="evenodd"
        points="0 320 6.530612244897958 320 13.061224489795917 320 19.591836734693878 320 26.122448979591834 320 32.6530612244898 320 39.183673469387756 320 45.71428571428571 320 52.24489795918367 320 58.775510204081634 319.007774059765 65.3061224489796 319.03806123912045 71.83673469387755 319.06649087413194 78.36734693877551 319.0949856536901 84.89795918367348 319.1226106405238 91.42857142857142 319.1485414581383 97.9591836734694 319.17453166620703 104.48979591836734 319.19892804204363 111.0204081632653 319.2233802839528 117.55102040816327 319.24708614814534 124.08163265306122 319.2686070704088 130.6122448979592 319.29093246617225 137.14285714285714 319.3118885317855 143.6734693877551 319.33289276737264 150.20408163265307 319.3526087746876 156.73469387755102 319.3611751489933 163.26530612244898 319.3806749051839 169.79591836734696 319.3989787451855 176.32653061224488 319.4173245386861 182.85714285714283 319.43454523243537 189.3877551020408 319.4408444840416 195.9183673469388 319.45791237581096 202.44897959183675 319.4728803320919 208.97959183673467 319.48621050925965 215.51020408163265 319.5013952509736 222.0408163265306 319.51661488714814 228.57142857142858 319.53090107595057 235.10204081632654 319.54522006307997 241.63265306122446 319.3091071165232 248.16326530612244 318.61506526485385 254.69387755102042 318.6573395545489 261.2244897959184 318.6970211118381 267.7551020408163 318.73679380984163 274.2857142857143 318.77535239433877 280.81632653061223 318.8091669351162 287.3469387755102 318.8455165646234 293.8775510204082 318.87963663743466 300.40816326530614 318.91383500700385 306.9387755102041 318.9459360612518 313.46938775510205 318.97811089118505 320 319.00930341533615 326.53061224489795 319.03858290925183 333.0612244897959 319.06792960274714 339.5918367346939 319.09547660107785 346.12244897959187 319.1230864834189 352.65306122448976 319.14985380222294 359.1836734693877 319.1733278278657 365.71428571428567 319.1985614036031 372.2448979591837 319.2222474778277 378.7755102040816 319.2459879385011 385.3061224489796 319.26827240828203 391.8367346938776 319.2906079148079 398.36734693877554 319.31226175660686 404.8979591836735 319.33258747166764 411.42857142857144 319.35295987707855 417.95918367346934 319.37208281214004 424.48979591836735 319.3912495913309 431.0204081632653 319.4098314053735 437.55102040816325 318.57421983961547 444.0816326530612 318.61774081509026 450.61224489795916 318.65859291918593 457.14285714285717 318.6995385272839 463.6734693877551 318.73797309053845 470.2040816326531 318.77649560920605 476.7346938775511 318.81384244348476 483.2653061224489 318.8488985324594 489.7959183673469 318.8840354869833 496.3265306122449 318.917017122879 502.85714285714283 318.950074589493 509.38775510204084 318.982122932144 515.9183673469388 319.01022807744215 522.4489795918367 319.0404403508442 528.9795918367347 319.06879970372654 535.5102040816327 319.0972238929005 542.0408163265306 319.12390510582117 548.5714285714286 319.15064735322244 555.1020408163265 319.17657334150937 561.6326530612245 319.2009093507511 568.1632653061224 319.2253010513876 574.6938775510204 319.24819694486683 581.2244897959183 319.2711453136142 587.7551020408164 319.29339313188126 594.2857142857143 319.31290371809587 600.8163265306123 319.33387687130863 607.3469387755102 319.3535637793561 613.8775510204082 319.37329592895543 620.4081632653061 319.3918178593359 626.9387755102041 319.4103822569737 633.469387755102 319.42837999980736 640 319.4412462840971 640 320 0 320"
      />
      

      
        <g id="labels">
        
          
          <text x="0" y="330">
            Jul 2014
          </text>
          
        
          
        
          
        
          
        
          
        
          
        
          
        
          
        
          
        
          
        
          
        
          
        
          
        
          
          <text x="84.04040404040404" y="330">
            Aug 2015
          </text>
          
        
          
        
          
        
          
        
          
        
          
        
          
        
          
        
          
        
          
        
          
        
          
        
          
        
          
          <text x="168.08080808080808" y="330">
            Sep 2016
          </text>
          
        
          
        
          
        
          
        
          
        
          
        
          
        
          
        
          
        
          
        
          
        
          
        
          
        
          
          <text x="252.12121212121212" y="330">
            Oct 2017
          </text>
          
        
          
        
          
        
          
        
          
        
          
        
          
        
          
        
          
        
          
        
          
        
          
        
          
        
          
          <text x="336.16161616161617" y="330">
            Nov 2018
          </text>
          
        
          
        
          
        
          
        
          
        
          
        
          
        
          
        
          
        
          
        
          
        
          
        
          
        
          
          <text x="420.2020202020202" y="330">
            Dec 2019
          </text>
          
        
          
        
          
        
          
        
          
        
          
        
          
        
          
        
          
        
          
        
          
        
          
        
          
        
          
          <text x="504.24242424242425" y="330">
            Jan 2021
          </text>
          
        
          
        
          
        
          
        
          
        
          
        
          
        
          
        
          
        
          
        
          
        
          
        
          
        
          
          <text x="588.2828282828283" y="330">
            Feb 2022
          </text>
          
        
          
        
          
        
          
        
          
        
          
        
          
        
          
        
        </g>
      

      
        <text text-anchor="middle" y="370" x="320" id="legend">
          
          <tspan xml:space="preserve" fill="#C1F12E">   </tspan> Batchfile
          
          <tspan xml:space="preserve" fill="#555555">   </tspan> C
          
          <tspan xml:space="preserve" fill="#178600">   </tspan> C#
          
          <tspan xml:space="preserve" fill="#563d7c">   </tspan> CSS
          
          <tspan xml:space="preserve" fill="#244776">   </tspan> CoffeeScript
          
          <tspan xml:space="preserve" fill="#00ADD8">   </tspan> Go
          
          <tspan xml:space="preserve" fill="#e34c26">   </tspan> HTML
          
          <tspan xml:space="preserve" fill="#22e4e8">   </tspan> JSON
          
        </text>
      
        <text text-anchor="middle" y="400" x="320" id="legend">
          
          <tspan xml:space="preserve" fill="#22e8e8">   </tspan> JSon
          
          <tspan xml:space="preserve" fill="#f1e05a">   </tspan> JavaScript
          
          <tspan xml:space="preserve" fill="#2415b9">   </tspan> Less
          
          <tspan xml:space="preserve" fill="#755462">   </tspan> MySQL
          
          <tspan xml:space="preserve" fill="#4F5D95">   </tspan> PHP
          
          <tspan xml:space="preserve" fill="#fd2fdb">   </tspan> PLpgSQL
          
          <tspan xml:space="preserve" fill="#0298c3">   </tspan> Perl
          
          <tspan xml:space="preserve" fill="#3572A5">   </tspan> Python
          
        </text>
      
        <text text-anchor="middle" y="430" x="320" id="legend">
          
          <tspan xml:space="preserve" fill="#701516">   </tspan> Ruby
          
          <tspan xml:space="preserve" fill="#dea584">   </tspan> Rust
          
          <tspan xml:space="preserve" fill="#26c0b0">   </tspan> SCSS
          
          <tspan xml:space="preserve" fill="#0141ae">   </tspan> SQL
          
          <tspan xml:space="preserve" fill="#89e051">   </tspan> Shell
          
          <tspan xml:space="preserve" fill="#2770da">   </tspan> TSQL
          
          <tspan xml:space="preserve" fill="#2b7489">   </tspan> TypeScript
          
          <tspan xml:space="preserve" fill="#2c3e50">   </tspan> Vue
          
        </text>
      
        <text text-anchor="middle" y="460" x="320" id="legend">
          
          <tspan xml:space="preserve" fill="#4B6C4B">   </tspan> Yacc
          
        </text>
      

    </svg>