<svg
      xmlns="http://www.w3.org/2000/svg"
      viewBox="0 0 640 490"
      style="background-color: #292b3e"
    >
      <style>
        text {
          font-size: 12px;
          font-family: Open Sans, Helvetica Neue, Helvetica, Arial, sans-serif;
        }
        #labels text {
          dominant-baseline: hanging;
          font-size: 10px;
          fill: rgba(0,0,0,0.5);
        }
        #legend {
          font-weight: 600;
        }
        #legend tspan {
          font-size: 15px;
        }
        #branding-text {
          font-size: 9px;
          dominant-baseline: hanging;
          opacity: 0.5;
        }
        #branding-logo {
          opacity: 0.5;
        }
      </style>

      
      
      <polygon
        fill="#4B6C4B"
        fillRule="evenodd"
        points="0 313.6135463168409 6.4 304.2691045603231 12.8 297.26803928055676 19.2 285.9388008078723 25.6 278.8279778987487 32 274.9841878716793 38.4 267.0907243030678 44.800000000000004 257.07879832319287 51.2 246.22210216716326 57.599999999999994 230.99229230331125 64 221.54621131475267 70.4 206.62803891135545 76.8 198.2772836981464 83.2 192.17028205217815 89.60000000000001 182.12944343756303 96 170.61722484555955 102.4 156.95182487310657 108.80000000000001 154.80411221340648 115.19999999999999 149.887869700316 121.6 142.52565332948348 128 138.2860351490151 134.4 123.78685228344824 140.8 127.17484158037507 147.20000000000002 110.77235062842078 153.6 93.05711117378368 160 88.01873682571221 166.4 78.10614611255761 172.8 68.78366579395302 179.20000000000002 65.97366895681122 185.6 62.13329102393067 192 59.18909487838329 198.4 46.68372143872597 204.8 33.29392149479321 211.20000000000002 31.646301757960714 217.60000000000002 27.414456082924858 224 27.528773608988274 230.39999999999998 25.251060024369792 236.8 13.93607537389397 243.2 9.643003371641782 249.60000000000002 9.883777823354876 256 12.93775857570779 262.4 8.246814666635089 268.8 10.710081361520906 275.2 10.158934990167609 281.6 11.455551101096262 288 14.195533525654355 294.40000000000003 17.692964219321027 300.79999999999995 18.067763825652094 307.2 12.038651503086385 313.6 13.322559776835533 320 11.292576668235824 326.4 7.029333356634311 332.8 1.9717080854469486 339.20000000000005 4.695372028830491 345.6 0.06648952666517971 352 0 358.40000000000003 3.134049884396177 364.79999999999995 11.121678290437046 371.2 13.499530146303243 377.59999999999997 18.048034035619537 384 21.314631825327467 390.4 21.568478295899524 396.8 27.066366078968542 403.2 30.68095422253208 409.6 36.747877211227774 416 42.80367293757763 422.40000000000003 46.96015444104188 428.8 38.514680224502 435.20000000000005 42.630931800214285 441.59999999999997 50.61547610697437 448 58.068826498753424 454.4 55.54195048091947 460.79999999999995 58.40762969808577 467.2 64.84909595279356 473.6 68.96511756094154 480 76.40560009154478 486.4 74.31934189867337 492.8 74.99064578848615 499.20000000000005 75.05184787566105 505.6 74.49023170492868 512 78.43671979204473 518.4000000000001 85.33592900797788 524.8 88.56491860010448 531.1999999999999 82.0254200356857 537.6 83.08748917068971 544 90.29398450099654 550.4 88.15311844166081 556.8 86.74188097582064 563.2 87.76606814603736 569.6 85.89987445392225 576 86.43101386058657 582.4 86.68126917391328 588.8000000000001 89.27132671422322 595.2 85.21647759953933 601.5999999999999 69.72112769090239 608 69.36914983428386 614.4 67.00819433954919 620.8 64.10045916252284 627.2 60.655479235001906 633.6 56.62910707682204 640 57.125851339751364 640 320 0 320"
      />
      
      <polygon
        fill="#2c3e50"
        fillRule="evenodd"
        points="0 313.6135463168409 6.4 304.2691045603231 12.8 297.26803928055676 19.2 285.9388008078723 25.6 278.8279778987487 32 274.9841878716793 38.4 267.0907243030678 44.800000000000004 257.07879832319287 51.2 246.22210216716326 57.599999999999994 230.99229230331125 64 221.54621131475267 70.4 206.62803891135545 76.8 198.2772836981464 83.2 192.17028205217815 89.60000000000001 182.12944343756303 96 170.61722484555955 102.4 156.95182487310657 108.80000000000001 154.80411221340648 115.19999999999999 149.887869700316 121.6 142.52565332948348 128 138.2860351490151 134.4 123.78685228344824 140.8 127.17484158037507 147.20000000000002 110.77235062842078 153.6 93.05711117378368 160 88.01873682571221 166.4 78.10614611255761 172.8 68.78366579395302 179.20000000000002 65.97366895681122 185.6 62.13329102393067 192 59.18909487838329 198.4 46.68372143872597 204.8 33.29392149479321 211.20000000000002 31.646301757960714 217.60000000000002 27.414456082924858 224 27.528773608988274 230.39999999999998 25.251060024369792 236.8 13.93607537389397 243.2 9.643003371641782 249.60000000000002 9.883777823354876 256 12.93775857570779 262.4 8.246814666635089 268.8 10.710081361520906 275.2 10.158934990167609 281.6 11.455551101096262 288 14.195533525654355 294.40000000000003 17.692964219321027 300.79999999999995 18.067763825652094 307.2 12.038651503086385 313.6 13.322559776835533 320 11.292576668235824 326.4 7.029333356634311 332.8 1.9717080854469486 339.20000000000005 4.695372028830491 345.6 0.06648952666517971 352 0 358.40000000000003 3.134049884396177 364.79999999999995 11.121678290437046 371.2 13.499530146303243 377.59999999999997 18.048034035619537 384 21.314631825327467 390.4 21.568478295899524 396.8 27.066366078968542 403.2 30.68095422253208 409.6 36.747877211227774 416 42.80367293757763 422.40000000000003 46.96015444104188 428.8 38.514680224502 435.20000000000005 42.630931800214285 441.59999999999997 50.61547610697437 448 58.068826498753424 454.4 56.64253799407544 460.79999999999995 59.47462245340836 467.2 65.88351930909323 473.6 69.96896911323105 480 77.37880966044071 486.4 75.26378870927675 492.8 75.90626397698327 499.20000000000005 75.9395173045124 505.6 75.35339106117195 512 79.27353177325591 518.4000000000001 86.14800946620437 524.8 89.35221075477921 531.1999999999999 82.78944417981262 537.6 83.82819194533204 544 91.01207775937638 550.4 88.84998882769855 556.8 87.41747978522966 563.2 88.42169997553799 569.6 86.53549350709991 576 87.04723101660738 582.4 87.28047153878109 588.8000000000001 89.85223881103789 595.2 85.78022112706734 601.5999999999999 70.26766330553318 608 69.89953283666154 614.4 67.52238771852598 620.8 64.59895709193 627.2 61.139244323211415 633.6 57.098105518537864 640 57.58423111671692 640 320 0 320"
      />
      
      <polygon
        fill="#2b7489"
        fillRule="evenodd"
        points="0 313.6135463168409 6.4 304.2691045603231 12.8 297.26803928055676 19.2 285.9388008078723 25.6 278.8279778987487 32 274.9841878716793 38.4 267.0907243030678 44.800000000000004 257.07879832319287 51.2 246.22210216716326 57.599999999999994 230.99229230331125 64 221.54621131475267 70.4 206.62803891135545 76.8 198.2772836981464 83.2 192.17028205217815 89.60000000000001 182.12944343756303 96 170.61722484555955 102.4 156.95182487310657 108.80000000000001 154.80411221340648 115.19999999999999 149.887869700316 121.6 142.52565332948348 128 138.2860351490151 134.4 123.78685228344824 140.8 127.17484158037507 147.20000000000002 110.77235062842078 153.6 93.05711117378368 160 88.01873682571221 166.4 78.10614611255761 172.8 68.78366579395302 179.20000000000002 65.97366895681122 185.6 62.13329102393067 192 59.18909487838329 198.4 46.68372143872597 204.8 33.29392149479321 211.20000000000002 31.646301757960714 217.60000000000002 27.414456082924858 224 27.528773608988274 230.39999999999998 25.251060024369792 236.8 13.93607537389397 243.2 9.643003371641782 249.60000000000002 9.883777823354876 256 12.93775857570779 262.4 8.246814666635089 268.8 10.710081361520906 275.2 10.158934990167609 281.6 11.455551101096262 288 14.195533525654355 294.40000000000003 17.692964219321027 300.79999999999995 18.067763825652094 307.2 12.038651503086385 313.6 13.322559776835533 320 11.292576668235824 326.4 7.029333356634311 332.8 1.9717080854469486 339.20000000000005 4.695372028830491 345.6 0.06648952666517971 352 0 358.40000000000003 3.134049884396177 364.79999999999995 11.121678290437046 371.2 13.499530146303243 377.59999999999997 18.048034035619537 384 21.314631825327467 390.4 21.568478295899524 396.8 27.066366078968542 403.2 30.68095422253208 409.6 36.747877211227774 416 42.80367293757763 422.40000000000003 46.96015444104188 428.8 38.514680224502 435.20000000000005 42.630931800214285 441.59999999999997 50.61547610697437 448 58.068826498753424 454.4 56.64253799407544 460.79999999999995 59.47462245340836 467.2 65.88351930909323 473.6 69.96896911323105 480 77.37880966044071 486.4 75.26378870927675 492.8 75.90626397698327 499.20000000000005 75.9395173045124 505.6 75.35339106117195 512 79.27353177325591 518.4000000000001 86.14800946620437 524.8 89.35221075477921 531.1999999999999 84.99955027761874 537.6 87.49746398213466 544 94.56934719924368 550.4 94.6708569820724 556.8 95.57896806506994 563.2 99.33771672580968 569.6 99.23008086026968 576 100.29074034032465 582.4 100.92493633326345 588.8000000000001 103.11105402195795 595.2 98.64717993767982 601.5999999999999 83.41147577656318 608 83.12827263683869 614.4 80.36982844040509 620.8 77.05423685758268 627.2 73.22641483009266 633.6 68.81632297001968 640 69.03712939807292 640 320 0 320"
      />
      
      <polygon
        fill="#2770da"
        fillRule="evenodd"
        points="0 313.6135463168409 6.4 304.2691045603231 12.8 297.26803928055676 19.2 285.9388008078723 25.6 278.8279778987487 32 274.9841878716793 38.4 267.0907243030678 44.800000000000004 257.07879832319287 51.2 246.22210216716326 57.599999999999994 230.99229230331125 64 221.54621131475267 70.4 206.62803891135545 76.8 198.2772836981464 83.2 192.17028205217815 89.60000000000001 182.12944343756303 96 170.61722484555955 102.4 156.95182487310657 108.80000000000001 154.80411221340648 115.19999999999999 149.887869700316 121.6 142.52565332948348 128 138.2860351490151 134.4 123.78685228344824 140.8 127.17484158037507 147.20000000000002 110.77235062842078 153.6 93.05711117378368 160 88.01873682571221 166.4 78.10614611255761 172.8 68.78366579395302 179.20000000000002 65.97366895681122 185.6 62.13329102393067 192 59.18909487838329 198.4 46.68372143872597 204.8 33.29392149479321 211.20000000000002 31.646301757960714 217.60000000000002 27.414456082924858 224 27.528773608988274 230.39999999999998 25.251060024369792 236.8 14.57428469365658 243.2 11.080014408818158 249.60000000000002 11.276924896341654 256 14.289731928454671 262.4 9.557519767615304 268.8 11.980777843328497 275.2 11.394545582058868 281.6 12.653445360587284 288 15.358024700856049 294.40000000000003 18.819971033670697 300.79999999999995 19.161462559298513 307.2 13.098965708794822 313.6 14.350508545565162 320 12.290144853793777 326.4 7.996451396146995 332.8 2.91024338757461 339.20000000000005 5.605259140766009 345.6 0.9486028650310345 352 0.8577566739854205 358.40000000000003 3.9656239970114484 364.79999999999995 11.9286757473688 371.2 14.281894434138792 377.59999999999997 18.807276014760532 384 22.050698321790037 390.4 22.282076826785783 396.8 27.758874615958803 403.2 31.352324318218848 409.6 37.399405303849676 416 43.43531353897498 422.40000000000003 47.57251456691847 428.8 40.23022244568915 435.20000000000005 44.29410807664783 441.59999999999997 52.22949825002769 448 59.63358148160103 454.4 58.16104733201729 460.79999999999995 60.94678020948356 467.2 67.31074027090165 473.6 71.35400938853624 480 78.7215724571794 486.4 76.56686676007368 492.8 77.1695663466198 499.20000000000005 77.16425800384582 505.6 76.54431475083246 512 80.42810326154805 518.4000000000001 87.26845815588487 524.8 90.43845845183515 531.1999999999999 86.0536945544277 537.6 88.51943106300507 544 95.56011918453731 550.4 95.63234731319284 556.8 96.51110954243197 563.2 100.24230914748148 569.6 100.10706113673234 576 101.14095129206535 582.4 101.75167166472835 588.8000000000001 103.91255364859518 595.2 99.42499164883745 601.5999999999999 84.17664244721789 608 84.13450761662256 614.4 81.54069099881156 620.8 78.21138705289812 627.2 74.34936613919257 633.6 69.92166367219357 640 70.120268035415 640 320 0 320"
      />
      
      <polygon
        fill="#509e5b"
        fillRule="evenodd"
        points="0 313.6135463168409 6.4 304.90983452214624 12.8 298.3344702925568 19.2 288.0768015451167 25.6 281.2713236875703 32 277.35295177944136 38.4 269.99992217503893 44.800000000000004 260.0717169115734 51.2 250.1731521349144 57.599999999999994 235.18156531481313 64 226.7874326973478 70.4 213.32782112842415 76.8 205.81365605559336 83.2 200.4219775551903 89.60000000000001 190.45079583184207 96 178.68457513749286 102.4 164.78074764548666 108.80000000000001 162.39406185492126 115.19999999999999 158.35633575560334 121.6 150.82945676783223 128 146.47014831676617 134.4 132.58691438428815 140.8 135.70628618281845 147.20000000000002 119.05165190603921 153.6 102.43428105289536 160 97.17044695846099 166.4 87.08384271359279 172.8 77.51838400443461 179.20000000000002 74.59619674032388 185.6 71.29255340365458 192 68.12743564153891 198.4 55.43658918858779 204.8 42.602789263268846 211.20000000000002 40.81619482437907 217.60000000000002 36.304445408664435 224 36.657158498515 230.39999999999998 34.265665535264645 236.8 23.33056533988946 243.2 19.768447517756726 249.60000000000002 20.331768984623068 256 23.771550262726123 262.4 19.357782962536817 268.8 21.6571091791472 275.2 22.197582772616443 281.6 24.03336838583209 288 26.401617397835594 294.40000000000003 29.526466875004985 300.79999999999995 29.794607073447764 307.2 23.469362926856093 313.6 24.70100790475942 320 22.40409961759559 326.4 17.801684688839714 332.8 12.431337516182907 339.20000000000005 14.83572780403074 345.6 10.202173286658422 352 9.855822250246547 358.40000000000003 12.717180121939407 364.79999999999995 20.455462617085857 371.2 22.80202340732535 377.59999999999997 27.11142675371849 384 30.80866861631216 390.4 30.772714635165414 396.8 35.998579000304346 403.2 39.34051370413755 409.6 45.23235953759121 416 51.02916979858492 422.40000000000003 55.06936606732063 428.8 47.53761632619285 435.20000000000005 51.37844865465473 441.59999999999997 59.10446588148682 448 66.29869467223602 454.4 64.91759881345695 460.79999999999995 67.49709266999108 467.2 73.66110591385137 473.6 78.63268931778563 480 85.77807452807116 486.4 83.41481430138589 492.8 83.84692763782186 499.20000000000005 83.63779750690605 505.6 82.83910952201626 512 87.04893994008046 518.4000000000001 93.69362043086255 524.8 96.66749483246608 531.1999999999999 92.09863684903567 537.6 94.37985387971963 544 101.24165403356204 550.4 101.14597053780489 556.8 101.85643171384169 563.2 105.4296522863981 569.6 105.136063351811 576 106.01644561036352 582.4 106.49254733482309 588.8000000000001 108.50871686121312 595.2 104.55172774889985 601.5999999999999 89.1468871533138 608 88.95786009153642 614.4 86.21681318958363 620.8 82.74477413912922 627.2 78.7487712265027 633.6 74.18677871110745 640 74.28881737296228 640 320 0 320"
      />
      
      <polygon
        fill="#89e051"
        fillRule="evenodd"
        points="0 313.6135463168409 6.4 304.90983452214624 12.8 298.3344702925568 19.2 288.0768015451167 25.6 281.2713236875703 32 277.35295177944136 38.4 269.99992217503893 44.800000000000004 260.0717169115734 51.2 250.1731521349144 57.599999999999994 235.18156531481313 64 226.7874326973478 70.4 213.32782112842415 76.8 205.81365605559336 83.2 200.4219775551903 89.60000000000001 190.45079583184207 96 178.68457513749286 102.4 164.78074764548666 108.80000000000001 162.39406185492126 115.19999999999999 158.35633575560334 121.6 150.82945676783223 128 146.47014831676617 134.4 132.58691438428815 140.8 135.70628618281845 147.20000000000002 119.05165190603921 153.6 102.43428105289536 160 97.17044695846099 166.4 87.08384271359279 172.8 77.51838400443461 179.20000000000002 74.59619674032388 185.6 71.29255340365458 192 68.12743564153891 198.4 55.43658918858779 204.8 42.602789263268846 211.20000000000002 40.81619482437907 217.60000000000002 36.304445408664435 224 36.657158498515 230.39999999999998 34.265665535264645 236.8 23.33056533988946 243.2 19.768447517756726 249.60000000000002 20.331768984623068 256 23.771550262726123 262.4 19.357782962536817 268.8 21.6571091791472 275.2 22.197582772616443 281.6 24.03336838583209 288 26.401617397835594 294.40000000000003 29.526466875004985 300.79999999999995 29.794607073447764 307.2 23.469362926856093 313.6 24.70100790475942 320 22.40409961759559 326.4 17.801684688839714 332.8 12.431337516182907 339.20000000000005 14.83572780403074 345.6 10.202173286658422 352 9.855822250246547 358.40000000000003 12.717180121939407 364.79999999999995 20.455462617085857 371.2 22.80202340732535 377.59999999999997 27.11142675371849 384 30.80866861631216 390.4 30.772714635165414 396.8 35.998579000304346 403.2 39.34051370413755 409.6 45.23235953759121 416 51.02916979858492 422.40000000000003 55.06936606732063 428.8 47.53761632619285 435.20000000000005 51.37844865465473 441.59999999999997 59.10446588148682 448 66.29869467223602 454.4 64.91759881345695 460.79999999999995 67.49709266999108 467.2 73.66110591385137 473.6 78.63268931778563 480 85.77807452807116 486.4 83.41481430138589 492.8 83.84692763782186 499.20000000000005 83.63779750690605 505.6 82.83910952201626 512 87.04893994008046 518.4000000000001 93.69362043086255 524.8 96.66749483246608 531.1999999999999 92.09863684903567 537.6 94.37985387971963 544 101.24165403356204 550.4 101.14597053780489 556.8 101.85643171384169 563.2 105.4296522863981 569.6 105.136063351811 576 106.01644561036352 582.4 106.49254733482309 588.8000000000001 108.50871686121312 595.2 104.55172774889985 601.5999999999999 89.1468871533138 608 88.95786009153642 614.4 86.21681318958363 620.8 82.74477413912922 627.2 78.7487712265027 633.6 75.29809154523628 640 75.37496879171329 640 320 0 320"
      />
      
      <polygon
        fill="#0141ae"
        fillRule="evenodd"
        points="0 313.6957844840133 6.4 304.9895624220933 12.8 298.41184187089726 19.2 288.15457398336895 25.6 281.3467976040795 32 277.4261218937997 38.4 270.0708588176749 44.800000000000004 260.1686476854762 51.2 250.6255076129075 57.599999999999994 236.5914121012642 64 228.1652714170919 70.4 215.56285899164908 76.8 209.34786997534476 83.2 203.84831137733818 89.60000000000001 193.80947528981557 96 182.16683668792018 102.4 169.20006025031978 108.80000000000001 166.6895813153919 115.19999999999999 162.52073690590393 121.6 154.87482453889447 128 151.50310801201147 134.4 138.33046417540595 140.8 141.27451646863 147.20000000000002 124.45531646972717 153.6 107.98191548781676 160 102.61877509975295 166.4 92.52493590503431 172.8 83.01574441563866 179.20000000000002 79.93108704950032 185.6 76.46459846449446 192 73.61543424629193 198.4 61.01110232737267 204.8 50.21097835186589 211.20000000000002 49.30663843212221 217.60000000000002 44.535720560620916 224 46.7263207313801 230.39999999999998 45.535769641842364 236.8 38.06170086001009 243.2 34.37971706194185 249.60000000000002 35.18776832139844 256 40.459027031889036 262.4 36.76686305869504 268.8 38.53478851774014 275.2 38.68997832355501 281.6 40.02233937354424 288 41.960122638167036 294.40000000000003 45.10738225227885 300.79999999999995 44.917806963234796 307.2 38.142117009067874 313.6 38.925880860817585 320 36.3685084194405 326.4 33.6996207887625 332.8 28.417199238677824 339.20000000000005 30.372626425397243 345.6 26.293762356738114 352 25.53669957948921 358.40000000000003 28.083733959595577 364.79999999999995 35.36786028474131 371.2 37.58847014576821 377.59999999999997 41.46085835400254 384 45.37436060688185 390.4 45.02184417548756 396.8 49.82658600164643 403.2 53.20070663530919 409.6 58.85791083410487 416 64.62539371643692 422.40000000000003 68.63053420149254 428.8 63.21828506956666 435.20000000000005 66.93851777524407 441.59999999999997 74.20466994987225 448 80.93798048390724 454.4 80.2661495328478 460.79999999999995 82.74304277479644 467.2 88.44168553253539 473.6 93.40756930191583 480 100.1019610382807 486.4 98.34472290685761 492.8 99.94030869684369 499.20000000000005 99.86309422897585 505.6 98.67416777140934 512 102.40064205286893 518.4000000000001 108.5916030682032 524.8 111.11072534018075 531.1999999999999 106.1150102476521 537.6 107.96837861572342 544 114.41540114556145 550.4 113.93037568535692 556.8 114.3943001808708 563.2 117.59697360878187 569.6 116.93198469077541 576 117.45230355650389 582.4 117.64288349054854 588.8000000000001 119.31869492637162 595.2 115.05051059674611 601.5999999999999 99.80059083601071 608 99.38371649030978 614.4 97.920352052744 620.8 95.7255721298394 627.2 92.85883667082376 633.6 90.30670381183768 640 90.26939827666757 640 320 0 320"
      />
      
      <polygon
        fill="#26c0b0"
        fillRule="evenodd"
        points="0 313.6957844840133 6.4 305.0750635781582 12.8 298.5224149970204 19.2 288.3920142444272 25.6 281.72964699941645 32 277.85565071044823 38.4 270.54538766196134 44.800000000000004 260.8000541363918 51.2 251.72750683111366 57.599999999999994 237.79089716194798 64 230.20543007185515 70.4 218.216752692245 76.8 212.42850816922004 83.2 207.4759921111566 89.60000000000001 198.30975096201973 96 186.52974304999546 102.4 173.80637029206744 108.80000000000001 171.15528711651385 115.19999999999999 166.87823174907868 121.6 159.35253276136552 128 156.04875378223053 134.4 143.12359841477013 140.8 145.92416572184206 147.20000000000002 128.96754709201375 153.6 112.62409880544769 160 107.34706790437394 166.4 97.3916719801295 172.8 88.07437363321807 179.20000000000002 84.90337897966057 185.6 81.47870333296856 192 78.54013160776026 198.4 65.83880993137555 204.8 55.25777098927472 211.20000000000002 54.27445254771209 217.60000000000002 49.445690526729436 224 52.03128821602792 230.39999999999998 50.75677525193595 236.8 43.28752254313724 243.2 39.624139466986264 249.60000000000002 40.2721088812375 256 46.01528746862755 262.4 42.226041261474506 268.8 45.29478423480708 275.2 46.22618473707183 281.6 47.342262380403724 288 49.12223122069196 294.40000000000003 52.196289627793305 300.79999999999995 51.84784475762308 307.2 44.899046616614555 313.6 45.54033707230013 320 42.901898914644164 326.4 40.52967361481018 332.8 35.111612681536315 339.20000000000005 37.18650511271909 345.6 32.91339879313563 352 31.973559822648895 358.40000000000003 34.32974368136013 364.79999999999995 41.45121916430912 371.2 43.650409619894845 377.59999999999997 47.72241347708837 384 51.45035876856798 390.4 51.04921542255846 396.8 55.67582255344354 403.2 59.07771675517256 409.6 64.64960080522667 416 70.24029719680951 422.40000000000003 74.11902087662833 428.8 68.6767773022672 435.20000000000005 72.31776998315217 441.59999999999997 79.43583646607291 448 86.0815679588834 454.4 85.8887552776184 460.79999999999995 88.95196079149906 467.2 94.47224208105158 473.6 100.00813451654722 480 106.58854897458409 486.4 104.63960337292542 492.8 106.09851568702095 499.20000000000005 105.83332527818496 505.6 104.4961435886728 512 108.04490579243421 518.4000000000001 114.080147695275 524.8 116.43173564693353 531.1999999999999 111.2787620165484 537.6 112.97450779763355 544 119.2687214502308 550.4 118.64026001641571 556.8 118.96041747247205 563.2 122.02814406337916 569.6 121.4710639106892 576 121.85283243871424 582.4 121.92190463080752 588.8000000000001 123.46992567720929 595.2 119.6606302590223 601.5999999999999 104.26998860701102 608 103.72102381768929 614.4 102.12526540810046 620.8 99.80213119466708 627.2 96.81491664056364 633.6 94.14202602398905 640 94.0178856778644 640 320 0 320"
      />
      
      <polygon
        fill="#dea584"
        fillRule="evenodd"
        points="0 313.6957844840133 6.4 305.0750635781582 12.8 298.5224149970204 19.2 288.3920142444272 25.6 281.72964699941645 32 277.85565071044823 38.4 270.54538766196134 44.800000000000004 260.8000541363918 51.2 251.72750683111366 57.599999999999994 237.79089716194798 64 230.20543007185515 70.4 218.60514736859284 76.8 212.80504732826643 83.2 207.8410376442463 89.60000000000001 198.66400775581235 96 187.9961856560162 102.4 176.33182482926378 108.80000000000001 173.6036536596748 115.19999999999999 169.25186331120742 121.6 162.7598764328067 128 159.35209047712232 134.4 148.5572991380671 140.8 151.19200594935376 147.20000000000002 136.3269456424362 153.6 123.07420151331911 160 117.47818836041603 166.4 107.22337307279926 172.8 98.72214998368364 179.20000000000002 95.23646501511519 185.6 91.49637773676235 192 88.2520211828741 198.4 76.38136282839463 204.8 66.58262785890517 211.20000000000002 65.26460873039738 217.60000000000002 60.10037641253979 224 62.37108085229971 230.39999999999998 60.78095383577761 236.8 53.005717473837876 243.2 49.05511936267453 249.60000000000002 49.41521459001768 256 54.88817069808937 262.4 51.931045447883605 268.8 54.7035502492227 275.2 55.37515807936916 281.6 56.211970583586265 288 57.72979836257781 294.40000000000003 60.541115638690826 300.79999999999995 61.06407573993738 307.2 54.08977463703479 313.6 54.45052326423598 320 51.548749043482985 326.4 48.91258350079397 332.8 43.246769821106795 339.20000000000005 45.073342316715525 345.6 41.66876330557221 352 40.48717434062149 358.40000000000003 42.58348291488028 364.79999999999995 49.46102236180889 371.2 51.47759229292086 377.59999999999997 55.31826620144278 384 58.81435288696264 390.4 58.18842744178488 396.8 62.604040204934904 403.2 65.79445402357945 409.6 71.16782772427592 416 76.55955950141441 422.40000000000003 80.24539098436338 428.8 74.62803484653836 435.20000000000005 78.08736793646946 441.59999999999997 85.03491680738864 448 91.5097408484013 454.4 91.15650169286494 460.79999999999995 94.05891144300995 467.2 99.42330613486399 473.6 104.8128730145799 480 111.24662448038714 486.4 109.16001241080025 492.8 110.48094178185619 499.20000000000005 110.08198042600785 505.6 108.62748747507106 512 112.0501415395808 518.4000000000001 117.96701147561572 524.8 120.19995475756389 531.1999999999999 116.05398099031615 537.6 117.6039638837091 544 123.75686728902804 550.4 123.35393752773746 556.8 123.53021193771266 563.2 126.46288000056194 569.6 125.77043244832566 576 126.02096552928882 582.4 125.9999069454449 588.8000000000001 127.4234492884118 595.2 123.49730899858275 601.5999999999999 107.98955490960799 608 107.33066033257847 614.4 105.62472018821282 620.8 103.19476802108039 627.2 100.10728490405609 633.6 97.33389699936652 640 97.13748884230642 640 320 0 320"
      />
      
      <polygon
        fill="#701516"
        fillRule="evenodd"
        points="0 313.6957844840133 6.4 305.0750635781582 12.8 298.5224149970204 19.2 288.3920142444272 25.6 281.72964699941645 32 277.85565071044823 38.4 270.54538766196134 44.800000000000004 260.8000541363918 51.2 251.72750683111366 57.599999999999994 237.79089716194798 64 230.20543007185515 70.4 218.60514736859284 76.8 212.80504732826643 83.2 207.8410376442463 89.60000000000001 198.66400775581235 96 187.9961856560162 102.4 176.33182482926378 108.80000000000001 173.6036536596748 115.19999999999999 169.25186331120742 121.6 162.7598764328067 128 159.35209047712232 134.4 148.5572991380671 140.8 151.19200594935376 147.20000000000002 136.3269456424362 153.6 123.07420151331911 160 117.47818836041603 166.4 107.22337307279926 172.8 98.72214998368364 179.20000000000002 95.23646501511519 185.6 91.49637773676235 192 88.2520211828741 198.4 76.38136282839463 204.8 66.58262785890517 211.20000000000002 65.26460873039738 217.60000000000002 60.10037641253979 224 62.37108085229971 230.39999999999998 60.78095383577761 236.8 53.005717473837876 243.2 49.05511936267453 249.60000000000002 49.41521459001768 256 54.88817069808937 262.4 51.931045447883605 268.8 54.7035502492227 275.2 55.37515807936916 281.6 56.211970583586265 288 57.72979836257781 294.40000000000003 60.541115638690826 300.79999999999995 61.06407573993738 307.2 54.08977463703479 313.6 54.45052326423598 320 51.548749043482985 326.4 48.91258350079397 332.8 43.246769821106795 339.20000000000005 45.073342316715525 345.6 41.66876330557221 352 40.48717434062149 358.40000000000003 42.58348291488028 364.79999999999995 49.46102236180889 371.2 51.47759229292086 377.59999999999997 55.31826620144278 384 58.81435288696264 390.4 58.18842744178488 396.8 62.604040204934904 403.2 65.79445402357945 409.6 71.16782772427592 416 76.55955950141441 422.40000000000003 80.24539098436338 428.8 74.62803484653836 435.20000000000005 78.08736793646946 441.59999999999997 85.03491680738864 448 91.5097408484013 454.4 91.15650169286494 460.79999999999995 94.05891144300995 467.2 99.42330613486399 473.6 104.8128730145799 480 111.24662448038714 486.4 109.16001241080025 492.8 110.48094178185619 499.20000000000005 110.08198042600785 505.6 108.62748747507106 512 112.0501415395808 518.4000000000001 117.96701147561572 524.8 120.19995475756389 531.1999999999999 116.05398099031615 537.6 117.6039638837091 544 123.75686728902804 550.4 123.35393752773746 556.8 123.53021193771266 563.2 126.46288000056194 569.6 125.77043244832566 576 126.02096552928882 582.4 125.9999069454449 588.8000000000001 127.4234492884118 595.2 123.49730899858275 601.5999999999999 108.0091111520876 608 107.34963860005587 614.4 105.64311915621897 620.8 103.21260537009346 627.2 100.12459507951485 633.6 97.35067879085645 640 97.15389067665473 640 320 0 320"
      />
      
      <polygon
        fill="#3572A5"
        fillRule="evenodd"
        points="0 313.6957844840133 6.4 305.0750635781582 12.8 298.5224149970204 19.2 288.3920142444272 25.6 281.72964699941645 32 277.85565071044823 38.4 270.54538766196134 44.800000000000004 260.8000541363918 51.2 251.72750683111366 57.599999999999994 237.79089716194798 64 230.20543007185515 70.4 218.60514736859284 76.8 212.80504732826643 83.2 207.8410376442463 89.60000000000001 198.66400775581235 96 187.9961856560162 102.4 176.33182482926378 108.80000000000001 173.6036536596748 115.19999999999999 169.25186331120742 121.6 163.42150464365392 128 159.9935228492899 134.4 149.21619350743552 140.8 151.83078794521555 147.20000000000002 137.9480918662993 153.6 125.43977210500645 160 119.77155104538548 166.4 109.44895696133466 172.8 100.87979899601407 179.20000000000002 97.33034552553121 185.6 93.52634383790735 192 90.22002371775582 198.4 78.29502586739821 204.8 68.47374810857394 211.20000000000002 67.09983793412914 217.60000000000002 61.8795865417668 224 64.09770730600653 230.39999999999998 62.45487588076429 236.8 54.62854409834085 243.2 50.62998408130278 249.60000000000002 50.94200745849548 256 56.369840175286754 262.4 53.4033212656156 268.8 56.130885676379876 275.2 56.76308249100555 281.6 57.557529458484 288 59.03558977644781 294.40000000000003 61.80704855356282 300.79999999999995 62.29259472054321 307.2 55.28079378298702 313.6 55.60518722902168 320 52.669287538113906 326.4 49.998918331257244 332.8 44.300998457028186 339.20000000000005 46.09539129065854 345.6 42.65961482065029 352 41.45066683920368 358.40000000000003 43.51756526833907 364.79999999999995 50.367498426903126 371.2 52.378730409302705 377.59999999999997 56.192771498682475 384 59.66216443332593 390.4 59.010360016831214 396.8 63.401681054649714 403.2 66.56774729216042 409.6 71.91826670159105 416 77.28709180466765 422.40000000000003 80.95071577694685 428.8 75.31319891068426 435.20000000000005 78.75161785590947 441.59999999999997 85.67953509751149 448 92.13468250398006 454.4 91.76297353214073 460.79999999999995 94.64687113229914 467.2 99.9933186747167 473.6 105.36603918352469 480 111.7829055307732 486.4 109.68044398687911 492.8 110.98548746843966 499.20000000000005 110.57112513900282 505.6 109.1031260989314 512 112.5112615286281 518.4000000000001 118.41450333738234 524.8 120.63378722471992 531.1999999999999 116.4749917868665 537.6 118.01212351992757 544 124.15256808102578 550.4 123.7379435985057 556.8 123.9024964793434 563.2 126.82416187394043 569.6 126.12068634571813 576 126.36052814733321 582.4 126.33009370061131 588.8000000000001 127.7435572565974 595.2 123.8079563954222 601.5999999999999 108.32969242524246 608 107.66074528653826 614.4 105.94472947267707 620.8 103.50500922005943 627.2 100.40835710390812 633.6 97.62577911750606 640 97.42276240320729 640 320 0 320"
      />
      
      <polygon
        fill="#0298c3"
        fillRule="evenodd"
        points="0 313.6957844840133 6.4 305.0750635781582 12.8 298.5224149970204 19.2 288.3920142444272 25.6 281.72964699941645 32 277.85565071044823 38.4 270.54538766196134 44.800000000000004 260.8000541363918 51.2 251.72750683111366 57.599999999999994 237.79089716194798 64 230.20543007185515 70.4 218.60514736859284 76.8 212.80504732826643 83.2 207.8410376442463 89.60000000000001 198.66400775581235 96 187.9961856560162 102.4 176.33182482926378 108.80000000000001 173.6036536596748 115.19999999999999 169.25186331120742 121.6 163.42150464365392 128 159.9935228492899 134.4 149.21619350743552 140.8 151.83078794521555 147.20000000000002 137.9480918662993 153.6 126.07788377986702 160 120.39018472521019 166.4 110.04930726774265 172.8 101.46182395495245 179.20000000000002 97.89516906547729 185.6 94.07392644057293 192 90.75089170796645 198.4 78.81123571686766 204.8 68.97420088830359 211.20000000000002 67.68997437622471 217.60000000000002 62.451709426028344 224 64.65292137717668 230.39999999999998 62.99314237064186 236.8 55.150380320430884 243.2 51.1363977622309 249.60000000000002 51.43296310783853 256 56.846285913432666 262.4 53.8652237804763 268.8 56.5786888551246 275.2 57.19852108990199 281.6 57.97967656508672 288 59.44526051967193 294.40000000000003 62.20421433762135 300.79999999999995 62.67802248382293 307.2 55.654456594277974 313.6 55.96744421564904 320 53.02083820255018 326.4 50.33973810558075 332.8 44.63174546561817 339.20000000000005 46.41604245549223 345.6 42.97047828367943 352 41.752946849877844 358.40000000000003 43.810618364940865 364.79999999999995 50.65189048337197 371.2 52.65444157401794 377.59999999999997 56.46033414854236 384 59.92155990862915 390.4 59.26183757255342 396.8 63.645726336234475 403.2 66.80434323255713 409.6 72.14787017577859 416 77.50968677311198 422.40000000000003 81.16651614805278 428.8 75.52283095581657 435.20000000000005 78.95485100034418 441.59999999999997 85.87676180121218 448 92.32588896739887 454.4 91.94852899336612 460.79999999999995 94.82676261379652 467.2 100.16771908697879 473.6 105.53528527456518 480 111.94698547387611 486.4 109.83967463733688 492.8 111.13985770852275 499.20000000000005 110.72078330100692 505.6 109.24865195909535 512 112.65234529069852 518.4000000000001 118.55141744738435 524.8 120.7665221164741 531.1999999999999 116.60380376411234 537.6 118.13700358161967 544 124.27363626165283 550.4 123.85543365809312 556.8 124.01640023885906 563.2 126.9346992630364 569.6 126.22784963746966 576 126.46442034000373 582.4 126.43111726525859 588.8000000000001 127.84149713810814 595.2 126.40220882001182 601.5999999999999 115.17756752663473 608 114.40687322862902 614.4 112.69045709430236 620.8 110.0448283728413 627.2 107.19462128273264 633.6 104.20489697824479 640 103.85292149138763 640 320 0 320"
      />
      
      <polygon
        fill="#fd2fdb"
        fillRule="evenodd"
        points="0 313.6957844840133 6.4 305.0750635781582 12.8 298.5224149970204 19.2 288.3920142444272 25.6 281.72964699941645 32 277.85565071044823 38.4 270.54538766196134 44.800000000000004 260.8000541363918 51.2 251.72750683111366 57.599999999999994 237.79089716194798 64 230.20543007185515 70.4 218.60514736859284 76.8 212.80504732826643 83.2 207.8410376442463 89.60000000000001 198.66400775581235 96 187.9961856560162 102.4 176.33182482926378 108.80000000000001 173.6036536596748 115.19999999999999 169.25186331120742 121.6 163.42150464365392 128 159.9935228492899 134.4 149.21619350743552 140.8 151.83078794521555 147.20000000000002 137.9480918662993 153.6 126.07788377986702 160 120.39018472521019 166.4 110.04930726774265 172.8 101.46182395495245 179.20000000000002 97.89516906547729 185.6 94.07392644057293 192 90.75089170796645 198.4 78.81123571686766 204.8 68.97420088830359 211.20000000000002 67.68997437622471 217.60000000000002 62.451709426028344 224 64.65292137717668 230.39999999999998 62.99314237064186 236.8 55.150380320430884 243.2 51.1363977622309 249.60000000000002 51.43296310783853 256 56.846285913432666 262.4 53.8652237804763 268.8 56.5786888551246 275.2 58.3281251579495 281.6 59.07480015599572 288 60.5080182625955 294.40000000000003 63.234532045861386 300.79999999999995 64.5586509670409 307.2 57.47767998585584 313.6 57.73501463688501 320 54.73616896082211 326.4 52.00270959795682 332.8 46.24556868145862 339.20000000000005 47.980604573474864 345.6 44.487283074341406 352 43.22787016686914 358.40000000000003 45.24052052855302 364.79999999999995 52.03953253344798 371.2 53.99972671849463 377.59999999999997 57.76586015487584 384 61.18723543059406 390.4 60.4888789842953 396.8 64.83650319377352 403.2 67.95877240980082 409.6 73.26818081860452 416 78.59580058475561 422.40000000000003 82.21947693124733 428.8 76.54569444216466 435.20000000000005 79.94649205917403 441.59999999999997 86.83909551795406 448 93.25884793696406 454.4 92.85391486335283 460.79999999999995 95.70451219193401 467.2 101.01867575888855 473.6 106.36109234753789 480 112.74758530423085 486.4 110.61661322654285 492.8 111.89308067012658 499.20000000000005 111.45101458210092 505.6 109.95872034369177 512 113.34073925050987 518.4000000000001 119.21946630118032 524.8 121.41417915335023 531.1999999999999 117.23231963616769 537.6 118.74633438307015 544 124.86436757420603 550.4 124.42870618957247 556.8 124.57217399831865 563.2 127.47404738880832 569.6 126.75073448134583 576 126.97134441925027 582.4 126.92404435931712 588.8000000000001 128.31937791620612 595.2 126.86596610507863 601.5999999999999 115.62716884914593 608 114.84318684010762 614.4 114.22073653209114 620.8 111.52839700896166 627.2 109.754069048698 633.6 106.68621875291021 640 106.27806348795286 640 320 0 320"
      />
      
      <polygon
        fill="#4F5D95"
        fillRule="evenodd"
        points="0 313.6957844840133 6.4 305.0750635781582 12.8 298.5224149970204 19.2 288.3920142444272 25.6 281.72964699941645 32 277.85565071044823 38.4 270.54538766196134 44.800000000000004 260.8000541363918 51.2 251.72750683111366 57.599999999999994 237.79089716194798 64 230.20543007185515 70.4 218.60514736859284 76.8 212.80504732826643 83.2 207.8410376442463 89.60000000000001 198.66400775581235 96 187.9961856560162 102.4 176.33182482926378 108.80000000000001 173.6036536596748 115.19999999999999 169.25186331120742 121.6 163.42150464365392 128 159.9935228492899 134.4 149.21619350743552 140.8 151.83078794521555 147.20000000000002 137.9480918662993 153.6 126.07788377986702 160 120.39018472521019 166.4 110.04930726774265 172.8 101.46182395495245 179.20000000000002 97.89516906547729 185.6 94.07392644057293 192 90.75089170796645 198.4 78.81123571686766 204.8 68.97420088830359 211.20000000000002 67.68997437622471 217.60000000000002 62.451709426028344 224 64.67254845870539 230.39999999999998 63.012170346289565 236.8 55.168827477937896 243.2 51.15429972354258 249.60000000000002 51.45031862349458 256 56.86312849588694 262.4 53.881552252194695 268.8 56.59451890936816 275.2 58.34351811896363 281.6 59.089723255248714 288 60.52250031781779 294.40000000000003 63.24857204494907 300.79999999999995 64.57227602204688 307.2 57.49088914324477 313.6 57.74782059265186 320 54.74859644318133 326.4 52.0147577386569 332.8 46.25726074553023 339.20000000000005 47.99193974404233 345.6 44.498272245649446 352 43.238555908930266 358.40000000000003 45.25088009471864 364.79999999999995 52.04958592741116 371.2 54.00947323897532 377.59999999999997 57.775318621867996 384 61.19640518391827 390.4 60.497768835933755 396.8 64.84513031044617 403.2 67.96713618886909 409.6 73.27629741057424 416 78.60366942192385 422.40000000000003 82.22710557716383 428.8 76.55310503467439 435.20000000000005 79.95367644698788 441.59999999999997 86.84606757460108 448 93.26560717601791 454.4 92.86047433653479 460.79999999999995 95.71087144107449 467.2 101.02484089586167 473.6 106.36707527715095 480 112.75338560838736 486.4 110.62224210589295 492.8 111.89853773113143 499.20000000000005 111.4563050692052 505.6 109.9638647520498 512 113.34572662843868 518.4000000000001 119.22430627990127 524.8 121.41887139470757 531.1999999999999 117.23687320070002 537.6 118.75074895255563 544 124.86864739146614 550.4 124.4328595191287 556.8 124.57620055020584 563.2 127.47795493783349 569.6 126.7545227546006 576 126.97501705784245 582.4 126.92761559034423 588.8000000000001 128.3228401374839 595.2 126.86932600214377 601.5999999999999 115.63042618741639 608 114.84634790942351 614.4 114.22380111143369 620.8 111.53136804380983 627.2 109.75695227619076 633.6 106.68901397165433 640 106.28079541968933 640 320 0 320"
      />
      
      <polygon
        fill="#755462"
        fillRule="evenodd"
        points="0 318.0212227616978 6.4 313.52736124881267 12.8 310.8961191926597 19.2 304.6063494194588 25.6 301.5123489990474 32 299.6347393633881 38.4 295.68731413253573 44.800000000000004 289.60722888878183 51.2 284.8540325446229 57.599999999999994 274.4471037002454 64 270.1967530575638 70.4 262.9523443927989 76.8 259.7806328306378 83.2 257.2939728503809 89.60000000000001 251.48855371627167 96 243.11574130779547 102.4 233.69072959839835 108.80000000000001 232.44222342663272 115.19999999999999 230.4870436104236 121.6 226.7432372049288 128 225.02604177119082 134.4 216.76218550652223 140.8 218.75152582092687 147.20000000000002 208.35855352895933 153.6 198.35244549929712 160 194.34753503307903 166.4 186.11860080025534 172.8 178.69890551071535 179.20000000000002 176.47494251933384 185.6 173.87220510930462 192 171.386859446075 198.4 162.6559425537879 204.8 154.12856599229679 211.20000000000002 153.54782255205603 217.60000000000002 149.77107151902803 224 151.9917615617987 230.39999999999998 150.2403711669586 236.8 143.4642049794001 243.2 140.6979526781941 249.60000000000002 142.92927339738407 256 147.05359800966517 262.4 144.44710539638632 268.8 147.14067459527462 275.2 149.5341979744728 281.6 150.79080656669925 288 152.38210786206685 294.40000000000003 155.03536565319237 300.79999999999995 154.49038684950528 307.2 148.8867465950432 313.6 148.96286286663442 320 145.90460788876675 326.4 141.78891349112078 332.8 137.45868842462568 339.20000000000005 139.37104559278836 345.6 135.06400109517875 352 134.18772826389193 358.40000000000003 137.09698196083974 364.79999999999995 142.4523866080148 371.2 144.39904361589845 377.59999999999997 146.97576048337422 384 149.82610267742712 390.4 149.06449394738613 396.8 151.71925404997518 403.2 154.19224962134052 409.6 158.30281273468694 416 162.42159917637196 422.40000000000003 164.48534734135046 428.8 158.22319629974015 435.20000000000005 161.34774592907172 441.59999999999997 165.8746397269308 448 170.07062930616084 454.4 168.5636020551643 460.79999999999995 169.21367512263632 467.2 173.4727035642466 473.6 177.15369021499998 480 181.49362521056858 486.4 177.5513850673534 492.8 179.1101521972422 499.20000000000005 179.84330912633783 505.6 178.85198557013592 512 181.19120375195985 518.4000000000001 185.21843482759942 524.8 189.19420509785402 531.1999999999999 186.26898300182833 537.6 186.9421600881995 544 190.98328205793857 550.4 193.06115529832383 556.8 195.3848043431932 563.2 199.0287236924038 569.6 200.4561673376088 576 202.5486160344748 582.4 204.6814403794412 588.8000000000001 208.14736466260806 595.2 207.1113027769698 601.5999999999999 197.53791488664862 608 198.09247495378108 614.4 198.37918786609364 620.8 197.54820386242415 627.2 197.6442484792998 633.6 195.98825874640994 640 196.13450150695746 640 320 0 320"
      />
      
      <polygon
        fill="#2415b9"
        fillRule="evenodd"
        points="0 318.0212227616978 6.4 313.52736124881267 12.8 310.8961191926597 19.2 304.6063494194588 25.6 301.5123489990474 32 299.6347393633881 38.4 295.68731413253573 44.800000000000004 289.60722888878183 51.2 284.8540325446229 57.599999999999994 274.4471037002454 64 270.1967530575638 70.4 262.9523443927989 76.8 259.7806328306378 83.2 257.2939728503809 89.60000000000001 251.48855371627167 96 243.11574130779547 102.4 233.69072959839835 108.80000000000001 232.44222342663272 115.19999999999999 230.4870436104236 121.6 226.7432372049288 128 225.02604177119082 134.4 216.76218550652223 140.8 218.75152582092687 147.20000000000002 208.35855352895933 153.6 198.35244549929712 160 194.34753503307903 166.4 186.11860080025534 172.8 178.69890551071535 179.20000000000002 176.47494251933384 185.6 173.87220510930462 192 171.386859446075 198.4 162.6559425537879 204.8 154.12856599229679 211.20000000000002 153.54782255205603 217.60000000000002 149.77107151902803 224 151.9917615617987 230.39999999999998 150.2403711669586 236.8 143.4642049794001 243.2 140.6979526781941 249.60000000000002 142.92927339738407 256 147.05359800966517 262.4 144.44710539638632 268.8 147.14067459527462 275.2 149.5341979744728 281.6 150.79080656669925 288 152.38210786206685 294.40000000000003 155.03536565319237 300.79999999999995 154.49038684950528 307.2 148.8867465950432 313.6 148.96286286663442 320 145.90460788876675 326.4 142.1485442994582 332.8 137.8183192329631 339.20000000000005 139.73067640112578 345.6 135.4236319035162 352 134.5473590722293 358.40000000000003 137.45661276917713 364.79999999999995 142.81201741635218 371.2 144.7586744242359 377.59999999999997 147.3353912917116 384 150.1857334857645 390.4 149.4241247557235 396.8 152.07888485831256 403.2 154.5518804296779 409.6 158.66244354302432 416 162.78122998470934 422.40000000000003 164.84497814968785 428.8 158.58282710807754 435.20000000000005 161.7073767374091 441.59999999999997 166.2342705352682 448 170.43026011449825 454.4 168.9232328635017 460.79999999999995 169.5733059309737 467.2 173.832334372584 473.6 177.51332102333737 480 181.85325601890597 486.4 177.91101587569082 492.8 179.46978300557961 499.20000000000005 180.20293993467521 505.6 179.2116163784733 512 181.55083456029726 518.4000000000001 185.5780656359368 524.8 189.5538359061914 531.1999999999999 186.62861381016572 537.6 187.3017908965369 544 191.34291286627595 550.4 193.4207861066612 556.8 195.74443515153058 563.2 199.38835450074117 569.6 200.8157981459462 576 202.90824684281222 582.4 205.04107118777858 588.8000000000001 208.50699547094544 595.2 207.4709335853072 601.5999999999999 197.897545694986 608 198.4521057621185 614.4 198.73881867443106 620.8 197.90783467076156 627.2 198.00387928763718 633.6 196.34788955474735 640 196.13450150695746 640 320 0 320"
      />
      
      <polygon
        fill="#f1e05a"
        fillRule="evenodd"
        points="0 318.0212227616978 6.4 313.52736124881267 12.8 310.8961191926597 19.2 304.6063494194588 25.6 301.5123489990474 32 299.6347393633881 38.4 295.68731413253573 44.800000000000004 289.60722888878183 51.2 284.8540325446229 57.599999999999994 275.5586089882325 64 271.27433026133406 70.4 264.3815055114425 76.8 261.6232871775418 83.2 259.0916314235656 89.60000000000001 253.23308320812743 96 246.00808821585952 102.4 237.6110398659277 108.80000000000001 236.28990830745153 115.19999999999999 234.21728026185556 121.6 230.5136569478512 128 228.68137143531249 134.4 222.60334608613562 140.8 224.41438761086619 147.20000000000002 213.85405290210605 153.6 203.68019713692806 160 199.51266161917977 166.4 191.13107438338284 172.8 184.674557120971 179.20000000000002 182.2739877624994 185.6 179.49423749981506 192 176.83728341296631 198.4 169.2789584922672 204.8 161.91426679285595 211.20000000000002 161.10342025875843 217.60000000000002 157.6518843932265 224 159.74981127426975 230.39999999999998 157.7616097462324 236.8 151.88563749005647 243.2 148.87049395404946 249.60000000000002 150.85235522176134 256 154.74251599460118 262.4 153.00428312444112 268.8 155.44768902298355 275.2 157.61184542121373 281.6 159.3991381809319 288 161.38424754162816 294.40000000000003 163.7627186247192 300.79999999999995 164.0800122249504 307.2 158.18365509786673 313.6 157.97598669859894 320 154.65135523602893 326.4 150.6283007070941 332.8 146.0474612604678 339.20000000000005 147.70862761168934 345.6 144.26948425390677 352 143.14896148027972 358.40000000000003 145.79565797170974 364.79999999999995 150.90460505713975 371.2 152.60424039666754 377.59999999999997 154.9490883830175 384 157.5670243047653 390.4 156.58010790081755 396.8 159.02337529012294 403.2 161.28439521540486 409.6 165.19598220612102 416 169.11533548579422 422.40000000000003 170.98573852458773 428.8 165.66894734482733 435.20000000000005 168.5771985657593 441.59999999999997 172.90105919446341 448 176.89354859824599 454.4 175.1955024158844 460.79999999999995 175.65411728864694 467.2 179.72753204994154 473.6 183.23429041801293 480 187.39959609117233 486.4 183.2934355062554 492.8 184.68790787014674 499.20000000000005 185.26178503349138 505.6 184.13077809703637 512 186.3198416824884 518.4000000000001 190.20612779299927 524.8 194.04062871113604 531.1999999999999 190.9828027214469 537.6 191.52306878944432 544 195.43533956162912 550.4 197.39226330982922 556.8 199.5946850220261 563.2 203.1248127651574 569.6 204.43820206828968 576 206.42008073185747 582.4 208.45593628069696 588.8000000000001 211.817624656617 595.2 210.6837185307127 601.5999999999999 201.01226260701102 608 201.4747685926433 614.4 201.66921667980202 620.8 200.7487835547047 627.2 200.76086557776438 633.6 199.02072089995204 640 198.74681654302327 640 320 0 320"
      />
      
      <polygon
        fill="#22e8e8"
        fillRule="evenodd"
        points="0 319.92567421717666 6.4 319.8564689091782 12.8 319.8272328150909 19.2 318.6603021825133 25.6 318.54752916391 32 318.4075970256911 38.4 318.2695436643704 44.800000000000004 316.0115334778153 51.2 316.01949659785134 57.599999999999994 310.27119493293685 64 309.3798653974967 70.4 306.9369273169849 76.8 307.022261491328 83.2 306.27909804049364 89.60000000000001 304.58410666496974 96 300.15629132948544 102.4 294.75363697901327 108.80000000000001 293.4787693552382 115.19999999999999 293.78094485719953 121.6 290.8838532268543 128 291.2549126501733 134.4 286.97852462394127 140.8 287.2959012372382 147.20000000000002 280.08961188660703 153.6 272.3565056840694 160 270.6873284743908 166.4 264.64101314018205 172.8 259.71600525292354 179.20000000000002 258.48210392461334 185.6 256.49758780062336 192 254.7095397648318 198.4 249.75799773084964 204.8 243.84328196475866 211.20000000000002 243.32677372446994 217.60000000000002 241.83022586862435 224 242.76850779543474 230.39999999999998 241.70742421612528 236.8 237.217818450924 243.2 234.0443243324231 249.60000000000002 235.73025568312005 256 237.40437655256787 262.4 235.5604738757523 268.8 237.00503808466868 275.2 238.39932048129185 281.6 240.81753925599122 288 242.54143951294267 294.40000000000003 244.59166425458162 300.79999999999995 243.760327878481 307.2 239.79401065815102 313.6 239.82803779496766 320 237.4352539400134 326.4 235.72251909966778 332.8 231.99171741686007 339.20000000000005 232.20066990361693 345.6 229.58694501203078 352 229.00002393651607 358.40000000000003 230.6153239300327 364.79999999999995 233.247288135124 371.2 234.38579666198592 377.59999999999997 235.44972704794873 384 235.98076135199545 390.4 235.02385870779494 396.8 236.27270484370126 403.2 237.10991454576094 409.6 239.17604165826145 416 241.04009973070345 422.40000000000003 242.01069107428788 428.8 236.8472824342834 435.20000000000005 238.18582737815024 441.59999999999997 240.60229251082683 448 242.6984753776778 454.4 240.20792105814905 460.79999999999995 240.05518924465295 467.2 242.4938559284031 473.6 244.47755316276732 480 246.78127516729842 486.4 243.4887936714772 492.8 244.04372949115336 499.20000000000005 246.2049204559393 505.6 246.89555042543913 512 247.9972548491341 518.4000000000001 250.1182099080766 524.8 252.2328083383543 531.1999999999999 249.58174020564365 537.6 249.44270683238875 544 251.5948447594606 550.4 252.5119936394297 556.8 253.35341824538858 563.2 255.30235207591988 569.6 256.1532397192648 576 257.9440167363816 582.4 258.99692730484014 588.8000000000001 260.8264415023698 595.2 259.2205754264188 601.5999999999999 252.1186549128563 608 252.09480235839266 614.4 251.32924785570918 620.8 250.03617864472835 627.2 248.8402320121181 633.6 247.38029316486353 640 246.1391699690441 640 320 0 320"
      />
      
      <polygon
        fill="#22e4e8"
        fillRule="evenodd"
        points="0 319.92567421717666 6.4 319.8564689091782 12.8 319.8272328150909 19.2 318.6603021825133 25.6 318.54752916391 32 318.4075970256911 38.4 318.2695436643704 44.800000000000004 316.0115334778153 51.2 316.01949659785134 57.599999999999994 310.27119493293685 64 309.3798653974967 70.4 306.9369273169849 76.8 307.022261491328 83.2 306.27909804049364 89.60000000000001 304.58410666496974 96 300.15629132948544 102.4 294.75363697901327 108.80000000000001 293.4787693552382 115.19999999999999 293.78094485719953 121.6 290.8838532268543 128 291.2549126501733 134.4 286.97852462394127 140.8 287.2959012372382 147.20000000000002 280.08961188660703 153.6 272.3565056840694 160 270.6873284743908 166.4 264.64101314018205 172.8 259.71600525292354 179.20000000000002 258.48210392461334 185.6 256.49758780062336 192 254.7095397648318 198.4 249.75799773084964 204.8 243.84328196475866 211.20000000000002 243.32677372446994 217.60000000000002 241.83022586862435 224 242.76850779543474 230.39999999999998 241.70742421612528 236.8 237.217818450924 243.2 234.0443243324231 249.60000000000002 235.73025568312005 256 237.40437655256787 262.4 235.5604738757523 268.8 237.00503808466868 275.2 238.39932048129185 281.6 240.81753925599122 288 242.54143951294267 294.40000000000003 244.59166425458162 300.79999999999995 243.760327878481 307.2 239.79401065815102 313.6 239.82803779496766 320 237.4352539400134 326.4 235.77389492943024 332.8 232.04309324662256 339.20000000000005 232.25204573337942 345.6 229.63832084179327 352 229.05139976627856 358.40000000000003 230.6666997597952 364.79999999999995 233.2986639648865 371.2 234.4371724917484 377.59999999999997 235.5011028777112 384 236.03213718175795 390.4 235.07523453755744 396.8 236.32408067346375 403.2 237.16129037552346 409.6 239.22741748802395 416 241.09147556046594 422.40000000000003 242.06206690405037 428.8 236.89865826404588 435.20000000000005 238.23720320791273 441.59999999999997 240.65366834058932 448 242.7498512074403 454.4 240.25929688791155 460.79999999999995 240.1065650744154 467.2 242.54523175816558 473.6 244.5289289925298 480 246.8326509970609 486.4 243.5401695012397 492.8 244.09510532091582 499.20000000000005 246.25629628570178 505.6 246.94692625520162 512 248.0486306788966 518.4000000000001 250.1695857378391 524.8 252.28418416811678 531.1999999999999 249.63311603540615 537.6 249.49408266215124 544 251.6462205892231 550.4 252.5633694691922 556.8 253.40479407515107 563.2 255.35372790568238 569.6 256.2046155490272 576 257.9953925661441 582.4 259.04830313460263 588.8000000000001 260.8778173321323 595.2 259.27195125618124 601.5999999999999 252.1700307426188 608 252.14617818815515 614.4 251.38062368547168 620.8 250.08755447449082 627.2 248.89160784188059 633.6 247.431668994626 640 246.1391699690441 640 320 0 320"
      />
      
      <polygon
        fill="#e34c26"
        fillRule="evenodd"
        points="0 319.92567421717666 6.4 319.8564689091782 12.8 319.8272328150909 19.2 318.6603021825133 25.6 318.63876158148963 32 318.51260204965973 38.4 318.37134347053967 44.800000000000004 316.1105224229443 51.2 316.20707291706526 57.599999999999994 311.64861802221816 64 310.7510412886306 70.4 308.2675787756154 76.8 308.3122954244516 83.2 307.5297546606408 89.60000000000001 305.79780043063596 96 302.0857584984889 102.4 297.72659842081924 108.80000000000001 296.36098268913656 115.19999999999999 296.575180576186 121.6 294.70439831184274 128 294.97527969645296 134.4 291.71972766082325 140.8 292.19420909549405 147.20000000000002 288.11677703201667 153.6 282.4760265052677 160 280.5090698487028 166.4 276.09417960336947 172.8 271.33206340819754 179.20000000000002 270.33207982910403 185.6 269.08197194391937 192 268.32409663377626 198.4 264.11123319756933 204.8 258.7341182241794 211.20000000000002 258.8780000372406 217.60000000000002 257.33903013124353 224 258.037250273356 230.39999999999998 256.52379737540485 236.8 252.72247051898177 243.2 250.19331356206325 249.60000000000002 252.190028609676 256 254.1886433299701 262.4 252.86777742563447 268.8 253.8009548452278 275.2 254.9077031629359 281.6 256.83302736447695 288 258.5828724154585 294.40000000000003 260.45207339341266 300.79999999999995 259.9720634365267 307.2 257.864352141732 313.6 257.5420190555339 320 255.7256226897182 326.4 254.32297900010315 332.8 252.44397183532084 339.20000000000005 252.30165852634224 345.6 249.89596053456393 352 249.60727204075408 358.40000000000003 250.63982935499058 364.79999999999995 252.6897362343708 371.2 254.04373862413826 377.59999999999997 254.88130813168414 384 255.7653272667302 390.4 254.206080009162 396.8 254.90081932578119 403.2 255.1709816645532 409.6 256.7048438780318 416 258.1050747942785 422.40000000000003 258.55633253519227 428.8 255.16940761188096 435.20000000000005 257.12068844444326 441.59999999999997 258.97906204847635 448 260.5158823486555 454.4 258.6005215439816 460.79999999999995 258.02056785299595 467.2 259.9124241128019 473.6 261.38284495482446 480 263.1721089229293 486.4 261.8204131024148 492.8 263.55758177363725 499.20000000000005 265.2078360013689 505.6 265.57692520271723 512 267.2214964416639 518.4000000000001 268.7757987036913 524.8 270.3394036899655 531.1999999999999 268.43860248719125 537.6 268.9635934934837 544 270.521441509778 550.4 271.9837639797551 556.8 273.4494357428261 563.2 274.82520232122835 569.6 276.20413074287205 576 277.54098278122206 582.4 278.7133411263618 588.8000000000001 279.9736008549571 595.2 278.92972984319493 601.5999999999999 275.72389229712076 608 277.0324575023148 614.4 278.28626903407644 620.8 278.41584381498217 627.2 279.6448548424599 633.6 279.5824783070019 640 280.49756477826634 640 320 0 320"
      />
      
      <polygon
        fill="#00ADD8"
        fillRule="evenodd"
        points="0 319.92567421717666 6.4 319.8564689091782 12.8 319.8272328150909 19.2 318.6603021825133 25.6 318.63876158148963 32 318.5153618218556 38.4 318.3740190023012 44.800000000000004 316.61217852735865 51.2 316.6934162499156 57.599999999999994 313.1394391787228 64 312.1963559956681 70.4 310.8820261141197 76.8 310.86396067697285 83.2 310.00353189470565 89.60000000000001 308.66169992525056 96 305.8714397398972 102.4 303.7931529857334 108.80000000000001 303.0244370569802 115.19999999999999 303.31528357196896 121.6 302.49018285500443 128 302.91323276851324 134.4 300.97567935216017 140.8 301.55638031486484 147.20000000000002 299.6311464936835 153.6 295.8211757155539 160 294.0784314002052 166.4 290.7161240174627 172.8 287.7123661462437 179.20000000000002 287.34680830365477 185.6 286.115814282175 192 284.93729628330175 198.4 282.37651923966746 204.8 277.9438338146021 211.20000000000002 278.07963934722466 217.60000000000002 276.0327813459114 224 276.21166788535317 230.39999999999998 274.1490012021415 236.8 270.304719014454 243.2 268.08693246642724 249.60000000000002 269.6660370267824 256 271.1481582002751 262.4 270.41251642779713 268.8 270.8101624731123 275.2 272.1628653831921 281.6 273.5614835504916 288 274.9228461546577 294.40000000000003 276.29327824707855 300.79999999999995 276.46432746534106 307.2 274.6332267205373 313.6 273.79902904979946 320 272.0443432756613 326.4 270.14358009100107 332.8 268.2494550745529 339.20000000000005 268.72856941714895 345.6 266.93231720592814 352 266.1732233946802 358.40000000000003 266.7001212970956 364.79999999999995 268.2753679128168 371.2 269.77295855415423 377.59999999999997 270.1456590036772 384 271.63097776771366 390.4 270.8758588324883 396.8 271.21136704472565 403.2 272.69783468534234 409.6 274.095800636483 416 275.46911164545077 422.40000000000003 275.70896092944173 428.8 272.9524544279135 435.20000000000005 274.3609116009211 441.59999999999997 275.70975719315203 448 277.06168101959895 454.4 276.49360613971606 460.79999999999995 276.6994704253459 467.2 278.0211628640307 473.6 279.09845174664434 480 280.3469563360344 486.4 279.26735513007486 492.8 280.4774951268447 499.20000000000005 281.61128355072304 505.6 281.5274454919185 512 282.6851300472393 518.4000000000001 283.78241553306475 524.8 284.8879515661434 531.1999999999999 282.61005588297894 537.6 282.84176591003904 544 283.97598835692725 550.4 285.0406670421257 556.8 286.10778566823114 563.2 287.1094441404756 569.6 288.11340463007457 576 289.0867274621248 582.4 289.94029056345556 588.8000000000001 290.8578570672696 595.2 291.71914516166544 601.5999999999999 290.3472084458686 608 291.2235919509679 614.4 292.1019797443231 620.8 292.9283731244302 627.2 293.7284720096193 633.6 293.5546027309605 640 294.1533456130122 640 320 0 320"
      />
      
      <polygon
        fill="#244776"
        fillRule="evenodd"
        points="0 319.92567421717666 6.4 319.8564689091782 12.8 319.8272328150909 19.2 318.6603021825133 25.6 318.63876158148963 32 318.5153618218556 38.4 318.3740190023012 44.800000000000004 316.61217852735865 51.2 316.6934162499156 57.599999999999994 313.1394391787228 64 312.1963559956681 70.4 310.8820261141197 76.8 310.86396067697285 83.2 310.00353189470565 89.60000000000001 308.66169992525056 96 305.8714397398972 102.4 303.7931529857334 108.80000000000001 303.0244370569802 115.19999999999999 303.31528357196896 121.6 302.49018285500443 128 302.91323276851324 134.4 300.97567935216017 140.8 301.55638031486484 147.20000000000002 299.6311464936835 153.6 295.8211757155539 160 294.0784314002052 166.4 290.7161240174627 172.8 287.7123661462437 179.20000000000002 287.34680830365477 185.6 286.115814282175 192 284.93729628330175 198.4 282.37651923966746 204.8 277.9438338146021 211.20000000000002 278.07963934722466 217.60000000000002 276.0327813459114 224 276.21166788535317 230.39999999999998 274.1490012021415 236.8 270.304719014454 243.2 268.08693246642724 249.60000000000002 269.6660370267824 256 271.1481582002751 262.4 270.41251642779713 268.8 270.8101624731123 275.2 272.1628653831921 281.6 273.5614835504916 288 274.9228461546577 294.40000000000003 276.29327824707855 300.79999999999995 276.46432746534106 307.2 274.6332267205373 313.6 273.79902904979946 320 272.0443432756613 326.4 270.14358009100107 332.8 268.2494550745529 339.20000000000005 268.72856941714895 345.6 266.93231720592814 352 266.1732233946802 358.40000000000003 266.7001212970956 364.79999999999995 268.2753679128168 371.2 269.77295855415423 377.59999999999997 270.1456590036772 384 271.63097776771366 390.4 270.8758588324883 396.8 271.21136704472565 403.2 272.69783468534234 409.6 274.095800636483 416 275.46911164545077 422.40000000000003 275.70896092944173 428.8 272.9524544279135 435.20000000000005 274.3609116009211 441.59999999999997 275.70975719315203 448 277.06168101959895 454.4 276.49360613971606 460.79999999999995 276.6994704253459 467.2 278.0211628640307 473.6 279.09845174664434 480 280.3469563360344 486.4 279.26735513007486 492.8 280.4774951268447 499.20000000000005 281.61128355072304 505.6 281.5274454919185 512 282.6851300472393 518.4000000000001 283.78241553306475 524.8 284.8879515661434 531.1999999999999 282.61005588297894 537.6 282.84176591003904 544 283.97598835692725 550.4 285.0406670421257 556.8 286.10778566823114 563.2 287.1094441404756 569.6 288.11340463007457 576 289.0867274621248 582.4 289.94029056345556 588.8000000000001 290.8578570672696 595.2 291.71914516166544 601.5999999999999 290.402769689804 608 291.2775111103573 614.4 292.15425305434565 620.8 292.9790508183172 627.2 293.77765195421637 633.6 293.6022814840871 640 294.19994486542396 640 320 0 320"
      />
      
      <polygon
        fill="#563d7c"
        fillRule="evenodd"
        points="0 319.92567421717666 6.4 319.8564689091782 12.8 319.8272328150909 19.2 318.6603021825133 25.6 318.63876158148963 32 318.5153618218556 38.4 318.3740190023012 44.800000000000004 316.61217852735865 51.2 316.6934162499156 57.599999999999994 314.249599961245 64 313.2726297946373 70.4 311.9264911846014 76.8 311.8765440652888 83.2 310.9852067618232 89.60000000000001 309.61436193653634 96 306.7950222095241 102.4 305.79141763112347 108.80000000000001 304.96170585123645 115.19999999999999 305.19341816965857 121.6 304.314633717907 128 304.6819934649732 134.4 303.8118253152821 140.8 304.3059546140322 147.20000000000002 302.299458615399 153.6 298.4080391655554 160 296.5863324603983 166.4 293.1499053735607 172.8 290.0718576414986 179.20000000000002 289.6365663576564 185.6 288.3356788078379 192 287.0894005078292 198.4 284.4692004327135 204.8 279.9726369724646 211.20000000000002 280.04848239068133 217.60000000000002 277.94152658773845 224 278.06400133583276 230.39999999999998 275.944792983176 236.8 273.17508251321766 243.2 271.62229134792074 249.60000000000002 273.0934809778598 256 274.4743057635814 262.4 273.6371350763268 268.8 273.93635160792326 275.2 275.20273531487595 281.6 276.50856308228316 288 277.78282659822634 294.40000000000003 279.0659593394399 300.79999999999995 279.1550634927213 307.2 277.2418296473995 313.6 276.3280052973744 320 274.4985772468361 326.4 272.52290008775276 332.8 270.55845543183375 339.20000000000005 270.9670888148536 345.6 269.10250726380696 352 268.28349094526055 358.40000000000003 268.7459740378231 364.79999999999995 270.26075664500013 371.2 271.69774425479807 377.59999999999997 272.01355881681656 384 273.4418610959892 390.4 272.63146587800577 396.8 272.9150882012428 403.2 274.3495506581824 409.6 275.6987009399093 416 277.0230843829061 422.40000000000003 277.21549959629726 428.8 275.39025974450186 435.20000000000005 276.7243044739365 441.59999999999997 278.0033012348005 448 279.28521562903677 454.4 278.651425514298 460.79999999999995 278.7914235201325 467.2 280.0492603234956 473.6 281.0666100530419 480 282.2550378021409 486.4 281.1190441221459 492.8 282.27266238329264 499.20000000000005 283.35165427191123 505.6 283.21976193348996 512 284.32578942775615 518.4000000000001 285.3745860971968 524.8 286.4315220338434 531.1999999999999 284.1080068743864 537.6 284.29399292671616 544 285.3838869719137 550.4 286.4069558588292 556.8 287.43236933311175 563.2 288.3948803478421 569.6 289.3596036777282 576 290.2948871261607 582.4 291.1150908737101 588.8000000000001 291.9967972538532 595.2 292.8244245724744 601.5999999999999 291.4743110555905 608 292.31738369541654 614.4 293.16238416187855 620.8 293.95640929372144 627.2 294.7261251913499 633.6 294.52180300262626 640 295.0986473564685 640 320 0 320"
      />
      
      <polygon
        fill="#178600"
        fillRule="evenodd"
        points="0 320 6.4 320 12.8 320 19.2 320 25.6 320 32 320 38.4 320 44.800000000000004 320 51.2 320 57.599999999999994 318.7303278494862 64 318.7690839362043 70.4 318.8054630482323 76.8 318.84192555350717 83.2 318.87727505280606 89.60000000000001 318.91045664621646 96 318.9437142450294 102.4 318.97493231587725 108.80000000000001 319.00622190188017 115.19999999999999 319.0365563803823 121.6 319.0640949965039 128 319.09266299930096 134.4 319.1194788191488 140.8 319.1463562488917 147.20000000000002 319.1715852543112 153.6 319.1856772642339 160 319.2105339901157 166.4 319.2338662512762 172.8 319.2572520049506 179.20000000000002 319.27920355096137 185.6 318.1941396968755 192 318.2492625405804 198.4 318.2976032096225 204.8 316.1388722223172 211.20000000000002 316.2474830897233 217.60000000000002 316.362026385843 224 316.46954460237686 230.39999999999998 316.57730995720215 236.8 316.24155819270624 243.2 315.63817592115447 249.60000000000002 315.7713180280105 256 315.89629456323576 262.4 316.02155757008774 268.8 316.1429972904405 275.2 316.24949560427706 281.6 316.3639774754547 288 316.47143835656254 294.40000000000003 316.5791455436734 300.79999999999995 316.68024698072094 307.2 315.9758093459658 313.6 316.09864546137146 320 314.31084108059014 326.4 314.48449950256844 332.8 313.5209073862524 339.20000000000005 313.71867792366146 345.6 313.9104119038251 352 312.97611952597424 358.40000000000003 313.1905190117797 364.79999999999995 313.39176961431974 371.2 313.59348191089146 377.59999999999997 313.78282356526705 384 313.9725994687061 390.4 314.156582408259 396.8 314.329281232489 403.2 314.50237664729923 409.6 314.66485623330504 416 314.8277082016001 422.40000000000003 314.98558960974145 428.8 313.21289901166034 435.20000000000005 313.4200714286676 441.59999999999997 313.6145377809613 448 313.8094505892157 454.4 313.1987220569407 460.79999999999995 313.4063275721929 467.2 313.6075957760922 473.6 313.7965194983678 480 313.9858774491566 486.4 314.1636212771176 492.8 314.3417738511802 499.20000000000005 314.5144878826558 505.6 314.6659517406734 512 314.8287703763301 518.4000000000001 314.9816034002109 524.8 315.13478711550556 531.1999999999999 315.27857563005995 537.6 315.42269449119976 544 315.5624141427886 550.4 315.6935647169797 556.8 315.82501614802993 563.2 315.94840573524965 569.6 316.07207796145923 576 316.1919756157313 582.4 316.29712131699705 588.8000000000001 316.41014972485004 595.2 316.51624564263756 601.5999999999999 316.6225855236903 608 316.7224030068259 614.4 316.82244983166555 620.8 316.91944264085527 627.2 317.01048690987113 633.6 317.1017401449369 640 317.1673600570782 640 320 0 320"
      />
      
      <polygon
        fill="#555555"
        fillRule="evenodd"
        points="0 320 6.4 320 12.8 320 19.2 320 25.6 320 32 320 38.4 320 44.800000000000004 320 51.2 320 57.599999999999994 318.7303278494862 64 318.7690839362043 70.4 318.8054630482323 76.8 318.84192555350717 83.2 318.87727505280606 89.60000000000001 318.91045664621646 96 318.9437142450294 102.4 318.97493231587725 108.80000000000001 319.00622190188017 115.19999999999999 319.0365563803823 121.6 319.0640949965039 128 319.09266299930096 134.4 319.1194788191488 140.8 319.1463562488917 147.20000000000002 319.1715852543112 153.6 319.1856772642339 160 319.2105339901157 166.4 319.2338662512762 172.8 319.2572520049506 179.20000000000002 319.27920355096137 185.6 318.1941396968755 192 318.2492625405804 198.4 318.2976032096225 204.8 317.2428475604394 211.20000000000002 317.3188309741348 217.60000000000002 317.40067201333585 224 317.4774936853449 230.39999999999998 317.55449190525536 236.8 317.1889121560126 243.2 316.55753139301186 249.60000000000002 316.66261068588005 256 316.7612454974145 262.4 316.8601064653516 268.8 316.95594992530334 275.2 317.04000129655304 281.6 317.13035339956485 288 317.2151644652093 294.40000000000003 317.30016983424184 300.79999999999995 317.3799618409493 307.2 317.45993715661734 313.6 317.537471092855 320 316.5057075660138 326.4 316.61236892618376 332.8 315.585888684172 339.20000000000005 315.7206269353071 345.6 315.85125255126974 352 314.86337025089693 358.40000000000003 315.02016263529964 364.79999999999995 315.16733914949805 371.2 315.3148532337235 377.59999999999997 315.4533205891868 384 315.5921054678283 390.4 315.72665386472204 396.8 315.8529501422622 403.2 315.9795364569118 409.6 316.0983593288252 416 316.2174544001599 422.40000000000003 316.33291468291475 428.8 315.58525193213796 435.20000000000005 315.72000980884 441.59999999999997 315.84650244480156 448 315.97328586795953 454.4 316.0922930455247 460.79999999999995 316.2115736452558 467.2 316.3272133426833 473.6 316.43576029855717 480 316.54455714646696 486.4 316.64668047959395 492.8 316.7490389085179 499.20000000000005 316.8482727622274 505.6 316.93529694449046 512 317.0288450351201 518.4000000000001 317.11665619234356 524.8 317.2046684345646 531.1999999999999 317.28728292660753 537.6 317.37008709821396 544 317.45036378449936 550.4 317.52571691951533 556.8 317.6012429855743 563.2 317.672136955446 569.6 317.74319355036926 576 317.8120812735384 582.4 317.87249321781667 588.8000000000001 317.9374342600187 595.2 317.9983920930385 601.5999999999999 318.05949021289905 608 318.1168408461596 614.4 318.1743233097993 620.8 318.23005094977214 627.2 318.2823609256969 633.6 318.33479078198275 640 318.3724931709828 640 320 0 320"
      />
      
      <polygon
        fill="#C1F12E"
        fillRule="evenodd"
        points="0 320 6.4 320 12.8 320 19.2 320 25.6 320 32 320 38.4 320 44.800000000000004 320 51.2 320 57.599999999999994 319.00777397597244 64 319.0380611578857 70.4 319.066490795298 76.8 319.09498557726255 83.2 319.12261056642916 89.60000000000001 319.1485413862335 96 319.17453159649705 102.4 319.1989279743939 108.80000000000001 319.22338021836805 115.19999999999999 319.2470860845625 121.6 319.2686070086434 128 319.2909324062922 134.4 319.31188847367514 140.8 319.3328927110361 147.20000000000002 319.35260872001606 153.6 319.36117509504516 160 319.3806748528825 166.4 319.39897869442984 172.8 319.4173244894797 179.20000000000002 319.4345451846833 185.6 319.44084443682146 192 319.4579123300322 198.4 319.47288028757714 204.8 319.48621046587067 211.20000000000002 319.50139520886694 217.60000000000002 319.5166148463268 224 319.53090103633565 230.39999999999998 319.5452200246742 236.8 319.309107058178 243.2 318.61506514789744 249.60000000000002 318.65733944116255 256 318.69702100180285 262.4 318.7367937031651 268.8 318.7753522909185 275.2 318.80916683455155 281.6 318.84551636437675 288 318.87963654282106 294.40000000000003 318.9138349152783 300.79999999999995 318.9459359722371 307.2 318.97811070213584 313.6 319.00930322892117 320 319.0385827253094 326.4 319.0679295240347 332.8 319.0954764219401 339.20000000000005 319.1230864093644 345.6 319.1498538331806 352 319.1733276553024 358.40000000000003 319.19856133592236 364.79999999999995 319.2222474121473 371.2 319.2459878748255 377.59999999999997 319.26827228483734 384 319.2906078857259 390.4 319.31226169852806 396.8 319.3325874153053 403.2 319.3529597505105 409.6 319.3720826871869 416 319.391249509097 422.40000000000003 319.4098313144337 428.8 318.5742196164581 435.20000000000005 318.61774069835985 441.59999999999997 318.6585928059054 448 318.69953852021285 454.4 318.7379728812098 460.79999999999995 318.77649550588234 467.2 318.8138423433149 473.6 318.84889853800166 480 318.8840352899895 486.4 318.9170169286705 492.8 318.95007450082784 499.20000000000005 318.982122948937 505.6 319.01022809660856 512 319.04044026981035 518.4000000000001 319.06879972783923 524.8 319.09722391941364 531.1999999999999 319.1239049290842 537.6 319.1506472814955 544 319.1765733747235 550.4 319.2009092832687 556.8 319.225300985965 563.2 319.24819688137785 569.6 319.27114525206315 576 319.29339307220897 582.4 319.3129035881451 588.8000000000001 319.33387688698133 595.2 319.3535636939397 601.5999999999999 319.37329594795705 608 319.3918177565997 614.4 319.41038220718104 620.8 319.4283799515346 627.2 319.44527389646095 633.6 319.46220654793734 640 319.4743828559199 640 320 0 320"
      />
      

      
        <g id="labels">
        
          
          <text x="0" y="330">
            Jul 2014
          </text>
          
        
          
        
          
        
          
        
          
        
          
        
          
        
          
        
          
        
          
        
          
        
          
        
          
        
          
          <text x="82.37623762376238" y="330">
            Aug 2015
          </text>
          
        
          
        
          
        
          
        
          
        
          
        
          
        
          
        
          
        
          
        
          
        
          
        
          
        
          
          <text x="164.75247524752476" y="330">
            Sep 2016
          </text>
          
        
          
        
          
        
          
        
          
        
          
        
          
        
          
        
          
        
          
        
          
        
          
        
          
        
          
          <text x="247.12871287128712" y="330">
            Oct 2017
          </text>
          
        
          
        
          
        
          
        
          
        
          
        
          
        
          
        
          
        
          
        
          
        
          
        
          
        
          
          <text x="329.5049504950495" y="330">
            Nov 2018
          </text>
          
        
          
        
          
        
          
        
          
        
          
        
          
        
          
        
          
        
          
        
          
        
          
        
          
        
          
          <text x="411.8811881188119" y="330">
            Dec 2019
          </text>
          
        
          
        
          
        
          
        
          
        
          
        
          
        
          
        
          
        
          
        
          
        
          
        
          
        
          
          <text x="494.25742574257424" y="330">
            Jan 2021
          </text>
          
        
          
        
          
        
          
        
          
        
          
        
          
        
          
        
          
        
          
        
          
        
          
        
          
        
          
          <text x="576.6336633663366" y="330">
            Feb 2022
          </text>
          
        
          
        
          
        
          
        
          
        
          
        
          
        
          
        
          
        
          
        
        </g>
      

      
        <text text-anchor="middle" y="370" x="320" id="legend">
          
          <tspan xml:space="preserve" fill="#C1F12E">   </tspan> Batchfile
          
          <tspan xml:space="preserve" fill="#555555">   </tspan> C
          
          <tspan xml:space="preserve" fill="#178600">   </tspan> C#
          
          <tspan xml:space="preserve" fill="#563d7c">   </tspan> CSS
          
          <tspan xml:space="preserve" fill="#244776">   </tspan> CoffeeScript
          
          <tspan xml:space="preserve" fill="#00ADD8">   </tspan> Go
          
          <tspan xml:space="preserve" fill="#e34c26">   </tspan> HTML
          
          <tspan xml:space="preserve" fill="#22e4e8">   </tspan> JSON
          
        </text>
      
        <text text-anchor="middle" y="400" x="320" id="legend">
          
          <tspan xml:space="preserve" fill="#22e8e8">   </tspan> JSon
          
          <tspan xml:space="preserve" fill="#f1e05a">   </tspan> JavaScript
          
          <tspan xml:space="preserve" fill="#2415b9">   </tspan> Less
          
          <tspan xml:space="preserve" fill="#755462">   </tspan> MySQL
          
          <tspan xml:space="preserve" fill="#4F5D95">   </tspan> PHP
          
          <tspan xml:space="preserve" fill="#fd2fdb">   </tspan> PLpgSQL
          
          <tspan xml:space="preserve" fill="#0298c3">   </tspan> Perl
          
          <tspan xml:space="preserve" fill="#3572A5">   </tspan> Python
          
        </text>
      
        <text text-anchor="middle" y="430" x="320" id="legend">
          
          <tspan xml:space="preserve" fill="#701516">   </tspan> Ruby
          
          <tspan xml:space="preserve" fill="#dea584">   </tspan> Rust
          
          <tspan xml:space="preserve" fill="#26c0b0">   </tspan> SCSS
          
          <tspan xml:space="preserve" fill="#0141ae">   </tspan> SQL
          
          <tspan xml:space="preserve" fill="#89e051">   </tspan> Shell
          
          <tspan xml:space="preserve" fill="#509e5b">   </tspan> Svelte
          
          <tspan xml:space="preserve" fill="#2770da">   </tspan> TSQL
          
          <tspan xml:space="preserve" fill="#2b7489">   </tspan> TypeScript
          
        </text>
      
        <text text-anchor="middle" y="460" x="320" id="legend">
          
          <tspan xml:space="preserve" fill="#2c3e50">   </tspan> Vue
          
          <tspan xml:space="preserve" fill="#4B6C4B">   </tspan> Yacc
          
        </text>
      

    </svg>