<svg
      xmlns="http://www.w3.org/2000/svg"
      viewBox="0 0 640 490"
      style="background-color: #292b3e"
    >
      <style>
        text {
          font-size: 12px;
          font-family: Open Sans, Helvetica Neue, Helvetica, Arial, sans-serif;
        }
        #labels text {
          dominant-baseline: hanging;
          font-size: 10px;
          fill: rgba(0,0,0,0.5);
        }
        #legend {
          font-weight: 600;
        }
        #legend tspan {
          font-size: 15px;
        }
        #branding-text {
          font-size: 9px;
          dominant-baseline: hanging;
          opacity: 0.5;
        }
        #branding-logo {
          opacity: 0.5;
        }
      </style>

      
      
      <polygon
        fill="#4B6C4B"
        fillRule="evenodd"
        points="0 313.6135510033643 6.464646464646465 304.2691160274247 12.92929292929293 297.26804900804404 19.393939393939394 285.93882144948975 25.85858585858586 278.8280134882658 32.323232323232325 274.9841973351971 38.78787878787879 267.09076656336447 45.25252525252525 257.0788466418119 51.71717171717172 246.22214532105153 58.18181818181819 230.99236825441017 64.64646464646465 221.54624592154357 71.11111111111111 206.62811912485893 77.57575757575758 198.27729683315883 84.04040404040404 192.17037584354827 90.5050505050505 182.1295448460248 96.96969696969697 170.61731472489907 103.43434343434345 156.95193822876058 109.8989898989899 154.804256255621 116.36363636363637 149.8880631611229 122.82828282828282 142.5257203397103 129.2929292929293 138.28618610394486 135.75757575757575 123.7869586839079 142.22222222222223 127.17495784991186 148.68686868686868 110.77256097683656 155.15151515151516 93.0573541279685 161.61616161616163 88.01886877439759 168.08080808080808 78.10637016529512 174.54545454545453 68.78376263000646 181.010101010101 65.97380253151826 187.47474747474746 62.13354282629291 193.93939393939394 59.18916494795684 200.40404040404042 46.68390439582055 206.8686868686869 33.29415920342262 213.33333333333331 31.64651200138985 219.7979797979798 27.414719029867967 226.26262626262627 27.52885184213619 232.72727272727275 25.25128595406096 239.1919191919192 13.936294207010292 245.65656565656565 9.643237512913913 252.12121212121212 9.88388933902786 258.5858585858586 12.937988976511633 265.0505050505051 8.247126202695881 271.5151515151515 10.710294923283072 277.979797979798 10.15917200454362 284.44444444444446 11.455601966994664 290.9090909090909 14.195698842865283 297.37373737373736 17.693108411154185 303.83838383838383 18.068056266748215 310.3030303030303 12.038877926879081 316.7676767676768 13.322713600355257 323.23232323232327 11.292902185019727 329.6969696969697 7.029604426015339 336.16161616161617 1.9718535702507438 342.62626262626264 4.695563028499578 349.09090909090907 0.06661263422097363 355.55555555555554 0 362.020202020202 3.1343308117210427 368.4848484848485 11.121762752634481 374.9494949494949 13.499898819077998 381.4141414141414 18.04809529756028 387.8787878787879 21.314757077140825 394.3434343434343 21.568654533577728 400.80808080808083 27.066581559803467 407.27272727272725 30.68107730023894 413.7373737373738 36.74798364024872 420.2020202020202 42.8036841813248 426.66666666666663 46.960379595347604 433.13131313131316 38.51490583460611 439.5959595959596 42.6311485181065 446.0606060606061 50.61558393679172 452.52525252525254 58.06898618799585 458.98989898989896 55.542168561935284 465.4545454545455 58.40791440568648 471.9191919191919 64.84937308408777 478.3838383838384 68.96523734465515 484.8484848484849 76.40581805261502 491.3131313131313 74.31958383026347 497.77777777777777 74.99063259265336 504.24242424242425 75.05197632697187 510.7070707070707 74.49034276115361 517.1717171717172 78.43682959047553 523.6363636363636 85.33618892342281 530.1010101010102 88.56507775571757 536.5656565656566 82.02545486304925 543.030303030303 83.08753717547387 549.4949494949494 90.29411381933608 555.959595959596 88.15325322717587 562.4242424242424 86.74208753444282 568.8888888888889 87.76624112220065 575.3535353535353 85.90008323800322 581.8181818181818 86.43106045867813 588.2828282828283 86.68127338966625 594.7474747474747 89.27134197032598 601.2121212121212 85.21674238576512 607.6767676767677 69.72125954256609 614.1414141414141 69.36927638117226 620.6060606060606 67.00821780642698 627.070707070707 64.10064385527096 633.5353535353536 60.6555712178303 640 61.93535615299942 640 320 0 320"
      />
      
      <polygon
        fill="#2c3e50"
        fillRule="evenodd"
        points="0 313.6135510033643 6.464646464646465 304.2691160274247 12.92929292929293 297.26804900804404 19.393939393939394 285.93882144948975 25.85858585858586 278.8280134882658 32.323232323232325 274.9841973351971 38.78787878787879 267.09076656336447 45.25252525252525 257.0788466418119 51.71717171717172 246.22214532105153 58.18181818181819 230.99236825441017 64.64646464646465 221.54624592154357 71.11111111111111 206.62811912485893 77.57575757575758 198.27729683315883 84.04040404040404 192.17037584354827 90.5050505050505 182.1295448460248 96.96969696969697 170.61731472489907 103.43434343434345 156.95193822876058 109.8989898989899 154.804256255621 116.36363636363637 149.8880631611229 122.82828282828282 142.5257203397103 129.2929292929293 138.28618610394486 135.75757575757575 123.7869586839079 142.22222222222223 127.17495784991186 148.68686868686868 110.77256097683656 155.15151515151516 93.0573541279685 161.61616161616163 88.01886877439759 168.08080808080808 78.10637016529512 174.54545454545453 68.78376263000646 181.010101010101 65.97380253151826 187.47474747474746 62.13354282629291 193.93939393939394 59.18916494795684 200.40404040404042 46.68390439582055 206.8686868686869 33.29415920342262 213.33333333333331 31.64651200138985 219.7979797979798 27.414719029867967 226.26262626262627 27.52885184213619 232.72727272727275 25.25128595406096 239.1919191919192 13.936294207010292 245.65656565656565 9.643237512913913 252.12121212121212 9.88388933902786 258.5858585858586 12.937988976511633 265.0505050505051 8.247126202695881 271.5151515151515 10.710294923283072 277.979797979798 10.15917200454362 284.44444444444446 11.455601966994664 290.9090909090909 14.195698842865283 297.37373737373736 17.693108411154185 303.83838383838383 18.068056266748215 310.3030303030303 12.038877926879081 316.7676767676768 13.322713600355257 323.23232323232327 11.292902185019727 329.6969696969697 7.029604426015339 336.16161616161617 1.9718535702507438 342.62626262626264 4.695563028499578 349.09090909090907 0.06661263422097363 355.55555555555554 0 362.020202020202 3.1343308117210427 368.4848484848485 11.121762752634481 374.9494949494949 13.499898819077998 381.4141414141414 18.04809529756028 387.8787878787879 21.314757077140825 394.3434343434343 21.568654533577728 400.80808080808083 27.066581559803467 407.27272727272725 30.68107730023894 413.7373737373738 36.74798364024872 420.2020202020202 42.8036841813248 426.66666666666663 46.960379595347604 433.13131313131316 38.51490583460611 439.5959595959596 42.6311485181065 446.0606060606061 50.61558393679172 452.52525252525254 58.06898618799585 458.98989898989896 56.6427554091141 465.4545454545455 59.474906515360544 471.9191919191919 65.8837958144469 478.3838383838384 69.96908828950347 484.8484848484849 77.37902703261153 491.3131313131313 75.26403006937213 497.77777777777777 75.9062502271002 504.24242424242425 75.93964521868503 510.7070707070707 75.35350159509 517.1717171717172 79.27364106532295 523.6363636363636 86.14826889025082 530.1010101010102 89.35236943399349 536.5656565656566 82.78947854485708 543.030303030303 83.82823950190914 549.4949494949494 91.01220664319004 555.959595959596 88.85012319152997 562.4242424242424 87.41768593503991 568.8888888888889 88.42187255497154 575.3535353535353 86.53570190656109 581.8181818181818 87.04727724181947 588.2828282828283 87.28047539195035 594.7474747474747 89.85225371562461 601.2121212121212 85.78048557216593 607.6767676767677 70.2677948264824 614.1414141414141 69.8996590626096 620.6060606060606 67.52241087425989 627.070707070707 64.59914148303176 633.5353535353536 61.13933601330842 640 62.41347079226671 640 320 0 320"
      />
      
      <polygon
        fill="#2b7489"
        fillRule="evenodd"
        points="0 313.6135510033643 6.464646464646465 304.2691160274247 12.92929292929293 297.26804900804404 19.393939393939394 285.93882144948975 25.85858585858586 278.8280134882658 32.323232323232325 274.9841973351971 38.78787878787879 267.09076656336447 45.25252525252525 257.0788466418119 51.71717171717172 246.22214532105153 58.18181818181819 230.99236825441017 64.64646464646465 221.54624592154357 71.11111111111111 206.62811912485893 77.57575757575758 198.27729683315883 84.04040404040404 192.17037584354827 90.5050505050505 182.1295448460248 96.96969696969697 170.61731472489907 103.43434343434345 156.95193822876058 109.8989898989899 154.804256255621 116.36363636363637 149.8880631611229 122.82828282828282 142.5257203397103 129.2929292929293 138.28618610394486 135.75757575757575 123.7869586839079 142.22222222222223 127.17495784991186 148.68686868686868 110.77256097683656 155.15151515151516 93.0573541279685 161.61616161616163 88.01886877439759 168.08080808080808 78.10637016529512 174.54545454545453 68.78376263000646 181.010101010101 65.97380253151826 187.47474747474746 62.13354282629291 193.93939393939394 59.18916494795684 200.40404040404042 46.68390439582055 206.8686868686869 33.29415920342262 213.33333333333331 31.64651200138985 219.7979797979798 27.414719029867967 226.26262626262627 27.52885184213619 232.72727272727275 25.25128595406096 239.1919191919192 13.936294207010292 245.65656565656565 9.643237512913913 252.12121212121212 9.88388933902786 258.5858585858586 12.937988976511633 265.0505050505051 8.247126202695881 271.5151515151515 10.710294923283072 277.979797979798 10.15917200454362 284.44444444444446 11.455601966994664 290.9090909090909 14.195698842865283 297.37373737373736 17.693108411154185 303.83838383838383 18.068056266748215 310.3030303030303 12.038877926879081 316.7676767676768 13.322713600355257 323.23232323232327 11.292902185019727 329.6969696969697 7.029604426015339 336.16161616161617 1.9718535702507438 342.62626262626264 4.695563028499578 349.09090909090907 0.06661263422097363 355.55555555555554 0 362.020202020202 3.1343308117210427 368.4848484848485 11.121762752634481 374.9494949494949 13.499898819077998 381.4141414141414 18.04809529756028 387.8787878787879 21.314757077140825 394.3434343434343 21.568654533577728 400.80808080808083 27.066581559803467 407.27272727272725 30.68107730023894 413.7373737373738 36.74798364024872 420.2020202020202 42.8036841813248 426.66666666666663 46.960379595347604 433.13131313131316 38.51490583460611 439.5959595959596 42.6311485181065 446.0606060606061 50.61558393679172 452.52525252525254 58.06898618799585 458.98989898989896 56.6427554091141 465.4545454545455 59.474906515360544 471.9191919191919 65.8837958144469 478.3838383838384 69.96908828950347 484.8484848484849 77.37902703261153 491.3131313131313 75.26403006937213 497.77777777777777 75.9062502271002 504.24242424242425 75.93964521868503 510.7070707070707 75.35350159509 517.1717171717172 79.27364106532295 523.6363636363636 86.14826889025082 530.1010101010102 89.35236943399349 536.5656565656566 84.99958289429824 543.030303030303 87.49750931839642 549.4949494949494 94.56947413601915 555.959595959596 94.67098761813168 562.4242424242424 95.57917092030283 568.8888888888889 99.33788167233004 575.3535353535353 99.23028363313367 581.8181818181818 100.29078163429705 588.2828282828283 100.92492987499082 594.7474747474747 103.11105884846341 601.2121212121212 98.64743413080726 607.6767676767677 83.41159831653644 614.1414141414141 83.1283898304203 620.6060606060606 80.36984690456467 627.070707070707 77.05441268434694 633.5353535353536 73.22649920611494 640 74.35946500399803 640 320 0 320"
      />
      
      <polygon
        fill="#2770da"
        fillRule="evenodd"
        points="0 313.6135510033643 6.464646464646465 304.2691160274247 12.92929292929293 297.26804900804404 19.393939393939394 285.93882144948975 25.85858585858586 278.8280134882658 32.323232323232325 274.9841973351971 38.78787878787879 267.09076656336447 45.25252525252525 257.0788466418119 51.71717171717172 246.22214532105153 58.18181818181819 230.99236825441017 64.64646464646465 221.54624592154357 71.11111111111111 206.62811912485893 77.57575757575758 198.27729683315883 84.04040404040404 192.17037584354827 90.5050505050505 182.1295448460248 96.96969696969697 170.61731472489907 103.43434343434345 156.95193822876058 109.8989898989899 154.804256255621 116.36363636363637 149.8880631611229 122.82828282828282 142.5257203397103 129.2929292929293 138.28618610394486 135.75757575757575 123.7869586839079 142.22222222222223 127.17495784991186 148.68686868686868 110.77256097683656 155.15151515151516 93.0573541279685 161.61616161616163 88.01886877439759 168.08080808080808 78.10637016529512 174.54545454545453 68.78376263000646 181.010101010101 65.97380253151826 187.47474747474746 62.13354282629291 193.93939393939394 59.18916494795684 200.40404040404042 46.68390439582055 206.8686868686869 33.29415920342262 213.33333333333331 31.64651200138985 219.7979797979798 27.414719029867967 226.26262626262627 27.52885184213619 232.72727272727275 25.25128595406096 239.1919191919192 14.574503140585705 245.65656565656565 11.080247680539685 252.12121212121212 11.277035569006614 258.5858585858586 14.289961511165075 265.0505050505051 9.557830510554595 271.5151515151515 11.98099063617883 277.979797979798 11.39478184875378 284.44444444444446 12.65349550162722 290.9090909090909 15.358189314631261 297.37373737373736 18.820114543540114 303.83838383838383 19.161754338585922 310.3030303030303 13.09919149098016 316.7676767676768 14.35066174706219 323.23232323232327 12.2904697669386 329.6969696969697 7.996721880314681 336.16161616161617 2.910388304460753 342.62626262626264 5.605449589852753 349.09090909090907 0.9487254388106976 355.55555555555554 0.857756154947765 362.020202020202 3.9659044211419996 368.4848484848485 11.928759721243523 374.9494949494949 14.282262633496657 381.4141414141414 18.80733681727594 387.8787878787879 22.05082312820184 394.3434343434343 22.282252632657958 400.80808080808083 27.7590896777495 407.27272727272725 31.352446989672615 413.7373737373738 37.39951133862405 420.2020202020202 43.43532440050973 426.66666666666663 47.5727393506786 433.13131313131316 40.230447223203726 439.5959595959596 44.29432378813448 446.0606060606061 52.22960510318319 452.52525252525254 59.63374022399364 458.98989898989896 58.161263930941516 465.4545454545455 60.947063380617465 471.9191919191919 67.31101591262887 478.3838383838384 71.35412772670611 484.8484848484849 78.72178901683026 491.3131313131313 76.56710733166275 497.77777777777777 77.16955183229913 504.24242424242425 77.16438527966648 510.7070707070707 76.54442456411002 517.1717171717172 80.42821185497166 523.6363636363636 87.26871690193599 530.1010101010102 90.43861637099786 536.5656565656566 86.05372653323332 543.030303030303 88.51947578086373 549.4949494949494 95.56024562453774 555.959595959596 95.63247736744418 562.4242424242424 96.51131173086463 568.8888888888889 100.24247354662339 575.3535353535353 100.10726337892632 581.8181818181818 101.14099207156613 588.2828282828283 101.75166470618939 594.7474747474747 103.91255799010474 601.2121212121212 99.42524537130276 607.6767676767677 84.1767644933552 614.1414141414141 84.13462430407236 620.6060606060606 81.54070875446985 627.070707070707 78.21156223083435 633.5353535353536 74.3494499384567 640 75.46930006007199 640 320 0 320"
      />
      
      <polygon
        fill="#89e051"
        fillRule="evenodd"
        points="0 313.6135510033643 6.464646464646465 304.90984560153527 12.92929292929293 298.33447927198375 19.393939393939394 288.0768208930073 25.85858585858586 281.27135738758665 32.323232323232325 277.35296001509823 38.78787878787879 269.999962469446 45.25252525252525 260.07176341914567 51.71717171717172 250.17319289798053 58.18181818181819 235.18163955295142 64.64646464646465 226.787464440875 71.11111111111111 213.32789728781853 77.57575757575758 205.8136630889932 84.04040404040404 200.42206378458226 90.5050505050505 190.45089323248143 96.96969696969697 178.68466013519335 103.43434343434345 164.78085626377666 109.8989898989899 162.39420027686097 116.36363636363637 158.35652614708374 122.82828282828282 150.82951772582376 129.2929292929293 146.47029329188652 135.75757575757575 132.5870134047052 142.22222222222223 135.70639780364584 148.68686868686868 119.05186032711012 155.15151515151516 102.43451833285548 161.61616161616163 97.17057234183383 168.08080808080808 87.08406390262104 174.54545454545453 77.5184745275017 181.010101010101 74.59632365892583 187.47474747474746 71.29279760861829 193.93939393939394 68.12749865840232 200.40404040404042 55.43676736298744 206.8686868686869 42.603019283972 213.33333333333331 40.8163974639769 219.7979797979798 36.30470194866501 226.26262626262627 36.657234393280135 232.72727272727275 34.26588806515463 239.1919191919192 23.33077540575266 245.65656565656565 19.768671627454864 252.12121212121212 20.331875205622055 258.5858585858586 23.77177770419388 265.0505050505051 19.3580898302651 271.5151515151515 21.657314575473038 277.979797979798 22.19781763985918 284.44444444444446 24.033409585728236 290.9090909090909 26.401778514315595 297.37373737373736 29.526603289750938 303.83838383838383 29.794894473538875 310.3030303030303 23.469581406288512 316.7676767676768 24.70115792560773 323.23232323232327 22.404416972157094 329.6969696969697 17.80195129478892 336.16161616161617 12.43147667175424 342.62626262626264 14.835910201624927 349.09090909090907 10.20229180227875 355.55555555555554 9.855814642358723 362.020202020202 12.717455250410751 368.4848484848485 20.45553937627966 374.9494949494949 22.802382957508655 381.4141414141414 27.111482531304432 387.8787878787879 30.808786684661186 394.3434343434343 30.772888385810745 400.80808080808083 35.99878907616278 407.27272727272725 39.34063113084699 413.7373737373738 45.232459805046176 420.2020202020202 51.02917709251284 426.66666666666663 55.069585287140626 433.13131313131316 47.53783770944199 439.5959595959596 51.37866007933195 446.0606060606061 59.10456651949471 452.52525252525254 66.29884999800771 458.98989898989896 64.91781132392038 465.4545454545455 67.49736982242968 471.9191919191919 73.66137925417911 478.3838383838384 78.63280119651736 484.8484848484849 85.77828579024197 491.3131313131313 83.41505227048341 497.77777777777777 83.84690908295923 504.24242424242425 83.6379193242455 510.7070707070707 82.83921573175007 517.1717171717172 87.04904596568812 523.6363636363636 93.69387374770605 530.1010101010102 96.66765206492096 536.5656565656566 92.09866434796999 543.030303030303 94.37989433211331 549.4949494949494 101.24177857687965 555.959595959596 101.14609725570446 562.4242424242424 101.85663015400533 568.8888888888889 105.42981395763019 575.3535353535353 105.1362638866733 581.8181818181818 106.01648405616066 588.2828282828283 106.4925381240397 594.7474747474747 108.50871811328088 601.2121212121212 104.55197569758133 607.6767676767677 89.14700691116462 614.1414141414141 88.95797386032461 620.6060606060606 86.21682832117412 627.070707070707 82.74494626561017 633.5353535353536 78.74885154162746 640 79.8173207269885 640 320 0 320"
      />
      
      <polygon
        fill="#0141ae"
        fillRule="evenodd"
        points="0 313.6957891207736 6.464646464646465 304.9895734532381 12.92929292929293 298.4118508035059 19.393939393939394 288.1545932841986 25.85858585858586 281.34683125842577 32.323232323232325 277.42613008518055 38.78787878787879 270.07089906915746 45.25252525252525 260.1686941343947 51.71717171717172 250.6255480714231 58.18181818181819 236.59148558904087 64.64646464646465 228.16530222412268 71.11111111111111 215.5629337985984 77.57575757575758 209.347874459148 84.04040404040404 203.84839594442573 90.5050505050505 193.80957065808246 96.96969696969697 182.1669189619578 103.43434343434345 169.2001654751758 109.8989898989899 166.68971713806735 116.36363636363637 162.52092508571596 122.82828282828282 154.87488366550082 129.2929292929293 151.50325066089582 135.75757575757575 138.33055951483703 142.22222222222223 141.27462543932356 148.68686868686868 124.45552141548029 155.15151515151516 107.98215002735421 161.61616161616163 102.61889595326565 168.08080808080808 92.52515380159949 174.54545454545453 83.0158312011884 181.010101010101 79.9312099178909 187.47474747474746 76.46483953979899 193.93939393939394 73.6154951753285 200.40404040404042 61.01127743683031 206.8686868686869 50.211203768773316 213.33333333333331 49.30683490654678 219.7979797979798 44.53597314730581 226.26262626262627 46.72639001943071 232.72727272727275 45.53598740710504 239.1919191919192 38.06190612197122 245.65656565656565 34.37993233020626 252.12121212121212 35.187862470327104 258.5858585858586 40.45924643062 265.0505050505051 36.76715219939297 271.5151515151515 38.53498370120366 277.979797979798 38.69020012852678 284.44444444444446 40.02237603592471 290.9090909090909 41.960276395062806 297.37373737373736 45.10751026636399 303.83838383838383 44.91809137721356 310.3030303030303 38.14232352731358 316.7676767676768 38.926020219012855 323.23232323232327 36.36881732399053 329.6969696969697 33.69988393979827 336.16161616161617 28.4173235834553 342.62626262626264 30.372802503997605 349.09090909090907 26.29386497007181 355.55555555555554 25.53668762051649 362.020202020202 28.083995679538816 368.4848484848485 35.36793110283344 374.9494949494949 37.58881869348431 381.4141414141414 41.46090853114356 387.8787878787879 45.374476026472394 394.3434343434343 45.0220093038339 400.80808080808083 49.826788737547474 407.27272727272725 53.20081773010122 413.7373737373738 58.857999774046675 420.2020202020202 64.6253948381779 426.66666666666663 68.63074213275831 433.13131313131316 63.21850210185721 439.5959595959596 66.93872081187487 446.0606060606061 74.20476350561887 452.52525252525254 80.93812386874436 458.98989898989896 80.26635172822483 465.4545454545455 82.74330556416953 471.9191919191919 88.44194479139819 478.3838383838384 93.40767326772735 484.8484848484849 100.10216055036835 491.3131313131313 98.34495800680531 497.77777777777777 99.94027115606215 504.24242424242425 99.86320931076452 510.7070707070707 98.67426645421386 517.1717171717172 102.40073878899923 523.6363636363636 108.59185456273164 530.1010101010102 111.11087588791594 536.5656565656566 106.1150292651306 543.030303030303 107.96841187307305 549.4949494949494 114.4155177173053 555.959595959596 113.93049785257722 562.4242424242424 114.39449514430149 568.8888888888889 117.59712997247104 575.3535353535353 116.93217706028491 581.8181818181818 117.45233610985844 588.2828282828283 117.64286403902446 594.7474747474747 119.31869230874878 601.2121212121212 115.05075219250304 607.6767676767677 99.80070250316717 614.1414141414141 99.3838260053339 620.6060606060606 97.92036318494723 627.070707070707 95.72573331895424 633.5353535353536 92.85891050283067 640 93.84116082285624 640 320 0 320"
      />
      
      <polygon
        fill="#26c0b0"
        fillRule="evenodd"
        points="0 313.6957891207736 6.464646464646465 305.0750745616755 12.92929292929293 298.52242388327045 19.393939393939394 288.39203337075367 25.85858585858586 281.72968038099583 32.323232323232325 277.85565864191665 38.78787878787879 270.545427657127 45.25252525252525 260.80010023406504 51.71717171717172 251.72754682830106 58.18181818181819 237.79096992390356 64.64646464646465 230.20545882235157 71.11111111111111 218.21682548228878 77.57575757575758 212.42851017238695 84.04040404040404 207.47607499685412 90.5050505050505 198.309844429135 96.96969696969697 186.5298229922471 103.43434343434345 173.80647396261568 109.8989898989899 171.1554190039243 116.36363636363637 166.87841533984414 122.82828282828282 159.35258989772444 129.2929292929293 156.04889450250934 135.75757575757575 143.12368890154465 142.22222222222223 145.92427239274167 148.68686868686868 128.967749923878 155.15151515151516 112.62433084420576 161.61616161616163 107.3471866160078 168.08080808080808 97.39188693178122 174.54545454545453 88.0744577687442 181.010101010101 84.90349760624557 187.47474747474746 81.47894178519158 193.93939393939394 78.54018811828803 200.40404040404042 65.83898211953621 206.8686868686869 55.25799232479858 213.33333333333331 54.274645194047025 219.7979797979798 49.44594075884925 226.26262626262627 52.031354807744606 232.72727272727275 50.756990577174065 239.1919191919192 43.287724642898354 245.65656565656565 39.62435474709463 252.12121212121212 40.27219995357791 258.5858585858586 46.015502272187405 265.0505050505051 42.226325865746844 271.5151515151515 45.294975327725695 277.979797979798 46.226401981805395 284.44444444444446 47.34229194187981 290.9090909090909 49.12238023271374 297.37373737373736 52.196413352305626 303.83838383838383 51.848124978162616 310.3030303030303 44.89925007368669 316.7676767676768 45.54047396929195 323.23232323232327 42.90220304375771 329.6969696969697 40.529933249418264 336.16161616161617 35.11172989290549 342.62626262626264 37.18667706816933 349.09090909090907 32.91349996964726 355.55555555555554 31.9735426328931 362.020202020202 34.3300022382864 368.4848484848485 41.45128547928374 374.9494949494949 43.65075604074116 381.4141414141414 47.72246037905404 387.8787878787879 51.45047051150772 394.3434343434343 51.04937793119467 400.80808080808083 55.676020516890446 407.27272727272725 59.07782480748159 413.7373737373738 64.64968624055558 420.2020202020202 70.24029492091299 426.66666666666663 74.11922281521123 433.13131313131316 68.67699216183388 439.5959595959596 72.31796863447295 446.0606060606061 79.43592644537898 452.52525252525254 86.08170751202013 458.98989898989896 85.88895612572915 465.4545454545455 88.95222044029975 471.9191919191919 94.47249625223847 478.3838383838384 100.00823448828694 484.8484848484849 106.5887414790208 491.3131313131313 104.63983630779992 497.77777777777777 106.09847236481124 504.24242424242425 105.83343602806247 510.7070707070707 104.49623936504776 517.1717171717172 108.04499777739005 523.6363636363636 114.08039669063976 530.1010101010102 116.4318803033276 536.5656565656566 111.27877790938612 543.030303030303 112.97453884773418 549.4949494949494 119.26883631819834 555.959595959596 118.64038036115116 562.4242424242424 118.96060823437449 568.8888888888889 122.02829343015313 575.3535353535353 121.47125353355389 581.8181818181818 121.85285996597543 588.2828282828283 121.92188341201529 594.7474747474747 123.46992013662643 601.2121212121212 119.66086855138909 607.6767676767677 104.27009695317807 614.1414141414141 103.72113070816286 620.6060606060606 102.12527471512732 627.070707070707 99.80229156103849 633.5353535353536 96.81498879796584 640 97.7510330604344 640 320 0 320"
      />
      
      <polygon
        fill="#dea584"
        fillRule="evenodd"
        points="0 313.6957891207736 6.464646464646465 305.0750745616755 12.92929292929293 298.52242388327045 19.393939393939394 288.39203337075367 25.85858585858586 281.72968038099583 32.323232323232325 277.85565864191665 38.78787878787879 270.545427657127 45.25252525252525 260.80010023406504 51.71717171717172 251.72754682830106 58.18181818181819 237.79096992390356 64.64646464646465 230.20545882235157 71.11111111111111 218.6052199236149 77.57575757575758 212.80504910358547 84.04040404040404 207.84112030905092 90.5050505050505 198.66410100856308 96.96969696969697 187.9962647109079 103.43434343434345 176.33192697163278 109.8989898989899 173.60378406555276 116.36363636363637 169.25204526016012 122.82828282828282 162.75993202110388 129.2929292929293 159.3522291985171 135.75757575757575 148.55738633685183 142.22222222222223 151.1921097408823 148.68686868686868 136.32714504856648 155.15151515151516 123.07442671485148 161.61616161616163 117.47829991408577 168.08080808080808 107.22358464397456 174.54545454545453 98.72222870364362 181.010101010101 95.23657584776652 187.47474747474746 91.49661012718462 193.93939393939394 88.25207284415072 200.40404040404042 76.38152925365458 206.8686868686869 66.58284182788034 213.33333333333331 65.2647957539885 219.7979797979798 60.100621738670384 226.26262626262627 62.37114324233045 232.72727272727275 60.781161040247355 239.1919191919192 53.0059152342904 245.65656565656565 49.05532739472329 252.12121212121212 49.4152980747362 258.5858585858586 54.888381673847675 265.0505050505051 51.931323152039226 271.5151515151515 54.70373523779108 277.979797979798 55.3753697879622 284.44444444444446 56.21199375039214 290.9090909090909 57.729942166069634 297.37373737373736 60.541235341176616 303.83838383838383 61.06435038363816 310.3030303030303 54.08997253270013 316.7676767676768 54.45065518058624 323.23232323232327 51.54904794029602 329.6969696969697 48.91283703529871 336.16161616161617 43.246883137322186 342.62626262626264 45.073509499757165 349.09090909090907 41.668858773113755 355.55555555555554 40.48715158818118 362.020202020202 42.58373647738159 368.4848484848485 49.46108382996681 374.9494949494949 51.477934491214114 381.4141414141414 55.31830850707769 387.8787878787879 58.81446017387168 394.3434343434343 58.188586657924304 400.80808080808083 62.6042339760441 407.27272727272725 65.7945574977617 413.7373737373738 71.16790880435036 420.2020202020202 76.55955309341056 426.66666666666663 80.24558952406966 433.13131313131316 74.62824610493612 439.5959595959596 78.08756309654547 446.0606060606061 85.03500422064468 452.52525252525254 91.5098760893772 458.98989898989896 91.15669760662945 465.4545454545455 94.0591673850312 471.9191919191919 99.42355731010963 478.3838383838384 104.8129700789215 484.8484848484849 111.24681457717944 491.3131313131313 109.16024219932103 497.77777777777777 110.48089580779413 504.24242424242425 110.08208778296643 510.7070707070707 108.62758034051973 517.1717171717172 112.05023068991977 523.6363636363636 117.96725781074326 530.1010101010102 120.20009785302989 536.5656565656566 116.05399358261195 543.030303030303 117.60399326274444 549.4949494949494 123.75697882466147 555.959595959596 123.35405440366725 562.4242424242424 123.53040024263893 568.8888888888889 126.46302730033992 575.3535353535353 125.77061946959697 581.8181818181818 126.02099135638133 588.2828282828283 125.99988367001671 594.7474747474747 127.42344094450362 601.2121212121212 123.49754538034102 607.6767676767677 107.98966162153567 614.1414141414141 107.33076503882285 620.6060606060606 105.6247273776826 627.070707070707 103.19492551251858 633.5353535353536 100.10735548021782 640 101.00494629314935 640 320 0 320"
      />
      
      <polygon
        fill="#701516"
        fillRule="evenodd"
        points="0 313.6957891207736 6.464646464646465 305.0750745616755 12.92929292929293 298.52242388327045 19.393939393939394 288.39203337075367 25.85858585858586 281.72968038099583 32.323232323232325 277.85565864191665 38.78787878787879 270.545427657127 45.25252525252525 260.80010023406504 51.71717171717172 251.72754682830106 58.18181818181819 237.79096992390356 64.64646464646465 230.20545882235157 71.11111111111111 218.6052199236149 77.57575757575758 212.80504910358547 84.04040404040404 207.84112030905092 90.5050505050505 198.66410100856308 96.96969696969697 187.9962647109079 103.43434343434345 176.33192697163278 109.8989898989899 173.60378406555276 116.36363636363637 169.25204526016012 122.82828282828282 162.75993202110388 129.2929292929293 159.3522291985171 135.75757575757575 148.55738633685183 142.22222222222223 151.1921097408823 148.68686868686868 136.32714504856648 155.15151515151516 123.07442671485148 161.61616161616163 117.47829991408577 168.08080808080808 107.22358464397456 174.54545454545453 98.72222870364362 181.010101010101 95.23657584776652 187.47474747474746 91.49661012718462 193.93939393939394 88.25207284415072 200.40404040404042 76.38152925365458 206.8686868686869 66.58284182788034 213.33333333333331 65.2647957539885 219.7979797979798 60.100621738670384 226.26262626262627 62.37114324233045 232.72727272727275 60.781161040247355 239.1919191919192 53.0059152342904 245.65656565656565 49.05532739472329 252.12121212121212 49.4152980747362 258.5858585858586 54.888381673847675 265.0505050505051 51.931323152039226 271.5151515151515 54.70373523779108 277.979797979798 55.3753697879622 284.44444444444446 56.21199375039214 290.9090909090909 57.729942166069634 297.37373737373736 60.541235341176616 303.83838383838383 61.06435038363816 310.3030303030303 54.08997253270013 316.7676767676768 54.45065518058624 323.23232323232327 51.54904794029602 329.6969696969697 48.91283703529871 336.16161616161617 43.246883137322186 342.62626262626264 45.073509499757165 349.09090909090907 41.668858773113755 355.55555555555554 40.48715158818118 362.020202020202 42.58373647738159 368.4848484848485 49.46108382996681 374.9494949494949 51.477934491214114 381.4141414141414 55.31830850707769 387.8787878787879 58.81446017387168 394.3434343434343 58.188586657924304 400.80808080808083 62.6042339760441 407.27272727272725 65.7945574977617 413.7373737373738 71.16790880435036 420.2020202020202 76.55955309341056 426.66666666666663 80.24558952406966 433.13131313131316 74.62824610493612 439.5959595959596 78.08756309654547 446.0606060606061 85.03500422064468 452.52525252525254 91.5098760893772 458.98989898989896 91.15669760662945 465.4545454545455 94.0591673850312 471.9191919191919 99.42355731010963 478.3838383838384 104.8129700789215 484.8484848484849 111.24681457717944 491.3131313131313 109.16024219932103 497.77777777777777 110.48089580779413 504.24242424242425 110.08208778296643 510.7070707070707 108.62758034051973 517.1717171717172 112.05023068991977 523.6363636363636 117.96725781074326 530.1010101010102 120.20009785302989 536.5656565656566 116.05399358261195 543.030303030303 117.60399326274444 549.4949494949494 123.75697882466147 555.959595959596 123.35405440366725 562.4242424242424 123.53040024263893 568.8888888888889 126.46302730033992 575.3535353535353 125.77061946959697 581.8181818181818 126.02099135638133 588.2828282828283 125.99988367001671 594.7474747474747 127.42344094450362 601.2121212121212 123.49754538034102 607.6767676767677 108.00921785218156 614.1414141414141 107.34974329481628 620.6060606060606 105.64312633455535 627.070707070707 103.21276285073807 633.5353535353536 100.12466564520201 640 101.02205428306306 640 320 0 320"
      />
      
      <polygon
        fill="#3572A5"
        fillRule="evenodd"
        points="0 313.6957891207736 6.464646464646465 305.0750745616755 12.92929292929293 298.52242388327045 19.393939393939394 288.39203337075367 25.85858585858586 281.72968038099583 32.323232323232325 277.85565864191665 38.78787878787879 270.545427657127 45.25252525252525 260.80010023406504 51.71717171717172 251.72754682830106 58.18181818181819 237.79096992390356 64.64646464646465 230.20545882235157 71.11111111111111 218.6052199236149 77.57575757575758 212.80504910358547 84.04040404040404 207.84112030905092 90.5050505050505 198.66410100856308 96.96969696969697 187.9962647109079 103.43434343434345 176.33192697163278 109.8989898989899 173.60378406555276 116.36363636363637 169.25204526016012 122.82828282828282 163.42155983159287 129.2929292929293 159.9936611825472 135.75757575757575 149.2162803075163 142.22222222222223 151.83089135021035 148.68686868686868 137.94829029145689 155.15151515151516 125.4399956696038 161.61616161616163 119.77166121131717 168.08080808080808 109.44916718578557 174.54545454545453 100.87987620485467 181.010101010101 97.33045509115328 187.47474747474746 93.52657499997565 193.93939393939394 90.2200743936765 200.40404040404042 78.29519113468041 206.8686868686869 68.4739609332122 213.33333333333331 67.10002384720366 219.7979797979798 61.87983058577527 226.26262626262627 64.09776865123732 232.72727272727275 62.455082072326036 239.1919191919192 54.62874087680382 245.65656565656565 50.63019116038424 252.12121212121212 50.94209001933547 258.5858585858586 56.37005004896804 265.0505050505051 53.40359818163313 271.5151515151515 56.13106990400411 277.979797979798 56.76329335975083 284.44444444444446 57.55755170832629 290.9090909090909 59.03573289254308 297.37373737373736 61.80716738726761 303.83838383838383 62.29286872360569 310.3030303030303 55.280990957954145 316.7676767676768 55.60531854942417 323.23232323232327 52.66958575687727 329.6969696969697 49.99917110565764 336.16161616161617 44.301111135318706 342.62626262626264 46.09555785524759 349.09090909090907 42.65970958586553 355.55555555555554 41.4506435551196 362.020202020202 43.51781826561728 368.4848484848485 50.36755944929439 374.9494949494949 52.3790719595562 381.4141414141414 56.19281327514494 387.8787878787879 59.66227120721521 394.3434343434343 59.01051873561056 400.80808080808083 63.401874343097916 407.27272727272725 66.56785029841475 413.7373737373738 71.918347327567 420.2020202020202 77.28708495642636 426.66666666666663 80.95091385902816 433.13131313131316 75.31340975448202 439.5959595959596 78.75181264486628 446.0606060606061 85.67962212070222 452.52525252525254 92.1348174078978 458.98989898989896 91.76316907892274 465.4545454545455 94.64712679046588 471.9191919191919 99.99356945366594 478.3838383838384 105.36613587203902 484.8484848484849 111.78309533388165 491.3131313131313 109.68067349130675 497.77777777777777 110.98544111714551 504.24242424242425 110.57123213832375 510.7070707070707 109.10321867656609 517.1717171717172 112.51135039993844 523.6363636363636 118.4147493400769 530.1010101010102 120.63393005766932 536.5656565656566 116.47500407302843 543.030303030303 118.01215265198118 549.4949494949494 124.1526793977668 555.959595959596 123.73806024206931 562.4242424242424 123.90268455899638 568.8888888888889 126.82430892427743 575.3535353535353 126.12087317559741 581.8181818181818 126.36055376895283 588.2828282828283 126.33007019455812 594.7474747474747 127.74354874981395 601.2121212121212 123.80819260975477 607.6767676767677 108.32979893134933 614.1414141414141 107.66084983414532 620.6060606060606 105.94473646850585 627.070707070707 103.5051665237674 633.5353535353536 100.40842746706244 640 101.30250188297646 640 320 0 320"
      />
      
      <polygon
        fill="#0298c3"
        fillRule="evenodd"
        points="0 313.6957891207736 6.464646464646465 305.0750745616755 12.92929292929293 298.52242388327045 19.393939393939394 288.39203337075367 25.85858585858586 281.72968038099583 32.323232323232325 277.85565864191665 38.78787878787879 270.545427657127 45.25252525252525 260.80010023406504 51.71717171717172 251.72754682830106 58.18181818181819 237.79096992390356 64.64646464646465 230.20545882235157 71.11111111111111 218.6052199236149 77.57575757575758 212.80504910358547 84.04040404040404 207.84112030905092 90.5050505050505 198.66410100856308 96.96969696969697 187.9962647109079 103.43434343434345 176.33192697163278 109.8989898989899 173.60378406555276 116.36363636363637 169.25204526016012 122.82828282828282 163.42155983159287 129.2929292929293 159.9936611825472 135.75757575757575 149.2162803075163 142.22222222222223 151.83089135021035 148.68686868686868 137.94829029145689 155.15151515151516 126.07810695833624 161.61616161616163 120.39029451680011 168.08080808080808 110.04951712891526 174.54545454545453 101.46190081160356 181.010101010101 97.89527828931867 187.47474747474746 94.07415727129319 193.93939393939394 90.75094206265331 200.40404040404042 78.8114006717858 206.8686868686869 68.97441341011256 213.33333333333331 67.6901599322014 219.7979797979798 62.4519531238393 226.26262626262627 64.65298238644155 232.72727272727275 62.99334823649292 239.1919191919192 55.150576783125246 245.65656565656565 51.13660453487614 252.12121212121212 51.43304537159611 258.5858585858586 56.84649549881158 265.0505050505051 53.86550041699172 271.5151515151515 56.5788728117783 277.979797979798 57.19873169515881 284.44444444444446 57.979698559483325 290.9090909090909 59.44540338787101 297.37373737373736 62.204332930997 303.83838383838383 62.67829625365903 310.3030303030303 55.65465354313773 316.7676767676768 55.967575316845966 323.23232323232327 53.02113620858654 329.6969696969697 50.33999067374748 336.16161616161617 44.63185794377017 342.62626262626264 46.41620882605184 349.09090909090907 42.970572860787854 355.55555555555554 41.752923382880965 362.020202020202 43.810871184889606 368.4848484848485 50.65195133367462 374.9494949494949 52.6547829574356 381.4141414141414 56.46037576309982 387.8787878787879 59.92166652555551 394.3434343434343 59.261996139161056 400.80808080808083 63.64591947700836 407.27272727272725 66.80444609564475 413.7373737373738 72.14795066281906 420.2020202020202 77.50967979017614 426.66666666666663 81.166714099551 433.13131313131316 75.52304167276375 439.5959595959596 78.95504566632246 446.0606060606061 85.87684870505893 452.52525252525254 92.32602375561558 458.98989898989896 91.94872442786658 465.4545454545455 94.82701816310902 471.9191919191919 100.16796976039646 478.3838383838384 105.53538186066689 484.8484848484849 111.94717517769806 491.3131313131313 109.83990404541234 497.77777777777777 111.13981126381756 504.24242424242425 110.72089020976813 510.7070707070707 109.24874444867083 517.1717171717172 112.65243407663758 523.6363636363636 118.55166336723073 530.1010101010102 120.76666486910423 536.5656565656566 116.60381597232879 543.030303030303 118.13703263810706 549.4949494949494 124.2737475051342 555.959595959596 123.85555023056224 562.4242424242424 124.01658824958764 568.8888888888889 126.93484624648605 575.3535353535353 126.22803640250328 581.8181818181818 126.46444589875705 588.2828282828283 126.43109369807496 594.7474747474747 127.84148857206023 601.2121212121212 126.40244336178318 607.6767676767677 115.17766988901994 614.1414141414141 114.40697307757316 620.6060606060606 112.69046052197797 627.070707070707 110.0449820274903 633.5353535353536 107.19468651193068 640 108.00950142819772 640 320 0 320"
      />
      
      <polygon
        fill="#fd2fdb"
        fillRule="evenodd"
        points="0 313.6957891207736 6.464646464646465 305.0750745616755 12.92929292929293 298.52242388327045 19.393939393939394 288.39203337075367 25.85858585858586 281.72968038099583 32.323232323232325 277.85565864191665 38.78787878787879 270.545427657127 45.25252525252525 260.80010023406504 51.71717171717172 251.72754682830106 58.18181818181819 237.79096992390356 64.64646464646465 230.20545882235157 71.11111111111111 218.6052199236149 77.57575757575758 212.80504910358547 84.04040404040404 207.84112030905092 90.5050505050505 198.66410100856308 96.96969696969697 187.9962647109079 103.43434343434345 176.33192697163278 109.8989898989899 173.60378406555276 116.36363636363637 169.25204526016012 122.82828282828282 163.42155983159287 129.2929292929293 159.9936611825472 135.75757575757575 149.2162803075163 142.22222222222223 151.83089135021035 148.68686868686868 137.94829029145689 155.15151515151516 126.07810695833624 161.61616161616163 120.39029451680011 168.08080808080808 110.04951712891526 174.54545454545453 101.46190081160356 181.010101010101 97.89527828931867 187.47474747474746 94.07415727129319 193.93939393939394 90.75094206265331 200.40404040404042 78.8114006717858 206.8686868686869 68.97441341011256 213.33333333333331 67.6901599322014 219.7979797979798 62.4519531238393 226.26262626262627 64.65298238644155 232.72727272727275 62.99334823649292 239.1919191919192 55.150576783125246 245.65656565656565 51.13660453487614 252.12121212121212 51.43304537159611 258.5858585858586 56.84649549881158 265.0505050505051 53.86550041699172 271.5151515151515 56.5788728117783 277.979797979798 58.328335079670865 284.44444444444446 59.07482148772152 290.9090909090909 60.50816048770872 297.37373737373736 63.23465001578086 303.83838383838383 64.55892359888878 310.3030303030303 57.47787583146385 316.7676767676768 57.73514466850645 323.23232323232327 54.736465928893665 329.6969696969697 52.00296115984196 336.16161616161617 46.24568018306911 342.62626262626264 47.980769997301365 349.09090909090907 44.487376733615235 355.55555555555554 43.22784580738056 362.020202020202 45.24077248325278 368.4848484848485 52.03959254407374 374.9494949494949 54.000067287866045 381.4141414141414 57.765900979445746 387.8787878787879 61.18734128164675 394.3434343434343 60.48903680840715 400.80808080808083 64.83669561399574 407.27272727272725 67.95887457433113 413.7373737373738 73.26826062773313 420.2020202020202 78.59579294460076 426.66666666666663 82.21967424558784 433.13131313131316 76.5459045401663 439.5959595959596 79.94668612509986 446.0606060606061 86.8391818394825 452.52525252525254 93.25898216063746 458.98989898989896 92.85410974999468 465.4545454545455 95.70476721011096 471.9191919191919 101.01892591738334 478.3838383838384 106.36118843393501 484.8484848484849 112.74777452360138 491.3131313131313 110.61684216448455 497.77777777777777 111.89303376963821 504.24242424242425 111.45112104899144 510.7070707070707 109.95881240359736 517.1717171717172 113.34082761989447 523.6363636363636 119.21971181678327 530.1010101010102 121.41432151407622 536.5656565656566 117.2323314640625 543.030303030303 118.746363070845 549.4949494949494 124.86447846022966 555.959595959596 124.42882241514832 562.4242424242424 124.57236167274266 568.8888888888889 127.47419404589272 575.3535353535353 126.7509209299763 581.8181818181818 126.97136967125846 588.2828282828283 126.92402049385811 594.7474747474747 128.3193690609875 601.2121212121212 126.86620036622557 607.6767676767677 115.6272709394726 614.1414141414141 114.8432864250338 620.6060606060606 114.2207390337785 627.070707070707 111.52854976588759 633.5353535353536 109.7541327291471 640 110.53905432870064 640 320 0 320"
      />
      
      <polygon
        fill="#4F5D95"
        fillRule="evenodd"
        points="0 313.6957891207736 6.464646464646465 305.0750745616755 12.92929292929293 298.52242388327045 19.393939393939394 288.39203337075367 25.85858585858586 281.72968038099583 32.323232323232325 277.85565864191665 38.78787878787879 270.545427657127 45.25252525252525 260.80010023406504 51.71717171717172 251.72754682830106 58.18181818181819 237.79096992390356 64.64646464646465 230.20545882235157 71.11111111111111 218.6052199236149 77.57575757575758 212.80504910358547 84.04040404040404 207.84112030905092 90.5050505050505 198.66410100856308 96.96969696969697 187.9962647109079 103.43434343434345 176.33192697163278 109.8989898989899 173.60378406555276 116.36363636363637 169.25204526016012 122.82828282828282 163.42155983159287 129.2929292929293 159.9936611825472 135.75757575757575 149.2162803075163 142.22222222222223 151.83089135021035 148.68686868686868 137.94829029145689 155.15151515151516 126.07810695833624 161.61616161616163 120.39029451680011 168.08080808080808 110.04951712891526 174.54545454545453 101.46190081160356 181.010101010101 97.89527828931867 187.47474747474746 94.07415727129319 193.93939393939394 90.75094206265331 200.40404040404042 78.8114006717858 206.8686868686869 68.97441341011256 213.33333333333331 67.6901599322014 219.7979797979798 62.4519531238393 226.26262626262627 64.67260945609371 232.72727272727275 63.012376200626534 239.1919191919192 55.16902392946969 245.65656565656565 51.15450648535506 252.12121212121212 51.45040087675011 258.5858585858586 56.863338071074224 265.0505050505051 53.881828878829594 271.5151515151515 56.59470285644301 277.979797979798 58.343728031370574 284.44444444444446 59.08974457794437 290.9090909090909 60.522642534167744 297.37373737373736 63.24869000637278 303.83838383838383 64.57254864565013 310.3030303030303 57.491084980859796 316.7676767676768 57.747950616524236 323.23232323232327 54.748893403732836 329.6969696969697 52.01500929325158 336.16161616161617 46.25737224006576 342.62626262626264 47.99210516100982 349.09090909090907 44.49836589827356 355.55555555555554 43.238531542975636 362.020202020202 45.25113204314971 368.4848484848485 52.049645931953535 374.9494949494949 54.00981380244906 381.4141414141414 57.77535944071445 387.8787878787879 61.196511029422254 394.3434343434343 60.497926654666344 400.80808080808083 64.845322725448 407.27272727272725 67.96723834833838 413.7373737373738 73.27637721479141 420.2020202020202 78.60366177700752 426.66666666666663 82.22730288688814 433.13131313131316 76.55331512819185 439.5959595959596 79.95387050856635 446.0606060606061 86.84615389191066 452.52525252525254 93.2657413956012 458.98989898989896 92.86066921920747 465.4545454545455 95.71112645540336 471.9191919191919 101.02509105062586 478.3838383838384 106.36717135992771 484.8484848484849 112.75357482424806 491.3131313131313 110.62247104042856 497.77777777777777 111.89849082734094 504.24242424242425 111.45641153289438 510.7070707070707 109.96395680884245 517.1717171717172 113.34581499480538 523.6363636363636 119.22455179257548 530.1010101010102 121.41901375259425 536.5656565656566 117.23688502583946 543.030303030303 118.75077763765918 549.4949494949494 124.86875827490002 555.959595959596 124.4329757421913 562.4242424242424 124.57638822219334 568.8888888888889 127.4781015925534 575.3535353535353 126.75470920093875 581.8181818181818 126.97504230762829 588.2828282828283 126.9275917227242 594.7474747474747 128.32283128017025 601.2121212121212 126.86956026125759 607.6767676767677 115.63052827577201 614.1414141414141 114.84644749243688 620.6060606060606 114.22380361126659 627.070707070707 111.53152079893798 633.5353535353536 109.75701595489522 640 110.54190387977053 640 320 0 320"
      />
      
      <polygon
        fill="#755462"
        fillRule="evenodd"
        points="0 318.02122395907685 6.464646464646465 313.52736393245567 12.92929292929293 310.89612367399826 19.393939393939394 304.6063515417078 25.85858585858586 301.5123632172927 32.323232323232325 299.6347371986475 38.78787878787879 295.6873399415717 45.25252525252525 289.60726063747677 51.71717171717172 284.8540432489554 58.18181818181819 274.44713167579124 64.64646464646465 270.1967678840474 71.11111111111111 262.9523705900594 77.57575757575758 259.7806257033366 84.04040404040404 257.2939844900523 90.5050505050505 251.48860472917107 96.96969696969697 243.11578700926094 103.43434343434345 233.69076106922822 109.8989898989899 232.4422874031905 116.36363636363637 230.4871268543625 122.82828282828282 226.7432849016967 129.2929292929293 225.02615411029063 135.75757575757575 216.76215334259473 142.22222222222223 218.75155790599604 148.68686868686868 208.35867235742666 155.15151515151516 198.3525478799665 161.61616161616163 194.3475343112716 168.08080808080808 186.11875435593402 174.54545454545453 178.69897159345047 181.010101010101 176.47505145945783 187.47474747474746 173.87232189222001 193.93939393939394 171.38692265804318 200.40404040404042 162.6560773237065 206.8686868686869 154.1286961608194 213.33333333333331 153.54799314511564 219.7979797979798 149.77125004877746 226.26262626262627 151.99181082204643 232.72727272727275 150.2404985506892 239.1919191919192 143.46423189315993 245.65656565656565 140.6980847058755 252.12121212121212 142.92933112123552 258.5858585858586 147.05367594594722 265.0505050505051 144.44719980886623 271.5151515151515 147.14077292643364 277.979797979798 149.5343116057958 284.44444444444446 150.79093577513908 290.9090909090909 152.3822006582924 297.37373737373736 155.03545889893545 303.83838383838383 154.49055368690978 310.3030303030303 148.88686863277053 316.7676767676768 148.9629993462782 323.23232323232327 145.90484352475562 329.6969696969697 141.7890901721047 336.16161616161617 137.45874473221255 342.62626262626264 139.3711505777124 349.09090909090907 135.06399370730352 355.55555555555554 134.18776189038806 362.020202020202 137.097100241009 368.4848484848485 142.4524689725641 374.9494949494949 144.39930482330365 381.4141414141414 146.97585007768708 387.8787878787879 149.82619188273856 394.3434343434343 149.06471120021348 400.80808080808083 151.71936307104653 407.27272727272725 154.19239721909904 413.7373737373738 158.30296439037699 420.2020202020202 162.4215459499195 426.66666666666663 164.4855770770204 433.13131313131316 158.22329532286295 439.5959595959596 161.34780442689592 446.0606060606061 165.87466281047574 452.52525252525254 170.07076226091561 458.98989898989896 168.56364837747623 465.4545454545455 169.21380756842717 471.9191919191919 173.47284411902038 478.3838383838384 177.15379072978203 484.8484848484849 181.4937605007914 491.3131313131313 177.55149130107873 497.77777777777777 179.1101766222339 504.24242424242425 179.84345640960532 510.7070707070707 178.85211711575982 517.1717171717172 181.1913178528489 523.6363636363636 185.21860855353313 530.1010101010102 189.1942961690096 536.5656565656566 186.26899415554678 543.030303030303 186.9422142984971 549.4949494949494 190.98339711789447 555.959595959596 193.06121560845503 562.4242424242424 195.38488237960723 568.8888888888889 199.02884760131607 575.3535353535353 200.45622698502424 581.8181818181818 202.54865412228696 588.2828282828283 204.68147221375662 594.7474747474747 208.14740819919558 601.2121212121212 207.11134462857837 607.6767676767677 197.5379776870761 614.1414141414141 198.09252416368233 620.6060606060606 198.3792216438897 627.070707070707 197.54832922823837 633.5353535353536 197.64430007711053 640 199.3548668673419 640 320 0 320"
      />
      
      <polygon
        fill="#2415b9"
        fillRule="evenodd"
        points="0 318.02122395907685 6.464646464646465 313.52736393245567 12.92929292929293 310.89612367399826 19.393939393939394 304.6063515417078 25.85858585858586 301.5123632172927 32.323232323232325 299.6347371986475 38.78787878787879 295.6873399415717 45.25252525252525 289.60726063747677 51.71717171717172 284.8540432489554 58.18181818181819 274.44713167579124 64.64646464646465 270.1967678840474 71.11111111111111 262.9523705900594 77.57575757575758 259.7806257033366 84.04040404040404 257.2939844900523 90.5050505050505 251.48860472917107 96.96969696969697 243.11578700926094 103.43434343434345 233.69076106922822 109.8989898989899 232.4422874031905 116.36363636363637 230.4871268543625 122.82828282828282 226.7432849016967 129.2929292929293 225.02615411029063 135.75757575757575 216.76215334259473 142.22222222222223 218.75155790599604 148.68686868686868 208.35867235742666 155.15151515151516 198.3525478799665 161.61616161616163 194.3475343112716 168.08080808080808 186.11875435593402 174.54545454545453 178.69897159345047 181.010101010101 176.47505145945783 187.47474747474746 173.87232189222001 193.93939393939394 171.38692265804318 200.40404040404042 162.6560773237065 206.8686868686869 154.1286961608194 213.33333333333331 153.54799314511564 219.7979797979798 149.77125004877746 226.26262626262627 151.99181082204643 232.72727272727275 150.2404985506892 239.1919191919192 143.46423189315993 245.65656565656565 140.6980847058755 252.12121212121212 142.92933112123552 258.5858585858586 147.05367594594722 265.0505050505051 144.44719980886623 271.5151515151515 147.14077292643364 277.979797979798 149.5343116057958 284.44444444444446 150.79093577513908 290.9090909090909 152.3822006582924 297.37373737373736 155.03545889893545 303.83838383838383 154.49055368690978 310.3030303030303 148.88686863277053 316.7676767676768 148.9629993462782 323.23232323232327 145.90484352475562 329.6969696969697 142.1487207628257 336.16161616161617 137.81837532293355 342.62626262626264 139.7307811684334 349.09090909090907 135.42362429802452 355.55555555555554 134.54739248110906 362.020202020202 137.45673083173 368.4848484848485 142.8120995632851 374.9494949494949 144.7589354140246 381.4141414141414 147.33548066840808 387.8787878787879 150.18582247345955 394.3434343434343 149.42434179093448 400.80808080808083 152.0789936617675 407.27272727272725 154.55202780982003 413.7373737373738 158.66259498109798 420.2020202020202 162.7811765406405 426.66666666666663 164.8452076677414 433.13131313131316 158.58292591358395 439.5959595959596 161.70743501761692 446.0606060606061 166.23429340119674 452.52525252525254 170.4303928516366 458.98989898989896 168.92327896819722 465.4545454545455 169.57343815914814 471.9191919191919 173.83247470974138 478.3838383838384 177.513421320503 484.8484848484849 181.8533910915124 491.3131313131313 177.91112189179972 497.77777777777777 179.46980721295486 504.24242424242425 180.20308700032632 510.7070707070707 179.2117477064808 517.1717171717172 181.5509484435699 523.6363636363636 185.5782391442541 530.1010101010102 189.55392675973056 536.5656565656566 186.62862474626775 543.030303030303 187.30184488921807 549.4949494949494 191.34302770861544 555.959595959596 193.42084619917603 562.4242424242424 195.74451297032823 568.8888888888889 199.38847819203707 575.3535353535353 200.8158575757452 581.8181818181818 202.90828471300793 588.2828282828283 205.04110280447762 594.7474747474747 208.50703878991655 601.2121212121212 207.47097521929933 607.6767676767677 197.89760827779708 614.1414141414141 198.45215475440332 620.6060606060606 198.73885223461065 627.070707070707 197.90795981895937 633.5353535353536 198.00393066783153 640 199.3548668673419 640 320 0 320"
      />
      
      <polygon
        fill="#f1e05a"
        fillRule="evenodd"
        points="0 318.02122395907685 6.464646464646465 313.52736393245567 12.92929292929293 310.89612367399826 19.393939393939394 304.6063515417078 25.85858585858586 301.5123632172927 32.323232323232325 299.6347371986475 38.78787878787879 295.6873399415717 45.25252525252525 289.60726063747677 51.71717171717172 284.8540432489554 58.18181818181819 275.5586362911947 64.64646464646465 271.2743444357643 71.11111111111111 264.3815308439025 77.57575757575758 261.623278935231 84.04040404040404 259.0916415644485 90.5050505050505 253.2331333708968 96.96969696969697 246.00813216713527 103.43434343434345 237.61106947829433 109.8989898989899 236.2899694419765 116.36363636363637 234.217360940334 122.82828282828282 230.51370236309822 129.2929292929293 228.68148156253366 135.75757575757575 222.60330936014407 142.22222222222223 224.41441729679372 148.68686868686868 213.85416758317578 155.15151515151516 203.6802973212345 161.61616161616163 199.51265643612885 168.08080808080808 191.13122449495432 174.54545454545453 184.6746199987825 181.010101010101 182.2740926798018 187.47474747474746 179.49435129178556 193.93939393939394 176.8373433268253 200.40404040404042 169.2790887407708 206.8686868686869 161.91439225016867 213.33333333333331 161.10358627984593 219.7979797979798 157.65205969548668 226.26262626262627 159.74985584003952 232.72727272727275 157.76173360629798 239.1919191919192 151.8856617739567 245.65656565656565 148.87062155019765 252.12121212121212 150.85240712375622 258.5858585858586 154.74259030575365 265.0505050505051 153.00437390015622 271.5151515151515 155.44778335499618 277.979797979798 157.61195272614444 284.44444444444446 159.39926218037925 290.9090909090909 161.38433632908607 297.37373737373736 163.76280823347426 303.83838383838383 164.0801732595711 310.3030303030303 158.18377048242039 316.7676767676768 157.97611721054813 323.23232323232327 154.65158249672055 329.6969696969697 150.62847306678725 336.16161616161617 146.04751134338142 342.62626262626264 147.70872755145433 349.09090909090907 144.26947232321228 355.55555555555554 143.14899071175483 362.020202020202 145.7957730432501 368.4848484848485 150.90468179340428 374.9494949494949 152.60449715277926 381.4141414141414 154.9491726388273 387.8787878787879 157.56710985347917 394.3434343434343 156.58031855083544 400.80808080808083 159.0234819464252 407.27272727272725 161.28453852163108 413.7373737373738 165.19612927967495 420.2020202020202 169.11527882540068 426.66666666666663 170.98596432680222 433.13131313131316 165.66904391747943 439.5959595959596 168.5772537164812 446.0606060606061 172.90107854000559 452.52525252525254 176.89367742438012 458.98989898989896 175.1955436976473 465.4545454545455 175.6542471730289 471.9191919191919 179.72767005287162 478.3838383838384 183.23438653409826 484.8484848484849 187.39972749937496 491.3131313131313 183.2935387791632 497.77777777777777 184.68792994749543 504.24242424242425 185.2619290379818 510.7070707070707 184.13090644840707 517.1717171717172 186.31995267998437 523.6363636363636 190.20629747331122 530.1010101010102 194.0407170551726 536.5656565656566 190.9828107145284 543.030303030303 191.52312094704678 549.4949494949494 195.4354519275979 555.959595959596 197.39232099916117 562.4242424242424 199.59476081925163 568.8888888888889 203.12493398997967 575.3535353535353 204.43826064190458 581.8181818181818 206.42011647700537 588.2828282828283 208.45596634478298 594.7474747474747 211.81766545853338 601.2121212121212 210.6837586316211 607.6767676767677 201.01232351057715 614.1414141414141 201.4748157558829 620.6060606060606 201.66924826126362 627.070707070707 200.74890718931744 633.5353535353536 200.76091528967714 640 202.07965119361035 640 320 0 320"
      />
      
      <polygon
        fill="#22e8e8"
        fillRule="evenodd"
        points="0 319.925674262152 6.464646464646465 319.8564689960304 12.92929292929293 319.8272329196342 19.393939393939394 318.6603029931786 25.85858585858586 318.54752999143966 32.323232323232325 318.40759788651934 38.78787878787879 318.26954450598464 45.25252525252525 316.0115358912786 51.71717171717172 316.01949871879157 58.18181818181819 310.27120123094613 64.64646464646465 309.3798719266041 71.11111111111111 306.9369351188368 77.57575757575758 307.0222668782565 84.04040404040404 306.2791053156406 90.5050505050505 304.58411753456386 96.96969696969697 300.15630251511067 103.43434343434345 294.7536515365934 109.8989898989899 293.47878560901864 116.36363636363637 293.7809617501431 122.82828282828282 290.8838621114569 129.2929292929293 291.25493353768405 135.75757575757575 286.97854142028586 142.22222222222223 287.295918560796 148.68686868686868 280.08963511204064 155.15151515151516 272.3565324586199 161.61616161616163 270.68736550662186 168.08080808080808 264.6410488990258 174.54545454545453 259.71605354784015 181.010101010101 258.4821370396791 187.47474747474746 256.4976313641846 193.93939393939394 254.7095628325244 200.40404040404042 249.7580237947727 206.8686868686869 243.84333729563815 213.33333333333331 243.32683964305375 219.7979797979798 241.83027830756146 226.26262626262627 242.76854939144783 232.72727272727275 241.70746645421124 239.1919191919192 237.21784658528142 245.65656565656565 234.0443695635063 252.12121212121212 235.73029218765856 258.5858585858586 237.40441111931375 265.0505050505051 235.56052497100282 271.5151515151515 237.00508614801458 277.979797979798 238.3993789008668 284.44444444444446 240.81757288766386 290.9090909090909 242.5414791913252 297.37373737373736 244.5917090629505 303.83838383838383 243.76037904674138 310.3030303030303 239.79406227419156 316.7676767676768 239.8281013096033 323.23232323232327 237.435322190599 329.6969696969697 235.72256187673523 336.16161616161617 231.99176275972988 342.62626262626264 232.20072899151302 349.09090909090907 229.5869800963717 355.55555555555554 229.00006389707943 362.020202020202 230.6153774011362 368.4848484848485 233.24734587043912 374.9494949494949 234.38587549171615 381.4141414141414 235.4497749221622 387.8787878787879 235.9808302772067 394.3434343434343 235.02391297397622 400.80808080808083 236.27274934287743 407.27272727272725 237.10995648330075 413.7373737373738 239.1761131402196 420.2020202020202 241.04015367527023 426.66666666666663 242.01072901879996 433.13131313131316 236.84732155094832 439.5959595959596 238.185860958274 446.0606060606061 240.60233356811094 452.52525252525254 242.6985181463358 458.98989898989896 240.2079548532049 465.4545454545455 240.0552082331468 471.9191919191919 242.49391485012768 478.3838383838384 244.4776163299704 484.8484848484849 246.78132440480005 491.3131313131313 243.48882250144595 497.77777777777777 244.04378757778463 504.24242424242425 246.20496490461937 510.7070707070707 246.89559969654317 517.1717171717172 247.99731413975127 523.6363636363636 250.11825702361216 530.1010101010102 252.23283064420815 536.5656565656566 249.58177952842647 543.030303030303 249.44274757507287 549.4949494949494 251.59490259239925 555.959595959596 252.51202414032556 562.4242424242424 253.35345123747618 568.8888888888889 255.3023882967305 575.3535353535353 256.153279329755 581.8181818181818 257.9440346615585 588.2828282828283 258.99696788667677 594.7474747474747 260.82648655655976 601.2121212121212 259.22059232225746 607.6767676767677 252.11870749675523 614.1414141414141 252.09484971639353 620.6060606060606 251.32928843296756 627.070707070707 250.0362282718301 633.5353535353536 248.84026187834138 640 249.65181178769674 640 320 0 320"
      />
      
      <polygon
        fill="#22e4e8"
        fillRule="evenodd"
        points="0 319.925674262152 6.464646464646465 319.8564689960304 12.92929292929293 319.8272329196342 19.393939393939394 318.6603029931786 25.85858585858586 318.54752999143966 32.323232323232325 318.40759788651934 38.78787878787879 318.26954450598464 45.25252525252525 316.0115358912786 51.71717171717172 316.01949871879157 58.18181818181819 310.27120123094613 64.64646464646465 309.3798719266041 71.11111111111111 306.9369351188368 77.57575757575758 307.0222668782565 84.04040404040404 306.2791053156406 90.5050505050505 304.58411753456386 96.96969696969697 300.15630251511067 103.43434343434345 294.7536515365934 109.8989898989899 293.47878560901864 116.36363636363637 293.7809617501431 122.82828282828282 290.8838621114569 129.2929292929293 291.25493353768405 135.75757575757575 286.97854142028586 142.22222222222223 287.295918560796 148.68686868686868 280.08963511204064 155.15151515151516 272.3565324586199 161.61616161616163 270.68736550662186 168.08080808080808 264.6410488990258 174.54545454545453 259.71605354784015 181.010101010101 258.4821370396791 187.47474747474746 256.4976313641846 193.93939393939394 254.7095628325244 200.40404040404042 249.7580237947727 206.8686868686869 243.84333729563815 213.33333333333331 243.32683964305375 219.7979797979798 241.83027830756146 226.26262626262627 242.76854939144783 232.72727272727275 241.70746645421124 239.1919191919192 237.21784658528142 245.65656565656565 234.0443695635063 252.12121212121212 235.73029218765856 258.5858585858586 237.40441111931375 265.0505050505051 235.56052497100282 271.5151515151515 237.00508614801458 277.979797979798 238.3993789008668 284.44444444444446 240.81757288766386 290.9090909090909 242.5414791913252 297.37373737373736 244.5917090629505 303.83838383838383 243.76037904674138 310.3030303030303 239.79406227419156 316.7676767676768 239.8281013096033 323.23232323232327 237.435322190599 329.6969696969697 235.77393767540966 336.16161616161617 232.0431385584043 342.62626262626264 232.25210479018747 349.09090909090907 229.63835589504612 355.55555555555554 229.05143969575386 362.020202020202 230.6667531998106 368.4848484848485 233.29872166911355 374.9494949494949 234.43725129039058 381.4141414141414 235.5011507208366 387.8787878787879 236.03220607588113 394.3434343434343 235.07528877265065 400.80808080808083 236.32412514155186 407.27272727272725 237.16133228197518 413.7373737373738 239.22748893889403 420.2020202020202 241.09152947394466 426.66666666666663 242.0621048174744 433.13131313131316 236.89869734962275 439.5959595959596 238.23723675694842 446.0606060606061 240.65370936678536 452.52525252525254 242.74989394501023 458.98989898989896 240.25933065187934 465.4545454545455 240.10658403182123 471.9191919191919 242.5452906488021 478.3838383838384 244.5289921286448 484.8484848484849 246.83270020347447 491.3131313131313 243.54019830012038 497.77777777777777 244.09516337645906 504.24242424242425 246.2563407032938 510.7070707070707 246.9469754952176 517.1717171717172 248.0486899384257 523.6363636363636 250.1696328222866 530.1010101010102 252.28420644288258 536.5656565656566 249.6331553271009 543.030303030303 249.49412337374733 549.4949494949494 251.64627839107368 555.959595959596 252.563399939 562.4242424242424 253.4048270361506 568.8888888888889 255.35376409540493 575.3535353535353 256.2046551284294 581.8181818181818 257.99541046023285 588.2828282828283 259.0483436853512 594.7474747474747 260.8778623552342 601.2121212121212 259.2719681209319 607.6767676767677 252.17008329542966 614.1414141414141 252.14622551506795 620.6060606060606 251.380664231642 627.070707070707 250.08760407050454 633.5353535353536 248.8916376770158 640 249.65181178769674 640 320 0 320"
      />
      
      <polygon
        fill="#e34c26"
        fillRule="evenodd"
        points="0 319.925674262152 6.464646464646465 319.8564689960304 12.92929292929293 319.8272329196342 19.393939393939394 318.6603029931786 25.85858585858586 318.6387623538136 32.323232323232325 318.51260284694837 38.78787878787879 318.37134425055376 45.25252525252525 316.1105247765083 51.71717171717172 316.2070749039508 58.18181818181819 311.6486233839825 64.64646464646465 310.75104698802494 71.11111111111111 308.2675856695244 77.57575757575758 308.3123000307669 84.04040404040404 307.5297611790022 90.5050505050505 305.7978105658111 96.96969696969697 302.0857689275795 103.43434343434345 297.72661159043537 109.8989898989899 296.360996993356 116.36363636363637 296.57519577830806 122.82828282828282 294.7044059121091 129.2929292929293 294.97529792172384 135.75757575757575 291.7197418964705 142.22222222222223 292.19422283852435 148.68686868686868 288.1167943726118 155.15151515151516 282.47604921142107 161.61616161616163 280.5090978551463 168.08080808080808 276.09420637674907 174.54545454545453 271.3321041603565 181.010101010101 270.33210577362405 187.47474747474746 269.0820058375047 193.93939393939394 268.3241104356405 200.40404040404042 264.1112567412936 206.8686868686869 258.73416248942436 213.33333333333331 258.87805449058095 219.7979797979798 257.3390701030912 226.26262626262627 258.03727852002754 232.72727272727275 256.5238306479467 239.1919191919192 252.72249132634215 245.65656565656565 250.19335004873824 252.12121212121212 252.19004898913596 258.5858585858586 254.1886677403786 265.0505050505051 252.8678190755685 271.5151515151515 253.80099480021875 277.979797979798 254.90775467566178 284.44444444444446 256.8330543875562 290.9090909090909 258.58290752458015 297.37373737373736 260.45210860448026 303.83838383838383 259.9720996573145 310.3030303030303 257.86439590576566 316.7676767676768 257.54207287876807 323.23232323232327 255.72567884509218 329.6969696969697 254.3230094943196 336.16161616161617 252.44399966473526 342.62626262626264 252.30170545091747 349.09090909090907 249.8959925773485 355.55555555555554 249.60729747662168 362.020202020202 250.63987379160193 368.4848484848485 252.68977706727503 374.9494949494949 254.0438035036079 381.4141414141414 254.8813411650944 387.8787878787879 255.76537497244755 394.3434343434343 254.20612266797824 400.80808080808083 254.90085666295212 407.27272727272725 255.17101781073006 413.7373737373738 256.7048996155464 420.2020202020202 258.1051184126484 426.66666666666663 258.5563604677617 433.13131313131316 255.16943872418202 439.5959595959596 257.1207105668823 446.0606060606061 258.97909404081474 452.52525252525254 260.5159091982322 458.98989898989896 258.60055037457613 465.4545454545455 258.0205790529971 471.9191919191919 259.91246838430266 478.3838383838384 261.38289583742466 484.8484848484849 263.17214824216404 491.3131313131313 261.8204298122108 497.77777777777777 263.5576259971981 504.24242424242425 265.20786895118374 510.7070707070707 265.57696419703973 517.1717171717172 267.22153793439327 523.6363636363636 268.7758376118704 530.1010101010102 270.339412984295 536.5656565656566 268.43863039948724 543.030303030303 268.96362139635687 549.4949494949494 270.5214817249369 555.959595959596 271.98378064304484 562.4242424242424 273.4494617121808 568.8888888888889 274.8252226184919 575.3535353535353 276.2041664404838 581.8181818181818 277.54100323329106 588.2828282828283 278.71336566752393 594.7474747474747 279.9736322679665 601.2121212121212 278.9297358403318 607.6767676767677 275.72392134959705 614.1414141414141 277.0324846326969 620.6060606060606 278.2862902168082 627.070707070707 278.4158762692483 633.5353535353536 279.6448619584162 640 280.1161931088217 640 320 0 320"
      />
      
      <polygon
        fill="#00ADD8"
        fillRule="evenodd"
        points="0 319.925674262152 6.464646464646465 319.8564689960304 12.92929292929293 319.8272329196342 19.393939393939394 318.6603029931786 25.85858585858586 318.6387623538136 32.323232323232325 318.5153626174743 38.78787878787879 318.37401978069636 45.25252525252525 316.6121805773653 51.71717171717172 316.6934179425096 58.18181818181819 313.1394436383755 64.64646464646465 312.1963607177356 71.11111111111111 310.88203101499255 77.57575757575758 310.86396373924856 84.04040404040404 310.0035369161582 90.5050505050505 308.66170822469826 96.96969696969697 305.8714478782321 103.43434343434345 303.79316279266794 109.8989898989899 303.0244473290729 116.36363636363637 303.31529366806734 122.82828282828282 302.4901862577682 129.2929292929293 302.91324516292883 135.75757575757575 300.97569065847466 142.22222222222223 301.55638736523036 148.68686868686868 299.6311578943279 155.15151515151516 295.8211934289642 161.61616161616163 294.0784501681685 168.08080808080808 290.71614194294904 174.54545454545453 287.7123939039603 181.010101010101 287.34682189735065 187.47474747474746 286.1158347858542 193.93939393939394 284.9372969497952 200.40404040404042 282.3765317308739 206.8686868686869 277.94386337329706 213.33333333333331 278.07967704387005 219.7979797979798 276.0328182261003 226.26262626262627 276.2116820519445 232.72727272727275 274.1490217544541 239.1919191919192 270.3047322651578 245.65656565656565 268.086961208032 252.12121212121212 269.66604580380886 258.5858585858586 271.1481723483018 265.0505050505051 270.4125495162559 271.5151515151515 270.81018597055595 277.979797979798 272.1629095371847 284.44444444444446 273.5614963409412 290.9090909090909 274.92286726622444 297.37373737373736 276.29330181743353 303.83838383838383 276.46435370648544 310.3030303030303 274.63326650264344 316.7676767676768 273.7990781733248 323.23232323232327 272.04439058392074 329.6969696969697 270.1436020395204 336.16161616161617 268.2494764224501 342.62626262626264 268.7286094841745 349.09090909090907 266.93234099486494 355.55555555555554 266.17324291637925 362.020202020202 266.7001539604224 368.4848484848485 268.27539931469045 374.9494949494949 269.77300775061065 381.4141414141414 270.1456797179194 387.8787878787879 271.6310158729581 394.3434343434343 270.87588832169706 400.80808080808083 271.2113965672436 407.27272727272725 272.6978509781913 413.7373737373738 274.0958520156416 420.2020202020202 275.4691457841742 426.66666666666663 275.70897540022634 433.13131313131316 272.9524706694409 439.5959595959596 274.36093048373056 446.0606060606061 275.70978214411775 452.52525252525254 277.0617091598136 458.98989898989896 276.49362208798385 465.4545454545455 276.6994703225455 471.9191919191919 278.0211941227102 478.3838383838384 279.0984888267956 484.8484848484849 280.3469873176192 491.3131313131313 279.2673581999937 497.77777777777777 280.477532194535 504.24242424242425 281.6112983545105 510.7070707070707 281.5274707243486 517.1717171717172 282.6851652653083 523.6363636363636 283.7824391954854 530.1010101010102 284.8879520569927 536.5656565656566 282.61007419246255 543.030303030303 282.8417854150833 549.4949494949494 283.9760224856294 555.959595959596 285.0406799146091 562.4242424242424 286.10780295036847 568.8888888888889 287.1094535108602 575.3535353535353 288.1134300387108 581.8181818181818 289.0867429827735 588.2828282828283 289.94031190737775 594.7474747474747 290.85787572900455 601.2121212121212 291.71914290603377 607.6767676767677 290.3472255670737 614.1414141414141 291.2236104941444 620.6060606060606 292.1019925670222 627.070707070707 292.9283967970114 633.5353535353536 293.7284757410097 640 294.0353190518312 640 320 0 320"
      />
      
      <polygon
        fill="#244776"
        fillRule="evenodd"
        points="0 319.925674262152 6.464646464646465 319.8564689960304 12.92929292929293 319.8272329196342 19.393939393939394 318.6603029931786 25.85858585858586 318.6387623538136 32.323232323232325 318.5153626174743 38.78787878787879 318.37401978069636 45.25252525252525 316.6121805773653 51.71717171717172 316.6934179425096 58.18181818181819 313.1394436383755 64.64646464646465 312.1963607177356 71.11111111111111 310.88203101499255 77.57575757575758 310.86396373924856 84.04040404040404 310.0035369161582 90.5050505050505 308.66170822469826 96.96969696969697 305.8714478782321 103.43434343434345 303.79316279266794 109.8989898989899 303.0244473290729 116.36363636363637 303.31529366806734 122.82828282828282 302.4901862577682 129.2929292929293 302.91324516292883 135.75757575757575 300.97569065847466 142.22222222222223 301.55638736523036 148.68686868686868 299.6311578943279 155.15151515151516 295.8211934289642 161.61616161616163 294.0784501681685 168.08080808080808 290.71614194294904 174.54545454545453 287.7123939039603 181.010101010101 287.34682189735065 187.47474747474746 286.1158347858542 193.93939393939394 284.9372969497952 200.40404040404042 282.3765317308739 206.8686868686869 277.94386337329706 213.33333333333331 278.07967704387005 219.7979797979798 276.0328182261003 226.26262626262627 276.2116820519445 232.72727272727275 274.1490217544541 239.1919191919192 270.3047322651578 245.65656565656565 268.086961208032 252.12121212121212 269.66604580380886 258.5858585858586 271.1481723483018 265.0505050505051 270.4125495162559 271.5151515151515 270.81018597055595 277.979797979798 272.1629095371847 284.44444444444446 273.5614963409412 290.9090909090909 274.92286726622444 297.37373737373736 276.29330181743353 303.83838383838383 276.46435370648544 310.3030303030303 274.63326650264344 316.7676767676768 273.7990781733248 323.23232323232327 272.04439058392074 329.6969696969697 270.1436020395204 336.16161616161617 268.2494764224501 342.62626262626264 268.7286094841745 349.09090909090907 266.93234099486494 355.55555555555554 266.17324291637925 362.020202020202 266.7001539604224 368.4848484848485 268.27539931469045 374.9494949494949 269.77300775061065 381.4141414141414 270.1456797179194 387.8787878787879 271.6310158729581 394.3434343434343 270.87588832169706 400.80808080808083 271.2113965672436 407.27272727272725 272.6978509781913 413.7373737373738 274.0958520156416 420.2020202020202 275.4691457841742 426.66666666666663 275.70897540022634 433.13131313131316 272.9524706694409 439.5959595959596 274.36093048373056 446.0606060606061 275.70978214411775 452.52525252525254 277.0617091598136 458.98989898989896 276.49362208798385 465.4545454545455 276.6994703225455 471.9191919191919 278.0211941227102 478.3838383838384 279.0984888267956 484.8484848484849 280.3469873176192 491.3131313131313 279.2673581999937 497.77777777777777 280.477532194535 504.24242424242425 281.6112983545105 510.7070707070707 281.5274707243486 517.1717171717172 282.6851652653083 523.6363636363636 283.7824391954854 530.1010101010102 284.8879520569927 536.5656565656566 282.61007419246255 543.030303030303 282.8417854150833 549.4949494949494 283.9760224856294 555.959595959596 285.0406799146091 562.4242424242424 286.10780295036847 568.8888888888889 287.1094535108602 575.3535353535353 288.1134300387108 581.8181818181818 289.0867429827735 588.2828282828283 289.94031190737775 594.7474747474747 290.85787572900455 601.2121212121212 291.71914290603377 607.6767676767677 290.4027867773884 614.1414141414141 291.2775296209067 620.6060606060606 292.1542658454136 627.070707070707 292.97907446434283 633.5353535353536 293.77765565584747 640 294.08392456777204 640 320 0 320"
      />
      
      <polygon
        fill="#563d7c"
        fillRule="evenodd"
        points="0 319.925674262152 6.464646464646465 319.8564689960304 12.92929292929293 319.8272329196342 19.393939393939394 318.6603029931786 25.85858585858586 318.6387623538136 32.323232323232325 318.5153626174743 38.78787878787879 318.37401978069636 45.25252525252525 316.6121805773653 51.71717171717172 316.6934179425096 58.18181818181819 314.2496037491277 64.64646464646465 313.2726338654402 71.11111111111111 311.9264954534574 77.57575757575758 311.87654651483956 84.04040404040404 310.98521118925396 90.5050505050505 309.61436965951816 96.96969696969697 306.7950297889895 103.43434343434345 305.79142622888696 109.8989898989899 304.96171495106734 116.36363636363637 305.1934271292779 122.82828282828282 304.3146360166763 129.2929292929293 304.68200478909296 135.75757575757575 303.81183511091785 142.22222222222223 304.3059600006012 148.68686868686868 302.2994682986678 155.15151515151516 298.40805531362724 161.61616161616163 296.5863497108041 168.08080808080808 293.149921620837 174.54545454545453 290.0718839714619 181.010101010101 289.63657856579545 187.47474747474746 288.3356979682536 193.93939393939394 287.0893998720617 200.40404040404042 284.4692116576164 206.8686868686869 279.9726653035093 213.33333333333331 280.048518895959 219.7979797979798 277.9415623129254 226.26262626262627 278.0640143815575 232.72727272727275 275.944812448836 239.1919191919192 273.1750943352889 245.65656565656565 271.62231753923606 252.12121212121212 273.09348768090365 258.5858585858586 274.47431789892096 265.0505050505051 273.6371662135348 271.5151515151515 273.93637321367675 277.979797979798 275.2027776294111 284.44444444444446 276.5085740894237 290.9090909090909 277.7828459791887 297.37373737373736 279.0659812320162 303.83838383838383 279.15508820842444 310.3030303030303 277.2418678510124 316.7676767676768 276.3280531988442 323.23232323232327 274.49862327551585 329.6969696969697 272.52292059652035 336.16161616161617 270.55847538253045 342.62626262626264 270.9671277328306 349.09090909090907 269.10252984229044 355.55555555555554 268.2835091900144 362.020202020202 268.74600546318277 368.4848484848485 270.2607867427424 374.9494949494949 271.69779249204953 381.4141414141414 272.013578606276 387.8787878787879 273.44189810544896 394.3434343434343 272.6314945103814 400.80808080808083 272.915116692821 407.27272727272725 274.3495659515606 413.7373737373738 275.6987514518875 420.2020202020202 277.02311758130423 426.66666666666663 277.21551315545935 433.13131313131316 275.3902745108875 439.5959595959596 276.72432172112866 446.0606060606061 278.00332459241525 452.52525252525254 279.28524273202186 458.98989898989896 278.6514403623497 465.4545454545455 278.79142235697236 471.9191919191919 280.04929035495184 478.3838383838384 281.06664594223975 484.8484848484849 282.2550676291255 491.3131313131313 281.1190460715882 497.77777777777777 282.27269836470816 504.24242424242425 283.3516680225819 510.7070707070707 283.21978614188146 517.1717171717172 284.32582365304484 523.6363636363636 285.3746088989298 530.1010101010102 286.4315215906619 536.5656565656566 284.1080244829472 543.030303030303 284.2940114502508 549.4949494949494 285.38392024868153 555.959595959596 286.40696790455684 562.4242424242424 287.4323858137294 568.8888888888889 288.3948889403956 575.3535353535353 289.35962838365197 581.8181818181818 290.2949019157392 588.2828282828283 291.1151115067482 594.7474747474747 291.9968152264034 601.2121212121212 292.8244216994023 607.6767676767677 291.47432749477383 614.1414141414141 292.31740157672806 620.6060606060606 293.16239629153995 627.070707070707 293.9564323483371 633.5353535353536 294.7261282162982 640 295.02131937576104 640 320 0 320"
      />
      
      <polygon
        fill="#178600"
        fillRule="evenodd"
        points="0 320 6.464646464646465 320 12.92929292929293 320 19.393939393939394 320 25.85858585858586 320 32.323232323232325 320 38.78787878787879 320 45.25252525252525 320 51.71717171717172 320 58.18181818181819 318.73032861777824 64.64646464646465 318.76908468104466 71.11111111111111 318.80546377105924 77.57575757575758 318.8419262542703 84.04040404040404 318.87727573217876 90.5050505050505 318.91045730551065 96.96969696969697 318.9437148841991 103.43434343434345 318.97493293615656 109.8989898989899 319.0062225032258 116.36363636363637 319.0365569633722 122.82828282828282 319.0640955628299 129.2929292929293 319.09266354834017 135.75757575757575 319.1194793519615 142.22222222222223 319.14635676544054 148.68686868686868 319.1715857555937 155.15151515151516 319.1856777569892 161.61616161616163 319.21053446783 168.08080808080808 319.23386671487185 174.54545454545453 319.2572524543953 181.010101010101 319.27920398712297 187.47474747474746 318.19414078962063 193.93939393939394 318.2492635999701 200.40404040404042 318.2976042397608 206.8686868686869 316.13887455872646 213.33333333333331 316.24748536041096 219.7979797979798 316.3620285872193 226.26262626262627 316.46954673869277 232.72727272727275 316.57731202830814 239.1919191919192 316.241560395053 245.65656565656565 315.6381785605404 252.12121212121212 315.7713204840791 258.5858585858586 315.89629704643136 265.0505050505051 316.02155997748537 271.5151515151515 316.14299952160206 277.979797979798 316.24949766824375 284.44444444444446 316.36397977840204 290.9090909090909 316.47144049173255 297.37373737373736 316.57914781917185 303.83838383838383 316.6802489895386 310.3030303030303 315.97581178104616 316.7676767676768 316.0986477193708 323.23232323232327 314.3108445231604 329.6969696969697 314.48450284005617 336.16161616161617 313.5209116150747 342.62626262626264 313.7186817245559 349.09090909090907 313.91041558869927 355.55555555555554 312.97612408445343 362.020202020202 313.19052354327505 368.4848484848485 313.39177361302984 374.9494949494949 313.5934863013013 381.4141414141414 313.7828273273463 387.8787878787879 313.97260270494354 394.3434343434343 314.1565859133473 400.80808080808083 314.3292846639009 407.27272727272725 314.5023799739693 413.7373737373738 314.66485953358307 420.2020202020202 314.8277113314086 426.66666666666663 314.9855926440142 433.13131313131316 313.21290322135854 439.5959595959596 313.4200757185068 446.0606060606061 313.6145416448721 452.52525252525254 313.80945371867307 458.98989898989896 313.19872627521755 465.4545454545455 313.40633115108744 471.9191919191919 313.6075993359488 478.3838383838384 313.7965232521595 484.8484848484849 313.98588088286255 491.3131313131313 314.1636248087721 497.77777777777777 314.3417770695295 504.24242424242425 314.51449099649403 510.7070707070707 314.66595486561084 517.1717171717172 314.8287738137507 523.6363636363636 314.98160623139256 530.1010101010102 315.13478985399416 536.5656565656566 315.27857848704383 543.030303030303 315.4226972609757 549.4949494949494 315.56241682801874 555.959595959596 315.6935672611983 562.4242424242424 315.82501853050456 568.8888888888889 315.94840793003317 575.3535353535353 316.07208033828636 581.8181818181818 316.1919778172555 588.2828282828283 316.29712362957423 594.7474747474747 316.4101518971064 601.2121212121212 316.5162479561974 607.6767676767677 316.62258777290276 614.1414141414141 316.7224050928861 620.6060606060606 316.8224517544347 627.070707070707 316.9194446076847 633.5353535353536 317.01048878050807 640 317.0454050063064 640 320 0 320"
      />
      
      <polygon
        fill="#555555"
        fillRule="evenodd"
        points="0 320 6.464646464646465 320 12.92929292929293 320 19.393939393939394 320 25.85858585858586 320 32.323232323232325 320 38.78787878787879 320 45.25252525252525 320 51.71717171717172 320 58.18181818181819 318.73032861777824 64.64646464646465 318.76908468104466 71.11111111111111 318.80546377105924 77.57575757575758 318.8419262542703 84.04040404040404 318.87727573217876 90.5050505050505 318.91045730551065 96.96969696969697 318.9437148841991 103.43434343434345 318.97493293615656 109.8989898989899 319.0062225032258 116.36363636363637 319.0365569633722 122.82828282828282 319.0640955628299 129.2929292929293 319.09266354834017 135.75757575757575 319.1194793519615 142.22222222222223 319.14635676544054 148.68686868686868 319.1715857555937 155.15151515151516 319.1856777569892 161.61616161616163 319.21053446783 168.08080808080808 319.23386671487185 174.54545454545453 319.2572524543953 181.010101010101 319.27920398712297 187.47474747474746 318.19414078962063 193.93939393939394 318.2492635999701 200.40404040404042 318.2976042397608 206.8686868686869 317.24284922882146 213.33333333333331 317.3188325965386 219.7979797979798 317.4006735862167 226.26262626262627 317.4774952117402 232.72727272727275 317.55449338505815 239.1919191919192 317.18891378510546 245.65656565656565 316.55753347608606 252.12121212121212 316.662612602618 258.5858585858586 316.7612474572191 265.0505050505051 316.8601083653343 271.5151515151515 316.95595166453865 277.979797979798 317.0400028821764 284.44444444444446 317.13035523877 290.9090909090909 317.2151661503427 297.37373737373736 317.30017167344084 303.83838383838383 317.3799634263621 310.3030303030303 317.4599386936362 316.7676767676768 317.53747248020574 323.23232323232327 316.5057096804472 329.6969696969697 316.61237097607517 336.16161616161617 315.5858916634523 342.62626262626264 315.72062952480104 349.09090909090907 315.8512550617207 355.55555555555554 314.8633736673807 362.020202020202 315.0201660596583 368.4848484848485 315.16734207379227 374.9494949494949 315.31485658251336 381.4141414141414 315.4533233404306 387.8787878787879 315.5921077240855 394.3434343434343 315.7266564197435 400.80808080808083 315.85295265168594 407.27272727272725 315.9795388897368 413.7373737373738 316.09836176167533 420.2020202020202 316.21745668901826 426.66666666666663 316.33291690190686 433.13131313131316 315.5852547063003 439.5959595959596 315.72001250145894 446.0606060606061 315.84650495812684 452.52525252525254 315.97328789356044 458.98989898989896 316.0922955128711 465.4545454545455 316.21157593767265 471.9191919191919 316.3272155651254 478.3838383838384 316.4357624553163 484.8484848484849 316.5445588263856 491.3131313131313 316.6466825087231 497.77777777777777 316.74904067020566 504.24242424242425 316.84827446386765 510.7070707070707 316.93529869622313 517.1717171717172 317.02884714125224 523.6363636363636 317.11665773158217 530.1010101010102 317.20467002329775 536.5656565656566 317.28728456810137 543.030303030303 317.3700886896021 549.4949494949494 317.4503653273112 555.959595959596 317.5257183550792 562.4242424242424 317.60124429323525 568.8888888888889 317.67213820993317 575.3535353535353 317.7431949159867 581.8181818181818 317.81208249471956 588.2828282828283 317.87249457711965 594.7474747474747 317.937435508099 601.2121212121212 317.9983934069842 607.6767676767677 318.05949159262525 614.1414141414141 318.1168420884307 620.6060606060606 318.1743244145356 627.070707070707 318.23005212353866 633.5353535353536 318.2823619239578 640 318.3024232485758 640 320 0 320"
      />
      
      <polygon
        fill="#C1F12E"
        fillRule="evenodd"
        points="0 320 6.464646464646465 320 12.92929292929293 320 19.393939393939394 320 25.85858585858586 320 32.323232323232325 320 38.78787878787879 320 45.25252525252525 320 51.71717171717172 320 58.18181818181819 319.0077745763789 64.64646464646465 319.0380617399651 71.11111111111111 319.0664913601743 77.57575757575758 319.0949861248963 84.04040404040404 319.12261109734675 90.5050505050505 319.1485419014601 96.96969696969697 319.1745320959967 103.43434343434345 319.1989284591311 109.8989898989899 319.22338068830885 116.36363636363637 319.2470865401587 122.82828282828282 319.268607451217 129.2929292929293 319.2909328353565 135.75757575757575 319.3118888900587 142.22222222222223 319.33289311470975 148.68686868686868 319.35260911175936 155.15151515151516 319.3611754816049 161.61616161616163 319.3806752276427 168.08080808080808 319.39897905811415 174.54545454545453 319.41732484206284 181.010101010101 319.43454552684597 187.47474747474746 319.4408447751724 193.93939393939394 319.45791265805514 200.40404040404042 319.4728806065429 206.8686868686869 319.4862107767701 213.33333333333331 319.50139551057794 219.7979797979798 319.51661513882823 226.26262626262627 319.53090132019236 232.72727272727275 319.5452202998664 239.1919191919192 319.30910740431847 245.65656565656565 318.6150659859362 252.12121212121212 318.65734015086906 258.5858585858586 318.6970218930008 265.0505050505051 318.7367944675446 271.5151515151515 318.77535292921414 277.979797979798 318.80916755513726 284.44444444444446 318.84551696021543 290.9090909090909 318.87963722076483 297.37373737373736 318.91383567527987 303.83838383838383 318.9459366100624 310.3030303030303 318.97811132049185 316.7676767676768 319.00930382840227 323.23232323232327 319.0385833070732 329.6969696969697 319.0679300880404 336.16161616161617 319.0954769692769 342.62626262626264 319.1230869399941 349.09090909090907 319.14985434761303 355.55555555555554 319.17332815553056 362.020202020202 319.1985618208814 368.4848484848485 319.22224788277356 374.9494949494949 319.24598833108627 381.4141414141414 319.2682727276135 387.8787878787879 319.29060831498657 394.3434343434343 319.3122620838603 400.80808080808083 319.33258781916373 407.27272727272725 319.3529601420414 413.7373737373738 319.3720831390724 420.2020202020202 319.3912498774584 426.66666666666663 319.409831671551 433.13131313131316 318.5742205819645 439.5959595959596 318.61774163753114 446.0606060606061 318.6585936176051 452.52525252525254 318.69953930713586 458.98989898989896 318.7379737476274 465.4545454545455 318.77649624623785 471.9191919191919 318.81384306107145 478.3838383838384 318.84889923454534 484.8484848484849 318.88403596527155 491.3131313131313 318.917017583995 497.77777777777777 318.9500751361488 504.24242424242425 318.98212356486516 510.7070707070707 319.0102285927784 517.1717171717172 319.04044095320165 523.6363636363636 319.06880008581516 530.1010101010102 319.09722436294135 536.5656565656566 319.1239054592186 543.030303030303 319.15064779544775 549.4949494949494 319.17657387298766 555.959595959596 319.200909705156 562.4242424242424 319.22530151639455 568.8888888888889 319.24819728492605 575.3535353535353 319.27114569310083 581.8181818181818 319.2933934997843 588.2828282828283 319.3129040758405 594.7474747474747 319.3338772900595 601.2121212121212 319.35356418785676 607.6767676767677 319.3732963271823 614.1414141414141 319.3918181246172 620.6060606060606 319.410382563965 627.070707070707 319.42838029742796 633.5353535353536 319.44527419103093 640 319.45175319300176 640 320 0 320"
      />
      

      
        <g id="labels">
        
          
          <text x="0" y="330">
            Jul 2014
          </text>
          
        
          
        
          
        
          
        
          
        
          
        
          
        
          
        
          
        
          
        
          
        
          
        
          
        
          
          <text x="83.2" y="330">
            Aug 2015
          </text>
          
        
          
        
          
        
          
        
          
        
          
        
          
        
          
        
          
        
          
        
          
        
          
        
          
        
          
          <text x="166.4" y="330">
            Sep 2016
          </text>
          
        
          
        
          
        
          
        
          
        
          
        
          
        
          
        
          
        
          
        
          
        
          
        
          
        
          
          <text x="249.6" y="330">
            Oct 2017
          </text>
          
        
          
        
          
        
          
        
          
        
          
        
          
        
          
        
          
        
          
        
          
        
          
        
          
        
          
          <text x="332.8" y="330">
            Nov 2018
          </text>
          
        
          
        
          
        
          
        
          
        
          
        
          
        
          
        
          
        
          
        
          
        
          
        
          
        
          
          <text x="416" y="330">
            Dec 2019
          </text>
          
        
          
        
          
        
          
        
          
        
          
        
          
        
          
        
          
        
          
        
          
        
          
        
          
        
          
          <text x="499.2" y="330">
            Jan 2021
          </text>
          
        
          
        
          
        
          
        
          
        
          
        
          
        
          
        
          
        
          
        
          
        
          
        
          
        
          
          <text x="582.4" y="330">
            Feb 2022
          </text>
          
        
          
        
          
        
          
        
          
        
          
        
          
        
          
        
          
        
        </g>
      

      
        <text text-anchor="middle" y="370" x="320" id="legend">
          
          <tspan xml:space="preserve" fill="#C1F12E">   </tspan> Batchfile
          
          <tspan xml:space="preserve" fill="#555555">   </tspan> C
          
          <tspan xml:space="preserve" fill="#178600">   </tspan> C#
          
          <tspan xml:space="preserve" fill="#563d7c">   </tspan> CSS
          
          <tspan xml:space="preserve" fill="#244776">   </tspan> CoffeeScript
          
          <tspan xml:space="preserve" fill="#00ADD8">   </tspan> Go
          
          <tspan xml:space="preserve" fill="#e34c26">   </tspan> HTML
          
          <tspan xml:space="preserve" fill="#22e4e8">   </tspan> JSON
          
        </text>
      
        <text text-anchor="middle" y="400" x="320" id="legend">
          
          <tspan xml:space="preserve" fill="#22e8e8">   </tspan> JSon
          
          <tspan xml:space="preserve" fill="#f1e05a">   </tspan> JavaScript
          
          <tspan xml:space="preserve" fill="#2415b9">   </tspan> Less
          
          <tspan xml:space="preserve" fill="#755462">   </tspan> MySQL
          
          <tspan xml:space="preserve" fill="#4F5D95">   </tspan> PHP
          
          <tspan xml:space="preserve" fill="#fd2fdb">   </tspan> PLpgSQL
          
          <tspan xml:space="preserve" fill="#0298c3">   </tspan> Perl
          
          <tspan xml:space="preserve" fill="#3572A5">   </tspan> Python
          
        </text>
      
        <text text-anchor="middle" y="430" x="320" id="legend">
          
          <tspan xml:space="preserve" fill="#701516">   </tspan> Ruby
          
          <tspan xml:space="preserve" fill="#dea584">   </tspan> Rust
          
          <tspan xml:space="preserve" fill="#26c0b0">   </tspan> SCSS
          
          <tspan xml:space="preserve" fill="#0141ae">   </tspan> SQL
          
          <tspan xml:space="preserve" fill="#89e051">   </tspan> Shell
          
          <tspan xml:space="preserve" fill="#2770da">   </tspan> TSQL
          
          <tspan xml:space="preserve" fill="#2b7489">   </tspan> TypeScript
          
          <tspan xml:space="preserve" fill="#2c3e50">   </tspan> Vue
          
        </text>
      
        <text text-anchor="middle" y="460" x="320" id="legend">
          
          <tspan xml:space="preserve" fill="#4B6C4B">   </tspan> Yacc
          
        </text>
      

    </svg>