<svg
      xmlns="http://www.w3.org/2000/svg"
      viewBox="0 0 640 490"
      style="background-color: #292b3e"
    >
      <style>
        text {
          font-size: 12px;
          font-family: Open Sans, Helvetica Neue, Helvetica, Arial, sans-serif;
        }
        #labels text {
          dominant-baseline: hanging;
          font-size: 10px;
          fill: rgba(0,0,0,0.5);
        }
        #legend {
          font-weight: 600;
        }
        #legend tspan {
          font-size: 15px;
        }
        #branding-text {
          font-size: 9px;
          dominant-baseline: hanging;
          opacity: 0.5;
        }
        #branding-logo {
          opacity: 0.5;
        }
      </style>

      
      
      <polygon
        fill="#4B6C4B"
        fillRule="evenodd"
        points="0 313.61355151954564 6.530612244897958 304.26911751604763 13.061224489795917 297.26805011387296 19.591836734693878 285.938828244025 26.122448979591834 278.82801241886443 32.6530612244898 274.98420291585893 39.183673469387756 267.0907590675552 45.71428571428571 257.07883329327376 52.24489795918367 246.2221647132777 58.775510204081634 230.99233559374284 65.3061224489796 221.54627578235838 71.83673469387755 206.62810491169353 78.36734693877551 198.2773159067409 84.89795918367348 192.1704184360703 91.42857142857142 182.1295360374435 97.9591836734694 170.61728602878014 104.48979591836734 156.9519325972609 111.0204081632653 154.8042341855921 117.55102040816327 149.88795173086083 124.08163265306122 142.52570010000773 130.6122448979592 138.2862129252067 137.14285714285714 123.78696370790715 143.6734693877551 127.17496969620521 150.20408163265307 110.77259694565987 156.73469387755102 93.0572828638987 163.26530612244898 88.01895702040036 169.79591836734696 78.1063877894039 176.32653061224488 68.78378687272271 182.85714285714283 65.97385342083996 189.3877551020408 62.13356893379256 195.9183673469388 59.189153797110464 202.44897959183675 46.68392576795543 208.97959183673467 33.29414622972871 215.51020408163265 31.646577610064696 222.0408163265306 27.41469760830273 228.57142857142858 27.528890832955085 235.10204081632654 25.251311081458766 241.63265306122446 13.936310914628393 248.16326530612244 9.643205139435167 254.69387755102042 9.883925078147968 261.2244897959184 12.938018607468166 267.7551020408163 8.247044884623506 274.2857142857143 10.710374086125057 280.81632653061223 10.159215436641603 287.3469387755102 11.455678422038545 293.8775510204082 14.195839795364918 300.40816326530614 17.693262551224166 306.9387755102041 18.067996151508282 313.46938775510205 12.03870055711576 320 13.322593811781132 326.53061224489795 11.29278547498501 333.0612244897959 7.029633111374892 339.5918367346939 1.9719146629002466 346.12244897959187 4.695513530688572 352.65306122448976 0.06669991845814138 359.1836734693877 0 365.71428571428567 3.134284780661062 372.2448979591837 11.121760516198776 378.7755102040816 13.49982145829199 385.3061224489796 18.048095601227715 391.8367346938776 21.314721156087785 398.36734693877554 21.568552931630848 404.8979591836735 27.066533706913958 411.42857142857144 30.681079147139997 417.95918367346934 36.747929880833965 424.48979591836735 42.80371759975242 431.0204081632653 46.9604250492813 437.55102040816325 38.514931652546466 444.0816326530612 42.63123458456812 450.61224489795916 50.615569945794164 457.14285714285717 58.068992703265224 463.6734693877551 55.54212676302467 470.2040816326531 58.40787449157392 476.7346938775511 64.84935304730882 483.2653061224489 68.96529020513691 489.7959183673469 76.40573619315657 496.3265306122449 74.31948586836688 502.85714285714283 74.9907698992591 509.38775510204084 75.05204479730182 515.9183673469388 74.4904412211693 522.4489795918367 78.43677735825133 528.9795918367347 85.33624010385199 535.5102040816327 88.56509435728941 542.0408163265306 82.02555501154038 548.5714285714286 83.08754029534552 555.1020408163265 90.29416568334415 561.6326530612245 88.15330168122483 568.1632653061224 86.74199873991193 574.6938775510204 87.7661820038841 581.2244897959183 85.90007340793093 587.7551020408164 86.43109784795786 594.2857142857143 86.68139483812678 600.8163265306123 89.27138712303346 607.3469387755102 85.21671457658078 613.8775510204082 69.72135163792859 620.4081632653061 69.36929539617472 626.9387755102041 67.00840528449544 633.469387755102 64.10056933492027 640 61.899610299337326 640 320 0 320"
      />
      
      <polygon
        fill="#2c3e50"
        fillRule="evenodd"
        points="0 313.61355151954564 6.530612244897958 304.26911751604763 13.061224489795917 297.26805011387296 19.591836734693878 285.938828244025 26.122448979591834 278.82801241886443 32.6530612244898 274.98420291585893 39.183673469387756 267.0907590675552 45.71428571428571 257.07883329327376 52.24489795918367 246.2221647132777 58.775510204081634 230.99233559374284 65.3061224489796 221.54627578235838 71.83673469387755 206.62810491169353 78.36734693877551 198.2773159067409 84.89795918367348 192.1704184360703 91.42857142857142 182.1295360374435 97.9591836734694 170.61728602878014 104.48979591836734 156.9519325972609 111.0204081632653 154.8042341855921 117.55102040816327 149.88795173086083 124.08163265306122 142.52570010000773 130.6122448979592 138.2862129252067 137.14285714285714 123.78696370790715 143.6734693877551 127.17496969620521 150.20408163265307 110.77259694565987 156.73469387755102 93.0572828638987 163.26530612244898 88.01895702040036 169.79591836734696 78.1063877894039 176.32653061224488 68.78378687272271 182.85714285714283 65.97385342083996 189.3877551020408 62.13356893379256 195.9183673469388 59.189153797110464 202.44897959183675 46.68392576795543 208.97959183673467 33.29414622972871 215.51020408163265 31.646577610064696 222.0408163265306 27.41469760830273 228.57142857142858 27.528890832955085 235.10204081632654 25.251311081458766 241.63265306122446 13.936310914628393 248.16326530612244 9.643205139435167 254.69387755102042 9.883925078147968 261.2244897959184 12.938018607468166 267.7551020408163 8.247044884623506 274.2857142857143 10.710374086125057 280.81632653061223 10.159215436641603 287.3469387755102 11.455678422038545 293.8775510204082 14.195839795364918 300.40816326530614 17.693262551224166 306.9387755102041 18.067996151508282 313.46938775510205 12.03870055711576 320 13.322593811781132 326.53061224489795 11.29278547498501 333.0612244897959 7.029633111374892 339.5918367346939 1.9719146629002466 346.12244897959187 4.695513530688572 352.65306122448976 0.06669991845814138 359.1836734693877 0 365.71428571428567 3.134284780661062 372.2448979591837 11.121760516198776 378.7755102040816 13.49982145829199 385.3061224489796 18.048095601227715 391.8367346938776 21.314721156087785 398.36734693877554 21.568552931630848 404.8979591836735 27.066533706913958 411.42857142857144 30.681079147139997 417.95918367346934 36.747929880833965 424.48979591836735 42.80371759975242 431.0204081632653 46.9604250492813 437.55102040816325 38.514931652546466 444.0816326530612 42.63123458456812 450.61224489795916 50.615569945794164 457.14285714285717 58.068992703265224 463.6734693877551 56.64271355666381 470.2040816326531 59.47486654934255 476.7346938775511 65.88377572734697 483.2653061224489 69.96914110115142 489.7959183673469 77.37894512580993 496.3265306122449 75.26393206153156 502.85714285714283 75.90638748916444 509.38775510204084 75.93971364583308 515.9183673469388 75.35360001311608 522.4489795918367 79.27358879239083 528.9795918367347 86.14832003117522 535.5102040816327 89.35238599726634 542.0408163265306 82.78957865618113 548.5714285714286 83.82824258574826 555.1020408163265 91.01225847226544 561.6326530612245 88.85017161167866 568.1632653061224 87.41759710764353 574.6938775510204 88.42181340476083 581.2244897959183 86.5356920455682 587.7551020408164 87.04731460112242 594.2857142857143 87.28059681126183 600.8163265306123 89.85229884007279 607.3469387755102 85.78045773555749 613.8775510204082 70.2678868952579 620.4081632653061 69.89967805181081 626.9387755102041 67.52259832731468 633.469387755102 64.59906693843092 640 62.3859075897787 640 320 0 320"
      />
      
      <polygon
        fill="#2b7489"
        fillRule="evenodd"
        points="0 313.61355151954564 6.530612244897958 304.26911751604763 13.061224489795917 297.26805011387296 19.591836734693878 285.938828244025 26.122448979591834 278.82801241886443 32.6530612244898 274.98420291585893 39.183673469387756 267.0907590675552 45.71428571428571 257.07883329327376 52.24489795918367 246.2221647132777 58.775510204081634 230.99233559374284 65.3061224489796 221.54627578235838 71.83673469387755 206.62810491169353 78.36734693877551 198.2773159067409 84.89795918367348 192.1704184360703 91.42857142857142 182.1295360374435 97.9591836734694 170.61728602878014 104.48979591836734 156.9519325972609 111.0204081632653 154.8042341855921 117.55102040816327 149.88795173086083 124.08163265306122 142.52570010000773 130.6122448979592 138.2862129252067 137.14285714285714 123.78696370790715 143.6734693877551 127.17496969620521 150.20408163265307 110.77259694565987 156.73469387755102 93.0572828638987 163.26530612244898 88.01895702040036 169.79591836734696 78.1063877894039 176.32653061224488 68.78378687272271 182.85714285714283 65.97385342083996 189.3877551020408 62.13356893379256 195.9183673469388 59.189153797110464 202.44897959183675 46.68392576795543 208.97959183673467 33.29414622972871 215.51020408163265 31.646577610064696 222.0408163265306 27.41469760830273 228.57142857142858 27.528890832955085 235.10204081632654 25.251311081458766 241.63265306122446 13.936310914628393 248.16326530612244 9.643205139435167 254.69387755102042 9.883925078147968 261.2244897959184 12.938018607468166 267.7551020408163 8.247044884623506 274.2857142857143 10.710374086125057 280.81632653061223 10.159215436641603 287.3469387755102 11.455678422038545 293.8775510204082 14.195839795364918 300.40816326530614 17.693262551224166 306.9387755102041 18.067996151508282 313.46938775510205 12.03870055711576 320 13.322593811781132 326.53061224489795 11.29278547498501 333.0612244897959 7.029633111374892 339.5918367346939 1.9719146629002466 346.12244897959187 4.695513530688572 352.65306122448976 0.06669991845814138 359.1836734693877 0 365.71428571428567 3.134284780661062 372.2448979591837 11.121760516198776 378.7755102040816 13.49982145829199 385.3061224489796 18.048095601227715 391.8367346938776 21.314721156087785 398.36734693877554 21.568552931630848 404.8979591836735 27.066533706913958 411.42857142857144 30.681079147139997 417.95918367346934 36.747929880833965 424.48979591836735 42.80371759975242 431.0204081632653 46.9604250492813 437.55102040816325 38.514931652546466 444.0816326530612 42.63123458456812 450.61224489795916 50.615569945794164 457.14285714285717 58.068992703265224 463.6734693877551 56.64271355666381 470.2040816326531 59.47486654934255 476.7346938775511 65.88377572734697 483.2653061224489 69.96914110115142 489.7959183673469 77.37894512580993 496.3265306122449 75.26393206153156 502.85714285714283 75.90638748916444 509.38775510204084 75.93971364583308 515.9183673469388 75.35360001311608 522.4489795918367 79.27358879239083 528.9795918367347 86.14832003117522 535.5102040816327 89.35238599726634 542.0408163265306 84.99968320636333 548.5714285714286 87.49751242924177 555.1020408163265 94.56952558654297 561.6326530612245 94.67103575511595 568.1632653061224 95.57908107936959 574.6938775510204 99.33782404612597 581.2244897959183 99.23027058580459 587.7551020408164 100.2908152668027 594.2857142857143 100.92505063054796 600.8163265306123 103.11109819033805 607.3469387755102 98.64740669578327 613.8775510204082 83.41168974591244 620.4081632653061 83.12840817609069 626.9387755102041 80.3700296225735 633.469387755102 77.05433856135721 640 74.53634914622697 640 320 0 320"
      />
      
      <polygon
        fill="#2770da"
        fillRule="evenodd"
        points="0 313.61355151954564 6.530612244897958 304.26911751604763 13.061224489795917 297.26805011387296 19.591836734693878 285.938828244025 26.122448979591834 278.82801241886443 32.6530612244898 274.98420291585893 39.183673469387756 267.0907590675552 45.71428571428571 257.07883329327376 52.24489795918367 246.2221647132777 58.775510204081634 230.99233559374284 65.3061224489796 221.54627578235838 71.83673469387755 206.62810491169353 78.36734693877551 198.2773159067409 84.89795918367348 192.1704184360703 91.42857142857142 182.1295360374435 97.9591836734694 170.61728602878014 104.48979591836734 156.9519325972609 111.0204081632653 154.8042341855921 117.55102040816327 149.88795173086083 124.08163265306122 142.52570010000773 130.6122448979592 138.2862129252067 137.14285714285714 123.78696370790715 143.6734693877551 127.17496969620521 150.20408163265307 110.77259694565987 156.73469387755102 93.0572828638987 163.26530612244898 88.01895702040036 169.79591836734696 78.1063877894039 176.32653061224488 68.78378687272271 182.85714285714283 65.97385342083996 189.3877551020408 62.13356893379256 195.9183673469388 59.189153797110464 202.44897959183675 46.68392576795543 208.97959183673467 33.29414622972871 215.51020408163265 31.646577610064696 222.0408163265306 27.41469760830273 228.57142857142858 27.528890832955085 235.10204081632654 25.251311081458766 241.63265306122446 14.574519817157181 248.16326530612244 11.080215237155471 254.69387755102042 11.277071240355042 261.2244897959184 14.289991076352976 267.7551020408163 9.55774912872107 274.2857142857143 11.981069737205928 280.81632653061223 11.394825220743769 287.3469387755102 12.653571898397843 293.8775510204082 15.35833021057988 300.40816326530614 18.8202686287853 306.9387755102041 19.161694170141516 313.46938775510205 13.099014069636382 320 14.350541908482057 326.53061224489795 12.290353008375746 333.0612244897959 7.99675051862738 339.5918367346939 2.910449351453849 346.12244897959187 5.605400047778971 352.65306122448976 0.9488126801362569 359.1836734693877 0.8577561132210008 365.71428571428567 3.9658583496288884 372.2448979591837 11.928757445550275 378.7755102040816 14.282185234651422 385.3061224489796 18.807337084008964 391.8367346938776 22.050787171341824 398.36734693877554 22.282150995997085 404.8979591836735 27.75904179117191 411.42857142857144 31.352448803913887 417.95918367346934 37.39945754751483 424.48979591836735 43.43535778821024 431.0204081632653 47.57278477482316 437.55102040816325 40.23047295768913 444.0816326530612 44.29440977368853 450.61224489795916 52.22959103366924 457.14285714285717 59.633746663143256 463.6734693877551 58.16122190186957 470.2040816326531 60.94702334298427 476.7346938775511 67.31099575609971 483.2653061224489 71.35418047097684 489.7959183673469 78.72170694195648 496.3265306122449 76.5670093631837 502.85714285714283 77.1696890329082 509.38775510204084 77.16445364723526 515.9183673469388 76.54452292420189 522.4489795918367 80.42815952587375 528.9795918367347 87.26876798835451 535.5102040816327 90.43863298418023 542.0408163265306 86.05382679401805 548.5714285714286 88.51947884199404 555.1020408163265 95.56029692411244 561.6326530612245 95.63252545765539 568.1632653061224 96.51122184458603 574.6938775510204 100.24241587641413 581.2244897959183 100.10725028893523 587.7551020408164 101.141025662712 594.2857142857143 101.75178542152881 600.8163265306123 103.9125973238148 607.3469387755102 99.42521789844105 613.8775510204082 84.17685591633409 620.4081632653061 84.13464270354456 626.9387755102041 81.54089151827202 633.469387755102 78.21148815430493 640 75.66517855079434 640 320 0 320"
      />
      
      <polygon
        fill="#89e051"
        fillRule="evenodd"
        points="0 313.61355151954564 6.530612244897958 304.90984705898904 13.061224489795917 298.3344803259346 19.591836734693878 288.0768275835365 26.122448979591834 281.2713561993253 32.6530612244898 277.352965275025 39.183673469387756 269.99995483211467 45.71428571428571 260.0717499250128 52.24489795918367 250.1732120980022 58.775510204081634 235.18160668849092 65.3061224489796 226.78749373846836 71.83673469387755 213.32788274873263 78.36734693877551 205.81368076844183 84.89795918367348 200.4221059756889 91.42857142857142 190.45088247782215 97.9591836734694 178.6846304301171 104.48979591836734 164.78084973766988 111.0204081632653 162.39417948163364 117.55102040816327 158.35641430486095 124.08163265306122 150.8294970821709 130.6122448979592 146.4703186875047 137.14285714285714 132.5870200556448 143.6734693877551 135.70640923491482 150.20408163265307 119.05189589317487 156.73469387755102 102.4344466126199 163.26530612244898 97.17065952612904 169.79591836734696 87.08407903496499 176.32653061224488 77.51849834530518 182.85714285714283 74.59637556731465 189.3877551020408 71.29282224303677 195.9183673469388 68.12748604522176 202.44897959183675 55.43678830932657 208.97959183673467 42.60300688495096 215.51020408163265 40.816464270594906 222.0408163265306 36.304679580875586 228.57142857142858 36.657270371245716 235.10204081632654 34.26591480905586 241.63265306122446 23.330793711394335 248.16326530612244 19.76863876140959 254.69387755102042 20.33191043648469 261.2244897959184 23.771803622825644 267.7551020408163 19.35800838269006 274.2857142857143 21.65739474705515 280.81632653061223 22.197858431287898 287.3469387755102 24.033489538970116 293.8775510204082 26.401918873032685 300.40816326530614 29.526760039462715 306.9387755102041 29.794832760313852 313.46938775510205 23.469402452945985 320 24.70103388445534 326.53061224489795 22.404301160108787 333.0612244897959 17.80197945611195 339.5918367346939 12.431537666586564 346.12244897959187 14.835859183005994 352.65306122448976 10.202379620967008 359.1836734693877 9.855813751901849 365.71428571428567 12.717408753165728 372.2448979591837 20.455540384846188 378.7755102040816 22.80231028176945 385.3061224489796 27.11147828400658 391.8367346938776 30.808752356789114 398.36734693877554 30.772783664569147 404.8979591836735 35.998740788753025 411.42857142857144 39.34063399501372 417.95918367346934 45.23240666040766 424.48979591836735 51.029211754824814 431.0204081632653 55.0696303465902 437.55102040816325 47.5378610334169 444.0816326530612 51.37874530925171 450.61224489795916 59.10455314305426 457.14285714285717 66.2988550854075 463.6734693877551 64.91776937717273 470.2040816326531 67.49733069916635 476.7346938775511 73.66135858322411 483.2653061224489 78.63285461422231 489.7959183673469 85.77820234457872 496.3265306122449 83.41495242760226 502.85714285714283 83.84704750001242 509.38775510204084 83.63798665763863 515.9183673469388 82.8393122443488 522.4489795918367 87.04899331451008 528.9795918367347 93.6939241105571 535.5102040816327 96.66766775857326 542.0408163265306 92.09876431468996 548.5714285714286 94.3798984439257 555.1020408163265 101.2418290863099 561.6326530612245 101.14614405018165 568.1632653061224 101.8565408297087 574.6938775510204 105.42975634332993 581.2244897959183 105.13625024378442 587.7551020408164 106.01651710187636 594.2857142857143 106.49265799224287 600.8163265306123 108.50875670964604 607.3469387755102 104.55195105787016 613.8775510204082 89.1470984006136 620.4081632653061 88.95799202515798 626.9387755102041 86.21701167951238 633.469387755102 82.74487227680251 640 80.08761263413948 640 320 0 320"
      />
      
      <polygon
        fill="#0141ae"
        fillRule="evenodd"
        points="0 313.6957896329543 6.530612244897958 304.9895749068134 13.061224489795917 298.4118518536929 19.591836734693878 288.15459997094445 26.122448979591834 281.3468300664928 32.6530612244898 277.4261353415479 39.183673469387756 270.07089142837526 45.71428571428571 260.1686806355464 52.24489795918367 250.6255672494393 58.775510204081634 236.59145255324475 65.3061224489796 228.1653315574407 71.83673469387755 215.5629193562891 78.36734693877551 209.34789196666975 84.89795918367348 203.84843755784706 91.42857142857142 193.80955943178066 97.9591836734694 182.16689011499793 104.48979591836734 169.20015945334646 111.0204081632653 166.68969644213314 117.55102040816327 162.52081304090993 124.08163265306122 154.87486241404883 130.6122448979592 151.50327663369114 137.14285714285714 138.33056650288302 143.6734693877551 141.27463588045683 150.20408163265307 124.45555671867609 156.73469387755102 107.9820774207364 163.26530612244898 102.61898287251924 169.79591836734696 92.52516866925367 176.32653061224488 83.01585588183244 182.85714285714283 79.93126156675643 189.3877551020408 76.46486392261593 195.9183673469388 73.61548229517638 202.44897959183675 61.011297803734465 208.97959183673467 50.211190999641076 215.51020408163265 49.30690130013505 222.0408163265306 44.53595037909423 228.57142857142858 46.726428076357365 235.10204081632654 45.53601257523991 241.63265306122446 38.06192062844781 248.16326530612244 34.3798987533749 254.69387755102042 35.18790006104638 261.2244897959184 40.459268454917776 267.7551020408163 36.76707709754015 274.2857142857143 38.53506202423108 280.81632653061223 38.690243200207306 287.3469387755102 40.022449046264455 293.8775510204082 41.96041394188228 300.40816326530614 45.10766831315169 306.9387755102041 44.91802584575083 313.46938775510205 38.14214488771006 320 38.92589856841903 326.53061224489795 36.368702887655445 333.0612244897959 33.69991132774322 339.5918367346939 28.41738791069639 346.12244897959187 30.37274456446835 352.65306122448976 26.293955088509847 359.1836734693877 25.536680829661123 365.71428571428567 28.08395357234565 372.2448979591837 35.36793035844903 378.7755102040816 37.58874735346916 385.3061224489796 41.46090564082874 391.8367346938776 45.37443687996745 398.36734693877554 45.02190491693892 404.8979591836735 49.826734639874985 411.42857142857144 53.20081478243935 417.95918367346934 58.85794596657388 424.48979591836735 64.62542575653427 431.0204081632653 68.6307896150534 437.55102040816325 63.21851438786405 444.0816326530612 66.93880733988465 450.61224489795916 74.20474631205948 457.14285714285717 80.93812824399532 463.6734693877551 80.266310062341 470.2040816326531 82.7432687817932 476.7346938775511 88.441924428937 483.2653061224489 93.40772596668711 489.7959183673469 100.10207949044712 496.3265306122449 98.34485127254158 502.85714285714283 99.9404087902303 509.38775510204084 99.86327174479106 515.9183673469388 98.67435705891384 522.4489795918367 102.40068230846802 528.9795918367347 108.59190420084869 535.5102040816327 111.11088882392477 542.0408163265306 106.1151285500041 548.5714285714286 107.96842354397955 555.1020408163265 114.41556450333206 561.6326530612245 113.93054443614494 568.1632653061224 114.39440212753436 574.6938775510204 117.59706816996822 581.2244897959183 116.93216695363031 587.7551020408164 117.45236243416488 594.2857142857143 117.64298439231968 600.8163265306123 119.31872668018971 607.3469387755102 115.05072241824195 613.8775510204082 99.8007965568994 620.4081632653061 99.38384109419661 626.9387755102041 97.92054289140222 633.469387755102 95.72565869867728 640 94.27153594613117 640 320 0 320"
      />
      
      <polygon
        fill="#26c0b0"
        fillRule="evenodd"
        points="0 313.6957896329543 6.530612244897958 305.0750760069814 13.061224489795917 298.5224249280784 19.591836734693878 288.3920400459489 26.122448979591834 281.7296792115393 32.6530612244898 277.8556638773889 39.183673469387756 270.54541989050904 45.71428571428571 260.80008667367565 52.24489795918367 251.72756584995733 58.775510204081634 237.79093662425362 65.3061224489796 230.2054880564232 71.83673469387755 218.21681070537386 78.36734693877551 212.42852773554986 84.89795918367348 207.47611540628583 91.42857142857142 198.3098325729045 97.9591836734694 186.52979588532764 104.48979591836734 173.80646771670575 111.0204081632653 171.15539850175588 117.55102040816327 166.87830256930366 124.08163265306122 159.35256842844794 130.6122448979592 156.0489202541752 137.14285714285714 143.12369565642186 143.6734693877551 145.92428312144403 150.20408163265307 128.96778480206663 156.73469387755102 112.62425770350748 163.26530612244898 107.3472737162532 169.79591836734696 97.39190279570522 176.32653061224488 88.07448117578804 182.85714285714283 84.90354778020782 189.3877551020408 81.4789663350966 195.9183673469388 78.54017643708931 202.44897959183675 65.83900266259602 208.97959183673467 55.257979823915946 215.51020408163265 54.27471134596891 222.0408163265306 49.44591949856215 228.57142857142858 52.03139455888379 235.10204081632654 50.75701415555494 241.63265306122446 43.287738175896266 248.16326530612244 39.624320504134346 254.69387755102042 40.27223811897494 261.2244897959184 46.01552402619302 267.7551020408163 42.226251320337326 274.2857142857143 45.295055376935295 280.81632653061223 46.226443659360484 287.3469387755102 47.34236726767301 293.8775510204082 49.12251640360631 300.40816326530614 52.19657054048531 306.9387755102041 51.848059109578344 313.46938775510205 44.89907007786667 320 45.540350455654504 326.53061224489795 42.90209147489588 333.0612244897959 40.52996030510553 339.5918367346939 35.11179389448745 346.12244897959187 37.18661776965337 352.65306122448976 32.913590793579374 359.1836734693877 31.97353583716233 365.71428571428567 34.3299611630178 372.2448979591837 41.45128392520775 378.7755102040816 43.65068440583423 385.3061224489796 47.72245718413694 391.8367346938776 51.45043065842077 398.36734693877554 51.04927294283482 404.8979591836735 55.67596695668624 411.42857142857144 59.077822190433665 417.95918367346934 64.64963256234421 424.48979591836735 70.24032381934728 431.0204081632653 74.1192722910462 437.55102040816325 68.67700572357845 444.0816326530612 72.31805335952748 450.61224489795916 79.43591207988985 457.14285714285717 86.08171266456986 463.6734693877551 85.88891521384147 470.2040816326531 88.95218171185621 476.7346938775511 94.47247600741866 483.2653061224489 100.00828583863682 489.7959183673469 106.58866215858222 496.3265306122449 104.6397276232872 502.85714285714283 106.09861195993975 509.38775510204084 105.83350053494527 515.9183673469388 104.49632927552304 522.4489795918367 108.04494030302442 528.9795918367347 114.0804449314912 535.5102040816327 116.43189441901069 542.0408163265306 111.27887858708698 548.5714285714286 112.97455202188743 555.1020408163265 119.26888389564425 561.6326530612245 118.64042424956156 568.1632653061224 118.96051499548213 574.6938775510204 122.02823531665044 581.2244897959183 121.47124474736319 587.7551020408164 121.85288720647952 594.2857142857143 121.92200201587752 600.8163265306123 123.46995543639235 607.3469387755102 119.6608390666201 613.8775510204082 104.27018976197414 620.4081632653061 103.72114640804384 626.9387755102041 102.12545493628943 633.469387755102 99.80221612594187 640 98.24832332400061 640 320 0 320"
      />
      
      <polygon
        fill="#dea584"
        fillRule="evenodd"
        points="0 313.6957896329543 6.530612244897958 305.0750760069814 13.061224489795917 298.5224249280784 19.591836734693878 288.3920400459489 26.122448979591834 281.7296792115393 32.6530612244898 277.8556638773889 39.183673469387756 270.54541989050904 45.71428571428571 260.80008667367565 52.24489795918367 251.72756584995733 58.775510204081634 237.79093662425362 65.3061224489796 230.2054880564232 71.83673469387755 218.60520512780596 78.36734693877551 212.8050666484311 84.89795918367348 207.84116070072446 91.42857142857142 198.6640891350992 97.9591836734694 187.99623753265126 104.48979591836734 176.3319206028685 111.0204081632653 173.60376344428005 117.55102040816327 169.25193237415095 124.08163265306122 162.75990987231427 130.6122448979592 159.35225478948746 137.14285714285714 148.55739241639256 143.6734693877551 151.1921193913103 150.20408163265307 136.32717854123072 156.73469387755102 123.07435460706697 163.26530612244898 117.4783865214884 169.79591836734696 107.22359746083151 176.32653061224488 98.72224953767929 182.85714285714283 95.23662706033502 189.3877551020408 91.49663418976556 195.9183673469388 88.25206069050324 202.44897959183675 76.38155133888864 208.97959183673467 66.58282928984187 215.51020408163265 65.26486034376262 222.0408163265306 60.10059996007084 228.57142857142858 62.371182490475576 235.10204081632654 60.781185672261756 241.63265306122446 53.00592675325885 248.16326530612244 49.055292179221624 254.69387755102042 49.41533620636028 261.2244897959184 54.88840248246123 267.7551020408163 51.931250189547825 274.2857142857143 54.70381524030421 280.81632653061223 55.375410506694436 287.3469387755102 56.212068130947785 293.8775510204082 57.73007689071892 300.40816326530614 60.541392123410276 306.9387755102041 61.06428406671711 313.46938775510205 54.08979311730002 320 54.45052979497768 326.53061224489795 51.54893697831176 333.0612244897959 48.91286368318737 339.5918367346939 43.246945715641914 346.12244897959187 45.073449817574726 352.65306122448976 41.6689491711287 359.1836734693877 40.4871433507775 365.71428571428567 42.58369551435601 372.2448979591837 49.46108147523614 378.7755102040816 51.47786093426885 385.3061224489796 55.3183059701654 391.8367346938776 58.81441944879475 398.36734693877554 58.18848029475129 404.8979591836735 62.604178023775034 411.42857142857144 65.79455404021061 417.95918367346934 71.16785480905054 424.48979591836735 76.55958168443536 431.0204081632653 80.24563972939458 437.55102040816325 74.62825896616692 444.0816326530612 78.08764754092971 450.61224489795916 85.03498917177393 457.14285714285717 91.50988097786575 463.6734693877551 91.15665746600075 470.2040816326531 94.05912902466238 476.7346938775511 99.42353651618347 483.2653061224489 104.81302068178007 489.7959183673469 111.24673503014213 496.3265306122449 109.16013288390022 502.85714285714283 110.4810351897332 509.38775510204084 110.08215290518012 515.9183673469388 108.62766850874601 522.4489795918367 112.05017343172017 528.9795918367347 117.96730586251269 535.5102040816327 120.20011075788662 542.0408163265306 116.0540936170091 548.5714285714286 117.60400467041728 555.1020408163265 123.75702680028473 561.6326530612245 123.35409909029005 568.1632653061224 123.53030575392648 574.6938775510204 126.46296969036425 581.2244897959183 125.77061078251211 587.7551020408164 126.0210175721079 594.2857142857143 126.00000248650505 600.8163265306123 127.4234770794607 607.3469387755102 123.49751653094404 613.8775510204082 107.98975527690405 620.4081632653061 107.33078056310788 626.9387755102041 105.62490742860871 633.469387755102 103.19485073439506 640 101.55792457617866 640 320 0 320"
      />
      
      <polygon
        fill="#701516"
        fillRule="evenodd"
        points="0 313.6957896329543 6.530612244897958 305.0750760069814 13.061224489795917 298.5224249280784 19.591836734693878 288.3920400459489 26.122448979591834 281.7296792115393 32.6530612244898 277.8556638773889 39.183673469387756 270.54541989050904 45.71428571428571 260.80008667367565 52.24489795918367 251.72756584995733 58.775510204081634 237.79093662425362 65.3061224489796 230.2054880564232 71.83673469387755 218.60520512780596 78.36734693877551 212.8050666484311 84.89795918367348 207.84116070072446 91.42857142857142 198.6640891350992 97.9591836734694 187.99623753265126 104.48979591836734 176.3319206028685 111.0204081632653 173.60376344428005 117.55102040816327 169.25193237415095 124.08163265306122 162.75990987231427 130.6122448979592 159.35225478948746 137.14285714285714 148.55739241639256 143.6734693877551 151.1921193913103 150.20408163265307 136.32717854123072 156.73469387755102 123.07435460706697 163.26530612244898 117.4783865214884 169.79591836734696 107.22359746083151 176.32653061224488 98.72224953767929 182.85714285714283 95.23662706033502 189.3877551020408 91.49663418976556 195.9183673469388 88.25206069050324 202.44897959183675 76.38155133888864 208.97959183673467 66.58282928984187 215.51020408163265 65.26486034376262 222.0408163265306 60.10059996007084 228.57142857142858 62.371182490475576 235.10204081632654 60.781185672261756 241.63265306122446 53.00592675325885 248.16326530612244 49.055292179221624 254.69387755102042 49.41533620636028 261.2244897959184 54.88840248246123 267.7551020408163 51.931250189547825 274.2857142857143 54.70381524030421 280.81632653061223 55.375410506694436 287.3469387755102 56.212068130947785 293.8775510204082 57.73007689071892 300.40816326530614 60.541392123410276 306.9387755102041 61.06428406671711 313.46938775510205 54.08979311730002 320 54.45052979497768 326.53061224489795 51.54893697831176 333.0612244897959 48.91286368318737 339.5918367346939 43.246945715641914 346.12244897959187 45.073449817574726 352.65306122448976 41.6689491711287 359.1836734693877 40.4871433507775 365.71428571428567 42.58369551435601 372.2448979591837 49.46108147523614 378.7755102040816 51.47786093426885 385.3061224489796 55.3183059701654 391.8367346938776 58.81441944879475 398.36734693877554 58.18848029475129 404.8979591836735 62.604178023775034 411.42857142857144 65.79455404021061 417.95918367346934 71.16785480905054 424.48979591836735 76.55958168443536 431.0204081632653 80.24563972939458 437.55102040816325 74.62825896616692 444.0816326530612 78.08764754092971 450.61224489795916 85.03498917177393 457.14285714285717 91.50988097786575 463.6734693877551 91.15665746600075 470.2040816326531 94.05912902466238 476.7346938775511 99.42353651618347 483.2653061224489 104.81302068178007 489.7959183673469 111.24673503014213 496.3265306122449 109.16013288390022 502.85714285714283 110.4810351897332 509.38775510204084 110.08215290518012 515.9183673469388 108.62766850874601 522.4489795918367 112.05017343172017 528.9795918367347 117.96730586251269 535.5102040816327 120.20011075788662 542.0408163265306 116.0540936170091 548.5714285714286 117.60400467041728 555.1020408163265 123.75702680028473 561.6326530612245 123.35409909029005 568.1632653061224 123.53030575392648 574.6938775510204 126.46296969036425 581.2244897959183 125.77061078251211 587.7551020408164 126.0210175721079 594.2857142857143 126.00000248650505 600.8163265306123 127.4234770794607 607.3469387755102 123.49751653094404 613.8775510204082 108.00931150659864 620.4081632653061 107.34975881817806 626.9387755102041 105.64330638458642 633.469387755102 103.21268807174681 640 101.57532536106015 640 320 0 320"
      />
      
      <polygon
        fill="#3572A5"
        fillRule="evenodd"
        points="0 313.6957896329543 6.530612244897958 305.0750760069814 13.061224489795917 298.5224249280784 19.591836734693878 288.3920400459489 26.122448979591834 281.7296792115393 32.6530612244898 277.8556638773889 39.183673469387756 270.54541989050904 45.71428571428571 260.80008667367565 52.24489795918367 251.72756584995733 58.775510204081634 237.79093662425362 65.3061224489796 230.2054880564232 71.83673469387755 218.60520512780596 78.36734693877551 212.8050666484311 84.89795918367348 207.84116070072446 91.42857142857142 198.6640891350992 97.9591836734694 187.99623753265126 104.48979591836734 176.3319206028685 111.0204081632653 173.60376344428005 117.55102040816327 169.25193237415095 124.08163265306122 163.42153765061744 130.6122448979592 159.99368674231414 137.14285714285714 149.21628635500414 143.6734693877551 151.8309009695639 150.20408163265307 137.94832360250655 156.73469387755102 125.43992344674277 163.26530612244898 119.7717479126591 169.79591836734696 109.44917948336945 176.32653061224488 100.87989713943159 182.85714285714283 97.33050651011669 189.3877551020408 93.52659916930921 195.9183673469388 90.22006214429271 202.44897959183675 78.29521312682161 208.97959183673467 68.47394830317751 215.51020408163265 67.10008834770039 222.0408163265306 61.879808720623544 228.57142857142858 64.09780781538817 235.10204081632654 62.45510662291008 241.63265306122446 54.6287524195792 248.16326530612244 50.63015586827106 254.69387755102042 50.94212787118329 261.2244897959184 56.37007109375844 267.7551020408163 53.40352525027231 274.2857142857143 56.131149734330904 280.81632653061223 56.763334010965536 287.3469387755102 57.55762602342537 293.8775510204082 59.03586745091866 300.40816326530614 61.807324210669776 306.9387755102041 62.29280224417005 313.46938775510205 55.2808116901183 320 55.60519310764539 326.53061224489795 52.66947474038278 333.0612244897959 49.99919780345158 339.5918367346939 44.30117366235402 346.12244897959187 46.09549822609773 352.65306122448976 42.65980003843072 359.1836734693877 41.45063521946969 365.71428571428567 43.517777359903505 372.2448979591837 50.36755705046687 378.7755102040816 52.3789983587738 385.3061224489796 56.19281069569115 391.8367346938776 59.662230440895314 398.36734693877554 59.01041227080253 404.8979591836735 63.401818393127144 411.42857142857144 66.56784680324574 417.95918367346934 71.91829325466034 424.48979591836735 77.2871135120593 431.0204081632653 80.95096412251795 437.55102040816325 75.313422582382 444.0816326530612 78.75189692336008 450.61224489795916 85.67960711239914 457.14285714285717 92.13482222488452 463.6734693877551 91.76312890879137 470.2040816326531 94.64708832956882 476.7346938775511 99.99354861146043 483.2653061224489 105.36618648908868 489.7959183673469 111.78301576075623 496.3265306122449 109.68056411974331 502.85714285714283 110.98558054646645 509.38775510204084 110.57129729839323 515.9183673469388 109.10330682165426 522.4489795918367 112.51129319123316 528.9795918367347 118.41479747282904 535.5102040816327 120.63394294142165 542.0408163265306 116.47510408694495 548.5714285714286 118.01216401924819 555.1020408163265 124.15272735414061 561.6326530612245 123.73810488946128 568.1632653061224 123.9025900521736 574.6938775510204 126.82425132755216 581.2244897959183 126.12086447147394 587.7551020408164 126.36057998871115 594.2857142857143 126.33018904635986 600.8163265306123 127.74358481782312 607.3469387755102 123.80816372469559 613.8775510204082 108.32989259072153 620.4081632653061 107.66086530127228 626.9387755102041 105.9449164730392 633.469387755102 103.50509173055173 640 101.86057270026296 640 320 0 320"
      />
      
      <polygon
        fill="#0298c3"
        fillRule="evenodd"
        points="0 313.6957896329543 6.530612244897958 305.0750760069814 13.061224489795917 298.5224249280784 19.591836734693878 288.3920400459489 26.122448979591834 281.7296792115393 32.6530612244898 277.8556638773889 39.183673469387756 270.54541989050904 45.71428571428571 260.80008667367565 52.24489795918367 251.72756584995733 58.775510204081634 237.79093662425362 65.3061224489796 230.2054880564232 71.83673469387755 218.60520512780596 78.36734693877551 212.8050666484311 84.89795918367348 207.84116070072446 91.42857142857142 198.6640891350992 97.9591836734694 187.99623753265126 104.48979591836734 176.3319206028685 111.0204081632653 173.60376344428005 117.55102040816327 169.25193237415095 124.08163265306122 163.42153765061744 130.6122448979592 159.99368674231414 137.14285714285714 149.21628635500414 143.6734693877551 151.8309009695639 150.20408163265307 137.94832360250655 156.73469387755102 126.07803470443332 163.26530612244898 120.39038118804771 169.79591836734696 110.04952939729424 176.32653061224488 101.46192171786706 182.85714285714283 97.89532968080545 189.3877551020408 94.07418141398881 195.9183673469388 90.75092978744468 202.44897959183675 78.81142263881526 208.97959183673467 68.9744007557326 215.51020408163265 67.69022440399016 222.0408163265306 62.45193123085579 228.57142857142858 64.65302152358328 235.10204081632654 62.993372760892214 241.63265306122446 55.150588300515096 248.16326530612244 51.136569218127704 254.69387755102042 51.433083199560656 261.2244897959184 56.846516520424586 267.7551020408163 53.86542746316104 274.2857142857143 56.578952620321104 280.81632653061223 57.19877232519093 287.3469387755102 57.97977285404647 293.8775510204082 59.44553792631757 300.40816326530614 62.204489735078425 306.9387755102041 62.67822975547364 313.46938775510205 55.65447425712455 320 55.967449857444706 326.53061224489795 53.02102517499043 333.0612244897959 50.34001735496179 339.5918367346939 44.63192045471578 346.12244897959187 46.41614918130341 352.65306122448976 42.97066329823059 359.1836734693877 41.75291503252623 365.71428571428567 43.810830264919844 372.2448979591837 50.65194892101243 378.7755102040816 52.65470934324094 385.3061224489796 56.46037317063008 391.8367346938776 59.92162574661694 398.36734693877554 59.26188966211947 404.8979591836735 63.645863515165615 411.42857142857144 66.80444258896617 417.95918367346934 72.14789657874303 424.48979591836735 77.50970833498062 431.0204081632653 81.16676435254288 437.55102040816325 75.52305449046588 444.0816326530612 78.95512993492969 450.61224489795916 85.87683368716148 457.14285714285717 92.32602856330075 463.6734693877551 91.94868424870859 470.2040816326531 94.82697969346088 476.7346938775511 100.16794890970701 483.2653061224489 105.53543246948328 489.7959183673469 111.94709559659066 496.3265306122449 109.8397946661029 502.85714285714283 111.13995068562889 509.38775510204084 110.72095536255728 515.9183673469388 109.24883258667967 522.4489795918367 112.65237686106903 528.9795918367347 118.5517114933225 535.5102040816327 120.76667774639944 542.0408163265306 116.603915979979 548.5714285714286 118.13704399929907 555.1020408163265 124.27379545561848 561.6326530612245 123.85559487223873 568.1632653061224 124.0164937372239 574.6938775510204 126.93478864438359 581.2244897959183 126.22802769316672 587.7551020408164 126.46447211346145 594.2857142857143 126.4312125449623 600.8163265306123 127.84152463530495 607.3469387755102 126.40241445327447 613.8775510204082 115.17776424278338 620.4081632653061 114.40698924404103 626.9387755102041 112.69063968459778 633.469387755102 110.04490537486188 640 108.68235880557481 640 320 0 320"
      />
      
      <polygon
        fill="#fd2fdb"
        fillRule="evenodd"
        points="0 313.6957896329543 6.530612244897958 305.0750760069814 13.061224489795917 298.5224249280784 19.591836734693878 288.3920400459489 26.122448979591834 281.7296792115393 32.6530612244898 277.8556638773889 39.183673469387756 270.54541989050904 45.71428571428571 260.80008667367565 52.24489795918367 251.72756584995733 58.775510204081634 237.79093662425362 65.3061224489796 230.2054880564232 71.83673469387755 218.60520512780596 78.36734693877551 212.8050666484311 84.89795918367348 207.84116070072446 91.42857142857142 198.6640891350992 97.9591836734694 187.99623753265126 104.48979591836734 176.3319206028685 111.0204081632653 173.60376344428005 117.55102040816327 169.25193237415095 124.08163265306122 163.42153765061744 130.6122448979592 159.99368674231414 137.14285714285714 149.21628635500414 143.6734693877551 151.8309009695639 150.20408163265307 137.94832360250655 156.73469387755102 126.07803470443332 163.26530612244898 120.39038118804771 169.79591836734696 110.04952939729424 176.32653061224488 101.46192171786706 182.85714285714283 97.89532968080545 189.3877551020408 94.07418141398881 195.9183673469388 90.75092978744468 202.44897959183675 78.81142263881526 208.97959183673467 68.9744007557326 215.51020408163265 67.69022440399016 222.0408163265306 62.45193123085579 228.57142857142858 64.65302152358328 235.10204081632654 62.993372760892214 241.63265306122446 55.150588300515096 248.16326530612244 51.136569218127704 254.69387755102042 51.433083199560656 261.2244897959184 56.846516520424586 267.7551020408163 53.86542746316104 274.2857142857143 56.578952620321104 280.81632653061223 58.328375654751824 287.3469387755102 59.07489572901079 293.8775510204082 60.50829497445585 300.40816326530614 63.234806769741056 306.9387755102041 64.55885700921758 313.46938775510205 57.47769645675737 320 57.73501912311917 326.53061224489795 54.73635481185278 333.0612244897959 52.002987760158646 339.5918367346939 46.24574261550799 346.12244897959187 47.98071027644261 352.65306122448976 44.48746709727084 359.1836734693877 43.227837385276075 365.71428571428567 45.24073149372339 372.2448979591837 52.03959006390778 378.7755102040816 53.99999360822801 385.3061224489796 57.765898323466786 391.8367346938776 61.18730044113761 398.36734693877554 60.488930271674406 404.8979591836735 64.83663959422591 411.42857142857144 67.95887101149373 417.95918367346934 73.26820648915802 424.48979591836735 78.59582143656974 431.0204081632653 82.21972444735695 437.55102040816325 76.54591730810981 444.0816326530612 79.94677034546729 450.61224489795916 86.83916677477094 457.14285714285717 93.25898692293748 463.6734693877551 92.85406952679293 470.2040816326531 95.70472869776341 476.7346938775511 101.01890502529784 483.2653061224489 106.36123900257886 489.7959183673469 112.74769490354768 496.3265306122449 110.61673274737984 502.85714285714283 111.89317315480793 509.38775510204084 111.45118616625749 515.9183673469388 109.95890050706393 522.4489795918367 113.34077037083804 528.9795918367347 119.21975991037684 535.5102040816327 121.41433435986525 542.0408163265306 117.23243144113769 548.5714285714286 118.74637440239528 555.1020408163265 124.86452638197699 561.6326530612245 124.42886702893713 568.1632653061224 124.5722671333425 574.6938775510204 127.47413641755284 581.2244897959183 126.75091219520326 587.7551020408164 126.9713958613028 594.2857142857143 126.92413931676629 600.8163265306123 128.31940510098505 607.3469387755102 126.86617143515673 613.8775510204082 115.62736527136457 620.4081632653061 114.84330257027653 626.9387755102041 114.22091812195566 633.469387755102 111.52847304108886 640 111.25520370592574 640 320 0 320"
      />
      
      <polygon
        fill="#4F5D95"
        fillRule="evenodd"
        points="0 313.6957896329543 6.530612244897958 305.0750760069814 13.061224489795917 298.5224249280784 19.591836734693878 288.3920400459489 26.122448979591834 281.7296792115393 32.6530612244898 277.8556638773889 39.183673469387756 270.54541989050904 45.71428571428571 260.80008667367565 52.24489795918367 251.72756584995733 58.775510204081634 237.79093662425362 65.3061224489796 230.2054880564232 71.83673469387755 218.60520512780596 78.36734693877551 212.8050666484311 84.89795918367348 207.84116070072446 91.42857142857142 198.6640891350992 97.9591836734694 187.99623753265126 104.48979591836734 176.3319206028685 111.0204081632653 173.60376344428005 117.55102040816327 169.25193237415095 124.08163265306122 163.42153765061744 130.6122448979592 159.99368674231414 137.14285714285714 149.21628635500414 143.6734693877551 151.8309009695639 150.20408163265307 137.94832360250655 156.73469387755102 126.07803470443332 163.26530612244898 120.39038118804771 169.79591836734696 110.04952939729424 176.32653061224488 101.46192171786706 182.85714285714283 97.89532968080545 189.3877551020408 94.07418141398881 195.9183673469388 90.75092978744468 202.44897959183675 78.81142263881526 208.97959183673467 68.9744007557326 215.51020408163265 67.69022440399016 222.0408163265306 62.45193123085579 228.57142857142858 64.67264859228064 235.10204081632654 63.01240072410019 241.63265306122446 55.16903544596215 248.16326530612244 51.15447116773578 254.69387755102042 51.45043870387042 261.2244897959184 56.86335909186789 267.7551020408163 53.88175592420458 274.2857142857143 56.59478266421564 280.81632653061223 58.343768605702735 287.3469387755102 59.089818818507695 293.8775510204082 60.52277702021041 300.40816326530614 63.24884675964995 306.9387755102041 64.5724820553161 313.46938775510205 57.490905605510704 320 57.747825070513954 326.53061224489795 54.748782286087476 333.0612244897959 52.015035892982155 339.5918367346939 46.25743467193581 346.12244897959187 47.99204543959962 352.65306122448976 44.49845626139461 359.1836734693877 43.23852312035126 365.71428571428567 45.25109105311634 372.2448979591837 52.04964345129844 378.7755102040816 54.00974012233684 385.3061224489796 57.775356784275345 391.8367346938776 61.196470188467 398.36734693877554 60.497820117501135 404.8979591836735 64.84526670525852 411.42857142857144 67.96723478509406 417.95918367346934 73.27632307582147 424.48979591836735 78.60369026859365 431.0204081632653 82.22735308828615 437.55102040816325 76.55332789577486 444.0816326530612 79.9539547285843 450.61224489795916 86.84613882685994 457.14285714285717 93.26574615757241 463.6734693877551 92.8606289956866 470.2040816326531 95.71108794274647 476.7346938775511 101.02507015824045 483.2653061224489 106.36722192828051 489.7959183673469 112.7534952039122 496.3265306122449 110.62236162305001 502.85714285714283 111.89863021224517 509.38775510204084 111.45647664990307 515.9183673469388 109.96404491205874 522.4489795918367 113.34575774550632 528.9795918367347 119.2245998859336 535.5102040816327 121.41902659815503 542.0408163265306 117.23698500269313 548.5714285714286 118.7507889689947 555.1020408163265 124.86880619643912 561.6326530612245 124.43302035577807 568.1632653061224 124.57629368259728 574.6938775510204 127.47804396402344 581.2244897959183 126.75470046598144 587.7551020408164 126.975068497494 594.2857142857143 126.92771054545864 600.8163265306123 128.3228673199994 607.3469387755102 126.86953133002532 613.8775510204082 115.63062260750556 620.4081632653061 114.84646363752589 626.9387755102041 114.22398269929471 633.469387755102 111.53144407399469 640 111.25810202543425 640 320 0 320"
      />
      
      <polygon
        fill="#755462"
        fillRule="evenodd"
        points="0 318.0212242608405 6.530612244897958 313.52736548034557 13.061224489795917 310.8961241168696 19.591836734693878 304.60635742813383 26.122448979591834 301.51236108547874 32.6530612244898 299.63474651222435 39.183673469387756 295.68733403443656 45.71428571428571 289.6072518408166 52.24489795918367 284.85404524638614 58.775510204081634 274.4471120056877 65.3061224489796 270.19679517268355 71.83673469387755 262.95238548991233 78.36734693877551 259.78061835763657 84.89795918367348 257.29401220086 91.42857142857142 251.48861802891219 97.9591836734694 243.11578181001698 104.48979591836734 233.6907570477395 111.0204081632653 232.44230502027 117.55102040816327 230.48712401623516 124.08163265306122 226.74326477792332 130.6122448979592 225.0261456809795 137.14285714285714 216.7622547457438 143.6734693877551 218.75158790276257 150.20408163265307 208.35867758287856 156.73469387755102 198.35252245844836 163.26530612244898 194.34762765992076 169.79591836734696 186.11873209833644 176.32653061224488 178.6990154578181 182.85714285714283 176.47505176258454 189.3877551020408 173.8723318778584 195.9183673469388 171.3869064601798 202.44897959183675 162.65603356103406 208.97959183673467 154.1287142995267 215.51020408163265 153.5480102845562 222.0408163265306 149.77120027515338 228.57142857142858 151.991759399126 235.10204081632654 150.2404818402505 241.63265306122446 143.46430487542247 248.16326530612244 140.69799982157775 254.69387755102042 142.9293963512236 261.2244897959184 147.05375423025595 267.7551020408163 144.44719437467143 274.2857142857143 147.14075996309134 280.81632653061223 149.5343169185514 287.3469387755102 150.79092438100642 293.8775510204082 152.38226902473758 300.40816326530614 155.03553206838546 306.9387755102041 154.4904827223834 313.46938775510205 148.88673104955694 320 148.96292073877518 326.53061224489795 145.90476496326946 333.0612244897959 141.7890661664277 339.5918367346939 137.4587410765036 346.12244897959187 139.37104017281882 352.65306122448976 135.0641104902054 359.1836734693877 134.18777986888364 365.71428571428567 137.09706094809022 372.2448979591837 142.45241585591546 378.7755102040816 144.39934491039412 385.3061224489796 146.9758636322786 391.8367346938776 149.82616111548626 398.36734693877554 149.06463734516126 404.8979591836735 151.7193983837237 411.42857142857144 154.19236377340815 417.95918367346934 158.30292666548334 424.48979591836735 162.42155803387143 431.0204081632653 164.48560272652634 437.55102040816325 158.22331439265008 444.0816326530612 161.3478785222918 450.61224489795916 165.8747106895031 457.14285714285717 170.07076739665843 463.6734693877551 168.56369283764303 470.2040816326531 169.21385384649466 476.7346938775511 173.4728197023085 483.2653061224489 177.1538214143618 489.7959183673469 181.49368370158464 496.3265306122449 177.55143000363665 502.85714285714283 179.1102038208399 509.38775510204084 179.84348737434883 515.9183673469388 178.8521443269195 522.4489795918367 181.19128504603646 528.9795918367347 185.218521914476 535.5102040816327 189.19431599270223 542.0408163265306 186.2690907742329 548.5714285714286 186.9422223125608 555.1020408163265 190.9833627044645 561.6326530612245 193.06122503052745 568.1632653061224 195.38484090880456 574.6938775510204 199.028824510185 581.2244897959183 200.45624960029062 587.7551020408164 202.54862834251577 594.2857142857143 204.68152560308488 600.8163265306123 208.14743521826225 607.3469387755102 207.11135289450448 613.8775510204082 197.53799097060812 620.4081632653061 198.0925773597816 626.9387755102041 198.37923634557077 633.469387755102 197.54832641009233 640 198.5402058187787 640 320 0 320"
      />
      
      <polygon
        fill="#2415b9"
        fillRule="evenodd"
        points="0 318.0212242608405 6.530612244897958 313.52736548034557 13.061224489795917 310.8961241168696 19.591836734693878 304.60635742813383 26.122448979591834 301.51236108547874 32.6530612244898 299.63474651222435 39.183673469387756 295.68733403443656 45.71428571428571 289.6072518408166 52.24489795918367 284.85404524638614 58.775510204081634 274.4471120056877 65.3061224489796 270.19679517268355 71.83673469387755 262.95238548991233 78.36734693877551 259.78061835763657 84.89795918367348 257.29401220086 91.42857142857142 251.48861802891219 97.9591836734694 243.11578181001698 104.48979591836734 233.6907570477395 111.0204081632653 232.44230502027 117.55102040816327 230.48712401623516 124.08163265306122 226.74326477792332 130.6122448979592 225.0261456809795 137.14285714285714 216.7622547457438 143.6734693877551 218.75158790276257 150.20408163265307 208.35867758287856 156.73469387755102 198.35252245844836 163.26530612244898 194.34762765992076 169.79591836734696 186.11873209833644 176.32653061224488 178.6990154578181 182.85714285714283 176.47505176258454 189.3877551020408 173.8723318778584 195.9183673469388 171.3869064601798 202.44897959183675 162.65603356103406 208.97959183673467 154.1287142995267 215.51020408163265 153.5480102845562 222.0408163265306 149.77120027515338 228.57142857142858 151.991759399126 235.10204081632654 150.2404818402505 241.63265306122446 143.46430487542247 248.16326530612244 140.69799982157775 254.69387755102042 142.9293963512236 261.2244897959184 147.05375423025595 267.7551020408163 144.44719437467143 274.2857142857143 147.14075996309134 280.81632653061223 149.5343169185514 287.3469387755102 150.79092438100642 293.8775510204082 152.38226902473758 300.40816326530614 155.03553206838546 306.9387755102041 154.4904827223834 313.46938775510205 148.88673104955694 320 148.96292073877518 326.53061224489795 145.90476496326946 333.0612244897959 142.14869673965393 339.5918367346939 137.81837164972984 346.12244897959187 139.73067074604506 352.65306122448976 135.4237410634316 359.1836734693877 134.54741044210988 365.71428571428567 137.4566915213165 372.2448979591837 142.81204642914167 378.7755102040816 144.75897548362036 385.3061224489796 147.3354942055048 391.8367346938776 150.18579168871253 398.36734693877554 149.42426791838753 404.8979591836735 152.0790289569499 411.42857142857144 154.5519943466344 417.95918367346934 158.66255723870955 424.48979591836735 162.78118860709768 431.0204081632653 164.84523329975258 437.55102040816325 158.5829449658763 444.0816326530612 161.70750909551805 450.61224489795916 166.23434126272934 457.14285714285717 170.43039796988464 463.6734693877551 168.92332341086927 470.2040816326531 169.5734844197209 476.7346938775511 173.83245027553474 483.2653061224489 177.513451987588 489.7959183673469 181.85331427481086 496.3265306122449 177.9110605768629 502.85714285714283 179.46983439406614 509.38775510204084 180.20311794757507 515.9183673469388 179.21177490014574 522.4489795918367 181.55091561926267 528.9795918367347 185.57815248770223 535.5102040816327 189.55394656592847 542.0408163265306 186.62872134745913 548.5714285714286 187.30185288578704 555.1020408163265 191.34299327769074 561.6326530612245 193.4208556037537 568.1632653061224 195.7444714820308 574.6938775510204 199.38845508341123 581.2244897959183 200.81588017351686 587.7551020408164 202.90825891574198 594.2857142857143 205.04115617631112 600.8163265306123 208.5070657914885 607.3469387755102 207.47098346773072 613.8775510204082 197.89762154383436 620.4081632653061 198.45220793300783 626.9387755102041 198.73886691879702 633.469387755102 197.90795698331857 640 198.5402058187787 640 320 0 320"
      />
      
      <polygon
        fill="#f1e05a"
        fillRule="evenodd"
        points="0 318.0212242608405 6.530612244897958 313.52736548034557 13.061224489795917 310.8961241168696 19.591836734693878 304.60635742813383 26.122448979591834 301.51236108547874 32.6530612244898 299.63474651222435 39.183673469387756 295.68733403443656 45.71428571428571 289.6072518408166 52.24489795918367 284.85404524638614 58.775510204081634 275.5586165670204 65.3061224489796 271.27437167198013 71.83673469387755 264.3815456742319 78.36734693877551 261.6232714998924 84.89795918367348 259.09166939330964 91.42857142857142 253.2331463802696 97.9591836734694 246.00812682718896 104.48979591836734 237.61106526609652 111.0204081632653 236.28998769389264 117.55102040816327 234.217357920744 124.08163265306122 230.5136820559074 130.6122448979592 228.68147295540382 137.14285714285714 222.60341047914164 143.6734693877551 224.41444599056626 150.20408163265307 213.85417336330403 156.73469387755102 203.68027112678226 163.26530612244898 199.51275086928382 169.79591836734696 191.1312019935178 176.32653061224488 184.674663572456 182.85714285714283 182.27409321458364 189.3877551020408 179.49436018191938 195.9183673469388 176.8373256307991 202.44897959183675 169.27904465591232 208.97959183673467 161.91441001012947 215.51020408163265 161.10360407924955 222.0408163265306 157.65201005224708 228.57142857142858 159.7498040397177 235.10204081632654 157.76171652997786 241.63265306122446 151.8857308529924 248.16326530612244 148.870536268335 254.69387755102042 150.85247196831472 261.2244897959184 154.74266718850797 267.7551020408163 153.00436650841132 274.2857142857143 155.4477689600314 280.81632653061223 157.61195867346737 287.3469387755102 159.399250367482 293.8775510204082 161.3844038466029 300.40816326530614 163.76288036186008 306.9387755102041 164.0801018285437 313.46938775510205 158.18363141942956 320 157.97603970586277 326.53061224489795 154.65150453725244 333.0612244897959 150.62844924761518 339.5918367346939 146.04750932489122 346.12244897959187 147.7086177684831 352.65306122448976 144.2695886583002 359.1836734693877 143.14900825431835 365.71428571428567 145.795729730866 372.2448979591837 150.90463032061723 378.7755102040816 152.6045368407162 385.3061224489796 154.94918375051304 391.8367346938776 157.56707768214272 398.36734693877554 156.58024535769152 404.8979591836735 159.02351484875106 411.42857142857144 161.2845041144231 417.95918367346934 165.1960916304596 424.48979591836735 169.11529058372625 431.0204081632653 170.98599089310645 437.55102040816325 165.66906262505722 444.0816326530612 168.577326946432 450.61224489795916 172.9011255634648 457.14285714285717 176.89368222821224 463.6734693877551 175.1955878351959 470.2040816326531 175.65429231577912 476.7346938775511 179.7276440988655 483.2653061224489 183.23441610086584 489.7959183673469 187.39964959085108 496.3265306122449 183.29347771614886 502.85714285714283 184.68795584724757 509.38775510204084 185.26195943088098 515.9183673469388 184.13093371102715 522.4489795918367 186.31992013743996 528.9795918367347 190.2062116191366 535.5102040816327 194.04073664310403 542.0408163265306 190.9829074121588 548.5714285714286 191.52312914927197 555.1020408163265 195.4354168865849 561.6326530612245 197.39233000503748 568.1632653061224 199.5947188353985 574.6938775510204 203.1249106995885 581.2244897959183 204.4382827552043 587.7551020408164 206.42008927588213 594.2857142857143 208.4560200642534 600.8163265306123 211.81769229905507 607.3469387755102 210.6837668265135 613.8775510204082 201.01233641959138 620.4081632653061 201.47486878744564 626.9387755102041 201.66926321390295 633.469387755102 200.74890390721984 640 201.3116233089263 640 320 0 320"
      />
      
      <polygon
        fill="#22e8e8"
        fillRule="evenodd"
        points="0 319.92567426576767 6.530612244897958 319.85646900301265 13.061224489795917 319.82723292803865 19.591836734693878 318.6603030583501 26.122448979591834 318.547530113473 32.6530612244898 318.40759806673566 39.183673469387756 318.2695446929168 45.71428571428571 316.01153608530325 52.24489795918367 316.01949920013334 58.775510204081634 310.2712013959629 65.3061224489796 309.37987162122295 71.83673469387755 306.9369355488054 78.36734693877551 307.0222695646091 84.89795918367348 306.2791051611008 91.42857142857142 304.58411777073394 97.9591836734694 300.15630481620695 104.48979591836734 294.75365070970696 111.0204081632653 293.47878669367856 117.55102040816327 293.7809661081542 124.08163265306122 290.8838696929494 130.6122448979592 291.2549321617367 137.14285714285714 286.97854384867554 143.6734693877551 287.2959236452878 150.20408163265307 280.08964075259587 156.73469387755102 272.35653477630575 163.26530612244898 270.6873753036214 169.79591836734696 264.64104234439935 176.32653061224488 259.71605648044056 182.85714285714283 258.4821410598211 189.3877551020408 256.4976365083817 195.9183673469388 254.70957217376838 202.44897959183675 249.75803744585457 208.97959183673467 243.84333051972754 215.51020408163265 243.3268215895938 222.0408163265306 241.83028005520964 228.57142857142858 242.76854903842056 235.10204081632654 241.70746584454713 241.63265306122446 237.21786116492842 248.16326530612244 234.04438802741453 254.69387755102042 235.73032207773096 261.2244897959184 237.4044480178061 267.7551020408163 235.56053411351212 274.2857142857143 237.00510169360143 280.81632653061223 238.39938091816768 287.3469387755102 240.8175643066657 293.8775510204082 242.54150577026132 300.40816326530614 244.59172177343683 306.9387755102041 243.76036230796197 313.46938775510205 239.79405281821926 320 239.82807530896878 326.53061224489795 237.43530802004622 333.0612244897959 235.72258426631743 339.5918367346939 231.99177711067483 346.12244897959187 232.20071784989761 352.65306122448976 229.58697925431358 359.1836734693877 229.00008034584022 365.71428571428567 230.61538133837502 372.2448979591837 233.24734176776943 378.7755102040816 234.3858927059922 385.3061224489796 235.44978520032657 391.8367346938776 235.9808148416391 398.36734693877554 235.02393049629427 404.8979591836735 236.27274766182236 411.42857142857144 237.10994304783696 417.95918367346934 239.176087304879 424.48979591836735 241.04015679712586 431.0204081632653 242.01075213000104 437.55102040816325 236.84733679595507 444.0816326530612 238.1858794262165 450.61224489795916 240.6023269498637 457.14285714285717 242.698514611416 463.6734693877551 240.2079588375568 470.2040816326531 240.0552266101522 476.7346938775511 242.4939218058235 483.2653061224489 244.47760181683492 489.7959183673469 246.78132169878205 496.3265306122449 243.48881296848828 502.85714285714283 244.04376948944767 509.38775510204084 246.20497692011696 515.9183673469388 246.89560335556484 522.4489795918367 247.99732380752238 528.9795918367347 250.11824018104767 535.5102040816327 252.23284431875166 542.0408163265306 249.58179425669857 548.5714285714286 249.44276734493644 555.1020408163265 251.59491311267635 561.6326530612245 252.51204485004655 568.1632653061224 253.35346315182906 574.6938775510204 255.30239740363245 581.2244897959183 256.15330509239783 587.7551020408164 257.94405530225936 594.2857142857143 258.9969842119652 600.8163265306123 260.8264801874982 607.3469387755102 259.22060226606857 613.8775510204082 252.11871072701348 620.4081632653061 252.09485507477035 626.9387755102041 251.32929788727412 633.469387755102 250.03622259207896 640 249.5797283989438 640 320 0 320"
      />
      
      <polygon
        fill="#22e4e8"
        fillRule="evenodd"
        points="0 319.92567426576767 6.530612244897958 319.85646900301265 13.061224489795917 319.82723292803865 19.591836734693878 318.6603030583501 26.122448979591834 318.547530113473 32.6530612244898 318.40759806673566 39.183673469387756 318.2695446929168 45.71428571428571 316.01153608530325 52.24489795918367 316.01949920013334 58.775510204081634 310.2712013959629 65.3061224489796 309.37987162122295 71.83673469387755 306.9369355488054 78.36734693877551 307.0222695646091 84.89795918367348 306.2791051611008 91.42857142857142 304.58411777073394 97.9591836734694 300.15630481620695 104.48979591836734 294.75365070970696 111.0204081632653 293.47878669367856 117.55102040816327 293.7809661081542 124.08163265306122 290.8838696929494 130.6122448979592 291.2549321617367 137.14285714285714 286.97854384867554 143.6734693877551 287.2959236452878 150.20408163265307 280.08964075259587 156.73469387755102 272.35653477630575 163.26530612244898 270.6873753036214 169.79591836734696 264.64104234439935 176.32653061224488 259.71605648044056 182.85714285714283 258.4821410598211 189.3877551020408 256.4976365083817 195.9183673469388 254.70957217376838 202.44897959183675 249.75803744585457 208.97959183673467 243.84333051972754 215.51020408163265 243.3268215895938 222.0408163265306 241.83028005520964 228.57142857142858 242.76854903842056 235.10204081632654 241.70746584454713 241.63265306122446 237.21786116492842 248.16326530612244 234.04438802741453 254.69387755102042 235.73032207773096 261.2244897959184 237.4044480178061 267.7551020408163 235.56053411351212 274.2857142857143 237.00510169360143 280.81632653061223 238.39938091816768 287.3469387755102 240.8175643066657 293.8775510204082 242.54150577026132 300.40816326530614 244.59172177343683 306.9387755102041 243.76036230796197 313.46938775510205 239.79405281821926 320 239.82807530896878 326.53061224489795 237.43530802004622 333.0612244897959 235.77396006249262 339.5918367346939 232.04315290685003 346.12244897959187 232.2520936460728 352.65306122448976 229.63835505048877 359.1836734693877 229.05145614201538 365.71428571428567 230.66675713455018 372.2448979591837 233.2987175639446 378.7755102040816 234.43726850216737 385.3061224489796 235.50116099650177 391.8367346938776 236.03219063781427 398.36734693877554 235.07530629246946 404.8979591836735 236.32412345799753 411.42857142857144 237.16131884401216 417.95918367346934 239.22746310105418 424.48979591836735 241.09153259330103 431.0204081632653 242.06212792617623 437.55102040816325 236.89871259213027 444.0816326530612 238.2372552223917 450.61224489795916 240.65370274603887 457.14285714285717 242.74989040759115 463.6734693877551 240.25933463373195 470.2040816326531 240.10660240632737 476.7346938775511 242.54529760199864 483.2653061224489 244.5289776130101 489.7959183673469 246.83269749495724 496.3265306122449 243.54018876466344 502.85714285714283 244.09514528562283 509.38775510204084 246.25635271629213 515.9183673469388 246.94697915174 522.4489795918367 248.04869960369757 528.9795918367347 250.16961597722283 535.5102040816327 252.28422011492682 542.0408163265306 249.63317005287374 548.5714285714286 249.4941431411116 555.1020408163265 251.64628890885152 561.6326530612245 252.56342064622172 568.1632653061224 253.40483894800423 574.6938775510204 255.35377319980762 581.2244897959183 256.204680888573 587.7551020408164 257.99543109843455 594.2857142857143 259.0483600081403 600.8163265306123 260.8778559836734 607.3469387755102 259.27197806224376 613.8775510204082 252.17008652318867 620.4081632653061 252.14623087094554 626.9387755102041 251.38067368344932 633.469387755102 250.08759838825415 640 249.5797283989438 640 320 0 320"
      />
      
      <polygon
        fill="#e34c26"
        fillRule="evenodd"
        points="0 319.92567426576767 6.530612244897958 319.85646900301265 13.061224489795917 319.82723292803865 19.591836734693878 318.6603030583501 26.122448979591834 318.63876247140877 32.6530612244898 318.51260302205657 39.183673469387756 318.3713444325337 45.71428571428571 316.1105249657175 52.24489795918367 316.2070753967179 58.775510204081634 311.64862358474426 65.3061224489796 310.751046615941 71.83673469387755 308.2675860347616 78.36734693877551 308.312302654364 84.89795918367348 307.5297607581192 91.42857142857142 305.79781084569095 97.9591836734694 302.0857708265593 104.48979591836734 297.72661061892495 111.0204081632653 296.36099814330976 117.55102040816327 296.57520000038954 124.08163265306122 294.70441228022975 130.6122448979592 294.97529605653915 137.14285714285714 291.7197440942176 143.6734693877551 292.19422830124057 150.20408163265307 288.11680003368053 156.73469387755102 282.4760500093124 163.26530612244898 280.5091092293853 169.79591836734696 276.094200292483 176.32653061224488 271.3321065278772 182.85714285714283 270.3321081897911 189.3877551020408 269.0820103695166 195.9183673469388 268.3241201421009 202.44897959183675 264.11126455656193 208.97959183673467 258.73415807167567 215.51020408163265 258.87803773564127 222.0408163265306 257.3390680137438 228.57142857142858 258.03727947926257 235.10204081632654 256.5238313725508 241.63265306122446 252.72250206919534 248.16326530612244 250.19336669953984 254.69387755102042 252.1900811610473 261.2244897959184 254.18870382237628 267.7551020408163 252.86782737613925 274.2857142857143 253.80100952874415 280.81632653061223 254.90775588988865 287.3469387755102 256.8330511925572 293.8775510204082 258.58292818557794 300.40816326530614 260.4521225984462 306.9387755102041 259.9720872674719 313.46938775510205 257.8643865982516 320 257.54204807144345 326.53061224489795 255.72566070223058 333.0612244897959 254.32303406160366 339.5918367346939 252.44401507578323 346.12244897959187 252.3016933314608 352.65306122448976 249.89599074732888 359.1836734693877 249.60731395042947 365.71428571428567 250.63987675471992 372.2448979591837 252.68977407383176 378.7755102040816 254.0438156515317 385.3061224489796 254.88135666307753 391.8367346938776 255.7653688495912 398.36734693877554 254.20614131218161 404.8979591836735 254.90085099315786 411.42857142857144 255.1710045241756 417.95918367346934 256.70487909258804 424.48979591836735 258.105119676838 431.0204081632653 258.55638482910825 437.55102040816325 255.16944999533493 444.0816326530612 257.12072708619553 450.61224489795916 258.9790813910236 457.14285714285717 260.5159047965594 463.6734693877551 258.6005534641934 470.2040816326531 258.0205934735031 476.7346938775511 259.912481685259 483.2653061224489 261.38288563948686 489.7959183673469 263.1721467938224 496.3265306122449 261.8204204150013 502.85714285714283 263.557606959582 509.38775510204084 265.2078800422574 515.9183673469388 265.5769720848588 522.4489795918367 267.22154358442623 528.9795918367347 268.7758208891966 535.5102040816327 270.3394288605652 542.0408163265306 268.43863804534476 548.5714285714286 268.9636371340513 555.1020408163265 270.5214974895986 561.6326530612245 271.98379629547014 568.1632653061224 273.44946545632246 574.6938775510204 274.82523077567714 581.2244897959183 276.20417889753094 587.7551020408164 277.54101983812114 594.2857142857143 278.7133758960998 600.8163265306123 279.97362496746416 607.3469387755102 278.9297448253629 613.8775510204082 275.723927541609 620.4081632653061 277.0324887779461 626.9387755102041 278.28630452484765 633.469387755102 278.4158815391189 640 279.43361273468264 640 320 0 320"
      />
      
      <polygon
        fill="#00ADD8"
        fillRule="evenodd"
        points="0 319.92567426576767 6.530612244897958 319.85646900301265 13.061224489795917 319.82723292803865 19.591836734693878 318.6603030583501 26.122448979591834 318.63876247140877 32.6530612244898 318.51536279244823 39.183673469387756 318.37401996254613 45.71428571428571 316.61218074217066 52.24489795918367 316.69341841161787 58.775510204081634 313.1394436638625 65.3061224489796 312.19636027534233 71.83673469387755 310.8820314585495 78.36734693877551 310.86396623871616 84.89795918367348 310.0035363749348 91.42857142857142 308.6617083652596 97.9591836734694 305.87144959305203 104.48979591836734 303.79316152604133 111.0204081632653 303.0244491823894 117.55102040816327 303.31529653475104 124.08163265306122 302.4901922471382 130.6122448979592 302.9132429115911 137.14285714285714 300.9756907619271 143.6734693877551 301.55639237251046 150.20408163265307 299.63116299526354 156.73469387755102 295.82119049511374 163.26530612244898 294.07846088230656 169.79591836734696 290.7161351473776 176.32653061224488 287.71239547463796 182.85714285714283 287.3468234858121 189.3877551020408 286.1158405442625 195.9183673469388 284.9373089306307 202.44897959183675 282.37654379518096 208.97959183673467 277.94385493851667 215.51020408163265 278.079666547451 222.0408163265306 276.03281522736825 228.57142857142858 276.2116872646388 235.10204081632654 274.14902367668697 241.63265306122446 270.3047390701495 248.16326530612244 268.08697596085693 254.69387755102042 269.6660802081226 261.2244897959184 271.1482024677 267.7551020408163 270.4125549083059 274.2857142857143 270.8101988441285 280.81632653061223 272.16290682946163 287.3469387755102 273.561501579806 293.8775510204082 274.9228881598571 300.40816326530614 276.29331298574965 306.9387755102041 276.4643435969009 313.46938775510205 274.63325329683545 320 273.7990525751544 326.53061224489795 272.0443716472116 333.0612244897959 270.14362275464094 339.5918367346939 268.24949311964946 346.12244897959187 268.7285965656072 352.65306122448976 266.93233011596 359.1836734693877 266.1732585843125 365.71428571428567 266.70015614226475 372.2448979591837 268.27539864560964 378.7755102040816 269.7730222159122 385.3061224489796 270.1456913907988 391.8367346938776 271.63101206084224 398.36734693877554 270.87590923752316 404.8979591836735 271.21138393890374 411.42857142857144 272.69783992156624 417.95918367346934 274.0958275641272 424.48979591836735 275.46914825869726 431.0204081632653 275.708997899643 437.55102040816325 272.9524821030283 444.0816326530612 274.36094616436816 450.61224489795916 275.7097738180175 457.14285714285717 277.06170395324625 463.6734693877551 276.4936273897144 470.2040816326531 276.69947869680993 476.7346938775511 278.021209625289 483.2653061224489 279.0984808496047 489.7959183673469 280.3469850337825 496.3265306122449 279.2673572016962 502.85714285714283 280.47750616872986 509.38775510204084 281.6113086476154 515.9183673469388 281.5274809187798 522.4489795918367 282.68517016309056 528.9795918367347 283.7824289354051 535.5102040816327 284.88796722552803 542.0408163265306 282.61007601135 548.5714285714286 282.84180047765415 555.1020408163265 283.9760375957753 561.6326530612245 285.0406918493148 568.1632653061224 286.10781070254836 574.6938775510204 287.10946312549294 581.2244897959183 288.11344088889854 587.7551020408164 289.08675697091246 594.2857142857143 289.9403185072547 600.8163265306123 290.8578740641179 607.3469387755102 291.71915229642144 613.8775510204082 290.3472310477137 620.4081632653061 291.22361394904567 626.9387755102041 292.1020062029767 633.469387755102 292.9283993058674 640 293.5909531822174 640 320 0 320"
      />
      
      <polygon
        fill="#244776"
        fillRule="evenodd"
        points="0 319.92567426576767 6.530612244897958 319.85646900301265 13.061224489795917 319.82723292803865 19.591836734693878 318.6603030583501 26.122448979591834 318.63876247140877 32.6530612244898 318.51536279244823 39.183673469387756 318.37401996254613 45.71428571428571 316.61218074217066 52.24489795918367 316.69341841161787 58.775510204081634 313.1394436638625 65.3061224489796 312.19636027534233 71.83673469387755 310.8820314585495 78.36734693877551 310.86396623871616 84.89795918367348 310.0035363749348 91.42857142857142 308.6617083652596 97.9591836734694 305.87144959305203 104.48979591836734 303.79316152604133 111.0204081632653 303.0244491823894 117.55102040816327 303.31529653475104 124.08163265306122 302.4901922471382 130.6122448979592 302.9132429115911 137.14285714285714 300.9756907619271 143.6734693877551 301.55639237251046 150.20408163265307 299.63116299526354 156.73469387755102 295.82119049511374 163.26530612244898 294.07846088230656 169.79591836734696 290.7161351473776 176.32653061224488 287.71239547463796 182.85714285714283 287.3468234858121 189.3877551020408 286.1158405442625 195.9183673469388 284.9373089306307 202.44897959183675 282.37654379518096 208.97959183673467 277.94385493851667 215.51020408163265 278.079666547451 222.0408163265306 276.03281522736825 228.57142857142858 276.2116872646388 235.10204081632654 274.14902367668697 241.63265306122446 270.3047390701495 248.16326530612244 268.08697596085693 254.69387755102042 269.6660802081226 261.2244897959184 271.1482024677 267.7551020408163 270.4125549083059 274.2857142857143 270.8101988441285 280.81632653061223 272.16290682946163 287.3469387755102 273.561501579806 293.8775510204082 274.9228881598571 300.40816326530614 276.29331298574965 306.9387755102041 276.4643435969009 313.46938775510205 274.63325329683545 320 273.7990525751544 326.53061224489795 272.0443716472116 333.0612244897959 270.14362275464094 339.5918367346939 268.24949311964946 346.12244897959187 268.7285965656072 352.65306122448976 266.93233011596 359.1836734693877 266.1732585843125 365.71428571428567 266.70015614226475 372.2448979591837 268.27539864560964 378.7755102040816 269.7730222159122 385.3061224489796 270.1456913907988 391.8367346938776 271.63101206084224 398.36734693877554 270.87590923752316 404.8979591836735 271.21138393890374 411.42857142857144 272.69783992156624 417.95918367346934 274.0958275641272 424.48979591836735 275.46914825869726 431.0204081632653 275.708997899643 437.55102040816325 272.9524821030283 444.0816326530612 274.36094616436816 450.61224489795916 275.7097738180175 457.14285714285717 277.06170395324625 463.6734693877551 276.4936273897144 470.2040816326531 276.69947869680993 476.7346938775511 278.021209625289 483.2653061224489 279.0984808496047 489.7959183673469 280.3469850337825 496.3265306122449 279.2673572016962 502.85714285714283 280.47750616872986 509.38775510204084 281.6113086476154 515.9183673469388 281.5274809187798 522.4489795918367 282.68517016309056 528.9795918367347 283.7824289354051 535.5102040816327 284.88796722552803 542.0408163265306 282.61007601135 548.5714285714286 282.84180047765415 555.1020408163265 283.9760375957753 561.6326530612245 285.0406918493148 568.1632653061224 286.10781070254836 574.6938775510204 287.10946312549294 581.2244897959183 288.11344088889854 587.7551020408164 289.08675697091246 594.2857142857143 289.9403185072547 600.8163265306123 290.8578740641179 607.3469387755102 291.71915229642144 613.8775510204082 290.40279225532555 620.4081632653061 291.277533073185 626.9387755102041 292.15427947882523 633.469387755102 292.97907697073356 640 293.64039055521766 640 320 0 320"
      />
      
      <polygon
        fill="#563d7c"
        fillRule="evenodd"
        points="0 319.92567426576767 6.530612244897958 319.85646900301265 13.061224489795917 319.82723292803865 19.591836734693878 318.6603030583501 26.122448979591834 318.63876247140877 32.6530612244898 318.51536279244823 39.183673469387756 318.37401996254613 45.71428571428571 316.61218074217066 52.24489795918367 316.69341841161787 58.775510204081634 314.24960372060934 65.3061224489796 313.27263337068996 71.83673469387755 311.92649584620483 78.36734693877551 311.87654896504864 84.89795918367348 310.9852106002756 91.42857142857142 309.6143697537359 97.9591836734694 306.79503145888043 104.48979591836734 305.79142486505185 111.0204081632653 304.9617167101425 117.55102040816327 305.193429904597 124.08163265306122 304.3146419172933 130.6122448979592 304.68200245171136 137.14285714285714 303.8118348708988 143.6734693877551 304.30596487412436 150.20408163265307 302.29947326979965 156.73469387755102 298.4080522539351 163.26530612244898 296.58636009743856 169.79591836734696 293.14991470687085 176.32653061224488 290.07188542735867 182.85714285714283 289.63658004286833 189.3877551020408 288.3357036186734 195.9183673469388 287.089411748205 202.44897959183675 284.46922362012197 208.97959183673467 279.9726569755381 215.51020408163265 280.0485085092659 222.0408163265306 277.94155922133973 228.57142857142858 278.0640195041424 235.10204081632654 275.9448145919648 241.63265306122446 273.1751007951445 248.16326530612244 271.62233212007845 254.69387755102042 273.09352191848456 261.2244897959184 274.47434785651404 267.7551020408163 273.63717165422173 274.2857142857143 273.93638583241983 280.81632653061223 275.20277477380927 287.3469387755102 276.5085793904268 293.8775510204082 277.7828665281903 300.40816326530614 279.0659922654513 306.9387755102041 279.1550779679452 313.46938775510205 277.2418545183052 320 276.32802758039975 326.53061224489795 274.49860401391385 333.0612244897959 272.5229411958955 339.5918367346939 270.5584918646536 346.12244897959187 270.96711470536724 352.65306122448976 269.10251885781344 359.1836734693877 268.28352475529067 365.71428571428567 268.74600754550164 372.2448979591837 270.2607860798312 378.7755102040816 271.6978066582139 385.3061224489796 272.01359018828873 391.8367346938776 273.44189420524015 398.36734693877554 272.63151534080345 404.8979591836735 272.91510398160125 411.42857142857144 274.3495548145854 417.95918367346934 275.6987268196462 424.48979591836735 277.02311987748044 431.0204081632653 277.21553558158837 437.55102040816325 275.39028582588435 444.0816326530612 276.7243374922989 450.61224489795916 278.0033163602455 457.14285714285717 279.2852374172875 463.6734693877551 278.6514453536068 470.2040816326531 278.79143062947077 476.7346938775511 280.0493059643741 483.2653061224489 281.0666376638018 489.7959183673469 282.25506525246743 496.3265306122449 281.11904498321263 502.85714285714283 282.2726722515746 509.38775510204084 283.351678231024 515.9183673469388 283.21979625398757 522.4489795918367 284.32582836826333 528.9795918367347 285.3745983558929 535.5102040816327 286.431536684108 542.0408163265306 284.1080262289646 548.5714285714286 284.2940265449277 555.1020408163265 285.3839352903382 561.6326530612245 286.406979875549 568.1632653061224 287.43239350147303 574.6938775510204 288.3948985952481 581.2244897959183 289.3596391218408 587.7551020408164 290.29491574235385 594.2857142857143 291.11511804947526 600.8163265306123 291.9968135061113 607.3469387755102 292.8244310360221 613.8775510204082 291.47433292058435 620.4081632653061 292.31740497842026 626.9387755102041 293.16240992728535 633.469387755102 293.9564347044313 640 294.5938284374773 640 320 0 320"
      />
      
      <polygon
        fill="#178600"
        fillRule="evenodd"
        points="0 320 6.530612244897958 320 13.061224489795917 320 19.591836734693878 320 26.122448979591834 320 32.6530612244898 320 39.183673469387756 320 45.71428571428571 320 52.24489795918367 320 58.775510204081634 318.7303286795433 65.3061224489796 318.7690847409243 71.83673469387755 318.8054638291692 78.36734693877551 318.8419263106064 84.89795918367348 318.87727578679534 91.42857142857142 318.91045735851304 97.9591836734694 318.9437149355836 104.48979591836734 318.97493298602245 111.0204081632653 319.0062225515696 117.55102040816327 319.0365570102403 124.08163265306122 319.06409560835834 130.6122448979592 319.09266359247886 137.14285714285714 319.1194793947957 143.6734693877551 319.1463568069673 150.20408163265307 319.1715857958931 156.73469387755102 319.1856777966031 163.26530612244898 319.21053450623464 169.79591836734696 319.2338667521415 176.32653061224488 319.2572524905273 182.85714285714283 319.2792040221871 189.3877551020408 318.1941408774693 195.9183673469388 318.24926368513724 202.44897959183675 318.2976042814757 208.97959183673467 316.13887474655655 215.51020408163265 316.24748554295746 222.0408163265306 316.3620287641937 228.57142857142858 316.4695469104368 235.10204081632654 316.57731219480974 241.63265306122446 316.2415606498139 248.16326530612244 315.63817866997596 254.69387755102042 315.77132079254096 261.2244897959184 315.8962972460619 267.7551020408163 316.02156027377396 274.2857142857143 316.14299981198303 280.81632653061223 316.249497953444 287.3469387755102 316.3639800580331 293.8775510204082 316.47144066338444 300.40816326530614 316.579147780081 306.9387755102041 316.6802492537843 313.46938775510205 315.97581197680864 320 316.09864790915776 326.53061224489795 314.31084490266926 333.0612244897959 314.48450290286235 339.5918367346939 313.5209116220046 346.12244897959187 313.7186820301198 352.65306122448976 313.9104157821844 359.1836734693877 312.9761241178853 365.71428571428567 313.1905234635256 372.2448979591837 313.3917739344966 378.7755102040816 313.59348609919755 385.3061224489796 313.7828276297897 391.8367346938776 313.9726029981551 398.36734693877554 314.1565862284342 404.8979591836735 314.32928535076746 411.42857142857144 314.502380241409 417.95918367346934 314.66485972119267 424.48979591836735 314.8277117885253 431.0204081632653 314.98559268244423 437.55102040816325 313.2129034487752 444.0816326530612 313.42007531933564 450.61224489795916 313.614541955502 457.14285714285717 313.8094539170696 463.6734693877551 313.1987265033238 470.2040816326531 313.40633157459763 476.7346938775511 313.6075999551712 483.2653061224489 313.79652365668824 489.7959183673469 313.98588107267653 496.3265306122449 314.16362519544265 502.85714285714283 314.3417771392788 509.38775510204084 314.5144914688478 515.9183673469388 314.6659552278448 522.4489795918367 314.8287739625609 528.9795918367347 314.9816065782712 535.5102040816327 315.134790193421 542.0408163265306 315.2785787167242 548.5714285714286 315.42269748364527 555.1020408163265 315.56241704389146 561.6326530612245 315.69356753234194 568.1632653061224 315.8250186719517 574.6938775510204 315.9484080243772 581.2244897959183 316.07208052936573 587.7551020408164 316.19197805387813 594.2857142857143 316.297123809706 600.8163265306123 316.41015207173984 607.3469387755102 316.5162479201664 613.8775510204082 316.62258786527576 620.4081632653061 316.72240525232945 626.9387755102041 316.8224519090112 633.469387755102 316.91944481919376 640 316.9948387178796 640 320 0 320"
      />
      
      <polygon
        fill="#555555"
        fillRule="evenodd"
        points="0 320 6.530612244897958 320 13.061224489795917 320 19.591836734693878 320 26.122448979591834 320 32.6530612244898 320 39.183673469387756 320 45.71428571428571 320 52.24489795918367 320 58.775510204081634 318.7303286795433 65.3061224489796 318.7690847409243 71.83673469387755 318.8054638291692 78.36734693877551 318.8419263106064 84.89795918367348 318.87727578679534 91.42857142857142 318.91045735851304 97.9591836734694 318.9437149355836 104.48979591836734 318.97493298602245 111.0204081632653 319.0062225515696 117.55102040816327 319.0365570102403 124.08163265306122 319.06409560835834 130.6122448979592 319.09266359247886 137.14285714285714 319.1194793947957 143.6734693877551 319.1463568069673 150.20408163265307 319.1715857958931 156.73469387755102 319.1856777966031 163.26530612244898 319.21053450623464 169.79591836734696 319.2338667521415 176.32653061224488 319.2572524905273 182.85714285714283 319.2792040221871 189.3877551020408 318.1941408774693 195.9183673469388 318.24926368513724 202.44897959183675 318.2976042814757 208.97959183673467 317.2428493629471 215.51020408163265 317.31883272696786 222.0408163265306 317.40067371266474 228.57142857142858 317.4774953344511 235.10204081632654 317.5544935040234 241.63265306122446 317.18891399378094 248.16326530612244 316.55753354079826 254.69387755102042 316.6626128677217 261.2244897959184 316.76124761477297 267.7551020408163 316.86010862083054 274.2857142857143 316.9559519153724 280.81632653061223 317.04000312892134 287.3469387755102 317.13035548111964 293.8775510204082 317.21516628581503 300.40816326530614 317.30017159927473 306.9387755102041 317.3799636565692 313.46938775510205 317.4599388172012 320 317.537472599999 326.53061224489795 316.5057099531836 333.0612244897959 316.6123709353681 339.5918367346939 315.5858915699282 346.12244897959187 315.7206297329772 352.65306122448976 315.85125516079086 359.1836734693877 314.8633736090046 365.71428571428567 315.02016589090323 372.2448979591837 315.167342308884 378.7755102040816 315.31485629667105 385.3061224489796 315.45332356161026 391.8367346938776 315.59210793851383 398.36734693877554 315.72665665845204 404.8979591836735 315.8529532644315 411.42857142857144 315.979539085318 417.95918367346934 316.0983618795501 424.48979591836735 316.21745707852875 431.0204081632653 316.33291687479425 437.55102040816325 315.58525481831043 444.0816326530612 315.7200121959072 450.61224489795916 315.8465051601797 457.14285714285717 315.9732879866941 463.6734693877551 316.0922956002155 470.2040816326531 316.21157622471765 476.7346938775511 316.3272157437933 483.2653061224489 316.43576273145544 489.7959183673469 316.54455909723214 496.3265306122449 316.6466827746017 502.85714285714283 316.7490408283533 509.38775510204084 316.84827482269117 515.9183673469388 316.9352989480616 522.4489795918367 317.0288471830367 528.9795918367347 317.1166579745982 535.5102040816327 317.2046702620322 542.0408163265306 317.28728470006536 548.5714285714286 317.370088817538 555.1020408163265 317.4503654513419 561.6326530612245 317.52571853709526 568.1632653061224 317.6012443482753 574.6938775510204 317.6721382204238 581.2244897959183 317.74319502577225 587.7551020408164 317.8120826525298 594.2857142857143 317.87249468061526 600.8163265306123 317.93743560843546 607.3469387755102 317.99839350435525 613.8775510204082 318.059491615098 620.4081632653061 318.11684218003967 626.9387755102041 318.17432450334826 633.469387755102 318.2300521685397 640 318.27337020539306 640 320 0 320"
      />
      
      <polygon
        fill="#C1F12E"
        fillRule="evenodd"
        points="0 320 6.530612244897958 320 13.061224489795917 320 19.591836734693878 320 26.122448979591834 320 32.6530612244898 320 39.183673469387756 320 45.71428571428571 320 52.24489795918367 320 58.775510204081634 319.00777462464714 65.3061224489796 319.03806178675995 71.83673469387755 319.06649140558625 78.36734693877551 319.09498616892205 84.89795918367348 319.1226111400286 91.42857142857142 319.1485419428805 97.9591836734694 319.17453213615283 104.48979591836734 319.1989284981004 111.0204081632653 319.22338072608864 117.55102040816327 319.24708657678525 124.08163265306122 319.26860748679667 130.6122448979592 319.2909328698501 137.14285714285714 319.3118889235329 143.6734693877551 319.33289314716217 150.20408163265307 319.35260914325266 156.73469387755102 319.3611755126814 163.26530612244898 319.3806752577707 169.79591836734696 319.39897908735173 176.32653061224488 319.4173248704079 182.85714285714283 319.43454555435335 189.3877551020408 319.4408448023733 195.9183673469388 319.45791268442576 202.44897959183675 319.47288059108473 208.97959183673467 319.4862108017642 215.51020408163265 319.5013955348333 222.0408163265306 319.51661516234316 228.57142857142858 319.5309013430124 235.10204081632654 319.5452203219898 241.63265306122446 319.3091075098541 248.16326530612244 318.61506595055675 254.69387755102042 318.6573403189363 261.2244897959184 318.6970219563861 267.7551020408163 318.73679452899506 274.2857142857143 318.77535309154047 280.81632653061223 318.80916771581866 287.3469387755102 318.8455171191285 293.8775510204082 318.87963727526653 300.40816326530614 318.91383562536635 306.9387755102041 318.94593666133886 313.46938775510205 318.9781113702031 320 319.0093038765961 326.53061224489795 319.0385834565943 333.0612244897959 319.06793013338233 339.5918367346939 319.0954770132787 346.12244897959187 319.1230869826528 352.65306122448976 319.14985428621804 359.1836734693877 319.1733281957452 365.71428571428567 319.1985618598685 372.2448979591837 319.2222479206085 378.7755102040816 319.24598836776624 385.3061224489796 319.26827276320944 391.8367346938776 319.290608349496 398.36734693877554 319.31226214814177 404.8979591836735 319.33258785163093 411.42857142857144 319.3529601735176 417.95918367346934 319.3720830976922 424.48979591836735 319.39124990707194 431.0204081632653 319.4098317002606 437.55102040816325 318.57422065132357 444.0816326530612 318.61774170477315 450.61224489795916 318.65859368285976 457.14285714285717 318.6995392676471 463.6734693877551 318.7379737062689 470.2040816326531 318.77649640850854 476.7346938775511 318.8138431187738 483.2653061224489 318.8488992905423 489.7959183673469 318.8840361223109 496.3265306122449 318.9170177394298 502.85714285714283 318.95007518722394 509.38775510204084 318.98212361438124 515.9183673469388 319.01022874367885 522.4489795918367 319.0404408971292 528.9795918367347 319.06880023386634 535.5102040816327 319.0972245096098 542.0408163265306 319.12390550183744 548.5714285714286 319.15064783676576 555.1020408163265 319.1765739130444 561.6326530612245 319.2009098056798 568.1632653061224 319.22530149242994 574.6938775510204 319.2481973214986 581.2244897959183 319.27114572855703 587.7551020408164 319.29339358553403 594.2857142857143 319.3129041092653 600.8163265306123 319.333877322464 607.3469387755102 319.35356421930356 613.8775510204082 319.3732962857431 620.4081632653061 319.3918181542031 626.9387755102041 319.4103825926478 633.469387755102 319.4283802841346 640 319.4423702422382 640 320 0 320"
      />
      

      
        <g id="labels">
        
          
          <text x="0" y="330">
            Jul 2014
          </text>
          
        
          
        
          
        
          
        
          
        
          
        
          
        
          
        
          
        
          
        
          
        
          
        
          
        
          
          <text x="84.04040404040404" y="330">
            Aug 2015
          </text>
          
        
          
        
          
        
          
        
          
        
          
        
          
        
          
        
          
        
          
        
          
        
          
        
          
        
          
          <text x="168.08080808080808" y="330">
            Sep 2016
          </text>
          
        
          
        
          
        
          
        
          
        
          
        
          
        
          
        
          
        
          
        
          
        
          
        
          
        
          
          <text x="252.12121212121212" y="330">
            Oct 2017
          </text>
          
        
          
        
          
        
          
        
          
        
          
        
          
        
          
        
          
        
          
        
          
        
          
        
          
        
          
          <text x="336.16161616161617" y="330">
            Nov 2018
          </text>
          
        
          
        
          
        
          
        
          
        
          
        
          
        
          
        
          
        
          
        
          
        
          
        
          
        
          
          <text x="420.2020202020202" y="330">
            Dec 2019
          </text>
          
        
          
        
          
        
          
        
          
        
          
        
          
        
          
        
          
        
          
        
          
        
          
        
          
        
          
          <text x="504.24242424242425" y="330">
            Jan 2021
          </text>
          
        
          
        
          
        
          
        
          
        
          
        
          
        
          
        
          
        
          
        
          
        
          
        
          
        
          
          <text x="588.2828282828283" y="330">
            Feb 2022
          </text>
          
        
          
        
          
        
          
        
          
        
          
        
          
        
          
        
        </g>
      

      
        <text text-anchor="middle" y="370" x="320" id="legend">
          
          <tspan xml:space="preserve" fill="#C1F12E">   </tspan> Batchfile
          
          <tspan xml:space="preserve" fill="#555555">   </tspan> C
          
          <tspan xml:space="preserve" fill="#178600">   </tspan> C#
          
          <tspan xml:space="preserve" fill="#563d7c">   </tspan> CSS
          
          <tspan xml:space="preserve" fill="#244776">   </tspan> CoffeeScript
          
          <tspan xml:space="preserve" fill="#00ADD8">   </tspan> Go
          
          <tspan xml:space="preserve" fill="#e34c26">   </tspan> HTML
          
          <tspan xml:space="preserve" fill="#22e4e8">   </tspan> JSON
          
        </text>
      
        <text text-anchor="middle" y="400" x="320" id="legend">
          
          <tspan xml:space="preserve" fill="#22e8e8">   </tspan> JSon
          
          <tspan xml:space="preserve" fill="#f1e05a">   </tspan> JavaScript
          
          <tspan xml:space="preserve" fill="#2415b9">   </tspan> Less
          
          <tspan xml:space="preserve" fill="#755462">   </tspan> MySQL
          
          <tspan xml:space="preserve" fill="#4F5D95">   </tspan> PHP
          
          <tspan xml:space="preserve" fill="#fd2fdb">   </tspan> PLpgSQL
          
          <tspan xml:space="preserve" fill="#0298c3">   </tspan> Perl
          
          <tspan xml:space="preserve" fill="#3572A5">   </tspan> Python
          
        </text>
      
        <text text-anchor="middle" y="430" x="320" id="legend">
          
          <tspan xml:space="preserve" fill="#701516">   </tspan> Ruby
          
          <tspan xml:space="preserve" fill="#dea584">   </tspan> Rust
          
          <tspan xml:space="preserve" fill="#26c0b0">   </tspan> SCSS
          
          <tspan xml:space="preserve" fill="#0141ae">   </tspan> SQL
          
          <tspan xml:space="preserve" fill="#89e051">   </tspan> Shell
          
          <tspan xml:space="preserve" fill="#2770da">   </tspan> TSQL
          
          <tspan xml:space="preserve" fill="#2b7489">   </tspan> TypeScript
          
          <tspan xml:space="preserve" fill="#2c3e50">   </tspan> Vue
          
        </text>
      
        <text text-anchor="middle" y="460" x="320" id="legend">
          
          <tspan xml:space="preserve" fill="#4B6C4B">   </tspan> Yacc
          
        </text>
      

    </svg>