<svg
      xmlns="http://www.w3.org/2000/svg"
      viewBox="0 0 640 490"
      style="background-color: #292b3e"
    >
      <style>
        text {
          font-size: 12px;
          font-family: Open Sans, Helvetica Neue, Helvetica, Arial, sans-serif;
        }
        #labels text {
          dominant-baseline: hanging;
          font-size: 10px;
          fill: rgba(0,0,0,0.5);
        }
        #legend {
          font-weight: 600;
        }
        #legend tspan {
          font-size: 15px;
        }
        #branding-text {
          font-size: 9px;
          dominant-baseline: hanging;
          opacity: 0.5;
        }
        #branding-logo {
          opacity: 0.5;
        }
      </style>

      
      
      <polygon
        fill="#4B6C4B"
        fillRule="evenodd"
        points="0 313.61355122716856 6.464646464646465 304.26911502313556 12.92929292929293 297.2680507133455 19.393939393939394 285.9388255920761 25.85858585858586 278.82800870632326 32.323232323232325 274.98420710285245 38.78787878787879 267.09076762552127 45.25252525252525 257.07883098715524 51.71717171717172 246.22215383387447 58.18181818181819 230.9923548694207 64.64646464646465 221.54628353701315 71.11111111111111 206.62808646567427 77.57575757575758 198.27733476458843 84.04040404040404 192.17034178159298 90.5050505050505 182.129545615958 96.96969696969697 170.61728622199462 103.43434343434345 156.9518863829653 109.8989898989899 154.80418506321396 116.36363636363637 149.8880047158708 122.82828282828282 142.5257684061641 129.2929292929293 138.28625446002866 135.75757575757575 123.78692185555053 142.22222222222223 127.17493212155398 148.68686868686868 110.77260030916972 155.15151515151516 93.05728427629916 161.61616161616163 88.01890074800377 168.08080808080808 78.10630812816996 174.54545454545453 68.78371748740301 181.010101010101 65.97383130003544 187.47474747474746 62.13353405983878 193.93939393939394 59.18923296140281 200.40404040404042 46.683933683870464 206.8686868686869 33.29413314813064 213.33333333333331 31.646435804752343 219.7979797979798 27.414799680217868 226.26262626262627 27.528967846055764 232.72727272727275 25.251215940281043 239.1919191919192 13.93628566218706 245.65656565656565 9.643275456088588 252.12121212121212 9.883963260061591 258.5858585858586 12.93800287290344 265.0505050505051 8.246947870649024 271.5151515151515 10.710240147373383 277.979797979798 10.159190559390197 284.44444444444446 11.455679991986074 290.9090909090909 14.195650240867565 297.37373737373736 17.693047591269533 303.83838383838383 18.068009546889016 310.3030303030303 12.038733633266304 316.7676767676768 13.322665252932097 323.23232323232327 11.29275445473354 329.6969696969697 7.02961251326326 336.16161616161617 1.9719169351129153 342.62626262626264 4.6956171076962505 349.09090909090907 0.0666493206396126 355.55555555555554 0 362.020202020202 3.134221214363947 368.4848484848485 11.121759069573159 374.9494949494949 13.499735637082551 381.4141414141414 18.04818533885816 387.8787878787879 21.31461263464422 394.3434343434343 21.568594558236498 400.80808080808083 27.066561872355578 407.27272727272725 30.68096199862714 413.7373737373738 36.74795649238837 420.2020202020202 42.80375460884909 426.66666666666663 46.96047374693518 433.13131313131316 38.51480968466598 439.5959595959596 42.63122218197236 446.0606060606061 50.61546965545767 452.52525252525254 58.06906019490617 458.98989898989896 55.54224040981421 465.4545454545455 58.407868727819505 471.9191919191919 64.84930134377066 478.3838383838384 68.96515851068457 484.8484848484849 76.40572706854701 491.3131313131313 74.31942076096396 497.77777777777777 74.99079881158056 504.24242424242425 75.05200836635197 510.7070707070707 74.49040914668524 517.1717171717172 78.43675678475196 523.6363636363636 85.33610682164203 530.1010101010102 88.56516668729881 536.5656565656566 82.0255398989519 543.030303030303 83.08743383024321 549.4949494949494 90.2940776235819 555.959595959596 88.15323660753691 562.4242424242424 86.74204004365023 568.8888888888889 87.76618985147371 575.3535353535353 85.90003864440644 581.8181818181818 86.43103921207029 588.2828282828283 86.68137772090364 594.7474747474747 89.2713089791821 601.2121212121212 85.21674300195568 607.6767676767677 69.72125540412375 614.1414141414141 69.3693877036136 620.6060606060606 67.00825643077854 627.070707070707 64.10051717284239 633.5353535353536 60.65564447238404 640 62.386858724680735 640 320 0 320"
      />
      
      <polygon
        fill="#2c3e50"
        fillRule="evenodd"
        points="0 313.61355122716856 6.464646464646465 304.26911502313556 12.92929292929293 297.2680507133455 19.393939393939394 285.9388255920761 25.85858585858586 278.82800870632326 32.323232323232325 274.98420710285245 38.78787878787879 267.09076762552127 45.25252525252525 257.07883098715524 51.71717171717172 246.22215383387447 58.18181818181819 230.9923548694207 64.64646464646465 221.54628353701315 71.11111111111111 206.62808646567427 77.57575757575758 198.27733476458843 84.04040404040404 192.17034178159298 90.5050505050505 182.129545615958 96.96969696969697 170.61728622199462 103.43434343434345 156.9518863829653 109.8989898989899 154.80418506321396 116.36363636363637 149.8880047158708 122.82828282828282 142.5257684061641 129.2929292929293 138.28625446002866 135.75757575757575 123.78692185555053 142.22222222222223 127.17493212155398 148.68686868686868 110.77260030916972 155.15151515151516 93.05728427629916 161.61616161616163 88.01890074800377 168.08080808080808 78.10630812816996 174.54545454545453 68.78371748740301 181.010101010101 65.97383130003544 187.47474747474746 62.13353405983878 193.93939393939394 59.18923296140281 200.40404040404042 46.683933683870464 206.8686868686869 33.29413314813064 213.33333333333331 31.646435804752343 219.7979797979798 27.414799680217868 226.26262626262627 27.528967846055764 232.72727272727275 25.251215940281043 239.1919191919192 13.93628566218706 245.65656565656565 9.643275456088588 252.12121212121212 9.883963260061591 258.5858585858586 12.93800287290344 265.0505050505051 8.246947870649024 271.5151515151515 10.710240147373383 277.979797979798 10.159190559390197 284.44444444444446 11.455679991986074 290.9090909090909 14.195650240867565 297.37373737373736 17.693047591269533 303.83838383838383 18.068009546889016 310.3030303030303 12.038733633266304 316.7676767676768 13.322665252932097 323.23232323232327 11.29275445473354 329.6969696969697 7.02961251326326 336.16161616161617 1.9719169351129153 342.62626262626264 4.6956171076962505 349.09090909090907 0.0666493206396126 355.55555555555554 0 362.020202020202 3.134221214363947 368.4848484848485 11.121759069573159 374.9494949494949 13.499735637082551 381.4141414141414 18.04818533885816 387.8787878787879 21.31461263464422 394.3434343434343 21.568594558236498 400.80808080808083 27.066561872355578 407.27272727272725 30.68096199862714 413.7373737373738 36.74795649238837 420.2020202020202 42.80375460884909 426.66666666666663 46.96047374693518 433.13131313131316 38.51480968466598 439.5959595959596 42.63122218197236 446.0606060606061 50.61546965545767 452.52525252525254 58.06906019490617 458.98989898989896 56.642827324668644 465.4545454545455 59.47486090310326 471.9191919191919 65.88372413773686 478.3838383838384 69.96900951726013 484.8484848484849 77.37893610838657 491.3131313131313 75.26386705814699 497.77777777777777 75.90641650232914 504.24242424242425 75.93967731264826 510.7070707070707 75.35356803369763 517.1717171717172 79.27356831105527 523.6363636363636 86.1481868384052 530.1010101010102 89.35245841398563 536.5656565656566 82.78956362773985 543.030303030303 83.82813620222458 549.4949494949494 91.01217049159172 555.959595959596 88.85010661474183 562.4242424242424 87.41763848579012 568.8888888888889 88.42182132455969 575.3535353535353 86.5356573520487 581.8181818181818 87.04725603310305 588.2828282828283 87.28057976003296 594.7474747474747 89.85222076020125 601.2121212121212 85.78048622302131 607.6767676767677 70.26779072164675 614.1414141414141 69.89977041766437 620.6060606060606 67.52244953022941 627.070707070707 64.59901483125606 633.5353535353536 61.13940929760906 640 62.86783121342512 640 320 0 320"
      />
      
      <polygon
        fill="#2b7489"
        fillRule="evenodd"
        points="0 313.61355122716856 6.464646464646465 304.26911502313556 12.92929292929293 297.2680507133455 19.393939393939394 285.9388255920761 25.85858585858586 278.82800870632326 32.323232323232325 274.98420710285245 38.78787878787879 267.09076762552127 45.25252525252525 257.07883098715524 51.71717171717172 246.22215383387447 58.18181818181819 230.9923548694207 64.64646464646465 221.54628353701315 71.11111111111111 206.62808646567427 77.57575757575758 198.27733476458843 84.04040404040404 192.17034178159298 90.5050505050505 182.129545615958 96.96969696969697 170.61728622199462 103.43434343434345 156.9518863829653 109.8989898989899 154.80418506321396 116.36363636363637 149.8880047158708 122.82828282828282 142.5257684061641 129.2929292929293 138.28625446002866 135.75757575757575 123.78692185555053 142.22222222222223 127.17493212155398 148.68686868686868 110.77260030916972 155.15151515151516 93.05728427629916 161.61616161616163 88.01890074800377 168.08080808080808 78.10630812816996 174.54545454545453 68.78371748740301 181.010101010101 65.97383130003544 187.47474747474746 62.13353405983878 193.93939393939394 59.18923296140281 200.40404040404042 46.683933683870464 206.8686868686869 33.29413314813064 213.33333333333331 31.646435804752343 219.7979797979798 27.414799680217868 226.26262626262627 27.528967846055764 232.72727272727275 25.251215940281043 239.1919191919192 13.93628566218706 245.65656565656565 9.643275456088588 252.12121212121212 9.883963260061591 258.5858585858586 12.93800287290344 265.0505050505051 8.246947870649024 271.5151515151515 10.710240147373383 277.979797979798 10.159190559390197 284.44444444444446 11.455679991986074 290.9090909090909 14.195650240867565 297.37373737373736 17.693047591269533 303.83838383838383 18.068009546889016 310.3030303030303 12.038733633266304 316.7676767676768 13.322665252932097 323.23232323232327 11.29275445473354 329.6969696969697 7.02961251326326 336.16161616161617 1.9719169351129153 342.62626262626264 4.6956171076962505 349.09090909090907 0.0666493206396126 355.55555555555554 0 362.020202020202 3.134221214363947 368.4848484848485 11.121759069573159 374.9494949494949 13.499735637082551 381.4141414141414 18.04818533885816 387.8787878787879 21.31461263464422 394.3434343434343 21.568594558236498 400.80808080808083 27.066561872355578 407.27272727272725 30.68096199862714 413.7373737373738 36.74795649238837 420.2020202020202 42.80375460884909 426.66666666666663 46.96047374693518 433.13131313131316 38.51480968466598 439.5959595959596 42.63122218197236 446.0606060606061 50.61546965545767 452.52525252525254 58.06906019490617 458.98989898989896 56.642827324668644 465.4545454545455 59.47486090310326 471.9191919191919 65.88372413773686 478.3838383838384 69.96900951726013 484.8484848484849 77.37893610838657 491.3131313131313 75.26386705814699 497.77777777777777 75.90641650232914 504.24242424242425 75.93967731264826 510.7070707070707 75.35356803369763 517.1717171717172 79.27356831105527 523.6363636363636 86.1481868384052 530.1010101010102 89.35245841398563 536.5656565656566 84.99966852408764 543.030303030303 87.49740624433679 549.4949494949494 94.56943799765551 555.959595959596 94.67097098826446 562.4242424242424 95.57912232888046 568.8888888888889 99.33783111314807 575.3535353535353 99.23023985921643 581.8181818181818 100.29075815738105 588.2828282828283 100.92503713710863 594.7474747474747 103.11102568081338 601.2121212121212 98.64743557285658 607.6767676767677 83.41159501991868 614.1414141414141 83.12850199891523 620.6060606060606 80.36988532301226 627.070707070707 77.05428679845099 633.5353535353536 73.22657467218272 640 74.88522989313446 640 320 0 320"
      />
      
      <polygon
        fill="#2770da"
        fillRule="evenodd"
        points="0 313.61355122716856 6.464646464646465 304.26911502313556 12.92929292929293 297.2680507133455 19.393939393939394 285.9388255920761 25.85858585858586 278.82800870632326 32.323232323232325 274.98420710285245 38.78787878787879 267.09076762552127 45.25252525252525 257.07883098715524 51.71717171717172 246.22215383387447 58.18181818181819 230.9923548694207 64.64646464646465 221.54628353701315 71.11111111111111 206.62808646567427 77.57575757575758 198.27733476458843 84.04040404040404 192.17034178159298 90.5050505050505 182.129545615958 96.96969696969697 170.61728622199462 103.43434343434345 156.9518863829653 109.8989898989899 154.80418506321396 116.36363636363637 149.8880047158708 122.82828282828282 142.5257684061641 129.2929292929293 138.28625446002866 135.75757575757575 123.78692185555053 142.22222222222223 127.17493212155398 148.68686868686868 110.77260030916972 155.15151515151516 93.05728427629916 161.61616161616163 88.01890074800377 168.08080808080808 78.10630812816996 174.54545454545453 68.78371748740301 181.010101010101 65.97383130003544 187.47474747474746 62.13353405983878 193.93939393939394 59.18923296140281 200.40404040404042 46.683933683870464 206.8686868686869 33.29413314813064 213.33333333333331 31.646435804752343 219.7979797979798 27.414799680217868 226.26262626262627 27.528967846055764 232.72727272727275 25.251215940281043 239.1919191919192 14.574494635006204 245.65656565656565 11.080285712076716 252.12121212121212 11.277109575705481 258.5858585858586 14.289975490690267 265.0505050505051 9.557652259103463 271.5151515151515 11.980935938404741 277.979797979798 11.394800479578521 284.44444444444446 12.653573600277582 290.9090909090909 15.358140784115562 297.37373737373736 18.820053792955605 303.83838383838383 19.16170768597874 310.3030303030303 13.0990472625665 316.7676767676768 14.350613462848003 323.23232323232327 12.290322097993226 329.6969696969697 7.996730027031049 336.16161616161617 2.9104517270337738 342.62626262626264 5.605503724998698 349.09090909090907 0.9487621794708048 355.55555555555554 0.8577562076915797 362.020202020202 3.9657948749186858 368.4848484848485 11.9287560878048 374.9494949494949 14.282099499609103 381.4141414141414 18.807426905259888 387.8787878787879 22.05067873096624 394.3434343434343 22.282192701196152 400.80808080808083 27.759070032884154 407.27272727272725 31.352331729343575 413.7373737373738 37.39948423082643 420.2020202020202 43.435394866873935 426.66666666666663 47.572833539920396 433.13131313131316 40.230350973249756 439.5959595959596 44.294397554269665 446.0606060606061 52.22949092109593 452.52525252525254 59.63381432712134 458.98989898989896 58.16133583711809 465.4545454545455 60.947017858883726 471.9191919191919 67.31094432367917 478.3838383838384 71.35404903962944 484.8484848484849 78.72169817517229 491.3131313131313 76.566944503316 497.77777777777777 77.169718185209 504.24242424242425 77.1644174489395 510.7070707070707 76.54449107594792 517.1717171717172 80.42813906894742 523.6363636363636 87.26863491898712 530.1010101010102 90.43870541778378 536.5656565656566 86.05381212509087 543.030303030303 88.51937276964523 549.4949494949494 95.56020944434545 555.959595959596 95.63246079669938 562.4242424242424 96.51126319675996 568.8888888888889 100.24242304306512 575.3535353535353 100.10721965893487 581.8181818181818 101.14096864692988 588.2828282828283 101.75177201914349 594.7474747474747 103.91252487173921 601.2121212121212 99.42524686118003 607.6767676767677 84.17676127461331 614.1414141414141 84.134736534441 620.6060606060606 81.5407472449142 627.070707070707 78.21143641609197 633.5353535353536 74.34952547357514 640 76.00169881511277 640 320 0 320"
      />
      
      <polygon
        fill="#89e051"
        fillRule="evenodd"
        points="0 313.61355122716856 6.464646464646465 304.9098446777455 12.92929292929293 298.3344810428604 19.393939393939394 288.0768251670602 25.85858585858586 281.27135296138954 32.323232323232325 277.3529697229066 38.78787878787879 269.99996350498725 45.25252525252525 260.071748154028 51.71717171717172 250.17320113999702 58.18181818181819 235.18162673381678 64.64646464646465 226.78750207037447 71.11111111111111 213.32786606812203 77.57575757575758 205.81370148383706 84.04040404040404 200.42203023002668 90.5050505050505 190.4508924590657 96.96969696969697 178.68463007332124 103.43434343434345 164.7808048993848 109.8989898989899 162.39412955116273 116.36363636363637 158.35646555101926 122.82828282828282 150.82956733039754 129.2929292929293 146.4703600961824 135.75757575757575 132.58697814498288 142.22222222222223 135.70637208613164 148.68686868686868 119.05190057954724 155.15151515151516 102.43445111282395 161.61616161616163 97.17060487818202 168.08080808080808 87.08400036250592 174.54545454545453 77.51843094951528 181.010101010101 74.59635645119985 187.47474747474746 71.29279351543462 193.93939393939394 68.12756619395407 200.40404040404042 55.43679821677057 206.8686868686869 42.60299688363381 213.33333333333331 40.816326557773266 219.7979797979798 36.304784173179655 226.26262626262627 36.6573446906599 232.72727272727275 34.2658191194443 239.1919191919192 23.330770110141657 245.65656565656565 19.768711631769065 252.12121212121212 20.331947714074715 258.5858585858586 23.771788670453702 265.0505050505051 19.357912592442347 271.5151515151515 21.65726304149024 277.979797979798 22.19783282490289 284.44444444444446 24.033490850172768 290.9090909090909 26.401730046365117 297.37373737373736 29.526543814022432 303.83838383838383 29.79484641973579 310.3030303030303 23.46943678803831 316.7676767676768 24.70110657879212 323.23232323232327 22.404272391161044 329.6969696969697 17.80196209946496 336.16161616161617 12.431538624750885 342.62626262626264 14.8359673703942 349.09090909090907 10.202330653218496 355.55555555555554 9.855815248396823 362.020202020202 12.71734624232397 368.4848484848485 20.455536883665786 374.9494949494949 22.802223430075003 381.4141414141414 27.111571588639663 387.8787878787879 30.808644880988425 394.3434343434343 30.772826921409546 400.80808080808083 35.99877147923405 407.27272727272725 39.34051677272112 413.7373737373738 45.23243420641586 420.2020202020202 51.02924802582612 426.66666666666663 55.069677471328134 433.13131313131316 47.53774088130649 439.5959595959596 51.37873695262749 446.0606060606061 59.10445276015179 452.52525252525254 66.29892142842766 458.98989898989896 64.91788405656632 465.4545454545455 67.49732675850908 471.9191919191919 73.66130805571586 478.3838383838384 78.63272449828338 484.8484848484849 85.77819641000696 491.3131313131313 83.41488780818759 497.77777777777777 83.84707636022054 504.24242424242425 83.63795240533679 510.7070707070707 82.83928263065732 517.1717171717172 87.0489735867817 523.6363636363636 93.69379174883633 530.1010101010102 96.66773841218472 536.5656565656566 92.09874856475597 543.030303030303 94.3797940445412 549.4949494949494 101.2417432598051 555.959595959596 101.14608122949761 562.4242424242424 101.85658277059935 568.8888888888889 105.42976449230486 575.3535353535353 105.13621965390433 581.8181818181818 106.01646216433971 588.2828282828283 106.49264470099604 594.7474747474747 108.50868558578995 601.2121212121212 104.55197894122585 607.6767676767677 89.147003998045 614.1414141414141 88.95808720929585 620.6060606060606 86.21686833217422 627.070707070707 82.74482021586945 633.5353535353536 78.74892816927982 640 80.37570717123234 640 320 0 320"
      />
      
      <polygon
        fill="#0141ae"
        fillRule="evenodd"
        points="0 313.6957893496347 6.464646464646465 304.9895725343509 12.92929292929293 298.41185257914015 19.393939393939394 288.15459756303375 25.85858585858586 281.3468268368695 32.323232323232325 277.4261397974882 38.78787878787879 270.0709001090606 45.25252525252525 260.1686788752372 51.71717171717172 250.62555634125508 58.18181818181819 236.59147275384663 64.64646464646465 228.16534004109758 71.11111111111111 215.56290292183843 77.57575757575758 209.3479134823184 84.04040404040404 203.84836260055673 90.5050505050505 193.80956947468357 96.96969696969697 182.16688911421124 103.43434343434345 169.2001147935355 109.8989898989899 166.68964698475702 116.36363636363637 162.52086474572206 122.82828282828282 154.87493290231617 129.2929292929293 151.50331818567673 135.75757575757575 138.33052481379093 142.22222222222223 141.27459934494078 148.68686868686868 124.45556200019075 155.15151515151516 107.9820825319392 161.61616161616163 102.61892882463349 168.08080808080808 92.52509100706561 174.54545454545453 83.01578909150433 181.010101010101 79.93124334646413 187.47474747474746 76.46483658665915 193.93939393939394 73.61556304833942 200.40404040404042 61.01130832513752 206.8686868686869 50.21118286378157 213.33333333333331 49.30676246739159 219.7979797979798 44.536054850448636 226.26262626262627 46.726499394692894 232.72727272727275 45.53591709936575 239.1919191919192 38.061893512055235 245.65656565656565 34.37997323297293 252.12121212121212 35.187937947312605 258.5858585858586 40.45925842299914 265.0505050505051 36.76698322467291 271.5151515151515 38.53493320503571 277.979797979798 38.69021735520994 284.44444444444446 40.02245314595723 290.9090909090909 41.96023196635895 297.37373737373736 45.107450721195846 303.83838383838383 44.91804014327789 310.3030303030303 38.14217981129633 316.7676767676768 38.92596974688985 323.23232323232327 36.36867873925132 329.6969696969697 33.69989366701259 336.16161616161617 28.41738651942825 342.62626262626264 30.372857545588715 349.09090909090907 26.293914058133396 355.55555555555554 25.536689190777963 362.020202020202 28.083884533798823 368.4848484848485 35.36793055470474 374.9494949494949 37.588658020242576 381.4141414141414 41.46100155337905 387.8787878787879 45.37433100838575 394.3434343434343 45.02195179816516 400.80808080808083 49.826768908360066 407.27272727272725 53.20069908666375 413.7373737373738 58.857982205868666 420.2020202020202 64.62546763504429 426.66666666666663 68.63083823337502 433.13131313131316 63.21839493525579 439.5959595959596 66.93880275202915 446.0606060606061 74.20465067479324 452.52525252525254 80.9381961993393 458.98989898989896 80.26642540465886 465.4545454545455 82.74326549275986 471.9191919191919 88.44187552931407 478.3838383838384 93.40759645049025 484.8484848484849 100.10207821601054 491.3131313131313 98.3447882974593 497.77777777777777 99.94044456049113 504.24242424242425 99.86324030700752 510.7070707070707 98.67433124427677 517.1717171717172 102.40066324401062 523.6363636363636 108.59176731484868 530.1010101010102 111.11096312329951 536.5656565656566 106.11511434378866 543.030303030303 107.96831550361262 549.4949494949494 114.41548012774126 555.959595959596 113.9304789134307 562.4242424242424 114.39444339427382 568.8888888888889 117.59707765901285 575.3535353535353 116.93213355285152 581.8181818181818 117.45230978365248 588.2828282828283 117.642973356651 594.7474747474747 119.318659829458 601.2121212121212 115.05075865051174 607.6767676767677 99.80070435521182 614.1414141414141 99.38394061190468 620.6060606060606 97.92040237432846 627.070707070707 95.72561114995563 633.5353535353536 92.85898594308429 640 94.45512749937137 640 320 0 320"
      />
      
      <polygon
        fill="#26c0b0"
        fillRule="evenodd"
        points="0 313.6957893496347 6.464646464646465 305.0750736439357 12.92929292929293 298.52242564515353 19.393939393939394 288.3920376950146 25.85858585858586 281.7296760240818 32.323232323232325 277.85566838063613 38.78787878787879 270.5454287262091 45.25252525252525 260.80008488015596 51.71717171717172 251.72755496039218 58.18181818181819 237.79095726521774 64.64646464646465 230.20549676477654 71.11111111111111 218.21679456321448 77.57575757575758 212.4285497959933 84.04040404040404 207.47604136229458 90.5050505050505 198.30984228944055 96.96969696969697 186.52979464579653 103.43434343434345 173.8064235642192 109.8989898989899 171.15534984447305 116.36363636363637 166.87835444578127 122.82828282828282 159.35263982088225 129.2929292929293 156.04896179304575 135.75757575757575 143.1236556254977 142.22222222222223 145.92424545399993 148.68686868686868 128.96779058054403 155.15151515151516 112.62426363424032 161.61616161616163 107.34721957261698 168.08080808080808 97.3918248475112 174.54545454545453 88.07441494260115 181.010101010101 84.90353216257961 187.47474747474746 81.47893842110975 193.93939393939394 78.54025526660425 200.40404040404042 65.83901330470098 206.8686868686869 55.25797224389396 213.33333333333331 54.27457264935805 219.7979797979798 49.44602276390799 226.26262626262627 52.03146368719848 232.72727272727275 50.75692130973766 239.1919191919192 43.28771163505894 245.65656565656565 39.624395561336655 252.12121212121212 40.27227738722712 258.5858585858586 46.01551460622301 265.0505050505051 42.22615681570721 271.5151515151515 45.294924219716336 277.979797979798 46.22641658934464 284.44444444444446 47.342372173558715 290.9090909090909 49.12233418937848 297.37373737373736 52.196353729279 303.83838383838383 51.848076841899285 310.3030303030303 44.89910471812357 316.7676767676768 45.540423390136425 323.23232323232327 42.90206486075908 329.6969696969697 40.52994278010556 336.16161616161617 35.11179426803625 342.62626262626264 37.18673150123243 349.09090909090907 32.91355008126254 355.55555555555554 31.973546242985094 362.020202020202 34.329893223393185 368.4848484848485 41.45128581898098 374.9494949494949 43.65059368521838 381.4141414141414 47.72255481383098 387.8787878787879 51.45032412025921 394.3434343434343 51.04932048789652 400.80808080808083 55.67599950610065 407.27272727272725 59.07770673092688 413.7373737373738 64.6496690285108 420.2020202020202 70.24036631626467 426.66666666666663 74.11931997257807 433.13131313131316 68.67688420060966 439.5959595959596 72.31805008338657 446.0606060606061 79.43581496373577 452.52525252525254 86.08177974788973 458.98989898989896 85.88903055890583 465.4545454545455 88.95218218920124 471.9191919191919 94.47242674446582 478.3838383838384 100.00815807692106 484.8484848484849 106.5886608792963 491.3131313131313 104.63966595801259 497.77777777777777 106.0986468671718 504.24242424242425 105.83346656940432 510.7070707070707 104.49630533511902 517.1717171717172 108.04492257946922 523.6363636363636 114.08030978024954 530.1010101010102 116.43196899616956 536.5656565656566 111.27886299731034 543.030303030303 112.97444350536381 549.4949494949494 119.26879656102841 555.959595959596 118.64035965658516 562.4242424242424 118.96055635411258 568.8888888888889 122.02824364970428 575.3535353535353 121.47121184650427 581.8181818181818 121.85283462962079 588.2828282828283 121.92199340376689 594.7474747474747 123.46988904286403 601.2121212121212 119.66087457361454 607.6767676767677 104.27010010756362 614.1414141414141 103.72124558143634 620.6060606060606 102.12531293005111 627.070707070707 99.80216902619946 633.5353535353536 96.81506304295792 640 98.3883709323749 640 320 0 320"
      />
      
      <polygon
        fill="#dea584"
        fillRule="evenodd"
        points="0 313.6957893496347 6.464646464646465 305.0750736439357 12.92929292929293 298.52242564515353 19.393939393939394 288.3920376950146 25.85858585858586 281.7296760240818 32.323232323232325 277.85566838063613 38.78787878787879 270.5454287262091 45.25252525252525 260.80008488015596 51.71717171717172 251.72755496039218 58.18181818181819 237.79095726521774 64.64646464646465 230.20549676477654 71.11111111111111 218.60518902842315 77.57575757575758 212.80508875034536 84.04040404040404 207.8410866969382 90.5050505050505 198.66409889065199 96.96969696969697 187.99623645462944 103.43434343434345 176.33187672852745 109.8989898989899 173.6037147483977 116.36363636363637 169.25198451205273 122.82828282828282 162.7599816400225 129.2929292929293 159.35229700043178 135.75757575757575 148.5573533949252 142.22222222222223 151.19208230404922 148.68686868686868 136.32718615776474 155.15151515151516 123.07436168874085 161.61616161616163 117.47833349366132 168.08080808080808 107.2235226505017 174.54545454545453 98.72218447720431 181.010101010101 95.23661103948584 187.47474747474746 91.49660635157727 193.93939393939394 88.2521389456291 200.40404040404042 76.38156047057527 206.8686868686869 66.58282295710339 213.33333333333331 65.26472337133046 219.7979797979798 60.10070439888989 226.26262626262627 62.371251730066206 232.72727272727275 60.78109341671734 239.1919191919192 53.0059017965105 245.65656565656565 49.0553693026377 252.12121212121212 49.41537648160465 258.5858585858586 54.8883940397223 265.0505050505051 51.93115572627994 271.5151515151515 54.70368409182066 277.979797979798 55.375385471833226 284.44444444444446 56.212072472440525 290.9090909090909 57.72989665201692 297.37373737373736 60.541176231276495 303.83838383838383 61.06429973153615 310.3030303030303 54.089826714762296 316.7676767676768 54.45060473831501 323.23232323232327 51.54891193302109 329.6969696969697 48.91284810897025 336.16161616161617 43.24694739617735 342.62626262626264 45.07356339026876 349.09090909090907 41.668908395583685 355.55555555555554 40.487153666746394 362.020202020202 42.58362951128794 368.4848484848485 49.4610856897059 374.9494949494949 51.47777004819767 381.4141414141414 55.318402381410465 387.8787878787879 58.814314749196 394.3434343434343 58.18853068113515 400.80808080808083 62.60421236375697 407.27272727272725 65.79444034797973 413.7373737373738 71.16789199311381 420.2020202020202 76.55962446632964 426.66666666666663 80.24568705814937 433.13131313131316 74.62813850965699 439.5959595959596 78.08764407822099 446.0606060606061 85.03489267228468 452.52525252525254 91.50994865902715 458.98989898989896 91.15677298023138 465.4545454545455 94.05912944796097 471.9191919191919 99.42348779852495 478.3838383838384 104.81289293548474 484.8484848484849 111.2467338528754 491.3131313131313 109.16007274400494 497.77777777777777 110.48107037412848 504.24242424242425 110.08211899656604 510.7070707070707 108.62764625637402 517.1717171717172 112.05015645754361 523.6363636363636 117.96717031734491 530.1010101010102 120.20018646932627 536.5656565656566 116.05407855315977 543.030303030303 117.60389820504116 549.4949494949494 123.7569393434693 555.959595959596 123.35403419445021 562.4242424242424 123.53034864337542 568.8888888888889 126.46297820359109 575.3535353535353 125.77057763591071 581.8181818181818 126.02096422129475 588.2828282828283 125.99999288501022 594.7474747474747 127.42341009384486 601.2121212121212 123.4975516384853 607.6767676767677 107.9896650046388 614.1414141414141 107.33088013405421 620.6060606060606 105.62476539678272 627.070707070707 103.19480359730045 633.5353535353536 100.10742951665242 640 101.66173349697121 640 320 0 320"
      />
      
      <polygon
        fill="#701516"
        fillRule="evenodd"
        points="0 313.6957893496347 6.464646464646465 305.0750736439357 12.92929292929293 298.52242564515353 19.393939393939394 288.3920376950146 25.85858585858586 281.7296760240818 32.323232323232325 277.85566838063613 38.78787878787879 270.5454287262091 45.25252525252525 260.80008488015596 51.71717171717172 251.72755496039218 58.18181818181819 237.79095726521774 64.64646464646465 230.20549676477654 71.11111111111111 218.60518902842315 77.57575757575758 212.80508875034536 84.04040404040404 207.8410866969382 90.5050505050505 198.66409889065199 96.96969696969697 187.99623645462944 103.43434343434345 176.33187672852745 109.8989898989899 173.6037147483977 116.36363636363637 169.25198451205273 122.82828282828282 162.7599816400225 129.2929292929293 159.35229700043178 135.75757575757575 148.5573533949252 142.22222222222223 151.19208230404922 148.68686868686868 136.32718615776474 155.15151515151516 123.07436168874085 161.61616161616163 117.47833349366132 168.08080808080808 107.2235226505017 174.54545454545453 98.72218447720431 181.010101010101 95.23661103948584 187.47474747474746 91.49660635157727 193.93939393939394 88.2521389456291 200.40404040404042 76.38156047057527 206.8686868686869 66.58282295710339 213.33333333333331 65.26472337133046 219.7979797979798 60.10070439888989 226.26262626262627 62.371251730066206 232.72727272727275 60.78109341671734 239.1919191919192 53.0059017965105 245.65656565656565 49.0553693026377 252.12121212121212 49.41537648160465 258.5858585858586 54.8883940397223 265.0505050505051 51.93115572627994 271.5151515151515 54.70368409182066 277.979797979798 55.375385471833226 284.44444444444446 56.212072472440525 290.9090909090909 57.72989665201692 297.37373737373736 60.541176231276495 303.83838383838383 61.06429973153615 310.3030303030303 54.089826714762296 316.7676767676768 54.45060473831501 323.23232323232327 51.54891193302109 329.6969696969697 48.91284810897025 336.16161616161617 43.24694739617735 342.62626262626264 45.07356339026876 349.09090909090907 41.668908395583685 355.55555555555554 40.487153666746394 362.020202020202 42.58362951128794 368.4848484848485 49.4610856897059 374.9494949494949 51.47777004819767 381.4141414141414 55.318402381410465 387.8787878787879 58.814314749196 394.3434343434343 58.18853068113515 400.80808080808083 62.60421236375697 407.27272727272725 65.79444034797973 413.7373737373738 71.16789199311381 420.2020202020202 76.55962446632964 426.66666666666663 80.24568705814937 433.13131313131316 74.62813850965699 439.5959595959596 78.08764407822099 446.0606060606061 85.03489267228468 452.52525252525254 91.50994865902715 458.98989898989896 91.15677298023138 465.4545454545455 94.05912944796097 471.9191919191919 99.42348779852495 478.3838383838384 104.81289293548474 484.8484848484849 111.2467338528754 491.3131313131313 109.16007274400494 497.77777777777777 110.48107037412848 504.24242424242425 110.08211899656604 510.7070707070707 108.62764625637402 517.1717171717172 112.05015645754361 523.6363636363636 117.96717031734491 530.1010101010102 120.20018646932627 536.5656565656566 116.05407855315977 543.030303030303 117.60389820504116 549.4949494949494 123.7569393434693 555.959595959596 123.35403419445021 562.4242424242424 123.53034864337542 568.8888888888889 126.46297820359109 575.3535353535353 125.77057763591071 581.8181818181818 126.02096422129475 588.2828282828283 125.99999288501022 594.7474747474747 127.42341009384486 601.2121212121212 123.4975516384853 607.6767676767677 108.0092212364872 614.1414141414141 107.34985839121461 620.6060606060606 105.64316435478685 627.070707070707 103.21264093661676 633.5353535353536 100.12473968270103 640 101.67894374633292 640 320 0 320"
      />
      
      <polygon
        fill="#3572A5"
        fillRule="evenodd"
        points="0 313.6957893496347 6.464646464646465 305.0750736439357 12.92929292929293 298.52242564515353 19.393939393939394 288.3920376950146 25.85858585858586 281.7296760240818 32.323232323232325 277.85566838063613 38.78787878787879 270.5454287262091 45.25252525252525 260.80008488015596 51.71717171717172 251.72755496039218 58.18181818181819 237.79095726521774 64.64646464646465 230.20549676477654 71.11111111111111 218.60518902842315 77.57575757575758 212.80508875034536 84.04040404040404 207.8410866969382 90.5050505050505 198.66409889065199 96.96969696969697 187.99623645462944 103.43434343434345 176.33187672852745 109.8989898989899 173.6037147483977 116.36363636363637 169.25198451205273 122.82828282828282 163.42160949119528 129.2929292929293 159.99372902390377 135.75757575757575 149.21624740610528 142.22222222222223 151.83086395265622 148.68686868686868 137.94833150034006 155.15151515151516 125.43993078895298 161.61616161616163 119.77169493191244 168.08080808080808 109.44910512366147 174.54545454545453 100.8798323165932 181.010101010101 97.33049071988088 187.47474747474746 93.5265713491917 193.93939393939394 90.2201404106649 200.40404040404042 78.295222469273 206.8686868686869 68.47394217872096 213.33333333333331 67.09995178289776 219.7979797979798 61.879913355399026 226.26262626262627 64.09787724514393 232.72727272727275 62.45501455172615 239.1919191919192 54.628727333308916 245.65656565656565 50.63023316513767 252.12121212121212 50.942168520086966 258.5858585858586 56.37006260870265 265.0505050505051 53.40343064090143 271.5151515151515 56.13101884580101 277.979797979798 56.763309128965886 284.44444444444446 57.55763051311368 290.9090909090909 59.03568745878397 297.37373737373736 61.80710835521029 303.83838383838383 62.29281804429422 310.3030303030303 55.28084521325246 316.7676767676768 55.60526797265044 323.23232323232327 52.66944992125627 329.6969696969697 49.99918224612833 336.16161616161617 44.30117556175037 342.62626262626264 46.09561180860533 349.09090909090907 42.65975932063901 355.55555555555554 41.45064564155456 362.020202020202 43.517711459712245 368.4848484848485 50.36756126202141 374.9494949494949 52.37890757195112 381.4141414141414 56.192907203251366 387.8787878787879 59.662125731920185 394.3434343434343 59.01046285046294 400.80808080808083 63.401852779858075 407.27272727272725 66.56773319618287 413.7373737373738 71.91833056247518 420.2020202020202 77.28715637408163 426.66666666666663 80.951011467304 433.13131313131316 75.31330223215932 439.5959595959596 78.75189357491038 446.0606060606061 85.67951061197999 452.52525252525254 92.13489001597566 458.98989898989896 91.76324454119268 465.4545454545455 94.64708888954948 471.9191919191919 99.99350002850736 478.3838383838384 105.36605876261666 484.8484848484849 111.78301471447986 491.3131313131313 109.68050396524058 497.77777777777777 110.98561578643074 504.24242424242425 110.57126344365201 510.7070707070707 109.1032846216676 517.1717171717172 112.51127629866835 523.6363636363636 118.41466193584597 530.1010101010102 120.63401870064223 536.5656565656566 116.47508906946433 543.030303030303 118.01205761937575 549.4949494949494 124.15263992035605 555.959595959596 123.7380400153643 562.4242424242424 123.90263298262477 568.8888888888889 126.82425984974398 575.3535353535353 126.1208313839987 581.8181818181818 126.36052665474605 588.2828282828283 126.3301794606804 594.7474747474747 127.74351791883873 601.2121212121212 123.80819883562509 607.6767676767677 108.32980235591793 614.1414141414141 107.6609649085731 620.6060606060606 105.94477447645798 627.070707070707 103.50504460707577 633.5353535353536 100.40850155283553 640 101.96106771480433 640 320 0 320"
      />
      
      <polygon
        fill="#0298c3"
        fillRule="evenodd"
        points="0 313.6957893496347 6.464646464646465 305.0750736439357 12.92929292929293 298.52242564515353 19.393939393939394 288.3920376950146 25.85858585858586 281.7296760240818 32.323232323232325 277.85566838063613 38.78787878787879 270.5454287262091 45.25252525252525 260.80008488015596 51.71717171717172 251.72755496039218 58.18181818181819 237.79095726521774 64.64646464646465 230.20549676477654 71.11111111111111 218.60518902842315 77.57575757575758 212.80508875034536 84.04040404040404 207.8410866969382 90.5050505050505 198.66409889065199 96.96969696969697 187.99623645462944 103.43434343434345 176.33187672852745 109.8989898989899 173.6037147483977 116.36363636363637 169.25198451205273 122.82828282828282 163.42160949119528 129.2929292929293 159.99372902390377 135.75757575757575 149.21624740610528 142.22222222222223 151.83086395265622 148.68686868686868 137.94833150034006 155.15151515151516 126.07804211692314 161.61616161616163 120.3903282754354 168.08080808080808 110.04945510370689 174.54545454545453 101.46185695913101 181.010101010101 97.89531395277746 187.47474747474746 94.0741536541803 193.93939393939394 90.75100811228498 200.40404040404042 78.81143203812033 206.8686868686869 68.97439468639436 213.33333333333331 67.69008790418326 219.7979797979798 62.45203592864311 226.26262626262627 64.65309101448852 232.72727272727275 62.9932807489912 239.1919191919192 55.15056327171823 245.65656565656565 51.13664657076913 252.12121212121212 51.433123902536636 258.5858585858586 56.846508087843006 265.0505050505051 53.86533290466258 271.5151515151515 56.57882178111089 277.979797979798 57.198747491149106 284.44444444444446 57.97977739022872 290.9090909090909 59.44535797930274 297.37373737373736 62.204273923361484 303.83838383838383 62.678245598047624 310.3030303030303 55.65450782141272 316.7676767676768 55.96752476234758 323.23232323232327 53.021000394582586 329.6969696969697 50.340001835175315 336.16161616161617 44.631922390539614 342.62626262626264 46.41626279912657 349.09090909090907 42.97062261467647 355.55555555555554 41.75292548790321 362.020202020202 43.810764397004505 368.4848484848485 50.651953163889004 374.9494949494949 52.654618586784125 381.4141414141414 56.46046970765883 387.8787878787879 59.9215210662108 394.3434343434343 59.261940269476895 400.80808080808083 63.6458979287749 407.27272727272725 66.80432900796123 413.7373737373738 72.14793391184566 420.2020202020202 77.50975122151885 426.66666666666663 81.16681172109651 433.13131313131316 75.5229341633314 439.5959595959596 78.95512660886342 446.0606060606061 85.87673720846425 452.52525252525254 92.32609637545073 458.98989898989896 91.94879990154635 465.4545454545455 94.82698027325424 471.9191919191919 100.16790034596184 478.3838383838384 105.53530476165153 484.8484848484849 111.94709456838555 491.3131313131313 109.8397345291373 497.77777777777777 111.13998594259502 504.24242424242425 110.72092152429892 510.7070707070707 109.2488104027208 517.1717171717172 112.65235998404276 523.6363636363636 118.55157597141871 530.1010101010102 120.76675352023904 536.5656565656566 116.6039009766854 543.030303030303 118.13693761318052 549.4949494949494 124.273708035168 555.959595959596 123.85553001108178 562.4242424242424 124.01653668022004 568.8888888888889 126.93479717874959 575.3535353535353 126.22799461749409 581.8181818181818 126.46441879093868 588.2828282828283 126.43120297040923 594.7474747474747 127.8414577471074 601.2121212121212 126.40244974717504 607.6767676767677 115.1776732209089 614.1414141414141 114.40708918333246 620.6060606060606 112.69049894472747 627.070707070707 110.04485979367337 633.5353535353536 107.19476204250975 640 108.70815723812854 640 320 0 320"
      />
      
      <polygon
        fill="#fd2fdb"
        fillRule="evenodd"
        points="0 313.6957893496347 6.464646464646465 305.0750736439357 12.92929292929293 298.52242564515353 19.393939393939394 288.3920376950146 25.85858585858586 281.7296760240818 32.323232323232325 277.85566838063613 38.78787878787879 270.5454287262091 45.25252525252525 260.80008488015596 51.71717171717172 251.72755496039218 58.18181818181819 237.79095726521774 64.64646464646465 230.20549676477654 71.11111111111111 218.60518902842315 77.57575757575758 212.80508875034536 84.04040404040404 207.8410866969382 90.5050505050505 198.66409889065199 96.96969696969697 187.99623645462944 103.43434343434345 176.33187672852745 109.8989898989899 173.6037147483977 116.36363636363637 169.25198451205273 122.82828282828282 163.42160949119528 129.2929292929293 159.99372902390377 135.75757575757575 149.21624740610528 142.22222222222223 151.83086395265622 148.68686868686868 137.94833150034006 155.15151515151516 126.07804211692314 161.61616161616163 120.3903282754354 168.08080808080808 110.04945510370689 174.54545454545453 101.46185695913101 181.010101010101 97.89531395277746 187.47474747474746 94.0741536541803 193.93939393939394 90.75100811228498 200.40404040404042 78.81143203812033 206.8686868686869 68.97439468639436 213.33333333333331 67.69008790418326 219.7979797979798 62.45203592864311 226.26262626262627 64.65309101448852 232.72727272727275 62.9932807489912 239.1919191919192 55.15056327171823 245.65656565656565 51.13664657076913 252.12121212121212 51.433123902536636 258.5858585858586 56.846508087843006 265.0505050505051 53.86533290466258 271.5151515151515 56.57882178111089 277.979797979798 58.32835094512103 284.44444444444446 59.074900385806416 290.9090909090909 60.50811514448975 297.37373737373736 63.23459107149995 303.83838383838383 64.55887305891792 310.3030303030303 57.47773022184953 316.7676767676768 57.7350942226966 323.23232323232327 54.73633022036603 329.6969696969697 52.0029724235265 336.16161616161617 46.24574472907318 342.62626262626264 47.98082406658159 349.09090909090907 44.487426580772706 355.55555555555554 43.22784800309637 362.020202020202 45.24066578329291 368.4848484848485 52.03959445961482 374.9494949494949 53.99990299993664 381.4141414141414 57.76599500428199 387.8787878787879 61.18719590012893 394.3434343434343 60.488981014174215 400.80808080808083 64.8366741389836 407.27272727272725 67.9587575576339 413.7373737373738 73.26824394564807 420.2020202020202 78.59586444272904 426.66666666666663 82.2197719318803 433.13131313131316 76.54579709363023 439.5959595959596 79.94676712861721 446.0606060606061 86.83907040206208 452.52525252525254 93.25905483784061 458.98989898989896 92.85418527934698 465.4545454545455 95.70472937422934 471.9191919191919 101.01885655527434 478.3838383838384 106.36111138569885 484.8484848484849 112.74769396351809 491.3131313131313 110.61667269598377 497.77777777777777 111.89320849473165 504.24242424242425 111.45115240842443 510.7070707070707 109.95887840130965 517.1717171717172 113.3407535696293 523.6363636363636 119.21962446204984 530.1010101010102 121.41441020503572 536.5656565656566 117.2324165070668 543.030303030303 118.7462680833865 549.4949494949494 124.86443902658775 555.959595959596 124.42880223091859 562.4242424242424 124.5723101375498 568.8888888888889 127.47414501132096 575.3535353535353 126.75087917711949 581.8181818181818 126.97134259461103 588.2828282828283 126.92412979650265 594.7474747474747 128.31933826541973 601.2121212121212 126.86620678013401 607.6767676767677 115.62727429900772 614.1414141414141 114.8434025576222 620.6060606060606 114.22077755062546 627.070707070707 111.52842762329587 633.5353535353536 109.75420841710758 640 111.2528299871511 640 320 0 320"
      />
      
      <polygon
        fill="#4F5D95"
        fillRule="evenodd"
        points="0 313.6957893496347 6.464646464646465 305.0750736439357 12.92929292929293 298.52242564515353 19.393939393939394 288.3920376950146 25.85858585858586 281.7296760240818 32.323232323232325 277.85566838063613 38.78787878787879 270.5454287262091 45.25252525252525 260.80008488015596 51.71717171717172 251.72755496039218 58.18181818181819 237.79095726521774 64.64646464646465 230.20549676477654 71.11111111111111 218.60518902842315 77.57575757575758 212.80508875034536 84.04040404040404 207.8410866969382 90.5050505050505 198.66409889065199 96.96969696969697 187.99623645462944 103.43434343434345 176.33187672852745 109.8989898989899 173.6037147483977 116.36363636363637 169.25198451205273 122.82828282828282 163.42160949119528 129.2929292929293 159.99372902390377 135.75757575757575 149.21624740610528 142.22222222222223 151.83086395265622 148.68686868686868 137.94833150034006 155.15151515151516 126.07804211692314 161.61616161616163 120.3903282754354 168.08080808080808 110.04945510370689 174.54545454545453 101.46185695913101 181.010101010101 97.89531395277746 187.47474747474746 94.0741536541803 193.93939393939394 90.75100811228498 200.40404040404042 78.81143203812033 206.8686868686869 68.97439468639436 213.33333333333331 67.69008790418326 219.7979797979798 62.45203592864311 226.26262626262627 64.67271808534753 232.72727272727275 63.012308714294875 239.1919191919192 55.16901041919698 245.65656565656565 51.154548522348875 252.12121212121212 51.45047940875787 258.5858585858586 56.86335066114128 265.0505050505051 53.88166136750448 271.5151515151515 56.59465182674893 277.979797979798 58.34374389776724 284.44444444444446 59.08982347694683 290.9090909090909 60.52259719183934 297.37373737373736 63.24863106295521 303.83838383838383 64.57249810651706 310.3030303030303 57.49093937205771 316.7676767676768 57.7479001715019 323.23232323232327 54.7487576959694 329.6969696969697 52.01502055767696 336.16161616161617 46.25743678678867 342.62626262626264 47.992159230987056 349.09090909090907 44.49841574610679 355.55555555555554 43.238533739348554 362.020202020202 45.25102534382688 368.4848484848485 52.04964784811273 374.9494949494949 54.009649515118895 381.4141414141414 57.77545346613232 387.8787878787879 61.19636564846826 394.3434343434343 60.497870860980015 400.80808080808083 64.84530125096632 407.27272727272725 67.96712133215544 413.7373737373738 73.27636053320543 420.2020202020202 78.60373327561967 426.66666666666663 82.2274005736497 433.13131313131316 76.55320768211143 439.5959595959596 79.95395151252546 446.0606060606061 86.84604245491897 452.52525252525254 93.26581407321999 458.98989898989896 92.8607447489631 465.4545454545455 95.71108861991277 471.9191919191919 101.02502168889598 478.3838383838384 106.36709431205944 484.8484848484849 112.75349426452141 491.3131313131313 110.6223015722739 497.77777777777777 111.89866555276993 504.24242424242425 111.45644289265272 510.7070707070707 109.96402280687107 517.1717171717172 113.34574094484685 523.6363636363636 119.22446443813965 530.1010101010102 121.41910244384229 536.5656565656566 117.23697006912377 543.030303030303 118.75068265047213 549.4949494949494 124.86871884152126 555.959595959596 124.43295555821695 562.4242424242424 124.57633668724807 568.8888888888889 127.47805255822189 575.3535353535353 126.75466744831488 581.8181818181818 126.97501523120667 588.2828282828283 126.92770102558836 594.7474747474747 128.32280048481536 601.2121212121212 126.86956667537262 607.6767676767677 115.63053163550745 614.1414141414141 114.84656362521969 620.6060606060606 114.22384212830198 627.070707070707 111.53139865652895 633.5353535353536 109.75709164303296 640 111.25569657081027 640 320 0 320"
      />
      
      <polygon
        fill="#755462"
        fillRule="evenodd"
        points="0 318.0212244539107 6.464646464646465 313.5273635344506 12.92929292929293 310.89612208668115 19.393939393939394 304.60635583547776 25.85858585858586 301.5123559667599 32.323232323232325 299.6347410839593 38.78787878787879 295.68733433651204 45.25252525252525 289.60725013748 51.71717171717172 284.85403492271985 58.18181818181819 274.4471192160758 64.64646464646465 270.19677643255733 71.11111111111111 262.9523650271451 77.57575757575758 259.7806517983875 84.04040404040404 257.2939847442977 90.5050505050505 251.4886058594605 96.96969696969697 243.11576214230467 103.43434343434345 233.69077086652325 109.8989898989899 232.44225972213263 116.36363636363637 230.487110972267 122.82828282828282 226.74332304223756 129.2929292929293 225.02616840962395 135.75757575757575 216.7622437864676 142.22222222222223 218.75151407310062 148.68686868686868 208.3586521348469 155.15151515151516 198.35253783102436 161.61616161616163 194.34758289272844 168.08080808080808 186.11871755857518 174.54545454545453 178.69892221515687 181.010101010101 176.4750344139212 187.47474747474746 173.8722820812877 193.93939393939394 171.38699777607872 200.40404040404042 162.65602547930564 206.8686868686869 154.12877925978066 213.33333333333331 153.54792639653107 219.7979797979798 149.77123238872912 226.26262626262627 151.99185289447144 232.72727272727275 150.2404621159517 239.1919191919192 143.4643029309308 245.65656565656565 140.69805518523808 252.12121212121212 142.92941527832045 258.5858585858586 147.0537207972724 265.0505050505051 144.44715089320715 271.5151515151515 147.14068019871706 277.979797979798 149.53430225405788 284.44444444444446 150.79093400153863 290.9090909090909 152.38220206508757 297.37373737373736 155.03547752564674 303.83838383838383 154.49050867687194 310.3030303030303 148.88682625795633 316.7676767676768 148.96292676717383 323.23232323232327 145.90469903698465 329.6969696969697 141.78901037026787 336.16161616161617 137.45870186018152 342.62626262626264 139.3710921022806 349.09090909090907 135.0640491240546 355.55555555555554 134.18780050474783 362.020202020202 137.09697452894775 368.4848484848485 142.45245075972932 374.9494949494949 144.3991871947021 381.4141414141414 146.97589821227803 387.8787878787879 149.82610229994603 394.3434343434343 149.0646464673108 400.80808080808083 151.7194496900891 407.27272727272725 154.1923173579338 413.7373737373738 158.3029673223355 420.2020202020202 162.42160718978735 426.66666666666663 164.4856078957546 433.13131313131316 158.22324427450522 439.5959595959596 161.34784625261202 446.0606060606061 165.87463329668245 452.52525252525254 170.07081911098612 458.98989898989896 168.56365971866484 465.4545454545455 169.2137876103552 471.9191919191919 173.47278332219685 478.3838383838384 177.1538557217611 484.8484848484849 181.4936841679272 491.3131313131313 177.55140814970008 497.77777777777777 179.11025683899769 504.24242424242425 179.84346114903013 510.7070707070707 178.85218118465363 517.1717171717172 181.19130962570057 523.6363636363636 185.2184697712331 530.1010101010102 189.1942965513444 536.5656565656566 186.26905261816285 543.030303030303 186.94220570571252 549.4949494949494 190.98336174993216 555.959595959596 193.06117292904253 562.4242424242424 195.3848475288979 568.8888888888889 199.02880913176568 575.3535353535353 200.45620414956164 581.8181818181818 202.54862450030564 588.2828282828283 204.68153492193716 594.7474747474747 208.1473771747067 601.2121212121212 207.11137652711454 607.6767676767677 197.53795936791744 614.1414141414141 198.09257348917816 620.6060606060606 198.37921806993876 627.070707070707 197.54826991593643 633.5353535353536 197.6443246560916 640 198.70628561656957 640 320 0 320"
      />
      
      <polygon
        fill="#2415b9"
        fillRule="evenodd"
        points="0 318.0212244539107 6.464646464646465 313.5273635344506 12.92929292929293 310.89612208668115 19.393939393939394 304.60635583547776 25.85858585858586 301.5123559667599 32.323232323232325 299.6347410839593 38.78787878787879 295.68733433651204 45.25252525252525 289.60725013748 51.71717171717172 284.85403492271985 58.18181818181819 274.4471192160758 64.64646464646465 270.19677643255733 71.11111111111111 262.9523650271451 77.57575757575758 259.7806517983875 84.04040404040404 257.2939847442977 90.5050505050505 251.4886058594605 96.96969696969697 243.11576214230467 103.43434343434345 233.69077086652325 109.8989898989899 232.44225972213263 116.36363636363637 230.487110972267 122.82828282828282 226.74332304223756 129.2929292929293 225.02616840962395 135.75757575757575 216.7622437864676 142.22222222222223 218.75151407310062 148.68686868686868 208.3586521348469 155.15151515151516 198.35253783102436 161.61616161616163 194.34758289272844 168.08080808080808 186.11871755857518 174.54545454545453 178.69892221515687 181.010101010101 176.4750344139212 187.47474747474746 173.8722820812877 193.93939393939394 171.38699777607872 200.40404040404042 162.65602547930564 206.8686868686869 154.12877925978066 213.33333333333331 153.54792639653107 219.7979797979798 149.77123238872912 226.26262626262627 151.99185289447144 232.72727272727275 150.2404621159517 239.1919191919192 143.4643029309308 245.65656565656565 140.69805518523808 252.12121212121212 142.92941527832045 258.5858585858586 147.0537207972724 265.0505050505051 144.44715089320715 271.5151515151515 147.14068019871706 277.979797979798 149.53430225405788 284.44444444444446 150.79093400153863 290.9090909090909 152.38220206508757 297.37373737373736 155.03547752564674 303.83838383838383 154.49050867687194 310.3030303030303 148.88682625795633 316.7676767676768 148.96292676717383 323.23232323232327 145.90469903698465 329.6969696969697 142.1486409831027 336.16161616161617 137.81833247301634 342.62626262626264 139.73072271511543 349.09090909090907 135.42367973688943 355.55555555555554 134.54743111758265 362.020202020202 137.45660514178257 368.4848484848485 142.81208137256414 374.9494949494949 144.75881780753693 381.4141414141414 147.33552882511282 387.8787878787879 150.18573291278085 394.3434343434343 149.42427708014563 400.80808080808083 152.07908030292396 407.27272727272725 154.55194797076865 413.7373737373738 158.6625979351703 420.2020202020202 162.78123780262217 426.66666666666663 164.84523850858943 433.13131313131316 158.58287488734004 439.5959595959596 161.70747686544684 446.0606060606061 166.23426390951727 452.52525252525254 170.43044972382094 458.98989898989896 168.92329033149966 465.4545454545455 169.57341822319 471.9191919191919 173.83241393503167 478.3838383838384 177.51348633459594 484.8484848484849 181.853314780762 491.3131313131313 177.9110387625349 497.77777777777777 179.4698874518325 504.24242424242425 180.20309176186495 510.7070707070707 179.21181179748845 517.1717171717172 181.5509402385354 523.6363636363636 185.5781003840679 530.1010101010102 189.5539271641792 536.5656565656566 186.62868323099767 543.030303030303 187.30183631854737 549.4949494949494 191.34299236276695 555.959595959596 193.42080354187738 562.4242424242424 195.7444781417327 568.8888888888889 199.38843974460048 575.3535353535353 200.81583476239646 581.8181818181818 202.90825511314046 588.2828282828283 205.04116553477195 594.7474747474747 208.5070077875415 601.2121212121212 207.4710071399494 607.6767676767677 197.89758998075226 614.1414141414141 198.45220410201298 620.6060606060606 198.7388486827736 627.070707070707 197.90790052877128 633.5353535353536 198.00395526892643 640 198.70628561656957 640 320 0 320"
      />
      
      <polygon
        fill="#f1e05a"
        fillRule="evenodd"
        points="0 318.0212244539107 6.464646464646465 313.5273635344506 12.92929292929293 310.89612208668115 19.393939393939394 304.60635583547776 25.85858585858586 301.5123559667599 32.323232323232325 299.6347410839593 38.78787878787879 295.68733433651204 45.25252525252525 289.60725013748 51.71717171717172 284.85403492271985 58.18181818181819 275.5586238998262 64.64646464646465 271.27435305053484 71.11111111111111 264.3815253688678 77.57575757575758 261.6233051435874 84.04040404040404 259.0916421347357 90.5050505050505 253.23313440295482 96.96969696969697 246.00810747803047 103.43434343434345 237.61107900289272 109.8989898989899 236.2899425112722 116.36363636363637 234.21734528761215 122.82828282828282 230.51374073548362 129.2929292929293 228.68149608663458 135.75757575757575 222.60340067695006 142.22222222222223 224.4143727845938 148.68686868686868 213.85414769851627 155.15151515151516 203.6802875998979 161.61616161616163 199.51270697921683 168.08080808080808 191.1311875948079 174.54545454545453 184.67457057692758 181.010101010101 182.27407599085063 187.47474747474746 179.49431100454132 193.93939393939394 176.83741878000947 200.40404040404042 169.27903833113766 206.8686868686869 161.91447480035956 213.33333333333331 161.10351999585785 219.7979797979798 157.65204252003258 226.26262626262627 159.74989838950992 232.72727272727275 157.76169763404428 239.1919191919192 151.8857329185584 245.65656565656565 148.87059407336696 252.12121212121212 150.85249176803433 258.5858585858586 154.74263357484122 265.0505050505051 153.00432551068133 271.5151515151515 155.44769011056513 277.979797979798 157.611942843588 284.44444444444446 159.39926093610833 290.9090909090909 161.38433685090385 297.37373737373736 163.76282739683387 303.83838383838383 164.08012883920296 310.3030303030303 158.1837276517605 316.7676767676768 157.97604569942217 323.23232323232327 154.65144101282868 329.6969696969697 150.62839380848771 336.16161616161617 146.04747054075122 342.62626262626264 147.7086695887036 349.09090909090907 144.26952727849599 355.55555555555554 143.1490288496282 362.020202020202 145.79564581104177 368.4848484848485 150.90466512781558 374.9494949494949 152.60438156999243 381.4141414141414 154.9492202361851 387.8787878787879 157.56701971916286 394.3434343434343 156.58025428007056 400.80808080808083 159.02356798708507 407.27272727272725 161.2844601240806 413.7373737373738 165.19613304650338 420.2020202020202 169.11534047686894 426.66666666666663 170.9859952369931 433.13131313131316 165.66899229944772 439.5959595959596 168.5772954729811 446.0606060606061 172.9010489445115 452.52525252525254 176.89373469399447 458.98989898989896 175.19555647414992 465.4545454545455 175.6542267889694 471.9191919191919 179.7276088186471 478.3838383838384 183.23445107796286 484.8484848484849 187.39965152967105 491.3131313131313 183.29345546710746 497.77777777777777 184.68800886321193 504.24242424242425 185.26193380233588 510.7070707070707 184.1309698143798 517.1717171717172 186.3199442544399 523.6363636363636 190.20615930596102 530.1010101010102 194.0407175300126 536.5656565656566 190.9828697752538 543.030303030303 191.52311304695047 549.4949494949494 195.43541642238787 555.959595959596 197.39227858607012 562.4242424242424 199.59472663841586 568.8888888888889 203.12489659431213 575.3535353535353 204.43823805129887 581.8181818181818 206.4200858600626 588.2828282828283 208.45602877130068 594.7474747474747 211.81763517348816 601.2121212121212 210.68379033882007 607.6767676767677 201.0123047885478 614.1414141414141 201.474865083854 620.6060606060606 201.66924509512103 627.070707070707 200.74884745731075 633.5353535353536 200.76093975204537 640 201.4473566505738 640 320 0 320"
      />
      
      <polygon
        fill="#22e8e8"
        fillRule="evenodd"
        points="0 319.92567425758165 6.464646464646465 319.8564689872046 12.92929292929293 319.82723290901066 19.393939393939394 318.6603030135517 25.85858585858586 318.5475299535025 32.323232323232325 318.4075977886019 38.78787878787879 318.26954439957825 45.25252525252525 316.0115352350199 51.71717171717172 316.0194984740289 58.18181818181819 310.27120022171187 64.64646464646465 309.3798705543068 71.11111111111111 306.9369343155836 77.57575757575758 307.02226710776637 84.04040404040404 306.2791057049564 90.5050505050505 304.5841165866349 96.96969696969697 300.15630170592 103.43434343434345 294.75365018968824 109.8989898989899 293.4787796626509 116.36363636363637 293.78096003517203 122.82828282828282 290.8838579578067 129.2929292929293 291.25493135913166 135.75757575757575 286.97854113656 142.22222222222223 287.29591490578287 148.68686868686868 280.08963471296795 155.15151515151516 272.3565269602133 161.61616161616163 270.6873659679221 168.08080808080808 264.641048372026 174.54545454545453 259.7160395657951 181.010101010101 258.48213531195245 187.47474747474746 256.49761636222456 193.93939393939394 254.7095711479809 200.40404040404042 249.75801532439982 206.8686868686869 243.84333240723032 213.33333333333331 243.3268154055848 219.7979797979798 241.83027658342115 226.26262626262627 242.76853436729368 232.72727272727275 241.70745619413606 239.1919191919192 237.21786029851611 245.65656565656565 234.04436787436526 252.12121212121212 235.73032040015065 258.5858585858586 237.404408095509 265.0505050505051 235.56049809819626 271.5151515151515 237.0050760097945 277.979797979798 238.3993637108022 284.44444444444446 240.81757048474222 290.9090909090909 242.54146826327258 297.37373737373736 244.59170134351547 303.83838383838383 243.76036007626274 310.3030303030303 239.79404501210294 316.7676767676768 239.82807593223106 323.23232323232327 237.43530498897368 329.6969696969697 235.72257005218927 336.16161616161617 231.99175806732828 342.62626262626264 232.20072760001216 349.09090909090907 229.5869683717416 355.55555555555554 229.00007957103776 362.020202020202 230.61536327370413 368.4848484848485 233.24734454329518 374.9494949494949 234.38584200140278 381.4141414141414 235.44979561653807 387.8787878787879 235.98079634038425 394.3434343434343 235.02388537973746 400.80808080808083 236.27277437260022 407.27272727272725 237.10994439924872 413.7373737373738 239.1760854930465 420.2020202020202 241.04013343808163 426.66666666666663 242.01073963594808 433.13131313131316 236.84730924524357 439.5959595959596 238.18586281184625 446.0606060606061 240.60233382349585 452.52525252525254 242.69852294893496 458.98989898989896 240.2079551870909 465.4545454545455 240.05521235944968 471.9191919191919 242.4939252914839 478.3838383838384 244.47761271358388 484.8484848484849 246.78131682000537 491.3131313131313 243.48882406458992 497.77777777777777 244.04379205209852 504.24242424242425 246.20495800364534 510.7070707070707 246.89561554614096 517.1717171717172 247.9973095067732 523.6363636363636 250.1182458421975 530.1010101010102 252.23282442214486 536.5656565656566 249.5817805414644 543.030303030303 249.44273809889816 549.4949494949494 251.59490136593809 555.959595959596 252.51202005211306 562.4242424242424 253.35346146292596 568.8888888888889 255.30238698998937 575.3535353535353 256.153284579512 581.8181818181818 257.9440380383238 588.2828282828283 258.99696765995515 594.7474747474747 260.8264746978277 601.2121212121212 259.2205961885253 607.6767676767677 252.11870630250303 614.1414141414141 252.0948394785332 620.6060606060606 251.32928215534508 627.070707070707 250.03621267116256 633.5353535353536 248.84025436158322 640 249.30207885984817 640 320 0 320"
      />
      
      <polygon
        fill="#22e4e8"
        fillRule="evenodd"
        points="0 319.92567425758165 6.464646464646465 319.8564689872046 12.92929292929293 319.82723290901066 19.393939393939394 318.6603030135517 25.85858585858586 318.5475299535025 32.323232323232325 318.4075977886019 38.78787878787879 318.26954439957825 45.25252525252525 316.0115352350199 51.71717171717172 316.0194984740289 58.18181818181819 310.27120022171187 64.64646464646465 309.3798705543068 71.11111111111111 306.9369343155836 77.57575757575758 307.02226710776637 84.04040404040404 306.2791057049564 90.5050505050505 304.5841165866349 96.96969696969697 300.15630170592 103.43434343434345 294.75365018968824 109.8989898989899 293.4787796626509 116.36363636363637 293.78096003517203 122.82828282828282 290.8838579578067 129.2929292929293 291.25493135913166 135.75757575757575 286.97854113656 142.22222222222223 287.29591490578287 148.68686868686868 280.08963471296795 155.15151515151516 272.3565269602133 161.61616161616163 270.6873659679221 168.08080808080808 264.641048372026 174.54545454545453 259.7160395657951 181.010101010101 258.48213531195245 187.47474747474746 256.49761636222456 193.93939393939394 254.7095711479809 200.40404040404042 249.75801532439982 206.8686868686869 243.84333240723032 213.33333333333331 243.3268154055848 219.7979797979798 241.83027658342115 226.26262626262627 242.76853436729368 232.72727272727275 241.70745619413606 239.1919191919192 237.21786029851611 245.65656565656565 234.04436787436526 252.12121212121212 235.73032040015065 258.5858585858586 237.404408095509 265.0505050505051 235.56049809819626 271.5151515151515 237.0050760097945 277.979797979798 238.3993637108022 284.44444444444446 240.81757048474222 290.9090909090909 242.54146826327258 297.37373737373736 244.59170134351547 303.83838383838383 243.76036007626274 310.3030303030303 239.79404501210294 316.7676767676768 239.82807593223106 323.23232323232327 237.43530498897368 329.6969696969697 235.77394585402283 336.16161616161617 232.04313386916184 342.62626262626264 232.25210340184572 349.09090909090907 229.63834417357512 355.55555555555554 229.0514553728713 362.020202020202 230.6667390755377 368.4848484848485 233.29872034512874 374.9494949494949 234.4372178032363 381.4141414141414 235.50117141837163 387.8787878787879 236.0321721422178 394.3434343434343 235.07526118157102 400.80808080808083 236.32415017443378 407.27272727272725 237.16132020108228 413.7373737373738 239.22746129488004 420.2020202020202 241.09150923991518 426.66666666666663 242.0621154377816 433.13131313131316 236.8986850470771 439.5959595959596 238.2372386136798 446.0606060606061 240.65370962532938 452.52525252525254 242.7498987507685 458.98989898989896 240.25933098892446 465.4545454545455 240.10658816128324 471.9191919191919 242.54530109331742 478.3838383838384 244.52898851541744 484.8484848484849 246.8326926218389 491.3131313131313 243.54019986642345 497.77777777777777 244.09516785393205 504.24242424242425 246.2563338054789 510.7070707070707 246.94699134797452 517.1717171717172 248.04868530860676 523.6363636363636 250.16962164403103 530.1010101010102 252.28420022397842 536.5656565656566 249.63315634329797 543.030303030303 249.4941139007317 549.4949494949494 251.64627716777164 555.959595959596 252.5633958539466 562.4242424242424 253.40483726475952 568.8888888888889 255.35376279182293 575.3535353535353 256.20466038134555 581.8181818181818 257.9954138401573 588.2828282828283 259.0483434617887 594.7474747474747 260.87785049966124 601.2121212121212 259.2719719903588 607.6767676767677 252.1700821043366 614.1414141414141 252.14621528036676 620.6060606060606 251.38065795717864 627.070707070707 250.08758847299612 633.5353535353536 248.89163016341675 640 249.30207885984817 640 320 0 320"
      />
      
      <polygon
        fill="#e34c26"
        fillRule="evenodd"
        points="0 319.92567425758165 6.464646464646465 319.8564689872046 12.92929292929293 319.82723290901066 19.393939393939394 318.6603030135517 25.85858585858586 318.6387623214863 32.323232323232325 318.5126027554877 38.78787878787879 318.3713441504071 45.25252525252525 316.1105241263365 51.71717171717172 316.20707467072225 58.18181818181819 311.6486225621981 64.64646464646465 310.75104559729016 71.11111111111111 308.26758494809343 77.57575757575758 308.31230033960145 84.04040404040404 307.52976143971813 90.5050505050505 305.79780969251266 96.96969696969697 302.0857682370325 103.43434343434345 297.7266102208355 109.8989898989899 296.36099142971983 116.36363636363637 296.5751943379072 122.82828282828282 294.70440127412445 129.2929292929293 294.9752963829446 135.75757575757575 291.7197415960282 142.22222222222223 292.19422010121957 148.68686868686868 288.1167934396164 155.15151515151516 282.47604382150973 161.61616161616163 280.5091005644146 168.08080808080808 276.0942044989765 174.54545454545453 271.3320888375551 181.010101010101 270.33210271952476 187.47474747474746 269.08199366439516 193.93939393939394 268.32411958826117 200.40404040404042 264.1112429884107 206.8686868686869 258.73415851665953 213.33333333333331 258.8780342919107 219.7979797979798 257.3390693325929 226.26262626262627 258.0372716273661 232.72727272727275 256.5238233539679 239.1919191919192 252.72249982786764 245.65656565656565 250.19334627005654 252.12121212121212 252.1900843788415 258.5858585858586 254.1886657486447 265.0505050505051 252.86779532202667 271.5151515151515 253.80098261223793 277.979797979798 254.90773947318795 284.44444444444446 256.83305810701336 290.9090909090909 258.58290066546965 297.37373737373736 260.45210494285584 303.83838383838383 259.97208682128144 310.3030303030303 257.8643797548293 316.7676767676768 257.5420506456673 323.23232323232327 255.7256596856003 329.6969696969697 254.32301881352282 336.16161616161617 252.44400136753035 342.62626262626264 252.3017011853698 349.09090909090907 249.89597388139964 355.55555555555554 249.60731647275935 362.020202020202 250.6398598679684 368.4848484848485 252.68977899068628 374.9494949494949 254.04376813952052 381.4141414141414 254.88136613687345 387.8787878787879 255.76534225218495 394.3434343434343 254.20609830829352 400.80808080808083 254.90088283812494 407.27272727272725 255.17100683726017 413.7373737373738 256.70488126635394 420.2020202020202 258.1050981972755 426.66666666666663 258.5563721023075 433.13131313131316 255.1694275451118 439.5959595959596 257.12071358476624 446.0606060606061 258.9790933711622 452.52525252525254 260.51591509643004 458.98989898989896 258.60054978439837 465.4545454545455 258.02058120144994 471.9191919191919 259.91248400679706 478.3838383838384 261.382899425647 484.8484848484849 263.172144747796 491.3131313131313 261.8204335300889 497.77777777777777 263.55763475397407 504.24242424242425 265.2078621911901 510.7070707070707 265.57698119536235 517.1717171717172 267.2215385935848 523.6363636363636 268.77583374281426 530.1010101010102 270.3394047930648 536.5656565656566 268.4386346270728 543.030303030303 268.9636141480447 549.4949494949494 270.5214785797308 555.959595959596 271.9837767246426 562.4242424242424 273.4494649532142 568.8888888888889 274.82522662228206 575.3535353535353 276.2041667580819 581.8181818181818 277.54100576005 588.2828282828283 278.71336665317176 594.7474747474747 279.9736215866003 601.2121212121212 278.9297368084588 607.6767676767677 275.72392571690335 614.1414141414141 277.0324810658422 620.6060606060606 278.2862917618791 627.070707070707 278.41586857875325 633.5353535353536 279.6448666110059 640 279.8778057470062 640 320 0 320"
      />
      
      <polygon
        fill="#00ADD8"
        fillRule="evenodd"
        points="0 319.92567425758165 6.464646464646465 319.8564689872046 12.92929292929293 319.82723290901066 19.393939393939394 318.6603030135517 25.85858585858586 318.6387623214863 32.323232323232325 318.5153625261833 38.78787878787879 318.3740196807141 45.25252525252525 316.61217995804043 51.71717171717172 316.69341773918654 58.18181818181819 313.13944290826225 64.64646464646465 312.1963594158738 71.11111111111111 310.8820304543249 77.57575757575758 310.8639642049859 84.04040404040404 310.00353732898765 90.5050505050505 308.661707527502 96.96969696969697 305.87144742046803 103.43434343434345 303.7931617961029 109.8989898989899 303.0244432026911 116.36363636363637 303.31529264211787 122.82828282828282 302.49018209853443 129.2929292929293 302.91324513977327 135.75757575757575 300.97568825564275 142.22222222222223 301.5563831485769 148.68686868686868 299.6311576693554 155.15151515151516 295.82118783213525 161.61616161616163 294.0784537118219 168.08080808080808 290.7161378817372 174.54545454545453 287.7123744508094 181.010101010101 287.34682194452535 187.47474747474746 286.1158329078061 193.93939393939394 284.93730712396757 200.40404040404042 282.3765273212586 206.8686868686869 277.9438605817447 213.33333333333331 278.0796683010759 219.7979797979798 276.0328155225401 226.26262626262627 276.21167935938274 232.72727272727275 274.14901862680375 239.1919191919192 270.30474390285457 245.65656565656565 268.0869626397 252.12121212121212 269.66608226812065 258.5858585858586 271.1481693443827 265.0505050505051 270.4125268415468 271.5151515151515 270.8101768835093 277.979797979798 272.16288820312525 284.44444444444446 273.5615082816493 290.9090909090909 274.922864494413 297.37373737373736 276.29330221243873 303.83838383838383 276.46434496711595 310.3030303030303 274.63324830028375 316.7676767676768 273.79905796739 323.23232323232327 272.0443724278732 329.6969696969697 270.1436092489903 336.16161616161617 268.2494811521625 342.62626262626264 268.72860622872395 349.09090909090907 266.93232129145616 355.55555555555554 266.17325882109964 362.020202020202 266.7001399968261 368.4848484848485 268.27540630653215 374.9494949494949 269.7729795188148 381.4141414141414 270.14570871085704 387.8787878787879 271.63099029337644 394.3434343434343 270.8758711521394 400.80808080808083 271.21141244268176 407.27272727272725 272.69784827506584 413.7373737373738 274.0958316532778 420.2020202020202 275.46913280161874 426.66666666666663 275.70898808949346 433.13131313131316 272.9524616113727 439.5959595959596 274.36093147917467 446.0606060606061 275.709781475726 452.52525252525254 277.0616996351629 458.98989898989896 276.4936297906707 465.4545454545455 276.69947361957105 471.9191919191919 278.0212088036855 478.3838383838384 279.09850275200137 484.8484848484849 280.3469848793391 491.3131313131313 279.2673681282708 497.77777777777777 280.47753274407864 504.24242424242425 281.6112956857186 510.7070707070707 281.52748664844233 517.1717171717172 282.68516893039674 523.6363636363636 283.78244035925553 530.1010101010102 284.88794784290627 536.5656565656566 282.61007620890797 543.030303030303 282.8417769651131 549.4949494949494 283.9760170852005 555.959595959596 285.04067782659706 562.4242424242424 286.1078038872204 568.8888888888889 287.10946176356725 575.3535353535353 288.11343108861445 581.8181818181818 289.0867472470008 588.2828282828283 289.940309987069 594.7474747474747 290.857866744431 601.2121212121212 291.7191451743447 607.6767676767677 290.34723699866925 614.1414141414141 291.2236077999079 620.6060606060606 292.10199496162636 627.070707070707 292.9283879438651 633.5353535353536 293.72848434215473 640 293.88012332678557 640 320 0 320"
      />
      
      <polygon
        fill="#244776"
        fillRule="evenodd"
        points="0 319.92567425758165 6.464646464646465 319.8564689872046 12.92929292929293 319.82723290901066 19.393939393939394 318.6603030135517 25.85858585858586 318.6387623214863 32.323232323232325 318.5153625261833 38.78787878787879 318.3740196807141 45.25252525252525 316.61217995804043 51.71717171717172 316.69341773918654 58.18181818181819 313.13944290826225 64.64646464646465 312.1963594158738 71.11111111111111 310.8820304543249 77.57575757575758 310.8639642049859 84.04040404040404 310.00353732898765 90.5050505050505 308.661707527502 96.96969696969697 305.87144742046803 103.43434343434345 303.7931617961029 109.8989898989899 303.0244432026911 116.36363636363637 303.31529264211787 122.82828282828282 302.49018209853443 129.2929292929293 302.91324513977327 135.75757575757575 300.97568825564275 142.22222222222223 301.5563831485769 148.68686868686868 299.6311576693554 155.15151515151516 295.82118783213525 161.61616161616163 294.0784537118219 168.08080808080808 290.7161378817372 174.54545454545453 287.7123744508094 181.010101010101 287.34682194452535 187.47474747474746 286.1158329078061 193.93939393939394 284.93730712396757 200.40404040404042 282.3765273212586 206.8686868686869 277.9438605817447 213.33333333333331 278.0796683010759 219.7979797979798 276.0328155225401 226.26262626262627 276.21167935938274 232.72727272727275 274.14901862680375 239.1919191919192 270.30474390285457 245.65656565656565 268.0869626397 252.12121212121212 269.66608226812065 258.5858585858586 271.1481693443827 265.0505050505051 270.4125268415468 271.5151515151515 270.8101768835093 277.979797979798 272.16288820312525 284.44444444444446 273.5615082816493 290.9090909090909 274.922864494413 297.37373737373736 276.29330221243873 303.83838383838383 276.46434496711595 310.3030303030303 274.63324830028375 316.7676767676768 273.79905796739 323.23232323232327 272.0443724278732 329.6969696969697 270.1436092489903 336.16161616161617 268.2494811521625 342.62626262626264 268.72860622872395 349.09090909090907 266.93232129145616 355.55555555555554 266.17325882109964 362.020202020202 266.7001399968261 368.4848484848485 268.27540630653215 374.9494949494949 269.7729795188148 381.4141414141414 270.14570871085704 387.8787878787879 271.63099029337644 394.3434343434343 270.8758711521394 400.80808080808083 271.21141244268176 407.27272727272725 272.69784827506584 413.7373737373738 274.0958316532778 420.2020202020202 275.46913280161874 426.66666666666663 275.70898808949346 433.13131313131316 272.9524616113727 439.5959595959596 274.36093147917467 446.0606060606061 275.709781475726 452.52525252525254 277.0616996351629 458.98989898989896 276.4936297906707 465.4545454545455 276.69947361957105 471.9191919191919 278.0212088036855 478.3838383838384 279.09850275200137 484.8484848484849 280.3469848793391 491.3131313131313 279.2673681282708 497.77777777777777 280.47753274407864 504.24242424242425 281.6112956857186 510.7070707070707 281.52748664844233 517.1717171717172 282.68516893039674 523.6363636363636 283.78244035925553 530.1010101010102 284.88794784290627 536.5656565656566 282.61007620890797 543.030303030303 282.8417769651131 549.4949494949494 283.9760170852005 555.959595959596 285.04067782659706 562.4242424242424 286.1078038872204 568.8888888888889 287.10946176356725 575.3535353535353 288.11343108861445 581.8181818181818 289.0867472470008 588.2828282828283 289.940309987069 594.7474747474747 290.857866744431 601.2121212121212 291.7191451743447 607.6767676767677 290.40279821240046 614.1414141414141 291.27752692998575 620.6060606060606 292.1542682432321 627.070707070707 292.9790656102027 633.5353535353536 293.7776642569341 640 293.92901937279197 640 320 0 320"
      />
      
      <polygon
        fill="#563d7c"
        fillRule="evenodd"
        points="0 319.92567425758165 6.464646464646465 319.8564689872046 12.92929292929293 319.82723290901066 19.393939393939394 318.6603030135517 25.85858585858586 318.6387623214863 32.323232323232325 318.5153625261833 38.78787878787879 318.3740196807141 45.25252525252525 316.61217995804043 51.71717171717172 316.69341773918654 58.18181818181819 314.2496030872787 64.64646464646465 313.27263262975885 71.11111111111111 311.9264949570143 77.57575757575758 311.8765470428411 84.04040404040404 310.98521166244694 90.5050505050505 309.61436902090145 96.96969696969697 306.79502938801687 103.43434343434345 305.7914253551959 109.8989898989899 304.96171094380884 116.36363636363637 305.1934262188156 122.82828282828282 304.31463196962864 129.2929292929293 304.68200487469915 135.75757575757575 303.81183308798484 142.22222222222223 304.3059559530201 148.68686868686868 302.29946823777084 155.15151515151516 298.4080498758655 161.61616161616163 296.58635340866925 168.08080808080808 293.1499179147826 174.54545454545453 290.07186466339704 181.010101010101 289.6365787537682 187.47474747474746 288.3356960212026 193.93939393939394 287.08941017856773 200.40404040404042 284.46920737668086 206.8686868686869 279.972662842212 213.33333333333331 280.04851027422967 219.7979797979798 277.9415597267347 226.26262626262627 278.06401180289646 232.72727272727275 275.94480973986435 239.1919191919192 273.1751058412306 245.65656565656565 271.622319599301 252.12121212121212 273.0935238422123 258.5858585858586 274.474315099528 265.0505050505051 273.6371439426119 271.5151515151515 273.93636431886074 277.979797979798 275.2027563795228 284.44444444444446 276.5085866223553 290.9090909090909 277.7828433832385 297.37373737373736 279.0659815920114 303.83838383838383 279.15507953175774 310.3030303030303 277.2418498090567 316.7676767676768 276.32803314841715 323.23232323232327 274.49860506487687 329.6969696969697 272.5229279522955 336.16161616161617 270.55848025422415 342.62626262626264 270.96712471777903 349.09090909090907 269.1025101695758 355.55555555555554 268.2835252244959 362.020202020202 268.7459916253867 368.4848484848485 270.26079395941804 374.9494949494949 271.69776437860946 381.4141414141414 272.01360750856827 387.8787878787879 273.44187263721926 394.3434343434343 272.6314772432734 400.80808080808083 272.9151326730217 407.27272727272725 274.3495631444965 413.7373737373738 275.69873118808675 420.2020202020202 277.0231046943031 426.66666666666663 277.21552593736413 433.13131313131316 275.3902656027209 439.5959595959596 276.7243228618987 446.0606060606061 278.00332427055764 452.52525252525254 279.28523334409715 458.98989898989896 278.6514479922185 465.4545454545455 278.7914259881361 471.9191919191919 280.04930536613887 478.3838383838384 281.06665998846836 484.8484848484849 282.25506530817404 491.3131313131313 281.1190561137263 497.77777777777777 282.2726988191341 504.24242424242425 283.35166566630926 510.7070707070707 283.2198021700364 517.1717171717172 284.325827419018 523.6363636363636 285.37461005785156 530.1010101010102 286.43151747149017 536.5656565656566 284.108026385999 543.030303030303 284.29400308957867 549.4949494949494 285.3839149348248 555.959595959596 286.40696590055836 562.4242424242424 287.4323868320305 568.8888888888889 288.39489727214465 575.3535353535353 289.3596295101849 581.8181818181818 290.2949062542567 588.2828282828283 291.1151096586783 594.7474747474747 291.9968064146153 601.2121212121212 292.82442403567734 607.6767676767677 291.474339098427 614.1414141414141 292.31739894974925 620.6060606060606 293.16239875134875 627.070707070707 293.95642355429516 633.5353535353536 294.72613697845844 640 294.87201728336976 640 320 0 320"
      />
      
      <polygon
        fill="#178600"
        fillRule="evenodd"
        points="0 320 6.464646464646465 320 12.92929292929293 320 19.393939393939394 320 25.85858585858586 320 32.323232323232325 320 38.78787878787879 320 45.25252525252525 320 51.71717171717172 320 58.18181818181819 318.7303285397056 64.64646464646465 318.76908460535515 71.11111111111111 318.80546369760674 77.57575757575758 318.8419261830598 84.04040404040404 318.87727566314203 90.5050505050505 318.9104572385142 96.96969696969697 318.94371481924765 103.43434343434345 318.97493287312477 109.8989898989899 319.00622244211803 116.36363636363637 319.03655690412967 122.82828282828282 319.06409550528076 129.2929292929293 319.0926634925477 135.75757575757575 319.1194792978179 142.22222222222223 319.1463567129497 148.68686868686868 319.17158570465415 155.15151515151516 319.1856777069162 161.61616161616163 319.2105344192854 168.08080808080808 319.23386666776196 174.54545454545453 319.25725240872345 181.010101010101 319.2792039428009 187.47474747474746 318.19414067857764 193.93939393939394 318.24926349231663 200.40404040404042 318.29760409397915 206.8686868686869 316.1388743213043 213.33333333333331 316.24748512966727 219.7979797979798 316.36202836351896 226.26262626262627 316.4695465216037 232.72727272727275 316.5773118178456 239.1919191919192 316.241560163945 245.65656565656565 315.6381781895786 252.12121212121212 315.7713202240559 258.5858585858586 315.89629679409296 265.0505050505051 316.02155983560107 271.5151515151515 316.1429993871851 277.979797979798 316.2494974376238 284.44444444444446 316.3639793493184 290.9090909090909 316.47144027475997 297.37373737373736 316.57914740331904 303.83838383838383 316.68024878540575 310.3030303030303 315.97581153359715 316.7676767676768 316.09864758222665 323.23232323232327 314.3108441733319 329.6969696969697 314.484502500906 336.16161616161617 313.52091090841805 342.62626262626264 313.71868133831504 349.09090909090907 313.9104151114966 355.55555555555554 312.97612334429755 362.020202020202 313.1905227135511 368.4848484848485 313.3917732066873 374.9494949494949 313.5934854244296 381.4141414141414 313.78282694504975 387.8787878787879 313.97260233431643 394.3434343434343 314.1565855848589 400.80808080808083 314.32928469538723 407.27272727272725 314.5023796359184 413.7373737373738 314.66485913359696 420.2020202020202 314.8277110441879 426.66666666666663 314.98559233567624 433.13131313131316 313.2129028040172 439.5959595959596 313.4200750056497 446.0606060606061 313.6145414577308 452.52525252525254 313.8094536462686 458.98989898989896 313.1987257542528 465.4545454545455 313.40633074564 471.9191919191919 313.6075989428774 478.3838383838384 313.79652287070513 484.8484848484849 313.9858805130519 491.3131313131313 314.1636245526426 497.77777777777777 314.3417764133482 504.24242424242425 314.5144905564362 510.7070707070707 314.665954332115 517.1717171717172 314.8287732902666 523.6363636363636 314.98160612831265 530.1010101010102 315.1347895548304 536.5656565656566 315.27857819672164 543.030303030303 315.4226969795155 549.4949494949494 315.56241645239834 555.959595959596 315.69356705804495 562.4242424242424 315.8250182121323 568.8888888888889 315.94840768089915 575.3535353535353 316.0720800248309 581.8181818181818 316.19197758309866 588.2828282828283 316.29712332995666 594.7474747474747 316.4101517791168 601.2121212121212 316.5162476392284 607.6767676767677 316.62258756522425 614.1414141414141 316.722404994097 620.6060606060606 316.822451559046 627.070707070707 316.91944441826007 633.5353535353536 317.01048863778243 640 317.02774448522325 640 320 0 320"
      />
      
      <polygon
        fill="#555555"
        fillRule="evenodd"
        points="0 320 6.464646464646465 320 12.92929292929293 320 19.393939393939394 320 25.85858585858586 320 32.323232323232325 320 38.78787878787879 320 45.25252525252525 320 51.71717171717172 320 58.18181818181819 318.7303285397056 64.64646464646465 318.76908460535515 71.11111111111111 318.80546369760674 77.57575757575758 318.8419261830598 84.04040404040404 318.87727566314203 90.5050505050505 318.9104572385142 96.96969696969697 318.94371481924765 103.43434343434345 318.97493287312477 109.8989898989899 319.00622244211803 116.36363636363637 319.03655690412967 122.82828282828282 319.06409550528076 129.2929292929293 319.0926634925477 135.75757575757575 319.1194792978179 142.22222222222223 319.1463567129497 148.68686868686868 319.17158570465415 155.15151515151516 319.1856777069162 161.61616161616163 319.2105344192854 168.08080808080808 319.23386666776196 174.54545454545453 319.25725240872345 181.010101010101 319.2792039428009 187.47474747474746 318.19414067857764 193.93939393939394 318.24926349231663 200.40404040404042 318.29760409397915 206.8686868686869 317.2428490592831 213.33333333333331 317.3188324316725 219.7979797979798 317.40067342638304 226.26262626262627 317.4774950566303 232.72727272727275 317.554493234683 239.1919191919192 317.18891361225064 245.65656565656565 316.5575331616557 252.12121212121212 316.6626123974007 258.5858585858586 316.7612472580669 265.0505050505051 316.8601082750127 271.5151515151515 316.9559515801105 277.979797979798 317.04000270016496 284.44444444444446 317.1303548568111 290.9090909090909 317.21516597910215 297.37373737373736 317.3001713019241 303.83838383838383 317.37996326525496 310.3030303030303 317.4599385374468 316.7676767676768 317.5374724315355 323.23232323232327 316.5057094655818 329.6969696969697 316.6123707677684 336.16161616161617 315.5858910837721 342.62626262626264 315.72062926166075 349.09090909090907 315.85125470386106 355.55555555555554 314.86337304327265 362.020202020202 315.02016534243984 368.4848484848485 315.16734177663017 374.9494949494949 315.31485581148945 381.4141414141414 315.45332306085356 387.8787878787879 315.5921074530424 394.3434343434343 315.72665618779934 400.80808080808083 315.8529527768633 407.27272727272725 315.97953864251696 413.7373737373738 316.0983614498359 420.2020202020202 316.21745648725357 426.66666666666663 316.3329166764164 433.13131313131316 315.5852544348358 439.5959595959596 315.7200119300259 446.0606060606061 315.8465049082299 452.52525252525254 315.97328795421106 458.98989898989896 316.0922951698331 465.4545454545455 316.21157570472093 471.9191919191919 316.32721533928435 478.3838383838384 316.43576223614986 484.8484848484849 316.5445588194123 491.3131313131313 316.6466824052778 497.77777777777777 316.74904036755123 504.24242424242425 316.8482741673152 510.7070707070707 316.93529830227016 517.1717171717172 317.0288467530516 523.6363636363636 317.1166575542843 530.1010101010102 317.2046698514117 536.5656565656566 317.2872844012954 543.030303030303 317.37008852788773 549.4949494949494 317.45036506778155 555.959595959596 317.52571826458563 562.4242424242424 317.6012440840838 568.8888888888889 317.67213806679194 575.3535353535353 317.7431947052887 581.8181818181818 317.81208236018364 588.2828282828283 317.87249437437237 594.7474747474747 317.93743548402267 601.2121212121212 317.9983932839046 607.6767676767677 318.05949147330256 614.1414141414141 318.1168419726346 620.6060606060606 318.17432430227404 627.070707070707 318.2300520147038 633.5353535353536 318.2823618594402 640 318.2922763103022 640 320 0 320"
      />
      
      <polygon
        fill="#C1F12E"
        fillRule="evenodd"
        points="0 320 6.464646464646465 320 12.92929292929293 320 19.393939393939394 320 25.85858585858586 320 32.323232323232325 320 38.78787878787879 320 45.25252525252525 320 51.71717171717172 320 58.18181818181819 319.0077745153666 64.64646464646465 319.0380616808151 71.11111111111111 319.0664913027725 77.57575757575758 319.09498606924666 84.04040404040404 319.12261104339575 90.5050505050505 319.1485418491036 96.96969696969697 319.1745320452384 103.43434343434345 319.19892840987285 109.8989898989899 319.22338064055424 116.36363636363637 319.24708649386173 122.82828282828282 319.2686074062434 129.2929292929293 319.29093279175567 135.75757575757575 319.31188884774645 142.22222222222223 319.3328930736891 148.68686868686868 319.35260907195106 155.15151515151516 319.3611754423233 161.61616161616163 319.3806751895602 168.08080808080808 319.3989790211571 174.54545454545453 319.41732480623386 181.010101010101 319.4345454920759 187.47474747474746 319.4408447407897 193.93939393939394 319.457912624722 200.40404040404042 319.47288053302947 206.8686868686869 319.486210745177 213.33333333333331 319.50139547991853 219.7979797979798 319.5166151091047 226.26262626262627 319.5309012913473 232.72727272727275 319.5452202719018 239.1919191919192 319.3091073618352 245.65656565656565 318.61506579802443 252.12121212121212 318.6573400683084 258.5858585858586 318.6970217101285 265.0505050505051 318.7367943898696 271.5151515151515 318.7753529566617 277.979797979798 318.8091674819125 284.44444444444446 318.8455168892258 290.9090909090909 318.8796371518733 297.37373737373736 318.9138355057396 303.83838383838383 318.94593654524766 310.3030303030303 318.97811125765554 316.7676767676768 319.00930387023556 323.23232323232327 319.0385832479553 329.6969696969697 319.06793003072704 336.16161616161617 319.09547691365736 342.62626262626264 319.1230868860723 349.09090909090907 319.1498541925856 355.55555555555554 319.1733281046982 362.020202020202 319.1985617716006 368.4848484848485 319.22224783494926 374.9494949494949 319.2459883155472 381.4141414141414 319.2682726826193 387.8787878787879 319.2906082713658 394.3434343434343 319.3122620723965 400.80808080808083 319.3325877472988 407.27272727272725 319.35296010225466 413.7373737373738 319.3720830285354 420.2020202020202 319.3912498708516 426.66666666666663 319.4098316352613 433.13131313131316 318.5742204942927 439.5959595959596 318.6177414497839 446.0606060606061 318.6585935351215 452.52525252525254 318.6995391244184 458.98989898989896 318.7379735672733 465.4545454545455 318.7764962737557 471.9191919191919 318.8138429881342 478.3838383838384 318.8488991637637 484.8484848484849 318.8840361021537 491.3131313131313 318.91701762015356 497.77777777777777 318.95007496883693 504.24242424242425 318.9821233995239 510.7070707070707 319.01022853191694 517.1717171717172 319.040440894198 523.6363636363636 319.0688000285553 530.1010101010102 319.0972243074293 536.5656565656566 319.12390540534716 543.030303030303 319.15064774322076 549.4949494949494 319.1765737196032 555.959595959596 319.2009097176705 562.4242424242424 319.22530140710705 568.8888888888889 319.2481972386974 575.3535353535353 319.2711455763572 581.8181818181818 319.2933934563348 588.2828282828283 319.3129039616646 594.7474747474747 319.3338772490993 601.2121212121212 319.3535641481071 607.6767676767677 319.37329628864603 614.1414141414141 319.39181808721986 620.6060606060606 319.4103825277092 627.070707070707 319.42838026227884 633.5353535353536 319.44527419802125 640 319.4484761434947 640 320 0 320"
      />
      

      
        <g id="labels">
        
          
          <text x="0" y="330">
            Jul 2014
          </text>
          
        
          
        
          
        
          
        
          
        
          
        
          
        
          
        
          
        
          
        
          
        
          
        
          
        
          
          <text x="83.2" y="330">
            Aug 2015
          </text>
          
        
          
        
          
        
          
        
          
        
          
        
          
        
          
        
          
        
          
        
          
        
          
        
          
        
          
          <text x="166.4" y="330">
            Sep 2016
          </text>
          
        
          
        
          
        
          
        
          
        
          
        
          
        
          
        
          
        
          
        
          
        
          
        
          
        
          
          <text x="249.6" y="330">
            Oct 2017
          </text>
          
        
          
        
          
        
          
        
          
        
          
        
          
        
          
        
          
        
          
        
          
        
          
        
          
        
          
          <text x="332.8" y="330">
            Nov 2018
          </text>
          
        
          
        
          
        
          
        
          
        
          
        
          
        
          
        
          
        
          
        
          
        
          
        
          
        
          
          <text x="416" y="330">
            Dec 2019
          </text>
          
        
          
        
          
        
          
        
          
        
          
        
          
        
          
        
          
        
          
        
          
        
          
        
          
        
          
          <text x="499.2" y="330">
            Jan 2021
          </text>
          
        
          
        
          
        
          
        
          
        
          
        
          
        
          
        
          
        
          
        
          
        
          
        
          
        
          
          <text x="582.4" y="330">
            Feb 2022
          </text>
          
        
          
        
          
        
          
        
          
        
          
        
          
        
          
        
          
        
        </g>
      

      
        <text text-anchor="middle" y="370" x="320" id="legend">
          
          <tspan xml:space="preserve" fill="#C1F12E">   </tspan> Batchfile
          
          <tspan xml:space="preserve" fill="#555555">   </tspan> C
          
          <tspan xml:space="preserve" fill="#178600">   </tspan> C#
          
          <tspan xml:space="preserve" fill="#563d7c">   </tspan> CSS
          
          <tspan xml:space="preserve" fill="#244776">   </tspan> CoffeeScript
          
          <tspan xml:space="preserve" fill="#00ADD8">   </tspan> Go
          
          <tspan xml:space="preserve" fill="#e34c26">   </tspan> HTML
          
          <tspan xml:space="preserve" fill="#22e4e8">   </tspan> JSON
          
        </text>
      
        <text text-anchor="middle" y="400" x="320" id="legend">
          
          <tspan xml:space="preserve" fill="#22e8e8">   </tspan> JSon
          
          <tspan xml:space="preserve" fill="#f1e05a">   </tspan> JavaScript
          
          <tspan xml:space="preserve" fill="#2415b9">   </tspan> Less
          
          <tspan xml:space="preserve" fill="#755462">   </tspan> MySQL
          
          <tspan xml:space="preserve" fill="#4F5D95">   </tspan> PHP
          
          <tspan xml:space="preserve" fill="#fd2fdb">   </tspan> PLpgSQL
          
          <tspan xml:space="preserve" fill="#0298c3">   </tspan> Perl
          
          <tspan xml:space="preserve" fill="#3572A5">   </tspan> Python
          
        </text>
      
        <text text-anchor="middle" y="430" x="320" id="legend">
          
          <tspan xml:space="preserve" fill="#701516">   </tspan> Ruby
          
          <tspan xml:space="preserve" fill="#dea584">   </tspan> Rust
          
          <tspan xml:space="preserve" fill="#26c0b0">   </tspan> SCSS
          
          <tspan xml:space="preserve" fill="#0141ae">   </tspan> SQL
          
          <tspan xml:space="preserve" fill="#89e051">   </tspan> Shell
          
          <tspan xml:space="preserve" fill="#2770da">   </tspan> TSQL
          
          <tspan xml:space="preserve" fill="#2b7489">   </tspan> TypeScript
          
          <tspan xml:space="preserve" fill="#2c3e50">   </tspan> Vue
          
        </text>
      
        <text text-anchor="middle" y="460" x="320" id="legend">
          
          <tspan xml:space="preserve" fill="#4B6C4B">   </tspan> Yacc
          
        </text>
      

    </svg>