<svg
      xmlns="http://www.w3.org/2000/svg"
      viewBox="0 0 640 490"
      style="background-color: #292b3e"
    >
      <style>
        text {
          font-size: 12px;
          font-family: Open Sans, Helvetica Neue, Helvetica, Arial, sans-serif;
        }
        #labels text {
          dominant-baseline: hanging;
          font-size: 10px;
          fill: rgba(0,0,0,0.5);
        }
        #legend {
          font-weight: 600;
        }
        #legend tspan {
          font-size: 15px;
        }
        #branding-text {
          font-size: 9px;
          dominant-baseline: hanging;
          opacity: 0.5;
        }
        #branding-logo {
          opacity: 0.5;
        }
      </style>

      
      
      <polygon
        fill="#4B6C4B"
        fillRule="evenodd"
        points="0 313.61354923201077 6.530612244897958 304.26911393650215 13.061224489795917 297.26804291692724 19.591836734693878 285.9388162493017 26.122448979591834 278.82799545220973 32.6530612244898 274.9842060063962 39.183673469387756 267.09074199657346 45.71428571428571 257.0788072314271 52.24489795918367 246.2221195554859 58.775510204081634 230.99228696394962 65.3061224489796 221.54624473045345 71.83673469387755 206.6280575218879 78.36734693877551 198.2772834045851 84.89795918367348 192.1703391523037 91.42857142857142 182.1294606580448 97.9591836734694 170.61720303230206 104.48979591836734 156.95187491502682 111.0204081632653 154.80416905522713 117.55102040816327 149.88792316591113 124.08163265306122 142.52567424108918 130.6122448979592 138.28614557738047 137.14285714285714 123.78678820952388 143.6734693877551 127.17483805328357 150.20408163265307 110.77246086616472 156.73469387755102 93.05722284583686 163.26530612244898 88.01884053381539 169.79591836734696 78.10625706610838 176.32653061224488 68.7837466224417 182.85714285714283 65.97364241838935 189.3877551020408 62.13349259896387 195.9183673469388 59.18916405477381 202.44897959183675 46.68390035102965 208.97959183673467 33.293988974660294 215.51020408163265 31.646404146613122 222.0408163265306 27.41464798603954 228.57142857142858 27.528822242542844 235.10204081632654 25.25116615280251 241.63265306122446 13.936102337155205 248.16326530612244 9.643063867824253 254.69387755102042 9.883820883345948 261.2244897959184 12.937976541066746 267.7551020408163 8.246925718286263 274.2857142857143 10.710130239626437 280.81632653061223 10.158916215100987 287.3469387755102 11.455595135038891 293.8775510204082 14.195553014109919 300.40816326530614 17.69309960538982 306.9387755102041 18.06785522599523 313.46938775510205 12.038702351791926 320 13.32253205206456 326.53061224489795 11.292657432680642 333.0612244897959 7.029463674437977 339.5918367346939 1.9717957149398444 346.12244897959187 4.695480431128146 352.65306122448976 0.06645076964855434 359.1836734693877 0 365.71428571428567 3.1341105576620407 372.2448979591837 11.121614020094228 378.7755102040816 13.499596078710738 385.3061224489796 18.048003064603847 391.8367346938776 21.31457180677836 398.36734693877554 21.568441455014295 404.8979591836735 27.066571093324967 411.42857142857144 30.681070223399843 417.95918367346934 36.74805710800268 424.48979591836735 42.803800932462536 431.0204081632653 46.96029771957615 437.55102040816325 38.51482312223192 444.0816326530612 42.631250481254085 450.61224489795916 50.61560689966899 457.14285714285717 58.06898731136101 463.6734693877551 55.54214943171746 470.2040816326531 58.4078570655347 476.7346938775511 64.84917583782052 483.2653061224489 68.96512178583461 489.7959183673469 76.40559513013261 496.3265306122449 74.3193914985049 502.85714285714283 74.99069118258586 509.38775510204084 75.05185508971624 515.9183673469388 74.49038811594437 522.4489795918367 78.43680879261575 528.9795918367347 85.33588811548731 535.5102040816327 88.56509259328885 542.0408163265306 82.02549951908023 548.5714285714286 83.08739101140529 555.1020408163265 90.29387408036709 561.6326530612245 89.48590441067824 568.1632653061224 88.46143606393068 574.6938775510204 89.43491503326464 581.2244897959183 87.51992370553481 587.7551020408164 88.00651598308039 594.2857142857143 88.21711683078277 600.8163265306123 90.76517700077824 607.3469387755102 86.66763394342414 613.8775510204082 71.26735591196325 620.4081632653061 70.87690216450707 626.9387755102041 76.09285537850263 633.469387755102 83.51290228008804 640 85.45459110051928 640 320 0 320"
      />
      
      <polygon
        fill="#2c3e50"
        fillRule="evenodd"
        points="0 313.61354923201077 6.530612244897958 304.26911393650215 13.061224489795917 297.26804291692724 19.591836734693878 285.9388162493017 26.122448979591834 278.82799545220973 32.6530612244898 274.9842060063962 39.183673469387756 267.09074199657346 45.71428571428571 257.0788072314271 52.24489795918367 246.2221195554859 58.775510204081634 230.99228696394962 65.3061224489796 221.54624473045345 71.83673469387755 206.6280575218879 78.36734693877551 198.2772834045851 84.89795918367348 192.1703391523037 91.42857142857142 182.1294606580448 97.9591836734694 170.61720303230206 104.48979591836734 156.95187491502682 111.0204081632653 154.80416905522713 117.55102040816327 149.88792316591113 124.08163265306122 142.52567424108918 130.6122448979592 138.28614557738047 137.14285714285714 123.78678820952388 143.6734693877551 127.17483805328357 150.20408163265307 110.77246086616472 156.73469387755102 93.05722284583686 163.26530612244898 88.01884053381539 169.79591836734696 78.10625706610838 176.32653061224488 68.7837466224417 182.85714285714283 65.97364241838935 189.3877551020408 62.13349259896387 195.9183673469388 59.18916405477381 202.44897959183675 46.68390035102965 208.97959183673467 33.293988974660294 215.51020408163265 31.646404146613122 222.0408163265306 27.41464798603954 228.57142857142858 27.528822242542844 235.10204081632654 25.25116615280251 241.63265306122446 13.936102337155205 248.16326530612244 9.643063867824253 254.69387755102042 9.883820883345948 261.2244897959184 12.937976541066746 267.7551020408163 8.246925718286263 274.2857142857143 10.710130239626437 280.81632653061223 10.158916215100987 287.3469387755102 11.455595135038891 293.8775510204082 14.195553014109919 300.40816326530614 17.69309960538982 306.9387755102041 18.06785522599523 313.46938775510205 12.038702351791926 320 13.32253205206456 326.53061224489795 11.292657432680642 333.0612244897959 7.029463674437977 339.5918367346939 1.9717957149398444 346.12244897959187 4.695480431128146 352.65306122448976 0.06645076964855434 359.1836734693877 0 365.71428571428567 3.1341105576620407 372.2448979591837 11.121614020094228 378.7755102040816 13.499596078710738 385.3061224489796 18.048003064603847 391.8367346938776 21.31457180677836 398.36734693877554 21.568441455014295 404.8979591836735 27.066571093324967 411.42857142857144 30.681070223399843 417.95918367346934 36.74805710800268 424.48979591836735 42.803800932462536 431.0204081632653 46.96029771957615 437.55102040816325 38.51482312223192 444.0816326530612 42.631250481254085 450.61224489795916 50.61560689966899 457.14285714285717 58.06898731136101 463.6734693877551 56.64273661957111 470.2040816326531 59.474849505484656 476.7346938775511 65.88359888837414 483.2653061224489 69.96897304141419 489.7959183673469 77.37880441137554 496.3265306122449 75.26383802995673 502.85714285714283 75.90630910045235 509.38775510204084 75.93952425619784 515.9183673469388 75.35354721706238 522.4489795918367 79.2736205264892 528.9795918367347 86.14796833368598 535.5102040816327 89.35238451526246 542.0408163265306 82.7895234373834 548.5714285714286 83.82809356711704 555.1020408163265 91.01196712649903 561.6326530612245 90.18277459074099 568.1632653061224 89.13703467365195 574.6938775510204 90.09054666897921 581.2244897959183 88.15554257084159 587.7551020408164 88.622732956965 594.2857142857143 88.81631901854345 600.8163265306123 91.34608892589185 607.3469387755102 87.23137730432566 613.8775510204082 71.81389136505373 620.4081632653061 71.40728501011867 626.9387755102041 76.6070486054985 633.469387755102 84.01140006215343 640 85.94963365355113 640 320 0 320"
      />
      
      <polygon
        fill="#2b7489"
        fillRule="evenodd"
        points="0 313.61354923201077 6.530612244897958 304.26911393650215 13.061224489795917 297.26804291692724 19.591836734693878 285.9388162493017 26.122448979591834 278.82799545220973 32.6530612244898 274.9842060063962 39.183673469387756 267.09074199657346 45.71428571428571 257.0788072314271 52.24489795918367 246.2221195554859 58.775510204081634 230.99228696394962 65.3061224489796 221.54624473045345 71.83673469387755 206.6280575218879 78.36734693877551 198.2772834045851 84.89795918367348 192.1703391523037 91.42857142857142 182.1294606580448 97.9591836734694 170.61720303230206 104.48979591836734 156.95187491502682 111.0204081632653 154.80416905522713 117.55102040816327 149.88792316591113 124.08163265306122 142.52567424108918 130.6122448979592 138.28614557738047 137.14285714285714 123.78678820952388 143.6734693877551 127.17483805328357 150.20408163265307 110.77246086616472 156.73469387755102 93.05722284583686 163.26530612244898 88.01884053381539 169.79591836734696 78.10625706610838 176.32653061224488 68.7837466224417 182.85714285714283 65.97364241838935 189.3877551020408 62.13349259896387 195.9183673469388 59.18916405477381 202.44897959183675 46.68390035102965 208.97959183673467 33.293988974660294 215.51020408163265 31.646404146613122 222.0408163265306 27.41464798603954 228.57142857142858 27.528822242542844 235.10204081632654 25.25116615280251 241.63265306122446 13.936102337155205 248.16326530612244 9.643063867824253 254.69387755102042 9.883820883345948 261.2244897959184 12.937976541066746 267.7551020408163 8.246925718286263 274.2857142857143 10.710130239626437 280.81632653061223 10.158916215100987 287.3469387755102 11.455595135038891 293.8775510204082 14.195553014109919 300.40816326530614 17.69309960538982 306.9387755102041 18.06785522599523 313.46938775510205 12.038702351791926 320 13.32253205206456 326.53061224489795 11.292657432680642 333.0612244897959 7.029463674437977 339.5918367346939 1.9717957149398444 346.12244897959187 4.695480431128146 352.65306122448976 0.06645076964855434 359.1836734693877 0 365.71428571428567 3.1341105576620407 372.2448979591837 11.121614020094228 378.7755102040816 13.499596078710738 385.3061224489796 18.048003064603847 391.8367346938776 21.31457180677836 398.36734693877554 21.568441455014295 404.8979591836735 27.066571093324967 411.42857142857144 30.681070223399843 417.95918367346934 36.74805710800268 424.48979591836735 42.803800932462536 431.0204081632653 46.96029771957615 437.55102040816325 38.51482312223192 444.0816326530612 42.631250481254085 450.61224489795916 50.61560689966899 457.14285714285717 58.06898731136101 463.6734693877551 56.64273661957111 470.2040816326531 59.474849505484656 476.7346938775511 65.88359888837414 483.2653061224489 69.96897304141419 489.7959183673469 77.37880441137554 496.3265306122449 75.26383802995673 502.85714285714283 75.90630910045235 509.38775510204084 75.93952425619784 515.9183673469388 75.35354721706238 522.4489795918367 79.2736205264892 528.9795918367347 86.14796833368598 535.5102040816327 89.35238451526246 542.0408163265306 84.99962877919356 548.5714285714286 87.49736451938745 555.1020408163265 94.56923572044218 561.6326530612245 96.00364102463217 568.1632653061224 96.87073365601378 574.6938775510204 100.59141319652116 581.2244897959183 100.44765317803663 587.7551020408164 101.47604727469462 594.2857142857143 102.08136733442555 600.8163265306123 104.237065209262 607.3469387755102 99.74136760356134 613.8775510204082 84.61163246415515 620.4081632653061 84.30017874164048 626.9387755102041 89.10639486347006 633.469387755102 96.12921246430386 640 97.98345399698505 640 320 0 320"
      />
      
      <polygon
        fill="#2770da"
        fillRule="evenodd"
        points="0 313.61354923201077 6.530612244897958 304.26911393650215 13.061224489795917 297.26804291692724 19.591836734693878 285.9388162493017 26.122448979591834 278.82799545220973 32.6530612244898 274.9842060063962 39.183673469387756 267.09074199657346 45.71428571428571 257.0788072314271 52.24489795918367 246.2221195554859 58.775510204081634 230.99228696394962 65.3061224489796 221.54624473045345 71.83673469387755 206.6280575218879 78.36734693877551 198.2772834045851 84.89795918367348 192.1703391523037 91.42857142857142 182.1294606580448 97.9591836734694 170.61720303230206 104.48979591836734 156.95187491502682 111.0204081632653 154.80416905522713 117.55102040816327 149.88792316591113 124.08163265306122 142.52567424108918 130.6122448979592 138.28614557738047 137.14285714285714 123.78678820952388 143.6734693877551 127.17483805328357 150.20408163265307 110.77246086616472 156.73469387755102 93.05722284583686 163.26530612244898 88.01884053381539 169.79591836734696 78.10625706610838 176.32653061224488 68.7837466224417 182.85714285714283 65.97364241838935 189.3877551020408 62.13349259896387 195.9183673469388 59.18916405477381 202.44897959183675 46.68390035102965 208.97959183673467 33.293988974660294 215.51020408163265 31.646404146613122 222.0408163265306 27.41464798603954 228.57142857142858 27.528822242542844 235.10204081632654 25.25116615280251 241.63265306122446 14.574311468281337 248.16326530612244 11.08007448026109 254.69387755102042 11.276967544558204 261.2244897959184 14.28994949420877 267.7551020408163 9.557630431859423 274.2857142857143 11.98082634585245 280.81632653061223 11.39452644178101 287.3469387755102 12.653489040466525 293.8775510204082 15.358043845712416 300.40816326530614 18.82010608662847 306.9387755102041 19.161553636375515 313.46938775510205 13.099016244101733 320 14.350480516961852 326.53061224489795 12.290225323385869 333.0612244897959 7.996581428098125 339.5918367346939 2.910330739663209 346.12244897959187 5.605367274126934 352.65306122448976 0.9485638472868914 359.1836734693877 0.8577564204570081 365.71428571428567 3.9656844244876766 372.2448979591837 11.928611238500537 378.7755102040816 14.281960135301688 385.3061224489796 18.807244819334528 391.8367346938776 22.05063808568076 398.36734693877554 22.282039774981172 404.8979591836735 27.759079425629466 411.42857142857144 31.352440120648794 417.95918367346934 37.39958500805142 424.48979591836735 43.4354413471649 431.0204081632653 47.57265766445653 437.55102040816325 40.230364836353715 444.0816326530612 44.294426266100174 450.61224489795916 52.22962856566335 457.14285714285717 59.63374183171163 463.6734693877551 58.16124561143653 470.2040816326531 60.947006826432016 476.7346938775511 67.3108194283368 483.2653061224489 71.35401290734103 489.7959183673469 78.72156681123187 496.3265306122449 76.56691579835262 502.85714285714283 77.16961109669273 509.38775510204084 77.16426469628442 515.9183673469388 76.5444705547198 522.4489795918367 80.42819167352292 528.9795918367347 87.2684166921938 535.5102040816327 90.43863189125457 542.0408163265306 86.05377264167589 548.5714285714286 88.51933129819355 555.1020408163265 95.56000751564343 561.6326530612245 96.96513107156352 568.1632653061224 97.80287475510974 574.6938775510204 101.49600535082126 581.2244897959183 101.32463319528892 587.7551020408164 102.32625797513722 594.2857142857143 102.90810242153103 600.8163265306123 105.03856459899879 607.3469387755102 100.51917908482 613.8775510204082 85.37679887782292 620.4081632653061 85.30641342400997 626.9387755102041 90.08191482334945 633.469387755102 97.07495536168494 640 98.92264164868098 640 320 0 320"
      />
      
      <polygon
        fill="#89e051"
        fillRule="evenodd"
        points="0 313.61354923201077 6.530612244897958 304.90984370894375 13.061224489795917 298.3344734082174 19.591836734693878 288.0768161491108 26.122448979591834 281.27134031334475 32.6530612244898 277.3529694195225 39.183673469387756 269.9999390086687 45.71428571428571 260.0717253461928 52.24489795918367 250.17316866367423 58.775510204081634 235.18155955923493 65.3061224489796 226.78746405013487 71.83673469387755 213.32783775869203 78.36734693877551 205.81365302073715 84.89795918367348 200.42202964755927 91.42857142857142 190.45081162028566 97.9591836734694 178.68454991224036 104.48979591836734 164.7807953734006 111.0204081632653 162.39411645336924 117.55102040816327 158.3563867181614 124.08163265306122 150.82947419755413 130.6122448979592 146.4702552986248 137.14285714285714 132.58684873683268 143.6734693877551 135.70628064783332 150.20408163265307 119.05176175169035 156.73469387755102 102.43438851480178 163.26530612244898 97.17054487903079 169.79591836734696 87.08395152735062 176.32653061224488 77.5184612236734 182.85714285714283 74.59616662581243 189.3877551020408 71.29274918892213 195.9183673469388 68.12750053198471 202.44897959183675 55.43676705506772 208.97959183673467 42.60285501921646 215.51020408163265 40.81629553018888 222.0408163265306 36.304632629119226 228.57142857142858 36.65720299545649 235.10204081632654 34.26577208178594 241.63265306122446 23.33058849889113 248.16326530612244 19.768501116584787 254.69387755102042 20.331807928969624 261.2244897959184 23.771768108474078 267.7551020408163 19.35788970258625 274.2857142857143 21.65715379410716 280.81632653061223 22.197559822759104 287.3469387755102 24.03340911313711 293.8775510204082 26.401636463821376 300.40816326530614 29.526598146918104 306.9387755102041 29.794692336128094 313.46938775510205 23.4694083419368 320 24.700978871876316 326.53061224489795 22.40417874181719 333.0612244897959 17.80181285015982 339.5918367346939 12.431421026591295 346.12244897959187 14.835833209128396 352.65306122448976 10.202132047580847 359.1836734693877 9.855817282113946 365.71428571428567 12.717239606731255 372.2448979591837 20.455395587942576 378.7755102040816 22.802086179174523 385.3061224489796 27.111391048789756 391.8367346938776 30.808604353073747 398.36734693877554 30.772680211351883 404.8979591836735 35.998779833278945 411.42857142857144 39.3406261179702 417.95918367346934 45.23253589907881 424.48979591836735 51.02929947231263 431.0204081632653 55.0695069490032 437.55102040816325 47.537754501967584 444.0816326530612 51.37876475017799 450.61224489795916 59.10459211004559 457.14285714285717 66.29885264132275 463.6734693877551 64.9177971508648 470.2040816326531 67.49731632333763 476.7346938775511 73.66118473557393 483.2653061224489 78.6326886301876 489.7959183673469 85.77806474139027 496.3265306122449 83.41486285688126 502.85714285714283 83.84697041425721 509.38775510204084 83.63780002541515 515.9183673469388 82.83926367084501 522.4489795918367 87.04902639512483 528.9795918367347 93.69357675982184 535.5102040816327 96.66766756102791 542.0408163265306 92.09871263581311 548.5714285714286 94.37975238273424 555.1020408163265 101.24154304865598 561.6326530612245 102.4787532830155 568.1632653061224 103.14819534659466 574.6938775510204 106.68334839502992 581.2244897959183 106.35363525970914 587.7551020408164 107.20175146888806 594.2857142857143 107.64897730686786 600.8163265306123 109.6347271723833 607.3469387755102 105.64591408057191 613.8775510204082 90.34704170384973 620.4081632653061 90.12976498703662 626.9387755102041 94.7580366595094 633.469387755102 101.60834110797612 640 103.4246037889925 640 320 0 320"
      />
      
      <polygon
        fill="#0141ae"
        fillRule="evenodd"
        points="0 313.695787374876 6.530612244897958 304.9895715853255 13.061224489795917 298.411844963689 19.591836734693878 288.15458856437573 26.122448979591834 281.34681420754595 32.6530612244898 277.4261395122538 39.183673469387756 270.07087563033775 45.71428571428571 260.16865609144565 52.24489795918367 250.62552400796395 58.775510204081634 236.59140592897546 65.3061224489796 228.16530236262912 71.83673469387755 215.56287516680678 78.36734693877551 209.3478658958757 84.89795918367348 203.84836245698062 91.42857142857142 193.80948977727442 97.9591836734694 182.1668104334105 104.48979591836734 169.20010698026584 111.0204081632653 166.6896349524617 117.55102040816327 162.52078694583867 124.08163265306122 154.8748407729211 130.6122448979592 151.50321422553213 137.14285714285714 138.33039683032092 143.6734693877551 141.27450959608973 150.20408163265307 124.45542451270592 156.73469387755102 107.98202192651044 163.26530612244898 102.61887058793928 169.79591836734696 92.52504352156663 176.32653061224488 83.01582134578564 182.85714285714283 79.93105412512787 189.3877551020408 76.46479354306598 195.9183673469388 73.61549895316469 202.44897959183675 61.01127854618551 208.97959183673467 50.21104288656602 215.51020408163265 49.30673560088263 222.0408163265306 44.535907403178044 228.57142857142858 46.7263632796807 235.10204081632654 45.535873371000434 241.63265306122446 38.061720692424444 248.16326530612244 34.37976531457906 254.69387755102042 35.18780492976782 261.2244897959184 40.45923891777841 267.7551020408163 36.76696259808432 274.2857142857143 38.53482711662309 280.81632653061223 38.68995049901582 287.3469387755102 40.022377429998016 293.8775510204082 41.96014018805124 300.40816326530614 45.10750686388508 306.9387755102041 44.91788981096113 313.46938775510205 38.14215603226825 320 38.92584865098394 326.53061224489795 36.368588553762436 333.0612244897959 33.69975041620381 339.5918367346939 28.417270831507324 346.12244897959187 30.3727221006493 352.65306122448976 26.293712251380555 359.1836734693877 25.536693059085337 365.71428571428567 28.083784792407243 372.2448979591837 35.36779193046738 378.7755102040816 37.58852854716548 385.3061224489796 41.460823545372534 391.8367346938776 45.37429512098913 398.36734693877554 45.02180348500508 404.8979591836735 49.82678377497274 411.42857142857144 53.200813924947795 417.95918367346934 58.858080085719166 424.48979591836735 64.62552142654118 431.0204081632653 68.63066799233164 437.55102040816325 63.218411417968866 444.0816326530612 66.93883851930127 450.61224489795916 74.2047917152413 457.14285714285717 80.93813309852231 463.6734693877551 80.2663402511129 470.2040816326531 82.74326500442382 476.7346938775511 88.44175793050755 483.2653061224489 93.40756732983348 489.7959183673469 100.1019398252534 496.3265306122449 98.3447670494977 502.85714285714283 99.94033335882276 509.38775510204084 99.86309400678249 515.9183673469388 98.67431723984646 522.4489795918367 102.40071369522502 528.9795918367347 108.59155807629259 535.5102040816327 111.11089688228435 542.0408163265306 106.11507983655673 548.5714285714286 107.96827926745539 555.1020408163265 114.41528626687136 561.6326530612245 115.26315824816896 568.1632653061224 115.68605908027106 574.6938775510204 118.85067125868193 581.2244897959183 118.14955475616159 587.7551020408164 118.63760603491497 594.2857142857143 118.79930626230998 600.8163265306123 120.44470152866239 607.3469387755102 116.14470009312674 613.8775510204082 101.00073956607329 620.4081632653061 100.5556209757664 626.9387755102041 104.86564865839586 633.469387755102 111.40742387254917 640 113.15576834320422 640 320 0 320"
      />
      
      <polygon
        fill="#26c0b0"
        fillRule="evenodd"
        points="0 313.695787374876 6.530612244897958 305.07507271611877 13.061224489795917 298.52241805713 19.591836734693878 288.3920287244278 26.122448979591834 281.7296634486229 32.6530612244898 277.85566820194583 39.183673469387756 270.54540433436705 45.71428571428571 260.80006238656097 52.24489795918367 251.72752290045057 58.775510204081634 237.7908906351257 65.3061224489796 230.20545959236662 71.83673469387755 218.21676767198088 78.36734693877551 212.42850317920218 84.89795918367348 207.47604211856003 91.42857142857142 198.30976411932545 97.9591836734694 186.52971704720952 104.48979591836734 173.8064160715261 111.0204081632653 171.1553382006288 117.55102040816327 166.8782790625394 124.08163265306122 159.3525481856674 130.6122448979592 156.04885865218793 137.14285714285714 143.1235288309583 143.6734693877551 145.9241592217757 150.20408163265307 128.96765575358674 156.73469387755102 112.62420459130581 163.26530612244898 107.34716199501176 169.79591836734696 97.39177990497114 176.32653061224488 88.0744482461655 182.85714285714283 84.90334417461389 189.3877551020408 81.4788969295137 195.9183673469388 78.54019372876496 202.44897959183675 65.8389851342622 208.97959183673467 55.25783351852874 215.51020408163265 54.27454701510874 222.0408163265306 49.44587550703301 228.57142857142858 52.03132888807653 235.10204081632654 50.7568774379136 241.63265306122446 43.287540111686326 248.16326530612244 39.62418791629938 254.69387755102042 40.27214398682082 261.2244897959184 46.015496890231816 267.7551020408163 42.226137543260336 274.2857142857143 45.29482083562806 280.81632653061223 46.2261520135026 287.3469387755102 47.34229662927089 293.8775510204082 49.12224624265457 300.40816326530614 52.19641214412064 306.9387755102041 51.84792617353759 313.46938775510205 44.899083642659264 320 45.54030187990554 326.53061224489795 42.901975576607754 333.0612244897959 40.529800195966345 339.5918367346939 35.11168075441367 346.12244897959187 37.18659877398284 352.65306122448976 32.913349916502796 359.1836734693877 31.973550885934458 365.71428571428567 34.329794620310395 372.2448979591837 41.451150758745484 378.7755102040816 43.650467051568626 385.3061224489796 47.72237630396302 391.8367346938776 51.45029179503837 398.36734693877554 51.04917192304066 404.8979591836735 55.67601685112459 411.42857142857144 59.07782384900895 417.95918367346934 64.6497687559891 424.48979591836735 70.24042221979215 431.0204081632653 74.11915263422074 437.55102040816325 68.67690162628821 444.0816326530612 72.31808718497487 450.61224489795916 79.43595904854578 457.14285714285717 86.08171833393928 463.6734693877551 85.88894433400154 470.2040816326531 88.95218262447014 476.7346938775511 94.4723108470339 483.2653061224489 100.00813162104231 489.7959183673469 106.58852522779654 496.3265306122449 104.63964565497838 502.85714285714283 106.09853852880963 509.38775510204084 105.83332298310665 515.9183673469388 104.4962927748227 522.4489795918367 108.04497556100361 528.9795918367347 114.08010108110705 535.5102040816327 116.43190489703684 542.0408163265306 111.27883131221483 548.5714285714286 112.97440779170952 555.1020408163265 119.26860585629902 561.6326530612245 119.97304170087841 568.1632653061224 120.25217358373541 574.6938775510204 123.28183680724459 581.2244897959183 122.68863417572749 587.7551020408164 123.03813084216046 594.2857142857143 123.07832613781238 600.8163265306123 124.59593208003096 607.3469387755102 120.75481870103795 613.8775510204082 105.47013601604706 620.4081632653061 104.89292702116157 626.9387755102041 109.07056220942269 633.469387755102 115.48398275997855 640 117.20407217664217 640 320 0 320"
      />
      
      <polygon
        fill="#dea584"
        fillRule="evenodd"
        points="0 313.695787374876 6.530612244897958 305.07507271611877 13.061224489795917 298.52241805713 19.591836734693878 288.3920287244278 26.122448979591834 281.7296634486229 32.6530612244898 277.85566820194583 39.183673469387756 270.54540433436705 45.71428571428571 260.80006238656097 52.24489795918367 251.72752290045057 58.775510204081634 237.7908906351257 65.3061224489796 230.20545959236662 71.83673469387755 218.60516223353034 78.36734693877551 212.8050422269543 84.89795918367348 207.8410875437527 91.42857142857142 198.66402080840984 97.9591836734694 187.99615921979162 104.48979591836734 176.3318698622701 111.0204081632653 173.60370402012245 117.55102040816327 169.25190992309032 124.08163265306122 162.75989084999492 130.6122448979592 159.35219467896246 137.14285714285714 148.55722753720175 143.6734693877551 151.19199737850593 150.20408163265307 136.32705212878085 156.73469387755102 123.07430523794119 163.26530612244898 117.47827842906725 169.79591836734696 107.22347809167044 176.32653061224488 98.72222042193573 182.85714285714283 95.23642818341926 189.3877551020408 91.49656837236861 195.9183673469388 88.2520824883538 202.44897959183675 76.38153810050375 208.97959183673467 66.58268960964517 215.51020408163265 65.26470046317544 222.0408163265306 60.100558757380156 228.57142857142858 62.371120009474964 235.10204081632654 60.78105305889392 241.63265306122446 53.00573268372381 248.16326530612244 49.05516348318457 254.69387755102042 49.41524596564341 261.2244897959184 54.8883764696061 267.7551020408163 51.93113886114696 274.2857142857143 54.70358365807425 280.81632653061223 55.37512265162428 287.3469387755102 56.212001183304324 293.8775510204082 57.72981022387927 300.40816326530614 60.54123466100924 306.9387755102041 61.064153404280546 313.46938775510205 54.08980791904605 320 54.450483383211804 326.53061224489795 51.548824177200515 333.0612244897959 48.912707604201046 339.5918367346939 43.246835489463706 346.12244897959187 45.07343364685511 352.65306122448976 41.66871143009678 359.1836734693877 40.487162887525415 365.71428571428567 42.58353295553502 372.2448979591837 49.460952616292104 378.7755102040816 51.47764535607007 385.3061224489796 55.31822678320003 391.8367346938776 58.81428373684639 398.36734693877554 58.188381318361394 404.8979591836735 62.60423245483247 411.42857142857144 65.79455861838173 417.95918367346934 71.16799374843634 424.48979591836735 76.55968193734185 431.0204081632653 80.24552062292062 437.55102040816325 74.62815782254387 444.0816326530612 78.08768302195702 450.61224489795916 85.0350391734558 457.14285714285717 91.50988910528585 463.6734693877551 91.15668806198457 470.2040816326531 94.05913176651205 476.7346938775511 99.42337312919804 483.2653061224489 104.81286900718618 489.7959183673469 111.24659874029555 496.3265306122449 109.16005335674924 502.85714285714283 110.48096312282144 509.38775510204084 110.08197687514823 515.9183673469388 108.62763430984558 522.4489795918367 112.0502094050554 528.9795918367347 117.96696340434679 535.5102040816327 120.20012258563423 542.0408163265306 116.0540484635575 548.5714285714286 117.60386394797268 555.1020408163265 123.75675006027348 561.6326530612245 124.68671720246178 568.1632653061224 124.82196597901373 574.6938775510204 127.7165724611622 581.2244897959183 126.98800226460622 587.7551020408164 127.20626300900861 594.2857142857143 127.15632693885368 600.8163265306123 128.54945452268464 607.3469387755102 124.59149630658555 613.8775510204082 109.18970234951419 620.4081632653061 108.50256246914518 626.9387755102041 112.5700162634509 633.469387755102 118.87661817261869 640 120.57319154317909 640 320 0 320"
      />
      
      <polygon
        fill="#701516"
        fillRule="evenodd"
        points="0 313.695787374876 6.530612244897958 305.07507271611877 13.061224489795917 298.52241805713 19.591836734693878 288.3920287244278 26.122448979591834 281.7296634486229 32.6530612244898 277.85566820194583 39.183673469387756 270.54540433436705 45.71428571428571 260.80006238656097 52.24489795918367 251.72752290045057 58.775510204081634 237.7908906351257 65.3061224489796 230.20545959236662 71.83673469387755 218.60516223353034 78.36734693877551 212.8050422269543 84.89795918367348 207.8410875437527 91.42857142857142 198.66402080840984 97.9591836734694 187.99615921979162 104.48979591836734 176.3318698622701 111.0204081632653 173.60370402012245 117.55102040816327 169.25190992309032 124.08163265306122 162.75989084999492 130.6122448979592 159.35219467896246 137.14285714285714 148.55722753720175 143.6734693877551 151.19199737850593 150.20408163265307 136.32705212878085 156.73469387755102 123.07430523794119 163.26530612244898 117.47827842906725 169.79591836734696 107.22347809167044 176.32653061224488 98.72222042193573 182.85714285714283 95.23642818341926 189.3877551020408 91.49656837236861 195.9183673469388 88.2520824883538 202.44897959183675 76.38153810050375 208.97959183673467 66.58268960964517 215.51020408163265 65.26470046317544 222.0408163265306 60.100558757380156 228.57142857142858 62.371120009474964 235.10204081632654 60.78105305889392 241.63265306122446 53.00573268372381 248.16326530612244 49.05516348318457 254.69387755102042 49.41524596564341 261.2244897959184 54.8883764696061 267.7551020408163 51.93113886114696 274.2857142857143 54.70358365807425 280.81632653061223 55.37512265162428 287.3469387755102 56.212001183304324 293.8775510204082 57.72981022387927 300.40816326530614 60.54123466100924 306.9387755102041 61.064153404280546 313.46938775510205 54.08980791904605 320 54.450483383211804 326.53061224489795 51.548824177200515 333.0612244897959 48.912707604201046 339.5918367346939 43.246835489463706 346.12244897959187 45.07343364685511 352.65306122448976 41.66871143009678 359.1836734693877 40.487162887525415 365.71428571428567 42.58353295553502 372.2448979591837 49.460952616292104 378.7755102040816 51.47764535607007 385.3061224489796 55.31822678320003 391.8367346938776 58.81428373684639 398.36734693877554 58.188381318361394 404.8979591836735 62.60423245483247 411.42857142857144 65.79455861838173 417.95918367346934 71.16799374843634 424.48979591836735 76.55968193734185 431.0204081632653 80.24552062292062 437.55102040816325 74.62815782254387 444.0816326530612 78.08768302195702 450.61224489795916 85.0350391734558 457.14285714285717 91.50988910528585 463.6734693877551 91.15668806198457 470.2040816326531 94.05913176651205 476.7346938775511 99.42337312919804 483.2653061224489 104.81286900718618 489.7959183673469 111.24659874029555 496.3265306122449 109.16005335674924 502.85714285714283 110.48096312282144 509.38775510204084 110.08197687514823 515.9183673469388 108.62763430984558 522.4489795918367 112.0502094050554 528.9795918367347 117.96696340434679 535.5102040816327 120.20012258563423 542.0408163265306 116.0540484635575 548.5714285714286 117.60386394797268 555.1020408163265 123.75675006027348 561.6326530612245 124.68671720246178 568.1632653061224 124.82196597901373 574.6938775510204 127.7165724611622 581.2244897959183 126.98800226460622 587.7551020408164 127.20626300900861 594.2857142857143 127.15632693885368 600.8163265306123 128.54945452268464 607.3469387755102 124.59149630658555 613.8775510204082 109.20925858621354 620.4081632653061 108.52154073101309 626.9387755102041 112.58841522601884 633.469387755102 118.89445551635953 640 120.59090524999465 640 320 0 320"
      />
      
      <polygon
        fill="#3572A5"
        fillRule="evenodd"
        points="0 313.695787374876 6.530612244897958 305.07507271611877 13.061224489795917 298.52241805713 19.591836734693878 288.3920287244278 26.122448979591834 281.7296634486229 32.6530612244898 277.85566820194583 39.183673469387756 270.54540433436705 45.71428571428571 260.80006238656097 52.24489795918367 251.72752290045057 58.775510204081634 237.7908906351257 65.3061224489796 230.20545959236662 71.83673469387755 218.60516223353034 78.36734693877551 212.8050422269543 84.89795918367348 207.8410875437527 91.42857142857142 198.66402080840984 97.9591836734694 187.99615921979162 104.48979591836734 176.3318698622701 111.0204081632653 173.60370402012245 117.55102040816327 169.25190992309032 124.08163265306122 163.42151886528373 130.6122448979592 159.99362686154092 137.14285714285714 149.2161217118198 143.6734693877551 151.830779185562 150.20408163265307 137.94819777072777 156.73469387755102 125.43987482217841 163.26530612244898 119.77164064168733 169.79591836734696 109.4490611168834 176.32653061224488 100.8798687965267 182.85714285714283 97.3303080749439 189.3877551020408 93.52653407901681 195.9183673469388 90.2200846470534 202.44897959183675 78.29520057388316 208.97959183673467 68.47380930035271 215.51020408163265 67.09992912446577 222.0408163265306 61.87976815522012 228.57142857142858 64.0977459528402 235.10204081632654 62.454974609117016 241.63265306122446 54.62855882856553 248.16326530612244 50.63002773632769 254.69387755102042 50.94203817734149 261.2244897959184 56.37004550886422 267.7551020408163 53.4034143464678 274.2857142857143 56.13091856060015 280.81632653061223 56.763046653029846 287.3469387755102 57.55755966049321 293.8775510204082 59.0356013545462 300.40816326530614 61.807167201707614 306.9387755102041 62.29267222727441 313.46938775510205 55.28082681571857 320 55.60514690396019 326.53061224489795 52.669362443383875 333.0612244897959 49.99904211357466 339.5918367346939 44.30106381378516 346.12244897959187 46.09548231870963 352.65306122448976 42.65956260093162 359.1836734693877 41.450655152702495 365.71428571428567 43.51761513565731 372.2448979591837 50.367428413457844 378.7755102040816 52.37878310334963 385.3061224489796 56.19273182196088 391.8367346938776 59.662095032620755 398.36734693877554 59.010313650467936 404.8979591836735 63.40187300713637 411.42857142857144 66.56785165839932 417.95918367346934 71.91843250394314 424.48979591836735 77.28721402555735 431.0204081632653 80.95084520703017 437.55102040816325 75.31332168417481 444.0816326530612 78.75193268341269 450.61224489795916 85.67965727304784 457.14285714285717 92.1348306172504 463.6734693877551 91.76315977338047 470.2040816326531 94.64709135394321 476.7346938775511 99.9933854491955 483.2653061224489 105.36603501263087 489.7959183673469 111.78287963217224 496.3265306122449 109.68048477900336 502.85714285714283 110.98550866027563 509.38775510204084 110.57112138191499 515.9183673469388 109.10327279312071 522.4489795918367 112.51132932973493 528.9795918367347 118.41445513384758 535.5102040816327 120.63395496566241 542.0408163265306 116.47505913566908 548.5714285714286 118.01202344300043 555.1020408163265 124.15245077641396 561.6326530612245 125.07072315972874 568.1632653061224 125.19425041060776 574.6938775510204 128.0778541969306 581.2244897959183 127.33825605847363 587.7551020408164 127.54582552668796 594.2857142857143 127.48651356560077 600.8163265306123 128.86956242708092 607.3469387755102 124.90214356023068 613.8775510204082 109.52983976461371 620.4081632653061 108.83264732554125 626.9387755102041 112.89002545332951 633.469387755102 119.18685927989924 640 120.8812822581996 640 320 0 320"
      />
      
      <polygon
        fill="#0298c3"
        fillRule="evenodd"
        points="0 313.695787374876 6.530612244897958 305.07507271611877 13.061224489795917 298.52241805713 19.591836734693878 288.3920287244278 26.122448979591834 281.7296634486229 32.6530612244898 277.85566820194583 39.183673469387756 270.54540433436705 45.71428571428571 260.80006238656097 52.24489795918367 251.72752290045057 58.775510204081634 237.7908906351257 65.3061224489796 230.20545959236662 71.83673469387755 218.60516223353034 78.36734693877551 212.8050422269543 84.89795918367348 207.8410875437527 91.42857142857142 198.66402080840984 97.9591836734694 187.99615921979162 104.48979591836734 176.3318698622701 111.0204081632653 173.60370402012245 117.55102040816327 169.25190992309032 124.08163265306122 163.42151886528373 130.6122448979592 159.99362686154092 137.14285714285714 149.2161217118198 143.6734693877551 151.830779185562 150.20408163265307 137.94819777072777 156.73469387755102 126.07798630843135 163.26530612244898 120.3902741386616 169.79591836734696 110.04941124584494 176.32653061224488 101.46189358343506 182.85714285714283 97.89513144794427 189.3877551020408 94.07411651983261 195.9183673469388 90.75095248035461 202.44897959183675 78.8114102707757 208.97959183673467 68.97426193216279 215.51020408163265 67.69006539213387 222.0408163265306 62.45189087037852 228.57142857142858 64.65295985990491 235.10204081632654 62.99324093989833 241.63265306122446 55.15039489641572 248.16326530612244 51.13644126757441 254.69387755102042 51.4329936815721 261.2244897959184 56.84649110618636 267.7551020408163 53.86531672480328 274.2857142857143 56.57872160698696 280.81632653061223 57.198485123223065 287.3469387755102 57.979706642321275 293.8775510204082 59.44527197668327 300.40816326530614 62.204332868375275 306.9387755102041 62.67809987663264 313.46938775510205 55.65448951656549 320 55.96740378351467 326.53061224489795 53.02091300391186 333.0612244897959 50.33986178716157 339.5918367346939 44.63181072461572 346.12244897959187 46.416133388767946 352.65306122448976 42.97042597207832 359.1836734693877 41.75293507403131 365.71428571428567 43.81066814564099 372.2448979591837 50.65182038586852 378.7755102040816 52.65449418657249 385.3061224489796 56.46029439273684 391.8367346938776 59.921490431254085 398.36734693877554 59.26179113186055 404.8979591836735 63.64591821658831 411.42857142857144 66.80444752886498 417.95918367346934 72.14803591026646 424.48979591836735 77.509808928209 431.0204081632653 81.16664551435167 437.55102040816325 75.52295366734586 444.0816326530612 78.95516576777749 450.61224489795916 85.87688391845398 457.14285714285717 92.32603702415403 463.6734693877551 91.94871517976094 470.2040816326531 94.82698278226985 476.7346938775511 100.16778580990976 483.2653061224489 105.53528105364703 489.7959183673469 111.94695952677776 496.3265306122449 109.83971538239706 502.85714285714283 111.13987885473125 509.38775510204084 110.7207794996844 515.9183673469388 109.2487986102714 522.4489795918367 112.652413050105 528.9795918367347 118.55136920338171 535.5102040816327 120.76668981818392 542.0408163265306 116.60387107484178 548.5714285714286 118.1369034677816 555.1020408163265 124.27351892125671 561.6326530612245 125.18821318458944 568.1632653061224 125.30815413645672 574.6938775510204 128.18839155335485 581.2244897959183 127.44541931855076 587.7551020408164 127.64971768865095 594.2857142857143 127.58753710038837 600.8163265306123 128.96750227964344 607.3469387755102 127.49639521803323 613.8775510204082 116.37771386948566 620.4081632653061 115.57877327366896 626.9387755102041 119.63575159486822 633.469387755102 125.72667608869051 640 127.37576885001823 640 320 0 320"
      />
      
      <polygon
        fill="#fd2fdb"
        fillRule="evenodd"
        points="0 313.695787374876 6.530612244897958 305.07507271611877 13.061224489795917 298.52241805713 19.591836734693878 288.3920287244278 26.122448979591834 281.7296634486229 32.6530612244898 277.85566820194583 39.183673469387756 270.54540433436705 45.71428571428571 260.80006238656097 52.24489795918367 251.72752290045057 58.775510204081634 237.7908906351257 65.3061224489796 230.20545959236662 71.83673469387755 218.60516223353034 78.36734693877551 212.8050422269543 84.89795918367348 207.8410875437527 91.42857142857142 198.66402080840984 97.9591836734694 187.99615921979162 104.48979591836734 176.3318698622701 111.0204081632653 173.60370402012245 117.55102040816327 169.25190992309032 124.08163265306122 163.42151886528373 130.6122448979592 159.99362686154092 137.14285714285714 149.2161217118198 143.6734693877551 151.830779185562 150.20408163265307 137.94819777072777 156.73469387755102 126.07798630843135 163.26530612244898 120.3902741386616 169.79591836734696 110.04941124584494 176.32653061224488 101.46189358343506 182.85714285714283 97.89513144794427 189.3877551020408 94.07411651983261 195.9183673469388 90.75095248035461 202.44897959183675 78.8114102707757 208.97959183673467 68.97426193216279 215.51020408163265 67.69006539213387 222.0408163265306 62.45189087037852 228.57142857142858 64.65295985990491 235.10204081632654 62.99324093989833 241.63265306122446 55.15039489641572 248.16326530612244 51.13644126757441 254.69387755102042 51.4329936815721 261.2244897959184 56.84649110618636 267.7551020408163 53.86531672480328 274.2857142857143 56.57872160698696 280.81632653061223 58.328088857391776 287.3469387755102 59.074829909542984 293.8775510204082 60.50802940548601 300.40816326530614 63.234650272082774 306.9387755102041 64.55872780399051 313.46938775510205 57.477712369250526 320 57.73497368230733 326.53061224489795 54.73624325518091 333.0612244897959 52.00283278801072 339.5918367346939 46.2456334634561 346.12244897959187 47.980695044310664 352.65306122448976 44.48723031441608 359.1836734693877 43.227857955077354 365.71428571428567 45.24056988661482 372.2448979591837 52.03946202579709 378.7755102040816 53.999778933421226 385.3061224489796 57.76582001319406 391.8367346938776 61.18716557912143 398.36734693877554 60.488832180923964 404.8979591836735 64.83669472216769 411.42857142857144 67.95887636489232 417.95918367346934 73.26834622196048 424.48979591836735 78.59592241882831 431.0204081632653 82.21960598632106 437.55102040816325 76.54581685136466 444.0816326530612 79.94680653350656 450.61224489795916 86.83921735075742 457.14285714285717 93.25899571796313 463.6734693877551 92.85410078214139 470.2040816326531 95.70473210096961 476.7346938775511 101.01874223030097 483.2653061224489 106.36108788253469 489.7959183673469 112.74755912049807 496.3265306122449 110.61665374196218 502.85714285714283 111.89310159370388 509.38775510204084 111.45101056494283 515.9183673469388 109.95886678499187 522.4489795918367 113.34080680644675 528.9795918367347 119.21941785972149 535.5102040816327 121.41434666363111 542.0408163265306 117.23238676112572 548.5714285714286 118.74623408913124 555.1020408163265 124.86425005920663 561.6326530612245 125.76148554662578 568.1632653061224 125.86392773164545 574.6938775510204 128.72773951971084 581.2244897959183 127.9683040078771 587.7551020408164 128.15664161806518 594.2857142857143 128.0804640487517 600.8163265306123 129.4453829164935 607.3469387755102 127.96015236602665 613.8775510204082 116.82731505910752 620.4081632653061 116.01508675618572 626.9387755102041 120.05874686332112 633.469387755102 126.13675966962515 640 127.78300999208523 640 320 0 320"
      />
      
      <polygon
        fill="#4F5D95"
        fillRule="evenodd"
        points="0 313.695787374876 6.530612244897958 305.07507271611877 13.061224489795917 298.52241805713 19.591836734693878 288.3920287244278 26.122448979591834 281.7296634486229 32.6530612244898 277.85566820194583 39.183673469387756 270.54540433436705 45.71428571428571 260.80006238656097 52.24489795918367 251.72752290045057 58.775510204081634 237.7908906351257 65.3061224489796 230.20545959236662 71.83673469387755 218.60516223353034 78.36734693877551 212.8050422269543 84.89795918367348 207.8410875437527 91.42857142857142 198.66402080840984 97.9591836734694 187.99615921979162 104.48979591836734 176.3318698622701 111.0204081632653 173.60370402012245 117.55102040816327 169.25190992309032 124.08163265306122 163.42151886528373 130.6122448979592 159.99362686154092 137.14285714285714 149.2161217118198 143.6734693877551 151.830779185562 150.20408163265307 137.94819777072777 156.73469387755102 126.07798630843135 163.26530612244898 120.3902741386616 169.79591836734696 110.04941124584494 176.32653061224488 101.46189358343506 182.85714285714283 97.89513144794427 189.3877551020408 94.07411651983261 195.9183673469388 90.75095248035461 202.44897959183675 78.8114102707757 208.97959183673467 68.97426193216279 215.51020408163265 67.69006539213387 222.0408163265306 62.45189087037852 228.57142857142858 64.67258693563247 235.10204081632654 63.012268909921886 241.63265306122446 55.16884204847025 248.16326530612244 51.15434322359471 254.69387755102042 51.450349192098315 261.2244897959184 56.86333368366246 267.7551020408163 53.8816451916955 274.2857142857143 56.59455165655169 280.81632653061223 58.34348181385616 287.3469387755102 59.0897530043851 293.8775510204082 60.52251145642782 300.40816326530614 63.24869026702066 306.9387755102041 64.57235285496932 313.46938775510205 57.49092152273522 320 57.74777963428909 326.53061224489795 54.7486707338669 333.0612244897959 52.014880925149725 339.5918367346939 46.25732552407186 346.12244897959187 47.992030211527776 352.65306122448976 44.498219482475974 359.1836734693877 43.23854369398009 365.71428571428567 45.250929449718456 372.2448979591837 52.049515416788836 378.7755102040816 54.00952545102109 385.3061224489796 57.7752784773906 391.8367346938776 61.19633532973529 398.36734693877554 60.49772202993489 404.8979591836735 64.8453218362904 411.42857142857144 67.9672401414885 417.95918367346934 73.27646281153119 424.48979591836735 78.60379125367075 431.0204081632653 82.22723462998275 437.55102040816325 76.55322744168404 444.0816326530612 79.95399091919688 450.61224489795916 86.8461894053437 457.14285714285717 93.26575495501913 463.6734693877551 92.86066025338454 470.2040816326531 95.71109134823044 476.7346938775511 101.0249073654519 483.2653061224489 106.36707081037937 489.7959183673469 112.75335942294015 496.3265306122449 110.6222826196485 502.85714285714283 111.89855865309573 509.38775510204084 111.4563010504834 515.9183673469388 109.96401119182931 522.4489795918367 113.34579418290139 528.9795918367347 119.22425783701186 535.5102040816327 121.41903890360157 542.0408163265306 117.23694032431217 548.5714285714286 118.7506486573119 555.1020408163265 124.86852987520172 561.6326530612245 125.76563887495439 568.1632653061224 125.86795428234251 574.6938775510204 128.73164706758106 581.2244897959183 127.97209228001213 587.7551020408164 128.16031425557182 594.2857142857143 128.08403527872326 600.8163265306123 129.44884513674793 607.3469387755102 127.96351226209867 613.8775510204082 116.83057239641525 620.4081632653061 116.01824782456728 626.9387755102041 120.06181144175784 633.469387755102 126.13973070359518 640 127.785960432882 640 320 0 320"
      />
      
      <polygon
        fill="#755462"
        fillRule="evenodd"
        points="0 318.0212235520712 6.530612244897958 313.5273631619401 13.061224489795917 310.89612023948115 19.591836734693878 304.6063539693829 26.122448979591834 301.5123544634698 32.6530612244898 299.63474116996156 39.183673469387756 295.6873274837701 45.71428571428571 289.60723787201823 52.24489795918367 284.85402649250796 58.775510204081634 274.4470925039915 65.3061224489796 270.1967779503947 71.83673469387755 262.95236464526283 78.36734693877551 259.7806045970356 84.89795918367348 257.29396497732563 91.42857142857142 251.48855526550494 97.9591836734694 243.11572324019306 104.48979591836734 233.69075767774814 111.0204081632653 232.44224612091412 117.55102040816327 230.4871029484222 124.08163265306122 226.74329949901912 130.6122448979592 225.0261265616838 137.14285714285714 216.76213484688913 143.6734693877551 218.7515075565745 150.20408163265307 208.35859752141155 156.73469387755102 198.352512280334 163.26530612244898 194.3475984767815 169.79591836734696 186.11865455150388 176.32653061224488 178.6989214846305 182.85714285714283 176.47494743690328 189.3877551020408 173.87228529110018 195.9183673469388 171.38694776058517 202.44897959183675 162.65605122493997 208.97959183673467 154.12864707767082 215.51020408163265 153.54789435593142 222.0408163265306 149.77116447577095 228.57142857142858 151.99183588063391 235.10204081632654 150.24039771018917 241.63265306122446 143.46417495704355 248.16326530612244 140.69799026202176 254.69387755102042 142.9292954227107 261.2244897959184 147.05368920082506 267.7551020408163 144.44710888879843 274.2857142857143 147.14063639639608 280.81632653061223 149.53417581665252 287.3469387755102 150.7908862753323 293.8775510204082 152.38210828985711 300.40816326530614 155.0354670208681 306.9387755102041 154.49045149042638 313.46938775510205 148.88678997862726 320 148.9629048919495 326.53061224489795 145.90462441084608 333.0612244897959 141.78896904228156 339.5918367346939 137.45870569630029 346.12244897959187 139.37104123514075 352.65306122448976 135.06394725126586 359.1836734693877 134.18786384472955 365.71428571428567 137.09702471907684 372.2448979591837 142.45235411042893 378.7755102040816 144.3991317898587 385.3061224489796 146.9757453496045 391.8367346938776 149.82602717715875 398.36734693877554 149.06455043064167 404.8979591836735 151.71932742183955 411.42857142857144 154.19237946408984 417.95918367346934 158.30295300423063 424.48979591836735 162.42160375746278 431.0204081632653 164.48546235614177 437.55102040816325 158.22327401707398 444.0816326530612 161.34783084025653 450.61224489795916 165.87472792391821 457.14285714285717 170.07071739320133 463.6734693877551 168.56365667960142 470.2040816326531 169.21374589243945 476.7346938775511 173.47275170286346 483.2653061224489 177.15376141225505 489.7959183673469 181.4936136430207 496.3265306122449 177.55139141353487 502.85714285714283 179.11017688624466 509.38775510204084 179.84334654534533 515.9183673469388 178.85214555658902 522.4489795918367 181.19126974852753 528.9795918367347 185.21845421761233 535.5102040816327 189.1942600978259 542.0408163265306 186.2690399966803 548.5714285714286 186.94213725156698 555.1020408163265 190.98323953157234 561.6326530612245 194.3043930401978 568.1632653061224 196.59011275104396 574.6938775510204 200.19845275786304 581.2244897959183 201.59017183931556 587.7551020408164 203.64796998250443 594.2857142857143 205.75046737573686 600.8163265306123 209.18371376687492 607.3469387755102 208.11711946893757 613.8775510204082 198.63917954372 620.4081632653061 199.1612862696365 626.9387755102041 200.6716769826944 633.469387755102 204.29368331787674 640 205.45068274278646 640 320 0 320"
      />
      
      <polygon
        fill="#2415b9"
        fillRule="evenodd"
        points="0 318.0212235520712 6.530612244897958 313.5273631619401 13.061224489795917 310.89612023948115 19.591836734693878 304.6063539693829 26.122448979591834 301.5123544634698 32.6530612244898 299.63474116996156 39.183673469387756 295.6873274837701 45.71428571428571 289.60723787201823 52.24489795918367 284.85402649250796 58.775510204081634 274.4470925039915 65.3061224489796 270.1967779503947 71.83673469387755 262.95236464526283 78.36734693877551 259.7806045970356 84.89795918367348 257.29396497732563 91.42857142857142 251.48855526550494 97.9591836734694 243.11572324019306 104.48979591836734 233.69075767774814 111.0204081632653 232.44224612091412 117.55102040816327 230.4871029484222 124.08163265306122 226.74329949901912 130.6122448979592 225.0261265616838 137.14285714285714 216.76213484688913 143.6734693877551 218.7515075565745 150.20408163265307 208.35859752141155 156.73469387755102 198.352512280334 163.26530612244898 194.3475984767815 169.79591836734696 186.11865455150388 176.32653061224488 178.6989214846305 182.85714285714283 176.47494743690328 189.3877551020408 173.87228529110018 195.9183673469388 171.38694776058517 202.44897959183675 162.65605122493997 208.97959183673467 154.12864707767082 215.51020408163265 153.54789435593142 222.0408163265306 149.77116447577095 228.57142857142858 151.99183588063391 235.10204081632654 150.24039771018917 241.63265306122446 143.46417495704355 248.16326530612244 140.69799026202176 254.69387755102042 142.9292954227107 261.2244897959184 147.05368920082506 267.7551020408163 144.44710888879843 274.2857142857143 147.14063639639608 280.81632653061223 149.53417581665252 287.3469387755102 150.7908862753323 293.8775510204082 152.38210828985711 300.40816326530614 155.0354670208681 306.9387755102041 154.49045149042638 313.46938775510205 148.88678997862726 320 148.9629048919495 326.53061224489795 145.90462441084608 333.0612244897959 142.14859974432238 339.5918367346939 137.81833639834107 346.12244897959187 139.7306719371815 352.65306122448976 135.42357795330668 359.1836734693877 134.54749454677034 365.71428571428567 137.45665542111763 372.2448979591837 142.81198481246972 378.7755102040816 144.7587624918995 385.3061224489796 147.33537605164528 391.8367346938776 150.18565787919954 398.36734693877554 149.42418113268243 404.8979591836735 152.07895812388034 411.42857142857144 154.55201016613063 417.95918367346934 158.6625837062714 424.48979591836735 162.78123445950354 431.0204081632653 164.84509305818256 437.55102040816325 158.58290471911477 444.0816326530612 161.7074615422973 450.61224489795916 166.234358625959 457.14285714285717 170.43034809524212 463.6734693877551 168.9232873816422 470.2040816326531 169.57337659448024 476.7346938775511 173.83238240490425 483.2653061224489 177.51339211429584 489.7959183673469 181.85324434506146 496.3265306122449 177.91102211557563 502.85714285714283 179.46980758828542 509.38775510204084 180.20297724738612 515.9183673469388 179.2117762586298 522.4489795918367 181.55090045056832 528.9795918367347 185.57808491965312 535.5102040816327 189.55389079986668 542.0408163265306 186.6286706987211 548.5714285714286 187.30176795360777 555.1020408163265 191.34287023361313 561.6326530612245 194.66402374223858 568.1632653061224 196.94974345308475 574.6938775510204 200.5580834599038 581.2244897959183 201.94980254135635 587.7551020408164 204.00760068454522 594.2857142857143 206.11009807777765 600.8163265306123 209.54334446891568 607.3469387755102 208.47675017097836 613.8775510204082 198.99881024576075 620.4081632653061 199.52091697167725 626.9387755102041 201.03130768473522 633.469387755102 204.6533140199175 640 205.45068274278646 640 320 0 320"
      />
      
      <polygon
        fill="#f1e05a"
        fillRule="evenodd"
        points="0 318.0212235520712 6.530612244897958 313.5273631619401 13.061224489795917 310.89612023948115 19.591836734693878 304.6063539693829 26.122448979591834 301.5123544634698 32.6530612244898 299.63474116996156 39.183673469387756 295.6873274837701 45.71428571428571 289.60723787201823 52.24489795918367 284.85402649250796 58.775510204081634 275.55859746344936 65.3061224489796 271.2743548356638 71.83673469387755 264.3815253414872 78.36734693877551 261.6232583993035 84.89795918367348 259.09162281367054 91.42857142857142 253.23308424172754 97.9591836734694 246.00806929336184 104.48979591836734 237.61106678654556 111.0204081632653 236.28993017272188 117.55102040816327 234.2173384973026 124.08163265306122 230.51371812751296 130.6122448979592 228.68145514539427 137.14285714285714 222.6032931862639 143.6734693877551 224.41436818649146 150.20408163265307 213.85409527024535 156.73469387755102 203.68026337074974 163.26530612244898 199.51272353621818 169.79591836734696 191.1311258310741 176.32653061224488 184.6745719451637 182.85714285714283 182.27399045227833 189.3877551020408 179.49431601989818 195.9183673469388 176.83736991098334 202.44897959183675 169.27906469208645 208.97959183673467 161.9143461935087 215.51020408163265 161.10349085693085 222.0408163265306 157.6519765619003 228.57142857142858 159.7498833000467 235.10204081632654 157.76163509391563 241.63265306122446 151.8856039510483 248.16326530612244 148.8705311773396 254.69387755102042 150.85237490525094 261.2244897959184 154.7426038856199 267.7551020408163 153.00428511511177 274.2857142857143 155.44764939630468 280.81632653061223 157.61181943734843 287.3469387755102 159.39921534518766 293.8775510204082 161.38424530864262 300.40816326530614 163.76281844035458 306.9387755102041 164.08007464796148 313.46938775510205 158.18369367851716 320 157.97602811492422 326.53061224489795 154.6513660902703 333.0612244897959 150.6283526180678 339.5918367346939 146.04747393851346 346.12244897959187 147.70862078969026 352.65306122448976 144.26942614784113 359.1836734693877 143.14909595370682 365.71428571428567 145.7956981588663 372.2448979591837 150.90457263010984 378.7755102040816 152.60432717292184 385.3061224489796 154.94907037880128 391.8367346938776 157.56694754401758 398.36734693877554 156.5801621626719 404.8979591836735 159.02344753061368 411.42857142857144 161.28452234540845 417.95918367346934 165.1961204382404 424.48979591836735 169.11533808840744 431.0204081632653 170.98585244006182 437.55102040816325 165.6690249164421 444.0816326530612 168.5772818538822 450.61224489795916 172.90114582839973 457.14285714285717 176.89363466862608 463.6734693877551 175.19555456636277 470.2040816326531 175.65418718235532 476.7346938775511 179.7275793673258 483.2653061224489 183.23435868774803 489.7959183673469 187.3995836000009 496.3265306122449 183.2934398469956 502.85714285714283 184.68793091052365 509.38775510204084 185.261820542697 515.9183673469388 184.13093724249035 522.4489795918367 186.31990616317697 528.9795918367347 190.20614540053745 535.5102040816327 194.0406822786433 542.0408163265306 190.98285832302818 548.5714285714286 191.52304614010023 555.1020408163265 195.43529602761652 561.6326530612245 198.63549956604794 568.1632653061224 200.79999187730132 574.6938775510204 204.29454123643927 581.2244897959183 205.5722067287917 587.7551020408164 207.51943250807625 594.2857142857143 209.52496318887557 600.8163265306123 212.85397267605964 607.3469387755102 211.6895346805344 613.8775510204082 202.113526031661 620.4081632653061 202.54357890878916 626.9387755102041 203.96170523497062 633.469387755102 207.49426206415714 640 208.2719390538084 640 320 0 320"
      />
      
      <polygon
        fill="#22e8e8"
        fillRule="evenodd"
        points="0 319.9256742391452 6.530612244897958 319.8564689516019 13.061224489795917 319.82723286615595 19.591836734693878 318.66030257848973 26.122448979591834 318.547529593219 32.6530612244898 318.40759739360834 39.183673469387756 318.269544175844 45.71428571428571 316.0115346566923 52.24489795918367 316.01949777437466 58.775510204081634 310.2711978084942 65.3061224489796 309.37986843375404 71.83673469387755 306.9369304587953 78.36734693877551 307.0222634776481 84.89795918367348 306.27910117123633 91.42857142857142 304.58411101596494 97.9591836734694 300.1562975029747 104.48979591836734 294.7536418723275 111.0204081632653 293.4787743171121 117.55102040816327 293.78095363432084 124.08163265306122 290.8838503245745 130.6122448979592 291.25492032438837 137.14285714285714 286.9785307878407 143.6734693877551 287.29591357517955 150.20408163265307 280.08961823714327 156.73469387755102 272.35651360103 163.26530612244898 270.6873488039015 169.79591836734696 264.64102847520365 176.32653061224488 259.7160235849114 182.85714285714283 258.4820995021907 189.3877551020408 256.4976065701255 195.9183673469388 254.70956214537884 202.44897959183675 249.75800410715436 208.97959183673467 243.8433063240421 215.51020408163265 243.32678816675883 222.0408163265306 241.8302623310922 228.57142857142858 242.76852137521485 235.10204081632654 241.70745557730834 241.63265306122446 237.2178151760363 248.16326530612244 234.04434665592078 254.69387755102042 235.73028624219296 261.2244897959184 237.40440918560913 267.7551020408163 235.5604925658189 274.2857142857143 237.00505552575027 280.81632653061223 238.39934254509313 287.3469387755102 240.81755844725183 293.8775510204082 242.54146364050382 300.40816326530614 244.5916888036711 306.9387755102041 243.7603564751001 313.46938775510205 239.79403744730314 320 239.82809303626357 326.53061224489795 237.43527115118383 333.0612244897959 235.72254996928228 339.5918367346939 231.99173654523952 346.12244897959187 232.20069462157562 352.65306122448976 229.58695005495778 359.1836734693877 229.00005186103024 365.71428571428567 230.61534315697995 372.2448979591837 233.2473094611833 378.7755102040816 234.38583871561855 385.3061224489796 235.44975203859826 391.8367346938776 235.98078471633812 398.36734693877554 235.02388978391355 404.8979591836735 236.27273575619984 411.42857142857144 237.10992267737194 417.95918367346934 239.1760645200024 424.48979591836735 241.04014272538495 431.0204081632653 242.01071720825246 437.55102040816325 236.8473184172863 444.0816326530612 238.18584899129584 450.61224489795916 240.60234063891602 457.14285714285717 242.69849062218356 463.6734693877551 240.20792830490316 470.2040816326531 240.05519386500782 476.7346938775511 242.49386722607497 483.2653061224489 244.47758689047978 489.7959183673469 246.78129547289433 496.3265306122449 243.48880693560966 502.85714285714283 244.0437411527398 509.38775510204084 246.204937952092 515.9183673469388 246.89559854295 522.4489795918367 247.99729082457526 528.9795918367347 250.11822213750736 535.5102040816327 252.23281388042395 542.0408163265306 249.58178362463156 548.5714285714286 249.44272152201478 555.1020408163265 251.5948668276031 561.6326530612245 253.6150501064983 568.1632653061224 254.42276880574389 574.6938775510204 256.3401320331747 581.2244897959183 257.1593403065655 587.7551020408164 258.9193957732148 594.2857142857143 259.9453766779909 600.8163265306123 261.7459279385618 607.3469387755102 260.11288908324485 613.8775510204082 252.9837614928238 620.4081632653061 252.93432903008392 626.9387755102041 253.28997782290045 633.469387755102 255.32468716331522 640 255.82398738422847 640 320 0 320"
      />
      
      <polygon
        fill="#22e4e8"
        fillRule="evenodd"
        points="0 319.9256742391452 6.530612244897958 319.8564689516019 13.061224489795917 319.82723286615595 19.591836734693878 318.66030257848973 26.122448979591834 318.547529593219 32.6530612244898 318.40759739360834 39.183673469387756 318.269544175844 45.71428571428571 316.0115346566923 52.24489795918367 316.01949777437466 58.775510204081634 310.2711978084942 65.3061224489796 309.37986843375404 71.83673469387755 306.9369304587953 78.36734693877551 307.0222634776481 84.89795918367348 306.27910117123633 91.42857142857142 304.58411101596494 97.9591836734694 300.1562975029747 104.48979591836734 294.7536418723275 111.0204081632653 293.4787743171121 117.55102040816327 293.78095363432084 124.08163265306122 290.8838503245745 130.6122448979592 291.25492032438837 137.14285714285714 286.9785307878407 143.6734693877551 287.29591357517955 150.20408163265307 280.08961823714327 156.73469387755102 272.35651360103 163.26530612244898 270.6873488039015 169.79591836734696 264.64102847520365 176.32653061224488 259.7160235849114 182.85714285714283 258.4820995021907 189.3877551020408 256.4976065701255 195.9183673469388 254.70956214537884 202.44897959183675 249.75800410715436 208.97959183673467 243.8433063240421 215.51020408163265 243.32678816675883 222.0408163265306 241.8302623310922 228.57142857142858 242.76852137521485 235.10204081632654 241.70745557730834 241.63265306122446 237.2178151760363 248.16326530612244 234.04434665592078 254.69387755102042 235.73028624219296 261.2244897959184 237.40440918560913 267.7551020408163 235.5604925658189 274.2857142857143 237.00505552575027 280.81632653061223 238.39934254509313 287.3469387755102 240.81755844725183 293.8775510204082 242.54146364050382 300.40816326530614 244.5916888036711 306.9387755102041 243.7603564751001 313.46938775510205 239.79403744730314 320 239.82809303626357 326.53061224489795 237.43527115118383 333.0612244897959 235.77392578385954 339.5918367346939 232.04311235981677 346.12244897959187 232.25207043615285 352.65306122448976 229.63832586953504 359.1836734693877 229.0514276756075 365.71428571428567 230.6667189715572 372.2448979591837 233.29868527576053 378.7755102040816 234.43721453019577 385.3061224489796 235.50112785317555 391.8367346938776 236.0321605309154 398.36734693877554 235.07526559849083 404.8979591836735 236.32411157077706 411.42857142857144 237.1612984919492 417.95918367346934 239.22744033457965 424.48979591836735 241.0915185399622 431.0204081632653 242.06209302282974 437.55102040816325 236.89869423186354 444.0816326530612 238.2372248058731 450.61224489795916 240.65371645349325 457.14285714285717 242.74986643676078 463.6734693877551 240.25930411948042 470.2040816326531 240.1065696795851 476.7346938775511 242.54524304065222 483.2653061224489 244.52896270505704 489.7959183673469 246.83267128747158 496.3265306122449 243.54018275018691 502.85714285714283 244.09511696731707 509.38775510204084 246.25631376666925 515.9183673469388 246.94697435752727 522.4489795918367 248.0486666391525 528.9795918367347 250.16959795208464 535.5102040816327 252.2841896950012 542.0408163265306 249.63315943920878 548.5714285714286 249.49409733659206 555.1020408163265 251.64624264218037 561.6326530612245 253.66642592107553 568.1632653061224 254.4741446203211 574.6938775510204 256.39150784775194 581.2244897959183 257.2107161211428 587.7551020408164 258.97077158779206 594.2857142857143 259.9967524925682 600.8163265306123 261.7973037531391 607.3469387755102 260.1642648978221 613.8775510204082 253.03513730740104 620.4081632653061 252.98570484466117 626.9387755102041 253.3413536374777 633.469387755102 255.37606297789247 640 255.82398738422847 640 320 0 320"
      />
      
      <polygon
        fill="#e34c26"
        fillRule="evenodd"
        points="0 319.9256742391452 6.530612244897958 319.8564689516019 13.061224489795917 319.82723286615595 19.591836734693878 318.66030257848973 26.122448979591834 318.63876198383286 32.6530612244898 318.51260238654055 39.183673469387756 318.3713439519241 45.71428571428571 316.11052357256295 52.24489795918367 316.20707403814635 58.775510204081634 311.6486204906485 65.3061224489796 310.75104381685577 71.83673469387755 308.2675814213715 78.36734693877551 308.31229702947445 84.89795918367348 307.5297573189734 91.42857142857142 305.7978046284012 97.9591836734694 302.0857642044343 104.48979591836734 297.7266026409141 111.0204081632653 296.3609865936071 117.55102040816327 296.57518852741094 124.08163265306122 294.7043949995802 130.6122448979592 294.975285038014 137.14285714285714 291.7197319096001 143.6734693877551 292.19421936912545 150.20408163265307 288.11678039344207 156.73469387755102 282.4760334862191 163.26530612244898 280.50908583666404 169.79591836734696 276.09419155316164 176.32653061224488 271.3320767655354 182.85714285714283 270.33207087665016 189.3877551020408 269.0819859663202 195.9183673469388 268.3241149902485 202.44897959183675 264.11123327643435 208.97959183673467 258.73413612712363 215.51020408163265 258.8780098830305 222.0408163265306 257.33905892720225 228.57142857142858 258.037255230066 235.10204081632654 256.52382332977425 241.63265306122446 252.72246163384477 248.16326530612244 250.19333111238024 254.69387755102042 252.19005430370942 261.2244897959184 254.18866894702813 267.7551020408163 252.86779202767195 274.2857142857143 253.80097245949682 280.81632653061223 254.9077234298789 287.3469387755102 256.8330500421463 293.8775510204082 258.5828989942436 300.40816326530614 260.4520850344872 306.9387755102041 259.9720831313539 313.46938775510205 257.8643766723553 320 257.5420690610821 326.53061224489795 255.72563449477718 333.0612244897959 254.32300642698473 339.5918367346939 252.44398286356454 346.12244897959187 252.3016752479893 352.65306122448976 249.89595751969253 359.1836734693877 249.60729901193483 365.71428571428567 250.63984471829764 372.2448979591837 252.68974975876426 378.7755102040816 254.04376972986236 385.3061224489796 254.88132121381472 391.8367346938776 255.7653458108357 398.36734693877554 254.20610233301412 404.8979591836735 254.90084575985662 411.42857142857144 255.17098959540925 417.95918367346934 256.7048564211772 424.48979591836735 258.10510863497484 431.0204081632653 258.55635377873705 437.55102040816325 255.169441261935 444.0816326530612 257.1207034334676 450.61224489795916 258.9790934422373 457.14285714285717 260.51588924429495 463.6734693877551 258.60052951950524 470.2040816326531 258.02056613578094 476.7346938775511 259.91243231707426 483.2653061224489 261.38287368581473 489.7959183673469 263.1721305489599 496.3265306122449 261.82042300327595 502.85714285714283 263.5575917775506 509.38775510204084 265.2078417157039 515.9183673469388 265.57697088109535 522.4489795918367 267.2215195423534 528.9795918367347 268.7758085010197 535.5102040816327 270.3393977151441 542.0408163265306 268.43863930511213 548.5714285714286 268.96360138577603 555.1020408163265 270.5214528461768 561.6326530612245 271.98378725522923 568.1632653061224 273.4494379936629 574.6938775510204 274.8252251267602 581.2244897959183 276.2041595422585 587.7551020408164 277.54099954371355 594.2857142857143 278.71336247441576 600.8163265306123 279.9736117608546 607.3469387755102 278.9297291692675 613.8775510204082 275.7239166865548 620.4081632653061 277.0324805802096 626.9387755102041 278.28627725340056 633.469387755102 279.5595631137428 640 279.8398574847599 640 320 0 320"
      />
      
      <polygon
        fill="#00ADD8"
        fillRule="evenodd"
        points="0 319.9256742391452 6.530612244897958 319.8564689516019 13.061224489795917 319.82723286615595 19.591836734693878 318.66030257848973 26.122448979591834 318.63876198383286 32.6530612244898 318.5153621579207 39.183673469387756 318.3740194828949 45.71428571428571 316.6121795287021 52.24489795918367 316.69341722724744 58.775510204081634 313.13944120650893 65.3061224489796 312.19635799394786 71.83673469387755 310.8820277816165 78.36734693877551 310.86396193880273 84.89795918367348 310.00353382186023 91.42857142857142 308.6617032765287 97.9591836734694 305.8714445324065 104.48979591836734 303.7931557209826 111.0204081632653 303.02443899192366 117.55102040816327 303.3152885034953 124.08163265306122 302.49017981027674 130.6122448979592 302.9132367913581 137.14285714285714 300.975681892658 143.6734693877551 301.55638782130546 150.20408163265307 299.6311495343385 156.73469387755102 295.8211818346086 163.26530612244898 294.0784423499338 169.79591836734696 290.7161295903925 176.32653061224488 287.7123756895475 182.85714285714283 287.3467994597138 189.3877551020408 286.11582224234144 195.9183673469388 284.9373045918045 202.44897959183675 282.3765139198348 208.97959183673467 277.9438429571534 215.51020408163265 278.07964351755754 222.0408163265306 276.0328097541118 228.57142857142858 276.2116643876748 235.10204081632654 274.1490198919707 241.63265306122446 270.30470801505464 248.16326530612244 268.0869447279007 254.69387755102042 269.66605652788985 261.2244897959184 271.1481788045842 267.7551020408163 270.41253406424045 274.2857142857143 270.8101709498794 280.81632653061223 272.1628826050338 287.3469387755102 273.56150025619 293.8775510204082 274.92286173871474 300.40816326530614 276.2932882884935 306.9387755102041 276.4643402304927 313.46938775510205 274.6332493773084 320 273.7990804153369 326.53061224489795 272.0443502573718 333.0612244897959 270.1436090068619 339.5918367346939 268.24946862376044 346.12244897959187 268.7285843660185 352.65306122448976 266.93230812807917 359.1836734693877 266.17324546943814 365.71428571428567 266.7001267758569 372.2448979591837 268.2753799130909 378.7755102040816 269.77298603828575 385.3061224489796 270.1456644915521 391.8367346938776 271.63099470493415 398.36734693877554 270.8758731466803 404.8979591836735 271.2113845478031 411.42857142857144 272.69782613308126 417.95918367346934 274.0958111219064 424.48979591836735 275.46913213370266 431.0204081632653 275.7089771031587 437.55102040816325 272.95247871174087 444.0816326530612 274.36092046671087 450.61224489795916 275.709788779378 457.14285714285717 277.0616891898699 463.6734693877551 276.4936088265541 470.2040816326531 276.69946318717996 476.7346938775511 278.02116571587635 483.2653061224489 279.09847010382504 489.7959183673469 280.3469769957351 496.3265306122449 279.26735473653594 502.85714285714283 280.47749807468165 509.38775510204084 281.61128236163415 515.9183673469388 281.52748029067993 522.4489795918367 282.68515679745 528.9795918367347 283.78242192238145 535.5102040816327 284.88794540125133 542.0408163265306 282.6100854296734 548.5714285714286 282.8417676453068 555.1020408163265 283.97599879909455 561.6326530612245 285.0406833758027 568.1632653061224 286.1077852051371 574.6938775510204 287.1094577665479 581.2244897959183 288.1134263131122 587.7551020408164 289.0867387569908 594.2857142857143 289.94030756562717 600.8163265306123 290.85786372857507 607.3469387755102 291.7191412213096 613.8775510204082 290.3472264580348 620.4081632653061 291.2236067243029 626.9387755102041 292.1019818250846 633.469387755102 292.9535523940183 640 293.1410055305128 640 320 0 320"
      />
      
      <polygon
        fill="#244776"
        fillRule="evenodd"
        points="0 319.9256742391452 6.530612244897958 319.8564689516019 13.061224489795917 319.82723286615595 19.591836734693878 318.66030257848973 26.122448979591834 318.63876198383286 32.6530612244898 318.5153621579207 39.183673469387756 318.3740194828949 45.71428571428571 316.6121795287021 52.24489795918367 316.69341722724744 58.775510204081634 313.13944120650893 65.3061224489796 312.19635799394786 71.83673469387755 310.8820277816165 78.36734693877551 310.86396193880273 84.89795918367348 310.00353382186023 91.42857142857142 308.6617032765287 97.9591836734694 305.8714445324065 104.48979591836734 303.7931557209826 111.0204081632653 303.02443899192366 117.55102040816327 303.3152885034953 124.08163265306122 302.49017981027674 130.6122448979592 302.9132367913581 137.14285714285714 300.975681892658 143.6734693877551 301.55638782130546 150.20408163265307 299.6311495343385 156.73469387755102 295.8211818346086 163.26530612244898 294.0784423499338 169.79591836734696 290.7161295903925 176.32653061224488 287.7123756895475 182.85714285714283 287.3467994597138 189.3877551020408 286.11582224234144 195.9183673469388 284.9373045918045 202.44897959183675 282.3765139198348 208.97959183673467 277.9438429571534 215.51020408163265 278.07964351755754 222.0408163265306 276.0328097541118 228.57142857142858 276.2116643876748 235.10204081632654 274.1490198919707 241.63265306122446 270.30470801505464 248.16326530612244 268.0869447279007 254.69387755102042 269.66605652788985 261.2244897959184 271.1481788045842 267.7551020408163 270.41253406424045 274.2857142857143 270.8101709498794 280.81632653061223 272.1628826050338 287.3469387755102 273.56150025619 293.8775510204082 274.92286173871474 300.40816326530614 276.2932882884935 306.9387755102041 276.4643402304927 313.46938775510205 274.6332493773084 320 273.7990804153369 326.53061224489795 272.0443502573718 333.0612244897959 270.1436090068619 339.5918367346939 268.24946862376044 346.12244897959187 268.7285843660185 352.65306122448976 266.93230812807917 359.1836734693877 266.17324546943814 365.71428571428567 266.7001267758569 372.2448979591837 268.2753799130909 378.7755102040816 269.77298603828575 385.3061224489796 270.1456644915521 391.8367346938776 271.63099470493415 398.36734693877554 270.8758731466803 404.8979591836735 271.2113845478031 411.42857142857144 272.69782613308126 417.95918367346934 274.0958111219064 424.48979591836735 275.46913213370266 431.0204081632653 275.7089771031587 437.55102040816325 272.95247871174087 444.0816326530612 274.36092046671087 450.61224489795916 275.709788779378 457.14285714285717 277.0616891898699 463.6734693877551 276.4936088265541 470.2040816326531 276.69946318717996 476.7346938775511 278.02116571587635 483.2653061224489 279.09847010382504 489.7959183673469 280.3469769957351 496.3265306122449 279.26735473653594 502.85714285714283 280.47749807468165 509.38775510204084 281.61128236163415 515.9183673469388 281.52748029067993 522.4489795918367 282.68515679745 528.9795918367347 283.78242192238145 535.5102040816327 284.88794540125133 542.0408163265306 282.6100854296734 548.5714285714286 282.8417676453068 555.1020408163265 283.97599879909455 561.6326530612245 285.0406833758027 568.1632653061224 286.1077852051371 574.6938775510204 287.1094577665479 581.2244897959183 288.1134263131122 587.7551020408164 289.0867387569908 594.2857142857143 289.94030756562717 600.8163265306123 290.85786372857507 607.3469387755102 291.7191412213096 613.8775510204082 290.40278768554793 620.4081632653061 291.2775258677553 626.9387755102041 292.1542551196566 633.469387755102 293.0042300770365 640 293.19133194681154 640 320 0 320"
      />
      
      <polygon
        fill="#563d7c"
        fillRule="evenodd"
        points="0 319.9256742391452 6.530612244897958 319.8564689516019 13.061224489795917 319.82723286615595 19.591836734693878 318.66030257848973 26.122448979591834 318.63876198383286 32.6530612244898 318.5153621579207 39.183673469387756 318.3740194828949 45.71428571428571 316.6121795287021 52.24489795918367 316.69341722724744 58.775510204081634 314.2496016608993 65.3061224489796 313.2726314748012 71.83673469387755 311.9264925433841 78.36734693877551 311.8765450278279 84.89795918367348 310.9852083988227 91.42857142857142 309.6143650062348 97.9591836734694 306.7950267290488 104.48979591836734 305.7914197757426 111.0204081632653 304.96170721357845 117.55102040816327 305.1934225460619 124.08163265306122 304.31463013392363 130.6122448979592 304.6819969650228 137.14285714285714 303.811827017496 143.6734693877551 304.30596130777707 150.20408163265307 302.29946076462534 156.73469387755102 298.408044520007 163.26530612244898 296.5863424633596 169.79591836734696 293.14991022713417 176.32653061224488 290.07186648740395 182.85714285714283 289.63655683692826 189.3877551020408 288.33568611187565 195.9183673469388 287.0894081802314 202.44897959183675 284.4691944943439 208.97959183673467 279.9726457208628 215.51020408163265 280.04848597908034 222.0408163265306 277.9415544317682 228.57142857142858 278.0639972906574 235.10204081632654 275.9448111422203 241.63265306122446 273.1750706654207 248.16326530612244 271.622302564443 254.69387755102042 273.0934989521544 261.2244897959184 274.4743253847761 267.7551020408163 273.6371519651681 274.2857142857143 273.9363590579264 280.81632653061223 275.20275163821884 287.3469387755102 276.5085789169089 293.8775510204082 277.78284113145145 300.40816326530614 279.06596835582616 306.9387755102041 279.15507556531975 313.46938775510205 277.241851533142 320 276.3280562236734 326.53061224489795 274.498583503145 333.0612244897959 272.5229283003544 339.5918367346939 270.5584682985667 346.12244897959187 270.96710330758384 352.65306122448976 269.1024975445117 359.1836734693877 268.2835123962836 365.71428571428567 268.74597891188864 372.2448979591837 270.2607680584499 378.7755102040816 271.6977713755211 385.3061224489796 272.01356375259354 391.8367346938776 273.44187749796424 398.36734693877554 272.6314798787937 404.8979591836735 272.9151052007489 411.42857142857144 274.3495416177212 417.95918367346934 275.6987109515611 424.48979591836735 277.0231045145996 431.0204081632653 277.2155153247244 437.55102040816325 275.3902833077835 444.0816326530612 276.72431243567144 450.61224489795916 278.0033321431203 457.14285714285717 279.2852234503492 463.6734693877551 278.65142776884943 470.2040816326531 278.7914158691482 476.7346938775511 280.04926257589347 483.2653061224489 281.0666276229879 489.7959183673469 282.2550578978671 496.3265306122449 281.1190431813005 502.85714285714283 282.2726648005293 509.38775510204084 283.3516525684184 515.9183673469388 283.21979623205095 522.4489795918367 284.32581569303477 528.9795918367347 285.3745920159133 535.5102040816327 286.4315154127159 542.0408163265306 284.10803597832927 548.5714285714286 284.293994232747 555.1020408163265 285.3838969979463 561.6326530612245 286.40697168591856 568.1632653061224 287.43236847850847 574.6938775510204 288.3948936967277 581.2244897959183 289.35962509517657 587.7551020408164 290.2948979611775 594.2857142857143 291.1151076313958 600.8163265306123 291.9968035785204 607.3469387755102 292.82442030542956 613.8775510204082 291.4743287346173 620.4081632653061 292.31739814545784 626.9387755102041 293.16238592921474 633.469387755102 293.9815881608098 640 294.16191571842637 640 320 0 320"
      />
      
      <polygon
        fill="#178600"
        fillRule="evenodd"
        points="0 320 6.530612244897958 320 13.061224489795917 320 19.591836734693878 320 26.122448979591834 320 32.6530612244898 320 39.183673469387756 320 45.71428571428571 320 52.24489795918367 320 58.775510204081634 318.73032822476506 65.3061224489796 318.769084300028 71.83673469387755 318.80546340130337 78.36734693877551 318.84192589580096 84.89795918367348 318.8772753846515 91.42857142857142 318.9104569682544 97.9591836734694 318.94371455723734 104.48979591836734 318.974932618858 111.0204081632653 319.0062221956126 117.55102040816327 319.03655666514874 124.08163265306122 319.0640952731307 130.6122448979592 319.0926632674839 137.14285714285714 319.1194790794058 143.6734693877551 319.1463565012044 150.20408163265307 319.17158549916695 156.73469387755102 319.18567750492446 163.26530612244898 319.2105342234594 169.79591836734696 319.2338664777235 176.32653061224488 319.25725222448574 182.85714285714283 319.2792037640083 189.3877551020408 318.19414023063626 195.9183673469388 318.2492630580484 202.44897959183675 318.2976037128024 208.97959183673467 316.13887336355646 215.51020408163265 316.24748419886026 222.0408163265306 316.3620274611242 228.57142857142858 316.4695456458788 235.10204081632654 316.57731096885175 241.63265306122446 316.24155930359444 248.16326530612244 315.6381772103853 254.69387755102042 315.7713192778883 261.2244897959184 315.89629577617404 267.7551020408163 316.0215588487535 274.2857142857143 316.1429984304605 280.81632653061223 316.2494967128192 287.3469387755102 316.36397844740765 293.8775510204082 316.47143939950473 300.40816326530614 316.57914655478044 306.9387755102041 316.68024796194527 313.46938775510205 315.9758105354018 320 316.09864661450064 326.53061224489795 314.3108427621433 333.0612244897959 314.48450092728984 339.5918367346939 313.5209096095423 346.12244897959187 313.71867978024113 352.65306122448976 313.91041360098205 359.1836734693877 312.976121602033 365.71428571428567 313.19052102446807 372.2448979591837 313.3917713620209 378.7755102040816 313.59348431823366 385.3061224489796 313.7828254028871 391.8367346938776 313.9726008084018 398.36734693877554 314.1565841354066 404.8979591836735 314.3292829085917 411.42857142857144 314.50237834416606 417.95918367346934 314.6648578102214 424.48979591836735 314.8277099667108 431.0204081632653 314.98559109185817 437.55102040816325 313.21290112048547 444.0816326530612 313.4200736817617 450.61224489795916 313.61453966832187 457.14285714285717 313.80945231621394 463.6734693877551 313.1987243754594 470.2040816326531 313.4063292128395 476.7346938775511 313.6075973572497 483.2653061224489 313.7965212291881 489.7959183673469 313.9858789185048 496.3265306122449 314.16362289943305 502.85714285714283 314.34177500983236 509.38775510204084 314.5144892985135 515.9183673469388 314.6659531117627 522.4489795918367 314.828772213053 528.9795918367347 314.98160467800255 535.5102040816327 315.13478845077213 542.0408163265306 315.2785770255784 548.5714285714286 315.4226958441207 555.1020408163265 315.5624152489092 561.6326530612245 315.6935657226849 568.1632653061224 315.82501717653287 574.6938775510204 315.9484068300337 581.2244897959183 316.07207915326643 587.7551020408164 316.1919767412747 594.2857142857143 316.2971224114624 600.8163265306123 316.410150888659 607.3469387755102 316.5162467031615 613.8775510204082 316.6225865219577 620.4081632653061 316.7224040783417 626.9387755102041 316.8224507708587 633.469387755102 316.9194436541318 640 316.94079594615306 640 320 0 320"
      />
      
      <polygon
        fill="#555555"
        fillRule="evenodd"
        points="0 320 6.530612244897958 320 13.061224489795917 320 19.591836734693878 320 26.122448979591834 320 32.6530612244898 320 39.183673469387756 320 45.71428571428571 320 52.24489795918367 320 58.775510204081634 318.73032822476506 65.3061224489796 318.769084300028 71.83673469387755 318.80546340130337 78.36734693877551 318.84192589580096 84.89795918367348 318.8772753846515 91.42857142857142 318.9104569682544 97.9591836734694 318.94371455723734 104.48979591836734 318.974932618858 111.0204081632653 319.0062221956126 117.55102040816327 319.03655666514874 124.08163265306122 319.0640952731307 130.6122448979592 319.0926632674839 137.14285714285714 319.1194790794058 143.6734693877551 319.1463565012044 150.20408163265307 319.17158549916695 156.73469387755102 319.18567750492446 163.26530612244898 319.2105342234594 169.79591836734696 319.2338664777235 176.32653061224488 319.25725222448574 182.85714285714283 319.2792037640083 189.3877551020408 318.19414023063626 195.9183673469388 318.2492630580484 202.44897959183675 318.2976037128024 208.97959183673467 317.242848375375 215.51020408163265 317.31883176661194 222.0408163265306 317.4006727816231 228.57142857142858 317.47749443092584 235.10204081632654 317.5544926280778 241.63265306122446 317.18891298689 248.16326530612244 316.5575324105074 254.69387755102042 316.66261167231715 261.2244897959184 316.761246454698 267.7551020408163 316.86010749616617 274.2857142857143 316.95595082503775 280.81632653061223 317.04000217144426 287.3469387755102 317.13035414499893 293.8775510204082 317.2151652883272 300.40816326530614 317.30017063223465 306.9387755102041 317.37996261535784 313.46938775510205 317.4599379073875 320 317.53747182070833 326.53061224489795 316.505708598827 333.0612244897959 316.61236972196764 339.5918367346939 315.5858902971123 346.12244897959187 315.72062820016777 352.65306122448976 315.8512536747695 359.1836734693877 314.8633717691382 365.71428571428567 315.02016410719756 372.2448979591837 315.16734037239155 378.7755102040816 315.31485513227744 385.3061224489796 315.4533219330555 391.8367346938776 315.5921063288442 398.36734693877554 315.7266551278013 404.8979591836735 315.85295136801193 411.42857142857144 315.97953771717226 417.95918367346934 316.0983604820389 424.48979591836735 316.21745575450126 431.0204081632653 316.33291576680057 437.55102040816325 315.5852533397632 444.0816326530612 315.72001117663467 450.61224489795916 315.84650367245695 457.14285714285717 315.97328695538977 463.6734693877551 316.09229450878627 470.2040816326531 316.2115748677582 476.7346938775511 316.3272144282543 483.2653061224489 316.43576124929314 489.7959183673469 316.54455785954246 496.3265306122449 316.6466815734912 502.85714285714283 316.7490395611544 509.38775510204084 316.8482734882848 515.9183673469388 316.93529764482605 522.4489795918367 317.0288462215637 528.9795918367347 317.1166568390745 535.5102040816327 317.20466926078495 542.0408163265306 317.28728372840936 548.5714285714286 317.37008787554123 555.1020408163265 317.4503643325959 561.6326530612245 317.52571738368863 568.1632653061224 317.60124348907516 574.6938775510204 317.67213764349594 581.2244897959183 317.7431942482424 587.7551020408164 317.8120819202248 594.2857142857143 317.872493846647 600.8163265306123 317.9374348696543 607.3469387755102 317.99839271548217 613.8775510204082 318.0594907864584 620.4081632653061 318.11684140276776 626.9387755102041 318.17432384941725 633.469387755102 318.23005157567025 640 318.242319596158 640 320 0 320"
      />
      
      <polygon
        fill="#C1F12E"
        fillRule="evenodd"
        points="0 320 6.530612244897958 320 13.061224489795917 320 19.591836734693878 320 26.122448979591834 320 32.6530612244898 320 39.183673469387756 320 45.71428571428571 320 52.24489795918367 320 58.775510204081634 319.00777426924617 65.3061224489796 319.0380614422074 71.83673469387755 319.0664910712167 78.36734693877551 319.094985844759 84.89795918367348 319.12261082576043 91.42857142857142 319.1485416379004 97.9591836734694 319.17453184048196 104.48979591836734 319.1989282111679 111.0204081632653 319.2233804479147 117.55102040816327 319.2470863071024 124.08163265306122 319.2686072248223 130.6122448979592 319.29093261587235 137.14285714285714 319.3118886770613 143.6734693877551 319.332892908214 150.20408163265307 319.3526089113665 156.73469387755102 319.3611752838636 163.26530612244898 319.3806750359374 169.79591836734696 319.39897887207457 176.32653061224488 319.41732466170197 182.85714285714283 319.4345453518156 189.3877551020408 319.4408446020919 195.9183673469388 319.4579124902578 202.44897959183675 319.4728804433787 208.97959183673467 319.4862106177322 215.51020408163265 319.50139535624027 222.0408163265306 319.5166149892016 228.57142857142858 319.5309011749879 235.10204081632654 319.54522015909424 241.63265306122446 319.3091072623862 248.16326530612244 318.6150655572447 254.69387755102042 318.6573398380147 261.2244897959184 318.6970213869263 267.7551020408163 318.7367941792845 274.2857142857143 318.7753526528894 280.81632653061223 318.8091671865279 287.3469387755102 318.8455166028576 293.8775510204082 318.87963687396854 300.40816326530614 318.9138352363177 306.9387755102041 318.9459362837884 313.46938775510205 318.9781110041772 320 319.0093036244945 326.53061224489795 319.03858300947695 333.0612244897959 319.06792979952814 339.5918367346939 319.09547668929144 346.12244897959187 319.12308666855506 352.65306122448976 319.14985398170796 359.1836734693877 319.1733278996432 365.71428571428567 319.1985615728048 372.2448979591837 319.2222476420287 378.7755102040816 319.24598809769003 385.3061224489796 319.2682725011152 391.8367346938776 319.2906080645765 398.36734693877554 319.3122619018039 404.8979591836735 319.33258761257343 411.42857142857144 319.3529600136833 417.95918367346934 319.37208287278133 424.48979591836735 319.3912497198518 431.0204081632653 319.40983148887074 437.55102040816325 318.57422014062973 444.0816326530612 318.6177412096679 450.61224489795916 318.6585932023871 457.14285714285717 318.69953880184056 463.6734693877551 318.73797335698066 470.2040816326531 318.776495970267 476.7346938775511 318.8138426939093 483.2653061224489 318.8488987754828 489.7959183673469 318.88403572258846 496.3265306122449 318.917017351521 502.85714285714283 318.9500747084042 509.38775510204084 318.9821232497924 515.9183673469388 319.0102283891569 522.4489795918367 319.0404405534288 528.9795918367347 319.0687997975722 535.5102040816327 319.09722418624847 542.0408163265306 319.1239051880329 548.5714285714286 319.1506475325399 555.1020408163265 319.1765736181049 561.6326530612245 319.2009094578061 568.1632653061224 319.22530121494395 574.6938775510204 319.2481971035894 581.2244897959183 319.2711454983173 587.7551020408164 319.29339328106187 594.2857142857143 319.3129037912312 600.8163265306123 319.33387708386834 607.3469387755102 319.3535639158333 613.8775510204082 319.3732961331929 620.4081632653061 319.391817936361 626.9387755102041 319.41038238145524 633.469387755102 319.42838012048924 640 319.43234221303425 640 320 0 320"
      />
      

      
        <g id="labels">
        
          
          <text x="0" y="330">
            Jul 2014
          </text>
          
        
          
        
          
        
          
        
          
        
          
        
          
        
          
        
          
        
          
        
          
        
          
        
          
        
          
          <text x="84.04040404040404" y="330">
            Aug 2015
          </text>
          
        
          
        
          
        
          
        
          
        
          
        
          
        
          
        
          
        
          
        
          
        
          
        
          
        
          
          <text x="168.08080808080808" y="330">
            Sep 2016
          </text>
          
        
          
        
          
        
          
        
          
        
          
        
          
        
          
        
          
        
          
        
          
        
          
        
          
        
          
          <text x="252.12121212121212" y="330">
            Oct 2017
          </text>
          
        
          
        
          
        
          
        
          
        
          
        
          
        
          
        
          
        
          
        
          
        
          
        
          
        
          
          <text x="336.16161616161617" y="330">
            Nov 2018
          </text>
          
        
          
        
          
        
          
        
          
        
          
        
          
        
          
        
          
        
          
        
          
        
          
        
          
        
          
          <text x="420.2020202020202" y="330">
            Dec 2019
          </text>
          
        
          
        
          
        
          
        
          
        
          
        
          
        
          
        
          
        
          
        
          
        
          
        
          
        
          
          <text x="504.24242424242425" y="330">
            Jan 2021
          </text>
          
        
          
        
          
        
          
        
          
        
          
        
          
        
          
        
          
        
          
        
          
        
          
        
          
        
          
          <text x="588.2828282828283" y="330">
            Feb 2022
          </text>
          
        
          
        
          
        
          
        
          
        
          
        
          
        
          
        
        </g>
      

      
        <text text-anchor="middle" y="370" x="320" id="legend">
          
          <tspan xml:space="preserve" fill="#C1F12E">   </tspan> Batchfile
          
          <tspan xml:space="preserve" fill="#555555">   </tspan> C
          
          <tspan xml:space="preserve" fill="#178600">   </tspan> C#
          
          <tspan xml:space="preserve" fill="#563d7c">   </tspan> CSS
          
          <tspan xml:space="preserve" fill="#244776">   </tspan> CoffeeScript
          
          <tspan xml:space="preserve" fill="#00ADD8">   </tspan> Go
          
          <tspan xml:space="preserve" fill="#e34c26">   </tspan> HTML
          
          <tspan xml:space="preserve" fill="#22e4e8">   </tspan> JSON
          
        </text>
      
        <text text-anchor="middle" y="400" x="320" id="legend">
          
          <tspan xml:space="preserve" fill="#22e8e8">   </tspan> JSon
          
          <tspan xml:space="preserve" fill="#f1e05a">   </tspan> JavaScript
          
          <tspan xml:space="preserve" fill="#2415b9">   </tspan> Less
          
          <tspan xml:space="preserve" fill="#755462">   </tspan> MySQL
          
          <tspan xml:space="preserve" fill="#4F5D95">   </tspan> PHP
          
          <tspan xml:space="preserve" fill="#fd2fdb">   </tspan> PLpgSQL
          
          <tspan xml:space="preserve" fill="#0298c3">   </tspan> Perl
          
          <tspan xml:space="preserve" fill="#3572A5">   </tspan> Python
          
        </text>
      
        <text text-anchor="middle" y="430" x="320" id="legend">
          
          <tspan xml:space="preserve" fill="#701516">   </tspan> Ruby
          
          <tspan xml:space="preserve" fill="#dea584">   </tspan> Rust
          
          <tspan xml:space="preserve" fill="#26c0b0">   </tspan> SCSS
          
          <tspan xml:space="preserve" fill="#0141ae">   </tspan> SQL
          
          <tspan xml:space="preserve" fill="#89e051">   </tspan> Shell
          
          <tspan xml:space="preserve" fill="#2770da">   </tspan> TSQL
          
          <tspan xml:space="preserve" fill="#2b7489">   </tspan> TypeScript
          
          <tspan xml:space="preserve" fill="#2c3e50">   </tspan> Vue
          
        </text>
      
        <text text-anchor="middle" y="460" x="320" id="legend">
          
          <tspan xml:space="preserve" fill="#4B6C4B">   </tspan> Yacc
          
        </text>
      

    </svg>