<svg
      xmlns="http://www.w3.org/2000/svg"
      viewBox="0 0 640 490"
      style="background-color: #292b3e"
    >
      <style>
        text {
          font-size: 12px;
          font-family: Open Sans, Helvetica Neue, Helvetica, Arial, sans-serif;
        }
        #labels text {
          dominant-baseline: hanging;
          font-size: 10px;
          fill: rgba(0,0,0,0.5);
        }
        #legend {
          font-weight: 600;
        }
        #legend tspan {
          font-size: 15px;
        }
        #branding-text {
          font-size: 9px;
          dominant-baseline: hanging;
          opacity: 0.5;
        }
        #branding-logo {
          opacity: 0.5;
        }
      </style>

      
      
      <polygon
        fill="#4B6C4B"
        fillRule="evenodd"
        points="0 313.61355170373423 6.666666666666666 304.2691166966941 13.333333333333332 297.2680456855095 20 285.938829606543 26.666666666666664 278.8280145474584 33.333333333333336 274.9842224478274 40 267.0907514944387 46.66666666666667 257.07882597776785 53.33333333333333 246.22215444339744 60 230.99234331778453 66.66666666666667 221.54629246778836 73.33333333333333 206.62812860267923 80 198.27732895483757 86.66666666666666 192.17035666512243 93.33333333333334 182.12954887459742 100 170.61727089936116 106.66666666666666 156.95188319159453 113.33333333333334 154.80421207012762 120 149.88804429342113 126.66666666666666 142.52575532346836 133.33333333333334 138.2862588186656 140 123.78690101951622 146.66666666666666 127.17481932376978 153.33333333333334 110.77253112740112 160 93.05731308248932 166.66666666666669 88.01892620941871 173.33333333333331 78.10635431981774 180 68.78382771693722 186.66666666666669 65.97381766052948 193.33333333333331 62.133542346522404 200 59.18919805124091 206.66666666666669 46.683880077011395 213.33333333333331 33.29409760712713 220 31.646508302386167 226.66666666666669 27.414682265752333 233.33333333333331 27.52892553264951 240 25.251281619913016 246.66666666666669 13.93621766086062 253.33333333333331 9.643188629634608 260 9.8838952153165 266.6666666666667 12.938054564987397 273.3333333333333 8.24703153299987 280 10.71024703634032 286.6666666666667 10.15917674252097 293.3333333333333 11.455757198175945 300 14.19577179270567 306.6666666666667 17.693113442747915 313.3333333333333 18.068011658365947 320 12.038800614159243 326.66666666666663 13.322776711551057 333.33333333333337 11.292826846377466 340 7.029518114774419 346.66666666666663 1.9718347090914108 353.33333333333337 4.695633892647038 360 0.06665172925625029 366.66666666666663 0 373.33333333333337 3.1342559169753486 380 11.121702934483551 386.66666666666663 13.499781524122284 393.33333333333337 18.04803677719542 400 21.31474319936831 406.66666666666663 21.56854538738321 413.33333333333337 27.066585351639446 420 30.681179422486878 426.66666666666663 36.74797403809083 433.33333333333337 42.80372955927527 440 46.96054325250168 446.66666666666663 38.51485199763323 453.33333333333337 42.63125426766021 460 50.61561554381848 466.66666666666663 58.06901453578723 473.33333333333337 55.54221610563184 480 58.40791790851398 486.66666666666663 64.8493014414079 493.33333333333337 68.96527875231584 500 76.40569254895044 506.66666666666663 74.31950113222186 513.3333333333334 74.99078168260058 520 75.05204712868692 526.6666666666666 74.49033407009583 533.3333333333334 78.43684428339111 540 85.3361667015946 546.6666666666666 88.56511591912974 553.3333333333334 82.02546551571928 560 83.08751697163149 566.6666666666666 90.29401960872264 573.3333333333334 89.4859758205867 580 88.46173078157165 586.6666666666666 89.43533658650387 593.3333333333334 87.5815271454644 600 88.06600763070719 606.6666666666666 88.2751841774926 613.3333333333334 90.82147097820615 620 86.72228834542042 626.6666666666666 72.39022891489168 633.3333333333334 73.67889060201978 640 81.1645151322254 640 320 0 320"
      />
      
      <polygon
        fill="#2c3e50"
        fillRule="evenodd"
        points="0 313.61355170373423 6.666666666666666 304.2691166966941 13.333333333333332 297.2680456855095 20 285.938829606543 26.666666666666664 278.8280145474584 33.333333333333336 274.9842224478274 40 267.0907514944387 46.66666666666667 257.07882597776785 53.33333333333333 246.22215444339744 60 230.99234331778453 66.66666666666667 221.54629246778836 73.33333333333333 206.62812860267923 80 198.27732895483757 86.66666666666666 192.17035666512243 93.33333333333334 182.12954887459742 100 170.61727089936116 106.66666666666666 156.95188319159453 113.33333333333334 154.80421207012762 120 149.88804429342113 126.66666666666666 142.52575532346836 133.33333333333334 138.2862588186656 140 123.78690101951622 146.66666666666666 127.17481932376978 153.33333333333334 110.77253112740112 160 93.05731308248932 166.66666666666669 88.01892620941871 173.33333333333331 78.10635431981774 180 68.78382771693722 186.66666666666669 65.97381766052948 193.33333333333331 62.133542346522404 200 59.18919805124091 206.66666666666669 46.683880077011395 213.33333333333331 33.29409760712713 220 31.646508302386167 226.66666666666669 27.414682265752333 233.33333333333331 27.52892553264951 240 25.251281619913016 246.66666666666669 13.93621766086062 253.33333333333331 9.643188629634608 260 9.8838952153165 266.6666666666667 12.938054564987397 273.3333333333333 8.24703153299987 280 10.71024703634032 286.6666666666667 10.15917674252097 293.3333333333333 11.455757198175945 300 14.19577179270567 306.6666666666667 17.693113442747915 313.3333333333333 18.068011658365947 320 12.038800614159243 326.66666666666663 13.322776711551057 333.33333333333337 11.292826846377466 340 7.029518114774419 346.66666666666663 1.9718347090914108 353.33333333333337 4.695633892647038 360 0.06665172925625029 366.66666666666663 0 373.33333333333337 3.1342559169753486 380 11.121702934483551 386.66666666666663 13.499781524122284 393.33333333333337 18.04803677719542 400 21.31474319936831 406.66666666666663 21.56854538738321 413.33333333333337 27.066585351639446 420 30.681179422486878 426.66666666666663 36.74797403809083 433.33333333333337 42.80372955927527 440 46.96054325250168 446.66666666666663 38.51485199763323 453.33333333333337 42.63125426766021 460 50.61561554381848 466.66666666666663 58.06901453578723 473.33333333333337 56.64280292065155 480 59.474909987010506 486.66666666666663 65.88372414154122 493.33333333333337 69.96912966783162 500 77.37890150050984 506.66666666666663 75.2639473437338 513.3333333333334 75.90639929029317 520 75.93971599446246 526.6666666666666 75.35349287881075 533.3333333333334 79.27365573378691 540 86.14824664469367 546.6666666666666 89.35240757440096 553.3333333333334 82.78948917520233 560 83.82821927642345 566.6666666666666 91.01211241159393 573.3333333333334 90.18284576457827 580 89.13732916242776 586.6666666666666 90.09096800011721 593.3333333333334 88.21714579544948 600 88.6822243958427 606.6666666666666 88.87438616226802 613.3333333333334 91.40238270653057 620 87.2860315153487 626.6666666666666 72.93676418283826 633.3333333333334 74.20927326795933 640 81.6787081850336 640 320 0 320"
      />
      
      <polygon
        fill="#2b7489"
        fillRule="evenodd"
        points="0 313.61355170373423 6.666666666666666 304.2691166966941 13.333333333333332 297.2680456855095 20 285.938829606543 26.666666666666664 278.8280145474584 33.333333333333336 274.9842224478274 40 267.0907514944387 46.66666666666667 257.07882597776785 53.33333333333333 246.22215444339744 60 230.99234331778453 66.66666666666667 221.54629246778836 73.33333333333333 206.62812860267923 80 198.27732895483757 86.66666666666666 192.17035666512243 93.33333333333334 182.12954887459742 100 170.61727089936116 106.66666666666666 156.95188319159453 113.33333333333334 154.80421207012762 120 149.88804429342113 126.66666666666666 142.52575532346836 133.33333333333334 138.2862588186656 140 123.78690101951622 146.66666666666666 127.17481932376978 153.33333333333334 110.77253112740112 160 93.05731308248932 166.66666666666669 88.01892620941871 173.33333333333331 78.10635431981774 180 68.78382771693722 186.66666666666669 65.97381766052948 193.33333333333331 62.133542346522404 200 59.18919805124091 206.66666666666669 46.683880077011395 213.33333333333331 33.29409760712713 220 31.646508302386167 226.66666666666669 27.414682265752333 233.33333333333331 27.52892553264951 240 25.251281619913016 246.66666666666669 13.93621766086062 253.33333333333331 9.643188629634608 260 9.8838952153165 266.6666666666667 12.938054564987397 273.3333333333333 8.24703153299987 280 10.71024703634032 286.6666666666667 10.15917674252097 293.3333333333333 11.455757198175945 300 14.19577179270567 306.6666666666667 17.693113442747915 313.3333333333333 18.068011658365947 320 12.038800614159243 326.66666666666663 13.322776711551057 333.33333333333337 11.292826846377466 340 7.029518114774419 346.66666666666663 1.9718347090914108 353.33333333333337 4.695633892647038 360 0.06665172925625029 366.66666666666663 0 373.33333333333337 3.1342559169753486 380 11.121702934483551 386.66666666666663 13.499781524122284 393.33333333333337 18.04803677719542 400 21.31474319936831 406.66666666666663 21.56854538738321 413.33333333333337 27.066585351639446 420 30.681179422486878 426.66666666666663 36.74797403809083 433.33333333333337 42.80372955927527 440 46.96054325250168 446.66666666666663 38.51485199763323 453.33333333333337 42.63125426766021 460 50.61561554381848 466.66666666666663 58.06901453578723 473.33333333333337 56.64280292065155 480 59.474909987010506 486.66666666666663 65.88372414154122 493.33333333333337 69.96912966783162 500 77.37890150050984 506.66666666666663 75.2639473437338 513.3333333333334 75.90639929029317 520 75.93971599446246 526.6666666666666 75.35349287881075 533.3333333333334 79.27365573378691 540 86.14824664469367 546.6666666666666 89.35240757440096 553.3333333333334 84.99959376831907 560 87.49748919119796 566.6666666666666 94.5693798004798 573.3333333333334 96.00370961008804 580 96.8710234698963 586.6666666666666 100.59183097039443 593.3333333333334 100.45157427511853 600 101.47962105181477 606.6666666666666 102.08505589579718 613.3333333333334 104.24063750647858 620 99.74486475049702 626.6666666666666 85.68490583454445 633.3333333333334 86.73585217053426 640 93.82292168963079 640 320 0 320"
      />
      
      <polygon
        fill="#2770da"
        fillRule="evenodd"
        points="0 313.61355170373423 6.666666666666666 304.2691166966941 13.333333333333332 297.2680456855095 20 285.938829606543 26.666666666666664 278.8280145474584 33.333333333333336 274.9842224478274 40 267.0907514944387 46.66666666666667 257.07882597776785 53.33333333333333 246.22215444339744 60 230.99234331778453 66.66666666666667 221.54629246778836 73.33333333333333 206.62812860267923 80 198.27732895483757 86.66666666666666 192.17035666512243 93.33333333333334 182.12954887459742 100 170.61727089936116 106.66666666666666 156.95188319159453 113.33333333333334 154.80421207012762 120 149.88804429342113 126.66666666666666 142.52575532346836 133.33333333333334 138.2862588186656 140 123.78690101951622 146.66666666666666 127.17481932376978 153.33333333333334 110.77253112740112 160 93.05731308248932 166.66666666666669 88.01892620941871 173.33333333333331 78.10635431981774 180 68.78382771693722 186.66666666666669 65.97381766052948 193.33333333333331 62.133542346522404 200 59.18919805124091 206.66666666666669 46.683880077011395 213.33333333333331 33.29409760712713 220 31.646508302386167 226.66666666666669 27.414682265752333 233.33333333333331 27.52892553264951 240 25.251281619913016 246.66666666666669 14.574426575787584 253.33333333333331 11.080198755270999 260 11.277041404587521 266.6666666666667 14.290027060136254 273.3333333333333 9.557735802559762 280 11.980942712106298 286.6666666666667 11.394786550626634 293.3333333333333 12.653650697806086 300 15.358262230503726 306.6666666666667 18.820119542202747 313.3333333333333 19.161709698245886 320 13.099114147277987 326.66666666666663 14.350724828221473 333.33333333333337 12.29039439914743 340 7.996635540814623 346.66666666666663 2.910369415877426 353.33333333333337 5.605520427413353 360 0.948764508070667 366.66666666666663 0.8577561298841943 373.33333333333337 3.9658295020977903 380 11.92869987951218 386.66666666666663 14.282145315680282 393.33333333333337 18.80727827472606 400 22.05080922892148 406.66666666666663 22.282143465612137 413.33333333333337 27.759093449350416 420 31.352549092303093 426.66666666666663 37.39950171742856 433.33333333333337 43.43536976000371 440 47.57290298993951 446.66666666666663 40.230393130599566 453.33333333333337 44.29442948909025 460 52.22963666304827 466.66666666666663 59.633768526062966 473.33333333333337 58.16131129535654 480 60.947066809251055 486.66666666666663 67.3109441980198 493.33333333333337 71.35416906456351 500 78.72166334274152 506.66666666666663 76.56702467070016 513.3333333333334 77.16970085857838 520 77.164456019657 526.6666666666666 76.544415813032 533.3333333333334 80.42822638694753 540 87.26869462363933 546.6666666666666 90.43865458241683 553.3333333333334 86.0537372737005 560 88.51945562380342 566.6666666666666 95.56015115729645 573.3333333333334 96.96519933130583 580 97.80316435597251 586.6666666666666 101.49642281825564 593.3333333333334 101.3285539952858 600 102.32983146424067 606.6666666666666 102.9117907028386 613.3333333333334 105.04213662470008 620 100.52267596826488 626.6666666666666 86.45007201983054 633.3333333333334 87.74208651203253 640 94.79844131904386 640 320 0 320"
      />
      
      <polygon
        fill="#89e051"
        fillRule="evenodd"
        points="0 313.61355170373423 6.666666666666666 304.9098462520826 13.333333333333332 298.3344758155365 20 288.0768289875882 26.666666666666664 281.2713585808879 33.333333333333336 277.35298505851335 40 269.9999475210168 46.66666666666667 260.07174256489714 53.33333333333333 250.17320221313167 60 235.18161418566058 66.66666666666667 226.78751083397145 73.33333333333333 213.32790759738737 80 205.81369704549132 86.66666666666666 200.4220443650422 93.33333333333334 190.45089547663048 100 178.6846160739277 106.66666666666666 164.7807984290599 113.33333333333334 162.3941548420736 120 158.3565049769018 126.66666666666666 150.82955349446095 133.33333333333334 146.47036473995186 140 132.58695856572388 146.66666666666666 135.7062590282152 153.33333333333334 119.05182920823776 160 102.43447598585976 166.66666666666669 97.17062848192637 173.33333333333331 87.08404882233154 180 77.51854244175212 186.66666666666669 74.59634100202533 193.33333333333331 71.29279994376236 200 68.12753150050841 206.66666666666669 55.43674227466181 213.33333333333331 42.60295998446162 220 40.8163951410549 226.66666666666669 36.30466759632566 233.33333333333331 36.6573062757883 240 34.265882440084226 246.66666666666669 23.330702695160085 253.33333333333331 19.768623886832813 260 20.33188077662072 266.6666666666667 23.771841434832595 273.3333333333333 19.357994835906823 280 21.65726482738461 286.6666666666667 22.19781688848775 293.3333333333333 24.033566915424444 300 26.401848435953013 306.6666666666667 29.526609619595604 313.3333333333333 29.794847467466752 320 23.46950273204766 326.66666666666663 24.70121700526829 333.33333333333337 22.404341308836592 340 17.80186507978658 346.66666666666663 12.43145647744899 353.33333333333337 14.835982824503503 360 10.202326491085842 366.66666666666663 9.855814354371944 373.33333333333337 12.717380075646304 380 20.45548031291196 386.66666666666663 22.802267445766404 393.33333333333337 27.11142477362347 400 30.80877252947323 406.66666666666663 30.77277588812086 413.33333333333337 35.99879209324183 420 39.3407323835533 426.66666666666663 45.23245201000395 433.33333333333337 51.02922428514648 440 55.06974767982791 446.66666666666663 47.537781862042095 453.33333333333337 51.37876516227715 460 59.104597878473555 466.66666666666663 66.2988774888131 473.33333333333337 64.91785746339326 480 67.49737552570167 486.66666666666663 73.66130540173225 493.33333333333337 78.63284334920792 500 85.77815990996248 506.66666666666663 83.41496786815009 513.3333333333334 83.8470579141262 520 83.63798936132153 526.6666666666666 82.83920525546446 533.3333333333334 87.04906030420332 540 93.69385282294033 546.6666666666666 96.66768814204727 553.3333333333334 92.09867419254306 560 94.37987431206639 566.6666666666666 101.24168445738195 573.3333333333334 102.47881926396138 580 103.14848313668108 586.6666666666666 106.68376338594317 593.3333333333334 106.35755353407274 600 107.20532268986389 606.6666666666666 107.65266223538356 613.3333333333334 109.63829609981849 620 105.64940922728837 626.6666666666666 91.42031429240956 633.3333333333334 92.56543644110462 640 99.47456074911199 640 320 0 320"
      />
      
      <polygon
        fill="#0141ae"
        fillRule="evenodd"
        points="0 313.69578981874054 6.666666666666666 304.98957410145584 13.333333333333332 298.4118473447978 20 288.154601376507 26.666666666666664 281.3468324495217 33.333333333333336 277.4261551264576 40 270.0708841186554 46.66666666666667 260.16867327731376 53.33333333333333 250.6255573733564 60 236.59146007780274 66.66666666666667 228.16534867971035 73.33333333333333 215.5629440428595 80 209.3479087233829 86.66666666666666 203.84837642476833 93.33333333333334 193.80957249583622 100 182.16687479894063 106.66666666666666 169.20010823058806 113.33333333333334 166.6896722970262 120 162.52090379385032 126.66666666666666 154.87491818566494 133.33333333333334 151.5033223729046 140 138.3305045080294 146.66666666666666 141.27448537092187 153.33333333333334 124.45549013871303 160 107.98210751825678 166.66666666666669 102.61895368093536 173.33333333333331 92.52513856232142 180 83.01590070158323 186.66666666666669 79.93122669409874 193.33333333333331 76.46484213482245 200 73.61552744606905 206.66666666666669 61.01125156910797 213.33333333333331 50.21114527446787 220 49.306832335534295 226.66666666666669 44.53593855444882 233.33333333333331 46.726463148992195 240 45.53597939769065 246.66666666666669 38.061824760807724 253.33333333333331 34.379880052579665 260 35.18786966226594 266.6666666666667 40.459306591103314 273.3333333333333 36.76706080640599 280 38.534932432434005 286.6666666666667 38.69020300531196 293.3333333333333 40.02253084339168 300 41.96035099966093 306.6666666666667 45.107519223482655 313.3333333333333 44.918040846694 320 38.14224750688328 326.66666666666663 38.926081965570916 333.33333333333337 36.36874330766227 340 33.69979931529042 346.66666666666663 28.41731011465538 353.33333333333337 30.37286850779276 360 26.29390124371531 366.66666666666663 25.53668481930299 373.33333333333337 28.083915945700483 380 35.367870576209896 386.66666666666663 37.58869966713473 393.33333333333337 41.46085035417258 400 45.37446041815929 406.66666666666663 45.021896389784956 413.33333333333337 49.82678826802481 420 53.20091549526529 426.66666666666663 58.85799466341416 433.33333333333337 64.62544471607805 440 68.63090618422066 446.66666666666663 63.21843757614096 453.33333333333337 66.93882749518718 460 74.2047923683383 466.66666666666663 80.93814990427438 473.33333333333337 80.2663974192136 480 82.74331287698737 486.66666666666663 88.44186845203151 493.33333333333337 93.4077119061485 500 100.10203425154546 506.66666666666663 98.34487727828406 513.3333333333334 99.94041951698136 520 99.86327887373778 526.6666666666666 98.67424832261668 533.3333333333334 102.40074856887443 540 108.5918301200993 546.6666666666666 111.11091462555933 553.3333333333334 106.1150387001457 560 107.96839145596982 566.6666666666666 114.4154201303233 573.3333333333334 115.26321681573273 580 115.68634262304127 586.6666666666666 118.8510780177393 593.3333333333334 118.15347150058767 600 118.6411744094062 606.6666666666666 118.80298576952407 613.3333333333334 120.44826833539364 620 116.14818387416207 626.6666666666666 102.07400803183734 633.3333333333334 102.99128725395465 640 109.58217497528989 640 320 0 320"
      />
      
      <polygon
        fill="#26c0b0"
        fillRule="evenodd"
        points="0 313.69578981874054 6.666666666666666 305.07507520328477 13.333333333333332 298.52242040078113 20 288.3920414869496 26.666666666666664 281.7296816020056 33.333333333333336 277.85568360899197 40 270.5454126619337 46.66666666666667 260.80007935853445 53.33333333333333 251.72755599528242 60 237.79094448036813 66.66666666666667 230.20550583483546 73.33333333333333 218.2168352379968 80 212.42854455210892 86.66666666666666 207.47605537119597 93.33333333333334 198.3098453133781 100 186.52977839349114 106.66666666666666 173.80641535041255 113.33333333333334 171.1553740323954 120 166.87839505092023 126.66666666666666 159.3526235677889 133.33333333333334 156.04896608169446 140 143.12363416568826 146.66666666666666 145.92413372975125 153.33333333333334 128.9677183097603 160 112.62428819946388 166.66666666666669 107.34724297249784 173.33333333333331 97.39187196130365 180 88.07452712132601 186.66666666666669 84.90351577843714 193.33333333333331 81.47894423370306 200 78.5402216836514 206.66666666666669 65.83895713826439 213.33333333333331 55.25793306651644 220 54.274642477875204 226.66666666666669 49.44590602252305 233.33333333333331 52.031426549276034 240 50.75698169594085 246.66666666666669 43.287643437291365 253.33333333333331 39.62430231622608 260 40.272209360239174 266.6666666666667 46.01556155105584 273.3333333333333 42.226233902236515 280 45.2949238614292 286.6666666666667 46.22640258335099 293.3333333333333 47.34244920700047 300 49.122455039041654 306.6666666666667 52.19641891698723 313.3333333333333 51.84807280662528 320 44.89917282830311 326.66666666666663 45.540535522575794 333.33333333333337 42.90213006954309 340 40.52984678131105 346.66666666666663 35.111717256011104 353.33333333333337 37.18674287286325 360 32.913536049865115 366.66666666666663 31.97353933533998 373.33333333333337 34.32992283569786 380 41.451225596917425 386.66666666666663 43.65063611800076 393.33333333333337 47.7224026356302 400 51.45045472565414 406.66666666666663 51.0492645327713 413.33333333333337 55.67602110947246 420 59.077923839441894 426.66666666666663 64.64968209095764 433.33333333333337 70.24034360722993 440 74.11938876133212 446.66666666666663 68.67692490783082 453.33333333333337 72.31807587986492 460 79.43595618275987 466.66666666666663 86.08173380826113 473.33333333333337 85.88900370745739 480 88.95222757169321 486.66666666666663 94.47241860639164 493.33333333333337 100.00827190632381 500 106.58861745669836 506.66666666666663 104.63975611460364 513.3333333333334 106.09862126504908 520 105.83350654685333 526.6666666666666 104.496221474339 533.3333333333334 108.04500739234004 540 114.08037095736475 546.6666666666666 116.43192135152955 553.3333333333334 111.27878719351651 560 112.97451900361321 566.6666666666666 119.26873735638333 573.3333333333334 119.97309713165205 580 120.2524575319728 586.6666666666666 123.28224257896198 593.3333333333334 122.69254856048605 600 123.04169885620115 606.6666666666666 123.0820046064756 613.3333333333334 124.59949676123364 620 120.7582985570667 626.6666666666666 106.54340296776215 633.3333333333334 107.32859183004766 640 113.7870875128701 640 320 0 320"
      />
      
      <polygon
        fill="#dea584"
        fillRule="evenodd"
        points="0 313.69578981874054 6.666666666666666 305.07507520328477 13.333333333333332 298.52242040078113 20 288.3920414869496 26.666666666666664 281.7296816020056 33.333333333333336 277.85568360899197 40 270.5454126619337 46.66666666666667 260.80007935853445 53.33333333333333 251.72755599528242 60 237.79094448036813 66.66666666666667 230.20550583483546 73.33333333333333 218.60522966797407 80 212.80508347230494 86.66666666666666 207.84110067272616 93.33333333333334 198.6641018824548 100 187.99622006930252 106.66666666666666 176.33186828563595 113.33333333333334 173.60373902248267 120 169.25202490187877 126.66666666666666 162.75996507784785 133.33333333333334 159.35230068117886 140 148.5573310312165 146.66666666666666 151.19197061571097 153.33333333333334 136.32711116437545 160 123.07438427851594 166.66666666666669 117.47835700206076 173.33333333333331 107.22356476239321 180 98.72229517630785 186.66666666666669 95.23659423178373 193.33333333333331 91.49661084445765 200 88.2521044817075 206.66666666666669 76.38150396432968 213.33333333333331 66.58278429371816 220 65.26479271668467 226.66666666666669 60.100585663498634 233.33333333333331 62.37121365421751 240 60.78115392113989 246.66666666666669 53.00583220344407 253.33333333333331 49.055274174523845 260 49.415307214236236 266.6666666666667 54.888440693450775 273.3333333333333 51.93123193246498 280 54.70368349657076 286.6666666666667 55.375371663449016 293.3333333333333 56.21215075634018 300 57.730016104375125 306.6666666666667 60.54123963450667 313.3333333333333 61.064296298777265 320 54.08989399124789 326.66666666666663 54.450715034992356 333.33333333333337 51.54897471342076 340 48.91275032224314 346.66666666666663 43.24686923520284 353.33333333333337 45.07357445748829 360 41.668894597500184 366.66666666666663 40.487148452866904 373.33333333333337 42.5836594024089 380 49.46102576858624 386.66666666666663 51.4778117709738 393.33333333333337 55.31825156921923 400 58.8144441728424 406.66666666666663 58.188472023377415 413.33333333333337 62.60423436618379 420 65.79465633345919 426.66666666666663 71.16790518355123 433.33333333333337 76.5596003620598 440 80.24575467466872 446.66666666666663 74.62817826603114 453.33333333333337 78.08767037885318 460 85.035034205427 466.66666666666663 91.50990274076514 473.33333333333337 91.15674606195034 480 94.05917498370934 486.66666666666663 99.42347880033168 493.33333333333337 104.81300735656407 500 111.24669000774185 506.66666666666663 109.16016187403855 513.3333333333334 110.48104437447435 520 110.08215858861814 526.6666666666666 108.62756202083847 533.3333333333334 112.05024018783692 540 117.967232272149 546.6666666666666 120.20013807186342 553.3333333333334 116.05400108318506 560 117.60397256408976 566.6666666666666 123.75688034821258 573.3333333333334 124.68677103643466 580 124.8222490984532 586.6666666666666 127.7169763195659 593.3333333333334 126.99191395989533 600 127.20982961105636 606.6666666666666 127.160003717802 613.3333333333334 128.553017453589 620 124.59497568491736 626.6666666666666 110.26296752743411 633.3333333333334 110.93822605523417 640 117.28654038142619 640 320 0 320"
      />
      
      <polygon
        fill="#701516"
        fillRule="evenodd"
        points="0 313.69578981874054 6.666666666666666 305.07507520328477 13.333333333333332 298.52242040078113 20 288.3920414869496 26.666666666666664 281.7296816020056 33.333333333333336 277.85568360899197 40 270.5454126619337 46.66666666666667 260.80007935853445 53.33333333333333 251.72755599528242 60 237.79094448036813 66.66666666666667 230.20550583483546 73.33333333333333 218.60522966797407 80 212.80508347230494 86.66666666666666 207.84110067272616 93.33333333333334 198.6641018824548 100 187.99622006930252 106.66666666666666 176.33186828563595 113.33333333333334 173.60373902248267 120 169.25202490187877 126.66666666666666 162.75996507784785 133.33333333333334 159.35230068117886 140 148.5573310312165 146.66666666666666 151.19197061571097 153.33333333333334 136.32711116437545 160 123.07438427851594 166.66666666666669 117.47835700206076 173.33333333333331 107.22356476239321 180 98.72229517630785 186.66666666666669 95.23659423178373 193.33333333333331 91.49661084445765 200 88.2521044817075 206.66666666666669 76.38150396432968 213.33333333333331 66.58278429371816 220 65.26479271668467 226.66666666666669 60.100585663498634 233.33333333333331 62.37121365421751 240 60.78115392113989 246.66666666666669 53.00583220344407 253.33333333333331 49.055274174523845 260 49.415307214236236 266.6666666666667 54.888440693450775 273.3333333333333 51.93123193246498 280 54.70368349657076 286.6666666666667 55.375371663449016 293.3333333333333 56.21215075634018 300 57.730016104375125 306.6666666666667 60.54123963450667 313.3333333333333 61.064296298777265 320 54.08989399124789 326.66666666666663 54.450715034992356 333.33333333333337 51.54897471342076 340 48.91275032224314 346.66666666666663 43.24686923520284 353.33333333333337 45.07357445748829 360 41.668894597500184 366.66666666666663 40.487148452866904 373.33333333333337 42.5836594024089 380 49.46102576858624 386.66666666666663 51.4778117709738 393.33333333333337 55.31825156921923 400 58.8144441728424 406.66666666666663 58.188472023377415 413.33333333333337 62.60423436618379 420 65.79465633345919 426.66666666666663 71.16790518355123 433.33333333333337 76.5596003620598 440 80.24575467466872 446.66666666666663 74.62817826603114 453.33333333333337 78.08767037885318 460 85.035034205427 466.66666666666663 91.50990274076514 473.33333333333337 91.15674606195034 480 94.05917498370934 486.66666666666663 99.42347880033168 493.33333333333337 104.81300735656407 500 111.24669000774185 506.66666666666663 109.16016187403855 513.3333333333334 110.48104437447435 520 110.08215858861814 526.6666666666666 108.62756202083847 533.3333333333334 112.05024018783692 540 117.967232272149 546.6666666666666 120.20013807186342 553.3333333333334 116.05400108318506 560 117.60397256408976 566.6666666666666 123.75688034821258 573.3333333333334 124.68677103643466 580 124.8222490984532 586.6666666666666 127.7169763195659 593.3333333333334 126.99191395989533 600 127.20982961105636 606.6666666666666 127.160003717802 613.3333333333334 128.553017453589 620 124.59497568491736 626.6666666666666 110.28252375750864 633.3333333333334 110.95720431067298 640 117.30493933776131 640 320 0 320"
      />
      
      <polygon
        fill="#3572A5"
        fillRule="evenodd"
        points="0 313.69578981874054 6.666666666666666 305.07507520328477 13.333333333333332 298.52242040078113 20 288.3920414869496 26.666666666666664 281.7296816020056 33.333333333333336 277.85568360899197 40 270.5454126619337 46.66666666666667 260.80007935853445 53.33333333333333 251.72755599528242 60 237.79094448036813 66.66666666666667 230.20550583483546 73.33333333333333 218.60522966797407 80 212.80508347230494 86.66666666666666 207.84110067272616 93.33333333333334 198.6641018824548 100 187.99622006930252 106.66666666666666 176.33186828563595 113.33333333333334 173.60373902248267 120 169.25202490187877 126.66666666666666 163.4215928690041 133.33333333333334 159.9937326464663 140 149.21622498262806 146.66666666666666 151.83075220637386 153.33333333333334 137.9482562571444 160 125.43995306139482 166.66666666666669 119.7717182322802 173.33333333333331 109.4491470336695 180 100.87994281997564 186.66666666666669 97.33047341398736 193.33333333333331 93.52657586343636 200 90.2201059737283 206.66666666666669 78.29516578943839 213.33333333333331 68.47390334379156 220 67.10002096177766 226.66666666666669 61.879794458615095 233.33333333333331 64.09783880716915 240 62.45507490430663 246.66666666666669 54.6286577985386 253.33333333333331 50.63013789416732 260 50.94209911422263 266.6666666666667 56.37010923077992 273.3333333333333 53.40350671353582 280 56.13101812107709 286.6666666666667 56.76329519468254 293.3333333333333 57.5577087777088 300 59.03580689544498 306.6666666666667 61.80717174635879 313.3333333333333 62.292814705599085 320 55.28091248445185 326.66666666666663 55.605378164587876 333.33333333333337 52.669512497259916 340 49.999084463610984 346.66666666666663 44.30109730514641 353.33333333333337 46.09562278311449 360 42.659745432675095 366.66666666666663 41.45064039165214 373.33333333333337 43.51774116335076 380 50.36750125867502 386.66666666666663 52.37894911023312 393.33333333333337 56.19275631173349 400 59.662255181412945 406.66666666666663 59.010404015395864 413.33333333333337 63.40187464827966 420 66.5679491526173 426.66666666666663 71.91834368484007 433.33333333333337 77.28713225519289 440 80.95107908149407 446.66666666666663 75.31334189555656 453.33333333333337 78.75191977418757 460 85.67965208664876 466.66666666666663 92.13484399992433 473.33333333333337 91.76321756789838 480 94.64713430003772 486.66666666666663 99.99349090668198 493.33333333333337 105.36617317461872 500 111.78297071794844 506.66666666666663 109.68059311999178 513.3333333333334 110.98558974100914 520 110.57130299133362 526.6666666666666 109.10320028133572 533.3333333333334 112.51135995630787 540 118.41472378840695 546.6666666666666 120.63397030492695 553.3333333333334 116.47501156129962 560 118.01213194140004 566.6666666666666 124.15258093030585 573.3333333333334 125.07077682251543 580 125.19453337310699 586.6666666666666 128.0782579843226 593.3333333333334 127.34216767621166 600 127.54939203425613 606.6666666666666 127.49019026352084 613.3333333333334 128.8731252495458 620 124.90562285387821 626.6666666666666 110.6031048478593 633.3333333333334 111.2683107998109 640 117.60654946289876 640 320 0 320"
      />
      
      <polygon
        fill="#0298c3"
        fillRule="evenodd"
        points="0 313.69578981874054 6.666666666666666 305.07507520328477 13.333333333333332 298.52242040078113 20 288.3920414869496 26.666666666666664 281.7296816020056 33.333333333333336 277.85568360899197 40 270.5454126619337 46.66666666666667 260.80007935853445 53.33333333333333 251.72755599528242 60 237.79094448036813 66.66666666666667 230.20550583483546 73.33333333333333 218.60522966797407 80 212.80508347230494 86.66666666666666 207.84110067272616 93.33333333333334 198.6641018824548 100 187.99622006930252 106.66666666666666 176.33186828563595 113.33333333333334 173.60373902248267 120 169.25202490187877 126.66666666666666 163.4215928690041 133.33333333333334 159.9937326464663 140 149.21622498262806 146.66666666666666 151.83075220637386 153.33333333333334 137.9482562571444 160 126.07806433148167 166.66666666666669 120.39035151968665 173.33333333333331 110.049496959257 180 101.46196740971777 186.66666666666669 97.89529659564863 193.33333333333331 94.07415811875356 200 90.75097362719316 206.66666666666669 78.81137531146013 213.33333333333331 68.97435580606873 220 67.69015702953169 226.66666666666669 62.45191697996165 233.33333333333331 64.65305252615008 240 62.993341052745336 246.66666666666669 55.15049368961195 253.33333333333331 51.136551253861796 260 51.433054452137526 266.6666666666667 56.84655466670171 273.3333333333333 53.865408935397625 280 56.57882101576655 286.6666666666667 57.198733517366975 293.3333333333333 57.9798556165307 300 59.445477378802366 306.6666666666667 62.20433727848297 313.3333333333333 62.67824222439026 320 55.654575058717114 326.66666666666663 55.96763492142452 333.33333333333337 53.0210629386969 340 50.339904021742086 346.66666666666663 44.631844103933474 353.33333333333337 46.41627374454936 360 42.970608698513956 366.66666666666663 41.752920210580896 373.33333333333337 43.81079407406003 380 50.65189313474525 386.66666666666663 52.654660100056276 393.33333333333337 56.460318791870236 400 59.92165049217368 406.66666666666663 59.26188141159821 413.33333333333337 63.64591977505904 420 66.80454494293397 426.66666666666663 72.14794701338309 433.33333333333337 77.50972708243847 440 81.16687931571124 446.66666666666663 75.52297380771284 453.33333333333337 78.95515278970532 460 85.87687866524251 466.66666666666663 92.32605034205503 473.33333333333337 91.94877291142029 480 94.82702566742446 486.66666666666663 100.16789120831652 493.33333333333337 105.53541915830124 500 111.94705055697042 506.66666666666663 109.83982366944468 513.3333333333334 111.13995988317043 520 110.72096105840498 526.6666666666666 109.2487260491882 533.3333333333334 112.6524436288845 540 118.5516378115602 546.6666666666666 120.7667051124833 553.3333333333334 116.6038234568361 560 118.13701192387694 566.6666666666666 124.27364903413562 573.3333333333334 125.1882668075753 580 125.30843706037004 586.6666666666666 128.18879530330133 593.3333333333334 127.44933089998625 600 127.65328416102471 606.6666666666666 127.59121376408581 613.3333333333334 128.97106506893027 620 127.4998735301026 626.6666666666666 116.38958934567145 633.3333333333334 116.91410370458013 640 123.08000821564286 640 320 0 320"
      />
      
      <polygon
        fill="#fd2fdb"
        fillRule="evenodd"
        points="0 313.69578981874054 6.666666666666666 305.07507520328477 13.333333333333332 298.52242040078113 20 288.3920414869496 26.666666666666664 281.7296816020056 33.333333333333336 277.85568360899197 40 270.5454126619337 46.66666666666667 260.80007935853445 53.33333333333333 251.72755599528242 60 237.79094448036813 66.66666666666667 230.20550583483546 73.33333333333333 218.60522966797407 80 212.80508347230494 86.66666666666666 207.84110067272616 93.33333333333334 198.6641018824548 100 187.99622006930252 106.66666666666666 176.33186828563595 113.33333333333334 173.60373902248267 120 169.25202490187877 126.66666666666666 163.4215928690041 133.33333333333334 159.9937326464663 140 149.21622498262806 146.66666666666666 151.83075220637386 153.33333333333334 137.9482562571444 160 126.07806433148167 166.66666666666669 120.39035151968665 173.33333333333331 110.049496959257 180 101.46196740971777 186.66666666666669 97.89529659564863 193.33333333333331 94.07415811875356 200 90.75097362719316 206.66666666666669 78.81137531146013 213.33333333333331 68.97435580606873 220 67.69015702953169 226.66666666666669 62.45191697996165 233.33333333333331 64.65305252615008 240 62.993341052745336 246.66666666666669 55.15049368961195 253.33333333333331 51.136551253861796 260 51.433054452137526 266.6666666666667 56.84655466670171 273.3333333333333 53.865408935397625 280 56.57882101576655 286.6666666666667 58.3283368688721 293.3333333333333 59.074978512769405 300 60.50823444758629 306.6666666666667 63.23465433316096 313.3333333333333 64.55886951466812 320 57.477797293768674 326.66666666666663 57.735204221436675 333.33333333333337 54.73639260888211 340 52.00287445924465 346.66666666666663 46.24566629607659 353.33333333333337 47.98083487008239 360 44.48741252702035 366.66666666666663 43.22784259198323 373.33333333333337 45.24069533064153 380 52.03953430459757 386.66666666666663 53.99994439117751 393.33333333333337 57.76584397006866 400 61.18732521128197 406.66666666666663 60.48892204499015 413.33333333333337 64.836695877252 420 67.95897338788797 426.66666666666663 73.26825694556177 433.33333333333337 78.59584020512688 440 82.21983943098058 446.66666666666663 76.54583664522738 453.33333333333337 79.94679321950699 460 86.83921177154673 466.66666666666663 93.25900871981585 473.33333333333337 92.85415820709304 480 95.70477468877857 486.66666666666663 101.01884734043847 493.33333333333337 106.3612257074393 500 112.74764987948026 506.66666666666663 110.61676176581477 513.3333333333334 111.89318236698196 520 111.45119187629098 526.6666666666666 109.95879398336658 533.3333333333334 113.34083715202655 540 119.21968624159234 546.6666666666666 121.4143617385308 553.3333333333334 117.2323389302046 560 118.74634233881025 566.6666666666666 124.86437997196992 573.3333333333334 125.76153897541036 580 125.86421046728535 586.6666666666666 128.7281430869482 593.3333333333334 127.97221541218062 600 128.16020791871378 606.6666666666666 128.08414054546563 613.3333333333334 129.4489455438939 620 127.963630520994 626.6666666666666 116.8391903829868 633.3333333333334 117.35041703929167 640 123.50300334080225 640 320 0 320"
      />
      
      <polygon
        fill="#4F5D95"
        fillRule="evenodd"
        points="0 313.69578981874054 6.666666666666666 305.07507520328477 13.333333333333332 298.52242040078113 20 288.3920414869496 26.666666666666664 281.7296816020056 33.333333333333336 277.85568360899197 40 270.5454126619337 46.66666666666667 260.80007935853445 53.33333333333333 251.72755599528242 60 237.79094448036813 66.66666666666667 230.20550583483546 73.33333333333333 218.60522966797407 80 212.80508347230494 86.66666666666666 207.84110067272616 93.33333333333334 198.6641018824548 100 187.99622006930252 106.66666666666666 176.33186828563595 113.33333333333334 173.60373902248267 120 169.25202490187877 126.66666666666666 163.4215928690041 133.33333333333334 159.9937326464663 140 149.21622498262806 146.66666666666666 151.83075220637386 153.33333333333334 137.9482562571444 160 126.07806433148167 166.66666666666669 120.39035151968665 173.33333333333331 110.049496959257 180 101.46196740971777 186.66666666666669 97.89529659564863 193.33333333333331 94.07415811875356 200 90.75097362719316 206.66666666666669 78.81137531146013 213.33333333333331 68.97435580606873 220 67.69015702953169 226.66666666666669 62.45191697996165 233.33333333333331 64.67267959522874 240 63.01236901632302 246.66666666666669 55.168940835417345 253.33333333333331 51.15445320381764 260 51.45040995678448 266.6666666666667 56.8633972384722 273.3333333333333 53.88173739675841 280 56.59465105996861 286.6666666666667 58.34372982012201 293.3333333333333 59.08990160255621 300 60.52271649362217 306.6666666666667 63.24869432334265 313.3333333333333 64.57249456103136 320 57.491006442778655 326.66666666666663 57.74801016908032 333.33333333333337 54.74882008335817 340 52.01492259230213 346.66666666666663 46.25735835273156 353.33333333333337 47.99217003345967 360 44.49840169135757 366.66666666666663 43.238528327266124 373.33333333333337 45.251054890235764 380 52.04958769218359 386.66666666666663 54.00969090547568 393.33333333333337 57.77530243106105 400 61.196494958789515 406.66666666666663 60.49781189098957 413.33333333333337 64.84532298845215 420 67.96733716165082 426.66666666666663 73.27637353238288 433.33333333333337 78.6037090373037 440 82.227468072058 446.66666666666663 76.55324723303639 453.33333333333337 79.95397760276353 460 86.84618382377121 466.66666666666663 93.26576795458209 473.33333333333337 92.86071767611415 480 95.71113393388518 486.66666666666663 101.02501247350085 493.33333333333337 106.3672086332572 500 112.75345017995744 506.66666666666663 110.62239064159428 513.3333333333334 111.89863942452519 520 111.45648236003933 526.6666666666666 109.96393838846132 533.3333333333334 113.34582452679172 540 119.22452621724315 546.6666666666666 121.41905397691173 553.3333333333334 117.2368924918485 560 118.75075690549545 566.6666666666666 124.86865978651522 573.3333333333334 125.76569230233201 580 125.8682370166184 586.6666666666666 128.73205063349474 593.3333333333334 127.97600368303236 600 128.1638805549763 606.6666666666666 128.0877117742274 613.3333333333334 129.4524077629755 620 127.96699041592788 626.6666666666666 116.84244771919106 633.3333333333334 117.35357810660241 640 123.50606791820081 640 320 0 320"
      />
      
      <polygon
        fill="#755462"
        fillRule="evenodd"
        points="0 318.02122401689667 6.666666666666666 313.5273643270892 13.333333333333332 310.89612188498154 20 304.6063591841216 26.666666666666664 301.5123638602528 33.333333333333336 299.63474611659933 40 295.687326266764 46.66666666666667 289.60724508529705 53.33333333333333 284.854051447981 60 274.4471205739024 66.66666666666667 270.1967726273481 73.33333333333333 262.952369790952 80 259.7806391766276 86.66666666666666 257.2939962892258 93.33333333333334 251.4885999494678 100 243.11577158254227 106.66666666666666 233.69075722058403 113.33333333333334 232.4422611911791 120 230.48715197252642 126.66666666666666 226.74331608884813 133.33333333333334 225.02615174784523 140 216.762225511026 146.66666666666666 218.75150928317362 153.33333333333334 208.3586732562979 160 198.3525349942481 166.66666666666669 194.34759942828816 173.33333333333331 186.11875251385268 180 178.69897428374205 186.66666666666669 176.47505513949667 193.33333333333331 173.87229985766038 200 171.386968306656 206.66666666666669 162.65602382554206 213.33333333333331 154.12873573761527 220 153.54798156858564 226.66666666666669 149.7712740319039 233.33333333333331 151.9918424466577 240 150.24050936790016 246.66666666666669 143.46422842039843 253.33333333333331 140.698084293737 260 142.92940431679324 266.6666666666667 147.0537468632082 273.3333333333333 144.4471519186937 280 147.14073286942767 286.6666666666667 149.53429634473653 293.3333333333333 150.79097298342595 300 152.38227809870753 306.6666666666667 155.035522184854 313.3333333333333 154.49048156214906 320 148.8868644878017 326.66666666666663 148.96299150002744 333.33333333333337 145.90476343074172 340 141.78900393050583 346.66666666666663 137.45874256519883 353.33333333333337 139.3711048908938 360 135.0641193304962 366.66666666666663 134.18779403523334 373.33333333333337 137.0970471197718 380 142.4524080912251 386.66666666666663 144.39918442273043 393.33333333333337 146.97581512197925 400 149.82616705725223 406.66666666666663 149.0646000137123 413.33333333333337 151.7194018962303 420 154.19243699953677 426.66666666666663 158.30292226043485 433.33333333333337 162.42162672411638 440 164.4855446305755 446.66666666666663 158.22324250908298 453.33333333333337 161.34782796900402 460 165.87469557070418 466.66666666666663 170.07071464953893 473.33333333333337 168.5637459981402 480 169.21381289916172 486.66666666666663 173.47281891083406 493.33333333333337 177.15383004479133 500 181.4936338479136 506.66666666666663 177.55143977205782 513.3333333333334 179.11019378848488 520 179.84346358752526 526.6666666666666 178.85208435227642 533.3333333333334 181.1912894393327 540 185.21859749011054 546.6666666666666 189.19431078006764 553.3333333333334 186.26905098023582 560 186.94226349989665 566.6666666666666 190.98335115598593 573.3333333333334 194.30441708434876 580 196.59010437339535 586.6666666666666 200.19853824418158 593.3333333333334 201.59017429327048 600 203.64797605492836 606.6666666666666 205.7505109800639 613.3333333333334 209.18377535078028 620 208.11713445668295 626.6666666666666 198.64770827658316 633.3333333333334 200.49350275582725 640 204.11277222817924 640 320 0 320"
      />
      
      <polygon
        fill="#2415b9"
        fillRule="evenodd"
        points="0 318.02122401689667 6.666666666666666 313.5273643270892 13.333333333333332 310.89612188498154 20 304.6063591841216 26.666666666666664 301.5123638602528 33.333333333333336 299.63474611659933 40 295.687326266764 46.66666666666667 289.60724508529705 53.33333333333333 284.854051447981 60 274.4471205739024 66.66666666666667 270.1967726273481 73.33333333333333 262.952369790952 80 259.7806391766276 86.66666666666666 257.2939962892258 93.33333333333334 251.4885999494678 100 243.11577158254227 106.66666666666666 233.69075722058403 113.33333333333334 232.4422611911791 120 230.48715197252642 126.66666666666666 226.74331608884813 133.33333333333334 225.02615174784523 140 216.762225511026 146.66666666666666 218.75150928317362 153.33333333333334 208.3586732562979 160 198.3525349942481 166.66666666666669 194.34759942828816 173.33333333333331 186.11875251385268 180 178.69897428374205 186.66666666666669 176.47505513949667 193.33333333333331 173.87229985766038 200 171.386968306656 206.66666666666669 162.65602382554206 213.33333333333331 154.12873573761527 220 153.54798156858564 226.66666666666669 149.7712740319039 233.33333333333331 151.9918424466577 240 150.24050936790016 246.66666666666669 143.46422842039843 253.33333333333331 140.698084293737 260 142.92940431679324 266.6666666666667 147.0537468632082 273.3333333333333 144.4471519186937 280 147.14073286942767 286.6666666666667 149.53429634473653 293.3333333333333 150.79097298342595 300 152.38227809870753 306.6666666666667 155.035522184854 313.3333333333333 154.49048156214906 320 148.8868644878017 326.66666666666663 148.96299150002744 333.33333333333337 145.90476343074172 340 142.1486345107184 346.66666666666663 137.81837314541144 353.33333333333337 139.7307354711064 360 135.4237499107088 366.66666666666663 134.54742461544595 373.33333333333337 137.45667769998437 380 142.81203867143768 386.66666666666663 144.75881500294298 393.33333333333337 147.33544570219183 400 150.18579763746484 406.66666666666663 149.4242305939249 413.33333333333337 152.07903247644288 420 154.55206757974932 426.66666666666663 158.66255284064746 433.33333333333337 162.78125730432896 440 164.8451752107881 446.66666666666663 158.5828730892956 453.33333333333337 161.70745854921662 460 166.23432615091676 466.66666666666663 170.4303452297515 473.33333333333337 168.9233765783528 480 169.5734434793743 486.66666666666663 173.83244949104665 493.33333333333337 177.51346062500392 500 181.8532644281262 506.66666666666663 177.9110703522704 513.3333333333334 179.46982436869743 520 180.20309416773785 526.6666666666666 179.211714932489 533.3333333333334 181.5509200195453 540 185.57822807032315 546.6666666666666 189.55394136028022 553.3333333333334 186.6286815604484 560 187.30189408010924 566.6666666666666 191.34298173619854 573.3333333333334 194.66404766456134 580 196.94973495360793 586.6666666666666 200.55816882439416 593.3333333333334 201.94980487348306 600 204.00760663514092 606.6666666666666 206.11014156027647 613.3333333333334 209.54340593099286 620 208.47676503689556 626.6666666666666 199.00733885679574 633.3333333333334 200.85313333603986 640 204.47240280839185 640 320 0 320"
      />
      
      <polygon
        fill="#f1e05a"
        fillRule="evenodd"
        points="0 318.02122401689667 6.666666666666666 313.5273643270892 13.333333333333332 310.89612188498154 20 304.6063591841216 26.666666666666664 301.5123638602528 33.333333333333336 299.63474611659933 40 295.687326266764 46.66666666666667 289.60724508529705 53.33333333333333 284.854051447981 60 275.55862515682776 66.66666666666667 271.2743491475782 73.33333333333333 264.3815300030351 80 261.6232923546796 86.66666666666666 259.0916537221008 93.33333333333334 253.23312833471525 100 246.00811624489592 106.66666666666666 237.6110655150988 113.33333333333334 236.28994393954864 120 234.21738625775532 126.66666666666666 230.5137334400781 133.33333333333334 228.68147868227328 140 222.60338187165485 146.66666666666666 224.41436748098667 153.33333333333334 213.85416862972352 160 203.6802832523234 166.66666666666669 199.51272222423336 173.33333333333331 191.1312220954023 180 184.67462251446574 186.66666666666669 182.27409670415074 193.33333333333331 179.49432868194395 200 176.83738758315775 206.66666666666669 169.27903556284005 213.33333333333331 161.91443159946664 220 161.10357551005754 226.66666666666669 157.65208190706207 233.33333333333331 159.74988723796085 240 157.7617431762226 246.66666666666669 151.88565456156698 253.33333333333331 148.87062038549985 260 150.85248008780178 266.6666666666667 154.7426579157968 273.3333333333333 153.0043252461852 280 155.4477420277436 286.6666666666667 157.61193825657259 293.3333333333333 159.3992975958571 300 161.3844110404207 306.6666666666667 163.76287126437978 313.3333333333333 164.08009571702217 320 158.18376606579625 326.66666666666663 157.9761116697241 333.33333333333337 154.65150420215895 340 150.62838451186985 346.66666666666663 146.04751098043596 353.33333333333337 147.7086812100055 360 144.26959767742102 366.66666666666663 143.14902156723718 373.33333333333337 145.79571915407982 380 150.90462169260763 386.66666666666663 152.6043759986925 393.33333333333337 154.94913745013915 400 157.56708274677146 406.66666666666663 156.58020817224428 413.33333333333337 159.02351953066682 420 161.28457809483652 426.66666666666663 165.19608653730825 433.33333333333337 169.1153594040068 440 170.9859316904161 446.66666666666663 165.6689898586188 453.33333333333337 168.57727653358694 460 172.90110955364835 466.66666666666663 176.89362961363796 473.33333333333337 175.19564112452738 480 175.6542523155739 486.66666666666663 179.7276444564162 493.33333333333337 183.23442567143266 500 187.39960067392488 506.66666666666663 183.29348656860182 513.3333333333334 184.68794592324858 520 185.2619357493192 526.6666666666666 184.13087250316158 533.3333333333334 186.3199246303675 540 190.2062872916644 546.6666666666666 194.0407321411279 553.3333333333334 190.9828669904734 560 191.5231708366051 566.6666666666666 195.43540614385523 573.3333333333334 198.63552234850005 580 200.79998310103352 586.6666666666666 204.29462471866077 593.3333333333334 205.5722070117831 600 207.51943726900674 606.6666666666666 209.5250050007996 613.3333333333334 212.85403250287322 620 211.68954814983664 626.6666666666666 202.1220531765511 633.3333333333334 203.87579404369413 640 207.40279874941865 640 320 0 320"
      />
      
      <polygon
        fill="#22e8e8"
        fillRule="evenodd"
        points="0 319.92567426432373 6.666666666666666 319.85646900022437 13.333333333333332 319.82723292468245 20 318.6603030323245 26.666666666666664 318.5475301366324 33.333333333333336 318.4075980358009 40 318.26954455654857 46.66666666666667 316.01153600782146 53.33333333333333 316.01949881455147 60 310.27120141246985 66.66666666666667 309.37987244242726 73.33333333333333 306.936935089533 80 307.02226972350394 86.66666666666666 306.27910684683246 93.33333333333334 304.58411921803486 100 300.1563004234018 106.66666666666666 294.75365206878814 113.33333333333334 293.47877898585335 120 293.7809647767981 126.66666666666666 290.88386059894333 133.33333333333334 291.25492882902836 140 286.9785401246373 146.66666666666666 287.2959182833896 153.33333333333334 280.08963730573686 160 272.3565348782772 166.66666666666669 270.687364481498 173.33333333333331 264.64104435151785 180 259.7160487332341 186.66666666666669 258.48213883723014 193.33333333333331 256.4976270546272 200 254.7095739879535 206.66666666666669 249.75801964104585 213.33333333333331 243.8433228751764 220 243.3268192780916 226.66666666666669 241.83028778429116 233.33333333333331 242.76855164814964 240 241.70746946117904 246.66666666666669 237.21785331974164 253.33333333333331 234.04437618519228 260 235.730301020617 266.6666666666667 237.40442493818261 273.3333333333333 235.5605252805395 280 237.00508867587627 286.6666666666667 238.399372345847 293.3333333333333 240.81757509862155 300 242.5414939903565 306.6666666666667 244.59171938375556 313.3333333333333 243.76038137721355 320 239.79405033533624 326.66666666666663 239.8280789918423 333.33333333333337 237.43530929315008 340 235.7225838621236 346.66666666666663 231.99178043581358 353.33333333333337 232.20072641942664 360 229.58697965569093 366.66666666666663 229.0000747762237 373.33333333333337 230.61539295965437 380 233.2473182991332 386.66666666666663 234.38583928683397 393.33333333333337 235.44978156443318 400 235.98081629199046 406.66666666666663 235.0239133300182 413.33333333333337 236.27275384441833 420 237.10994246509148 426.66666666666663 239.1760867314459 433.33333333333337 241.04014995095713 440 242.01074465535254 446.66666666666663 236.84731062296106 453.33333333333337 238.18587454880566 460 240.6023163653066 466.66666666666663 242.6985043758352 473.33333333333337 240.20796201405216 480 240.05523718179532 486.66666666666663 242.49392852028126 493.33333333333337 244.47760538452923 500 246.78131914613385 506.66666666666663 243.4888229903243 513.3333333333334 244.04378640642136 520 246.20498524794138 526.6666666666666 246.89560501795205 533.3333333333334 247.99731511340113 540 250.1182553664982 546.6666666666666 252.23283375463134 553.3333333333334 249.58178682637708 560 249.44275467158286 566.6666666666666 251.59490654347545 573.3333333333334 253.61505118157606 580 254.42278810248652 586.6666666666666 256.34014650867823 593.3333333333334 257.1593590770008 600 258.9193985346759 606.6666666666666 259.94540449208574 613.3333333333334 261.745964010166 620 260.112905671495 626.6666666666666 252.99223235934969 633.3333333333334 253.9917775515057 640 255.9968246142546 640 320 0 320"
      />
      
      <polygon
        fill="#22e4e8"
        fillRule="evenodd"
        points="0 319.92567426432373 6.666666666666666 319.85646900022437 13.333333333333332 319.82723292468245 20 318.6603030323245 26.666666666666664 318.5475301366324 33.333333333333336 318.4075980358009 40 318.26954455654857 46.66666666666667 316.01153600782146 53.33333333333333 316.01949881455147 60 310.27120141246985 66.66666666666667 309.37987244242726 73.33333333333333 306.936935089533 80 307.02226972350394 86.66666666666666 306.27910684683246 93.33333333333334 304.58411921803486 100 300.1563004234018 106.66666666666666 294.75365206878814 113.33333333333334 293.47877898585335 120 293.7809647767981 126.66666666666666 290.88386059894333 133.33333333333334 291.25492882902836 140 286.9785401246373 146.66666666666666 287.2959182833896 153.33333333333334 280.08963730573686 160 272.3565348782772 166.66666666666669 270.687364481498 173.33333333333331 264.64104435151785 180 259.7160487332341 186.66666666666669 258.48213883723014 193.33333333333331 256.4976270546272 200 254.7095739879535 206.66666666666669 249.75801964104585 213.33333333333331 243.8433228751764 220 243.3268192780916 226.66666666666669 241.83028778429116 233.33333333333331 242.76855164814964 240 241.70746946117904 246.66666666666669 237.21785331974164 253.33333333333331 234.04437618519228 260 235.730301020617 266.6666666666667 237.40442493818261 273.3333333333333 235.5605252805395 280 237.00508867587627 286.6666666666667 238.399372345847 293.3333333333333 240.81757509862155 300 242.5414939903565 306.6666666666667 244.59171938375556 313.3333333333333 243.76038137721355 320 239.79405033533624 326.66666666666663 239.8280789918423 333.33333333333337 237.43530929315008 340 235.77395965929685 346.66666666666663 232.0431562329868 353.33333333333337 232.2521022165999 360 229.63835545286418 366.66666666666663 229.05145057339695 373.33333333333337 230.6667687568276 380 233.29869409630646 386.66666666666663 234.4372150840072 393.33333333333337 235.50115736160643 400 236.0321920891637 406.66666666666663 235.0752891271914 413.33333333333337 236.32412964159155 420 237.1613182622647 426.66666666666663 239.22746252861913 433.33333333333337 241.09152574813038 440 242.06212045252576 446.66666666666663 236.89868642013428 453.33333333333337 238.23725034597888 460 240.65369216247984 466.66666666666663 242.74988017300842 473.33333333333337 240.2593378112254 480 240.10661297896854 486.66666666666663 242.5453043174545 493.33333333333337 244.52898118170242 500 246.83269494330708 506.66666666666663 243.5401987874975 513.3333333333334 244.0951622035946 520 246.2563610451146 526.6666666666666 246.9469808151253 533.3333333333334 248.04869091057435 540 250.16963116367143 546.6666666666666 252.28420955180457 553.3333333333334 249.63316262355033 560 249.49413046875608 566.6666666666666 251.64628234064867 573.3333333333334 253.66642697874929 580 254.47416389965974 586.6666666666666 256.3915223058515 593.3333333333334 257.21073487417397 600 258.97077433184916 606.6666666666666 259.996780289259 613.3333333333334 261.7973398073392 620 260.1642814686682 626.6666666666666 253.0436081565229 633.3333333333334 254.0431533486789 640 256.04820041142784 640 320 0 320"
      />
      
      <polygon
        fill="#e34c26"
        fillRule="evenodd"
        points="0 319.92567426432373 6.666666666666666 319.85646900022437 13.333333333333332 319.82723292468245 20 318.6603030323245 26.666666666666664 318.6387624963405 33.333333333333336 318.5126029931617 40 318.3713442981431 46.66666666666667 316.11052489015873 53.33333333333333 316.20707501478 60 311.64862362800966 66.66666666666667 310.7510472582792 73.33333333333333 308.267585601339 80 308.31230283831957 86.66666666666666 307.52976257089836 93.33333333333334 305.7978123165696 100 302.08576616298205 106.66666666666666 297.72661183025707 113.33333333333334 296.3609904914757 120 296.57519851781234 126.66666666666666 294.7044035686981 133.33333333333334 294.97529351536554 140 291.7197404622841 146.66666666666666 292.19422344550554 153.33333333333334 288.1167973592705 160 282.4760513353863 166.66666666666669 280.50909818705713 173.33333333333331 276.09420252209594 180 271.33209952008764 186.66666666666669 270.3321072249191 193.33333333333331 269.08200321526397 200 268.3241181107049 206.66666666666669 264.1112460030699 213.33333333333331 258.7341476338529 220 258.8780336712125 226.66666666666669 257.33907707162234 233.33333333333331 258.0372844406411 240 256.5238352770124 246.66666666666669 252.72249349769314 253.33333333333331 250.1933551710353 260 252.19006042368838 266.6666666666667 254.18868415135952 273.3333333333333 252.86781579683847 280 253.80099683730427 286.6666666666667 254.9077476382675 293.3333333333333 256.83305921308965 300 258.58292082736523 306.6666666666667 260.45211332426493 313.3333333333333 259.97210459662824 320 257.8643865214433 326.66666666666663 257.5420490158892 333.33333333333337 255.72565822058772 340 254.3230319637191 346.66666666666663 252.4440136606571 353.33333333333337 252.30170126396496 360 249.89598640565896 366.66666666666663 249.60731700126638 373.33333333333337 250.639882599909 380 252.68975920302103 386.66666666666663 254.04377083438516 393.33333333333337 254.88134723957535 400 255.76536143664316 406.66666666666663 254.20612760109606 413.33333333333337 254.90085651011623 420 255.17100018222902 426.66666666666663 256.7048809147094 433.33333333333337 258.1051162447292 440 258.556378703399 446.66666666666663 255.1694303433706 453.33333333333337 257.12072360413794 460 258.9790773285577 466.66666666666663 260.5158979896555 473.33333333333337 258.6005549429602 480 258.0206043941499 486.66666666666663 259.91248257300236 493.33333333333337 261.382892618139 500 263.1721445595901 506.66666666666663 261.8204359305355 513.3333333333334 263.55762733818864 520 265.20788462917744 526.6666666666666 265.5769679450635 533.3333333333334 267.22153526376377 540 268.7758354095822 546.6666666666666 270.33941453812815 553.3333333333334 268.4386392014729 560 268.9636258674353 566.6666666666666 270.5214789578831 573.3333333333334 271.98378313524495 580 273.4494498174311 586.6666666666666 274.82523642281694 593.3333333333334 276.2041698060548 600 277.54100524457925 606.6666666666666 278.7133787931037 613.3333333333334 279.97363446505227 620 278.9297414381725 626.6666666666666 275.72392647597786 633.3333333333334 277.03248475793947 640 278.3440428151572 640 320 0 320"
      />
      
      <polygon
        fill="#00ADD8"
        fillRule="evenodd"
        points="0 319.92567426432373 6.666666666666666 319.85646900022437 13.333333333333332 319.82723292468245 20 318.6603030323245 26.666666666666664 318.6387624963405 33.333333333333336 318.51536276360696 40 318.37401982820745 46.66666666666667 316.6121806763573 53.33333333333333 316.6934180391279 60 313.13944383884086 66.66666666666667 312.1963609457579 73.33333333333333 310.8820312814195 80 310.86396647224166 86.66666666666666 310.0035382357707 93.33333333333334 308.6617102000285 100 305.87144520852036 106.66666666666666 303.7931632662315 113.33333333333334 303.02444166000265 120 303.3152962106261 126.66666666666666 302.49018574188875 133.33333333333334 302.9132425796557 140 300.97568833732004 146.66666666666666 301.55638769864925 153.33333333333334 299.6311615720529 160 295.82119413546855 166.66666666666669 294.078451131099 173.33333333333331 290.7161376610432 180 287.7123898125755 186.66666666666669 287.346822851476 193.33333333333331 286.115835775949 200 284.9373041394225 206.66666666666669 282.3765204589391 213.33333333333331 277.9438510389663 220 278.0796628560421 226.66666666666669 276.0328195108207 233.33333333333331 276.21169257908196 240 274.14902278596423 246.66666666666669 270.30473392275593 253.33333333333331 268.08696580747807 260 269.6660598102607 266.6666666666667 271.14819237379 273.3333333333333 270.41254777990105 280 270.81019059318095 286.6666666666667 272.1628958304994 293.3333333333333 273.5615130078611 300 274.9228842016199 306.6666666666667 276.2933122394345 313.3333333333333 276.46435508134795 320 274.633255600819 326.66666666666663 273.79905178038456 333.33333333333337 272.044366400036 340 270.14361993657866 346.66666666666663 268.24948584647234 353.33333333333337 268.7286017346803 360 266.9323322703417 366.66666666666663 266.17325784690354 373.33333333333337 266.70015510683675 380 268.2753820225407 386.66666666666663 269.7729838694243 393.33333333333337 270.14568637389254 400 271.63100187355985 406.66666666666663 270.8758927677246 413.33333333333337 271.2113908002342 420 272.69783900265213 426.66666666666663 274.0958297240934 433.33333333333337 275.4691400263306 440 275.7089921071485 446.66666666666663 272.9524658790734 453.33333333333337 274.3609460997751 460 275.70976699802213 466.66666666666663 277.06170157783265 473.33333333333337 276.4936292160804 480 276.69948792528976 486.66666666666663 278.02120264469346 493.33333333333337 279.0984902274403 500 280.34698107816484 506.66666666666663 279.2673638085194 513.3333333333334 280.4775268760304 520 281.61131971829184 526.6666666666666 281.5274719512669 533.3333333333334 282.6851662528956 540 283.78244374731617 546.6666666666666 284.8879511306859 553.3333333333334 282.610079497811 560 282.84179564573765 566.6666666666666 283.9760203529501 573.3333333333334 285.04067894273896 580 286.10779479580606 586.6666666666666 287.10946901127204 593.3333333333334 288.11343100126135 600 289.08674198515394 606.6666666666666 289.9403159710208 613.3333333333334 290.85788274563265 620 291.7191486439262 626.6666666666666 290.3472302661618 633.3333333333334 291.22361123223845 640 292.1019870629785 640 320 0 320"
      />
      
      <polygon
        fill="#244776"
        fillRule="evenodd"
        points="0 319.92567426432373 6.666666666666666 319.85646900022437 13.333333333333332 319.82723292468245 20 318.6603030323245 26.666666666666664 318.6387624963405 33.333333333333336 318.51536276360696 40 318.37401982820745 46.66666666666667 316.6121806763573 53.33333333333333 316.6934180391279 60 313.13944383884086 66.66666666666667 312.1963609457579 73.33333333333333 310.8820312814195 80 310.86396647224166 86.66666666666666 310.0035382357707 93.33333333333334 308.6617102000285 100 305.87144520852036 106.66666666666666 303.7931632662315 113.33333333333334 303.02444166000265 120 303.3152962106261 126.66666666666666 302.49018574188875 133.33333333333334 302.9132425796557 140 300.97568833732004 146.66666666666666 301.55638769864925 153.33333333333334 299.6311615720529 160 295.82119413546855 166.66666666666669 294.078451131099 173.33333333333331 290.7161376610432 180 287.7123898125755 186.66666666666669 287.346822851476 193.33333333333331 286.115835775949 200 284.9373041394225 206.66666666666669 282.3765204589391 213.33333333333331 277.9438510389663 220 278.0796628560421 226.66666666666669 276.0328195108207 233.33333333333331 276.21169257908196 240 274.14902278596423 246.66666666666669 270.30473392275593 253.33333333333331 268.08696580747807 260 269.6660598102607 266.6666666666667 271.14819237379 273.3333333333333 270.41254777990105 280 270.81019059318095 286.6666666666667 272.1628958304994 293.3333333333333 273.5615130078611 300 274.9228842016199 306.6666666666667 276.2933122394345 313.3333333333333 276.46435508134795 320 274.633255600819 326.66666666666663 273.79905178038456 333.33333333333337 272.044366400036 340 270.14361993657866 346.66666666666663 268.24948584647234 353.33333333333337 268.7286017346803 360 266.9323322703417 366.66666666666663 266.17325784690354 373.33333333333337 266.70015510683675 380 268.2753820225407 386.66666666666663 269.7729838694243 393.33333333333337 270.14568637389254 400 271.63100187355985 406.66666666666663 270.8758927677246 413.33333333333337 271.2113908002342 420 272.69783900265213 426.66666666666663 274.0958297240934 433.33333333333337 275.4691400263306 440 275.7089921071485 446.66666666666663 272.9524658790734 453.33333333333337 274.3609460997751 460 275.70976699802213 466.66666666666663 277.06170157783265 473.33333333333337 276.4936292160804 480 276.69948792528976 486.66666666666663 278.02120264469346 493.33333333333337 279.0984902274403 500 280.34698107816484 506.66666666666663 279.2673638085194 513.3333333333334 280.4775268760304 520 281.61131971829184 526.6666666666666 281.5274719512669 533.3333333333334 282.6851662528956 540 283.78244374731617 546.6666666666666 284.8879511306859 553.3333333333334 282.610079497811 560 282.84179564573765 566.6666666666666 283.9760203529501 573.3333333333334 285.04067894273896 580 286.10779479580606 586.6666666666666 287.10946901127204 593.3333333333334 288.11343100126135 600 289.08674198515394 606.6666666666666 289.9403159710208 613.3333333333334 290.85788274563265 620 291.7191486439262 626.6666666666666 290.402791474853 633.3333333333334 291.2775303574253 640 292.1542603398425 640 320 0 320"
      />
      
      <polygon
        fill="#563d7c"
        fillRule="evenodd"
        points="0 319.92567426432373 6.666666666666666 319.85646900022437 13.333333333333332 319.82723292468245 20 318.6603030323245 26.666666666666664 318.6387624963405 33.333333333333336 318.51536276360696 40 318.37401982820745 46.66666666666667 316.6121806763573 53.33333333333333 316.6934180391279 60 314.2496039171542 66.66666666666667 313.2726340620137 73.33333333333333 311.9264956893651 80 311.87654921824503 86.66666666666666 310.98521248018193 93.33333333333334 309.6143716070116 100 306.7950270922907 106.66666666666666 305.79142664406123 113.33333333333334 304.9617092253901 120 305.1934296169576 126.66666666666666 304.3146354474864 133.33333333333334 304.6820021541367 140 303.8118325013879 146.66666666666666 304.3059604591808 153.33333333333334 302.29947189842494 160 298.40805594454355 166.66666666666669 296.5863503949506 173.33333333333331 293.1499172678162 180 290.0718797083813 186.66666666666669 289.6365794530142 193.33333333333331 288.335698893484 200 287.0894069988046 206.66666666666669 284.4692003245336 213.33333333333331 279.97265311540013 220 280.0485046506015 226.66666666666669 277.9415635418723 233.33333333333331 278.0640248545699 240 275.9448137361279 246.66666666666669 273.17509570351194 253.33333333333331 271.62232203537906 260 273.09350158720576 266.6666666666667 274.4743378272193 273.3333333333333 273.6371645884598 280 273.93637774495465 286.6666666666667 275.2027638339009 293.3333333333333 276.50859087573326 300 277.78286262551245 306.6666666666667 279.0659915729995 313.3333333333333 279.1550894019121 320 277.24185687296466 326.66666666666663 276.32802683475893 333.33333333333337 274.4985990199184 340 272.522938424055 346.66666666666663 270.5584847390838 353.33333333333337 270.9671199179269 360 269.10252105435427 366.66666666666663 268.2835240588767 373.33333333333337 268.7460065498173 380 270.2607694953313 386.66666666666663 271.6977687601242 393.33333333333337 272.01358520766917 400 273.44188405313685 406.66666666666663 272.63149869960694 413.33333333333337 272.91511087602896 420 274.3495539277583 426.66666666666663 275.6987291135026 433.33333333333337 277.0231118808051 440 277.21552981836055 446.66666666666663 275.39026964928735 453.33333333333337 276.72433726811494 460 278.0033095848056 466.66666666666663 279.2852350850693 473.33333333333337 278.65144763289805 480 278.79143989858983 486.66666666666663 280.04929902317735 493.33333333333337 281.06664707987176 500 282.255061333917 506.66666666666663 281.1190516260076 513.3333333333334 282.27269299374893 520 283.3516895410129 526.6666666666666 283.21978731935036 533.3333333333334 284.32582459269213 540 285.3746131987342 546.6666666666666 286.43152061925196 553.3333333333334 284.10802964177395 560 284.2940216384712 566.6666666666666 285.38391807486346 573.3333333333334 286.40696689276376 580 287.4323776204627 586.6666666666666 288.3949045059987 593.3333333333334 289.35962930978866 600 290.2949008828172 606.6666666666666 291.115115433312 613.3333333333334 291.9968223125033 620 292.8244273536227 626.6666666666666 291.47433216092804 633.3333333333334 292.31740228286156 640 293.16239080788705 640 320 0 320"
      />
      
      <polygon
        fill="#178600"
        fillRule="evenodd"
        points="0 320 6.666666666666666 320 13.333333333333332 320 20 320 26.666666666666664 320 33.333333333333336 320 40 320 46.66666666666667 320 53.33333333333333 320 60 318.730328654878 66.66666666666667 318.76908471701194 73.33333333333333 318.8054638059636 80 318.84192628810916 86.66666666666666 318.87727576498474 93.33333333333334 318.91045733734705 100 318.9437149150637 106.66666666666666 318.974932966109 113.33333333333334 319.00622253226396 120 319.036556991524 126.66666666666666 319.06409559017703 133.33333333333334 319.0926635748525 140 319.1194793776903 146.66666666666666 319.146356790384 153.33333333333334 319.17158577979995 160 319.1856777807837 166.66666666666669 319.2105344908981 173.33333333333331 319.2338667372582 180 319.25725247609836 186.66666666666669 319.2792040081846 193.33333333333331 318.1941408423878 200 318.2492636511266 206.66666666666669 318.2976042484041 213.33333333333331 316.1388746715485 220 316.24748547005936 226.66666666666669 316.3620286935208 233.33333333333331 316.46954684185255 240 316.577312128319 246.66666666666669 316.24156050487454 253.33333333333331 315.63817868799276 260 315.77132081314426 266.6666666666667 315.89629726909305 273.3333333333333 316.0215601964869 280 316.1429997370551 286.6666666666667 316.2494980860881 293.3333333333333 316.36397998739807 300 316.47144059483696 306.6666666666667 316.5791478163775 313.3333333333333 316.68024908654166 320 315.97581200138444 326.66666666666663 316.09864793611985 333.33333333333337 314.31084479214906 340 314.4845030012189 346.66666666666663 313.52091149613875 353.33333333333337 313.7186819080959 360 313.91041576663685 366.66666666666663 312.976124289691 373.33333333333337 313.1905233312415 380 313.39177360061893 386.66666666666663 313.59348600556706 393.33333333333337 313.78282757066296 400 313.972602881064 406.66666666666663 314.15658580666246 413.33333333333337 314.32928482959915 420 314.50238013460967 426.66666666666663 314.6648596894758 433.33333333333337 314.82771171887146 440 314.9855927905352 446.66666666666663 313.2129034196774 453.33333333333337 313.4200758080205 460 313.61454203695826 466.66666666666663 313.8094543105671 473.33333333333337 313.19872637119903 480 313.4063312410027 486.66666666666663 313.60759983098944 493.33333333333337 313.79652343342497 500 313.9858808530918 506.66666666666663 314.16362528756565 513.3333333333334 314.3417769266079 520 314.5144910540289 526.6666666666666 314.66595512422316 533.3333333333334 314.8287738621022 540 314.9816065835331 546.6666666666666 315.13479009890716 553.3333333333334 315.27857862500366 560 315.42269729197284 566.6666666666666 315.56241685493325 573.3333333333334 315.69356744868315 580 315.82501875524906 586.6666666666666 315.94840830529967 593.3333333333334 316.0720804838856 600 316.1919780826533 606.6666666666666 316.2971237377722 613.3333333333334 316.4101521047533 620 316.5162477805633 626.6666666666666 316.62258759416136 633.3333333333334 316.7224050859058 640 316.82245174453107 640 320 0 320"
      />
      
      <polygon
        fill="#555555"
        fillRule="evenodd"
        points="0 320 6.666666666666666 320 13.333333333333332 320 20 320 26.666666666666664 320 33.333333333333336 320 40 320 46.66666666666667 320 53.33333333333333 320 60 318.730328654878 66.66666666666667 318.76908471701194 73.33333333333333 318.8054638059636 80 318.84192628810916 86.66666666666666 318.87727576498474 93.33333333333334 318.91045733734705 100 318.9437149150637 106.66666666666666 318.974932966109 113.33333333333334 319.00622253226396 120 319.036556991524 126.66666666666666 319.06409559017703 133.33333333333334 319.0926635748525 140 319.1194793776903 146.66666666666666 319.146356790384 153.33333333333334 319.17158577979995 160 319.1856777807837 166.66666666666669 319.2105344908981 173.33333333333331 319.2338667372582 180 319.25725247609836 186.66666666666669 319.2792040081846 193.33333333333331 318.1941408423878 200 318.2492636511266 206.66666666666669 318.2976042484041 213.33333333333331 317.24284930938535 220 317.31883267488223 226.66666666666669 317.40067366216897 233.33333333333331 317.47749528544773 240 317.55449345651584 246.66666666666669 317.1889138672454 253.33333333333331 316.55753357667487 260 316.66261290563966 266.6666666666667 316.761247654607 273.3333333333333 316.8601085598335 280 316.9559518562373 286.6666666666667 317.0400032769223 293.3333333333333 317.13035542537256 300 317.2151662317155 306.6666666666667 317.3001716495782 313.3333333333333 317.3799635029195 320 317.45993887060837 326.66666666666663 317.53747265491234 333.33333333333337 316.5057098853019 340 316.6123710750616 346.66666666666663 315.58589148417764 353.33333333333337 315.72062964984417 360 315.85125518294694 366.66666666666663 314.86337381747285 373.33333333333337 315.0201657941626 380 315.1673420094993 386.66666666666663 315.3148562364807 393.33333333333337 315.45332353493535 400 315.592107852884 406.66666666666663 315.7266562671812 413.33333333333337 315.85295277286264 420 315.97953900721456 426.66666666666663 316.0983618756812 433.33333333333337 316.21745703587277 440 316.332917009059 446.66666666666663 315.5852548352991 453.33333333333337 315.7200125237685 460 315.8465052849951 466.66666666666663 315.9732884222273 473.33333333333337 316.09229552430253 480 316.2115759456188 486.66666666666663 316.3272156724441 493.33333333333337 316.4357625594633 500 316.54455892735353 506.66666666666663 316.64668291496173 513.3333333333334 316.74904066244704 520 316.84827445320946 526.6666666666666 316.93529888852527 533.3333333333334 317.02884712531767 540 317.1166580213366 546.6666666666666 317.20467020772884 553.3333333333334 317.28728464736685 560 317.3700887664481 566.6666666666666 317.4503652990599 573.3333333333334 317.5257184890287 580 317.60124446607847 586.6666666666666 317.6721384320806 593.3333333333334 317.74319501275596 600 317.8120827127779 606.6666666666666 317.8724946392853 613.3333333333334 317.9374355683671 620 317.998393393545 626.6666666666666 318.0594913718976 633.3333333333334 318.11684204070497 640 318.1743243651302 640 320 0 320"
      />
      
      <polygon
        fill="#C1F12E"
        fillRule="evenodd"
        points="0 320 6.666666666666666 320 13.333333333333332 320 20 320 26.666666666666664 320 33.333333333333336 320 40 320 46.66666666666667 320 53.33333333333333 320 60 319.0077746053717 66.66666666666667 319.0380617680729 73.33333333333333 319.06649138745144 80 319.09498615134083 86.66666666666666 319.12261112298404 93.33333333333334 319.1485419263397 100 319.17453212011685 106.66666666666666 319.19892848253835 113.33333333333334 319.22338071100165 120 319.2470865621588 126.66666666666666 319.2686074725883 133.33333333333334 319.2909328560754 140 319.3118889101653 146.66666666666666 319.3328931342026 153.33333333333334 319.3526091306761 160 319.3611755002713 166.66666666666669 319.3806752457394 173.33333333333331 319.398979075676 180 319.4173248590886 186.66666666666669 319.43454554336853 193.33333333333331 319.4408447915109 200 319.45791267389495 206.66666666666669 319.4728805808447 213.33333333333331 319.48621079178304 220 319.5013955251472 226.66666666666669 319.51661515295274 233.33333333333331 319.5309013338994 240 319.5452203131551 246.66666666666669 319.30910742450635 253.33333333333331 318.61506602640395 260 318.65734039560476 266.6666666666667 318.6970219310738 273.3333333333333 318.7367945044555 280 318.7753530677499 286.6666666666667 318.809167692685 293.3333333333333 318.845517096701 300 318.8796372535018 306.6666666666667 318.913835604266 313.3333333333333 318.94593664086216 320 318.97811145310305 326.66666666666663 319.009303960102 333.33333333333337 319.0385834379174 340 319.0679301152755 346.66666666666663 319.09547699570703 353.33333333333337 319.12308696561746 360 319.1498543724543 366.66666666666663 319.17332817968594 373.33333333333337 319.19856184429943 380 319.2222479054995 386.66666666666663 319.24598838394394 393.33333333333337 319.2682728106455 400 319.290608335715 406.66666666666663 319.31226213478146 413.33333333333337 319.3325878386655 420 319.3529601609479 426.66666666666663 319.37208315742015 433.33333333333337 319.39124992607157 440 319.4098316887957 446.66666666666663 318.5742206236257 453.33333333333337 318.61774157516913 460 318.658593656801 466.66666666666663 318.6995393451353 473.33333333333337 318.7379736817522 480 318.7764962819886 486.66666666666663 318.81384309573093 493.33333333333337 318.8488992681805 500 318.88403599788 506.66666666666663 318.9170177183913 513.3333333333334 318.95007506407603 520 318.9821234918559 526.6666666666666 319.0102287244511 533.3333333333334 319.04044087848837 540 319.0688001130248 546.6666666666666 319.0972244920721 553.3333333333334 319.123905484818 560 319.1506478202658 566.6666666666666 319.17657379429653 573.3333333333334 319.20090979015635 580 319.22530153903125 586.6666666666666 319.2481973582695 593.3333333333334 319.27114574522346 600 319.29339357180714 606.6666666666666 319.3129040959174 613.3333333333334 319.3338773095236 620 319.35356413481946 626.6666666666666 319.3732962735685 633.3333333333334 319.3918181423883 640 319.41038258119363 640 320 0 320"
      />
      

      
        <g id="labels">
        
          
          <text x="0" y="330">
            Jul 2014
          </text>
          
        
          
        
          
        
          
        
          
        
          
        
          
        
          
        
          
        
          
        
          
        
          
        
          
        
          
          <text x="85.77319587628865" y="330">
            Aug 2015
          </text>
          
        
          
        
          
        
          
        
          
        
          
        
          
        
          
        
          
        
          
        
          
        
          
        
          
        
          
          <text x="171.5463917525773" y="330">
            Sep 2016
          </text>
          
        
          
        
          
        
          
        
          
        
          
        
          
        
          
        
          
        
          
        
          
        
          
        
          
        
          
          <text x="257.319587628866" y="330">
            Oct 2017
          </text>
          
        
          
        
          
        
          
        
          
        
          
        
          
        
          
        
          
        
          
        
          
        
          
        
          
        
          
          <text x="343.0927835051546" y="330">
            Nov 2018
          </text>
          
        
          
        
          
        
          
        
          
        
          
        
          
        
          
        
          
        
          
        
          
        
          
        
          
        
          
          <text x="428.8659793814433" y="330">
            Dec 2019
          </text>
          
        
          
        
          
        
          
        
          
        
          
        
          
        
          
        
          
        
          
        
          
        
          
        
          
        
          
          <text x="514.639175257732" y="330">
            Jan 2021
          </text>
          
        
          
        
          
        
          
        
          
        
          
        
          
        
          
        
          
        
          
        
          
        
          
        
          
        
          
          <text x="600.4123711340206" y="330">
            Feb 2022
          </text>
          
        
          
        
          
        
          
        
          
        
          
        
        </g>
      

      
        <text text-anchor="middle" y="370" x="320" id="legend">
          
          <tspan xml:space="preserve" fill="#C1F12E">   </tspan> Batchfile
          
          <tspan xml:space="preserve" fill="#555555">   </tspan> C
          
          <tspan xml:space="preserve" fill="#178600">   </tspan> C#
          
          <tspan xml:space="preserve" fill="#563d7c">   </tspan> CSS
          
          <tspan xml:space="preserve" fill="#244776">   </tspan> CoffeeScript
          
          <tspan xml:space="preserve" fill="#00ADD8">   </tspan> Go
          
          <tspan xml:space="preserve" fill="#e34c26">   </tspan> HTML
          
          <tspan xml:space="preserve" fill="#22e4e8">   </tspan> JSON
          
        </text>
      
        <text text-anchor="middle" y="400" x="320" id="legend">
          
          <tspan xml:space="preserve" fill="#22e8e8">   </tspan> JSon
          
          <tspan xml:space="preserve" fill="#f1e05a">   </tspan> JavaScript
          
          <tspan xml:space="preserve" fill="#2415b9">   </tspan> Less
          
          <tspan xml:space="preserve" fill="#755462">   </tspan> MySQL
          
          <tspan xml:space="preserve" fill="#4F5D95">   </tspan> PHP
          
          <tspan xml:space="preserve" fill="#fd2fdb">   </tspan> PLpgSQL
          
          <tspan xml:space="preserve" fill="#0298c3">   </tspan> Perl
          
          <tspan xml:space="preserve" fill="#3572A5">   </tspan> Python
          
        </text>
      
        <text text-anchor="middle" y="430" x="320" id="legend">
          
          <tspan xml:space="preserve" fill="#701516">   </tspan> Ruby
          
          <tspan xml:space="preserve" fill="#dea584">   </tspan> Rust
          
          <tspan xml:space="preserve" fill="#26c0b0">   </tspan> SCSS
          
          <tspan xml:space="preserve" fill="#0141ae">   </tspan> SQL
          
          <tspan xml:space="preserve" fill="#89e051">   </tspan> Shell
          
          <tspan xml:space="preserve" fill="#2770da">   </tspan> TSQL
          
          <tspan xml:space="preserve" fill="#2b7489">   </tspan> TypeScript
          
          <tspan xml:space="preserve" fill="#2c3e50">   </tspan> Vue
          
        </text>
      
        <text text-anchor="middle" y="460" x="320" id="legend">
          
          <tspan xml:space="preserve" fill="#4B6C4B">   </tspan> Yacc
          
        </text>
      

    </svg>