<svg
      xmlns="http://www.w3.org/2000/svg"
      viewBox="0 0 640 490"
      style="background-color: #292b3e"
    >
      <style>
        text {
          font-size: 12px;
          font-family: Open Sans, Helvetica Neue, Helvetica, Arial, sans-serif;
        }
        #labels text {
          dominant-baseline: hanging;
          font-size: 10px;
          fill: rgba(0,0,0,0.5);
        }
        #legend {
          font-weight: 600;
        }
        #legend tspan {
          font-size: 15px;
        }
        #branding-text {
          font-size: 9px;
          dominant-baseline: hanging;
          opacity: 0.5;
        }
        #branding-logo {
          opacity: 0.5;
        }
      </style>

      
      
      <polygon
        fill="#4B6C4B"
        fillRule="evenodd"
        points="0 313.61355117298064 6.597938144329897 304.2691162000183 13.195876288659793 297.2680471335309 19.79381443298969 285.9388288617104 26.391752577319586 278.8279987175599 32.98969072164948 274.98420653539006 39.58762886597938 267.0907558881441 46.18556701030927 257.0788270017687 52.78350515463917 246.22215670236042 59.381443298969074 230.99234186085334 65.97938144329896 221.54627085070575 72.57731958762886 206.62811448048416 79.17525773195877 198.27730940412738 85.77319587628865 192.17035118412218 92.37113402061854 182.12952608976966 98.96907216494846 170.61728717006827 105.56701030927834 156.9519459436906 112.16494845360825 154.8042038487979 118.76288659793815 149.88794362988114 125.36082474226804 142.52575921006186 131.95876288659792 138.28616812883985 138.55670103092785 123.78691298714858 145.15463917525773 127.17493056472654 151.75257731958763 110.77262206860826 158.35051546391753 93.05738275344109 164.9484536082474 88.01889161746826 171.5463917525773 78.10638051972182 178.1443298969072 68.78365445945497 184.74226804123708 65.9737856913475 191.340206185567 62.1335002766433 197.93814432989691 59.189134095444274 204.5360824742268 46.68383165313776 211.1340206185567 33.29404980593091 217.73195876288662 31.64654428909313 224.3298969072165 27.414766295525283 230.9278350515464 27.52885924081471 237.5257731958763 25.251140240060465 244.12371134020617 13.936153125176247 250.72164948453607 9.643204840717601 257.319587628866 9.88396712615156 263.91752577319585 12.937993005149735 270.5154639175258 8.24695501350044 277.1134020618557 10.710236466431752 283.7113402061856 10.15914663060994 290.30927835051546 11.455705656352734 296.9072164948454 14.195667532021105 303.50515463917526 17.693082360294113 310.10309278350513 18.06800679063076 316.70103092783506 12.038794097848665 323.29896907216494 13.322676427764407 329.8969072164948 11.29279410242043 336.49484536082474 7.029545640226615 343.0927835051546 1.9718258897754026 349.6907216494845 4.695652294647857 356.2886597938144 0.06669493862528952 362.8865979381443 0 369.48453608247416 3.134330161448304 376.08247422680415 11.12188061983727 382.680412371134 13.499918263613267 389.2783505154639 18.048064316618422 395.87628865979383 21.314756631779517 402.4742268041237 21.568538422169354 409.0721649484536 27.066573091037696 415.6701030927835 30.680894276819004 422.2680412371134 36.747997399679775 428.86597938144325 42.80371725098399 435.46391752577324 46.96051205943456 442.0618556701031 38.51492282009099 448.659793814433 42.63120720276953 455.2577319587629 50.61561214909659 461.8556701030928 58.06892053749789 468.45360824742266 55.54222913785168 475.0515463917526 58.407910469702585 481.64948453608247 64.84937072557386 488.24742268041234 68.96518040707011 494.8453608247423 76.40567324257307 501.44329896907215 74.31956932835016 508.041237113402 74.99078578511859 514.639175257732 75.05193676805928 521.2371134020618 74.49044115338046 527.8350515463917 78.43687368010876 534.4329896907217 85.33616719832597 541.0309278350516 88.56515639597524 547.6288659793814 82.02547777519322 554.2268041237114 83.0875150061847 560.8247422680413 90.29402592951965 567.4226804123712 89.48601480879057 574.020618556701 88.4614875884788 580.6185567010309 89.43506746200188 587.2164948453608 87.51996514859121 593.8144329896908 88.00647560100646 600.4123711340206 88.21714780733879 607.0103092783505 90.7652337231153 613.6082474226804 86.66756002941045 620.2061855670103 71.2674320924628 626.8041237113401 70.87689394020884 633.4020618556701 76.09282182307794 640 79.65089490030647 640 320 0 320"
      />
      
      <polygon
        fill="#2c3e50"
        fillRule="evenodd"
        points="0 313.61355117298064 6.597938144329897 304.2691162000183 13.195876288659793 297.2680471335309 19.79381443298969 285.9388288617104 26.391752577319586 278.8279987175599 32.98969072164948 274.98420653539006 39.58762886597938 267.0907558881441 46.18556701030927 257.0788270017687 52.78350515463917 246.22215670236042 59.381443298969074 230.99234186085334 65.97938144329896 221.54627085070575 72.57731958762886 206.62811448048416 79.17525773195877 198.27730940412738 85.77319587628865 192.17035118412218 92.37113402061854 182.12952608976966 98.96907216494846 170.61728717006827 105.56701030927834 156.9519459436906 112.16494845360825 154.8042038487979 118.76288659793815 149.88794362988114 125.36082474226804 142.52575921006186 131.95876288659792 138.28616812883985 138.55670103092785 123.78691298714858 145.15463917525773 127.17493056472654 151.75257731958763 110.77262206860826 158.35051546391753 93.05738275344109 164.9484536082474 88.01889161746826 171.5463917525773 78.10638051972182 178.1443298969072 68.78365445945497 184.74226804123708 65.9737856913475 191.340206185567 62.1335002766433 197.93814432989691 59.189134095444274 204.5360824742268 46.68383165313776 211.1340206185567 33.29404980593091 217.73195876288662 31.64654428909313 224.3298969072165 27.414766295525283 230.9278350515464 27.52885924081471 237.5257731958763 25.251140240060465 244.12371134020617 13.936153125176247 250.72164948453607 9.643204840717601 257.319587628866 9.88396712615156 263.91752577319585 12.937993005149735 270.5154639175258 8.24695501350044 277.1134020618557 10.710236466431752 283.7113402061856 10.15914663060994 290.30927835051546 11.455705656352734 296.9072164948454 14.195667532021105 303.50515463917526 17.693082360294113 310.10309278350513 18.06800679063076 316.70103092783506 12.038794097848665 323.29896907216494 13.322676427764407 329.8969072164948 11.29279410242043 336.49484536082474 7.029545640226615 343.0927835051546 1.9718258897754026 349.6907216494845 4.695652294647857 356.2886597938144 0.06669493862528952 362.8865979381443 0 369.48453608247416 3.134330161448304 376.08247422680415 11.12188061983727 382.680412371134 13.499918263613267 389.2783505154639 18.048064316618422 395.87628865979383 21.314756631779517 402.4742268041237 21.568538422169354 409.0721649484536 27.066573091037696 415.6701030927835 30.680894276819004 422.2680412371134 36.747997399679775 428.86597938144325 42.80371725098399 435.46391752577324 46.96051205943456 442.0618556701031 38.51492282009099 448.659793814433 42.63120720276953 455.2577319587629 50.61561214909659 461.8556701030928 58.06892053749789 468.45360824742266 56.642815991214945 475.0515463917526 59.47490258537232 481.64948453608247 65.88379346174565 488.24742268041234 69.96903135755929 494.8453608247423 77.3788822280383 501.44329896907215 75.26401557276583 508.041237113402 75.9064034247105 514.639175257732 75.9396056647605 521.2371134020618 75.3535999921672 527.8350515463917 79.27368515965838 534.4329896907217 86.14824716971725 541.0309278350516 89.35244807867514 547.6288659793814 82.78950146129426 554.2268041237114 83.82821733678216 560.8247422680413 91.01211875740876 567.4226804123712 90.18288477706051 574.020618556701 89.13708599287222 580.6185567010309 90.09069889845694 587.2164948453608 88.15558382072078 593.8144329896908 88.62269238761044 600.4123711340206 88.81634981298993 607.0103092783505 91.3461454716782 613.6082474226804 87.2313032189791 620.2061855670103 71.81396737945022 626.8041237113401 71.40727662462652 633.4020618556701 76.6070148938002 640 80.1582137144498 640 320 0 320"
      />
      
      <polygon
        fill="#2b7489"
        fillRule="evenodd"
        points="0 313.61355117298064 6.597938144329897 304.2691162000183 13.195876288659793 297.2680471335309 19.79381443298969 285.9388288617104 26.391752577319586 278.8279987175599 32.98969072164948 274.98420653539006 39.58762886597938 267.0907558881441 46.18556701030927 257.0788270017687 52.78350515463917 246.22215670236042 59.381443298969074 230.99234186085334 65.97938144329896 221.54627085070575 72.57731958762886 206.62811448048416 79.17525773195877 198.27730940412738 85.77319587628865 192.17035118412218 92.37113402061854 182.12952608976966 98.96907216494846 170.61728717006827 105.56701030927834 156.9519459436906 112.16494845360825 154.8042038487979 118.76288659793815 149.88794362988114 125.36082474226804 142.52575921006186 131.95876288659792 138.28616812883985 138.55670103092785 123.78691298714858 145.15463917525773 127.17493056472654 151.75257731958763 110.77262206860826 158.35051546391753 93.05738275344109 164.9484536082474 88.01889161746826 171.5463917525773 78.10638051972182 178.1443298969072 68.78365445945497 184.74226804123708 65.9737856913475 191.340206185567 62.1335002766433 197.93814432989691 59.189134095444274 204.5360824742268 46.68383165313776 211.1340206185567 33.29404980593091 217.73195876288662 31.64654428909313 224.3298969072165 27.414766295525283 230.9278350515464 27.52885924081471 237.5257731958763 25.251140240060465 244.12371134020617 13.936153125176247 250.72164948453607 9.643204840717601 257.319587628866 9.88396712615156 263.91752577319585 12.937993005149735 270.5154639175258 8.24695501350044 277.1134020618557 10.710236466431752 283.7113402061856 10.15914663060994 290.30927835051546 11.455705656352734 296.9072164948454 14.195667532021105 303.50515463917526 17.693082360294113 310.10309278350513 18.06800679063076 316.70103092783506 12.038794097848665 323.29896907216494 13.322676427764407 329.8969072164948 11.29279410242043 336.49484536082474 7.029545640226615 343.0927835051546 1.9718258897754026 349.6907216494845 4.695652294647857 356.2886597938144 0.06669493862528952 362.8865979381443 0 369.48453608247416 3.134330161448304 376.08247422680415 11.12188061983727 382.680412371134 13.499918263613267 389.2783505154639 18.048064316618422 395.87628865979383 21.314756631779517 402.4742268041237 21.568538422169354 409.0721649484536 27.066573091037696 415.6701030927835 30.680894276819004 422.2680412371134 36.747997399679775 428.86597938144325 42.80371725098399 435.46391752577324 46.96051205943456 442.0618556701031 38.51492282009099 448.659793814433 42.63120720276953 455.2577319587629 50.61561214909659 461.8556701030928 58.06892053749789 468.45360824742266 56.642815991214945 475.0515463917526 59.47490258537232 481.64948453608247 65.88379346174565 488.24742268041234 69.96903135755929 494.8453608247423 77.3788822280383 501.44329896907215 75.26401557276583 508.041237113402 75.9064034247105 514.639175257732 75.9396056647605 521.2371134020618 75.3535999921672 527.8350515463917 79.27368515965838 534.4329896907217 86.14824716971725 541.0309278350516 89.35244807867514 547.6288659793814 84.9996058231545 554.2268041237114 87.49748737939112 560.8247422680413 94.56938627022697 567.4226804123712 96.00374944187419 574.020618556701 96.87078056977663 580.6185567010309 100.59156079605356 587.2164948453608 100.44769531591987 593.8144329896908 101.47600793654121 600.4123711340206 102.08139204232708 607.0103092783505 104.23712050876492 613.6082474226804 99.74129177121097 620.2061855670103 84.61170767161062 626.8041237113401 84.30017208907844 633.4020618556701 89.10635838048694 640 92.49045535997698 640 320 0 320"
      />
      
      <polygon
        fill="#2770da"
        fillRule="evenodd"
        points="0 313.61355117298064 6.597938144329897 304.2691162000183 13.195876288659793 297.2680471335309 19.79381443298969 285.9388288617104 26.391752577319586 278.8279987175599 32.98969072164948 274.98420653539006 39.58762886597938 267.0907558881441 46.18556701030927 257.0788270017687 52.78350515463917 246.22215670236042 59.381443298969074 230.99234186085334 65.97938144329896 221.54627085070575 72.57731958762886 206.62811448048416 79.17525773195877 198.27730940412738 85.77319587628865 192.17035118412218 92.37113402061854 182.12952608976966 98.96907216494846 170.61728717006827 105.56701030927834 156.9519459436906 112.16494845360825 154.8042038487979 118.76288659793815 149.88794362988114 125.36082474226804 142.52575921006186 131.95876288659792 138.28616812883985 138.55670103092785 123.78691298714858 145.15463917525773 127.17493056472654 151.75257731958763 110.77262206860826 158.35051546391753 93.05738275344109 164.9484536082474 88.01889161746826 171.5463917525773 78.10638051972182 178.1443298969072 68.78365445945497 184.74226804123708 65.9737856913475 191.340206185567 62.1335002766433 197.93814432989691 59.189134095444274 204.5360824742268 46.68383165313776 211.1340206185567 33.29404980593091 217.73195876288662 31.64654428909313 224.3298969072165 27.414766295525283 230.9278350515464 27.52885924081471 237.5257731958763 25.251140240060465 244.12371134020617 14.574362062337912 250.72164948453607 11.080215016418208 257.319587628866 11.277113363958676 263.91752577319585 14.289965547400243 270.5154639175258 9.557659328724299 277.1134020618557 11.98093218646784 283.7113402061856 11.394756481763295 290.30927835051546 12.653599197716517 296.9072164948454 15.358158010319414 303.50515463917526 18.820088499012968 310.10309278350513 19.161704868614265 316.70103092783506 13.099107667907901 323.29896907216494 14.350624580247654 329.8969072164948 12.29036168994486 336.49484536082474 7.996663099960358 343.0927835051546 2.9103606292592303 349.6907216494845 5.605538861113871 356.2886597938144 0.9488077481718165 362.8865979381443 0.8577561597677459 369.48453608247416 3.965903775542074 376.08247422680415 11.928877592981053 382.680412371134 14.282282082428196 389.2783505154639 18.807305840600407 395.87628865979383 22.05082268697663 402.4742268041237 22.28213652525949 409.0721649484536 27.759081212875117 415.6701030927835 31.352263970025263 422.2680412371134 37.39952510171622 428.86597938144325 43.43535747371823 435.46391752577324 47.57287181820652 442.0618556701031 40.23046401282545 448.659793814433 44.294382482143305 455.2577319587629 52.2296333245576 461.8556701030928 59.633674582288336 468.45360824742266 58.16132441882354 475.0515463917526 60.947059458901606 481.64948453608247 67.3110135679475 488.24742268041234 71.35407080254481 494.8453608247423 78.7216442198023 501.44329896907215 76.56709294513038 508.041237113402 77.16970503700821 514.639175257732 77.16434562987246 521.2371134020618 76.54452296787923 527.8350515463917 80.4282559557949 534.4329896907217 87.26869518769846 541.0309278350516 90.43869512453497 547.6288659793814 86.05374946801305 554.2268041237114 88.51945384760111 560.8247422680413 95.56015766156136 567.4226804123712 96.96523919658955 574.020618556701 97.8029213855763 580.6185567010309 101.49615267543001 587.2164948453608 101.32467506664045 593.8144329896908 102.32621837858778 600.4123711340206 102.90812687817129 607.0103092783505 105.03861965491006 613.6082474226804 100.5191030160772 620.2061855670103 85.37687388355451 626.8041237113401 85.30640656838472 633.4020618556701 90.0818779411347 640 93.45293337956119 640 320 0 320"
      />
      
      <polygon
        fill="#89e051"
        fillRule="evenodd"
        points="0 313.61355117298064 6.597938144329897 304.9098457263535 13.195876288659793 298.3344775062147 19.79381443298969 288.07682790623556 26.391752577319586 281.27134283611366 32.98969072164948 277.3529690230986 39.58762886597938 269.99995201607624 46.18556701030927 260.0717442069267 52.78350515463917 250.17320460974605 59.381443298969074 235.18161349118986 65.97938144329896 226.7874893994888 72.57731958762886 213.3278947361233 79.17525773195877 205.81367672982626 85.77319587628865 200.42204174031423 92.37113402061854 190.45087452298586 98.96907216494846 178.6846326256948 105.56701030927834 164.78086350894117 112.16494845360825 162.39414894020345 118.76288659793815 158.35640563591224 125.36082474226804 150.82955664283628 131.95876288659792 146.4702753627699 138.55670103092785 132.58696981242736 145.15463917525773 135.70637210767458 151.75257731958763 119.05192043788912 158.35051546391753 102.4345470110205 164.9484536082474 97.17059420881401 171.5463917525773 87.08407430749548 178.1443298969072 77.51836640603258 184.74226804123708 74.59630830572931 191.340206185567 71.2927561379527 197.93814432989691 68.12746950014187 204.5360824742268 55.436697752036935 211.1340206185567 42.60291250757882 217.73195876288662 40.816431858239866 224.3298969072165 36.30474875051914 230.9278350515464 36.65723721943124 237.5257731958763 34.26573973026768 244.12371134020617 23.330635404224324 250.72164948453607 19.76863901215563 257.319587628866 20.331953051455343 263.91752577319585 23.771779224919555 270.5154639175258 19.35791870350465 277.1134020618557 21.657257721409508 283.7113402061856 22.197789251025426 290.30927835051546 24.03351745582779 296.9072164948454 26.40174665555054 303.50515463917526 29.52657792189558 310.10309278350513 29.794843008285284 316.70103092783506 23.46949455894179 323.29896907216494 24.701116706891128 329.8969072164948 22.404310390518276 336.49484536082474 17.80189256953247 343.0927835051546 12.43144946106031 349.6907216494845 14.835997469722201 356.2886597938144 10.202374163637728 362.8865979381443 9.855813259218394 369.48453608247416 12.717454653987772 376.08247422680415 20.455657295931132 382.680412371134 22.802403481832698 389.2783505154639 27.111452628807797 395.87628865979383 30.80878834768089 402.4742268041237 30.772769654581566 409.0721649484536 35.9987801438312 415.6701030927835 39.34044856709346 422.2680412371134 45.23247463966936 428.86597938144325 51.02920918087699 435.46391752577324 55.06971676927907 442.0618556701031 47.5378555676416 448.659793814433 51.37871778563323 455.2577319587629 59.104595807017176 461.8556701030928 66.2987843937552 468.45360824742266 64.91787287728499 475.0515463917526 67.49736717054066 481.64948453608247 73.66137673967867 488.24742268041234 78.63274585453055 494.8453608247423 85.77814267689163 501.44329896907215 83.41503894994719 508.041237113402 83.84706283894786 514.639175257732 83.63787919706976 521.2371134020618 82.83931293787197 527.8350515463917 87.04908804868342 534.4329896907217 93.69385083655374 541.0309278350516 96.66772818191887 547.6288659793814 92.09868731671762 554.2268041237114 94.37987479506842 560.8247422680413 101.24169187884826 567.4226804123712 102.47885860207407 574.020618556701 103.1482398387536 580.6185567010309 106.68349270457927 587.2164948453608 106.35367478063375 593.8144329896908 107.20171008232401 600.4123711340206 107.6489988841393 607.0103092783505 109.63477929015505 613.6082474226804 105.64583542619602 620.2061855670103 90.34711561003166 626.8041237113401 90.12975666549852 633.4020618556701 94.75799753411513 640 98.06653828385367 640 320 0 320"
      />
      
      <polygon
        fill="#0141ae"
        fillRule="evenodd"
        points="0 313.695789290852 6.597938144329897 304.9895735785044 13.195876288659793 298.4118490381716 19.79381443298969 288.15460029786385 26.391752577319586 281.3468167073769 32.98969072164948 277.4261390935921 39.58762886597938 270.07088861618627 46.18556701030927 260.1686749227204 52.78350515463917 250.6255597857305 59.381443298969074 236.59145953520152 65.97938144329896 228.1653272932305 72.57731958762886 215.56293146496557 79.17525773195877 209.3478888391018 85.77319587628865 203.84837350840465 92.37113402061854 193.8095519674601 98.96907216494846 182.16689208853643 105.56701030927834 169.2001731561798 112.16494845360825 166.68966541454094 118.76288659793815 162.52080459794516 125.36082474226804 154.87492219423874 131.95876288659792 151.5032335820733 138.55670103092785 138.33051616033669 145.15463917525773 141.27459977464144 151.75257731958763 124.45558155662371 158.35051546391753 107.98217873669262 164.9484536082474 102.61891785086118 171.5463917525773 92.52516392879389 178.1443298969072 83.0157235216166 184.74226804123708 79.93119541668511 191.340206185567 76.46479892020903 197.93814432989691 73.61546625340958 204.5360824742268 61.01120785720423 211.1340206185567 50.2110970351323 217.73195876288662 49.306869348519456 224.3298969072165 44.53601937890369 230.9278350515464 46.72639547095264 237.5257731958763 45.535838108031385 244.12371134020617 38.061763120672595 250.72164948453607 34.37989876949507 257.319587628866 35.18794348218756 263.91752577319585 40.45924804511634 270.5154639175258 36.76698939058588 277.1134020618557 38.53492694197956 283.7113402061856 38.69017183236747 290.30927835051546 40.022480913322056 296.9072164948454 41.96024462372452 303.50515463917526 45.10748190351342 310.10309278350513 44.91803896942463 316.70103092783506 38.14223778993238 323.29896907216494 38.92598113526088 329.8969072164948 36.36870979330479 336.49484536082474 33.69982324884393 343.0927835051546 28.41729543507347 349.6907216494845 30.37288574933632 356.2886597938144 26.293949476885018 362.8865979381443 25.536684270458693 369.48453608247416 28.08399208691594 376.08247422680415 35.368049106281035 382.680412371134 37.588842383444614 389.2783505154639 41.46087870927954 395.87628865979383 45.374474688792134 402.4742268041237 45.02188346006187 409.0721649484536 49.82677885540261 415.6701030927835 53.200636271747214 422.2680412371134 58.85801468523488 428.86597938144325 64.62542186536237 435.46391752577324 68.63087369110002 442.0618556701031 63.21851388307408 448.659793814433 66.93877449554776 455.2577319587629 74.20479082296077 461.8556701030928 80.93805526420533 468.45360824742266 80.26641953293225 475.0515463917526 82.74331430062665 481.64948453608247 88.44194749753302 488.24742268041234 93.40762211882782 494.8453608247423 100.10201751750714 501.44329896907215 98.3449386050678 508.041237113402 99.9404250024831 514.639175257732 99.86316619221444 521.2371134020618 98.67435861173661 527.8350515463917 102.40077993074323 534.4329896907217 108.59182557019864 541.0309278350516 111.11095516862156 547.6288659793814 106.11504923009142 554.2268041237114 107.96839343990109 560.8247422680413 114.4154310933001 567.4226804123712 115.26325865427569 574.020618556701 115.68609976192295 580.6185567010309 118.85080365021116 587.2164948453608 118.14958699301337 593.8144329896908 118.6375580902185 600.4123711340206 118.79932280674831 607.0103092783505 120.44475292985709 613.6082474226804 116.14461249387074 620.2061855670103 101.0008112618998 626.8041237113401 100.55560948560259 633.4020618556701 104.86560584458692 640 108.03902166695022 640 320 0 320"
      />
      
      <polygon
        fill="#26c0b0"
        fillRule="evenodd"
        points="0 313.695789290852 6.597938144329897 305.07507468331215 13.195876288659793 298.5224221185575 19.79381443298969 288.39204038575315 26.391752577319586 281.72966583209825 32.98969072164948 277.8556676527418 39.58762886597938 270.54541720682226 46.18556701030927 260.8000809951133 52.78350515463917 251.72755844604924 59.381443298969074 237.7909440823076 65.97938144329896 230.20548451943307 72.57731958762886 218.21682357457516 79.17525773195877 212.42852498065793 85.77319587628865 207.4760525812178 92.37113402061854 198.3098253527943 98.96907216494846 186.52979655434825 105.56701030927834 173.80648105299397 112.16494845360825 171.15536699723688 118.76288659793815 166.87829487655907 125.36082474226804 159.35262824612042 131.95876288659792 156.04887816849103 138.55670103092785 143.12364701250036 145.15463917525773 145.92424726794493 151.75257731958763 128.96781111789264 158.35051546391753 112.62435999063598 164.9484536082474 107.34720730715352 171.5463917525773 97.39189708632293 178.1443298969072 88.07434888457877 184.74226804123708 84.90348241371902 191.340206185567 81.47889965250303 197.93814432989691 78.54015984055164 204.5360824742268 65.83891256703811 211.1340206185567 55.25788664703259 217.73195876288662 54.274678430915685 224.3298969072165 49.445985990521365 230.9278350515464 52.03135946706362 237.5257731958763 50.756840588177226 244.12371134020617 43.287581259958415 250.72164948453607 39.624319263572715 257.319587628866 40.27228099400844 263.91752577319585 46.01550473991841 270.5154639175258 42.22616432063529 277.1134020618557 45.294920147761445 283.7113402061856 46.226373727993746 290.30927835051546 47.342399531951 296.9072164948454 49.12234891262733 303.50515463917526 52.19638451553112 310.10309278350513 51.848072198308785 316.70103092783506 44.8991633467582 323.29896907216494 45.54043440895009 329.8969072164948 42.90209678280371 336.49484536082474 40.52987198033395 343.0927835051546 35.111703323414986 349.6907216494845 37.18676035179675 356.2886597938144 32.91358451365767 362.8865979381443 31.973538188737848 369.48453608247416 34.32999868076132 376.08247422680415 41.451403516915036 382.680412371134 43.65077740147808 389.2783505154639 47.72243059237513 395.87628865979383 51.450467461192716 402.4742268041237 51.04925212129183 409.0721649484536 55.676011181371734 415.6701030927835 59.07764523168055 422.2680412371134 64.64970118428866 428.86597938144325 70.2403206438781 435.46391752577324 74.11935471264871 442.0618556701031 68.67700243244929 448.659793814433 72.31802430065343 455.2577319587629 79.43595420312235 461.8556701030928 86.08163996390002 468.45360824742266 85.88902468129245 475.0515463917526 88.95222890339139 481.64948453608247 94.47249837575075 488.24742268041234 100.00818234896144 494.8453608247423 106.58860053764107 501.44329896907215 104.6398152974092 508.041237113402 106.09862830086851 514.639175257732 105.83339407332804 521.2371134020618 104.49633350756588 527.8350515463917 108.04503823158922 534.4329896907217 114.08036690693535 541.0309278350516 116.43196156621349 547.6288659793814 111.2787968758472 554.2268041237114 112.97452116195399 560.8247422680413 119.26874920770706 567.4226804123712 119.97314016179953 574.020618556701 120.25221246664759 580.6185567010309 123.28196867406695 587.2164948453608 122.6886642110496 593.8144329896908 123.03808310133064 600.4123711340206 123.07834138177111 607.0103092783505 124.59598078106143 613.6082474226804 120.75472774839452 620.2061855670103 105.47020429850281 626.8041237113401 104.89291349354272 633.4020618556701 109.07051616537626 640 112.18771710227205 640 320 0 320"
      />
      
      <polygon
        fill="#dea584"
        fillRule="evenodd"
        points="0 313.695789290852 6.597938144329897 305.07507468331215 13.195876288659793 298.5224221185575 19.79381443298969 288.39204038575315 26.391752577319586 281.72966583209825 32.98969072164948 277.8556676527418 39.58762886597938 270.54541720682226 46.18556701030927 260.8000809951133 52.78350515463917 251.72755844604924 59.381443298969074 237.7909440823076 65.97938144329896 230.20548451943307 72.57731958762886 218.60521801808375 79.17525773195877 212.8050639139723 85.77319587628865 207.84109789546588 92.37113402061854 198.66408193421302 98.96907216494846 187.99623828124933 105.56701030927834 176.33193407620217 112.16494845360825 173.6037320726233 118.76288659793815 169.251924810213 125.36082474226804 162.7599698748885 131.95876288659792 159.352212883061 138.55670103092785 148.55734406733436 145.15463917525773 151.19208433743196 151.75257731958763 136.32720422890327 158.35051546391753 123.0744559200032 164.9484536082474 117.4783216896765 171.5463917525773 107.22359331248882 178.1443298969072 98.72211885179445 184.74226804123708 95.23656328209384 191.340206185567 91.49656661226527 197.93814432989691 88.25204297696206 204.5360824742268 76.38146078791345 211.1340206185567 66.58273724126727 217.73195876288662 65.26482802509742 224.3298969072165 60.100665488939626 230.9278350515464 62.37114693223509 237.5257731958763 60.78101213509456 244.12371134020617 53.00577087844323 250.72164948453607 49.05529196419616 257.319587628866 49.415379577550254 263.91752577319585 54.88838419143741 270.5154639175258 51.93116371649421 277.1134020618557 54.70367949418721 283.7113402061856 55.37534158556065 290.30927835051546 56.21209933527223 296.9072164948454 57.7299102778415 303.50515463917526 60.541206551293556 310.10309278350513 61.06429560054033 316.70103092783506 54.08988482990043 323.29896907216494 54.450614231790325 329.8969072164948 51.548941727930696 336.49484536082474 48.91277684083582 343.0927835051546 43.246855586029085 349.6907216494845 45.07359282770244 356.2886597938144 41.66894336632254 362.8865979381443 40.48714513683382 369.48453608247416 42.58373450751009 376.08247422680415 49.461203967638994 382.680412371134 51.47795332714384 389.2783505154639 55.318279276839576 395.87628865979383 58.8144566511786 402.4742268041237 58.188459860622345 409.0721649484536 62.60422467945659 415.6701030927835 65.79437847346153 422.2680412371134 71.16792378471081 428.86597938144325 76.55957844087865 435.46391752577324 80.2457211476779 442.0618556701031 74.62825681999942 448.659793814433 78.08761900064985 455.2577319587629 85.03503262636013 461.8556701030928 91.50980754424319 468.45360824742266 91.15676752756414 475.0515463917526 94.05917649332952 481.64948453608247 99.42355843392704 488.24742268041234 104.81291745283696 494.8453608247423 111.24667263445858 501.44329896907215 109.16022183084107 508.041237113402 110.48105156297399 514.639175257732 110.08204708512534 521.2371134020618 108.62767378699161 527.8350515463917 112.05027188588645 534.4329896907217 117.96722835713481 541.0309278350516 120.20017882883548 547.6288659793814 116.05401216489966 554.2268041237114 117.60397560297821 560.8247422680413 123.75689204764487 567.4226804123712 124.68681361429327 574.020618556701 124.82200419233595 580.6185567010309 127.7167032884347 587.2164948453608 126.98803047950659 593.8144329896908 127.20621400140027 600.4123711340206 127.15634166268774 607.0103092783505 128.54950243316716 613.6082474226804 124.59140418789923 620.2061855670103 109.18976898776151 626.8041237113401 108.50254897475367 633.4020618556701 112.56996946410527 640 115.64038554343335 640 320 0 320"
      />
      
      <polygon
        fill="#701516"
        fillRule="evenodd"
        points="0 313.695789290852 6.597938144329897 305.07507468331215 13.195876288659793 298.5224221185575 19.79381443298969 288.39204038575315 26.391752577319586 281.72966583209825 32.98969072164948 277.8556676527418 39.58762886597938 270.54541720682226 46.18556701030927 260.8000809951133 52.78350515463917 251.72755844604924 59.381443298969074 237.7909440823076 65.97938144329896 230.20548451943307 72.57731958762886 218.60521801808375 79.17525773195877 212.8050639139723 85.77319587628865 207.84109789546588 92.37113402061854 198.66408193421302 98.96907216494846 187.99623828124933 105.56701030927834 176.33193407620217 112.16494845360825 173.6037320726233 118.76288659793815 169.251924810213 125.36082474226804 162.7599698748885 131.95876288659792 159.352212883061 138.55670103092785 148.55734406733436 145.15463917525773 151.19208433743196 151.75257731958763 136.32720422890327 158.35051546391753 123.0744559200032 164.9484536082474 117.4783216896765 171.5463917525773 107.22359331248882 178.1443298969072 98.72211885179445 184.74226804123708 95.23656328209384 191.340206185567 91.49656661226527 197.93814432989691 88.25204297696206 204.5360824742268 76.38146078791345 211.1340206185567 66.58273724126727 217.73195876288662 65.26482802509742 224.3298969072165 60.100665488939626 230.9278350515464 62.37114693223509 237.5257731958763 60.78101213509456 244.12371134020617 53.00577087844323 250.72164948453607 49.05529196419616 257.319587628866 49.415379577550254 263.91752577319585 54.88838419143741 270.5154639175258 51.93116371649421 277.1134020618557 54.70367949418721 283.7113402061856 55.37534158556065 290.30927835051546 56.21209933527223 296.9072164948454 57.7299102778415 303.50515463917526 60.541206551293556 310.10309278350513 61.06429560054033 316.70103092783506 54.08988482990043 323.29896907216494 54.450614231790325 329.8969072164948 51.548941727930696 336.49484536082474 48.91277684083582 343.0927835051546 43.246855586029085 349.6907216494845 45.07359282770244 356.2886597938144 41.66894336632254 362.8865979381443 40.48714513683382 369.48453608247416 42.58373450751009 376.08247422680415 49.461203967638994 382.680412371134 51.47795332714384 389.2783505154639 55.318279276839576 395.87628865979383 58.8144566511786 402.4742268041237 58.188459860622345 409.0721649484536 62.60422467945659 415.6701030927835 65.79437847346153 422.2680412371134 71.16792378471081 428.86597938144325 76.55957844087865 435.46391752577324 80.2457211476779 442.0618556701031 74.62825681999942 448.659793814433 78.08761900064985 455.2577319587629 85.03503262636013 461.8556701030928 91.50980754424319 468.45360824742266 91.15676752756414 475.0515463917526 94.05917649332952 481.64948453608247 99.42355843392704 488.24742268041234 104.81291745283696 494.8453608247423 111.24667263445858 501.44329896907215 109.16022183084107 508.041237113402 110.48105156297399 514.639175257732 110.08204708512534 521.2371134020618 108.62767378699161 527.8350515463917 112.05027188588645 534.4329896907217 117.96722835713481 541.0309278350516 120.20017882883548 547.6288659793814 116.05401216489966 554.2268041237114 117.60397560297821 560.8247422680413 123.75689204764487 567.4226804123712 124.68681361429327 574.020618556701 124.82200419233595 580.6185567010309 127.7167032884347 587.2164948453608 126.98803047950659 593.8144329896908 127.20621400140027 600.4123711340206 127.15634166268774 607.0103092783505 128.54950243316716 613.6082474226804 124.59140418789923 620.2061855670103 109.20932521851734 626.8041237113401 108.5215272308537 633.4020618556701 112.58836842108141 640 115.6585385243867 640 320 0 320"
      />
      
      <polygon
        fill="#3572A5"
        fillRule="evenodd"
        points="0 313.695789290852 6.597938144329897 305.07507468331215 13.195876288659793 298.5224221185575 19.79381443298969 288.39204038575315 26.391752577319586 281.72966583209825 32.98969072164948 277.8556676527418 39.58762886597938 270.54541720682226 46.18556701030927 260.8000809951133 52.78350515463917 251.72755844604924 59.381443298969074 237.7909440823076 65.97938144329896 230.20548451943307 72.57731958762886 218.60521801808375 79.17525773195877 212.8050639139723 85.77319587628865 207.84109789546588 92.37113402061854 198.66408193421302 98.96907216494846 187.99623828124933 105.56701030927834 176.33193407620217 112.16494845360825 173.6037320726233 118.76288659793815 169.251924810213 125.36082474226804 163.42159768909534 131.95876288659792 159.99364487069542 138.55670103092785 149.21623804170127 145.15463917525773 151.8308659503495 151.75257731958763 137.94834948090323 158.35051546391753 125.44002488804821 164.9484536082474 119.77168299979485 171.5463917525773 109.44917566130269 178.1443298969072 100.87976657063297 184.74226804123708 97.3304425372466 191.340206185567 93.52653149646312 197.93814432989691 90.2200445375465 204.5360824742268 78.29512247418938 211.1340206185567 68.47385656272894 217.73195876288662 67.10005633412834 224.3298969072165 61.8798743460423 230.9278350515464 64.09777235084425 237.5257731958763 62.4549331765794 244.12371134020617 54.628596632827225 250.72164948453607 50.630155738706605 257.319587628866 50.942171427977314 263.91752577319585 56.3700527803868 270.5154639175258 53.40343875436116 277.1134020618557 56.13101406566915 283.7113402061856 56.76326516514837 290.30927835051546 57.55765740351899 296.9072164948454 59.03570101165246 303.50515463917526 61.80713870724975 310.10309278350513 62.292813947411275 316.70103092783506 55.2809033645986 323.29896907216494 55.60527750436495 329.8969072164948 52.66947955080843 336.49484536082474 49.99911102005069 343.0927835051546 44.30108369270113 349.6907216494845 46.09564118893604 356.2886597938144 42.65979423601789 362.8865979381443 41.45063705781058 369.48453608247416 43.51781630099458 376.08247422680415 50.367679592060256 382.680412371134 52.37909080054965 389.2783505154639 56.19278404982089 395.87628865979383 59.66226768928618 402.4742268041237 59.010391942927185 409.0721649484536 63.4018650920932 415.6701030927835 66.56767131956059 422.2680412371134 71.91836237379528 428.86597938144325 77.28711030798263 435.46391752577324 80.95104557907618 442.0618556701031 75.31342050422086 448.659793814433 78.7518684191262 455.2577319587629 85.67965060196599 461.8556701030928 92.13474882517482 468.45360824742266 91.76323900326537 475.0515463917526 94.64713579931646 481.64948453608247 99.9935705806864 488.24742268041234 105.36608329016346 494.8453608247423 111.78295339417429 501.44329896907215 109.6806530949257 508.041237113402 110.98559694708672 514.639175257732 110.57119150488222 521.2371134020618 109.10331212571069 527.8350515463917 112.5113916704224 534.4329896907217 118.41471995063398 541.0309278350516 120.63401103591272 547.6288659793814 116.4750226576819 554.2268041237114 118.01213497395815 560.8247422680413 124.1525926024234 567.4226804123712 125.07081945485314 574.020618556701 125.19428851078533 580.6185567010309 128.0779849144023 587.2164948453608 127.33828416692486 593.8144329896908 127.54577643643015 600.4123711340206 127.48652816853422 607.0103092783505 128.86961024027624 613.6082474226804 124.90205136768276 620.2061855670103 109.52990629948647 626.8041237113401 108.83263377193094 633.4020618556701 112.88997855672673 640 115.95611647155107 640 320 0 320"
      />
      
      <polygon
        fill="#0298c3"
        fillRule="evenodd"
        points="0 313.695789290852 6.597938144329897 305.07507468331215 13.195876288659793 298.5224221185575 19.79381443298969 288.39204038575315 26.391752577319586 281.72966583209825 32.98969072164948 277.8556676527418 39.58762886597938 270.54541720682226 46.18556701030927 260.8000809951133 52.78350515463917 251.72755844604924 59.381443298969074 237.7909440823076 65.97938144329896 230.20548451943307 72.57731958762886 218.60521801808375 79.17525773195877 212.8050639139723 85.77319587628865 207.84109789546588 92.37113402061854 198.66408193421302 98.96907216494846 187.99623828124933 105.56701030927834 176.33193407620217 112.16494845360825 173.6037320726233 118.76288659793815 169.251924810213 125.36082474226804 163.42159768909534 131.95876288659792 159.99364487069542 138.55670103092785 149.21623804170127 145.15463917525773 151.8308659503495 151.75257731958763 137.94834948090323 158.35051546391753 126.07813618036633 164.9484536082474 120.39031630875402 171.5463917525773 110.04952560780589 178.1443298969072 101.46179118065243 184.74226804123708 97.89526573858583 191.340206185567 94.07411377085765 197.93814432989691 90.7509122095064 204.5360824742268 78.81133201419547 211.1340206185567 68.97430904244146 217.73195876288662 67.69019242244224 224.3298969072165 62.45199688732117 230.9278350515464 64.6529860891684 237.5257731958763 62.993199343770925 244.12371134020617 55.15043254208098 250.72164948453607 51.13656911604414 257.319587628866 51.43312678299674 263.91752577319585 56.84649823290755 270.5154639175258 53.86534099231528 277.1134020618557 56.57881697595968 283.7113402061856 57.19870350300312 290.30927835051546 57.97980425704816 296.9072164948454 59.44537150928244 303.50515463917526 62.204304253210864 310.10309278350513 62.678241479630344 316.70103092783506 55.65456595188192 323.29896907216494 55.967534273822366 329.8969072164948 53.021030004493184 336.49484536082474 50.3399305900557 343.0927835051546 44.631830503011145 349.6907216494845 46.41629216154206 356.2886597938144 42.97065751268701 362.8865979381443 41.75291688727049 369.48453608247416 43.81086922191355 376.08247422680415 50.65207147803852 382.680412371134 52.654801799978316 389.2783505154639 56.460346539279215 395.87628865979383 59.921663009084114 402.4742268041237 59.26186934789081 409.0721649484536 63.64591022737494 415.6701030927835 66.80426711812007 422.2680412371134 72.14796571033753 428.86597938144325 77.5097051429832 435.46391752577324 81.16684582081166 442.0618556701031 75.52305242368055 448.659793814433 78.95510144172437 455.2577319587629 85.87687718743098 461.8556701030928 92.325955173967 468.45360824742266 91.94879435325188 475.0515463917526 94.82702717297047 481.64948453608247 100.16797088839692 488.24742268041234 105.53532927974234 494.8453608247423 111.94703323891264 501.44329896907215 109.83988364992604 508.041237113402 111.13996709462614 514.639175257732 110.72084957716754 521.2371134020618 109.24883789863318 527.8350515463917 112.65247534791428 534.4329896907217 118.55163397855716 541.0309278350516 120.76674584809348 547.6288659793814 116.60383455770608 554.2268041237114 118.13701496078576 560.8247422680413 124.27366071047115 567.4226804123712 125.18830944400628 574.020618556701 125.3081922020167 580.6185567010309 128.1885222372321 587.2164948453608 127.4454473944329 593.8144329896908 127.6496685668182 600.4123711340206 127.58755167261879 607.0103092783505 128.96755006307288 613.6082474226804 127.49630213428884 620.2061855670103 116.37777729563683 626.8041237113401 115.57875808078276 633.4020618556701 119.63570110683065 640 122.61165702670303 640 320 0 320"
      />
      
      <polygon
        fill="#fd2fdb"
        fillRule="evenodd"
        points="0 313.695789290852 6.597938144329897 305.07507468331215 13.195876288659793 298.5224221185575 19.79381443298969 288.39204038575315 26.391752577319586 281.72966583209825 32.98969072164948 277.8556676527418 39.58762886597938 270.54541720682226 46.18556701030927 260.8000809951133 52.78350515463917 251.72755844604924 59.381443298969074 237.7909440823076 65.97938144329896 230.20548451943307 72.57731958762886 218.60521801808375 79.17525773195877 212.8050639139723 85.77319587628865 207.84109789546588 92.37113402061854 198.66408193421302 98.96907216494846 187.99623828124933 105.56701030927834 176.33193407620217 112.16494845360825 173.6037320726233 118.76288659793815 169.251924810213 125.36082474226804 163.42159768909534 131.95876288659792 159.99364487069542 138.55670103092785 149.21623804170127 145.15463917525773 151.8308659503495 151.75257731958763 137.94834948090323 158.35051546391753 126.07813618036633 164.9484536082474 120.39031630875402 171.5463917525773 110.04952560780589 178.1443298969072 101.46179118065243 184.74226804123708 97.89526573858583 191.340206185567 94.07411377085765 197.93814432989691 90.7509122095064 204.5360824742268 78.81133201419547 211.1340206185567 68.97430904244146 217.73195876288662 67.69019242244224 224.3298969072165 62.45199688732117 230.9278350515464 64.6529860891684 237.5257731958763 62.993199343770925 244.12371134020617 55.15043254208098 250.72164948453607 51.13656911604414 257.319587628866 51.43312678299674 263.91752577319585 56.84649823290755 270.5154639175258 53.86534099231528 277.1134020618557 56.57881697595968 283.7113402061856 58.32830689386276 290.30927835051546 59.074927191440054 296.9072164948454 60.50812861509195 303.50515463917526 63.23462134378434 310.10309278350513 64.5588688354278 316.70103092783506 57.4777882504531 323.29896907216494 57.735103635415214 329.8969072164948 54.736359734439134 336.49484536082474 52.002901085494784 343.0927835051546 46.24565275137854 349.6907216494845 47.98085334158321 356.2886597938144 44.487461394037666 362.8865979381443 43.227839320058024 369.48453608247416 45.240770528311714 376.08247422680415 52.03971269623514 382.680412371134 54.00008613796825 389.2783505154639 57.76587176296118 395.87628865979383 61.18733777228749 402.4742268041237 60.488910024031895 409.0721649484536 64.83668637105356 415.6701030927835 67.95869560329345 422.2680412371134 73.26827568154692 428.86597938144325 78.59581830351095 435.46391752577324 82.21980597276536 442.0618556701031 76.54591529683086 448.659793814433 79.94674190607407 455.2577319587629 86.8392103272621 461.8556701030928 93.25891358423135 468.45360824742266 92.85417968046755 475.0515463917526 95.70477622490472 481.64948453608247 101.0189270501655 488.24742268041234 106.36113585765085 494.8453608247423 112.74763258931475 501.44329896907215 110.61682177336408 508.041237113402 111.89318960467932 514.639175257732 111.45108042049424 521.2371134020618 109.95890585754975 527.8350515463917 113.34086889503942 534.4329896907217 119.21968243186365 541.0309278350516 121.41440249670481 547.6288659793814 117.23235005297158 554.2268041237114 118.74634539694767 560.8247422680413 124.86439166888604 567.4226804123712 125.76158163181367 574.020618556701 125.86396562829475 580.6185567010309 128.72787003966948 587.2164948453608 127.96833192484414 593.8144329896908 128.1565923421681 600.4123711340206 128.08047847117177 607.0103092783505 129.44543055468546 613.6082474226804 127.96005914133718 620.2061855670103 116.82737834861595 626.8041237113401 116.01507143069512 633.4020618556701 120.05869624672684 640 123.02899712965575 640 320 0 320"
      />
      
      <polygon
        fill="#4F5D95"
        fillRule="evenodd"
        points="0 313.695789290852 6.597938144329897 305.07507468331215 13.195876288659793 298.5224221185575 19.79381443298969 288.39204038575315 26.391752577319586 281.72966583209825 32.98969072164948 277.8556676527418 39.58762886597938 270.54541720682226 46.18556701030927 260.8000809951133 52.78350515463917 251.72755844604924 59.381443298969074 237.7909440823076 65.97938144329896 230.20548451943307 72.57731958762886 218.60521801808375 79.17525773195877 212.8050639139723 85.77319587628865 207.84109789546588 92.37113402061854 198.66408193421302 98.96907216494846 187.99623828124933 105.56701030927834 176.33193407620217 112.16494845360825 173.6037320726233 118.76288659793815 169.251924810213 125.36082474226804 163.42159768909534 131.95876288659792 159.99364487069542 138.55670103092785 149.21623804170127 145.15463917525773 151.8308659503495 151.75257731958763 137.94834948090323 158.35051546391753 126.07813618036633 164.9484536082474 120.39031630875402 171.5463917525773 110.04952560780589 178.1443298969072 101.46179118065243 184.74226804123708 97.89526573858583 191.340206185567 94.07411377085765 197.93814432989691 90.7509122095064 204.5360824742268 78.81133201419547 211.1340206185567 68.97430904244146 217.73195876288662 67.69019242244224 224.3298969072165 62.45199688732117 230.9278350515464 64.67261315893083 237.5257731958763 63.01222730801146 244.12371134020617 55.168879688529046 250.72164948453607 51.15447106662367 257.319587628866 51.45048228824828 263.91752577319585 56.86334080526484 270.5154639175258 53.88166945424496 277.1134020618557 56.594647020713296 283.7113402061856 58.34369984564893 290.30927835051546 59.089850281746806 296.9072164948454 60.52261066163237 303.50515463917526 63.248661334455164 310.10309278350513 64.57249388226572 316.70103092783506 57.49099739992329 323.29896907216494 57.74790958350502 329.8969072164948 54.748787209348166 336.49484536082474 52.01494921897205 343.0927835051546 46.25734480844085 349.6907216494845 47.99218850535533 356.2886597938144 44.49845055875778 362.8865979381443 43.238525055713126 369.48453608247416 45.25113008826685 376.08247422680415 52.04976608417138 382.680412371134 54.00983265260595 389.2783505154639 57.77533022428304 395.87628865979383 61.19650752011444 402.4742268041237 60.497799870341055 409.0721649484536 64.8453134825543 415.6701030927835 67.96705937734768 422.2680412371134 73.2763922686508 428.86597938144325 78.6036871359619 435.46391752577324 82.22743461410852 442.0618556701031 76.55332588489802 448.659793814433 79.95392628958089 455.2577319587629 86.84618237972944 461.8556701030928 93.26567281923309 468.45360824742266 92.86073914971718 475.0515463917526 95.71113547023285 481.64948453608247 101.02509218344267 488.24742268041234 106.3671187836772 494.8453608247423 112.75343288999403 501.44329896907215 110.62245064933967 508.041237113402 111.89864666241274 514.639175257732 111.45637090442688 521.2371134020618 109.96405026282372 527.8350515463917 113.34585626997836 534.4329896907217 119.22452240768305 541.0309278350516 121.41909473524919 547.6288659793814 117.23690361477412 554.2268041237114 118.75075996378666 560.8247422680413 124.86867148358044 567.4226804123712 125.76573495888002 574.020618556701 125.867992177768 580.6185567010309 128.7317775863521 587.2164948453608 127.97212019582787 593.8144329896908 128.16026497855856 600.4123711340206 128.08404970005796 607.0103092783505 129.44889277388765 613.6082474226804 127.96341903638807 620.2061855670103 116.83063568493367 626.8041237113401 116.01823249811599 633.4020618556701 120.06176082423218 640 123.0320207369137 640 320 0 320"
      />
      
      <polygon
        fill="#755462"
        fillRule="evenodd"
        points="0 318.0212241534609 6.597938144329897 313.5273646153456 13.195876288659793 310.89612300633195 19.79381443298969 304.6063586478192 26.391752577319586 301.5123569996864 32.98969072164948 299.6347463318543 39.58762886597938 295.6873265499971 46.18556701030927 289.6072518355588 52.78350515463917 284.85405505284893 59.381443298969074 274.4471245354622 65.97938144329896 270.1967712004976 72.57731958762886 262.95239153907653 79.17525773195877 259.7806284474982 85.77319587628865 257.29397982212583 92.37113402061854 251.48860033687765 98.96907216494846 243.11578554971507 105.56701030927834 233.69080445916927 112.16494845360825 232.4422737589792 118.76288659793815 230.4871300504268 125.36082474226804 226.7432974271189 131.95876288659792 225.0260970632321 138.55670103092785 216.76223784080082 145.15463917525773 218.75156884523693 151.75257731958763 208.35863124595903 158.35051546391753 198.35253126990406 164.9484536082474 194.34759761944724 171.5463917525773 186.11872216163584 178.1443298969072 178.69895487295014 184.74226804123708 176.4750126348672 191.340206185567 173.8723250784076 197.93814432989691 171.3869138083278 204.5360824742268 162.65604612783375 211.1340206185567 154.1287052984074 217.73195876288662 153.54797885207614 224.3298969072165 149.77119360636044 230.9278350515464 151.9917975477784 237.5257731958763 150.2404015240278 244.12371134020617 143.46419089996812 250.72164948453607 140.69801896483045 257.319587628866 142.92938735887515 263.91752577319585 147.0537100124173 270.5154639175258 144.44713336962718 277.1134020618557 147.14073198472664 283.7113402061856 149.5342942076546 290.30927835051546 150.79096082046905 296.9072164948454 152.38217957709657 303.50515463917526 155.03547698100772 310.10309278350513 154.49049942879512 316.70103092783506 148.8868319136907 323.29896907216494 148.9629793761367 329.8969072164948 145.90472345737328 336.49484536082474 141.78903368483407 343.0927835051546 137.4586510245303 349.6907216494845 139.3710854457206 356.2886597938144 135.06409942701623 362.8865979381443 134.1877189236148 369.48453608247416 137.09707927942594 376.08247422680415 142.452492018758 382.680412371134 144.3993344565395 389.2783505154639 146.9758830134523 395.87628865979383 149.82618887146117 402.4742268041237 149.0646157390445 409.0721649484536 151.71942624243638 415.6701030927835 154.19235128218844 422.2680412371134 158.30303129781913 428.86597938144325 162.42157177986573 435.46391752577324 164.48556952429558 442.0618556701031 158.223324006263 448.659793814433 161.34782983980216 455.2577319587629 165.8746598893784 461.8556701030928 170.0707352167716 468.45360824742266 168.56366735757928 475.0515463917526 169.21382316138084 481.64948453608247 173.47276756772322 488.24742268041234 177.15375704658524 494.8453608247423 181.49368163127886 501.44329896907215 177.55145792837155 508.041237113402 179.11025474376908 514.639175257732 179.84341102784032 521.2371134020618 178.85209793008167 527.8350515463917 181.19133895894163 534.4329896907217 185.2185302187093 541.0309278350516 189.19434054193403 547.6288659793814 186.2690953336669 554.2268041237114 186.942186732648 560.8247422680413 190.98334460611542 567.4226804123712 194.30446829382794 574.020618556701 196.590121959982 580.6185567010309 200.19847319007107 587.2164948453608 201.59015683080787 593.8144329896908 203.64803134036313 600.4123711340206 205.7505301188111 607.0103092783505 209.183711483097 613.6082474226804 208.1170840842242 620.2061855670103 198.6392590696089 626.8041237113401 199.1612641696438 633.4020618556701 200.6717046178195 640 202.61766467625375 640 320 0 320"
      />
      
      <polygon
        fill="#2415b9"
        fillRule="evenodd"
        points="0 318.0212241534609 6.597938144329897 313.5273646153456 13.195876288659793 310.89612300633195 19.79381443298969 304.6063586478192 26.391752577319586 301.5123569996864 32.98969072164948 299.6347463318543 39.58762886597938 295.6873265499971 46.18556701030927 289.6072518355588 52.78350515463917 284.85405505284893 59.381443298969074 274.4471245354622 65.97938144329896 270.1967712004976 72.57731958762886 262.95239153907653 79.17525773195877 259.7806284474982 85.77319587628865 257.29397982212583 92.37113402061854 251.48860033687765 98.96907216494846 243.11578554971507 105.56701030927834 233.69080445916927 112.16494845360825 232.4422737589792 118.76288659793815 230.4871300504268 125.36082474226804 226.7432974271189 131.95876288659792 225.0260970632321 138.55670103092785 216.76223784080082 145.15463917525773 218.75156884523693 151.75257731958763 208.35863124595903 158.35051546391753 198.35253126990406 164.9484536082474 194.34759761944724 171.5463917525773 186.11872216163584 178.1443298969072 178.69895487295014 184.74226804123708 176.4750126348672 191.340206185567 173.8723250784076 197.93814432989691 171.3869138083278 204.5360824742268 162.65604612783375 211.1340206185567 154.1287052984074 217.73195876288662 153.54797885207614 224.3298969072165 149.77119360636044 230.9278350515464 151.9917975477784 237.5257731958763 150.2404015240278 244.12371134020617 143.46419089996812 250.72164948453607 140.69801896483045 257.319587628866 142.92938735887515 263.91752577319585 147.0537100124173 270.5154639175258 144.44713336962718 277.1134020618557 147.14073198472664 283.7113402061856 149.5342942076546 290.30927835051546 150.79096082046905 296.9072164948454 152.38217957709657 303.50515463917526 155.03547698100772 310.10309278350513 154.49049942879512 316.70103092783506 148.8868319136907 323.29896907216494 148.9629793761367 329.8969072164948 145.90472345737328 336.49484536082474 142.1486642775759 343.0927835051546 137.81828161727213 349.6907216494845 139.73071603846245 356.2886597938144 135.42373001975807 362.8865979381443 134.5473495163566 369.48453608247416 137.4567098721678 376.08247422680415 142.81212261149986 382.680412371134 144.7589650492813 389.2783505154639 147.33551360619413 395.87628865979383 150.185819464203 402.4742268041237 149.42424633178635 409.0721649484536 152.07905683517822 415.6701030927835 154.55198187493028 422.2680412371134 158.66266189056097 428.86597938144325 162.78120237260754 435.46391752577324 164.8452001170374 442.0618556701031 158.58295459900486 448.659793814433 161.707460432544 455.2577319587629 166.23429048212023 461.8556701030928 170.43036580951343 468.45360824742266 168.9232979503211 475.0515463917526 169.57345375412268 481.64948453608247 173.83239816046506 488.24742268041234 177.51338763932708 494.8453608247423 181.85331222402073 501.44329896907215 177.91108852111338 508.041237113402 179.46988533651088 514.639175257732 180.20304162058213 521.2371134020618 179.2117285228235 527.8350515463917 181.5509695516835 534.4329896907217 185.57816081145117 541.0309278350516 189.55397113467586 547.6288659793814 186.62872592640875 554.2268041237114 187.30181732538983 560.8247422680413 191.34297519885726 567.4226804123712 194.66409888656978 574.020618556701 196.94975255272382 580.6185567010309 200.5581037828129 587.2164948453608 201.9497874235497 593.8144329896908 204.00766193310494 600.4123711340206 206.11016071155294 607.0103092783505 209.54334207583884 613.6082474226804 208.476714676966 620.2061855670103 198.99888966235073 626.8041237113401 199.52089476238564 633.4020618556701 201.0313352105613 640 202.61766467625375 640 320 0 320"
      />
      
      <polygon
        fill="#f1e05a"
        fillRule="evenodd"
        points="0 318.0212241534609 6.597938144329897 313.5273646153456 13.195876288659793 310.89612300633195 19.79381443298969 304.6063586478192 26.391752577319586 301.5123569996864 32.98969072164948 299.6347463318543 39.58762886597938 295.6873265499971 46.18556701030927 289.6072518355588 52.78350515463917 284.85405505284893 59.381443298969074 275.5586291571115 65.97938144329896 271.27434775826964 72.57731958762886 264.38155180095043 79.17525773195877 261.6232816897468 85.77319587628865 259.0916371121266 92.37113402061854 253.23312878290307 98.96907216494846 246.00813072384216 105.56701030927834 237.6111123765065 112.16494845360825 236.289956641399 118.76288659793815 234.21736446561414 125.36082474226804 230.51371490970726 131.95876288659792 228.68142453601524 138.55670103092785 222.60339440493095 145.15463917525773 224.41442703483634 151.75257731958763 213.85412783835937 158.35051546391753 203.68028022735191 164.9484536082474 199.5127211090993 171.5463917525773 191.13119171231278 178.1443298969072 184.67460290085432 184.74226804123708 182.27405491531326 191.340206185567 179.49435409855823 197.93814432989691 176.83733430223387 204.5360824742268 169.27905809587227 211.1340206185567 161.91440040399027 217.73195876288662 161.10357202926303 224.3298969072165 157.6520032973537 230.9278350515464 159.7498426093657 237.5257731958763 157.7616371356581 244.12371134020617 151.88561692352613 250.72164948453607 148.87055534131804 257.319587628866 150.8524627894078 263.91752577319585 154.74262441542947 270.5154639175258 153.00430699524387 277.1134020618557 155.4477424599682 283.7113402061856 157.61193640090934 290.30927835051546 159.3992857328074 296.9072164948454 161.384312832437 303.50515463917526 163.76282369304593 310.10309278350513 164.08011905534272 316.70103092783506 158.18373381558203 323.29896907216494 157.9760978048114 329.8969072164948 154.65146453352008 336.49484536082474 150.62841560167118 343.0927835051546 146.04741871147738 349.6907216494845 147.70866452134524 356.2886597938144 144.26957706713668 362.8865979381443 143.14894882285273 369.48453608247416 145.7957500755149 376.08247422680415 150.90470540085104 382.680412371134 152.6045283733959 389.2783505154639 154.9492035643645 395.87628865979383 157.5671058581838 402.4742268041237 156.58022313189838 409.0721649484536 159.02354413134262 415.6701030927835 161.28449365208883 422.2680412371134 165.1961972533673 428.86597938144325 169.1153046929605 435.46391752577324 170.9859582491269 442.0618556701031 165.66907264271882 448.659793814433 168.5772781424954 455.2577319587629 172.90107565839128 461.8556701030928 176.89365041857562 468.45360824742266 175.19556250951328 475.0515463917526 175.65426280217287 481.64948453608247 179.7275923037026 488.24742268041234 183.23435206305695 494.8453608247423 187.3996478410366 501.44329896907215 183.29350615798313 508.041237113402 184.68800810037325 514.639175257732 185.26188296740318 521.2371134020618 184.13088626487567 527.8350515463917 186.31997453415727 534.4329896907217 190.20621988577557 541.0309278350516 194.0407614553302 547.6288659793814 190.98291191913654 554.2268041237114 191.52309340693884 560.8247422680413 195.4353987215748 567.4226804123712 198.63557453088436 574.020618556701 200.80000042328265 580.6185567010309 204.2945598072547 587.2164948453608 205.57219020180932 593.8144329896908 207.5194933058298 600.4123711340206 209.5250237572892 607.0103092783505 212.85396927681683 613.6082474226804 211.6894976963347 620.2061855670103 202.1136039878687 626.8041237113401 202.54355608910504 633.4020618556701 203.9617312536808 640 205.50888451488032 640 320 0 320"
      />
      
      <polygon
        fill="#22e8e8"
        fillRule="evenodd"
        points="0 319.9256742617343 6.597938144329897 319.85646899522385 13.195876288659793 319.82723291866336 19.79381443298969 318.66030298565056 26.391752577319586 318.54753003465373 32.98969072164948 318.4075978775713 39.58762886597938 318.2695445990124 46.18556701030927 316.01153545786013 52.78350515463917 316.0194983676191 59.381443298969074 310.2712014845326 65.97938144329896 309.3798723806852 72.57731958762886 306.9369347371777 79.17525773195877 307.0222668053317 85.77319587628865 306.27910626605575 92.37113402061854 304.5841173451869 98.96907216494846 300.15630137608844 105.56701030927834 294.75364954519966 112.16494845360825 293.47878340495794 118.76288659793815 293.78096150006076 125.36082474226804 290.88386472213983 131.95876288659792 291.254933376159 138.55670103092785 286.97854462553346 145.15463917525773 287.2959183770243 151.75257731958763 280.0896368400556 158.35051546391753 272.3565342459323 164.9484536082474 270.6873658460325 171.5463917525773 264.6410411898362 178.1443298969072 259.71604714674663 184.74226804123708 258.48215107921993 191.340206185567 256.49762432849644 197.93814432989691 254.70956452067452 204.5360824742268 249.7580347027428 211.1340206185567 243.84332227696962 217.73195876288662 243.32681352431032 224.3298969072165 241.83027375824406 230.9278350515464 242.76854073733887 237.5257731958763 241.7074629317197 244.12371134020617 237.21783406734718 250.72164948453607 234.0443757593559 257.319587628866 235.7303308624867 263.91752577319585 237.40442514316564 270.5154639175258 235.56050990579126 277.1134020618557 237.005076536755 283.7113402061856 238.39937330475442 290.30927835051546 240.81757634728046 296.9072164948454 242.54148697619596 303.50515463917526 244.59173114181408 310.10309278350513 243.76037050095738 316.70103092783506 239.79408360683487 323.29896907216494 239.8280926389713 329.8969072164948 237.43532388443282 336.49484536082474 235.72259325615644 343.0927835051546 231.99176719726825 349.6907216494845 232.20071781198274 356.2886597938144 229.5869722929569 362.8865979381443 229.0000666737812 369.48453608247416 230.61540012072476 376.08247422680415 233.24733911510873 382.680412371134 234.38585682359803 389.2783505154639 235.4497888322789 395.87628865979383 235.9808164473761 402.4742268041237 235.02390019710995 409.0721649484536 236.272764696141 415.6701030927835 237.10994286531817 422.2680412371134 239.17608699815224 428.86597938144325 241.04014912151297 435.46391752577324 242.01075005564445 442.0618556701031 236.84732396073923 448.659793814433 238.1858652251152 455.2577319587629 240.6023156541857 461.8556701030928 242.69853774852277 468.45360824742266 240.20795759013475 475.0515463917526 240.05521908659458 481.64948453608247 242.4939196549348 488.24742268041234 244.4775965882925 494.8453608247423 246.7813098136471 501.44329896907215 243.48882412654416 508.041237113402 244.04377358775844 514.639175257732 246.20496541471266 521.2371134020618 246.89560041602047 527.8350515463917 247.99733634050332 534.4329896907217 250.118251698854 541.0309278350516 252.2328342707213 547.6288659793814 249.58179886103724 554.2268041237114 249.44274091074814 560.8247422680413 251.59491649048755 567.4226804123712 253.61506726131267 574.020618556701 254.4228021553321 580.6185567010309 256.34014711648797 587.2164948453608 257.1593440642828 593.8144329896908 258.9193998488543 600.4123711340206 259.9453849320592 607.0103092783505 261.7459466706531 613.6082474226804 260.1129000606959 620.2061855670103 252.98378494294434 626.8041237113401 252.93433713386406 633.4020618556701 253.28999604237583 640 254.2325362960258 640 320 0 320"
      />
      
      <polygon
        fill="#22e4e8"
        fillRule="evenodd"
        points="0 319.9256742617343 6.597938144329897 319.85646899522385 13.195876288659793 319.82723291866336 19.79381443298969 318.66030298565056 26.391752577319586 318.54753003465373 32.98969072164948 318.4075978775713 39.58762886597938 318.2695445990124 46.18556701030927 316.01153545786013 52.78350515463917 316.0194983676191 59.381443298969074 310.2712014845326 65.97938144329896 309.3798723806852 72.57731958762886 306.9369347371777 79.17525773195877 307.0222668053317 85.77319587628865 306.27910626605575 92.37113402061854 304.5841173451869 98.96907216494846 300.15630137608844 105.56701030927834 294.75364954519966 112.16494845360825 293.47878340495794 118.76288659793815 293.78096150006076 125.36082474226804 290.88386472213983 131.95876288659792 291.254933376159 138.55670103092785 286.97854462553346 145.15463917525773 287.2959183770243 151.75257731958763 280.0896368400556 158.35051546391753 272.3565342459323 164.9484536082474 270.6873658460325 171.5463917525773 264.6410411898362 178.1443298969072 259.71604714674663 184.74226804123708 258.48215107921993 191.340206185567 256.49762432849644 197.93814432989691 254.70956452067452 204.5360824742268 249.7580347027428 211.1340206185567 243.84332227696962 217.73195876288662 243.32681352431032 224.3298969072165 241.83027375824406 230.9278350515464 242.76854073733887 237.5257731958763 241.7074629317197 244.12371134020617 237.21783406734718 250.72164948453607 234.0443757593559 257.319587628866 235.7303308624867 263.91752577319585 237.40442514316564 270.5154639175258 235.56050990579126 277.1134020618557 237.005076536755 283.7113402061856 238.39937330475442 290.30927835051546 240.81757634728046 296.9072164948454 242.54148697619596 303.50515463917526 244.59173114181408 310.10309278350513 243.76037050095738 316.70103092783506 239.79408360683487 323.29896907216494 239.8280926389713 329.8969072164948 237.43532388443282 336.49484536082474 235.77396905511958 343.0927835051546 232.04314299623135 349.6907216494845 232.25209361094585 356.2886597938144 229.63834809192002 362.8865979381443 229.0514424727443 369.48453608247416 230.66677591968786 376.08247422680415 233.29871491407187 382.680412371134 234.43723262256117 389.2783505154639 235.501164631242 395.87628865979383 236.03219224633924 402.4742268041237 235.07527599607306 409.0721649484536 236.32414049510413 415.6701030927835 237.16131866428128 422.2680412371134 239.22746279711538 428.86597938144325 241.09152492047608 435.46391752577324 242.0621258546076 442.0618556701031 236.89869975970234 448.659793814433 238.23724102407832 455.2577319587629 240.65369145314884 461.8556701030928 242.7499135474859 468.45360824742266 240.2593333890979 475.0515463917526 240.10659488555768 481.64948453608247 242.54529545389795 488.24742268041234 244.5289723872556 494.8453608247423 246.83268561261022 501.44329896907215 243.5401999255073 508.041237113402 244.09514938672154 514.639175257732 246.25634121367577 521.2371134020618 246.94697621498358 527.8350515463917 248.04871213946643 534.4329896907217 250.16962749781715 541.0309278350516 252.28421006968443 547.6288659793814 249.63317466000035 554.2268041237114 249.49411670971125 560.8247422680413 251.64629228945066 567.4226804123712 253.6664430602758 574.020618556701 254.47417795429521 580.6185567010309 256.39152291545105 587.2164948453608 257.2107198632459 593.8144329896908 258.97077564781745 600.4123711340206 259.99676073102233 607.0103092783505 261.79732246961623 613.6082474226804 260.164275859659 620.2061855670103 253.03516074190745 626.8041237113401 252.98571293282717 633.4020618556701 253.34137184133897 640 254.2325362960258 640 320 0 320"
      />
      
      <polygon
        fill="#e34c26"
        fillRule="evenodd"
        points="0 319.9256742617343 6.597938144329897 319.85646899522385 13.195876288659793 319.82723291866336 19.79381443298969 318.66030298565056 26.391752577319586 318.6387623975403 32.98969072164948 318.51260283859034 39.58762886597938 318.37134434415356 46.18556701030927 316.1105243436461 52.78350515463917 316.2070745743827 59.381443298969074 311.64862374806063 65.97938144329896 310.75104734705934 72.57731958762886 308.2675853980941 79.17525773195877 308.3122999650911 85.77319587628865 307.5297621364451 92.37113402061854 305.7978104860058 98.96907216494846 302.08576779939943 105.56701030927834 297.7266094102441 112.16494845360825 296.36099480549115 118.76288659793815 296.57519564667876 125.36082474226804 294.70440782499935 131.95876288659792 294.97529778110436 138.55670103092785 291.71974512836 145.15463917525773 292.1942226822773 151.75257731958763 288.11679717324915 158.35051546391753 282.4760510555974 164.9484536082474 280.50909989377305 171.5463917525773 276.0941997594333 178.1443298969072 271.33209885205224 184.74226804123708 270.33211782472057 191.340206185567 269.082001441321 197.93814432989691 268.3241122002938 204.5360824742268 264.11126464736986 211.1340206185567 258.7341454993988 217.73195876288662 258.8780305142553 224.3298969072165 257.3390666684372 230.9278350515464 258.03727508929694 237.5257731958763 256.5238272087117 244.12371134020617 252.72247581298413 250.72164948453607 250.19335530781663 257.319587628866 252.19009186651914 263.91752577319585 254.18868185854504 270.5154639175258 252.86780410761054 277.1134020618557 253.80098528333923 283.7113402061856 254.90774814479775 290.30927835051546 256.8330630747474 296.9072164948454 258.5829123170434 303.50515463917526 260.4521287174351 310.10309278350513 259.9720922301438 316.70103092783506 257.86441836746627 323.29896907216494 257.54206430767493 329.8969072164948 255.7256806417037 336.49484536082474 254.32304714335683 343.0927835051546 252.4440042171994 349.6907216494845 252.3016933568232 356.2886597938144 249.89597872295877 362.8865979381443 249.60730756173203 369.48453608247416 250.6398955961967 376.08247422680415 252.68977350374402 382.680412371134 254.04378700098414 389.2783505154639 254.88135518440154 395.87628865979383 255.76536947391867 402.4742268041237 254.20610999890118 409.0721649484536 254.90087212089128 415.6701030927835 255.17100840430064 422.2680412371134 256.70487665452526 428.86597938144325 258.10511087223506 435.46391752577324 258.5563805700639 442.0618556701031 255.169444319477 448.659793814433 257.1207159676387 455.2577319587629 258.97907725766873 461.8556701030928 260.5159278730232 468.45360824742266 258.6005532148582 475.0515463917526 258.02058075975253 481.64948453608247 259.91247328698864 488.24742268041234 261.3828792732893 494.8453608247423 263.17213374311484 501.44329896907215 261.82043770541435 508.041237113402 263.5576182819205 514.639175257732 265.20787573315454 521.2371134020618 265.57696091142793 527.8350515463917 267.2215530505587 534.4329896907217 268.77583650201734 541.0309278350516 270.33941671255315 547.6288659793814 268.43864983805895 554.2268041237114 268.9636117591764 560.8247422680413 270.5214875092501 567.4226804123712 271.9837957448698 574.020618556701 273.4494655606666 580.6185567010309 274.8252376746326 587.2164948453608 276.20416059442294 593.8144329896908 277.5410041249719 600.4123711340206 278.71335885942267 607.0103092783505 279.973622898157 613.6082474226804 278.929745730581 620.2061855670103 275.7239301429403 626.8041237113401 277.03247827753256 633.4020618556701 278.2862878760016 640 278.84396482700697 640 320 0 320"
      />
      
      <polygon
        fill="#00ADD8"
        fillRule="evenodd"
        points="0 319.9256742617343 6.597938144329897 319.85646899522385 13.195876288659793 319.82723291866336 19.79381443298969 318.66030298565056 26.391752577319586 318.6387623975403 32.98969072164948 318.5153626091318 39.58762886597938 318.3740198743112 46.18556701030927 316.61218014732196 52.78350515463917 316.6934176156744 59.381443298969074 313.13944401083086 65.97938144329896 312.19636108489163 72.57731958762886 310.8820309637566 79.17525773195877 310.86396368791105 85.77319587628865 310.0035378875018 92.37113402061854 308.6617081609858 98.96907216494846 305.8714467713246 105.56701030927834 303.7931606465661 112.16494845360825 303.0244451786515 118.76288659793815 303.3152935743122 125.36082474226804 302.4901902694405 131.95876288659792 302.9132460944304 138.55670103092785 300.9756907570759 145.15463917525773 301.55638931662344 151.75257731958763 299.631160759667 158.35051546391753 295.8211953481299 164.9484536082474 294.07845228304456 171.5463917525773 290.71613540779725 178.1443298969072 287.71239177024853 184.74226804123708 287.34683096150883 191.340206185567 286.11583459545136 197.93814432989691 284.9372998353178 204.5360824742268 282.3765417946189 211.1340206185567 277.9438464912152 217.73195876288662 278.0796583130226 224.3298969072165 276.03281284145874 230.9278350515464 276.21168488843585 237.5257731958763 274.149021496807 244.12371134020617 270.3047199331463 250.72164948453607 268.0869634851108 257.319587628866 269.66608672436166 263.91752577319585 271.14818450673556 270.5154639175258 270.41253875694974 277.1134020618557 270.8101827143508 283.7113402061856 272.1629000207334 290.30927835051546 273.5615092321972 296.9072164948454 274.9228752330536 303.50515463917526 276.2933240744356 310.10309278350513 276.4643504820524 316.70103092783506 274.63328597602424 323.29896907216494 273.79907072109944 329.8969072164948 272.04438733465093 336.49484536082474 270.14363361236127 343.0927835051546 268.2494810637288 349.6907216494845 268.7286036474826 356.2886597938144 266.9323272362064 362.8865979381443 266.17325309457743 369.48453608247416 266.7001686626517 376.08247422680415 268.2753958387386 382.680412371134 269.7729944189208 389.2783505154639 270.1456948505163 395.87628865979383 271.63101354612974 402.4742268041237 270.8758788288392 409.0721649484536 271.21140286919155 415.6701030927835 272.6978447527971 422.2680412371134 274.09583120737614 428.86597938144325 275.4691414238813 435.46391752577324 275.7089955989129 442.0618556701031 272.95247019956696 448.659793814433 274.36093906391164 455.2577319587629 275.70977162008114 461.8556701030928 277.0617258725472 468.45360824742266 276.4936219462632 475.0515463917526 276.6994721342619 481.64948453608247 278.02119398957336 488.24742268041234 279.09847852730405 494.8453608247423 280.3469729150794 501.44329896907215 279.26736721875153 508.041237113402 280.4775184092383 514.639175257732 281.61130831120386 521.2371134020618 281.5274685558823 527.8350515463917 282.6851773858195 534.4329896907217 283.78244228002177 541.0309278350516 284.8879558670024 547.6288659793814 282.61008857308695 554.2268041237114 282.84177585588736 560.8247422680413 283.97602834554675 567.4226804123712 285.0406899522239 574.020618556701 286.1078058424684 580.6185567010309 287.10946760851283 587.2164948453608 288.11342374581284 593.8144329896908 289.08674393933245 600.4123711340206 289.9403056761212 607.0103092783505 290.857871557936 613.6082474226804 291.71915595069754 620.2061855670103 290.3472354701046 626.8041237113401 291.2236042187232 633.4020618556701 292.1019892763332 640 292.4749640649703 640 320 0 320"
      />
      
      <polygon
        fill="#244776"
        fillRule="evenodd"
        points="0 319.9256742617343 6.597938144329897 319.85646899522385 13.195876288659793 319.82723291866336 19.79381443298969 318.66030298565056 26.391752577319586 318.6387623975403 32.98969072164948 318.5153626091318 39.58762886597938 318.3740198743112 46.18556701030927 316.61218014732196 52.78350515463917 316.6934176156744 59.381443298969074 313.13944401083086 65.97938144329896 312.19636108489163 72.57731958762886 310.8820309637566 79.17525773195877 310.86396368791105 85.77319587628865 310.0035378875018 92.37113402061854 308.6617081609858 98.96907216494846 305.8714467713246 105.56701030927834 303.7931606465661 112.16494845360825 303.0244451786515 118.76288659793815 303.3152935743122 125.36082474226804 302.4901902694405 131.95876288659792 302.9132460944304 138.55670103092785 300.9756907570759 145.15463917525773 301.55638931662344 151.75257731958763 299.631160759667 158.35051546391753 295.8211953481299 164.9484536082474 294.07845228304456 171.5463917525773 290.71613540779725 178.1443298969072 287.71239177024853 184.74226804123708 287.34683096150883 191.340206185567 286.11583459545136 197.93814432989691 284.9372998353178 204.5360824742268 282.3765417946189 211.1340206185567 277.9438464912152 217.73195876288662 278.0796583130226 224.3298969072165 276.03281284145874 230.9278350515464 276.21168488843585 237.5257731958763 274.149021496807 244.12371134020617 270.3047199331463 250.72164948453607 268.0869634851108 257.319587628866 269.66608672436166 263.91752577319585 271.14818450673556 270.5154639175258 270.41253875694974 277.1134020618557 270.8101827143508 283.7113402061856 272.1629000207334 290.30927835051546 273.5615092321972 296.9072164948454 274.9228752330536 303.50515463917526 276.2933240744356 310.10309278350513 276.4643504820524 316.70103092783506 274.63328597602424 323.29896907216494 273.79907072109944 329.8969072164948 272.04438733465093 336.49484536082474 270.14363361236127 343.0927835051546 268.2494810637288 349.6907216494845 268.7286036474826 356.2886597938144 266.9323272362064 362.8865979381443 266.17325309457743 369.48453608247416 266.7001686626517 376.08247422680415 268.2753958387386 382.680412371134 269.7729944189208 389.2783505154639 270.1456948505163 395.87628865979383 271.63101354612974 402.4742268041237 270.8758788288392 409.0721649484536 271.21140286919155 415.6701030927835 272.6978447527971 422.2680412371134 274.09583120737614 428.86597938144325 275.4691414238813 435.46391752577324 275.7089955989129 442.0618556701031 272.95247019956696 448.659793814433 274.36093906391164 455.2577319587629 275.70977162008114 461.8556701030928 277.0617258725472 468.45360824742266 276.4936219462632 475.0515463917526 276.6994721342619 481.64948453608247 278.02119398957336 488.24742268041234 279.09847852730405 494.8453608247423 280.3469729150794 501.44329896907215 279.26736721875153 508.041237113402 280.4775184092383 514.639175257732 281.61130831120386 521.2371134020618 281.5274685558823 527.8350515463917 282.6851773858195 534.4329896907217 283.78244228002177 541.0309278350516 284.8879558670024 547.6288659793814 282.61008857308695 554.2268041237114 282.84177585588736 560.8247422680413 283.97602834554675 567.4226804123712 285.0406899522239 574.020618556701 286.1078058424684 580.6185567010309 287.10946760851283 587.2164948453608 288.11342374581284 593.8144329896908 289.08674393933245 600.4123711340206 289.9403056761212 607.0103092783505 290.857871557936 613.6082474226804 291.71915595069754 620.2061855670103 290.4027966807315 626.8041237113401 291.27752334578855 633.4020618556701 292.15426255501836 640 292.5265384992125 640 320 0 320"
      />
      
      <polygon
        fill="#563d7c"
        fillRule="evenodd"
        points="0 319.9256742617343 6.597938144329897 319.85646899522385 13.195876288659793 319.82723291866336 19.79381443298969 318.66030298565056 26.391752577319586 318.6387623975403 32.98969072164948 318.5153626091318 39.58762886597938 318.3740198743112 46.18556701030927 316.61218014732196 52.78350515463917 316.6934176156744 59.381443298969074 314.2496041278213 65.97938144329896 313.27263423864395 72.57731958762886 311.92649540809055 79.17525773195877 311.876546469192 85.77319587628865 310.9852121661138 92.37113402061854 309.61436960115896 98.96907216494846 306.7950286872718 105.56701030927834 305.7914240940138 112.16494845360825 304.9617128115318 118.76288659793815 305.19342704607635 125.36082474226804 304.31464003860054 131.95876288659792 304.6820057305336 138.55670103092785 303.81183501995287 145.15463917525773 304.3059619674448 151.75257731958763 302.29947128175246 158.35051546391753 298.4080572473291 164.9484536082474 296.5863516342694 171.5463917525773 293.14991530486446 178.1443298969072 290.071881748257 184.74226804123708 289.6365876428203 191.340206185567 288.3356977903247 197.93814432989691 287.08940276967746 204.5360824742268 284.4692217331206 211.1340206185567 279.97264863833095 217.73195876288662 280.04850017617485 224.3298969072165 277.94155693900956 230.9278350515464 278.0640172284576 237.5257731958763 275.94481220127983 244.12371134020617 273.17508181390343 250.72164948453607 271.6223202471872 257.319587628866 273.0935286207161 263.91752577319585 274.47433007604513 270.5154639175258 273.63715567785164 277.1134020618557 273.9363699750384 283.7113402061856 275.20276813004153 290.30927835051546 276.50858699724 296.9072164948454 277.7828539620887 303.50515463917526 279.0660035045986 310.10309278350513 279.15508489635965 316.70103092783506 277.2418871335483 323.29896907216494 276.3280457608297 329.8969072164948 274.49862004003694 336.49484536082474 272.5229521827312 343.0927835051546 270.55847993403233 349.6907216494845 270.9671219087174 356.2886597938144 269.1025160958266 362.8865979381443 268.28351917456746 369.48453608247416 268.7460201769082 376.08247422680415 270.2607833806985 382.680412371134 271.6977793766787 389.2783505154639 272.0135937493691 395.87628865979383 273.44189578879644 402.4742268041237 272.63148502738863 409.0721649484536 272.9151230043426 415.6701030927835 274.3495595299445 422.2680412371134 275.69873065262914 428.86597938144325 277.0231132297434 435.46391752577324 277.21553346536314 442.0618556701031 275.3902742602153 448.659793814433 276.7243305200934 455.2577319587629 278.00331428676975 461.8556701030928 279.28525945725 468.45360824742266 278.6514400272511 475.0515463917526 278.7914241804439 481.64948453608247 280.04929043871454 488.24742268041234 281.06663544830457 494.8453608247423 282.2550530318044 501.44329896907215 281.11905510075104 508.041237113402 282.27268438399574 514.639175257732 283.3516779890548 521.2371134020618 283.2197839829247 527.8350515463917 284.32583568002366 534.4329896907217 285.37461188966137 541.0309278350516 286.4315254093452 547.6288659793814 284.1080386664857 554.2268041237114 284.29400200196693 560.8247422680413 285.38392611651017 567.4226804123712 286.40697805260066 574.020618556701 287.43238871327253 580.6185567010309 288.3949032507746 587.2164948453608 289.3596220463809 593.8144329896908 290.29490277633545 600.4123711340206 291.1151052820931 607.0103092783505 291.9968110617348 613.6082474226804 292.8244346989011 620.2061855670103 291.47433740413817 626.8041237113401 292.3173953074531 633.4020618556701 293.1623930581854 640 293.52119133215854 640 320 0 320"
      />
      
      <polygon
        fill="#178600"
        fillRule="evenodd"
        points="0 320 6.597938144329897 320 13.195876288659793 320 19.79381443298969 320 26.391752577319586 320 32.98969072164948 320 39.58762886597938 320 46.18556701030927 320 52.78350515463917 320 59.381443298969074 318.73032861064365 65.97938144329896 318.76908467412784 72.57731958762886 318.8054637643469 79.17525773195877 318.8419262477628 85.77319587628865 318.87727572586994 92.37113402061854 318.91045729938827 98.96907216494846 318.94371487826356 105.56701030927834 318.97493293039645 112.16494845360825 319.00622249764155 118.76288659793815 319.0365569579584 125.36082474226804 319.06409555757085 131.95876288659792 319.09266354324166 138.55670103092785 319.1194793470136 145.15463917525773 319.14635676064376 151.75257731958763 319.1715857509387 158.35051546391753 319.1856777524133 164.9484536082474 319.2105344633938 171.5463917525773 319.23386671056676 178.1443298969072 319.25725245022164 184.74226804123708 319.27920398307265 191.340206185567 318.1941407794731 197.93814432989691 318.24926359013233 204.5360824742268 318.2976042301946 211.1340206185567 316.13887453702995 217.73195876288662 316.2474853393247 224.3298969072165 316.3620285667767 230.9278350515464 316.4695467188543 237.5257731958763 316.5773120090753 244.12371134020617 316.2415604458596 250.72164948453607 315.6381784332787 257.319587628866 315.7713205630688 263.91752577319585 315.8962971261233 270.5154639175258 316.0215599551296 277.1134020618557 316.1429996026803 283.7113402061856 316.2494976471688 290.30927835051546 316.3639795524672 296.9072164948454 316.47144047190477 303.50515463917526 316.5791476971977 310.10309278350513 316.6802489708842 316.70103092783506 315.9758117584333 323.29896907216494 316.0986476974482 329.8969072164948 314.31084459394333 336.49484536082474 314.4845028090633 343.0927835051546 313.5209112704124 349.6907216494845 313.71868127825337 356.2886597938144 313.9104154517289 362.8865979381443 312.97612404498466 369.48453608247416 313.1905230940047 376.08247422680415 313.3917735758967 382.680412371134 313.59348575154365 389.2783505154639 313.78282729241056 395.87628865979383 313.97260267107424 402.4742268041237 314.1565859113373 409.0721649484536 314.32928504304226 415.6701030927835 314.5023799430769 422.2680412371134 314.66485950360374 428.86597938144325 314.8277113023443 435.46391752577324 314.98559261583716 442.0618556701031 313.2129031832203 448.659793814433 313.4200754760295 455.2577319587629 313.6145418144939 461.8556701030928 313.8094541976449 468.45360824742266 313.19872613424803 475.0515463917526 313.4063311140361 481.64948453608247 313.60759960828324 488.24742268041234 313.7965232173007 494.8453608247423 313.9858808490678 501.44329896907215 314.1636247759762 508.041237113402 314.3417766267283 514.639175257732 314.5144908629181 521.2371134020618 314.6659549383892 527.8350515463917 314.82877368194073 534.4329896907217 314.98160630594464 541.0309278350516 315.13478972390385 547.6288659793814 315.2785784605131 554.2268041237114 315.4226972352548 560.8247422680413 315.56241670033137 567.4226804123712 315.69356729865046 574.020618556701 315.82501850704443 580.6185567010309 315.948408010018 587.2164948453608 316.0720803162145 593.8144329896908 316.1919777958574 600.4123711340206 316.2971237115185 607.0103092783505 316.41015197968585 613.6082474226804 316.5162477311182 620.2061855670103 316.6225875484211 626.8041237113401 316.7224051258443 633.4020618556701 316.82245173657935 640 316.8649322988845 640 320 0 320"
      />
      
      <polygon
        fill="#555555"
        fillRule="evenodd"
        points="0 320 6.597938144329897 320 13.195876288659793 320 19.79381443298969 320 26.391752577319586 320 32.98969072164948 320 39.58762886597938 320 46.18556701030927 320 52.78350515463917 320 59.381443298969074 318.73032861064365 65.97938144329896 318.76908467412784 72.57731958762886 318.8054637643469 79.17525773195877 318.8419262477628 85.77319587628865 318.87727572586994 92.37113402061854 318.91045729938827 98.96907216494846 318.94371487826356 105.56701030927834 318.97493293039645 112.16494845360825 319.00622249764155 118.76288659793815 319.0365569579584 125.36082474226804 319.06409555757085 131.95876288659792 319.09266354324166 138.55670103092785 319.1194793470136 145.15463917525773 319.14635676064376 151.75257731958763 319.1715857509387 158.35051546391753 319.1856777524133 164.9484536082474 319.2105344633938 171.5463917525773 319.23386671056676 178.1443298969072 319.25725245022164 184.74226804123708 319.27920398307265 191.340206185567 318.1941407794731 197.93814432989691 318.24926359013233 204.5360824742268 318.2976042301946 211.1340206185567 317.2428492133284 217.73195876288662 317.31883258147246 224.3298969072165 317.4006735716105 230.9278350515464 317.47749519756564 237.5257731958763 317.5544933713163 244.12371134020617 317.18891384123543 250.72164948453607 316.55753335399044 257.319587628866 316.6626126866161 263.91752577319585 316.7612475417714 270.5154639175258 316.8601083476906 277.1134020618557 316.955951750185 283.7113402061856 317.0400028655435 290.30927835051546 317.1303550171416 296.9072164948454 317.21516613469413 303.50515463917526 317.3001715555183 310.10309278350513 317.3799634116395 316.70103092783506 317.45993867936306 323.29896907216494 317.53747246636823 329.8969072164948 316.5057097635636 336.49484536082474 316.6123709570393 343.0927835051546 315.58589133039357 349.6907216494845 315.7206290897479 356.2886597938144 315.85125493565636 362.8865979381443 314.86337363851686 369.48453608247416 315.0201656206691 376.08247422680415 315.16734204663646 382.680412371134 315.3148560424285 389.2783505154639 315.45332331488174 395.87628865979383 315.59210769931656 402.4742268041237 315.72665642655613 409.0721649484536 315.85295303938915 415.6701030927835 315.97953886714487 422.2680412371134 316.09836173975117 428.86597938144325 316.21745666776326 435.46391752577324 316.33291688130066 442.0618556701031 315.5852546814928 448.659793814433 315.72001227190555 455.2577319587629 315.8465051402906 461.8556701030928 315.9732881791882 468.45360824742266 316.0922953881612 475.0515463917526 316.2115759163846 481.64948453608247 316.32721554448716 488.24742268041234 316.43576243528804 494.8453608247423 316.54455880696867 501.44329896907215 316.64668248988 508.041237113402 316.7490404464346 514.639175257732 316.8482743434058 521.2371134020618 316.9352987817535 527.8350515463917 317.02884702180506 534.4329896907217 317.1166578181316 541.0309278350516 317.20466990483857 547.6288659793814 317.287284552858 554.2268041237114 317.370088674824 560.8247422680413 317.45036521023263 567.4226804123712 317.52571840282667 574.020618556701 317.60124427975614 580.6185567010309 317.67213829960394 587.2164948453608 317.7431949033052 593.8144329896908 317.8120824824252 600.4123711340206 317.87249456516474 607.0103092783505 317.93743549650895 613.6082474226804 317.9983933957367 620.2061855670103 318.0594913762179 626.8041237113401 318.1168421292246 633.4020618556701 318.1743244042767 640 318.1987317825194 640 320 0 320"
      />
      
      <polygon
        fill="#C1F12E"
        fillRule="evenodd"
        points="0 320 6.597938144329897 320 13.195876288659793 320 19.79381443298969 320 26.391752577319586 320 32.98969072164948 320 39.58762886597938 320 46.18556701030927 320 52.78350515463917 320 59.381443298969074 319.00777457080335 65.97938144329896 319.03806173455973 72.57731958762886 319.06649135492876 79.17525773195877 319.09498611981087 85.77319587628865 319.1226110924165 92.37113402061854 319.14854189667557 98.96907216494846 319.17453209135823 105.56701030927834 319.19892845462965 112.16494845360825 319.22338068394487 118.76288659793815 319.2470865359279 125.36082474226804 319.2686074471072 131.95876288659792 319.29093283137206 138.55670103092785 319.31188888619204 145.15463917525773 319.33289311096115 151.75257731958763 319.35260910812156 158.35051546391753 319.3611754780152 164.9484536082474 319.3806752241626 171.5463917525773 319.3989790547369 178.1443298969072 319.41732483878866 184.74226804123708 319.4345455236686 191.340206185567 319.4408447720304 197.93814432989691 319.45791265500907 204.5360824742268 319.47288060358085 211.1340206185567 319.48621077388304 217.73195876288662 319.5013955077762 224.3298969072165 319.51661513611197 230.9278350515464 319.5309013175564 237.5257731958763 319.5452202973109 244.12371134020617 319.3091074723623 250.72164948453607 318.6150658754023 257.319587628866 318.65734024607593 263.91752577319585 318.6970218856791 270.5154639175258 318.7367944604464 277.1134020618557 318.77535302508414 283.7113402061856 318.8091675484457 290.30927835051546 318.8455169537281 296.9072164948454 318.87963721446926 303.50515463917526 318.9138355664249 310.10309278350513 318.94593660413943 316.70103092783506 318.97811131474964 323.29896907216494 319.0093038228353 329.8969072164948 319.03858340442235 336.49484536082474 319.0679300828029 343.0927835051546 319.0954769641941 349.6907216494845 319.1230869350665 356.2886597938144 319.14985424008427 362.8865979381443 319.1733281508853 369.48453608247416 319.19856181637795 376.08247422680415 319.2222478784032 382.680412371134 319.2459883268493 389.2783505154639 319.26827272350175 395.87628865979383 319.29060831100037 402.4742268041237 319.3122621108212 409.0721649484536 319.3325878154134 415.6701030927835 319.35296013840554 422.2680412371134 319.372083135544 428.86597938144325 319.39124987403767 435.46391752577324 319.4098316682347 442.0618556701031 318.5742205739527 448.659793814433 318.61774162976394 455.2577319587629 318.65859361006744 461.8556701030928 318.69953919707666 468.45360824742266 318.7379736377842 475.0515463917526 318.7764962393627 481.64948453608247 318.81384305440616 488.24742268041234 318.848899228077 494.8453608247423 318.8840359590007 501.44329896907215 318.91701757790946 508.041237113402 318.9500751302491 514.639175257732 318.9821234563939 521.2371134020618 319.01022868996824 527.8350515463917 319.0404408450581 534.4329896907217 319.06880018333413 541.0309278350516 319.09722446062005 547.6288659793814 319.1239054542956 554.2268041237114 319.15064779067507 560.8247422680413 319.176573765609 567.4226804123712 319.20090976231666 574.020618556701 319.22530151204137 580.6185567010309 319.2481972807015 587.2164948453608 319.27114568900527 593.8144329896908 319.29339349581375 600.4123711340206 319.3129040719796 607.0103092783505 319.3338772863164 613.6082474226804 319.3535641842243 620.2061855670103 319.3732963236607 626.8041237113401 319.3918181725755 633.4020618556701 319.41038256065184 640 319.4182651186613 640 320 0 320"
      />
      

      
        <g id="labels">
        
          
          <text x="0" y="330">
            Jul 2014
          </text>
          
        
          
        
          
        
          
        
          
        
          
        
          
        
          
        
          
        
          
        
          
        
          
        
          
        
          
          <text x="84.89795918367346" y="330">
            Aug 2015
          </text>
          
        
          
        
          
        
          
        
          
        
          
        
          
        
          
        
          
        
          
        
          
        
          
        
          
        
          
          <text x="169.79591836734693" y="330">
            Sep 2016
          </text>
          
        
          
        
          
        
          
        
          
        
          
        
          
        
          
        
          
        
          
        
          
        
          
        
          
        
          
          <text x="254.69387755102042" y="330">
            Oct 2017
          </text>
          
        
          
        
          
        
          
        
          
        
          
        
          
        
          
        
          
        
          
        
          
        
          
        
          
        
          
          <text x="339.59183673469386" y="330">
            Nov 2018
          </text>
          
        
          
        
          
        
          
        
          
        
          
        
          
        
          
        
          
        
          
        
          
        
          
        
          
        
          
          <text x="424.48979591836735" y="330">
            Dec 2019
          </text>
          
        
          
        
          
        
          
        
          
        
          
        
          
        
          
        
          
        
          
        
          
        
          
        
          
        
          
          <text x="509.38775510204084" y="330">
            Jan 2021
          </text>
          
        
          
        
          
        
          
        
          
        
          
        
          
        
          
        
          
        
          
        
          
        
          
        
          
        
          
          <text x="594.2857142857143" y="330">
            Feb 2022
          </text>
          
        
          
        
          
        
          
        
          
        
          
        
          
        
        </g>
      

      
        <text text-anchor="middle" y="370" x="320" id="legend">
          
          <tspan xml:space="preserve" fill="#C1F12E">   </tspan> Batchfile
          
          <tspan xml:space="preserve" fill="#555555">   </tspan> C
          
          <tspan xml:space="preserve" fill="#178600">   </tspan> C#
          
          <tspan xml:space="preserve" fill="#563d7c">   </tspan> CSS
          
          <tspan xml:space="preserve" fill="#244776">   </tspan> CoffeeScript
          
          <tspan xml:space="preserve" fill="#00ADD8">   </tspan> Go
          
          <tspan xml:space="preserve" fill="#e34c26">   </tspan> HTML
          
          <tspan xml:space="preserve" fill="#22e4e8">   </tspan> JSON
          
        </text>
      
        <text text-anchor="middle" y="400" x="320" id="legend">
          
          <tspan xml:space="preserve" fill="#22e8e8">   </tspan> JSon
          
          <tspan xml:space="preserve" fill="#f1e05a">   </tspan> JavaScript
          
          <tspan xml:space="preserve" fill="#2415b9">   </tspan> Less
          
          <tspan xml:space="preserve" fill="#755462">   </tspan> MySQL
          
          <tspan xml:space="preserve" fill="#4F5D95">   </tspan> PHP
          
          <tspan xml:space="preserve" fill="#fd2fdb">   </tspan> PLpgSQL
          
          <tspan xml:space="preserve" fill="#0298c3">   </tspan> Perl
          
          <tspan xml:space="preserve" fill="#3572A5">   </tspan> Python
          
        </text>
      
        <text text-anchor="middle" y="430" x="320" id="legend">
          
          <tspan xml:space="preserve" fill="#701516">   </tspan> Ruby
          
          <tspan xml:space="preserve" fill="#dea584">   </tspan> Rust
          
          <tspan xml:space="preserve" fill="#26c0b0">   </tspan> SCSS
          
          <tspan xml:space="preserve" fill="#0141ae">   </tspan> SQL
          
          <tspan xml:space="preserve" fill="#89e051">   </tspan> Shell
          
          <tspan xml:space="preserve" fill="#2770da">   </tspan> TSQL
          
          <tspan xml:space="preserve" fill="#2b7489">   </tspan> TypeScript
          
          <tspan xml:space="preserve" fill="#2c3e50">   </tspan> Vue
          
        </text>
      
        <text text-anchor="middle" y="460" x="320" id="legend">
          
          <tspan xml:space="preserve" fill="#4B6C4B">   </tspan> Yacc
          
        </text>
      

    </svg>