<svg
      xmlns="http://www.w3.org/2000/svg"
      viewBox="0 0 640 490"
      style="background-color: #292b3e"
    >
      <style>
        text {
          font-size: 12px;
          font-family: Open Sans, Helvetica Neue, Helvetica, Arial, sans-serif;
        }
        #labels text {
          dominant-baseline: hanging;
          font-size: 10px;
          fill: rgba(0,0,0,0.5);
        }
        #legend {
          font-weight: 600;
        }
        #legend tspan {
          font-size: 15px;
        }
        #branding-text {
          font-size: 9px;
          dominant-baseline: hanging;
          opacity: 0.5;
        }
        #branding-logo {
          opacity: 0.5;
        }
      </style>

      
      
      <polygon
        fill="#4B6C4B"
        fillRule="evenodd"
        points="0 313.61355169546897 6.4 304.2691192775772 12.8 297.2680570098346 19.2 285.93882524347896 25.6 278.82802289245876 32 274.9842157768056 38.4 267.09076719042736 44.800000000000004 257.0788250292645 51.2 246.22216256406043 57.599999999999994 230.99233998490433 64 221.54626049561725 70.4 206.62811353228588 76.8 198.27732163527645 83.2 192.1703700709957 89.60000000000001 182.12952361859988 96 170.61730440371295 102.4 156.9519548708958 108.80000000000001 154.8042842276736 115.19999999999999 149.88795141003212 121.6 142.52572302973698 128 138.2861963432727 134.4 123.7868781208528 140.8 127.17494021467371 147.20000000000002 110.7725168624533 153.6 93.0573375185416 160 88.01888014566896 166.4 78.10631993232437 172.8 68.78379673887082 179.20000000000002 65.97383180732098 185.6 62.13355237895672 192 59.18919557552567 198.4 46.683886955081675 204.8 33.294174861229806 211.20000000000002 31.64653780465784 217.60000000000002 27.41473655785404 224 27.528966149747703 230.39999999999998 25.25127967262881 236.8 13.936192668053536 243.2 9.643160072064063 249.60000000000002 9.88409084265487 256 12.937983721226772 262.4 8.247178688397184 268.8 10.71028970391194 275.2 10.159104371933779 281.6 11.45564033627818 288 14.195775755301952 294.40000000000003 17.693189157388588 300.79999999999995 18.067987468791387 307.2 12.038967917000548 313.6 13.322716523504255 320 11.292856726640935 326.4 7.029692390206094 332.8 1.9719226625041983 339.20000000000005 4.695464237745341 345.6 0.06663476996897089 352 0 358.40000000000003 3.134255720272108 364.79999999999995 11.121781840798235 371.2 13.499824351080974 377.59999999999997 18.04791785223938 384 21.31478050651549 390.4 21.568502538479834 396.8 27.06665046020987 403.2 30.681024962798972 409.6 36.748081916218325 416 42.803794398377704 422.40000000000003 46.960456933535454 428.8 38.51499439402096 435.20000000000005 42.63123964206227 441.59999999999997 50.61555569206337 448 58.0690426659566 454.4 55.542261595314415 460.79999999999995 58.40791549463779 467.2 64.8492470699716 473.6 68.96535986186794 480 76.40580817980475 486.4 74.31954849564352 492.8 74.99075285396447 499.20000000000005 75.05192878829479 505.6 74.49039069846424 512 78.43696078099387 518.4000000000001 85.33620689436577 524.8 88.56509091732443 531.1999999999999 82.02559927925063 537.6 83.08747540827031 544 90.29400451917826 550.4 88.15333022159717 556.8 86.74208058989518 563.2 87.76623438519451 569.6 85.9000783472595 576 86.43119669107148 582.4 86.68143427587478 588.8000000000001 89.27151383742051 595.2 85.21675472859047 601.5999999999999 69.72126377242341 608 69.36927734057318 614.4 67.00839092510154 620.8 64.10062720271725 627.2 60.65562895983703 633.6 56.629207750939315 640 57.708964020912276 640 320 0 320"
      />
      
      <polygon
        fill="#2c3e50"
        fillRule="evenodd"
        points="0 313.61355169546897 6.4 304.2691192775772 12.8 297.2680570098346 19.2 285.93882524347896 25.6 278.82802289245876 32 274.9842157768056 38.4 267.09076719042736 44.800000000000004 257.0788250292645 51.2 246.22216256406043 57.599999999999994 230.99233998490433 64 221.54626049561725 70.4 206.62811353228588 76.8 198.27732163527645 83.2 192.1703700709957 89.60000000000001 182.12952361859988 96 170.61730440371295 102.4 156.9519548708958 108.80000000000001 154.8042842276736 115.19999999999999 149.88795141003212 121.6 142.52572302973698 128 138.2861963432727 134.4 123.7868781208528 140.8 127.17494021467371 147.20000000000002 110.7725168624533 153.6 93.0573375185416 160 88.01888014566896 166.4 78.10631993232437 172.8 68.78379673887082 179.20000000000002 65.97383180732098 185.6 62.13355237895672 192 59.18919557552567 198.4 46.683886955081675 204.8 33.294174861229806 211.20000000000002 31.64653780465784 217.60000000000002 27.41473655785404 224 27.528966149747703 230.39999999999998 25.25127967262881 236.8 13.936192668053536 243.2 9.643160072064063 249.60000000000002 9.88409084265487 256 12.937983721226772 262.4 8.247178688397184 268.8 10.71028970391194 275.2 10.159104371933779 281.6 11.45564033627818 288 14.195775755301952 294.40000000000003 17.693189157388588 300.79999999999995 18.067987468791387 307.2 12.038967917000548 313.6 13.322716523504255 320 11.292856726640935 326.4 7.029692390206094 332.8 1.9719226625041983 339.20000000000005 4.695464237745341 345.6 0.06663476996897089 352 0 358.40000000000003 3.134255720272108 364.79999999999995 11.121781840798235 371.2 13.499824351080974 377.59999999999997 18.04791785223938 384 21.31478050651549 390.4 21.568502538479834 396.8 27.06665046020987 403.2 30.681024962798972 409.6 36.748081916218325 416 42.803794398377704 422.40000000000003 46.960456933535454 428.8 38.51499439402096 435.20000000000005 42.63123964206227 441.59999999999997 50.61555569206337 448 58.0690426659566 454.4 56.642848323221756 460.79999999999995 59.474907488681026 467.2 65.8836696882295 473.6 69.96921069792816 480 77.37901705433384 486.4 75.26399463240176 492.8 75.90637038918513 499.20000000000005 75.93959758381058 505.6 75.35354943885943 512 79.27377216515535 518.4000000000001 86.148286773188 524.8 89.35238251028085 531.1999999999999 82.78962287826059 537.6 83.82817765443505 544 91.01209726521193 550.4 88.85020011043088 556.8 87.41767891727707 563.2 88.42186574691408 569.6 86.53569694693485 576 87.04741340743288 582.4 87.28063621322286 588.8000000000001 89.85242551976526 595.2 85.780497853898 601.5999999999999 70.26779899711127 608 69.8996599645325 614.4 67.52258393721095 620.8 64.59912477645545 627.2 61.13939370288915 633.6 57.09820585803351 640 58.166324925183744 640 320 0 320"
      />
      
      <polygon
        fill="#2b7489"
        fillRule="evenodd"
        points="0 313.61355169546897 6.4 304.2691192775772 12.8 297.2680570098346 19.2 285.93882524347896 25.6 278.82802289245876 32 274.9842157768056 38.4 267.09076719042736 44.800000000000004 257.0788250292645 51.2 246.22216256406043 57.599999999999994 230.99233998490433 64 221.54626049561725 70.4 206.62811353228588 76.8 198.27732163527645 83.2 192.1703700709957 89.60000000000001 182.12952361859988 96 170.61730440371295 102.4 156.9519548708958 108.80000000000001 154.8042842276736 115.19999999999999 149.88795141003212 121.6 142.52572302973698 128 138.2861963432727 134.4 123.7868781208528 140.8 127.17494021467371 147.20000000000002 110.7725168624533 153.6 93.0573375185416 160 88.01888014566896 166.4 78.10631993232437 172.8 68.78379673887082 179.20000000000002 65.97383180732098 185.6 62.13355237895672 192 59.18919557552567 198.4 46.683886955081675 204.8 33.294174861229806 211.20000000000002 31.64653780465784 217.60000000000002 27.41473655785404 224 27.528966149747703 230.39999999999998 25.25127967262881 236.8 13.936192668053536 243.2 9.643160072064063 249.60000000000002 9.88409084265487 256 12.937983721226772 262.4 8.247178688397184 268.8 10.71028970391194 275.2 10.159104371933779 281.6 11.45564033627818 288 14.195775755301952 294.40000000000003 17.693189157388588 300.79999999999995 18.067987468791387 307.2 12.038967917000548 313.6 13.322716523504255 320 11.292856726640935 326.4 7.029692390206094 332.8 1.9719226625041983 339.20000000000005 4.695464237745341 345.6 0.06663476996897089 352 0 358.40000000000003 3.134255720272108 364.79999999999995 11.121781840798235 371.2 13.499824351080974 377.59999999999997 18.04791785223938 384 21.31478050651549 390.4 21.568502538479834 396.8 27.06665046020987 403.2 30.681024962798972 409.6 36.748081916218325 416 42.803794398377704 422.40000000000003 46.960456933535454 428.8 38.51499439402096 435.20000000000005 42.63123964206227 441.59999999999997 50.61555569206337 448 58.0690426659566 454.4 56.642848323221756 460.79999999999995 59.474907488681026 467.2 65.8836696882295 473.6 69.96921069792816 480 77.37901705433384 486.4 75.26399463240176 492.8 75.90637038918513 499.20000000000005 75.93959758381058 505.6 75.35354943885943 512 79.27377216515535 518.4000000000001 86.148286773188 524.8 89.35238251028085 531.1999999999999 84.99972760470044 537.6 87.4974470732806 544 94.56936437253711 550.4 94.67106411172398 556.8 95.57916137404789 563.2 99.33787368129575 569.6 99.23027627026943 576 100.29091636470113 582.4 100.9250892176027 588.8000000000001 103.11122818822068 595.2 98.64744399062178 601.5999999999999 83.41160209027649 608 83.12839238128251 614.4 80.37001343764928 620.8 77.05439462798273 627.2 73.22655496929048 633.6 68.81641546254394 640 69.59377004330713 640 320 0 320"
      />
      
      <polygon
        fill="#2770da"
        fillRule="evenodd"
        points="0 313.61355169546897 6.4 304.2691192775772 12.8 297.2680570098346 19.2 285.93882524347896 25.6 278.82802289245876 32 274.9842157768056 38.4 267.09076719042736 44.800000000000004 257.0788250292645 51.2 246.22216256406043 57.599999999999994 230.99233998490433 64 221.54626049561725 70.4 206.62811353228588 76.8 198.27732163527645 83.2 192.1703700709957 89.60000000000001 182.12952361859988 96 170.61730440371295 102.4 156.9519548708958 108.80000000000001 154.8042842276736 115.19999999999999 149.88795141003212 121.6 142.52572302973698 128 138.2861963432727 134.4 123.7868781208528 140.8 127.17494021467371 147.20000000000002 110.7725168624533 153.6 93.0573375185416 160 88.01888014566896 166.4 78.10631993232437 172.8 68.78379673887082 179.20000000000002 65.97383180732098 185.6 62.13355237895672 192 59.18919557552567 198.4 46.683886955081675 204.8 33.294174861229806 211.20000000000002 31.64653780465784 217.60000000000002 27.41473655785404 224 27.528966149747703 230.39999999999998 25.25127967262881 236.8 14.574401532465743 243.2 11.080170083959842 249.60000000000002 11.27723692165722 256 14.289956109365846 262.4 9.557882854213744 268.8 11.98098527910139 275.2 11.394714082239943 281.6 12.653533741094066 288 15.358266101087906 294.40000000000003 18.82019516764001 300.79999999999995 19.1616854221042 307.2 13.099281366194589 313.6 14.350664558811673 320 12.290424200452605 326.4 7.996809739698165 332.8 2.9104572950044485 339.20000000000005 5.605350700493375 345.6 0.948747478963412 352 0.8577560619920632 358.40000000000003 3.9658292395747594 364.79999999999995 11.92877872195237 371.2 14.282188080714207 377.59999999999997 18.80715928967544 384 22.05084647780842 390.4 22.28210056022681 396.8 27.75915850310821 403.2 31.352394579475742 409.6 37.39960954398714 416 43.435434549111335 422.40000000000003 47.57281662250455 428.8 40.23053539120076 435.20000000000005 44.294414731850566 441.59999999999997 52.22957668354195 448 59.63379653238076 454.4 58.161356577735546 460.79999999999995 60.947064194399104 467.2 67.31088963174244 473.6 71.35424998503296 480 78.72177889303632 486.4 76.56707175347685 492.8 77.16967185747902 499.20000000000005 77.16433740931436 505.6 76.54447227881809 512 80.4283428296823 518.4000000000001 87.2687346634493 524.8 90.43862943231937 531.1999999999999 86.05387112939712 537.6 88.51941342499657 544 95.56013565093338 550.4 95.63255375683906 556.8 96.5113020835928 563.2 100.24246545755776 569.6 100.10725592102307 576 101.1411267098322 582.4 101.75182395920734 588.8000000000001 103.9127272430029 595.2 99.42525514682526 601.5999999999999 84.17676821499902 608 84.13462674588811 614.4 81.54087516066721 620.8 78.21154404906892 627.2 74.34950557993716 633.6 69.9217553760779 640 70.67450090056718 640 320 0 320"
      />
      
      <polygon
        fill="#509e5b"
        fillRule="evenodd"
        points="0 313.61355169546897 6.4 304.90984878225146 12.8 298.33448715820435 19.2 288.0768244552998 25.6 281.2713667324956 32 277.3529779944989 38.4 269.9999629867401 44.800000000000004 260.0717414822535 51.2 250.17321002106596 57.599999999999994 235.18161082945085 64 226.78747875520833 70.4 213.3278930242168 76.8 205.81368861566247 83.2 200.4220581453034 89.60000000000001 190.45086904823347 96 178.68464585719488 102.4 164.78087205748568 108.80000000000001 162.39422948141686 115.19999999999999 158.35641080671752 121.6 150.82952157099288 128 146.47030315805395 134.4 132.5869329154969 140.8 135.7063807851224 147.20000000000002 119.05181326046073 153.6 102.43450070721767 160 97.1705821048181 166.4 87.0840116692145 172.8 77.51850871729405 179.20000000000002 74.59635446633698 185.6 71.29280822371794 192 68.12752626228496 198.4 55.43674691866198 204.8 42.60303650176007 211.20000000000002 40.81642535604459 217.60000000000002 36.30471851323637 224 36.657345142851796 230.39999999999998 34.26588132056065 236.8 23.330672848708332 243.2 19.7685945278256 249.60000000000002 20.332073521960638 256 23.771768706052853 262.4 19.35814008434636 268.8 21.657309711038295 275.2 22.197745620063927 281.6 24.03344905798258 288 26.401851432428202 294.40000000000003 29.526685425121173 300.79999999999995 29.794820294671638 307.2 23.46966810262353 313.6 24.70115910190765 320 22.40437174813661 326.4 17.80203398150826 332.8 12.431545041496236 339.20000000000005 14.835812366984726 345.6 10.202311812099026 352 9.855813574276056 358.40000000000003 12.717379120430849 364.79999999999995 20.455561151991617 371.2 22.802309536425582 377.59999999999997 27.11130574780225 384 30.808811140191835 390.4 30.77273333821074 396.8 35.99885546730479 403.2 39.340578265970464 409.6 45.2325592165779 416 51.02928539064658 422.40000000000003 55.06966318504948 428.8 47.53792405801539 435.20000000000005 51.37875025531275 441.59999999999997 59.10453673829892 448 66.29890455657562 454.4 64.91790364950822 460.79999999999995 67.4973704401072 467.2 73.66125074382484 473.6 78.63292420732225 480 85.77827490172976 486.4 83.41501492266423 492.8 83.84702889826639 499.20000000000005 83.6378696220838 505.6 82.83926358629924 512 87.04917416786188 518.4000000000001 93.69389040191354 524.8 96.66766075213968 531.1999999999999 92.09880911105165 537.6 94.3798326769184 544 101.24166850132085 550.4 101.14617325308703 556.8 101.85662074946973 563.2 105.42980602566934 569.6 105.1362550617605 576 106.0166175495562 582.4 106.49269686328535 588.8000000000001 108.50888635433148 595.2 104.55198635603813 601.5999999999999 89.14700968317291 608 88.95797577943006 614.4 86.2169954536356 620.8 82.74492707880032 627.2 78.74890619258326 633.6 74.18686737191183 640 74.83378338642251 640 320 0 320"
      />
      
      <polygon
        fill="#89e051"
        fillRule="evenodd"
        points="0 313.61355169546897 6.4 304.90984878225146 12.8 298.33448715820435 19.2 288.0768244552998 25.6 281.2713667324956 32 277.3529779944989 38.4 269.9999629867401 44.800000000000004 260.0717414822535 51.2 250.17321002106596 57.599999999999994 235.18161082945085 64 226.78747875520833 70.4 213.3278930242168 76.8 205.81368861566247 83.2 200.4220581453034 89.60000000000001 190.45086904823347 96 178.68464585719488 102.4 164.78087205748568 108.80000000000001 162.39422948141686 115.19999999999999 158.35641080671752 121.6 150.82952157099288 128 146.47030315805395 134.4 132.5869329154969 140.8 135.7063807851224 147.20000000000002 119.05181326046073 153.6 102.43450070721767 160 97.1705821048181 166.4 87.0840116692145 172.8 77.51850871729405 179.20000000000002 74.59635446633698 185.6 71.29280822371794 192 68.12752626228496 198.4 55.43674691866198 204.8 42.60303650176007 211.20000000000002 40.81642535604459 217.60000000000002 36.30471851323637 224 36.657345142851796 230.39999999999998 34.26588132056065 236.8 23.330672848708332 243.2 19.7685945278256 249.60000000000002 20.332073521960638 256 23.771768706052853 262.4 19.35814008434636 268.8 21.657309711038295 275.2 22.197745620063927 281.6 24.03344905798258 288 26.401851432428202 294.40000000000003 29.526685425121173 300.79999999999995 29.794820294671638 307.2 23.46966810262353 313.6 24.70115910190765 320 22.40437174813661 326.4 17.80203398150826 332.8 12.431545041496236 339.20000000000005 14.835812366984726 345.6 10.202311812099026 352 9.855813574276056 358.40000000000003 12.717379120430849 364.79999999999995 20.455561151991617 371.2 22.802309536425582 377.59999999999997 27.11130574780225 384 30.808811140191835 390.4 30.77273333821074 396.8 35.99885546730479 403.2 39.340578265970464 409.6 45.2325592165779 416 51.02928539064658 422.40000000000003 55.06966318504948 428.8 47.53792405801539 435.20000000000005 51.37875025531275 441.59999999999997 59.10453673829892 448 66.29890455657562 454.4 64.91790364950822 460.79999999999995 67.4973704401072 467.2 73.66125074382484 473.6 78.63292420732225 480 85.77827490172976 486.4 83.41501492266423 492.8 83.84702889826639 499.20000000000005 83.6378696220838 505.6 82.83926358629924 512 87.04917416786188 518.4000000000001 93.69389040191354 524.8 96.66766075213968 531.1999999999999 92.09880911105165 537.6 94.3798326769184 544 101.24166850132085 550.4 101.14617325308703 556.8 101.85662074946973 563.2 105.42980602566934 569.6 105.1362550617605 576 106.0166175495562 582.4 106.49269686328535 588.8000000000001 108.50888635433148 595.2 104.55198635603813 601.5999999999999 89.14700968317291 608 88.95797577943006 614.4 86.2169954536356 620.8 82.74492707880032 627.2 78.74890619258326 633.6 75.29817951589132 640 75.91752060096775 640 320 0 320"
      />
      
      <polygon
        fill="#0141ae"
        fillRule="evenodd"
        points="0 313.6957898039661 6.4 304.98957662531416 12.8 298.4118586813417 19.2 288.15459683806284 25.6 281.3468405951555 32 277.4261480566517 38.4 270.07089957876406 44.800000000000004 260.16867218699804 51.2 250.6255651454864 57.599999999999994 236.59145661000252 64 228.16531649189022 70.4 215.56292949828713 76.8 209.34790001381828 83.2 203.84838993383246 89.60000000000001 193.8095461098519 96 182.16690430658412 102.4 169.2001815092218 108.80000000000001 166.68974618536933 115.19999999999999 162.52080898579567 121.6 154.87488707227033 128 151.5032599816376 134.4 138.33047860869914 140.8 141.27460709810563 147.20000000000002 124.45547396873494 153.6 107.98213118400548 160 102.61890584507174 166.4 92.52510067028285 172.8 83.01586551448884 179.20000000000002 79.93123973614973 185.6 76.46484959440022 192 73.61552218447252 198.4 61.011256080135865 204.8 50.21122118957214 211.20000000000002 49.30686187849881 217.60000000000002 44.535988819847546 224 46.726501219073555 230.39999999999998 45.53598046867711 236.8 38.06179580340711 243.2 34.379852619627 249.60000000000002 35.18805609416273 256 40.459236651560275 262.4 36.767211869514426 268.8 38.53498214530157 275.2 38.69012632143864 281.6 40.02240761034665 288 41.96034248950912 294.40000000000003 45.107587630671105 300.79999999999995 44.91801453191732 307.2 38.14240863355161 313.6 38.92602190878455 320 36.368769559120665 326.4 33.69996284861395 332.8 28.41739741340905 339.20000000000005 30.372698875548338 345.6 26.2938894011304 352 25.536676632958006 358.40000000000003 28.083917884274456 364.79999999999995 35.367954345025 371.2 37.58874058743555 377.59999999999997 41.460735330161754 384 45.374494793443944 390.4 45.021845519434066 396.8 49.82685054759037 403.2 53.20075719808983 409.6 58.858097708967534 416 64.62549960784673 422.40000000000003 68.63081856103352 428.8 63.218576475945554 435.20000000000005 66.93881238414684 441.59999999999997 74.20473311551825 448 80.93817375829462 454.4 80.26644650054234 460.79999999999995 82.74331274975947 467.2 88.4418177618096 473.6 93.40779364985141 480 100.1021481095662 486.4 98.34491287592496 492.8 99.940393337382 499.20000000000005 99.86315682273909 505.6 98.67430437257872 512 102.40085916240241 518.4000000000001 108.59186651988523 524.8 111.11088300991076 531.1999999999999 106.11517559179504 537.6 107.96834771776358 544 114.4154041590659 550.4 113.93057184799434 556.8 114.39447821593205 563.2 117.59712031092195 569.6 116.9321638744918 576 117.45246939145719 582.4 117.64302156990021 588.8000000000001 119.3188593783137 595.2 115.05076119944096 601.5999999999999 99.80070257935199 608 99.38382576706539 614.4 97.92052596653957 620.8 95.72571231439957 627.2 92.85895848708856 633.6 90.30678621170745 640 90.77884522813704 640 320 0 320"
      />
      
      <polygon
        fill="#26c0b0"
        fillRule="evenodd"
        points="0 313.6957898039661 6.4 305.0750777203756 12.8 298.5224317491233 19.2 288.3920368988863 25.6 281.7296897173366 32 277.8556765668394 38.4 270.5454280844831 44.800000000000004 260.80007818741694 51.2 251.7275634746851 57.599999999999994 237.79094071212455 64 230.2054726635225 70.4 218.2168208943731 76.8 212.42853580421252 83.2 207.47606756561046 89.60000000000001 198.3098181601871 96 186.52980786406192 102.4 173.80648826445326 108.80000000000001 171.15544880029358 115.19999999999999 166.878299281457 121.6 159.35259158622222 128 156.04890333063597 134.4 143.12360819523258 140.8 145.92425436965038 147.20000000000002 128.96770260464825 153.6 112.62431067576739 160 107.34719599540523 166.4 97.3918339923139 172.8 88.0744911228308 179.20000000000002 84.90352770766623 185.6 81.47895057714942 192 78.5402149019938 198.4 65.8389594176468 204.8 55.25800971243075 211.20000000000002 54.27467296340404 217.60000000000002 49.44595487177793 224 52.031465946242065 230.39999999999998 50.756982764686995 236.8 43.28761303874694 243.2 39.6242740571667 249.60000000000002 40.272395389706276 256 46.01549271300439 262.4 42.2263849442532 268.8 45.29497303923779 275.2 46.226324686471685 281.6 47.342323750552396 288 49.122447606028686 294.40000000000003 52.19648840710869 300.79999999999995 51.84804594333076 307.2 44.89933198163294 313.6 45.54047494224994 320 42.90215580387854 326.4 40.530010801546496 332.8 35.11180505241265 339.20000000000005 37.18657413981714 345.6 32.913524710846445 352 31.973529406493583 358.40000000000003 34.32992479365305 364.79999999999995 41.45130929523623 371.2 43.65067655849418 377.59999999999997 47.722286705005956 384 51.450486873241914 390.4 51.049214521119836 396.8 55.67608251505999 403.2 59.07776425508365 409.6 64.64978354782673 416 70.24039774631996 422.40000000000003 74.11929936795642 428.8 68.67706717740026 435.20000000000005 72.3180623980843 441.59999999999997 79.43589631038563 448 86.08175520013071 454.4 85.88904987771406 460.79999999999995 88.95222900805629 467.2 94.47236856911411 473.6 100.00835415510281 480 106.58873039029427 486.4 104.63979152225437 492.8 106.0985941870166 499.20000000000005 105.83338443431248 505.6 104.49627706348707 512 108.045117847375 518.4000000000001 114.08040805299555 524.8 116.43189075324108 531.1999999999999 111.2789240874572 537.6 112.97447528017415 544 119.2687225422556 550.4 118.64045209937754 556.8 118.96059163318432 563.2 122.02828482966908 569.6 121.47124057511846 576 121.85299410645652 582.4 121.92203965715751 588.8000000000001 123.47008788658687 595.2 119.66087829174398 601.5999999999999 104.27009592850143 608 103.72112999985711 614.4 102.12543632176889 620.8 99.80227083396497 627.2 96.81503563423922 633.6 94.14210630393757 640 94.51899916450262 640 320 0 320"
      />
      
      <polygon
        fill="#dea584"
        fillRule="evenodd"
        points="0 313.6957898039661 6.4 305.0750777203756 12.8 298.5224317491233 19.2 288.3920368988863 25.6 281.7296897173366 32 277.8556765668394 38.4 270.5454280844831 44.800000000000004 260.80007818741694 51.2 251.7275634746851 57.599999999999994 237.79094071212455 64 230.2054726635225 70.4 218.60521529360858 76.8 212.80507469460522 83.2 207.841112838247 89.60000000000001 198.66407470122405 96 187.99624942380325 102.4 176.33194099978496 108.80000000000001 173.60381359659075 115.19999999999999 169.2519289445408 121.6 162.75993334034524 128 159.3522376686587 134.4 148.55730463067917 140.8 151.19209032489852 147.20000000000002 136.32709590427726 153.6 123.07440541392776 160 117.47831025059793 166.4 107.22352755649055 172.8 98.72226090382264 179.20000000000002 95.23660637065689 185.6 91.49661680600366 192 88.25209693134624 198.4 76.38150479275126 204.8 66.58285798822936 211.20000000000002 65.26482130481813 217.60000000000002 60.100633155668845 224 62.37125274653869 230.39999999999998 60.781154196464456 236.8 53.00580103569695 243.2 49.055245682753196 249.60000000000002 49.41549293102588 256 54.88837115310355 262.4 51.93138015129131 268.8 54.70373192966821 275.2 55.37529150114739 281.6 56.21202408408999 288 57.73000799006661 294.40000000000003 60.54130846412869 300.79999999999995 61.064268295004695 307.2 54.090054472156226 313.6 54.45065272190254 320 51.549000790867126 326.4 48.91291470648065 332.8 43.24695536018453 339.20000000000005 45.073405716702496 345.6 41.66888051045589 352 40.48713435660727 358.40000000000003 42.58365813828436 364.79999999999995 49.46110986043851 371.2 51.47785364697154 377.59999999999997 55.31813503737726 384 58.81447522380637 390.4 58.18842247416762 396.8 62.604295223397514 403.2 65.7944957037081 409.6 71.16800581624278 416 76.55965420647848 422.40000000000003 80.24566510464084 428.8 74.62832047556032 435.20000000000005 78.08765623490117 441.59999999999997 85.03497265686207 448 91.5099231892327 454.4 91.15679253452188 460.79999999999995 94.05917601585327 467.2 99.42342806291887 473.6 104.81308871128635 480 111.24680257264743 486.4 109.16019733490177 492.8 110.4810169495695 499.20000000000005 110.08203655079927 505.6 108.62761759124226 512 112.05035073686074 518.4000000000001 117.96726875187676 524.8 120.2001071753175 531.1999999999999 116.05413924318901 537.6 117.60392950174145 544 123.75686404857717 550.4 123.35412624757845 556.8 123.53038211870086 563.2 126.46301821926014 569.6 125.77060604523578 576 126.02112453140069 582.4 126.00003875396166 588.8000000000001 127.4236082660178 595.2 123.49755429390581 601.5999999999999 107.98965988551203 608 107.33076445309598 614.4 105.6248889133403 620.8 103.1949048287889 627.2 100.10740195969473 633.6 97.33397520747786 640 97.63166878941487 640 320 0 320"
      />
      
      <polygon
        fill="#701516"
        fillRule="evenodd"
        points="0 313.6957898039661 6.4 305.0750777203756 12.8 298.5224317491233 19.2 288.3920368988863 25.6 281.7296897173366 32 277.8556765668394 38.4 270.5454280844831 44.800000000000004 260.80007818741694 51.2 251.7275634746851 57.599999999999994 237.79094071212455 64 230.2054726635225 70.4 218.60521529360858 76.8 212.80507469460522 83.2 207.841112838247 89.60000000000001 198.66407470122405 96 187.99624942380325 102.4 176.33194099978496 108.80000000000001 173.60381359659075 115.19999999999999 169.2519289445408 121.6 162.75993334034524 128 159.3522376686587 134.4 148.55730463067917 140.8 151.19209032489852 147.20000000000002 136.32709590427726 153.6 123.07440541392776 160 117.47831025059793 166.4 107.22352755649055 172.8 98.72226090382264 179.20000000000002 95.23660637065689 185.6 91.49661680600366 192 88.25209693134624 198.4 76.38150479275126 204.8 66.58285798822936 211.20000000000002 65.26482130481813 217.60000000000002 60.100633155668845 224 62.37125274653869 230.39999999999998 60.781154196464456 236.8 53.00580103569695 243.2 49.055245682753196 249.60000000000002 49.41549293102588 256 54.88837115310355 262.4 51.93138015129131 268.8 54.70373192966821 275.2 55.37529150114739 281.6 56.21202408408999 288 57.73000799006661 294.40000000000003 60.54130846412869 300.79999999999995 61.064268295004695 307.2 54.090054472156226 313.6 54.45065272190254 320 51.549000790867126 326.4 48.91291470648065 332.8 43.24695536018453 339.20000000000005 45.073405716702496 345.6 41.66888051045589 352 40.48713435660727 358.40000000000003 42.58365813828436 364.79999999999995 49.46110986043851 371.2 51.47785364697154 377.59999999999997 55.31813503737726 384 58.81447522380637 390.4 58.18842247416762 396.8 62.604295223397514 403.2 65.7944957037081 409.6 71.16800581624278 416 76.55965420647848 422.40000000000003 80.24566510464084 428.8 74.62832047556032 435.20000000000005 78.08765623490117 441.59999999999997 85.03497265686207 448 91.5099231892327 454.4 91.15679253452188 460.79999999999995 94.05917601585327 467.2 99.42342806291887 473.6 104.81308871128635 480 111.24680257264743 486.4 109.16019733490177 492.8 110.4810169495695 499.20000000000005 110.08203655079927 505.6 108.62761759124226 512 112.05035073686074 518.4000000000001 117.96726875187676 524.8 120.2001071753175 531.1999999999999 116.05413924318901 537.6 117.60392950174145 544 123.75686404857717 550.4 123.35412624757845 556.8 123.53038211870086 563.2 126.46301821926014 569.6 125.77060604523578 576 126.02112453140069 582.4 126.00003875396166 588.8000000000001 127.4236082660178 595.2 123.49755429390581 601.5999999999999 108.00921611403862 608 107.34974270703273 614.4 105.64328786821918 620.8 103.21274216507535 627.2 100.124712122803 633.6 97.3507569869943 640 97.6480341650456 640 320 0 320"
      />
      
      <polygon
        fill="#3572A5"
        fillRule="evenodd"
        points="0 313.6957898039661 6.4 305.0750777203756 12.8 298.5224317491233 19.2 288.3920368988863 25.6 281.7296897173366 32 277.8556765668394 38.4 270.5454280844831 44.800000000000004 260.80007818741694 51.2 251.7275634746851 57.599999999999994 237.79094071212455 64 230.2054726635225 70.4 218.60521529360858 76.8 212.80507469460522 83.2 207.841112838247 89.60000000000001 198.66407470122405 96 187.99624942380325 102.4 176.33194099978496 108.80000000000001 173.60381359659075 115.19999999999999 169.2519289445408 121.6 163.42156107913308 128 159.99366958317626 134.4 149.21619852993874 140.8 151.8308718650013 147.20000000000002 137.94824097148282 153.6 125.43997411232144 160 119.77167119654433 166.4 109.44910965161017 172.8 100.87990817120766 179.20000000000002 97.33048569538298 185.6 93.5265814588058 192 90.22009806209493 198.4 78.29516646639203 204.8 68.47397688861915 211.20000000000002 67.10004919914809 217.60000000000002 61.87984160445632 224 64.09787796832975 230.39999999999998 62.45507504713896 236.8 54.62862650234348 243.2 50.63010938049649 249.60000000000002 50.94228471016544 256 56.37003957315744 262.4 53.40365512408516 268.8 56.13106644119978 275.2 56.763214922525606 281.6 57.557582101708135 288 59.03579857503041 294.40000000000003 61.807240475781214 300.79999999999995 62.29278639908512 307.2 55.28107276833856 313.6 55.60531586285708 320 52.669538486014744 326.4 49.99924865911271 332.8 44.30118314118192 339.20000000000005 46.09545396143278 345.6 42.65973131857993 352 41.4506261677555 358.40000000000003 43.51773992804442 364.79999999999995 50.36758527877896 371.2 52.37899101765663 377.59999999999997 56.19263971067369 384 59.66228626802359 390.4 59.01035446278047 396.8 63.40193554511109 403.2 66.567788369183 409.6 71.9184443197847 416 77.28718599065107 422.40000000000003 80.95098939398821 428.8 75.31348405085447 435.20000000000005 78.75190557765967 441.59999999999997 85.67959048706183 448 92.13486439892728 454.4 91.76326399246719 460.79999999999995 94.64713528564417 467.2 99.99344019607832 473.6 105.36625448555748 480 111.78308327123247 486.4 109.68062846773631 492.8 110.98556220424291 499.20000000000005 110.57118085314767 505.6 109.10325591684392 512 112.5114703969075 518.4000000000001 118.41476029436635 524.8 120.63393933294219 531.1999999999999 116.47514973935603 537.6 118.0120888467456 544 124.15256457880008 550.4 123.73813202381515 556.8 123.90266639471352 563.2 126.82429980404524 569.6 126.12085969272863 576 126.36068690717349 582.4 126.33022527354595 588.8000000000001 127.74371600581233 595.2 123.80820143827864 601.5999999999999 108.32979720984048 608 107.66084921264692 614.4 105.94489791810813 620.8 103.50514580641664 627.2 100.40847391391193 633.6 97.62585711736494 640 97.91630828149064 640 320 0 320"
      />
      
      <polygon
        fill="#0298c3"
        fillRule="evenodd"
        points="0 313.6957898039661 6.4 305.0750777203756 12.8 298.5224317491233 19.2 288.3920368988863 25.6 281.7296897173366 32 277.8556765668394 38.4 270.5454280844831 44.800000000000004 260.80007818741694 51.2 251.7275634746851 57.599999999999994 237.79094071212455 64 230.2054726635225 70.4 218.60521529360858 76.8 212.80507469460522 83.2 207.841112838247 89.60000000000001 198.66407470122405 96 187.99624942380325 102.4 176.33194099978496 108.80000000000001 173.60381359659075 115.19999999999999 169.2519289445408 121.6 163.42156107913308 128 159.99366958317626 134.4 149.21619852993874 140.8 151.8308718650013 147.20000000000002 137.94824097148282 153.6 126.07808533190124 160 120.39030443498547 166.4 110.04945952967944 172.8 101.4619327148821 179.20000000000002 97.895308832338 185.6 94.07416367078139 192 90.75096567354115 198.4 78.81137594755535 204.8 68.97442931128506 211.20000000000002 67.69018522019235 217.60000000000002 62.451964080518906 224 64.65309164336503 230.39999999999998 62.99334115297347 236.8 55.150462352113095 243.2 51.13652270010789 249.60000000000002 51.43324000922081 256 56.84648497136817 262.4 53.86555730938704 268.8 56.57886930044526 275.2 57.19865321074474 281.6 57.97972890711674 288 59.44546902596204 294.40000000000003 62.20440597646939 300.79999999999995 62.678213887369395 307.2 55.65473531302803 313.6 55.967572591020826 320 53.02108889962625 326.4 50.34006819026763 332.8 44.63192991379009 339.20000000000005 46.4161048974878 345.6 42.97059455981372 352 41.752905962758575 358.40000000000003 43.81079281555833 364.79999999999995 50.65197713233937 371.2 52.65470198565703 377.59999999999997 56.46020216963262 384 59.921681558253 390.4 59.26183183907813 396.8 63.64598065257411 403.2 66.8043841407729 409.6 72.14804763015445 416 77.50978080027807 422.40000000000003 81.16678961112459 428.8 75.52311594641819 435.20000000000005 78.95513857709133 441.59999999999997 85.8768170500449 448 92.32607072592384 454.4 91.94881932130221 460.79999999999995 94.82702663879235 467.2 100.16784048390892 473.6 105.53550045584402 480 111.94716309726738 486.4 109.839859004586 492.8 111.13993233418572 499.20000000000005 110.72083890837345 505.6 109.24878167317792 512 112.65255405831724 518.4000000000001 118.55167430668271 524.8 120.76667412999245 531.1999999999999 116.60396162469692 537.6 118.13696881933811 544 124.27363267304725 550.4 123.85562199957562 556.8 124.01657007296097 563.2 126.93483711427487 569.6 126.22802290802113 576 126.46457902571888 582.4 126.4312487661148 588.8000000000001 127.84165581744477 595.2 126.40245190916599 601.5999999999999 115.1776669116438 608 114.40697172499188 614.4 112.69062124054068 620.8 110.04495988215328 627.2 107.19473325086366 633.6 104.20497028402593 640 104.33217383803895 640 320 0 320"
      />
      
      <polygon
        fill="#fd2fdb"
        fillRule="evenodd"
        points="0 313.6957898039661 6.4 305.0750777203756 12.8 298.5224317491233 19.2 288.3920368988863 25.6 281.7296897173366 32 277.8556765668394 38.4 270.5454280844831 44.800000000000004 260.80007818741694 51.2 251.7275634746851 57.599999999999994 237.79094071212455 64 230.2054726635225 70.4 218.60521529360858 76.8 212.80507469460522 83.2 207.841112838247 89.60000000000001 198.66407470122405 96 187.99624942380325 102.4 176.33194099978496 108.80000000000001 173.60381359659075 115.19999999999999 169.2519289445408 121.6 163.42156107913308 128 159.99366958317626 134.4 149.21619852993874 140.8 151.8308718650013 147.20000000000002 137.94824097148282 153.6 126.07808533190124 160 120.39030443498547 166.4 110.04945952967944 172.8 101.4619327148821 179.20000000000002 97.895308832338 185.6 94.07416367078139 192 90.75096567354115 198.4 78.81137594755535 204.8 68.97442931128506 211.20000000000002 67.69018522019235 217.60000000000002 62.451964080518906 224 64.65309164336503 230.39999999999998 62.99334115297347 236.8 55.150462352113095 243.2 51.13652270010789 249.60000000000002 51.43324000922081 256 56.84648497136817 262.4 53.86555730938704 268.8 56.57886930044526 275.2 58.32825647284085 281.6 59.07485171667554 288 60.50822601062788 294.40000000000003 63.23472294959697 300.79999999999995 64.558841028794 307.2 57.47795740377006 313.6 57.73514175112837 320 54.736418434041695 326.4 52.003038496144654 332.8 46.24575197819786 339.20000000000005 47.980665899184544 345.6 44.48739826826386 352 43.22782822741959 358.40000000000003 45.24069395896191 364.79999999999995 52.03961819235877 371.2 53.999986170297916 377.59999999999997 57.76572724449767 384 61.18735617718204 390.4 60.48887237534882 396.8 64.8367566605161 403.2 67.95881249435297 409.6 73.26835747365965 416 78.59589383699972 422.40000000000003 82.2197496430513 428.8 76.54597870297232 435.20000000000005 79.94677892840386 441.59999999999997 86.83915008017965 448 93.25902902984024 454.4 92.85420454531302 460.79999999999995 95.70477559067194 467.2 101.01879654867699 473.6 106.36130693961883 480 112.74776235640911 486.4 110.6167970394608 492.8 111.89315475837901 499.20000000000005 111.45106966846106 505.6 109.95884955115378 512 113.3409475269724 518.4000000000001 119.21972268383828 524.8 121.4143307047774 531.1999999999999 117.23247704831795 537.6 118.74629918604245 544 124.86436356412472 550.4 124.4288941220357 556.8 124.57234343588638 563.2 127.47418485523195 569.6 126.75090737882871 576 126.97150274328453 582.4 126.92417550847907 588.8000000000001 128.31953625458374 595.2 126.86620886335064 601.5999999999999 115.62726791337286 608 114.84328502516888 614.4 114.22089958650363 620.8 111.52852745977515 627.2 109.7541791907108 633.6 106.68629028831461 640 106.75192540012318 640 320 0 320"
      />
      
      <polygon
        fill="#4F5D95"
        fillRule="evenodd"
        points="0 313.6957898039661 6.4 305.0750777203756 12.8 298.5224317491233 19.2 288.3920368988863 25.6 281.7296897173366 32 277.8556765668394 38.4 270.5454280844831 44.800000000000004 260.80007818741694 51.2 251.7275634746851 57.599999999999994 237.79094071212455 64 230.2054726635225 70.4 218.60521529360858 76.8 212.80507469460522 83.2 207.841112838247 89.60000000000001 198.66407470122405 96 187.99624942380325 102.4 176.33194099978496 108.80000000000001 173.60381359659075 115.19999999999999 169.2519289445408 121.6 163.42156107913308 128 159.99366958317626 134.4 149.21619852993874 140.8 151.8308718650013 147.20000000000002 137.94824097148282 153.6 126.07808533190124 160 120.39030443498547 166.4 110.04945952967944 172.8 101.4619327148821 179.20000000000002 97.895308832338 185.6 94.07416367078139 192 90.75096567354115 198.4 78.81137594755535 204.8 68.97442931128506 211.20000000000002 67.69018522019235 217.60000000000002 62.451964080518906 224 64.6727187108902 230.39999999999998 63.01236911504509 236.8 55.168909496458355 243.2 51.154424648646796 249.60000000000002 51.45059551249403 256 56.863327541805575 262.4 53.88188576945538 268.8 56.59469934339438 275.2 58.343649422872375 281.6 59.08977480528114 288 60.522708055517455 294.40000000000003 63.248762938667426 300.79999999999995 64.57246607407882 307.2 57.49116655173452 313.6 57.747947697758434 320 54.74884590753413 326.4 52.01508662824858 332.8 46.25744403392736 339.20000000000005 47.99200106166461 345.6 44.49838743173126 352 43.238513961856654 358.40000000000003 45.25105351773618 364.79999999999995 52.04967157914905 371.2 54.009732683824666 377.59999999999997 57.775185704741375 384 61.196525923963804 390.4 60.497762220644574 396.8 64.84538377103345 403.2 67.9671762674538 409.6 73.27647405983836 416 78.60376266855371 422.40000000000003 82.2273782835249 428.8 76.55338929019473 435.20000000000005 79.95396331109177 441.59999999999997 86.84612213185227 448 93.26578826407146 454.4 92.8607640138149 460.79999999999995 95.71113483527515 467.2 101.0249616812514 473.6 106.36728986496314 480 112.75356265642722 486.4 110.62242591479477 492.8 111.89861181549034 499.20000000000005 111.45636015179068 505.6 109.96399395584135 512 113.34593490134282 518.4000000000001 119.224562659106 524.8 121.41902294278694 531.1999999999999 117.23703060960139 537.6 118.7507137523782 544 124.86864337833126 550.4 124.4330474486286 556.8 124.57636998490071 563.2 127.47809240146918 569.6 126.75469564938061 576 126.97517537925634 582.4 126.92774673695817 588.8000000000001 128.3229984733913 595.2 126.86956875801857 601.5999999999999 115.6305252493193 608 114.84644609222943 614.4 114.22396416365962 620.8 111.53149849250357 627.2 109.75706241614645 633.6 106.68908550506441 640 106.75465125934679 640 320 0 320"
      />
      
      <polygon
        fill="#755462"
        fillRule="evenodd"
        points="0 318.0212241735184 6.4 313.5273661751743 12.8 310.8961256778335 19.2 304.6063553677133 25.6 301.5123673272205 32 299.63474968080624 38.4 295.6873376442783 44.800000000000004 289.60725088171125 51.2 284.85404089265614 57.599999999999994 274.44712417945067 64 270.1967701987166 70.4 262.95237451182254 76.8 259.78062668077354 83.2 257.2939922103185 89.60000000000001 251.48859324751487 96 243.11578629912606 102.4 233.6907873766424 108.80000000000001 232.44231672294717 115.19999999999999 230.48715186493172 121.6 226.7432844245894 128 225.02615546329554 134.4 216.76223481264913 140.8 218.75153630611925 147.20000000000002 208.3586523975933 153.6 198.35256465930533 160 194.34757731528518 166.4 186.11870289823517 172.8 178.69897457616753 179.20000000000002 176.475067321628 185.6 173.8723299190748 192 171.38695397059803 198.4 162.6560496782554 204.8 154.1287583196096 211.20000000000002 153.5480091286233 217.60000000000002 149.77122790972902 224 151.99185615564932 230.39999999999998 150.24048201212514 236.8 143.46421064311133 243.2 140.6980445410499 249.60000000000002 142.92943877964373 256 147.05375222916933 262.4 144.44722633453182 268.8 147.14074624312755 275.2 149.5342950410102 281.6 150.79093140436248 288 152.38225005965188 294.40000000000003 155.03554243454056 300.79999999999995 154.49054357212006 307.2 148.88690844601808 313.6 148.96299065252674 320 145.90475532443656 326.4 141.78907968700597 332.8 137.45873471639686 339.20000000000005 139.3710006124905 345.6 135.0640362515664 352 134.18781665429603 358.40000000000003 137.0970549178394 364.79999999999995 142.45251667572387 371.2 144.39925500973106 377.59999999999997 146.97578586682425 384 149.82616634693363 390.4 149.0645813513193 396.8 151.71941470202157 403.2 154.192361756979 409.6 158.30295954459598 416 162.42165317079133 422.40000000000003 164.48558190830934 428.8 158.22336577180297 435.20000000000005 161.3478822435993 441.59999999999997 165.87468516450113 448 170.07072374227363 454.4 168.5637555184075 460.79999999999995 169.21382134045984 467.2 173.4727726594392 473.6 177.1538882059077 480 181.4937028654538 486.4 177.55146974776846 492.8 179.11022251055132 499.20000000000005 179.84340480995297 505.6 178.8520841188252 512 181.19135848080367 518.4000000000001 185.21854650721883 524.8 189.19429801433978 531.1999999999999 186.26908088244977 537.6 186.94223549968225 544 190.9833562301816 550.4 193.0612356944121 556.8 195.38485646874045 563.2 199.02885634411584 569.6 200.45620955643614 576 202.54865364700603 582.4 204.68155715078757 588.8000000000001 208.14743419221605 595.2 207.1113701173684 601.5999999999999 197.5379698943099 608 198.09254045744223 614.4 198.37924463680883 620.8 197.5483613060759 627.2 197.64432673878667 633.6 195.98826656647643 640 196.409134975695 640 320 0 320"
      />
      
      <polygon
        fill="#2415b9"
        fillRule="evenodd"
        points="0 318.0212241735184 6.4 313.5273661751743 12.8 310.8961256778335 19.2 304.6063553677133 25.6 301.5123673272205 32 299.63474968080624 38.4 295.6873376442783 44.800000000000004 289.60725088171125 51.2 284.85404089265614 57.599999999999994 274.44712417945067 64 270.1967701987166 70.4 262.95237451182254 76.8 259.78062668077354 83.2 257.2939922103185 89.60000000000001 251.48859324751487 96 243.11578629912606 102.4 233.6907873766424 108.80000000000001 232.44231672294717 115.19999999999999 230.48715186493172 121.6 226.7432844245894 128 225.02615546329554 134.4 216.76223481264913 140.8 218.75153630611925 147.20000000000002 208.3586523975933 153.6 198.35256465930533 160 194.34757731528518 166.4 186.11870289823517 172.8 178.69897457616753 179.20000000000002 176.475067321628 185.6 173.8723299190748 192 171.38695397059803 198.4 162.6560496782554 204.8 154.1287583196096 211.20000000000002 153.5480091286233 217.60000000000002 149.77122790972902 224 151.99185615564932 230.39999999999998 150.24048201212514 236.8 143.46421064311133 243.2 140.6980445410499 249.60000000000002 142.92943877964373 256 147.05375222916933 262.4 144.44722633453182 268.8 147.14074624312755 275.2 149.5342950410102 281.6 150.79093140436248 288 152.38225005965188 294.40000000000003 155.03554243454056 300.79999999999995 154.49054357212006 307.2 148.88690844601808 313.6 148.96299065252674 320 145.90475532443656 326.4 142.1487102387535 332.8 137.81836526814442 339.20000000000005 139.73063116423802 345.6 135.4236668033139 352 134.54744720604353 358.40000000000003 137.45668546958694 364.79999999999995 142.8121472274714 371.2 144.75888556147856 377.59999999999997 147.33541641857175 384 150.1857968986812 390.4 149.42421190306686 396.8 152.07904525376907 403.2 154.5519923087265 409.6 158.66259009634348 416 162.78128372253886 422.40000000000003 164.84521246005687 428.8 158.58299632355053 435.20000000000005 161.70751279534682 441.59999999999997 166.23431571624866 448 170.43035429402116 454.4 168.923386070155 460.79999999999995 169.57345189220737 467.2 173.83240321118672 473.6 177.51351875765522 480 181.85333341720133 486.4 177.911100299516 492.8 179.46985306229888 499.20000000000005 180.2030353617005 505.6 179.21171467057272 512 181.5509890325512 518.4000000000001 185.57817705896636 524.8 189.5539285660873 531.1999999999999 186.6287114341973 537.6 187.30186605142978 544 191.34298678192914 550.4 193.42086624615962 556.8 195.74448702048798 563.2 199.38848689586337 569.6 200.81584010818366 576 202.90828419875356 582.4 205.0411877025351 588.8000000000001 208.5070647439636 595.2 207.47100066911594 601.5999999999999 197.89760044605742 608 198.45217100918975 614.4 198.73887518855636 620.8 197.90799185782342 627.2 198.0039572905342 633.6 196.34789711822395 640 196.409134975695 640 320 0 320"
      />
      
      <polygon
        fill="#f1e05a"
        fillRule="evenodd"
        points="0 318.0212241735184 6.4 313.5273661751743 12.8 310.8961256778335 19.2 304.6063553677133 25.6 301.5123673272205 32 299.63474968080624 38.4 295.6873376442783 44.800000000000004 289.60725088171125 51.2 284.85404089265614 57.599999999999994 275.55862867439953 64 271.2743466336556 70.4 264.3815346107864 76.8 261.6232797129781 83.2 259.0916492954043 89.60000000000001 253.23312149468143 96 246.00813114355458 102.4 237.61109484710357 108.80000000000001 236.28999885851468 115.19999999999999 234.21738554665473 121.6 230.5137014773877 128 228.68148282766253 134.4 222.60339071094558 140.8 224.4143945694703 147.20000000000002 213.85414784980378 153.6 203.68031352320082 160 199.5127005244193 166.4 191.13117249405002 172.8 184.6746223339137 179.20000000000002 182.2741076052704 185.6 179.49435829837012 192 176.83737322670092 198.4 169.27906089133648 204.8 161.91445253770078 211.20000000000002 161.1036014445478 217.60000000000002 157.65203618863055 224 159.74989992189046 230.39999999999998 157.76171522513567 236.8 151.88563817274868 243.2 148.87058204098142 249.60000000000002 150.85251289601837 256 154.742664728206 262.4 153.00439898471595 268.8 155.44775371642092 275.2 157.61193425846247 281.6 159.39925687671132 288 161.38438331635462 294.40000000000003 163.7628908232894 300.79999999999995 164.08016272205603 307.2 158.18380877439722 313.6 157.97611010882744 320 154.6514958145483 326.4 150.62845956872567 332.8 146.04749936927823 339.20000000000005 147.70857771019826 345.6 144.26951284235406 352 143.14904450452713 358.40000000000003 145.79572472236651 364.79999999999995 150.90472960810672 371.2 152.60444645000334 377.59999999999997 154.94910653637316 384 157.5670834787847 390.4 156.58018747646247 396.8 159.02353227208903 403.2 161.28450229092988 409.6 165.1961245088887 416 169.11538573187357 422.40000000000003 170.9859681453841 428.8 165.66911407327552 435.20000000000005 168.57733023596535 441.59999999999997 172.90109961881467 448 176.8936376525753 454.4 175.19565114739055 460.79999999999995 175.6542587058321 467.2 179.72759709343717 473.6 183.23448252925212 480 187.3996692240029 486.4 183.2935157815699 492.8 184.68797420383135 499.20000000000005 185.26187685112512 505.6 184.13087287940576 512 186.31999193013212 518.4000000000001 190.20623560573813 524.8 194.04071837529222 531.1999999999999 190.98289764985236 537.6 191.5231420628017 544 195.4354098381512 550.4 197.39234041024963 556.8 199.59473486316324 563.2 203.1249424943864 569.6 204.43824278178025 576 206.42011517116458 582.4 208.4560508727689 588.8000000000001 211.81769156756303 595.2 210.68378414427207 601.5999999999999 201.01231451928055 608 201.47483168310112 614.4 201.66927130864627 620.8 200.74893871480253 627.2 200.76094151085158 633.6 199.02072614540702 640 199.01564350531447 640 320 0 320"
      />
      
      <polygon
        fill="#22e8e8"
        fillRule="evenodd"
        points="0 319.9256742702067 6.4 319.856469011585 12.8 319.8272329280819 19.2 318.66030324111426 25.6 318.5475302002208 32 318.40759805908925 38.4 318.2695448990187 44.800000000000004 316.01153663176643 51.2 316.0194991501617 57.599999999999994 310.27120218251235 64 309.37987307751604 70.4 306.9369363289886 76.8 307.0222699286894 83.2 306.2791079328526 89.60000000000001 304.5841175611702 96 300.15630589860734 102.4 294.75365119001316 108.80000000000001 293.47878827764106 115.19999999999999 293.78096346125415 121.6 290.8838649585417 128 291.2549352142881 134.4 286.9785438685807 140.8 287.2959260095242 147.20000000000002 280.08964313621647 153.6 272.35653505299155 160 270.6873679736277 166.4 264.6410546928172 172.8 259.7160580258288 179.20000000000002 258.48213856884064 185.6 256.49763516344035 192 254.70958429332424 198.4 249.75803859956386 204.8 243.8433270535121 211.20000000000002 243.32682842938516 217.60000000000002 241.83030116409986 224 242.76853721076571 230.39999999999998 241.70744925094021 236.8 237.21784558954687 243.2 234.04437219973482 249.60000000000002 235.7303271106835 256 237.40444062058216 262.4 235.56052055856804 268.8 237.00508877164253 275.2 238.39937222850298 281.6 240.81757931094455 288 242.54149066811573 294.40000000000003 244.59173768257398 300.79999999999995 243.76038658963006 307.2 239.79406808912984 313.6 239.82811616299236 320 237.43533545376692 326.4 235.72257614752905 332.8 231.99178873750793 339.20000000000005 232.20075494664525 345.6 229.58699081926852 352 229.0000806431728 358.40000000000003 230.61540208955205 364.79999999999995 233.2473570186718 371.2 234.38586216443952 377.59999999999997 235.44979565476746 384 235.98083034029287 390.4 235.02392341592295 396.8 236.27276047149942 403.2 237.1099490259084 409.6 239.176095214583 416 241.04017058591697 422.40000000000003 242.01075185578276 428.8 236.8473367273669 435.20000000000005 238.18588575103465 441.59999999999997 240.60234217250064 448 242.6985174814207 454.4 240.20798744145333 460.79999999999995 240.0552230619241 467.2 242.493933730187 473.6 244.47759266140082 480 246.78133778540155 486.4 243.48882688846425 492.8 244.04379457620212 499.20000000000005 246.20497290184738 505.6 246.8956209766327 512 247.99730971530215 518.4000000000001 250.1182554518623 524.8 252.232841070739 531.1999999999999 249.58178099461114 537.6 249.44274186371354 544 251.59489551754166 550.4 252.51203757804694 556.8 253.35345644608583 563.2 255.30239731171926 569.6 256.1532877182237 576 257.9440585975046 582.4 258.9969770664147 588.8000000000001 260.82648577663053 595.2 259.2206064098371 601.5999999999999 252.11872687504172 608 252.09485604781406 614.4 251.3292937684609 620.8 250.03622979562743 627.2 248.84027672402271 633.6 247.38034610793574 640 246.30334145269342 640 320 0 320"
      />
      
      <polygon
        fill="#22e4e8"
        fillRule="evenodd"
        points="0 319.9256742702067 6.4 319.856469011585 12.8 319.8272329280819 19.2 318.66030324111426 25.6 318.5475302002208 32 318.40759805908925 38.4 318.2695448990187 44.800000000000004 316.01153663176643 51.2 316.0194991501617 57.599999999999994 310.27120218251235 64 309.37987307751604 70.4 306.9369363289886 76.8 307.0222699286894 83.2 306.2791079328526 89.60000000000001 304.5841175611702 96 300.15630589860734 102.4 294.75365119001316 108.80000000000001 293.47878827764106 115.19999999999999 293.78096346125415 121.6 290.8838649585417 128 291.2549352142881 134.4 286.9785438685807 140.8 287.2959260095242 147.20000000000002 280.08964313621647 153.6 272.35653505299155 160 270.6873679736277 166.4 264.6410546928172 172.8 259.7160580258288 179.20000000000002 258.48213856884064 185.6 256.49763516344035 192 254.70958429332424 198.4 249.75803859956386 204.8 243.8433270535121 211.20000000000002 243.32682842938516 217.60000000000002 241.83030116409986 224 242.76853721076571 230.39999999999998 241.70744925094021 236.8 237.21784558954687 243.2 234.04437219973482 249.60000000000002 235.7303271106835 256 237.40444062058216 262.4 235.56052055856804 268.8 237.00508877164253 275.2 238.39937222850298 281.6 240.81757931094455 288 242.54149066811573 294.40000000000003 244.59173768257398 300.79999999999995 243.76038658963006 307.2 239.79406808912984 313.6 239.82811616299236 320 237.43533545376692 326.4 235.77395194063584 332.8 232.04316453061472 339.20000000000005 232.25213073975203 345.6 229.6383666123753 352 229.05145643627958 358.40000000000003 230.66677788265883 364.79999999999995 233.2987328117786 371.2 234.4372379575463 377.59999999999997 235.50117144787424 384 236.03220613339968 390.4 235.07529920902974 396.8 236.3241362646062 403.2 237.1613248190152 409.6 239.2274710076898 416 241.09154637902378 422.40000000000003 242.06212764888957 428.8 236.89871252047368 435.20000000000005 238.23726154414146 441.59999999999997 240.65371796560743 448 242.7498932745275 454.4 240.2593632345601 460.79999999999995 240.10659885503088 467.2 242.54530952329378 473.6 244.5289684545076 480 246.83271357850833 486.4 243.54020268157103 492.8 244.0951703693089 499.20000000000005 246.25634869495417 505.6 246.94699676973948 512 248.04868550840894 518.4000000000001 250.16963124496908 524.8 252.28421686384578 531.1999999999999 249.63315678771792 537.6 249.49411765682032 544 251.64627131064844 550.4 252.56341337115373 556.8 253.40483223919261 563.2 255.35377310482605 569.6 256.2046635113305 576 257.99543439061136 582.4 259.04835285952146 588.8000000000001 260.8778615697373 595.2 259.2719822029439 601.5999999999999 252.1701026681485 608 252.14623184092085 614.4 251.38066956156771 620.8 250.08760558873422 627.2 248.8916525171295 633.6 247.43172190104252 640 246.30334145269342 640 320 0 320"
      />
      
      <polygon
        fill="#e34c26"
        fillRule="evenodd"
        points="0 319.9256742702067 6.4 319.856469011585 12.8 319.8272329280819 19.2 318.66030324111426 25.6 318.6387625527078 32 318.5126030081388 38.4 318.3713446325557 44.800000000000004 316.1105255062687 51.2 316.2070753149932 57.599999999999994 311.648624289028 64 310.7510478875899 70.4 308.26758673547255 76.8 308.31230294139783 83.2 307.529763557928 89.60000000000001 305.79781066639174 96 302.085771690972 102.4 297.726610921673 108.80000000000001 296.360999555134 115.19999999999999 296.5751972893573 121.6 294.7044076258974 128 294.9752996061553 134.4 291.71974352270286 140.8 292.1942297564193 147.20000000000002 288.1168019378842 153.6 282.47605019537457 160 280.5091023403107 166.4 276.0942109293524 172.8 271.3321063519884 179.20000000000002 270.3321060185948 185.6 269.0820113555292 192 268.32413350356836 198.4 264.11126382551805 204.8 258.73415268859924 211.20000000000002 258.8780446741621 217.60000000000002 257.3390923064451 224 258.03726982224015 230.39999999999998 256.5238108114984 236.8 252.72248556780906 243.2 250.1933499073727 249.60000000000002 252.19008829349883 256 254.18869028514413 262.4 252.86780970498057 268.8 253.80099252111285 275.2 254.9077503243353 281.6 256.8330642128055 288 258.58291623543215 294.40000000000003 260.45213036772003 300.79999999999995 259.97210647084165 307.2 257.8644059275024 313.6 257.542082729932 320 255.72569012611928 326.4 254.32302483191535 332.8 252.44402239857192 339.20000000000005 252.30172203507948 345.6 249.8959928792142 352 249.60731301700824 358.40000000000003 250.63989528243096 364.79999999999995 252.6897891910632 371.2 254.04379010101735 377.59999999999997 254.88136287443263 384 255.7653739189824 390.4 254.20613103113328 396.8 254.9008626902834 403.2 255.1710083960458 409.6 256.70488287284854 416 258.10513655649856 422.40000000000003 258.5563866492603 428.8 255.16945191501787 435.20000000000005 257.1207363902055 441.59999999999997 258.97910065369996 448 260.5159086574637 454.4 258.60057583202473 460.79999999999995 258.0205919348525 467.2 259.9124853766992 473.6 261.38287341936376 480 263.1721598464786 486.4 261.8204322126179 492.8 263.55763396343264 499.20000000000005 265.207871806504 505.6 265.5769855076463 512 267.2215365641787 518.4000000000001 268.7758350456992 524.8 270.3394214486008 531.1999999999999 268.43862879462375 537.6 268.9636166520521 544 270.5214787640857 550.4 271.9837950531437 556.8 273.4494616604218 563.2 274.82523671038626 569.6 276.20416751844226 576 277.54101579785504 582.4 278.7133788756749 588.8000000000001 279.9736294130455 595.2 278.9297477920155 601.5999999999999 275.7239361147356 608 277.03248826160564 614.4 278.2862987960445 620.8 278.4158808826153 627.2 279.6448816859048 633.6 279.58251341199565 640 280.58538067699203 640 320 0 320"
      />
      
      <polygon
        fill="#00ADD8"
        fillRule="evenodd"
        points="0 319.9256742702067 6.4 319.856469011585 12.8 319.8272329280819 19.2 318.66030324111426 25.6 318.6387625527078 32 318.51536277836567 38.4 318.3740201624083 44.800000000000004 316.61218125276076 51.2 316.6934183008466 57.599999999999994 313.1394443818596 64 312.1963615634224 70.4 310.8820320031143 76.8 310.86396678435995 83.2 310.00353902699896 89.60000000000001 308.661708014916 96 305.87144982036114 102.4 303.7931614664685 108.80000000000001 303.0244491687274 115.19999999999999 303.31529547620255 121.6 302.490188155321 128 302.91324701463435 134.4 300.9756886100911 140.8 301.5563932685399 147.20000000000002 299.63116421177926 153.6 295.82119193917765 160 294.07845318281113 166.4 290.71613977338205 172.8 287.71239740299444 179.20000000000002 287.3468254360021 185.6 286.1158425679722 192 284.9373130797592 198.4 282.3765440282867 204.8 277.9438545732486 211.20000000000002 278.07966925661924 217.60000000000002 276.03283326601814 224 276.21168063222495 230.39999999999998 274.1490030904971 236.8 270.30472151867536 243.2 268.086961182553 249.60000000000002 269.66608321428373 256 271.1481868900568 262.4 270.4125413268789 268.8 270.81018493069774 275.2 272.1628992058396 281.6 273.5615105184107 288 274.9228803713969 294.40000000000003 276.293323918982 300.79999999999995 276.4643587327336 307.2 274.6332685420289 313.6 273.79908626270384 320 272.04440112399163 326.4 270.1436156626257 332.8 268.2494994984661 339.20000000000005 268.7286242881396 345.6 266.93233636794014 352 266.1732525514374 358.40000000000003 266.70017268326995 364.79999999999995 268.2754076944203 371.2 269.7729967534969 377.59999999999997 270.1457008005647 384 271.6310151551522 390.4 270.8758938508202 396.8 271.2113987719566 403.2 272.69784582920505 409.6 274.0958395533672 416 275.4691589637231 422.40000000000003 275.7089986953662 428.8 272.9524880982103 435.20000000000005 274.36095752126465 441.59999999999997 275.7097889989164 448 277.0617016883839 454.4 276.4936456063457 460.79999999999995 276.6994811801543 467.2 278.0212122351969 473.6 279.0984727090084 480 280.34699706068255 486.4 279.2673566546312 492.8 280.4775331895662 499.20000000000005 281.61130456975707 505.6 281.5274903063858 512 282.68516941189887 518.4000000000001 283.78244630571106 524.8 284.8879599721773 531.1999999999999 282.6100659142489 537.6 282.84178019430647 544 283.97601909421456 550.4 285.04068879965774 556.8 286.10780358184644 563.2 287.1094672990183 569.6 288.1134293122948 576 289.086751624575 582.4 289.94032544012924 588.8000000000001 290.8578747770968 595.2 291.71915398547696 601.5999999999999 290.34724183002044 608 291.2236105301175 614.4 292.1019996490396 620.8 292.9283998376447 627.2 293.72849085969807 633.6 293.5546247845568 640 294.21081128021615 640 320 0 320"
      />
      
      <polygon
        fill="#244776"
        fillRule="evenodd"
        points="0 319.9256742702067 6.4 319.856469011585 12.8 319.8272329280819 19.2 318.66030324111426 25.6 318.6387625527078 32 318.51536277836567 38.4 318.3740201624083 44.800000000000004 316.61218125276076 51.2 316.6934183008466 57.599999999999994 313.1394443818596 64 312.1963615634224 70.4 310.8820320031143 76.8 310.86396678435995 83.2 310.00353902699896 89.60000000000001 308.661708014916 96 305.87144982036114 102.4 303.7931614664685 108.80000000000001 303.0244491687274 115.19999999999999 303.31529547620255 121.6 302.490188155321 128 302.91324701463435 134.4 300.9756886100911 140.8 301.5563932685399 147.20000000000002 299.63116421177926 153.6 295.82119193917765 160 294.07845318281113 166.4 290.71613977338205 172.8 287.71239740299444 179.20000000000002 287.3468254360021 185.6 286.1158425679722 192 284.9373130797592 198.4 282.3765440282867 204.8 277.9438545732486 211.20000000000002 278.07966925661924 217.60000000000002 276.03283326601814 224 276.21168063222495 230.39999999999998 274.1490030904971 236.8 270.30472151867536 243.2 268.086961182553 249.60000000000002 269.66608321428373 256 271.1481868900568 262.4 270.4125413268789 268.8 270.81018493069774 275.2 272.1628992058396 281.6 273.5615105184107 288 274.9228803713969 294.40000000000003 276.293323918982 300.79999999999995 276.4643587327336 307.2 274.6332685420289 313.6 273.79908626270384 320 272.04440112399163 326.4 270.1436156626257 332.8 268.2494994984661 339.20000000000005 268.7286242881396 345.6 266.93233636794014 352 266.1732525514374 358.40000000000003 266.70017268326995 364.79999999999995 268.2754076944203 371.2 269.7729967534969 377.59999999999997 270.1457008005647 384 271.6310151551522 390.4 270.8758938508202 396.8 271.2113987719566 403.2 272.69784582920505 409.6 274.0958395533672 416 275.4691589637231 422.40000000000003 275.7089986953662 428.8 272.9524880982103 435.20000000000005 274.36095752126465 441.59999999999997 275.7097889989164 448 277.0617016883839 454.4 276.4936456063457 460.79999999999995 276.6994811801543 467.2 278.0212122351969 473.6 279.0984727090084 480 280.34699706068255 486.4 279.2673566546312 492.8 280.4775331895662 499.20000000000005 281.61130456975707 505.6 281.5274903063858 512 282.68516941189887 518.4000000000001 283.78244630571106 524.8 284.8879599721773 531.1999999999999 282.6100659142489 537.6 282.84178019430647 544 283.97601909421456 550.4 285.04068879965774 556.8 286.10780358184644 563.2 287.1094672990183 569.6 288.1134293122948 576 289.086751624575 582.4 289.94032544012924 588.8000000000001 290.8578747770968 595.2 291.71915398547696 601.5999999999999 290.40280303431393 608 291.2775296510366 614.4 292.1542729217661 620.8 292.9790774953741 627.2 293.77767076612366 633.6 293.6023035036655 640 294.2573069504417 640 320 0 320"
      />
      
      <polygon
        fill="#563d7c"
        fillRule="evenodd"
        points="0 319.9256742702067 6.4 319.856469011585 12.8 319.8272329280819 19.2 318.66030324111426 25.6 318.6387625527078 32 318.51536277836567 38.4 318.3740201624083 44.800000000000004 316.61218125276076 51.2 316.6934183008466 57.599999999999994 314.2496043723028 64 313.2726345944903 70.4 311.92649632838965 76.8 311.87654945021654 83.2 310.98521319370985 89.60000000000001 309.61436934649515 96 306.7950316310292 102.4 305.79142468613406 108.80000000000001 304.9617165807785 115.19999999999999 305.1934287338782 121.6 304.3146377165119 128 304.68200644911656 134.4 303.81183275517895 140.8 304.30596581144056 147.20000000000002 302.2994743269523 153.6 298.4080535435004 160 296.58635224816044 166.4 293.14991939302257 172.8 290.07188721479616 179.20000000000002 289.63658185630413 185.6 288.33570550980323 192 287.0894157688005 198.4 284.4692237282438 204.8 279.9726562835979 211.20000000000002 280.04851089534316 217.60000000000002 277.9415771459911 224 278.0640127610992 230.39999999999998 275.9447935902677 236.8 273.17508296948824 243.2 271.622317541634 249.60000000000002 273.0935247199439 256 274.4743320802189 262.4 273.6371578802066 268.8 273.9363721432859 275.2 275.2027671741362 281.6 276.50858794751605 288 277.78285877442295 294.40000000000003 279.0660030330872 300.79999999999995 279.15509263482073 307.2 277.2418694021984 313.6 276.3280610141562 320 274.4986333441164 326.4 272.52293396177697 332.8 270.5584982083183 339.20000000000005 270.9671422942056 345.6 269.1025249801805 352 268.28351859638127 358.40000000000003 268.7460239643197 364.79999999999995 270.26079501006586 371.2 271.6977812863453 377.59999999999997 272.0135992809924 384 273.44189698589315 390.4 272.63149964374486 396.8 272.9151187129005 403.2 274.3495606235766 409.6 275.6987387131541 416 277.0231306951995 422.40000000000003 277.21553628733454 428.8 275.3902916754701 435.20000000000005 276.7243485025402 441.59999999999997 278.00333140416404 448 279.2852351223776 454.4 278.65146344136383 460.79999999999995 278.7914329878746 467.2 280.04930845315533 473.6 281.0666296111618 480 282.2550769599054 486.4 281.11904412005356 492.8 282.2726991651958 499.20000000000005 283.3516740492232 505.6 283.21980533501795 512 284.3258275190843 518.4000000000001 285.3746157338592 524.8 286.4315293385686 531.1999999999999 284.1080160423994 537.6 284.2940060720951 544 285.38391670469167 550.4 286.4069767442913 556.8 287.43238630166127 563.2 288.3949026920016 569.6 289.35962752218444 576 290.29491032385994 582.4 291.11512491218565 588.8000000000001 291.99681415106784 595.2 292.82443265906556 601.5999999999999 291.4743437383272 608 292.3174014941662 614.4 293.1624033100163 620.8 293.9564351706997 627.2 294.7261432237877 633.6 294.5218243661432 640 295.1540119259523 640 320 0 320"
      />
      
      <polygon
        fill="#178600"
        fillRule="evenodd"
        points="0 320 6.4 320 12.8 320 19.2 320 25.6 320 32 320 38.4 320 44.800000000000004 320 51.2 320 57.599999999999994 318.73032875537353 64 318.7690848144399 70.4 318.8054639005121 76.8 318.8419263797716 83.2 318.8772758538493 89.60000000000001 318.9104574235853 96 318.9437149986696 102.4 318.9749330472439 108.80000000000001 319.0062226109223 115.19999999999999 319.0365570677813 121.6 319.06409566425464 128 319.09266364666894 134.4 319.1194794473842 140.8 319.1463568579506 147.20000000000002 319.17158584536963 153.6 319.18567784523793 160 319.210534553385 166.4 319.2338667978983 172.8 319.25725253488747 179.20000000000002 319.2792040652362 185.6 318.1941409853231 192 318.24926378969883 198.4 318.2976044242508 204.8 316.1388749771598 211.20000000000002 316.247485767074 217.60000000000002 316.3620289814692 224 316.4695471212908 230.39999999999998 316.5773123992276 236.8 316.24156080235815 243.2 315.6381789304829 249.60000000000002 315.77132104509616 256 315.89629749115295 262.4 316.0215604086321 268.8 316.1430000423399 275.2 316.24949817744033 281.6 316.3639800696889 288 316.4714408741254 294.40000000000003 316.57914808714077 300.79999999999995 316.6802493493027 307.2 315.9758122171507 313.6 316.0986481421635 320 314.3108451396988 326.4 314.48450343777506 332.8 313.52091231721874 339.20000000000005 313.7186824052675 345.6 313.9104161458809 352 312.9761245373818 358.40000000000003 313.1905238702172 364.79999999999995 313.3917741236655 371.2 313.5934869955804 377.59999999999997 313.7828280627573 384 313.9726033581375 390.4 314.15658654660285 396.8 314.3292852784409 403.2 314.50238056975087 409.6 314.6648600398305 416 314.82771212826236 422.40000000000003 314.98559318742963 428.8 313.21290395688175 435.20000000000005 313.4200759178206 441.59999999999997 313.61454254237253 448 313.8094546978023 454.4 313.1987271150287 460.79999999999995 313.40633186564867 467.2 313.6076004397048 473.6 313.7965239244353 480 313.9858816373691 486.4 314.1636254412648 492.8 314.34177747721253 499.20000000000005 314.5144915909631 505.6 314.66595523816244 512 314.8287743741606 518.4000000000001 314.98160677524 524.8 315.134790381241 531.1999999999999 315.2785789987081 537.6 315.42269775702175 544 315.5624172061717 550.4 315.6935677895409 556.8 315.82501902405136 563.2 315.9484084204833 569.6 316.0720806920321 576 316.1919782813098 582.4 316.2971240308579 588.8000000000001 316.41015228614117 595.2 316.51624812823127 601.5999999999999 316.6225879334125 608 316.7224054480817 614.4 316.82245209878823 620.8 316.919444941527 627.2 317.0104890428329 633.6 317.1017423155428 640 317.17365630120514 640 320 0 320"
      />
      
      <polygon
        fill="#555555"
        fillRule="evenodd"
        points="0 320 6.4 320 12.8 320 19.2 320 25.6 320 32 320 38.4 320 44.800000000000004 320 51.2 320 57.599999999999994 318.73032875537353 64 318.7690848144399 70.4 318.8054639005121 76.8 318.8419263797716 83.2 318.8772758538493 89.60000000000001 318.9104574235853 96 318.9437149986696 102.4 318.9749330472439 108.80000000000001 319.0062226109223 115.19999999999999 319.0365570677813 121.6 319.06409566425464 128 319.09266364666894 134.4 319.1194794473842 140.8 319.1463568579506 147.20000000000002 319.17158584536963 153.6 319.18567784523793 160 319.210534553385 166.4 319.2338667978983 172.8 319.25725253488747 179.20000000000002 319.2792040652362 185.6 318.1941409853231 192 318.24926378969883 198.4 318.2976044242508 204.8 317.2428495276161 211.20000000000002 317.31883288709884 217.60000000000002 317.4006738679078 224 317.47749548510603 230.39999999999998 317.55449365007973 236.8 317.1889140897452 243.2 316.5575337463973 249.60000000000002 316.662613067045 256 316.7612478082054 262.4 316.86010870560693 268.8 316.95595209717624 275.2 317.0400033057053 281.6 317.13035544700415 288 317.21516645213745 294.40000000000003 317.3001718632718 300.79999999999995 317.3799637102976 307.2 317.45993896890474 313.6 317.53747274707183 320 316.5057100591263 326.4 316.61237134319526 332.8 315.5858921418128 339.20000000000005 315.7206299885599 345.6 315.85125540857194 352 314.8633739157863 358.40000000000003 315.0201661883206 364.79999999999995 315.16734239200815 371.2 315.31485709024616 377.59999999999997 315.4533238948086 384 315.59210820177236 390.4 315.7266568828492 396.8 315.85295310110484 403.2 315.97953932543743 409.6 316.09836211257294 416 316.2174573352642 422.40000000000003 316.33291729931165 428.8 315.5852551847298 435.20000000000005 315.7200126570299 441.59999999999997 315.84650561374764 448 315.97328863819325 454.4 316.09229603910376 460.79999999999995 316.21157634822725 467.2 316.3272160658996 473.6 316.43576284157564 480 316.54455930360615 486.4 316.6466828721248 492.8 316.74904102251475 499.20000000000005 316.84827480542276 505.6 316.9352988228441 512 317.0288474632385 518.4000000000001 317.1166580440523 524.8 317.2046703262299 531.1999999999999 317.2872848620805 537.6 317.3700889746077 544 317.45036550086564 550.4 317.5257186848701 556.8 317.601244594291 563.2 317.6721385135812 569.6 317.7431950886324 576 317.8120827832018 582.4 317.8724948076792 588.8000000000001 317.9374357316208 595.2 317.9983936238999 601.5999999999999 318.0594915974165 608 318.11684229251006 614.4 318.17432461238553 620.8 318.2300523153493 627.2 318.2823621512003 633.6 318.33479207283006 640 318.37611064342985 640 320 0 320"
      />
      
      <polygon
        fill="#C1F12E"
        fillRule="evenodd"
        points="0 320 6.4 320 12.8 320 19.2 320 25.6 320 32 320 38.4 320 44.800000000000004 320 51.2 320 57.599999999999994 319.0077746839072 64 319.0380618442111 70.4 319.0664914613394 76.8 319.09498622297343 83.2 319.1226111924301 89.60000000000001 319.1485419937333 96 319.17453218545336 102.4 319.19892854594383 108.80000000000001 319.2233807724717 115.19999999999999 319.24708662175254 121.6 319.2686075304786 128 319.2909329121987 134.4 319.3118889646299 140.8 319.3328931870047 147.20000000000002 319.35260918191767 153.6 319.3611755508348 160 319.38067529475944 166.4 319.3989791232473 172.8 319.4173249052078 179.20000000000002 319.43454558812476 185.6 319.44084483576853 192 319.4579127168016 198.4 319.47288066366724 204.8 319.4862108324499 211.20000000000002 319.5013955646121 217.60000000000002 319.516615191213 224 319.53090137102896 230.39999999999998 319.54522034915124 236.8 319.3091074791911 243.2 318.61506603327103 249.60000000000002 318.65734039912576 256 318.697021931454 262.4 318.73679460443924 268.8 318.77535316468175 275.2 318.80916778694035 281.6 318.84551718807927 288 318.8796373421795 294.40000000000003 318.9138356902368 300.79999999999995 318.94593672429215 307.2 318.97811143123477 313.6 319.0093039357648 320 319.0385834112627 326.4 319.0679301890496 332.8 319.09547706730075 339.20000000000005 319.1230870350259 345.6 319.1498543369924 352 319.17332824511766 358.40000000000003 319.1985619077339 364.79999999999995 319.2222479670592 371.2 319.2459884127991 377.59999999999997 319.26827286856235 384 319.29060839186394 390.4 319.312262158391 396.8 319.3325878914917 403.2 319.35296021216163 409.6 319.37208313519415 416 319.3912499742546 422.40000000000003 319.409831735508 428.8 318.57422073647734 435.20000000000005 318.617741684576 441.59999999999997 318.6585937629744 448 318.6995393453162 454.4 318.7379737816426 460.79999999999995 318.77649637882996 467.2 318.81384329236784 473.6 318.84889935929107 480 318.8840361889611 486.4 318.91701770135865 492.8 318.9500752499301 499.20000000000005 318.9821236751732 505.6 319.0102287000407 512 319.04044105718987 518.4000000000001 319.0688001867301 524.8 319.0972244607759 531.1999999999999 319.12390555416164 537.6 319.15064788749277 544 319.17657385947143 550.4 319.200909853405 556.8 319.2253015386983 563.2 319.2481974177753 569.6 319.2711457001613 576 319.2933936277356 582.4 319.3129041503017 588.8000000000001 319.33387736224773 595.2 319.3535642579115 601.5999999999999 319.3732963950987 608 319.39181819052635 614.4 319.41038262786236 620.8 319.42838035937484 627.2 319.44527429224763 633.6 319.462206931643 640 319.4755510746413 640 320 0 320"
      />
      

      
        <g id="labels">
        
          
          <text x="0" y="330">
            Jul 2014
          </text>
          
        
          
        
          
        
          
        
          
        
          
        
          
        
          
        
          
        
          
        
          
        
          
        
          
        
          
          <text x="82.37623762376238" y="330">
            Aug 2015
          </text>
          
        
          
        
          
        
          
        
          
        
          
        
          
        
          
        
          
        
          
        
          
        
          
        
          
        
          
          <text x="164.75247524752476" y="330">
            Sep 2016
          </text>
          
        
          
        
          
        
          
        
          
        
          
        
          
        
          
        
          
        
          
        
          
        
          
        
          
        
          
          <text x="247.12871287128712" y="330">
            Oct 2017
          </text>
          
        
          
        
          
        
          
        
          
        
          
        
          
        
          
        
          
        
          
        
          
        
          
        
          
        
          
          <text x="329.5049504950495" y="330">
            Nov 2018
          </text>
          
        
          
        
          
        
          
        
          
        
          
        
          
        
          
        
          
        
          
        
          
        
          
        
          
        
          
          <text x="411.8811881188119" y="330">
            Dec 2019
          </text>
          
        
          
        
          
        
          
        
          
        
          
        
          
        
          
        
          
        
          
        
          
        
          
        
          
        
          
          <text x="494.25742574257424" y="330">
            Jan 2021
          </text>
          
        
          
        
          
        
          
        
          
        
          
        
          
        
          
        
          
        
          
        
          
        
          
        
          
        
          
          <text x="576.6336633663366" y="330">
            Feb 2022
          </text>
          
        
          
        
          
        
          
        
          
        
          
        
          
        
          
        
          
        
          
        
        </g>
      

      
        <text text-anchor="middle" y="370" x="320" id="legend">
          
          <tspan xml:space="preserve" fill="#C1F12E">   </tspan> Batchfile
          
          <tspan xml:space="preserve" fill="#555555">   </tspan> C
          
          <tspan xml:space="preserve" fill="#178600">   </tspan> C#
          
          <tspan xml:space="preserve" fill="#563d7c">   </tspan> CSS
          
          <tspan xml:space="preserve" fill="#244776">   </tspan> CoffeeScript
          
          <tspan xml:space="preserve" fill="#00ADD8">   </tspan> Go
          
          <tspan xml:space="preserve" fill="#e34c26">   </tspan> HTML
          
          <tspan xml:space="preserve" fill="#22e4e8">   </tspan> JSON
          
        </text>
      
        <text text-anchor="middle" y="400" x="320" id="legend">
          
          <tspan xml:space="preserve" fill="#22e8e8">   </tspan> JSon
          
          <tspan xml:space="preserve" fill="#f1e05a">   </tspan> JavaScript
          
          <tspan xml:space="preserve" fill="#2415b9">   </tspan> Less
          
          <tspan xml:space="preserve" fill="#755462">   </tspan> MySQL
          
          <tspan xml:space="preserve" fill="#4F5D95">   </tspan> PHP
          
          <tspan xml:space="preserve" fill="#fd2fdb">   </tspan> PLpgSQL
          
          <tspan xml:space="preserve" fill="#0298c3">   </tspan> Perl
          
          <tspan xml:space="preserve" fill="#3572A5">   </tspan> Python
          
        </text>
      
        <text text-anchor="middle" y="430" x="320" id="legend">
          
          <tspan xml:space="preserve" fill="#701516">   </tspan> Ruby
          
          <tspan xml:space="preserve" fill="#dea584">   </tspan> Rust
          
          <tspan xml:space="preserve" fill="#26c0b0">   </tspan> SCSS
          
          <tspan xml:space="preserve" fill="#0141ae">   </tspan> SQL
          
          <tspan xml:space="preserve" fill="#89e051">   </tspan> Shell
          
          <tspan xml:space="preserve" fill="#509e5b">   </tspan> Svelte
          
          <tspan xml:space="preserve" fill="#2770da">   </tspan> TSQL
          
          <tspan xml:space="preserve" fill="#2b7489">   </tspan> TypeScript
          
        </text>
      
        <text text-anchor="middle" y="460" x="320" id="legend">
          
          <tspan xml:space="preserve" fill="#2c3e50">   </tspan> Vue
          
          <tspan xml:space="preserve" fill="#4B6C4B">   </tspan> Yacc
          
        </text>
      

    </svg>