<svg
      xmlns="http://www.w3.org/2000/svg"
      viewBox="0 0 640 490"
      style="background-color: #292b3e"
    >
      <style>
        text {
          font-size: 12px;
          font-family: Open Sans, Helvetica Neue, Helvetica, Arial, sans-serif;
        }
        #labels text {
          dominant-baseline: hanging;
          font-size: 10px;
          fill: rgba(0,0,0,0.5);
        }
        #legend {
          font-weight: 600;
        }
        #legend tspan {
          font-size: 15px;
        }
        #branding-text {
          font-size: 9px;
          dominant-baseline: hanging;
          opacity: 0.5;
        }
        #branding-logo {
          opacity: 0.5;
        }
      </style>

      
      
      <polygon
        fill="#4B6C4B"
        fillRule="evenodd"
        points="0 313.61355227388594 6.530612244897958 304.2691142627013 13.061224489795917 297.26805389058666 19.591836734693878 285.9388247697308 26.122448979591834 278.82800875619546 32.6530612244898 274.9842094259683 39.183673469387756 267.09074826258137 45.71428571428571 257.0788231836734 52.24489795918367 246.22217078504002 58.775510204081634 230.9923310542889 65.3061224489796 221.54622171929512 71.83673469387755 206.62811665707645 78.36734693877551 198.27733578376422 84.89795918367348 192.17039796975868 91.42857142857142 182.1295434131696 97.9591836734694 170.617243345245 104.48979591836734 156.95194052821134 111.0204081632653 154.80428463294461 117.55102040816327 149.8879778767431 124.08163265306122 142.5256903075716 130.6122448979592 138.2862002108033 137.14285714285714 123.78691549331768 143.6734693877551 127.17486931970654 150.20408163265307 110.77254191431334 156.73469387755102 93.05744034063451 163.26530612244898 88.01900038948014 169.79591836734696 78.10637731436415 176.32653061224488 68.78376088615926 182.85714285714283 65.9739115580567 189.3877551020408 62.13348574687569 195.9183673469388 59.18934091843619 202.44897959183675 46.68379252115636 208.97959183673467 33.294193540000435 215.51020408163265 31.646522665042824 222.0408163265306 27.41470375563688 228.57142857142858 27.52903220259617 235.10204081632654 25.25119934979142 241.63265306122446 13.936292597839838 248.16326530612244 9.64307711038009 254.69387755102042 9.884113423799818 261.2244897959184 12.937981240231238 267.7551020408163 8.247125529260643 274.2857142857143 10.710310493627105 280.81632653061223 10.159037578531468 287.3469387755102 11.455722623859572 293.8775510204082 14.195814668895764 300.40816326530614 17.693326444694492 306.9387755102041 18.06809703952308 313.46938775510205 12.038851113013777 320 13.322766575627725 326.53061224489795 11.292841080506776 333.0612244897959 7.0296732589841895 339.5918367346939 1.9719487973242735 346.12244897959187 4.695636779604001 352.65306122448976 0.0667850488601971 359.1836734693877 0 365.71428571428567 3.134247206789496 372.2448979591837 11.121914761438063 378.7755102040816 13.49980659960704 385.3061224489796 18.04814229784131 391.8367346938776 21.31469631055529 398.36734693877554 21.56853768578685 404.8979591836735 27.06653306895373 411.42857142857144 30.68100456633306 417.95918367346934 36.748071687242714 424.48979591836735 42.80365671061031 431.0204081632653 46.96044250089909 437.55102040816325 38.514736596304544 444.0816326530612 42.631131010586614 450.61224489795916 50.615523391074646 457.14285714285717 58.069150425765656 463.6734693877551 55.54215802291412 470.2040816326531 58.40793799445413 476.7346938775511 64.84935463868351 483.2653061224489 68.96521946190248 489.7959183673469 76.40571645245291 496.3265306122449 74.31955803740746 502.85714285714283 74.99074993805885 509.38775510204084 75.05198061246494 515.9183673469388 74.49033438847036 522.4489795918367 78.43686593924849 528.9795918367347 85.33615449125523 535.5102040816327 88.56520016402428 542.0408163265306 82.02549679853809 548.5714285714286 83.08759797684354 555.1020408163265 90.29401910938662 561.6326530612245 88.15325615104945 568.1632653061224 86.74205044916522 574.6938775510204 87.76616341107444 581.2244897959183 85.90004565045575 587.7551020408164 86.4310520323794 594.2857142857143 86.68138457725192 600.8163265306123 89.27125850949204 607.3469387755102 85.21668648305956 613.8775510204082 69.72133862855082 620.4081632653061 69.36923817933098 626.9387755102041 67.0082756746879 633.469387755102 64.10049172154231 640 60.65568418688645 640 320 0 320"
      />
      
      <polygon
        fill="#2c3e50"
        fillRule="evenodd"
        points="0 313.61355227388594 6.530612244897958 304.2691142627013 13.061224489795917 297.26805389058666 19.591836734693878 285.9388247697308 26.122448979591834 278.82800875619546 32.6530612244898 274.9842094259683 39.183673469387756 267.09074826258137 45.71428571428571 257.0788231836734 52.24489795918367 246.22217078504002 58.775510204081634 230.9923310542889 65.3061224489796 221.54622171929512 71.83673469387755 206.62811665707645 78.36734693877551 198.27733578376422 84.89795918367348 192.17039796975868 91.42857142857142 182.1295434131696 97.9591836734694 170.617243345245 104.48979591836734 156.95194052821134 111.0204081632653 154.80428463294461 117.55102040816327 149.8879778767431 124.08163265306122 142.5256903075716 130.6122448979592 138.2862002108033 137.14285714285714 123.78691549331768 143.6734693877551 127.17486931970654 150.20408163265307 110.77254191431334 156.73469387755102 93.05744034063451 163.26530612244898 88.01900038948014 169.79591836734696 78.10637731436415 176.32653061224488 68.78376088615926 182.85714285714283 65.9739115580567 189.3877551020408 62.13348574687569 195.9183673469388 59.18934091843619 202.44897959183675 46.68379252115636 208.97959183673467 33.294193540000435 215.51020408163265 31.646522665042824 222.0408163265306 27.41470375563688 228.57142857142858 27.52903220259617 235.10204081632654 25.25119934979142 241.63265306122446 13.936292597839838 248.16326530612244 9.64307711038009 254.69387755102042 9.884113423799818 261.2244897959184 12.937981240231238 267.7551020408163 8.247125529260643 274.2857142857143 10.710310493627105 280.81632653061223 10.159037578531468 287.3469387755102 11.455722623859572 293.8775510204082 14.195814668895764 300.40816326530614 17.693326444694492 306.9387755102041 18.06809703952308 313.46938775510205 12.038851113013777 320 13.322766575627725 326.53061224489795 11.292841080506776 333.0612244897959 7.0296732589841895 339.5918367346939 1.9719487973242735 346.12244897959187 4.695636779604001 352.65306122448976 0.0667850488601971 359.1836734693877 0 365.71428571428567 3.134247206789496 372.2448979591837 11.121914761438063 378.7755102040816 13.49980659960704 385.3061224489796 18.04814229784131 391.8367346938776 21.31469631055529 398.36734693877554 21.56853768578685 404.8979591836735 27.06653306895373 411.42857142857144 30.68100456633306 417.95918367346934 36.748071687242714 424.48979591836735 42.80365671061031 431.0204081632653 46.96044250089909 437.55102040816325 38.514736596304544 444.0816326530612 42.631131010586614 450.61224489795916 50.615523391074646 457.14285714285717 58.069150425765656 463.6734693877551 56.64274482821537 470.2040816326531 59.47493006352886 476.7346938775511 65.88377732968269 483.2653061224489 69.96907036855407 489.7959183673469 77.37892539541866 496.3265306122449 75.26400424057971 502.85714285714283 75.90636753766628 509.38775510204084 75.93964947040217 515.9183673469388 75.35349318956338 522.4489795918367 79.2736773822551 528.9795918367347 86.14823442718344 535.5102040816327 89.35249181234354 542.0408163265306 82.78952045127468 548.5714285714286 83.82830027509496 555.1020408163265 91.01211190591704 561.6326530612245 88.85012608888752 568.1632653061224 87.41764882405565 574.6938775510204 88.42179481889843 581.2244897959183 86.5356642948282 587.7551020408164 87.04726879207357 594.2857142857143 87.2805865567363 600.8163265306123 89.85217023268686 607.3469387755102 85.78042964800983 613.8775510204082 70.2678738916714 620.4081632653061 69.89962084058715 626.9387755102041 67.5224687229557 633.469387755102 64.59898933033517 640 61.13944896395719 640 320 0 320"
      />
      
      <polygon
        fill="#2b7489"
        fillRule="evenodd"
        points="0 313.61355227388594 6.530612244897958 304.2691142627013 13.061224489795917 297.26805389058666 19.591836734693878 285.9388247697308 26.122448979591834 278.82800875619546 32.6530612244898 274.9842094259683 39.183673469387756 267.09074826258137 45.71428571428571 257.0788231836734 52.24489795918367 246.22217078504002 58.775510204081634 230.9923310542889 65.3061224489796 221.54622171929512 71.83673469387755 206.62811665707645 78.36734693877551 198.27733578376422 84.89795918367348 192.17039796975868 91.42857142857142 182.1295434131696 97.9591836734694 170.617243345245 104.48979591836734 156.95194052821134 111.0204081632653 154.80428463294461 117.55102040816327 149.8879778767431 124.08163265306122 142.5256903075716 130.6122448979592 138.2862002108033 137.14285714285714 123.78691549331768 143.6734693877551 127.17486931970654 150.20408163265307 110.77254191431334 156.73469387755102 93.05744034063451 163.26530612244898 88.01900038948014 169.79591836734696 78.10637731436415 176.32653061224488 68.78376088615926 182.85714285714283 65.9739115580567 189.3877551020408 62.13348574687569 195.9183673469388 59.18934091843619 202.44897959183675 46.68379252115636 208.97959183673467 33.294193540000435 215.51020408163265 31.646522665042824 222.0408163265306 27.41470375563688 228.57142857142858 27.52903220259617 235.10204081632654 25.25119934979142 241.63265306122446 13.936292597839838 248.16326530612244 9.64307711038009 254.69387755102042 9.884113423799818 261.2244897959184 12.937981240231238 267.7551020408163 8.247125529260643 274.2857142857143 10.710310493627105 280.81632653061223 10.159037578531468 287.3469387755102 11.455722623859572 293.8775510204082 14.195814668895764 300.40816326530614 17.693326444694492 306.9387755102041 18.06809703952308 313.46938775510205 12.038851113013777 320 13.322766575627725 326.53061224489795 11.292841080506776 333.0612244897959 7.0296732589841895 339.5918367346939 1.9719487973242735 346.12244897959187 4.695636779604001 352.65306122448976 0.0667850488601971 359.1836734693877 0 365.71428571428567 3.134247206789496 372.2448979591837 11.121914761438063 378.7755102040816 13.49980659960704 385.3061224489796 18.04814229784131 391.8367346938776 21.31469631055529 398.36734693877554 21.56853768578685 404.8979591836735 27.06653306895373 411.42857142857144 30.68100456633306 417.95918367346934 36.748071687242714 424.48979591836735 42.80365671061031 431.0204081632653 46.96044250089909 437.55102040816325 38.514736596304544 444.0816326530612 42.631131010586614 450.61224489795916 50.615523391074646 457.14285714285717 58.069150425765656 463.6734693877551 56.64274482821537 470.2040816326531 59.47493006352886 476.7346938775511 65.88377732968269 483.2653061224489 69.96907036855407 489.7959183673469 77.37892539541866 496.3265306122449 75.26400424057971 502.85714285714283 75.90636753766628 509.38775510204084 75.93964947040217 515.9183673469388 75.35349318956338 522.4489795918367 79.2736773822551 528.9795918367347 86.14823442718344 535.5102040816327 89.35249181234354 542.0408163265306 84.99962502487574 548.5714285714286 87.49756995196577 555.1020408163265 94.56937926339145 561.6326530612245 94.67098988299779 568.1632653061224 95.57913349877248 574.6938775510204 99.33780352090056 581.2244897959183 99.23024615487901 587.7551020408164 100.29076959808535 594.2857142857143 100.9250436031503 600.8163265306123 103.11097691605733 607.3469387755102 98.64737977209302 613.8775510204082 83.41167585408516 620.4081632653061 83.12835213255798 626.9387755102041 80.36989809931731 633.469387755102 77.0542617017503 640 73.22661210785114 640 320 0 320"
      />
      
      <polygon
        fill="#2770da"
        fillRule="evenodd"
        points="0 313.61355227388594 6.530612244897958 304.2691142627013 13.061224489795917 297.26805389058666 19.591836734693878 285.9388247697308 26.122448979591834 278.82800875619546 32.6530612244898 274.9842094259683 39.183673469387756 267.09074826258137 45.71428571428571 257.0788231836734 52.24489795918367 246.22217078504002 58.775510204081634 230.9923310542889 65.3061224489796 221.54622171929512 71.83673469387755 206.62811665707645 78.36734693877551 198.27733578376422 84.89795918367348 192.17039796975868 91.42857142857142 182.1295434131696 97.9591836734694 170.617243345245 104.48979591836734 156.95194052821134 111.0204081632653 154.80428463294461 117.55102040816327 149.8879778767431 124.08163265306122 142.5256903075716 130.6122448979592 138.2862002108033 137.14285714285714 123.78691549331768 143.6734693877551 127.17486931970654 150.20408163265307 110.77254191431334 156.73469387755102 93.05744034063451 163.26530612244898 88.01900038948014 169.79591836734696 78.10637731436415 176.32653061224488 68.78376088615926 182.85714285714283 65.9739115580567 189.3877551020408 62.13348574687569 195.9183673469388 59.18934091843619 202.44897959183675 46.68379252115636 208.97959183673467 33.294193540000435 215.51020408163265 31.646522665042824 222.0408163265306 27.41470375563688 228.57142857142858 27.52903220259617 235.10204081632654 25.25119934979142 241.63265306122446 14.574501507131288 248.16326530612244 11.080087223327325 254.69387755102042 11.27725960076907 261.2244897959184 14.289953723441897 267.7551020408163 9.55782978724676 274.2857142857143 11.98100615817259 280.81632653061223 11.394647375726493 287.3469387755102 12.653616112912061 293.8775510204082 15.358305096428808 300.40816326530614 18.82033253419769 306.9387755102041 19.161795069745438 313.46938775510205 13.099164636769729 320 14.3507146832211 326.53061224489795 12.290408624468 333.0612244897959 7.9967906764845225 339.5918367346939 2.9104834958228025 346.12244897959187 5.60552330633584 352.65306122448976 0.948897819885417 359.1836734693877 0.8577561223099792 365.71428571428567 3.9658207845689617 372.2448979591837 11.928911699340688 378.7755102040816 14.282170384256574 385.3061224489796 18.807383788667607 391.8367346938776 22.050762333608873 398.36734693877554 22.28213575771457 404.8979591836735 27.759041160549714 411.42857142857144 31.35237423022096 417.95918367346934 37.399599360827324 424.48979591836735 43.43529690576122 431.0204081632653 47.57280223292969 437.55102040816325 40.23027771412228 444.0816326530612 44.294306217330416 450.61224489795916 52.229544496052256 457.14285714285717 59.63390440222429 463.6734693877551 58.161253292263154 470.2040816326531 60.94708687276989 476.7346938775511 67.31099737355862 483.2653061224489 71.35410975305572 489.7959183673469 78.72168722579343 496.3265306122449 76.56708145328795 502.85714285714283 77.16966909479629 509.38775510204084 77.16438938203041 515.9183673469388 76.54441611326854 522.4489795918367 80.4282480252206 528.9795918367347 87.2686823962353 535.5102040816327 90.43873881076763 542.0408163265306 86.05376852094884 548.5714285714286 88.51953637554709 555.1020408163265 95.56015071421098 561.6326530612245 95.63247959572539 568.1632653061224 96.51127427386609 574.6938775510204 100.24239536077403 581.2244897959183 100.10722586730239 587.7551020408164 101.14098000300373 594.2857142857143 101.75177840289149 600.8163265306123 103.91247602720145 607.3469387755102 99.42519098299266 613.8775510204082 84.17684200178917 620.4081632653061 84.13458646517103 626.9387755102041 81.54075980191942 633.469387755102 78.21141120420793 640 74.34956269471283 640 320 0 320"
      />
      
      <polygon
        fill="#89e051"
        fillRule="evenodd"
        points="0 313.61355227388594 6.530612244897958 304.90984381243203 13.061224489795917 298.33448421670005 19.591836734693878 288.076824131897 26.122448979591834 281.2713527680497 32.6530612244898 277.3529720157376 39.183673469387756 269.99994405796747 45.71428571428571 260.0717398471262 52.24489795918367 250.17321851988564 58.775510204081634 235.18160219342758 65.3061224489796 226.7874397309424 71.83673469387755 213.3278955926241 78.36734693877551 205.8137038078702 84.89795918367348 200.42208816560412 91.42857142857142 190.4508899417234 97.9591836734694 178.68458783206563 104.48979591836734 164.78085775157754 111.0204081632653 162.3942283653857 117.55102040816327 158.35643786893576 124.08163265306122 150.82948737772395 130.6122448979592 146.4703044157966 137.14285714285714 132.5869709067871 143.6734693877551 135.70630843505953 150.20408163265307 119.05184136056425 156.73469387755102 102.43460213368667 163.26530612244898 97.17070360869224 169.79591836734696 87.08406968257117 176.32653061224488 77.5184734788129 182.85714285714283 74.59643482341386 189.3877551020408 71.29274120820557 195.9183673469388 68.12767531629223 202.44897959183675 55.43665207272733 208.97959183673467 42.603056348893574 215.51020408163265 40.8164088062299 222.0408163265306 36.3046883912001 228.57142857142858 36.65741122110393 235.10204081632654 34.265802145393536 241.63265306122446 23.33077611066176 248.16326530612244 19.768512278168487 254.69387755102042 20.332099920361998 261.2244897959184 23.771768014411805 267.7551020408163 19.358088734055457 274.2857142857143 21.657333325586535 280.81632653061223 22.19767761819452 287.3469387755102 24.033532846552873 293.8775510204082 26.401893875902317 300.40816326530614 29.52682148953403 306.9387755102041 29.794933772589275 313.46938775510205 23.46955312996664 320 24.701209954170224 326.53061224489795 22.4043558558551 333.0612244897959 17.80201869035193 339.5918367346939 12.431572528353001 346.12244897959187 14.835985621919008 352.65306122448976 10.202462289979508 359.1836734693877 9.855812828820717 365.71428571428567 12.717371280839473 372.2448979591837 20.45569205744721 378.7755102040816 22.80229141159225 385.3061224489796 27.111527645447836 391.8367346938776 30.808726995348252 398.36734693877554 30.772769132765063 404.8979591836735 35.99874178671473 411.42857142857144 39.34056053348161 417.95918367346934 45.232548042962094 424.48979591836735 51.0291509528422 431.0204081632653 55.069645829103365 437.55102040816325 47.537666381039 444.0816326530612 51.37864532151525 450.61224489795916 59.10450667828616 457.14285714285717 66.29901330612003 463.6734693877551 64.91780083916046 470.2040816326531 67.49739275708689 476.7346938775511 73.66135975421508 483.2653061224489 78.63278191839606 489.7959183673469 85.77818475822 496.3265306122449 83.41502510402702 502.85714285714283 83.84702866017147 509.38775510204084 83.63792318029022 515.9183673469388 82.83920550011663 522.4489795918367 87.04908085649703 528.9795918367347 93.69383971678803 535.5102040816327 96.66777262364914 542.0408163265306 92.09870641392916 548.5714285714286 94.37995501206129 555.1020408163265 101.24168232010186 561.6326530612245 101.14610030170726 568.1632653061224 101.85659331562914 574.6938775510204 105.42973588265622 581.2244897959183 105.13622587544009 587.7551020408164 106.01647118557531 594.2857142857143 106.49265102384106 600.8163265306123 108.50863546173483 607.3469387755102 104.55192316923001 613.8775510204082 89.14708556625067 620.4081632653061 88.95793583789387 626.9387755102041 86.21688001270911 633.469387755102 82.74479373071694 640 78.74896536350462 640 320 0 320"
      />
      
      <polygon
        fill="#0141ae"
        fillRule="evenodd"
        points="0 313.695790388166 6.530612244897958 304.9895716611012 13.061224489795917 298.41185574527816 19.591836734693878 288.1545965201291 26.122448979591834 281.34682663601706 32.6530612244898 277.42614208303576 39.183673469387756 270.0708806549797 45.71428571428571 260.1686705586869 52.24489795918367 250.62557370694145 58.775510204081634 236.5914480731205 65.3061224489796 228.16527746176308 71.83673469387755 215.56293222386358 78.36734693877551 209.34791545455394 84.89795918367348 203.8484197840686 91.42857142857142 193.80956723952607 97.9591836734694 182.16684652632944 104.48979591836734 169.20016751408224 111.0204081632653 166.68974537140156 117.55102040816327 162.52083592985062 124.08163265306122 154.87485275246763 130.6122448979592 151.50326200430726 137.14285714285714 138.33051741488538 143.6734693877551 141.27453544785874 150.20408163265307 124.45550244882725 156.73469387755102 107.98223258958097 163.26530612244898 102.6190274238206 169.79591836734696 92.5251597855214 176.32653061224488 83.01583107359158 182.85714285714283 79.93132118764021 189.3877551020408 76.46478407285659 195.9183673469388 73.61567121339272 202.44897959183675 61.01116193445887 208.97959183673467 50.211240544201985 215.51020408163265 49.30684592573692 222.0408163265306 44.53595824912344 228.57142857142858 46.726570060426866 235.10204081632654 45.53590105851447 241.63265306122446 38.06190010126227 248.16326530612244 34.37977447999043 254.69387755102042 35.1880855922779 261.2244897959184 40.45923405084454 267.7551020408163 36.76716174344028 274.2857142857143 38.53500078160255 280.81632653061223 38.690062561871514 287.3469387755102 40.022498688366 293.8775510204082 41.96038910961374 300.40816326530614 45.107727873290514 306.9387755102041 44.91812907330734 313.46938775510205 38.1422957202069 320 38.9260706788005 326.53061224489795 36.368752593792465 333.0612244897959 33.69995073044174 339.5918367346939 28.417423969368997 346.12244897959187 30.372871168014285 352.65306122448976 26.294034845484987 359.1836734693877 25.536685210318183 365.71428571428567 28.083915235331347 372.2448979591837 35.36808424409742 378.7755102040816 37.5887245299092 385.3061224489796 41.46095823686812 391.8367346938776 45.374412700384255 398.36734693877554 45.02188950860631 404.8979591836735 49.82674092194122 411.42857142857144 53.200744550321076 417.95918367346934 58.858087493508094 424.48979591836735 64.62536612613658 431.0204081632653 68.6307990761685 437.55102040816325 63.21831990164242 444.0816326530612 66.93870546199474 450.61224489795916 74.20469486971726 457.14285714285717 80.9382866198294 463.6734693877551 80.2663406594499 470.2040816326531 82.74333100126358 476.7346938775511 88.44193089412627 483.2653061224489 93.40765856499885 489.7959183673469 100.10205589077228 496.3265306122449 98.34492718971518 502.85714285714283 99.94039423098246 509.38775510204084 99.86320843936994 515.9183673469388 98.6742504824739 522.4489795918367 102.4007700131254 528.9795918367347 108.59181893742652 535.5102040816327 111.11099897962444 542.0408163265306 106.11507079776433 548.5714285714286 107.9684730634911 555.1020408163265 114.4154158216844 561.6326530612245 113.93049979562147 568.1632653061224 114.39445269127731 574.6938775510204 117.59704629694863 581.2244897959183 116.93213860021487 587.7551020408164 117.4523228041366 594.2857142857143 117.64297651455368 600.8163265306123 119.31860924588105 607.3469387755102 115.0506987509132 613.8775510204082 99.80078075287796 620.4081632653061 99.38378964122927 626.9387755102041 97.9204128898865 633.469387755102 95.72558542771912 640 92.85901967775351 640 320 0 320"
      />
      
      <polygon
        fill="#26c0b0"
        fillRule="evenodd"
        points="0 313.695790388166 6.530612244897958 305.07507276628525 13.061224489795917 298.52242880028507 19.591836734693878 288.392036628475 26.122448979591834 281.7296757234693 32.6530612244898 277.8556706234282 39.183673469387756 270.5454091940678 45.71428571428571 260.8000767987347 52.24489795918367 251.72757231913656 58.775510204081634 237.79093256784574 65.3061224489796 230.2054339823636 71.83673469387755 218.21682339556645 78.36734693877551 212.42855125607724 84.89795918367348 207.47609736269237 91.42857142857142 198.30983960632318 97.9591836734694 186.52975039060937 104.48979591836734 173.80647500423842 111.0204081632653 171.15544706733766 117.55102040816327 166.8783265319334 124.08163265306122 159.35255922532002 130.6122448979592 156.04890485094535 137.14285714285714 143.12364703021987 143.6734693877551 145.92418171059882 150.20408163265307 128.96773212130444 156.73469387755102 112.62441322979657 163.26530612244898 107.3473171873892 169.79591836734696 97.39189344978413 176.32653061224488 88.07445642114968 182.85714285714283 84.90360848129515 189.3877551020408 81.47888509994567 195.9183673469388 78.54036396896663 202.44897959183675 65.83886725548246 208.97959183673467 55.258029935711875 215.51020408163265 54.27465530494976 222.0408163265306 49.44592505733203 228.57142857142858 52.0315346468858 235.10204081632654 50.756902899655756 241.63265306122446 43.28771873160076 248.16326530612244 39.62419628632114 254.69387755102042 40.2724245260942 261.2244897959184 46.01549050300804 267.7551020408163 42.226336024084276 274.2857142857143 45.29499369217939 280.81632653061223 46.226263100880146 287.3469387755102 47.34241534331284 293.8775510204082 49.12249267474516 300.40816326530614 52.19662914822402 306.9387755102041 51.84816199956094 313.46938775510205 44.8992199544457 320 45.54052469115629 326.53061224489795 42.9021392979821 333.0612244897959 40.529999780177036 339.5918367346939 35.11183105161166 346.12244897959187 37.18674444540079 352.65306122448976 32.91367020969153 359.1836734693877 31.973541313541887 365.71428571428567 34.32992330319422 372.2448979591837 41.451437669813686 378.7755102040816 43.65066061899216 385.3061224489796 47.72250984652533 391.8367346938776 51.450405207449705 398.36734693877554 51.049255851592704 404.8979591836735 55.67597299247774 411.42857142857144 59.077752020589685 417.95918367346934 64.64977178736191 424.48979591836735 70.2402649677077 431.0204081632653 74.11928026904476 437.55102040816325 68.67680924016454 444.0816326530612 72.31795349091777 450.61224489795916 79.43585997371719 457.14285714285717 86.08186965638441 463.6734693877551 85.88894484301301 470.2040816326531 88.95224605214975 476.7346938775511 94.4724815089933 483.2653061224489 100.00821953440578 489.7959183673469 106.58863760012491 496.3265306122449 104.63980422367254 502.85714285714283 106.09859417789488 509.38775510204084 105.83343492949953 515.9183673469388 104.49622399379334 522.4489795918367 108.04502950601216 528.9795918367347 114.08036167850727 535.5102040816327 116.43200432283834 542.0408163265306 111.27881893728335 548.5714285714286 112.97459984766812 555.1020408163265 119.26873300488859 561.6326530612245 118.6403790424356 568.1632653061224 118.9605656076088 574.6938775510204 122.02821225756549 581.2244897959183 121.47121490077109 587.7551020408164 121.85284885609946 594.2857142857143 121.92199490271423 600.8163265306123 123.46983732681002 607.3469387755102 119.66081575639612 613.8775510204082 104.27017359430516 620.4081632653061 103.72109623405478 626.9387755102041 102.12532384906251 633.469387755102 99.80214310368314 640 96.81509638383685 640 320 0 320"
      />
      
      <polygon
        fill="#dea584"
        fillRule="evenodd"
        points="0 313.695790388166 6.530612244897958 305.07507276628525 13.061224489795917 298.52242880028507 19.591836734693878 288.392036628475 26.122448979591834 281.7296757234693 32.6530612244898 277.8556706234282 39.183673469387756 270.5454091940678 45.71428571428571 260.8000767987347 52.24489795918367 251.72757231913656 58.775510204081634 237.79093256784574 65.3061224489796 230.2054339823636 71.83673469387755 218.6052178221141 78.36734693877551 212.80509017294838 84.89795918367348 207.84114266099914 91.42857142857142 198.66409617227168 97.9591836734694 187.99619205347173 104.48979591836734 176.33192791716152 111.0204081632653 173.6038120358054 117.55102040816327 169.2519563619323 124.08163265306122 162.75990070529141 130.6122448979592 159.35223942126058 137.14285714285714 148.55734446427698 143.6734693877551 151.1920185500424 150.20408163265307 136.32712593845054 156.73469387755102 123.07451127160391 163.26530612244898 117.47843215500814 169.79591836734696 107.22358719157364 176.32653061224488 98.72222489586744 182.85714285714283 95.23668632964043 189.3877551020408 91.4965530607644 195.9183673469388 88.2522472977742 202.44897959183675 76.38141398845477 208.97959183673467 66.58288003539681 215.51020408163265 65.26480441919796 222.0408163265306 60.100604090466504 228.57142857142858 62.37132217428268 235.10204081632654 60.78107400882328 241.63265306122446 53.0059074119398 248.16326530612244 49.05516908885738 254.69387755102042 49.41552127183974 261.2244897959184 54.88836905329555 267.7551020408163 51.931334996131454 274.2857142857143 54.70375057269814 280.81632653061223 55.37522901764305 287.3469387755102 56.2121163005732 293.8775510204082 57.730055308097576 300.40816326530614 60.54145123057924 306.9387755102041 61.064387054357155 313.46938775510205 54.0899436050243 320 54.45070309737815 326.53061224489795 51.5489855095318 333.0612244897959 48.91290427460217 339.5918367346939 43.24698295896826 346.12244897959187 45.07357596038344 352.65306122448976 41.66902662498302 359.1836734693877 40.48714891736944 365.71428571428567 42.583657228233164 372.2448979591837 49.46123879827013 378.7755102040816 51.477838257881444 385.3061224489796 55.31835768552537 391.8367346938776 58.814394589612334 398.36734693877554 58.18846430667401 404.8979591836735 62.60418516049549 411.42857142857144 65.79448445529681 417.95918367346934 71.16799410313706 424.48979591836735 76.55952361901743 431.0204081632653 80.24564674479376 437.55102040816325 74.62806336782677 444.0816326530612 78.08754773345606 450.61224489795916 85.03493794694327 457.14285714285717 91.51003802719856 463.6734693877551 91.15668715099062 470.2040816326531 94.05919280256083 476.7346938775511 99.42354207022078 483.2653061224489 104.81295442846121 489.7959183673469 111.24670949352705 496.3265306122449 109.16021035419766 502.85714285714283 110.4810164266097 509.38775510204084 110.08208652274146 515.9183673469388 108.62756409280578 522.4489795918367 112.05026144412923 528.9795918367347 117.96722295896973 535.5102040816327 120.20022100989803 542.0408163265306 116.05403381230175 548.5714285714286 117.60405490853947 555.1020408163265 123.7568756488318 561.6326530612245 123.3540518780795 568.1632653061224 123.530357133737 574.6938775510204 126.46294595900974 581.2244897959183 125.77058067322241 587.7551020408164 126.0209792658944 594.2857142857143 125.99999428628578 600.8163265306123 127.42335839526135 607.3469387755102 123.49749243936174 613.8775510204082 107.98973709361667 620.4081632653061 107.3307312493802 626.9387755102041 105.62477637846288 633.469387755102 103.19477733707924 640 100.10746211880081 640 320 0 320"
      />
      
      <polygon
        fill="#701516"
        fillRule="evenodd"
        points="0 313.695790388166 6.530612244897958 305.07507276628525 13.061224489795917 298.52242880028507 19.591836734693878 288.392036628475 26.122448979591834 281.7296757234693 32.6530612244898 277.8556706234282 39.183673469387756 270.5454091940678 45.71428571428571 260.8000767987347 52.24489795918367 251.72757231913656 58.775510204081634 237.79093256784574 65.3061224489796 230.2054339823636 71.83673469387755 218.6052178221141 78.36734693877551 212.80509017294838 84.89795918367348 207.84114266099914 91.42857142857142 198.66409617227168 97.9591836734694 187.99619205347173 104.48979591836734 176.33192791716152 111.0204081632653 173.6038120358054 117.55102040816327 169.2519563619323 124.08163265306122 162.75990070529141 130.6122448979592 159.35223942126058 137.14285714285714 148.55734446427698 143.6734693877551 151.1920185500424 150.20408163265307 136.32712593845054 156.73469387755102 123.07451127160391 163.26530612244898 117.47843215500814 169.79591836734696 107.22358719157364 176.32653061224488 98.72222489586744 182.85714285714283 95.23668632964043 189.3877551020408 91.4965530607644 195.9183673469388 88.2522472977742 202.44897959183675 76.38141398845477 208.97959183673467 66.58288003539681 215.51020408163265 65.26480441919796 222.0408163265306 60.100604090466504 228.57142857142858 62.37132217428268 235.10204081632654 60.78107400882328 241.63265306122446 53.0059074119398 248.16326530612244 49.05516908885738 254.69387755102042 49.41552127183974 261.2244897959184 54.88836905329555 267.7551020408163 51.931334996131454 274.2857142857143 54.70375057269814 280.81632653061223 55.37522901764305 287.3469387755102 56.2121163005732 293.8775510204082 57.730055308097576 300.40816326530614 60.54145123057924 306.9387755102041 61.064387054357155 313.46938775510205 54.0899436050243 320 54.45070309737815 326.53061224489795 51.5489855095318 333.0612244897959 48.91290427460217 339.5918367346939 43.24698295896826 346.12244897959187 45.07357596038344 352.65306122448976 41.66902662498302 359.1836734693877 40.48714891736944 365.71428571428567 42.583657228233164 372.2448979591837 49.46123879827013 378.7755102040816 51.477838257881444 385.3061224489796 55.31835768552537 391.8367346938776 58.814394589612334 398.36734693877554 58.18846430667401 404.8979591836735 62.60418516049549 411.42857142857144 65.79448445529681 417.95918367346934 71.16799410313706 424.48979591836735 76.55952361901743 431.0204081632653 80.24564674479376 437.55102040816325 74.62806336782677 444.0816326530612 78.08754773345606 450.61224489795916 85.03493794694327 457.14285714285717 91.51003802719856 463.6734693877551 91.15668715099062 470.2040816326531 94.05919280256083 476.7346938775511 99.42354207022078 483.2653061224489 104.81295442846121 489.7959183673469 111.24670949352705 496.3265306122449 109.16021035419766 502.85714285714283 110.4810164266097 509.38775510204084 110.08208652274146 515.9183673469388 108.62756409280578 522.4489795918367 112.05026144412923 528.9795918367347 117.96722295896973 535.5102040816327 120.20022100989803 542.0408163265306 116.05403381230175 548.5714285714286 117.60405490853947 555.1020408163265 123.7568756488318 561.6326530612245 123.3540518780795 568.1632653061224 123.530357133737 574.6938775510204 126.46294595900974 581.2244897959183 125.77058067322241 587.7551020408164 126.0209792658944 594.2857142857143 125.99999428628578 600.8163265306123 127.42335839526135 607.3469387755102 123.49749243936174 613.8775510204082 108.00929332351848 620.4081632653061 107.34970950465151 626.9387755102041 105.6431753346356 633.469387755102 103.21261467462 640 100.12477228312636 640 320 0 320"
      />
      
      <polygon
        fill="#3572A5"
        fillRule="evenodd"
        points="0 313.695790388166 6.530612244897958 305.07507276628525 13.061224489795917 298.52242880028507 19.591836734693878 288.392036628475 26.122448979591834 281.7296757234693 32.6530612244898 277.8556706234282 39.183673469387756 270.5454091940678 45.71428571428571 260.8000767987347 52.24489795918367 251.72757231913656 58.775510204081634 237.79093256784574 65.3061224489796 230.2054339823636 71.83673469387755 218.6052178221141 78.36734693877551 212.80509017294838 84.89795918367348 207.84114266099914 91.42857142857142 198.66409617227168 97.9591836734694 187.99619205347173 104.48979591836734 176.33192791716152 111.0204081632653 173.6038120358054 117.55102040816327 169.2519563619323 124.08163265306122 163.42152849060534 130.6122448979592 159.99367138088405 137.14285714285714 149.21623840987039 143.6734693877551 151.83080013506472 150.20408163265307 137.94827111965603 156.73469387755102 125.4400801363459 163.26530612244898 119.7717933649767 169.79591836734696 109.44916944319758 176.32653061224488 100.8798725204827 182.85714285714283 97.33056580160945 189.3877551020408 93.52651785631485 195.9183673469388 90.22024877241716 202.44897959183675 78.29507600216857 208.97959183673467 68.47399927427438 215.51020408163265 67.10003244258232 222.0408163265306 61.87981266436901 228.57142857142858 64.0979475174911 235.10204081632654 62.45499497720897 241.63265306122446 54.62873309545597 248.16326530612244 50.63003289734604 254.69387755102042 50.94231315834429 261.2244897959184 56.37003747478968 267.7551020408163 53.40360986695339 274.2857142857143 56.131085081849164 280.81632653061223 56.76315253662091 287.3469387755102 57.55767420730865 293.8775510204082 59.03584598488533 300.40816326530614 61.80738333125288 306.9387755102041 62.29290524482781 313.46938775510205 55.28096198495973 320 55.605366216777725 326.53061224489795 52.66952328347634 333.0612244897959 49.999238406377515 339.5918367346939 44.30121101960276 346.12244897959187 46.09562417423314 352.65306122448976 42.65987745140848 359.1836734693877 41.450640796271045 365.71428571428567 43.51773898092682 372.2448979591837 50.367714280354505 378.7755102040816 52.37897579468671 385.3061224489796 56.19286242031757 391.8367346938776 59.66220548794496 398.36734693877554 59.01039635308558 404.8979591836735 63.40182553829959 411.42857142857144 66.56777732927753 417.95918367346934 71.91843259779932 424.48979591836735 77.28705545435048 431.0204081632653 80.95097114539095 437.55102040816325 75.3132269193759 444.0816326530612 78.75179716402562 450.61224489795916 85.67955582247296 457.14285714285717 92.13497928083939 463.6734693877551 91.76315865158341 470.2040816326531 94.64715211369742 476.7346938775511 99.99355419208803 483.2653061224489 105.36612020053067 489.7959183673469 111.7829902298237 496.3265306122449 109.68064152362928 502.85714285714283 110.98556178868921 509.38775510204084 110.57123085948675 515.9183673469388 109.10320245185463 522.4489795918367 112.51138120852835 528.9795918367347 118.41471457402781 535.5102040816327 120.63405313637912 542.0408163265306 116.47504428669868 548.5714285714286 118.01221428224565 555.1020408163265 124.1525761863303 561.6326530612245 123.73805770187008 568.1632653061224 123.9026414667544 574.6938775510204 126.82422760002592 581.2244897959183 126.12083436589563 587.7551020408164 126.36054166554544 594.2857142857143 126.33018082908899 600.8163265306123 127.74346615756602 607.3469387755102 123.80813960557953 613.8775510204082 108.32987439048804 620.4081632653061 107.66081599104226 626.9387755102041 105.94478545710973 633.469387755102 103.50501837762394 640 100.40853409418958 640 320 0 320"
      />
      
      <polygon
        fill="#0298c3"
        fillRule="evenodd"
        points="0 313.695790388166 6.530612244897958 305.07507276628525 13.061224489795917 298.52242880028507 19.591836734693878 288.392036628475 26.122448979591834 281.7296757234693 32.6530612244898 277.8556706234282 39.183673469387756 270.5454091940678 45.71428571428571 260.8000767987347 52.24489795918367 251.72757231913656 58.775510204081634 237.79093256784574 65.3061224489796 230.2054339823636 71.83673469387755 218.6052178221141 78.36734693877551 212.80509017294838 84.89795918367348 207.84114266099914 91.42857142857142 198.66409617227168 97.9591836734694 187.99619205347173 104.48979591836734 176.33192791716152 111.0204081632653 173.6038120358054 117.55102040816327 169.2519563619323 124.08163265306122 163.42152849060534 130.6122448979592 159.99367138088405 137.14285714285714 149.21623840987039 143.6734693877551 151.83080013506472 150.20408163265307 137.94827111965603 156.73469387755102 126.07819140079806 163.26530612244898 120.3904266469205 169.79591836734696 110.0495193634838 176.32653061224488 101.46189710508548 182.85714285714283 97.89538897828317 189.3877551020408 94.0741001067968 195.9183673469388 90.75111642119435 202.44897959183675 78.81128551963212 208.97959183673467 68.97445173213242 215.51020408163265 67.69016850512529 222.0408163265306 62.45193518066361 228.57142857142858 64.65316123156938 235.10204081632654 62.99326112089466 241.63265306122446 55.150568981921424 248.16326530612244 51.13644625256876 254.69387755102042 51.43326849192397 261.2244897959184 56.84648290650438 267.7551020408163 53.86551208473651 274.2857142857143 56.578887972584425 280.81632653061223 57.19859085546034 287.3469387755102 57.97982104240293 293.8775510204082 59.44551646462526 300.40816326530614 62.20454885986999 306.9387755102041 62.67833276021554 313.46938775510205 55.654624555925466 320 55.96762297041562 326.53061224489795 53.021073721809046 333.0612244897959 50.340057961499156 339.5918367346939 44.63195781546921 346.12244897959187 46.41627513283652 352.65306122448976 42.970740714502426 359.1836734693877 41.7529206125306 365.71428571428567 43.8107918890484 372.2448979591837 50.652106153913564 378.7755102040816 52.654686782075316 385.3061224489796 56.460424898091674 391.8367346938776 59.92160079641519 398.36734693877554 59.261873747067284 404.8979591836735 63.64587066292404 411.42857142857144 66.80437311750501 417.95918367346934 72.14803592431491 424.48979591836735 77.50965027963048 431.0204081632653 81.16677137770253 437.55102040816325 75.52285882968107 444.0816326530612 78.95503017774874 450.61224489795916 85.87678239932518 457.14285714285717 92.3261856212817 463.6734693877551 91.94871399346678 470.2040816326531 94.82704347949567 476.7346938775511 100.16795449218262 483.2653061224489 105.53536618271869 489.7959183673469 111.9470700673968 496.3265306122449 109.83987207167613 502.85714285714283 111.1399319294874 509.38775510204084 110.72088892523658 515.9183673469388 109.24872821842212 522.4489795918367 112.6524648798592 528.9795918367347 118.55162859597209 535.5102040816327 120.76678794276341 542.0408163265306 116.60385618109771 548.5714285714286 118.13709426361982 555.1020408163265 124.27364428909104 561.6326530612245 123.85554768589253 568.1632653061224 124.01654515301163 574.6938775510204 126.93476491802858 581.2244897959183 126.22799758872392 587.7551020408164 126.46443379139657 594.2857142857143 126.43120432876188 600.8163265306123 127.84140597608567 607.3469387755102 126.40239036164775 613.8775510204082 115.17774508759575 620.4081632653061 114.4069395942883 626.9387755102041 112.69050925390573 633.469387755102 110.04483291324436 640 107.19479349734885 640 320 0 320"
      />
      
      <polygon
        fill="#fd2fdb"
        fillRule="evenodd"
        points="0 313.695790388166 6.530612244897958 305.07507276628525 13.061224489795917 298.52242880028507 19.591836734693878 288.392036628475 26.122448979591834 281.7296757234693 32.6530612244898 277.8556706234282 39.183673469387756 270.5454091940678 45.71428571428571 260.8000767987347 52.24489795918367 251.72757231913656 58.775510204081634 237.79093256784574 65.3061224489796 230.2054339823636 71.83673469387755 218.6052178221141 78.36734693877551 212.80509017294838 84.89795918367348 207.84114266099914 91.42857142857142 198.66409617227168 97.9591836734694 187.99619205347173 104.48979591836734 176.33192791716152 111.0204081632653 173.6038120358054 117.55102040816327 169.2519563619323 124.08163265306122 163.42152849060534 130.6122448979592 159.99367138088405 137.14285714285714 149.21623840987039 143.6734693877551 151.83080013506472 150.20408163265307 137.94827111965603 156.73469387755102 126.07819140079806 163.26530612244898 120.3904266469205 169.79591836734696 110.0495193634838 176.32653061224488 101.46189710508548 182.85714285714283 97.89538897828317 189.3877551020408 94.0741001067968 195.9183673469388 90.75111642119435 202.44897959183675 78.81128551963212 208.97959183673467 68.97445173213242 215.51020408163265 67.69016850512529 222.0408163265306 62.45193518066361 228.57142857142858 64.65316123156938 235.10204081632654 62.99326112089466 241.63265306122446 55.150568981921424 248.16326530612244 51.13644625256876 254.69387755102042 51.43326849192397 261.2244897959184 56.84648290650438 267.7551020408163 53.86551208473651 274.2857142857143 56.578887972584425 280.81632653061223 58.32819419699081 287.3469387755102 59.074943928971436 293.8775510204082 60.508273524024844 300.40816326530614 63.23486590545008 306.9387755102041 64.55896003388705 313.46938775510205 57.477846774877605 320 57.73519225481971 326.53061224489795 54.736403376847534 333.0612244897959 52.00302838431719 339.5918367346939 46.24577999336191 346.12244897959187 47.98083624455421 352.65306122448976 44.48754452961509 359.1836734693877 43.22784298090909 365.71428571428567 45.24069313300356 372.2448979591837 52.039747311512656 378.7755102040816 53.99997106131741 385.3061224489796 57.76595006476208 391.8367346938776 61.18727550434727 398.36734693877554 60.48891436962424 404.8979591836735 64.83664675460216 411.42857142857144 67.95880155226519 417.95918367346934 73.26834584660102 424.48979591836735 78.59576339272826 431.0204081632653 82.21973148367402 437.55102040816325 76.5457216581635 444.0816326530612 79.94667059879401 450.61224489795916 86.83911549713176 457.14285714285717 93.25914399080429 463.6734693877551 92.85409928114478 470.2040816326531 95.70479249309909 476.7346938775511 101.01891061679041 483.2653061224489 106.36117272456471 489.7959183673469 112.74766938283716 496.3265306122449 110.6168101611857 502.85714285714283 111.8931544066478 509.38775510204084 111.45111973667451 515.9183673469388 109.9587961463304 522.4489795918367 113.34085839692261 528.9795918367347 119.21967702010522 535.5102040816327 121.41444456309193 542.0408163265306 117.23237164891631 548.5714285714286 118.74642467317261 555.1020408163265 124.86437522170905 561.6326530612245 124.42881984866546 568.1632653061224 124.57231855501936 574.6938775510204 127.47411269691295 581.2244897959183 126.7508820963011 587.7551020408164 126.97135754460942 594.2857142857143 126.92413110578909 600.8163265306123 128.3192864468295 607.3469387755102 126.86614734844409 613.8775510204082 115.62734612094104 620.4081632653061 114.84325292514711 626.9387755102041 114.22078770747885 633.469387755102 111.52840059519161 640 109.75423961717786 640 320 0 320"
      />
      
      <polygon
        fill="#4F5D95"
        fillRule="evenodd"
        points="0 313.695790388166 6.530612244897958 305.07507276628525 13.061224489795917 298.52242880028507 19.591836734693878 288.392036628475 26.122448979591834 281.7296757234693 32.6530612244898 277.8556706234282 39.183673469387756 270.5454091940678 45.71428571428571 260.8000767987347 52.24489795918367 251.72757231913656 58.775510204081634 237.79093256784574 65.3061224489796 230.2054339823636 71.83673469387755 218.6052178221141 78.36734693877551 212.80509017294838 84.89795918367348 207.84114266099914 91.42857142857142 198.66409617227168 97.9591836734694 187.99619205347173 104.48979591836734 176.33192791716152 111.0204081632653 173.6038120358054 117.55102040816327 169.2519563619323 124.08163265306122 163.42152849060534 130.6122448979592 159.99367138088405 137.14285714285714 149.21623840987039 143.6734693877551 151.83080013506472 150.20408163265307 137.94827111965603 156.73469387755102 126.07819140079806 163.26530612244898 120.3904266469205 169.79591836734696 110.0495193634838 176.32653061224488 101.46189710508548 182.85714285714283 97.89538897828317 189.3877551020408 94.0741001067968 195.9183673469388 90.75111642119435 202.44897959183675 78.81128551963212 208.97959183673467 68.97445173213242 215.51020408163265 67.69016850512529 222.0408163265306 62.45193518066361 228.57142857142858 64.67278830047474 235.10204081632654 63.012289084304314 241.63265306122446 55.169016127563964 248.16326530612244 51.15434820236652 254.69387755102042 51.45062399641762 261.2244897959184 56.863325478126114 267.7551020408163 53.88184054595308 274.2857142857143 56.594718016646766 280.81632653061223 58.3435871481048 287.3469387755102 59.08986701862648 293.8775510204082 60.52275556993277 300.40816326530614 63.24890589550779 306.9387755102041 64.57258508012995 313.46938775510205 57.49105592377089 320 57.74799820235029 326.53061224489795 54.74883085121388 333.0612244897959 52.01507651726837 339.5918367346939 46.257472049913645 346.12244897959187 47.992171407831336 352.65306122448976 44.49853369385528 359.1836734693877 43.23852871609756 365.71428571428567 45.251052692506335 372.2448979591837 52.04980069900989 378.7755102040816 54.009717575529464 385.3061224489796 57.77540852567091 391.8367346938776 61.196445251773866 398.36734693877554 60.49780421554516 404.8979591836735 64.84527386572614 411.42857142857144 67.96716532595417 417.95918367346934 73.27646243335045 424.48979591836735 78.60363222483562 431.0204081632653 82.22736012468408 437.55102040816325 76.55313224590708 444.0816326530612 79.95385498198715 450.61224489795916 86.84608754929462 457.14285714285717 93.26590322551084 463.6734693877551 92.86065875010797 470.2040816326531 95.71115173814951 476.7346938775511 101.02507574979836 483.2653061224489 106.36715565032978 489.7959183673469 112.75346968326315 496.3265306122449 110.62243903691552 502.85714285714283 111.89861146414287 509.38775510204084 111.45641022037614 515.9183673469388 109.96394055137972 522.4489795918367 113.34584577164372 528.9795918367347 119.22451699571329 535.5102040816327 121.41913680143145 542.0408163265306 117.23692521052001 548.5714285714286 118.75083923981884 555.1020408163265 124.86865503621658 561.6326530612245 124.43297317555044 568.1632653061224 124.57634510431683 574.6938775510204 127.47802024342494 581.2244897959183 126.75467036711939 587.7551020408164 126.9750301808395 594.2857142857143 126.92770233451927 600.8163265306123 128.3227486658805 607.3469387755102 126.86950724334827 613.8775510204082 115.63060345711654 620.4081632653061 114.84641399242992 626.9387755102041 114.22385228485035 633.469387755102 111.53137162812897 640 109.75712284281627 640 320 0 320"
      />
      
      <polygon
        fill="#755462"
        fillRule="evenodd"
        points="0 318.0212242398729 6.530612244897958 313.5273643842439 13.061224489795917 310.89612401012744 19.591836734693878 304.60635932005073 26.122448979591834 301.512359862063 32.6530612244898 299.63474835146076 39.183673469387756 295.6873266869533 45.71428571428571 289.60724843621944 52.24489795918367 284.8540520665821 58.775510204081634 274.44711142024596 65.3061224489796 270.1967651552486 71.83673469387755 262.95238015884786 78.36734693877551 259.7806321047596 84.89795918367348 257.29400496030917 91.42857142857142 251.48859788289678 97.9591836734694 243.1157492450896 104.48979591836734 233.6907783275287 111.0204081632653 232.4423069695307 117.55102040816327 230.4870828918606 124.08163265306122 226.7433076646813 130.6122448979592 225.026148476421 137.14285714285714 216.76222806666328 143.6734693877551 218.7515360706211 150.20408163265307 208.35861248840718 156.73469387755102 198.35258025160653 163.26530612244898 194.34766670985204 169.79591836734696 186.1187536960529 176.32653061224488 178.69899166346067 182.85714285714283 176.47506051691656 189.3877551020408 173.87225141622815 195.9183673469388 171.38699119677563 202.44897959183675 162.65598980672416 208.97959183673467 154.12872507760622 215.51020408163265 153.54796762565374 222.0408163265306 149.77119487505934 228.57142857142858 151.9918692070978 235.10204081632654 150.2404286656382 241.63265306122446 143.46428649262367 248.16326530612244 140.69799494185133 254.69387755102042 142.92949424673506 261.2244897959184 147.0537996634059 267.7551020408163 144.44725940575597 274.2857142857143 147.14078464134136 280.81632653061223 149.5342289036662 287.3469387755102 150.79095403001102 293.8775510204082 152.38223827266754 300.40816326530614 155.0355377184941 306.9387755102041 154.49052504903545 313.46938775510205 148.88686178595214 320 148.96302804861443 326.53061224489795 145.90471174271474 333.0612244897959 141.7890512286063 339.5918367346939 137.4587896960333 346.12244897959187 139.37112600868858 352.65306122448976 135.06411695620767 359.1836734693877 134.18772477739563 365.71428571428567 137.09706055127742 372.2448979591837 142.45247130996458 378.7755102040816 144.39924625768327 385.3061224489796 146.97592659402505 391.8367346938776 149.82619157628073 398.36734693877554 149.0645915562041 404.8979591836735 151.7193622815468 411.42857142857144 154.19236715404733 417.95918367346934 158.30295389722335 424.48979591836735 162.42159540973515 431.0204081632653 164.48554898359782 437.55102040816325 158.2232326349313 444.0816326530612 161.347820738803 450.61224489795916 165.87462428628723 457.14285714285717 170.07084924226348 463.6734693877551 168.5637100365265 470.2040816326531 169.21384649463658 476.7346938775511 173.47281989644583 483.2653061224489 177.15382781259956 489.7959183673469 181.49370000996169 496.3265306122449 177.5514803837696 502.85714285714283 179.11019606008807 509.38775510204084 179.84342783456395 515.9183673469388 178.85206638409488 522.4489795918367 181.19132549783365 528.9795918367347 185.2185712455839 535.5102040816327 189.19434882293206 542.0408163265306 186.26906973163133 548.5714285714286 186.94224248048093 555.1020408163265 190.98334582188033 561.6326530612245 193.0612042654003 568.1632653061224 195.38485198019237 574.6938775510204 199.02879435514546 581.2244897959183 200.45623055754857 587.7551020408164 202.54863192729562 594.2857142857143 204.68152129859277 600.8163265306123 208.14737906094115 607.3469387755102 207.11135020840914 613.8775510204082 197.53800865118842 620.4081632653061 198.092590247739 626.9387755102041 198.37922601470558 633.469387755102 197.54828570116163 640 197.6442844290545 640 320 0 320"
      />
      
      <polygon
        fill="#2415b9"
        fillRule="evenodd"
        points="0 318.0212242398729 6.530612244897958 313.5273643842439 13.061224489795917 310.89612401012744 19.591836734693878 304.60635932005073 26.122448979591834 301.512359862063 32.6530612244898 299.63474835146076 39.183673469387756 295.6873266869533 45.71428571428571 289.60724843621944 52.24489795918367 284.8540520665821 58.775510204081634 274.44711142024596 65.3061224489796 270.1967651552486 71.83673469387755 262.95238015884786 78.36734693877551 259.7806321047596 84.89795918367348 257.29400496030917 91.42857142857142 251.48859788289678 97.9591836734694 243.1157492450896 104.48979591836734 233.6907783275287 111.0204081632653 232.4423069695307 117.55102040816327 230.4870828918606 124.08163265306122 226.7433076646813 130.6122448979592 225.026148476421 137.14285714285714 216.76222806666328 143.6734693877551 218.7515360706211 150.20408163265307 208.35861248840718 156.73469387755102 198.35258025160653 163.26530612244898 194.34766670985204 169.79591836734696 186.1187536960529 176.32653061224488 178.69899166346067 182.85714285714283 176.47506051691656 189.3877551020408 173.87225141622815 195.9183673469388 171.38699119677563 202.44897959183675 162.65598980672416 208.97959183673467 154.12872507760622 215.51020408163265 153.54796762565374 222.0408163265306 149.77119487505934 228.57142857142858 151.9918692070978 235.10204081632654 150.2404286656382 241.63265306122446 143.46428649262367 248.16326530612244 140.69799494185133 254.69387755102042 142.92949424673506 261.2244897959184 147.0537996634059 267.7551020408163 144.44725940575597 274.2857142857143 147.14078464134136 280.81632653061223 149.5342289036662 287.3469387755102 150.79095403001102 293.8775510204082 152.38223827266754 300.40816326530614 155.0355377184941 306.9387755102041 154.49052504903545 313.46938775510205 148.88686178595214 320 148.96302804861443 326.53061224489795 145.90471174271474 333.0612244897959 142.14868180564326 339.5918367346939 137.81842027307027 346.12244897959187 139.73075658572554 352.65306122448976 135.42374753324466 359.1836734693877 134.5473553544326 365.71428571428567 137.4566911283144 372.2448979591837 142.81210188700155 378.7755102040816 144.75887683472024 385.3061224489796 147.33555717106202 391.8367346938776 150.1858221533177 398.36734693877554 149.42422213324107 404.8979591836735 152.07899285858377 411.42857142857144 154.55199773108433 417.95918367346934 158.6625844742603 424.48979591836735 162.7812259867721 431.0204081632653 164.8451795606348 437.55102040816325 158.58286321196826 444.0816326530612 161.70745131583996 450.61224489795916 166.2342548633242 457.14285714285717 170.43047981930044 463.6734693877551 168.92334061356345 470.2040816326531 169.57347707167355 476.7346938775511 173.8324504734828 483.2653061224489 177.51345838963653 489.7959183673469 181.85333058699865 496.3265306122449 177.91111096080655 502.85714285714283 179.46982663712504 509.38775510204084 180.20305841160092 515.9183673469388 179.21169696113185 522.4489795918367 181.5509560748706 528.9795918367347 185.57820182262088 535.5102040816327 189.55397939996902 542.0408163265306 186.6287003086683 548.5714285714286 187.3018730575179 555.1020408163265 191.3429763989173 561.6326530612245 193.4208348424373 568.1632653061224 195.74448255722933 574.6938775510204 199.38842493218243 581.2244897959183 200.81586113458553 587.7551020408164 202.90826250433258 594.2857142857143 205.04115187562974 600.8163265306123 208.50700963797811 607.3469387755102 207.4709807854461 613.8775510204082 197.8976392282254 620.4081632653061 198.45222082477596 626.9387755102041 198.73885659174255 633.469387755102 197.90791627819863 640 198.00391500609146 640 320 0 320"
      />
      
      <polygon
        fill="#f1e05a"
        fillRule="evenodd"
        points="0 318.0212242398729 6.530612244897958 313.5273643842439 13.061224489795917 310.89612401012744 19.591836734693878 304.60635932005073 26.122448979591834 301.512359862063 32.6530612244898 299.63474835146076 39.183673469387756 295.6873266869533 45.71428571428571 289.60724843621944 52.24489795918367 284.8540520665821 58.775510204081634 275.5586159933565 65.3061224489796 271.2743416659635 71.83673469387755 264.3815403583111 78.36734693877551 261.6232852665406 84.89795918367348 259.0916621718073 91.42857142857142 253.23312625273965 97.9591836734694 246.00809429290962 104.48979591836734 237.6110865874263 111.0204081632653 236.28998968392438 117.55102040816327 234.21731683589596 124.08163265306122 230.5137249826177 130.6122448979592 228.6814757895781 137.14285714285714 222.6033851977262 143.6734693877551 224.41439421842992 150.20408163265307 213.8541088408223 156.73469387755102 203.68032949015262 163.26530612244898 199.51278946018812 169.79591836734696 191.1312240553541 176.32653061224488 184.67464056067928 182.85714285714283 182.2741020303638 189.3877551020408 179.49428060187438 195.9183673469388 176.83741145266498 202.44897959183675 169.27900199929746 208.97959183673467 161.91441984319223 215.51020408163265 161.10356047289224 222.0408163265306 157.65200422190216 228.57142857142858 159.7499155739213 235.10204081632654 157.76166343506247 241.63265306122446 151.8857146144611 248.16326530612244 148.87053096144888 254.69387755102042 150.8525699477811 261.2244897959184 154.74271373064755 267.7551020408163 153.0044326576858 274.2857142857143 155.44779372630458 280.81632653061223 157.6118707441749 287.3469387755102 159.39928175172813 293.8775510204082 161.38437113488993 300.40816326530614 163.76288713196192 306.9387755102041 164.080142201778 313.46938775510205 158.18376225433713 320 157.97614711120733 326.53061224489795 154.6514503818645 333.0612244897959 150.62843121815874 339.5918367346939 146.04755803542974 346.12244897959187 147.70870225417767 352.65306122448976 144.26959419433018 359.1836734693877 143.14895120275395 365.71428571428567 145.79573096750042 372.2448979591837 150.90468483671228 378.7755102040816 152.6044398162236 385.3061224489796 154.94924679674688 391.8367346938776 157.5671102799938 398.36734693877554 156.5801986208557 404.8979591836735 159.02347779645453 411.42857142857144 161.2845075702124 417.95918367346934 165.1961177022222 424.48979591836735 169.11532761951207 431.0204081632653 170.98593598603858 437.55102040816325 165.66897991871957 444.0816326530612 168.57726923954831 450.61224489795916 172.90103974846056 457.14285714285717 176.89376465987263 463.6734693877551 175.19560489884944 470.2040816326531 175.6542855459235 476.7346938775511 179.7276455922997 483.2653061224489 183.23442359105107 489.7959183673469 187.39966678382197 496.3265306122449 183.29352764336804 502.85714285714283 184.68794814559905 509.38775510204084 185.26190025676644 515.9183673469388 184.13085623514434 522.4489795918367 186.31996084908468 528.9795918367347 190.20626151685332 535.5102040816327 194.04077014119736 542.0408163265306 190.9828857002449 548.5714285714286 191.52314936573256 555.1020408163265 195.43540005117583 561.6326530612245 197.39230949130703 568.1632653061224 199.59473067065642 574.6938775510204 203.12488182097127 581.2244897959183 204.4382637546569 587.7551020408164 206.42009372369773 594.2857142857143 208.4560157997568 600.8163265306123 211.81763669438288 607.3469387755102 210.68376387001763 613.8775510204082 201.01235352047718 620.4081632653061 201.4748819167459 626.9387755102041 201.66925271239654 633.469387755102 200.74886354045807 640 200.76089921477848 640 320 0 320"
      />
      
      <polygon
        fill="#22e8e8"
        fillRule="evenodd"
        points="0 319.92567426498005 6.530612244897958 319.8564690014918 13.061224489795917 319.8272329159328 19.591836734693878 318.6603030441543 26.122448979591834 318.54753009808223 32.6530612244898 318.40759804986214 39.183673469387756 318.26954477733204 45.71428571428571 316.01153604304045 52.24489795918367 316.0194991579549 58.775510204081634 310.2712011901225 65.3061224489796 309.37987284446007 71.83673469387755 306.9369347938763 78.36734693877551 307.0222683995778 84.89795918367348 306.2791056322202 91.42857142857142 304.58411668261897 97.9591836734694 300.1563036811737 104.48979591836734 294.75364694863595 111.0204081632653 293.47878312460193 117.55102040816327 293.78096161751523 124.08163265306122 290.8838670211407 130.6122448979592 291.2549325764077 137.14285714285714 286.9785428822621 143.6734693877551 287.29592391525654 150.20408163265307 280.0896355003705 156.73469387755102 272.3565352989793 163.26530612244898 270.6873694380093 169.79591836734696 264.64104977242584 176.32653061224488 259.7160507040767 182.85714285714283 258.4821332153505 189.3877551020408 256.49763994555803 195.9183673469388 254.70957661951383 202.44897959183675 249.7580264674939 208.97959183673467 243.84333094577096 215.51020408163265 243.32681379003668 222.0408163265306 241.8302915570943 228.57142857142858 242.76856178326653 235.10204081632654 241.7074547397799 241.63265306122446 237.21786124333735 248.16326530612244 234.04440211833935 254.69387755102042 235.7303212875393 261.2244897959184 237.40443275737923 267.7551020408163 235.56051482623457 274.2857142857143 237.005083140892 280.81632653061223 238.39938323880585 287.3469387755102 240.8175790858704 293.8775510204082 242.54148419366925 300.40816326530614 244.59171912486255 306.9387755102041 243.76038605773795 313.46938775510205 239.79408176629846 320 239.82810754545943 326.53061224489795 237.4353061176535 333.0612244897959 235.72258460631133 339.5918367346939 231.99177535610428 346.12244897959187 232.20074157993622 352.65306122448976 229.58699596954796 359.1836734693877 229.0000755797726 365.71428571428567 230.61538347378033 372.2448979591837 233.24732523027365 378.7755102040816 234.38586128157976 385.3061224489796 235.44978333854573 391.8367346938776 235.98083080261148 398.36734693877554 235.02390308595483 404.8979591836735 236.27275252871604 411.42857142857144 237.10995347218784 417.95918367346934 239.17607922501097 424.48979591836735 241.0401637695681 431.0204081632653 242.0107349661035 437.55102040816325 236.8473236874084 444.0816326530612 238.18589438303837 450.61224489795916 240.60234871389605 457.14285714285717 242.6985463645646 463.6734693877551 240.2079663149388 470.2040816326531 240.0552205227055 476.7346938775511 242.4939239643453 483.2653061224489 244.47760995596875 489.7959183673469 246.78130253040283 496.3265306122449 243.488812157756 502.85714285714283 244.043772691908 509.38775510204084 246.20498004272642 515.9183673469388 246.89559847086804 522.4489795918367 247.99731996201564 528.9795918367347 250.11827016328894 535.5102040816327 252.2328465804696 542.0408163265306 249.5817854959048 548.5714285714286 249.44275015703886 555.1020408163265 251.59488967973624 561.6326530612245 252.5120454706975 568.1632653061224 253.3534437037345 574.6938775510204 255.30238757318816 581.2244897959183 256.15328972238393 587.7551020408164 257.94405413094063 594.2857142857143 258.99697431791805 600.8163265306123 260.82646209270945 607.3469387755102 259.2205998238815 613.8775510204082 252.1187047365691 620.4081632653061 252.09484819013431 626.9387755102041 251.32928277439856 633.469387755102 250.03622693076352 640 248.84026041426893 640 320 0 320"
      />
      
      <polygon
        fill="#22e4e8"
        fillRule="evenodd"
        points="0 319.92567426498005 6.530612244897958 319.8564690014918 13.061224489795917 319.8272329159328 19.591836734693878 318.6603030441543 26.122448979591834 318.54753009808223 32.6530612244898 318.40759804986214 39.183673469387756 318.26954477733204 45.71428571428571 316.01153604304045 52.24489795918367 316.0194991579549 58.775510204081634 310.2712011901225 65.3061224489796 309.37987284446007 71.83673469387755 306.9369347938763 78.36734693877551 307.0222683995778 84.89795918367348 306.2791056322202 91.42857142857142 304.58411668261897 97.9591836734694 300.1563036811737 104.48979591836734 294.75364694863595 111.0204081632653 293.47878312460193 117.55102040816327 293.78096161751523 124.08163265306122 290.8838670211407 130.6122448979592 291.2549325764077 137.14285714285714 286.9785428822621 143.6734693877551 287.29592391525654 150.20408163265307 280.0896355003705 156.73469387755102 272.3565352989793 163.26530612244898 270.6873694380093 169.79591836734696 264.64104977242584 176.32653061224488 259.7160507040767 182.85714285714283 258.4821332153505 189.3877551020408 256.49763994555803 195.9183673469388 254.70957661951383 202.44897959183675 249.7580264674939 208.97959183673467 243.84333094577096 215.51020408163265 243.32681379003668 222.0408163265306 241.8302915570943 228.57142857142858 242.76856178326653 235.10204081632654 241.7074547397799 241.63265306122446 237.21786124333735 248.16326530612244 234.04440211833935 254.69387755102042 235.7303212875393 261.2244897959184 237.40443275737923 267.7551020408163 235.56051482623457 274.2857142857143 237.005083140892 280.81632653061223 238.39938323880585 287.3469387755102 240.8175790858704 293.8775510204082 242.54148419366925 300.40816326530614 244.59171912486255 306.9387755102041 243.76038605773795 313.46938775510205 239.79408176629846 320 239.82810754545943 326.53061224489795 237.4353061176535 333.0612244897959 235.77396040303088 339.5918367346939 232.04315115282384 346.12244897959187 232.2521173766558 352.65306122448976 229.63837176626754 359.1836734693877 229.0514513764922 365.71428571428567 230.6667592704999 372.2448979591837 233.29870102699323 378.7755102040816 234.43723707829935 385.3061224489796 235.5011591352653 391.8367346938776 236.032206599331 398.36734693877554 235.07527888267438 404.8979591836735 236.3241283254356 411.42857142857144 237.1613292689074 417.95918367346934 239.22745502173055 424.48979591836735 241.09153956628768 431.0204081632653 242.0621107628231 437.55102040816325 236.89869948412797 444.0816326530612 238.23727017975796 450.61224489795916 240.6537245106156 457.14285714285717 242.7499221612842 463.6734693877551 240.25934211165838 470.2040816326531 240.10659631942508 476.7346938775511 242.54529976106488 483.2653061224489 244.5289857526883 489.7959183673469 246.8326783271224 496.3265306122449 243.54018795447558 502.85714285714283 244.09514848862756 509.38775510204084 246.25635583944597 515.9183673469388 246.94697426758762 522.4489795918367 248.04869575873522 528.9795918367347 250.1696459600085 535.5102040816327 252.28422237718917 542.0408163265306 249.63316129262438 548.5714285714286 249.4941259537584 555.1020408163265 251.64626547645582 561.6326530612245 252.56342126741703 568.1632653061224 253.4048195004541 574.6938775510204 255.3537633699077 581.2244897959183 256.2046655191035 587.7551020408164 257.9954299276602 594.2857142857143 259.0483501146376 600.8163265306123 260.87783788942903 607.3469387755102 259.2719756206011 613.8775510204082 252.17008053328865 620.4081632653061 252.1462239868539 626.9387755102041 251.38065857111815 633.469387755102 250.08760272748307 640 248.8916362109885 640 320 0 320"
      />
      
      <polygon
        fill="#e34c26"
        fillRule="evenodd"
        points="0 319.92567426498005 6.530612244897958 319.8564690014918 13.061224489795917 319.8272329159328 19.591836734693878 318.6603030441543 26.122448979591834 318.63876245698475 32.6530612244898 318.51260300629576 39.183673469387756 318.3713445180276 45.71428571428571 316.11052492450364 52.24489795918367 316.2070753565271 58.775510204081634 311.6486233934993 65.3061224489796 310.7510477509558 71.83673469387755 308.26758529393237 78.36734693877551 308.3123015030022 84.89795918367348 307.5297614479941 91.42857142857142 305.797809667685 97.9591836734694 302.085770020226 104.48979591836734 297.72660688935616 111.0204081632653 296.360994810277 117.55102040816327 296.5751956421106 124.08163265306122 294.7044099571593 130.6122448979592 294.9752968188869 137.14285714285714 291.7197428697884 143.6734693877551 292.19422903411936 150.20408163265307 288.1167965105385 156.73469387755102 282.4760516667308 163.26530612244898 280.5091034678467 169.79591836734696 276.09420784187006 176.32653061224488 271.33209984708407 182.85714285714283 270.3320994433698 189.3877551020408 269.082015995072 195.9183673469388 268.3241267871415 202.44897959183675 264.11125373029176 208.97959183673467 258.7341545454424 215.51020408163265 258.8780311283848 222.0408163265306 257.33908276251145 228.57142857142858 258.0372903308681 235.10204081632654 256.5238204247816 241.63265306122446 252.72250231189548 248.16326530612244 250.1933809615834 254.69387755102042 252.19008362781528 261.2244897959184 254.18869284986346 267.7551020408163 252.86780827225422 274.2857142857143 253.80098807146067 280.81632653061223 254.90775530290603 287.3469387755102 256.8330620314024 293.8775510204082 258.5829119165446 300.40816326530614 260.45211600786905 306.9387755102041 259.9721070789678 313.46938775510205 257.8644157378087 320 257.5420774130881 326.53061224489795 255.7256631037109 333.0612244897959 254.32303459869274 339.5918367346939 252.4440145654458 346.12244897959187 252.3017172744945 352.65306122448976 249.89599329253969 359.1836734693877 249.60731762284894 365.71428571428567 250.63987807479407 372.2448979591837 252.68976390744865 378.7755102040816 254.04378751796753 385.3061224489796 254.8813550071986 391.8367346938776 255.76538091014203 398.36734693877554 254.20610794000618 404.8979591836735 254.900851947376 411.42857142857144 255.17101719493797 417.95918367346934 256.7048681159118 424.48979591836735 258.105126830105 431.0204081632653 258.55636270295287 437.55102040816325 255.16944016348188 444.0816326530612 257.12074635371965 450.61224489795916 258.97910848736046 457.14285714285717 260.5159336559579 463.6734693877551 258.60055908143624 470.2040816326531 258.02059271400174 476.7346938775511 259.9124809458046 483.2653061224489 261.3828826550781 489.7959183673469 263.1721380742839 496.3265306122449 261.82041363341983 502.85714285714283 263.55761550639573 509.38775510204084 265.20788233871053 515.9183673469388 265.57695609543936 522.4489795918367 267.2215399426243 528.9795918367347 268.775842849011 535.5102040816327 270.33942206650175 542.0408163265306 268.4386346219427 548.5714285714286 268.9636201530019 555.1020408163265 270.52147425720943 561.6326530612245 271.9837971224488 568.1632653061224 273.44945033123406 574.6938775510204 274.82522320713366 581.2244897959183 276.204167850045 587.7551020408164 277.5410137368772 594.2857142857143 278.71337751364797 600.8163265306123 279.97361529569093 607.3469387755102 278.9297446470509 613.8775510204082 275.72393002141905 620.4081632653061 277.03248729513535 626.9387755102041 278.2862927801633 633.469387755102 278.41588309597387 640 279.64486754235 640 320 0 320"
      />
      
      <polygon
        fill="#00ADD8"
        fillRule="evenodd"
        points="0 319.92567426498005 6.530612244897958 319.8564690014918 13.061224489795917 319.8272329159328 19.591836734693878 318.6603030441543 26.122448979591834 318.63876245698475 32.6530612244898 318.51536277671664 39.183673469387756 318.3740200480684 45.71428571428571 316.61218070627245 52.24489795918367 316.6934183765805 58.775510204081634 313.1394435911663 65.3061224489796 312.196361425672 71.83673469387755 310.8820309509267 78.36734693877551 310.8639651143925 84.89795918367348 310.0035372965257 91.42857142857142 308.6617072176002 97.9591836734694 305.8714488268327 104.48979591836734 303.7931582717617 111.0204081632653 303.0244448924483 117.55102040816327 303.31529430292375 124.08163265306122 302.49019103408386 130.6122448979592 302.91324375805135 137.14285714285714 300.9756880943024 143.6734693877551 301.5563921770772 150.20408163265307 299.6311595941307 156.73469387755102 295.8211974315204 163.26530612244898 294.0784562920683 169.79591836734696 290.71613976915467 176.32653061224488 287.7123899949305 182.85714285714283 287.346816974715 189.3877551020408 286.1158463503128 195.9183673469388 284.93731369667705 202.44897959183675 282.376523914811 208.97959183673467 277.9438546983821 215.51020408163265 278.0796632262077 222.0408163265306 276.03282503663996 228.57142857142858 276.2116962537931 235.10204081632654 274.14900983313106 241.63265306122446 270.30474463673517 248.16326530612244 268.0869883574739 254.69387755102042 269.6660828600708 261.2244897959184 271.14819270241037 267.7551020408163 270.4125380453612 274.2857142857143 270.81018475969034 280.81632653061223 272.1629064253191 287.3469387755102 273.5615074583305 293.8775510204082 274.9228772015459 300.40816326530614 276.29331067309363 306.9387755102041 276.46436152812106 313.46938775510205 274.63327747650015 320 273.7990800340307 326.53061224489795 272.044377304157 333.0612244897959 270.14362654191683 339.5918367346939 268.24949277679093 346.12244897959187 268.7286237652524 352.65306122448976 266.93233900678786 359.1836734693877 266.17325832220524 365.71428571428567 266.7001514674221 372.2448979591837 268.27539172692366 378.7755102040816 269.77299733156656 385.3061224489796 270.1456909241806 391.8367346938776 271.63102120696175 398.36734693877554 270.8758780970168 404.8979591836735 271.21138301092066 411.42857142857144 272.6978558605953 417.95918367346934 274.0958229368255 424.48979591836735 275.469155595958 431.0204081632653 275.70897390020923 437.55102040816325 272.9524724596088 444.0816326530612 274.36096664209003 450.61224489795916 275.70979595405737 457.14285714285717 277.06172168529304 463.6734693877551 276.493630114009 470.2040816326531 276.69947813523487 476.7346938775511 278.0212059951715 483.2653061224489 279.0984801079469 489.7959183673469 280.3469744412012 496.3265306122449 279.26734752243925 502.85714285714283 280.47751797737897 509.38775510204084 281.6113100903676 515.9183673469388 281.5274630433442 522.4489795918367 282.6851666851452 528.9795918367347 283.7824438616218 535.5102040816327 284.8879605856247 542.0408163265306 282.6100727381121 548.5714285714286 282.84178364366136 555.1020408163265 283.97601450595397 561.6326530612245 285.0406913761253 568.1632653061224 286.1077921152853 574.6938775510204 287.10945465960043 581.2244897959183 288.1134272960648 587.7551020408164 289.08675356079993 594.2857142857143 289.9403233263142 600.8163265306123 290.8578624526451 607.3469387755102 291.71914608853365 613.8775510204082 290.34723368247603 620.4081632653061 291.22360850654394 626.9387755102041 292.1019946046871 633.469387755102 292.92840101650074 640 293.7284777065114 640 320 0 320"
      />
      
      <polygon
        fill="#244776"
        fillRule="evenodd"
        points="0 319.92567426498005 6.530612244897958 319.8564690014918 13.061224489795917 319.8272329159328 19.591836734693878 318.6603030441543 26.122448979591834 318.63876245698475 32.6530612244898 318.51536277671664 39.183673469387756 318.3740200480684 45.71428571428571 316.61218070627245 52.24489795918367 316.6934183765805 58.775510204081634 313.1394435911663 65.3061224489796 312.196361425672 71.83673469387755 310.8820309509267 78.36734693877551 310.8639651143925 84.89795918367348 310.0035372965257 91.42857142857142 308.6617072176002 97.9591836734694 305.8714488268327 104.48979591836734 303.7931582717617 111.0204081632653 303.0244448924483 117.55102040816327 303.31529430292375 124.08163265306122 302.49019103408386 130.6122448979592 302.91324375805135 137.14285714285714 300.9756880943024 143.6734693877551 301.5563921770772 150.20408163265307 299.6311595941307 156.73469387755102 295.8211974315204 163.26530612244898 294.0784562920683 169.79591836734696 290.71613976915467 176.32653061224488 287.7123899949305 182.85714285714283 287.346816974715 189.3877551020408 286.1158463503128 195.9183673469388 284.93731369667705 202.44897959183675 282.376523914811 208.97959183673467 277.9438546983821 215.51020408163265 278.0796632262077 222.0408163265306 276.03282503663996 228.57142857142858 276.2116962537931 235.10204081632654 274.14900983313106 241.63265306122446 270.30474463673517 248.16326530612244 268.0869883574739 254.69387755102042 269.6660828600708 261.2244897959184 271.14819270241037 267.7551020408163 270.4125380453612 274.2857142857143 270.81018475969034 280.81632653061223 272.1629064253191 287.3469387755102 273.5615074583305 293.8775510204082 274.9228772015459 300.40816326530614 276.29331067309363 306.9387755102041 276.46436152812106 313.46938775510205 274.63327747650015 320 273.7990800340307 326.53061224489795 272.044377304157 333.0612244897959 270.14362654191683 339.5918367346939 268.24949277679093 346.12244897959187 268.7286237652524 352.65306122448976 266.93233900678786 359.1836734693877 266.17325832220524 365.71428571428567 266.7001514674221 372.2448979591837 268.27539172692366 378.7755102040816 269.77299733156656 385.3061224489796 270.1456909241806 391.8367346938776 271.63102120696175 398.36734693877554 270.8758780970168 404.8979591836735 271.21138301092066 411.42857142857144 272.6978558605953 417.95918367346934 274.0958229368255 424.48979591836735 275.469155595958 431.0204081632653 275.70897390020923 437.55102040816325 272.9524724596088 444.0816326530612 274.36096664209003 450.61224489795916 275.70979595405737 457.14285714285717 277.06172168529304 463.6734693877551 276.493630114009 470.2040816326531 276.69947813523487 476.7346938775511 278.0212059951715 483.2653061224489 279.0984801079469 489.7959183673469 280.3469744412012 496.3265306122449 279.26734752243925 502.85714285714283 280.47751797737897 509.38775510204084 281.6113100903676 515.9183673469388 281.5274630433442 522.4489795918367 282.6851666851452 528.9795918367347 283.7824438616218 535.5102040816327 284.8879605856247 542.0408163265306 282.6100727381121 548.5714285714286 282.84178364366136 555.1020408163265 283.97601450595397 561.6326530612245 285.0406913761253 568.1632653061224 286.1077921152853 574.6938775510204 287.10945465960043 581.2244897959183 288.1134272960648 587.7551020408164 289.08675356079993 594.2857142857143 289.9403233263142 600.8163265306123 290.8578624526451 607.3469387755102 291.71914608853365 613.8775510204082 290.40279489067666 620.4081632653061 291.27752763125466 626.9387755102041 292.1542678810895 633.469387755102 292.97907867779384 640 293.77765761947785 640 320 0 320"
      />
      
      <polygon
        fill="#563d7c"
        fillRule="evenodd"
        points="0 319.92567426498005 6.530612244897958 319.8564690014918 13.061224489795917 319.8272329159328 19.591836734693878 318.6603030441543 26.122448979591834 318.63876245698475 32.6530612244898 318.51536277671664 39.183673469387756 318.3740200480684 45.71428571428571 316.61218070627245 52.24489795918367 316.6934183765805 58.775510204081634 314.24960365967667 65.3061224489796 313.27263453242415 71.83673469387755 311.9264953496495 78.36734693877551 311.8765478514545 84.89795918367348 310.98521153226847 91.42857142857142 309.61436861617113 97.9591836734694 306.7950307024476 104.48979591836734 305.7914216319463 111.0204081632653 304.96171244072923 117.55102040816327 305.1934276926709 124.08163265306122 304.3146407235712 130.6122448979592 304.68200331691384 137.14285714285714 303.8118326443329 143.6734693877551 304.3059647078263 150.20408163265307 302.2994699996925 156.73469387755102 298.40805921775285 163.26530612244898 296.58635573927785 169.79591836734696 293.1499195599401 176.32653061224488 290.071879972653 182.85714285714283 289.63657355603414 189.3877551020408 288.33570944824595 195.9183673469388 287.0894165370556 202.44897959183675 284.46920376192656 208.97959183673467 279.972656551398 215.51020408163265 280.04850500338176 222.0408163265306 277.941569050837 228.57142857142858 278.0640283074213 235.10204081632654 275.9448007674375 241.63265306122446 273.17510639214527 248.16326530612244 271.62234496516334 254.69387755102042 273.0935246067508 261.2244897959184 274.4743381264691 267.7551020408163 273.63715482544586 274.2857142857143 273.9363718838591 280.81632653061223 275.2027744018779 287.3469387755102 276.50858509467616 293.8775510204082 277.7828556001841 300.40816326530614 279.0659899821753 306.9387755102041 279.15509592767705 313.46938775510205 277.2418787256113 320 276.3280549633221 326.53061224489795 274.4986096968649 333.0612244897959 272.52294500838326 339.5918367346939 270.5584916490134 346.12244897959187 270.96714192873236 352.65306122448976 269.10252766888556 359.1836734693877 268.28352451554434 365.71428571428567 268.7460028923374 372.2448979591837 270.26077918218283 378.7755102040816 271.69778199976696 385.3061224489796 272.0135897414633 391.8367346938776 273.4419033705482 398.36734693877554 272.63148401339674 404.8979591836735 272.9151030716712 411.42857142857144 274.3495707711165 417.95918367346934 275.69872231208086 424.48979591836735 277.02312743671064 431.0204081632653 277.2155117008698 437.55102040816325 275.3902762082965 444.0816326530612 276.7243579950639 450.61224489795916 278.0033385205884 457.14285714285717 279.2852548646406 463.6734693877551 278.6514481007663 470.2040816326531 278.7914300900626 476.7346938775511 280.0493021502437 483.2653061224489 281.0666371485023 489.7959183673469 282.2550544746014 496.3265306122449 281.1190353235766 502.85714285714283 282.2726840792457 509.38775510204084 283.3516796922176 515.9183673469388 283.21977819098095 522.4489795918367 284.32582501045437 528.9795918367347 285.37461340173223 535.5102040816327 286.4315301633123 542.0408163265306 284.1080227660962 548.5714285714286 284.29400972632305 555.1020408163265 285.3839122154353 561.6326530612245 286.4069795195887 568.1632653061224 287.432374825494 574.6938775510204 288.394890245728 581.2244897959183 289.3596255422121 587.7551020408164 290.2949124477949 594.2857142857143 291.1151228809833 600.8163265306123 291.9968020094587 607.3469387755102 292.82442478847037 613.8775510204082 291.47433556728976 620.4081632653061 292.31739954750867 626.9387755102041 293.162398340232 633.469387755102 293.95643652459944 640 294.7261302465907 640 320 0 320"
      />
      
      <polygon
        fill="#178600"
        fillRule="evenodd"
        points="0 320 6.530612244897958 320 13.061224489795917 320 19.591836734693878 320 26.122448979591834 320 32.6530612244898 320 39.183673469387756 320 45.71428571428571 320 52.24489795918367 320 58.775510204081634 318.73032866608946 65.3061224489796 318.7690847278812 71.83673469387755 318.8054638165116 78.36734693877551 318.8419262983352 84.89795918367348 318.8772757748987 91.42857142857142 318.910457346968 97.9591836734694 318.9437149243909 104.48979591836734 318.9749329751606 111.0204081632653 319.0062225410392 117.55102040816327 319.0365570000314 124.08163265306122 319.06409559844127 130.6122448979592 319.09266358286453 137.14285714285714 319.11947938546547 143.6734693877551 319.14635679792184 150.20408163265307 319.171585787115 156.73469387755102 319.1856777879743 163.26530612244898 319.2105344978693 169.79591836734696 319.2338667440234 176.32653061224488 319.257252482657 182.85714285714283 319.27920401454935 189.3877551020408 318.194140858334 195.9183673469388 318.249263666586 202.44897959183675 318.2976043045373 208.97959183673467 316.13887470564305 215.51020408163265 316.24748550319487 222.0408163265306 316.36202872564485 228.57142857142858 316.4695468730272 235.10204081632654 316.5773121585421 241.63265306122446 316.2415605380624 248.16326530612244 315.63817862375697 254.69387755102042 315.7713208504844 261.2244897959184 315.89629720257807 267.7551020408163 316.021560334369 274.2857142857143 316.14299966836165 280.81632653061223 316.2494980164543 287.3469387755102 316.3639800195049 293.8775510204082 316.4714404204917 300.40816326530614 316.57914794933595 306.9387755102041 316.68024911585576 313.46938775510205 315.9758119341673 320 316.09864797056963 326.53061224489795 314.3108448423855 333.0612244897959 314.48450304992195 339.5918367346939 313.52091186160527 346.12244897959187 313.7186819635613 352.65306122448976 313.9104158204092 359.1836734693877 312.9761243517133 365.71428571428567 313.1905233913706 372.2448979591837 313.391773658971 378.7755102040816 313.59348654507045 385.3061224489796 313.7828276255619 391.8367346938776 313.9726033452936 398.36734693877554 314.15658616651586 404.8979591836735 314.32928487967274 411.42857142857144 314.50238018315486 417.95918367346934 314.66485973658627 424.48979591836735 314.8277115282152 431.0204081632653 314.9855928348134 437.55102040816325 313.21290347960894 444.0816326530612 313.42007566061943 450.61224489795916 313.61454188784006 457.14285714285717 313.80945426247933 463.6734693877551 313.19872653400733 470.2040816326531 313.4063314019778 476.7346938775511 313.60759957918094 483.2653061224489 313.796523488203 489.7959183673469 313.9858809061978 496.3265306122449 314.16362513359894 502.85714285714283 314.3417769765712 509.38775510204084 314.51449120521875 515.9183673469388 314.66595496582073 522.4489795918367 314.82877401051684 528.9795918367347 314.981606525095 535.5102040816327 315.134790141868 542.0408163265306 315.27857866669484 548.5714285714286 315.422697435143 555.1020408163265 315.5624168941181 561.6326530612245 315.69356748670987 568.1632653061224 315.8250187921151 574.6938775510204 315.94840818694865 581.2244897959183 316.0720805904961 587.7551020408164 316.1919781162789 594.2857142857143 316.2971237704694 600.8163265306123 316.41015213645244 607.3469387755102 316.5162480887548 613.8775510204082 316.62258769591074 620.4081632653061 316.72240521759926 626.9387755102041 316.8224518753411 633.469387755102 316.91944482765206 640 317.01048893536023 640 320 0 320"
      />
      
      <polygon
        fill="#555555"
        fillRule="evenodd"
        points="0 320 6.530612244897958 320 13.061224489795917 320 19.591836734693878 320 26.122448979591834 320 32.6530612244898 320 39.183673469387756 320 45.71428571428571 320 52.24489795918367 320 58.775510204081634 318.73032866608946 65.3061224489796 318.7690847278812 71.83673469387755 318.8054638165116 78.36734693877551 318.8419262983352 84.89795918367348 318.8772757748987 91.42857142857142 318.910457346968 97.9591836734694 318.9437149243909 104.48979591836734 318.9749329751606 111.0204081632653 319.0062225410392 117.55102040816327 319.0365570000314 124.08163265306122 319.06409559844127 130.6122448979592 319.09266358286453 137.14285714285714 319.11947938546547 143.6734693877551 319.14635679792184 150.20408163265307 319.171585787115 156.73469387755102 319.1856777879743 163.26530612244898 319.2105344978693 169.79591836734696 319.2338667440234 176.32653061224488 319.257252482657 182.85714285714283 319.27920401454935 189.3877551020408 318.194140858334 195.9183673469388 318.249263666586 202.44897959183675 318.2976043045373 208.97959183673467 317.2428493337316 215.51020408163265 317.3188326985575 222.0408163265306 317.4006736851216 228.57142857142858 317.47749530772194 235.10204081632654 317.5544934781102 241.63265306122446 317.1889138920679 248.16326530612244 316.557533504321 254.69387755102042 316.6626129351095 261.2244897959184 316.76124758045427 267.7551020408163 316.86010869031105 274.2857142857143 316.9559517803653 280.81632653061223 317.0400032003081 287.3469387755102 317.1303554507121 293.8775510204082 317.215166050803 300.40816326530614 317.30017177616986 306.9387755102041 317.379963526055 313.46938775510205 317.45993879028606 320 317.537472676657 326.53061224489795 316.50570991615723 333.0612244897959 316.6123711049751 339.5918367346939 315.58589183141 346.12244897959187 315.7206296876319 352.65306122448976 315.8512552195813 359.1836734693877 314.8633738628304 365.71428571428567 315.0201658381356 372.2448979591837 315.16734205217267 378.7755102040816 315.31485676078404 385.3061224489796 315.45332357508346 391.8367346938776 315.592108302813 398.36734693877554 315.7266566131706 404.8979591836735 315.85295280948196 411.42857142857144 315.9795390427161 417.95918367346934 316.09836191013346 424.48979591836735 316.2174568329448 431.0204081632653 316.3329170414401 437.55102040816325 315.5852548742822 444.0816326530612 315.72001235605853 450.61224489795916 315.84650511616815 457.14285714285717 315.9732883550324 463.6734693877551 316.09229566156 470.2040816326531 316.21157608182295 476.7346938775511 316.3272157048756 483.2653061224489 316.4357625909363 489.7959183673469 316.54455895786583 496.3265306122449 316.64668273906904 502.85714285714283 316.7490406911537 509.38775510204084 316.84827458379146 515.9183673469388 316.935298710084 522.4489795918367 317.0288472543052 528.9795918367347 317.1166579440455 535.5102040816327 317.2046702324122 542.0408163265306 317.2872846713207 548.5714285714286 317.3700887896707 555.1020408163265 317.4503653215737 561.6326530612245 317.5257185108771 568.1632653061224 317.60124448726003 574.6938775510204 317.6721384012603 581.2244897959183 317.74319510461015 587.7551020408164 317.8120827320977 594.2857142857143 317.8724946580717 600.8163265306123 317.9374356893316 607.3469387755102 317.9983934831457 613.8775510204082 318.0594914609588 620.4081632653061 318.11684205733366 626.9387755102041 318.1743244840029 633.469387755102 318.23005219088554 640 318.2823620304149 640 320 0 320"
      />
      
      <polygon
        fill="#C1F12E"
        fillRule="evenodd"
        points="0 320 6.530612244897958 320 13.061224489795917 320 19.591836734693878 320 26.122448979591834 320 32.6530612244898 320 39.183673469387756 320 45.71428571428571 320 52.24489795918367 320 58.775510204081634 319.00777461413327 65.3061224489796 319.038061776567 71.83673469387755 319.0664913956945 78.36734693877551 319.0949861593323 84.89795918367348 319.12261113073157 91.42857142857142 319.14854193385827 97.9591836734694 319.17453212740594 104.48979591836734 319.198928489612 111.0204081632653 319.2233807178594 117.55102040816327 319.2470865688072 124.08163265306122 319.2686074790467 130.6122448979592 319.2909328623366 137.14285714285714 319.31188891624146 143.6734693877551 319.3328931400933 150.20408163265307 319.35260913639274 156.73469387755102 319.3611755059123 163.26530612244898 319.3806752512082 169.79591836734696 319.3989790809831 176.32653061224488 319.4173248642337 182.85714285714283 319.43454554836165 189.3877551020408 319.4408447964484 195.9183673469388 319.4579126786817 202.44897959183675 319.4728806265999 208.97959183673467 319.48621079631994 215.51020408163265 319.50139552954994 222.0408163265306 319.5166151572211 228.57142857142858 319.5309013380417 235.10204081632654 319.54522031717084 241.63265306122446 319.30910743060707 248.16326530612244 318.6150659358816 254.69387755102042 318.6573404074607 261.2244897959184 318.6970218398278 267.7551020408163 318.73679461836144 274.2857142857143 318.7753529758122 280.81632653061223 318.8091676004487 287.3469387755102 318.84551710689533 293.8775510204082 318.8796372633949 300.40816326530614 318.9138357166087 306.9387755102041 318.94593665016976 313.46938775510205 318.97811135937496 320 319.00930386609843 326.53061224489795 319.0385834464069 333.0612244897959 319.06793012350585 339.5918367346939 319.09547700369416 346.12244897959187 319.1230869733608 352.65306122448976 319.14985437996125 359.1836734693877 319.1733281869856 365.71428571428567 319.19856185137627 372.2448979591837 319.2222479123672 378.7755102040816 319.24598835977656 385.3061224489796 319.26827281710683 391.8367346938776 319.29060834197907 398.36734693877554 319.31226214085433 404.8979591836735 319.3325878445589 411.42857142857144 319.3529601666614 417.95918367346934 319.37208316296477 424.48979591836735 319.39124990062146 431.0204081632653 319.40983169400704 437.55102040816325 318.57422063621567 444.0816326530612 318.6177415873748 450.61224489795916 318.6585936686459 457.14285714285717 318.69953925386704 463.6734693877551 318.73797379564775 470.2040816326531 318.7764962927924 476.7346938775511 318.81384310620496 483.2653061224489 318.84889927834496 489.7959183673469 318.8840360077342 496.3265306122449 318.91701772795426 502.85714285714283 318.9500750733471 509.38775510204084 318.98212360359554 515.9183673469388 319.010228733191 522.4489795918367 319.0404409897131 528.9795918367347 319.0688002239991 535.5102040816327 319.09722450004375 542.0408163265306 319.1239054925541 548.5714285714286 319.1506478277658 555.1020408163265 319.1765738015676 561.6326530612245 319.2009097972125 568.1632653061224 319.22530154587196 574.6938775510204 319.2481973135323 581.2244897959183 319.27114572083394 587.7551020408164 319.2933935780466 594.2857142857143 319.31290410198466 600.8163265306123 319.3338773154056 607.3469387755102 319.35356421245376 613.8775510204082 319.3732963510285 620.4081632653061 319.39181814775867 626.9387755102041 319.4103825864001 633.469387755102 319.4283803191782 640 319.445274253239 640 320 0 320"
      />
      

      
        <g id="labels">
        
          
          <text x="0" y="330">
            Jul 2014
          </text>
          
        
          
        
          
        
          
        
          
        
          
        
          
        
          
        
          
        
          
        
          
        
          
        
          
        
          
          <text x="84.04040404040404" y="330">
            Aug 2015
          </text>
          
        
          
        
          
        
          
        
          
        
          
        
          
        
          
        
          
        
          
        
          
        
          
        
          
        
          
          <text x="168.08080808080808" y="330">
            Sep 2016
          </text>
          
        
          
        
          
        
          
        
          
        
          
        
          
        
          
        
          
        
          
        
          
        
          
        
          
        
          
          <text x="252.12121212121212" y="330">
            Oct 2017
          </text>
          
        
          
        
          
        
          
        
          
        
          
        
          
        
          
        
          
        
          
        
          
        
          
        
          
        
          
          <text x="336.16161616161617" y="330">
            Nov 2018
          </text>
          
        
          
        
          
        
          
        
          
        
          
        
          
        
          
        
          
        
          
        
          
        
          
        
          
        
          
          <text x="420.2020202020202" y="330">
            Dec 2019
          </text>
          
        
          
        
          
        
          
        
          
        
          
        
          
        
          
        
          
        
          
        
          
        
          
        
          
        
          
          <text x="504.24242424242425" y="330">
            Jan 2021
          </text>
          
        
          
        
          
        
          
        
          
        
          
        
          
        
          
        
          
        
          
        
          
        
          
        
          
        
          
          <text x="588.2828282828283" y="330">
            Feb 2022
          </text>
          
        
          
        
          
        
          
        
          
        
          
        
          
        
          
        
        </g>
      

      
        <text text-anchor="middle" y="370" x="320" id="legend">
          
          <tspan xml:space="preserve" fill="#C1F12E">   </tspan> Batchfile
          
          <tspan xml:space="preserve" fill="#555555">   </tspan> C
          
          <tspan xml:space="preserve" fill="#178600">   </tspan> C#
          
          <tspan xml:space="preserve" fill="#563d7c">   </tspan> CSS
          
          <tspan xml:space="preserve" fill="#244776">   </tspan> CoffeeScript
          
          <tspan xml:space="preserve" fill="#00ADD8">   </tspan> Go
          
          <tspan xml:space="preserve" fill="#e34c26">   </tspan> HTML
          
          <tspan xml:space="preserve" fill="#22e4e8">   </tspan> JSON
          
        </text>
      
        <text text-anchor="middle" y="400" x="320" id="legend">
          
          <tspan xml:space="preserve" fill="#22e8e8">   </tspan> JSon
          
          <tspan xml:space="preserve" fill="#f1e05a">   </tspan> JavaScript
          
          <tspan xml:space="preserve" fill="#2415b9">   </tspan> Less
          
          <tspan xml:space="preserve" fill="#755462">   </tspan> MySQL
          
          <tspan xml:space="preserve" fill="#4F5D95">   </tspan> PHP
          
          <tspan xml:space="preserve" fill="#fd2fdb">   </tspan> PLpgSQL
          
          <tspan xml:space="preserve" fill="#0298c3">   </tspan> Perl
          
          <tspan xml:space="preserve" fill="#3572A5">   </tspan> Python
          
        </text>
      
        <text text-anchor="middle" y="430" x="320" id="legend">
          
          <tspan xml:space="preserve" fill="#701516">   </tspan> Ruby
          
          <tspan xml:space="preserve" fill="#dea584">   </tspan> Rust
          
          <tspan xml:space="preserve" fill="#26c0b0">   </tspan> SCSS
          
          <tspan xml:space="preserve" fill="#0141ae">   </tspan> SQL
          
          <tspan xml:space="preserve" fill="#89e051">   </tspan> Shell
          
          <tspan xml:space="preserve" fill="#2770da">   </tspan> TSQL
          
          <tspan xml:space="preserve" fill="#2b7489">   </tspan> TypeScript
          
          <tspan xml:space="preserve" fill="#2c3e50">   </tspan> Vue
          
        </text>
      
        <text text-anchor="middle" y="460" x="320" id="legend">
          
          <tspan xml:space="preserve" fill="#4B6C4B">   </tspan> Yacc
          
        </text>
      

    </svg>