<svg xmlns="http://www.w3.org/2000/svg" xmlns:xlink="http://www.w3.org/1999/xlink" width="324" height="24"><path fill="red" stroke="black" d="M1.68 19.90L1.68 3.09L10.13 3.09L10.13 4.97L3.64 4.97L3.64 10.27L9.26 10.27L9.26 12.09L3.64 12.09L3.64 19.90L1.68 19.90ZM15.59 11.82L13.66 11.82Q14.13 8.03 18.01 8.03L18.01 8.03Q21.91 8.03 21.91 12.21L21.91 12.21L21.91 17.94Q21.91 18.62 22.54 18.62L22.54 18.62Q22.75 18.62 23.11 18.54L23.11 18.54L23.11 20.23Q22.63 20.34 21.96 20.34L21.96 20.34Q20.38 20.34 20.17 18.57L20.17 18.57Q18.54 20.34 16.59 20.34L16.59 20.34Q15.32 20.34 14.50 19.68L14.50 19.68Q13.42 18.81 13.42 17.11L13.42 17.11Q13.42 13.16 20.19 12.69L20.19 12.69L20.19 12.21Q20.19 9.63 18.01 9.63L18.01 9.63Q15.76 9.63 15.59 11.82L15.59 11.82ZM20.19 15.79L20.19 14.20Q15.18 14.45 15.18 17.02L15.18 17.02Q15.18 18.74 16.88 18.74L16.88 18.74Q18.04 18.74 19.14 17.85L19.14 17.85Q20.19 17.02 20.19 15.79L20.19 15.79ZM28.95 5.25L28.95 3.09L31.05 3.09L31.05 5.25L28.95 5.25ZM29.06 19.90L29.06 8.50L30.94 8.50L30.94 19.90L29.06 19.90ZM42.94 3.09L42.94 17.27Q42.94 18.30 43.92 18.30L43.92 18.30Q44.73 18.30 45.69 18.12L45.69 18.12L45.69 19.91Q44.27 20.11 43.61 20.11L43.61 20.11Q41.06 20.11 41.06 17.61L41.06 17.61L41.06 3.09L42.94 3.09ZM56.68 16.36L58.56 16.36Q57.52 20.37 54.02 20.37L54.02 20.37Q51.86 20.37 50.59 18.56L50.59 18.56Q49.44 16.91 49.44 14.20L49.44 14.20Q49.44 11.61 50.52 9.96L50.52 9.96Q51.79 8.04 54 8.04L54 8.04Q58.32 8.04 58.61 14.57L58.61 14.57L51.25 14.57Q51.39 18.76 54.05 18.76L54.05 18.76Q56.16 18.76 56.68 16.36L56.68 16.36ZM51.32 13.03L56.68 13.03Q56.30 9.64 54 9.64L54 9.64Q51.79 9.64 51.32 13.03L51.32 13.03ZM68.44 9.79L68.44 3.09L70.22 3.09L70.22 19.90L68.92 19.90L68.46 18.41Q67.24 20.38 65.27 20.38L65.27 20.38Q63.46 20.38 62.34 18.62L62.34 18.62Q61.22 16.91 61.22 14.06L61.22 14.06Q61.22 11.73 62.06 10.13L62.06 10.13Q63.18 8.04 65.25 8.04L65.25 8.04Q66.97 8.04 68.44 9.79L68.44 9.79ZM65.68 9.74L65.68 9.74Q64.44 9.74 63.71 11.09L63.71 11.09Q63.09 12.30 63.09 14.09L63.09 14.09Q63.09 16.02 63.67 17.21L63.67 17.21Q64.35 18.68 65.68 18.68L65.68 18.68Q66.89 18.68 67.69 17.47L67.69 17.47Q68.51 16.27 68.51 14.09L68.51 14.09Q68.51 12.32 67.89 11.18L67.89 11.18Q67.13 9.74 65.68 9.74ZM90.02 8.04L90.02 8.04Q92.23 8.04 93.48 9.98L93.48 9.98Q94.56 11.60 94.56 14.20L94.56 14.20Q94.56 16.16 93.91 17.64L93.91 17.64Q92.72 20.38 89.98 20.38L89.98 20.38Q87.86 20.38 86.59 18.57L86.59 18.57Q85.44 16.92 85.44 14.20L85.44 14.20Q85.44 11.27 86.77 9.60L86.77 9.60Q88.03 8.04 90.02 8.04ZM89.98 9.71L89.98 9.71Q88.69 9.71 87.96 11.06L87.96 11.06Q87.32 12.25 87.32 14.20L87.32 14.20Q87.32 16.01 87.84 17.14L87.84 17.14Q88.57 18.70 90 18.70L90 18.70Q91.31 18.70 92.04 17.36L92.04 17.36Q92.68 16.17 92.68 14.23L92.68 14.23Q92.68 12.20 92.02 11.04L92.02 11.04Q91.30 9.71 89.98 9.71ZM97.76 8.50L99.18 8.50L99.45 9.96Q101.25 8.04 103.01 8.04L103.01 8.04Q104.96 8.04 105.87 9.76L105.87 9.76Q106.37 10.73 106.37 12.12L106.37 12.12L106.37 19.90L104.59 19.90L104.59 12.64Q104.59 9.74 102.73 9.74L102.73 9.74Q101.46 9.74 100.52 10.65L100.52 10.65Q99.54 11.64 99.54 12.91L99.54 12.91L99.54 19.90L97.76 19.90L97.76 8.50ZM121.85 3.94L121.85 1.01L124.88 1.01L124.88 2.64Q124.88 5.40 122.74 7.54L122.74 7.54L121.28 7.54Q122.99 5.89 123.18 3.94L123.18 3.94L121.85 3.94ZM126.66 3.94L126.66 1.01L129.68 1.01L129.68 2.64Q129.68 5.40 127.55 7.54L127.55 7.54L126.08 7.54Q127.79 5.89 127.98 3.94L127.98 3.94L126.66 3.94ZM141.02 8.50L142.27 8.50L142.27 18.57Q142.27 23.34 137.88 23.34L137.88 23.34Q134.13 23.34 133.49 19.65L133.49 19.65L135.36 19.65Q135.68 21.74 137.93 21.74L137.93 21.74Q140.54 21.74 140.54 18.71L140.54 18.71L140.54 16.77Q139.29 18.23 137.52 18.23L137.52 18.23Q135.61 18.23 134.34 16.72L134.34 16.72Q133.20 15.32 133.20 13.22L133.20 13.22Q133.20 11.70 133.79 10.54L133.79 10.54Q135.06 8.04 137.61 8.04L137.61 8.04Q139.39 8.04 140.61 9.48L140.61 9.48L141.02 8.50ZM137.78 9.69L137.78 9.69Q136.45 9.69 135.67 10.86L135.67 10.86Q135.02 11.80 135.02 13.20L135.02 13.20Q135.02 14.65 135.74 15.62L135.74 15.62Q136.51 16.68 137.80 16.68L137.80 16.68Q138.87 16.68 139.61 15.86L139.61 15.86Q140.59 14.80 140.59 13.22L140.59 13.22Q140.59 11.65 139.75 10.63L139.75 10.63Q138.93 9.69 137.78 9.69ZM148.95 5.25L148.95 3.09L151.05 3.09L151.05 5.25L148.95 5.25ZM149.06 19.90L149.06 8.50L150.94 8.50L150.94 19.90L149.06 19.90ZM160.66 8.50L160.66 5.40L162.49 5.40L162.49 8.50L165.32 8.50L165.32 10.22L162.49 10.22L162.49 17.48Q162.49 18.30 163.41 18.30L163.41 18.30Q164.52 18.30 165.48 18.12L165.48 18.12L165.48 19.91Q164.06 20.11 163.04 20.11L163.04 20.11Q160.66 20.11 160.66 17.73L160.66 17.73L160.66 10.22L158.40 10.22L158.40 8.50L160.66 8.50ZM169.76 19.90L169.76 3.09L171.54 3.09L171.54 9.79Q173.29 8.04 175.01 8.04L175.01 8.04Q176.96 8.04 177.87 9.76L177.87 9.76Q178.37 10.73 178.37 12.12L178.37 12.12L178.37 19.90L176.59 19.90L176.59 12.64Q176.59 9.74 174.73 9.74L174.73 9.74Q173.47 9.74 172.52 10.65L172.52 10.65Q171.54 11.64 171.54 12.90L171.54 12.90L171.54 19.90L169.76 19.90ZM181.76 16.42L181.76 8.50L183.54 8.50L183.54 16.23Q183.54 18.70 185.50 18.70L185.50 18.70Q186.76 18.70 187.72 17.77L187.72 17.77Q188.59 16.93 188.59 15.57L188.59 15.57L188.59 8.50L190.37 8.50L190.37 19.90L189.05 19.90L188.73 18.55Q187.16 20.38 185.10 20.38L185.10 20.38Q183.30 20.38 182.40 19.01L182.40 19.01Q181.76 18 181.76 16.42L181.76 16.42ZM193.78 19.90L193.78 3.09L195.56 3.09L195.56 9.79Q197.03 8.04 198.73 8.04L198.73 8.04Q200.50 8.04 201.61 9.57L201.61 9.57Q202.78 11.21 202.78 14.09L202.78 14.09Q202.78 16.10 202.16 17.64L202.16 17.64Q201.05 20.38 198.68 20.38L198.68 20.38Q196.72 20.38 195.54 18.41L195.54 18.41L195.08 19.90L193.78 19.90ZM198.29 9.74L198.29 9.74Q196.92 9.74 196.14 11.13L196.14 11.13Q195.49 12.28 195.49 14.09L195.49 14.09Q195.49 16.04 196.18 17.29L196.18 17.29Q196.97 18.68 198.32 18.68L198.32 18.68Q199.50 18.68 200.19 17.47L200.19 17.47Q200.91 16.25 200.91 14.09L200.91 14.09Q200.91 11.96 200.09 10.79L200.09 10.79Q199.41 9.74 198.29 9.74ZM205.17 12.86L205.17 11.13L214.82 11.13L214.82 12.86L205.17 12.86ZM220.66 8.50L220.66 5.40L222.49 5.40L222.49 8.50L225.32 8.50L225.32 10.22L222.49 10.22L222.49 17.48Q222.49 18.30 223.41 18.30L223.41 18.30Q224.52 18.30 225.48 18.12L225.48 18.12L225.48 19.91Q224.06 20.11 223.04 20.11L223.04 20.11Q220.66 20.11 220.66 17.73L220.66 17.73L220.66 10.22L218.40 10.22L218.40 8.50L220.66 8.50ZM231.50 8.50L233.33 8.50L233.33 10.90Q235.41 8.71 237.77 8.04L237.77 8.04L237.77 10.13Q235.05 10.78 233.33 13.08L233.33 13.08L233.33 19.90L231.50 19.90L231.50 8.50ZM246.02 8.04L246.02 8.04Q248.23 8.04 249.48 9.98L249.48 9.98Q250.56 11.60 250.56 14.20L250.56 14.20Q250.56 16.16 249.91 17.64L249.91 17.64Q248.72 20.38 245.98 20.38L245.98 20.38Q243.86 20.38 242.59 18.57L242.59 18.57Q241.44 16.92 241.44 14.20L241.44 14.20Q241.44 11.27 242.77 9.60L242.77 9.60Q244.03 8.04 246.02 8.04ZM245.98 9.71L245.98 9.71Q244.69 9.71 243.96 11.06L243.96 11.06Q243.32 12.25 243.32 14.20L243.32 14.20Q243.32 16.01 243.84 17.14L243.84 17.14Q244.57 18.70 246 18.70L246 18.70Q247.31 18.70 248.04 17.36L248.04 17.36Q248.68 16.17 248.68 14.23L248.68 14.23Q248.68 12.20 248.02 11.04L248.02 11.04Q247.30 9.71 245.98 9.71ZM253.78 8.50L255.11 8.50L255.40 10.01Q257.00 8.04 258.73 8.04L258.73 8.04Q260.48 8.04 261.61 9.60L261.61 9.60Q262.80 11.27 262.80 13.93L262.80 13.93Q262.80 16.42 261.84 18.08L261.84 18.08Q260.71 20.05 258.70 20.05L258.70 20.05Q256.97 20.05 255.56 18.47L255.56 18.47L255.56 23.34L253.78 23.34L253.78 8.50ZM258.32 9.74L258.32 9.74Q257.14 9.74 256.32 10.91L256.32 10.91Q255.49 12.12 255.49 13.96L255.49 13.96Q255.49 15.63 256.07 16.75L256.07 16.75Q256.85 18.33 258.34 18.33L258.34 18.33Q259.52 18.33 260.21 17.20L260.21 17.20Q260.91 15.98 260.91 13.96L260.91 13.96Q260.91 12.11 260.26 10.98L260.26 10.98Q259.55 9.74 258.32 9.74ZM265.76 19.90L265.76 3.09L267.54 3.09L267.54 9.79Q269.29 8.04 271.01 8.04L271.01 8.04Q272.96 8.04 273.87 9.76L273.87 9.76Q274.37 10.73 274.37 12.12L274.37 12.12L274.37 19.90L272.59 19.90L272.59 12.64Q272.59 9.74 270.73 9.74L270.73 9.74Q269.47 9.74 268.52 10.65L268.52 10.65Q267.54 11.64 267.54 12.90L267.54 12.90L267.54 19.90L265.76 19.90ZM284.68 16.36L286.56 16.36Q285.52 20.37 282.02 20.37L282.02 20.37Q279.86 20.37 278.59 18.56L278.59 18.56Q277.44 16.91 277.44 14.20L277.44 14.20Q277.44 11.61 278.52 9.96L278.52 9.96Q279.79 8.04 282 8.04L282 8.04Q286.32 8.04 286.61 14.57L286.61 14.57L279.25 14.57Q279.39 18.76 282.05 18.76L282.05 18.76Q284.16 18.76 284.68 16.36L284.68 16.36ZM279.32 13.03L284.68 13.03Q284.30 9.64 282 9.64L282 9.64Q279.79 9.64 279.32 13.03L279.32 13.03ZM296.68 16.36L298.56 16.36Q297.52 20.37 294.02 20.37L294.02 20.37Q291.86 20.37 290.59 18.56L290.59 18.56Q289.44 16.91 289.44 14.20L289.44 14.20Q289.44 11.61 290.52 9.96L290.52 9.96Q291.79 8.04 294 8.04L294 8.04Q298.32 8.04 298.61 14.57L298.61 14.57L291.25 14.57Q291.39 18.76 294.05 18.76L294.05 18.76Q296.16 18.76 296.68 16.36L296.68 16.36ZM291.32 13.03L296.68 13.03Q296.30 9.64 294 9.64L294 9.64Q291.79 9.64 291.32 13.03L291.32 13.03ZM301.44 16.36L303.34 16.36Q303.66 18.76 306.14 18.76L306.14 18.76Q308.64 18.76 308.64 17.00L308.64 17.00Q308.64 16.16 308.06 15.69L308.06 15.69Q307.45 15.19 305.88 14.64L305.88 14.64L305.54 14.51Q303.81 13.91 303.02 13.31L303.02 13.31Q301.90 12.43 301.90 11.19L301.90 11.19Q301.90 9.70 303.20 8.80L303.20 8.80Q304.32 8.03 305.93 8.03L305.93 8.03Q309.55 8.03 310.13 11.32L310.13 11.32L308.26 11.32Q307.97 9.56 305.91 9.56L305.91 9.56Q303.70 9.56 303.70 11.12L303.70 11.12Q303.70 12.14 306.66 13.18L306.66 13.18Q308.32 13.77 309.05 14.30L309.05 14.30Q310.46 15.30 310.46 16.96L310.46 16.96Q310.46 18.56 309.20 19.50L309.20 19.50Q308.00 20.37 306.09 20.37L306.09 20.37Q301.91 20.37 301.44 16.36L301.44 16.36ZM313.85 3.94L313.85 1.01L316.88 1.01L316.88 2.64Q316.88 5.40 314.74 7.54L314.74 7.54L313.28 7.54Q314.99 5.89 315.18 3.94L315.18 3.94L313.85 3.94ZM318.66 3.94L318.66 1.01L321.68 1.01L321.68 2.64Q321.68 5.40 319.55 7.54L319.55 7.54L318.08 7.54Q319.79 5.89 319.98 3.94L319.98 3.94L318.66 3.94Z"/></svg>